<?xml version="1.0" encoding="UTF-8" standalone="no"?>
<svg
   xmlns:dc="http://purl.org/dc/elements/1.1/"
   xmlns:cc="http://creativecommons.org/ns#"
   xmlns:rdf="http://www.w3.org/1999/02/22-rdf-syntax-ns#"
   xmlns:svg="http://www.w3.org/2000/svg"
   xmlns="http://www.w3.org/2000/svg"
   height="100%"
   width="100%"
   version="1.1"
   id="svg2"
   viewBox="0 0 512 512">
  <metadata
     id="metadata508">
    <rdf:RDF>
      <cc:Work
         rdf:about="">
        <dc:format>image/svg+xml</dc:format>
        <dc:type
           rdf:resource="http://purl.org/dc/dcmitype/StillImage" />
        <dc:title />
      </cc:Work>
    </rdf:RDF>
  </metadata>
  <defs
     id="defs506" />
  <path
     style="fill:#924565;fill-opacity:1;stroke:none"
     d="M 26,0 C 11.60265,0 0,11.60265 0,26 l 0,460 c 0,14.39735 11.60265,26 26,26 l 460,0 c 14.39735,0 26,-11.60265 26,-26 L 512,26 C 512,11.60265 500.39735,0 486,0 L 26,0 Z"
     id="rect2986" />
  <path
     id="path3136"
     d="m 233.30273,56 c -8.4774,0 -14.44833,6.16428 -15.32031,13.69531 l -4.88672,42.31055 c -9.86139,2.93513 -19.27998,6.87608 -28.17578,11.66797 L 151.54688,97.20898 c -5.93987,-4.70629 -14.52012,-4.84813 -20.51758,1.14454 l -31.875,31.87695 c -5.99427,5.99426 -5.68043,14.44812 -1.14454,20.51758 l 25.62305,34.2539 c -9.40966,21.6034 -11.61771,27.78658 -11.62304,27.78125 l -42.31055,4.88672 c -7.52784,0.87198 -13.69532,6.8453 -13.69532,15.32031 l 0,45.08594 c 0,4.39664 1.66612,8.05089 4.31641,10.70117 l 52.47071,52.47071 -15.22266,19.20898 c -4.70629,5.93987 -4.84814,14.52011 1.14453,20.51758 L 229.73828,512 486,512 c 14.39735,0 26,-11.60265 26,-26 L 512,228.64258 381.50195,98.14453 C 375.50768,92.15027 366.96677,92.29371 361.0293,97 l -19.67188,15.59375 -52.26953,-52.26953 c -2.65017,-2.65018 -6.30376,-4.31641 -10.70117,-4.31641 l 15.54687,15.54688 5.89649,40.72461 99.88867,99.88867 c 0.0596,0.19543 0.12479,0.38821 0.18359,0.58398 l 56.09375,56.09375 0,9.20313 c 0,0.21002 -0.0198,0.41053 -0.0273,0.61719 L 233.30273,56 Z"
     style="opacity:0.25;fill:#000000" />
  <path
     d="m 233.30208,56 c -8.4774,0 -14.44767,6.16466 -15.31965,13.6957 l -4.88709,42.31027 c -9.86139,2.93513 -19.27958,6.87505 -28.17538,11.66694 L 151.54709,97.20949 c -5.93987,-4.70629 -14.51968,-4.84789 -20.51714,1.14478 l -31.87611,31.8761 c -5.99426,5.99426 -5.68067,14.44768 -1.14478,20.51714 l 25.62344,34.25365 c -9.47418,21.75153 -11.64774,27.87219 -11.62293,27.78179 l -42.31028,4.88709 c -7.52783,0.87198 -13.6957,6.84465 -13.6957,15.31966 l 0,45.08702 c 0,8.47741 6.19267,14.19169 13.6957,15.27966 l 42.48706,6.16386 c 2.94074,9.73819 6.86865,19.03238 11.62295,27.82579 L 97.56907,360.4573 c -4.70629,5.93987 -4.84788,14.51968 1.14479,20.51715 l 31.87609,31.8761 c 5.99427,5.99427 14.39969,5.68068 20.47315,1.14477 l 34.12164,-25.49223 c 8.82382,4.72869 18.1476,8.62861 27.9138,11.53494 l 4.88708,42.26627 C 218.85761,449.83213 224.82948,456 233.30528,456 l 45.08702,0 c 8.47742,0 14.19169,-6.19266 15.27966,-13.6957 l 6.16386,-42.52707 c 9.4942,-2.88953 18.5676,-6.69904 27.16501,-11.31174 l 34.47125,25.75943 c 6.07106,4.5359 14.51968,4.8479 20.51715,-1.14478 l 31.87609,-31.87609 c 5.99426,-5.99427 5.85108,-14.57727 1.14478,-20.51715 l -26.63941,-33.59287 c 4.6911,-8.7174 8.57901,-17.91879 11.49094,-27.56098 l 42.43907,-6.16387 c 7.49983,-1.08557 13.6957,-6.84385 13.6957,-15.31967 l 0,-45.08701 c 0,-8.47741 -6.16467,-14.40767 -13.6957,-15.27966 l -42.39826,-4.93109 c -2.87913,-9.58538 -6.67825,-18.75479 -11.31176,-27.4314 l 25.93223,-34.78163 c 4.53591,-6.07108 4.8479,-14.51968 -1.14477,-20.51714 L 381.50205,98.14547 c -5.99427,-5.99426 -14.53569,-5.85106 -20.47316,-1.14477 l -33.76725,26.76901 c -8.67582,-4.68389 -17.83321,-8.571 -27.4314,-11.49095 L 293.66638,69.7037 C 292.58079,62.20386 286.86651,56.008 278.3867,56.008 Z m 22.71791,136.97299 c 34.81844,0 63.04662,28.23138 63.04662,63.04661 0,34.81844 -28.23138,63.04661 -63.04662,63.04661 -34.81843,0 -63.04662,-28.23137 -63.04662,-63.04661 0,-34.81843 28.23139,-63.04661 63.04662,-63.04661"
     id="path104"
     style="fill:#ffffff" />
</svg>
