<?xml version="1.0" encoding="UTF-8" standalone="no"?>
<svg
   xmlns:dc="http://purl.org/dc/elements/1.1/"
   xmlns:cc="http://creativecommons.org/ns#"
   xmlns:rdf="http://www.w3.org/1999/02/22-rdf-syntax-ns#"
   xmlns:svg="http://www.w3.org/2000/svg"
   xmlns="http://www.w3.org/2000/svg"
   height="100%"
   width="100%"
   version="1.1"
   id="svg2"
   viewBox="0 0 512 512">
  <metadata
     id="metadata508">
    <rdf:RDF>
      <cc:Work
         rdf:about="">
        <dc:format>image/svg+xml</dc:format>
        <dc:type
           rdf:resource="http://purl.org/dc/dcmitype/StillImage" />
        <dc:title />
      </cc:Work>
    </rdf:RDF>
  </metadata>
  <defs
     id="defs506" />
  <path
     style="fill:#924565;fill-opacity:1;stroke:none"
     d="m 25.999535,-1e-5 c -14.39735,0 -26,11.60264 -26,26 l 0,460.00002 c 0,14.3973 11.60265,26 26,26 l 459.999995,0 c 14.39735,0 26,-11.6027 26,-26 l 0,-460.00002 c 0,-14.39736 -11.60265,-26 -26,-26 l -459.999995,0 z"
     id="rect2986" />
  <path
     id="path3143"
     d="m 233.29928,55.9997 c -8.47746,0 -14.44441,6.17515 -15.31641,13.70703 l -4.88476,42.29883 c -9.86144,2.93515 -19.29556,6.87409 -28.19141,11.66601 L 151.54537,97.20673 C 145.60546,92.5004 137.02449,92.35882 131.0278,98.35712 L 99.131315,130.2243 c -5.9943,5.99431 -5.68357,14.44887 -1.14844,20.51758 l 25.630855,34.25196 c -9.40658,21.59632 -11.60276,27.78822 -11.60937,27.78711 l -42.298825,4.88476 c -7.52788,0.87199 -13.70508,6.86504 -13.70508,15.3457 l 0,45.05665 c 0,4.39638 1.66749,8.05422 4.32032,10.70703 l 52.468735,52.46875 -15.208975,19.21093 c -4.70632,5.9399 -4.87321,14.51893 1.12109,20.51563 l 31.867185,31.86914 c 0.007,0.007 0.0145,0.0126 0.0215,0.0195 l 99.14062,99.14067 256.26953,0 c 14.39735,0 26,-11.6027 26,-26 l 0,-257.38872 L 381.51609,98.12662 c -5.99431,-5.99431 -14.54918,-5.82823 -20.48828,-1.12109 L 341.35788,112.59146 289.10202,60.3356 c -2.64547,-2.64547 -6.29506,-4.30664 -10.68945,-4.30664 l -45.08398,0 -0.002,0 -0.0273,-0.0293 z"
     style="opacity:0.25;fill:#000000" />
  <path
     id="path3160"
     d="m 233.29838,55.99999 c -8.47746,0 -14.4441,6.17502 -15.31608,13.7069 l -4.88507,42.29885 c -9.86144,2.93515 -19.29379,6.87474 -28.18965,11.66666 L 151.54551,97.20689 c -5.93991,-4.70633 -14.52055,-4.84888 -20.51724,1.14942 l -31.896555,31.86782 c -5.9943,5.99431 -5.68455,14.44853 -1.14942,20.51724 l 25.632175,34.25287 c -9.47424,21.75165 -11.63399,27.87775 -11.60919,27.78736 l -42.298845,4.88506 c -7.52788,0.87199 -13.7069,6.86416 -13.7069,15.34482 l 0,45.05748 c 0,8.47746 6.20302,14.20417 13.7069,15.28735 l 42.471255,6.17816 c 2.94075,9.73825 6.85487,19.02344 11.6092,27.81609 l -26.206895,33.10345 c -4.70632,5.9399 -4.87361,14.52054 1.12069,20.51724 l 31.867815,31.86782 c 5.9943,5.9943 14.41339,5.68455 20.4885,1.14943 l 34.1092,-25.48851 c 8.82386,4.72873 18.16559,8.64457 27.93103,11.55172 l 4.88506,42.2414 c 0.87199,7.5279 6.83542,13.7069 15.31609,13.7069 l 45.11494,0 c 8.47747,0 14.17544,-6.1823 15.25862,-13.6782 l 6.14943,-42.52872 c 9.49424,-2.88955 18.59285,-6.73464 27.18391,-11.35057 l 34.45402,25.77586 c 6.0711,4.53593 14.54927,4.84888 20.54598,-1.14942 l 31.86781,-31.86782 c 5.99431,-5.99431 5.82782,-14.57813 1.12069,-20.51724 l -26.60919,-33.59196 c 4.69112,-8.71746 8.5823,-17.91442 11.49425,-27.55747 l 42.41379,-6.17816 c 7.49988,-1.08558 13.7069,-6.83543 13.7069,-15.31609 l 0,-45.08621 c 0,-8.47747 -6.18302,-14.38663 -13.7069,-15.25862 l -42.38505,-4.94253 c -2.87916,-9.58545 -6.65958,-18.77066 -11.29311,-27.44253 l 25.91954,-34.77011 c 4.53593,-6.0711 4.84889,-14.52054 -1.14942,-20.51724 L 381.51677,98.12643 c -5.99431,-5.99431 -14.5494,-5.82782 -20.4885,-1.12069 l -33.76437,26.75287 c -8.67586,-4.68393 -17.84749,-8.54477 -27.44253,-11.46552 l -6.14943,-42.5862 c -1.08558,-7.49988 -6.78435,-13.67816 -15.25862,-13.67816 l -45.0862,0 -0.0287,-0.0287 z m -49.79885,111.81034 148.44828,0 0,147.32759 c -9.88465,-10.37343 -0.0335,0.0805 -59.39656,-58.47701 -41.11933,18.03251 -53.15881,47.58462 -36.83908,112.32759 -59.91183,-63.023 -82.17331,-109.28857 -12.12643,-161.55173 l -38.93678,-38.67816 -1.14943,-0.91954 0,-0.0287 z"
     style="fill:#ffffff" />
</svg>
