<?xml version="1.0" encoding="UTF-8" standalone="no"?>
<svg
   xmlns:dc="http://purl.org/dc/elements/1.1/"
   xmlns:cc="http://creativecommons.org/ns#"
   xmlns:rdf="http://www.w3.org/1999/02/22-rdf-syntax-ns#"
   xmlns:svg="http://www.w3.org/2000/svg"
   xmlns="http://www.w3.org/2000/svg"
   height="100%"
   width="100%"
   version="1.1"
   id="svg2"
   viewBox="0 0 512 512">
  <metadata
     id="metadata508">
    <rdf:RDF>
      <cc:Work
         rdf:about="">
        <dc:format>image/svg+xml</dc:format>
        <dc:type
           rdf:resource="http://purl.org/dc/dcmitype/StillImage" />
        <dc:title />
      </cc:Work>
    </rdf:RDF>
  </metadata>
  <defs
     id="defs506" />
  <path
     style="fill:#66ae4a;fill-opacity:1;stroke:none"
     d="m 26,1e-5 c -14.39736,0 -26,11.60265 -26,26 L 0,486 c 0,14.3974 11.60264,26 26,26 l 460,0 c 14.39735,0 26,-11.6026 26,-26 L 512,26.00001 C 512,11.60266 500.39735,9.9999999e-6 486,9.9999999e-6 l -460,0 z"
     id="rect2986" />
  <path
     id="path3577"
     d="m 423.5,68.59376 c -32.9055,9.43586 -59.9144,35.0509 -87.71875,54.96875 -62.14437,50.10641 -115.74858,110.03781 -163.65625,173.6875 -26.16461,-13.80339 -50.73973,-31.29078 -78.09375,-42.375 -35.9022,-7.11492 -50.67496,42.88689 -22.5,61.75 49.77437,56.82263 96.65972,116.31776 151.9375,168.03129 9.14591,9.1026 18.27183,18.2286 27.40625,27.3437 L 486,512 c 14.39735,0 26,-11.6026 26,-26 l 0,-342.34374 C 488.85579,120.61557 465.67978,97.59448 442.46875,74.62501 436.98697,70.68582 430.25255,68.53297 423.5,68.59376 Z"
     style="color:#000000;opacity:0.25;fill:#000000;stroke:none" />
  <path
     style="color:#000000;fill:#ffffff;stroke:none"
     d="m 423.5,68.59376 a 32.29,32.29 0 0 0 -5.1875,0.4375 32.29,32.29 0 0 0 -10.125,3.90625 c -1.77593,1.00052 -3.69283,2.88072 -5.46875,3.90625 -0.30015,0.27514 -0.50611,0.49987 -0.78125,0.75 C 323.79727,123.2923 243.76188,201.70082 172.125,297.25001 l -67.25,-38.3125 a 32.29,32.29 0 0 0 -40.625,49.25 l 107.0625,124.28125 a 32.29,32.29 0 0 0 53.15625,-7.03125 C 277.87124,316.60647 341.80902,218.50463 445.6875,124.53126 A 32.29,32.29 0 0 0 423.5,68.59376 Z"
     id="path158" />
</svg>
