<?xml version="1.0" encoding="UTF-8" standalone="no"?>
<svg
   xmlns:dc="http://purl.org/dc/elements/1.1/"
   xmlns:cc="http://creativecommons.org/ns#"
   xmlns:rdf="http://www.w3.org/1999/02/22-rdf-syntax-ns#"
   xmlns:svg="http://www.w3.org/2000/svg"
   xmlns="http://www.w3.org/2000/svg"
   height="100%"
   width="100%"
   version="1.1"
   id="svg2"
   viewBox="0 0 512 512">
  <metadata
     id="metadata100">
    <rdf:RDF>
      <cc:Work
         rdf:about="">
        <dc:format>image/svg+xml</dc:format>
        <dc:type
           rdf:resource="http://purl.org/dc/dcmitype/StillImage" />
        <dc:title />
      </cc:Work>
    </rdf:RDF>
  </metadata>
  <defs
     id="defs98" />
  <path
     style="fill:#b93d48;fill-opacity:1;stroke:none"
     d="m 25.999641,-7e-5 c -14.39735,0 -26,11.60265 -26,26 l 0,460 c 0,14.39735 11.60265,26 26,26 l 459.999999,0 c 14.39735,0 26,-11.60265 26,-26 l 0,-460 c 0,-14.39735 -11.60265,-26 -26,-26 l -459.999999,0 z"
     id="rect2986-1" />
  <path
     id="path3059"
     d="m 363.89098,56.00783 c -5.80413,-0.12786 -10.75521,1.40258 -14.27148,4.80469 l -0.18946,0.18945 -23.78515,23.83203 101.60742,101.60547 84.74805,84.74805 0,-88.38086 L 409.12731,79.93361 C 394.16584,64.97214 376.87366,56.29248 363.89098,56.00783 Z m -51.42187,42.00195 -25.16407,25.16406 101.60742,101.60547 -0.002,0.002 123.08985,123.08984 0,-50.32812 L 312.46906,98.00982 Z m -40.71875,40.67188 -153.45704,153.45703 -18.837892,18.83594 -4.80273,4.80468 -38.292967,120.01563 19.134767,19.13476 -0.10743,0.0352 57.035162,57.03516 353.57813,0 c 14.39735,0 26,-11.60265 26,-26 l 0,-107.06836 -240.25,-240.25 z"
     style="opacity:0.25;fill:#000000;fill-rule:evenodd" />
  <path
     id="path3006"
     d="m 363.89002,56.00731 c -5.80413,-0.12786 -10.75431,1.40232 -14.27058,4.80443 l -0.19027,0.19027 -23.78429,23.83187 101.6065,101.6065 23.45131,-23.49888 0.38055,-0.33298 c 0.0533,-0.0533 0.0895,-0.0895 0.14263,-0.14263 11.04505,-11.37688 2.58279,-37.80143 -19.075,-59.46074 L 409.12767,79.93439 C 394.1661,64.97266 376.87282,56.29196 363.89002,56.00731 Z m -51.42164,42.00307 -25.16379,25.16378 101.60651,101.60651 25.16378,-25.16379 -101.6065,-101.6065 z m -40.71872,40.67114 -153.45626,153.45627 -18.837162,18.83716 -4.80443,4.80443 -38.292717,120.01554 a 15.618813,17.401421 0.78539816 0 0 5.04228,17.2674 15.618813,17.401421 0.78539816 0 0 13.985157,1.90275 l 121.680452,-38.38786 3.99576,-3.99576 18.31391,-18.3139 L 373.35617,240.28803 271.74966,138.68152 Z M 121.48049,333.37975 a 4.3587943,4.3587943 0 0 1 3.52008,1.23679 l 8.94289,8.99046 33.34558,-1.71247 a 4.3587943,4.3587943 0 0 1 3.09196,1.04651 4.3587943,4.3587943 0 0 1 1.47463,3.47251 l -1.71247,36.3424 6.6596,6.6596 a 4.3587943,4.3587943 0 0 1 -1.95031,7.27799 l -57.41529,15.36466 a 4.3587943,4.3587943 0 0 1 -4.18603,-1.14165 L 102.12008,399.7855 a 4.3587943,4.3587943 0 0 1 -1.14165,-4.28117 l 16.74414,-58.93748 a 4.3587943,4.3587943 0 0 1 3.75792,-3.1871 z"
     style="fill:#ffffff;fill-rule:evenodd" />
</svg>
