<?xml version="1.0" encoding="UTF-8" standalone="no"?>
<svg
   xmlns:dc="http://purl.org/dc/elements/1.1/"
   xmlns:cc="http://creativecommons.org/ns#"
   xmlns:rdf="http://www.w3.org/1999/02/22-rdf-syntax-ns#"
   xmlns:svg="http://www.w3.org/2000/svg"
   xmlns="http://www.w3.org/2000/svg"
   height="100%"
   width="100%"
   version="1.1"
   id="svg2"
   viewBox="0 0 512 512">
  <metadata
     id="metadata102">
    <rdf:RDF>
      <cc:Work
         rdf:about="">
        <dc:format>image/svg+xml</dc:format>
        <dc:type
           rdf:resource="http://purl.org/dc/dcmitype/StillImage" />
        <dc:title />
      </cc:Work>
    </rdf:RDF>
  </metadata>
  <defs
     id="defs100" />
  <path
     style="fill:#ef6a47;fill-opacity:1;stroke:none"
     d="m 25.99978,-4.1e-4 c -14.39735,0 -26,11.60264 -26,26 l 0,460 c 0,14.39735 11.60265,26 26,26 l 460,0 c 14.39735,0 26,-11.60265 26,-26 l 0,-460 c 0,-14.39736 -11.60265,-26 -26,-26 l -460,0 z"
     id="rect2986" />
  <path
     id="path3293"
     d="m 420.87521,48.65666 c -34.20554,0 -55.53125,15.9948 -55.53125,44.3125 0,10.07585 4.01,18.45533 11.02539,25.47071 l 54.95899,54.95898 c -2.96534,3.82816 -7.86421,6.0936 -14.41602,6.41992 l -42.28711,-42.28711 -10.65625,0 3.34375,41.78125 144.6875,144.6875 0,-216.46875 -49.0625,-49.0625 c -11.49531,-7.00933 -27.4831,-9.8125 -42.0625,-9.8125 z m -234.59375,60.75 c -83.84128,0 -135.15625,33.08357 -135.15625,70.15625 0,7.7856 3.35957,14.15449 8.45508,19.25 l 48.47852,48.47852 c -1.28518,0.43087 -2.6408,0.87575 -3.90235,1.30273 -45.05755,15.39942 -60.4375,38.77137 -60.4375,71.28125 0,22.23581 7.70512,43.70512 23.19727,59.19727 l 132.92773,132.92773 286.15625,0 c 14.39735,0 26,-11.60265 26,-26 l 0,-115.48242 L 275.57638,134.09612 C 261.07546,119.5952 234.5798,109.40666 186.28146,109.40666 Z"
     style="font-style:normal;font-variant:normal;font-weight:bold;font-stretch:normal;font-size:medium;line-height:125%;font-family:Serif;-inkscape-font-specification:'Serif Bold';letter-spacing:0px;word-spacing:0px;opacity:0.25;fill:#000000;fill-opacity:1;stroke:none" />
  <path
     id="path3014"
     d="m 420.87478,48.65584 c -34.20554,0 -55.53125,15.9948 -55.53125,44.3125 0,20.46725 16.5459,33.93518 41.21875,43.1875 14.29903,5.04672 28.0625,13.16708 28.0625,26.625 0,10.65418 -7.03857,17.09375 -19.375,17.09375 -18.50463,0 -33.33529,-19.35314 -40.625,-42.34375 l -10.65625,0 3.34375,41.78125 c 10.65418,9.81306 31.70535,13.46875 47.40625,13.46875 34.20553,0 57.75,-15.43844 57.75,-45.71875 0,-24.1121 -15.14316,-35.59319 -40.9375,-45.40625 -16.26165,-5.88784 -28.3125,-12.62882 -28.3125,-23.84375 0,-8.69157 6.16094,-16.25 17.65625,-16.25 14.29903,0 26.36041,12.91039 31.6875,34.21875 l 10.375,0 0,-37.3125 c -11.49531,-7.00933 -27.4831,-9.8125 -42.0625,-9.8125 z m -234.59375,60.75 c -83.84128,0 -135.15625,33.08357 -135.15625,70.15625 0,25.66569 36.51468,35.9375 51.34375,35.9375 12.54767,0 18.81221,-9.12413 23.375,-22.8125 15.96977,-48.47965 34.21773,-57.03125 50.1875,-57.03125 16.54011,0 33.09375,9.70887 33.09375,42.21875 l 0,30.21875 c -19.96221,13.68838 -67.89608,27.95233 -104.96875,40.5 -45.05756,15.39942 -60.4375,38.77137 -60.4375,71.28125 0,42.77616 28.51977,82.71875 86.125,82.71875 36.50232,0 61.60029,-19.97572 81.5625,-33.09375 7.41453,17.68082 17.09201,33.09375 44.46875,33.09375 29.65814,0 65.58474,-9.71047 84.40625,-17.125 l -1.6875,-18.8125 c -7.41454,0.57035 -18.85102,-0.0233 -27.40625,-2.875 -7.41454,-2.28139 -18.25,-9.09942 -18.25,-42.75 l 0,-131.75 c 0,-35.36163 -5.70452,-79.875 -106.65625,-79.875 z m 22.84375,127.1875 0,82.71875 c -1.1407,30.79884 -19.97558,38.78125 -35.375,38.78125 -22.2436,0 -42.21875,-17.67776 -42.21875,-47.90625 0,-26.80639 9.13953,-39.92907 26.25,-49.625 17.68081,-9.69593 37.65538,-17.69491 51.34375,-23.96875 z"
     style="font-style:normal;font-variant:normal;font-weight:bold;font-stretch:normal;font-size:570.34936523px;line-height:125%;font-family:Serif;-inkscape-font-specification:'Serif Bold';letter-spacing:0px;word-spacing:0px;fill:#ffffff;fill-opacity:1;stroke:none" />
</svg>
