<?xml version="1.0" encoding="UTF-8" standalone="no"?>
<svg
   xmlns:dc="http://purl.org/dc/elements/1.1/"
   xmlns:cc="http://creativecommons.org/ns#"
   xmlns:rdf="http://www.w3.org/1999/02/22-rdf-syntax-ns#"
   xmlns:svg="http://www.w3.org/2000/svg"
   xmlns="http://www.w3.org/2000/svg"
   height="100%"
   width="100%"
   version="1.1"
   id="svg2"
   viewBox="0 0 512 512">
  <metadata
     id="metadata102">
    <rdf:RDF>
      <cc:Work
         rdf:about="">
        <dc:format>image/svg+xml</dc:format>
        <dc:type
           rdf:resource="http://purl.org/dc/dcmitype/StillImage" />
        <dc:title />
      </cc:Work>
    </rdf:RDF>
  </metadata>
  <defs
     id="defs100" />
  <path
     style="fill:#6788cc;fill-opacity:1;stroke:none"
     d="m 26,-3.3e-4 c -14.39735,0 -26,11.60265 -26,26 l 0,460 c 0,14.39735 11.60265,26 26,26 l 460,0 c 14.39735,0 26,-11.60265 26,-26 l 0,-460 c 0,-14.39735 -11.60265,-26 -26,-26 l -460,0 z"
     id="rect2986" />
  <path
     id="path3113"
     d="m 108.84286,41.00033 0,23.78125 -52.843754,0 0,30.84375 39.21875,39.21875 -39.21875,0 0,30.84375 39.25,39.25 -39.25,0 0,30.875 58.343754,58.34375 0,45.84375 -58.000004,0 -0.34375,58.375 113.625004,113.625 316.375,0 c 14.39735,0 26,-11.60265 26,-26 l 0,-365.21875 -56,-56 -29.0625,0 -23.78125,-23.78125 -31.4375,0 0,23.78125 -76.21875,0 -23.78125,-23.78125 -31.46875,0 0,23.78125 -76.21875,0 -23.78125,-23.78125 -31.40625,0 z"
     style="opacity:0.25;fill:#000000" />
  <path
     id="path3063"
     d="m 108.84375,40.99967 0,23.78125 -52.843754,0 0,30.84375 52.843754,0 0,39.21875 -52.843754,0 0,30.84375 52.843754,0 0,39.25 -52.843754,0 0,30.875 52.843754,0 0,23.75 31.40625,0 0,-23.75 100,0 0,23.75 31.46875,0 0,-23.75 100,0 0,23.75 31.4375,0 0,-23.75 52.84375,0 0,-30.875 -52.84375,0 0,-39.25 52.84375,0 0,-30.84375 -52.84375,0 0,-39.21875 52.84375,0 0,-30.84375 -52.84375,0 0,-23.78125 -31.4375,0 0,23.78125 -100,0 0,-23.78125 -31.46875,0 0,23.78125 -100,0 0,-23.78125 -31.40625,0 z m 31.40625,54.625 100,0 0,39.21875 -100,0 0,-39.21875 z m 131.46875,0 100,0 0,39.21875 -100,0 0,-39.21875 z m -131.46875,70.0625 100,0 0,39.25 -100,0 0,-39.25 z m 131.46875,0 100,0 0,39.25 -100,0 0,-39.25 z m -157.375,116.3125 0,58 -58.000004,0 -0.34375,58.375 58.343754,0.0625 0,58.03125 58.84375,0.46875 -0.125,-58.46875 58.28125,0.0625 -0.3125,-58.5 -58.09375,0 -0.125,-58 -58.46875,-0.0312 z"
     style="fill:#ffffff" />
</svg>
