<?xml version="1.0" encoding="UTF-8" standalone="no"?>
<svg
   xmlns:dc="http://purl.org/dc/elements/1.1/"
   xmlns:cc="http://creativecommons.org/ns#"
   xmlns:rdf="http://www.w3.org/1999/02/22-rdf-syntax-ns#"
   xmlns:svg="http://www.w3.org/2000/svg"
   xmlns="http://www.w3.org/2000/svg"
   height="100%"
   width="100%"
   version="1.1"
   id="svg2"
   viewBox="0 0 512 512">
  <metadata
     id="metadata102">
    <rdf:RDF>
      <cc:Work
         rdf:about="">
        <dc:format>image/svg+xml</dc:format>
        <dc:type
           rdf:resource="http://purl.org/dc/dcmitype/StillImage" />
        <dc:title />
      </cc:Work>
    </rdf:RDF>
  </metadata>
  <defs
     id="defs100" />
  <path
     id="rect2986"
     d="m 25.99996,-1.2e-4 c -14.39735,0 -26,11.60265 -26,26 l 0,460 c 0,14.39735 11.60265,26 26,26 l 460,0 c 14.39735,0 26,-11.60265 26,-26 l 0,-460 c 0,-14.39735 -11.60265,-26 -26,-26 l -460,0 z"
     style="fill:#6788cc;fill-opacity:1;stroke:none" />
  <path
     id="path4123"
     d="m 199.47269,56.00011 -19.64063,103.25001 -91.22266,0 0,49.99609 68.62891,68.62891 -5.16211,27.10351 -80.85157,0 0,49.96484 59.94922,59.94922 -7.82422,41.10743 56.00001,56 306.65039,0 c 14.39735,0 26,-11.60265 26,-26 l 0,-300.10157 -129.89844,-129.89844 -49.96484,0 -13.2168,69.48243 -69.48242,-69.48243 -49.96484,0 z"
     style="opacity:0.25;fill:#000000;fill-opacity:1;stroke:none" />
  <path
     id="rect3906"
     d="m 199.47243,55.99988 -19.64132,103.25006 -91.22093,0 0,49.99608 81.69787,0 -18.23166,95.73185 -80.85206,0 0,49.96476 71.36033,0 -19.23409,101.05725 49.99609,0 19.23408,-101.05725 82.66896,0 -19.23408,101.05725 49.96476,0 19.23408,-101.05725 98.14394,0 0,-49.96476 -88.6522,0 18.23165,-95.73185 87.83774,0 0,-49.99608 -78.31467,0 19.64132,-103.25006 -49.96476,0 -19.64132,103.25006 -82.70029,0 19.64132,-103.25006 -49.96476,0 z m 20.80038,153.24614 82.70029,0 -18.23166,95.73185 -82.66896,0 18.20033,-95.73185 z"
     style="fill:#ffffff;fill-opacity:1;stroke:none" />
</svg>
