<?xml version="1.0" encoding="UTF-8" standalone="no"?>
<svg
   xmlns:dc="http://purl.org/dc/elements/1.1/"
   xmlns:cc="http://creativecommons.org/ns#"
   xmlns:rdf="http://www.w3.org/1999/02/22-rdf-syntax-ns#"
   xmlns:svg="http://www.w3.org/2000/svg"
   xmlns="http://www.w3.org/2000/svg"
   height="100%"
   width="100%"
   version="1.1"
   id="svg2"
   viewBox="0 0 512 512">
  <metadata
     id="metadata102">
    <rdf:RDF>
      <cc:Work
         rdf:about="">
        <dc:format>image/svg+xml</dc:format>
        <dc:type
           rdf:resource="http://purl.org/dc/dcmitype/StillImage" />
        <dc:title />
      </cc:Work>
    </rdf:RDF>
  </metadata>
  <defs
     id="defs100" />
  <path
     id="rect2986"
     d="m 25.9997,0 c -14.3973,0 -26,11.6026 -26,26 l 0,460 c 0,14.3974 11.6027,26 26,26 l 460,0 c 14.3974,0 26,-11.6026 26,-26 l 0,-460 c 0,-14.3974 -11.6026,-26 -26,-26 l -460,0 z"
     style="fill:#ef6a47;fill-opacity:1;stroke:none" />
  <path
     id="path4600"
     d="m 120.8029,55.9999 0,73.5976 4.5976,4.5977 c -30.0009,9.1492 -51.6816,37.4137 -51.6816,70.4414 0,20.1604 8.0756,38.3158 21.1914,51.4316 l 25.8594,25.8594 0,173.8711 56.2012,56.2012 309.0293,0 c 14.3974,0 26,-11.6026 26,-26 l 0,-331.4668 -86.1856,-86.1856 C 418.4029,60.9358 408.1764,56.3358 396.9338,56.3358 l -66.1465,0 c -22.4689,0 -40.875,18.3729 -40.875,40.8418 l 0,6.7461 c 0,11.8257 5.0987,22.5259 13.205,30.0098 l 26.1407,26.1406 c -13.9577,0.5218 -26.1876,8.1371 -33.17,19.3262 L 172.6877,55.9999 l -51.8848,0 z"
     style="opacity:0.25;fill:#000000" />
  <path
     id="path666"
     d="m 120.8122,56 0,73.5937 c 6.7,-4.7081 15.0868,-5.6562 25.4688,-5.6562 10.3518,0 19.7062,0.9481 26.4062,5.6562 l 0,-73.5937 -51.875,0 z m 209.9688,0.3437 c -22.4689,0 -40.875,18.3749 -40.875,40.8438 l 0,6.75 c 0,22.4689 18.4061,40.875 40.875,40.875 l 66.1562,0 c 22.4689,0 40.875,-18.4061 40.875,-40.875 l 0,-6.75 c 0,-22.4689 -18.4061,-40.8438 -40.875,-40.8438 l -66.1562,0 z m 0,19.5625 66.1562,0 c 11.9525,0 21.2813,9.3288 21.2813,21.2813 l 0,6.75 c 0,11.9525 -9.3288,21.25 -21.2813,21.25 l -66.1562,0 c -11.9525,0 -21.2813,-9.2975 -21.2813,-21.25 l 0,-6.75 c 0,-11.9525 9.3288,-21.2813 21.2813,-21.2813 z m -184.4375,55.1563 c -40.3208,0 -72.625,33.2417 -72.625,73.5625 0,40.3208 32.3042,72.625 72.625,72.625 40.3208,0 73.5937,-32.3042 73.5937,-72.625 0,-40.3208 -33.2428,-73.5625 -73.5937,-73.5625 z m 184.4375,28.9687 c -22.4689,0 -40.875,18.4062 -40.875,40.875 l 0,6.75 c 0,22.4689 18.4061,40.875 40.875,40.875 l 66.1562,0 c 22.4689,0 40.875,-18.4061 40.875,-40.875 l 0,-6.75 c 0,-22.4688 -18.4061,-40.875 -40.875,-40.875 l -66.1562,0 z m -184.4375,5.9375 c 21.1261,0 38.6562,17.5603 38.6562,38.6563 0,21.1261 -17.5603,37.7187 -38.6562,37.7187 -21.1262,0 -37.7188,-16.5926 -37.7188,-37.7187 0,-21.096 16.5926,-38.6563 37.7188,-38.6563 z m 184.4062,97.3438 c -22.7577,0 -41.1875,18.3673 -41.1875,41.125 l 0,7.0625 c 0,22.7578 18.4298,41.125 41.1875,41.125 l 66.375,0 c 22.7578,0 41.1563,-18.3672 41.1563,-41.125 l 0,-7.0625 c 0,-22.7577 -18.3985,-41.125 -41.1563,-41.125 l -66.375,0 z m -158.125,14.25 c -6.8509,5.1608 -15.4196,7.5625 -26.375,7.5625 -9.7784,0 -18.9498,-1.4321 -25.4687,-5.6875 l 0,176.375 51.8437,0 0,-178.25 z M 330.781,367.5 c -22.4689,0 -40.875,18.4061 -40.875,40.875 l 0,6.75 c 0,22.4689 18.4061,40.875 40.875,40.875 l 66.1562,0 c 22.4689,0 40.875,-18.4061 40.875,-40.875 l 0,-6.75 c 0,-22.4689 -18.4061,-40.875 -40.875,-40.875 l -66.1562,0 z"
     style="fill:#ffffff" />
</svg>
