<?xml version="1.0" encoding="UTF-8" standalone="no"?>
<svg
   xmlns:dc="http://purl.org/dc/elements/1.1/"
   xmlns:cc="http://creativecommons.org/ns#"
   xmlns:rdf="http://www.w3.org/1999/02/22-rdf-syntax-ns#"
   xmlns:svg="http://www.w3.org/2000/svg"
   xmlns="http://www.w3.org/2000/svg"
   height="100%"
   width="100%"
   version="1.1"
   id="svg2"
   viewBox="0 0 512 512">
  <metadata
     id="metadata102">
    <rdf:RDF>
      <cc:Work
         rdf:about="">
        <dc:format>image/svg+xml</dc:format>
        <dc:type
           rdf:resource="http://purl.org/dc/dcmitype/StillImage" />
        <dc:title />
      </cc:Work>
    </rdf:RDF>
  </metadata>
  <defs
     id="defs100" />
  <path
     id="rect2986"
     d="m 25.99956,0 c -14.39735,0 -26,11.60265 -26,26 l 0,460 c 0,14.39735 11.60265,26 26,26 l 460,0 c 14.39735,0 26,-11.60265 26,-26 l 0,-460 c 0,-14.39735 -11.60265,-26 -26,-26 l -460,0 z"
     style="fill:#66ae4a;fill-opacity:1;stroke:none" />
  <path
     id="path3356"
     d="m 194.86757,72.81809 -0.0312,0.0312 -61.54687,178.1543 C 114.24084,305.53955 96.62319,358.94035 83.91645,391.22234 75.44529,413.45341 69.59633,417.53375 41.00044,419.1364 l 0,20.04493 72.81835,72.81835 372.18164,0 c 14.39735,0 26,-11.60264 26,-26 l 0,-162.57421 -250.60546,-250.60743 -66.52735,0 z"
     style="opacity:0.25;fill:#000000" />
  <path
     id="path178"
     d="m 194.86746,72.81883 -0.0308,0.0307 -61.54714,178.15472 c -19.04866,54.53596 -36.66625,107.93607 -49.37299,140.21806 -8.47116,22.23107 -14.3211,26.31184 -42.91699,27.91449 l 0,20.04433 124.50847,0 0,-20.04433 -32.18774,-2.85908 c -11.65357,-1.05318 -11.97091,-6.94584 -9.31508,-18.59941 6.34192,-28.59589 15.53107,-57.49499 25.05541,-88.72382 l 102.31213,0 0,-1.44491 0,-22.90341 22.90341,0 42.20991,0 0,-42.20991 0,-0.70709 -55.09115,-168.87038 -66.52749,0 z m 5.74891,73.72132 1.41418,0 41.50282,136.65189 -85.83399,0 42.917,-136.65189 z m 138.65018,95.61021 0,65.32852 -65.32853,0 -0.36891,65.75891 65.72818,-0.0307 0,65.35926 66.31228,0.49189 -0.18445,-65.82041 65.57446,0.0922 -0.36891,-65.88189 -65.42075,0 -0.12297,-65.29777 -65.82041,0 z m -59.94853,154.05233 0,0.70709 c 3.70899,11.12698 2.54974,17.55408 -8.57725,18.63015 l -30.77358,3.56617 0,20.01358 76.5804,0 0,-0.70708 0,-42.20991 -37.22957,0 z"
     style="fill:#ffffff" />
</svg>
