<?xml version="1.0" encoding="UTF-8" standalone="no"?>
<svg
   xmlns:dc="http://purl.org/dc/elements/1.1/"
   xmlns:cc="http://creativecommons.org/ns#"
   xmlns:rdf="http://www.w3.org/1999/02/22-rdf-syntax-ns#"
   xmlns:svg="http://www.w3.org/2000/svg"
   xmlns="http://www.w3.org/2000/svg"
   height="100%"
   width="100%"
   version="1.1"
   id="svg2"
   viewBox="0 0 512 512">
  <metadata
     id="metadata102">
    <rdf:RDF>
      <cc:Work
         rdf:about="">
        <dc:format>image/svg+xml</dc:format>
        <dc:type
           rdf:resource="http://purl.org/dc/dcmitype/StillImage" />
        <dc:title />
      </cc:Work>
    </rdf:RDF>
  </metadata>
  <defs
     id="defs100" />
  <path
     style="fill:#669966;fill-opacity:1;stroke:none"
     d="m 25.99999,-4.02e-4 c -14.39735,0 -26,11.602664 -26,26.000004 l 0,460.000018 c 0,14.39735 11.60265,26.00001 26,26.00001 l 460.00002,0 c 14.39735,0 26.00001,-11.60266 26.00001,-26.00001 l 0,-460.000018 c 0,-14.39734 -11.60266,-26.000004 -26.00001,-26.000004 l -460.00002,0 z"
     id="rect2986" />
  <path
     id="path3027"
     d="m 56.92711,81.072672 183.65625,183.656248 -5.71289,5.06641 -47.53516,-42.19532 -1.46484,1.63477 -17.72071,-17.7207 -129.65039,-113.562498 0,259.332028 17.17774,17.17773 -1.08985,1.2168 136.32227,136.32226 295.08984,0 c 14.39735,0 26,-11.60265 26,-26 l 0,-307.35546 -80.69336,-80.693358 -1.23242,1.07422 -17.95312,-17.95313 -355.19336,0 z"
     style="opacity:0.25;fill:#000000" />
  <path
     id="path10"
     d="M 56.92717,81.073302 234.90271,236.83074 412.12006,81.073302 l -355.19289,0 z m -18.42718,16.87784 0,259.332008 L 168.14953,211.51397 38.49999,97.951142 Z m 392.80542,0 -130.44066,113.562828 7.68074,9.19711 c 18.02553,-10.43332 38.38038,-16.87786 60.58881,-16.87786 22.83854,0 43.7835,6.6584 62.13815,17.63604 l 0.0329,-123.518118 z M 369.16726,222.26041 c -57.52249,0 -104.33275,46.82151 -104.33275,104.33275 0,57.52251 46.80744,104.33277 104.33275,104.33277 57.52251,0 104.33275,-46.80746 104.33275,-104.33277 0,-57.52249 -46.82149,-104.33275 -104.33275,-104.33275 z m -181.83238,5.34025 -132.74819,148.07671 202.53411,0 c -6.66956,-15.10286 -10.71348,-31.61907 -10.71348,-49.11717 0,-36.62492 16.53748,-69.52397 42.19462,-92.06995 l -6.16438,-6.88959 -47.56781,42.19462 -47.53487,-42.19462 z m 203.2923,44.50213 65.20386,54.49037 -65.20386,54.45742 0,-32.9975 c -43.34229,-10.8398 -75.64288,-5.59325 -108.15666,21.49289 21.67398,-54.17789 59.39375,-64.44568 108.15666,-64.44568 l 0,-32.9975 z"
     style="fill:#ffffff" />
</svg>
