<?xml version="1.0" encoding="UTF-8" standalone="no"?>
<svg
   xmlns:dc="http://purl.org/dc/elements/1.1/"
   xmlns:cc="http://creativecommons.org/ns#"
   xmlns:rdf="http://www.w3.org/1999/02/22-rdf-syntax-ns#"
   xmlns:svg="http://www.w3.org/2000/svg"
   xmlns="http://www.w3.org/2000/svg"
   height="100%"
   width="100%"
   version="1.1"
   id="svg2"
   viewBox="0 0 512 512">
  <metadata
     id="metadata102">
    <rdf:RDF>
      <cc:Work
         rdf:about="">
        <dc:format>image/svg+xml</dc:format>
        <dc:type
           rdf:resource="http://purl.org/dc/dcmitype/StillImage" />
        <dc:title />
      </cc:Work>
    </rdf:RDF>
  </metadata>
  <defs
     id="defs100" />
  <path
     id="rect2986"
     d="m 25.99998,-4.99e-4 c -14.39736,0 -26,11.60265 -26,26 l 0,460.000019 c 0,14.39735 11.60264,26.00001 26,26.00001 l 460.00003,0 c 14.39734,0 26,-11.60266 26,-26.00001 l 0,-460.000019 c 0,-14.39735 -11.60266,-26 -26,-26 l -460.00003,0 z"
     style="fill:#ef6a47;fill-opacity:1;stroke:none" />
  <path
     id="path3029"
     d="m 111.63056,63.498551 0,108.281249 -48.12305,36.08984 0,207.29883 33.33008,33.33008 -33.31641,0 63.50195,63.50195 358.97657,0 c 14.39734,0 26,-11.6046 26,-26.00195 l 0,-238.67578 -111.64454,-111.64453 -72.17773,-72.179689 -216.54687,0 z"
     style="opacity:0.25;fill:#000000" />
  <path
     style="fill:#ffffff"
     id="path8"
     d="m 255.99999,264.23601 192.49312,184.26351 -384.97245,0 m 384.97245,-240.6164 0,207.31195 -131.66011,-126.03585 59.46831,-46.73375 0,-82.6615 -72.17803,0 0,-72.1918 -168.42459,0 0,154.84639 59.4683,46.7131 -131.66011,126.03585 0,-207.29817 48.12328,-36.08902 0,-108.280819 216.54786,0 72.17802,72.178029 0,36.089 m -302.82789,40.64909 14.09787,11.0969 0,-21.66857 m 302.8279,10.57579 -14.09788,-10.57579 0,21.66857" />
</svg>
