<?xml version="1.0" encoding="UTF-8" standalone="no"?>
<svg
   xmlns:dc="http://purl.org/dc/elements/1.1/"
   xmlns:cc="http://creativecommons.org/ns#"
   xmlns:rdf="http://www.w3.org/1999/02/22-rdf-syntax-ns#"
   xmlns:svg="http://www.w3.org/2000/svg"
   xmlns="http://www.w3.org/2000/svg"
   height="100%"
   width="100%"
   version="1.1"
   id="svg2"
   viewBox="0 0 512 512">
  <metadata
     id="metadata102">
    <rdf:RDF>
      <cc:Work
         rdf:about="">
        <dc:format>image/svg+xml</dc:format>
        <dc:type
           rdf:resource="http://purl.org/dc/dcmitype/StillImage" />
        <dc:title />
      </cc:Work>
    </rdf:RDF>
  </metadata>
  <defs
     id="defs100" />
  <path
     id="rect2986"
     d="m 25.99957,0 c -14.39736,0 -26,11.60265 -26,26 l 0,460 c 0,14.39735 11.60264,26 26,26 l 460,0 c 14.39735,0 26,-11.60265 26,-26 l 0,-460 c 0,-14.39735 -11.60265,-26 -26,-26 l -460,0 z"
     style="fill:#ffcc67;fill-opacity:1;stroke:none" />
  <path
     id="path6337"
     d="m 255.9809,38.4998 -108.72265,108.75977 54.36132,54.36133 0,37.60351 -64.76562,-64.76562 -30.375,0 -67.97851,135.91992 0,163.12109 38.5,38.5 408.99999,0 c 14.39735,0 26,-11.60265 26,-26 l 0,-205.06054 -106.48046,-106.48047 -13.58008,0 L 364.74067,147.25957 255.9809,38.4998 Z"
     style="opacity:0.25;fill:#000000" />
  <path
     id="path992"
     d="m 255.98132,38.5 -108.72263,108.75912 54.36132,0 0,163.12044 108.75912,0 0,-163.12044 54.36132,0 L 255.98132,38.5 Z m -149.50273,135.95804 -67.97902,135.92152 0,163.12044 435,0 0,-163.12044 -67.97902,-135.92152 -30.37516,0 67.94251,135.92152 -78.34745,0 c 0,60.05767 -48.70146,108.75913 -108.75913,108.75913 -60.05767,0 -108.72263,-48.70146 -108.72263,-108.75913 l -78.38396,0 67.97902,-135.92152 -30.37516,0 z"
     style="fill:#ffffff" />
</svg>
