<?xml version="1.0" encoding="UTF-8" standalone="no"?>
<svg
   xmlns:dc="http://purl.org/dc/elements/1.1/"
   xmlns:cc="http://creativecommons.org/ns#"
   xmlns:rdf="http://www.w3.org/1999/02/22-rdf-syntax-ns#"
   xmlns:svg="http://www.w3.org/2000/svg"
   xmlns="http://www.w3.org/2000/svg"
   height="100%"
   width="100%"
   version="1.1"
   id="svg2"
   viewBox="0 0 512 512">
  <metadata
     id="metadata102">
    <rdf:RDF>
      <cc:Work
         rdf:about="">
        <dc:format>image/svg+xml</dc:format>
        <dc:type
           rdf:resource="http://purl.org/dc/dcmitype/StillImage" />
        <dc:title />
      </cc:Work>
    </rdf:RDF>
  </metadata>
  <defs
     id="defs100" />
  <path
     id="rect2986"
     d="M 25.99995,0 C 11.60259,0 -4e-5,11.60265 -4e-5,26 l 0,460 c 0,14.39735 11.60263,26 25.99999,26 l 460.00001,0 c 14.39735,0 26,-11.60265 26,-26 l 0,-460 c 0,-14.39735 -11.60265,-26 -26,-26 L 25.99995,0 Z"
     style="fill:#924565;fill-opacity:1;stroke:none" />
  <path
     id="path9715"
     d="m 99.87892,81.08934 183.23439,183.23438 c -2.03703,1.85 -3.89788,3.52632 -6.01562,5.45508 l -47.56836,-42.19336 -1.07422,1.19922 -17.32032,-17.32032 -130.43946,-113.52929 0,0.0332 0,123.48437 13.07422,13.07422 c -32.85858,17.58829 -55.26953,52.25543 -55.26953,92.05078 0,28.75967 11.70243,54.84306 30.5957,73.73633 l 111.68556,111.68555 305.21875,0 c 14.39735,0 26,-11.60265 26,-26 l 0,-349.56445 -38.5332,-38.53321 0,0.0664 c -0.28209,0.2522 -0.52222,0.4622 -0.80274,0.71289 l -17.5918,-17.5918 -355.19337,0 z"
     style="opacity:0.25;fill:#000000;fill-rule:evenodd" />
  <path
     id="path10"
     d="m 99.8799,81.09018 177.21734,155.72446 177.97553,-155.72446 -355.19287,0 z m 373.58708,16.81191 0,0.0659 c 0.0122,-0.0109 0.0207,-0.022 0.033,-0.033 l -0.033,-0.033 z m 0,0.0659 c -88.95806,79.53316 -99.83003,83.88712 -196.36974,171.81115 l -47.56782,-42.1946 -6.16437,6.88959 c 25.65417,22.53639 42.22757,55.44217 42.22757,92.06994 0,17.50375 -4.10195,33.98628 -10.7794,49.0842 l 218.65376,0 0,-277.66028 z m -392.77244,-0.033 0,0.033 0,123.48515 c 18.36298,-10.97361 39.30717,-17.66899 62.13815,-17.66899 22.21724,0 42.57794,6.47729 60.62178,16.9108 l 7.68074,-9.23007 L 80.69454,97.93505 Z m 62.13815,124.30933 c -57.51936,0 -104.33276,46.8134 -104.33276,104.33275 0,57.51934 46.8134,104.33275 104.33276,104.33275 57.51934,0 104.33275,-46.81341 104.33275,-104.33275 0,-57.51935 -46.81341,-104.33275 -104.33275,-104.33275 z m -21.49287,49.84237 0,32.9975 c 48.75519,0 86.51244,10.26505 108.1896,64.44567 -32.50347,-27.10259 -64.83529,-32.31919 -108.1896,-21.49288 l 0,32.9975 -65.20386,-54.45741 65.20386,-54.49038 z"
     style="fill:#ffffff;fill-rule:evenodd" />
</svg>
