<?xml version="1.0" encoding="UTF-8" standalone="no"?>
<svg
   xmlns:dc="http://purl.org/dc/elements/1.1/"
   xmlns:cc="http://creativecommons.org/ns#"
   xmlns:rdf="http://www.w3.org/1999/02/22-rdf-syntax-ns#"
   xmlns:svg="http://www.w3.org/2000/svg"
   xmlns="http://www.w3.org/2000/svg"
   height="100%"
   width="100%"
   version="1.1"
   id="svg2"
   viewBox="0 0 512 512">
  <metadata
     id="metadata102">
    <rdf:RDF>
      <cc:Work
         rdf:about="">
        <dc:format>image/svg+xml</dc:format>
        <dc:type
           rdf:resource="http://purl.org/dc/dcmitype/StillImage" />
        <dc:title />
      </cc:Work>
    </rdf:RDF>
  </metadata>
  <defs
     id="defs100" />
  <path
     style="fill:#0078ad;fill-opacity:1;stroke:none"
     d="m 25.99999,-8e-5 c -14.39735,0 -26,11.60265 -26,26 l 0,460.00002 c 0,14.39735 11.60265,26.00001 26,26.00001 l 460.00002,0 c 14.39735,0 26,-11.60266 26,-26.00001 l 0,-460.00002 c 0,-14.39735 -11.60265,-26 -26,-26 l -460.00002,0 z"
     id="rect2986" />
  <path
     id="path3017"
     d="m 124.65006,56.00009 c -21.54014,0 -38.99414,17.45257 -38.99414,38.99414 l 0,321.98242 c 0,10.77025 4.36189,20.52009 11.41797,27.57617 l 67.44726,67.44726 321.47852,0 c 14.39735,0 26,-11.60265 26,-26 l 0,-319.54101 -98.05664,-98.05664 C 406.27856,60.73797 395.68757,56.00009 383.98795,56.00009 l -42.70117,0 c -23.39781,0 -42.38477,18.95193 -42.38477,42.35547 l 0,66.3164 -97.25195,-97.25195 C 194.59422,60.36418 184.84449,56.00009 174.07389,56.00009 l -49.42383,0 z"
     style="opacity:0.25;fill:#000000;fill-rule:evenodd" />
  <path
     id="path12"
     d="m 124.64942,55.99993 c -21.54014,0 -38.99426,17.45268 -38.99426,38.99425 l 0,321.98276 c 0,21.54014 17.45269,38.99427 38.99426,38.99427 l 49.4253,0 c 21.5344,0 38.99424,-17.45269 38.99424,-38.99427 l 0,-321.98276 c 0,-21.54014 -17.45267,-38.99425 -38.99424,-38.99425 l -49.4253,0 z m 216.63794,0 c -23.39781,0 -42.38505,18.95278 -42.38505,42.35632 l 0,315.28736 c 0,23.40356 18.98724,42.35633 42.38505,42.35633 l 42.70115,0 c 23.3978,0 42.35632,-18.95277 42.35632,-42.35633 l 0,-315.28736 c 0,-23.40354 -18.95852,-42.35632 -42.35632,-42.35632 l -42.70115,0 z"
     style="fill:#ffffff;fill-rule:evenodd" />
</svg>
