<?xml version="1.0" encoding="UTF-8" standalone="no"?>
<svg
   xmlns:dc="http://purl.org/dc/elements/1.1/"
   xmlns:cc="http://creativecommons.org/ns#"
   xmlns:rdf="http://www.w3.org/1999/02/22-rdf-syntax-ns#"
   xmlns:svg="http://www.w3.org/2000/svg"
   xmlns="http://www.w3.org/2000/svg"
   height="100%"
   width="100%"
   version="1.1"
   id="svg2"
   viewBox="0 0 512 512">
  <metadata
     id="metadata102">
    <rdf:RDF>
      <cc:Work
         rdf:about="">
        <dc:format>image/svg+xml</dc:format>
        <dc:type
           rdf:resource="http://purl.org/dc/dcmitype/StillImage" />
        <dc:title />
      </cc:Work>
    </rdf:RDF>
  </metadata>
  <defs
     id="defs100" />
  <path
     style="fill:#e65177;fill-opacity:1;stroke:none"
     d="m 25.99956,-2.2e-5 c -14.39735,0 -26,11.60265 -26,26.00001 l 0,460.000022 c 0,14.39735 11.60265,26.00001 26,26.00001 l 460.00002,0 c 14.39735,0 26.00001,-11.60266 26.00001,-26.00001 l 0,-460.000022 c 0,-14.39736 -11.60266,-26.00001 -26.00001,-26.00001 l -460.00002,0 z"
     id="rect2986" />
  <path
     id="path3042"
     d="m 127.58051,84.763653 c -39.524681,0 -71.58008,32.057347 -71.58008,71.582027 l 0,142.4707 c 0,19.75517 8.006899,37.63775 20.953129,50.58399 l 162.599611,162.59961 246.44726,0 c 14.39735,0 26,-11.60265 26,-26 l 0,-303.29883 -76.96875,-76.96875 C 422.07716,92.777873 404.18073,84.763653 384.4184,84.763653 l -256.83789,0 z"
     style="opacity:0.25;fill:#000000" />
  <path
     id="path10"
     d="m 127.58003,84.764363 c -39.524681,0 -71.58047,32.055777 -71.58047,71.580457 l 0,142.47127 c 0,39.52468 32.055789,71.55173 71.58047,71.55173 l 43.47701,0 c -0.29676,-2.21353 -0.68966,-4.38132 -0.68966,-6.6954 l 0,-50.83335 -14.05172,0 c -23.71726,0 -42.78736,-19.07008 -42.78736,-42.78735 l 0,-85.63217 c 0,-23.71727 19.0701,-42.81611 42.78736,-42.81611 l 199.36782,0 c 23.71727,0 42.78735,19.09884 42.78735,42.81611 l 0,85.63217 c 0,23.71727 -19.07008,42.78735 -42.78735,42.78735 l -14.05172,0 0,-56.83907 -114.39656,85.60345 114.39656,85.63219 0,-56.83908 42.78737,0 c 39.52468,0 71.58045,-32.05579 71.58045,-71.58047 l 0,-142.47127 c 0,-39.52467 -32.05577,-71.580457 -71.58045,-71.580457 l -256.8391,0 z m 33.04598,80.373567 c -10.41243,0.52783 -18.7069,9.14034 -18.7069,19.68391 0,10.88369 8.82895,19.71264 19.71264,19.71264 l 103.50574,0 c 10.8837,0 19.71266,-8.82895 19.71266,-19.71264 0,-10.88368 -8.82896,-19.68391 -19.71266,-19.68391 l -103.50574,0 c -0.34012,0 -0.66986,-0.0171 -1.00574,0 z m 1.00574,66.75287 c -10.88369,0 -19.71264,8.82895 -19.71264,19.71264 0,10.8886 8.82895,19.71266 19.71264,19.71266 l 103.50574,0 c 10.8837,0 19.71266,-8.82896 19.71266,-19.71266 0,-10.88369 -8.82896,-19.71264 -19.71266,-19.71264 l -103.50574,0 z"
     style="fill:#ffffff" />
</svg>
