<?xml version="1.0" encoding="UTF-8" standalone="no"?>
<svg
   xmlns:dc="http://purl.org/dc/elements/1.1/"
   xmlns:cc="http://creativecommons.org/ns#"
   xmlns:rdf="http://www.w3.org/1999/02/22-rdf-syntax-ns#"
   xmlns:svg="http://www.w3.org/2000/svg"
   xmlns="http://www.w3.org/2000/svg"
   height="100%"
   width="100%"
   version="1.1"
   id="svg2"
   viewBox="0 0 512 512">
  <metadata
     id="metadata102">
    <rdf:RDF>
      <cc:Work
         rdf:about="">
        <dc:format>image/svg+xml</dc:format>
        <dc:type
           rdf:resource="http://purl.org/dc/dcmitype/StillImage" />
        <dc:title />
      </cc:Work>
    </rdf:RDF>
  </metadata>
  <defs
     id="defs100" />
  <path
     id="rect2986"
     d="m 25.99964,-2.7e-4 c -14.39735,0 -26,11.60265 -26,26 l 0,460.00003 c 0,14.39735 11.60265,26 26,26 l 460.00004,0 c 14.39733,0 25.99999,-11.60265 25.99999,-26 l 0,-460.00003 c 0,-14.39735 -11.60266,-26 -25.99999,-26 l -460.00004,0 z"
     style="fill:#0078ad;fill-opacity:1;stroke:none" />
  <path
     id="path3112"
     d="m 72.279656,67.87135 c -1.40639,-0.0367 -2.33523,0.36606 -3.04883,0.78125 -13.03799,7.52461 -13.23047,172.43879 -13.23047,187.49609 0,14.80696 0.18769,174.58807 12.59766,186.99805 l 68.853524,68.85352 348.54882,0 c 14.39734,0 26,-11.60265 26,-26 l 0,-323.73243 -68.36718,-68.36718 c -7.40438,-7.4044 -17.55158,-12.00977 -28.81055,-12.00977 -22.87983,0 -41.91016,19.03437 -41.91016,41.91016 l 0,111.03515 C 332.44511,204.96422 248.22134,156.70512 238.35388,151.01783 226.1291,143.96333 99.450426,70.85892 72.924186,67.92799 l -0.0117,-0.0117 c -0.22124,-0.0244 -0.4319,-0.0397 -0.63281,-0.0449 z"
     style="opacity:0.25;fill:#000000;fill-rule:evenodd" />
  <path
     d="m 72.911816,67.91601 c -1.76995,-0.19546 -2.86454,0.26286 -3.68008,0.73736 -13.03799,7.52461 -13.2321,172.43785 -13.2321,187.49515 0,15.05463 0.19546,179.97325 13.2321,187.49517 13.04337,7.53 156.086464,-74.81473 169.121754,-82.35013 9.85802,-5.69266 94.08189,-53.94749 134.55869,-83.81946 l 0,111.03586 c 0,22.87982 19.03393,41.90972 41.90972,41.90972 22.88523,0 41.17776,-19.03395 41.17776,-41.90972 l 0,-264.70936 c 0,-22.87984 -18.29253,-41.90974 -41.17776,-41.90974 -22.87983,0 -41.90972,19.03395 -41.90972,41.90974 l 0,111.03584 C 332.44482,204.96447 248.22095,156.70425 238.35349,151.01697 226.127,143.96148 99.413756,70.83715 72.911816,67.92544"
     id="path10"
     style="fill:#ffffff;fill-rule:evenodd" />
</svg>
