<?xml version="1.0" encoding="UTF-8" standalone="no"?>
<svg
   xmlns:dc="http://purl.org/dc/elements/1.1/"
   xmlns:cc="http://creativecommons.org/ns#"
   xmlns:rdf="http://www.w3.org/1999/02/22-rdf-syntax-ns#"
   xmlns:svg="http://www.w3.org/2000/svg"
   xmlns="http://www.w3.org/2000/svg"
   height="100%"
   width="100%"
   version="1.1"
   id="svg2"
   viewBox="0 0 512 512">
  <metadata
     id="metadata102">
    <rdf:RDF>
      <cc:Work
         rdf:about="">
        <dc:format>image/svg+xml</dc:format>
        <dc:type
           rdf:resource="http://purl.org/dc/dcmitype/StillImage" />
        <dc:title />
      </cc:Work>
    </rdf:RDF>
  </metadata>
  <defs
     id="defs100" />
  <path
     id="rect2986"
     d="m 25.99999,-1e-5 c -14.39736,0 -26,11.60265 -26,26 l 0,460.00002 c 0,14.39735 11.60264,26.00001 26,26.00001 l 460.00002,0 c 14.39735,0 26,-11.60266 26,-26.00001 l 0,-460.00002 c 0,-14.39735 -11.60265,-26 -26,-26 l -460.00002,0 z"
     style="fill:#6788cc;fill-opacity:1;stroke:none" />
  <path
     id="path3017"
     d="m 124.38639,80.48966 c -40.51234,0 -73.38672,32.84508 -73.38672,73.35742 l 0,146.0332 c 0,20.2488 8.21243,38.58352 21.48633,51.85742 l 160.26172,160.26172 253.25195,0 c 14.39735,0 26,-11.60265 26,-26 l 0,-311.53711 -72.48633,-72.48632 C 426.2383,88.70095 407.90038,80.48966 387.6442,80.48966 l -263.25781,0 z"
     style="opacity:0.25;fill:#000000" />
  <path
     id="path10"
     d="m 124.38578,80.48982 c -40.51234,0 -73.38579,32.844 -73.38579,73.35634 l 0,146.03507 c 0,40.51234 32.87345,73.35634 73.38579,73.35634 l 44.54408,0 c -0.30419,-2.26885 -0.67759,-4.49236 -0.67759,-6.86427 l 0,-52.08595 -14.40612,0 c -24.30992,0 -43.8665,-19.58604 -43.8665,-43.89595 l 0,-87.76245 c 0,-24.30993 19.55658,-43.8665 43.8665,-43.8665 l 204.33715,0 c 24.30992,0 43.86649,19.55657 43.86649,43.8665 l 0,87.76245 c 0,24.30991 -19.55657,43.89595 -43.86649,43.89595 l -14.40612,0 0,-58.27261 -117.25229,87.73299 117.25229,87.76245 0,-58.27261 43.86649,0 c 40.51234,0 73.35634,-32.844 73.35634,-73.35634 l 0,-146.03507 c 0,-40.51234 -32.844,-73.35634 -73.35634,-73.35634 l -263.25789,0 z m 85.28778,78.2173 c -1.21299,0.20614 -2.63736,0.59305 -3.44687,0.79544 -18.57433,4.23726 -21.58015,4.84556 -30.2558,5.45016 -13.9273,0.81074 -13.94631,0.82489 -14.55343,0.82489 -0.81075,0 -1.79708,-8e-5 -3.21117,-0.20623 l 0,15.73185 2.8282,0.20622 c 22.61048,1.21299 23.00855,1.43311 23.00855,14.55343 l 0,68.024 c 0,12.11347 -2.01722,13.73732 -20.59281,15.14263 l -5.24394,0.41244 0,16.55673 86.99648,0 0,-16.55673 -4.62528,-0.41244 c -0.40224,0 -2.43107,-0.21133 -4.44852,-0.41244 -14.13595,-1.00684 -16.76295,-3.22509 -16.76295,-14.73019 l 0,-105.37976 -9.69246,0 z"
     style="fill:#ffffff" />
</svg>
