<?xml version="1.0" encoding="UTF-8" standalone="no"?>
<svg
   xmlns:dc="http://purl.org/dc/elements/1.1/"
   xmlns:cc="http://creativecommons.org/ns#"
   xmlns:rdf="http://www.w3.org/1999/02/22-rdf-syntax-ns#"
   xmlns:svg="http://www.w3.org/2000/svg"
   xmlns="http://www.w3.org/2000/svg"
   height="100%"
   width="100%"
   version="1.1"
   id="svg2"
   viewBox="0 0 512 512">
  <metadata
     id="metadata102">
    <rdf:RDF>
      <cc:Work
         rdf:about="">
        <dc:format>image/svg+xml</dc:format>
        <dc:type
           rdf:resource="http://purl.org/dc/dcmitype/StillImage" />
        <dc:title />
      </cc:Work>
    </rdf:RDF>
  </metadata>
  <defs
     id="defs100" />
  <path
     style="fill:#0078ad;fill-opacity:1;stroke:none"
     d="m 25.99999,-2e-5 c -14.39736,0 -26,11.60264 -26,26 L -10e-6,486 c 0,14.39735 11.60264,26.00001 26,26.00001 l 460.00002,0 c 14.39734,0 26,-11.60266 26,-26.00001 l 0,-460.00002 c 0,-14.39736 -11.60266,-26 -26,-26 l -460.00002,0 z"
     id="rect2986" />
  <path
     id="path3015"
     d="m 238.7416,130.44243 c -13.67879,0.35377 -89.65153,50.6497 -96.88281,55.42774 -7.59062,5.01872 -90.85937,60.09076 -90.85937,70.13672 0,1.5082 1.87789,4.03023 5.09375,7.24609 l 248.74609,248.7461 181.16016,0 c 14.39733,0 26,-11.60265 26,-26 l 0,-296.70118 -58.30665,-58.30664 c -0.0855,-0.0854 -0.17232,-0.15699 -0.25976,-0.21484 -0.3558,-0.2355 -0.87023,-0.35137 -1.54297,-0.33399 -13.67879,0.35377 -89.65153,50.6497 -96.88281,55.42774 -3.04457,2.0143 -18.31297,12.12634 -35.46485,24.11914 l -78.99804,-78.99805 c -0.0855,-0.0854 -0.17233,-0.15699 -0.25977,-0.21484 -0.3558,-0.2355 -0.87025,-0.35137 -1.54297,-0.33399 z"
     style="opacity:0.25;fill:#000000;fill-rule:evenodd" />
  <path
     id="path12"
     d="m 238.74205,130.4428 c -13.67879,0.35376 -89.6519,50.64995 -96.88318,55.42799 -7.59062,5.01872 -90.85888,60.08947 -90.85888,70.13543 0,10.04596 83.27199,65.10959 90.85888,70.13543 7.58567,5.01871 90.82631,60.1132 98.42562,55.09448 7.59063,-5.0187 7.56672,-115.18252 7.56672,-125.22991 0,-10.04596 0.0252,-120.20694 -7.56672,-125.22993 -0.3558,-0.2355 -0.86972,-0.35089 -1.54244,-0.33349 z m 213.14878,0 c -13.67879,0.35376 -89.6519,50.64995 -96.88318,55.42799 -7.58565,5.01872 -90.85888,60.08947 -90.85888,70.13543 0,10.04596 83.27199,65.10959 90.85888,70.13543 7.59064,5.01871 90.83873,60.1132 98.42562,55.09448 7.58567,-5.0187 7.56674,-115.18252 7.56674,-125.22991 0,-10.04596 0.0252,-120.20694 -7.56674,-125.22993 -0.3558,-0.2355 -0.8697,-0.35089 -1.54244,-0.33349 z"
     style="fill:#ffffff;fill-rule:evenodd" />
</svg>
