<?xml version="1.0" encoding="UTF-8" standalone="no"?>
<svg
   xmlns:dc="http://purl.org/dc/elements/1.1/"
   xmlns:cc="http://creativecommons.org/ns#"
   xmlns:rdf="http://www.w3.org/1999/02/22-rdf-syntax-ns#"
   xmlns:svg="http://www.w3.org/2000/svg"
   xmlns="http://www.w3.org/2000/svg"
   height="100%"
   width="100%"
   version="1.1"
   id="svg2"
   viewBox="0 0 512 512">
  <metadata
     id="metadata100">
    <rdf:RDF>
      <cc:Work
         rdf:about="">
        <dc:format>image/svg+xml</dc:format>
        <dc:type
           rdf:resource="http://purl.org/dc/dcmitype/StillImage" />
        <dc:title />
      </cc:Work>
    </rdf:RDF>
  </metadata>
  <defs
     id="defs98" />
  <path
     id="rect2986"
     d="m 25.99981,-1.1e-4 c -14.39735,0 -26,11.60264 -26,26 l 0,460 c 0,14.39735 11.60265,26 26,26 l 460,0 c 14.39735,0 26,-11.60265 26,-26 l 0,-460 c 0,-14.39736 -11.60265,-26 -26,-26 l -460,0 z"
     style="fill:#0078ad;fill-opacity:1;stroke:none" />
  <path
     id="path3448"
     d="m 130.88299,76.48053 c -24.72649,0 -44.89648,20.18343 -44.89648,44.68555 l 0,0.17969 22.44726,22.44726 0,0.002 -22.44726,0 0,22.44727 22.41797,22.41797 -22.41797,0 0,44.98633 -22.53906,-22.53907 -22.44727,0 0,67.31446 c 0,22.43783 11.22163,44.87788 28.05273,61.70898 l 61.70899,61.70899 0,11.21093 -67.31445,0 0,22.44727 76.50195,76.50195 346.05078,0 c 14.39735,0 26,-11.60265 26,-26 l 0,-69.30273 L 184.89862,89.59582 C 176.79601,81.4932 165.56865,76.48058 153.09002,76.48058 l -22.20703,0 z"
     style="opacity:0.25;fill:#000000" />
  <path
     id="path3364"
     d="m 130.88256,76.47992 c -24.72649,0 -44.89618,20.18314 -44.89618,44.68526 l 0,0.18079 22.44809,0 0,-22.41796 22.44809,0 0,22.41796 22.41795,0 0,-22.41796 22.44809,0 0,22.41796 22.20704,0 0,-0.18079 c 0,-24.68162 -19.93763,-44.68526 -44.86605,-44.68526 l -22.20703,0 z m 67.07308,44.86605 0,22.44809 0.24105,0 0,-22.44809 -0.24105,0 z m 0,22.44809 -22.20704,0 0,22.44808 22.20704,0 0,-22.44808 z m 0,22.44808 0,22.41796 0.24105,0 0,-22.41796 -0.24105,0 z m 0,22.41796 -22.20704,0 0,22.44809 -22.44809,0 0,-22.44809 -22.41795,0 0,22.44809 -22.44809,0 0,-22.44809 -22.44809,0 0,90.03341 c 0,24.68161 19.96776,44.68525 44.89618,44.68525 l 22.20703,0 c 24.72649,0 44.86605,-20.18315 44.86605,-44.68525 l 0,-90.03341 z m -89.52117,0 22.44809,0 0,-22.41796 -22.44809,0 0,22.41796 z m 0,-22.41796 0,-22.44808 -22.44809,0 0,22.44808 22.44809,0 z m 0,-22.44808 22.44809,0 0,-22.44809 -22.44809,0 0,22.44809 z m 22.44809,0 0,22.44808 22.41795,0 0,-22.44808 -22.41795,0 z m 22.41795,0 22.44809,0 0,-22.44809 -22.44809,0 0,22.44809 z m 0,22.44808 0,22.41796 22.44809,0 0,-22.41796 -22.44809,0 z m -112.3007,44.86605 0,67.31413 c 0,44.87566 44.88656,89.76222 89.76222,89.76222 l 0,44.86605 -67.31413,0 0,22.44809 157.07635,0 0,-22.44809 -67.31413,0 0,-44.86605 c 44.87566,0 89.73209,-44.88656 89.73209,-89.76222 l 0,-67.31413 -22.41796,0 0,67.31413 c 0,33.65675 -33.65738,67.31414 -67.31413,67.31414 l -22.44809,0 c -33.65674,0 -67.31413,-33.65739 -67.31413,-67.31414 l 0,-67.31413 -22.44809,0 z m 318.49167,68.54953 c -4.10332,0 -8.21835,1.56277 -11.35964,4.67041 l -29.67969,29.67969 -65.20491,65.86781 c -3.11887,3.11885 -4.51975,6.90668 -4.51975,10.96792 l -0.0904,0 c 0,4.06125 1.3932,7.84907 4.48962,10.96793 l 29.07705,29.04692 c 6.21528,6.21528 16.37642,6.21528 22.65901,0 l 54.86976,-54.86976 54.89989,54.86976 c 6.21528,6.21528 16.37642,6.21528 22.65901,0 l 29.04692,-29.04692 c 6.21528,-6.21527 6.21528,-15.72057 0,-21.93585 L 399.8679,313.37505 370.79085,284.32813 c -3.10764,-3.10764 -7.19606,-4.67041 -11.29937,-4.67041 z"
     style="fill:#ffffff" />
</svg>
