<?xml version="1.0" encoding="UTF-8" standalone="no"?>
<svg
   xmlns:dc="http://purl.org/dc/elements/1.1/"
   xmlns:cc="http://creativecommons.org/ns#"
   xmlns:rdf="http://www.w3.org/1999/02/22-rdf-syntax-ns#"
   xmlns:svg="http://www.w3.org/2000/svg"
   xmlns="http://www.w3.org/2000/svg"
   height="100%"
   width="100%"
   version="1.1"
   id="svg2"
   viewBox="0 0 512 512">
  <metadata
     id="metadata100">
    <rdf:RDF>
      <cc:Work
         rdf:about="">
        <dc:format>image/svg+xml</dc:format>
        <dc:type
           rdf:resource="http://purl.org/dc/dcmitype/StillImage" />
        <dc:title />
      </cc:Work>
    </rdf:RDF>
  </metadata>
  <defs
     id="defs98" />
  <path
     id="rect2986"
     d="m 26,-2e-4 c -14.3974,0 -26,11.6026 -26,26 l 0,460 c 0,14.3974 11.6026,26 26,26 l 460,0 c 14.3974,0 26,-11.6026 26,-26 l 0,-460 c 0,-14.3974 -11.6026,-26 -26,-26 l -460,0 z"
     style="fill:#0078ad;fill-opacity:1;stroke:none" />
  <path
     id="path4600"
     d="m 120.8039,56.0003 0,73.5957 4.5976,4.5977 c -30.0014,9.149 -51.6816,37.4153 -51.6816,70.4434 0,20.1604 8.0756,38.3158 21.1914,51.4316 l 25.8594,25.8594 0,173.8711 56.2011,56.2011 309.0274,0 c 14.3974,0 26,-11.6026 26,-26 l 0,-331.4687 L 425.8156,68.348 C 418.4038,60.9363 408.1775,56.3363 396.9347,56.3363 l -66.1465,0 c -22.4689,0 -40.875,18.3729 -40.875,40.8418 l 0,6.7461 c 0,11.8257 5.0988,22.5258 13.2051,30.0097 l 26.1406,26.1407 c -13.9584,0.5218 -26.1897,8.136 -33.1718,19.3261 L 172.6867,56.0003 l -51.8828,0 z"
     style="opacity:0.25;fill:#000000" />
  <path
     id="path666"
     d="m 120.8041,55.9998 0,73.5968 c 6.7,-4.7081 15.09,-5.6716 25.4719,-5.6716 10.3519,0 19.7117,0.9635 26.4116,5.6716 l 0,-73.5968 -51.8835,0 z m 209.9841,0.3356 c -22.4689,0 -40.8759,18.3735 -40.8759,40.8424 l 0,6.7455 c 0,22.4689 18.407,40.8759 40.8759,40.8759 l 66.1465,0 c 22.4689,0 40.8759,-18.407 40.8759,-40.8759 l 0,-6.7455 c 0,-22.4689 -18.407,-40.8424 -40.8759,-40.8424 l -66.1465,0 z m 0,19.5654 66.1465,0 c 11.9524,0 21.2769,9.3245 21.2769,21.277 l 0,6.7455 c 0,11.9525 -9.3245,21.2769 -21.2769,21.2769 l -66.1465,0 c -11.9525,0 -21.277,-9.3244 -21.277,-21.2769 l 0,-6.7455 c 0,-11.9525 9.3245,-21.277 21.277,-21.277 z m -184.445,55.1724 c -40.3208,0 -72.6236,33.2424 -72.6236,73.5632 0,40.3208 32.3028,72.6236 72.6236,72.6236 40.3208,0 73.5967,-32.3028 73.5967,-72.6236 0,-40.3208 -33.2458,-73.5632 -73.5967,-73.5632 z m 184.445,28.9622 c -22.4689,0 -40.8759,18.407 -40.8759,40.8759 l 0,6.7455 c 0,22.4689 18.407,40.8759 40.8759,40.8759 l 66.1465,0 c 22.4689,0 40.8759,-18.407 40.8759,-40.8759 l 0,-6.7455 c 0,-22.4689 -18.407,-40.8759 -40.8759,-40.8759 l -66.1465,0 z m -184.445,5.9401 c 21.1261,0 38.6609,17.5649 38.6609,38.6609 0,21.1262 -17.565,37.7213 -38.6609,37.7213 -21.1262,0 -37.7213,-16.5951 -37.7213,-37.7213 0,-21.096 16.5951,-38.6609 37.7213,-38.6609 z m 184.445,13.6588 66.1465,0 c 11.9524,0 21.2769,9.3245 21.2769,21.277 l 0,6.7455 c 0,11.9525 -9.3245,21.277 -21.2769,21.277 l -66.1465,0 c -11.9525,0 -21.277,-9.3245 -21.277,-21.277 l 0,-6.7455 c 0,-11.9525 9.3245,-21.277 21.277,-21.277 z m -0.034,83.6648 c -22.7578,0 -41.178,18.3866 -41.178,41.1444 l 0,7.0475 c 0,22.7578 18.4202,41.1444 41.178,41.1444 l 66.3814,0 c 22.7577,0 41.1444,-18.3866 41.1444,-41.1444 l 0,-7.0475 c 0,-22.7578 -18.3867,-41.1444 -41.1444,-41.1444 l -66.3814,0 z M 172.6201,277.562 c -6.8509,5.1608 -15.4226,7.551 -26.3781,7.551 -9.7784,0 -18.953,-1.4162 -25.4719,-5.6716 l 0,176.357 51.85,0 0,-178.2364 z m 158.1676,89.9404 c -22.4689,0 -40.8759,18.4071 -40.8759,40.876 l 0,6.7455 c 0,22.4689 18.407,40.8759 40.8759,40.8759 l 66.1465,0 c 22.4689,0 40.8759,-18.407 40.8759,-40.8759 l 0,-6.7455 c 0,-22.4689 -18.407,-40.876 -40.8759,-40.876 l -66.1465,0 z"
     style="fill:#ffffff" />
</svg>
