<?xml version="1.0" encoding="UTF-8" standalone="no"?>
<svg
   xmlns:dc="http://purl.org/dc/elements/1.1/"
   xmlns:cc="http://creativecommons.org/ns#"
   xmlns:rdf="http://www.w3.org/1999/02/22-rdf-syntax-ns#"
   xmlns:svg="http://www.w3.org/2000/svg"
   xmlns="http://www.w3.org/2000/svg"
   height="100%"
   width="100%"
   version="1.1"
   id="svg2"
   viewBox="0 0 512 512">
  <metadata
     id="metadata100">
    <rdf:RDF>
      <cc:Work
         rdf:about="">
        <dc:format>image/svg+xml</dc:format>
        <dc:type
           rdf:resource="http://purl.org/dc/dcmitype/StillImage" />
        <dc:title />
      </cc:Work>
    </rdf:RDF>
  </metadata>
  <defs
     id="defs98" />
  <path
     id="rect2986"
     d="m 25.99958,-2.6e-4 c -14.39736,0 -26,11.60265 -26,26 l 0,460 c 0,14.39735 11.60264,26 26,26 l 460,0 c 14.39735,0 26,-11.60265 26,-26 l 0,-460 c 0,-14.39735 -11.60265,-26 -26,-26 l -460,0 z"
     style="fill:#66ae4a;fill-opacity:1;stroke:none" />
  <path
     id="path3226"
     d="m 427.74849,70.69754 -25.57812,25.14062 -7.54688,-7.54687 -0.0293,-0.0293 c -4.17182,-4.17182 -14.06485,-1.13769 -22.12695,6.81055 l -45.71875,44.93749 -9.25,-9.25 -0.0586,-0.0586 c -5.08305,-5.08305 -15.67234,-2.77668 -23.72266,5.15235 l -89.78125,88.21875 18.40625,18.71875 -58,58.96875 210.24024,210.24023 111.41796,0 c 14.39735,0 26,-11.60265 26,-26 l 0,-331.05078 -84.25195,-84.25194 z m -277.78125,245.625 -44.8125,45.59375 43.53125,43.59375 106.49023,106.49023 90.46876,0 -195.67774,-195.67773 z m -59.1875,60.25 -12.09375,12.28125 c -11.87149,12.07577 -11.76395,31.45675 0.16992,43.39062 l 0.20508,0.20313 79.55273,79.55273 67.59376,0 L 90.77974,376.57254 Z"
     style="opacity:0.25;fill:#000000" />
  <path
     id="path94"
     d="m 427.74874,70.69752 -25.625,25.1875 c 0,0 -3.36818,-3.39344 -7.5,-7.59375 -4.15465,-4.21552 -14.07523,-1.18564 -22.15625,6.78125 l -45.78125,45 c 0,0 -4.11213,-4.16864 -9.1875,-9.3125 -5.06015,-5.15907 -15.70022,-2.86553 -23.78125,5.09375 l -89.78125,88.21875 18.40625,18.71875 -58,58.96875 43.5625,43.53125 57.59375,-58.59375 19.4375,19.75 89.78125,-88.21875 c 8.08102,-7.96688 8.18563,-20.97386 0.21875,-29.0625 l -3.875,-3.96875 45.8125,-45 c 8.08103,-7.96689 11.25683,-17.81573 7.125,-22.03125 l -7.5,-7.625 25.65625,-25.1875 -14.40625,-14.65625 z m -277.78125,245.625 -44.8125,45.59375 43.53125,43.59375 44.84375,-45.5625 -43.5625,-43.625 z m -59.1875,60.25 -12.09375,12.28125 c -11.93892,12.14436 -11.76176,31.67766 0.375,43.59375 12.12153,11.91609 31.6388,11.80822 43.5625,-0.34375 l 11.71875,-11.9375 -43.5625,-43.59375 z"
     style="fill:#ffffff" />
</svg>
