<?xml version="1.0" encoding="UTF-8" standalone="no"?>
<svg
   xmlns:dc="http://purl.org/dc/elements/1.1/"
   xmlns:cc="http://creativecommons.org/ns#"
   xmlns:rdf="http://www.w3.org/1999/02/22-rdf-syntax-ns#"
   xmlns:svg="http://www.w3.org/2000/svg"
   xmlns="http://www.w3.org/2000/svg"
   height="100%"
   width="100%"
   version="1.1"
   id="svg2"
   viewBox="0 0 512 512">
  <metadata
     id="metadata100">
    <rdf:RDF>
      <cc:Work
         rdf:about="">
        <dc:format>image/svg+xml</dc:format>
        <dc:type
           rdf:resource="http://purl.org/dc/dcmitype/StillImage" />
        <dc:title />
      </cc:Work>
    </rdf:RDF>
  </metadata>
  <defs
     id="defs98" />
  <path
     style="fill:#cd1d31;fill-opacity:1;stroke:none"
     d="m 25.99999,-4.5e-4 c -14.39736,0 -26,11.60265 -26,26 l 0,460.00002 c 0,14.39735 11.60264,26.00001 26,26.00001 l 460.00001,0 c 14.39736,0 26.00002,-11.60266 26.00002,-26.00001 l 0,-460.00002 c 0,-14.39735 -11.60266,-26 -26.00002,-26 l -460.00001,0 z"
     id="rect2986" />
  <path
     id="path3022"
     d="m 254.28077,56.00045 c -52.34648,0 -105.34571,34.96745 -105.34571,88 l 0,96.48047 -38.81445,0 0,215.51953 56,56 319.87891,0 c 14.39736,0 26,-11.60265 26,-26 l 0,-223.56055 L 337.59912,88.03951 C 318.96476,69.40514 290.33936,56.00045 254.29248,56.00045 l 107.59571,107.5957 0,0.0117 -107.60742,-107.6074 z"
     style="opacity:0.25;fill:#000000;fill-rule:evenodd" />
  <path
     d="m 254.28123,55.99955 c -52.34648,0 -105.3461,34.96832 -105.3461,88.00086 l 0,96.48013 -38.81547,0 0,215.51903 291.76068,0 0,-215.51903 -39.99285,0 0,-99.15853 c 0,-39.85821 -41.21174,-85.32246 -107.59481,-85.32246 m -0.74909,48.33459 c 28.18776,-0.14609 58.88208,19.52663 58.88208,49.50908 l 0,86.64018 -115.57275,0 0.0559,-0.0501 0,-86.22479 c 0,-32.52338 32.38873,-49.75544 56.63767,-49.88435 m 1.3034,183.40674 c 16.12489,0 29.20614,13.08126 29.20614,29.20615 0,9.61793 -4.68364,18.12153 -11.86092,23.44255 l 11.58735,64.98372 -57.3352,0 11.48709,-64.6543 c -7.42507,-5.29809 -12.28632,-13.95924 -12.28632,-23.77341 0,-16.12488 13.08126,-29.20614 29.21188,-29.20614"
     id="path10"
     style="fill:#ffffff;fill-rule:evenodd" />
</svg>
