<?xml version="1.0" encoding="UTF-8" standalone="no"?>
<svg
   xmlns:dc="http://purl.org/dc/elements/1.1/"
   xmlns:cc="http://creativecommons.org/ns#"
   xmlns:rdf="http://www.w3.org/1999/02/22-rdf-syntax-ns#"
   xmlns:svg="http://www.w3.org/2000/svg"
   xmlns="http://www.w3.org/2000/svg"
   height="100%"
   width="100%"
   version="1.1"
   id="svg2"
   viewBox="0 0 512 512">
  <metadata
     id="metadata100">
    <rdf:RDF>
      <cc:Work
         rdf:about="">
        <dc:format>image/svg+xml</dc:format>
        <dc:type
           rdf:resource="http://purl.org/dc/dcmitype/StillImage" />
        <dc:title />
      </cc:Work>
    </rdf:RDF>
  </metadata>
  <defs
     id="defs98" />
  <path
     id="rect2986"
     d="m 25.99957,-1e-5 c -14.39735,0 -26,11.60266 -26,26.00001 l 0,460.00001 c 0,14.39735 11.60265,26 26,26 l 460.00002,0 c 14.39735,0 26,-11.60265 26,-26 l 0,-460.00001 c 0,-14.39735 -11.60265,-26.0000099999999 -26,-26.0000099999999 l -460.00002,0 z"
     style="fill:#66ae4a;fill-opacity:1;stroke:none" />
  <path
     id="path3015"
     d="m 254.43793,55.99929 c -52.3446,0 -105.4707,35.25307 -105.4707,88.28515 l 0,96.08984 -39.05664,0 0,215.625 56,56 320.08984,0 c 14.39735,0 26,-11.60265 26,-26 l 0,-223.9082 L 338.05707,88.14773 C 319.36966,69.46032 290.6096,56.01052 254.4477,56.00906 l -0.01,-0.01 z"
     style="opacity:0.25;fill:#000000;fill-rule:evenodd" />
  <path
     d="M 254.43842,56 C 202.09382,56 148.9672,91.25207 148.9672,144.28415 l 0,96.08995 -39.05757,0 0,215.62591 292.1799,0 0,-215.62591 c -69.98997,-1.19736 -144.6577,-0.0903 -205.4569,0 l 0,-85.93527 c 0,-32.51646 32.78002,-49.87109 57.02664,-49.99426 25.93814,-0.13464 53.48039,16.17444 57.80579,42.18418 44.41422,-2.89316 41.40649,-2.57376 50.78345,-5.47121 0,-39.85104 -41.43513,-85.14752 -107.8058,-85.14752 m 0.77772,232.02522 c 16.13006,0 28.9029,12.77857 28.9029,28.90288 0,9.6176 -4.54311,18.11516 -11.72158,23.43599 l 11.72158,64.83816 -57.80579,0 11.71584,-64.83816 c -7.41908,-5.29791 -12.49928,-13.62933 -12.49928,-23.43599 0,-16.13004 13.56201,-28.90288 29.68633,-28.90288"
     id="path10"
     style="fill:#ffffff;fill-rule:evenodd" />
</svg>
