<?xml version="1.0" encoding="UTF-8" standalone="no"?>
<svg
   xmlns:dc="http://purl.org/dc/elements/1.1/"
   xmlns:cc="http://creativecommons.org/ns#"
   xmlns:rdf="http://www.w3.org/1999/02/22-rdf-syntax-ns#"
   xmlns:svg="http://www.w3.org/2000/svg"
   xmlns="http://www.w3.org/2000/svg"
   height="100%"
   width="100%"
   version="1.1"
   id="svg2"
   viewBox="0 0 512 512">
  <metadata
     id="metadata100">
    <rdf:RDF>
      <cc:Work
         rdf:about="">
        <dc:format>image/svg+xml</dc:format>
        <dc:type
           rdf:resource="http://purl.org/dc/dcmitype/StillImage" />
        <dc:title />
      </cc:Work>
    </rdf:RDF>
  </metadata>
  <defs
     id="defs98" />
  <path
     style="fill:#924565;fill-opacity:1;stroke:none"
     d="m 25.99977,-2.9e-4 c -14.39735,0 -26,11.60265 -26,26.00001 l 0,460.00002 c 0,14.39735 11.60265,26 26,26 l 460.00002,0 c 14.39735,0 26,-11.60265 26,-26 l 0,-460.00002 c 0,-14.39736 -11.60265,-26.00001 -26,-26.00001 l -460.00002,0 z"
     id="rect2986" />
  <path
     id="path3048"
     d="M 391.09397,56.01202 250.55687,66.9378 c -0.26337,-0.0172 -0.51983,-0.0172 -0.78321,0 -1.2811,0.3965 -2.38247,1.22438 -3.12109,2.34375 -0.42512,0.71571 -0.69303,1.51639 -0.7832,2.34375 -0.0172,0.26338 -0.0172,0.51982 0,0.7832 -0.0172,0.25765 -0.0172,0.51982 0,0.7832 -0.0172,0.25766 -0.0172,0.51969 0,0.77735 -0.0172,0.26338 -0.0172,0.51787 0,0.78125 l 64.02343,125.70702 c 0.29331,0.7068 0.72105,1.34196 1.25196,1.87305 l 74.5039,74.50391 c -3.10818,20.94502 -10.82232,41.50001 -22.26172,59.33008 l -82.76562,-82.76563 c -6.32644,-6.19115 -14.99977,-9.99609 -24.60547,-9.99609 -19.48012,0 -35.13086,15.65088 -35.13086,35.13672 0,9.74363 3.91311,18.52835 10.26172,24.87695 l 79.72656,79.72656 c -0.58572,0.26628 -1.16882,0.53728 -1.75976,0.79297 -14.97179,6.47858 -31.36392,9.3986 -47.9961,9.25 L 116.52952,248.59795 c -4.25899,-4.25899 -10.16777,-6.85611 -16.66406,-6.76172 l -14.83398,0 c -12.70953,0.24621 -22.82528,10.71236 -22.64063,23.42188 0.32493,25.37896 5.60861,50.06664 15.61133,73.38867 9.89946,22.87835 24.1313,43.68992 41.62891,61.1875 l 112.16601,112.16601 254.20313,0 c 14.39735,0 25.99999,-11.60265 26,-26 l 0,-311.75781 L 395.54905,57.79131 c -0.39308,-0.39307 -0.84172,-0.73071 -1.33789,-0.99804 -0.71571,-0.42513 -1.51638,-0.69289 -2.34375,-0.77735 -0.25316,-0.0225 -0.5108,-0.0217 -0.76953,0 l -0.004,-0.004 z"
     style="opacity:0.25;fill:#000000" />
  <path
     style="fill:#ffffff"
     id="path8"
     d="M 391.093,56.01261 250.55678,66.93859 c -0.26337,-0.0172 -0.51961,-0.0172 -0.78299,0 -1.2811,0.3965 -2.38186,1.22386 -3.12048,2.34322 -0.42512,0.71571 -0.69281,1.51587 -0.78298,2.34323 -0.0172,0.26338 -0.0172,0.5196 0,0.78298 -0.0172,0.25765 -0.0172,0.5196 0,0.78298 -0.0172,0.25766 -0.0172,0.51961 0,0.77726 -0.0172,0.26338 -0.0172,0.51961 0,0.78298 l 64.02285,125.70679 c 0.58688,1.41423 1.71055,2.53789 3.1262,3.1262 0.25766,0.0172 0.5196,0.0172 0.77727,0 0.26337,0.0172 0.52532,0.0172 0.78297,0 0.26339,0.0172 0.5196,0.0172 0.78299,0 0.25765,0.0172 0.5196,0.0172 0.77725,0 0.26339,0.0172 0.51962,0.0172 0.783,0 1.41423,-0.58688 2.5379,-1.71055 3.1262,-3.1262 l 21.8577,-39.81623 c 15.51079,13.11748 27.81236,29.7133 35.91417,48.40471 26.89484,62.1663 -6.54729,147.99389 -68.70787,174.89016 -62.16631,26.90056 -148.78116,-7.32456 -175.67743,-69.49086 l 0.78297,0 C 127.40794,298.5571 123.53311,281.75803 123.2869,264.47514 123.0407,251.77135 112.5742,241.65125 99.86467,241.8359 l -14.83374,0 c -12.70952,0.24621 -22.8239,10.71271 -22.63924,23.42223 0.32493,25.37896 5.60828,50.06656 15.611,73.38859 20.27455,46.85591 58.7166,85.04031 106.18229,103.8491 47.46569,18.79445 101.49011,17.9313 148.35174,-2.34324 45.97701,-19.89379 83.16515,-58.31867 102.27452,-104.62205 19.84942,-48.06973 19.87232,-102.95587 -0.78297,-150.68494 -13.24632,-30.36029 -34.49708,-57.28519 -60.89664,-77.29636 0.10013,-0.2233 -0.1288,-0.59261 0,-0.78298 0.0172,-0.26338 0.0172,-0.51961 0,-0.78299 l 23.42221,-41.37645 c 0.54824,-0.95045 0.82163,-2.02974 0.78299,-3.1262 0.0172,-0.26338 0.0172,-0.51961 0,-0.78299 -0.18466,-0.55395 -0.44804,-1.07928 -0.78299,-1.56024 -0.53677,-0.98911 -1.34696,-1.80644 -2.34321,-2.34322 -0.71571,-0.42513 -1.51587,-0.69281 -2.34324,-0.77726 -0.25766,-0.0229 -0.5196,-0.0229 -0.78298,0 M 256.01619,243.4033 c -19.48012,0 -35.1312,15.65108 -35.1312,35.13692 0,19.48583 15.65108,35.13692 35.1312,35.13692 19.48585,0 35.13693,-15.65109 35.13693,-35.13692 0,-19.48584 -15.65108,-35.13692 -35.13693,-35.13692" />
</svg>
