<?xml version="1.0" encoding="UTF-8" standalone="no"?>
<svg
   xmlns:dc="http://purl.org/dc/elements/1.1/"
   xmlns:cc="http://creativecommons.org/ns#"
   xmlns:rdf="http://www.w3.org/1999/02/22-rdf-syntax-ns#"
   xmlns:svg="http://www.w3.org/2000/svg"
   xmlns="http://www.w3.org/2000/svg"
   height="100%"
   width="100%"
   version="1.1"
   id="svg2"
   viewBox="0 0 512 512">
  <metadata
     id="metadata100">
    <rdf:RDF>
      <cc:Work
         rdf:about="">
        <dc:format>image/svg+xml</dc:format>
        <dc:type
           rdf:resource="http://purl.org/dc/dcmitype/StillImage" />
        <dc:title />
      </cc:Work>
    </rdf:RDF>
  </metadata>
  <defs
     id="defs98" />
  <path
     id="rect2986"
     d="m 25.99998,-2e-5 c -14.39735,0 -26,11.60265 -26,26 L -2e-5,486 c 0,14.39735 11.60265,26.00001 26,26.00001 l 460.00003,0 c 14.39734,0 26,-11.60266 26,-26.00001 l 0,-460.00002 c 0,-14.39735 -11.60266,-26 -26,-26 l -460.00003,0 z"
     style="fill:#924565;fill-opacity:1;stroke:none" />
  <path
     id="path3290"
     d="m 120.90763,56.01327 0.004,0.004 c -0.26206,-0.0226 -0.52293,-0.0228 -0.7793,0 -0.82737,0.0845 -1.62804,0.35222 -2.34375,0.77735 -0.99625,0.53678 -1.80503,1.35464 -2.3418,2.34375 -0.33495,0.48095 -0.59854,1.00658 -0.7832,1.56054 -0.0172,0.26338 -0.0172,0.51787 0,0.78125 -0.0386,1.09647 0.23496,2.1765 0.7832,3.12696 l 23.42188,41.37695 c -0.0172,0.26338 -0.0172,0.51982 0,0.7832 0.1288,0.19038 -0.10013,0.5599 0,0.7832 -26.39966,20.01118 -47.65026,46.93463 -60.89658,77.29493 -20.65529,47.72906 -20.63262,102.61581 -0.7832,150.68555 9.87594,23.93012 24.58097,45.75675 42.83203,64.00781 l 112.46094,112.46094 253.51758,0 c 14.39734,0 26,-11.60265 26,-26 l 0,-170.23243 L 264.60685,68.3746 c -0.66077,-0.66077 -1.47622,-1.15556 -2.38086,-1.43555 -0.26337,-0.0172 -0.51983,-0.0172 -0.7832,0 L 120.90763,56.01327 Z"
     style="opacity:0.25;fill:#000000" />
  <path
     style="fill:#ffffff"
     id="path8"
     d="M 120.90677,56.01287 261.443,66.93885 c 0.26337,-0.0172 0.51961,-0.0172 0.78298,0 1.28111,0.3965 2.38187,1.22386 3.12048,2.34323 0.42512,0.71571 0.69282,1.51587 0.78299,2.34322 0.0172,0.26338 0.0172,0.51961 0,0.78299 0.0172,0.25765 0.0172,0.5196 0,0.78298 0.0172,0.25765 0.0172,0.5196 0,0.77726 0.0172,0.26338 0.0172,0.5196 0,0.78298 L 202.10659,200.4583 c -0.58688,1.41422 -1.71054,2.53789 -3.1262,3.1262 -0.25765,0.0172 -0.5196,0.0172 -0.77726,0 -0.26338,0.0172 -0.52532,0.0172 -0.78298,0 -0.26338,0.0172 -0.5196,0.0172 -0.78298,0 -0.25766,0.0172 -0.5196,0.0172 -0.77726,0 -0.26338,0.0172 -0.51961,0.0172 -0.783,0 -1.41422,-0.58688 -2.53789,-1.71055 -3.1262,-3.1262 l -21.85769,-39.81623 c -15.51079,13.11748 -27.81236,29.71329 -35.91418,48.40471 -26.89484,62.16629 6.5473,147.99388 68.70787,174.89015 62.16631,26.90056 148.78117,-7.32456 175.67744,-69.49085 l -0.78298,0 c 6.81066,-15.88871 10.6855,-32.68778 10.9317,-49.97067 0.2462,-12.70379 10.71271,-22.8239 23.42223,-22.63924 l 14.83374,0 c 12.70952,0.24621 22.8239,10.7127 22.63924,23.42222 -0.32493,25.37896 -5.60828,50.06657 -15.611,73.38859 -20.27454,46.85591 -58.7166,85.04031 -106.18228,103.8491 -47.4657,18.79446 -101.49011,17.93131 -148.35174,-2.34324 C 133.48604,420.25905 96.2979,381.83417 77.18853,335.5308 57.33911,287.46106 57.3162,232.57492 77.9715,184.84586 c 13.24632,-30.3603 34.49708,-57.28519 60.89665,-77.29637 -0.10013,-0.2233 0.1288,-0.5926 0,-0.78298 -0.0172,-0.26338 -0.0172,-0.5196 0,-0.78298 L 115.44593,64.60708 c -0.54824,-0.95046 -0.82163,-2.02974 -0.78299,-3.12621 -0.0172,-0.26338 -0.0172,-0.5196 0,-0.78298 0.18466,-0.55396 0.44804,-1.07929 0.78299,-1.56024 0.53677,-0.98911 1.34696,-1.80645 2.34321,-2.34323 0.71571,-0.42513 1.51587,-0.6928 2.34324,-0.77726 0.25766,-0.0229 0.5196,-0.0229 0.78298,0 m 135.06822,187.38641 c 19.48012,0 35.1312,15.65108 35.1312,35.13692 0,19.48582 -15.65108,35.13692 -35.1312,35.13692 -19.48584,0 -35.13692,-15.6511 -35.13692,-35.13692 0,-19.48584 15.65108,-35.13692 35.13692,-35.13692" />
</svg>
