<?xml version="1.0" encoding="UTF-8" standalone="no"?>
<svg
   xmlns:dc="http://purl.org/dc/elements/1.1/"
   xmlns:cc="http://creativecommons.org/ns#"
   xmlns:rdf="http://www.w3.org/1999/02/22-rdf-syntax-ns#"
   xmlns:svg="http://www.w3.org/2000/svg"
   xmlns="http://www.w3.org/2000/svg"
   height="100%"
   width="100%"
   version="1.1"
   id="svg2"
   viewBox="0 0 512 512">
  <metadata
     id="metadata100">
    <rdf:RDF>
      <cc:Work
         rdf:about="">
        <dc:format>image/svg+xml</dc:format>
        <dc:type
           rdf:resource="http://purl.org/dc/dcmitype/StillImage" />
        <dc:title />
      </cc:Work>
    </rdf:RDF>
  </metadata>
  <defs
     id="defs98" />
  <path
     style="fill:#6788cc;fill-opacity:1;stroke:none"
     d="m 25.99988,1e-5 c -14.39734,0 -26,11.60265 -26,26 l 0,459.99998 c 0,14.39735 11.60266,26 26,26 l 460,0 c 14.39733,0 25.99998,-11.60265 25.99998,-26 l 0,-459.99998 c 0,-14.39735 -11.60265,-26 -25.99998,-26 l -460,0 z"
     id="rect2986-5" />
  <path
     id="path3470"
     d="m 51.00013,50.99975 0,85.375 130.24999,130.25 -12.1875,12.1875 -4.82812,4.82812 -79.54687,-79.54687 -33.6875,0 0,103.5 204.40624,204.40625 230.59376,0 c 14.39732,0 25.99999,-11.60265 25.99999,-26 l 0,-60.125 -50.99999,-51 -1.125,0 -323.875,-323.875 -85,0 z m 325,0 0,33.59375 51.3125,51.3125 0,0.46875 84.68749,84.6875 0,-119.0625 -50.99999,-51 -85,0 z m -171.31251,0.84375 0,33.5625 78.90625,78.90625 -7.84375,7.84375 236.25,236.25 0,-153.3125 -50.99999,-51 -0.375,0 -152.25,-152.25 -103.68751,0 z m -153.68749,323.03125 0,85.34375 51.78125,51.78125 119.03124,0 -137.12499,-137.125 -33.6875,0 z"
     style="opacity:0.25;fill:#000000;fill-rule:evenodd" />
  <path
     id="path3252"
     d="m 50.99988,51 0,85.375 33.6875,0 0,-51.78125 51.31249,0 0,-33.59375 -84.99999,0 z m 325,0 0,33.59375 51.3125,0 0,51.78125 33.6875,0 0,-85.375 -85,0 z m -171.31251,0.84375 0,33.5625 103.68751,0 0,-33.5625 -103.68751,0 z M 322.74988,129.75 c -3.08328,0.1602 -5.71385,1.15192 -7.65625,3.03125 l -0.125,0.125 -15,15.03125 64.15625,64.15625 14.78125,-14.84375 0.25,-0.21875 0.0937,-0.0937 c 6.97291,-7.18242 1.64167,-23.85737 -12.03125,-37.53125 l -14.53125,-14.5625 c -9.44549,-9.44559 -20.36624,-14.91404 -28.5625,-15.09375 -0.45803,-0.0101 -0.93453,-0.0229 -1.375,0 z m -31.09376,26.5 -15.90625,15.90625 64.15626,64.125 15.875,-15.875 L 291.65612,156.25 Z m -25.71875,25.6875 -96.875,96.875 -11.90625,11.90625 -3.03125,3.03125 -24.15625,75.75 a 9.8604147,10.985805 0.01370778 0 0 3.1875,10.90625 9.8604147,10.985805 0.01370778 0 0 8.8125,1.21875 l 76.8125,-24.25 2.53125,-2.53125 11.5625,-11.5625 97.21876,-97.1875 -64.15626,-64.15625 z m -214.93749,22.15625 0,103.5 33.6875,0 0,-103.5 -33.6875,0 z m 376.3125,0 0,103.5 33.6875,0 0,-103.5 -33.6875,0 z m -256.25001,100.75 a 2.751779,2.751779 0 0 1 2.25,0.78125 l 5.625,5.6875 21.0625,-1.09375 a 2.751779,2.751779 0 0 1 1.9375,0.65625 2.751779,2.751779 0 0 1 0.9375,2.21875 l -1.0625,22.9375 4.1875,4.1875 a 2.751779,2.751779 0 0 1 -1.21875,4.59375 l -36.25,9.71875 a 2.751779,2.751779 0 0 1 -2.65625,-0.71875 l -7.03125,-7.03125 a 2.751779,2.751779 0 0 1 -0.71875,-2.71875 l 10.59375,-37.1875 a 2.751779,2.751779 0 0 1 2.34375,-2.03125 z M 50.99988,374.875 l 0,85.34375 84.99999,0 0,-33.59375 -51.31249,0 0,-51.75 -33.6875,0 z m 376.3125,0 0,51.75 -51.3125,0 0,33.59375 85,0 0,-85.34375 -33.6875,0 z m -222.62501,52.53125 0,33.59375 103.68751,0 0,-33.59375 -103.68751,0 z"
     style="fill:#ffffff;fill-rule:evenodd" />
</svg>
