<?xml version="1.0" encoding="UTF-8" standalone="no"?>
<svg
   xmlns:dc="http://purl.org/dc/elements/1.1/"
   xmlns:cc="http://creativecommons.org/ns#"
   xmlns:rdf="http://www.w3.org/1999/02/22-rdf-syntax-ns#"
   xmlns:svg="http://www.w3.org/2000/svg"
   xmlns="http://www.w3.org/2000/svg"
   height="100%"
   width="100%"
   version="1.1"
   id="svg2"
   viewBox="0 0 512 512">
  <metadata
     id="metadata100">
    <rdf:RDF>
      <cc:Work
         rdf:about="">
        <dc:format>image/svg+xml</dc:format>
        <dc:type
           rdf:resource="http://purl.org/dc/dcmitype/StillImage" />
        <dc:title />
      </cc:Work>
    </rdf:RDF>
  </metadata>
  <defs
     id="defs98" />
  <path
     id="rect2986"
     d="M 26,0 C 11.60265,0 0,11.60265 0,26 l 0,460 c 0,14.39735 11.60265,26 26,26 l 460,0 c 14.39735,0 26,-11.60265 26,-26 L 512,26 C 512,11.60265 500.39735,0 486,0 L 26,0 Z"
     style="fill:#0078ad;fill-opacity:1;stroke:none" />
  <path
     id="path3635"
     d="m 255.94882,55.99937 c -86.12344,0 -155.36914,15.31713 -155.36914,33.8418 0,2.43267 1.1944,4.79596 3.46484,7.0664 l 21.4336,21.43359 c -5.20719,-1.72918 -9.70733,-3.56629 -13.37891,-5.49804 l -11.45313,-11.45313 -0.0664,0 c -2.774949,3.24994 -4.398439,6.4274 -4.398439,9.90234 l 0,31.39063 c 0,4.12514 2.03227,8.12602 5.833989,11.92773 l 25.23632,25.23633 c -10.76061,-4.05005 -19.07561,-8.62525 -24.41015,-13.55078 l -2.16211,-2.16211 -0.0332,0 c -3.049939,3.39994 -4.396479,7.06101 -4.396479,10.71094 l 0,32.19531 c 0,4.09159 1.99328,8.03624 5.726559,11.76953 l 108.71874,108.71875 0,6.37891 -49.11523,0 c -13.32855,0 -2.68489,11.1491 -0.99024,12.84375 l 0.22657,0.22656 87.44531,105.10156 c 0,0 0.10674,0.12237 0.30859,0.32422 l 59.59571,59.5957 177.83398,0 c 14.39735,0 26,-11.60265 26,-26 l 0,-300.17382 L 408.9371,82.76304 C 393.74553,67.57147 330.78436,55.99937 255.94882,55.99937 Z"
     style="opacity:0.25;fill:#000000" />
  <path
     id="path292"
     d="m 255.94967,56 c -86.12344,0 -155.37021,15.31569 -155.37021,33.84036 0,18.52466 69.27177,33.03463 155.37021,33.03463 86.12343,0 156.47807,-14.50997 156.47807,-33.03463 C 412.42774,71.31569 342.0481,56 255.94967,56 Z m -155.37021,45.38905 c -2.774949,3.24994 -4.397899,6.42873 -4.397899,9.90367 l 0,31.38962 c 0,24.47455 71.528279,44.58332 159.801679,44.58332 88.3484,0 159.80167,-20.10877 159.80167,-44.58332 l 0,-31.38962 c 0,-3.47494 -1.67294,-6.65373 -4.3979,-9.90367 -3.04994,17.92467 -71.24673,32.19533 -155.3702,32.19533 -84.14847,0 -152.29525,-14.24566 -155.3702,-32.19533 l -0.0671,0 z m 0.0671,62.74565 c -3.049939,3.39994 -4.397909,7.05947 -4.397909,10.7094 l 0,32.19534 c 0,24.49955 71.494719,43.74403 159.768109,43.74403 88.3484,0 159.80168,-19.24448 159.80168,-43.74403 l 0,-32.19534 c 0,-3.64993 -1.37296,-7.33446 -4.39791,-10.7094 -17.17469,19.37465 -80.22156,33.84036 -155.3702,33.84036 -74.99864,0 -138.22051,-14.46571 -155.3702,-33.84036 l -0.0336,0 z m 110.04829,124.55131 0,23.76882 0,21.45237 -49.11551,0 c -14.42474,0 -0.77215,13.05942 -0.77215,13.05942 l 87.45449,105.11325 c 0,0 4.04875,4.62717 9.19867,3.82718 l 0.0336,0.0336 c 1.72496,-0.27499 3.49651,-1.18006 5.37148,-3.05503 10.37481,-10.34981 84.39946,-108.974 84.39946,-108.974 0,0 12.87534,-13.02585 -4.59933,-13.02585 l -45.28834,0 0,-19.20306 0,-22.99667 -86.68234,0 z"
     style="fill:#ffffff" />
</svg>
