<?xml version="1.0" encoding="UTF-8" standalone="no"?>
<svg
   xmlns:dc="http://purl.org/dc/elements/1.1/"
   xmlns:cc="http://creativecommons.org/ns#"
   xmlns:rdf="http://www.w3.org/1999/02/22-rdf-syntax-ns#"
   xmlns:svg="http://www.w3.org/2000/svg"
   xmlns="http://www.w3.org/2000/svg"
   height="100%"
   width="100%"
   version="1.1"
   id="svg2"
   viewBox="0 0 512 512">
  <metadata
     id="metadata100">
    <rdf:RDF>
      <cc:Work
         rdf:about="">
        <dc:format>image/svg+xml</dc:format>
        <dc:type
           rdf:resource="http://purl.org/dc/dcmitype/StillImage" />
        <dc:title />
      </cc:Work>
    </rdf:RDF>
  </metadata>
  <defs
     id="defs98" />
  <path
     style="fill:#0078ad"
     id="path9"
     d="m 25.99976,0 c -14.397,0 -26,11.603 -26,26 l 0,460 c 0,14.397 11.603,26 26,26 l 459.99998,0 c 14.397,0 26,-11.603 26,-26 l 0,-460 c 0,-14.397 -11.603,-26 -26,-26 L 25.99976,0" />
  <path
     id="path95"
     d="m 256.00021,40.99567 215,215.00195 -215,-214.99805 c -118.74,0 -215,96.26001 -215,215 0,59.37 24.06866,113.12125 62.97266,152.03125 l 0.16015,0.16016 c -0.0541,-0.054 -0.11002,-0.10612 -0.16406,-0.16016 l 103.96875,103.96875 278.06253,0 c 14.397,0 26,-11.603 26,-26 l 0,-278.05859 -103.97073,-103.9707 c -38.908,-38.908 -92.6593,-62.97461 -152.0293,-62.97461 z"
     style="opacity:0.25;fill-rule:evenodd" />
  <path
     style="fill:#ffffff;fill-rule:evenodd"
     id="path131-3"
     d="m 255.99976,41 c -118.74,0 -215,96.26 -215,215 0,118.74 96.26,215 215,215 118.74,0 215,-96.26 215,-215 0,-118.74 -96.26,-215 -215,-215 m 0,71.875 c 79.03,0 143.09,64.09 143.09,143.13 0,79.03 -64.06,143.13 -143.09,143.13 -79.03,0 -143.09,-64.09 -143.09,-143.12 0,-79.03 64.06,-143.12 143.09,-143.12 m -57.44,107.28 c -19.852,0 -35.844,15.992 -35.844,35.844 0,19.852 15.992,35.844 35.844,35.844 l 114.84,0 c 19.852,0 35.844,-15.992 35.844,-35.844 0,-19.852 -15.992,-35.844 -35.844,-35.844 l -114.84,0" />
</svg>
