<?xml version="1.0" encoding="UTF-8" standalone="no"?>
<svg
   xmlns:dc="http://purl.org/dc/elements/1.1/"
   xmlns:cc="http://creativecommons.org/ns#"
   xmlns:rdf="http://www.w3.org/1999/02/22-rdf-syntax-ns#"
   xmlns:svg="http://www.w3.org/2000/svg"
   xmlns="http://www.w3.org/2000/svg"
   xmlns:xlink="http://www.w3.org/1999/xlink"
   height="100%"
   width="100%"
   version="1.1"
   id="svg2"
   viewBox="0 0 512 512">
  <metadata
     id="metadata100">
    <rdf:RDF>
      <cc:Work
         rdf:about="">
        <dc:format>image/svg+xml</dc:format>
        <dc:type
           rdf:resource="http://purl.org/dc/dcmitype/StillImage" />
        <dc:title />
      </cc:Work>
    </rdf:RDF>
  </metadata>
  <defs
     id="defs98" />
  <path
     style="fill:#68af4c"
     id="path9"
     d="m 25.999663,0 c -14.397,0 -26,11.603 -26,26 l 0,460 c 0,14.397 11.603,26 26,26 l 459.999997,0 c 14.397,0 26,-11.603 26,-26 l 0,-460 c 0,-14.397 -11.603,-26 -26,-26 L 25.999663,0" />
  <path
     style="fill:#ffffff"
     id="0"
     d="m 300.43966,41 c -0.356,0.019 -0.74,0.105 -1.125,0.156 -2.13,0.277 -4.404,1.243 -5.094,2.188 -0.952,1.302 -1.281,8.393 -1.281,29.375 0,10.1 -0.023,19.485 -0.063,28.563 l -192.69,0 c -20.731002,0 -37.409997,16.707 -37.409997,37.438 l 0,8.313 c 0,20.731 16.674995,37.438 37.409997,37.438 l 192.34,0 c 0.05,9.285 0.168,17.97 0.406,26.19 0,22.897 0.323,30.405 1.281,31.719 0.69,0.945 3.061,1.952 5.281,2.25 3.36,0.451 4.977,0.04 9.719,-2.656 46.08,-30.881 81.34,-54.41 131.03,-87.62 6.992,-3.929 8.969,-6.481 8.969,-11.5 0,-5.962 -1.158,-7.03 -20.969,-19.5 l -119.41,-79.66 c -3.923,-2.109 -5.91,-2.792 -8.406,-2.656 l 0,-0.031" />
  <path
     style="opacity:0.25"
     id="path160"
     d="m 300.43974,40.99915 c -0.356,0.019 -0.74,0.10525 -1.125,0.15625 l 124.30664,124.30664 -0.006,0.004 L 299.30874,41.1594 c -2.12546,0.27641 -4.39263,1.24052 -5.08789,2.18359 l -0.002,-0.002 c -0.952,1.302 -1.28125,8.393 -1.28125,29.375 l 0.002,0.004 107.9414,107.9375 -0.002,0.002 L 292.93955,72.72003 c 0,10.09931 -0.0225,19.48313 -0.0625,28.56055 l -192.6875,0 c -20.731002,0 -37.410157,16.7065 -37.410157,37.4375 l 0.002,0.002 0,8.3125 c 5.3e-4,10.37222 4.17479,19.73729 10.94336,26.50586 l 0.004,0.002 104.584027,104.58371 -95.914062,63.98633 0.004,0.004 C 62.598163,354.5805 61.439833,355.64924 61.439833,361.61057 l -0.002,0 c 0,2.996 0.70572,5.11392 2.76172,7.16992 l 0.0508,0.0508 c -0.0177,-0.0176 -0.041,-0.0352 -0.0586,-0.0527 l 143.220697,143.2207 278.58789,0 c 14.397,0 26,-11.603 26,-26 l 0,-284.64844 -65.35156,-65.35156 -0.0195,-0.0195 c -2.628,-2.628 -7.887,-6.02876 -18.375,-12.63477 l -0.004,-0.004 -119.41015,-79.66016 118.97851,118.97852 c -0.002,0.001 -0.004,7.8e-4 -0.006,0.002 L 308.84013,43.68861 c -3.9021,-2.09776 -5.88982,-2.78283 -8.36719,-2.65626 l -0.0332,-0.0332 z" />
  <path
     style="fill:#ffffff"
     id="path250"
     d="m 210.21966,259.77 c 0.356,0.019 0.74,0.105 1.125,0.156 2.13,0.277 4.404,1.243 5.094,2.188 0.952,1.302 1.281,8.393 1.281,29.375 0,10.1 0.023,19.485 0.063,28.563 l 192.69,0 c 20.731,0 37.41,16.707 37.41,37.438 l 0,8.313 c 0,20.731 -16.675,37.438 -37.41,37.438 l -192.34,0 c -0.05,9.285 -0.168,17.97 -0.406,26.19 0,22.897 -0.323,30.405 -1.281,31.719 -0.69,0.945 -3.061,1.952 -5.281,2.25 -3.36,0.451 -4.977,0.039 -9.719,-2.656 -46.08,-30.881 -81.34,-54.41 -131.029997,-87.62 -6.992,-3.929 -8.969,-6.481 -8.969,-11.5 0,-5.962 1.158,-7.03 20.968995,-19.5 l 119.410002,-79.66 c 3.923,-2.109 5.91,-2.792 8.406,-2.656 l 0,-0.031" />
  <use
     xlink:href="#0"
     height="1"
     width="1"
     y="0"
     x="0"
     id="use252" />
</svg>
