<?xml version="1.0" encoding="UTF-8" standalone="no"?>
<svg
   xmlns:dc="http://purl.org/dc/elements/1.1/"
   xmlns:cc="http://creativecommons.org/ns#"
   xmlns:rdf="http://www.w3.org/1999/02/22-rdf-syntax-ns#"
   xmlns:svg="http://www.w3.org/2000/svg"
   xmlns="http://www.w3.org/2000/svg"
   height="100%"
   width="100%"
   version="1.1"
   id="svg2"
   viewBox="0 0 512 512">
  <metadata
     id="metadata100">
    <rdf:RDF>
      <cc:Work
         rdf:about="">
        <dc:format>image/svg+xml</dc:format>
        <dc:type
           rdf:resource="http://purl.org/dc/dcmitype/StillImage" />
        <dc:title />
      </cc:Work>
    </rdf:RDF>
  </metadata>
  <defs
     id="defs98" />
  <path
     id="rect2986"
     d="m 26.000002,0 c -14.39735,0 -26,11.60265 -26,26 l 0,460 c 0,14.39735 11.60265,26 26,26 L 486,512 c 14.39735,0 26,-11.60265 26,-26 L 512,26 C 512,11.60265 500.39735,0 486,0 L 26.000002,0 Z"
     style="fill:#66ae4a;fill-opacity:1;stroke:none" />
  <path
     id="path4613"
     d="m 134.83552,87.31787 0,0.0274 c -16.26632,0 -25.88102,14.47216 -28.99805,31.60547 l -54.837888,298.02539 95.023438,95.02343 339.97656,0 c 14.39735,0 26,-11.60265 26,-26 l 0,-245.49218 L 366.50544,95.01324 c -4.77041,-4.77041 -10.84174,-7.69532 -18.14453,-7.69532 l -213.52539,0 z"
     style="opacity:0.25;fill:#000000" />
  <path
     id="path654"
     d="m 134.83528,87.31754 0,0.0277 c -16.26632,0 -25.88155,14.47127 -28.99858,31.60458 L 51.000002,416.9754 c 89.836388,1.67205 181.143198,0.0826 277.399418,0 l 0,-35.48583 -42.583,0 -15.49733,0 0,-15.46961 0,-58.71797 0,-15.4696 15.49733,0 42.583,0 0,-42.583 0,-15.49733 15.4696,0 56.1397,0 -21.95686,-114.82994 C 374.79034,101.83008 364.62653,87.31755 348.3602,87.31755 l -213.52492,0 z m 209.03374,161.93184 0,58.30211 -58.30211,0 0,58.32984 58.30211,0 0,58.30212 58.80114,0.49902 0,-58.80114 58.32984,0.49902 0,-58.82886 -58.32984,0 0,-58.30212 -58.80114,0 z m 74.15985,132.24018 0,36.12347 c 5.88313,0.0826 11.51355,-0.10321 17.43796,0 l -7.09716,-36.12347 -10.3408,0 z"
     style="fill:#ffffff" />
</svg>
