<?xml version="1.0" encoding="UTF-8" standalone="no"?>
<svg
   xmlns:dc="http://purl.org/dc/elements/1.1/"
   xmlns:cc="http://creativecommons.org/ns#"
   xmlns:rdf="http://www.w3.org/1999/02/22-rdf-syntax-ns#"
   xmlns:svg="http://www.w3.org/2000/svg"
   xmlns="http://www.w3.org/2000/svg"
   height="100%"
   width="100%"
   version="1.1"
   id="svg2"
   viewBox="0 0 512 512">
  <metadata
     id="metadata100">
    <rdf:RDF>
      <cc:Work
         rdf:about="">
        <dc:format>image/svg+xml</dc:format>
        <dc:type
           rdf:resource="http://purl.org/dc/dcmitype/StillImage" />
        <dc:title />
      </cc:Work>
    </rdf:RDF>
  </metadata>
  <defs
     id="defs98" />
  <path
     style="fill:#cd1d31;fill-opacity:1;stroke:none"
     d="M 26,0 C 11.60265,0 0,11.60265 0,26 l 0,459.99999 c 0,14.39736 11.60265,26 26,26 l 460,0 c 14.39735,0 26,-11.60264 26,-26 L 512,26 C 512,11.60265 500.39735,0 486,0 L 26,0 Z"
     id="rect2986" />
  <path
     id="path3738"
     d="m 224.63216,80.03684 c -12.93948,0 -20.84074,11.80523 -23.44531,25.39063 l -7.80664,40.38086 23.5332,23.5332 -96.66797,0 c -12.91864,0 -20.98723,11.53959 -23.5918,25.125 l -45.65429,237.45703 80.07617,80.07617 354.92383,0 c 14.39735,0 26,-11.60264 26,-26 l 0,-296.44922 L 408.20833,85.7595 c -3.55345,-3.55345 -8.0766,-5.72266 -13.62695,-5.72266 l -169.94922,0 z"
     style="opacity:0.25;fill:#000000" />
  <path
     id="path652"
     d="m 224.63147,80.03723 c -12.93948,0 -20.84084,11.80396 -23.44541,25.38937 l -7.80531,40.38147 130.86422,0 c 12.93948,0 20.96586,11.76229 23.4454,25.38937 l 31.25072,171.27513 c 27.58754,0.0625 54.95061,-0.14791 82.05891,-0.64799 L 417.37859,105.45606 C 414.87821,91.82897 407.52066,80.03723 394.58118,80.03723 l -169.94971,0 z m 65.35847,89.27515 0,0.0294 -169.74353,0 c -12.91864,0 -20.98811,11.53888 -23.59268,25.12429 L 51,431.92444 c 108.76658,-2.0003 208.28401,1.2826 305.67385,-0.53018 L 313.0819,194.43665 c -2.50038,-13.60623 -10.15249,-25.12427 -23.09196,-25.12427 z"
     style="fill:#ffffff" />
</svg>
