<?xml version="1.0" encoding="UTF-8" standalone="no"?>
<svg
   xmlns:dc="http://purl.org/dc/elements/1.1/"
   xmlns:cc="http://creativecommons.org/ns#"
   xmlns:rdf="http://www.w3.org/1999/02/22-rdf-syntax-ns#"
   xmlns:svg="http://www.w3.org/2000/svg"
   xmlns="http://www.w3.org/2000/svg"
   height="100%"
   width="100%"
   version="1.1"
   id="svg2"
   viewBox="0 0 512 512">
  <metadata
     id="metadata100">
    <rdf:RDF>
      <cc:Work
         rdf:about="">
        <dc:format>image/svg+xml</dc:format>
        <dc:type
           rdf:resource="http://purl.org/dc/dcmitype/StillImage" />
        <dc:title />
      </cc:Work>
    </rdf:RDF>
  </metadata>
  <defs
     id="defs98" />
  <path
     style="fill:#cd1d31;fill-opacity:1;stroke:none"
     d="m 26,-2.6e-4 c -14.39735,0 -26,11.60265 -26,26 l 0,460 c 0,14.39735 11.60265,26 26,26 l 460,0 c 14.39735,0 26,-11.60265 26,-26 l 0,-460 c 0,-14.39735 -11.60265,-26 -26,-26 l -460,0 z"
     id="rect2986" />
  <path
     id="path3755"
     d="m 135.87484,87.87917 c -16.46787,0 -26.20372,14.65047 -29.35937,31.99608 l -55.51563,301.71876 90.40625,90.40625 344.59375,0 c 14.39735,0 26,-11.60265 26,-26 l 0,-248.71875 L 370.41586,95.69752 c -4.82952,-4.82951 -10.97783,-7.78906 -18.37109,-7.78906 l -216.14063,0 -0.0293,-0.0293 z"
     style="opacity:0.25;fill:#000000" />
  <path
     id="path654"
     d="m 135.87404,87.87955 c -16.46787,0 -26.20223,14.65055 -29.35788,31.99616 L 51,421.59394 c 84.42923,1.58827 170.23115,0.29258 259.92675,0 l -28.74041,-28.06681 -11.08639,-11.11446 11.08639,-11.08639 30.70509,-30.70509 -30.70509,-30.7051 -11.08639,-11.08639 11.08639,-11.11445 42.46508,-41.79149 11.08639,-11.08639 11.0864,11.08639 30.05955,30.70509 29.38596,-29.38595 -24.16553,-127.33913 C 378.80226,102.59996 368.51251,87.90762 352.04463,87.90762 l -216.17059,0 0,-0.0281 z m 199.61117,169.07447 -42.01602,41.98795 -0.19646,-0.0842 41.76341,41.73536 -41.76341,41.76341 41.76341,41.76342 41.73536,-41.76342 41.76341,41.76342 L 461,382.35654 418.98398,340.34048 461,298.94193 418.98398,256.95398 377.24863,298.68933 335.48521,256.95398 Z m 41.37049,147.77177 -16.98043,16.98042 c 11.38959,0.0418 23.07051,0.54105 34.60638,0.64554 L 376.8557,404.72579 Z"
     style="fill:#ffffff" />
</svg>
