<?xml version="1.0" encoding="UTF-8" standalone="no"?>
<svg
   xmlns:dc="http://purl.org/dc/elements/1.1/"
   xmlns:cc="http://creativecommons.org/ns#"
   xmlns:rdf="http://www.w3.org/1999/02/22-rdf-syntax-ns#"
   xmlns:svg="http://www.w3.org/2000/svg"
   xmlns="http://www.w3.org/2000/svg"
   height="100%"
   width="100%"
   version="1.1"
   id="svg2"
   viewBox="0 0 512 512">
  <metadata
     id="metadata100">
    <rdf:RDF>
      <cc:Work
         rdf:about="">
        <dc:format>image/svg+xml</dc:format>
        <dc:type
           rdf:resource="http://purl.org/dc/dcmitype/StillImage" />
        <dc:title />
      </cc:Work>
    </rdf:RDF>
  </metadata>
  <defs
     id="defs98" />
  <path
     style="fill:#0078ad;fill-opacity:1;stroke:none"
     d="m 25.99984,-2.2e-4 c -14.39736,0 -26.00001,11.60265 -26.00001,26 l 0,460 c 0,14.39735 11.60265,26 26.00001,26 l 459.99999,0 c 14.39735,0 26,-11.60265 26,-26 l 0,-460 c 0,-14.39735 -11.60265,-26 -26,-26 l -459.99999,0 z"
     id="rect2986" />
  <path
     id="path3180"
     d="m 396.95327,60.21691 c -0.44012,2.8e-4 -0.8823,0.0127 -1.32422,0.0352 0,0 -0.002,0 -0.002,0 -4.14934,0.21146 -8.36086,1.38725 -12.27539,3.64649 l -93.41016,53.95117 c -6.57629,3.79721 -10.96049,9.82781 -12.6582,16.41016 L 227.02158,83.99821 c -1.65935,-1.65935 -4.08974,-2.86719 -7.64453,-2.86719 l -35.1211,0 c -0.39817,-0.0276 -0.8613,-0.0544 -1.3164,-0.0469 l -0.0234,-0.0234 c -3.23873,0.0576 -7.74946,1.31025 -12.13867,7.89258 l -60.22656,90.32421 -38.99804,23.39844 c -15.41686,9.78415 -15.55274,20.13766 -15.55274,20.26172 l 0,76.56641 c -0.0143,0.40201 0.31955,5.47774 5.37696,10.53515 l 103.46678,103.4668 0.002,0.002 6.11914,9.1836 c 1.11534,1.86901 2.20256,3.27678 3.26367,4.33789 l 84.9707,84.9707 226.80078,0 c 14.39735,0 26,-11.60265 26,-26 l 0,-321.22266 -97.45312,-97.45312 c -4.62349,-4.62349 -10.9822,-7.11174 -17.59375,-7.10742 z"
     style="opacity:0.25;fill:#000000" />
  <path
     id="path3052"
     d="m 395.62905,60.25181 c -4.14996,0.21119 -8.36194,1.38676 -12.27708,3.64635 l -93.41092,53.9509 c -12.52518,7.23215 -17.11376,22.5663 -10.29218,34.3826 6.82306,11.81482 22.41123,15.49218 34.93642,8.26151 l 93.41092,-53.90511 C 420.5214,99.35591 425.10998,84.02175 418.2884,72.20545 413.59791,64.08128 404.75747,59.7866 395.62757,60.25181 M 182.9165,81.06066 c -3.23873,0.0576 -7.74904,1.30997 -12.13825,7.8923 l -60.22752,90.3243 -38.99776,23.39925 c -15.41686,9.78415 -15.55273,20.13688 -15.55273,20.26094 l 0,76.56594 c -0.0207,0.58336 0.68969,11.01141 15.50695,16.93802 l 39.04502,15.59999 60.41213,90.64921 c 4.7274,7.92184 8.96449,7.56887 12.73785,7.56887 l 33.32222,0 c 7.46992,0 13.52207,-8.85078 13.52207,-14.58392 l 0,-322.50028 c 0,-1.82096 -0.82704,-12.04521 -11.16944,-12.04521 l -35.12103,0 c -0.40466,-0.0281 -0.87577,-0.0546 -1.33803,-0.0458 m 139.10474,149.48701 c -14.46282,0 -26.12257,10.9996 -26.12257,24.64571 0,13.64464 11.65828,24.64572 26.12257,24.64572 l 107.85454,0 c 14.46282,0 26.12257,-10.9996 26.12257,-24.64572 0,-13.64464 -11.65828,-24.64571 -26.12257,-24.64571 l -107.85454,0 m -22.19709,117.23255 c -8.22164,0.35445 -15.90423,4.56791 -20.1679,11.95365 -6.82306,11.81482 -2.23448,27.15193 10.29218,34.3826 l 93.41093,53.9509 c 12.52518,7.23215 28.11927,3.509 34.93642,-8.3073 6.82306,-11.81482 2.23448,-27.15193 -10.29219,-34.3826 l -93.41092,-53.90512 c -4.69787,-2.7115 -9.83584,-3.9048 -14.76852,-3.69213"
     style="fill:#ffffff" />
</svg>
