<?xml version="1.0" encoding="UTF-8" standalone="no"?>
<svg
   xmlns:dc="http://purl.org/dc/elements/1.1/"
   xmlns:cc="http://creativecommons.org/ns#"
   xmlns:rdf="http://www.w3.org/1999/02/22-rdf-syntax-ns#"
   xmlns:svg="http://www.w3.org/2000/svg"
   xmlns="http://www.w3.org/2000/svg"
   height="100%"
   width="100%"
   version="1.1"
   id="svg2"
   viewBox="0 0 512 512">
  <metadata
     id="metadata133">
    <rdf:RDF>
      <cc:Work
         rdf:about="">
        <dc:format>image/svg+xml</dc:format>
        <dc:type
           rdf:resource="http://purl.org/dc/dcmitype/StillImage" />
        <dc:title />
      </cc:Work>
    </rdf:RDF>
  </metadata>
  <defs
     id="defs4" />
  <path
     id="rect2986"
     d="m 25.99966,-3.4e-4 c -14.39736,0 -26,11.60265 -26,26 l 0,460.00003 c 0,14.39734 11.60264,26 26,26 l 460.00003,0 c 14.39734,0 26,-11.60266 26,-26 l 0,-460.00003 c 0,-14.39735 -11.60266,-26 -26,-26 l -460.00003,0 z"
     style="fill:#669966;fill-opacity:1;stroke:none" />
  <path
     id="path3010"
     d="m 105.21127,56.00033 c -26.50949,0 -48.43554,21.14858 -48.43554,47.65235 0,13.25457 5.48217,25.36303 14.27734,34.1582 l 234.47266,234.47266 -8.19727,8.29492 -158.34961,-158.34961 c -8.60051,-8.60051 -20.51497,-13.88672 -33.76758,-13.88672 -26.50949,0 -48.43554,21.14858 -48.43554,47.65235 0,13.05909 5.32191,24.81605 13.89062,33.38476 l 222.6211,222.6211 192.71289,0 c 14.39734,0 26,-11.60266 26,-26 l 0,-43.0918 L 138.97885,69.88705 C 130.37834,61.28654 118.46388,56.00033 105.21127,56.00033 Z m 0,303.9043 c -26.50949,0 -48.43554,21.9275 -48.43554,48.43555 0,13.0591 5.32191,24.81607 13.89062,33.38477 l 70.27539,70.27539 135.85938,0 -138.20508,-138.20508 c -8.56954,-8.56953 -20.32761,-13.89063 -33.38477,-13.89063 z"
     style="opacity:0.25;fill:#000000" />
  <path
     style="fill:#ffffff"
     id="path8"
     d="m 105.21153,55.99966 c -26.5095,0 -48.43555,21.14973 -48.43555,47.65349 0,26.5095 21.92749,48.43556 48.43555,48.43556 26.5095,0 47.6535,-21.92749 47.6535,-48.43556 0,-26.50949 -21.14973,-47.65349 -47.6535,-47.65349 m 0,152.34222 c -26.5095,0 -48.43555,21.14973 -48.43555,47.6535 0,26.5095 21.92749,47.6535 48.43555,47.6535 26.5095,0 47.6535,-21.14974 47.6535,-47.6535 0,-26.50949 -21.14973,-47.6535 -47.6535,-47.6535 m 250.01255,114.84392 -33.59808,32.80887 -66.40264,67.19043 32.81458,32.81458 66.40265,-67.19043 67.19043,67.19043 33.59235,-32.81458 -67.1847,-67.19043 m -282.82714,3.91025 c -26.5095,0 -48.43555,21.92748 -48.43555,48.43553 0,26.5095 21.92749,47.6535 48.43555,47.6535 26.5095,0 47.6535,-21.14972 47.6535,-47.6535 0,-26.50949 -21.14973,-48.43553 -47.6535,-48.43553" />
</svg>
