<?xml version="1.0" encoding="UTF-8" standalone="no"?>
<svg
   xmlns:dc="http://purl.org/dc/elements/1.1/"
   xmlns:cc="http://creativecommons.org/ns#"
   xmlns:rdf="http://www.w3.org/1999/02/22-rdf-syntax-ns#"
   xmlns:svg="http://www.w3.org/2000/svg"
   xmlns="http://www.w3.org/2000/svg"
   height="100%"
   width="100%"
   version="1.1"
   id="svg2"
   viewBox="0 0 512 512">
  <metadata
     id="metadata133">
    <rdf:RDF>
      <cc:Work
         rdf:about="">
        <dc:format>image/svg+xml</dc:format>
        <dc:type
           rdf:resource="http://purl.org/dc/dcmitype/StillImage" />
        <dc:title />
      </cc:Work>
    </rdf:RDF>
  </metadata>
  <defs
     id="defs4" />
  <path
     id="rect2986"
     d="m 25.99961,-1.9e-4 c -14.39736,0 -26,11.60265 -26,26 l 0,460 c 0,14.39735 11.60264,26 26,26 l 460,0 c 14.39734,0 26,-11.60265 26,-26 l 0,-460 c 0,-14.39735 -11.60266,-26 -26,-26 l -460,0 z"
     style="fill:#6788cc;fill-opacity:1;stroke:none" />
  <path
     id="path3328"
     d="m 255.74845,56.00021 c -50,0 -90.72656,40.19999 -90.72656,90.24999 0,25.00312 10.17763,47.68741 26.60937,64.11914 l 79.64258,79.64063 c -16.38249,12.39036 -22.93672,8.05769 -46.25195,-13.03516 -14.82501,-13.425 -30.69961,-18.52422 -45.84961,-17.07422 -45.475,4.325 -84.37462,67.275 -70.72461,140 l 10.25,56.09961 56,56 311.30273,0 c 14.39734,0 26,-11.60265 26,-26 l 0,-211.49609 L 320.09806,82.60177 C 303.65216,66.15586 280.8766,56.00021 255.74845,56.00021 Z"
     style="opacity:0.25;fill:#000000;fill-rule:evenodd" />
  <path
     d="m 255.74776,55.99981 c -50,0 -90.725,40.2 -90.725,90.25 0,50 40.7,90.725 90.725,90.725 50,0 90.725,-40.7 90.725,-90.725 0,-50 -40.7,-90.25 -90.725,-90.25 m -76.575,203.9 c -45.475,4.325 -84.37501,67.275 -70.725,140 l 10.25,56.1 137.075,0 137.075,0 10.725,-56.1 c 18.2,-96.975 -57.75,-176.5 -117.075,-122.925 -29.35,26.575 -32.1,26.575 -61.475,0 -14.82501,-13.425 -30.7,-18.525 -45.85,-17.075"
     id="path152"
     style="fill:#ffffff;fill-rule:evenodd" />
</svg>
