<?xml version="1.0" encoding="UTF-8" standalone="no"?>
<svg
   xmlns:dc="http://purl.org/dc/elements/1.1/"
   xmlns:cc="http://creativecommons.org/ns#"
   xmlns:rdf="http://www.w3.org/1999/02/22-rdf-syntax-ns#"
   xmlns:svg="http://www.w3.org/2000/svg"
   xmlns="http://www.w3.org/2000/svg"
   height="100%"
   width="100%"
   version="1.1"
   id="svg2"
   viewBox="0 0 512 512">
  <metadata
     id="metadata133">
    <rdf:RDF>
      <cc:Work
         rdf:about="">
        <dc:format>image/svg+xml</dc:format>
        <dc:type
           rdf:resource="http://purl.org/dc/dcmitype/StillImage" />
        <dc:title />
      </cc:Work>
    </rdf:RDF>
  </metadata>
  <defs
     id="defs4" />
  <path
     id="rect2986"
     d="m 25.99967,-3.6e-4 c -14.39735,0 -26,11.60265 -26,26 l 0,460 c 0,14.39735 11.60265,26 26,26 l 460,0 c 14.39735,0 26,-11.60265 26,-26 l 0,-460 c 0,-14.39735 -11.60265,-26 -26,-26 l -460,0 z"
     style="fill:#6788cc;fill-opacity:1;stroke:none" />
  <path
     id="path3179"
     d="m 78.8226,56.00037 c -2.32486,0 -4.25,1.70012 -4.25,3.75 l 0,19.27343 c 0,0.91708 0.38555,1.74298 1.01953,2.37696 l 29.20508,29.20508 0,318.7207 -23.84961,0 c -3.52478,0 -6.375,1.24932 -6.375,2.82422 l 0,21.14843 c 0,0.39124 0.18156,0.75773 0.50977,1.08594 l 57.61522,57.61524 353.30274,0 c 14.39735,0 26,-11.60265 26,-26 l 0,-353.12696 -75.64844,-75.64843 c -0.75091,-0.75091 -1.83477,-1.22461 -3.05078,-1.22461 l -354.42773,0 56.24609,56.24609 0,0.0508 L 78.8226,56.00038 Z"
     style="opacity:0.25;fill:#000000;stroke:none" />
  <path
     d="m 78.82325,55.99964 c -2.32486,0 -4.24974,1.69989 -4.24974,3.74976 l 0,19.2738 c 0,2.04987 1.92488,3.64977 4.24974,3.64977 l 25.97337,0 0,346.65334 -23.84851,0 c -3.52478,0 -6.3746,1.24992 -6.3746,2.82482 l 0,21.14868 c 0,1.5499 2.84982,2.69983 6.3746,2.69983 l 350.22811,0 c 3.52479,0 6.24961,-1.14993 6.24961,-2.69983 l 0,-21.14868 c 0,-1.54991 -2.74982,-2.82482 -6.24961,-2.82482 l -23.9735,0 0,-346.65334 26.09838,0 c 2.32485,0 4.12473,-1.5999 4.12473,-3.64977 l 0,-19.2738 c 0,-2.04987 -1.82488,-3.74976 -4.12473,-3.74976 l -354.42786,0 m 56.22148,26.67333 30.22312,0 0,17.39891 0,6.57459 c 0,1.54991 1.42491,2.69983 3.1998,2.69983 l 9.32442,0 c -6.94956,9.6744 -10.97431,21.99863 -10.97431,37.49766 0,35.07281 58.12136,63.14606 68.97068,98.84382 -8.87444,29.24818 -68.97068,64.47098 -68.97068,99.99375 0,28.42323 13.07418,46.79708 33.19791,56.97145 l -24.67345,0 c -7.37454,0 -13.22418,5.27467 -13.22418,11.77426 l 0,14.89907 -27.0483,0 0,-346.65334 m 211.63677,0 30.22311,0 0,346.65334 -29.99812,0 0,-14.89907 c 0,-6.49959 -5.97463,-11.77426 -13.34917,-11.77426 l -33.77289,0 c 20.12375,-10.17437 33.19793,-28.54822 33.19793,-56.97145 0,-35.52277 -59.32129,-67.82076 -69.09569,-99.99375 10.72434,-35.27279 69.09569,-63.79601 69.09569,-98.84382 0,-15.49903 -4.04975,-27.82326 -10.97431,-37.49766 l 21.62364,0 c 1.7499,0 3.07481,-1.14992 3.07481,-2.69983 l 0,-23.9485"
     id="path92"
     style="fill:#ffffff;stroke:none" />
</svg>
