<?xml version="1.0" encoding="UTF-8" standalone="no"?>
<svg
   xmlns:dc="http://purl.org/dc/elements/1.1/"
   xmlns:cc="http://creativecommons.org/ns#"
   xmlns:rdf="http://www.w3.org/1999/02/22-rdf-syntax-ns#"
   xmlns:svg="http://www.w3.org/2000/svg"
   xmlns="http://www.w3.org/2000/svg"
   height="100%"
   width="100%"
   version="1.1"
   id="svg2"
   viewBox="0 0 512 512">
  <metadata
     id="metadata133">
    <rdf:RDF>
      <cc:Work
         rdf:about="">
        <dc:format>image/svg+xml</dc:format>
        <dc:type
           rdf:resource="http://purl.org/dc/dcmitype/StillImage" />
        <dc:title />
      </cc:Work>
    </rdf:RDF>
  </metadata>
  <defs
     id="defs4" />
  <path
     id="rect2986"
     d="M 26,0 C 11.60265,0 0,11.60265 0,26 l 0,460 c 0,14.39735 11.60265,26 26,26 l 460,0 c 14.39735,0 26,-11.60265 26,-26 L 512,26 C 512,11.60265 500.39735,0 486,0 L 26,0 Z"
     style="fill:#cd1d31;fill-opacity:1;stroke:none" />
  <path
     id="path3417"
     d="m 71.94667,69.82406 c -0.53743,0.0196 -1.05618,0.073 -1.53907,0.17773 l 78.0293,78.02929 -0.0215,0 -78.0293,-78.02929 c -13.66045,2.88569 -23.83201,15.7069 -23.83201,30.76367 l 0,310.6543 c 0,8.6111 3.46703,16.33031 9.01953,21.88281 l 78.69727,78.69726 351.72851,0 c 14.39735,0 26,-11.60265 26,-26 l 0,-351.53515 -55.56836,-55.56836 c -5.52168,-5.52168 -13.09646,-8.89453 -21.33203,-8.89453 l -358.19727,0 c -1.55338,0 -3.34278,-0.23664 -4.95507,-0.17773 z"
     style="opacity:0.25;fill:#000000;fill-rule:evenodd" />
  <path
     style="fill:#ffffff;fill-rule:evenodd"
     id="path94"
     d="M 70.38516,70.00117 C 56.72469,72.88686 46.55497,85.70955 46.55497,100.76632 l 0,310.65353 c 0,17.15122 13.75356,30.76515 30.34626,30.76515 l 358.19755,0 c 16.42979,0 30.34625,-13.61393 30.34625,-30.76515 l 0,-310.65353 c 0,-17.22104 -13.84664,-30.76515 -30.34625,-30.76515 l -358.19755,0 c -2.07118,0 -4.56125,-0.41889 -6.4928,0 m 6.4928,78.02992 358.19755,0 0,263.36549 -358.19755,0 0,-263.36549" />
</svg>
