<?xml version="1.0" encoding="UTF-8" standalone="no"?>
<svg
   xmlns:dc="http://purl.org/dc/elements/1.1/"
   xmlns:cc="http://creativecommons.org/ns#"
   xmlns:rdf="http://www.w3.org/1999/02/22-rdf-syntax-ns#"
   xmlns:svg="http://www.w3.org/2000/svg"
   xmlns="http://www.w3.org/2000/svg"
   height="100%"
   width="100%"
   version="1.1"
   id="svg2"
   viewBox="0 0 512 512">
  <metadata
     id="metadata133">
    <rdf:RDF>
      <cc:Work
         rdf:about="">
        <dc:format>image/svg+xml</dc:format>
        <dc:type
           rdf:resource="http://purl.org/dc/dcmitype/StillImage" />
        <dc:title />
      </cc:Work>
    </rdf:RDF>
  </metadata>
  <defs
     id="defs4" />
  <path
     id="rect2986"
     d="m 25.99997,-2e-5 c -14.39735,0 -26.00001,11.60265 -26.00001,26 L -4e-5,486 c 0,14.39735 11.60266,26.00001 26.00001,26.00001 l 460.00001,0 c 14.39735,0 26.00001,-11.60266 26.00001,-26.00001 l 0,-460.00002 c 0,-14.39735 -11.60266,-26 -26.00001,-26 l -460.00001,0 z"
     style="fill:#0078ad;fill-opacity:1;stroke:none" />
  <path
     id="path3027"
     d="m 96.97856,85.00519 c -25.39377,0 -45.97852,20.58185 -45.97852,45.97656 0,12.68823 5.14086,24.17016 13.45313,32.48243 l 49.98437,49.98437 c -5.38488,-2.21296 -11.27665,-3.44141 -17.45898,-3.44141 -25.39377,0 -45.97852,20.58381 -45.97852,45.97852 0,12.69559 5.14603,24.19095 13.4668,32.51172 l 49.99414,49.99414 c -5.39125,-2.21909 -11.29106,-3.45117 -17.48242,-3.45117 -25.39377,0 -45.97852,20.58185 -45.97852,45.97656 0,12.69559 5.14603,24.19094 13.4668,32.51172 l 98.4707,98.4707 323.0625,0 c 14.39735,0 26,-11.60265 26,-26 l 0,-329.70117 -51,-51 -277.33984,0 0,47.3457 -54.17188,-54.17187 C 121.1677,90.15137 109.67438,85.00519 96.97856,85.00519 Z"
     style="opacity:0.25;fill:#000000;fill-rule:evenodd" />
  <path
     id="path3002"
     d="m 96.9777,85.00466 c -25.39377,0 -45.97773,20.58302 -45.97773,45.97773 0,25.39 20.58302,45.94827 45.97773,45.94827 25.38999,0 45.97773,-20.55733 45.97773,-45.94827 0,-25.39377 -20.5868,-45.97773 -45.97773,-45.97773 z m 86.68319,20.29382 0,51.36781 277.33909,0 0,-51.36781 -277.33909,0 z M 96.9777,210.00752 c -25.39377,0 -45.97773,20.58303 -45.97773,45.97774 0,25.39 20.58302,45.97774 45.97773,45.97774 25.38999,0 45.97773,-20.58679 45.97773,-45.97774 0,-25.39378 -20.5868,-45.97774 -45.97773,-45.97774 z m 86.68319,20.29383 0,51.39728 277.33909,0 0,-51.39728 -277.33909,0 z M 96.9777,335.03986 c -25.39377,0 -45.97773,20.58303 -45.97773,45.97774 0,25.39 20.58302,45.97772 45.97773,45.97772 25.38999,0 45.97773,-20.58679 45.97773,-45.97772 0,-25.39378 -20.5868,-45.97774 -45.97773,-45.97774 z m 86.68319,20.29383 0,51.39726 277.33909,0 0,-51.39726 -277.33909,0 z"
     style="fill:#ffffff;fill-rule:evenodd" />
</svg>
