<?xml version="1.0" encoding="UTF-8" standalone="no"?>
<svg
   xmlns:dc="http://purl.org/dc/elements/1.1/"
   xmlns:cc="http://creativecommons.org/ns#"
   xmlns:rdf="http://www.w3.org/1999/02/22-rdf-syntax-ns#"
   xmlns:svg="http://www.w3.org/2000/svg"
   xmlns="http://www.w3.org/2000/svg"
   height="100%"
   width="100%"
   version="1.1"
   id="svg2"
   viewBox="0 0 512 512">
  <metadata
     id="metadata100">
    <rdf:RDF>
      <cc:Work
         rdf:about="">
        <dc:format>image/svg+xml</dc:format>
        <dc:type
           rdf:resource="http://purl.org/dc/dcmitype/StillImage" />
        <dc:title />
      </cc:Work>
    </rdf:RDF>
  </metadata>
  <defs
     id="defs98" />
  <path
     id="rect2986"
     d="m 25.99993,-2.8e-4 c -14.39736,0 -26,11.60264 -26,25.99999 l 0,460.00001 c 0,14.39734 11.60264,26 26,26 l 460,0 c 14.39735,0 26,-11.60266 26,-26 l 0,-460.00001 c 0,-14.39735 -11.60265,-25.99999 -26,-25.99999 l -460,0 z"
     style="fill:#79c843;fill-opacity:1;stroke:none" />
  <path
     id="path3353"
     d="m 161.64065,50.96706 c -3.56213,-0.0513 -7.17113,1.19591 -10.2207,3.88672 -5.56116,4.86907 -5.52082,4.71993 -5.80273,32.57617 -0.0413,4.33633 -0.0536,8.17837 -0.0449,11.65039 l -16.18554,-16.18554 -18.85156,0 -0.11719,-0.11719 c -14.60742,0 -20.15998,0.34673 -23.79883,1.29492 -15.47861,4.02339 -28.13232,15.91262 -33.48828,31.54493 l -1.79688,5.18555 -0.23633,148.03711 c -0.23045,165.01044 -0.55104,154.02895 5.41992,166.15039 2.12022,4.2943 5.02066,8.25698 8.48243,11.71875 l 65.29102,65.29102 355.70898,0 c 14.39735,0 26,-11.60266 26,-26 l 0,-324.5254 -64.95703,-64.95704 C 441.08925,90.56406 433.67198,86.20684 425.461,84.07253 421.822,83.12434 416.2401,82.8362 401.63287,82.8362 l -12.83594,0 -26.11526,-26.11523 c -0.5744,-0.5744 -1.24263,-1.15766 -2.01953,-1.83789 -3.04959,-2.69081 -6.65859,-3.93798 -10.2207,-3.88672 -4.56156,0.0513 -9.03596,2.29604 -12.3418,6.62695 l -2.32617,3.00391 0,29.39453 0,9.36719 -16.46485,-16.46485 -63.32617,0 -56.39648,0 -27.22071,-27.2207 c -3.07408,-3.07409 -6.86421,-4.66398 -10.69531,-4.70703 l -0.0293,-0.0293 z"
     style="opacity:0.25;fill:#000000" />
  <path
     id="path3251"
     d="m 161.63988,50.96611 c -3.56213,-0.0513 -7.17105,1.19715 -10.22062,3.88796 -5.56116,4.86907 -5.52058,4.72016 -5.80249,32.5764 -0.15373,16.14485 0.0292,26.57907 0.61854,29.21863 1.10192,5.15096 4.11087,9.10537 8.365,11.10424 7.50862,3.51088 16.98168,0.34593 20.44125,-6.80392 1.69139,-3.48525 1.76245,-4.25156 1.53163,-31.92842 l -0.26509,-28.3939 -2.26798,-3.00433 c -3.30585,-4.33092 -7.80929,-6.57596 -12.37079,-6.62721 l -0.0294,-0.0294 z m 188.80175,0.0294 c -4.56156,0.0513 -9.03549,2.29629 -12.34133,6.6272 l -2.32689,3.00434 0,29.39534 0,29.33645 2.12071,3.23996 c 1.25571,1.89637 3.60125,3.8938 5.62576,4.91886 6.58607,3.25459 15.17812,1.50014 19.3809,-4.03523 3.43398,-4.5103 3.84586,-8.78135 3.56396,-36.02256 -0.28189,-27.85625 -0.24148,-27.70733 -5.80248,-32.5764 -3.04959,-2.69081 -6.65852,-3.93922 -10.22063,-3.88796 z M 110.41894,82.77665 c -14.60742,0 -20.16018,0.34779 -23.79903,1.29598 -15.47861,4.02339 -28.13353,15.9132 -33.48949,31.54551 l -1.79671,5.18395 -0.23563,148.03707 c -0.23045,165.01044 -0.55139,154.02999 5.41958,166.15143 6.04797,12.24956 18.446,21.79451 32.10514,24.74158 7.99534,1.71699 326.21919,1.74664 334.39411,0.0294 14.01781,-2.92144 26.39271,-12.33824 32.51749,-24.74158 5.97103,-12.12144 5.5913,-1.14098 5.36067,-166.15143 l -0.17672,-148.03706 -1.76726,-5.18394 c -5.35598,-15.63229 -18.01095,-27.55159 -33.48948,-31.57498 -3.639,-0.94819 -9.22126,-1.23707 -23.82849,-1.23707 l -19.08636,0 0,15.40456 c 0,8.48245 -0.33015,17.47008 -0.76581,20.05836 -2.02451,12.40335 -10.45999,22.27693 -22.12014,25.89029 -5.20222,1.58886 -13.48475,1.52229 -18.37945,-0.11782 -9.81503,-3.28021 -17.34542,-10.78114 -20.67689,-20.64743 -1.07632,-3.22896 -1.29598,-7.23867 -1.29598,-22.17905 l 0,-18.32055 -63.32664,0 -63.26773,0 0,18.32055 c 0,14.94038 -0.28234,18.95009 -1.38435,22.17905 -7.79054,23.08968 -36.74468,29.67033 -53.01766,11.98789 -4.12585,-4.48469 -7.10436,-10.66532 -8.12937,-16.99511 -0.4101,-2.56266 -0.76982,-11.63482 -0.79526,-20.11727 l 0,-15.40457 -19.02745,0 0.0589,-0.11781 z m -28.24662,109.8349 173.80953,0 173.83899,0 0,111.1898 c 0,78.95593 -0.24296,112.06064 -0.88363,114.34141 -1.1532,4.17715 -6.51473,9.59759 -10.69189,10.7508 -2.30641,0.64067 -48.24873,0.90926 -162.64638,0.88364 -135.36033,-0.0256 -159.90053,-0.23382 -162.61691,-1.20763 -4.04914,-1.4351 -8.85744,-6.49177 -9.985,-10.51517 -0.58946,-2.15265 -0.82471,-37.34726 -0.82471,-114.25305 l 0,-111.1898 z m 116.93337,61.67721 0,113.81122 113.78177,0 0,-113.81122 -113.78177,0 z"
     style="fill:#ffffff" />
</svg>
