<?xml version="1.0" encoding="UTF-8" standalone="no"?>
<svg
   xmlns:dc="http://purl.org/dc/elements/1.1/"
   xmlns:cc="http://creativecommons.org/ns#"
   xmlns:rdf="http://www.w3.org/1999/02/22-rdf-syntax-ns#"
   xmlns:svg="http://www.w3.org/2000/svg"
   xmlns="http://www.w3.org/2000/svg"
   height="100%"
   width="100%"
   version="1.1"
   id="svg2"
   viewBox="0 0 512 512">
  <metadata
     id="metadata133">
    <rdf:RDF>
      <cc:Work
         rdf:about="">
        <dc:format>image/svg+xml</dc:format>
        <dc:type
           rdf:resource="http://purl.org/dc/dcmitype/StillImage" />
        <dc:title />
      </cc:Work>
    </rdf:RDF>
  </metadata>
  <defs
     id="defs4" />
  <path
     id="rect2986"
     d="m 25.99999,-1.4e-4 c -14.39735,0 -26,11.60265 -26,26.00001 l 0,460.00001 c 0,14.39735 11.60265,26 26,26 l 460.00002,0 c 14.39735,0 26.00001,-11.60265 26.00001,-26 l 0,-460.00001 c 0,-14.39736 -11.60266,-26.00001 -26.00001,-26.00001 l -460.00002,0 z"
     style="fill:#0078ad;fill-opacity:1;stroke:none" />
  <path
     id="path3011"
     d="m 106.92125,75.85757 c -30.87955,0 -55.92188,25.01907 -55.92188,55.88866 0,15.43924 6.26253,29.41878 16.38281,39.53906 l 59.85743,59.85742 -45.17578,0 0,49.68164 48.95898,48.95899 c -7.29776,-3.49233 -15.46974,-5.44922 -24.10156,-5.44922 -30.87955,0 -55.92188,25.01146 -55.92188,55.88672 0,15.43764 6.26191,29.41816 16.38281,39.53906 l 92.24024,92.24024 326.37695,0 c 14.39735,0 26,-11.60265 26,-26 l 0,-326.39454 -67.36523,-67.36522 C 434.51195,82.11819 420.52542,75.85757 405.07945,75.85757 c -30.87528,0 -55.88867,25.01907 -55.88867,55.88866 0,5.79909 0.88375,11.39026 2.52148,16.65039 L 295.55601,92.24038 c -10.12218,-10.1222 -24.11065,-16.38281 -39.55664,-16.38281 -30.87953,0 -55.91992,25.01907 -55.91992,55.88866 0,5.78971 0.87941,11.37426 2.51367,16.62695 L 146.44273,92.22475 C 136.32935,82.11137 122.35675,75.85757 106.92125,75.85757 Z"
     style="opacity:0.25;fill:#000000" />
  <path
     style="fill:#ffffff"
     id="path8"
     d="m 106.92122,75.85745 c -30.87955,0 -55.92123,25.01828 -55.92123,55.88786 0,30.87954 25.04595,55.92122 55.92123,55.92122 30.87527,0 55.88786,-25.04594 55.88786,-55.92122 0,-30.87528 -25.01828,-55.88786 -55.88786,-55.88786 z m 149.07878,0 c -30.87953,0 -55.92123,25.01828 -55.92123,55.88786 0,30.87954 25.04595,55.92122 55.92123,55.92122 30.87955,0 55.92123,-25.04594 55.92123,-55.92122 0,-30.87528 -25.04595,-55.88786 -55.92123,-55.88786 z m 149.0788,0 c -30.87528,0 -55.88787,25.01828 -55.88787,55.88786 0,30.87954 25.01828,55.92122 55.88787,55.92122 30.87955,0 55.92121,-25.04594 55.92121,-55.92122 0,-30.87528 -25.04594,-55.88786 -55.92121,-55.88786 z m -323.01517,155.28483 0,49.68182 347.87274,0 0,-49.68182 -347.87274,0 z m 24.85759,93.19093 c -30.87955,0 -55.92123,25.01259 -55.92123,55.88785 0,30.87529 25.04595,55.92123 55.92123,55.92123 30.87527,0 55.88786,-25.05164 55.88786,-55.92123 0,-30.87954 -25.01828,-55.88785 -55.88786,-55.88785 z m 149.07878,0 c -30.87953,0 -55.88785,25.01259 -55.88785,55.88785 0,30.87529 25.01257,55.92123 55.88785,55.92123 30.87955,0 55.92123,-25.05164 55.92123,-55.92123 0,-30.87954 -25.04595,-55.88785 -55.92123,-55.88785 z m 149.11216,0 c -30.87527,0 -55.92123,25.01259 -55.92123,55.88785 0,30.87529 25.05164,55.92123 55.92123,55.92123 30.87955,0 55.88785,-25.05164 55.88785,-55.92123 0,-30.87954 -25.01258,-55.88785 -55.88785,-55.88785 z" />
</svg>
