<?xml version="1.0" encoding="UTF-8" standalone="no"?>
<svg
   xmlns:dc="http://purl.org/dc/elements/1.1/"
   xmlns:cc="http://creativecommons.org/ns#"
   xmlns:rdf="http://www.w3.org/1999/02/22-rdf-syntax-ns#"
   xmlns:svg="http://www.w3.org/2000/svg"
   xmlns="http://www.w3.org/2000/svg"
   height="100%"
   width="100%"
   version="1.1"
   id="svg2"
   viewBox="0 0 512 512">
  <metadata
     id="metadata133">
    <rdf:RDF>
      <cc:Work
         rdf:about="">
        <dc:format>image/svg+xml</dc:format>
        <dc:type
           rdf:resource="http://purl.org/dc/dcmitype/StillImage" />
        <dc:title />
      </cc:Work>
    </rdf:RDF>
  </metadata>
  <defs
     id="defs4" />
  <path
     style="fill:#68af4c"
     id="path9"
     d="m 26,-2e-5 c -14.397,0 -26,11.60301 -26,26 l 0,460 c 0,14.397 11.603,26 26,26 l 460,0 c 14.397,0 26,-11.603 26,-26 l 0,-460 c 0,-14.39699 -11.603,-26 -26,-26 l -460,0" />
  <path
     id="path229"
     d="m 62.37615,56.9354 0.002,0.002 c -0.41295,0.015 -0.80297,0.0447 -1.21289,0.125 l -0.004,0 0.0449,0.0449 C 49.65064,59.48021 40.99908,70.17623 40.99908,82.46468 l 55.41211,55.41211 c -8.2e-4,9.9e-4 -0.001,0.003 -0.002,0.004 l -55.41016,-55.41016 0,253.58983 c 0,7.01 2.83274,13.36204 7.42774,17.95704 l 0.004,0.002 67.12891,67.12891 0,0.002 0,8.82031 c 0,6.855 2.79102,13.00876 7.29102,17.50977 l 64.51953,64.51953 298.62891,0 c 14.39699,0 25.99999,-11.60301 26,-26 l 0,-298.13087 L 388.61052,64.48032 c -4.58371,-4.58371 -10.9154,-7.41248 -17.91405,-7.41406 l -0.006,-0.006 -304.47071,0 c -1.322,0 -2.59675,-0.171 -3.84375,-0.125 z"
     style="opacity:0.25;fill:#000000;fill-rule:evenodd" />
  <path
     style="fill:#ffffff;fill-rule:evenodd"
     id="path293"
     d="m 62.38,56.93798 c -0.415,0.015 -0.807,0.044 -1.219,0.125 l 0.125,0.031 c -11.593,2.342 -20.281,13.06 -20.281,25.375 l 0,253.58999 c 0,14 11.299,25.375 25.375,25.375 l 25.375,0 0,-208.69 c 0,-12.28899 8.688,-23.00999 20.281,-25.37499 1.647,-0.32399 3.3,0 5.063,0 l 278.93999,0 0,-44.938 c 0,-14.04999 -11.338,-25.375 -25.34399,-25.375 l -304.47,0 c -1.322,0 -2.597,-0.171 -3.844,-0.125 m 74.69,94.06 c -0.457,0.015 -0.87,0.044 -1.281,0.125 -11.593,2.34201 -20.22,12.836 -20.22,25.12999 l 0,253.72002 c 0,14 11.646,25.08999 25.719,25.08999 l 303.97,0 c 13.93499,0 25.75,-11.11001 25.75,-25.08999 l 0,-253.72 c 0,-14.05 -11.77101,-25.12 -25.75,-25.12 l -303.97,0 c -1.322,0 -2.848,-0.17101 -4.219,-0.125 m 4.219,63.87498 303.97,0 0,215.09002 -303.97,0 0,-215.09002" />
</svg>
