<?xml version="1.0" encoding="UTF-8" standalone="no"?>
<svg
   xmlns:dc="http://purl.org/dc/elements/1.1/"
   xmlns:cc="http://creativecommons.org/ns#"
   xmlns:rdf="http://www.w3.org/1999/02/22-rdf-syntax-ns#"
   xmlns:svg="http://www.w3.org/2000/svg"
   xmlns="http://www.w3.org/2000/svg"
   height="100%"
   width="100%"
   version="1.1"
   id="svg2"
   viewBox="0 0 512 512">
  <metadata
     id="metadata133">
    <rdf:RDF>
      <cc:Work
         rdf:about="">
        <dc:format>image/svg+xml</dc:format>
        <dc:type
           rdf:resource="http://purl.org/dc/dcmitype/StillImage" />
        <dc:title />
      </cc:Work>
    </rdf:RDF>
  </metadata>
  <defs
     id="defs4" />
  <path
     style="fill:#6788cc;fill-opacity:1;stroke:none"
     d="m 25.99999,-2e-5 c -14.39735,0 -26,11.60265 -26,26 l 0,460.00003 c 0,14.39735 11.60265,26 26,26 l 460.00002,0 c 14.39735,0 26,-11.60265 26,-26 l 0,-460.00003 c 0,-14.39735 -11.60265,-26 -26,-26 l -460.00002,0 z"
     id="rect2986" />
  <path
     id="path4221"
     d="m 282.269,35.99913 c -106.48541,-3e-5 -192.33593,86.5947 -192.33594,193.08008 1e-5,9.20019 0.15998,17.92097 1.4043,26.77735 0.0793,0.1284 -0.11246,0.52973 -0.0293,0.6582 6.0516,46.80067 21.28588,92.24984 -4.7832,125.00781 l -40.4375,40.46485 -1.17383,1.17578 c -10.40962,11.62567 -10.00099,29.40527 1.17383,40.58008 l 3.58008,3.58008 44.67578,44.67578 391.65625,0 c 14.39735,0 26,-11.60265 26,-26 l 0,-299.25391 -93.70898,-93.70899 C 383.41412,58.15987 335.54389,36.07398 282.3276,36.05773 l -0.0586,-0.0586 z"
     style="opacity:0.25;fill:#000000" />
  <path
     id="path9287"
     d="m 282.26877,35.99999 c -106.48541,-4e-5 -192.3355,86.59472 -192.33551,193.0801 10e-6,9.20019 0.15896,17.92053 1.40328,26.77691 0.0793,0.1284 -0.11176,0.53021 -0.0286,0.65868 6.0516,46.80067 21.28647,92.24866 -4.78261,125.00663 l -40.43742,40.46606 -1.17418,1.17417 c -10.40963,11.62567 -10.00064,29.4058 1.17418,40.58061 l 3.5798,3.5798 c 11.17482,11.17482 28.9263,11.55518 40.55198,1.14554 l 0.0286,0.0287 1.17417,-1.17417 40.43742,-40.43741 c 34.09298,-26.12325 79.16997,-9.87762 129.13056,-5.49858 6.94705,0.76196 14.12977,0.0287 21.27833,0.0287 3.60575,0 6.75192,0.15771 10.30983,-0.0287 101.49801,-5.57424 182.02568,-90.1108 182.02568,-192.99419 0,-53.24889 -21.40787,-100.4587 -56.3031,-135.34509 C 383.41107,58.15239 335.51398,36.05726 282.26877,36.05726 l 0,-0.0573 z m 0,51.54912 c 39.13071,0 74.67819,15.56978 100.32033,41.21066 25.64088,25.63584 41.18201,61.18961 41.18201,100.32032 0,78.2488 -63.25354,141.50234 -141.50234,141.50234 -78.2488,0 -141.50235,-63.94214 -141.50235,-142.18966 0,-78.2488 63.25355,-140.84366 141.50235,-140.84366 z"
     style="fill:#ffffff" />
</svg>
