<?xml version="1.0" encoding="UTF-8" standalone="no"?>
<svg
   xmlns:dc="http://purl.org/dc/elements/1.1/"
   xmlns:cc="http://creativecommons.org/ns#"
   xmlns:rdf="http://www.w3.org/1999/02/22-rdf-syntax-ns#"
   xmlns:svg="http://www.w3.org/2000/svg"
   xmlns="http://www.w3.org/2000/svg"
   xmlns:sodipodi="http://sodipodi.sourceforge.net/DTD/sodipodi-0.dtd"
   xmlns:inkscape="http://www.inkscape.org/namespaces/inkscape"
   version="1.1"
   width="512"
   height="512"
   viewBox="0 0 512 512"
   id="svg2"
   inkscape:version="0.91 r"
   sodipodi:docname="applications-drawing.svg">
  <defs
     id="defs43" />
  <sodipodi:namedview
     pagecolor="#ffffff"
     bordercolor="#666666"
     borderopacity="1"
     objecttolerance="10"
     gridtolerance="10"
     guidetolerance="10"
     inkscape:pageopacity="0"
     inkscape:pageshadow="2"
     inkscape:window-width="733"
     inkscape:window-height="480"
     id="namedview41"
     showgrid="false"
     inkscape:zoom="0.4609375"
     inkscape:cx="256"
     inkscape:cy="256"
     inkscape:window-x="0"
     inkscape:window-y="0"
     inkscape:window-maximized="0"
     inkscape:current-layer="svg2" />
  <metadata
     id="metadata80">
    <rdf:RDF>
      <cc:Work
         rdf:about="">
        <dc:format>image/svg+xml</dc:format>
        <dc:type
           rdf:resource="http://purl.org/dc/dcmitype/StillImage" />
      </cc:Work>
    </rdf:RDF>
  </metadata>
  <path
     d="m 471.95,253.05 c 0,120.9 -98.01,218.9 -218.9,218.9 -120.9,0 -218.9,-98.01 -218.9,-218.9 0,-120.9 98.01,-218.9 218.9,-218.9 120.9,0 218.9,98.01 218.9,218.9"
     inkscape:connector-curvature="0"
     id="path4"
     fill="#aa53ad"
     fill-rule="evenodd" />
  <text
     x="729.64"
     y="231.36"
     id="text20"
     font-family="Gentium Book Basic"
     word-spacing="0"
     line-height="125%"
     letter-spacing="0"
     font-size="129.23">
    <tspan
       x="729.64"
       y="231.36"
       id="tspan22" />
  </text>
  <text
     x="378.91"
     y="579.25"
     transform="scale(4.0128,0.2492)"
     id="text24"
     font-family="Arial"
     text-anchor="middle"
     font-size="46.954" />
  <text
     x="1310.91"
     y="151.36"
     id="text26"
     font-family="Gentium Book Basic"
     word-spacing="0"
     line-height="125%"
     letter-spacing="0"
     font-size="129.23">
    <tspan
       x="1310.91"
       y="151.36"
       id="tspan28" />
  </text>
  <text
     x="523.76"
     y="258.22"
     transform="scale(4.0128,0.2492)"
     id="text30"
     font-family="Arial"
     text-anchor="middle"
     font-size="46.954" />
  <text
     x="239.33"
     y="-29.901"
     id="text32"
     font-family="Gentium Book Basic"
     word-spacing="0"
     line-height="125%"
     letter-spacing="0"
     font-size="129.23">
    <tspan
       x="239.33"
       y="-29.901"
       id="tspan34" />
  </text>
  <text
     x="256.72"
     y="-469.14"
     transform="scale(4.0128,0.2492)"
     id="text36"
     font-family="Arial"
     text-anchor="middle"
     font-size="46.954" />
  <text
     x="1337.38"
     y="-246.37"
     id="text38"
     font-family="Gentium Book Basic"
     word-spacing="0"
     line-height="125%"
     letter-spacing="0"
     font-size="129.23">
    <tspan
       x="1337.38"
       y="-246.37"
       id="tspan40" />
  </text>
  <text
     x="530.36"
     y="-1337.81"
     transform="scale(4.0128,0.2492)"
     id="text42"
     font-family="Arial"
     text-anchor="middle"
     font-size="46.954" />
  <text
     x="1918.65"
     y="-326.38"
     id="text44"
     font-family="Gentium Book Basic"
     word-spacing="0"
     line-height="125%"
     letter-spacing="0"
     font-size="129.23">
    <tspan
       x="1918.65"
       y="-326.38"
       id="tspan46" />
  </text>
  <text
     x="675.21"
     y="-1658.85"
     transform="scale(4.0128,0.2492)"
     id="text48"
     font-family="Arial"
     text-anchor="middle"
     font-size="46.954" />
  <text
     x="1529.53"
     y="-798.78"
     id="text50"
     font-family="Gentium Book Basic"
     word-spacing="0"
     line-height="125%"
     letter-spacing="0"
     font-size="129.23">
    <tspan
       x="1529.53"
       y="-798.78"
       id="tspan52" />
  </text>
  <text
     x="578.24"
     y="-3554.51"
     transform="scale(4.0128,0.2492)"
     id="text54"
     font-family="Arial"
     text-anchor="middle"
     font-size="46.954" />
  <text
     x="2110.79"
     y="-878.78"
     id="text56"
     font-family="Gentium Book Basic"
     word-spacing="0"
     line-height="125%"
     letter-spacing="0"
     font-size="129.23">
    <tspan
       x="2110.79"
       y="-878.78"
       id="tspan58" />
  </text>
  <text
     x="723.09"
     y="-3875.54"
     transform="scale(4.0128,0.2492)"
     id="text60"
     font-family="Arial"
     text-anchor="middle"
     font-size="46.954" />
  <text
     x="277.99"
     y="535.94"
     id="text62"
     font-family="Gentium Book Basic"
     word-spacing="0"
     line-height="125%"
     letter-spacing="0"
     font-size="208.33">
    <tspan
       x="277.99"
       y="535.94"
       id="tspan64" />
  </text>
  <path
     style="fill:#ffffff"
     id="path68"
     inkscape:connector-curvature="0"
     d="m 339.46269,265.7367 c -2.16072,2.91896 -4.70341,5.41604 -7.44564,7.42853 -6.30542,8.43763 -15.31316,12.81037 -23.3004,10.18787 -11.03733,-3.6145 -15.87756,-19.05878 -10.82069,-34.49166 1.59061,-4.85164 4.02498,-9.03054 6.87553,-12.49681 l 18.67681,-43.86996 7.70218,-18.0896 c -23.15217,-23.51703 -59.14891,-37.78689 -107.98453,-29.99348 -107.12367,17.0919 -140.167249,148.14878 -70.65374,209.68646 65.05526,57.58111 99.17634,18.36324 123.8336,-25.20457 2.78783,-4.93145 9.40111,-7.81621 15.0338,-7.21759 17.93566,1.90417 54.66785,-0.10832 67.3984,-45.0729 3.56319,-12.59943 4.36704,-26.4417 2.48568,-40.30677 l -21.801,29.45188 m -160.1439,-56.38958 c 12.27446,0 22.22288,9.94842 22.22288,22.21719 0,12.27446 -9.94842,22.22288 -22.22288,22.22288 -12.27447,0 -22.22289,-9.94842 -22.22289,-22.22288 0,-12.26877 9.94842,-22.21719 22.22289,-22.21719 m -12.82178,101.70762 c -12.26877,0 -22.22289,-9.94842 -22.22289,-22.21718 0,-12.26877 9.94842,-22.22289 22.22289,-22.22289 12.27447,0 22.22289,9.94842 22.22289,22.22289 0,12.26876 -9.94842,22.21718 -22.22289,22.21718 m 43.59061,44.44578 c -12.27447,0 -22.22289,-9.94842 -22.22289,-22.21719 0,-12.27447 9.94842,-22.22289 22.22289,-22.22289 12.27447,0 22.22289,9.94842 22.22289,22.22289 0,12.26877 -9.94842,22.21719 -22.22289,22.21719 m 17.94707,-140.16725 c -12.27447,0 -22.22289,-9.94842 -22.22289,-22.22288 0,-12.26877 9.94842,-22.21719 22.22289,-22.21719 12.26876,0 22.22288,9.94842 22.22288,22.21719 0,12.27446 -9.94842,22.22288 -22.22288,22.22288" />
  <path
     style="fill:#ffffff"
     id="path70"
     inkscape:connector-curvature="0"
     d="m 372.92814,133.12911 c -14.38387,0.92928 -25.17606,14.85707 -25.17606,14.85707 l 0.11973,0.0627 c -0.60432,0.59291 -1.19723,1.22574 -1.75594,1.89276 -9.78879,11.67016 -8.2666,29.05851 3.40356,38.8473 11.67015,9.78879 29.0585,8.2666 38.84729,-3.40356 3.54609,-4.22451 5.58708,-9.21297 6.2199,-14.31546 l 0.0114,0.006 c 5.29633,-25.06773 -5.58137,-41.9886 -5.58137,-41.9886 0,0 -1.69893,3.1128 -16.08851,4.04208" />
  <path
     style="fill:#ffffff"
     id="path72"
     inkscape:connector-curvature="0"
     d="m 309.36088,273.46739 c 5.42174,3.15271 14.42948,-0.5245 20.12488,-8.21529 l 26.52152,-35.82571 c -12.35429,-2.83915 -23.42582,-10.49572 -30.5522,-16.47618 -0.66133,-0.55871 -1.28845,-1.09461 -1.88136,-1.61911 l -17.21732,40.48921 c -3.74563,8.7968 -2.39446,18.49437 3.02158,21.64708" />
  <path
     style="fill:#ffffff"
     id="path74"
     inkscape:connector-curvature="0"
     d="m 346.86271,191.90745 c -4.37274,-3.67151 -7.49124,-8.278 -9.3498,-13.28356 l -7.91883,18.60269 c 6.98955,6.96104 22.33121,19.07018 36.2989,18.87064 l 14.4637,-19.53197 c -10.79789,4.78892 -23.85341,3.43206 -33.49397,-4.6578" />
</svg>
