<?xml version="1.0" encoding="UTF-8" standalone="no"?>
<svg xmlns:dc="http://purl.org/dc/elements/1.1/" xmlns:cc="http://creativecommons.org/ns#" xmlns:rdf="http://www.w3.org/1999/02/22-rdf-syntax-ns#" xmlns:svg="http://www.w3.org/2000/svg" xmlns="http://www.w3.org/2000/svg" xmlns:sodipodi="http://sodipodi.sourceforge.net/DTD/sodipodi-0.dtd" xmlns:inkscape="http://www.inkscape.org/namespaces/inkscape" viewBox="0 0 512 512" version="1.1" id="svg2" inkscape:version="0.91 r" sodipodi:docname="applications-sports.svg">
<defs id="defs14" />
<sodipodi:namedview pagecolor="#ffffff" bordercolor="#666666" borderopacity="1" objecttolerance="10" gridtolerance="10" guidetolerance="10" inkscape:pageopacity="0" inkscape:pageshadow="2" inkscape:window-width="640" inkscape:window-height="480" id="namedview12" showgrid="false" inkscape:zoom="0.4609375" inkscape:cx="256" inkscape:cy="256" inkscape:window-x="0" inkscape:window-y="0" inkscape:window-maximized="0" inkscape:current-layer="svg2" />
<metadata id="metadata998">
<rdf:RDF>
<cc:Work rdf:about="">
<dc:format>image/svg+xml</dc:format>
<dc:type rdf:resource="http://purl.org/dc/dcmitype/StillImage" />
</cc:Work>
</rdf:RDF>
</metadata>
<path inkscape:connector-curvature="0" d="m 471.95,253.05 c 0,120.9 -98.01,218.9 -218.9,218.9 -120.9,0 -218.9,-98.01 -218.9,-218.9 0,-120.9 98.01,-218.9 218.9,-218.9 120.9,0 218.9,98.01 218.9,218.9" id="path930" fill="#377e9f" fill-rule="evenodd" />
<path inkscape:connector-curvature="0" d="m 243.82,408.71 c -64.57,-4.391 -121.29,-55.29 -137.3,-116.93 -14.763,-63.842 14.561,-135.81 71.794,-169.16 36.78,-21.936 82.966,-24.718 123.7,-13.268 50.29,15.454 88.62,60.22 102.04,110.1 12.1,46.02 3.383,98.25 -28.72,134.52 -29.08,36.19 -75.55,57.03 -122.05,55.18 -3.15,-0.033 -6.331,-0.201 -9.482,-0.444 z m 38.477,-7.22 c 11.612,-1 9.566,-4.55 -0.965,-5.479 -18.84,-3.631 -39.17,-3.715 -57.35,2.66 16.01,7.705 37.27,5.689 55.18,3.388 z m -57.04,-10.197 c 8.272,-8.435 -0.361,-28.554 -7.583,-36.546 -16.17,-8.263 -28.677,-21.703 -43.476,-31.871 -11.136,-4.074 -21.985,3.631 -32.718,6.26 -0.041,10.612 -0.763,22.622 8.59,30 15.41,15.169 33.998,28.523 54.977,34.571 6.734,0.285 13.798,-0.117 20.2,-2.417 z m 88.53,0.444 c 26.831,-11.538 51.961,-30.09 67.08,-55.34 5.451,-7.252 9.443,-20.01 -4.761,-15.771 -17.859,11.221 -33.998,25.09 -52.27,35.7 -11.08,8.793 -19.07,20.848 -26.986,32.385 2.746,6.375 11.699,4.846 16.937,3.03 z m 18.199,-46.38 c 13.469,-11.05 32.946,-18.16 40.05,-34.887 3.192,-13.195 3.436,-26.822 4.761,-40.26 -13.426,-11.896 -29.886,-19.962 -46.01,-27.583 -15.94,1.246 -28.804,15.401 -41.43,24.566 -6.703,3.663 -4.964,12.01 -6.819,18.389 -2.418,14.926 -5.239,29.767 -6.893,44.809 12.536,9.236 26.535,17.745 41.785,21.334 5.526,0.041 10.09,-3.663 14.561,-6.365 z m -96.12,2.291 c 12.218,-4.634 28.353,-8.139 34.08,-21.05 4.285,-18.07 6.617,-36.593 8.876,-55.01 -12.143,-11.538 -25.09,-23.677 -40.975,-29.641 -13.713,-0.243 -25.326,9.432 -37.516,14.715 -16.42,4.476 -22.14,19.36 -22.833,34.772 -4.836,15.24 0.688,30.897 14.53,39.29 12.1,8.867 27.627,23.06 43.843,16.931 z m -102.13,-21.334 c -9.884,-18.272 -16.703,-38.28 -19.439,-58.88 -9.8,1.974 -0.891,25.969 1.814,35.731 4.602,13.226 11.656,25.408 18.994,37.27 1.336,-4.888 2.142,-9.721 -1.369,-14.12 z m -4.232,-81.35 c 4.316,-6.165 11.167,-11.01 13.787,-18.07 4.56,-21.292 12.03,-41.865 22.716,-60.937 -0.445,-12.297 -14.243,-19.803 -21.11,-6.207 -19.514,25.08 -34.839,55.693 -35.528,88 -2.588,11.09 7.095,19.12 12.663,6.01 2.46,-2.903 4.964,-5.844 7.466,-8.793 z m 251.65,15.287 c 8.263,-10.841 19.726,-23.709 16.778,-38.434 -5.208,-27.868 -19.525,-54.33 -41.542,-72.47 -6.575,-2.786 -18.517,-12.949 -23.08,-3.346 -6.734,12.938 -23.515,25.16 -17.468,41.26 5.165,15.897 8.962,32.471 16.502,47.44 13.915,10.809 29.971,19.243 46.14,26.337 z m -184.77,-7.22 c 12.833,-6.492 25.295,-13.627 37.796,-20.648 4.189,-14.726 9.513,-29.08 14.434,-43.523 0.688,-15.643 -13.309,-26.854 -22.622,-37.833 -9.195,-14.684 -24.718,-3.43 -36.06,1.942 -24.933,13.311 -30.655,42.551 -39.17,66.991 1.21,9.163 9.598,16.784 15.727,23.608 8.431,8.508 17.955,19.803 29.886,9.469 z m 91.97,-79.01 c 6.65,-0.929 14.07,-0.243 20.2,-2.132 9.238,-9.88 17.34,-21.46 21.18,-34.487 -4.646,-13.11 -19.973,-19.09 -32.32,-23.561 -15.685,-4.634 -32.506,-6.935 -48.807,-5.077 -11.734,5.964 -32.829,23.35 -20.925,36.861 8.707,10.365 17.987,20.21 27.468,29.926 11.08,0.126 22.14,-0.76 33.2,-1.531 z" id="path992" fill="#ffffff" stroke="#ffffff" stroke-width="1.533" />
</svg>
