<?xml version="1.0" encoding="UTF-8" standalone="no"?>
<svg xmlns:dc="http://purl.org/dc/elements/1.1/" xmlns:cc="http://creativecommons.org/ns#" xmlns:rdf="http://www.w3.org/1999/02/22-rdf-syntax-ns#" xmlns:svg="http://www.w3.org/2000/svg" xmlns="http://www.w3.org/2000/svg" xmlns:sodipodi="http://sodipodi.sourceforge.net/DTD/sodipodi-0.dtd" xmlns:inkscape="http://www.inkscape.org/namespaces/inkscape" viewBox="0 0 512 512" version="1.1" id="svg144" inkscape:version="0.91 r" sodipodi:docname="applications-utilities.svg">
<defs id="defs156" />
<sodipodi:namedview pagecolor="#ffffff" bordercolor="#666666" borderopacity="1" objecttolerance="10" gridtolerance="10" guidetolerance="10" inkscape:pageopacity="0" inkscape:pageshadow="2" inkscape:window-width="640" inkscape:window-height="480" id="namedview154" showgrid="false" inkscape:zoom="0.4609375" inkscape:cx="256" inkscape:cy="256" inkscape:window-x="0" inkscape:window-y="0" inkscape:window-maximized="0" inkscape:current-layer="svg144" />
<metadata id="metadata1046">
<rdf:RDF>
<cc:Work rdf:about="">
<dc:format>image/svg+xml</dc:format>
<dc:type rdf:resource="http://purl.org/dc/dcmitype/StillImage" />
</cc:Work>
</rdf:RDF>
</metadata>
<path id="path980" d="m 471.95,253.05 c 0,120.9 -98.01,218.9 -218.9,218.9 -120.9,0 -218.9,-98.01 -218.9,-218.9 0,-120.9 98.01,-218.9 218.9,-218.9 120.9,0 218.9,98.01 218.9,218.9" inkscape:connector-curvature="0" fill="#7ecb4e" fill-rule="evenodd" />
<path inkscape:connector-curvature="0" d="m 256,151.75 c -57.59,0 -104.25,46.669 -104.25,104.25 0,57.59 46.669,104.25 104.25,104.25 57.59,0 104.25,-46.669 104.25,-104.25 0,-57.59 -46.669,-104.25 -104.25,-104.25 m -86.12,20.22 c -0.62,-0.002 -1.254,0.031 -1.875,0.031 -46.4,0 -83.969,37.607 -83.969,84 0,46.4 37.564,84.03 83.969,84.03 1.241,0 2.49,-0.041 3.719,-0.094 -22.1,-21.15 -35.813,-50.933 -35.813,-83.938 0,-33 13.713,-62.82 35.813,-83.969 -0.614,-0.027 -1.224,-0.06 -1.844,-0.063 m 174.06,0.031 c -1.084,0 -2.143,0.02 -3.219,0.063 20.717,21.883 33.406,51.41 33.406,83.938 0,32.515 -12.661,62.05 -33.375,83.938 1.064,0.042 2.115,0.094 3.188,0.094 46.4,0 84.03,-37.638 84.03,-84.03 0,-46.4 -37.638,-84 -84.03,-84" id="path1040" fill="#ffffff" />
</svg>
