<?xml version="1.0" encoding="UTF-8" standalone="no"?>
<svg xmlns:dc="http://purl.org/dc/elements/1.1/" xmlns:cc="http://creativecommons.org/ns#" xmlns:rdf="http://www.w3.org/1999/02/22-rdf-syntax-ns#" xmlns:svg="http://www.w3.org/2000/svg" xmlns="http://www.w3.org/2000/svg" xmlns:sodipodi="http://sodipodi.sourceforge.net/DTD/sodipodi-0.dtd" xmlns:inkscape="http://www.inkscape.org/namespaces/inkscape" viewBox="0 0 512 512" id="svg2" version="1.1" inkscape:version="0.91 r" sodipodi:docname="applications-education-mathematics.svg">
<metadata id="metadata72">
<rdf:RDF>
<cc:Work rdf:about="">
<dc:format>image/svg+xml</dc:format>
<dc:type rdf:resource="http://purl.org/dc/dcmitype/StillImage" />
</cc:Work>
</rdf:RDF>
</metadata>
<defs id="defs70" />
<sodipodi:namedview pagecolor="#ffffff" bordercolor="#666666" borderopacity="1" objecttolerance="10" gridtolerance="10" guidetolerance="10" inkscape:pageopacity="0" inkscape:pageshadow="2" inkscape:window-width="733" inkscape:window-height="480" id="namedview68" showgrid="false" inkscape:zoom="0.4609375" inkscape:cx="356.88136" inkscape:cy="256" inkscape:window-x="0" inkscape:window-y="0" inkscape:window-maximized="0" inkscape:current-layer="svg2" />
<path style="fill:#68af4c;fill-rule:evenodd" inkscape:connector-curvature="0" id="path6" d="m 471.95,253.05 c 0,120.9 -98.01,218.9 -218.9,218.9 -120.9,0 -218.9,-98.01 -218.9,-218.9 0,-120.9 98.01,-218.9 218.9,-218.9 120.9,0 218.9,98.01 218.9,218.9" />
<text y="231.36" x="729.64" line-height="125%" font-family="Gentium Book Basic" word-spacing="0" letter-spacing="0" font-size="129.23" id="text18">
<tspan y="231.36" x="729.64" id="tspan20" />
</text>
<text transform="scale(4.0128.2492)" y="579.25" x="378.91" font-family="Arial" text-anchor="middle" font-size="46.954" id="text22" />
<text y="151.36" x="1310.91" line-height="125%" font-family="Gentium Book Basic" word-spacing="0" letter-spacing="0" font-size="129.23" id="text24">
<tspan y="151.36" x="1310.91" id="tspan26" />
</text>
<text transform="scale(4.0128.2492)" y="258.22" x="523.76" font-family="Arial" text-anchor="middle" font-size="46.954" id="text28" />
<text y="-29.901" x="239.33" line-height="125%" font-family="Gentium Book Basic" word-spacing="0" letter-spacing="0" font-size="129.23" id="text30">
<tspan y="-29.901" x="239.33" id="tspan32" />
</text>
<text transform="scale(4.0128.2492)" y="-469.14" x="256.72" font-family="Arial" text-anchor="middle" font-size="46.954" id="text34" />
<text y="-246.37" x="1337.38" line-height="125%" font-family="Gentium Book Basic" word-spacing="0" letter-spacing="0" font-size="129.23" id="text36">
<tspan y="-246.37" x="1337.38" id="tspan38" />
</text>
<text transform="scale(4.0128.2492)" y="-1337.81" x="530.36" font-family="Arial" text-anchor="middle" font-size="46.954" id="text40" />
<text y="-326.38" x="1918.65" line-height="125%" font-family="Gentium Book Basic" word-spacing="0" letter-spacing="0" font-size="129.23" id="text42">
<tspan y="-326.38" x="1918.65" id="tspan44" />
</text>
<text transform="scale(4.0128.2492)" y="-1658.85" x="675.21" font-family="Arial" text-anchor="middle" font-size="46.954" id="text46" />
<text y="-798.78" x="1529.53" line-height="125%" font-family="Gentium Book Basic" word-spacing="0" letter-spacing="0" font-size="129.23" id="text48">
<tspan y="-798.78" x="1529.53" id="tspan50" />
</text>
<text transform="scale(4.0128.2492)" y="-3554.51" x="578.24" font-family="Arial" text-anchor="middle" font-size="46.954" id="text52" />
<text y="-878.78" x="2110.79" line-height="125%" font-family="Gentium Book Basic" word-spacing="0" letter-spacing="0" font-size="129.23" id="text54">
<tspan y="-878.78" x="2110.79" id="tspan56" />
</text>
<text transform="scale(4.0128.2492)" y="-3875.54" x="723.09" font-family="Arial" text-anchor="middle" font-size="46.954" id="text58" />
<text y="535.94" x="277.99" line-height="125%" font-family="Gentium Book Basic" word-spacing="0" letter-spacing="0" font-size="208.33" id="text60">
<tspan y="535.94" x="277.99" id="tspan62" />
</text>
<path d="m133.82 133.82v108.85h112.11v-108.85h-112.11m132.3 0v108.85h112.07v-108.85h-112.07m43.03 10.614h26.374v30.16h30.412v26.445h-30.412v31.02h-26.374v-31.02h-30.805v-26.445h30.805v-30.16m-150.45 31.02h67.51v25.623h-67.51v-25.623m-24.873 87.41v115.32h112.11v-115.32h-112.11m132.3 0v115.32h112.07v-115.32h-112.07m-101.21 17.976c0 0 23.422 24.98 24.944 24.98 1.523 0 25.02-24.98 25.02-24.98l14.688 14.724c0 0-24.98 23.279-24.98 25.02 0 1.669 24.98 24.98 24.98 24.98l-14.688 14.652c0 0-23.29-24.98-25.02-24.98-1.703 0-24.944 24.98-24.944 24.98l-14.724-14.652c0 0 24.98-22.939 24.98-24.98 0-2.098-24.98-25.02-24.98-25.02l14.724-14.724m123.47 6.79h67.51v25.588h-67.51v-25.588m0 44.06h67.51v25.623h-67.51v-25.623" fill="#fff" id="path66" />
</svg>
