<?xml version="1.0" encoding="UTF-8" standalone="no"?>
<svg xmlns:dc="http://purl.org/dc/elements/1.1/" xmlns:cc="http://creativecommons.org/ns#" xmlns:rdf="http://www.w3.org/1999/02/22-rdf-syntax-ns#" xmlns:svg="http://www.w3.org/2000/svg" xmlns="http://www.w3.org/2000/svg" xmlns:sodipodi="http://sodipodi.sourceforge.net/DTD/sodipodi-0.dtd" xmlns:inkscape="http://www.inkscape.org/namespaces/inkscape" viewBox="0 0 512 512" version="1.1" id="svg2" inkscape:version="0.91 r" sodipodi:docname="preferences-tweaks-shadows.svg">
<defs id="defs14" />
<sodipodi:namedview pagecolor="#ffffff" bordercolor="#666666" borderopacity="1" objecttolerance="10" gridtolerance="10" guidetolerance="10" inkscape:pageopacity="0" inkscape:pageshadow="2" inkscape:window-width="640" inkscape:window-height="480" id="namedview12" showgrid="false" inkscape:zoom="0.4609375" inkscape:cx="256" inkscape:cy="256" inkscape:window-x="0" inkscape:window-y="0" inkscape:window-maximized="0" inkscape:current-layer="svg2" />
<metadata id="metadata1270">
<rdf:RDF>
<cc:Work rdf:about="">
<dc:format>image/svg+xml</dc:format>
<dc:type rdf:resource="http://purl.org/dc/dcmitype/StillImage" />
</cc:Work>
</rdf:RDF>
</metadata>
<path id="path1202" d="m 471.95,253.05 c 0,120.9 -98.01,218.91 -218.91,218.91 -120.9,0 -218.91,-98.01 -218.91,-218.91 0,-120.9 98.01,-218.91 218.91,-218.91 120.9,0 218.91,98.01 218.91,218.91" inkscape:connector-curvature="0" fill="#68af4c" fill-rule="evenodd" />
<path id="path1264" d="m 133.1,127.56 c -10.291,0 -18.75,8.527 -18.75,18.813 l 0,200.84 c 0,10.285 8.459,18.813 18.75,18.813 l 199.75,0 c 10.291,0 18.781,-8.527 18.781,-18.813 l 0,-200.84 c 0,-10.285 -8.49,-18.813 -18.781,-18.813 l -199.75,0 m 7.75,57.844 183.22,0 0,153 -183.22,0 0,-153 m 196.66,162.88 c -0.403,2.02 -1.955,3.435 -4,3.688 a 7.00707,7.00707 0 0 0 4,-3.6875" inkscape:connector-curvature="0" fill="#ffffff" color="#000000" />
</svg>
