<?xml version="1.0" encoding="UTF-8" standalone="no"?>
<svg
   xmlns:dc="http://purl.org/dc/elements/1.1/"
   xmlns:cc="http://creativecommons.org/ns#"
   xmlns:rdf="http://www.w3.org/1999/02/22-rdf-syntax-ns#"
   xmlns:svg="http://www.w3.org/2000/svg"
   xmlns="http://www.w3.org/2000/svg"
   xmlns:xlink="http://www.w3.org/1999/xlink"
   xmlns:sodipodi="http://sodipodi.sourceforge.net/DTD/sodipodi-0.dtd"
   xmlns:inkscape="http://www.inkscape.org/namespaces/inkscape"
   viewBox="0 0 512 512"
   id="svg40"
   version="1.1"
   inkscape:version="0.91 r"
   sodipodi:docname="image-x-eps.svg">
  <metadata
     id="metadata79">
    <rdf:RDF>
      <cc:Work
         rdf:about="">
        <dc:format>image/svg+xml</dc:format>
        <dc:type
           rdf:resource="http://purl.org/dc/dcmitype/StillImage" />
      </cc:Work>
    </rdf:RDF>
  </metadata>
  <defs
     id="defs77">
    <filter
       style="color-interpolation-filters:sRGB;"
       inkscape:label="Greyscale"
       id="filter4682">
      <feColorMatrix
         values="0.21 0.72 0.072 0 0 0.21 0.72 0.072 0 0 0.21 0.72 0.072 0 0 0 0 0 1 0 "
         id="feColorMatrix4684" />
    </filter>
  </defs>
  <sodipodi:namedview
     pagecolor="#ffffff"
     bordercolor="#666666"
     borderopacity="1"
     objecttolerance="10"
     gridtolerance="10"
     guidetolerance="10"
     inkscape:pageopacity="0"
     inkscape:pageshadow="2"
     inkscape:window-width="640"
     inkscape:window-height="480"
     id="namedview75"
     showgrid="false"
     inkscape:zoom="0.4609375"
     inkscape:cx="256"
     inkscape:cy="256"
     inkscape:window-x="0"
     inkscape:window-y="0"
     inkscape:window-maximized="0"
     inkscape:current-layer="svg40" />
  <g
     transform="translate(0-540.36)"
     id="g42"
     style="filter:url(#filter4682)">
    <g
       fill-opacity="0.078"
       id="g44">
      <path
         d="m32.554 540.36c-4.774 0-8.59 3.266-8.59 7.313v497.38c0 4.046 3.816 7.313 8.59 7.313h446.89c4.774 0 8.59-3.266 8.59-7.313v-497.38c0-4.047-3.816-7.313-8.59-7.313h-446.89"
         id="path46" />
      <path
         d="m35.614 543.86c-4.709 0-8.479 3.196-8.479 7.188v490.62c0 3.991 3.771 7.188 8.479 7.188h440.77c4.709 0 8.479-3.196 8.479-7.188v-490.62c0-3.991-3.771-7.188-8.479-7.188h-440.78"
         id="path48" />
      <path
         d="m38.674 547.36c-4.643 0-8.369 3.158-8.369 7.094v483.81c0 3.936 3.725 7.094 8.369 7.094h434.65c4.643 0 8.369-3.158 8.369-7.094v-483.81c0-3.936-3.725-7.094-8.369-7.094h-434.65"
         id="path50" />
    </g>
    <path
       d="m41.734 550.86c-4.578 0-8.258 3.119-8.258 7v477c0 3.88 3.68 7 8.258 7h428.53c4.578 0 8.258-3.12 8.258-7v-477c0-3.881-3.68-7-8.258-7h-428.54"
       fill="#cf2437"
       id="path52" />
    <path
       d="m91 590.64c-11.898 0-21.469 9.571-21.469 21.469v313.19c0 11.898 9.571 21.469 21.469 21.469h330c11.898 0 21.469-9.571 21.469-21.469v-236.44l-98.22-98.22h-253.25"
       fill="#fff"
       id="path54" />
    <path
       opacity="0.25"
       fill-rule="evenodd"
       d="m263.53 107.19c-0.317-0.002-0.649 0.005-0.969 0.031-13.11 2.385-23.254 12.207-34.844 18.25-37.817 24.386-75.915 52.62-95.78 94.09-9.328 20.287-10.36 45.01-0.5 65.16l-7.438-3.594-19.469-19.438c-1.013-1.013-2.198-1.874-3.563-2.531-2.035-0.98-4.204-1.384-6.313-1.281-4.638 0.227-9 2.928-11.156 7.406-2.478 5.146-1.292 11.11 2.531 14.938l215.97 215.94c1.896 1.896 3.628 3.668 5.25 5.344h163.03c0.286 0 0.565-0.007 0.844-0.031 0.546-0.047 1.085-0.149 1.594-0.281 0.259-0.068 0.534-0.162 0.781-0.25 2.223-0.794 3.936-2.368 4.656-4.344 0.24-0.659 0.375-1.366 0.375-2.094v-179.69l-202.87-202.84c-2.45-2.45-5.601-4.144-9.313-4.5-0.936-0.162-1.862-0.276-2.813-0.281"
       transform="translate(0 540.36)"
       id="path56" />
    <path
       opacity="0.25"
       d="m427.53 673.8l-78.906 6.906 129.91 129.94v-85.84l-51-51"
       id="path58" />
    <path
       d="m442.47 688.86l-98.22-98.22v76.75c0 11.898 9.571 21.469 21.469 21.469h76.75"
       fill="#a4a4a4"
       id="path60" />
    <g
       fill-rule="evenodd"
       id="g62">
      <path
         d="m262.56 647.59c-13.11 2.385-23.24 12.208-34.834 18.251-37.817 24.386-75.925 52.619-95.79 94.09-10.601 23.05-10.478 51.84 4.156 73.13 19.15 29.602 53.27 44.855 86.25 53.625 52.36 13.356 111.29 8.01 157.28-21.625 18.253-12.216 34.1-32.676 31.625-55.844-2.814-23.685-22.488-41.13-42.555-51.81-9.413-4.852-19.01-11.09-29.82-11.752-13.625 0.585-22.07 19.2-12.469 29.344 7.525 8.267 19.782 9.216 28.25 16.221 8.82 5.709 19.845 12.65 20.81 24.12-1.466 11.29-13.04 17.693-21.875 23.13-32.443 17.344-71.05 21.619-107.17 16.455-25.887-4.371-51.961-13.706-71.952-31.24-11.508-10.472-17.643-27.307-11.969-42.25 7.992-25.01 28.823-43.2 48.41-59.688 20.359-16.647 43.34-29.512 65.47-43.594 10.02-9.385 3.754-28.991-10.03-30.31-1.247-0.215-2.504-0.355-3.781-0.25"
         fill="#cf2437"
         id="path64" />
      <g
         transform="rotate(25.713)"
         id="g66">
        <path
           d="m441.01 686.35h242.88v6.561h-242.88z"
           fill="#9a3034"
           id="path68" />
        <path
           stroke-width="5.257"
           d="m548.91 671.17h32.86v36.615h-32.86z"
           stroke="#cd1d31"
           fill="#fff"
           id="path70" />
      </g>
    </g>
    <path
       id="0"
       d="m-56.52 576.34c0 0.962-0.78 1.741-1.741 1.741-0.962 0-1.741-0.779-1.741-1.741s0.78-1.741 1.741-1.741c0.962 0 1.741 0.779 1.741 1.741"
       fill-rule="evenodd"
       transform="matrix(6.7735 3.2618 -3.2618 6.7735 2595.3 -2793.9)"
       fill="#cd1d31" />
    <use
       width="1"
       xlink:href="#0"
       transform="translate(-225.46-108.57)"
       height="1"
       id="use73" />
  </g>
</svg>
