<?xml version="1.0" encoding="UTF-8" standalone="no"?>
<svg
   xmlns:dc="http://purl.org/dc/elements/1.1/"
   xmlns:cc="http://creativecommons.org/ns#"
   xmlns:rdf="http://www.w3.org/1999/02/22-rdf-syntax-ns#"
   xmlns:svg="http://www.w3.org/2000/svg"
   xmlns="http://www.w3.org/2000/svg"
   xmlns:sodipodi="http://sodipodi.sourceforge.net/DTD/sodipodi-0.dtd"
   xmlns:inkscape="http://www.inkscape.org/namespaces/inkscape"
   viewBox="0 0 512 512"
   id="svg2379"
   version="1.1"
   inkscape:version="0.91 r"
   sodipodi:docname="text-x-readme.svg">
  <metadata
     id="metadata2405">
    <rdf:RDF>
      <cc:Work
         rdf:about="">
        <dc:format>image/svg+xml</dc:format>
        <dc:type
           rdf:resource="http://purl.org/dc/dcmitype/StillImage" />
      </cc:Work>
    </rdf:RDF>
  </metadata>
  <defs
     id="defs2403">
    <filter
       style="color-interpolation-filters:sRGB;"
       inkscape:label="Greyscale"
       id="filter6256">
      <feColorMatrix
         values="0.21 0.72 0.072 0 0 0.21 0.72 0.072 0 0 0.21 0.72 0.072 0 0 0 0 0 1 0 "
         id="feColorMatrix6258" />
    </filter>
    <filter
       style="color-interpolation-filters:sRGB;"
       inkscape:label="Greyscale"
       id="filter6260">
      <feColorMatrix
         values="0.21 0.72 0.072 0 0 0.21 0.72 0.072 0 0 0.21 0.72 0.072 0 0 0 0 0 1 0 "
         id="feColorMatrix6262" />
    </filter>
    <filter
       style="color-interpolation-filters:sRGB;"
       inkscape:label="Greyscale"
       id="filter6264">
      <feColorMatrix
         values="0.21 0.72 0.072 0 0 0.21 0.72 0.072 0 0 0.21 0.72 0.072 0 0 0 0 0 1 0 "
         id="feColorMatrix6266" />
    </filter>
    <filter
       style="color-interpolation-filters:sRGB;"
       inkscape:label="Greyscale"
       id="filter6268">
      <feColorMatrix
         values="0.21 0.72 0.072 0 0 0.21 0.72 0.072 0 0 0.21 0.72 0.072 0 0 0 0 0 1 0 "
         id="feColorMatrix6270" />
    </filter>
    <filter
       style="color-interpolation-filters:sRGB;"
       inkscape:label="Greyscale"
       id="filter6272">
      <feColorMatrix
         values="0.21 0.72 0.072 0 0 0.21 0.72 0.072 0 0 0.21 0.72 0.072 0 0 0 0 0 1 0 "
         id="feColorMatrix6274" />
    </filter>
    <filter
       style="color-interpolation-filters:sRGB;"
       inkscape:label="Greyscale"
       id="filter6276">
      <feColorMatrix
         values="0.21 0.72 0.072 0 0 0.21 0.72 0.072 0 0 0.21 0.72 0.072 0 0 0 0 0 1 0 "
         id="feColorMatrix6278" />
    </filter>
  </defs>
  <sodipodi:namedview
     pagecolor="#ffffff"
     bordercolor="#666666"
     borderopacity="1"
     objecttolerance="10"
     gridtolerance="10"
     guidetolerance="10"
     inkscape:pageopacity="0"
     inkscape:pageshadow="2"
     inkscape:window-width="640"
     inkscape:window-height="480"
     id="namedview2401"
     showgrid="false"
     inkscape:zoom="0.4609375"
     inkscape:cx="256"
     inkscape:cy="256"
     inkscape:window-x="0"
     inkscape:window-y="0"
     inkscape:window-maximized="0"
     inkscape:current-layer="svg2379" />
  <g
     fill-opacity="0.078"
     id="g2381"
     style="filter:url(#filter6256)">
    <path
       d="m66.61 0c-4.047 0-7.299 3.253-7.299 7.299v497.4c0 4.047 3.253 7.299 7.299 7.299h378.79c4.047 0 7.299-3.253 7.299-7.299v-359.46l-145.21-145.24h-240.88"
       id="path2383" />
    <path
       d="m69.2 3.5c-3.991 0-7.2 3.208-7.2 7.2v490.6c0 3.991 3.208 7.2 7.2 7.2h373.61c3.991 0 7.2-3.208 7.2-7.2v-354.55l-143.22-143.25h-237.59"
       id="path2385" />
    <path
       d="m71.786 7c-3.936 0-7.1 3.164-7.1 7.1v483.8c0 3.936 3.164 7.1 7.1 7.1h368.43c3.936 0 7.1-3.164 7.1-7.1v-349.63l-141.24-141.27h-234.29"
       id="path2387" />
  </g>
  <path
     d="m74.38 10.5c-3.881 0-7 3.119-7 7v477c0 3.881 3.119 7 7 7h363.25c3.881 0 7-3.119 7-7v-344.72l-139.25-139.28h-231"
     fill="#74cce7"
     id="path2389"
     style="filter:url(#filter6260)" />
  <path
     d="m308.78 148.78c4.487 5.957 11.24 10.578 16.06 16.313 39.915 39.949 79.85 79.881 119.78 119.81v-135.12h-132.25c-1.321 0-2.542-0.37-3.594-1"
     fill-opacity="0.235"
     id="path2391"
     style="filter:url(#filter6264)" />
  <path
     fill="#fff"
     d="m444.62 149.78l-139.25-139.28v132.28c0 3.881 3.119 7 7 7h132.25"
     fill-opacity="0.196"
     id="path2393"
     style="filter:url(#filter6268)" />
  <path
     d="m251.66 177.47c-22.903-0.176-39.936 25.959-30.06 46.938 8.03 14.262 21.697 24.2 32.656 36.19 25.26 25.26-18.02 7.302-23.12 10.781-11.943 2.798-14.468-2.455-26.719 13.406 7.205 7.205 14.583 15.05 20.906 21.375 3.448 4.208 0.973 13.576 1.719 20.13-0.109 33.16 0.211 66.31-0.188 99.47 1.027 20.13-31.549 4.367-24.75 24.781 21.1 21.1 34.14 35.529 48.625 50.969h186.91c3.881 0 7-3.119 7-7v-142.06c-55.786-55.779-111.42-111.72-167.47-167.22-6.505-5.284-14.978-7.699-23.281-7.656-0.75-0.062-1.48-0.088-2.219-0.094"
     fill-opacity="0.235"
     id="path2395"
     style="filter:url(#filter6272)" />
  <text
     font-family="Serif"
     font-size="383.59"
     y="453.75"
     x="192.13"
     font-weight="bold"
     line-height="125%"
     fill="#fff"
     word-spacing="0"
     letter-spacing="0"
     id="text2397"
     style="filter:url(#filter6276)">
    <tspan
       y="453.75"
       x="192.13"
       id="tspan2399">i</tspan>
  </text>
</svg>
