<?xml version="1.0" encoding="UTF-8" standalone="no"?>
<svg
   xmlns:dc="http://purl.org/dc/elements/1.1/"
   xmlns:cc="http://creativecommons.org/ns#"
   xmlns:rdf="http://www.w3.org/1999/02/22-rdf-syntax-ns#"
   xmlns:svg="http://www.w3.org/2000/svg"
   xmlns="http://www.w3.org/2000/svg"
   xmlns:sodipodi="http://sodipodi.sourceforge.net/DTD/sodipodi-0.dtd"
   xmlns:inkscape="http://www.inkscape.org/namespaces/inkscape"
   viewBox="0 0 512 512"
   id="svg2407"
   version="1.1"
   inkscape:version="0.91 r"
   sodipodi:docname="text-x-ruby.svg">
  <metadata
     id="metadata2445">
    <rdf:RDF>
      <cc:Work
         rdf:about="">
        <dc:format>image/svg+xml</dc:format>
        <dc:type
           rdf:resource="http://purl.org/dc/dcmitype/StillImage" />
      </cc:Work>
    </rdf:RDF>
  </metadata>
  <defs
     id="defs2443">
    <filter
       style="color-interpolation-filters:sRGB;"
       inkscape:label="Greyscale"
       id="filter6240">
      <feColorMatrix
         values="0.21 0.72 0.072 0 0 0.21 0.72 0.072 0 0 0.21 0.72 0.072 0 0 0 0 0 1 0 "
         id="feColorMatrix6242" />
    </filter>
    <filter
       style="color-interpolation-filters:sRGB;"
       inkscape:label="Greyscale"
       id="filter6244">
      <feColorMatrix
         values="0.21 0.72 0.072 0 0 0.21 0.72 0.072 0 0 0.21 0.72 0.072 0 0 0 0 0 1 0 "
         id="feColorMatrix6246" />
    </filter>
    <filter
       style="color-interpolation-filters:sRGB;"
       inkscape:label="Greyscale"
       id="filter6248">
      <feColorMatrix
         values="0.21 0.72 0.072 0 0 0.21 0.72 0.072 0 0 0.21 0.72 0.072 0 0 0 0 0 1 0 "
         id="feColorMatrix6250" />
    </filter>
    <filter
       style="color-interpolation-filters:sRGB;"
       inkscape:label="Greyscale"
       id="filter6252">
      <feColorMatrix
         values="0.21 0.72 0.072 0 0 0.21 0.72 0.072 0 0 0.21 0.72 0.072 0 0 0 0 0 1 0 "
         id="feColorMatrix6254" />
    </filter>
  </defs>
  <sodipodi:namedview
     pagecolor="#ffffff"
     bordercolor="#666666"
     borderopacity="1"
     objecttolerance="10"
     gridtolerance="10"
     guidetolerance="10"
     inkscape:pageopacity="0"
     inkscape:pageshadow="2"
     inkscape:window-width="640"
     inkscape:window-height="480"
     id="namedview2441"
     showgrid="false"
     inkscape:zoom="0.4609375"
     inkscape:cx="256"
     inkscape:cy="256"
     inkscape:window-x="0"
     inkscape:window-y="0"
     inkscape:window-maximized="0"
     inkscape:current-layer="svg2407" />
  <g
     fill-opacity="0.078"
     id="g2409"
     style="filter:url(#filter6240)">
    <path
       d="m66.61 0c-4.047 0-7.299 3.253-7.299 7.299v497.4c0 4.047 3.253 7.299 7.299 7.299h378.79c4.047 0 7.299-3.253 7.299-7.299v-359.46l-145.21-145.24h-240.88"
       id="path2411" />
    <path
       d="m69.2 3.5c-3.991 0-7.2 3.208-7.2 7.2v490.6c0 3.991 3.208 7.2 7.2 7.2h373.61c3.991 0 7.2-3.208 7.2-7.2v-354.55l-143.22-143.25h-237.59"
       id="path2413" />
    <path
       d="m71.786 7c-3.936 0-7.1 3.164-7.1 7.1v483.8c0 3.936 3.164 7.1 7.1 7.1h368.43c3.936 0 7.1-3.164 7.1-7.1v-349.63l-141.24-141.27h-234.29"
       id="path2415" />
  </g>
  <path
     d="m74.38 10.5c-3.881 0-7 3.119-7 7v477c0 3.881 3.119 7 7 7h363.25c3.881 0 7-3.119 7-7v-344.72l-139.25-139.28h-231"
     fill="#d12c3e"
     id="path2417"
     style="filter:url(#filter6244)" />
  <path
     d="m308.78 148.78c4.487 5.957 11.24 10.578 16.06 16.313 9.48 9.488 18.956 18.982 28.438 28.469-5.937 3.413-11.318 11.06-13.495 8.06-8.591-10.272-0.029-0.031-8.787-10.342l-57.906 0.719c10.922 10.922 20.7 20.497 31.04 30.836 4.125 3.203 0.13-2.238-1.477 3.757-2.995 6.391-5.108 17.05-8.625 20.906-11.279-10.122-19.218-25.622-34.531-29.656-32.886-1.35-60.63 22.566-81.969 45.06-15.789 19.14-34.725 43.964-27.22 70.19 9.651 12.844 24.606 20.84 36.594 31.531-12.529 2.997-16.432 5.608-19.675 4.345-14.315-14.315-27.27-27.14-40.27-40.14 1.064 9.45-0.054 8.931-0.183 17.01l-0.625 81.88c5.414 18.289 22.636 28.608 35.09 41.969 10.991 10.654 22.08 21.24 33.19 31.813h243.19c3.881 0 7-3.119 7-7v-344.72h-132.25c-1.321 0-2.542-0.37-3.594-1"
     fill-opacity="0.235"
     id="path2419"
     style="filter:url(#filter6248)" />
  <g
     fill="#fff"
     id="g2421"
     style="filter:url(#filter6252)">
    <path
       d="m444.62 149.78l-139.25-139.28v132.28c0 3.881 3.119 7 7 7h132.25"
       fill-opacity="0.196"
       id="path2423" />
    <g
       transform="matrix(1.411 0 0 1.411 -128.59 -64.49)"
       id="g2425">
      <path
         d="m325.74 181.26l-41.04 0.51 19.992 13.661 21.05-14.171"
         id="path2427" />
      <path
         d="m342.95 182.13l-23.618 13.955 43.826 2.528-20.21-16.484"
         id="path2429" />
      <path
         d="m269.86 199.9c-5.836 0.344-12.825 2.423-20.619 6.448-24.942 12.881-48.43 40.579-52.47 61.819s12.886 27.973 37.828 15.09c24.942-12.88 48.43-40.5 52.47-61.741 2.778-14.603-4.37-22.377-17.209-21.619"
         id="path2431" />
      <path
         d="m306.65 203.61l-13.524 36.22 58.6-0.882-45.08-35.34"
         id="path2433" />
      <path
         d="m321.05 204.55l42.924 34.986 0.627-31.09-43.552-3.9"
         id="path2435" />
      <path
         d="m361.27 247.12l-58.53 0.941 42.493 29.792 16.03-30.733"
         id="path2437" />
      <path
         d="m290.07 250.37c-39.725 40.2-47.645 54.999-95.45 58.703-8.727-1.989-9.48-19.347-13.524-30.361l-0.549 70.13c0.787 4.643 6.511 18.449 25.637 22.19 48.47 1.747 98.4-2.672 148.33-6.997 5.626-32.33 5.293-65.717 6.762-98.77-21.523 34.667-45.671 58.947-70.933 78.871l6.194-6.429 44.45-54.665-50.921-32.673"
         id="path2439" />
    </g>
  </g>
</svg>
