<?xml version="1.0" encoding="UTF-8" standalone="no"?>
<svg
   xmlns:dc="http://purl.org/dc/elements/1.1/"
   xmlns:cc="http://creativecommons.org/ns#"
   xmlns:rdf="http://www.w3.org/1999/02/22-rdf-syntax-ns#"
   xmlns:svg="http://www.w3.org/2000/svg"
   xmlns="http://www.w3.org/2000/svg"
   xmlns:xlink="http://www.w3.org/1999/xlink"
   xmlns:sodipodi="http://sodipodi.sourceforge.net/DTD/sodipodi-0.dtd"
   xmlns:inkscape="http://www.inkscape.org/namespaces/inkscape"
   viewBox="0 0 512 512"
   id="svg2645"
   version="1.1"
   inkscape:version="0.91 r"
   sodipodi:docname="video-x-generic.svg">
  <metadata
     id="metadata2676">
    <rdf:RDF>
      <cc:Work
         rdf:about="">
        <dc:format>image/svg+xml</dc:format>
        <dc:type
           rdf:resource="http://purl.org/dc/dcmitype/StillImage" />
      </cc:Work>
    </rdf:RDF>
  </metadata>
  <defs
     id="defs2674">
    <filter
       style="color-interpolation-filters:sRGB;"
       inkscape:label="Greyscale"
       id="filter6004">
      <feColorMatrix
         values="0.21 0.72 0.072 0 0 0.21 0.72 0.072 0 0 0.21 0.72 0.072 0 0 0 0 0 1 0 "
         id="feColorMatrix6006" />
    </filter>
    <filter
       style="color-interpolation-filters:sRGB;"
       inkscape:label="Greyscale"
       id="filter6008">
      <feColorMatrix
         values="0.21 0.72 0.072 0 0 0.21 0.72 0.072 0 0 0.21 0.72 0.072 0 0 0 0 0 1 0 "
         id="feColorMatrix6010" />
    </filter>
    <filter
       style="color-interpolation-filters:sRGB;"
       inkscape:label="Greyscale"
       id="filter6012">
      <feColorMatrix
         values="0.21 0.72 0.072 0 0 0.21 0.72 0.072 0 0 0.21 0.72 0.072 0 0 0 0 0 1 0 "
         id="feColorMatrix6014" />
    </filter>
    <filter
       style="color-interpolation-filters:sRGB;"
       inkscape:label="Greyscale"
       id="filter6016">
      <feColorMatrix
         values="0.21 0.72 0.072 0 0 0.21 0.72 0.072 0 0 0.21 0.72 0.072 0 0 0 0 0 1 0 "
         id="feColorMatrix6018" />
    </filter>
    <filter
       style="color-interpolation-filters:sRGB;"
       inkscape:label="Greyscale"
       id="filter6020">
      <feColorMatrix
         values="0.21 0.72 0.072 0 0 0.21 0.72 0.072 0 0 0.21 0.72 0.072 0 0 0 0 0 1 0 "
         id="feColorMatrix6022" />
    </filter>
    <filter
       style="color-interpolation-filters:sRGB;"
       inkscape:label="Greyscale"
       id="filter6024">
      <feColorMatrix
         values="0.21 0.72 0.072 0 0 0.21 0.72 0.072 0 0 0.21 0.72 0.072 0 0 0 0 0 1 0 "
         id="feColorMatrix6026" />
    </filter>
    <filter
       style="color-interpolation-filters:sRGB;"
       inkscape:label="Greyscale"
       id="filter6028">
      <feColorMatrix
         values="0.21 0.72 0.072 0 0 0.21 0.72 0.072 0 0 0.21 0.72 0.072 0 0 0 0 0 1 0 "
         id="feColorMatrix6030" />
    </filter>
    <filter
       style="color-interpolation-filters:sRGB;"
       inkscape:label="Greyscale"
       id="filter6032">
      <feColorMatrix
         values="0.21 0.72 0.072 0 0 0.21 0.72 0.072 0 0 0.21 0.72 0.072 0 0 0 0 0 1 0 "
         id="feColorMatrix6034" />
    </filter>
    <filter
       style="color-interpolation-filters:sRGB;"
       inkscape:label="Greyscale"
       id="filter6036">
      <feColorMatrix
         values="0.21 0.72 0.072 0 0 0.21 0.72 0.072 0 0 0.21 0.72 0.072 0 0 0 0 0 1 0 "
         id="feColorMatrix6038" />
    </filter>
    <filter
       style="color-interpolation-filters:sRGB;"
       inkscape:label="Greyscale"
       id="filter6040">
      <feColorMatrix
         values="0.21 0.72 0.072 0 0 0.21 0.72 0.072 0 0 0.21 0.72 0.072 0 0 0 0 0 1 0 "
         id="feColorMatrix6042" />
    </filter>
  </defs>
  <sodipodi:namedview
     pagecolor="#ffffff"
     bordercolor="#666666"
     borderopacity="1"
     objecttolerance="10"
     gridtolerance="10"
     guidetolerance="10"
     inkscape:pageopacity="0"
     inkscape:pageshadow="2"
     inkscape:window-width="640"
     inkscape:window-height="480"
     id="namedview2672"
     showgrid="false"
     inkscape:zoom="0.4609375"
     inkscape:cx="256"
     inkscape:cy="256"
     inkscape:window-x="0"
     inkscape:window-y="0"
     inkscape:window-maximized="0"
     inkscape:current-layer="svg2645" />
  <g
     fill-opacity="0.078"
     id="g2647"
     style="filter:url(#filter6004)">
    <path
       d="m32.563 0c-4.774 0-8.594 3.266-8.594 7.313v497.38c0 4.047 3.82 7.313 8.594 7.313h446.88c4.774 0 8.594-3.266 8.594-7.313v-360.03l-144.66-144.66h-310.81"
       id="path2649" />
    <path
       d="m35.625 3.5c-4.709 0-8.5 3.196-8.5 7.188v490.62c0 3.991 3.791 7.188 8.5 7.188h440.75c4.709 0 8.5-3.196 8.5-7.188v-356.28l-141.53-141.53h-307.72"
       id="path2651" />
    <path
       d="m38.688 7c-4.643 0-8.375 3.158-8.375 7.094v483.82c0 3.936 3.732 7.094 8.375 7.094h434.63c4.643 0 8.375-3.158 8.375-7.094v-352.62l-138.28-138.28h-304.72"
       id="path2653" />
  </g>
  <path
     d="m41.719 10.5c-4.578 0-8.25 3.119-8.25 7v477c0 3.881 3.672 7 8.25 7h428.56c4.578 0 8.25-3.119 8.25-7v-348.06l-135.97-135.94h-300.84"
     fill="#b93d48"
     id="path2655"
     style="filter:url(#filter6008)" />
  <path
     d="m63.47 24.03v16.16h44.531v-16.16h-44.531m0 47.22v35.688h44.531v-35.688h-44.531m0 66.72v35.75h44.531v-35.75h-44.531m340.53 8.469v27.28h44.531v-27.28h-44.531m-340.53 58.28v35.75h44.531v-35.75h-44.531m340.53 0v35.75h44.531v-35.75h-44.531m-340.53 66.781v35.688h44.531v-35.688h-44.531m340.53 0v35.688h44.531v-35.688h-44.531m-340.53 66.781v35.656h44.531v-35.656h-44.531m340.53 0v35.656h44.531v-35.656h-44.531m-340.53 66.72v35.719h44.531v-35.719h-44.531m340.53 0v35.719h44.531v-35.719h-44.531m-340.53 66.75v16.219h44.531v-16.219h-44.531m340.53 0v16.219h44.531v-16.219h-44.531"
     fill="#fff"
     id="path2657"
     style="filter:url(#filter6012)" />
  <path
     opacity="0.25"
     d="m174.63 194.59c-22.467 0-40.563 18.06-40.563 40.531v108.41c0 7.971 9.776 17.931 16.16 32.25l136.72 125.72h183.34c4.578 0 8.25-3.119 8.25-7v-175.62l-112.44-112.44c-7.33-7.33-17.485-11.844-28.719-11.844h-162.75"
     id="path2659"
     style="filter:url(#filter6016)" />
  <path
     d="m174.62 194.58h162.77c22.467 0 40.554 18.09 40.554 40.554v108.4c0 22.467-18.09 40.554-40.554 40.554h-162.77c-22.467 0-40.554-18.09-40.554-40.554v-108.4c0-22.467 18.09-40.554 40.554-40.554"
     fill="#fff"
     id="path2661"
     style="filter:url(#filter6020)" />
  <path
     d="m220.44 235.74a11.806 11.806 0 0 0 -11.094 11.812v83.56a11.806 11.806 0 0 0 17.875 10.125l69.72-41.781a11.806 11.806 0 0 0 0 -20.25l-69.72-41.781a11.806 11.806 0 0 0 -5.5938 -1.6875 11.806 11.806 0 0 0 -1.1875 0"
     fill="#b93d48"
     id="path2663"
     style="filter:url(#filter6024)" />
  <path
     id="0"
     fill-opacity="0.196"
     fill="#fff"
     d="m478.53 146.44l-135.97-135.94v128.94c0 3.881 3.672 7 8.25 7h127.72"
     style="filter:url(#filter6028)" />
  <path
     d="m478.53 146.44-135.97-135.94 215.95 215.95 135.97 135.94z"
     fill-opacity="0.196"
     id="path2666"
     style="filter:url(#filter6032)" />
  <use
     width="1"
     xlink:href="#0"
     height="1"
     id="use2668"
     style="filter:url(#filter6036)" />
  <path
     d="m345.03 144.56l133.5 129.38v-127.5h-127.72c-2.185 0-4.154-0.71-5.625-1.875h-0.156"
     fill-opacity="0.196"
     id="path2670"
     style="filter:url(#filter6040)" />
</svg>
