/* XPM */
static char * desktop_xpm[] = {
"16 16 69 1",
" 	c None",
".	c #8F8F8F",
"+	c #8C8C8C",
"@	c #B1B1B1",
"#	c #C7C7C7",
"$	c #CACACA",
"%	c #888888",
"&	c #BDBDBD",
"*	c #6F6F6F",
"=	c #7B7B7B",
"-	c #5F5F5F",
";	c #858585",
">	c #B0B0B0",
",	c #828282",
"'	c #ACACAC",
")	c #2B2B2B",
"!	c #727272",
"~	c #7F7F7F",
"{	c #A9A9A9",
"]	c #959595",
"^	c #2D2D2D",
"/	c #2F2F2F",
"(	c #474747",
"_	c #4B4B4B",
":	c #3D3D3D",
"<	c #A7A7A7",
"[	c #878787",
"}	c #353535",
"|	c #373737",
"1	c #393939",
"2	c #333333",
"3	c #3B3B3B",
"4	c #535353",
"5	c #777777",
"6	c #A4A4A4",
"7	c #424242",
"8	c #434343",
"9	c #585858",
"0	c #272727",
"a	c #292929",
"b	c #737373",
"c	c #A0A0A0",
"d	c #4A4A4A",
"e	c #464646",
"f	c #545454",
"g	c #313131",
"h	c #707070",
"i	c #9F9F9F",
"j	c #6B6B6B",
"k	c #4F4F4F",
"l	c #4C4C4C",
"m	c #9C9C9C",
"n	c #3F3F3F",
"o	c #484848",
"p	c #686868",
"q	c #989898",
"r	c #5C5C5C",
"s	c #646464",
"t	c #666666",
"u	c #969696",
"v	c #7E7E7E",
"w	c #808080",
"x	c #7A7A7A",
"y	c #747474",
"z	c #636363",
"A	c #6A6A6A",
"B	c #6C6C6C",
"C	c #8E8E8E",
"D	c #5B5B5B",
" ...............",
"+@#$$$$$$$$$$#@+",
"%&*==--------*&%",
";>-==--------->;",
",'))))))))))))*!",
"~{)]]^////^))(_:",
"=<)[[}|11|234}-5",
"56)2|:7883930a65",
"bc/%%8def8/gg/cb",
"hi}jj_klg)2}|2ih",
"jm|no_|2no_on|mj",
"pq|7d4rssr4d7|qp",
"tusvw;x++[y*jsut",
"z.ApBby55ybBpA.z",
"-bC..........Cb-",
"DDDDDDDDDDDDDDDD"};
