<?xml version="1.0" encoding="UTF-8" standalone="no"?>
<svg xmlns="http://www.w3.org/2000/svg" viewBox="0 0 512 512">
 <g fill-rule="evenodd">
  <path d="m471.95 253.05c0 120.9-98.01 218.91-218.91 218.91s-218.91-98.01-218.91-218.91 98.01-218.91 218.91-218.91 218.91 98.01 218.91 218.91" fill="#2269b1"/>
  <path d="m253.03 34.16c-120.9 0-218.91 98.01-218.91 218.91 0 57.12 21.889 109.12 57.719 148.09l40.5-65.832v-0.012l0.25-0.406 0.277 0.024c51-81.48 102.08-162.47 152.47-244.46l29.656-47.41c-19.648-5.788-40.446-8.906-61.969-8.906" fill="#68af4c"/>
  <path d="m253.03 34.16c-19.514 0-38.433 2.585-56.44 7.375l59.656 95.81 0.156 0.25-0.035 0.014 122.11 197.99h77.34c10.382-25.474 16.13-53.32 16.13-82.53 0-120.9-98.01-218.91-218.91-218.91" fill="#dec650"/>
  <path d="m256 1c-140.83 0-255 114.17-255 255s114.17 255 255 255 255-114.17 255-255-114.17-255-255-255m8.827 44.931c120.9 0 218.9 98 218.9 218.9s-98 218.9-218.9 218.9-218.93-98-218.93-218.9 98.03-218.9 218.93-218.9" fill-opacity="0.067"/>
  <g fill-opacity="0.129">
   <path d="m256 4.43c-138.94 0-251.57 112.63-251.57 251.57s112.63 251.57 251.57 251.57 251.57-112.63 251.57-251.57-112.63-251.57-251.57-251.57m5.885 38.556c120.9 0 218.9 98 218.9 218.9s-98 218.9-218.9 218.9-218.93-98-218.93-218.9 98.03-218.9 218.93-218.9"/>
   <path d="m256 8.36c-136.77 0-247.64 110.87-247.64 247.64s110.87 247.64 247.64 247.64 247.64-110.87 247.64-247.64-110.87-247.64-247.64-247.64m2.942 31.691c120.9 0 218.9 98 218.9 218.9s-98 218.9-218.9 218.9-218.93-98-218.93-218.9 98.03-218.9 218.93-218.9"/>
  </g>
  <path stroke="#000" stroke-width="4.904" d="m253.04 7.86c-135.42 0-245.19 109.78-245.19 245.19 0 135.42 109.78 245.19 245.19 245.19 135.42 0 245.19-109.78 245.19-245.19 0-135.42-109.78-245.19-245.19-245.19zm0 26.297c120.9 0 218.9 98 218.9 218.9s-98 218.9-218.9 218.9-218.93-98-218.93-218.9 98.03-218.9 218.93-218.9z" stroke-opacity="0.31" fill="#fff"/>
 </g>
 <path opacity="0.25" d="m256.26 137.36l-61.959 98.98-61.961 98.98 146.15 135.16c84.29-9.759 153.98-67.39 181.18-145l-203.41-188.12"/>
 <path d="m379.66 335.59l-123.66-0.137-123.66-0.137 61.96-98.98 61.96-98.98 61.704 99.12z" fill="#fff"/>
</svg>
