<?xml version="1.0" encoding="UTF-8" standalone="no"?>
<svg xmlns="http://www.w3.org/2000/svg" height="512" viewBox="0 0 512 512" width="512" version="1.1">
 <metadata id="metadata74"/>
 <g id="g4" transform="translate(0,-540.36)">
  <path id="path6" d="m471.95 793.41c0 120.9-98.01 218.9-218.9 218.9-120.9 0-218.9-98.01-218.9-218.9 0-120.9 98.01-218.9 218.9-218.9 120.9 0 218.9 98.01 218.9 218.9" fill-rule="evenodd" fill="#ef6a47"/>
  <path id="path8" d="m256 99.94c-86.19 0-156.06 69.871-156.06 156.06 0 43.36 17.706 82.6 46.25 110.88 0.641 0.658 1.285 1.291 1.938 1.938 0.301 0.304 0.603 0.605 0.906 0.906 0.331 0.334 0.667 0.669 1 1 0.331 0.334 0.667 0.669 1 1 0.331 0.335 0.666 0.668 1 1 0.75 0.758 1.485 1.507 2.25 2.25 0.27 0.272 0.541 0.543 0.813 0.813 0.301 0.304 0.603 0.605 0.906 0.906 0.331 0.334 0.667 0.669 1 1 0.331 0.335 0.666 0.668 1 1 0.75 0.758 1.485 1.507 2.25 2.25 0.271 0.272 0.54 0.542 0.813 0.813 0.301 0.304 0.603 0.605 0.906 0.906 0.331 0.334 0.667 0.669 1 1 0.331 0.335 0.666 0.668 1 1 0.373 0.377 0.748 0.752 1.125 1.125 0.641 0.658 1.285 1.291 1.938 1.938 0.301 0.304 0.603 0.605 0.906 0.906 0.331 0.334 0.667 0.669 1 1 0.331 0.334 0.667 0.669 1 1 0.487 0.492 0.975 0.983 1.469 1.469l0.125 0.125c0.079 0.078 0.171 0.141 0.25 0.219 0.031 0.032 0.063 0.062 0.094 0.094 0.116 0.113 0.227 0.231 0.344 0.344 0.03 0.032 0.063 0.062 0.094 0.094 0.057 0.058 0.099 0.129 0.156 0.188l0.063 0.063c0.021 0.021 0.041 0.042 0.063 0.063 0.434 0.442 0.873 0.876 1.313 1.313 0.331 0.334 0.667 0.669 1 1 0.331 0.334 0.667 0.669 1 1 0.331 0.335 0.666 0.668 1 1 0.75 0.758 1.485 1.507 2.25 2.25 0.27 0.272 0.541 0.543 0.813 0.813 0.301 0.304 0.603 0.605 0.906 0.906 0.331 0.334 0.667 0.669 1 1 0.331 0.335 0.666 0.668 1 1 0.75 0.758 1.485 1.507 2.25 2.25 0.271 0.272 0.54 0.542 0.813 0.813 0.301 0.304 0.603 0.605 0.906 0.906 0.331 0.334 0.667 0.669 1 1 0.331 0.335 0.666 0.668 1 1 0.373 0.377 0.748 0.752 1.125 1.125 0.641 0.658 1.285 1.291 1.938 1.938 0.301 0.304 0.603 0.605 0.906 0.906 0.331 0.334 0.667 0.669 1 1 0.331 0.334 0.667 0.669 1 1 0.331 0.335 0.666 0.668 1 1 0.75 0.758 1.485 1.507 2.25 2.25 0.27 0.272 0.541 0.543 0.813 0.813 0.301 0.304 0.603 0.605 0.906 0.906 0.331 0.334 0.667 0.669 1 1 0.331 0.335 0.666 0.668 1 1 0.75 0.758 1.485 1.507 2.25 2.25 0.271 0.272 0.54 0.542 0.813 0.813 0.301 0.304 0.603 0.605 0.906 0.906 0.331 0.334 0.667 0.669 1 1 0.331 0.335 0.666 0.668 1 1 0.373 0.377 0.748 0.752 1.125 1.125 0.641 0.658 1.285 1.291 1.938 1.938 0.301 0.304 0.603 0.605 0.906 0.906 0.201 0.204 0.391 0.423 0.594 0.625 0.458 0.466 0.943 0.915 1.406 1.375 0.487 0.492 0.975 0.983 1.469 1.469l0.125 0.125c0.079 0.078 0.171 0.141 0.25 0.219 0.031 0.032 0.063 0.062 0.094 0.094 0.116 0.113 0.227 0.231 0.344 0.344 0.03 0.032 0.063 0.062 0.094 0.094 0.057 0.058 0.099 0.129 0.156 0.188l0.063 0.063c0.021 0.021 0.041 0.042 0.063 0.063 0.434 0.442 0.873 0.876 1.313 1.313 0.331 0.334 0.667 0.669 1 1 0.331 0.334 0.667 0.669 1 1 0.331 0.335 0.666 0.668 1 1 0.75 0.758 1.485 1.507 2.25 2.25 0.27 0.272 0.541 0.543 0.813 0.813 0.301 0.304 0.603 0.605 0.906 0.906 0.331 0.334 0.667 0.669 1 1 0.331 0.335 0.666 0.668 1 1 0.75 0.758 1.485 1.507 2.25 2.25 0.271 0.272 0.54 0.542 0.813 0.813 0.301 0.304 0.603 0.605 0.906 0.906 0.331 0.334 0.667 0.669 1 1 0.331 0.335 0.666 0.668 1 1 0.373 0.377 0.748 0.752 1.125 1.125 0.641 0.658 1.285 1.291 1.938 1.938 0.301 0.304 0.603 0.605 0.906 0.906 0.331 0.334 0.667 0.669 1 1 0.331 0.334 0.667 0.669 1 1 0.331 0.335 0.666 0.668 1 1 0.531 0.536 1.056 1.065 1.594 1.594 0.031 0.032 0.063 0.062 0.094 0.094 0.191 0.187 0.371 0.376 0.563 0.563 0.27 0.272 0.541 0.543 0.813 0.813 0.301 0.304 0.603 0.605 0.906 0.906 0.331 0.334 0.667 0.669 1 1 0.331 0.335 0.666 0.668 1 1 0.75 0.758 1.485 1.507 2.25 2.25 0.271 0.272 0.54 0.542 0.813 0.813 0.301 0.304 0.603 0.605 0.906 0.906 0.331 0.334 0.667 0.669 1 1 0.238 0.241 0.479 0.48 0.719 0.719 0.597 0.005 1.183 0.031 1.781 0.031 120.9 0 218.91-98.01 218.91-218.91 0-0.616-0.026-1.229-0.031-1.844-0.031-0.031-0.062-0.063-0.094-0.094-0.334-0.334-0.663-0.669-1-1-0.026-0.026-0.068-0.036-0.094-0.063-0.471-0.479-0.929-0.964-1.406-1.438-0.489-0.493-0.974-0.982-1.469-1.469-0.332-0.332-0.665-0.671-1-1-0.332-0.332-0.665-0.671-1-1-0.334-0.334-0.663-0.669-1-1-0.026-0.026-0.068-0.036-0.094-0.063-0.63-0.64-1.234-1.308-1.875-1.938-0.329-0.329-0.668-0.643-1-0.969-0.332-0.332-0.665-0.671-1-1-0.332-0.332-0.665-0.671-1-1-0.332-0.332-0.665-0.671-1-1l-0.063-0.063c-0.005-0.005-0.026 0.005-0.031 0-0.63-0.64-1.234-1.308-1.875-1.938-0.172-0.172-0.358-0.328-0.531-0.5-0.379-0.382-0.774-0.747-1.156-1.125-0.085-0.081-0.164-0.169-0.25-0.25-0.026-0.026-0.036-0.068-0.063-0.094-0.332-0.332-0.665-0.671-1-1-0.332-0.332-0.665-0.671-1-1-0.11-0.11-0.234-0.203-0.344-0.313-0.154-0.159-0.314-0.31-0.469-0.469-0.068-0.067-0.119-0.151-0.188-0.219l-0.125-0.125c-0.456-0.463-0.913-0.917-1.375-1.375-0.488-0.492-0.974-0.983-1.469-1.469-0.332-0.332-0.665-0.671-1-1-0.332-0.332-0.665-0.671-1-1-0.334-0.334-0.663-0.669-1-1-0.026-0.026-0.068-0.036-0.094-0.063-0.471-0.479-0.929-0.964-1.406-1.438-0.489-0.493-0.974-0.982-1.469-1.469-0.332-0.332-0.665-0.671-1-1-0.332-0.332-0.665-0.671-1-1-0.334-0.334-0.663-0.669-1-1-0.026-0.026-0.068-0.036-0.094-0.063-0.63-0.64-1.234-1.308-1.875-1.938-0.329-0.329-0.668-0.643-1-0.969-0.332-0.332-0.665-0.671-1-1-0.332-0.332-0.665-0.671-1-1-0.332-0.332-0.665-0.671-1-1l-0.063-0.063c-0.005-0.005-0.026 0.005-0.031 0-0.63-0.64-1.234-1.308-1.875-1.938-0.172-0.172-0.358-0.328-0.531-0.5-0.379-0.382-0.774-0.747-1.156-1.125-0.085-0.081-0.164-0.169-0.25-0.25-0.026-0.026-0.036-0.068-0.063-0.094-0.332-0.332-0.665-0.671-1-1-0.332-0.332-0.665-0.671-1-1-0.334-0.334-0.663-0.669-1-1-0.026-0.026-0.068-0.036-0.094-0.063-0.471-0.479-0.929-0.964-1.406-1.438-0.489-0.493-0.974-0.982-1.469-1.469-0.332-0.332-0.665-0.671-1-1-0.332-0.332-0.665-0.671-1-1-0.334-0.334-0.663-0.669-1-1-0.026-0.026-0.068-0.036-0.094-0.063-0.63-0.64-1.234-1.308-1.875-1.938-0.329-0.329-0.668-0.643-1-0.969-0.332-0.332-0.665-0.671-1-1-0.332-0.332-0.665-0.671-1-1-0.334-0.334-0.663-0.669-1-1-0.026-0.026-0.068-0.036-0.094-0.063-0.63-0.64-1.234-1.308-1.875-1.938-0.172-0.172-0.358-0.328-0.531-0.5-0.379-0.382-0.774-0.747-1.156-1.125-0.085-0.081-0.164-0.169-0.25-0.25-0.026-0.026-0.036-0.068-0.063-0.094-0.332-0.332-0.665-0.671-1-1-0.332-0.332-0.665-0.671-1-1l-0.063-0.063c-0.005-0.005-0.026 0.005-0.031 0-0.63-0.64-1.234-1.308-1.875-1.938-0.172-0.172-0.358-0.328-0.531-0.5-0.379-0.382-0.774-0.747-1.156-1.125-0.085-0.081-0.164-0.169-0.25-0.25-0.026-0.026-0.036-0.068-0.063-0.094-0.332-0.332-0.665-0.671-1-1-0.332-0.332-0.665-0.671-1-1-0.334-0.334-0.663-0.669-1-1-0.026-0.026-0.068-0.036-0.094-0.063-0.471-0.479-0.929-0.964-1.406-1.438-0.489-0.493-0.974-0.982-1.469-1.469-0.332-0.332-0.665-0.671-1-1-0.332-0.332-0.665-0.671-1-1-0.334-0.334-0.663-0.669-1-1-0.026-0.026-0.068-0.036-0.094-0.063-0.63-0.64-1.234-1.308-1.875-1.938-0.329-0.329-0.668-0.643-1-0.969-0.332-0.332-0.665-0.671-1-1-0.332-0.332-0.665-0.671-1-1-0.332-0.332-0.665-0.671-1-1l-0.063-0.063c-0.005-0.005-0.026 0.005-0.031 0-0.63-0.64-1.234-1.308-1.875-1.938-0.172-0.172-0.358-0.328-0.531-0.5-0.379-0.382-0.774-0.747-1.156-1.125-0.085-0.081-0.164-0.169-0.25-0.25-0.026-0.026-0.036-0.068-0.063-0.094-0.332-0.332-0.665-0.671-1-1-0.332-0.332-0.665-0.671-1-1-0.11-0.11-0.234-0.203-0.344-0.313-0.154-0.159-0.314-0.31-0.469-0.469-0.068-0.067-0.119-0.151-0.188-0.219l-0.125-0.125c-0.456-0.463-0.913-0.917-1.375-1.375-0.488-0.492-0.974-0.983-1.469-1.469-0.332-0.332-0.665-0.671-1-1-0.332-0.332-0.665-0.671-1-1-0.334-0.334-0.663-0.669-1-1-0.026-0.026-0.068-0.036-0.094-0.063-0.63-0.64-1.234-1.308-1.875-1.938-0.329-0.329-0.668-0.643-1-0.969-0.332-0.332-0.665-0.671-1-1-0.332-0.332-0.665-0.671-1-1-0.334-0.334-0.663-0.669-1-1-0.026-0.026-0.068-0.036-0.094-0.063-0.63-0.64-1.234-1.308-1.875-1.938-0.172-0.172-0.358-0.328-0.531-0.5-0.379-0.382-0.774-0.747-1.156-1.125-0.085-0.081-0.164-0.169-0.25-0.25-0.026-0.026-0.036-0.068-0.063-0.094-0.332-0.332-0.665-0.671-1-1-28.24-28.25-67.25-45.719-110.34-45.719" fill-opacity="0.235" transform="translate(0,540.36)"/>
  <g id="g10" fill-rule="evenodd">
   <path id="path12" fill-opacity="0.067" d="m256 541.36c-140.83 0-255 114.17-255 255s114.17 255 255 255 255-114.17 255-255-114.17-255-255-255m8.827 44.931c120.9 0 218.9 98 218.9 218.9s-98 218.9-218.9 218.9-218.93-98-218.93-218.9 98.03-218.9 218.93-218.9"/>
   <g id="g14" fill-opacity="0.129">
    <path id="path16" d="m256 544.79c-138.94 0-251.57 112.63-251.57 251.57s112.63 251.54 251.57 251.54 251.57-112.6 251.57-251.54-112.63-251.57-251.57-251.57m5.885 38.556c120.9 0 218.9 98 218.9 218.9s-98 218.9-218.9 218.9-218.93-98-218.93-218.9 98.03-218.9 218.93-218.9"/>
    <path id="path18" d="m256 548.72c-136.77 0-247.64 110.87-247.64 247.64s110.87 247.64 247.64 247.64 247.64-110.87 247.64-247.64-110.87-247.64-247.64-247.64m2.942 31.691c120.9 0 218.9 98 218.9 218.9s-98 218.9-218.9 218.9-218.93-98-218.93-218.9 98.03-218.9 218.93-218.9"/>
   </g>
   <path id="path20" d="m253.04 548.22c-135.42 0-245.19 109.78-245.19 245.19 0 135.42 109.78 245.19 245.19 245.19 135.42 0 245.19-109.78 245.19-245.19 0-135.42-109.78-245.19-245.19-245.19zm0 26.297c120.9 0 218.9 98 218.9 218.9s-98 218.9-218.9 218.9-218.93-98-218.93-218.9 98.03-218.9 218.93-218.9z" stroke-opacity="0.31" stroke="#000" stroke-width="4.904" fill="#fff"/>
  </g>
  <path id="path68" fill="#fff" d="m256 640.29c-86.19 0-156.06 69.891-156.06 156.08 0 86.19 69.864 156.06 156.06 156.06 86.19 0 156.06-69.864 156.06-156.06 0-86.19-69.864-156.08-156.06-156.08m57.62 29.524c30.524 13.92 55.13 38.55 69.01 69.1l-67.3 25.25c-6.18-11.367-15.556-20.741-26.891-26.972l24.447-64.5 0.725-2.875m-115.25 0.081 25.25 67.3c-11.367 6.18-20.741 15.556-26.972 26.891l-64.5-24.447-2.875-0.725c13.92-30.524 38.55-55.13 69.1-69.01m57.62 75.919c27.92 0 50.559 22.639 50.559 50.559s-22.639 50.53-50.559 50.53-50.559-22.612-50.559-50.53c0-27.92 22.639-50.559 50.559-50.559m59.34 83.79 67.3 25.25c-13.881 30.545-38.491 55.18-69.01 69.1l-0.725-2.875-24.447-64.5c11.336-6.231 20.711-15.604 26.891-26.972m-118.69 0.081c6.231 11.336 15.604 20.711 26.972 26.891l-25.25 67.3c-30.545-13.881-55.18-38.491-69.1-69.01l2.875-0.725 64.5-24.447"/>
 </g>
</svg>
