<?xml version="1.0" encoding="UTF-8" standalone="no"?>
<svg xmlns="http://www.w3.org/2000/svg" height="512" viewBox="0 0 512 512" width="512" version="1.1" xmlns:xlink="http://www.w3.org/1999/xlink">
 <metadata id="metadata162"/>
 <g id="g4" transform="translate(0,-540.36)">
  <text id="text6" font-size="208.33" line-height="125%" y="1089.88" x="-1160.48" font-family="Gentium Book Basic" word-spacing="0" letter-spacing="0"><tspan id="tspan8" y="1089.88" x="-1160.48"/>
  </text>
  <text id="text10" font-size="75.7" transform="scale(4.0128 .2492)" y="3810.63" x="28.534" font-family="Arial" text-anchor="middle"/>
  <g id="g12" fill-rule="evenodd">
   <path id="path14" fill="#282629" d="m471.95 793.41c0 120.9-98.01 218.9-218.9 218.9-120.9 0-218.9-98.01-218.9-218.9 0-120.9 98.01-218.9 218.9-218.9 120.9 0 218.9 98.01 218.9 218.9"/>
   <path id="path16" d="m132.81 116.41v63.31h1v1h1v1h1v1h0.969v0.969h1v1h1v1h1v1h1v1h1v0.281h-8.969v63.28h1v1.001h1v1h1v1h0.969v0.969h1v1h1v1h1v1h1v1h1v1h0.969v0.531h-9.938v63.28h1v1.001h1v1h1v1h0.969v0.969h1v1h1v1h1v1h1v1h1v0.281h-8.969v63.31h1v1h1v1h1v1h0.969v0.969h1v1h1.001v1h1v1h1v1h1.001v1h0.969v0.969h1v1h1.001v1h1v1h1v1h1v1h0.969v0.969h1v1h1v1h1v1h1v1h1v1h0.969v0.969h1v1h1v1h1v1h1v1h1v1h1v1h0.969v0.969h1v1h1v1h1v1h1v1h1v1h0.969v0.969h1v1h1v1h1v1h1v1h1v1h0.969v0.969h1v1h1v1h1v1h1v1h1v1h1v1h0.969v0.969h1v1h1v1h1v1h1v1h1v1h0.969v0.969h1v1h1v1h1v1h1v1h1v1h0.969v0.969h1v1h1v1h1v1h1v1h1v1h0.969v0.969h1v1h1v1h1v1h1v1h1v1h1v0.281c15.622 3.539 31.871 5.438 48.563 5.438 120.9 0 218.91-98.01 218.91-218.91 0-16.88-1.915-33.31-5.531-49.09h-0.656v-1h-1v-1h-1v-1h-0.969v-0.969h-1v-1h-1v-1h-1v-1h-1v-1h-1v-1h-0.969v-0.969h-1v-1h-1v-1h-1v-1h-1v-1h-1v-1h-0.969v-0.969h-1v-1h-1v-1h-1v-1h-1v-1h-1v-1h-1v-1h-0.969v-0.969h-1v-1h-1v-1h-1v-1h-1v-1h-1v-1h-0.969v-0.969h-1v-1h-1v-1h-1v-1h-1v-1h-1v-1h-0.969v-0.969h-1v-1h-1v-1h-1v-1h-1v-1h-1v-1h-0.969v-0.969h-1v-1h-1v-1h-1v-1h-1v-1h-1v-1h-1v-1h-0.969v-0.969h-1v-1h-1v-1h-1v-1h-1v-1h-1v-1h-0.969v-0.969h-1v-1h-1v-1h-1v-1h-1v-1h-1v-1h-0.969v-0.969h-1v-1h-1v-1h-1v-1h-1v-1h-1v-1h-1v-1h-0.969v-0.969h-1v-1h-1v-1h-1v-1h-1v-1h-1v-1h-0.969v-0.969h-1v-1h-1v-1h-1v-1h-1v-1h-1v-1h-0.969v-0.969h-1v-1h-1v-1h-1v-1h-1v-1h-1v-1h-0.969v-0.969h-1v-1h-1v-1.001h-1v-1h-17.12v6.969h-0.594v-1h-1v-1h-1v-1h-0.969v-0.969h-1v-1h-1v-1.001h-1v-1h-18v7.969h-0.906v-1h-1v-1h-1v-1h-1v-1h-0.969v-0.969h-1v-1h-1v-1.001h-1v-1h-17.969v63.53h1v1.001h1v1h1v1h0.969v0.969h1v1h1v1h1v1h1v0.906h-7.969v40.03h-0.875v-1h-1v-1h-0.969v-0.969h-1v-1h-1v-1h-1v-1h-1v-1h-1v-1h-0.969v-0.969h-1v-1h-1v-1h-1v-1h-1v-1h-1v-1h-0.969v-0.969h-1v-1h-1v-1h-1v-1h-1v-1h-1v-1h-0.969v-0.969h-1v-1h-1v-1h-1v-1h-1v-1h-1v-1h-1v-1h-0.969v-0.969h-1v-1h-1v-1h-1v-1h-1v-1h-1v-1h-0.969v-0.969h-1v-1h-1v-1h-1v-1h-1v-1h-1v-1h-0.969v-0.969h-1v-1h-1v-1h-1v-1h-1v-1h-1v-1h-1v-1h-0.969v-0.969h-1v-1h-1v-1h-1v-1h-1v-1h-1v-1h-0.969v-0.969h-1v-1h-1v-1h-1v-1h-1v-1h-1v-1h-0.95v-0.969h-1v-1h-1v-1h-1v-1h-1v-1h-1v-1h-0.969v-0.969h-1v-1h-1v-1h-1v-1h-1v-1h-1v-1h-1v-1h-0.969v-0.969h-1v-1h-1v-1h-1v-1h-1v-1h-1v-1h-0.969v-0.969h-1v-1h-1v-1h-1v-1h-1v-1h-1v-1h-0.969v-0.969h-1v-1h-1v-1h-1v-1h-1v-1h-1v-1h-1v-1h-0.969v-0.969h-1v-1h-1v-1h-1v-1h-1v-1h-1v-1h-0.969v-0.969h-1v-1h-1v-1h-1v-1h-1v-1h-1v-1h-0.969v-0.969h-1v-1h-1v-1h-1v-1h-1v-1h-1v-1h-0.969v-0.969h-1v-1h-1v-1.001h-1v-1h-17.969v7.969h-0.906v-1h-1v-1h-1v-1h-1v-1h-0.969v-0.969h-1v-1h-1v-1.001h-1v-1h-18v6.969h-0.594v-1h-1v-1h-1v-1h-0.969v-0.969h-1v-1h-1v-1h-1v-1h-17.12m229.66 7.5h0.594v0.469h-0.594v-0.469m1 1h0.594v0.469h-0.594v-0.469m1 1h0.594v0.438h-0.594v-0.438m0.969 1h0.594v0.438h-0.594v-0.438m1 0.969h0.594v0.469h-0.594v-0.469m1 1h0.594v0.469h-0.594v-0.469m1 1h0.594v0.469h-0.594v-0.469m1 1h0.5v0.469h-0.5v-0.469" fill-opacity="0.235" transform="translate(0,540.36)"/>
   <path id="path18" fill-opacity="0.067" d="m256 541.36c-140.83 0-255 114.17-255 255s114.17 255 255 255 255-114.17 255-255-114.17-255-255-255m8.827 44.931c120.9 0 218.9 98 218.9 218.9s-98 218.9-218.9 218.9-218.93-98-218.93-218.9 98.03-218.9 218.93-218.9"/>
   <g id="g20" fill-opacity="0.129">
    <path id="path22" d="m256 544.79c-138.94 0-251.57 112.63-251.57 251.57s112.63 251.54 251.57 251.54 251.57-112.6 251.57-251.54-112.63-251.57-251.57-251.57m5.885 38.556c120.9 0 218.9 98 218.9 218.9s-98 218.9-218.9 218.9-218.93-98-218.93-218.9 98.03-218.9 218.93-218.9"/>
    <path id="path24" d="m256 548.72c-136.77 0-247.64 110.87-247.64 247.64s110.87 247.64 247.64 247.64 247.64-110.87 247.64-247.64-110.87-247.64-247.64-247.64m2.942 31.691c120.9 0 218.9 98 218.9 218.9s-98 218.9-218.9 218.9-218.93-98-218.93-218.9 98.03-218.9 218.93-218.9"/>
   </g>
   <path id="path26" d="m253.04 548.22c-135.42 0-245.19 109.78-245.19 245.19 0 135.42 109.78 245.19 245.19 245.19 135.42 0 245.19-109.78 245.19-245.19 0-135.42-109.78-245.19-245.19-245.19zm0 26.297c120.9 0 218.9 98 218.9 218.9s-98 218.9-218.9 218.9-218.93-98-218.93-218.9 98.03-218.9 218.93-218.9z" stroke-opacity="0.31" stroke="#000" stroke-width="4.904" fill="#fff"/>
  </g>
  <text id="text28" font-size="129.23" line-height="125%" y="771.72" x="729.64" font-family="Gentium Book Basic" word-spacing="0" letter-spacing="0"><tspan id="tspan30" y="771.72" x="729.64"/>
  </text>
  <text id="text32" font-size="46.954" transform="scale(4.0128 .2492)" y="2747.64" x="378.91" font-family="Arial" text-anchor="middle"/>
  <text id="text34" font-size="129.23" line-height="125%" y="691.72" x="1310.91" font-family="Gentium Book Basic" word-spacing="0" letter-spacing="0"><tspan id="tspan36" y="691.72" x="1310.91"/>
  </text>
  <text id="text38" font-size="46.954" transform="scale(4.0128 .2492)" y="2426.6" x="523.76" font-family="Arial" text-anchor="middle"/>
  <text id="text40" font-size="129.23" line-height="125%" y="510.46" x="239.33" font-family="Gentium Book Basic" word-spacing="0" letter-spacing="0"><tspan id="tspan42" y="510.46" x="239.33"/>
  </text>
  <text id="text44" font-size="46.954" transform="scale(4.0128 .2492)" y="1699.25" x="256.72" font-family="Arial" text-anchor="middle"/>
  <text id="text46" font-size="129.23" line-height="125%" y="293.99" x="1337.38" font-family="Gentium Book Basic" word-spacing="0" letter-spacing="0"><tspan id="tspan48" y="293.99" x="1337.38"/>
  </text>
  <text id="text50" font-size="46.954" transform="scale(4.0128 .2492)" y="830.57" x="530.36" font-family="Arial" text-anchor="middle"/>
  <text id="text52" font-size="129.23" line-height="125%" y="213.99" x="1918.65" font-family="Gentium Book Basic" word-spacing="0" letter-spacing="0"><tspan id="tspan54" y="213.99" x="1918.65"/>
  </text>
  <text id="text56" font-size="46.954" transform="scale(4.0128 .2492)" y="509.54" x="675.21" font-family="Arial" text-anchor="middle"/>
  <text id="text58" font-size="129.23" line-height="125%" y="-258.41" x="1529.53" font-family="Gentium Book Basic" word-spacing="0" letter-spacing="0"><tspan id="tspan60" y="-258.41" x="1529.53"/>
  </text>
  <text id="text62" font-size="46.954" transform="scale(4.0128 .2492)" y="-1386.12" x="578.24" font-family="Arial" text-anchor="middle"/>
  <text id="text64" font-size="129.23" line-height="125%" y="-338.42" x="2110.79" font-family="Gentium Book Basic" word-spacing="0" letter-spacing="0"><tspan id="tspan66" y="-338.42" x="2110.79"/>
  </text>
  <text id="text68" font-size="46.954" transform="scale(4.0128 .2492)" y="-1707.16" x="723.09" font-family="Arial" text-anchor="middle"/>
  <text id="text70" font-size="208.33" line-height="125%" y="1076.3" x="277.99" font-family="Gentium Book Basic" word-spacing="0" letter-spacing="0"><tspan id="tspan72" y="1076.3" x="277.99"/>
  </text>
  <g id="g74" transform="matrix(.81875 0 0 .81875 44.68 143.61)">
   <g id="g76" transform="matrix(1.2002 0 0 1.2002 -1.786 -164.81)">
    <g id="g78" transform="translate(-48.19)">
     <path id="0" d="m321.36 659.56h18.314v64.65h-18.31z" fill-rule="evenodd" fill="#5c805a"/>
     <path id="1" d="m347.67 659.56h18.314v64.65h-18.31z" fill-rule="evenodd" fill="#5c805a"/>
     <path id="2" d="m321.36 732.21h18.314v64.65h-18.31z" fill-rule="evenodd" fill="#5c805a"/>
     <path id="3" d="m347.67 732.21h18.314v64.65h-18.31z" fill-rule="evenodd" fill="#5c805a"/>
     <path id="4" d="m321.36 804.86h18.314v64.65h-18.31z" fill-rule="evenodd" fill="#5c805a"/>
     <path id="5" d="m347.67 804.86h18.314v64.65h-18.31z" fill-rule="evenodd" fill="#5c805a"/>
     <path id="6" d="m321.36 877.51h18.314v64.65h-18.31z" fill-rule="evenodd" fill="#5c805a"/>
     <path id="7" d="m347.67 877.51h18.314v64.65h-18.31z" fill-rule="evenodd" fill="#5c805a"/>
    </g>
    <g id="g88" transform="translate(-206.07)">
     <use id="use90" xlink:href="#0" height="1" width="1"/>
     <use id="use92" xlink:href="#1" height="1" width="1"/>
     <use id="use94" xlink:href="#2" height="1" width="1"/>
     <use id="use96" xlink:href="#3" height="1" width="1"/>
     <use id="use98" xlink:href="#4" height="1" width="1"/>
     <use id="use100" xlink:href="#5" height="1" width="1"/>
     <use id="use102" xlink:href="#6" height="1" width="1"/>
     <use id="use104" xlink:href="#7" height="1" width="1"/>
    </g>
    <g id="g106" fill="#5c805a" transform="translate(0,27.27)" fill-rule="evenodd">
     <path id="path108" d="m167.91 738.35h18.314v64.65h-18.31z"/>
     <path id="path110" d="m194.23 738.35h18.314v64.65h-18.31z"/>
     <g id="g112" transform="translate(52.628,-72.65)">
      <path id="path114" d="m167.91 811h18.314v64.65h-18.31z"/>
      <path id="path116" d="m194.23 811h18.314v64.65h-18.31z"/>
     </g>
    </g>
   </g>
   <g id="g118" font-weight="bold" transform="translate(7.258 -.039)" font-size="88.65" font-family="Sans" line-height="125%" fill="#fff" word-spacing="0" letter-spacing="0">
    <text id="text120" y="690.1" x="378.16"><tspan id="tspan122" y="690.1" x="378.16">]</tspan>
    </text>
    <text id="text124" y="777.48" x="378.16"><tspan id="tspan126" y="777.48" x="378.16">]</tspan>
    </text>
    <g id="g128" transform="translate(0,176.27)">
     <text id="text130" y="690.1" x="378.16"><tspan id="tspan132" y="690.1" x="378.16">]</tspan>
     </text>
     <text id="text134" y="777.48" x="378.16"><tspan id="tspan136" y="777.48" x="378.16">]</tspan>
     </text>
    </g>
   </g>
   <g id="g138" font-weight="bold" transform="matrix(-1 0 0 1 508.95 -.039)" font-size="88.65" font-family="Sans" line-height="125%" fill="#fff" word-spacing="0" letter-spacing="0">
    <text id="text140" y="690.1" x="378.16"><tspan id="tspan142" y="690.1" x="378.16">]</tspan>
    </text>
    <text id="text144" y="777.48" x="378.16"><tspan id="tspan146" y="777.48" x="378.16">]</tspan>
    </text>
    <g id="g148" transform="translate(0,176.27)">
     <text id="text150" y="690.1" x="378.16"><tspan id="tspan152" y="690.1" x="378.16">]</tspan>
     </text>
     <text id="text154" y="777.48" x="378.16"><tspan id="tspan156" y="777.48" x="378.16">]</tspan>
     </text>
    </g>
   </g>
  </g>
 </g>
</svg>
