<?xml version="1.0" encoding="UTF-8" standalone="no"?>
<svg xmlns="http://www.w3.org/2000/svg" viewBox="0 0 512 512">
 <path fill-rule="evenodd" d="m471.95 253.05c0 120.9-98.01 218.91-218.91 218.91s-218.91-98.01-218.91-218.91 98.01-218.91 218.91-218.91 218.91 98.01 218.91 218.91" fill="#369"/>
 <path d="m253.03 34.16c-20.229 0-39.811 2.739-58.41 7.875v422.03c18.601 5.139 38.17 7.906 58.41 7.906 22.395 0 43.998-3.377 64.34-9.625v-418.56c-20.346-6.248-41.949-9.625-64.34-9.625" fill="#f38725"/>
 <g fill-rule="evenodd">
  <path d="m256 1c-140.83 0-255 114.17-255 255s114.17 255 255 255 255-114.17 255-255-114.17-255-255-255m8.827 44.931c120.9 0 218.9 98 218.9 218.9s-98 218.9-218.9 218.9-218.93-98-218.93-218.9 98.03-218.9 218.93-218.9" fill-opacity="0.067"/>
  <g fill-opacity="0.129">
   <path d="m256 4.43c-138.94 0-251.57 112.63-251.57 251.57s112.63 251.57 251.57 251.57 251.57-112.63 251.57-251.57-112.63-251.57-251.57-251.57m5.885 38.556c120.9 0 218.9 98 218.9 218.9s-98 218.9-218.9 218.9-218.93-98-218.93-218.9 98.03-218.9 218.93-218.9"/>
   <path d="m256 8.36c-136.77 0-247.64 110.87-247.64 247.64s110.87 247.64 247.64 247.64 247.64-110.87 247.64-247.64-110.87-247.64-247.64-247.64m2.942 31.691c120.9 0 218.9 98 218.9 218.9s-98 218.9-218.9 218.9-218.93-98-218.93-218.9 98.03-218.9 218.93-218.9"/>
  </g>
  <path stroke="#000" stroke-width="4.904" d="m253.04 7.86c-135.42 0-245.19 109.78-245.19 245.19 0 135.42 109.78 245.19 245.19 245.19 135.42 0 245.19-109.78 245.19-245.19 0-135.42-109.78-245.19-245.19-245.19m0 26.297c120.9 0 218.9 98 218.9 218.9s-98 218.9-218.9 218.9-218.93-98-218.93-218.9 98.03-218.9 218.93-218.9z" stroke-opacity="0.31" fill="#fff"/>
 </g>
 <text font-size="129.23" y="231.36" x="729.64" font-family="&apos;Gentium Book Basic&apos;" line-height="125%" word-spacing="0" letter-spacing="0"><tspan y="231.36" x="729.64"/>
 </text>
 <text transform="scale(4.0128.2492)" font-size="46.954" y="579.26" x="378.91" font-family="Arial" text-anchor="middle"/>
 <text font-size="129.23" y="151.36" x="1310.91" font-family="&apos;Gentium Book Basic&apos;" line-height="125%" word-spacing="0" letter-spacing="0"><tspan y="151.36" x="1310.91"/>
 </text>
 <text transform="scale(4.0128.2492)" font-size="46.954" y="258.22" x="523.76" font-family="Arial" text-anchor="middle"/>
 <text font-size="129.23" y="-29.9" x="239.33" font-family="&apos;Gentium Book Basic&apos;" line-height="125%" word-spacing="0" letter-spacing="0"><tspan y="-29.9" x="239.33"/>
 </text>
 <text transform="scale(4.0128.2492)" font-size="46.954" y="-469.13" x="256.72" font-family="Arial" text-anchor="middle"/>
 <text font-size="129.23" y="-246.37" x="1337.38" font-family="&apos;Gentium Book Basic&apos;" line-height="125%" word-spacing="0" letter-spacing="0"><tspan y="-246.37" x="1337.38"/>
 </text>
 <text transform="scale(4.0128.2492)" font-size="46.954" y="-1337.8" x="530.36" font-family="Arial" text-anchor="middle"/>
 <text font-size="129.23" y="-326.37" x="1918.65" font-family="&apos;Gentium Book Basic&apos;" line-height="125%" word-spacing="0" letter-spacing="0"><tspan y="-326.37" x="1918.65"/>
 </text>
 <text transform="scale(4.0128.2492)" font-size="46.954" y="-1658.83" x="675.21" font-family="Arial" text-anchor="middle"/>
 <text font-size="129.23" y="-798.77" x="1529.53" font-family="&apos;Gentium Book Basic&apos;" line-height="125%" word-spacing="0" letter-spacing="0"><tspan y="-798.77" x="1529.53"/>
 </text>
 <text transform="scale(4.0128.2492)" font-size="46.954" y="-3554.48" x="578.24" font-family="Arial" text-anchor="middle"/>
 <text font-size="129.23" y="-878.78" x="2110.79" font-family="&apos;Gentium Book Basic&apos;" line-height="125%" word-spacing="0" letter-spacing="0"><tspan y="-878.78" x="2110.79"/>
 </text>
 <text transform="scale(4.0128.2492)" font-size="46.954" y="-3875.52" x="723.09" font-family="Arial" text-anchor="middle"/>
 <text font-size="208.33" y="535.94" x="277.99" font-family="&apos;Gentium Book Basic&apos;" line-height="125%" word-spacing="0" letter-spacing="0"><tspan y="535.94" x="277.99"/>
 </text>
 <path opacity="0.25" d="m256 95.52c-22.11 0-40.19 18.08-40.19 40.19 0 10.95 4.435 20.812 11.6 27.977l39.98 39.98c-3.616-1.076-7.437-1.664-11.391-1.664-22.11 0-40.19 18.08-40.19 40.19 0 10.95 4.435 20.81 11.6 27.975l39.982 39.982c-3.617-1.077-7.438-1.664-11.393-1.664-22.11 0-40.19 18.08-40.19 40.19 0 3.954 0.588 7.775 1.664 11.391l-39.98-39.98c-7.164-7.164-17.03-11.6-27.977-11.6-22.11 0-40.19 18.08-40.19 40.19 0 11.05 4.521 21.1 11.805 28.385l91.08 91.08c13.228 2.495 26.871 3.816 40.824 3.816 102.93 0 189.24-71.04 212.64-166.76l-169.49-169.49c0-22.11-18.08-40.19-40.19-40.19"/>
 <path d="m256 95.52c-22.11 0-40.19 18.08-40.19 40.19s18.08 39.775 40.19 39.775 40.19-17.668 40.19-39.775c0-22.11-18.08-40.19-40.19-40.19m0 106.48c-22.11 0-40.19 18.08-40.19 40.19s18.08 39.775 40.19 39.775 40.19-17.668 40.19-39.775c0-22.11-18.08-40.19-40.19-40.19m-106.48 106.48c-22.11 0-40.19 18.08-40.19 40.19s18.08 40.19 40.19 40.19 39.775-18.08 39.775-40.19-17.667-40.19-39.775-40.19m106.48 0c-22.11 0-40.19 18.08-40.19 40.19s18.08 40.19 40.19 40.19 40.19-18.08 40.19-40.19-18.08-40.19-40.19-40.19m106.48 0c-22.11 0-39.775 18.08-39.775 40.19s17.668 40.19 39.775 40.19c22.11 0 40.19-18.08 40.19-40.19s-18.08-40.19-40.19-40.19" fill="#fff"/>
</svg>
