<?xml version="1.0" encoding="UTF-8" standalone="no"?>
<svg
   xmlns:dc="http://purl.org/dc/elements/1.1/"
   xmlns:cc="http://creativecommons.org/ns#"
   xmlns:rdf="http://www.w3.org/1999/02/22-rdf-syntax-ns#"
   xmlns:svg="http://www.w3.org/2000/svg"
   xmlns="http://www.w3.org/2000/svg"
   xmlns:sodipodi="http://sodipodi.sourceforge.net/DTD/sodipodi-0.dtd"
   xmlns:inkscape="http://www.inkscape.org/namespaces/inkscape"
   height="512"
   viewBox="0 0 512 512"
   width="512"
   version="1.1"
   id="svg2"
   inkscape:version="0.91 r13725"
   sodipodi:docname="preferences-desktop-default-applications.svg">
  <defs
     id="defs27" />
  <sodipodi:namedview
     pagecolor="#ffffff"
     bordercolor="#666666"
     borderopacity="1"
     objecttolerance="10"
     gridtolerance="10"
     guidetolerance="10"
     inkscape:pageopacity="0"
     inkscape:pageshadow="2"
     inkscape:window-width="1680"
     inkscape:window-height="999"
     id="namedview25"
     showgrid="false"
     inkscape:zoom="0.4609375"
     inkscape:cx="256"
     inkscape:cy="256"
     inkscape:window-x="0"
     inkscape:window-y="25"
     inkscape:window-maximized="1"
     inkscape:current-layer="svg2" />
  <metadata
     id="metadata80">
    <rdf:RDF>
      <cc:Work
         rdf:about="">
        <dc:format>image/svg+xml</dc:format>
        <dc:type
           rdf:resource="http://purl.org/dc/dcmitype/StillImage" />
      </cc:Work>
    </rdf:RDF>
  </metadata>
  <g
     id="g4"
     font-family="Gentium Book Basic"
     line-height="125%"
     word-spacing="0"
     letter-spacing="0" />
  <g
     id="g14"
     fill="#654641" />
  <path
     id="path40"
     fill-rule="evenodd"
     fill="#fff"
     transform="matrix(1.5323 0 0 1.5323 42.896 -396.33)"
     d="m280 423.79a142.86 142.86 0 1 1 -285.71 0 142.86 142.86 0 1 1 285.71 0"
     style="fill:#7dabc4;fill-opacity:1" />
  <path
     style="fill-opacity:0.23500001;fill-rule:evenodd"
     inkscape:connector-curvature="0"
     d="m 255.56,125.31 c -15.585,0.07 -34.37,69.53 -46.938,78.75 -12.567,9.217 -84.47,6.25 -89.22,21.09 -1.735,5.422 5.219,14.12 14.969,23.688 0.095,0.096 0.186,0.185 0.281,0.281 0.165,0.161 0.334,0.307 0.5,0.469 0.172,0.175 0.325,0.356 0.5,0.531 0.164,0.16 0.335,0.308 0.5,0.469 0.172,0.175 0.325,0.356 0.5,0.531 0.016,0.016 0.047,0.016 0.063,0.031 0.031,0.032 0.063,0.062 0.094,0.094 0.087,0.088 0.162,0.193 0.25,0.281 0.15,0.146 0.317,0.291 0.469,0.438 0.048,0.048 0.077,0.108 0.125,0.156 0.155,0.151 0.312,0.286 0.469,0.438 0.031,0.032 0.063,0.062 0.094,0.094 0.152,0.154 0.284,0.314 0.438,0.469 0.021,0.021 0.041,0.042 0.063,0.063 0.57,0.583 1.155,1.159 1.75,1.75 l 0.156,0.156 c 0.161,0.16 0.337,0.308 0.5,0.469 0.172,0.175 0.325,0.356 0.5,0.531 0.165,0.161 0.334,0.307 0.5,0.469 0.284,0.288 0.554,0.585 0.844,0.875 0.043,0.042 0.082,0.083 0.125,0.125 0.177,0.18 0.351,0.35 0.531,0.531 0.287,0.281 0.583,0.562 0.875,0.844 0.031,0.032 0.063,0.062 0.094,0.094 0.016,0.016 0.015,0.046 0.031,0.063 0.021,0.021 0.041,0.042 0.063,0.063 0.56,0.573 1.135,1.138 1.719,1.719 0.064,0.064 0.124,0.123 0.188,0.188 0.161,0.16 0.337,0.308 0.5,0.469 0.172,0.175 0.325,0.356 0.5,0.531 0.165,0.161 0.334,0.307 0.5,0.469 0.172,0.175 0.325,0.356 0.5,0.531 0.164,0.16 0.335,0.308 0.5,0.469 0.172,0.175 0.325,0.356 0.5,0.531 0.016,0.016 0.047,0.016 0.063,0.031 0.031,0.032 0.063,0.062 0.094,0.094 0.087,0.088 0.162,0.193 0.25,0.281 0.15,0.146 0.317,0.291 0.469,0.438 0.031,0.032 0.063,0.062 0.094,0.094 0.016,0.016 0.015,0.046 0.031,0.063 0.021,0.021 0.041,0.042 0.063,0.063 0.56,0.573 1.135,1.138 1.719,1.719 0.064,0.064 0.124,0.123 0.188,0.188 0.161,0.16 0.337,0.308 0.5,0.469 0.172,0.175 0.325,0.356 0.5,0.531 0.165,0.161 0.334,0.307 0.5,0.469 0.172,0.175 0.325,0.356 0.5,0.531 0.164,0.16 0.335,0.308 0.5,0.469 0.172,0.175 0.325,0.356 0.5,0.531 0.016,0.016 0.047,0.016 0.063,0.031 0.031,0.032 0.063,0.062 0.094,0.094 0.087,0.088 0.162,0.193 0.25,0.281 0.15,0.146 0.317,0.291 0.469,0.438 0.031,0.032 0.063,0.062 0.094,0.094 0.005,0.005 -0.005,0.026 0,0.031 l 0.031,0.031 c 0.021,0.021 0.041,0.042 0.063,0.063 0.426,0.436 0.841,0.873 1.281,1.313 0.474,0.482 0.979,0.951 1.469,1.438 l 0.156,0.156 c 0.161,0.16 0.337,0.308 0.5,0.469 0.172,0.175 0.325,0.356 0.5,0.531 0.165,0.161 0.334,0.307 0.5,0.469 0.172,0.175 0.325,0.356 0.5,0.531 0.016,0.016 0.047,0.016 0.063,0.031 0.031,0.032 0.063,0.062 0.094,0.094 0.087,0.088 0.162,0.193 0.25,0.281 0.15,0.146 0.317,0.291 0.469,0.438 0.048,0.048 0.077,0.108 0.125,0.156 0.155,0.151 0.312,0.286 0.469,0.438 0.031,0.032 0.063,0.062 0.094,0.094 0.021,0.022 0.042,0.041 0.063,0.063 0.131,0.133 0.243,0.273 0.375,0.406 0.021,0.021 0.041,0.042 0.063,0.063 0.56,0.573 1.135,1.138 1.719,1.719 0.064,0.064 0.124,0.123 0.188,0.188 0.161,0.16 0.337,0.308 0.5,0.469 0.172,0.175 0.325,0.356 0.5,0.531 0.165,0.161 0.334,0.307 0.5,0.469 0.284,0.288 0.554,0.585 0.844,0.875 0.043,0.042 0.082,0.083 0.125,0.125 0.177,0.18 0.351,0.35 0.531,0.531 0.287,0.281 0.583,0.562 0.875,0.844 0.031,0.032 0.063,0.062 0.094,0.094 0.016,0.016 0.015,0.046 0.031,0.063 0.021,0.021 0.041,0.042 0.063,0.063 0.56,0.573 1.135,1.138 1.719,1.719 0.064,0.064 0.124,0.123 0.188,0.188 0.161,0.16 0.337,0.308 0.5,0.469 0.172,0.175 0.325,0.356 0.5,0.531 0.165,0.161 0.334,0.307 0.5,0.469 0.172,0.175 0.325,0.356 0.5,0.531 0.164,0.16 0.335,0.308 0.5,0.469 0.172,0.175 0.325,0.356 0.5,0.531 0.016,0.016 0.047,0.016 0.063,0.031 0.031,0.032 0.063,0.062 0.094,0.094 0.087,0.088 0.162,0.193 0.25,0.281 0.15,0.146 0.317,0.291 0.469,0.438 0.031,0.032 0.063,0.062 0.094,0.094 0.016,0.016 0.015,0.046 0.031,0.063 0.021,0.021 0.041,0.042 0.063,0.063 0.56,0.573 1.135,1.138 1.719,1.719 0.064,0.064 0.124,0.123 0.188,0.188 0.161,0.16 0.337,0.308 0.5,0.469 0.172,0.175 0.325,0.356 0.5,0.531 0.165,0.161 0.334,0.307 0.5,0.469 0.172,0.175 0.325,0.356 0.5,0.531 0.142,0.139 0.294,0.267 0.438,0.406 0.005,0.005 -0.005,0.026 0,0.031 4.553,15.14 -19.889,81.32 -7.781,90.97 0.326,0.422 0.692,0.758 1.094,1.063 0.306,0.381 0.629,0.719 1,1 0.281,0.351 0.57,0.671 0.906,0.938 0.296,0.38 0.642,0.716 1,1 0.296,0.38 0.642,0.716 1,1 0.291,0.373 0.617,0.689 0.969,0.969 0.326,0.422 0.692,0.758 1.094,1.063 0.306,0.381 0.629,0.719 1,1 0.281,0.351 0.57,0.671 0.906,0.938 0.296,0.38 0.642,0.716 1,1 0.296,0.38 0.642,0.716 1,1 0.286,0.367 0.625,0.66 0.969,0.938 0.33,0.43 0.686,0.784 1.094,1.094 0.306,0.381 0.629,0.719 1,1 0.306,0.381 0.629,0.719 1,1 0.281,0.351 0.57,0.671 0.906,0.938 0.296,0.38 0.642,0.716 1,1 0.286,0.367 0.625,0.66 0.969,0.938 0.302,0.394 0.632,0.738 1,1.031 0.326,0.422 0.692,0.758 1.094,1.063 0.306,0.381 0.629,0.719 1,1 0.281,0.351 0.57,0.671 0.906,0.938 0.296,0.38 0.642,0.716 1,1 0.296,0.38 0.642,0.716 1,1 0.291,0.373 0.617,0.689 0.969,0.969 0.326,0.422 0.692,0.758 1.094,1.063 0.306,0.381 0.629,0.719 1,1 0.281,0.351 0.57,0.671 0.906,0.938 0.296,0.38 0.642,0.716 1,1 0.296,0.38 0.642,0.716 1,1 0.286,0.367 0.625,0.66 0.969,0.938 0.33,0.43 0.686,0.784 1.094,1.094 0.306,0.381 0.629,0.719 1,1 0.281,0.351 0.57,0.671 0.906,0.938 0.296,0.38 0.642,0.716 1,1 0.296,0.38 0.642,0.716 1,1 0.286,0.367 0.625,0.66 0.969,0.938 0.33,0.43 0.686,0.784 1.094,1.094 0.306,0.381 0.629,0.719 1,1 0.306,0.381 0.629,0.719 1,1 0.281,0.351 0.57,0.671 0.906,0.938 0.296,0.38 0.642,0.716 1,1 0.296,0.38 0.642,0.716 1,1 0.291,0.373 0.617,0.689 0.969,0.969 0.326,0.422 0.692,0.758 1.094,1.063 0.306,0.381 0.629,0.719 1,1 0.281,0.351 0.57,0.671 0.906,0.938 0.296,0.38 0.642,0.716 1,1 0.296,0.38 0.642,0.716 1,1 0.291,0.373 0.617,0.689 0.969,0.969 0.326,0.422 0.692,0.758 1.094,1.063 0.306,0.381 0.629,0.719 1,1 0.281,0.351 0.57,0.671 0.906,0.938 0.296,0.38 0.642,0.716 1,1 0.296,0.38 0.642,0.716 1,1 0.286,0.367 0.625,0.66 0.969,0.938 0.33,0.43 0.686,0.784 1.094,1.094 0.306,0.381 0.629,0.719 1,1 0.306,0.381 0.629,0.719 1,1 0.281,0.351 0.57,0.671 0.906,0.938 0.296,0.38 0.642,0.716 1,1 0.286,0.367 0.625,0.66 0.969,0.938 0.302,0.394 0.632,0.738 1,1.031 0.326,0.422 0.692,0.758 1.094,1.063 0.306,0.381 0.629,0.719 1,1 0.281,0.351 0.57,0.671 0.906,0.938 0.296,0.38 0.642,0.716 1,1 0.296,0.38 0.642,0.716 1,1 0.291,0.373 0.617,0.689 0.969,0.969 0.326,0.422 0.692,0.758 1.094,1.063 0.306,0.381 0.629,0.719 1,1 0.281,0.351 0.57,0.671 0.906,0.938 0.296,0.38 0.642,0.716 1,1 0.296,0.38 0.642,0.716 1,1 0.286,0.367 0.625,0.66 0.969,0.938 0.33,0.43 0.686,0.784 1.094,1.094 0.306,0.381 0.629,0.719 1,1 0.281,0.351 0.57,0.671 0.906,0.938 0.296,0.38 0.642,0.716 1,1 0.296,0.38 0.642,0.716 1,1 0.286,0.367 0.625,0.66 0.969,0.938 0.33,0.43 0.686,0.784 1.094,1.094 0.306,0.381 0.629,0.719 1,1 0.306,0.381 0.629,0.719 1,1 0.281,0.351 0.57,0.671 0.906,0.938 0.296,0.38 0.642,0.716 1,1 0.296,0.379 0.642,0.717 1,1 0.291,0.373 0.617,0.689 0.969,0.969 0.326,0.422 0.692,0.758 1.094,1.063 0.306,0.381 0.629,0.719 1,1 0.281,0.351 0.57,0.671 0.906,0.938 0.296,0.38 0.642,0.716 1,1 0.296,0.38 0.642,0.716 1,1 0.291,0.373 0.617,0.689 0.969,0.969 0.263,0.341 0.561,0.617 0.875,0.875 l 1.031,0 c 101.69,-5.155 185.48,-78.13 207.06,-174.59 -0.18,-0.19 -0.354,-0.38 -0.563,-0.563 -0.027,-0.033 -0.066,-0.061 -0.094,-0.094 -0.034,-0.029 -0.059,-0.065 -0.094,-0.094 -0.242,-0.272 -0.488,-0.555 -0.781,-0.813 -0.285,-0.344 -0.634,-0.679 -1,-1 -0.288,-0.348 -0.629,-0.676 -1,-1 -0.028,-0.033 -0.065,-0.061 -0.094,-0.094 -0.034,-0.029 -0.059,-0.065 -0.094,-0.094 -0.246,-0.277 -0.513,-0.55 -0.813,-0.813 -0.028,-0.033 -0.065,-0.061 -0.094,-0.094 -0.034,-0.029 -0.059,-0.065 -0.094,-0.094 -0.246,-0.277 -0.513,-0.55 -0.813,-0.813 -0.019,-0.023 -0.043,-0.04 -0.063,-0.063 -0.046,-0.039 -0.078,-0.086 -0.125,-0.125 -0.245,-0.276 -0.514,-0.52 -0.813,-0.781 -0.027,-0.033 -0.066,-0.061 -0.094,-0.094 -0.034,-0.029 -0.059,-0.065 -0.094,-0.094 -0.242,-0.272 -0.488,-0.555 -0.781,-0.813 -0.283,-0.342 -0.636,-0.68 -1,-1 -0.285,-0.344 -0.634,-0.679 -1,-1 -0.288,-0.348 -0.629,-0.676 -1,-1 -0.028,-0.033 -0.065,-0.061 -0.094,-0.094 -0.034,-0.029 -0.059,-0.065 -0.094,-0.094 -0.246,-0.277 -0.513,-0.55 -0.813,-0.813 -0.028,-0.033 -0.065,-0.061 -0.094,-0.094 -0.034,-0.029 -0.059,-0.065 -0.094,-0.094 -0.245,-0.276 -0.514,-0.52 -0.813,-0.781 -0.023,-0.028 -0.039,-0.066 -0.063,-0.094 -0.041,-0.035 -0.083,-0.059 -0.125,-0.094 -0.242,-0.272 -0.488,-0.555 -0.781,-0.813 -0.283,-0.342 -0.636,-0.68 -1,-1 -0.285,-0.344 -0.634,-0.679 -1,-1 -0.288,-0.348 -0.629,-0.676 -1,-1 -0.028,-0.033 -0.065,-0.061 -0.094,-0.094 -0.034,-0.029 -0.059,-0.065 -0.094,-0.094 -0.246,-0.277 -0.513,-0.55 -0.813,-0.813 -0.028,-0.033 -0.065,-0.061 -0.094,-0.094 -0.034,-0.029 -0.059,-0.065 -0.094,-0.094 -0.245,-0.276 -0.514,-0.52 -0.813,-0.781 -0.023,-0.028 -0.039,-0.066 -0.063,-0.094 -0.041,-0.035 -0.083,-0.059 -0.125,-0.094 -0.246,-0.278 -0.512,-0.55 -0.813,-0.813 -0.027,-0.033 -0.066,-0.061 -0.094,-0.094 -0.034,-0.029 -0.059,-0.065 -0.094,-0.094 -0.242,-0.272 -0.488,-0.555 -0.781,-0.813 -0.285,-0.344 -0.634,-0.679 -1,-1 -0.288,-0.348 -0.629,-0.676 -1,-1 -0.028,-0.033 -0.065,-0.061 -0.094,-0.094 -0.034,-0.029 -0.059,-0.065 -0.094,-0.094 -0.246,-0.277 -0.513,-0.55 -0.813,-0.813 -0.028,-0.033 -0.065,-0.061 -0.094,-0.094 -0.034,-0.029 -0.059,-0.065 -0.094,-0.094 -0.301,-0.34 -0.618,-0.683 -1,-1 -0.242,-0.272 -0.518,-0.524 -0.813,-0.781 -0.027,-0.033 -0.066,-0.061 -0.094,-0.094 -0.034,-0.029 -0.059,-0.065 -0.094,-0.094 -0.242,-0.272 -0.488,-0.555 -0.781,-0.813 -0.285,-0.344 -0.634,-0.679 -1,-1 -0.288,-0.348 -0.629,-0.676 -1,-1 -0.028,-0.033 -0.065,-0.061 -0.094,-0.094 -0.034,-0.029 -0.059,-0.065 -0.094,-0.094 -0.246,-0.277 -0.513,-0.55 -0.813,-0.813 -0.028,-0.033 -0.065,-0.061 -0.094,-0.094 -0.034,-0.029 -0.059,-0.065 -0.094,-0.094 -0.246,-0.277 -0.513,-0.55 -0.813,-0.813 -0.028,-0.033 -0.065,-0.061 -0.094,-0.094 -0.034,-0.029 -0.059,-0.065 -0.094,-0.094 -0.245,-0.276 -0.514,-0.52 -0.813,-0.781 -0.023,-0.028 -0.039,-0.066 -0.063,-0.094 -0.041,-0.035 -0.083,-0.059 -0.125,-0.094 -0.242,-0.272 -0.488,-0.555 -0.781,-0.813 -0.283,-0.342 -0.636,-0.68 -1,-1 -0.285,-0.344 -0.634,-0.679 -1,-1 -0.288,-0.348 -0.629,-0.676 -1,-1 -0.028,-0.033 -0.065,-0.061 -0.094,-0.094 -0.034,-0.029 -0.059,-0.065 -0.094,-0.094 -0.246,-0.277 -0.513,-0.55 -0.813,-0.813 -0.028,-0.033 -0.065,-0.061 -0.094,-0.094 -0.034,-0.029 -0.059,-0.065 -0.094,-0.094 -0.245,-0.276 -0.514,-0.52 -0.813,-0.781 -0.023,-0.028 -0.039,-0.066 -0.063,-0.094 -0.041,-0.035 -0.083,-0.059 -0.125,-0.094 -0.242,-0.272 -0.488,-0.555 -0.781,-0.813 -0.283,-0.342 -0.636,-0.68 -1,-1 -0.285,-0.344 -0.634,-0.679 -1,-1 -0.288,-0.348 -0.629,-0.676 -1,-1 -0.028,-0.033 -0.065,-0.061 -0.094,-0.094 -0.034,-0.029 -0.059,-0.065 -0.094,-0.094 -0.246,-0.277 -0.513,-0.55 -0.813,-0.813 -0.028,-0.033 -0.065,-0.061 -0.094,-0.094 -0.034,-0.029 -0.059,-0.065 -0.094,-0.094 -0.245,-0.276 -0.514,-0.52 -0.813,-0.781 -0.023,-0.028 -0.039,-0.066 -0.063,-0.094 -0.041,-0.035 -0.083,-0.059 -0.125,-0.094 -0.246,-0.278 -0.512,-0.55 -0.813,-0.813 -0.027,-0.033 -0.066,-0.061 -0.094,-0.094 -0.034,-0.029 -0.059,-0.065 -0.094,-0.094 -0.242,-0.272 -0.488,-0.555 -0.781,-0.813 -0.285,-0.344 -0.634,-0.679 -1,-1 -0.288,-0.348 -0.629,-0.676 -1,-1 -0.028,-0.033 -0.065,-0.061 -0.094,-0.094 -0.034,-0.029 -0.059,-0.065 -0.094,-0.094 -0.246,-0.277 -0.513,-0.55 -0.813,-0.813 -0.028,-0.033 -0.065,-0.061 -0.094,-0.094 -0.034,-0.029 -0.059,-0.065 -0.094,-0.094 -0.301,-0.34 -0.618,-0.683 -1,-1 -0.242,-0.272 -0.518,-0.524 -0.813,-0.781 -0.027,-0.033 -0.066,-0.061 -0.094,-0.094 -0.034,-0.029 -0.059,-0.065 -0.094,-0.094 -0.242,-0.273 -0.488,-0.555 -0.781,-0.813 -0.285,-0.344 -0.634,-0.679 -1,-1 -0.285,-0.344 -0.634,-0.679 -1,-1 -0.288,-0.348 -0.629,-0.676 -1,-1 -0.028,-0.033 -0.065,-0.061 -0.094,-0.094 -0.034,-0.029 -0.059,-0.065 -0.094,-0.094 -0.246,-0.277 -0.513,-0.55 -0.813,-0.813 -0.028,-0.033 -0.065,-0.061 -0.094,-0.094 -0.034,-0.029 -0.059,-0.065 -0.094,-0.094 -0.245,-0.276 -0.514,-0.52 -0.813,-0.781 -0.023,-0.028 -0.039,-0.066 -0.063,-0.094 -0.041,-0.035 -0.083,-0.059 -0.125,-0.094 -0.242,-0.273 -0.488,-0.555 -0.781,-0.813 -0.283,-0.342 -0.636,-0.68 -1,-1 -0.285,-0.344 -0.634,-0.679 -1,-1 -0.288,-0.348 -0.629,-0.676 -1,-1 -0.028,-0.033 -0.065,-0.061 -0.094,-0.094 -0.034,-0.029 -0.059,-0.065 -0.094,-0.094 -0.246,-0.277 -0.513,-0.55 -0.813,-0.813 -0.028,-0.033 -0.065,-0.061 -0.094,-0.094 -0.034,-0.029 -0.059,-0.065 -0.094,-0.094 -0.245,-0.276 -0.514,-0.52 -0.813,-0.781 -0.023,-0.028 -0.039,-0.066 -0.063,-0.094 -0.041,-0.035 -0.083,-0.059 -0.125,-0.094 -0.246,-0.278 -0.512,-0.55 -0.813,-0.813 -0.027,-0.033 -0.066,-0.061 -0.094,-0.094 -0.034,-0.029 -0.059,-0.065 -0.094,-0.094 -0.242,-0.273 -0.488,-0.555 -0.781,-0.813 -0.285,-0.344 -0.634,-0.679 -1,-1 -0.288,-0.348 -0.629,-0.676 -1,-1 -0.028,-0.033 -0.065,-0.061 -0.094,-0.094 -0.034,-0.029 -0.059,-0.065 -0.094,-0.094 -0.246,-0.277 -0.513,-0.55 -0.813,-0.813 -0.028,-0.033 -0.065,-0.061 -0.094,-0.094 -0.034,-0.029 -0.059,-0.065 -0.094,-0.094 -0.245,-0.276 -0.514,-0.52 -0.813,-0.781 -0.023,-0.028 -0.039,-0.066 -0.063,-0.094 -0.041,-0.035 -0.083,-0.059 -0.125,-0.094 -0.246,-0.278 -0.512,-0.55 -0.813,-0.813 -0.027,-0.033 -0.066,-0.061 -0.094,-0.094 -0.034,-0.029 -0.059,-0.065 -0.094,-0.094 -0.242,-0.273 -0.488,-0.555 -0.781,-0.813 -0.285,-0.344 -0.634,-0.679 -1,-1 -0.288,-0.348 -0.629,-0.676 -1,-1 -0.028,-0.033 -0.065,-0.061 -0.094,-0.094 -0.034,-0.029 -0.059,-0.065 -0.094,-0.094 -0.246,-0.277 -0.513,-0.55 -0.813,-0.813 -0.028,-0.033 -0.065,-0.061 -0.094,-0.094 -0.034,-0.029 -0.059,-0.065 -0.094,-0.094 -0.246,-0.277 -0.513,-0.55 -0.813,-0.813 -0.019,-0.023 -0.043,-0.04 -0.063,-0.063 -0.046,-0.039 -0.078,-0.086 -0.125,-0.125 -0.245,-0.276 -0.514,-0.52 -0.813,-0.781 -0.027,-0.033 -0.066,-0.061 -0.094,-0.094 -0.034,-0.029 -0.059,-0.065 -0.094,-0.094 -0.242,-0.273 -0.488,-0.555 -0.781,-0.813 -0.283,-0.342 -0.636,-0.68 -1,-1 -0.285,-0.344 -0.634,-0.679 -1,-1 -0.288,-0.348 -0.629,-0.676 -1,-1 -0.028,-0.033 -0.065,-0.061 -0.094,-0.094 -0.034,-0.029 -0.059,-0.065 -0.094,-0.094 -0.246,-0.277 -0.513,-0.55 -0.813,-0.813 -0.028,-0.033 -0.065,-0.061 -0.094,-0.094 -0.034,-0.029 -0.059,-0.065 -0.094,-0.094 -0.245,-0.276 -0.514,-0.52 -0.813,-0.781 -0.023,-0.028 -0.039,-0.066 -0.063,-0.094 -0.041,-0.035 -0.083,-0.059 -0.125,-0.094 -0.242,-0.273 -0.488,-0.555 -0.781,-0.813 -0.283,-0.342 -0.636,-0.68 -1,-1 -5.523,-6.668 -26.737,-8.996 -47.22,-11 -0.399,-0.425 -0.791,-0.823 -1.188,-1.188 -0.339,-0.354 -0.663,-0.69 -1,-1 -0.329,-0.343 -0.642,-0.667 -0.969,-0.969 -0.118,-0.124 -0.257,-0.226 -0.375,-0.344 -0.187,-0.209 -0.376,-0.397 -0.563,-0.594 -0.079,-0.074 -0.14,-0.147 -0.219,-0.219 -0.068,-0.07 -0.151,-0.119 -0.219,-0.188 -0.091,-0.102 -0.19,-0.183 -0.281,-0.281 -0.094,-0.091 -0.187,-0.194 -0.281,-0.281 -0.144,-0.152 -0.294,-0.294 -0.438,-0.438 -0.091,-0.102 -0.19,-0.183 -0.281,-0.281 -0.094,-0.091 -0.187,-0.194 -0.281,-0.281 -0.333,-0.351 -0.669,-0.692 -1,-1 -0.364,-0.384 -0.701,-0.761 -1.063,-1.094 -0.307,-0.32 -0.601,-0.622 -0.906,-0.906 -0.355,-0.374 -0.71,-0.737 -1.063,-1.063 -0.12,-0.125 -0.256,-0.224 -0.375,-0.344 -0.091,-0.102 -0.19,-0.183 -0.281,-0.281 -0.094,-0.091 -0.187,-0.194 -0.281,-0.281 -0.144,-0.152 -0.294,-0.294 -0.438,-0.438 -0.091,-0.102 -0.19,-0.183 -0.281,-0.281 -0.094,-0.091 -0.187,-0.194 -0.281,-0.281 -0.333,-0.351 -0.669,-0.692 -1,-1 -0.364,-0.384 -0.701,-0.761 -1.063,-1.094 -0.307,-0.32 -0.601,-0.622 -0.906,-0.906 -0.355,-0.374 -0.71,-0.737 -1.063,-1.063 -0.118,-0.124 -0.257,-0.226 -0.375,-0.344 -0.187,-0.209 -0.376,-0.397 -0.563,-0.594 -0.079,-0.074 -0.14,-0.147 -0.219,-0.219 -0.068,-0.07 -0.151,-0.119 -0.219,-0.188 -0.091,-0.102 -0.19,-0.183 -0.281,-0.281 -0.094,-0.091 -0.187,-0.194 -0.281,-0.281 -0.333,-0.351 -0.669,-0.692 -1,-1 -0.364,-0.384 -0.701,-0.761 -1.063,-1.094 -0.335,-0.35 -0.667,-0.662 -1,-0.969 -0.334,-0.349 -0.637,-0.694 -0.969,-1 -0.118,-0.124 -0.257,-0.226 -0.375,-0.344 -0.187,-0.209 -0.376,-0.397 -0.563,-0.594 -0.079,-0.074 -0.14,-0.147 -0.219,-0.219 -0.068,-0.07 -0.151,-0.119 -0.219,-0.188 -0.091,-0.102 -0.19,-0.183 -0.281,-0.281 -0.094,-0.091 -0.187,-0.194 -0.281,-0.281 -0.333,-0.351 -0.669,-0.692 -1,-1 -0.364,-0.384 -0.701,-0.761 -1.063,-1.094 -0.339,-0.354 -0.663,-0.69 -1,-1 -0.307,-0.32 -0.601,-0.622 -0.906,-0.906 -0.413,-0.435 -0.809,-0.85 -1.219,-1.219 -0.068,-0.07 -0.151,-0.119 -0.219,-0.188 -0.091,-0.102 -0.19,-0.183 -0.281,-0.281 -0.094,-0.091 -0.187,-0.194 -0.281,-0.281 -0.144,-0.152 -0.294,-0.294 -0.438,-0.438 -0.091,-0.102 -0.19,-0.183 -0.281,-0.281 -0.094,-0.091 -0.187,-0.194 -0.281,-0.281 -0.333,-0.351 -0.669,-0.692 -1,-1 -0.364,-0.384 -0.701,-0.761 -1.063,-1.094 -0.307,-0.32 -0.601,-0.622 -0.906,-0.906 -0.355,-0.374 -0.71,-0.737 -1.063,-1.063 -0.12,-0.125 -0.256,-0.224 -0.375,-0.344 -0.091,-0.102 -0.19,-0.183 -0.281,-0.281 -0.094,-0.091 -0.187,-0.194 -0.281,-0.281 -0.144,-0.152 -0.294,-0.294 -0.438,-0.438 -0.091,-0.102 -0.19,-0.183 -0.281,-0.281 -0.094,-0.091 -0.187,-0.194 -0.281,-0.281 -0.333,-0.351 -0.669,-0.692 -1,-1 -0.364,-0.384 -0.701,-0.761 -1.063,-1.094 -0.307,-0.32 -0.601,-0.622 -0.906,-0.906 -0.355,-0.374 -0.71,-0.737 -1.063,-1.063 -0.118,-0.124 -0.257,-0.226 -0.375,-0.344 -0.187,-0.209 -0.376,-0.397 -0.563,-0.594 -0.079,-0.074 -0.14,-0.147 -0.219,-0.219 -0.068,-0.07 -0.151,-0.119 -0.219,-0.188 -0.091,-0.102 -0.19,-0.183 -0.281,-0.281 -0.094,-0.091 -0.187,-0.194 -0.281,-0.281 -0.333,-0.351 -0.669,-0.692 -1,-1 -0.364,-0.384 -0.701,-0.761 -1.063,-1.094 -0.339,-0.354 -0.663,-0.69 -1,-1 -0.329,-0.343 -0.642,-0.667 -0.969,-0.969 -0.118,-0.124 -0.257,-0.226 -0.375,-0.344 -0.187,-0.209 -0.376,-0.397 -0.563,-0.594 -0.079,-0.074 -0.14,-0.147 -0.219,-0.219 -0.068,-0.07 -0.151,-0.119 -0.219,-0.188 -0.091,-0.102 -0.19,-0.183 -0.281,-0.281 -0.094,-0.091 -0.187,-0.194 -0.281,-0.281 -0.144,-0.152 -0.294,-0.294 -0.438,-0.438 -0.091,-0.102 -0.19,-0.183 -0.281,-0.281 -0.094,-0.091 -0.187,-0.194 -0.281,-0.281 -0.333,-0.351 -0.669,-0.692 -1,-1 -0.364,-0.384 -0.701,-0.761 -1.063,-1.094 -0.307,-0.32 -0.601,-0.622 -0.906,-0.906 -0.355,-0.374 -0.709,-0.737 -1.063,-1.063 -0.12,-0.125 -0.256,-0.224 -0.375,-0.344 -0.091,-0.102 -0.19,-0.183 -0.281,-0.281 -0.094,-0.091 -0.187,-0.194 -0.281,-0.281 -0.144,-0.152 -0.294,-0.294 -0.438,-0.438 -0.091,-0.102 -0.19,-0.183 -0.281,-0.281 -0.094,-0.091 -0.187,-0.194 -0.281,-0.281 -0.333,-0.351 -0.669,-0.692 -1,-1 -0.364,-0.384 -0.701,-0.761 -1.063,-1.094 -0.307,-0.32 -0.601,-0.622 -0.906,-0.906 -0.355,-0.374 -0.709,-0.737 -1.063,-1.063 -0.118,-0.124 -0.257,-0.226 -0.375,-0.344 -0.187,-0.209 -0.376,-0.397 -0.563,-0.594 -0.079,-0.074 -0.14,-0.147 -0.219,-0.219 -0.068,-0.07 -0.151,-0.119 -0.219,-0.188 -0.091,-0.102 -0.19,-0.183 -0.281,-0.281 -0.094,-0.091 -0.187,-0.194 -0.281,-0.281 -0.333,-0.351 -0.669,-0.692 -1,-1 -0.364,-0.384 -0.701,-0.761 -1.063,-1.094 -0.335,-0.35 -0.667,-0.662 -1,-0.969 -0.334,-0.349 -0.637,-0.694 -0.969,-1 -0.118,-0.124 -0.257,-0.226 -0.375,-0.344 -0.187,-0.209 -0.376,-0.397 -0.563,-0.594 -0.079,-0.074 -0.14,-0.147 -0.219,-0.219 -0.068,-0.07 -0.151,-0.119 -0.219,-0.188 -0.091,-0.102 -0.19,-0.183 -0.281,-0.281 -0.094,-0.091 -0.187,-0.194 -0.281,-0.281 -0.333,-0.351 -0.669,-0.692 -1,-1 -0.364,-0.384 -0.701,-0.761 -1.063,-1.094 -0.339,-0.354 -0.663,-0.69 -1,-1 -0.307,-0.32 -0.601,-0.622 -0.906,-0.906 -0.413,-0.435 -0.809,-0.85 -1.219,-1.219 -0.068,-0.07 -0.151,-0.119 -0.219,-0.188 -0.091,-0.102 -0.19,-0.183 -0.281,-0.281 -0.094,-0.091 -0.187,-0.194 -0.281,-0.281 -0.144,-0.152 -0.294,-0.294 -0.438,-0.438 -0.091,-0.102 -0.19,-0.183 -0.281,-0.281 -0.094,-0.091 -0.187,-0.194 -0.281,-0.281 -0.333,-0.351 -0.669,-0.692 -1,-1 -0.364,-0.384 -0.701,-0.761 -1.063,-1.094 -0.307,-0.32 -0.601,-0.622 -0.906,-0.906 -0.355,-0.374 -0.709,-0.737 -1.063,-1.063 -0.12,-0.125 -0.256,-0.224 -0.375,-0.344 -0.091,-0.102 -0.19,-0.183 -0.281,-0.281 -0.094,-0.091 -0.187,-0.194 -0.281,-0.281 -0.144,-0.152 -0.294,-0.294 -0.438,-0.438 -0.091,-0.102 -0.19,-0.183 -0.281,-0.281 -0.094,-0.091 -0.187,-0.194 -0.281,-0.281 -0.333,-0.351 -0.669,-0.692 -1,-1 -2.39,-2.516 -4.707,-3.979 -6.969,-3.969"
     id="path60" />
  <path
     style="fill-opacity:0.06700003;fill-rule:evenodd"
     inkscape:connector-curvature="0"
     d="M 256,1 C 115.17,1 1,115.17 1,256 1,396.83 115.17,511 256,511 396.83,511 511,396.83 511,256 511,115.17 396.83,1 256,1 m 8.827,44.931 c 120.9,0 218.9,98 218.9,218.9 0,120.9 -98,218.9 -218.9,218.9 -120.9,0 -218.93,-98 -218.93,-218.9 0,-120.9 98.03,-218.9 218.93,-218.9"
     id="path62" />
  <g
     style="fill:#ffffff;fill-rule:evenodd"
     id="g70">
    <path
       style="stroke:#000000;stroke-width:4.90399981;stroke-opacity:0.31000001"
       inkscape:connector-curvature="0"
       d="m 253.04,7.859 c -135.42,0 -245.19,109.78 -245.19,245.19 0,135.42 109.78,245.19 245.19,245.19 135.42,0 245.19,-109.78 245.19,-245.19 0,-135.42 -109.78,-245.19 -245.19,-245.19 z m 0,26.297 c 120.9,0 218.9,98 218.9,218.9 0,120.9 -98,218.9 -218.9,218.9 -120.9,0 -218.93,-98 -218.93,-218.9 0,-120.9 98.03,-218.9 218.93,-218.9 z"
       id="path72" />
    <path
       inkscape:connector-curvature="0"
       d="m 341.12,384.72 c -12.567,9.217 -68.988,-35.453 -84.57,-35.38 -15.585,0.07 -71.6,45.24 -84.25,36.14 -12.649,-9.104 12.4,-76.57 7.518,-91.37 -4.882,-14.8 -65.16,-54.12 -60.41,-68.961 4.75,-14.844 76.65,-11.867 89.22,-21.08 12.567,-9.217 31.33,-78.69 46.919,-78.76 15.585,-0.07 34.973,69.23 47.622,78.34 12.649,9.104 84.52,5.484 89.4,20.285 4.882,14.8 -55.04,54.655 -59.786,69.5 -4.75,14.844 20.902,82.08 8.335,91.3"
       id="path74" />
  </g>
</svg>
