<?xml version="1.0" encoding="UTF-8" standalone="no"?>
<svg xmlns:dc="http://purl.org/dc/elements/1.1/" xmlns:cc="http://creativecommons.org/ns#" xmlns:rdf="http://www.w3.org/1999/02/22-rdf-syntax-ns#" xmlns:svg="http://www.w3.org/2000/svg" xmlns="http://www.w3.org/2000/svg" xmlns:sodipodi="http://sodipodi.sourceforge.net/DTD/sodipodi-0.dtd" xmlns:inkscape="http://www.inkscape.org/namespaces/inkscape" height="512" viewBox="0 0 512 512" width="512" version="1.1" id="svg2" inkscape:version="0.91 r" sodipodi:docname="xmlcopyeditor.svg">
<defs id="defs17">
<linearGradient id="linearGradient3874" gradientUnits="userSpaceOnUse" gradientTransform="matrix(0,-9.5189411,9.4699852,0,25.333756,481.8078)" x1="1" x2="47">
<stop style="stop-color:#e4e4e4;stop-opacity:1" id="stop7" />
<stop offset="1" style="stop-color:#eee;stop-opacity:1" id="stop9" />
</linearGradient>
</defs>
<sodipodi:namedview pagecolor="#ffffff" bordercolor="#666666" borderopacity="1" objecttolerance="10" gridtolerance="10" guidetolerance="10" inkscape:pageopacity="0" inkscape:pageshadow="2" inkscape:window-width="1680" inkscape:window-height="1022" id="namedview15" showgrid="false" inkscape:zoom="1.3037281" inkscape:cx="265.36534" inkscape:cy="193.5876" inkscape:window-x="1680" inkscape:window-y="0" inkscape:window-maximized="1" inkscape:current-layer="svg2" />
<metadata id="metadata28">
<rdf:RDF>
<cc:Work rdf:about="">
<dc:format>image/svg+xml</dc:format>
<dc:type rdf:resource="http://purl.org/dc/dcmitype/StillImage" />
<dc:title />
</cc:Work>
</rdf:RDF>
</metadata>
<path id="path6" d="m 471.55432,252.74348 c 0,120.9 -98.01,218.9 -218.90001,218.9 -120.89999,0 -218.899986,-98.01 -218.899986,-218.9 0,-120.89999 98.009996,-218.899992 218.899986,-218.899992 120.90001,0 218.90001,98.010002 218.90001,218.899992" inkscape:connector-curvature="0" style="fill:#e6e6e6;fill-opacity:1;fill-rule:evenodd" />
<path d="M 230.41577,35.607453 C 202.67814,39.277761 188.75398,42.91362 162.31654,53.94716 124.02762,70.93615 95.664004,97.393161 71.173177,131.85871 L 177.15657,197.43897 227.4706,184.9406 231.31542,35.607453 c -0.29357,0.02856 -0.59661,-0.02856 -0.89018,0 z" style="fill:#c7442a;fill-opacity:0.85100002;stroke:none" id="path25" inkscape:connector-curvature="0" sodipodi:nodetypes="cccccccc" />
<path style="fill-opacity:0.06700003;fill-rule:evenodd" inkscape:connector-curvature="0" d="M 256,1 C 115.17,1 1,115.17 1,256 1,396.83 115.17,511 256,511 396.83,511 511,396.83 511,256 511,115.17 396.83,1 256,1 m 8.827,44.931 c 120.9,0 218.9,98 218.9,218.9 0,120.9 -98,218.9 -218.9,218.9 -120.9,0 -218.93,-98 -218.93,-218.9 0,-120.9 98.03,-218.9 218.93,-218.9" id="path8" />
<g style="fill-opacity:0.12900002;fill-rule:evenodd" id="g10">
<path inkscape:connector-curvature="0" d="m 256,4.433 c -138.94,0 -251.57,112.63 -251.57,251.57 0,138.94 112.63,251.57 251.57,251.57 138.94,0 251.57,-112.63 251.57,-251.57 C 507.57,117.063 394.94,4.433 256,4.433 m 5.885,38.556 c 120.9,0 218.9,98 218.9,218.9 0,120.9 -98,218.9 -218.9,218.9 -120.9,0 -218.93,-98 -218.93,-218.9 0,-120.9 98.03,-218.9 218.93,-218.9" id="path12" />
<path inkscape:connector-curvature="0" d="m 256,8.356 c -136.77,0 -247.64,110.87 -247.64,247.64 0,136.77 110.87,247.64 247.64,247.64 136.77,0 247.64,-110.87 247.64,-247.64 C 503.64,119.226 392.77,8.356 256,8.356 m 2.942,31.691 c 120.9,0 218.9,98 218.9,218.9 0,120.9 -98,218.9 -218.9,218.9 -120.9,0 -218.93,-98 -218.93,-218.9 0,-120.9 98.03,-218.9 218.93,-218.9" id="path14" />
</g>
<path d="m 369.18893,72.493349 c 55.48465,38.665941 91.74522,103.099651 91.74522,176.100411 0,118.28236 -95.36275,214.17617 -213.07467,214.17617 -72.62531,0 -136.72764,-36.4385 -175.194724,-92.2195 9.820375,17.34351 21.837786,33.30678 35.806014,47.29962 38.68489,35.33431 90.09744,56.81856 146.4912,56.81856 120.29722,0 217.80966,-98.02605 217.80966,-218.93564 0,-56.67578 -21.36429,-108.36363 -56.52634,-147.2485 C 402.33388,94.444028 386.44325,82.364491 369.18893,72.493349 Z m 47.05636,35.991121 c 36.49732,39.1514 58.89384,91.73403 58.89384,149.62823 0,120.91911 -97.51244,218.93565 -217.80966,218.93565 -57.58698,0 -109.90865,-22.50278 -148.8587,-59.1983 39.39514,39.44649 93.59186,63.95777 153.59369,63.95777 120.29722,0 217.80966,-98.02606 217.80966,-218.93565 0,-60.30249 -24.38521,-114.79843 -63.62883,-154.3877 z" style="opacity:0.05" id="path11" inkscape:connector-curvature="0" />
<path d="m 416.25476,108.48447 c 35.15258,38.88487 56.52634,90.5632 56.52634,147.2485 0,120.9191 -97.51244,218.93564 -217.80966,218.93564 -56.38429,0 -107.80631,-21.47473 -146.4912,-56.81856 38.95005,36.686 91.26225,59.1983 148.8587,59.1983 120.29722,0 217.80966,-98.02606 217.80966,-218.93565 0,-57.88468 -22.38705,-110.47683 -58.89384,-149.62823 z" style="opacity:0.1" id="path13" inkscape:connector-curvature="0" />
<path d="m 252.61341,34.417585 c -7.32029,0 -14.47013,0.485466 -21.60103,1.189868 L 227.7547,184.9406 321.27081,227.48075 426.91796,121.91569 C 387.17243,68.819038 323.80876,34.455661 252.61341,34.455661 Z" style="fill:#486cd2;fill-opacity:1;stroke:none" id="path21" inkscape:connector-curvature="0" />
<path d="m 236.10502,30.107993 c -3.12457,0.250533 -6.20123,0.520338 -9.28746,0.905774 L 223.52045,177.09389 177.99364,188.54134 70.761213,127.41123 c -1.773149,2.64987 -3.431283,5.39611 -5.089418,8.1327 l 106.293135,60.52304 -63.79505,131.28902 -0.29712,0 -51.51719,21.97948 c 1.447273,2.9293 2.9233,5.87789 4.495174,8.73012 l 51.814306,-21.97948 141.37274,60.52304 -2.39614,75.88265 c 0.69968,0 1.39935,0 2.09902,0 2.50158,0 5.00317,-0.22162 7.48557,-0.29872 l 2.39615,-76.78842 73.08253,-71.0647 99.44014,51.1955 c 1.79232,-2.64987 3.41212,-5.40574 5.08943,-8.1327 l -100.93536,-51.79292 -11.68361,-90.33648 103.6382,-104.1929 c -1.89775,-2.6306 -3.68049,-5.28047 -5.69325,-7.83398 L 322.62515,217.73809 233.06671,177.08425 236.06668,30.1369 Z m -8.99034,155.985817 92.2517,42.15703 11.68363,88.22624 -30.55569,29.81344 -42.83354,41.5596 -138.97661,-59.9256 64.10176,-130.99033 44.32875,-10.84038 z" style="color:#000000;display:inline;visibility:visible;fill:#2d2d2d;fill-opacity:1;stroke:none" id="path27" inkscape:connector-curvature="0" />
<path style="fill:#ffffff;fill-rule:evenodd;stroke:#000000;stroke-width:4.90399981;stroke-opacity:0.31000001" inkscape:connector-curvature="0" d="m 253.04,7.859 c -135.42,0 -245.19,109.78 -245.19,245.19 0,135.42 109.78,245.19 245.19,245.19 135.42,0 245.19,-109.78 245.19,-245.19 0,-135.42 -109.78,-245.19 -245.19,-245.19 z m 0,26.297 c 120.9,0 218.9,98 218.9,218.9 0,120.9 -98,218.9 -218.9,218.9 -120.9,0 -218.93,-98 -218.93,-218.9 0,-120.9 98.03,-218.9 218.93,-218.9 z" id="path16" />
</svg>
