<?xml version="1.0" encoding="UTF-8" standalone="no"?>
<svg xmlns="http://www.w3.org/2000/svg" xmlns:xlink="http://www.w3.org/1999/xlink" xmlns:sodipodi="http://sodipodi.sourceforge.net/DTD/sodipodi-0.dtd" xmlns:inkscape="http://www.inkscape.org/namespaces/inkscape" width="24" height="24" version="1.0">
 <defs id="defs4">
  <linearGradient id="StandardGradient" gradientTransform="scale(0.9219544,1.0846523)" y1="0.922" x2="0" y2="19.387" gradientUnits="userSpaceOnUse">
   <stop id="stop3283" stop-opacity="0.235"/>
   <stop id="stop3850" offset="0.7" stop-opacity="0.392"/>
   <stop offset="1" id="stop2651" stop-opacity="0.55"/>
  </linearGradient>
  <radialGradient inkscape:collect="always" xlink:href="#StandardGradient" id="radialGradient3872" cx="12" cy="13.518" r="7.04" gradientTransform="matrix(2.2741188,0,0,0.99492699,-45.289426,-0.44926994)" gradientUnits="userSpaceOnUse"/>
  <radialGradient inkscape:collect="always" xlink:href="#StandardGradient" id="radialGradient3945" cx="12" cy="13.571" r="9" gradientTransform="matrix(1.7777778,-1.1111109e-8,0,0.77777776,-8.3328464,1.4444449)" gradientUnits="userSpaceOnUse"/>
  <radialGradient inkscape:collect="always" xlink:href="#StandardGradient" id="radialGradient3951" gradientUnits="userSpaceOnUse" gradientTransform="matrix(1.7777778,-1.1111109e-8,0,0.77777776,-9.3333334,2.4444449)" cx="12" cy="13.571" r="9"/>
 </defs>
 <metadata id="metadata7"/>
 <g inkscape:label="Calque 1" id="layer1" inkscape:groupmode="layer" transform="translate(0,2)">
  <path inkscape:connector-curvature="0" d="m 17.906737,2.0625004 a 0.94446608,0.94446608 0 0 0 -0.46875,0.28125 L 9.969237,9.84375 6.562987,6.4062504 a 0.94446608,0.94446608 0 0 0 -1.3125,0 L 2.344237,9.34375 a 0.94446608,0.94446608 0 0 0 0,1.3125 l 6.96875,7 a 0.94446608,0.94446608 0 0 0 1.3125,0 L 21.656737,6.5937504 a 0.94446608,0.94446608 0 0 0 0,-1.3125 l -2.90625,-2.9375 a 0.94446608,0.94446608 0 0 0 -0.84375,-0.28125 z m 0.1875,0.9375 2.90625,2.9375 L 9.969237,17 l -6.96875,-7 2.90625,-2.9374996 4.0625,4.0937496 8.125,-8.1562496 z" id="path4707" opacity="0.05" fill="#ffffff"/>
  <path inkscape:connector-curvature="0" d="M 18.08823,3.0000004 9.9731062,11.14463 5.9127463,7.0723231 3.000487,9.997189 9.9675065,17 9.9731065,16.9944 9.9787065,17 21.000487,5.9248646 18.08823,3.0000004 Z" id="Symbol" sodipodi:nodetypes="ccccccccc" fill="url(#radialGradient3945)"/>
  <path inkscape:connector-curvature="0" d="M 18.094237,3.0000004 9.969237,11.15625 5.906737,7.0625004 3.000487,10 l 0.5,0.5 2.40625,-2.4374996 4.0625,4.0937496 8.125,-8.1562496 2.40625,2.4375 0.5,-0.5 -2.90625,-2.9375 z" id="BevelShadow-5" inkscape:label="#path3172" opacity="0.3"/>
  <path d="m 18.094237,3 -8.125,8.15625 L 5.906737,7.0625 3.000487,10 9.969237,17 21.000487,5.9375 18.094237,3 Z m 0,0.5625 2.34375,2.375 -10.46875,10.5 L 3.562987,10 l 2.34375,-2.375 3.78125,3.8125 a 0.4059194,0.4059194 0 0 0 0.5625,0 l 7.84375,-7.875 z" id="path3947" inkscape:connector-curvature="0" opacity="0.3" fill="url(#radialGradient3945)"/>
  <path inkscape:connector-curvature="0" d="M 21.000487,5.9375004 9.969237,17 l -6.96875,-7 0,1 6.96875,7 11.03125,-11.0624996 0,-1 z" id="BevelHighlight-1" inkscape:label="#path3179" opacity="0.2" fill="#ffffff"/>
 </g>
</svg>
