<?xml version="1.0" encoding="UTF-8" standalone="no"?>
<svg xmlns="http://www.w3.org/2000/svg" xmlns:xlink="http://www.w3.org/1999/xlink" xmlns:sodipodi="http://sodipodi.sourceforge.net/DTD/sodipodi-0.dtd" xmlns:inkscape="http://www.inkscape.org/namespaces/inkscape" width="24" height="24" version="1.0">
 <defs id="defs4">
  <linearGradient inkscape:collect="always" xlink:href="#StandardGradient" id="linearGradient2549" gradientUnits="userSpaceOnUse" gradientTransform="matrix(0.9247229,0,0,1.0872097,16.939944,2.9976422)" y1="0.922" x2="0" y2="17.478"/>
  <linearGradient id="StandardGradient" gradientTransform="scale(0.9219544,1.0846523)" y1="0.922" x2="0" y2="19.387" gradientUnits="userSpaceOnUse">
   <stop id="stop3283" stop-opacity="0.235"/>
   <stop id="stop3850" offset="0.7" stop-opacity="0.392"/>
   <stop offset="1" id="stop2651" stop-opacity="0.55"/>
  </linearGradient>
  <linearGradient inkscape:collect="always" xlink:href="#StandardGradient" id="linearGradient2406" gradientUnits="userSpaceOnUse" gradientTransform="matrix(0.9219544,0,0,1.0846523,0,-1)" y1="2.766" x2="0" y2="19.387"/>
  <linearGradient inkscape:collect="always" xlink:href="#StandardGradient" id="linearGradient4636" gradientUnits="userSpaceOnUse" gradientTransform="matrix(0.9219544,0,0,1.0846523,-0.01723507,0.96875)" y1="2.766" x2="0" y2="15.702"/>
  <linearGradient inkscape:collect="always" xlink:href="#StandardGradient" id="linearGradient2405" gradientUnits="userSpaceOnUse" gradientTransform="matrix(0.9219544,0,0,1.0846523,-0.01723507,-0.03125)" y1="2.766" x2="0" y2="15.702"/>
  <linearGradient inkscape:collect="always" xlink:href="#StandardGradient" id="linearGradient2407" gradientUnits="userSpaceOnUse" gradientTransform="matrix(0.9219544,0,0,1.0846523,-0.01723507,-1.03125)" y1="2.766" x2="0" y2="15.702"/>
  <linearGradient inkscape:collect="always" xlink:href="#StandardGradient" id="linearGradient2542" gradientUnits="userSpaceOnUse" gradientTransform="matrix(0.9247229,0,0,1.0872097,-2.060056,5.9976422)" y1="0.922" x2="0" y2="17.478"/>
  <linearGradient inkscape:collect="always" xlink:href="#StandardGradient" id="linearGradient3644" gradientUnits="userSpaceOnUse" gradientTransform="matrix(0.9219544,0,0,1.0846523,-30.017235,-0.03125)" y1="2.766" x2="0" y2="15.702"/>
  <clipPath id="clipPath3651">
   <path d="m -30,0 0,22 22,0 0,-22 -22,0 z m 4,2 3.96875,0 c 0.554,0 1,0.446 1,1 l 0,1 8.5,0 c 0.669688,0 1.243585,0.3963931 1.4375,1 C -11.04026,5.1544781 -11,5.326875 -11,5.5 l 0,0.5 -5,0 -1,0 -4.21875,0 L -27,6 l 0,-1 0,-2 c 0,-0.554 0.446,-1 1,-1 z m -0.5,5 5,0 8,0 2,0 c 0.831,0 1.5,0.669 1.5,1.5 l 0,8 c 0,0.831 -0.669,1.5 -1.5,1.5 l -0.5,0 0,0.25 0,1.25 c 0,0.831 -0.669,1.5 -1.5,1.5 l -8,0 c -0.831,0 -1.5,-0.669 -1.5,-1.5 l 0,-1.5 -3.5,0 c -0.831,0 -1.5,-0.669 -1.5,-1.5 l 0,-8 C -28,7.669 -27.331,7 -26.5,7 Z m 6,2 C -20.777,9 -21,9.223 -21,9.5 l 0,9 c 0,0.277 0.223,0.5 0.5,0.5 l 6,0 c 0.277,0 0.5,-0.223 0.5,-0.5 l 0,-9 C -14,9.223 -14.223,9 -14.5,9 l -2.90625,0 -2.09375,0 -1,0 z" id="path3653"/>
  </clipPath>
  <radialGradient inkscape:collect="always" xlink:href="#StandardGradient" id="radialGradient3799" gradientUnits="userSpaceOnUse" gradientTransform="matrix(1.1111111,-7.219351e-8,7.2193516e-8,1.1111112,-1.6666678,-1.4619872)" cx="15" cy="14.816" r="9"/>
  <radialGradient inkscape:collect="always" xlink:href="#StandardGradient" id="radialGradient3790" gradientUnits="userSpaceOnUse" gradientTransform="matrix(1.2222222,-1.4352098e-8,1.4352098e-8,1.2222222,-23.133333,-2.9081851)" cx="13.2" cy="13.02" r="9"/>
  <radialGradient inkscape:collect="always" xlink:href="#StandardGradient" id="radialGradient3080" gradientUnits="userSpaceOnUse" gradientTransform="matrix(1.7777777,0,0,1.2222222,-9.7824554,-2.9081853)" cx="12.253" cy="13.02" r="9"/>
  <radialGradient inkscape:collect="always" xlink:href="#StandardGradient" id="radialGradient3869" gradientUnits="userSpaceOnUse" gradientTransform="matrix(1.7777777,0,0,1.2222222,-9.7824554,-1.9081853)" cx="12.253" cy="13.02" r="9"/>
  <linearGradient id="StandardGradient-4" y1="6" x2="0" y2="16.01" gradientUnits="userSpaceOnUse" gradientTransform="translate(-3,-2.9995677)">
   <stop id="stop3177" stop-opacity="0.863"/>
   <stop id="stop3179" offset="1" stop-opacity="0.471"/>
  </linearGradient>
  <radialGradient inkscape:collect="always" xlink:href="#StandardGradient" id="radialGradient3865" gradientUnits="userSpaceOnUse" gradientTransform="matrix(1.7777778,0,0,0.88888888,-9.3333333,0.58974383)" cx="12" cy="13.962" r="9"/>
  <radialGradient inkscape:collect="always" xlink:href="#StandardGradient" id="radialGradient3073" gradientUnits="userSpaceOnUse" gradientTransform="matrix(1.7777778,0,0,0.88888891,-8.3335945,-1.5678204)" cx="12" cy="15.264" r="9"/>
  <radialGradient inkscape:collect="always" xlink:href="#StandardGradient" id="radialGradient3867" gradientUnits="userSpaceOnUse" gradientTransform="matrix(1.7777778,0,0,0.88888891,-9.3333333,0.43217962)" cx="12" cy="15.264" r="9"/>
  <radialGradient inkscape:collect="always" xlink:href="#StandardGradient" id="radialGradient3873" gradientUnits="userSpaceOnUse" gradientTransform="matrix(1.7777778,0,0,0.88888891,-9.3333333,-0.56782038)" cx="12" cy="15.264" r="9"/>
 </defs>
 <metadata id="metadata7"/>
 <g inkscape:label="Calque 1" id="layer1" inkscape:groupmode="layer" transform="translate(0,2)">
  <path d="m 8.9997388,3 a 1.0080797,1.0080797 0 0 0 -0.46875,0.25 l -6.1875,5.53125 a 1.0080797,1.0080797 0 0 0 0,1.5 l 6.1875,5.46875 a 1.0080797,1.0080797 0 0 0 0.65625,0.25 l 11.8125002,0 a 1.0080797,1.0080797 0 0 0 1,-1 l 0,-11 a 1.0080797,1.0080797 0 0 0 -1,-1 L 9.1872388,3 a 1.0080797,1.0080797 0 0 0 -0.1875,0 z m 0.1875,1 11.8125002,0 0,11 L 9.1872388,15 2.9997388,9.53125 9.1872388,4 Z m 2.9687502,1.59375 -1.59375,1.5625 2.40625,2.375 -2.40625,2.34375 1.59375,1.59375 2.40625,-2.375 2.375,2.375 1.59375,-1.59375 -2.375,-2.34375 2.375,-2.375 -1.59375,-1.5625 -2.375,2.34375 -2.40625,-2.34375 z m 0,1.40625 1.6875,1.65625 a 1.0080797,1.0080797 0 0 0 1.4375,0 l 1.65625,-1.625 0.15625,0.125 -1.65625,1.65625 a 1.0080797,1.0080797 0 0 0 0,1.4375 l 1.65625,1.625 -0.15625,0.15625 -1.65625,-1.65625 a 1.0080797,1.0080797 0 0 0 -1.4375,0 l -1.6875,1.65625 -0.15625,-0.15625 1.6875,-1.625 a 1.0080797,1.0080797 0 0 0 0,-1.4375 L 11.999739,7.15625 12.155989,7 Z" id="path3883" inkscape:connector-curvature="0" opacity="0.05" fill="#ffffff"/>
  <path d="m 9.1872388,4 -6.1875,5.53125 6.1875,5.46875 11.8125002,0 0,-11 -11.8125002,0 z m 2.9687502,1.59375 2.40625,2.34375 2.375,-2.34375 1.59375,1.5625 -2.375,2.375 2.375,2.34375 -1.59375,1.59375 -2.375,-2.375 -2.40625,2.375 -1.59375,-1.59375 2.40625,-2.34375 -2.40625,-2.375 1.59375,-1.5625 z" id="path3066" inkscape:connector-curvature="0" fill="url(#radialGradient3073)"/>
  <path d="m 9.1872388,4 -6.1875,5.53125 6.1875,5.46875 11.8125002,0 0,-11 -11.8125002,0 z m 0.25,0.53125 11.0312502,0 0,9.9375 -11.0625002,0 -5.5625,-4.9375 5.59375,-5 z m 2.6562502,0.5 a 0.54481947,0.54481947 0 0 0 -0.09375,0.03125 0.54481947,0.54481947 0 0 0 -0.21875,0.15625 l -1.59375,1.5625 a 0.54481947,0.54481947 0 0 0 0,0.75 l 2.03125,2 -2.03125,1.96875 a 0.54481947,0.54481947 0 0 0 0,0.75 l 1.59375,1.59375 a 0.54481947,0.54481947 0 0 0 0.75,0 l 2.03125,-2 2,2 a 0.54481947,0.54481947 0 0 0 0.75,0 L 18.905989,12.25 a 0.54481947,0.54481947 0 0 0 0,-0.75 l -2,-1.96875 2,-2 a 0.54481947,0.54481947 0 0 0 0,-0.75 l -1.59375,-1.5625 a 0.54481947,0.54481947 0 0 0 -0.75,0 l -2,1.96875 -2.03125,-1.96875 a 0.54481947,0.54481947 0 0 0 -0.4375,-0.1875 z m 0.0625,0.5625 2.40625,2.34375 2.375,-2.34375 1.59375,1.5625 -2.375,2.375 2.375,2.34375 -1.59375,1.59375 -2.375,-2.375 -2.40625,2.375 -1.59375,-1.59375 2.40625,-2.34375 -2.40625,-2.375 1.59375,-1.5625 z" id="path3075" inkscape:connector-curvature="0" opacity="0.3"/>
  <path d="m 9.1872388,4 -6.1875,5.53125 0.5625,0.5 5.625,-5.03125 11.8125002,0 0,-1 -11.8125002,0 z m 1.8750002,3.65625 -0.5,0.5 1.90625,1.875 0.5,-0.5 -1.90625,-1.875 z m 6.96875,0 -1.875,1.875 0.5,0.5 1.875,-1.875 -0.5,-0.5 z m -3.46875,3.4375 -2.40625,2.375 -1.09375,-1.09375 -0.5,0.5 1.59375,1.59375 2.40625,-2.375 2.375,2.375 1.59375,-1.59375 -0.5,-0.5 -1.09375,1.09375 -2.375,-2.375 z" id="path3088" inkscape:connector-curvature="0" opacity="0.3"/>
  <path d="m 12.155989,5.59375 -1.59375,1.5625 0.5,0.5 1.09375,-1.0625 2.40625,2.34375 2.375,-2.34375 1.09375,1.0625 0.5,-0.5 -1.59375,-1.5625 -2.375,2.34375 -2.40625,-2.34375 z m -8.5937502,4.4375 -0.5625,0.5 6.1875,5.46875 11.8125002,0 0,-1 -11.8125002,0 -5.625,-4.96875 z m 8.9062502,0 -1.90625,1.84375 0.5,0.5 1.90625,-1.84375 -0.5,-0.5 z m 4.1875,0 -0.5,0.5 1.875,1.84375 0.5,-0.5 -1.875,-1.84375 z" id="path3865" inkscape:connector-curvature="0" opacity="0.2" fill="#ffffff"/>
 </g>
</svg>
