<?xml version="1.0" encoding="UTF-8" standalone="no"?>
<svg xmlns="http://www.w3.org/2000/svg" xmlns:xlink="http://www.w3.org/1999/xlink" xmlns:sodipodi="http://sodipodi.sourceforge.net/DTD/sodipodi-0.dtd" xmlns:inkscape="http://www.inkscape.org/namespaces/inkscape" width="24" height="24" version="1.0">
 <defs id="defs4">
  <linearGradient gradientUnits="userSpaceOnUse" y2="18.974" x2="0" y1="1.996" gradientTransform="matrix(0.9984539,0,0,0.9984539,-0.0459776,0.05767558)" id="linearGradient4203">
   <stop id="stop4205" stop-opacity="0.235"/>
   <stop id="stop4207" offset="1" stop-opacity="0.549"/>
  </linearGradient>
  <linearGradient id="StandardGradient" gradientTransform="matrix(0.9984539,0,0,0.9984539,-0.0459776,0.05767558)" y1="1.996" x2="0" y2="18.974" gradientUnits="userSpaceOnUse">
   <stop id="stop3277" stop-opacity="0.863"/>
   <stop offset="1" id="stop3279" stop-opacity="0.471"/>
  </linearGradient>
  <linearGradient inkscape:collect="always" xlink:href="#StandardGradient" id="linearGradient3627" gradientUnits="userSpaceOnUse" gradientTransform="matrix(0.9984539,0,0,0.9984539,-30.045978,0.05767558)" y1="1.996" x2="0" y2="18.974"/>
  <clipPath id="clipPath3634">
   <path d="m -30,0 0,22 22,0 0,-22 -22,0 z m 9,2 c 1.536279,0 3.078693,0.5829855 4.25,1.75 2.042235,2.0347517 2.299759,5.181761 0.78125,7.5 0.01984,0.394051 0.08665,1.024202 0.34375,1.25 0.350063,0.307445 1.153972,-0.120878 1.6875,0.46875 l 3.6875,3.71875 c 0,0 0.750914,0.690483 -0.3125,1.75 -1.063413,1.059517 -1.75,0.3125 -1.75,0.3125 L -16,15.03125 c -0.591796,-0.531572 -0.160173,-1.338719 -0.46875,-1.6875 -0.226629,-0.256157 -0.854501,-0.32398 -1.25,-0.34375 -2.326765,1.512945 -5.489015,1.253503 -7.53125,-0.78125 -2.342612,-2.3340289 -2.342612,-6.134721 0,-8.46875 C -24.078693,2.5829856 -22.536279,2 -21,2 Z m 0.03125,2 c -1.104318,1e-7 -2.119541,0.4034447 -2.84375,1.125 -0.724209,0.7215553 -1.15625,1.7434783 -1.15625,2.84375 0,2.200545 1.791365,4.000001 4,4 2.208637,0 4,-1.799455 4,-4 0,-2.2005437 -1.791364,-3.9687501 -4,-3.96875 z" id="path3636"/>
  </clipPath>
  <linearGradient inkscape:collect="always" xlink:href="#StandardGradient" id="linearGradient3628" y1="4.563" x2="0" y2="11.478" gradientUnits="userSpaceOnUse"/>
  <linearGradient inkscape:collect="always" xlink:href="#StandardGradient" id="linearGradient3660" gradientUnits="userSpaceOnUse" y1="4.563" x2="0" y2="11.478" gradientTransform="matrix(1.7414965,0,0,1.7414965,-8.9470177,-1.9467179)"/>
  <linearGradient inkscape:collect="always" xlink:href="#StandardGradient" id="linearGradient3666" gradientUnits="userSpaceOnUse" gradientTransform="matrix(1.7414965,0,0,1.7414965,-8.9470177,-0.9467179)" y1="4.563" x2="0" y2="11.478"/>
  <clipPath id="clipPath3689">
   <path d="m -30,0 0,22 22,0 0,-22 -22,0 z m 10.9375,6 c 2.061216,1.17e-5 3.557174,0.4024349 4.46875,1.21875 0.918354,0.8095335 1.374987,2.1388268 1.375,3.96875 l 0,6.8125 -3.6875,0 0,-2 c -0.489805,0.693879 -1.044013,1.211521 -1.65625,1.53125 C -19.17475,17.844174 -19.903705,18 -20.78125,18 c -1.183677,0 -2.164756,-0.344173 -2.90625,-1.03125 -0.734695,-0.693874 -1.093751,-1.585457 -1.09375,-2.6875 -1e-6,-1.340132 0.456632,-2.342894 1.375,-2.96875 0.925167,-0.625843 2.370957,-0.937493 4.34375,-0.9375 l 2.15625,0 0,-0.28125 c -9e-6,-0.5782226 -0.231726,-0.9846853 -0.6875,-1.25 -0.45579,-0.2720996 -1.15902,-0.4062406 -2.125,-0.40625 -0.782317,9.4e-6 -1.514036,0.062297 -2.1875,0.21875 -0.673472,0.1564716 -1.296771,0.4058335 -1.875,0.71875 l 0,-2.78125 c 0.78231,-0.1904649 1.554631,-0.3422504 2.34375,-0.4375 0.789111,-0.1020291 1.585878,-0.1562378 2.375,-0.15625 z m 0.25,6.5625 c -0.76191,5e-6 -1.331,0.116502 -1.71875,0.375 -0.380957,0.258508 -0.562505,0.652853 -0.5625,1.15625 -5e-6,0.462588 0.162626,0.828446 0.46875,1.09375 0.312919,0.258506 0.730225,0.375002 1.28125,0.375 0.687067,2e-6 1.280604,-0.228952 1.75,-0.71875 0.469379,-0.496595 0.687491,-1.133499 0.6875,-1.875 l 0,-0.40625 -1.90625,0 z" id="path3691"/>
  </clipPath>
  <linearGradient inkscape:collect="always" xlink:href="#StandardGradient" id="linearGradient3654" gradientUnits="userSpaceOnUse" y1="4" x2="0" y2="18.04" gradientTransform="translate(0,1)"/>
  <linearGradient inkscape:collect="always" xlink:href="#StandardGradient" id="linearGradient3665" gradientUnits="userSpaceOnUse" y1="4" x2="0" y2="18.04"/>
  <clipPath id="clipPath3677">
   <path d="m -30,0 0,22 22,0 0,-22 -22,0 z m 8,4 11,0 0,2 -11,0 0,-2 z m -5,4 11,0 0,2 -11,0 0,-2 z m 16,0 0,6 -4,-3 4,-3 z m -16,4 9,0 0,2 -9,0 0,-2 z m 5,4 11,0 0,2 -11,0 0,-2 z" id="path3679"/>
  </clipPath>
  <linearGradient inkscape:collect="always" xlink:href="#StandardGradient" id="linearGradient2869" gradientUnits="userSpaceOnUse" gradientTransform="matrix(-1,0,0,1,22,1)" y1="4" x2="0" y2="18.04"/>
  <linearGradient inkscape:collect="always" xlink:href="#StandardGradient" id="linearGradient2873" gradientUnits="userSpaceOnUse" gradientTransform="matrix(-1,0,0,1,22,0)" y1="4" x2="0" y2="18.04"/>
  <linearGradient inkscape:collect="always" xlink:href="#StandardGradient" id="linearGradient3650" gradientUnits="userSpaceOnUse" gradientTransform="matrix(-1,0,0,1,-8,0)" y1="4" x2="0" y2="18.04"/>
  <clipPath id="clipPath3658">
   <path d="m -30,0 0,22 22,0 0,-22 -22,0 z m 3,4 11,0 0,2 -11,0 0,-2 z m 0,4 4,3 -4,3 0,-6 z m 5,0 11,0 0,2 -11,0 0,-2 z m 0,4 9,0 0,2 -9,0 0,-2 z m -5,4 11,0 0,2 -11,0 0,-2 z" id="path3660"/>
  </clipPath>
  <linearGradient inkscape:collect="always" xlink:href="#StandardGradient" id="linearGradient2893" gradientUnits="userSpaceOnUse" gradientTransform="matrix(1.1818182,0,0,1,-3.454545,-1)" y1="4" x2="0" y2="22"/>
  <linearGradient inkscape:collect="always" xlink:href="#StandardGradient" id="linearGradient3678" gradientUnits="userSpaceOnUse" gradientTransform="matrix(-1.1818182,0,0,1,25.454545,0)" y1="4" x2="0" y2="22"/>
  <linearGradient inkscape:collect="always" xlink:href="#StandardGradient" id="linearGradient3683" gradientUnits="userSpaceOnUse" gradientTransform="matrix(-1.1818182,0,0,1,25.454545,-1)" y1="4" x2="0" y2="22"/>
  <linearGradient inkscape:collect="always" xlink:href="#StandardGradient" id="linearGradient3688" gradientUnits="userSpaceOnUse" gradientTransform="matrix(-1.1818182,0,0,1,-4.545455,-1)" y1="4" x2="0" y2="22"/>
  <clipPath id="clipPath3695">
   <path d="m -30,0 0,22 22,0 0,-22 -22,0 z m 3,3 13,0 0,2 -13,0 0,-2 z m 0,4 16,0 0,2 -16,0 0,-2 z m 0,4 11,0 0,2 -11,0 0,-2 z m 4,4 0,2 5,0 0,2 -5,0 0,2 -4,-3 4,-3 z" id="path3697"/>
  </clipPath>
  <linearGradient inkscape:collect="always" xlink:href="#StandardGradient" id="linearGradient2883" gradientUnits="userSpaceOnUse" gradientTransform="matrix(1.7190083,0,0,1,-13.661156,-1)" y1="4" x2="0" y2="22"/>
  <linearGradient inkscape:collect="always" xlink:href="#StandardGradient" id="linearGradient2887" gradientUnits="userSpaceOnUse" gradientTransform="matrix(1.1818182,0,0,1,-11.454545,-1)" y1="4" x2="0" y2="22"/>
  <linearGradient inkscape:collect="always" xlink:href="#StandardGradient" id="linearGradient2891" gradientUnits="userSpaceOnUse" gradientTransform="matrix(-1.1818182,0,0,1,33.454545,-1)" y1="4" x2="0" y2="22"/>
  <linearGradient inkscape:collect="always" xlink:href="#StandardGradient" id="linearGradient3674" gradientUnits="userSpaceOnUse" gradientTransform="matrix(1.4545455,0,0,1,-8.6363631,0)" y1="4" x2="0" y2="22"/>
  <linearGradient inkscape:collect="always" xlink:href="#StandardGradient" id="linearGradient3679" gradientUnits="userSpaceOnUse" gradientTransform="matrix(1.4545455,0,0,1,-8.6363631,-1)" y1="4" x2="0" y2="22"/>
  <linearGradient inkscape:collect="always" xlink:href="#StandardGradient" id="linearGradient3684" gradientUnits="userSpaceOnUse" gradientTransform="matrix(1.4545455,0,0,1,-38.636363,-1)" y1="4" x2="0" y2="22"/>
  <clipPath id="clipPath3691">
   <path d="m -30,0 0,22 22,0 0,-22 -22,0 z m 3,3 16,0 0,2 -16,0 0,-2 z m 0,4 16,0 0,2 -16,0 0,-2 z m 0,4 16,0 0,2 -16,0 0,-2 z m 4,4 4,3 4,-3 0,2 3,0 0,2 -3,0 0,2 -4,-3 -4,3 0,-2 -3,0 0,-2 3,0 0,-2 z" id="path3693"/>
  </clipPath>
  <clipPath id="clipPath3676">
   <path d="m -30,0 0,22 22,0 0,-22 -22,0 z m 5,3 12,0 0,2 -12,0 0,-2 z m -2,4 16,0 0,2 -16,0 0,-2 z m 3,4 10,0 0,2 -10,0 0,-2 z m 1,4 4,3 4,-3 0,2 3,0 0,2 -3,0 0,2 -4,-3 -4,3 0,-2 -3,0 0,-2 3,0 0,-2 z" id="path3678"/>
  </clipPath>
  <radialGradient inkscape:collect="always" xlink:href="#linearGradient4203" id="radialGradient4201" cx="12" cy="13.778" r="8" gradientTransform="matrix(2,-1.3998709e-8,2.2145226e-8,1.375,-10.99975,-5.944444)" gradientUnits="userSpaceOnUse"/>
 </defs>
 <metadata id="metadata7"/>
 <g inkscape:label="Calque 1" id="layer1" inkscape:groupmode="layer" transform="translate(0,2)">
  <path d="M 5.7815,0.96875 A 1.0371497,1.0371497 0 0 0 4.969,2 l 0,2 a 1.0371497,1.0371497 0 0 0 0.65625,0.96875 l -1.625,0 A 1.0371497,1.0371497 0 0 0 2.969,6 l 0,2 a 1.0371497,1.0371497 0 0 0 1.03125,1.03125 l 2.59375,0 A 1.0371497,1.0371497 0 0 0 5.969,10 l 0,2 a 1.0371497,1.0371497 0 0 0 1.03125,1.03125 l 0.625,0 A 1.0371497,1.0371497 0 0 0 6.969,14 l 0,0.96875 -1.96875,0 A 1.0371497,1.0371497 0 0 0 3.969,16 l 0,2 a 1.0371497,1.0371497 0 0 0 1.03125,1.03125 l 1.96875,0 0,0.96875 a 1.0371497,1.0371497 0 0 0 1.65625,0.84375 l 3.375,-2.53125 3.375,2.53125 A 1.0371497,1.0371497 0 0 0 17.0315,20 l 0,-0.96875 1.96875,0 A 1.0371497,1.0371497 0 0 0 20.0315,18 l 0,-2 a 1.0371497,1.0371497 0 0 0 -1.03125,-1.03125 l -1.96875,0 0,-0.96875 a 1.0371497,1.0371497 0 0 0 -0.65625,-0.96875 l 0.625,0 A 1.0371497,1.0371497 0 0 0 18.0315,12 l 0,-2 A 1.0371497,1.0371497 0 0 0 17.37525,9.03125 l 2.625,0 A 1.0371497,1.0371497 0 0 0 21.0315,8 l 0,-2 A 1.0371497,1.0371497 0 0 0 20.00025,4.96875 l -1.59375,0 A 1.0371497,1.0371497 0 0 0 19.0315,4 l 0,-2 A 1.0371497,1.0371497 0 0 0 18.00025,0.96875 l -12,0 a 1.0371497,1.0371497 0 0 0 -0.21875,0 z M 6.00025,2 l 12,0 0,2 -12,0 0,-2 z m -2,4 16,0 0,2 -16,0 0,-2 z m 3,4 10,0 0,2 -10,0 0,-2 z m 1.34375,3.03125 7.3125,0 a 1.0371497,1.0371497 0 0 0 -0.28125,0.125 l -3.375,2.53125 -3.375,-2.53125 A 1.0371497,1.0371497 0 0 0 8.344,13.03125 Z M 8.00025,14 l 4,3 4,-3 0,2 3,0 0,2 -3,0 0,2 -4,-3 -4,3 0,-2 -3,0 0,-2 3,0 0,-2 z" id="path4630" inkscape:connector-curvature="0" opacity="0.05" fill="#ffffff"/>
  <path d="m 6.00025,2 0,2 12,0 0,-2 -12,0 z m -2,4 0,2 16,0 0,-2 -16,0 z m 3,4 0,2 10,0 0,-2 -10,0 z m 1,4 0,2 -3,0 0,2 3,0 0,2 4,-3 -4,-3 z m 4,3 4,3 0,-2 3,0 0,-2 -3,0 0,-2 -4,3 z" id="path2881" sodipodi:nodetypes="ccccccccccccccccccccccccccccccc" inkscape:connector-curvature="0" fill="url(#radialGradient4201)"/>
  <path d="m 6.00025,2 0,1 12,0 0,-1 -12,0 z m -2,4 0,1 16,0 0,-1 -16,0 z m 3,4 0,1 10,0 0,-1 -10,0 z m 1,4 0,1 3.34375,2.5 0.65625,-0.5 -4,-3 z m 4,3 0.65625,0.5 3.34375,-2.5 0,-1 -4,3 z m -7,-1 0,1 3,0 0,-1 -3,0 z m 11,0 0,1 3,0 0,-1 -3,0 z" id="path2894" sodipodi:nodetypes="ccccccccccccccccccccccccccccccccccc" inkscape:connector-curvature="0" opacity="0.3"/>
  <path d="m 6.00025,4 0,1 12,0 0,-1 -12,0 z m -2,4 0,1 16,0 0,-1 -16,0 z m 3,4 0,1 10,0 0,-1 -10,0 z m 4.34375,5.5 -3.34375,2.5 0,1 4,-3 -0.65625,-0.5 z m 0.65625,0.5 4,3 0,-1 -3.34375,-2.5 -0.65625,0.5 z m -7,0 0,1 3,0 0,-1 -3,0 z m 11,0 0,1 3,0 0,-1 -3,0 z" id="path2885" inkscape:connector-curvature="0" opacity="0.2" fill="#ffffff"/>
 </g>
</svg>
