<?xml version="1.0" encoding="UTF-8" standalone="no"?>
<svg xmlns="http://www.w3.org/2000/svg" xmlns:xlink="http://www.w3.org/1999/xlink" xmlns:sodipodi="http://sodipodi.sourceforge.net/DTD/sodipodi-0.dtd" xmlns:inkscape="http://www.inkscape.org/namespaces/inkscape" width="24" height="24" version="1.0">
 <defs id="defs4">
  <linearGradient id="StandardGradient" gradientTransform="scale(0.9219544,1.0846523)" y1="0.922" x2="0" y2="19.387" gradientUnits="userSpaceOnUse">
   <stop id="stop3283" stop-opacity="0.235"/>
   <stop id="stop3850" offset="0.7" stop-opacity="0.392"/>
   <stop offset="1" id="stop2651" stop-opacity="0.55"/>
  </linearGradient>
  <radialGradient inkscape:collect="always" xlink:href="#linearGradient3278" id="radialGradient3665" gradientUnits="userSpaceOnUse" gradientTransform="matrix(0.225246,0,0,0.2857144,-3.4157483,-15.343092)" cx="64" cy="120.2" r="56"/>
  <linearGradient id="linearGradient3278">
   <stop id="stop3280" stop-color="#646464"/>
   <stop offset="1" id="stop3282"/>
  </linearGradient>
  <linearGradient inkscape:collect="always" xlink:href="#StandardGradient-0" id="linearGradient3810" y1="3" x2="0" y2="19" gradientUnits="userSpaceOnUse"/>
  <linearGradient id="StandardGradient-0" gradientTransform="scale(0.930775,1.0743735)" y1="3.736" x2="0" y2="16.759" gradientUnits="userSpaceOnUse">
   <stop id="stop3337" stop-opacity="0.863"/>
   <stop id="stop3339" offset="1" stop-opacity="0.471"/>
  </linearGradient>
  <radialGradient inkscape:collect="always" xlink:href="#StandardGradient" id="radialGradient3886" cx="12" cy="13" r="8" gradientUnits="userSpaceOnUse" gradientTransform="matrix(2,0,0,1.25,-11,-4.25)"/>
  <radialGradient inkscape:collect="always" xlink:href="#StandardGradient" id="radialGradient3892" gradientUnits="userSpaceOnUse" gradientTransform="matrix(2,0,0,1.25,-12,-3.25)" cx="12" cy="13" r="8"/>
  <radialGradient inkscape:collect="always" xlink:href="#StandardGradient" id="radialGradient3905" gradientUnits="userSpaceOnUse" gradientTransform="matrix(2,0,0,1.25,-12,-2.25)" cx="12" cy="13" r="8"/>
 </defs>
 <metadata id="metadata7"/>
 <g inkscape:label="Calque 1" id="layer1" inkscape:groupmode="layer" transform="translate(0,2)">
  <path d="M 6,1 C 4.3471878,1 3,2.3471878 3,4 l 0,12 c 0,1.652812 1.3471878,3 3,3 l 12,0 c 1.652812,0 3,-1.347188 3,-3 L 21,4 C 21,2.3471878 19.652812,1 18,1 L 6,1 Z m 0,1 12,0 c 1.108,0 2,0.892 2,2 l 0,12 c 0,1.108 -0.892,2 -2,2 L 6,18 C 4.892,18 4,17.108 4,16 L 4,4 C 4,2.892 4.892,2 6,2 Z m 9.03125,4.03125 -4.0625,4.71875 -2,-1.8125 -1.9375,2.09375 3.9375,3.90625 6,-6.8125 -1.9375,-2.09375 z M 15.0625,7.5625 15.625,8.15625 10.9375,13.46875 8.4375,11 l 0.59375,-0.625 1.25,1.125 A 1.0152112,1.0152112 0 0 0 11.75,11.40625 L 15.0625,7.5625 Z" id="path3925" inkscape:connector-curvature="0" opacity="0.05" fill="#ffffff" color="#000000" stroke-width="0.8"/>
  <path d="M 6,2 C 4.892,2 4,2.892 4,4 l 0,12 c 0,1.108 0.892,2 2,2 l 12,0 c 1.108,0 2,-0.892 2,-2 L 20,4 C 20,2.892 19.108,2 18,2 L 6,2 Z m 9.03125,4.03125 1.9375,2.09375 -6,6.8125 -3.9375,-3.90625 1.9375,-2.09375 2,1.8125 4.0625,-4.71875 z" id="rect3103" inkscape:connector-curvature="0" fill="url(#radialGradient3886)" color="#000000" stroke-width="0.8"/>
  <path d="M 6,2 C 4.892,2 4,2.892 4,4 l 0,12 c 0,1.108 0.892,2 2,2 l 12,0 c 1.108,0 2,-0.892 2,-2 L 20,4 C 20,2.892 19.108,2 18,2 L 6,2 Z m 0,0.5 12,0 c 0.839988,0 1.5,0.6600121 1.5,1.5 l 0,12 c 0,0.839988 -0.660012,1.5 -1.5,1.5 l -12,0 C 5.1600121,17.5 4.5,16.839988 4.5,16 L 4.5,4 C 4.5,3.1600121 5.1600121,2.5 6,2.5 Z m 8.90625,3.03125 a 0.49941786,0.49941786 0 0 0 -0.25,0.1875 L 10.9375,10.03125 9.3125,8.5625 A 0.49941786,0.49941786 0 0 0 8.59375,8.59375 L 6.65625,10.6875 A 0.49941786,0.49941786 0 0 0 6.6875,11.375 l 3.9375,3.90625 a 0.49941786,0.49941786 0 0 0 0.71875,0 l 6,-6.8125 a 0.49941786,0.49941786 0 0 0 0,-0.6875 L 15.40625,5.6875 a 0.49941786,0.49941786 0 0 0 -0.46875,-0.15625 0.49941786,0.49941786 0 0 0 -0.03125,0 z m 0.125,0.5 1.9375,2.09375 -6,6.8125 -3.9375,-3.90625 1.9375,-2.09375 2,1.8125 4.0625,-4.71875 z" id="path3888" inkscape:connector-curvature="0" opacity="0.3" color="#000000" stroke-width="0.8"/>
  <path d="M 6,2 C 4.892,2 4,2.892 4,4 L 4,5 C 4,3.892 4.892,3 6,3 l 12,0 c 1.108,0 2,0.892 2,2 L 20,4 C 20,2.892 19.108,2 18,2 L 6,2 Z M 16.53125,8.625 10.96875,14.9375 7.5,11.5 l -0.46875,0.53125 3.9375,3.90625 6,-6.8125 -0.4375,-0.5 z" id="path3901" inkscape:connector-curvature="0" opacity="0.3" color="#000000" stroke-width="0.8"/>
  <path d="m 15.03125,6.03125 -4.0625,4.71875 -2,-1.8125 -1.9375,2.09375 L 7.5,11.5 8.96875,9.9375 l 2,1.8125 4.0625,-4.71875 1.5,1.59375 0.4375,-0.5 -1.9375,-2.09375 z M 4,16 4,17 c 0,1.108 0.892,2 2,2 l 12,0 c 1.108,0 2,-0.892 2,-2 l 0,-1 c 0,1.108 -0.892,2 -2,2 L 6,18 C 4.892,18 4,17.108 4,16 Z" id="path3910" inkscape:connector-curvature="0" opacity="0.2" fill="#ffffff" color="#000000" stroke-width="0.8"/>
 </g>
</svg>
