<?xml version="1.0" encoding="UTF-8" standalone="no"?>
<svg xmlns="http://www.w3.org/2000/svg" xmlns:xlink="http://www.w3.org/1999/xlink" xmlns:sodipodi="http://sodipodi.sourceforge.net/DTD/sodipodi-0.dtd" xmlns:inkscape="http://www.inkscape.org/namespaces/inkscape" width="24" height="24" version="1.0">
 <defs id="defs4">
  <linearGradient gradientUnits="userSpaceOnUse" y2="19.387" x2="0" y1="0.922" gradientTransform="scale(0.9219544,1.0846523)" id="linearGradient4222">
   <stop id="stop4224" stop-opacity="0.235"/>
   <stop id="stop4226" offset="1" stop-opacity="0.549"/>
  </linearGradient>
  <linearGradient inkscape:collect="always" id="linearGradient3693">
   <stop id="stop3695"/>
   <stop offset="1" id="stop3697" stop-opacity="0"/>
  </linearGradient>
  <linearGradient inkscape:collect="always" xlink:href="#StandardGradient" id="linearGradient2549" gradientUnits="userSpaceOnUse" gradientTransform="matrix(0.9247229,0,0,1.0872097,16.939944,2.9976422)" y1="0.922" x2="0" y2="17.478"/>
  <linearGradient id="StandardGradient" gradientTransform="scale(0.9219544,1.0846523)" y1="0.922" x2="0" y2="19.387" gradientUnits="userSpaceOnUse">
   <stop id="stop3283" stop-opacity="0.863"/>
   <stop offset="1" id="stop2651" stop-opacity="0.471"/>
  </linearGradient>
  <linearGradient inkscape:collect="always" xlink:href="#StandardGradient" id="linearGradient2406" gradientUnits="userSpaceOnUse" gradientTransform="matrix(0.9219544,0,0,1.0846523,0,-1)" y1="2.766" x2="0" y2="19.387"/>
  <linearGradient inkscape:collect="always" xlink:href="#StandardGradient" id="linearGradient4636" gradientUnits="userSpaceOnUse" gradientTransform="matrix(0.9219544,0,0,1.0846523,-0.01723507,0.96875)" y1="2.766" x2="0" y2="15.702"/>
  <linearGradient inkscape:collect="always" xlink:href="#StandardGradient" id="linearGradient2405" gradientUnits="userSpaceOnUse" gradientTransform="matrix(0.9219544,0,0,1.0846523,-0.01723507,-0.03125)" y1="2.766" x2="0" y2="15.702"/>
  <linearGradient inkscape:collect="always" xlink:href="#StandardGradient" id="linearGradient2407" gradientUnits="userSpaceOnUse" gradientTransform="matrix(0.9219544,0,0,1.0846523,-0.01723507,-1.03125)" y1="2.766" x2="0" y2="15.702"/>
  <linearGradient inkscape:collect="always" xlink:href="#StandardGradient" id="linearGradient2542" gradientUnits="userSpaceOnUse" gradientTransform="matrix(0.9247229,0,0,1.0872097,-2.060056,5.9976422)" y1="0.922" x2="0" y2="17.478"/>
  <linearGradient inkscape:collect="always" xlink:href="#StandardGradient" id="linearGradient3644" gradientUnits="userSpaceOnUse" gradientTransform="matrix(0.9219544,0,0,1.0846523,-30.017235,-0.03125)" y1="2.766" x2="0" y2="15.702"/>
  <clipPath id="clipPath3651">
   <path d="m -30,0 0,22 22,0 0,-22 -22,0 z m 4,2 3.96875,0 c 0.554,0 1,0.446 1,1 l 0,1 8.5,0 c 0.669688,0 1.243585,0.3963931 1.4375,1 C -11.04026,5.1544781 -11,5.326875 -11,5.5 l 0,0.5 -5,0 -1,0 -4.21875,0 L -27,6 l 0,-1 0,-2 c 0,-0.554 0.446,-1 1,-1 z m -0.5,5 5,0 8,0 2,0 c 0.831,0 1.5,0.669 1.5,1.5 l 0,8 c 0,0.831 -0.669,1.5 -1.5,1.5 l -0.5,0 0,0.25 0,1.25 c 0,0.831 -0.669,1.5 -1.5,1.5 l -8,0 c -0.831,0 -1.5,-0.669 -1.5,-1.5 l 0,-1.5 -3.5,0 c -0.831,0 -1.5,-0.669 -1.5,-1.5 l 0,-8 C -28,7.669 -27.331,7 -26.5,7 Z m 6,2 C -20.777,9 -21,9.223 -21,9.5 l 0,9 c 0,0.277 0.223,0.5 0.5,0.5 l 6,0 c 0.277,0 0.5,-0.223 0.5,-0.5 l 0,-9 C -14,9.223 -14.223,9 -14.5,9 l -2.90625,0 -2.09375,0 -1,0 z" id="path3653"/>
  </clipPath>
  <linearGradient inkscape:collect="always" xlink:href="#linearGradient3693" id="linearGradient3663" x1="1" x2="21" gradientUnits="userSpaceOnUse" gradientTransform="matrix(0,1,-1,0,23,-2.0000557)"/>
  <linearGradient inkscape:collect="always" xlink:href="#linearGradient3693" id="linearGradient3676" x1="4" x2="18" gradientUnits="userSpaceOnUse" gradientTransform="matrix(0,1,-1,0,22,-3.0000557)"/>
  <linearGradient inkscape:collect="always" xlink:href="#linearGradient3693" id="linearGradient3699" x1="7" x2="15" gradientUnits="userSpaceOnUse" gradientTransform="matrix(0,1,-1,0,21,-4.0000557)"/>
  <linearGradient inkscape:collect="always" xlink:href="#StandardGradient" id="linearGradient3731" gradientUnits="userSpaceOnUse" y1="8" x2="0" y2="21.04" gradientTransform="translate(0,20)"/>
  <linearGradient inkscape:collect="always" xlink:href="#StandardGradient" id="linearGradient3736" gradientUnits="userSpaceOnUse" y1="8" x2="0" y2="21.04"/>
  <clipPath id="clipPath3766">
   <path d="m -30,0 0,22 22,0 0,-4 -3,0 0,3 -3,0 0,-3 -3,0 0,-3 3,0 0,-3 3,0 0,3 3,0 0,-15 -22,0 z m 11,8 c 1.104569,0 2,0.8954305 2,2 0,1.104569 -0.895431,2 -2,2 -1.10457,0 -2,-0.895431 -2,-2 0,-1.1045695 0.89543,-2 2,-2 z m 0,5 c 0,0 1.87591,0.04339 2.65625,1.03125 l -0.65625,0 A 0.98398207,0.98398207 0 0 0 -17.96875,15 l 0,3 A 0.98398207,0.98398207 0 0 0 -17,18.96875 l 0.53125,0 C -16.724802,20.161716 -17,21 -17,21 l -4,0 c 0,0 -1.07558,-3.354543 -1,-6 0.05748,-2.01177 3,-2 3,-2 z" id="path3768"/>
  </clipPath>
  <linearGradient inkscape:collect="always" xlink:href="#StandardGradient" id="linearGradient3862" gradientUnits="userSpaceOnUse" y1="7" x2="0" y2="21.04" gradientTransform="translate(0,1)"/>
  <linearGradient inkscape:collect="always" xlink:href="#StandardGradient" id="linearGradient3864" gradientUnits="userSpaceOnUse" y1="7" x2="0" y2="21.04"/>
  <linearGradient inkscape:collect="always" xlink:href="#StandardGradient" id="linearGradient3878" gradientUnits="userSpaceOnUse" y1="7" x2="0" y2="21.04" gradientTransform="translate(-30,0)"/>
  <clipPath id="clipPath3885">
   <path d="m -30,0 0,22 22,0 0,-22 -22,0 z m 11,6.5 c 0.828427,0 1.5,0.6715729 1.5,1.5 0,0.3106602 -0.08826,0.6043485 -0.25,0.84375 L -14,21 l -2,0 -0.28125,-1 -5.4375,0 L -22,21 -24,21 -20.25,8.84375 C -20.41174,8.6043485 -20.5,8.3106602 -20.5,8 c 0,-0.8284271 0.671573,-1.5 1.5,-1.5 z m -1,7.5 -0.53125,1.84375 3.0625,0 L -18,14 l -2,0 z m -0.84375,3 -0.53125,1.84375 4.75,0 L -17.15625,17 l -3.6875,0 z" id="path3887"/>
  </clipPath>
  <radialGradient inkscape:collect="always" xlink:href="#linearGradient4222" id="radialGradient4220" cx="11" cy="15.302" r="5" gradientTransform="matrix(2.4,-8.3179322e-8,6.9316106e-8,2.0000001,-14.400001,-15.603505)" gradientUnits="userSpaceOnUse"/>
 </defs>
 <metadata id="metadata7"/>
 <g inkscape:label="Calque 1" id="layer1" inkscape:groupmode="layer" transform="translate(0,2)">
  <path d="m 12,4.4999443 c -1.368239,0 -2.5,1.1317605 -2.5,2.5 0,0.2549897 0.1455232,0.4778753 0.21875,0.71875 L 6.03125,19.718694 A 0.99893825,0.99893825 0 0 0 7,20.999944 l 2,0 a 0.99893825,0.99893825 0 0 0 0.96875,-0.71875 l 0.09375,-0.28125 3.875,0 0.09375,0.28125 A 0.99893825,0.99893825 0 0 0 15,20.999944 l 2,0 a 0.99893825,0.99893825 0 0 0 0.96875,-1.28125 L 14.28125,7.7186943 C 14.354477,7.477819 14.5,7.2549329 14.5,6.9999443 c 0,-1.3682395 -1.131761,-2.5 -2.5,-2.5 z m 0,1 c 0.828427,0 1.5,0.6715729 1.5,1.5 0,0.3106602 -0.08826,0.6043485 -0.25,0.84375 L 17,19.999944 l -2,0 -0.28125,-1 -5.4375,0 -0.28125,1 -2,0 3.75,-12.1562497 C 10.588264,7.6042928 10.5,7.3106045 10.5,6.9999443 c 0,-0.8284271 0.671573,-1.5 1.5,-1.5 z m -1,7.4999997 -0.53125,1.84375 3.0625,0 L 13,12.999944 l -2,0 z m -0.84375,3 -0.53125,1.84375 4.75,0 -0.53125,-1.84375 -3.6875,0 z" id="path5105" inkscape:connector-curvature="0" opacity="0.05" fill="#ffffff" color="#000000"/>
  <path d="m 22,8.9999443 c 0,-5.5228475 -4.477153,-10 -10,-10 -5.522847,0 -10,4.4771525 -10,10 0,5.5228467 4.477153,9.9999997 10,9.9999997 5.522847,0 10,-4.477153 10,-9.9999997 z m -1,0 C 21,10.331793 20.710704,11.596073 20.191522,12.733373 18.773078,15.840564 15.638714,17.999944 12,17.999944 c -4.970563,0 -9,-4.029437 -9,-8.9999997 0,-4.9705627 4.029437,-9.000000017462 9,-9.000000017462 4.970563,0 9,4.029437317462 9,9.000000017462 z" id="path2880" sodipodi:nodetypes="csssccssssc" inkscape:connector-curvature="0" opacity="0.3" fill="url(#linearGradient3663)" color="#000000"/>
  <path d="m 19,7.9999443 c 0,-3.8659932 -3.134007,-7.00000002 -7,-7.00000002 -3.865993,0 -7,3.13400682 -7,7.00000002 0,3.8659927 3.134007,6.9999997 7,6.9999997 3.865993,0 7,-3.134007 7,-6.9999997 z m -1,0 c 0,3.3137087 -2.686291,5.9999997 -6,5.9999997 -3.313709,0 -6,-2.686291 -6,-5.9999997 0,-3.3137085 2.686291,-6 6,-6 3.313709,0 6,2.6862915 6,6 z" id="path3665" inkscape:connector-curvature="0" opacity="0.3" fill="url(#linearGradient3676)" color="#000000"/>
  <path d="m 16,6.9999443 c 0,-2.209139 -1.790861,-4 -4,-4 -2.209139,0 -4,1.790861 -4,4 0,2.209139 1.790861,3.9999997 4,3.9999997 2.209139,0 4,-1.7908607 4,-3.9999997 z m -1,0 c 0,1.656854 -1.343146,3 -3,3 -1.656854,0 -3,-1.343146 -3,-3 0,-1.656854 1.343146,-3 3,-3 1.656854,0 3,1.343146 3,3 z" id="path3688" inkscape:connector-curvature="0" opacity="0.3" fill="url(#linearGradient3699)" color="#000000"/>
  <path d="m 12,5.4999443 c -0.828427,0 -1.5,0.6715729 -1.5,1.5 0,0.3106602 0.08826,0.6043485 0.25,0.84375 L 7,19.999944 l 2,0 0.28125,-1 5.4375,0 0.28125,1 2,0 -3.75,-12.1562497 c 0.161737,-0.2394015 0.25,-0.5330898 0.25,-0.84375 0,-0.8284271 -0.671573,-1.5 -1.5,-1.5 z m -1,7.4999997 2,0 0.53125,1.84375 -3.0625,0 L 11,12.999944 Z m -0.84375,3 3.6875,0 0.53125,1.84375 -4.75,0 0.53125,-1.84375 z" id="path3841" inkscape:connector-curvature="0" fill="url(#radialGradient4220)" color="#000000"/>
  <path d="m 12,5.4999443 c -0.828427,0 -1.5,0.6715729 -1.5,1.5 0,0.1795767 0.03762,0.3389726 0.09375,0.5 0.20384,-0.586412 0.750412,-1 1.40625,-1 0.655838,0 1.20241,0.413588 1.40625,1 0.05613,-0.1610274 0.09375,-0.3204233 0.09375,-0.5 0,-0.8284271 -0.671573,-1.5 -1.5,-1.5 z m -1.4375,2.9375 L 7,19.999944 l 0.3125,0 L 10.75,8.8436943 c -0.08087,-0.1197007 -0.145217,-0.2640702 -0.1875,-0.40625 z m 2.875,0 c -0.04228,0.1421798 -0.106631,0.2865493 -0.1875,0.40625 l 3.4375,11.1562497 0.3125,0 -3.5625,-11.5624997 z m -2.6875,6.4062497 -0.28125,1 3.0625,0 -0.28125,-1 -2.5,0 z m -0.84375,3 -0.28125,1 4.75,0 -0.28125,-1 -4.1875,0 z" id="path3858" inkscape:connector-curvature="0" opacity="0.3" color="#000000"/>
  <path d="m 10.59375,7.4999443 c -0.05364,0.154319 -0.09375,0.327411 -0.09375,0.5 0,0.1553301 0.02022,0.2953202 0.0625,0.4375 l 0.1875,-0.59375 c -0.06824,-0.1010158 -0.115279,-0.2262068 -0.15625,-0.34375 z m 2.8125,0 c -0.04097,0.1175432 -0.08801,0.2427342 -0.15625,0.34375 l 0.1875,0.59375 c 0.04228,-0.1421798 0.0625,-0.2821699 0.0625,-0.4375 0,-0.172589 -0.04011,-0.345681 -0.09375,-0.5 z M 11,12.999944 l -0.53125,1.84375 0.28125,0 0.25,-0.84375 2,0 0.25,0.84375 0.28125,0 L 13,12.999944 l -2,0 z m -0.84375,3 -0.53125,1.84375 0.28125,0 0.25,-0.84375 3.6875,0 0.25,0.84375 0.28125,0 -0.53125,-1.84375 -3.6875,0 z m -0.875,3 -0.28125,1 -1.6875,0 -0.3125,1 2,0 0.28125,-1 5.4375,0 0.28125,1 2,0 -0.3125,-1 -1.6875,0 -0.28125,-1 -5.4375,0 z" id="path3867" inkscape:connector-curvature="0" opacity="0.2" fill="#ffffff" color="#000000"/>
  <path d="m 12,5.4999443 c -0.828427,0 -1.5,0.6715729 -1.5,1.5 0,0.3106602 0.08826,0.6043485 0.25,0.84375 L 7,19.999944 l 2,0 0.28125,-1 5.4375,0 0.28125,1 2,0 -3.75,-12.1562497 c 0.161737,-0.2394015 0.25,-0.5330898 0.25,-0.84375 0,-0.8284271 -0.671573,-1.5 -1.5,-1.5 z m 0,0.5996094 c 0.504163,0 0.900391,0.3962277 0.900391,0.9003906 0,0.1970145 -0.05744,0.3731204 -0.148438,0.5078125 l -0.160156,0.2382813 3.59375,11.6542969 -0.730469,0 -0.28125,-1 -0.01367,0 -0.853515,-2.957032 0.02148,0 -0.876953,-3.042968 -2.902344,0 -0.125,0.433593 -0.751953,2.609375 0.021484,0 -0.113281,0.390625 -0.740234,2.566407 -0.013672,0 -0.28125,1 -0.730469,0 3.59375,-11.6542969 -0.160156,-0.2382813 C 11.157056,7.3730693 11.099609,7.1969626 11.099609,6.9999443 11.099609,6.4957814 11.495837,6.0995537 12,6.0995537 Z m -1,6.9003903 2,0 0.53125,1.84375 -3.0625,0 L 11,12.999944 Z m -0.84375,3 3.6875,0 0.53125,1.84375 -4.75,0 0.53125,-1.84375 z" id="path3841-4" inkscape:connector-curvature="0" shape-rendering="auto" mix-blend-mode="normal" color-interpolation-filters="linearRGB" isolation="auto" white-space="normal" opacity="0.3" solid-opacity="1" image-rendering="auto" solid-color="#000000" color="#000000" stroke-width="1.2" color-rendering="auto" color-interpolation="sRGB"/>
 </g>
</svg>
