<?xml version="1.0" encoding="UTF-8" standalone="no"?>
<svg xmlns="http://www.w3.org/2000/svg" xmlns:xlink="http://www.w3.org/1999/xlink" xmlns:sodipodi="http://sodipodi.sourceforge.net/DTD/sodipodi-0.dtd" xmlns:inkscape="http://www.inkscape.org/namespaces/inkscape" width="24" height="24" version="1.0">
 <defs id="defs4">
  <linearGradient inkscape:collect="always" xlink:href="#StandardGradient" id="linearGradient2549" gradientUnits="userSpaceOnUse" gradientTransform="matrix(0.9247229,0,0,1.0872097,16.939944,2.9976422)" y1="0.922" x2="0" y2="17.478"/>
  <linearGradient id="StandardGradient" gradientTransform="scale(0.9219544,1.0846523)" y1="0.922" x2="0" y2="19.387" gradientUnits="userSpaceOnUse">
   <stop id="stop3283" stop-opacity="0.235"/>
   <stop id="stop3850" offset="0.7" stop-opacity="0.392"/>
   <stop offset="1" id="stop2651" stop-opacity="0.55"/>
  </linearGradient>
  <linearGradient inkscape:collect="always" xlink:href="#StandardGradient" id="linearGradient2406" gradientUnits="userSpaceOnUse" gradientTransform="matrix(0.9219544,0,0,1.0846523,0,-1)" y1="2.766" x2="0" y2="19.387"/>
  <linearGradient inkscape:collect="always" xlink:href="#StandardGradient" id="linearGradient4636" gradientUnits="userSpaceOnUse" gradientTransform="matrix(0.9219544,0,0,1.0846523,-0.01723507,0.96875)" y1="2.766" x2="0" y2="15.702"/>
  <linearGradient inkscape:collect="always" xlink:href="#StandardGradient" id="linearGradient2405" gradientUnits="userSpaceOnUse" gradientTransform="matrix(0.9219544,0,0,1.0846523,-0.01723507,-0.03125)" y1="2.766" x2="0" y2="15.702"/>
  <linearGradient inkscape:collect="always" xlink:href="#StandardGradient" id="linearGradient2407" gradientUnits="userSpaceOnUse" gradientTransform="matrix(0.9219544,0,0,1.0846523,-0.01723507,-1.03125)" y1="2.766" x2="0" y2="15.702"/>
  <linearGradient inkscape:collect="always" xlink:href="#StandardGradient" id="linearGradient2542" gradientUnits="userSpaceOnUse" gradientTransform="matrix(0.9247229,0,0,1.0872097,-2.060056,5.9976422)" y1="0.922" x2="0" y2="17.478"/>
  <linearGradient inkscape:collect="always" xlink:href="#StandardGradient" id="linearGradient3644" gradientUnits="userSpaceOnUse" gradientTransform="matrix(0.9219544,0,0,1.0846523,-30.017235,-0.03125)" y1="2.766" x2="0" y2="15.702"/>
  <clipPath id="clipPath3651">
   <path d="m -30,0 0,22 22,0 0,-22 -22,0 z m 4,2 3.96875,0 c 0.554,0 1,0.446 1,1 l 0,1 8.5,0 c 0.669688,0 1.243585,0.3963931 1.4375,1 C -11.04026,5.1544781 -11,5.326875 -11,5.5 l 0,0.5 -5,0 -1,0 -4.21875,0 L -27,6 l 0,-1 0,-2 c 0,-0.554 0.446,-1 1,-1 z m -0.5,5 5,0 8,0 2,0 c 0.831,0 1.5,0.669 1.5,1.5 l 0,8 c 0,0.831 -0.669,1.5 -1.5,1.5 l -0.5,0 0,0.25 0,1.25 c 0,0.831 -0.669,1.5 -1.5,1.5 l -8,0 c -0.831,0 -1.5,-0.669 -1.5,-1.5 l 0,-1.5 -3.5,0 c -0.831,0 -1.5,-0.669 -1.5,-1.5 l 0,-8 C -28,7.669 -27.331,7 -26.5,7 Z m 6,2 C -20.777,9 -21,9.223 -21,9.5 l 0,9 c 0,0.277 0.223,0.5 0.5,0.5 l 6,0 c 0.277,0 0.5,-0.223 0.5,-0.5 l 0,-9 C -14,9.223 -14.223,9 -14.5,9 l -2.90625,0 -2.09375,0 -1,0 z" id="path3653"/>
  </clipPath>
  <radialGradient inkscape:collect="always" xlink:href="#StandardGradient" id="radialGradient3799" gradientUnits="userSpaceOnUse" gradientTransform="matrix(1.1111111,-7.219351e-8,7.2193516e-8,1.1111112,-1.6666678,-1.4619872)" cx="15" cy="14.816" r="9"/>
  <radialGradient inkscape:collect="always" xlink:href="#StandardGradient" id="radialGradient3790" gradientUnits="userSpaceOnUse" gradientTransform="matrix(1.2222222,-1.4352098e-8,1.4352098e-8,1.2222222,-23.133333,-2.9081851)" cx="13.2" cy="13.02" r="9"/>
  <radialGradient inkscape:collect="always" xlink:href="#StandardGradient" id="radialGradient3080" gradientUnits="userSpaceOnUse" gradientTransform="matrix(1.7777777,0,0,1.2222222,-9.7824554,-2.9081853)" cx="12.253" cy="13.02" r="9"/>
  <radialGradient inkscape:collect="always" xlink:href="#StandardGradient" id="radialGradient3869" gradientUnits="userSpaceOnUse" gradientTransform="matrix(1.7777777,0,0,1.2222222,-9.7824554,-1.9081853)" cx="12.253" cy="13.02" r="9"/>
  <linearGradient id="SpecificGradient" y1="2" x2="0" y2="18" gradientUnits="userSpaceOnUse">
   <stop id="stop3292" stop-color="#e64b36"/>
   <stop offset="1" id="stop3294" stop-color="#a31414"/>
  </linearGradient>
  <radialGradient inkscape:collect="always" xlink:href="#StandardGradient" id="radialGradient3870" gradientUnits="userSpaceOnUse" gradientTransform="matrix(2,0,0,1.125,-12,-1.625)" cx="12" cy="13" r="8"/>
  <radialGradient inkscape:collect="always" xlink:href="#SpecificGradient" id="radialGradient3882" cx="-8" cy="13" r="8" gradientUnits="userSpaceOnUse" gradientTransform="matrix(2,0,0,1.125,29.00025,-2.62525)"/>
 </defs>
 <metadata id="metadata7"/>
 <g inkscape:label="Calque 1" id="layer1" inkscape:groupmode="layer" transform="translate(0,2)">
  <path id="path3859" d="m 12.00025,1.99975 c -4.416,0 -8,3.5839998 -8,8 0,4.415999 3.584,8 8,8 4.415999,0 8,-3.584001 8,-8 0,-4.4160002 -3.584001,-8 -8,-8 z m 0,2.8571428 c 2.838857,-10e-8 5.142857,2.304 5.142857,5.1428572 0,0.767194 -0.171593,1.49317 -0.473214,2.147321 L 9.848464,5.3301071 C 10.503568,5.0274137 11.231609,4.8568928 12.00025,4.8568928 Z M 7.393107,7.7229642 14.2815,14.606892 c -0.68794,0.341607 -1.46153,0.535715 -2.28125,0.535715 -2.838857,0 -5.142857,-2.304 -5.142857,-5.142857 0,-0.8183 0.195215,-1.589737 0.535714,-2.2767858 z" inkscape:connector-curvature="0" fill="url(#radialGradient3882)"/>
  <path inkscape:connector-curvature="0" d="m 12.00025,0.9685 c -4.9711266,0 -9.03125,4.0601234 -9.03125,9.03125 0,4.971126 4.0601232,9.03125 9.03125,9.03125 4.971126,0 9.03125,-4.060124 9.03125,-9.03125 0,-4.9711268 -4.060124,-9.03125 -9.03125,-9.03125 z m 0,1.03125 c 4.415999,0 8,3.5839998 8,8 0,4.415999 -3.584001,8 -8,8 -4.4160002,0 -8,-3.584001 -8,-8 0,-4.4160002 3.5839998,-8 8,-8 z m 0,2.84375 c -0.768641,0 -1.501146,0.1973066 -2.15625,0.5 l 6.8125,6.8125 c 0.301621,-0.654151 0.5,-1.389056 0.5,-2.15625 0,-2.8388572 -2.317393,-5.1562501 -5.15625,-5.15625 z m 0,1.03125 c 2.280504,-10e-8 4.125,1.8444962 4.125,4.125 0,0.05323 -0.02877,0.103027 -0.03125,0.15625 l -4.25,-4.25 c 0.05337,-0.00246 0.102774,-0.03125 0.15625,-0.03125 z M 7.4065,7.7185 C 7.0660014,8.4055488 6.844,9.18145 6.844,9.99975 c 0,2.838857 2.3173929,5.15625 5.15625,5.15625 0.81972,0 1.59331,-0.220893 2.28125,-0.5625 l -6.875,-6.875 z m 0.53125,1.96875 4.375,4.375 c -0.107367,0.0097 -0.203982,0.0625 -0.3125,0.0625 -2.2805037,0 -4.125,-1.844496 -4.125,-4.125 0,-0.108063 0.052723,-0.205253 0.0625,-0.3125 z" id="path3019" opacity="0.05" fill="#ffffff"/>
  <path inkscape:connector-curvature="0" d="m 12.00025,4.8435 c -0.768641,0 -1.501146,0.197307 -2.15625,0.5 l 0.71875,0.71875 c 0.454744,-0.132492 0.939964,-0.21875 1.4375,-0.21875 2.661428,0 4.861479,2.032729 5.125,4.625 0.01454,-0.156071 0.03125,-0.30882 0.03125,-0.46875 0,-2.838857 -2.317393,-5.15625 -5.15625,-5.15625 z M 7.4065,7.7185 C 7.066001,8.405549 6.844,9.18145 6.844,9.99975 c 0,0.177429 0.01368,0.358432 0.03125,0.53125 C 6.93596,9.888348 7.132763,9.270839 7.4065,8.7185 l 6.1875,6.1875 c 0.23767,-0.0778 0.466236,-0.202628 0.6875,-0.3125 L 7.4065,7.7185 Z M 4.00025,9.99975 c 0,0.353709 0,0.665902 0,1 0,4.415999 3.584,8 8,8 4.415999,0 8,-3.584001 8,-8 0,-0.349929 0,-0.665902 0,-1 0,4.415999 -3.584001,8 -8,8 -4.416,0 -8,-3.584001 -8,-8 z m 13.125,0.5625 c -0.0312,0.279252 -0.106389,0.545202 -0.1875,0.8125 0.07288,-0.260745 0.156698,-0.536805 0.1875,-0.8125 z m -0.1875,0.8125 c -0.08111,0.267298 -0.168142,0.535944 -0.28125,0.78125 0.114549,-0.248432 0.206486,-0.513776 0.28125,-0.78125 z m -5.6875,3.71875 c 0.24456,0.03574 0.495574,0.0625 0.75,0.0625 -0.255155,0 -0.50451,-0.02643 -0.75,-0.0625 z" id="BevelHighlight" inkscape:label="#path3194" opacity="0.2" fill="#ffffff"/>
  <path d="m 12.00025,1.99975 c -4.4160002,0 -8,3.5839998 -8,8 0,4.415999 3.5839998,8 8,8 4.415999,0 8,-3.584001 8,-8 0,-4.4160002 -3.584001,-8 -8,-8 z m 0,0.59375 c 4.098068,0 7.40625,3.3081809 7.40625,7.40625 0,4.098068 -3.308182,7.40625 -7.40625,7.40625 C 7.9021809,17.406 4.594,14.097818 4.594,9.99975 4.594,5.9016808 7.9021808,2.5935 12.00025,2.5935 Z m 0,1.65625 c -0.869198,0 -1.688005,0.2306322 -2.40625,0.5625 a 0.5876634,0.5876634 0 0 0 -0.15625,0.9375 l 6.8125,6.8125 a 0.5876634,0.5876634 0 0 0 0.9375,-0.15625 c 0.33067,-0.717151 0.5625,-1.537762 0.5625,-2.40625 0,-3.1586363 -2.591364,-5.7500001 -5.75,-5.75 z m 0,0.59375 c 2.838857,-10e-8 5.15625,2.3173928 5.15625,5.15625 0,0.767194 -0.198379,1.502099 -0.5,2.15625 L 9.844,5.3435 c 0.655104,-0.3026934 1.387609,-0.5 2.15625,-0.5 z M 7.2815,7.12475 A 0.5876634,0.5876634 0 0 0 6.87525,7.4685 c -0.3735353,0.7537095 -0.625,1.606674 -0.625,2.53125 0,3.158636 2.5913638,5.75 5.75,5.75 0.925283,0 1.776521,-0.250228 2.53125,-0.625 a 0.5876634,0.5876634 0 0 0 0.15625,-0.9375 l -6.875,-6.875 A 0.5876634,0.5876634 0 0 0 7.344,7.12475 a 0.5876634,0.5876634 0 0 0 -0.0625,0 z m 0.125,0.59375 6.875,6.875 C 13.59356,14.935107 12.81997,15.156 12.00025,15.156 9.1613929,15.156 6.844,12.838607 6.844,9.99975 6.844,9.18145 7.0660014,8.4055488 7.4065,7.7185 Z" id="path3865" inkscape:connector-curvature="0" opacity="0.25"/>
  <path inkscape:connector-curvature="0" d="m 12.00025,1.99975 c -4.4160002,0 -8,3.5839998 -8,8 0,0.170003 0.020784,0.33262 0.03125,0.5 0.2614022,-4.1804827 3.7227528,-7.5 7.96875,-7.5 4.245996,0 7.707348,3.3195173 7.96875,7.5 0.01047,-0.16738 0.03125,-0.329997 0.03125,-0.5 0,-4.4160002 -3.584001,-8 -8,-8 z M 9.844,5.3435 l 0,1 6.8125,6.8125 c 0.301621,-0.654151 0.5,-1.389056 0.5,-2.15625 0,-0.146226 -0.01927,-0.294354 -0.03125,-0.4375 -0.0624,0.558504 -0.242534,1.103137 -0.46875,1.59375 L 10.56275,6.06225 9.844,5.3435 Z m -2.96875,5.25 C 6.8641414,10.730147 6.844,10.860191 6.844,10.99975 c 0,2.838857 2.3173929,5.15625 5.15625,5.15625 0.81972,0 1.59331,-0.220893 2.28125,-0.5625 l 0,-1 -0.6875,0.3125 c -0.501277,0.1641 -1.037679,0.25 -1.59375,0.25 -2.6400032,0 -4.8329047,-2.000251 -5.125,-4.5625 z" id="BevelShadow" inkscape:label="#path3206" opacity="0.25"/>
 </g>
</svg>
