<?xml version="1.0" encoding="UTF-8" standalone="no"?>
<svg xmlns="http://www.w3.org/2000/svg" xmlns:xlink="http://www.w3.org/1999/xlink" xmlns:sodipodi="http://sodipodi.sourceforge.net/DTD/sodipodi-0.dtd" xmlns:inkscape="http://www.inkscape.org/namespaces/inkscape" version="1.0" width="24" height="24">
 <metadata id="metadata11"/>
 <defs id="defs3198">
  <linearGradient gradientUnits="userSpaceOnUse" y2="17.17" x2="0" y1="4.163" gradientTransform="matrix(1.0765258,0,0,0.9227364,-20.008013,0.1584665)" id="linearGradient4172">
   <stop id="stop4174" stop-opacity="0.235"/>
   <stop offset="1" id="stop4176" stop-opacity="0.549"/>
  </linearGradient>
  <linearGradient id="linearGradient3587-6-5">
   <stop id="stop3589-9-2"/>
   <stop id="stop3591-7-4" offset="1" stop-color="#363636"/>
  </linearGradient>
  <linearGradient y1="6.667" x2="0" y2="33.33" id="linearGradient2422" xlink:href="#linearGradient3587-6-5" gradientUnits="userSpaceOnUse" gradientTransform="matrix(0.4090909,0,0,0.375,7.4545459,0.5)"/>
  <linearGradient inkscape:collect="always" xlink:href="#linearGradient3587-6-5" id="linearGradient2999" gradientUnits="userSpaceOnUse" gradientTransform="matrix(0.4090909,0,0,0.75,7.4545459,-6)" y1="6.667" x2="0" y2="33.33"/>
  <linearGradient inkscape:collect="always" xlink:href="#linearGradient3587-6-5" id="linearGradient3011" gradientUnits="userSpaceOnUse" gradientTransform="matrix(0.4090909,0,0,0.75,7.4545459,-2)" y1="6.667" x2="0" y2="33.33"/>
  <linearGradient inkscape:collect="always" xlink:href="#linearGradient3587-6-5" id="linearGradient3017" gradientUnits="userSpaceOnUse" gradientTransform="matrix(0.4090909,0,0,0.75,7.4545459,-4)" y1="6.667" x2="0" y2="33.33"/>
  <linearGradient inkscape:collect="always" xlink:href="#StandardGradient" id="linearGradient3112" gradientUnits="userSpaceOnUse" gradientTransform="matrix(0.3,0,0,0.3,7.4,1.8)" y1="4" x2="0" y2="37.33"/>
  <linearGradient id="StandardGradient" gradientTransform="matrix(1.0765258,0,0,0.9227364,-20.008013,0.1584665)" y1="4.163" x2="0" y2="17.17" gradientUnits="userSpaceOnUse">
   <stop id="stop3337" stop-opacity="0.863"/>
   <stop id="stop3339" offset="1" stop-opacity="0.471"/>
  </linearGradient>
  <linearGradient y2="37.33" x2="0" y1="4" gradientTransform="matrix(0.3,0,0,0.3,16.4,3.8)" gradientUnits="userSpaceOnUse" id="linearGradient4465" xlink:href="#StandardGradient" inkscape:collect="always"/>
  <linearGradient inkscape:collect="always" xlink:href="#StandardGradient" id="linearGradient3807" gradientUnits="userSpaceOnUse" gradientTransform="matrix(0.54545453,0,0,0.75,10.272728,2)" y1="9.333" x2="0" y2="22.667"/>
  <linearGradient inkscape:collect="always" xlink:href="#StandardGradient" id="linearGradient3813" gradientUnits="userSpaceOnUse" gradientTransform="matrix(0.4090909,0,0,0.75,7.4545459,-3)" y1="9.333" x2="0" y2="22.667"/>
  <linearGradient inkscape:collect="always" xlink:href="#StandardGradient" id="linearGradient3815" gradientUnits="userSpaceOnUse" gradientTransform="matrix(0.4090909,0,0,0.75,7.4545459,-4)" y1="9.333" x2="0" y2="22.667"/>
  <linearGradient inkscape:collect="always" xlink:href="#StandardGradient" id="linearGradient3012" gradientUnits="userSpaceOnUse" gradientTransform="matrix(0.54545453,0,0,0.75,10.272728,-2)" y1="9.333" x2="0" y2="22.667"/>
  <linearGradient inkscape:collect="always" xlink:href="#StandardGradient" id="linearGradient3024" gradientUnits="userSpaceOnUse" gradientTransform="matrix(0.54545453,0,0,0.75,10.272728,2)" y1="4" x2="0" y2="22.667"/>
  <linearGradient inkscape:collect="always" xlink:href="#StandardGradient" id="linearGradient3026" gradientUnits="userSpaceOnUse" gradientTransform="matrix(0.54545453,0,0,0.75,10.272728,1)" y1="4" x2="0" y2="22.667"/>
  <radialGradient inkscape:collect="always" xlink:href="#linearGradient4172" id="radialGradient4162" cx="11" cy="13.286" r="8" gradientTransform="matrix(1.75,-3.4467813e-8,3.465788e-8,1.125,-7.2498632,-0.9464279)" gradientUnits="userSpaceOnUse"/>
 </defs>
 <path d="m 3.8126372,4 a 1.001373,1.001373 0 0 0 -0.8125,1 l 0,2 a 1.001373,1.001373 0 0 0 0.8125,1 1.001373,1.001373 0 0 0 -0.8125,1 l 0,2 a 1.001373,1.001373 0 0 0 0.8125,1 1.001373,1.001373 0 0 0 -0.8125,1 l 0,2 a 1.001373,1.001373 0 0 0 0.8125,1 1.001373,1.001373 0 0 0 -0.8125,1 l 0,2 a 1.001373,1.001373 0 0 0 1,1 l 15.9999998,0 a 1.001373,1.001373 0 0 0 1,-1 l 0,-2 a 1.001373,1.001373 0 0 0 -0.8125,-1 1.001373,1.001373 0 0 0 0.8125,-1 l 0,-2 a 1.001373,1.001373 0 0 0 -0.8125,-1 1.001373,1.001373 0 0 0 0.8125,-1 l 0,-2 a 1.001373,1.001373 0 0 0 -0.8125,-1 1.001373,1.001373 0 0 0 0.8125,-1 l 0,-2 a 1.001373,1.001373 0 0 0 -1,-1 L 4.0001372,4 a 1.001373,1.001373 0 0 0 -0.09375,0 1.001373,1.001373 0 0 0 -0.09375,0 z m 0.1875,1 15.9999998,0 0,2 -15.9999998,0 0,-2 z m 0,4 15.9999998,0 0,2 -15.9999998,0 0,-2 z m 0,4 15.9999998,0 0,2 -15.9999998,0 0,-2 z m 0,4 15.9999998,0 0,2 -15.9999998,0 0,-2 z" id="path3803" inkscape:connector-curvature="0" opacity="0.05" color="#000000" fill="#ffffff"/>
 <path d="m 4.0001372,5 0,2 15.9999998,0 0,-2 -15.9999998,0 z m 0,4 0,2 15.9999998,0 0,-2 -15.9999998,0 z m 0,4 0,2 15.9999998,0 0,-2 -15.9999998,0 z m 0,4 0,2 15.9999998,0 0,-2 -15.9999998,0 z" id="path3008" inkscape:connector-curvature="0" color="#000000" fill="url(#radialGradient4162)"/>
 <path d="m 4.0001372,5 0,1 15.9999998,0 0,-1 -15.9999998,0 z m 0,4 0,1 15.9999998,0 0,-1 -15.9999998,0 z m 0,4 0,1 15.9999998,0 0,-1 -15.9999998,0 z m 0,4 0,1 15.9999998,0 0,-1 -15.9999998,0 z" id="path3020" inkscape:connector-curvature="0" opacity="0.5" color="#000000"/>
 <path id="path3797" d="m 4.0001372,7 0,1 15.9999998,0 0,-1 -15.9999998,0 z m 0,4 0,1 15.9999998,0 0,-1 -15.9999998,0 z m 0,4 0,1 15.9999998,0 0,-1 -15.9999998,0 z m 0,4 0,1 15.9999998,0 0,-1 -15.9999998,0 z" inkscape:connector-curvature="0" opacity="0.2" color="#000000" fill="#ffffff"/>
</svg>
