<?xml version="1.0" encoding="UTF-8" standalone="no"?>
<svg xmlns="http://www.w3.org/2000/svg" xmlns:sodipodi="http://sodipodi.sourceforge.net/DTD/sodipodi-0.dtd" xmlns:inkscape="http://www.inkscape.org/namespaces/inkscape" height="512" width="512" version="1.1" viewBox="0 0 512 512">
 <metadata id="metadata186"/>
 <path fill-rule="evenodd" d="m471.95 253.05c0 120.9-98.01 218.9-218.9 218.9-120.9 0-218.9-98.01-218.9-218.9 0-120.9 98.01-218.9 218.9-218.9 120.9 0 218.9 98.01 218.9 218.9" fill="#d2d2d2" id="path10"/>
 <path fill-opacity="0.235" d="m278.63 91.38c-15.04 2.658-18.01 20.514-26.22 31.25l-16.375 28.03c-12.842-2.866-32.401-30.26-41.719-11.844-17.351 31.941-43.32 62.742-39.688 101.47 1.358 26.06 13.273 51.28 32.406 69-15.592 28.725-34.881 55.775-48.37 85.44-2.143 18.482 17.199 27.709 27.28 40.25 9.759 9.738 19.5 19.503 29.25 29.25 18.433 5.04 37.812 7.75 57.844 7.75 120.9 0 218.91-98.01 218.91-218.91 0-2.466-0.044-4.929-0.125-7.375-34.708-34.708-69.41-69.42-104.12-104.12-11.03-13.988-19.32 7.339-25.411 5.797-16.898-16.898-36.23-34.467-55.683-53.922-2.384-1.422-5.197-2.163-7.969-2.063" stroke-width="0.519" id="path12"/>
 <g fill-rule="evenodd" id="g14">
  <path fill-opacity="0.067" d="m256 1c-140.83 0-255 114.17-255 255s114.17 255 255 255 255-114.17 255-255-114.17-255-255-255m8.827 44.931c120.9 0 218.9 98 218.9 218.9s-98 218.9-218.9 218.9-218.93-98-218.93-218.9 98.03-218.9 218.93-218.9" id="path16"/>
  <g fill-opacity="0.129" id="g18">
   <path d="m256 4.433c-138.94 0-251.57 112.63-251.57 251.57s112.63 251.57 251.57 251.57 251.57-112.63 251.57-251.57-112.63-251.57-251.57-251.57m5.885 38.556c120.9 0 218.9 98 218.9 218.9s-98 218.9-218.9 218.9-218.93-98-218.93-218.9 98.03-218.9 218.93-218.9" id="path20"/>
   <path d="m256 8.356c-136.77 0-247.64 110.87-247.64 247.64s110.87 247.64 247.64 247.64 247.64-110.87 247.64-247.64-110.87-247.64-247.64-247.64m2.942 31.691c120.9 0 218.9 98 218.9 218.9s-98 218.9-218.9 218.9-218.93-98-218.93-218.9 98.03-218.9 218.93-218.9" id="path22"/>
  </g>
  <path fill="#ffffff" stroke-width="4.904" stroke="#000000" stroke-opacity="0.31" d="m253.04 7.859c-135.42 0-245.19 109.78-245.19 245.19 0 135.42 109.78 245.19 245.19 245.19 135.42 0 245.19-109.78 245.19-245.19 0-135.42-109.78-245.19-245.19-245.19zm0 26.297c120.9 0 218.9 98 218.9 218.9s-98 218.9-218.9 218.9-218.93-98-218.93-218.9 98.03-218.9 218.93-218.9z" id="path24"/>
 </g>
 <text font-family="Gentium Book Basic" x="729.64" y="231.36" line-height="125%" font-size="129.23" id="text26" word-spacing="0" letter-spacing="0"><tspan x="729.64" y="231.36" id="tspan28"/>
 </text>
 <text font-family="Arial" x="378.91" y="579.25" font-size="46.954" transform="scale(4.0128 .2492)" id="text30" text-anchor="middle"/>
 <text font-family="Gentium Book Basic" x="1310.91" y="151.36" line-height="125%" font-size="129.23" id="text32" word-spacing="0" letter-spacing="0"><tspan x="1310.91" y="151.36" id="tspan34"/>
 </text>
 <text font-family="Arial" x="523.76" y="258.22" font-size="46.954" transform="scale(4.0128 .2492)" id="text36" text-anchor="middle"/>
 <text font-family="Gentium Book Basic" x="239.33" y="-29.901" line-height="125%" font-size="129.23" id="text38" word-spacing="0" letter-spacing="0"><tspan x="239.33" y="-29.901" id="tspan40"/>
 </text>
 <text font-family="Arial" x="256.72" y="-469.14" font-size="46.954" transform="scale(4.0128 .2492)" id="text42" text-anchor="middle"/>
 <text font-family="Gentium Book Basic" x="1337.38" y="-246.37" line-height="125%" font-size="129.23" id="text44" word-spacing="0" letter-spacing="0"><tspan x="1337.38" y="-246.37" id="tspan46"/>
 </text>
 <text font-family="Arial" x="530.36" y="-1337.81" font-size="46.954" transform="scale(4.0128 .2492)" id="text48" text-anchor="middle"/>
 <text font-family="Gentium Book Basic" x="1918.65" y="-326.38" line-height="125%" font-size="129.23" id="text50" word-spacing="0" letter-spacing="0"><tspan x="1918.65" y="-326.38" id="tspan52"/>
 </text>
 <text font-family="Arial" x="675.21" y="-1658.85" font-size="46.954" transform="scale(4.0128 .2492)" id="text54" text-anchor="middle"/>
 <text font-family="Gentium Book Basic" x="1529.53" y="-798.78" line-height="125%" font-size="129.23" id="text56" word-spacing="0" letter-spacing="0"><tspan x="1529.53" y="-798.78" id="tspan58"/>
 </text>
 <text font-family="Arial" x="578.24" y="-3554.51" font-size="46.954" transform="scale(4.0128 .2492)" id="text60" text-anchor="middle"/>
 <text font-family="Gentium Book Basic" x="2110.79" y="-878.78" line-height="125%" font-size="129.23" id="text62" word-spacing="0" letter-spacing="0"><tspan x="2110.79" y="-878.78" id="tspan64"/>
 </text>
 <text font-family="Arial" x="723.09" y="-3875.54" font-size="46.954" transform="scale(4.0128 .2492)" id="text66" text-anchor="middle"/>
 <g line-height="125%" font-family="Gentium Book Basic" id="g68" word-spacing="0" letter-spacing="0">
  <text font-size="208.33" x="277.99" y="535.94" id="text70"><tspan x="277.99" y="535.94" id="tspan72"/>
  </text>
  <text font-size="200" x="-307.18" y="-11.341" id="text74"><tspan x="-307.18" y="-11.341" id="tspan76"/>
  </text>
 </g>
 <text font-family="Arial" x="228.47" y="-585.88" font-size="72.67" transform="scale(4.0128 .2492)" id="text78" text-anchor="middle"/>
 <text font-family="Gentium Book Basic" x="438.2" y="41.802" line-height="125%" font-size="200" id="text80" word-spacing="0" letter-spacing="0"><tspan x="438.2" y="41.802" id="tspan82"/>
 </text>
 <text font-family="Arial" x="414.22" y="-372.63" font-size="72.67" transform="scale(4.0128 .2492)" id="text84" text-anchor="middle"/>
 <text font-family="Gentium Book Basic" x="1337.81" y="-82.02" line-height="125%" font-size="200" id="text86" word-spacing="0" letter-spacing="0"><tspan x="1337.81" y="-82.02" id="tspan88"/>
 </text>
 <text font-family="Arial" x="638.4" y="-869.49" font-size="72.67" transform="scale(4.0128 .2492)" id="text90" text-anchor="middle"/>
 <text font-family="Gentium Book Basic" x="465.66" y="-134.65" line-height="125%" font-size="200" id="text92" word-spacing="0" letter-spacing="0"><tspan x="465.66" y="-134.65" id="tspan94"/>
 </text>
 <text font-family="Arial" x="421.06" y="-1080.71" font-size="72.67" transform="scale(4.0128 .2492)" id="text96" text-anchor="middle"/>
 <text font-family="Gentium Book Basic" x="1365.27" y="-258.47" line-height="125%" font-size="200" id="text98" word-spacing="0" letter-spacing="0"><tspan x="1365.27" y="-258.47" id="tspan100"/>
 </text>
 <text font-family="Arial" x="645.24" y="-1577.57" font-size="72.67" transform="scale(4.0128 .2492)" id="text102" text-anchor="middle"/>
 <text font-family="Gentium Book Basic" x="-2544.32" y="317.23" line-height="125%" font-size="200" id="text104" word-spacing="0" letter-spacing="0"><tspan x="-2544.32" y="317.23" id="tspan106"/>
 </text>
 <text font-family="Arial" x="-329.03" y="732.62" font-size="72.67" transform="scale(4.0128 .2492)" id="text108" text-anchor="middle"/>
 <text font-family="Gentium Book Basic" x="-616.04" y="81.8" line-height="125%" font-size="200" id="text110" word-spacing="0" letter-spacing="0"><tspan x="-616.04" y="81.8" id="tspan112"/>
 </text>
 <text font-family="Arial" x="151.5" y="-212.12" font-size="72.67" transform="scale(4.0128 .2492)" id="text114" text-anchor="middle"/>
 <text font-family="Gentium Book Basic" x="129.34" y="134.94" line-height="125%" font-size="200" id="text116" word-spacing="0" letter-spacing="0"><tspan x="129.34" y="134.94" id="tspan118"/>
 </text>
 <text font-family="Arial" x="337.25" y="1.138" font-size="72.67" transform="scale(4.0128 .2492)" id="text120" text-anchor="middle"/>
 <text font-family="Gentium Book Basic" x="1028.95" y="11.127" line-height="125%" font-size="200" id="text122" word-spacing="0" letter-spacing="0"><tspan x="1028.95" y="11.127" id="tspan124"/>
 </text>
 <text font-family="Arial" x="561.43" y="-495.72" font-size="72.67" transform="scale(4.0128 .2492)" id="text126" text-anchor="middle"/>
 <text font-family="Gentium Book Basic" x="156.8" y="-41.51" line-height="125%" font-size="200" id="text128" word-spacing="0" letter-spacing="0"><tspan x="156.8" y="-41.51" id="tspan130"/>
 </text>
 <text font-family="Arial" x="344.09" y="-706.95" font-size="72.67" transform="scale(4.0128 .2492)" id="text132" text-anchor="middle"/>
 <text font-family="Gentium Book Basic" x="1056.42" y="-165.33" line-height="125%" font-size="200" id="text134" word-spacing="0" letter-spacing="0"><tspan x="1056.42" y="-165.33" id="tspan136"/>
 </text>
 <text font-family="Arial" x="568.28" y="-1203.81" font-size="72.67" transform="scale(4.0128 .2492)" id="text138" text-anchor="middle"/>
 <text font-family="Gentium Book Basic" x="-2853.18" y="410.37" line-height="125%" font-size="200" id="text140" word-spacing="0" letter-spacing="0"><tspan x="-2853.18" y="410.37" id="tspan142"/>
 </text>
 <text font-family="Arial" x="-406" y="1106.39" font-size="72.67" transform="scale(4.0128 .2492)" id="text144" text-anchor="middle"/>
 <text font-family="Gentium Book Basic" x="-1330.61" y="-35.06" line-height="125%" font-size="200" id="text146" word-spacing="0" letter-spacing="0"><tspan x="-1330.61" y="-35.06" id="tspan148"/>
 </text>
 <text font-family="Arial" x="-26.571" y="-681.04" font-size="72.67" transform="scale(4.0128 .2492)" id="text150" text-anchor="middle"/>
 <text font-family="Gentium Book Basic" x="-585.23" y="18.09" line-height="125%" font-size="200" id="text152" word-spacing="0" letter-spacing="0"><tspan x="-585.23" y="18.09" id="tspan154"/>
 </text>
 <text font-family="Arial" x="159.18" y="-467.79" font-size="72.67" transform="scale(4.0128 .2492)" id="text156" text-anchor="middle"/>
 <text font-family="Gentium Book Basic" x="314.38" y="-105.73" line-height="125%" font-size="200" id="text158" word-spacing="0" letter-spacing="0"><tspan x="314.38" y="-105.73" id="tspan160"/>
 </text>
 <text font-family="Arial" x="383.36" y="-964.65" font-size="72.67" transform="scale(4.0128 .2492)" id="text162" text-anchor="middle"/>
 <text font-family="Gentium Book Basic" x="-557.77" y="-158.37" line-height="125%" font-size="200" id="text164" word-spacing="0" letter-spacing="0"><tspan x="-557.77" y="-158.37" id="tspan166"/>
 </text>
 <text font-family="Arial" x="166.02" y="-1175.88" font-size="72.67" transform="scale(4.0128 .2492)" id="text168" text-anchor="middle"/>
 <text font-family="Gentium Book Basic" x="341.85" y="-282.18" line-height="125%" font-size="200" id="text170" word-spacing="0" letter-spacing="0"><tspan x="341.85" y="-282.18" id="tspan172"/>
 </text>
 <text font-family="Arial" x="390.2" y="-1672.73" font-size="72.67" transform="scale(4.0128 .2492)" id="text174" text-anchor="middle"/>
 <text font-family="Gentium Book Basic" x="-3567.75" y="293.52" line-height="125%" font-size="200" id="text176" word-spacing="0" letter-spacing="0"><tspan x="-3567.75" y="293.52" id="tspan178"/>
 </text>
 <text font-family="Arial" x="-584.07" y="637.46" font-size="72.67" transform="scale(4.0128 .2492)" id="text180" text-anchor="middle"/>
 <path fill="#ffffff" d="m286.59 93.43c-2.209-1.289-4.594-1.968-6.976-2.043-5.24-0.165-10.429 2.492-13.266 7.352l-30.31 51.929-32.02-18.667c-2.236-1.311-5.469-0.45-6.772 1.792l-28.884 49.47c-24.538 42.04-15.624 94.26 18.676 125.96-14.464 24.974-30.606 52.1-44.36 75.964l-1.516 2.625c-5.963 10.329-2.196 23.594 8.449 29.74s24.02 2.776 29.981-7.553c15.15-26.19 30.446-52.31 45.688-78.45 44.47 14.276 94.32-3.648 118.86-45.69l28.9-49.49c1.312-2.236 0.45-5.469-1.792-6.772l-32.05-18.682 30.337-51.983c4.126-7.07 1.756-16.05-5.313-20.17-7.07-4.126-16.07-1.771-20.2 5.298l-30.349 51.941-52.09-30.4 30.32-51.956c4.126-7.07 1.744-16.09-5.325-20.21" stroke-width="0.519" id="path182"/>
</svg>
