<?xml version="1.0" encoding="UTF-8" standalone="no"?>
<svg xmlns="http://www.w3.org/2000/svg" xmlns:xlink="http://www.w3.org/1999/xlink" xmlns:sodipodi="http://sodipodi.sourceforge.net/DTD/sodipodi-0.dtd" xmlns:inkscape="http://www.inkscape.org/namespaces/inkscape" height="512" width="512" version="1.1" viewBox="0 0 512 512">
 <metadata id="metadata97"/>
 <path fill-rule="evenodd" d="m471.95 253.05c0 120.9-98.01 218.9-218.9 218.9-120.9 0-218.9-98.01-218.9-218.9 0-120.9 98.01-218.9 218.9-218.9 120.9 0 218.9 98.01 218.9 218.9" fill="#8e8e8e" id="path4"/>
 <path fill-opacity="0.235" d="m341.5 95.09c-9.265 0.004-18.766 1.054-27.781 0.281-50.658-0.001-101.31 0.003-151.97 0-21.16-0.691-33.1 21.346-29.969 40.25 0.115 84.74-0.216 169.51 0.188 254.25 3.242 19.338 22.438 29.365 34.13 43.531 10.538 10.473 21.05 20.965 31.563 31.469 17.694 4.614 36.24 7.094 55.38 7.094 120.9 0 218.91-98.01 218.91-218.91 0-19.18-2.458-37.8-7.094-55.53-32.21-32.25-64.46-64.48-96.94-96.44-8.097-4.976-17.14-6-26.406-6" id="path6"/>
 <g fill-rule="evenodd" id="g8">
  <path fill-opacity="0.067" d="m256 1c-140.83 0-255 114.17-255 255s114.17 255 255 255 255-114.17 255-255-114.17-255-255-255m8.827 44.931c120.9 0 218.9 98 218.9 218.9s-98 218.9-218.9 218.9-218.93-98-218.93-218.9 98.03-218.9 218.93-218.9" id="path10"/>
  <g fill-opacity="0.129" id="g12">
   <path d="m256 4.433c-138.94 0-251.57 112.63-251.57 251.57s112.63 251.57 251.57 251.57 251.57-112.63 251.57-251.57-112.63-251.57-251.57-251.57m5.885 38.556c120.9 0 218.9 98 218.9 218.9s-98 218.9-218.9 218.9-218.93-98-218.93-218.9 98.03-218.9 218.93-218.9" id="path14"/>
   <path d="m256 8.356c-136.77 0-247.64 110.87-247.64 247.64s110.87 247.64 247.64 247.64 247.64-110.87 247.64-247.64-110.87-247.64-247.64-247.64m2.942 31.691c120.9 0 218.9 98 218.9 218.9s-98 218.9-218.9 218.9-218.93-98-218.93-218.9 98.03-218.9 218.93-218.9" id="path16"/>
  </g>
  <path fill="#ffffff" stroke-width="4.904" stroke="#000000" stroke-opacity="0.31" d="m253.04 7.859c-135.42 0-245.19 109.78-245.19 245.19 0 135.42 109.78 245.19 245.19 245.19 135.42 0 245.19-109.78 245.19-245.19 0-135.42-109.78-245.19-245.19-245.19zm0 26.297c120.9 0 218.9 98 218.9 218.9s-98 218.9-218.9 218.9-218.93-98-218.93-218.9 98.03-218.9 218.93-218.9z" id="path18"/>
 </g>
 <text font-family="Gentium Book Basic" x="729.64" y="231.36" line-height="125%" font-size="129.23" id="text20" word-spacing="0" letter-spacing="0"><tspan x="729.64" y="231.36" id="tspan22"/>
 </text>
 <text font-family="Arial" x="378.91" y="579.25" font-size="46.954" transform="scale(4.0128 .2492)" id="text24" text-anchor="middle"/>
 <text font-family="Gentium Book Basic" x="1310.91" y="151.36" line-height="125%" font-size="129.23" id="text26" word-spacing="0" letter-spacing="0"><tspan x="1310.91" y="151.36" id="tspan28"/>
 </text>
 <text font-family="Arial" x="523.76" y="258.22" font-size="46.954" transform="scale(4.0128 .2492)" id="text30" text-anchor="middle"/>
 <text font-family="Gentium Book Basic" x="239.33" y="-29.901" line-height="125%" font-size="129.23" id="text32" word-spacing="0" letter-spacing="0"><tspan x="239.33" y="-29.901" id="tspan34"/>
 </text>
 <text font-family="Arial" x="256.72" y="-469.14" font-size="46.954" transform="scale(4.0128 .2492)" id="text36" text-anchor="middle"/>
 <text font-family="Gentium Book Basic" x="1337.38" y="-246.37" line-height="125%" font-size="129.23" id="text38" word-spacing="0" letter-spacing="0"><tspan x="1337.38" y="-246.37" id="tspan40"/>
 </text>
 <text font-family="Arial" x="530.36" y="-1337.81" font-size="46.954" transform="scale(4.0128 .2492)" id="text42" text-anchor="middle"/>
 <text font-family="Gentium Book Basic" x="1918.65" y="-326.38" line-height="125%" font-size="129.23" id="text44" word-spacing="0" letter-spacing="0"><tspan x="1918.65" y="-326.38" id="tspan46"/>
 </text>
 <text font-family="Arial" x="675.21" y="-1658.85" font-size="46.954" transform="scale(4.0128 .2492)" id="text48" text-anchor="middle"/>
 <text font-family="Gentium Book Basic" x="1529.53" y="-798.78" line-height="125%" font-size="129.23" id="text50" word-spacing="0" letter-spacing="0"><tspan x="1529.53" y="-798.78" id="tspan52"/>
 </text>
 <text font-family="Arial" x="578.24" y="-3554.51" font-size="46.954" transform="scale(4.0128 .2492)" id="text54" text-anchor="middle"/>
 <text font-family="Gentium Book Basic" x="2110.79" y="-878.78" line-height="125%" font-size="129.23" id="text56" word-spacing="0" letter-spacing="0"><tspan x="2110.79" y="-878.78" id="tspan58"/>
 </text>
 <text font-family="Arial" x="723.09" y="-3875.54" font-size="46.954" transform="scale(4.0128 .2492)" id="text60" text-anchor="middle"/>
 <text font-family="Gentium Book Basic" x="277.99" y="535.94" line-height="125%" font-size="208.33" id="text62" word-spacing="0" letter-spacing="0"><tspan x="277.99" y="535.94" id="tspan64"/>
 </text>
 <g fill="#ffffff" id="g66">
  <path d="m161.75 95.38c-16.628 0-29.969 13.403-29.969 30.03v261.19c0 16.628 13.341 30.03 29.969 30.03h188.47c16.628 0 30-13.403 30-30.03v-261.19c0-16.628-13.372-30.03-30-30.03h-188.47m7.906 22.22h172.69c8.935 0 16.13 7.159 16.13 16.09v244.56c0 8.935-7.19 16.13-16.12 16.13h-172.69c-8.935 0-16.16-7.19-16.16-16.12v-244.56c0-8.935 7.222-16.09 16.16-16.09" id="path68"/>
  <g transform="matrix(.80326 0 0 .80326 50.37 65.21)" id="g70">
   <path fill-rule="evenodd" d="m294.59 361.53c0 19.557-15.854 35.411-35.411 35.411s-35.411-15.854-35.411-35.411 15.854-35.411 35.411-35.411 35.411 15.854 35.411 35.411" fill="#ffffff" id="0"/>
   <g fill-rule="evenodd" id="g73">
    <path d="m290.19 126.79-61.35 0.35 30.346-49.03z" id="path75"/>
    <path d="m246.83 118.22h24.695v217.22h-24.69z" id="path77"/>
    <path d="m188.58 259.79 17.462-17.462 64.18 64.18-17.462 17.462z" id="path79"/>
    <path d="m188.58 178.58h24.695v81.21h-24.7z" id="path81"/>
   </g>
   <use width="512" height="512" transform="matrix(.74554 0 0 .74554 7.698 -74.867)" xlink:href="#0" id="use83"/>
   <g fill-rule="evenodd" id="g85">
    <path d="m328.28 216.41-17.462-17.462-64.18 64.18 17.462 17.462z" id="path87"/>
    <path d="m328.28 135.2h-24.695v81.21h24.695z" id="path89"/>
    <path d="m294.38 131.25h43.09v40.888h-43.09z" id="path91"/>
   </g>
  </g>
 </g>
</svg>
