<?xml version="1.0" encoding="UTF-8" standalone="no"?>
<svg xmlns="http://www.w3.org/2000/svg" xmlns:sodipodi="http://sodipodi.sourceforge.net/DTD/sodipodi-0.dtd" xmlns:inkscape="http://www.inkscape.org/namespaces/inkscape" height="512" width="512" version="1.1" viewBox="0 0 512 512">
 <metadata id="metadata388"/>
 <text font-family="Gentium Book Basic" x="729.64" y="231.36" line-height="125%" font-size="129.23" id="text4" word-spacing="0" letter-spacing="0"><tspan x="729.64" y="231.36" id="tspan6"/>
 </text>
 <text font-family="Arial" x="378.91" y="579.25" font-size="46.954" transform="scale(4.0128 .2492)" id="text8" text-anchor="middle"/>
 <text font-family="Gentium Book Basic" x="1310.91" y="151.36" line-height="125%" font-size="129.23" id="text10" word-spacing="0" letter-spacing="0"><tspan x="1310.91" y="151.36" id="tspan12"/>
 </text>
 <text font-family="Arial" x="523.76" y="258.22" font-size="46.954" transform="scale(4.0128 .2492)" id="text14" text-anchor="middle"/>
 <text font-family="Gentium Book Basic" x="239.33" y="-29.901" line-height="125%" font-size="129.23" id="text16" word-spacing="0" letter-spacing="0"><tspan x="239.33" y="-29.901" id="tspan18"/>
 </text>
 <text font-family="Arial" x="256.72" y="-469.14" font-size="46.954" transform="scale(4.0128 .2492)" id="text20" text-anchor="middle"/>
 <text font-family="Gentium Book Basic" x="1337.38" y="-246.37" line-height="125%" font-size="129.23" id="text22" word-spacing="0" letter-spacing="0"><tspan x="1337.38" y="-246.37" id="tspan24"/>
 </text>
 <text font-family="Arial" x="530.36" y="-1337.81" font-size="46.954" transform="scale(4.0128 .2492)" id="text26" text-anchor="middle"/>
 <text font-family="Gentium Book Basic" x="1918.65" y="-326.38" line-height="125%" font-size="129.23" id="text28" word-spacing="0" letter-spacing="0"><tspan x="1918.65" y="-326.38" id="tspan30"/>
 </text>
 <text font-family="Arial" x="675.21" y="-1658.85" font-size="46.954" transform="scale(4.0128 .2492)" id="text32" text-anchor="middle"/>
 <text font-family="Gentium Book Basic" x="1529.53" y="-798.78" line-height="125%" font-size="129.23" id="text34" word-spacing="0" letter-spacing="0"><tspan x="1529.53" y="-798.78" id="tspan36"/>
 </text>
 <text font-family="Arial" x="578.24" y="-3554.51" font-size="46.954" transform="scale(4.0128 .2492)" id="text38" text-anchor="middle"/>
 <text font-family="Gentium Book Basic" x="2110.79" y="-878.78" line-height="125%" font-size="129.23" id="text40" word-spacing="0" letter-spacing="0"><tspan x="2110.79" y="-878.78" id="tspan42"/>
 </text>
 <text font-family="Arial" x="723.09" y="-3875.54" font-size="46.954" transform="scale(4.0128 .2492)" id="text44" text-anchor="middle"/>
 <g line-height="125%" font-family="Gentium Book Basic" id="g46" word-spacing="0" letter-spacing="0">
  <text font-size="208.33" x="277.99" y="535.94" id="text48"><tspan x="277.99" y="535.94" id="tspan50"/>
  </text>
  <text font-size="200" x="-307.18" y="-11.341" id="text52"><tspan x="-307.18" y="-11.341" id="tspan54"/>
  </text>
 </g>
 <text font-family="Arial" x="228.47" y="-585.88" font-size="72.67" transform="scale(4.0128 .2492)" id="text56" text-anchor="middle"/>
 <text font-family="Gentium Book Basic" x="438.2" y="41.802" line-height="125%" font-size="200" id="text58" word-spacing="0" letter-spacing="0"><tspan x="438.2" y="41.802" id="tspan60"/>
 </text>
 <text font-family="Arial" x="414.22" y="-372.63" font-size="72.67" transform="scale(4.0128 .2492)" id="text62" text-anchor="middle"/>
 <text font-family="Gentium Book Basic" x="1337.81" y="-82.02" line-height="125%" font-size="200" id="text64" word-spacing="0" letter-spacing="0"><tspan x="1337.81" y="-82.02" id="tspan66"/>
 </text>
 <text font-family="Arial" x="638.4" y="-869.49" font-size="72.67" transform="scale(4.0128 .2492)" id="text68" text-anchor="middle"/>
 <text font-family="Gentium Book Basic" x="465.66" y="-134.65" line-height="125%" font-size="200" id="text70" word-spacing="0" letter-spacing="0"><tspan x="465.66" y="-134.65" id="tspan72"/>
 </text>
 <text font-family="Arial" x="421.06" y="-1080.71" font-size="72.67" transform="scale(4.0128 .2492)" id="text74" text-anchor="middle"/>
 <text font-family="Gentium Book Basic" x="1365.27" y="-258.47" line-height="125%" font-size="200" id="text76" word-spacing="0" letter-spacing="0"><tspan x="1365.27" y="-258.47" id="tspan78"/>
 </text>
 <text font-family="Arial" x="645.24" y="-1577.57" font-size="72.67" transform="scale(4.0128 .2492)" id="text80" text-anchor="middle"/>
 <text font-family="Gentium Book Basic" x="-2544.32" y="317.23" line-height="125%" font-size="200" id="text82" word-spacing="0" letter-spacing="0"><tspan x="-2544.32" y="317.23" id="tspan84"/>
 </text>
 <text font-family="Arial" x="-329.03" y="732.62" font-size="72.67" transform="scale(4.0128 .2492)" id="text86" text-anchor="middle"/>
 <text font-family="Gentium Book Basic" x="-616.04" y="81.8" line-height="125%" font-size="200" id="text88" word-spacing="0" letter-spacing="0"><tspan x="-616.04" y="81.8" id="tspan90"/>
 </text>
 <text font-family="Arial" x="151.5" y="-212.12" font-size="72.67" transform="scale(4.0128 .2492)" id="text92" text-anchor="middle"/>
 <text font-family="Gentium Book Basic" x="129.34" y="134.94" line-height="125%" font-size="200" id="text94" word-spacing="0" letter-spacing="0"><tspan x="129.34" y="134.94" id="tspan96"/>
 </text>
 <text font-family="Arial" x="337.25" y="1.138" font-size="72.67" transform="scale(4.0128 .2492)" id="text98" text-anchor="middle"/>
 <text font-family="Gentium Book Basic" x="1028.95" y="11.127" line-height="125%" font-size="200" id="text100" word-spacing="0" letter-spacing="0"><tspan x="1028.95" y="11.127" id="tspan102"/>
 </text>
 <text font-family="Arial" x="561.43" y="-495.72" font-size="72.67" transform="scale(4.0128 .2492)" id="text104" text-anchor="middle"/>
 <text font-family="Gentium Book Basic" x="156.8" y="-41.51" line-height="125%" font-size="200" id="text106" word-spacing="0" letter-spacing="0"><tspan x="156.8" y="-41.51" id="tspan108"/>
 </text>
 <text font-family="Arial" x="344.09" y="-706.95" font-size="72.67" transform="scale(4.0128 .2492)" id="text110" text-anchor="middle"/>
 <text font-family="Gentium Book Basic" x="1056.42" y="-165.33" line-height="125%" font-size="200" id="text112" word-spacing="0" letter-spacing="0"><tspan x="1056.42" y="-165.33" id="tspan114"/>
 </text>
 <text font-family="Arial" x="568.28" y="-1203.81" font-size="72.67" transform="scale(4.0128 .2492)" id="text116" text-anchor="middle"/>
 <text font-family="Gentium Book Basic" x="-2853.18" y="410.37" line-height="125%" font-size="200" id="text118" word-spacing="0" letter-spacing="0"><tspan x="-2853.18" y="410.37" id="tspan120"/>
 </text>
 <text font-family="Arial" x="-406" y="1106.39" font-size="72.67" transform="scale(4.0128 .2492)" id="text122" text-anchor="middle"/>
 <text font-family="Gentium Book Basic" x="-1330.61" y="-35.06" line-height="125%" font-size="200" id="text124" word-spacing="0" letter-spacing="0"><tspan x="-1330.61" y="-35.06" id="tspan126"/>
 </text>
 <text font-family="Arial" x="-26.571" y="-681.04" font-size="72.67" transform="scale(4.0128 .2492)" id="text128" text-anchor="middle"/>
 <text font-family="Gentium Book Basic" x="-585.23" y="18.09" line-height="125%" font-size="200" id="text130" word-spacing="0" letter-spacing="0"><tspan x="-585.23" y="18.09" id="tspan132"/>
 </text>
 <text font-family="Arial" x="159.18" y="-467.79" font-size="72.67" transform="scale(4.0128 .2492)" id="text134" text-anchor="middle"/>
 <text font-family="Gentium Book Basic" x="314.38" y="-105.73" line-height="125%" font-size="200" id="text136" word-spacing="0" letter-spacing="0"><tspan x="314.38" y="-105.73" id="tspan138"/>
 </text>
 <text font-family="Arial" x="383.36" y="-964.65" font-size="72.67" transform="scale(4.0128 .2492)" id="text140" text-anchor="middle"/>
 <text font-family="Gentium Book Basic" x="-557.77" y="-158.37" line-height="125%" font-size="200" id="text142" word-spacing="0" letter-spacing="0"><tspan x="-557.77" y="-158.37" id="tspan144"/>
 </text>
 <text font-family="Arial" x="166.02" y="-1175.88" font-size="72.67" transform="scale(4.0128 .2492)" id="text146" text-anchor="middle"/>
 <text font-family="Gentium Book Basic" x="341.85" y="-282.18" line-height="125%" font-size="200" id="text148" word-spacing="0" letter-spacing="0"><tspan x="341.85" y="-282.18" id="tspan150"/>
 </text>
 <text font-family="Arial" x="390.2" y="-1672.73" font-size="72.67" transform="scale(4.0128 .2492)" id="text152" text-anchor="middle"/>
 <text font-family="Gentium Book Basic" x="-3567.75" y="293.52" line-height="125%" font-size="200" id="text154" word-spacing="0" letter-spacing="0"><tspan x="-3567.75" y="293.52" id="tspan156"/>
 </text>
 <text font-family="Arial" x="-584.07" y="637.46" font-size="72.67" transform="scale(4.0128 .2492)" id="text158" text-anchor="middle"/>
 <path fill-rule="evenodd" d="m471.95 253.05c0 120.9-98.01 218.9-218.9 218.9-120.9 0-218.9-98.01-218.9-218.9 0-120.9 98.01-218.9 218.9-218.9 120.9 0 218.9 98.01 218.9 218.9" fill="#828282" id="path160"/>
 <path fill-opacity="0.643" d="m270.31 38.594c-1.758 0-3.232 0.323-4.469 1-1.237 0.664-2.25 1.643-3.03 2.906-0.781 1.263-1.354 2.802-1.719 4.625-0.352 1.823-0.531 3.883-0.531 6.188s0.203 4.378 0.594 6.188c0.404 1.81 1.01 3.331 1.813 4.594 0.807 1.263 1.807 2.242 3.03 2.906 1.224 0.664 2.659 1 4.313 1 1.758 0 3.263-0.336 4.5-1 1.25-0.664 2.281-1.643 3.063-2.906 0.794-1.263 1.367-2.784 1.719-4.594 0.365-1.81 0.531-3.883 0.531-6.188 0-2.318-0.19-4.396-0.594-6.219s-1.024-3.362-1.844-4.625-1.838-2.211-3.063-2.875c-1.224-0.664-2.672-1-4.313-1m-63.25 0.406c-1.748 0.374-3.486 0.772-5.219 1.188l-7.719 6.156 2.938 3.625 3.281-2.625c0.195-0.156 0.385-0.336 0.594-0.531 0.208-0.195 0.429-0.38 0.625-0.563l0.5-0.531c0.156-0.156 0.279-0.266 0.344-0.344-0.013 0.43-0.036 0.885-0.063 1.406-0.013 0.521-0.036 1.042-0.063 1.563-0.013 0.508-0.018 1.018-0.031 1.5v17.719h6.03v-28.563h-1.219m30.844 0-9.219 7.344 2.938 3.625 3.281-2.625c0.195-0.156 0.386-0.336 0.594-0.531s0.43-0.38 0.625-0.563l0.531-0.531c0.156-0.156 0.247-0.266 0.313-0.344-0.013 0.43-0.036 0.885-0.063 1.406-0.013 0.521-0.01 1.042-0.031 1.563-0.013 0.508-0.05 1.018-0.063 1.5v17.719h6.03v-28.563h-4.94m67.34 1.406-7.406 5.938 2.938 3.625 3.281-2.625c0.195-0.156 0.385-0.336 0.594-0.531 0.208-0.195 0.399-0.38 0.594-0.563l0.531-0.531c0.156-0.156 0.279-0.266 0.344-0.344-0.013 0.43-0.038 0.885-0.063 1.406-0.013 0.521-0.036 1.042-0.063 1.563-0.013 0.508-0.018 1.018-0.031 1.5v17.719h6.03v-25.375c-2.239-0.625-4.483-1.227-6.75-1.781m-34.938 3.063c1.354 0 2.352 0.846 2.938 2.5 0.599 1.641 0.875 4.076 0.875 7.344 0 3.281-0.276 5.747-0.875 7.375-0.586 1.628-1.583 2.438-2.938 2.438-1.38 0-2.346-0.828-2.906-2.469s-0.844-4.089-0.844-7.344c0-1.628 0.088-3.057 0.219-4.281 0.13-1.237 0.325-2.242 0.625-3.063 0.3-0.82 0.687-1.458 1.156-1.875 0.482-0.417 1.06-0.625 1.75-0.625m59.719 4.625c-0.242 1.576-0.344 3.312-0.344 5.219 0 2.305 0.203 4.378 0.594 6.188 0.404 1.81 1.01 3.331 1.813 4.594 0.807 1.263 1.839 2.242 3.063 2.906s2.659 1 4.313 1c1.758 0 3.263-0.336 4.5-1 1.25-0.664 2.25-1.643 3.03-2.906 0.794-1.263 1.367-2.784 1.719-4.594 0.197-0.976 0.311-2.033 0.406-3.156-1.93-0.944-3.883-1.893-5.844-2.781-0.016 3.148-0.324 5.542-0.906 7.125-0.586 1.628-1.552 2.438-2.906 2.438-1.38 0-2.347-0.828-2.906-2.469-0.56-1.641-0.844-4.089-0.844-7.344 0-1.085 0.038-2.062 0.094-2.969-1.913-0.782-3.842-1.521-5.781-2.25m-154.03 0.031c-1.908 0.718-3.805 1.45-5.688 2.219 0.068 0.906 0.125 1.879 0.125 2.969 0 3.281-0.307 5.747-0.906 7.375-0.586 1.628-1.552 2.438-2.906 2.438-1.38 0-2.346-0.828-2.906-2.469-0.546-1.601-0.83-3.986-0.844-7.125-1.991 0.901-3.948 1.854-5.906 2.813 0.099 1.124 0.258 2.181 0.469 3.156 0.404 1.81 1.01 3.331 1.813 4.594 0.807 1.263 1.839 2.242 3.063 2.906s2.659 1 4.313 1c1.758 0 3.232-0.336 4.469-1 1.25-0.664 2.281-1.643 3.063-2.906 0.794-1.263 1.367-2.784 1.719-4.594 0.365-1.81 0.531-3.883 0.531-6.188 0-1.892-0.14-3.623-0.406-5.188m-9.375 34.875c-1.758 0-3.263 0.323-4.5 1-1.237 0.664-2.25 1.643-3.03 2.906-0.781 1.263-1.354 2.802-1.719 4.625-0.351 1.823-0.531 3.883-0.531 6.188s0.203 4.346 0.594 6.156c0.404 1.81 1.01 3.362 1.813 4.625 0.807 1.263 1.839 2.211 3.063 2.875s2.659 1 4.313 1c1.758 0 3.232-0.336 4.469-1 1.25-0.664 2.281-1.612 3.063-2.875 0.794-1.263 1.367-2.815 1.719-4.625 0.365-1.81 0.531-3.852 0.531-6.156 0-2.318-0.19-4.396-0.594-6.219s-1.023-3.362-1.844-4.625c-0.82-1.263-1.839-2.242-3.063-2.906s-2.641-0.969-4.281-0.969m69.13 0c-1.758 0-3.263 0.323-4.5 1-1.237 0.664-2.219 1.643-3 2.906s-1.354 2.802-1.719 4.625c-0.352 1.823-0.531 3.883-0.531 6.188s0.172 4.346 0.563 6.156c0.404 1.81 1.036 3.362 1.844 4.625 0.807 1.263 1.807 2.211 3.03 2.875 1.224 0.664 2.659 1 4.313 1 1.758 0 3.263-0.336 4.5-1 1.25-0.664 2.25-1.612 3.03-2.875 0.794-1.263 1.367-2.815 1.719-4.625 0.365-1.81 0.562-3.852 0.563-6.156 0-2.318-0.19-4.396-0.594-6.219s-1.023-3.362-1.844-4.625c-0.82-1.263-1.839-2.242-3.063-2.906s-2.672-0.969-4.313-0.969m103.72 0c-1.758 0-3.263 0.323-4.5 1-1.237 0.664-2.25 1.643-3.03 2.906-0.781 1.263-1.354 2.802-1.719 4.625-0.352 1.823-0.531 3.883-0.531 6.188s0.203 4.346 0.594 6.156c0.404 1.81 1.01 3.362 1.813 4.625 0.807 1.263 1.839 2.211 3.063 2.875s2.659 1 4.313 1c1.758 0 3.263-0.336 4.5-1 1.25-0.664 2.25-1.612 3.03-2.875 0.794-1.263 1.367-2.815 1.719-4.625 0.365-1.81 0.563-3.852 0.563-6.156 0-2.318-0.221-4.396-0.625-6.219s-0.992-3.362-1.813-4.625c-0.82-1.263-1.87-2.242-3.094-2.906s-2.641-0.969-4.281-0.969m34.563 0c-1.758 0-3.263 0.323-4.5 1-1.237 0.664-2.219 1.643-3 2.906s-1.354 2.802-1.719 4.625c-0.352 1.823-0.531 3.883-0.531 6.188s0.172 4.346 0.563 6.156c0.404 1.81 1.036 3.362 1.844 4.625 0.807 1.263 1.807 2.211 3.03 2.875 1.224 0.664 2.659 1 4.313 1 1.758 0 3.263-0.336 4.5-1 1.25-0.664 2.25-1.612 3.03-2.875 0.794-1.263 1.367-2.815 1.719-4.625 0.365-1.81 0.563-3.852 0.563-6.156 0-2.318-0.19-4.396-0.594-6.219s-1.023-3.362-1.844-4.625c-0.82-1.263-1.839-2.242-3.063-2.906s-2.672-0.969-4.313-0.969m-239.84 0.406-9.188 7.313 2.906 3.656 3.281-2.656c0.195-0.156 0.417-0.336 0.625-0.531s0.398-0.38 0.594-0.563l0.531-0.531c0.156-0.156 0.279-0.266 0.344-0.344-0.013 0.43-0.036 0.917-0.063 1.438-0.013 0.521-0.036 1.042-0.063 1.563-0.013 0.508-0.018 0.987-0.031 1.469v17.75h6.03v-28.561h-4.969m69.13 0-9.188 7.313 2.938 3.656 3.281-2.656c0.195-0.156 0.385-0.336 0.594-0.531 0.208-0.195 0.429-0.38 0.625-0.563l0.5-0.531c0.156-0.156 0.279-0.266 0.344-0.344-0.013 0.43-0.036 0.917-0.063 1.438-0.013 0.521-0.036 1.042-0.063 1.563-0.013 0.508-0.018 0.987-0.031 1.469v17.75h6.03v-28.56h-4.969m69.16 0-9.188 7.313 2.906 3.656 3.281-2.656c0.195-0.156 0.417-0.336 0.625-0.531s0.398-0.38 0.594-0.563l0.531-0.531c0.156-0.156 0.278-0.266 0.344-0.344-0.013 0.43-0.036 0.917-0.063 1.438-0.013 0.521-0.038 1.042-0.063 1.563-0.013 0.508-0.018 0.987-0.031 1.469v17.75h6.03v-28.559h-4.969m34.563 0-9.188 7.313 2.938 3.656 3.281-2.656c0.195-0.156 0.385-0.336 0.594-0.531 0.208-0.195 0.399-0.38 0.594-0.563l0.531-0.531c0.156-0.156 0.279-0.266 0.344-0.344-0.013 0.43-0.038 0.917-0.063 1.438-0.013 0.521-0.036 1.042-0.063 1.563-0.013 0.508-0.018 0.987-0.031 1.469v17.75h6.03v-28.568h-4.969m-140.41 4.469c1.354 0 2.32 0.815 2.906 2.469 0.599 1.641 0.906 4.107 0.906 7.375 0 3.281-0.307 5.716-0.906 7.344-0.586 1.628-1.552 2.469-2.906 2.469-1.38 0-2.346-0.828-2.906-2.469s-0.844-4.089-0.844-7.344c0-1.628 0.057-3.057 0.188-4.281 0.13-1.237 0.357-2.273 0.656-3.094 0.299-0.82 0.656-1.427 1.125-1.844 0.482-0.417 1.091-0.625 1.781-0.625m69.13 0c1.354 0 2.32 0.815 2.906 2.469 0.599 1.641 0.906 4.107 0.906 7.375 0 3.281-0.307 5.716-0.906 7.344-0.586 1.628-1.552 2.469-2.906 2.469-1.38 0-2.346-0.828-2.906-2.469s-0.844-4.089-0.844-7.344c0-1.628 0.057-3.057 0.188-4.281 0.13-1.237 0.357-2.273 0.656-3.094 0.299-0.82 0.688-1.427 1.156-1.844 0.482-0.417 1.06-0.625 1.75-0.625m103.72 0c1.354 0 2.32 0.815 2.906 2.469 0.599 1.641 0.906 4.107 0.906 7.375 0 3.281-0.307 5.716-0.906 7.344-0.586 1.628-1.552 2.469-2.906 2.469-1.38 0-2.347-0.828-2.906-2.469-0.56-1.641-0.844-4.089-0.844-7.344 0-1.628 0.057-3.057 0.188-4.281 0.13-1.237 0.357-2.273 0.656-3.094 0.299-0.82 0.687-1.427 1.156-1.844 0.482-0.417 1.06-0.625 1.75-0.625m34.563 0c1.354 0 2.32 0.815 2.906 2.469 0.599 1.641 0.906 4.107 0.906 7.375 0 3.281-0.307 5.716-0.906 7.344-0.586 1.628-1.552 2.469-2.906 2.469-1.38 0-2.346-0.828-2.906-2.469s-0.844-4.089-0.844-7.344c0-1.628 0.057-3.057 0.188-4.281 0.13-1.237 0.357-2.273 0.656-3.094 0.3-0.82 0.687-1.427 1.156-1.844 0.482-0.417 1.06-0.625 1.75-0.625m-267.59 2.625c-1.766 1.594-3.506 3.225-5.219 4.875-0.005 0.005 0.005 0.026 0 0.031 0.038 0.716 0.063 1.495 0.063 2.313 0 3.281-0.307 5.716-0.906 7.344-0.586 1.628-1.552 2.469-2.906 2.469-1.38 0-2.346-0.828-2.906-2.469-0.223-0.653-0.396-1.498-0.531-2.406-1.518 1.604-2.999 3.225-4.469 4.875 0.173 0.337 0.368 0.665 0.563 0.969 0.807 1.263 1.807 2.211 3.03 2.875 1.224 0.664 2.659 1 4.313 1 1.758 0 3.263-0.336 4.5-1 1.25-0.664 2.25-1.612 3.03-2.875 0.794-1.263 1.367-2.815 1.719-4.625 0.365-1.81 0.562-3.852 0.563-6.156 0-2.318-0.19-4.396-0.594-6.219-0.077-0.346-0.158-0.674-0.25-1m303.25 9.688v11.781h6.03v-5.375c-1.964-2.179-3.983-4.308-6.03-6.406m-243.06 27.19c-1.758 0-3.263 0.354-4.5 1.031-1.237 0.664-2.25 1.612-3.03 2.875-0.781 1.263-1.354 2.802-1.719 4.625-0.351 1.823-0.531 3.883-0.531 6.188s0.203 4.378 0.594 6.188c0.404 1.81 1.01 3.331 1.813 4.594 0.807 1.263 1.839 2.242 3.063 2.906s2.659 1 4.313 1c1.758 0 3.232-0.336 4.469-1 1.25-0.664 2.281-1.643 3.063-2.906 0.794-1.263 1.367-2.784 1.719-4.594 0.365-1.81 0.531-3.883 0.531-6.188 0-2.318-0.19-4.365-0.594-6.188s-1.023-3.362-1.844-4.625c-0.82-1.263-1.839-2.242-3.063-2.906s-2.641-1-4.281-1m34.563 0c-1.758 0-3.263 0.354-4.5 1.031-1.237 0.664-2.25 1.612-3.03 2.875-0.781 1.263-1.354 2.802-1.719 4.625-0.352 1.823-0.531 3.883-0.531 6.188s0.203 4.378 0.594 6.188c0.404 1.81 1.01 3.331 1.813 4.594 0.807 1.263 1.839 2.242 3.063 2.906s2.659 1 4.313 1c1.758 0 3.263-0.336 4.5-1 1.25-0.664 2.25-1.643 3.03-2.906 0.794-1.263 1.367-2.784 1.719-4.594 0.364-1.81 0.563-3.883 0.563-6.188 0-2.318-0.221-4.365-0.625-6.188s-0.992-3.362-1.813-4.625-1.87-2.242-3.094-2.906-2.641-1-4.281-1m103.72 0c-1.758 0-3.263 0.354-4.5 1.031-1.237 0.664-2.25 1.612-3.03 2.875-0.781 1.263-1.354 2.802-1.719 4.625-0.352 1.823-0.531 3.883-0.531 6.188s0.203 4.378 0.594 6.188c0.404 1.81 1.01 3.331 1.813 4.594 0.807 1.263 1.839 2.242 3.063 2.906s2.659 1 4.313 1c1.758 0 3.232-0.336 4.469-1 1.25-0.664 2.281-1.643 3.063-2.906 0.794-1.263 1.367-2.784 1.719-4.594 0.365-1.81 0.531-3.883 0.531-6.188 0-2.318-0.19-4.365-0.594-6.188s-1.023-3.362-1.844-4.625c-0.82-1.263-1.839-2.242-3.063-2.906s-2.641-1-4.281-1m69.13 0c-1.758 0-3.263 0.354-4.5 1.031-1.237 0.664-2.219 1.612-3 2.875s-1.354 2.802-1.719 4.625c-0.352 1.823-0.531 3.883-0.531 6.188s0.172 4.378 0.563 6.188c0.404 1.81 1.036 3.331 1.844 4.594 0.807 1.263 1.807 2.242 3.03 2.906 1.224 0.664 2.659 1 4.313 1 1.758 0 3.263-0.336 4.5-1 1.25-0.664 2.25-1.643 3.03-2.906 0.794-1.263 1.367-2.784 1.719-4.594 0.365-1.81 0.563-3.883 0.563-6.188 0-2.318-0.19-4.365-0.594-6.188s-1.023-3.362-1.844-4.625c-0.82-1.263-1.839-2.242-3.063-2.906s-2.672-1-4.313-1m-274.41 0.438-9.219 7.313 2.938 3.625 3.281-2.625c0.195-0.156 0.385-0.336 0.594-0.531 0.208-0.195 0.43-0.38 0.625-0.563l0.531-0.531c0.156-0.156 0.247-0.266 0.313-0.344-0.013 0.43-0.037 0.885-0.063 1.406-0.013 0.521-0.005 1.042-0.031 1.563-0.013 0.508-0.049 1.018-0.063 1.5v17.719h6.03v-28.531h-4.938m34.563 0-9.188 7.313 2.906 3.625 3.281-2.625c0.195-0.156 0.417-0.336 0.625-0.531s0.398-0.38 0.594-0.563l0.531-0.531c0.156-0.156 0.279-0.266 0.344-0.344-0.013 0.43-0.036 0.885-0.063 1.406-0.013 0.521-0.036 1.042-0.063 1.563-0.013 0.508-0.018 1.018-0.031 1.5v17.719h6.03v-28.531h-4.969m103.72 0-9.219 7.313 2.938 3.625 3.281-2.625c0.195-0.156 0.386-0.336 0.594-0.531s0.43-0.38 0.625-0.563l0.531-0.531c0.156-0.156 0.247-0.266 0.313-0.344-0.013 0.43-0.036 0.885-0.063 1.406-0.013 0.521-0.01 1.042-0.031 1.563-0.013 0.508-0.05 1.018-0.063 1.5v17.719h6.03v-28.531h-4.938m34.563 0-9.188 7.313 2.906 3.625 3.281-2.625c0.195-0.156 0.417-0.336 0.625-0.531s0.398-0.38 0.594-0.563l0.531-0.531c0.156-0.156 0.278-0.266 0.344-0.344-0.013 0.43-0.036 0.885-0.063 1.406-0.013 0.521-0.038 1.042-0.063 1.563-0.013 0.508-0.018 1.018-0.031 1.5v17.719h6.03v-28.531h-4.969m69.13 0-9.188 7.313 2.938 3.625 3.281-2.625c0.195-0.156 0.385-0.336 0.594-0.531 0.208-0.195 0.43-0.38 0.625-0.563l0.5-0.531c0.156-0.156 0.278-0.266 0.344-0.344-0.013 0.43-0.036 0.885-0.063 1.406-0.013 0.521-0.038 1.042-0.063 1.563-0.013 0.508-0.018 1.018-0.031 1.5v17.719h6.03v-28.531h-4.969m69.16 0-9.188 7.313 2.906 3.625 3.281-2.625c0.195-0.156 0.417-0.336 0.625-0.531 0.209-0.195 0.398-0.38 0.594-0.563l0.531-0.531c0.156-0.156 0.279-0.266 0.344-0.344-0.013 0.43-0.036 0.885-0.063 1.406-0.013 0.521-0.036 1.042-0.063 1.563-0.013 0.508-0.018 1.018-0.031 1.5v17.719h6.03v-28.531h-4.969m24.594 4.03c-0.622 1.153-1.093 2.495-1.406 4.063-0.352 1.823-0.531 3.883-0.531 6.188s0.203 4.378 0.594 6.188c0.404 1.81 1.01 3.331 1.813 4.594 0.807 1.263 1.839 2.242 3.063 2.906s2.659 1 4.313 1c1.758 0 3.232-0.336 4.469-1 0.41-0.218 0.763-0.497 1.125-0.781-0.899-1.792-1.803-3.581-2.75-5.344-0.592 1.5-1.544 2.25-2.844 2.25-1.38 0-2.346-0.828-2.906-2.469s-0.844-4.089-0.844-7.344c0-1.382 0.033-2.571 0.125-3.656-1.37-2.226-2.772-4.422-4.219-6.594m-268.72 0.406c1.354 0 2.32 0.846 2.906 2.5 0.599 1.641 0.906 4.076 0.906 7.344 0 3.281-0.307 5.747-0.906 7.375-0.586 1.628-1.552 2.438-2.906 2.438-1.38 0-2.346-0.828-2.906-2.469s-0.844-4.089-0.844-7.344c0-1.628 0.057-3.03 0.188-4.25 0.13-1.237 0.357-2.273 0.656-3.094 0.299-0.82 0.656-1.458 1.125-1.875 0.482-0.417 1.091-0.625 1.781-0.625m34.563 0c1.354 0 2.32 0.846 2.906 2.5 0.599 1.641 0.906 4.076 0.906 7.344 0 3.281-0.307 5.747-0.906 7.375-0.586 1.628-1.552 2.438-2.906 2.438-1.38 0-2.346-0.828-2.906-2.469s-0.844-4.089-0.844-7.344c0-1.628 0.057-3.03 0.188-4.25 0.13-1.237 0.357-2.273 0.656-3.094 0.299-0.82 0.687-1.458 1.156-1.875 0.482-0.417 1.06-0.625 1.75-0.625m103.72 0c1.354 0 2.32 0.846 2.906 2.5 0.599 1.641 0.906 4.076 0.906 7.344 0 3.281-0.307 5.747-0.906 7.375-0.586 1.628-1.552 2.438-2.906 2.438-1.38 0-2.346-0.828-2.906-2.469s-0.844-4.089-0.844-7.344c0-1.628 0.057-3.03 0.188-4.25 0.13-1.237 0.357-2.273 0.656-3.094 0.3-0.82 0.656-1.458 1.125-1.875 0.482-0.417 1.091-0.625 1.781-0.625m69.13 0c1.354 0 2.32 0.846 2.906 2.5 0.599 1.641 0.906 4.076 0.906 7.344 0 3.281-0.307 5.747-0.906 7.375-0.586 1.628-1.552 2.438-2.906 2.438-1.38 0-2.346-0.828-2.906-2.469s-0.844-4.089-0.844-7.344c0-1.628 0.057-3.03 0.188-4.25 0.13-1.237 0.357-2.273 0.656-3.094 0.3-0.82 0.687-1.458 1.156-1.875 0.482-0.417 1.06-0.625 1.75-0.625m-304.03 0.719c-2.098 3.191-4.099 6.445-6.03 9.75v13.625h6.03v-23.375m165.75 38.813c-1.758 0-3.263 0.323-4.5 1-1.237 0.664-2.219 1.643-3 2.906s-1.354 2.802-1.719 4.625c-0.352 1.823-0.531 3.883-0.531 6.188s0.172 4.378 0.563 6.188c0.404 1.81 1.036 3.331 1.844 4.594 0.807 1.263 1.807 2.242 3.03 2.906 1.224 0.664 2.659 0.969 4.313 0.969 1.758 0 3.263-0.305 4.5-0.969 1.25-0.664 2.25-1.643 3.03-2.906 0.794-1.263 1.367-2.784 1.719-4.594 0.365-1.81 0.562-3.883 0.563-6.188 0-2.318-0.19-4.396-0.594-6.219s-1.023-3.362-1.844-4.625c-0.82-1.263-1.839-2.211-3.063-2.875s-2.672-1-4.313-1m34.563 0c-1.758 0-3.232 0.323-4.469 1-1.237 0.664-2.25 1.643-3.03 2.906-0.781 1.263-1.354 2.802-1.719 4.625-0.352 1.823-0.531 3.883-0.531 6.188s0.203 4.378 0.594 6.188c0.404 1.81 1.01 3.331 1.813 4.594 0.807 1.263 1.807 2.242 3.03 2.906 1.224 0.664 2.659 0.969 4.313 0.969 1.758 0 3.263-0.305 4.5-0.969 1.25-0.664 2.281-1.643 3.063-2.906 0.794-1.263 1.367-2.784 1.719-4.594 0.365-1.81 0.531-3.883 0.531-6.188 0-2.318-0.19-4.396-0.594-6.219s-1.024-3.362-1.844-4.625-1.838-2.211-3.063-2.875c-1.224-0.664-2.672-1-4.313-1m172.88 0c-1.758 0-3.263 0.323-4.5 1-1.237 0.664-2.25 1.643-3.03 2.906-0.781 1.263-1.354 2.802-1.719 4.625-0.352 1.823-0.531 3.883-0.531 6.188s0.203 4.378 0.594 6.188c0.404 1.81 1.01 3.331 1.813 4.594 0.807 1.263 1.839 2.242 3.063 2.906s2.659 0.969 4.313 0.969c1.758 0 3.232-0.305 4.469-0.969 1.25-0.664 2.281-1.643 3.063-2.906 0.794-1.263 1.367-2.784 1.719-4.594 0.364-1.81 0.531-3.883 0.531-6.188 0-2.318-0.19-4.396-0.594-6.219s-1.023-3.362-1.844-4.625c-0.82-1.263-1.839-2.211-3.063-2.875s-2.641-1-4.281-1m-378.16 0.406-9.188 7.344 2.938 3.625 3.281-2.625c0.195-0.156 0.385-0.336 0.594-0.531 0.208-0.195 0.43-0.38 0.625-0.563l0.5-0.531c0.156-0.156 0.279-0.297 0.344-0.375-0.013 0.43-0.037 0.917-0.063 1.438-0.013 0.521-0.037 1.042-0.063 1.563-0.013 0.508-0.018 1.018-0.031 1.5v17.719h6.03v-28.57h-4.957m34.594 0-9.219 7.344 2.938 3.625 3.281-2.625c0.195-0.156 0.385-0.336 0.594-0.531 0.208-0.195 0.43-0.38 0.625-0.563l0.531-0.531c0.156-0.156 0.247-0.297 0.313-0.375-0.013 0.43-0.037 0.917-0.063 1.438-0.013 0.521-0.005 1.042-0.031 1.563-0.013 0.508-0.049 1.018-0.063 1.5v17.719h6.03v-28.563h-4.938m34.563 0-9.188 7.344 2.906 3.625 3.281-2.625c0.195-0.156 0.417-0.336 0.625-0.531s0.398-0.38 0.594-0.563l0.531-0.531c0.156-0.156 0.279-0.297 0.344-0.375-0.013 0.43-0.036 0.917-0.063 1.438-0.013 0.521-0.036 1.042-0.063 1.563-0.013 0.508-0.018 1.018-0.031 1.5v17.719h6.03v-28.563h-4.969m34.563 0-9.188 7.344 2.938 3.625 3.281-2.625c0.195-0.156 0.385-0.336 0.594-0.531 0.208-0.195 0.398-0.38 0.594-0.563l0.531-0.531c0.156-0.156 0.279-0.297 0.344-0.375-0.013 0.43-0.036 0.917-0.063 1.438-0.013 0.521-0.036 1.042-0.063 1.563-0.013 0.508-0.018 1.018-0.031 1.5v17.719h6.03v-28.563h-4.969m34.563 0-9.188 7.344 2.938 3.625 3.281-2.625c0.195-0.156 0.385-0.336 0.594-0.531 0.208-0.195 0.429-0.38 0.625-0.563l0.5-0.531c0.156-0.156 0.279-0.297 0.344-0.375-0.013 0.43-0.036 0.917-0.063 1.438-0.013 0.521-0.036 1.042-0.063 1.563-0.013 0.508-0.018 1.018-0.031 1.5v17.719h6.03v-28.563h-4.969m103.72 0-9.188 7.344 2.938 3.625 3.281-2.625c0.195-0.156 0.385-0.336 0.594-0.531 0.208-0.195 0.399-0.38 0.594-0.563l0.531-0.531c0.156-0.156 0.279-0.297 0.344-0.375-0.013 0.43-0.038 0.917-0.063 1.438-0.013 0.521-0.036 1.042-0.063 1.563-0.013 0.508-0.018 1.018-0.031 1.5v17.719h6.03v-28.64h-4.969m34.563 0-9.188 7.344 2.938 3.625 3.281-2.625c0.195-0.156 0.385-0.336 0.594-0.531 0.208-0.195 0.43-0.38 0.625-0.563l0.5-0.531c0.156-0.156 0.278-0.297 0.344-0.375-0.013 0.43-0.036 0.917-0.063 1.438-0.013 0.521-0.038 1.042-0.063 1.563-0.013 0.508-0.018 1.018-0.031 1.5v17.719h6.03v-28.563h-4.969m34.594 0-9.219 7.344 2.938 3.625 3.281-2.625c0.195-0.156 0.385-0.336 0.594-0.531 0.208-0.195 0.43-0.38 0.625-0.563l0.531-0.531c0.156-0.156 0.248-0.297 0.313-0.375-0.013 0.43-0.038 0.917-0.063 1.438-0.013 0.521-0.01 1.042-0.031 1.563-0.013 0.508-0.05 1.018-0.063 1.5v17.719h6.03v-28.563h-4.938m34.563 0-9.188 7.344 2.906 3.625 3.281-2.625c0.195-0.156 0.417-0.336 0.625-0.531 0.209-0.195 0.398-0.38 0.594-0.563l0.531-0.531c0.156-0.156 0.279-0.297 0.344-0.375-0.013 0.43-0.036 0.917-0.063 1.438-0.013 0.521-0.036 1.042-0.063 1.563-0.013 0.508-0.018 1.018-0.031 1.5v17.719h6.03v-28.563h-4.969m-175 4.469c1.354 0 2.32 0.815 2.906 2.469 0.599 1.641 0.906 4.107 0.906 7.375 0 3.281-0.307 5.747-0.906 7.375-0.586 1.628-1.552 2.438-2.906 2.438-1.38 0-2.346-0.828-2.906-2.469s-0.844-4.089-0.844-7.344c0-1.628 0.057-3.057 0.188-4.281 0.13-1.237 0.357-2.273 0.656-3.094 0.299-0.82 0.688-1.427 1.156-1.844 0.482-0.417 1.06-0.625 1.75-0.625m34.563 0c1.354 0 2.352 0.815 2.938 2.469 0.599 1.641 0.875 4.107 0.875 7.375 0 3.281-0.276 5.747-0.875 7.375-0.586 1.628-1.583 2.438-2.938 2.438-1.38 0-2.346-0.828-2.906-2.469s-0.844-4.089-0.844-7.344c0-1.628 0.088-3.057 0.219-4.281 0.13-1.237 0.325-2.273 0.625-3.094 0.3-0.82 0.687-1.427 1.156-1.844 0.482-0.417 1.06-0.625 1.75-0.625m172.88 0c1.354 0 2.32 0.815 2.906 2.469 0.599 1.641 0.906 4.107 0.906 7.375 0 3.281-0.307 5.747-0.906 7.375-0.586 1.628-1.552 2.438-2.906 2.438-1.38 0-2.346-0.828-2.906-2.469s-0.844-4.089-0.844-7.344c0-1.628 0.057-3.057 0.188-4.281 0.13-1.237 0.357-2.273 0.656-3.094 0.3-0.82 0.656-1.427 1.125-1.844 0.482-0.417 1.091-0.625 1.781-0.625m-345.72 39.5c-1.758 0-3.263 0.354-4.5 1.031-1.237 0.664-2.219 1.612-3 2.875s-1.354 2.833-1.719 4.656c-0.352 1.823-0.531 3.883-0.531 6.188s0.172 4.346 0.563 6.156c0.404 1.81 1.036 3.362 1.844 4.625 0.807 1.263 1.807 2.211 3.03 2.875 1.224 0.664 2.659 1 4.313 1 1.758 0 3.263-0.336 4.5-1 1.25-0.664 2.25-1.612 3.03-2.875 0.794-1.263 1.367-2.815 1.719-4.625 0.365-1.81 0.562-3.852 0.563-6.156 0-2.318-0.19-4.396-0.594-6.219s-1.023-3.362-1.844-4.625c-0.82-1.263-1.839-2.242-3.063-2.906s-2.672-1-4.313-1m34.563 0c-1.758 0-3.232 0.354-4.469 1.031-1.237 0.664-2.25 1.612-3.03 2.875-0.781 1.263-1.354 2.833-1.719 4.656-0.352 1.823-0.531 3.883-0.531 6.188s0.203 4.346 0.594 6.156c0.404 1.81 1.01 3.362 1.813 4.625 0.807 1.263 1.807 2.211 3.03 2.875 1.224 0.664 2.659 1 4.313 1 1.758 0 3.263-0.336 4.5-1 1.25-0.664 2.281-1.612 3.063-2.875 0.794-1.263 1.367-2.815 1.719-4.625 0.365-1.81 0.531-3.852 0.531-6.156 0-2.318-0.19-4.396-0.594-6.219s-1.023-3.362-1.844-4.625c-0.82-1.263-1.839-2.242-3.063-2.906s-2.672-1-4.313-1m34.594 0c-1.758 0-3.263 0.354-4.5 1.031-1.237 0.664-2.25 1.612-3.03 2.875-0.781 1.263-1.354 2.833-1.719 4.656-0.351 1.823-0.531 3.883-0.531 6.188s0.203 4.346 0.594 6.156c0.404 1.81 1.01 3.362 1.813 4.625 0.807 1.263 1.839 2.211 3.063 2.875s2.659 1 4.313 1c1.758 0 3.232-0.336 4.469-1 1.25-0.664 2.281-1.612 3.063-2.875 0.794-1.263 1.367-2.815 1.719-4.625 0.365-1.81 0.531-3.852 0.531-6.156 0-2.318-0.19-4.396-0.594-6.219s-1.023-3.362-1.844-4.625c-0.82-1.263-1.839-2.242-3.063-2.906s-2.641-1-4.281-1m138.28 0c-1.758 0-3.263 0.354-4.5 1.031-1.237 0.664-2.25 1.612-3.03 2.875-0.781 1.263-1.354 2.833-1.719 4.656-0.352 1.823-0.531 3.883-0.531 6.188s0.203 4.346 0.594 6.156c0.404 1.81 1.01 3.362 1.813 4.625 0.807 1.263 1.839 2.211 3.063 2.875s2.659 1 4.313 1c1.758 0 3.232-0.336 4.469-1 1.25-0.664 2.281-1.612 3.063-2.875 0.794-1.263 1.367-2.815 1.719-4.625 0.365-1.81 0.531-3.852 0.531-6.156 0-2.318-0.19-4.396-0.594-6.219s-1.023-3.362-1.844-4.625c-0.82-1.263-1.839-2.242-3.063-2.906s-2.641-1-4.281-1m34.563 0c-1.758 0-3.263 0.354-4.5 1.031-1.237 0.664-2.25 1.612-3.03 2.875-0.781 1.263-1.354 2.833-1.719 4.656-0.352 1.823-0.531 3.883-0.531 6.188s0.203 4.346 0.594 6.156c0.404 1.81 1.01 3.362 1.813 4.625 0.807 1.263 1.839 2.211 3.063 2.875s2.659 1 4.313 1c1.758 0 3.263-0.336 4.5-1 1.25-0.664 2.25-1.612 3.03-2.875 0.794-1.263 1.367-2.815 1.719-4.625 0.365-1.81 0.563-3.852 0.563-6.156 0-2.318-0.221-4.396-0.625-6.219s-0.992-3.362-1.813-4.625c-0.82-1.263-1.87-2.242-3.094-2.906s-2.641-1-4.281-1m69.13 0c-1.758 0-3.232 0.354-4.469 1.031-1.237 0.664-2.25 1.612-3.03 2.875-0.781 1.263-1.354 2.833-1.719 4.656-0.351 1.823-0.531 3.883-0.531 6.188s0.203 4.346 0.594 6.156c0.404 1.81 1.01 3.362 1.813 4.625 0.807 1.263 1.807 2.211 3.03 2.875 1.224 0.664 2.659 1 4.313 1 1.758 0 3.263-0.336 4.5-1 1.25-0.664 2.281-1.612 3.063-2.875 0.794-1.263 1.367-2.815 1.719-4.625 0.365-1.81 0.531-3.852 0.531-6.156 0-2.318-0.19-4.396-0.594-6.219s-1.023-3.362-1.844-4.625c-0.82-1.263-1.839-2.242-3.063-2.906s-2.672-1-4.313-1m-343.56 0.438-9.188 7.313 2.938 3.656 3.281-2.656c0.195-0.156 0.385-0.336 0.594-0.531 0.208-0.195 0.43-0.38 0.625-0.563l0.5-0.531c0.156-0.156 0.279-0.266 0.344-0.344-0.013 0.43-0.037 0.917-0.063 1.438-0.013 0.521-0.037 1.042-0.063 1.563-0.013 0.508-0.018 0.987-0.031 1.469v17.75h6.03v-28.563h-4.969m138.28 0-9.188 7.313 2.938 3.656 3.281-2.656c0.195-0.156 0.385-0.336 0.594-0.531 0.208-0.195 0.429-0.38 0.625-0.563l0.5-0.531c0.156-0.156 0.279-0.266 0.344-0.344-0.013 0.43-0.036 0.917-0.063 1.438-0.013 0.521-0.036 1.042-0.063 1.563-0.013 0.508-0.018 0.987-0.031 1.469v17.75h6.03v-28.563h-4.969m34.594 0-9.219 7.313 2.938 3.656 3.281-2.656c0.195-0.156 0.386-0.336 0.594-0.531s0.43-0.38 0.625-0.563l0.531-0.531c0.156-0.156 0.247-0.266 0.313-0.344-0.013 0.43-0.036 0.917-0.063 1.438-0.013 0.521-0.01 1.042-0.031 1.563-0.013 0.508-0.05 0.987-0.063 1.469v17.75h6.03v-28.563h-4.938m34.563 0-9.188 7.313 2.906 3.656 3.281-2.656c0.195-0.156 0.417-0.336 0.625-0.531s0.398-0.38 0.594-0.563l0.531-0.531c0.156-0.156 0.278-0.266 0.344-0.344-0.013 0.43-0.036 0.917-0.063 1.438-0.013 0.521-0.038 1.042-0.063 1.563-0.013 0.508-0.018 0.987-0.031 1.469v17.75h6.03v-28.563h-4.969m103.72 0-9.219 7.313 2.938 3.656 3.281-2.656c0.195-0.156 0.385-0.336 0.594-0.531 0.208-0.195 0.43-0.38 0.625-0.563l0.531-0.531c0.156-0.156 0.248-0.266 0.313-0.344-0.013 0.43-0.038 0.917-0.063 1.438-0.013 0.521-0.01 1.042-0.031 1.563-0.013 0.508-0.05 0.987-0.063 1.469v17.75h6.03v-28.563h-4.938m69.13 0-9.188 7.313 2.938 3.656 3.281-2.656c0.195-0.156 0.385-0.336 0.594-0.531 0.208-0.195 0.398-0.38 0.594-0.563l0.531-0.531c0.156-0.156 0.279-0.266 0.344-0.344-0.013 0.43-0.036 0.917-0.063 1.438-0.013 0.521-0.036 1.042-0.063 1.563-0.013 0.508-0.018 0.987-0.031 1.469v17.75h6.03v-28.563h-4.969m-347.84 4.469c1.354 0 2.32 0.815 2.906 2.469 0.599 1.641 0.906 4.107 0.906 7.375 0 3.281-0.307 5.716-0.906 7.344-0.586 1.628-1.552 2.438-2.906 2.438-1.38 0-2.346-0.797-2.906-2.438s-0.844-4.089-0.844-7.344c0-1.628 0.057-3.057 0.188-4.281 0.13-1.237 0.357-2.273 0.656-3.094 0.299-0.82 0.687-1.427 1.156-1.844 0.482-0.417 1.06-0.625 1.75-0.625m34.563 0c1.354 0 2.351 0.815 2.938 2.469 0.599 1.641 0.875 4.107 0.875 7.375 0 3.281-0.276 5.716-0.875 7.344-0.586 1.628-1.583 2.438-2.938 2.438-1.38 0-2.346-0.797-2.906-2.438s-0.844-4.089-0.844-7.344c0-1.628 0.089-3.057 0.219-4.281 0.13-1.237 0.326-2.273 0.625-3.094 0.299-0.82 0.687-1.427 1.156-1.844 0.482-0.417 1.06-0.625 1.75-0.625m34.594 0c1.354 0 2.32 0.815 2.906 2.469 0.599 1.641 0.906 4.107 0.906 7.375 0 3.281-0.307 5.716-0.906 7.344-0.586 1.628-1.552 2.438-2.906 2.438-1.38 0-2.346-0.797-2.906-2.438s-0.844-4.089-0.844-7.344c0-1.628 0.057-3.057 0.188-4.281 0.13-1.237 0.357-2.273 0.656-3.094 0.299-0.82 0.656-1.427 1.125-1.844 0.482-0.417 1.091-0.625 1.781-0.625m138.28 0c1.354 0 2.32 0.815 2.906 2.469 0.599 1.641 0.906 4.107 0.906 7.375 0 3.281-0.307 5.716-0.906 7.344-0.586 1.628-1.552 2.438-2.906 2.438-1.38 0-2.346-0.797-2.906-2.438s-0.844-4.089-0.844-7.344c0-1.628 0.057-3.057 0.188-4.281 0.13-1.237 0.357-2.273 0.656-3.094 0.3-0.82 0.656-1.427 1.125-1.844 0.482-0.417 1.091-0.625 1.781-0.625m34.563 0c1.354 0 2.32 0.815 2.906 2.469 0.599 1.641 0.906 4.107 0.906 7.375 0 3.281-0.307 5.716-0.906 7.344-0.586 1.628-1.552 2.438-2.906 2.438-1.38 0-2.347-0.797-2.906-2.438-0.56-1.641-0.844-4.089-0.844-7.344 0-1.628 0.057-3.057 0.188-4.281 0.13-1.237 0.357-2.273 0.656-3.094 0.299-0.82 0.687-1.427 1.156-1.844 0.482-0.417 1.06-0.625 1.75-0.625m69.13 0c1.354 0 2.351 0.815 2.938 2.469 0.599 1.641 0.875 4.107 0.875 7.375 0 3.281-0.276 5.716-0.875 7.344-0.586 1.628-1.583 2.438-2.938 2.438-1.38 0-2.347-0.797-2.906-2.438-0.56-1.641-0.844-4.089-0.844-7.344 0-1.628 0.088-3.057 0.219-4.281 0.13-1.237 0.325-2.273 0.625-3.094 0.299-0.82 0.687-1.427 1.156-1.844 0.482-0.417 1.06-0.625 1.75-0.625m-373.16 8.219c-0.565 5.234-0.936 10.537-1.125 15.875h1.125v-15.875m96.59 31.28c-1.758 0-3.232 0.354-4.469 1.031-1.237 0.664-2.25 1.612-3.03 2.875-0.781 1.263-1.354 2.802-1.719 4.625-0.352 1.823-0.531 3.883-0.531 6.188s0.203 4.378 0.594 6.188c0.404 1.81 1.01 3.331 1.813 4.594 0.807 1.263 1.807 2.242 3.03 2.906 1.224 0.664 2.659 1 4.313 1 1.758 0 3.263-0.336 4.5-1 1.25-0.664 2.281-1.643 3.063-2.906 0.794-1.263 1.367-2.784 1.719-4.594 0.365-1.81 0.531-3.883 0.531-6.188 0-2.318-0.19-4.365-0.594-6.188s-1.023-3.393-1.844-4.656c-0.82-1.263-1.839-2.211-3.063-2.875s-2.672-1-4.313-1m34.594 0c-1.758 0-3.263 0.354-4.5 1.031-1.237 0.664-2.25 1.612-3.03 2.875-0.781 1.263-1.354 2.802-1.719 4.625-0.351 1.823-0.531 3.883-0.531 6.188s0.203 4.378 0.594 6.188c0.404 1.81 1.01 3.331 1.813 4.594 0.807 1.263 1.839 2.242 3.063 2.906s2.659 1 4.313 1c1.758 0 3.232-0.336 4.469-1 1.25-0.664 2.281-1.643 3.063-2.906 0.794-1.263 1.367-2.784 1.719-4.594 0.365-1.81 0.531-3.883 0.531-6.188 0-2.318-0.19-4.365-0.594-6.188s-1.023-3.393-1.844-4.656c-0.82-1.263-1.839-2.211-3.063-2.875s-2.641-1-4.281-1m69.13 0c-1.758 0-3.263 0.354-4.5 1.031-1.237 0.664-2.219 1.612-3 2.875s-1.354 2.802-1.719 4.625c-0.352 1.823-0.531 3.883-0.531 6.188s0.172 4.378 0.563 6.188c0.404 1.81 1.036 3.331 1.844 4.594 0.807 1.263 1.807 2.242 3.03 2.906 1.224 0.664 2.659 1 4.313 1 1.758 0 3.263-0.336 4.5-1 1.25-0.664 2.25-1.643 3.03-2.906 0.794-1.263 1.367-2.784 1.719-4.594 0.365-1.81 0.562-3.883 0.563-6.188 0-2.318-0.19-4.365-0.594-6.188s-1.023-3.393-1.844-4.656c-0.82-1.263-1.839-2.211-3.063-2.875s-2.672-1-4.313-1m69.16 0c-1.758 0-3.263 0.354-4.5 1.031-1.237 0.664-2.25 1.612-3.03 2.875-0.781 1.263-1.354 2.802-1.719 4.625-0.352 1.823-0.531 3.883-0.531 6.188s0.203 4.378 0.594 6.188c0.404 1.81 1.01 3.331 1.813 4.594 0.807 1.263 1.839 2.242 3.063 2.906s2.659 1 4.313 1c1.758 0 3.232-0.336 4.469-1 1.25-0.664 2.281-1.643 3.063-2.906 0.794-1.263 1.367-2.784 1.719-4.594 0.365-1.81 0.531-3.883 0.531-6.188 0-2.318-0.19-4.365-0.594-6.188s-1.023-3.393-1.844-4.656c-0.82-1.263-1.839-2.211-3.063-2.875s-2.641-1-4.281-1m69.13 0c-1.758 0-3.263 0.354-4.5 1.031-1.237 0.664-2.219 1.612-3 2.875s-1.354 2.802-1.719 4.625c-0.352 1.823-0.531 3.883-0.531 6.188s0.172 4.378 0.563 6.188c0.404 1.81 1.036 3.331 1.844 4.594 0.807 1.263 1.807 2.242 3.03 2.906 1.224 0.664 2.659 1 4.313 1 1.758 0 3.263-0.336 4.5-1 1.25-0.664 2.25-1.643 3.03-2.906 0.794-1.263 1.367-2.784 1.719-4.594 0.365-1.81 0.563-3.883 0.563-6.188 0-2.318-0.19-4.365-0.594-6.188s-1.023-3.393-1.844-4.656c-0.82-1.263-1.839-2.211-3.063-2.875s-2.672-1-4.313-1m34.563 0c-1.758 0-3.232 0.354-4.469 1.031-1.237 0.664-2.25 1.612-3.03 2.875-0.781 1.263-1.354 2.802-1.719 4.625-0.351 1.823-0.531 3.883-0.531 6.188s0.203 4.378 0.594 6.188c0.404 1.81 1.01 3.331 1.813 4.594 0.807 1.263 1.807 2.242 3.03 2.906 1.224 0.664 2.659 1 4.313 1 1.758 0 3.263-0.336 4.5-1 1.25-0.664 2.281-1.643 3.063-2.906 0.794-1.263 1.367-2.784 1.719-4.594 0.365-1.81 0.531-3.883 0.531-6.188 0-2.318-0.19-4.365-0.594-6.188s-1.023-3.393-1.844-4.656c-0.82-1.263-1.839-2.211-3.063-2.875s-2.672-1-4.313-1m-374.28 0.438c0.19 5.316 0.562 10.6 1.125 15.813v-15.813h-1.125m30.719 0-9.188 7.313 2.938 3.625 3.281-2.625c0.195-0.156 0.385-0.336 0.594-0.531 0.208-0.195 0.43-0.38 0.625-0.563l0.5-0.531c0.156-0.156 0.279-0.266 0.344-0.344-0.013 0.43-0.037 0.885-0.063 1.406-0.013 0.521-0.037 1.042-0.063 1.563-0.013 0.508-0.018 1.018-0.031 1.5v17.719h6.03v-28.531h-4.969m34.594 0-9.219 7.313 2.938 3.625 3.281-2.625c0.195-0.156 0.385-0.336 0.594-0.531 0.208-0.195 0.43-0.38 0.625-0.563l0.531-0.531c0.156-0.156 0.247-0.266 0.313-0.344-0.013 0.43-0.037 0.885-0.063 1.406-0.013 0.521-0.005 1.042-0.031 1.563-0.013 0.508-0.049 1.018-0.063 1.5v17.719h6.03v-28.531h-4.938m103.69 0-9.188 7.313 2.938 3.625 3.281-2.625c0.195-0.156 0.385-0.336 0.594-0.531 0.208-0.195 0.429-0.38 0.625-0.563l0.5-0.531c0.156-0.156 0.279-0.266 0.344-0.344-0.013 0.43-0.036 0.885-0.063 1.406-0.013 0.521-0.036 1.042-0.063 1.563-0.013 0.508-0.018 1.018-0.031 1.5v17.719h6.03v-28.531h-4.969m69.16 0-9.188 7.313 2.906 3.625 3.281-2.625c0.195-0.156 0.417-0.336 0.625-0.531s0.398-0.38 0.594-0.563l0.531-0.531c0.156-0.156 0.278-0.266 0.344-0.344-0.013 0.43-0.036 0.885-0.063 1.406-0.013 0.521-0.038 1.042-0.063 1.563-0.013 0.508-0.018 1.018-0.031 1.5v17.719h6.03v-28.531h-4.969m69.13 0-9.188 7.313 2.938 3.625 3.281-2.625c0.195-0.156 0.385-0.336 0.594-0.531 0.208-0.195 0.43-0.38 0.625-0.563l0.5-0.531c0.156-0.156 0.278-0.266 0.344-0.344-0.013 0.43-0.036 0.885-0.063 1.406-0.013 0.521-0.038 1.042-0.063 1.563-0.013 0.508-0.018 1.018-0.031 1.5v17.719h6.03v-28.531h-4.969m103.72 0-9.188 7.313 2.938 3.625 3.281-2.625c0.195-0.156 0.385-0.336 0.594-0.531 0.208-0.195 0.398-0.38 0.594-0.563l0.531-0.531c0.156-0.156 0.279-0.266 0.344-0.344-0.013 0.43-0.036 0.885-0.063 1.406-0.013 0.521-0.036 1.042-0.063 1.563-0.013 0.508-0.018 1.018-0.031 1.5v17.719h6.03v-28.531h-4.969m-313.28 4.438c1.354 0 2.351 0.846 2.938 2.5 0.599 1.641 0.875 4.076 0.875 7.344 0 3.281-0.276 5.747-0.875 7.375-0.586 1.628-1.583 2.438-2.938 2.438-1.38 0-2.346-0.828-2.906-2.469s-0.844-4.089-0.844-7.344c0-1.628 0.089-3.057 0.219-4.281 0.13-1.237 0.326-2.242 0.625-3.063 0.299-0.82 0.687-1.458 1.156-1.875 0.482-0.417 1.06-0.625 1.75-0.625m34.594 0c1.354 0 2.32 0.846 2.906 2.5 0.599 1.641 0.906 4.076 0.906 7.344 0 3.281-0.307 5.747-0.906 7.375-0.586 1.628-1.552 2.438-2.906 2.438-1.38 0-2.346-0.828-2.906-2.469s-0.844-4.089-0.844-7.344c0-1.628 0.057-3.057 0.188-4.281 0.13-1.237 0.357-2.242 0.656-3.063 0.299-0.82 0.656-1.458 1.125-1.875 0.482-0.417 1.091-0.625 1.781-0.625m69.13 0c1.354 0 2.32 0.846 2.906 2.5 0.599 1.641 0.906 4.076 0.906 7.344 0 3.281-0.307 5.747-0.906 7.375-0.586 1.628-1.552 2.438-2.906 2.438-1.38 0-2.346-0.828-2.906-2.469s-0.844-4.089-0.844-7.344c0-1.628 0.057-3.057 0.188-4.281 0.13-1.237 0.357-2.242 0.656-3.063 0.299-0.82 0.688-1.458 1.156-1.875 0.482-0.417 1.06-0.625 1.75-0.625m69.16 0c1.354 0 2.32 0.846 2.906 2.5 0.599 1.641 0.906 4.076 0.906 7.344 0 3.281-0.307 5.747-0.906 7.375-0.586 1.628-1.552 2.438-2.906 2.438-1.38 0-2.346-0.828-2.906-2.469s-0.844-4.089-0.844-7.344c0-1.628 0.057-3.057 0.188-4.281 0.13-1.237 0.357-2.242 0.656-3.063 0.3-0.82 0.656-1.458 1.125-1.875 0.482-0.417 1.091-0.625 1.781-0.625m69.13 0c1.354 0 2.32 0.846 2.906 2.5 0.599 1.641 0.906 4.076 0.906 7.344 0 3.281-0.307 5.747-0.906 7.375-0.586 1.628-1.552 2.438-2.906 2.438-1.38 0-2.346-0.828-2.906-2.469s-0.844-4.089-0.844-7.344c0-1.628 0.057-3.057 0.188-4.281 0.13-1.237 0.357-2.242 0.656-3.063 0.3-0.82 0.687-1.458 1.156-1.875 0.482-0.417 1.06-0.625 1.75-0.625m34.563 0c1.354 0 2.351 0.846 2.938 2.5 0.599 1.641 0.875 4.076 0.875 7.344 0 3.281-0.276 5.747-0.875 7.375-0.586 1.628-1.583 2.438-2.938 2.438-1.38 0-2.347-0.828-2.906-2.469-0.56-1.641-0.844-4.089-0.844-7.344 0-1.628 0.088-3.057 0.219-4.281 0.13-1.237 0.325-2.242 0.625-3.063 0.299-0.82 0.687-1.458 1.156-1.875 0.482-0.417 1.06-0.625 1.75-0.625m62.844 2.281-0.75 0.594 0.688 0.844c0.035-0.476 0.031-0.961 0.063-1.438m-408.53 37.25c-1.758 0-3.263 0.323-4.5 1-1.237 0.664-2.25 1.643-3.03 2.906-0.781 1.263-1.354 2.802-1.719 4.625-0.352 1.823-0.531 3.883-0.531 6.188s0.203 4.346 0.594 6.156c0.404 1.81 1.01 3.362 1.813 4.625 0.807 1.263 1.839 2.211 3.063 2.875s2.659 1 4.313 1c1.758 0 3.263-0.336 4.5-1 1.25-0.664 2.25-1.612 3.03-2.875 0.794-1.263 1.367-2.815 1.719-4.625 0.365-1.81 0.562-3.852 0.563-6.156 0-2.318-0.221-4.396-0.625-6.219s-0.992-3.362-1.813-4.625c-0.82-1.263-1.87-2.211-3.094-2.875s-2.641-1-4.281-1m34.563 0c-1.758 0-3.263 0.323-4.5 1-1.237 0.664-2.219 1.643-3 2.906s-1.354 2.802-1.719 4.625c-0.352 1.823-0.531 3.883-0.531 6.188s0.172 4.346 0.563 6.156c0.404 1.81 1.036 3.362 1.844 4.625 0.807 1.263 1.807 2.211 3.03 2.875 1.224 0.664 2.659 1 4.313 1 1.758 0 3.263-0.336 4.5-1 1.25-0.664 2.25-1.612 3.03-2.875 0.794-1.263 1.367-2.815 1.719-4.625 0.365-1.81 0.562-3.852 0.563-6.156 0-2.318-0.19-4.396-0.594-6.219s-1.023-3.362-1.844-4.625c-0.82-1.263-1.839-2.211-3.063-2.875s-2.672-1-4.313-1m34.563 0c-1.758 0-3.232 0.323-4.469 1-1.237 0.664-2.25 1.643-3.03 2.906-0.781 1.263-1.354 2.802-1.719 4.625-0.352 1.823-0.531 3.883-0.531 6.188s0.203 4.346 0.594 6.156c0.404 1.81 1.01 3.362 1.813 4.625 0.807 1.263 1.807 2.211 3.03 2.875 1.224 0.664 2.659 1 4.313 1 1.758 0 3.263-0.336 4.5-1 1.25-0.664 2.281-1.612 3.063-2.875 0.794-1.263 1.367-2.815 1.719-4.625 0.365-1.81 0.531-3.852 0.531-6.156 0-2.318-0.19-4.396-0.594-6.219s-1.023-3.362-1.844-4.625c-0.82-1.263-1.839-2.211-3.063-2.875s-2.672-1-4.313-1m34.594 0c-1.758 0-3.263 0.323-4.5 1-1.237 0.664-2.25 1.643-3.03 2.906-0.781 1.263-1.354 2.802-1.719 4.625-0.351 1.823-0.531 3.883-0.531 6.188s0.203 4.346 0.594 6.156c0.404 1.81 1.01 3.362 1.813 4.625 0.807 1.263 1.839 2.211 3.063 2.875s2.659 1 4.313 1c1.758 0 3.232-0.336 4.469-1 1.25-0.664 2.281-1.612 3.063-2.875 0.794-1.263 1.367-2.815 1.719-4.625 0.365-1.81 0.531-3.852 0.531-6.156 0-2.318-0.19-4.396-0.594-6.219s-1.023-3.362-1.844-4.625c-0.82-1.263-1.839-2.211-3.063-2.875s-2.641-1-4.281-1m34.563 0c-1.758 0-3.263 0.323-4.5 1-1.237 0.664-2.25 1.643-3.03 2.906-0.781 1.263-1.354 2.802-1.719 4.625-0.352 1.823-0.531 3.883-0.531 6.188s0.203 4.346 0.594 6.156c0.404 1.81 1.01 3.362 1.813 4.625 0.807 1.263 1.839 2.211 3.063 2.875s2.659 1 4.313 1c1.758 0 3.263-0.336 4.5-1 1.25-0.664 2.25-1.612 3.03-2.875 0.794-1.263 1.367-2.815 1.719-4.625 0.364-1.81 0.563-3.852 0.563-6.156 0-2.318-0.221-4.396-0.625-6.219s-0.992-3.362-1.813-4.625-1.87-2.211-3.094-2.875-2.641-1-4.281-1m34.563 0c-1.758 0-3.263 0.323-4.5 1-1.237 0.664-2.219 1.643-3 2.906s-1.354 2.802-1.719 4.625c-0.352 1.823-0.531 3.883-0.531 6.188s0.172 4.346 0.563 6.156c0.404 1.81 1.036 3.362 1.844 4.625 0.807 1.263 1.807 2.211 3.03 2.875 1.224 0.664 2.659 1 4.313 1 1.758 0 3.263-0.336 4.5-1 1.25-0.664 2.25-1.612 3.03-2.875 0.794-1.263 1.367-2.815 1.719-4.625 0.365-1.81 0.562-3.852 0.563-6.156 0-2.318-0.19-4.396-0.594-6.219s-1.023-3.362-1.844-4.625c-0.82-1.263-1.839-2.211-3.063-2.875s-2.672-1-4.313-1m34.563 0c-1.758 0-3.232 0.323-4.469 1-1.237 0.664-2.25 1.643-3.03 2.906-0.781 1.263-1.354 2.802-1.719 4.625-0.352 1.823-0.531 3.883-0.531 6.188s0.203 4.346 0.594 6.156c0.404 1.81 1.01 3.362 1.813 4.625 0.807 1.263 1.807 2.211 3.03 2.875 1.224 0.664 2.659 1 4.313 1 1.758 0 3.263-0.336 4.5-1 1.25-0.664 2.281-1.612 3.063-2.875 0.794-1.263 1.367-2.815 1.719-4.625 0.365-1.81 0.531-3.852 0.531-6.156 0-2.318-0.19-4.396-0.594-6.219s-1.024-3.362-1.844-4.625-1.838-2.211-3.063-2.875c-1.224-0.664-2.672-1-4.313-1m34.594 0c-1.758 0-3.263 0.323-4.5 1-1.237 0.664-2.25 1.643-3.03 2.906-0.781 1.263-1.354 2.802-1.719 4.625-0.352 1.823-0.531 3.883-0.531 6.188s0.203 4.346 0.594 6.156c0.404 1.81 1.01 3.362 1.813 4.625 0.807 1.263 1.839 2.211 3.063 2.875s2.659 1 4.313 1c1.758 0 3.232-0.336 4.469-1 1.25-0.664 2.281-1.612 3.063-2.875 0.794-1.263 1.367-2.815 1.719-4.625 0.365-1.81 0.531-3.852 0.531-6.156 0-2.318-0.19-4.396-0.594-6.219s-1.023-3.362-1.844-4.625c-0.82-1.263-1.839-2.211-3.063-2.875s-2.641-1-4.281-1m69.13 0c-1.758 0-3.263 0.323-4.5 1-1.237 0.664-2.219 1.643-3 2.906s-1.354 2.802-1.719 4.625c-0.352 1.823-0.531 3.883-0.531 6.188s0.172 4.346 0.563 6.156c0.404 1.81 1.036 3.362 1.844 4.625 0.807 1.263 1.807 2.211 3.03 2.875 1.224 0.664 2.659 1 4.313 1 1.758 0 3.263-0.336 4.5-1 1.25-0.664 2.25-1.612 3.03-2.875 0.794-1.263 1.367-2.815 1.719-4.625 0.365-1.81 0.563-3.852 0.563-6.156 0-2.318-0.19-4.396-0.594-6.219s-1.023-3.362-1.844-4.625c-0.82-1.263-1.839-2.211-3.063-2.875s-2.672-1-4.313-1m34.563 0c-1.758 0-3.232 0.323-4.469 1-1.237 0.664-2.25 1.643-3.03 2.906-0.781 1.263-1.354 2.802-1.719 4.625-0.351 1.823-0.531 3.883-0.531 6.188s0.203 4.346 0.594 6.156c0.404 1.81 1.01 3.362 1.813 4.625 0.807 1.263 1.807 2.211 3.03 2.875 1.224 0.664 2.659 1 4.313 1 1.758 0 3.263-0.336 4.5-1 1.25-0.664 2.281-1.612 3.063-2.875 0.794-1.263 1.367-2.815 1.719-4.625 0.365-1.81 0.531-3.852 0.531-6.156 0-2.318-0.19-4.396-0.594-6.219s-1.023-3.362-1.844-4.625c-0.82-1.263-1.839-2.211-3.063-2.875s-2.672-1-4.313-1m-67 0.406-9.188 7.344 2.938 3.625 3.281-2.656c0.195-0.156 0.385-0.305 0.594-0.5 0.208-0.195 0.43-0.411 0.625-0.594l0.5-0.5c0.156-0.156 0.278-0.297 0.344-0.375-0.013 0.43-0.036 0.917-0.063 1.438-0.013 0.521-0.038 1.042-0.063 1.563-0.013 0.508-0.018 0.987-0.031 1.469v17.75h6.03v-28.563h-4.969m103.72 0-9.188 7.344 2.938 3.625 3.281-2.656c0.195-0.156 0.385-0.305 0.594-0.5 0.208-0.195 0.398-0.411 0.594-0.594l0.531-0.5c0.156-0.156 0.279-0.297 0.344-0.375-0.013 0.43-0.036 0.917-0.063 1.438-0.013 0.521-0.036 1.042-0.063 1.563-0.013 0.508-0.018 0.987-0.031 1.469v17.75h6.03v-28.563h-4.969m-382.41 4.469c1.354 0 2.32 0.815 2.906 2.469 0.599 1.641 0.906 4.107 0.906 7.375 0 3.281-0.307 5.747-0.906 7.375-0.586 1.628-1.552 2.438-2.906 2.438-1.38 0-2.346-0.828-2.906-2.469s-0.844-4.089-0.844-7.344c0-1.628 0.057-3.057 0.188-4.281 0.13-1.237 0.357-2.273 0.656-3.094 0.299-0.82 0.687-1.427 1.156-1.844 0.482-0.417 1.06-0.625 1.75-0.625m34.563 0c1.354 0 2.32 0.815 2.906 2.469 0.599 1.641 0.906 4.107 0.906 7.375 0 3.281-0.307 5.747-0.906 7.375-0.586 1.628-1.552 2.438-2.906 2.438-1.38 0-2.346-0.828-2.906-2.469s-0.844-4.089-0.844-7.344c0-1.628 0.057-3.057 0.188-4.281 0.13-1.237 0.357-2.273 0.656-3.094 0.299-0.82 0.687-1.427 1.156-1.844 0.482-0.417 1.06-0.625 1.75-0.625m34.563 0c1.354 0 2.351 0.815 2.938 2.469 0.599 1.641 0.875 4.107 0.875 7.375 0 3.281-0.276 5.747-0.875 7.375-0.586 1.628-1.583 2.438-2.938 2.438-1.38 0-2.346-0.828-2.906-2.469s-0.844-4.089-0.844-7.344c0-1.628 0.089-3.057 0.219-4.281 0.13-1.237 0.326-2.273 0.625-3.094 0.299-0.82 0.687-1.427 1.156-1.844 0.482-0.417 1.06-0.625 1.75-0.625m34.594 0c1.354 0 2.32 0.815 2.906 2.469 0.599 1.641 0.906 4.107 0.906 7.375 0 3.281-0.307 5.747-0.906 7.375-0.586 1.628-1.552 2.438-2.906 2.438-1.38 0-2.346-0.828-2.906-2.469s-0.844-4.089-0.844-7.344c0-1.628 0.057-3.057 0.188-4.281 0.13-1.237 0.357-2.273 0.656-3.094 0.299-0.82 0.656-1.427 1.125-1.844 0.482-0.417 1.091-0.625 1.781-0.625m34.563 0c1.354 0 2.32 0.815 2.906 2.469 0.599 1.641 0.906 4.107 0.906 7.375 0 3.281-0.307 5.747-0.906 7.375-0.586 1.628-1.552 2.438-2.906 2.438-1.38 0-2.346-0.828-2.906-2.469s-0.844-4.089-0.844-7.344c0-1.628 0.057-3.057 0.188-4.281 0.13-1.237 0.357-2.273 0.656-3.094 0.299-0.82 0.687-1.427 1.156-1.844 0.482-0.417 1.06-0.625 1.75-0.625m34.563 0c1.354 0 2.32 0.815 2.906 2.469 0.599 1.641 0.906 4.107 0.906 7.375 0 3.281-0.307 5.747-0.906 7.375-0.586 1.628-1.552 2.438-2.906 2.438-1.38 0-2.346-0.828-2.906-2.469s-0.844-4.089-0.844-7.344c0-1.628 0.057-3.057 0.188-4.281 0.13-1.237 0.357-2.273 0.656-3.094 0.299-0.82 0.688-1.427 1.156-1.844 0.482-0.417 1.06-0.625 1.75-0.625m34.563 0c1.354 0 2.352 0.815 2.938 2.469 0.599 1.641 0.875 4.107 0.875 7.375 0 3.281-0.276 5.747-0.875 7.375-0.586 1.628-1.583 2.438-2.938 2.438-1.38 0-2.346-0.828-2.906-2.469s-0.844-4.089-0.844-7.344c0-1.628 0.088-3.057 0.219-4.281 0.13-1.237 0.325-2.273 0.625-3.094 0.3-0.82 0.687-1.427 1.156-1.844 0.482-0.417 1.06-0.625 1.75-0.625m34.594 0c1.354 0 2.32 0.815 2.906 2.469 0.599 1.641 0.906 4.107 0.906 7.375 0 3.281-0.307 5.747-0.906 7.375-0.586 1.628-1.552 2.438-2.906 2.438-1.38 0-2.346-0.828-2.906-2.469s-0.844-4.089-0.844-7.344c0-1.628 0.057-3.057 0.188-4.281 0.13-1.237 0.357-2.273 0.656-3.094 0.3-0.82 0.656-1.427 1.125-1.844 0.482-0.417 1.091-0.625 1.781-0.625m69.13 0c1.354 0 2.32 0.815 2.906 2.469 0.599 1.641 0.906 4.107 0.906 7.375 0 3.281-0.307 5.747-0.906 7.375-0.586 1.628-1.552 2.438-2.906 2.438-1.38 0-2.346-0.828-2.906-2.469s-0.844-4.089-0.844-7.344c0-1.628 0.057-3.057 0.188-4.281 0.13-1.237 0.357-2.273 0.656-3.094 0.3-0.82 0.687-1.427 1.156-1.844 0.482-0.417 1.06-0.625 1.75-0.625m34.563 0c1.354 0 2.351 0.815 2.938 2.469 0.599 1.641 0.875 4.107 0.875 7.375 0 3.281-0.276 5.747-0.875 7.375-0.586 1.628-1.583 2.438-2.938 2.438-1.38 0-2.347-0.828-2.906-2.469-0.56-1.641-0.844-4.089-0.844-7.344 0-1.628 0.088-3.057 0.219-4.281 0.13-1.237 0.325-2.273 0.625-3.094 0.299-0.82 0.687-1.427 1.156-1.844 0.482-0.417 1.06-0.625 1.75-0.625m-207.41 39.5c-1.758 0-3.263 0.354-4.5 1.031-1.237 0.664-2.25 1.612-3.03 2.875-0.781 1.263-1.354 2.802-1.719 4.625-0.352 1.823-0.531 3.914-0.531 6.219s0.203 4.346 0.594 6.156c0.404 1.81 1.01 3.362 1.813 4.625 0.807 1.263 1.839 2.211 3.063 2.875s2.659 1 4.313 1c1.758 0 3.263-0.336 4.5-1 1.25-0.664 2.25-1.612 3.03-2.875 0.794-1.263 1.367-2.815 1.719-4.625 0.364-1.81 0.563-3.852 0.563-6.156 0-2.318-0.221-4.396-0.625-6.219s-0.992-3.362-1.813-4.625-1.87-2.242-3.094-2.906-2.641-1-4.281-1m103.72 0c-1.758 0-3.263 0.354-4.5 1.031-1.237 0.664-2.25 1.612-3.03 2.875-0.781 1.263-1.354 2.802-1.719 4.625-0.352 1.823-0.531 3.914-0.531 6.219s0.203 4.346 0.594 6.156c0.404 1.81 1.01 3.362 1.813 4.625 0.807 1.263 1.839 2.211 3.063 2.875s2.659 1 4.313 1c1.758 0 3.232-0.336 4.469-1 1.25-0.664 2.281-1.612 3.063-2.875 0.794-1.263 1.367-2.815 1.719-4.625 0.365-1.81 0.531-3.852 0.531-6.156 0-2.318-0.19-4.396-0.594-6.219s-1.023-3.362-1.844-4.625c-0.82-1.263-1.839-2.242-3.063-2.906s-2.641-1-4.281-1m103.69 0c-1.758 0-3.232 0.354-4.469 1.031-1.237 0.664-2.25 1.612-3.03 2.875-0.781 1.263-1.354 2.802-1.719 4.625-0.351 1.823-0.531 3.914-0.531 6.219s0.203 4.346 0.594 6.156c0.404 1.81 1.01 3.362 1.813 4.625 0.807 1.263 1.807 2.211 3.03 2.875 1.224 0.664 2.659 1 4.313 1 1.758 0 3.263-0.336 4.5-1 1.25-0.664 2.281-1.612 3.063-2.875 0.794-1.263 1.367-2.815 1.719-4.625 0.365-1.81 0.531-3.852 0.531-6.156 0-2.318-0.19-4.396-0.594-6.219s-1.023-3.362-1.844-4.625c-0.82-1.263-1.839-2.242-3.063-2.906s-2.672-1-4.313-1m-343.56 0.438-5.969 4.75c0.732 1.395 1.489 2.779 2.25 4.156l0.75-0.594c0.195-0.156 0.385-0.336 0.594-0.531 0.208-0.195 0.43-0.38 0.625-0.563l0.5-0.531c0.156-0.156 0.279-0.266 0.344-0.344-0.013 0.43-0.037 0.917-0.063 1.438-0.013 0.521-0.037 1.042-0.063 1.563-0.013 0.508-0.018 0.987-0.031 1.469v2.782c1.932 3.305 3.933 6.559 6.03 9.75v-23.344h-4.969m34.594 0-9.219 7.313 2.938 3.625 3.281-2.625c0.195-0.156 0.385-0.336 0.594-0.531 0.208-0.195 0.43-0.38 0.625-0.563l0.531-0.531c0.156-0.156 0.247-0.266 0.313-0.344-0.013 0.43-0.037 0.917-0.063 1.438-0.013 0.521-0.005 1.042-0.031 1.563-0.013 0.508-0.049 0.987-0.063 1.469v17.75h6.03v-28.563h-4.938m34.563 0-9.188 7.313 2.906 3.625 3.281-2.625c0.195-0.156 0.417-0.336 0.625-0.531s0.398-0.38 0.594-0.563l0.531-0.531c0.156-0.156 0.279-0.266 0.344-0.344-0.013 0.43-0.036 0.917-0.063 1.438-0.013 0.521-0.036 1.042-0.063 1.563-0.013 0.508-0.018 0.987-0.031 1.469v17.75h6.03v-28.563h-4.969m34.563 0-9.188 7.313 2.938 3.625 3.281-2.625c0.195-0.156 0.385-0.336 0.594-0.531 0.208-0.195 0.398-0.38 0.594-0.563l0.531-0.531c0.156-0.156 0.279-0.266 0.344-0.344-0.013 0.43-0.036 0.917-0.063 1.438-0.013 0.521-0.036 1.042-0.063 1.563-0.013 0.508-0.018 0.987-0.031 1.469v17.75h6.03v-28.563h-4.969m69.16 0-9.219 7.313 2.938 3.625 3.281-2.625c0.195-0.156 0.386-0.336 0.594-0.531s0.43-0.38 0.625-0.563l0.531-0.531c0.156-0.156 0.247-0.266 0.313-0.344-0.013 0.43-0.036 0.917-0.063 1.438-0.013 0.521-0.01 1.042-0.031 1.563-0.013 0.508-0.05 0.987-0.063 1.469v17.75h6.03v-28.563h-4.938m34.563 0-9.188 7.313 2.906 3.625 3.281-2.625c0.195-0.156 0.417-0.336 0.625-0.531s0.398-0.38 0.594-0.563l0.531-0.531c0.156-0.156 0.278-0.266 0.344-0.344-0.013 0.43-0.036 0.917-0.063 1.438-0.013 0.521-0.038 1.042-0.063 1.563-0.013 0.508-0.018 0.987-0.031 1.469v17.75h6.03v-28.563h-4.969m69.13 0-9.188 7.313 2.938 3.625 3.281-2.625c0.195-0.156 0.385-0.336 0.594-0.531 0.208-0.195 0.43-0.38 0.625-0.563l0.5-0.531c0.156-0.156 0.278-0.266 0.344-0.344-0.013 0.43-0.036 0.917-0.063 1.438-0.013 0.521-0.038 1.042-0.063 1.563-0.013 0.508-0.018 0.987-0.031 1.469v17.75h6.03v-28.563h-4.969m34.594 0-9.219 7.313 2.938 3.625 3.281-2.625c0.195-0.156 0.385-0.336 0.594-0.531 0.208-0.195 0.43-0.38 0.625-0.563l0.531-0.531c0.156-0.156 0.248-0.266 0.313-0.344-0.013 0.43-0.038 0.917-0.063 1.438-0.013 0.521-0.01 1.042-0.031 1.563-0.013 0.508-0.05 0.987-0.063 1.469v17.75h6.03v-28.81h-4.938m69.13 0-9.188 7.313 2.938 3.625 3.281-2.625c0.195-0.156 0.385-0.336 0.594-0.531 0.208-0.195 0.398-0.38 0.594-0.563l0.531-0.531c0.156-0.156 0.279-0.266 0.344-0.344-0.013 0.43-0.036 0.917-0.063 1.438-0.013 0.521-0.036 1.042-0.063 1.563-0.004 0.173 0.003 0.333 0 0.5 1.807-3.235 3.543-6.51 5.188-9.844h-4.156m-244.12 4.469c1.354 0 2.32 0.815 2.906 2.469 0.599 1.641 0.906 4.107 0.906 7.375 0 3.281-0.307 5.716-0.906 7.344-0.586 1.628-1.552 2.438-2.906 2.438-1.38 0-2.346-0.797-2.906-2.438s-0.844-4.089-0.844-7.344c0-1.628 0.057-3.057 0.188-4.281 0.13-1.237 0.357-2.273 0.656-3.094 0.299-0.82 0.687-1.427 1.156-1.844 0.482-0.417 1.06-0.625 1.75-0.625m103.72 0c1.354 0 2.32 0.815 2.906 2.469 0.599 1.641 0.906 4.107 0.906 7.375 0 3.281-0.307 5.716-0.906 7.344-0.586 1.628-1.552 2.438-2.906 2.438-1.38 0-2.346-0.797-2.906-2.438s-0.844-4.089-0.844-7.344c0-1.628 0.057-3.057 0.188-4.281 0.13-1.237 0.357-2.273 0.656-3.094 0.3-0.82 0.656-1.427 1.125-1.844 0.482-0.417 1.091-0.625 1.781-0.625m103.69 0c1.354 0 2.351 0.815 2.938 2.469 0.599 1.641 0.875 4.107 0.875 7.375 0 3.281-0.276 5.716-0.875 7.344-0.586 1.628-1.583 2.438-2.938 2.438-1.38 0-2.347-0.797-2.906-2.438-0.56-1.641-0.844-4.089-0.844-7.344 0-1.628 0.088-3.057 0.219-4.281 0.13-1.237 0.325-2.273 0.625-3.094 0.299-0.82 0.687-1.427 1.156-1.844 0.482-0.417 1.06-0.625 1.75-0.625m-311.12 39.5c-1.758 0-3.263 0.323-4.5 1-1.237 0.664-2.219 1.643-3 2.906-0.164 0.266-0.323 0.554-0.469 0.844 1.487 1.67 2.995 3.314 4.531 4.938 0.134-0.883 0.298-1.675 0.531-2.313 0.299-0.82 0.687-1.458 1.156-1.875 0.482-0.417 1.06-0.625 1.75-0.625 1.354 0 2.32 0.846 2.906 2.5 0.599 1.641 0.906 4.076 0.906 7.344 0 0.809-0.025 1.54-0.063 2.25 1.723 1.66 3.473 3.303 5.25 4.906 0.083-0.323 0.183-0.626 0.25-0.969 0.365-1.81 0.562-3.883 0.563-6.188 0-2.318-0.19-4.396-0.594-6.219s-1.023-3.362-1.844-4.625c-0.82-1.263-1.839-2.211-3.063-2.875s-2.672-1-4.313-1m138.28 0c-1.758 0-3.263 0.323-4.5 1-1.237 0.664-2.219 1.643-3 2.906s-1.354 2.802-1.719 4.625c-0.352 1.823-0.531 3.883-0.531 6.188s0.172 4.378 0.563 6.188c0.404 1.81 1.036 3.331 1.844 4.594 0.807 1.263 1.807 2.242 3.03 2.906 1.224 0.664 2.659 1 4.313 1 1.758 0 3.263-0.336 4.5-1 1.25-0.664 2.25-1.643 3.03-2.906 0.794-1.263 1.367-2.784 1.719-4.594 0.365-1.81 0.562-3.883 0.563-6.188 0-2.318-0.19-4.396-0.594-6.219s-1.023-3.362-1.844-4.625c-0.82-1.263-1.839-2.211-3.063-2.875s-2.672-1-4.313-1m34.563 0c-1.758 0-3.232 0.323-4.469 1-1.237 0.664-2.25 1.643-3.03 2.906-0.781 1.263-1.354 2.802-1.719 4.625-0.352 1.823-0.531 3.883-0.531 6.188s0.203 4.378 0.594 6.188c0.404 1.81 1.01 3.331 1.813 4.594 0.807 1.263 1.807 2.242 3.03 2.906 1.224 0.664 2.659 1 4.313 1 1.758 0 3.263-0.336 4.5-1 1.25-0.664 2.281-1.643 3.063-2.906 0.794-1.263 1.367-2.784 1.719-4.594 0.365-1.81 0.531-3.883 0.531-6.188 0-2.318-0.19-4.396-0.594-6.219s-1.024-3.362-1.844-4.625-1.838-2.211-3.063-2.875c-1.224-0.664-2.672-1-4.313-1m138.28 0c-1.758 0-3.232 0.323-4.469 1-1.237 0.664-2.25 1.643-3.03 2.906-0.781 1.263-1.354 2.802-1.719 4.625-0.351 1.823-0.531 3.883-0.531 6.188s0.203 4.378 0.594 6.188c0.074 0.33 0.132 0.626 0.219 0.938 1.766-1.594 3.506-3.225 5.219-4.875-0.034-0.704-0.031-1.447-0.031-2.25 0-1.628 0.088-3.057 0.219-4.281 0.13-1.237 0.325-2.242 0.625-3.063 0.299-0.82 0.687-1.458 1.156-1.875 0.482-0.417 1.06-0.625 1.75-0.625 1.354 0 2.351 0.846 2.938 2.5 0.236 0.645 0.393 1.45 0.531 2.344 1.509-1.594 3.01-3.205 4.469-4.844-0.18-0.35-0.357-0.684-0.563-1-0.82-1.263-1.839-2.211-3.063-2.875s-2.672-1-4.313-1m-274.41 0.406-9.188 7.344 2.906 3.625 3.281-2.625c0.195-0.156 0.417-0.336 0.625-0.531s0.398-0.38 0.594-0.563l0.531-0.531c0.156-0.156 0.279-0.266 0.344-0.344-0.013 0.43-0.036 0.885-0.063 1.406-0.013 0.521-0.036 1.042-0.063 1.563-0.013 0.508-0.018 1.018-0.031 1.5v17.719h6.03v-28.563h-4.969m34.563 0-9.188 7.344 2.938 3.625 3.281-2.625c0.195-0.156 0.385-0.336 0.594-0.531 0.208-0.195 0.398-0.38 0.594-0.563l0.531-0.531c0.156-0.156 0.279-0.266 0.344-0.344-0.013 0.43-0.036 0.885-0.063 1.406-0.013 0.521-0.036 1.042-0.063 1.563-0.013 0.508-0.018 1.018-0.031 1.5v17.719h6.03v-28.563h-4.969m34.563 0-9.188 7.344 2.938 3.625 3.281-2.625c0.195-0.156 0.385-0.336 0.594-0.531 0.208-0.195 0.429-0.38 0.625-0.563l0.5-0.531c0.156-0.156 0.279-0.266 0.344-0.344-0.013 0.43-0.036 0.885-0.063 1.406-0.013 0.521-0.036 1.042-0.063 1.563-0.013 0.508-0.018 1.018-0.031 1.5v17.719h6.03v-28.563h-4.969m103.72 0-9.188 7.344 2.938 3.625 3.281-2.625c0.195-0.156 0.385-0.336 0.594-0.531 0.208-0.195 0.399-0.38 0.594-0.563l0.531-0.531c0.156-0.156 0.279-0.266 0.344-0.344-0.013 0.43-0.038 0.885-0.063 1.406-0.013 0.521-0.036 1.042-0.063 1.563-0.013 0.508-0.018 1.018-0.031 1.5v17.719h6.03v-28.563h-4.969m34.563 0-9.188 7.344 2.938 3.625 3.281-2.625c0.195-0.156 0.385-0.336 0.594-0.531 0.208-0.195 0.43-0.38 0.625-0.563l0.5-0.531c0.156-0.156 0.278-0.266 0.344-0.344-0.013 0.43-0.036 0.885-0.063 1.406-0.013 0.521-0.038 1.042-0.063 1.563-0.013 0.508-0.018 1.018-0.031 1.5v17.719h6.03v-28.563h-4.969m34.594 0-9.219 7.344 2.938 3.625 3.281-2.625c0.195-0.156 0.385-0.336 0.594-0.531 0.208-0.195 0.43-0.38 0.625-0.563l0.531-0.531c0.156-0.156 0.248-0.266 0.313-0.344-0.013 0.43-0.038 0.885-0.063 1.406-0.013 0.521-0.01 1.042-0.031 1.563-0.013 0.508-0.05 1.018-0.063 1.5v17.719h6.03v-28.563h-4.938m-140.44 4.469c1.354 0 2.32 0.846 2.906 2.5 0.599 1.641 0.906 4.076 0.906 7.344 0 3.281-0.307 5.747-0.906 7.375-0.586 1.628-1.552 2.438-2.906 2.438-1.38 0-2.346-0.828-2.906-2.469s-0.844-4.089-0.844-7.344c0-1.628 0.057-3.057 0.188-4.281 0.13-1.237 0.357-2.242 0.656-3.063 0.299-0.82 0.688-1.458 1.156-1.875 0.482-0.417 1.06-0.625 1.75-0.625m34.563 0c1.354 0 2.352 0.846 2.938 2.5 0.599 1.641 0.875 4.076 0.875 7.344 0 3.281-0.276 5.747-0.875 7.375-0.586 1.628-1.583 2.438-2.938 2.438-1.38 0-2.346-0.828-2.906-2.469s-0.844-4.089-0.844-7.344c0-1.628 0.088-3.057 0.219-4.281 0.13-1.237 0.325-2.242 0.625-3.063 0.3-0.82 0.687-1.458 1.156-1.875 0.482-0.417 1.06-0.625 1.75-0.625m-103.69 39.531c-1.758 0-3.263 0.323-4.5 1-1.237 0.664-2.25 1.643-3.03 2.906-0.781 1.263-1.354 2.802-1.719 4.625-0.186 0.965-0.318 1.995-0.406 3.094 1.958 0.958 3.916 1.912 5.906 2.813 0.007-1.506 0.065-2.85 0.188-4 0.13-1.237 0.357-2.273 0.656-3.094 0.299-0.82 0.656-1.427 1.125-1.844 0.482-0.417 1.091-0.625 1.781-0.625 1.354 0 2.32 0.815 2.906 2.469 0.599 1.641 0.906 4.107 0.906 7.375 0 1.077-0.059 2.01-0.125 2.906 1.892 0.773 3.801 1.498 5.719 2.219 0.239-1.549 0.375-3.243 0.375-5.125 0-2.318-0.19-4.396-0.594-6.219s-1.023-3.362-1.844-4.625c-0.82-1.263-1.839-2.242-3.063-2.906s-2.641-0.969-4.281-0.969m34.563 0c-1.758 0-3.263 0.323-4.5 1-1.237 0.664-2.25 1.643-3.03 2.906-0.781 1.263-1.354 2.802-1.719 4.625-0.352 1.823-0.531 3.883-0.531 6.188s0.203 4.346 0.594 6.156c0.404 1.81 1.01 3.362 1.813 4.625 0.05 0.079 0.104 0.142 0.156 0.219 3.73 1.043 7.504 1.996 11.313 2.844 0.132-0.061 0.28-0.119 0.406-0.188 1.25-0.664 2.25-1.612 3.03-2.875 0.794-1.263 1.367-2.815 1.719-4.625 0.364-1.81 0.563-3.852 0.563-6.156 0-2.318-0.221-4.396-0.625-6.219s-0.992-3.362-1.813-4.625-1.87-2.242-3.094-2.906-2.641-0.969-4.281-0.969m34.563 0c-1.758 0-3.263 0.323-4.5 1-1.237 0.664-2.219 1.643-3 2.906s-1.354 2.802-1.719 4.625c-0.352 1.823-0.531 3.883-0.531 6.188s0.172 4.346 0.563 6.156c0.404 1.81 1.036 3.362 1.844 4.625 0.807 1.263 1.807 2.211 3.03 2.875 1.224 0.664 2.659 1 4.313 1 1.758 0 3.263-0.336 4.5-1 1.25-0.664 2.25-1.612 3.03-2.875 0.794-1.263 1.367-2.815 1.719-4.625 0.365-1.81 0.562-3.852 0.563-6.156 0-2.318-0.19-4.396-0.594-6.219s-1.023-3.362-1.844-4.625c-0.82-1.263-1.839-2.242-3.063-2.906s-2.672-0.969-4.313-0.969m69.16 0c-1.758 0-3.263 0.323-4.5 1-1.237 0.664-2.25 1.643-3.03 2.906-0.781 1.263-1.354 2.802-1.719 4.625-0.352 1.823-0.531 3.883-0.531 6.188s0.203 4.346 0.594 6.156c0.404 1.81 1.01 3.362 1.813 4.625 0.807 1.263 1.839 2.211 3.063 2.875 0.103 0.056 0.206 0.105 0.313 0.156 3.837-0.856 7.648-1.789 11.406-2.844 0.041-0.063 0.085-0.123 0.125-0.188 0.794-1.263 1.367-2.815 1.719-4.625 0.365-1.81 0.531-3.852 0.531-6.156 0-2.318-0.19-4.396-0.594-6.219s-1.023-3.362-1.844-4.625c-0.82-1.263-1.839-2.242-3.063-2.906s-2.641-0.969-4.281-0.969m-168.09 0.406c0.783 0.492 1.554 0.987 2.344 1.469v-1.469h-2.344m135.66 0-9.188 7.313 2.906 3.656 3.281-2.656c0.195-0.156 0.417-0.336 0.625-0.531s0.398-0.38 0.594-0.563l0.531-0.531c0.156-0.156 0.278-0.266 0.344-0.344-0.013 0.43-0.036 0.917-0.063 1.438-0.013 0.521-0.038 1.042-0.063 1.563-0.013 0.508-0.018 0.987-0.031 1.469v17.75h6.03v-28.563h-4.969m69.13 0-9.188 7.313 2.938 3.656 3.281-2.656c0.195-0.156 0.385-0.336 0.594-0.531 0.208-0.195 0.43-0.38 0.625-0.563l0.5-0.531c0.156-0.156 0.278-0.266 0.344-0.344-0.013 0.43-0.036 0.917-0.063 1.438-0.013 0.521-0.038 1.042-0.063 1.563-0.013 0.508-0.018 0.987-0.031 1.469v4.375c2.026-0.884 4.04-1.776 6.03-2.719v-12.469h-4.969m-140.41 4.469c1.354 0 2.32 0.815 2.906 2.469 0.599 1.641 0.906 4.107 0.906 7.375 0 3.281-0.307 5.716-0.906 7.344-0.586 1.628-1.552 2.469-2.906 2.469-1.38 0-2.346-0.828-2.906-2.469s-0.844-4.089-0.844-7.344c0-1.628 0.057-3.057 0.188-4.281 0.13-1.237 0.357-2.273 0.656-3.094 0.299-0.82 0.687-1.427 1.156-1.844 0.482-0.417 1.06-0.625 1.75-0.625m34.563 0c1.354 0 2.32 0.815 2.906 2.469 0.599 1.641 0.906 4.107 0.906 7.375 0 3.281-0.307 5.716-0.906 7.344-0.586 1.628-1.552 2.469-2.906 2.469-1.38 0-2.346-0.828-2.906-2.469s-0.844-4.089-0.844-7.344c0-1.628 0.057-3.057 0.188-4.281 0.13-1.237 0.357-2.273 0.656-3.094 0.299-0.82 0.688-1.427 1.156-1.844 0.482-0.417 1.06-0.625 1.75-0.625m69.16 0c1.354 0 2.32 0.815 2.906 2.469 0.599 1.641 0.906 4.107 0.906 7.375 0 3.281-0.307 5.716-0.906 7.344-0.586 1.628-1.552 2.469-2.906 2.469-1.38 0-2.346-0.828-2.906-2.469s-0.844-4.089-0.844-7.344c0-1.628 0.057-3.057 0.188-4.281 0.13-1.237 0.357-2.273 0.656-3.094 0.3-0.82 0.656-1.427 1.125-1.844 0.482-0.417 1.091-0.625 1.781-0.625" fill="#ffffff" id="path162"/>
 <g fill-rule="evenodd" id="g164">
  <path fill-opacity="0.235" d="m252.56 105.69c-72.04 0.287-137.95 59.39-145.62 131.19-7.337 50.96 15.03 102.8 53.5 136.09 33.02 32.891 65.918 65.89 98.84 98.88 115.91-3.247 209.28-96.59 212.56-212.5-39.42-39.587-78.8-79.23-118.87-118.12-26.788-22.824-61.769-35.649-96.97-35.5-1.146-0.025-2.294-0.036-3.438-0.031" id="path166"/>
  <path fill-opacity="0.067" d="m256 1c-140.83 0-255 114.17-255 255s114.17 255 255 255 255-114.17 255-255-114.17-255-255-255m8.827 44.931c120.9 0 218.9 98 218.9 218.9s-98 218.9-218.9 218.9-218.93-98-218.93-218.9 98.03-218.9 218.93-218.9" id="path168"/>
  <g fill-opacity="0.129" id="g170">
   <path d="m256 4.433c-138.94 0-251.57 112.63-251.57 251.57s112.63 251.57 251.57 251.57 251.57-112.63 251.57-251.57-112.63-251.57-251.57-251.57m5.885 38.556c120.9 0 218.9 98 218.9 218.9s-98 218.9-218.9 218.9-218.93-98-218.93-218.9 98.03-218.9 218.93-218.9" id="path172"/>
   <path d="m256 8.356c-136.77 0-247.64 110.87-247.64 247.64s110.87 247.64 247.64 247.64 247.64-110.87 247.64-247.64-110.87-247.64-247.64-247.64m2.942 31.691c120.9 0 218.9 98 218.9 218.9s-98 218.9-218.9 218.9-218.93-98-218.93-218.9 98.03-218.9 218.93-218.9" id="path174"/>
  </g>
  <path fill="#ffffff" stroke-width="4.904" stroke="#000000" stroke-opacity="0.31" d="m253.04 7.859c-135.42 0-245.19 109.78-245.19 245.19 0 135.42 109.78 245.19 245.19 245.19 135.42 0 245.19-109.78 245.19-245.19 0-135.42-109.78-245.19-245.19-245.19zm0 26.297c120.9 0 218.9 98 218.9 218.9s-98 218.9-218.9 218.9-218.93-98-218.93-218.9 98.03-218.9 218.93-218.9z" id="path176"/>
 </g>
 <text font-family="Gentium Book Basic" x="729.64" y="231.36" line-height="125%" font-size="129.23" id="text178" word-spacing="0" letter-spacing="0"><tspan x="729.64" y="231.36" id="tspan180"/>
 </text>
 <text font-family="Arial" x="378.91" y="579.25" font-size="46.954" transform="scale(4.0128 .2492)" id="text182" text-anchor="middle"/>
 <text font-family="Gentium Book Basic" x="1310.91" y="151.36" line-height="125%" font-size="129.23" id="text184" word-spacing="0" letter-spacing="0"><tspan x="1310.91" y="151.36" id="tspan186"/>
 </text>
 <text font-family="Arial" x="523.76" y="258.22" font-size="46.954" transform="scale(4.0128 .2492)" id="text188" text-anchor="middle"/>
 <text font-family="Gentium Book Basic" x="239.33" y="-29.901" line-height="125%" font-size="129.23" id="text190" word-spacing="0" letter-spacing="0"><tspan x="239.33" y="-29.901" id="tspan192"/>
 </text>
 <text font-family="Arial" x="256.72" y="-469.14" font-size="46.954" transform="scale(4.0128 .2492)" id="text194" text-anchor="middle"/>
 <text font-family="Gentium Book Basic" x="1337.38" y="-246.37" line-height="125%" font-size="129.23" id="text196" word-spacing="0" letter-spacing="0"><tspan x="1337.38" y="-246.37" id="tspan198"/>
 </text>
 <text font-family="Arial" x="530.36" y="-1337.8" font-size="46.954" transform="scale(4.0128 .2492)" id="text200" text-anchor="middle"/>
 <text font-family="Gentium Book Basic" x="1918.65" y="-326.38" line-height="125%" font-size="129.23" id="text202" word-spacing="0" letter-spacing="0"><tspan x="1918.65" y="-326.38" id="tspan204"/>
 </text>
 <text font-family="Arial" x="675.21" y="-1658.84" font-size="46.954" transform="scale(4.0128 .2492)" id="text206" text-anchor="middle"/>
 <text font-family="Gentium Book Basic" x="1529.53" y="-798.78" line-height="125%" font-size="129.23" id="text208" word-spacing="0" letter-spacing="0"><tspan x="1529.53" y="-798.78" id="tspan210"/>
 </text>
 <text font-family="Arial" x="578.24" y="-3554.49" font-size="46.954" transform="scale(4.0128 .2492)" id="text212" text-anchor="middle"/>
 <text font-family="Gentium Book Basic" x="2110.79" y="-878.78" line-height="125%" font-size="129.23" id="text214" word-spacing="0" letter-spacing="0"><tspan x="2110.79" y="-878.78" id="tspan216"/>
 </text>
 <text font-family="Arial" x="723.09" y="-3875.52" font-size="46.954" transform="scale(4.0128 .2492)" id="text218" text-anchor="middle"/>
 <g line-height="125%" font-family="Gentium Book Basic" id="g220" word-spacing="0" letter-spacing="0">
  <text font-size="208.33" x="277.99" y="535.94" id="text222"><tspan x="277.99" y="535.94" id="tspan224"/>
  </text>
  <text font-size="129.23" x="104.96" y="227.12" id="text226"><tspan x="104.96" y="227.12" id="tspan228"/>
  </text>
 </g>
 <text font-family="Arial" x="223.24" y="562.23" font-size="46.954" transform="scale(4.0128 .2492)" id="text230" text-anchor="middle"/>
 <text font-family="Gentium Book Basic" x="686.23" y="147.11" line-height="125%" font-size="129.23" id="text232" word-spacing="0" letter-spacing="0"><tspan x="686.23" y="147.11" id="tspan234"/>
 </text>
 <text font-family="Arial" x="368.09" y="241.19" font-size="46.954" transform="scale(4.0128 .2492)" id="text236" text-anchor="middle"/>
 <text font-family="Gentium Book Basic" x="-385.35" y="-34.14" line-height="125%" font-size="129.23" id="text238" word-spacing="0" letter-spacing="0"><tspan x="-385.35" y="-34.14" id="tspan240"/>
 </text>
 <text font-family="Arial" x="101.05" y="-486.16" font-size="46.954" transform="scale(4.0128 .2492)" id="text242" text-anchor="middle"/>
 <text font-family="Gentium Book Basic" x="712.7" y="-250.62" line-height="125%" font-size="129.23" id="text244" word-spacing="0" letter-spacing="0"><tspan x="712.7" y="-250.62" id="tspan246"/>
 </text>
 <text font-family="Arial" x="374.69" y="-1354.84" font-size="46.954" transform="scale(4.0128 .2492)" id="text248" text-anchor="middle"/>
 <text font-family="Gentium Book Basic" x="1293.97" y="-330.62" line-height="125%" font-size="129.23" id="text250" word-spacing="0" letter-spacing="0"><tspan x="1293.97" y="-330.62" id="tspan252"/>
 </text>
 <text font-family="Arial" x="519.54" y="-1675.87" font-size="46.954" transform="scale(4.0128 .2492)" id="text254" text-anchor="middle"/>
 <text font-family="Gentium Book Basic" x="904.85" y="-803.02" line-height="125%" font-size="129.23" id="text256" word-spacing="0" letter-spacing="0"><tspan x="904.85" y="-803.02" id="tspan258"/>
 </text>
 <text font-family="Arial" x="422.57" y="-3571.53" font-size="46.954" transform="scale(4.0128 .2492)" id="text260" text-anchor="middle"/>
 <text font-family="Gentium Book Basic" x="1486.12" y="-883.02" line-height="125%" font-size="129.23" id="text262" word-spacing="0" letter-spacing="0"><tspan x="1486.12" y="-883.02" id="tspan264"/>
 </text>
 <text font-family="Arial" x="567.42" y="-3892.57" font-size="46.954" transform="scale(4.0128 .2492)" id="text266" text-anchor="middle"/>
 <g line-height="125%" font-family="Gentium Book Basic" id="g268" word-spacing="0" letter-spacing="0">
  <text font-size="208.33" x="-346.69" y="531.69" id="text270"><tspan x="-346.69" y="531.69" id="tspan272"/>
  </text>
  <text font-size="200" x="-931.86" y="-15.584" id="text274"><tspan x="-931.86" y="-15.584" id="tspan276"/>
  </text>
 </g>
 <text font-family="Arial" x="72.797" y="-602.91" font-size="72.67" transform="scale(4.0128 .2492)" id="text278" text-anchor="middle"/>
 <text font-family="Gentium Book Basic" x="-186.48" y="37.559" line-height="125%" font-size="200" id="text280" word-spacing="0" letter-spacing="0"><tspan x="-186.48" y="37.559" id="tspan282"/>
 </text>
 <text font-family="Arial" x="258.55" y="-389.66" font-size="72.67" transform="scale(4.0128 .2492)" id="text284" text-anchor="middle"/>
 <text font-family="Gentium Book Basic" x="713.13" y="-86.26" line-height="125%" font-size="200" id="text286" word-spacing="0" letter-spacing="0"><tspan x="713.13" y="-86.26" id="tspan288"/>
 </text>
 <text font-family="Arial" x="482.73" y="-886.51" font-size="72.67" transform="scale(4.0128 .2492)" id="text290" text-anchor="middle"/>
 <text font-family="Gentium Book Basic" x="-159.02" y="-138.9" line-height="125%" font-size="200" id="text292" word-spacing="0" letter-spacing="0"><tspan x="-159.02" y="-138.9" id="tspan294"/>
 </text>
 <text font-family="Arial" x="265.39" y="-1097.74" font-size="72.67" transform="scale(4.0128 .2492)" id="text296" text-anchor="middle"/>
 <text font-family="Gentium Book Basic" x="740.6" y="-262.71" line-height="125%" font-size="200" id="text298" word-spacing="0" letter-spacing="0"><tspan x="740.6" y="-262.71" id="tspan300"/>
 </text>
 <text font-family="Arial" x="489.57" y="-1594.6" font-size="72.67" transform="scale(4.0128 .2492)" id="text302" text-anchor="middle"/>
 <text font-family="Gentium Book Basic" x="-3169" y="312.99" line-height="125%" font-size="200" id="text304" word-spacing="0" letter-spacing="0"><tspan x="-3169" y="312.99" id="tspan306"/>
 </text>
 <text font-family="Arial" x="-484.7" y="715.59" font-size="72.67" transform="scale(4.0128 .2492)" id="text308" text-anchor="middle"/>
 <text font-family="Gentium Book Basic" x="-1240.72" y="77.56" line-height="125%" font-size="200" id="text310" word-spacing="0" letter-spacing="0"><tspan x="-1240.72" y="77.56" id="tspan312"/>
 </text>
 <text font-family="Arial" x="-4.17" y="-229.14" font-size="72.67" transform="scale(4.0128 .2492)" id="text314" text-anchor="middle"/>
 <text font-family="Gentium Book Basic" x="-495.34" y="130.7" line-height="125%" font-size="200" id="text316" word-spacing="0" letter-spacing="0"><tspan x="-495.34" y="130.7" id="tspan318"/>
 </text>
 <text font-family="Arial" x="181.58" y="-15.889" font-size="72.67" transform="scale(4.0128 .2492)" id="text320" text-anchor="middle"/>
 <text font-family="Gentium Book Basic" x="404.27" y="6.884" line-height="125%" font-size="200" id="text322" word-spacing="0" letter-spacing="0"><tspan x="404.27" y="6.884" id="tspan324"/>
 </text>
 <text font-family="Arial" x="405.76" y="-512.75" font-size="72.67" transform="scale(4.0128 .2492)" id="text326" text-anchor="middle"/>
 <text font-family="Gentium Book Basic" x="-467.88" y="-45.754" line-height="125%" font-size="200" id="text328" word-spacing="0" letter-spacing="0"><tspan x="-467.88" y="-45.754" id="tspan330"/>
 </text>
 <text font-family="Arial" x="188.42" y="-723.97" font-size="72.67" transform="scale(4.0128 .2492)" id="text332" text-anchor="middle"/>
 <text font-family="Gentium Book Basic" x="431.74" y="-169.57" line-height="125%" font-size="200" id="text334" word-spacing="0" letter-spacing="0"><tspan x="431.74" y="-169.57" id="tspan336"/>
 </text>
 <text font-family="Arial" x="412.61" y="-1220.83" font-size="72.67" transform="scale(4.0128 .2492)" id="text338" text-anchor="middle"/>
 <text font-family="Gentium Book Basic" x="-3477.86" y="406.13" line-height="125%" font-size="200" id="text340" word-spacing="0" letter-spacing="0"><tspan x="-3477.86" y="406.13" id="tspan342"/>
 </text>
 <text font-family="Arial" x="-561.67" y="1089.36" font-size="72.67" transform="scale(4.0128 .2492)" id="text344" text-anchor="middle"/>
 <text font-family="Gentium Book Basic" x="-1955.29" y="-39.3" line-height="125%" font-size="200" id="text346" word-spacing="0" letter-spacing="0"><tspan x="-1955.29" y="-39.3" id="tspan348"/>
 </text>
 <text font-family="Arial" x="-182.24" y="-698.07" font-size="72.67" transform="scale(4.0128 .2492)" id="text350" text-anchor="middle"/>
 <text font-family="Gentium Book Basic" x="-1209.91" y="13.844" line-height="125%" font-size="200" id="text352" word-spacing="0" letter-spacing="0"><tspan x="-1209.91" y="13.844" id="tspan354"/>
 </text>
 <text font-family="Arial" x="3.507" y="-484.82" font-size="72.67" transform="scale(4.0128 .2492)" id="text356" text-anchor="middle"/>
 <text font-family="Gentium Book Basic" x="-310.3" y="-109.97" line-height="125%" font-size="200" id="text358" word-spacing="0" letter-spacing="0"><tspan x="-310.3" y="-109.97" id="tspan360"/>
 </text>
 <text font-family="Arial" x="227.69" y="-981.68" font-size="72.67" transform="scale(4.0128 .2492)" id="text362" text-anchor="middle"/>
 <text font-family="Gentium Book Basic" x="-1182.45" y="-162.61" line-height="125%" font-size="200" id="text364" word-spacing="0" letter-spacing="0"><tspan x="-1182.45" y="-162.61" id="tspan366"/>
 </text>
 <text font-family="Arial" x="10.351" y="-1192.9" font-size="72.67" transform="scale(4.0128 .2492)" id="text368" text-anchor="middle"/>
 <text font-family="Gentium Book Basic" x="-282.83" y="-286.43" line-height="125%" font-size="200" id="text370" word-spacing="0" letter-spacing="0"><tspan x="-282.83" y="-286.43" id="tspan372"/>
 </text>
 <text font-family="Arial" x="234.54" y="-1689.76" font-size="72.67" transform="scale(4.0128 .2492)" id="text374" text-anchor="middle"/>
 <text font-family="Gentium Book Basic" x="-4192.43" y="289.27" line-height="125%" font-size="200" id="text376" word-spacing="0" letter-spacing="0"><tspan x="-4192.43" y="289.27" id="tspan378"/>
 </text>
 <text font-family="Arial" x="-739.74" y="620.43" font-size="72.67" transform="scale(4.0128 .2492)" id="text380" text-anchor="middle"/>
 <path fill-rule="evenodd" d="m256 105.72c-83 0-150.28 67.28-150.28 150.28s67.28 150.28 150.28 150.28 150.28-67.28 150.28-150.28-67.28-150.28-150.28-150.28m51.793 17.899c17.756 6.938 34.391 17.565 48.734 31.908 12.07 12.07 21.539 25.789 28.365 40.41l-87.81 50.693c-1.716-7.462-5.485-14.555-11.298-20.368-6.05-6.05-13.484-9.874-21.281-11.486l43.29-91.16m-51.79 97.23c19.417 0 35.15 15.738 35.15 35.15 0 19.417-15.738 35.15-35.15 35.15-19.417 0-35.15-15.738-35.15-35.15 0-19.417 15.738-35.15 35.15-35.15m0 7.782c-15.12 0-27.373 12.256-27.373 27.373 0 15.12 12.256 27.373 27.373 27.373 15.12 0 27.373-12.256 27.373-27.373 0-15.12-12.256-27.373-27.373-27.373m0 8.05c10.671 0 19.322 8.651 19.322 19.322s-8.651 19.322-19.322 19.322-19.322-8.651-19.322-19.322 8.651-19.322 19.322-19.322m-41.461 28.634c0.322 1.399 0.716 2.792 1.181 4.16 0.155 0.456 0.312 0.89 0.483 1.342 1.369 3.618 3.237 7.07 5.636 10.278 0.299 0.4 0.598 0.789 0.912 1.181 0.949 1.18 1.964 2.313 3.059 3.408 1.891 1.891 3.908 3.563 6.04 5.02 0.426 0.291 0.854 0.585 1.288 0.859 1.742 1.099 3.541 2.052 5.394 2.871 0.923 0.409 1.847 0.761 2.791 1.1 1.416 0.509 2.868 0.961 4.321 1.315 0.484 0.118 0.962 0.221 1.449 0.322l-43.29 91.16c-1.117-0.437-2.219-0.876-3.328-1.342-1.101-0.462-2.183-0.931-3.274-1.422-2.193-0.988-4.344-2.035-6.494-3.14-1.063-0.545-2.115-1.117-3.167-1.691-0.009-0.003-0.02 0.003-0.027 0-1.059-0.578-2.093-1.164-3.14-1.771-2.1-1.218-4.177-2.477-6.226-3.811-1.021-0.665-2.025-1.346-3.03-2.04-4.04-2.779-7.959-5.774-11.754-9.02-0.942-0.805-1.865-1.635-2.791-2.469-0.005-0.005-0.022 0.005-0.027 0-0.931-0.838-1.85-1.682-2.764-2.549s-1.814-1.76-2.71-2.657c-4.533-4.533-8.685-9.294-12.479-14.25-0.631-0.825-1.241-1.633-1.852-2.469-5.501-7.52-10.168-15.469-14.01-23.696l87.81-50.693" fill="#ffffff" id="path382"/>
</svg>
