<?xml version="1.0" encoding="UTF-8" standalone="no"?>
<svg xmlns="http://www.w3.org/2000/svg" xmlns:sodipodi="http://sodipodi.sourceforge.net/DTD/sodipodi-0.dtd" xmlns:inkscape="http://www.inkscape.org/namespaces/inkscape" height="512" width="512" version="1.1" viewBox="0 0 512 512">
 <metadata id="metadata236"/>
 <text font-family="Gentium Book Basic" x="729.64" y="231.36" line-height="125%" font-size="129.23" id="text10" word-spacing="0" letter-spacing="0"><tspan x="729.64" y="231.36" id="tspan12"/>
 </text>
 <text font-family="Arial" x="378.91" y="579.25" font-size="46.954" transform="scale(4.0128 .2492)" id="text14" text-anchor="middle"/>
 <text font-family="Gentium Book Basic" x="1310.91" y="151.36" line-height="125%" font-size="129.23" id="text16" word-spacing="0" letter-spacing="0"><tspan x="1310.91" y="151.36" id="tspan18"/>
 </text>
 <text font-family="Arial" x="523.76" y="258.22" font-size="46.954" transform="scale(4.0128 .2492)" id="text20" text-anchor="middle"/>
 <text font-family="Gentium Book Basic" x="239.33" y="-29.901" line-height="125%" font-size="129.23" id="text22" word-spacing="0" letter-spacing="0"><tspan x="239.33" y="-29.901" id="tspan24"/>
 </text>
 <text font-family="Arial" x="256.72" y="-469.14" font-size="46.954" transform="scale(4.0128 .2492)" id="text26" text-anchor="middle"/>
 <text font-family="Gentium Book Basic" x="1337.38" y="-246.37" line-height="125%" font-size="129.23" id="text28" word-spacing="0" letter-spacing="0"><tspan x="1337.38" y="-246.37" id="tspan30"/>
 </text>
 <text font-family="Arial" x="530.36" y="-1337.81" font-size="46.954" transform="scale(4.0128 .2492)" id="text32" text-anchor="middle"/>
 <text font-family="Gentium Book Basic" x="1918.65" y="-326.38" line-height="125%" font-size="129.23" id="text34" word-spacing="0" letter-spacing="0"><tspan x="1918.65" y="-326.38" id="tspan36"/>
 </text>
 <text font-family="Arial" x="675.21" y="-1658.85" font-size="46.954" transform="scale(4.0128 .2492)" id="text38" text-anchor="middle"/>
 <text font-family="Gentium Book Basic" x="1529.53" y="-798.78" line-height="125%" font-size="129.23" id="text40" word-spacing="0" letter-spacing="0"><tspan x="1529.53" y="-798.78" id="tspan42"/>
 </text>
 <text font-family="Arial" x="578.24" y="-3554.51" font-size="46.954" transform="scale(4.0128 .2492)" id="text44" text-anchor="middle"/>
 <text font-family="Gentium Book Basic" x="2110.79" y="-878.78" line-height="125%" font-size="129.23" id="text46" word-spacing="0" letter-spacing="0"><tspan x="2110.79" y="-878.78" id="tspan48"/>
 </text>
 <text font-family="Arial" x="723.09" y="-3875.54" font-size="46.954" transform="scale(4.0128 .2492)" id="text50" text-anchor="middle"/>
 <g line-height="125%" font-family="Gentium Book Basic" id="g52" word-spacing="0" letter-spacing="0">
  <text font-size="208.33" x="277.99" y="535.94" id="text54"><tspan x="277.99" y="535.94" id="tspan56"/>
  </text>
  <text font-size="200" x="-307.18" y="-11.341" id="text58"><tspan x="-307.18" y="-11.341" id="tspan60"/>
  </text>
 </g>
 <text font-family="Arial" x="228.47" y="-585.88" font-size="72.67" transform="scale(4.0128 .2492)" id="text62" text-anchor="middle"/>
 <text font-family="Gentium Book Basic" x="438.2" y="41.802" line-height="125%" font-size="200" id="text64" word-spacing="0" letter-spacing="0"><tspan x="438.2" y="41.802" id="tspan66"/>
 </text>
 <text font-family="Arial" x="414.22" y="-372.63" font-size="72.67" transform="scale(4.0128 .2492)" id="text68" text-anchor="middle"/>
 <text font-family="Gentium Book Basic" x="1337.81" y="-82.02" line-height="125%" font-size="200" id="text70" word-spacing="0" letter-spacing="0"><tspan x="1337.81" y="-82.02" id="tspan72"/>
 </text>
 <text font-family="Arial" x="638.4" y="-869.49" font-size="72.67" transform="scale(4.0128 .2492)" id="text74" text-anchor="middle"/>
 <text font-family="Gentium Book Basic" x="465.66" y="-134.65" line-height="125%" font-size="200" id="text76" word-spacing="0" letter-spacing="0"><tspan x="465.66" y="-134.65" id="tspan78"/>
 </text>
 <text font-family="Arial" x="421.06" y="-1080.71" font-size="72.67" transform="scale(4.0128 .2492)" id="text80" text-anchor="middle"/>
 <text font-family="Gentium Book Basic" x="1365.27" y="-258.47" line-height="125%" font-size="200" id="text82" word-spacing="0" letter-spacing="0"><tspan x="1365.27" y="-258.47" id="tspan84"/>
 </text>
 <text font-family="Arial" x="645.24" y="-1577.57" font-size="72.67" transform="scale(4.0128 .2492)" id="text86" text-anchor="middle"/>
 <text font-family="Gentium Book Basic" x="-2544.32" y="317.23" line-height="125%" font-size="200" id="text88" word-spacing="0" letter-spacing="0"><tspan x="-2544.32" y="317.23" id="tspan90"/>
 </text>
 <text font-family="Arial" x="-329.03" y="732.62" font-size="72.67" transform="scale(4.0128 .2492)" id="text92" text-anchor="middle"/>
 <text font-family="Gentium Book Basic" x="-616.04" y="81.8" line-height="125%" font-size="200" id="text94" word-spacing="0" letter-spacing="0"><tspan x="-616.04" y="81.8" id="tspan96"/>
 </text>
 <text font-family="Arial" x="151.5" y="-212.12" font-size="72.67" transform="scale(4.0128 .2492)" id="text98" text-anchor="middle"/>
 <text font-family="Gentium Book Basic" x="129.34" y="134.94" line-height="125%" font-size="200" id="text100" word-spacing="0" letter-spacing="0"><tspan x="129.34" y="134.94" id="tspan102"/>
 </text>
 <text font-family="Arial" x="337.25" y="1.138" font-size="72.67" transform="scale(4.0128 .2492)" id="text104" text-anchor="middle"/>
 <text font-family="Gentium Book Basic" x="1028.95" y="11.127" line-height="125%" font-size="200" id="text106" word-spacing="0" letter-spacing="0"><tspan x="1028.95" y="11.127" id="tspan108"/>
 </text>
 <text font-family="Arial" x="561.43" y="-495.72" font-size="72.67" transform="scale(4.0128 .2492)" id="text110" text-anchor="middle"/>
 <text font-family="Gentium Book Basic" x="156.8" y="-41.51" line-height="125%" font-size="200" id="text112" word-spacing="0" letter-spacing="0"><tspan x="156.8" y="-41.51" id="tspan114"/>
 </text>
 <text font-family="Arial" x="344.09" y="-706.95" font-size="72.67" transform="scale(4.0128 .2492)" id="text116" text-anchor="middle"/>
 <text font-family="Gentium Book Basic" x="1056.42" y="-165.33" line-height="125%" font-size="200" id="text118" word-spacing="0" letter-spacing="0"><tspan x="1056.42" y="-165.33" id="tspan120"/>
 </text>
 <text font-family="Arial" x="568.28" y="-1203.81" font-size="72.67" transform="scale(4.0128 .2492)" id="text122" text-anchor="middle"/>
 <text font-family="Gentium Book Basic" x="-2853.18" y="410.37" line-height="125%" font-size="200" id="text124" word-spacing="0" letter-spacing="0"><tspan x="-2853.18" y="410.37" id="tspan126"/>
 </text>
 <text font-family="Arial" x="-406" y="1106.39" font-size="72.67" transform="scale(4.0128 .2492)" id="text128" text-anchor="middle"/>
 <text font-family="Gentium Book Basic" x="-1330.61" y="-35.06" line-height="125%" font-size="200" id="text130" word-spacing="0" letter-spacing="0"><tspan x="-1330.61" y="-35.06" id="tspan132"/>
 </text>
 <text font-family="Arial" x="-26.571" y="-681.04" font-size="72.67" transform="scale(4.0128 .2492)" id="text134" text-anchor="middle"/>
 <text font-family="Gentium Book Basic" x="-585.23" y="18.09" line-height="125%" font-size="200" id="text136" word-spacing="0" letter-spacing="0"><tspan x="-585.23" y="18.09" id="tspan138"/>
 </text>
 <text font-family="Arial" x="159.18" y="-467.79" font-size="72.67" transform="scale(4.0128 .2492)" id="text140" text-anchor="middle"/>
 <text font-family="Gentium Book Basic" x="314.38" y="-105.73" line-height="125%" font-size="200" id="text142" word-spacing="0" letter-spacing="0"><tspan x="314.38" y="-105.73" id="tspan144"/>
 </text>
 <text font-family="Arial" x="383.36" y="-964.65" font-size="72.67" transform="scale(4.0128 .2492)" id="text146" text-anchor="middle"/>
 <text font-family="Gentium Book Basic" x="-557.77" y="-158.37" line-height="125%" font-size="200" id="text148" word-spacing="0" letter-spacing="0"><tspan x="-557.77" y="-158.37" id="tspan150"/>
 </text>
 <text font-family="Arial" x="166.02" y="-1175.88" font-size="72.67" transform="scale(4.0128 .2492)" id="text152" text-anchor="middle"/>
 <text font-family="Gentium Book Basic" x="341.85" y="-282.18" line-height="125%" font-size="200" id="text154" word-spacing="0" letter-spacing="0"><tspan x="341.85" y="-282.18" id="tspan156"/>
 </text>
 <text font-family="Arial" x="390.2" y="-1672.73" font-size="72.67" transform="scale(4.0128 .2492)" id="text158" text-anchor="middle"/>
 <text font-family="Gentium Book Basic" x="-3567.75" y="293.52" line-height="125%" font-size="200" id="text160" word-spacing="0" letter-spacing="0"><tspan x="-3567.75" y="293.52" id="tspan162"/>
 </text>
 <text font-family="Arial" x="-584.07" y="637.46" font-size="72.67" transform="scale(4.0128 .2492)" id="text164" text-anchor="middle"/>
 <path fill-rule="evenodd" d="m471.95 253.05c0 120.9-98.01 218.9-218.9 218.9-120.9 0-218.9-98.01-218.9-218.9 0-120.9 98.01-218.9 218.9-218.9 120.9 0 218.9 98.01 218.9 218.9" fill="#636363" id="path166"/>
 <path fill-opacity="0.235" d="m372.91 154.44c-7.05-0.172-14.167 1.121-20.375 3.5-5.982 7.07-8.06 16.343-12.55 17.305-13.484-12.6 0.064-0.393-20.781-18.901-4.764-2.183-11.721-2.152-20.14-1.591h-105.12c-13.02 6.487 1.175 19.567 7.02 30.78 5.995 5.995 6.57 6.439 21.07 22.44-0.368 1.03-2.562 1.319-7.781 0.374-2.05 0.396-3.87 0.24-5.529-0.307-16.232-16.232-30.491-28.746-45.679-43.935-2.977-2.637-6.06-5.134-9.323-7.415-6.873-3.111-14.649-1.564-21.938-1.938-19.498-0.479-30.377 20.224-27.656 37.594 0.395 47.25-0.787 94.59 0.625 141.78 4.955 17.732 22.464 27.48 33.813 41 32.03 32 64.05 64.01 96.06 96.03 6.071 0.506 12.205 0.813 18.406 0.813 120.9 0 218.91-98.01 218.91-218.91 0-5.487-0.197-10.927-0.594-16.313-24.522-24.519-49.05-49.03-73.59-73.53-6.803-5.9-15.775-8.561-24.844-8.781" id="path168"/>
 <g fill-rule="evenodd" id="g170">
  <path fill-opacity="0.067" d="m256 1c-140.83 0-255 114.17-255 255s114.17 255 255 255 255-114.17 255-255-114.17-255-255-255m8.827 44.931c120.9 0 218.9 98 218.9 218.9s-98 218.9-218.9 218.9-218.93-98-218.93-218.9 98.03-218.9 218.93-218.9" id="path172"/>
  <g fill-opacity="0.129" id="g174">
   <path d="m256 4.433c-138.94 0-251.57 112.63-251.57 251.57s112.63 251.57 251.57 251.57 251.57-112.63 251.57-251.57-112.63-251.57-251.57-251.57m5.885 38.556c120.9 0 218.9 98 218.9 218.9s-98 218.9-218.9 218.9-218.93-98-218.93-218.9 98.03-218.9 218.93-218.9" id="path176"/>
   <path d="m256 8.356c-136.77 0-247.64 110.87-247.64 247.64s110.87 247.64 247.64 247.64 247.64-110.87 247.64-247.64-110.87-247.64-247.64-247.64m2.942 31.691c120.9 0 218.9 98 218.9 218.9s-98 218.9-218.9 218.9-218.93-98-218.93-218.9 98.03-218.9 218.93-218.9" id="path178"/>
  </g>
  <path fill="#ffffff" stroke-width="4.904" stroke="#000000" stroke-opacity="0.31" d="m253.04 7.859c-135.42 0-245.19 109.78-245.19 245.19 0 135.42 109.78 245.19 245.19 245.19 135.42 0 245.19-109.78 245.19-245.19 0-135.42-109.78-245.19-245.19-245.19zm0 26.297c120.9 0 218.9 98 218.9 218.9s-98 218.9-218.9 218.9-218.93-98-218.93-218.9 98.03-218.9 218.93-218.9z" id="path180"/>
 </g>
 <text font-family="Gentium Book Basic" x="729.64" y="231.36" line-height="125%" font-size="129.23" id="text182" word-spacing="0" letter-spacing="0"><tspan x="729.64" y="231.36" id="tspan184"/>
 </text>
 <text font-family="Arial" x="378.91" y="579.25" font-size="46.954" transform="scale(4.0128 .2492)" id="text186" text-anchor="middle"/>
 <text font-family="Gentium Book Basic" x="1310.91" y="151.36" line-height="125%" font-size="129.23" id="text188" word-spacing="0" letter-spacing="0"><tspan x="1310.91" y="151.36" id="tspan190"/>
 </text>
 <text font-family="Arial" x="523.76" y="258.22" font-size="46.954" transform="scale(4.0128 .2492)" id="text192" text-anchor="middle"/>
 <text font-family="Gentium Book Basic" x="239.33" y="-29.901" line-height="125%" font-size="129.23" id="text194" word-spacing="0" letter-spacing="0"><tspan x="239.33" y="-29.901" id="tspan196"/>
 </text>
 <text font-family="Arial" x="256.72" y="-469.14" font-size="46.954" transform="scale(4.0128 .2492)" id="text198" text-anchor="middle"/>
 <text font-family="Gentium Book Basic" x="1337.38" y="-246.37" line-height="125%" font-size="129.23" id="text200" word-spacing="0" letter-spacing="0"><tspan x="1337.38" y="-246.37" id="tspan202"/>
 </text>
 <text font-family="Arial" x="530.36" y="-1337.8" font-size="46.954" transform="scale(4.0128 .2492)" id="text204" text-anchor="middle"/>
 <text font-family="Gentium Book Basic" x="1918.65" y="-326.38" line-height="125%" font-size="129.23" id="text206" word-spacing="0" letter-spacing="0"><tspan x="1918.65" y="-326.38" id="tspan208"/>
 </text>
 <text font-family="Arial" x="675.21" y="-1658.84" font-size="46.954" transform="scale(4.0128 .2492)" id="text210" text-anchor="middle"/>
 <text font-family="Gentium Book Basic" x="1529.53" y="-798.78" line-height="125%" font-size="129.23" id="text212" word-spacing="0" letter-spacing="0"><tspan x="1529.53" y="-798.78" id="tspan214"/>
 </text>
 <text font-family="Arial" x="578.24" y="-3554.49" font-size="46.954" transform="scale(4.0128 .2492)" id="text216" text-anchor="middle"/>
 <text font-family="Gentium Book Basic" x="2110.79" y="-878.78" line-height="125%" font-size="129.23" id="text218" word-spacing="0" letter-spacing="0"><tspan x="2110.79" y="-878.78" id="tspan220"/>
 </text>
 <text font-family="Arial" x="723.09" y="-3875.52" font-size="46.954" transform="scale(4.0128 .2492)" id="text222" text-anchor="middle"/>
 <text font-family="Gentium Book Basic" x="277.99" y="535.94" line-height="125%" font-size="208.33" id="text224" word-spacing="0" letter-spacing="0"><tspan x="277.99" y="535.94" id="tspan226"/>
 </text>
 <g fill="#ffffff" id="g228">
  <path d="m376.29 154.74h-13.628c-6.576 0-14.495 4.956-17.683 10.712l-18.856 32.913c-3.803 6.862-11.03 9.983-18.875 9.983h-106.39c-7.843 0-15.07-2.973-18.87-9.835l-18.879-33.737c-3.193-5.751-11.11-10.06-17.688-10.06h-13.652c-15.887 0-27.666 13.461-27.666 29.339v143.81c0 15.887 11.779 29.348 27.666 29.348h244.5c15.882 0 31.593-13.461 31.593-29.348v-143.81c0-15.877-15.711-29.339-31.593-29.339m-193.88 135.32c-11.898 0-21.576-9.683-21.576-21.581 0-11.894 9.678-21.576 21.576-21.576s21.572 9.678 21.572 21.576-9.678 21.581-21.572 21.581m105.17-12.08c0 5.79-4.689 10.478-10.478 10.478h-47.5c-5.785 0-10.478-4.689-10.478-10.478v-19.99c0-5.79 4.694-10.483 10.478-10.483h47.5c5.79 0 10.478 4.694 10.478 10.483v19.99m36.887 12.08c-11.898 0-21.576-9.683-21.576-21.581 0-11.894 9.673-21.576 21.576-21.576 11.889 0 21.567 9.678 21.567 21.576s-9.678 21.581-21.567 21.581" id="path230"/>
  <path d="m195.08 179.35c3.193 5.761 11.11 11.131 17.688 11.131h82.56c6.581 0 14.495-5.232 17.679-10.988l7.3-13.762c3.188-5.751 0.438-10.988-6.142-10.988h-120.27c-6.581 0-9.33 4.951-6.142 10.712l7.31 13.895" id="path232"/>
 </g>
</svg>
