<?xml version="1.0" encoding="UTF-8" standalone="no"?>
<svg xmlns="http://www.w3.org/2000/svg" xmlns:sodipodi="http://sodipodi.sourceforge.net/DTD/sodipodi-0.dtd" xmlns:inkscape="http://www.inkscape.org/namespaces/inkscape" height="512" width="512" version="1.1" viewBox="0 0 512 512">
 <metadata id="metadata120"/>
 <path fill-rule="evenodd" d="m471.95 253.05c0 120.9-98.01 218.9-218.9 218.9-120.9 0-218.9-98.01-218.9-218.9 0-120.9 98.01-218.9 218.9-218.9 120.9 0 218.9 98.01 218.9 218.9" fill="#b4b4b4" id="path4"/>
 <path fill-opacity="0.235" d="m294.41 89.78c-9.09 8.333-13.977 17.767-1.563 29.656 3.902 8.848 11.321 50.869 0.406 43.44-15.79-16.995-15.639-16.764-54.09-52.31-1.446 13.247-1.642 16.1-1.031 23.09 12.141 9.123 11.529 57.4-4.281 45.563-12.13-11.705-22.69-25.325-36.03-35.563-24.846-9.03-31.01 15.01-18.906 28.813 0 35.621-4.469 72.41-4.469 108.03-18.603-0.123-42.1-2.689-52.47 16.781-6.648 14.263-3.844 30.902-3.313 46.16 6.141 18.62 24.982 28.575 37.594 42.625 30.01 28.565 60.803 56.36 89.97 85.78 2.271 0.07 4.525 0.125 6.813 0.125 116.14 0 211.14-90.46 218.44-204.75-1.832-1.763-3.647-3.565-5.406-5.781-3.665-2.625-6.999-7.352-10.656-9.969-3.979-5.01-8.267-7.926-12.25-12.938-3.638-2.594-6.991-7.348-10.625-9.938-3.986-5.01-8.271-7.93-12.25-12.938-3.661-2.62-6.992-7.344-10.656-9.969-3.965-4.994-8.257-7.915-12.219-12.906-3.665-2.625-6.999-7.352-10.656-9.969-3.975-5.03-8.296-7.943-12.25-12.938-3.638-2.594-6.991-7.348-10.625-9.938-3.986-5.01-8.271-7.93-12.25-12.938-3.661-2.62-6.992-7.344-10.656-9.969-3.975-4.997-8.197-7.866-12.219-12.906-3.665-2.625-6.999-7.352-10.656-9.969-3.984-5.01-8.266-7.924-12.25-12.938-3.909-3.35-7.629-7.05-11.438-11.438" id="path6"/>
 <g fill-rule="evenodd" id="g8">
  <path fill-opacity="0.067" d="m256 1c-140.83 0-255 114.17-255 255s114.17 255 255 255 255-114.17 255-255-114.17-255-255-255m8.827 44.931c120.9 0 218.9 98 218.9 218.9s-98 218.9-218.9 218.9-218.93-98-218.93-218.9 98.03-218.9 218.93-218.9" id="path10"/>
  <g fill-opacity="0.129" id="g12">
   <path d="m256 4.433c-138.94 0-251.57 112.63-251.57 251.57s112.63 251.57 251.57 251.57 251.57-112.63 251.57-251.57-112.63-251.57-251.57-251.57m5.885 38.556c120.9 0 218.9 98 218.9 218.9s-98 218.9-218.9 218.9-218.93-98-218.93-218.9 98.03-218.9 218.93-218.9" id="path14"/>
   <path d="m256 8.356c-136.77 0-247.64 110.87-247.64 247.64s110.87 247.64 247.64 247.64 247.64-110.87 247.64-247.64-110.87-247.64-247.64-247.64m2.942 31.691c120.9 0 218.9 98 218.9 218.9s-98 218.9-218.9 218.9-218.93-98-218.93-218.9 98.03-218.9 218.93-218.9" id="path16"/>
  </g>
  <path fill="#ffffff" stroke-width="4.904" stroke="#000000" stroke-opacity="0.31" d="m253.04 7.859c-135.42 0-245.19 109.78-245.19 245.19 0 135.42 109.78 245.19 245.19 245.19 135.42 0 245.19-109.78 245.19-245.19 0-135.42-109.78-245.19-245.19-245.19zm0 26.297c120.9 0 218.9 98 218.9 218.9s-98 218.9-218.9 218.9-218.93-98-218.93-218.9 98.03-218.9 218.93-218.9z" id="path18"/>
 </g>
 <text font-family="Gentium Book Basic" x="729.64" y="231.36" line-height="125%" font-size="129.23" id="text20" word-spacing="0" letter-spacing="0"><tspan x="729.64" y="231.36" id="tspan22"/>
 </text>
 <text font-family="Arial" x="378.91" y="579.25" font-size="46.954" transform="scale(4.0128 .2492)" id="text24" text-anchor="middle"/>
 <text font-family="Gentium Book Basic" x="1310.91" y="151.36" line-height="125%" font-size="129.23" id="text26" word-spacing="0" letter-spacing="0"><tspan x="1310.91" y="151.36" id="tspan28"/>
 </text>
 <text font-family="Arial" x="523.76" y="258.22" font-size="46.954" transform="scale(4.0128 .2492)" id="text30" text-anchor="middle"/>
 <text font-family="Gentium Book Basic" x="239.33" y="-29.901" line-height="125%" font-size="129.23" id="text32" word-spacing="0" letter-spacing="0"><tspan x="239.33" y="-29.901" id="tspan34"/>
 </text>
 <text font-family="Arial" x="256.72" y="-469.14" font-size="46.954" transform="scale(4.0128 .2492)" id="text36" text-anchor="middle"/>
 <text font-family="Gentium Book Basic" x="1337.38" y="-246.37" line-height="125%" font-size="129.23" id="text38" word-spacing="0" letter-spacing="0"><tspan x="1337.38" y="-246.37" id="tspan40"/>
 </text>
 <text font-family="Arial" x="530.36" y="-1337.81" font-size="46.954" transform="scale(4.0128 .2492)" id="text42" text-anchor="middle"/>
 <text font-family="Gentium Book Basic" x="1918.65" y="-326.38" line-height="125%" font-size="129.23" id="text44" word-spacing="0" letter-spacing="0"><tspan x="1918.65" y="-326.38" id="tspan46"/>
 </text>
 <text font-family="Arial" x="675.21" y="-1658.85" font-size="46.954" transform="scale(4.0128 .2492)" id="text48" text-anchor="middle"/>
 <text font-family="Gentium Book Basic" x="1529.53" y="-798.78" line-height="125%" font-size="129.23" id="text50" word-spacing="0" letter-spacing="0"><tspan x="1529.53" y="-798.78" id="tspan52"/>
 </text>
 <text font-family="Arial" x="578.24" y="-3554.51" font-size="46.954" transform="scale(4.0128 .2492)" id="text54" text-anchor="middle"/>
 <text font-family="Gentium Book Basic" x="2110.79" y="-878.78" line-height="125%" font-size="129.23" id="text56" word-spacing="0" letter-spacing="0"><tspan x="2110.79" y="-878.78" id="tspan58"/>
 </text>
 <text font-family="Arial" x="723.09" y="-3875.54" font-size="46.954" transform="scale(4.0128 .2492)" id="text60" text-anchor="middle"/>
 <g line-height="125%" font-family="Gentium Book Basic" id="g62" word-spacing="0" letter-spacing="0">
  <text font-size="208.33" x="277.99" y="535.94" id="text64"><tspan x="277.99" y="535.94" id="tspan66"/>
  </text>
  <text font-size="129.23" x="162.72" y="92.88" id="text68"><tspan x="162.72" y="92.88" id="tspan70"/>
  </text>
 </g>
 <text font-family="Arial" x="237.63" y="23.552" font-size="46.954" transform="scale(4.0128 .2492)" id="text72" text-anchor="middle"/>
 <text font-family="Gentium Book Basic" x="743.99" y="12.88" line-height="125%" font-size="129.23" id="text74" word-spacing="0" letter-spacing="0"><tspan x="743.99" y="12.88" id="tspan76"/>
 </text>
 <text font-family="Arial" x="382.48" y="-297.48" font-size="46.954" transform="scale(4.0128 .2492)" id="text78" text-anchor="middle"/>
 <text font-family="Gentium Book Basic" x="-327.59" y="-168.38" line-height="125%" font-size="129.23" id="text80" word-spacing="0" letter-spacing="0"><tspan x="-327.59" y="-168.38" id="tspan82"/>
 </text>
 <text font-family="Arial" x="115.44" y="-1024.83" font-size="46.954" transform="scale(4.0128 .2492)" id="text84" text-anchor="middle"/>
 <text font-family="Gentium Book Basic" x="770.46" y="-384.85" line-height="125%" font-size="129.23" id="text86" word-spacing="0" letter-spacing="0"><tspan x="770.46" y="-384.85" id="tspan88"/>
 </text>
 <text font-family="Arial" x="389.08" y="-1893.5" font-size="46.954" transform="scale(4.0128 .2492)" id="text90" text-anchor="middle"/>
 <text font-family="Gentium Book Basic" x="1351.73" y="-464.86" line-height="125%" font-size="129.23" id="text92" word-spacing="0" letter-spacing="0"><tspan x="1351.73" y="-464.86" id="tspan94"/>
 </text>
 <text font-family="Arial" x="533.93" y="-2214.54" font-size="46.954" transform="scale(4.0128 .2492)" id="text96" text-anchor="middle"/>
 <text font-family="Gentium Book Basic" x="962.61" y="-937.26" line-height="125%" font-size="129.23" id="text98" word-spacing="0" letter-spacing="0"><tspan x="962.61" y="-937.26" id="tspan100"/>
 </text>
 <text font-family="Arial" x="436.96" y="-4110.19" font-size="46.954" transform="scale(4.0128 .2492)" id="text102" text-anchor="middle"/>
 <text font-family="Gentium Book Basic" x="1543.87" y="-1017.26" line-height="125%" font-size="129.23" id="text104" word-spacing="0" letter-spacing="0"><tspan x="1543.87" y="-1017.26" id="tspan106"/>
 </text>
 <text font-family="Arial" x="581.81" y="-4431.22" font-size="46.954" transform="scale(4.0128 .2492)" id="text108" text-anchor="middle"/>
 <text font-family="Gentium Book Basic" x="-288.93" y="397.46" line-height="125%" font-size="208.33" id="text110" word-spacing="0" letter-spacing="0"><tspan x="-288.93" y="397.46" id="tspan112"/>
 </text>
 <path fill="#ffffff" d="m294.41 89.78-14.06 14.09c17.967 28.11 18.03 73.17-0.063 101.22l14.13 14.13c21.22-36.703 21.12-92.7 0-129.44m-55.37 20.75-11.719 11.438c18.225 17.916 18.375 46.872 0.125 64.813l11.688 11.5c24.57-24.15 24.443-63.63-0.094-87.75m-54.22 25.969c-9.894 0-17.906 8.01-17.906 17.906 0 6.03 2.963 11.347 7.531 14.594v111.5h-22.531c-18.867 0-34.03 14.329-34.03 32.13v23.938c0 17.796 15.16 32.13 34.03 32.13h197.81c18.867 0 34.03-14.329 34.03-32.12v-23.94c0-17.796-15.16-32.12-34.03-32.12h-154.54v-111.53c4.551-3.249 7.531-8.545 7.531-14.563 0-9.894-8.01-17.906-17.906-17.906m153.22 169.47c9.942 0 18 8.06 18 18 0 9.942-8.06 18-18 18-9.942 0-18-8.06-18-18 0-9.942 8.06-18 18-18" id="path114"/>
</svg>
