<?xml version="1.0" encoding="UTF-8" standalone="no"?>
<svg xmlns="http://www.w3.org/2000/svg" xmlns:sodipodi="http://sodipodi.sourceforge.net/DTD/sodipodi-0.dtd" xmlns:inkscape="http://www.inkscape.org/namespaces/inkscape" height="512" width="512" version="1.1" viewBox="0 0 512 512">
 <metadata id="metadata72"/>
 <path fill-rule="evenodd" d="m471.95 253.05c0 120.9-98.01 218.9-218.9 218.9-120.9 0-218.9-98.01-218.9-218.9 0-120.9 98.01-218.9 218.9-218.9 120.9 0 218.9 98.01 218.9 218.9" fill="#5b5b5b" id="path4"/>
 <path fill-opacity="0.235" d="m256.22 120.91c-21.17 0-41.23 4.924-59.09 13.656-0.02-0.008-0.656-0.25-0.656-0.25-0.083 0.225-0.168 0.462-0.25 0.688-44.46 22.15-75.09 68.11-75.09 121.03 0 36.854 14.864 70.29 38.906 94.69 0.041 0.042 0.084 0.083 0.125 0.125 0.274 0.277 0.567 0.537 0.844 0.813 0.056 0.058 0.1 0.129 0.156 0.188 0.423 0.42 0.852 0.836 1.281 1.25 0.041 0.042 0.084 0.083 0.125 0.125 0.29 0.285 0.551 0.592 0.844 0.875 0.379 0.374 0.742 0.756 1.125 1.125 0.331 0.325 0.666 0.647 1 0.969 0.135 0.136 0.271 0.271 0.406 0.406 0.066 0.069 0.121 0.15 0.188 0.219 0.041 0.042 0.084 0.083 0.125 0.125 0.164 0.159 0.335 0.31 0.5 0.469 0.127 0.133 0.247 0.274 0.375 0.406 0.09 0.087 0.191 0.163 0.281 0.25 0.335 0.331 0.661 0.673 1 1 0.041 0.042 0.084 0.083 0.125 0.125 0.29 0.285 0.551 0.592 0.844 0.875 0.379 0.374 0.742 0.756 1.125 1.125 0.336 0.33 0.661 0.673 1 1 0.405 0.398 0.809 0.795 1.219 1.188 0.127 0.133 0.247 0.274 0.375 0.406 0.09 0.087 0.191 0.163 0.281 0.25 0.335 0.331 0.661 0.673 1 1 0.335 0.331 0.661 0.673 1 1 0.021 0.021 0.042 0.041 0.063 0.063 0.161 0.162 0.307 0.339 0.469 0.5 0.051 0.053 0.105 0.103 0.156 0.156 0.138 0.134 0.268 0.273 0.406 0.406 0.336 0.33 0.661 0.673 1 1 0.405 0.398 0.809 0.795 1.219 1.188 0.127 0.133 0.247 0.274 0.375 0.406 0.09 0.087 0.191 0.163 0.281 0.25 0.335 0.331 0.661 0.673 1 1 0.335 0.331 0.661 0.673 1 1 0.021 0.021 0.042 0.041 0.063 0.063 0.161 0.162 0.307 0.339 0.469 0.5 0.051 0.053 0.105 0.103 0.156 0.156 0.138 0.134 0.268 0.273 0.406 0.406 0.336 0.33 0.661 0.673 1 1 0.294 0.289 0.579 0.589 0.875 0.875 0.444 0.438 0.893 0.88 1.344 1.313 0.127 0.133 0.247 0.274 0.375 0.406 0.09 0.087 0.191 0.163 0.281 0.25 0.335 0.331 0.661 0.673 1 1 0.041 0.042 0.084 0.083 0.125 0.125 0.29 0.285 0.551 0.592 0.844 0.875 0.379 0.374 0.742 0.756 1.125 1.125 0.336 0.33 0.661 0.673 1 1 0.405 0.398 0.809 0.795 1.219 1.188 0.127 0.133 0.247 0.274 0.375 0.406 0.09 0.087 0.191 0.163 0.281 0.25 0.335 0.331 0.661 0.673 1 1 0.335 0.331 0.661 0.673 1 1 0.021 0.021 0.042 0.041 0.063 0.063 0.161 0.162 0.307 0.339 0.469 0.5 0.051 0.053 0.105 0.103 0.156 0.156 0.138 0.134 0.268 0.273 0.406 0.406 0.336 0.33 0.661 0.673 1 1 0.405 0.398 0.809 0.795 1.219 1.188 0.127 0.133 0.247 0.274 0.375 0.406 0.09 0.087 0.191 0.163 0.281 0.25 0.335 0.331 0.661 0.673 1 1 0.335 0.331 0.661 0.673 1 1 0.021 0.021 0.042 0.041 0.063 0.063 0.161 0.162 0.307 0.339 0.469 0.5 0.051 0.053 0.105 0.103 0.156 0.156 0.138 0.134 0.268 0.273 0.406 0.406 0.336 0.33 0.661 0.673 1 1 0.294 0.289 0.579 0.589 0.875 0.875 0.444 0.438 0.893 0.88 1.344 1.313 0.127 0.133 0.247 0.274 0.375 0.406 0.09 0.087 0.191 0.163 0.281 0.25 0.335 0.331 0.661 0.673 1 1 0.041 0.042 0.084 0.083 0.125 0.125 0.111 0.109 0.201 0.235 0.313 0.344 0.082 0.085 0.168 0.165 0.25 0.25 0.095 0.093 0.186 0.189 0.281 0.281 0.379 0.374 0.742 0.756 1.125 1.125 0.294 0.289 0.579 0.589 0.875 0.875 0.444 0.438 0.893 0.88 1.344 1.313 0.127 0.133 0.247 0.274 0.375 0.406 0.09 0.087 0.191 0.163 0.281 0.25 0.335 0.331 0.661 0.673 1 1 0.041 0.042 0.084 0.083 0.125 0.125 0.29 0.285 0.551 0.592 0.844 0.875 0.379 0.374 0.742 0.756 1.125 1.125 0.336 0.33 0.661 0.673 1 1 0.405 0.398 0.809 0.795 1.219 1.188 0.127 0.133 0.247 0.274 0.375 0.406 0.09 0.087 0.191 0.163 0.281 0.25 0.335 0.331 0.661 0.673 1 1 0.335 0.331 0.661 0.673 1 1 0.021 0.021 0.042 0.041 0.063 0.063 0.161 0.162 0.307 0.339 0.469 0.5 0.051 0.053 0.105 0.103 0.156 0.156 0.138 0.134 0.268 0.273 0.406 0.406 0.336 0.33 0.661 0.673 1 1 0.405 0.398 0.809 0.795 1.219 1.188 0.127 0.133 0.247 0.274 0.375 0.406 0.09 0.087 0.191 0.163 0.281 0.25 0.335 0.331 0.661 0.673 1 1 0.335 0.331 0.661 0.673 1 1 0.021 0.021 0.042 0.041 0.063 0.063 0.161 0.162 0.307 0.339 0.469 0.5 0.051 0.053 0.105 0.103 0.156 0.156 0.138 0.134 0.268 0.273 0.406 0.406 0.336 0.33 0.661 0.673 1 1 0.294 0.289 0.579 0.589 0.875 0.875 0.444 0.438 0.893 0.88 1.344 1.313 0.127 0.133 0.247 0.274 0.375 0.406 0.09 0.087 0.191 0.163 0.281 0.25 0.335 0.331 0.661 0.673 1 1 0.041 0.042 0.084 0.083 0.125 0.125 0.29 0.285 0.551 0.592 0.844 0.875 0.379 0.374 0.742 0.756 1.125 1.125 0.336 0.33 0.661 0.673 1 1 0.405 0.398 0.809 0.795 1.219 1.188 0.127 0.133 0.247 0.274 0.375 0.406 0.09 0.087 0.191 0.163 0.281 0.25 0.335 0.331 0.661 0.673 1 1 0.335 0.331 0.661 0.673 1 1 0.021 0.021 0.042 0.041 0.063 0.063 0.161 0.162 0.307 0.339 0.469 0.5 0.051 0.053 0.105 0.103 0.156 0.156 0.138 0.134 0.268 0.273 0.406 0.406 0.336 0.33 0.661 0.673 1 1 0.405 0.398 0.809 0.795 1.219 1.188 0.127 0.133 0.247 0.274 0.375 0.406 0.09 0.087 0.191 0.163 0.281 0.25 0.335 0.331 0.661 0.673 1 1 0.335 0.331 0.661 0.673 1 1 0.021 0.021 0.042 0.041 0.063 0.063 0.161 0.162 0.307 0.339 0.469 0.5 0.051 0.053 0.105 0.103 0.156 0.156 0.138 0.134 0.268 0.273 0.406 0.406 0.336 0.33 0.661 0.673 1 1 0.294 0.289 0.579 0.589 0.875 0.875 0.444 0.438 0.893 0.88 1.344 1.313 0.127 0.133 0.247 0.274 0.375 0.406 0.09 0.087 0.191 0.163 0.281 0.25 0.335 0.331 0.661 0.673 1 1 0.041 0.042 0.084 0.083 0.125 0.125 0.111 0.109 0.201 0.235 0.313 0.344 0.082 0.085 0.168 0.165 0.25 0.25 0.095 0.093 0.186 0.189 0.281 0.281 0.379 0.374 0.742 0.756 1.125 1.125 0.294 0.289 0.579 0.589 0.875 0.875 0.444 0.438 0.893 0.88 1.344 1.313 0.127 0.133 0.247 0.274 0.375 0.406 0.09 0.087 0.191 0.163 0.281 0.25 0.335 0.331 0.661 0.673 1 1 0.041 0.042 0.084 0.083 0.125 0.125 0.29 0.285 0.551 0.592 0.844 0.875 0.379 0.374 0.742 0.756 1.125 1.125 0.336 0.33 0.661 0.673 1 1 0.405 0.398 0.809 0.795 1.219 1.188 0.127 0.133 0.247 0.274 0.375 0.406 0.09 0.087 0.191 0.163 0.281 0.25 0.335 0.331 0.661 0.673 1 1 0.335 0.331 0.661 0.673 1 1 0.021 0.021 0.042 0.041 0.063 0.063 0.161 0.162 0.307 0.339 0.469 0.5 0.051 0.053 0.105 0.103 0.156 0.156 0.138 0.134 0.268 0.273 0.406 0.406 0.336 0.33 0.661 0.673 1 1 0.405 0.398 0.809 0.795 1.219 1.188 0.127 0.133 0.247 0.274 0.375 0.406 0.09 0.087 0.191 0.163 0.281 0.25 0.335 0.331 0.661 0.673 1 1 0.335 0.331 0.661 0.673 1 1 0.021 0.021 0.042 0.041 0.063 0.063 0.161 0.162 0.307 0.339 0.469 0.5 0.051 0.053 0.105 0.103 0.156 0.156 0.138 0.134 0.268 0.273 0.406 0.406 0.336 0.33 0.661 0.673 1 1 0.294 0.289 0.579 0.589 0.875 0.875 0.444 0.438 0.893 0.88 1.344 1.313 0.127 0.133 0.247 0.274 0.375 0.406 0.09 0.087 0.191 0.163 0.281 0.25 0.335 0.331 0.661 0.673 1 1 0.041 0.042 0.084 0.083 0.125 0.125 0.29 0.285 0.551 0.592 0.844 0.875 0.379 0.374 0.742 0.756 1.125 1.125 0.336 0.33 0.661 0.673 1 1 0.405 0.398 0.809 0.795 1.219 1.188 0.127 0.133 0.247 0.274 0.375 0.406 0.032 0.031 0.06 0.065 0.094 0.094 99.7-12.08 178.71-91.17 190.69-190.91l-0.031-0.031c-0.326-0.337-0.671-0.666-1-1-0.327-0.339-0.669-0.665-1-1-0.329-0.341-0.667-0.663-1-1-0.139-0.144-0.267-0.294-0.406-0.438-0.052-0.052-0.104-0.105-0.156-0.156-0.134-0.138-0.271-0.269-0.406-0.406-0.092-0.095-0.189-0.186-0.281-0.281-0.239-0.231-0.478-0.458-0.719-0.688-0.326-0.337-0.671-0.666-1-1-0.326-0.337-0.671-0.666-1-1-0.327-0.339-0.669-0.665-1-1-0.329-0.341-0.667-0.663-1-1-0.329-0.341-0.667-0.663-1-1-0.087-0.09-0.162-0.191-0.25-0.281-0.239-0.231-0.478-0.458-0.719-0.688-0.326-0.337-0.671-0.666-1-1-0.326-0.337-0.671-0.666-1-1-0.327-0.339-0.669-0.665-1-1-0.329-0.341-0.667-0.663-1-1-0.329-0.341-0.667-0.663-1-1-0.087-0.091-0.162-0.191-0.25-0.281-0.106-0.103-0.206-0.21-0.313-0.313-0.134-0.138-0.271-0.269-0.406-0.406-0.322-0.334-0.674-0.638-1-0.969-0.326-0.337-0.671-0.666-1-1-0.326-0.337-0.671-0.666-1-1-0.327-0.339-0.669-0.665-1-1-0.329-0.341-0.667-0.663-1-1-0.094-0.093-0.187-0.188-0.281-0.281-0.17-0.164-0.329-0.336-0.5-0.5-0.058-0.058-0.098-0.13-0.156-0.188-0.011-0.01-0.021-0.021-0.031-0.031-0.092-0.095-0.189-0.186-0.281-0.281-0.239-0.231-0.478-0.458-0.719-0.688-0.326-0.337-0.671-0.666-1-1-0.326-0.337-0.671-0.666-1-1-0.327-0.339-0.669-0.665-1-1-0.329-0.341-0.667-0.663-1-1-0.329-0.341-0.667-0.663-1-1-0.087-0.09-0.162-0.191-0.25-0.281-0.239-0.231-0.478-0.458-0.719-0.688-0.326-0.337-0.671-0.666-1-1-0.326-0.337-0.671-0.666-1-1-0.327-0.339-0.669-0.665-1-1-0.329-0.341-0.667-0.663-1-1-0.329-0.341-0.667-0.663-1-1-0.087-0.09-0.162-0.191-0.25-0.281-0.239-0.231-0.478-0.458-0.719-0.688-0.326-0.337-0.671-0.666-1-1-0.326-0.337-0.671-0.666-1-1-0.326-0.337-0.671-0.666-1-1-0.329-0.341-0.667-0.663-1-1-0.329-0.341-0.667-0.663-1-1-0.324-0.335-0.641-0.668-0.969-1-0.322-0.334-0.674-0.638-1-0.969-0.326-0.337-0.671-0.666-1-1-0.326-0.337-0.671-0.666-1-1-0.327-0.339-0.669-0.665-1-1-0.329-0.341-0.667-0.663-1-1-0.094-0.093-0.187-0.188-0.281-0.281-0.17-0.164-0.329-0.336-0.5-0.5-0.058-0.058-0.098-0.13-0.156-0.188-0.011-0.01-0.021-0.021-0.031-0.031-0.092-0.095-0.189-0.186-0.281-0.281-0.239-0.231-0.478-0.458-0.719-0.688-0.326-0.337-0.671-0.666-1-1-0.326-0.337-0.671-0.666-1-1-0.327-0.339-0.669-0.665-1-1-0.329-0.341-0.667-0.663-1-1-0.329-0.341-0.667-0.663-1-1-0.087-0.09-0.162-0.191-0.25-0.281-0.239-0.231-0.478-0.458-0.719-0.688-0.326-0.337-0.671-0.666-1-1-0.326-0.337-0.671-0.666-1-1-0.327-0.339-0.669-0.665-1-1-0.329-0.341-0.667-0.663-1-1-0.329-0.341-0.667-0.663-1-1-0.265-0.257-0.514-0.526-0.781-0.781-0.068-0.068-0.119-0.151-0.188-0.219-0.322-0.334-0.674-0.638-1-0.969-0.326-0.337-0.671-0.666-1-1-0.326-0.337-0.671-0.666-1-1-0.327-0.339-0.669-0.665-1-1-0.329-0.341-0.667-0.663-1-1-0.139-0.144-0.267-0.294-0.406-0.438-0.052-0.052-0.104-0.105-0.156-0.156-0.134-0.138-0.271-0.269-0.406-0.406-0.092-0.095-0.189-0.186-0.281-0.281-0.239-0.231-0.478-0.458-0.719-0.688-0.326-0.337-0.671-0.666-1-1-0.326-0.337-0.671-0.666-1-1-0.327-0.339-0.669-0.665-1-1-0.329-0.341-0.667-0.663-1-1-0.329-0.341-0.667-0.663-1-1-0.087-0.09-0.162-0.191-0.25-0.281-0.239-0.231-0.478-0.458-0.719-0.688-0.326-0.337-0.671-0.666-1-1-0.326-0.337-0.671-0.666-1-1-0.327-0.339-0.669-0.665-1-1-0.329-0.341-0.667-0.663-1-1-0.329-0.341-0.667-0.663-1-1-0.087-0.09-0.162-0.191-0.25-0.281-0.239-0.231-0.478-0.458-0.719-0.688-0.326-0.337-0.671-0.666-1-1-0.326-0.337-0.671-0.666-1-1-0.326-0.337-0.671-0.666-1-1-0.329-0.341-0.667-0.663-1-1-0.329-0.341-0.667-0.663-1-1-0.092-0.096-0.189-0.186-0.281-0.281-0.101-0.098-0.211-0.184-0.313-0.281-0.021-0.021-0.042-0.041-0.063-0.063-0.048-0.046-0.077-0.11-0.125-0.156-0.068-0.068-0.119-0.151-0.188-0.219-0.322-0.334-0.674-0.638-1-0.969-0.326-0.337-0.671-0.666-1-1-0.326-0.337-0.671-0.666-1-1-0.327-0.339-0.669-0.665-1-1-0.329-0.341-0.667-0.663-1-1-0.139-0.144-0.267-0.294-0.406-0.438-0.052-0.052-0.104-0.105-0.156-0.156-0.134-0.138-0.271-0.269-0.406-0.406-0.092-0.095-0.189-0.186-0.281-0.281-0.239-0.231-0.478-0.458-0.719-0.688-0.326-0.337-0.671-0.666-1-1-0.326-0.337-0.671-0.666-1-1-0.327-0.339-0.669-0.665-1-1-0.329-0.341-0.667-0.663-1-1-0.329-0.341-0.667-0.663-1-1-0.087-0.09-0.162-0.191-0.25-0.281-0.239-0.231-0.478-0.458-0.719-0.688-0.326-0.337-0.671-0.666-1-1-0.326-0.337-0.671-0.666-1-1-0.327-0.339-0.669-0.665-1-1-0.329-0.341-0.667-0.663-1-1-0.329-0.341-0.667-0.663-1-1-0.087-0.091-0.162-0.191-0.25-0.281-0.106-0.103-0.206-0.21-0.313-0.313-0.134-0.138-0.271-0.269-0.406-0.406-0.322-0.334-0.674-0.638-1-0.969-0.326-0.337-0.671-0.666-1-1-0.326-0.337-0.671-0.666-1-1-0.327-0.339-0.669-0.665-1-1-0.329-0.341-0.667-0.663-1-1-0.094-0.093-0.187-0.188-0.281-0.281-0.17-0.164-0.329-0.336-0.5-0.5-0.058-0.058-0.098-0.13-0.156-0.188-0.011-0.01-0.021-0.021-0.031-0.031-0.092-0.095-0.189-0.186-0.281-0.281-0.239-0.231-0.478-0.458-0.719-0.688-0.326-0.337-0.671-0.666-1-1-0.326-0.337-0.671-0.666-1-1-0.327-0.339-0.669-0.665-1-1-0.329-0.341-0.667-0.663-1-1-0.329-0.341-0.667-0.663-1-1-0.087-0.09-0.162-0.191-0.25-0.281-0.239-0.231-0.478-0.458-0.719-0.688-10.692-11.07-23.26-20.323-37.19-27.22-0.057-0.154-0.131-0.314-0.188-0.469l-0.438 0.188c-17.772-8.682-37.766-13.594-58.875-13.594" id="path6" color="#000000"/>
 <g fill-rule="evenodd" id="g8">
  <path fill-opacity="0.067" d="m256 1c-140.83 0-255 114.17-255 255s114.17 255 255 255 255-114.17 255-255-114.17-255-255-255m8.827 44.931c120.9 0 218.9 98 218.9 218.9s-98 218.9-218.9 218.9-218.93-98-218.93-218.9 98.03-218.9 218.93-218.9" id="path10"/>
  <g fill-opacity="0.129" id="g12">
   <path d="m256 4.433c-138.94 0-251.57 112.63-251.57 251.57s112.63 251.57 251.57 251.57 251.57-112.63 251.57-251.57-112.63-251.57-251.57-251.57m5.885 38.556c120.9 0 218.9 98 218.9 218.9s-98 218.9-218.9 218.9-218.93-98-218.93-218.9 98.03-218.9 218.93-218.9" id="path14"/>
   <path d="m256 8.356c-136.77 0-247.64 110.87-247.64 247.64s110.87 247.64 247.64 247.64 247.64-110.87 247.64-247.64-110.87-247.64-247.64-247.64m2.942 31.691c120.9 0 218.9 98 218.9 218.9s-98 218.9-218.9 218.9-218.93-98-218.93-218.9 98.03-218.9 218.93-218.9" id="path16"/>
  </g>
  <path fill="#ffffff" stroke-width="4.904" stroke="#000000" stroke-opacity="0.31" d="m253.04 7.859c-135.42 0-245.19 109.78-245.19 245.19 0 135.42 109.78 245.19 245.19 245.19 135.42 0 245.19-109.78 245.19-245.19 0-135.42-109.78-245.19-245.19-245.19zm0 26.297c120.9 0 218.9 98 218.9 218.9s-98 218.9-218.9 218.9-218.93-98-218.93-218.9 98.03-218.9 218.93-218.9z" id="path18"/>
 </g>
 <text font-family="Gentium Book Basic" x="729.64" y="231.36" line-height="125%" font-size="129.23" id="text20" word-spacing="0" letter-spacing="0"><tspan x="729.64" y="231.36" id="tspan22"/>
 </text>
 <text font-family="Arial" x="378.91" y="579.25" font-size="46.954" transform="scale(4.0128 .2492)" id="text24" text-anchor="middle"/>
 <text font-family="Gentium Book Basic" x="1310.91" y="151.36" line-height="125%" font-size="129.23" id="text26" word-spacing="0" letter-spacing="0"><tspan x="1310.91" y="151.36" id="tspan28"/>
 </text>
 <text font-family="Arial" x="523.76" y="258.22" font-size="46.954" transform="scale(4.0128 .2492)" id="text30" text-anchor="middle"/>
 <text font-family="Gentium Book Basic" x="239.33" y="-29.901" line-height="125%" font-size="129.23" id="text32" word-spacing="0" letter-spacing="0"><tspan x="239.33" y="-29.901" id="tspan34"/>
 </text>
 <text font-family="Arial" x="256.72" y="-469.14" font-size="46.954" transform="scale(4.0128 .2492)" id="text36" text-anchor="middle"/>
 <text font-family="Gentium Book Basic" x="1337.38" y="-246.37" line-height="125%" font-size="129.23" id="text38" word-spacing="0" letter-spacing="0"><tspan x="1337.38" y="-246.37" id="tspan40"/>
 </text>
 <text font-family="Arial" x="530.36" y="-1337.81" font-size="46.954" transform="scale(4.0128 .2492)" id="text42" text-anchor="middle"/>
 <text font-family="Gentium Book Basic" x="1918.65" y="-326.38" line-height="125%" font-size="129.23" id="text44" word-spacing="0" letter-spacing="0"><tspan x="1918.65" y="-326.38" id="tspan46"/>
 </text>
 <text font-family="Arial" x="675.21" y="-1658.85" font-size="46.954" transform="scale(4.0128 .2492)" id="text48" text-anchor="middle"/>
 <text font-family="Gentium Book Basic" x="1529.53" y="-798.78" line-height="125%" font-size="129.23" id="text50" word-spacing="0" letter-spacing="0"><tspan x="1529.53" y="-798.78" id="tspan52"/>
 </text>
 <text font-family="Arial" x="578.24" y="-3554.51" font-size="46.954" transform="scale(4.0128 .2492)" id="text54" text-anchor="middle"/>
 <text font-family="Gentium Book Basic" x="2110.79" y="-878.78" line-height="125%" font-size="129.23" id="text56" word-spacing="0" letter-spacing="0"><tspan x="2110.79" y="-878.78" id="tspan58"/>
 </text>
 <text font-family="Arial" x="723.09" y="-3875.54" font-size="46.954" transform="scale(4.0128 .2492)" id="text60" text-anchor="middle"/>
 <text font-family="Gentium Book Basic" x="277.99" y="535.94" line-height="125%" font-size="208.33" id="text62" word-spacing="0" letter-spacing="0"><tspan x="277.99" y="535.94" id="tspan64"/>
 </text>
 <path fill="#ffffff" d="m256.23 120.91c-21.17 0-41.24 4.935-59.1 13.668l-0.675-0.253c-0.083 0.225-0.171 0.449-0.253 0.675-44.46 22.15-75.09 68.11-75.09 121.03 0 52.961 30.7 98.9 75.21 121.03 0.12 0.278 0.217 0.566 0.337 0.844l0.717-0.295c17.799 8.654 37.774 13.499 58.847 13.499 21.02 0 40.921-4.8 58.64-13.415l0.506 0.211c0.091-0.208 0.163-0.424 0.253-0.633 44.608-22.05 75.26-68.11 75.26-121.24 0-53.09-30.604-99.17-75.17-121.24-0.057-0.154-0.112-0.31-0.169-0.464l-0.464 0.169c-17.772-8.682-37.738-13.583-58.847-13.583m-8.648 17.253v58.847h-50.916c3.169-16.83 7.522-33.467 13.08-49.651 11.755-5.03 24.478-8.235 37.839-9.196m16.874 0c13.329 0.917 26.04 4.02 37.755 8.985 5.589 16.251 9.982 32.958 13.161 49.862h-50.916v-58.847m59.18 20.881c14.16 9.92 26.04 22.888 34.675 37.966h-25.732c-2.31-12.783-5.315-25.482-8.943-37.966m-135.37 0.253c-3.593 12.402-6.567 25.02-8.859 37.713h-25.648c8.622-14.953 20.443-27.825 34.507-37.713m-42.479 54.59h31.01c-1.496 11.234-2.484 22.505-2.911 33.747h-35.519c0.825-11.818 3.386-23.15 7.424-33.747m48.09 0h53.7v33.747h-56.7c0.446-11.225 1.436-22.515 2.995-33.747m70.57 0h53.658c1.556 11.232 2.594 22.523 3.037 33.747h-56.69v-33.74m70.74 0h31.09c4.01 10.6 6.521 21.929 7.34 33.747h-35.519c-0.43-11.242-1.413-22.513-2.911-33.747m-196.83 50.621h35.31c0.125 11.339 0.786 22.617 2.067 33.747h-29.909c-4.04-10.588-6.63-21.942-7.467-33.747m52.27 0h56.949v33.747h-54.76c-1.339-11.1-2.065-22.377-2.194-33.747m73.822 0h56.906c-0.132 11.37-0.852 22.647-2.194 33.747h-54.713v-33.747m73.907 0h35.27c-0.83 11.805-3.367 23.16-7.382 33.747h-29.993c1.279-11.13 1.987-22.409 2.109-33.747m-184.51 50.621h24.34c2.15 12.507 5.082 24.763 8.816 36.7-13.476-9.741-24.8-22.24-33.16-36.7m41.509 0h52.22v58.763c-13.505-0.972-26.358-4.245-38.22-9.365-6.256-15.683-10.905-32.26-14.01-49.4m69.1 0h52.18c-3.116 17.207-7.751 33.867-14.05 49.609-11.82 5.062-24.66 8.227-38.13 9.154v-58.75m69.39 0h24.382c-8.36 14.557-19.702 27.14-33.24 36.911 3.764-12 6.699-24.333 8.859-36.911" id="path66" color="#000000"/>
</svg>
