<?xml version="1.0" encoding="UTF-8" standalone="no"?>
<svg xmlns="http://www.w3.org/2000/svg" xmlns:sodipodi="http://sodipodi.sourceforge.net/DTD/sodipodi-0.dtd" xmlns:inkscape="http://www.inkscape.org/namespaces/inkscape" height="512" width="512" version="1.1" viewBox="0 0 512 512">
 <metadata id="metadata72"/>
 <path fill-rule="evenodd" d="m471.95 253.05c0 120.9-98.01 218.9-218.9 218.9-120.9 0-218.9-98.01-218.9-218.9 0-120.9 98.01-218.9 218.9-218.9 120.9 0 218.9 98.01 218.9 218.9" fill="#636363" id="path4"/>
 <path fill-opacity="0.235" d="m213.63 81.13c-17.16 1.905-11.259 21.561-12.313 33.438 0.761 14.634-34.851 3.834-29.875 28.656v265.97c1.976 17.334 19.549 26.18 29.813 38.781 7.349 7.317 14.693 14.641 22.03 21.969 9.733 1.323 19.654 2.031 29.75 2.031 116.79 0 212.22-91.48 218.56-206.69-46.589-46.677-93.14-93.37-140.06-139.69-15.12-7.372-32.837-2.775-49.22-4.063-8.06-1.07-17.888 2.154-24.844-1.625-13.06-12.441-24.94-26.27-38.844-37.719l-5-1.063" id="path6"/>
 <g fill-rule="evenodd" id="g8">
  <path fill-opacity="0.067" d="m256 1c-140.83 0-255 114.17-255 255s114.17 255 255 255 255-114.17 255-255-114.17-255-255-255m8.827 44.931c120.9 0 218.9 98 218.9 218.9s-98 218.9-218.9 218.9-218.93-98-218.93-218.9 98.03-218.9 218.93-218.9" id="path10"/>
  <g fill-opacity="0.129" id="g12">
   <path d="m256 4.433c-138.94 0-251.57 112.63-251.57 251.57s112.63 251.57 251.57 251.57 251.57-112.63 251.57-251.57-112.63-251.57-251.57-251.57m5.885 38.556c120.9 0 218.9 98 218.9 218.9s-98 218.9-218.9 218.9-218.93-98-218.93-218.9 98.03-218.9 218.93-218.9" id="path14"/>
   <path d="m256 8.356c-136.77 0-247.64 110.87-247.64 247.64s110.87 247.64 247.64 247.64 247.64-110.87 247.64-247.64-110.87-247.64-247.64-247.64m2.942 31.691c120.9 0 218.9 98 218.9 218.9s-98 218.9-218.9 218.9-218.93-98-218.93-218.9 98.03-218.9 218.93-218.9" id="path16"/>
  </g>
  <path fill="#ffffff" stroke-width="4.904" stroke="#000000" stroke-opacity="0.31" d="m253.04 7.859c-135.42 0-245.19 109.78-245.19 245.19 0 135.42 109.78 245.19 245.19 245.19 135.42 0 245.19-109.78 245.19-245.19 0-135.42-109.78-245.19-245.19-245.19zm0 26.297c120.9 0 218.9 98 218.9 218.9s-98 218.9-218.9 218.9-218.93-98-218.93-218.9 98.03-218.9 218.93-218.9z" id="path18"/>
 </g>
 <text font-family="Gentium Book Basic" x="729.64" y="231.36" line-height="125%" font-size="129.23" id="text20" word-spacing="0" letter-spacing="0"><tspan x="729.64" y="231.36" id="tspan22"/>
 </text>
 <text font-family="Arial" x="378.91" y="579.25" font-size="46.954" transform="scale(4.0128 .2492)" id="text24" text-anchor="middle"/>
 <text font-family="Gentium Book Basic" x="1310.91" y="151.36" line-height="125%" font-size="129.23" id="text26" word-spacing="0" letter-spacing="0"><tspan x="1310.91" y="151.36" id="tspan28"/>
 </text>
 <text font-family="Arial" x="523.76" y="258.22" font-size="46.954" transform="scale(4.0128 .2492)" id="text30" text-anchor="middle"/>
 <text font-family="Gentium Book Basic" x="239.33" y="-29.901" line-height="125%" font-size="129.23" id="text32" word-spacing="0" letter-spacing="0"><tspan x="239.33" y="-29.901" id="tspan34"/>
 </text>
 <text font-family="Arial" x="256.72" y="-469.14" font-size="46.954" transform="scale(4.0128 .2492)" id="text36" text-anchor="middle"/>
 <text font-family="Gentium Book Basic" x="1337.38" y="-246.37" line-height="125%" font-size="129.23" id="text38" word-spacing="0" letter-spacing="0"><tspan x="1337.38" y="-246.37" id="tspan40"/>
 </text>
 <text font-family="Arial" x="530.36" y="-1337.81" font-size="46.954" transform="scale(4.0128 .2492)" id="text42" text-anchor="middle"/>
 <text font-family="Gentium Book Basic" x="1918.65" y="-326.38" line-height="125%" font-size="129.23" id="text44" word-spacing="0" letter-spacing="0"><tspan x="1918.65" y="-326.38" id="tspan46"/>
 </text>
 <text font-family="Arial" x="675.21" y="-1658.85" font-size="46.954" transform="scale(4.0128 .2492)" id="text48" text-anchor="middle"/>
 <text font-family="Gentium Book Basic" x="1529.53" y="-798.78" line-height="125%" font-size="129.23" id="text50" word-spacing="0" letter-spacing="0"><tspan x="1529.53" y="-798.78" id="tspan52"/>
 </text>
 <text font-family="Arial" x="578.24" y="-3554.51" font-size="46.954" transform="scale(4.0128 .2492)" id="text54" text-anchor="middle"/>
 <text font-family="Gentium Book Basic" x="2110.79" y="-878.78" line-height="125%" font-size="129.23" id="text56" word-spacing="0" letter-spacing="0"><tspan x="2110.79" y="-878.78" id="tspan58"/>
 </text>
 <text font-family="Arial" x="723.09" y="-3875.54" font-size="46.954" transform="scale(4.0128 .2492)" id="text60" text-anchor="middle"/>
 <text font-family="Gentium Book Basic" x="277.99" y="535.94" line-height="125%" font-size="208.33" id="text62" word-spacing="0" letter-spacing="0"><tspan x="277.99" y="535.94" id="tspan64"/>
 </text>
 <path fill="#ffffff" d="m213.63 81.12c-6.831 0-12.321 5.489-12.321 12.321v28.08h-8.17c-12.01 0-21.699 9.687-21.699 21.699v265.96c0 12.01 9.687 21.699 21.699 21.699h125.76c12.01 0 21.673-9.687 21.673-21.699v-265.96c0-12.01-9.661-21.699-21.673-21.699h-92.94v-28.08c0-6.831-5.489-12.321-12.321-12.321m-5.963 83.57h96.7c3.913 0 7.04 3.154 7.04 7.07v90.63c0 3.913-3.128 7.07-7.04 7.07h-96.7c-3.913 0-7.07-3.154-7.07-7.07v-90.63c0-3.913 3.154-7.07 7.07-7.07m-6.226 135.74h19.887c2 0 3.625 1.598 3.625 3.599v14.527c0 2-1.624 3.599-3.625 3.599h-19.887c-2 0-3.599-1.598-3.599-3.599v-14.527c0-2 1.598-3.599 3.599-3.599m44.633 0h19.86c2 0 3.625 1.598 3.625 3.599v14.527c0 2-1.624 3.599-3.625 3.599h-19.86c-2 0-3.625-1.598-3.625-3.599v-14.527c0-2 1.624-3.599 3.625-3.599m44.607 0h19.887c2 0 3.599 1.598 3.599 3.599v14.527c0 2-1.598 3.599-3.599 3.599h-19.887c-2 0-3.625-1.598-3.625-3.599v-14.527c0-2 1.624-3.599 3.625-3.599m-89.24 39.25h19.887c2 0 3.625 1.598 3.625 3.599v14.528c0 2-1.624 3.599-3.625 3.599h-19.887c-2 0-3.599-1.598-3.599-3.599v-14.528c0-2 1.598-3.599 3.599-3.599m44.633 0h19.86c2 0 3.625 1.598 3.625 3.599v14.528c0 2-1.624 3.599-3.625 3.599h-19.86c-2 0-3.625-1.598-3.625-3.599v-14.528c0-2 1.624-3.599 3.625-3.599m44.607 0h19.887c2 0 3.599 1.598 3.599 3.599v14.528c0 2-1.598 3.599-3.599 3.599h-19.887c-2 0-3.625-1.598-3.625-3.599v-14.528c0-2 1.624-3.599 3.625-3.599m-89.24 39.25h19.887c2 0 3.625 1.598 3.625 3.599v14.528c0 2-1.624 3.625-3.625 3.625h-19.887c-2 0-3.599-1.624-3.599-3.625v-14.528c0-2 1.598-3.599 3.599-3.599m44.633 0h19.86c2 0 3.625 1.598 3.625 3.599v14.528c0 2-1.624 3.625-3.625 3.625h-19.86c-2 0-3.625-1.624-3.625-3.625v-14.528c0-2 1.624-3.599 3.625-3.599m44.607 0h19.887c2 0 3.599 1.598 3.599 3.599v14.528c0 2-1.598 3.625-3.599 3.625h-19.887c-2 0-3.625-1.624-3.625-3.625v-14.528c0-2 1.624-3.599 3.625-3.599" id="path66"/>
</svg>
