<?xml version="1.0" encoding="UTF-8" standalone="no"?>
<svg xmlns="http://www.w3.org/2000/svg" xmlns:sodipodi="http://sodipodi.sourceforge.net/DTD/sodipodi-0.dtd" xmlns:inkscape="http://www.inkscape.org/namespaces/inkscape" height="512" width="512" version="1.1" viewBox="0 0 512 512">
 <metadata id="metadata388"/>
 <text font-family="Gentium Book Basic" x="729.64" y="231.36" line-height="125%" font-size="129.23" id="text4" word-spacing="0" letter-spacing="0"><tspan x="729.64" y="231.36" id="tspan6"/>
 </text>
 <text font-family="Arial" x="378.91" y="579.25" font-size="46.954" transform="scale(4.0128 .2492)" id="text8" text-anchor="middle"/>
 <text font-family="Gentium Book Basic" x="1310.91" y="151.36" line-height="125%" font-size="129.23" id="text10" word-spacing="0" letter-spacing="0"><tspan x="1310.91" y="151.36" id="tspan12"/>
 </text>
 <text font-family="Arial" x="523.76" y="258.22" font-size="46.954" transform="scale(4.0128 .2492)" id="text14" text-anchor="middle"/>
 <text font-family="Gentium Book Basic" x="239.33" y="-29.901" line-height="125%" font-size="129.23" id="text16" word-spacing="0" letter-spacing="0"><tspan x="239.33" y="-29.901" id="tspan18"/>
 </text>
 <text font-family="Arial" x="256.72" y="-469.14" font-size="46.954" transform="scale(4.0128 .2492)" id="text20" text-anchor="middle"/>
 <text font-family="Gentium Book Basic" x="1337.38" y="-246.37" line-height="125%" font-size="129.23" id="text22" word-spacing="0" letter-spacing="0"><tspan x="1337.38" y="-246.37" id="tspan24"/>
 </text>
 <text font-family="Arial" x="530.36" y="-1337.81" font-size="46.954" transform="scale(4.0128 .2492)" id="text26" text-anchor="middle"/>
 <text font-family="Gentium Book Basic" x="1918.65" y="-326.38" line-height="125%" font-size="129.23" id="text28" word-spacing="0" letter-spacing="0"><tspan x="1918.65" y="-326.38" id="tspan30"/>
 </text>
 <text font-family="Arial" x="675.21" y="-1658.85" font-size="46.954" transform="scale(4.0128 .2492)" id="text32" text-anchor="middle"/>
 <text font-family="Gentium Book Basic" x="1529.53" y="-798.78" line-height="125%" font-size="129.23" id="text34" word-spacing="0" letter-spacing="0"><tspan x="1529.53" y="-798.78" id="tspan36"/>
 </text>
 <text font-family="Arial" x="578.24" y="-3554.51" font-size="46.954" transform="scale(4.0128 .2492)" id="text38" text-anchor="middle"/>
 <text font-family="Gentium Book Basic" x="2110.79" y="-878.78" line-height="125%" font-size="129.23" id="text40" word-spacing="0" letter-spacing="0"><tspan x="2110.79" y="-878.78" id="tspan42"/>
 </text>
 <text font-family="Arial" x="723.09" y="-3875.54" font-size="46.954" transform="scale(4.0128 .2492)" id="text44" text-anchor="middle"/>
 <g line-height="125%" font-family="Gentium Book Basic" id="g46" word-spacing="0" letter-spacing="0">
  <text font-size="208.33" x="277.99" y="535.94" id="text48"><tspan x="277.99" y="535.94" id="tspan50"/>
  </text>
  <text font-size="200" x="-307.18" y="-11.341" id="text52"><tspan x="-307.18" y="-11.341" id="tspan54"/>
  </text>
 </g>
 <text font-family="Arial" x="228.47" y="-585.88" font-size="72.67" transform="scale(4.0128 .2492)" id="text56" text-anchor="middle"/>
 <text font-family="Gentium Book Basic" x="438.2" y="41.802" line-height="125%" font-size="200" id="text58" word-spacing="0" letter-spacing="0"><tspan x="438.2" y="41.802" id="tspan60"/>
 </text>
 <text font-family="Arial" x="414.22" y="-372.63" font-size="72.67" transform="scale(4.0128 .2492)" id="text62" text-anchor="middle"/>
 <text font-family="Gentium Book Basic" x="1337.81" y="-82.02" line-height="125%" font-size="200" id="text64" word-spacing="0" letter-spacing="0"><tspan x="1337.81" y="-82.02" id="tspan66"/>
 </text>
 <text font-family="Arial" x="638.4" y="-869.49" font-size="72.67" transform="scale(4.0128 .2492)" id="text68" text-anchor="middle"/>
 <text font-family="Gentium Book Basic" x="465.66" y="-134.65" line-height="125%" font-size="200" id="text70" word-spacing="0" letter-spacing="0"><tspan x="465.66" y="-134.65" id="tspan72"/>
 </text>
 <text font-family="Arial" x="421.06" y="-1080.71" font-size="72.67" transform="scale(4.0128 .2492)" id="text74" text-anchor="middle"/>
 <text font-family="Gentium Book Basic" x="1365.27" y="-258.47" line-height="125%" font-size="200" id="text76" word-spacing="0" letter-spacing="0"><tspan x="1365.27" y="-258.47" id="tspan78"/>
 </text>
 <text font-family="Arial" x="645.24" y="-1577.57" font-size="72.67" transform="scale(4.0128 .2492)" id="text80" text-anchor="middle"/>
 <text font-family="Gentium Book Basic" x="-2544.32" y="317.23" line-height="125%" font-size="200" id="text82" word-spacing="0" letter-spacing="0"><tspan x="-2544.32" y="317.23" id="tspan84"/>
 </text>
 <text font-family="Arial" x="-329.03" y="732.62" font-size="72.67" transform="scale(4.0128 .2492)" id="text86" text-anchor="middle"/>
 <text font-family="Gentium Book Basic" x="-616.04" y="81.8" line-height="125%" font-size="200" id="text88" word-spacing="0" letter-spacing="0"><tspan x="-616.04" y="81.8" id="tspan90"/>
 </text>
 <text font-family="Arial" x="151.5" y="-212.12" font-size="72.67" transform="scale(4.0128 .2492)" id="text92" text-anchor="middle"/>
 <text font-family="Gentium Book Basic" x="129.34" y="134.94" line-height="125%" font-size="200" id="text94" word-spacing="0" letter-spacing="0"><tspan x="129.34" y="134.94" id="tspan96"/>
 </text>
 <text font-family="Arial" x="337.25" y="1.138" font-size="72.67" transform="scale(4.0128 .2492)" id="text98" text-anchor="middle"/>
 <text font-family="Gentium Book Basic" x="1028.95" y="11.127" line-height="125%" font-size="200" id="text100" word-spacing="0" letter-spacing="0"><tspan x="1028.95" y="11.127" id="tspan102"/>
 </text>
 <text font-family="Arial" x="561.43" y="-495.72" font-size="72.67" transform="scale(4.0128 .2492)" id="text104" text-anchor="middle"/>
 <text font-family="Gentium Book Basic" x="156.8" y="-41.51" line-height="125%" font-size="200" id="text106" word-spacing="0" letter-spacing="0"><tspan x="156.8" y="-41.51" id="tspan108"/>
 </text>
 <text font-family="Arial" x="344.09" y="-706.95" font-size="72.67" transform="scale(4.0128 .2492)" id="text110" text-anchor="middle"/>
 <text font-family="Gentium Book Basic" x="1056.42" y="-165.33" line-height="125%" font-size="200" id="text112" word-spacing="0" letter-spacing="0"><tspan x="1056.42" y="-165.33" id="tspan114"/>
 </text>
 <text font-family="Arial" x="568.28" y="-1203.81" font-size="72.67" transform="scale(4.0128 .2492)" id="text116" text-anchor="middle"/>
 <text font-family="Gentium Book Basic" x="-2853.18" y="410.37" line-height="125%" font-size="200" id="text118" word-spacing="0" letter-spacing="0"><tspan x="-2853.18" y="410.37" id="tspan120"/>
 </text>
 <text font-family="Arial" x="-406" y="1106.39" font-size="72.67" transform="scale(4.0128 .2492)" id="text122" text-anchor="middle"/>
 <text font-family="Gentium Book Basic" x="-1330.61" y="-35.06" line-height="125%" font-size="200" id="text124" word-spacing="0" letter-spacing="0"><tspan x="-1330.61" y="-35.06" id="tspan126"/>
 </text>
 <text font-family="Arial" x="-26.571" y="-681.04" font-size="72.67" transform="scale(4.0128 .2492)" id="text128" text-anchor="middle"/>
 <text font-family="Gentium Book Basic" x="-585.23" y="18.09" line-height="125%" font-size="200" id="text130" word-spacing="0" letter-spacing="0"><tspan x="-585.23" y="18.09" id="tspan132"/>
 </text>
 <text font-family="Arial" x="159.18" y="-467.79" font-size="72.67" transform="scale(4.0128 .2492)" id="text134" text-anchor="middle"/>
 <text font-family="Gentium Book Basic" x="314.38" y="-105.73" line-height="125%" font-size="200" id="text136" word-spacing="0" letter-spacing="0"><tspan x="314.38" y="-105.73" id="tspan138"/>
 </text>
 <text font-family="Arial" x="383.36" y="-964.65" font-size="72.67" transform="scale(4.0128 .2492)" id="text140" text-anchor="middle"/>
 <text font-family="Gentium Book Basic" x="-557.77" y="-158.37" line-height="125%" font-size="200" id="text142" word-spacing="0" letter-spacing="0"><tspan x="-557.77" y="-158.37" id="tspan144"/>
 </text>
 <text font-family="Arial" x="166.02" y="-1175.88" font-size="72.67" transform="scale(4.0128 .2492)" id="text146" text-anchor="middle"/>
 <text font-family="Gentium Book Basic" x="341.85" y="-282.18" line-height="125%" font-size="200" id="text148" word-spacing="0" letter-spacing="0"><tspan x="341.85" y="-282.18" id="tspan150"/>
 </text>
 <text font-family="Arial" x="390.2" y="-1672.73" font-size="72.67" transform="scale(4.0128 .2492)" id="text152" text-anchor="middle"/>
 <text font-family="Gentium Book Basic" x="-3567.75" y="293.52" line-height="125%" font-size="200" id="text154" word-spacing="0" letter-spacing="0"><tspan x="-3567.75" y="293.52" id="tspan156"/>
 </text>
 <text font-family="Arial" x="-584.07" y="637.46" font-size="72.67" transform="scale(4.0128 .2492)" id="text158" text-anchor="middle"/>
 <path fill-rule="evenodd" d="m471.95 253.05c0 120.9-98.01 218.9-218.9 218.9-120.9 0-218.9-98.01-218.9-218.9 0-120.9 98.01-218.9 218.9-218.9 120.9 0 218.9 98.01 218.9 218.9" fill="#787878" id="path160"/>
 <path fill-opacity="0.235" d="m348.22 100.88c-9.375-0.015-19 1.053-28.12 0.281h-164.75c-20.801-0.698-34.21 20.644-30.969 39.75 0.12 80.78-0.234 161.57 0.188 242.34 3.289 19.67 22.731 29.92 34.656 44.28 12.375 12.3 24.725 24.628 37.06 36.969 18.11 4.85 37.14 7.438 56.781 7.438 120.89 0 218.88-97.98 218.88-218.87 0-19.702-2.588-38.807-7.469-56.969-29.757-29.775-59.57-59.49-89.56-89-8.173-5.108-17.312-6.204-26.688-6.219" id="path162"/>
 <g fill-rule="evenodd" id="g164">
  <path fill-opacity="0.067" d="m256 1c-140.83 0-255 114.17-255 255s114.17 255 255 255 255-114.17 255-255-114.17-255-255-255m8.827 44.931c120.9 0 218.9 98 218.9 218.9s-98 218.9-218.9 218.9-218.93-98-218.93-218.9 98.03-218.9 218.93-218.9" id="path166"/>
  <g fill-opacity="0.129" id="g168">
   <path d="m256 4.433c-138.94 0-251.57 112.63-251.57 251.57s112.63 251.57 251.57 251.57 251.57-112.63 251.57-251.57-112.63-251.57-251.57-251.57m5.885 38.556c120.9 0 218.9 98 218.9 218.9s-98 218.9-218.9 218.9-218.93-98-218.93-218.9 98.03-218.9 218.93-218.9" id="path170"/>
   <path d="m256 8.356c-136.77 0-247.64 110.87-247.64 247.64s110.87 247.64 247.64 247.64 247.64-110.87 247.64-247.64-110.87-247.64-247.64-247.64m2.942 31.691c120.9 0 218.9 98 218.9 218.9s-98 218.9-218.9 218.9-218.93-98-218.93-218.9 98.03-218.9 218.93-218.9" id="path172"/>
  </g>
  <path fill="#ffffff" stroke-width="4.904" stroke="#000000" stroke-opacity="0.31" d="m253.04 7.859c-135.42 0-245.19 109.78-245.19 245.19 0 135.42 109.78 245.19 245.19 245.19 135.42 0 245.19-109.78 245.19-245.19 0-135.42-109.78-245.19-245.19-245.19zm0 26.297c120.9 0 218.9 98 218.9 218.9s-98 218.9-218.9 218.9-218.93-98-218.93-218.9 98.03-218.9 218.93-218.9z" id="path174"/>
 </g>
 <text font-family="Gentium Book Basic" x="729.64" y="231.36" line-height="125%" font-size="129.23" id="text176" word-spacing="0" letter-spacing="0"><tspan x="729.64" y="231.36" id="tspan178"/>
 </text>
 <text font-family="Arial" x="378.91" y="579.25" font-size="46.954" transform="scale(4.0128 .2492)" id="text180" text-anchor="middle"/>
 <text font-family="Gentium Book Basic" x="1310.91" y="151.36" line-height="125%" font-size="129.23" id="text182" word-spacing="0" letter-spacing="0"><tspan x="1310.91" y="151.36" id="tspan184"/>
 </text>
 <text font-family="Arial" x="523.76" y="258.22" font-size="46.954" transform="scale(4.0128 .2492)" id="text186" text-anchor="middle"/>
 <text font-family="Gentium Book Basic" x="239.33" y="-29.901" line-height="125%" font-size="129.23" id="text188" word-spacing="0" letter-spacing="0"><tspan x="239.33" y="-29.901" id="tspan190"/>
 </text>
 <text font-family="Arial" x="256.72" y="-469.14" font-size="46.954" transform="scale(4.0128 .2492)" id="text192" text-anchor="middle"/>
 <text font-family="Gentium Book Basic" x="1337.38" y="-246.37" line-height="125%" font-size="129.23" id="text194" word-spacing="0" letter-spacing="0"><tspan x="1337.38" y="-246.37" id="tspan196"/>
 </text>
 <text font-family="Arial" x="530.36" y="-1337.8" font-size="46.954" transform="scale(4.0128 .2492)" id="text198" text-anchor="middle"/>
 <text font-family="Gentium Book Basic" x="1918.65" y="-326.38" line-height="125%" font-size="129.23" id="text200" word-spacing="0" letter-spacing="0"><tspan x="1918.65" y="-326.38" id="tspan202"/>
 </text>
 <text font-family="Arial" x="675.21" y="-1658.84" font-size="46.954" transform="scale(4.0128 .2492)" id="text204" text-anchor="middle"/>
 <text font-family="Gentium Book Basic" x="1529.53" y="-798.78" line-height="125%" font-size="129.23" id="text206" word-spacing="0" letter-spacing="0"><tspan x="1529.53" y="-798.78" id="tspan208"/>
 </text>
 <text font-family="Arial" x="578.24" y="-3554.49" font-size="46.954" transform="scale(4.0128 .2492)" id="text210" text-anchor="middle"/>
 <text font-family="Gentium Book Basic" x="2110.79" y="-878.78" line-height="125%" font-size="129.23" id="text212" word-spacing="0" letter-spacing="0"><tspan x="2110.79" y="-878.78" id="tspan214"/>
 </text>
 <text font-family="Arial" x="723.09" y="-3875.52" font-size="46.954" transform="scale(4.0128 .2492)" id="text216" text-anchor="middle"/>
 <g line-height="125%" font-family="Gentium Book Basic" id="g218" word-spacing="0" letter-spacing="0">
  <text font-size="208.33" x="277.99" y="535.94" id="text220"><tspan x="277.99" y="535.94" id="tspan222"/>
  </text>
  <text font-size="129.23" x="104.96" y="227.12" id="text224"><tspan x="104.96" y="227.12" id="tspan226"/>
  </text>
 </g>
 <text font-family="Arial" x="223.24" y="562.23" font-size="46.954" transform="scale(4.0128 .2492)" id="text228" text-anchor="middle"/>
 <text font-family="Gentium Book Basic" x="686.23" y="147.11" line-height="125%" font-size="129.23" id="text230" word-spacing="0" letter-spacing="0"><tspan x="686.23" y="147.11" id="tspan232"/>
 </text>
 <text font-family="Arial" x="368.09" y="241.19" font-size="46.954" transform="scale(4.0128 .2492)" id="text234" text-anchor="middle"/>
 <text font-family="Gentium Book Basic" x="-385.35" y="-34.14" line-height="125%" font-size="129.23" id="text236" word-spacing="0" letter-spacing="0"><tspan x="-385.35" y="-34.14" id="tspan238"/>
 </text>
 <text font-family="Arial" x="101.05" y="-486.16" font-size="46.954" transform="scale(4.0128 .2492)" id="text240" text-anchor="middle"/>
 <text font-family="Gentium Book Basic" x="712.7" y="-250.62" line-height="125%" font-size="129.23" id="text242" word-spacing="0" letter-spacing="0"><tspan x="712.7" y="-250.62" id="tspan244"/>
 </text>
 <text font-family="Arial" x="374.69" y="-1354.84" font-size="46.954" transform="scale(4.0128 .2492)" id="text246" text-anchor="middle"/>
 <text font-family="Gentium Book Basic" x="1293.97" y="-330.62" line-height="125%" font-size="129.23" id="text248" word-spacing="0" letter-spacing="0"><tspan x="1293.97" y="-330.62" id="tspan250"/>
 </text>
 <text font-family="Arial" x="519.54" y="-1675.87" font-size="46.954" transform="scale(4.0128 .2492)" id="text252" text-anchor="middle"/>
 <text font-family="Gentium Book Basic" x="904.85" y="-803.02" line-height="125%" font-size="129.23" id="text254" word-spacing="0" letter-spacing="0"><tspan x="904.85" y="-803.02" id="tspan256"/>
 </text>
 <text font-family="Arial" x="422.57" y="-3571.53" font-size="46.954" transform="scale(4.0128 .2492)" id="text258" text-anchor="middle"/>
 <text font-family="Gentium Book Basic" x="1486.12" y="-883.02" line-height="125%" font-size="129.23" id="text260" word-spacing="0" letter-spacing="0"><tspan x="1486.12" y="-883.02" id="tspan262"/>
 </text>
 <text font-family="Arial" x="567.42" y="-3892.57" font-size="46.954" transform="scale(4.0128 .2492)" id="text264" text-anchor="middle"/>
 <g line-height="125%" font-family="Gentium Book Basic" id="g266" word-spacing="0" letter-spacing="0">
  <text font-size="208.33" x="-346.69" y="531.69" id="text268"><tspan x="-346.69" y="531.69" id="tspan270"/>
  </text>
  <text font-size="200" x="-931.86" y="-15.584" id="text272"><tspan x="-931.86" y="-15.584" id="tspan274"/>
  </text>
 </g>
 <text font-family="Arial" x="72.797" y="-602.91" font-size="72.67" transform="scale(4.0128 .2492)" id="text276" text-anchor="middle"/>
 <text font-family="Gentium Book Basic" x="-186.48" y="37.559" line-height="125%" font-size="200" id="text278" word-spacing="0" letter-spacing="0"><tspan x="-186.48" y="37.559" id="tspan280"/>
 </text>
 <text font-family="Arial" x="258.55" y="-389.66" font-size="72.67" transform="scale(4.0128 .2492)" id="text282" text-anchor="middle"/>
 <text font-family="Gentium Book Basic" x="713.13" y="-86.26" line-height="125%" font-size="200" id="text284" word-spacing="0" letter-spacing="0"><tspan x="713.13" y="-86.26" id="tspan286"/>
 </text>
 <text font-family="Arial" x="482.73" y="-886.51" font-size="72.67" transform="scale(4.0128 .2492)" id="text288" text-anchor="middle"/>
 <text font-family="Gentium Book Basic" x="-159.02" y="-138.9" line-height="125%" font-size="200" id="text290" word-spacing="0" letter-spacing="0"><tspan x="-159.02" y="-138.9" id="tspan292"/>
 </text>
 <text font-family="Arial" x="265.39" y="-1097.74" font-size="72.67" transform="scale(4.0128 .2492)" id="text294" text-anchor="middle"/>
 <text font-family="Gentium Book Basic" x="740.6" y="-262.71" line-height="125%" font-size="200" id="text296" word-spacing="0" letter-spacing="0"><tspan x="740.6" y="-262.71" id="tspan298"/>
 </text>
 <text font-family="Arial" x="489.57" y="-1594.6" font-size="72.67" transform="scale(4.0128 .2492)" id="text300" text-anchor="middle"/>
 <text font-family="Gentium Book Basic" x="-3169" y="312.99" line-height="125%" font-size="200" id="text302" word-spacing="0" letter-spacing="0"><tspan x="-3169" y="312.99" id="tspan304"/>
 </text>
 <text font-family="Arial" x="-484.7" y="715.59" font-size="72.67" transform="scale(4.0128 .2492)" id="text306" text-anchor="middle"/>
 <text font-family="Gentium Book Basic" x="-1240.72" y="77.56" line-height="125%" font-size="200" id="text308" word-spacing="0" letter-spacing="0"><tspan x="-1240.72" y="77.56" id="tspan310"/>
 </text>
 <text font-family="Arial" x="-4.17" y="-229.14" font-size="72.67" transform="scale(4.0128 .2492)" id="text312" text-anchor="middle"/>
 <text font-family="Gentium Book Basic" x="-495.34" y="130.7" line-height="125%" font-size="200" id="text314" word-spacing="0" letter-spacing="0"><tspan x="-495.34" y="130.7" id="tspan316"/>
 </text>
 <text font-family="Arial" x="181.58" y="-15.889" font-size="72.67" transform="scale(4.0128 .2492)" id="text318" text-anchor="middle"/>
 <text font-family="Gentium Book Basic" x="404.27" y="6.884" line-height="125%" font-size="200" id="text320" word-spacing="0" letter-spacing="0"><tspan x="404.27" y="6.884" id="tspan322"/>
 </text>
 <text font-family="Arial" x="405.76" y="-512.75" font-size="72.67" transform="scale(4.0128 .2492)" id="text324" text-anchor="middle"/>
 <text font-family="Gentium Book Basic" x="-467.88" y="-45.754" line-height="125%" font-size="200" id="text326" word-spacing="0" letter-spacing="0"><tspan x="-467.88" y="-45.754" id="tspan328"/>
 </text>
 <text font-family="Arial" x="188.42" y="-723.97" font-size="72.67" transform="scale(4.0128 .2492)" id="text330" text-anchor="middle"/>
 <text font-family="Gentium Book Basic" x="431.74" y="-169.57" line-height="125%" font-size="200" id="text332" word-spacing="0" letter-spacing="0"><tspan x="431.74" y="-169.57" id="tspan334"/>
 </text>
 <text font-family="Arial" x="412.61" y="-1220.83" font-size="72.67" transform="scale(4.0128 .2492)" id="text336" text-anchor="middle"/>
 <text font-family="Gentium Book Basic" x="-3477.86" y="406.13" line-height="125%" font-size="200" id="text338" word-spacing="0" letter-spacing="0"><tspan x="-3477.86" y="406.13" id="tspan340"/>
 </text>
 <text font-family="Arial" x="-561.67" y="1089.36" font-size="72.67" transform="scale(4.0128 .2492)" id="text342" text-anchor="middle"/>
 <text font-family="Gentium Book Basic" x="-1955.29" y="-39.3" line-height="125%" font-size="200" id="text344" word-spacing="0" letter-spacing="0"><tspan x="-1955.29" y="-39.3" id="tspan346"/>
 </text>
 <text font-family="Arial" x="-182.24" y="-698.07" font-size="72.67" transform="scale(4.0128 .2492)" id="text348" text-anchor="middle"/>
 <text font-family="Gentium Book Basic" x="-1209.91" y="13.844" line-height="125%" font-size="200" id="text350" word-spacing="0" letter-spacing="0"><tspan x="-1209.91" y="13.844" id="tspan352"/>
 </text>
 <text font-family="Arial" x="3.507" y="-484.82" font-size="72.67" transform="scale(4.0128 .2492)" id="text354" text-anchor="middle"/>
 <text font-family="Gentium Book Basic" x="-310.3" y="-109.97" line-height="125%" font-size="200" id="text356" word-spacing="0" letter-spacing="0"><tspan x="-310.3" y="-109.97" id="tspan358"/>
 </text>
 <text font-family="Arial" x="227.69" y="-981.68" font-size="72.67" transform="scale(4.0128 .2492)" id="text360" text-anchor="middle"/>
 <text font-family="Gentium Book Basic" x="-1182.45" y="-162.61" line-height="125%" font-size="200" id="text362" word-spacing="0" letter-spacing="0"><tspan x="-1182.45" y="-162.61" id="tspan364"/>
 </text>
 <text font-family="Arial" x="10.351" y="-1192.9" font-size="72.67" transform="scale(4.0128 .2492)" id="text366" text-anchor="middle"/>
 <text font-family="Gentium Book Basic" x="-282.83" y="-286.43" line-height="125%" font-size="200" id="text368" word-spacing="0" letter-spacing="0"><tspan x="-282.83" y="-286.43" id="tspan370"/>
 </text>
 <text font-family="Arial" x="234.54" y="-1689.76" font-size="72.67" transform="scale(4.0128 .2492)" id="text372" text-anchor="middle"/>
 <text font-family="Gentium Book Basic" x="-4192.43" y="289.27" line-height="125%" font-size="200" id="text374" word-spacing="0" letter-spacing="0"><tspan x="-4192.43" y="289.27" id="tspan376"/>
 </text>
 <text font-family="Arial" x="-739.74" y="620.43" font-size="72.67" transform="scale(4.0128 .2492)" id="text378" text-anchor="middle"/>
 <g transform="matrix(7.7418,0,0,7.7418,124.39,101.16)" fill="#ffffff" id="g380">
  <path d="m30 0h-26c-2.21 0-4 1.79-4 4v32c0 2.209 1.79 4 4 4h26c2.209 0 4-1.791 4-4v-32c0-2.21-1.791-4-4-4m-13 38c-1.104 0-2-0.896-2-2s0.896-2 2-2 2 0.896 2 2-0.896 2-2 2m13-6h-26v-27.999h26v27.999" id="path382"/>
 </g>
</svg>
