<?xml version="1.0" encoding="UTF-8" standalone="no"?>
<svg xmlns="http://www.w3.org/2000/svg" xmlns:sodipodi="http://sodipodi.sourceforge.net/DTD/sodipodi-0.dtd" xmlns:inkscape="http://www.inkscape.org/namespaces/inkscape" version="1.1" width="512" height="512" viewBox="0 0 512 512">
 <metadata id="metadata100"/>
 <defs id="defs4">
  <clipPath id="3">
   <path id="path7" d="M 11,8.523 H 31 V 29.477 H 11 z"/>
  </clipPath>
  <clipPath id="2">
   <path id="path10" d="M 4.156,8.523 H 17 V 29.477 H 4.156 z"/>
  </clipPath>
  <clipPath id="0">
   <path id="path13" d="m 25,19 h 8.844 v 5 H 25 z"/>
  </clipPath>
  <clipPath id="1">
   <path id="path16" d="m 22,14 h 11.844 v 5 H 22 z"/>
  </clipPath>
 </defs>
 <path id="path18" inkscape:connector-curvature="0" d="m 471.95,253.05 c 0,120.9 -98.01,218.9 -218.9,218.9 -120.9,0 -218.9,-98.01 -218.9,-218.9 0,-120.9 98.01,-218.9 218.9,-218.9 120.9,0 218.9,98.01 218.9,218.9" fill="#919191" fill-rule="evenodd"/>
 <path id="path20" inkscape:connector-curvature="0" d="m 162.59,154.06 c -4.04,1.082 -6.474,7.87 -13.281,0.781 -12.471,0 -25.22,-0.75 -37.688,-0.75 l 67.938,101.91 -67.938,101.91 c 37.475,38.38 69.51,68.71 113.53,112.28 9.13,1.161 18.43,1.781 27.875,1.781 110.72,0 202.26,-82.23 216.88,-188.94 -28.08,-28.09 -45.571,-45.633 -69.44,-69.5 -32.15,-0.146 -79.57,0.293 -111.53,-0.219 -22.07,-22.07 -36.07,-36.848 -58.44,-59.22 h -50.938 c 11.393,17.379 23.961,35.387 34.625,52.38 -18.718,-18.718 -38.01,-38.826 -51.594,-52.41" fill-opacity="0.235"/>
 <g id="g22" fill-rule="evenodd">
  <path id="path24" inkscape:connector-curvature="0" d="M 256,1 C 115.17,1 1,115.17 1,256 1,396.83 115.17,511 256,511 396.83,511 511,396.83 511,256 511,115.17 396.83,1 256,1 m 8.827,44.931 c 120.9,0 218.9,98 218.9,218.9 0,120.9 -98,218.9 -218.9,218.9 -120.9,0 -218.93,-98 -218.93,-218.9 0,-120.9 98.03,-218.9 218.93,-218.9" fill-opacity="0.067"/>
  <g id="g26" fill-opacity="0.129">
   <path id="path28" inkscape:connector-curvature="0" d="m 256,4.433 c -138.94,0 -251.57,112.63 -251.57,251.57 0,138.94 112.63,251.57 251.57,251.57 138.94,0 251.57,-112.63 251.57,-251.57 C 507.57,117.063 394.94,4.433 256,4.433 m 5.885,38.556 c 120.9,0 218.9,98 218.9,218.9 0,120.9 -98,218.9 -218.9,218.9 -120.9,0 -218.93,-98 -218.93,-218.9 0,-120.9 98.03,-218.9 218.93,-218.9"/>
   <path id="path30" inkscape:connector-curvature="0" d="m 256,8.356 c -136.77,0 -247.64,110.87 -247.64,247.64 0,136.77 110.87,247.64 247.64,247.64 136.77,0 247.64,-110.87 247.64,-247.64 C 503.64,119.226 392.77,8.356 256,8.356 m 2.942,31.691 c 120.9,0 218.9,98 218.9,218.9 0,120.9 -98,218.9 -218.9,218.9 -120.9,0 -218.93,-98 -218.93,-218.9 0,-120.9 98.03,-218.9 218.93,-218.9"/>
  </g>
  <path id="path32" inkscape:connector-curvature="0" d="m 253.04,7.859 c -135.42,0 -245.19,109.78 -245.19,245.19 0,135.42 109.78,245.19 245.19,245.19 135.42,0 245.19,-109.78 245.19,-245.19 0,-135.42 -109.78,-245.19 -245.19,-245.19 z m 0,26.297 c 120.9,0 218.9,98 218.9,218.9 0,120.9 -98,218.9 -218.9,218.9 -120.9,0 -218.93,-98 -218.93,-218.9 0,-120.9 98.03,-218.9 218.93,-218.9 z" stroke-opacity="0.31" fill="#ffffff" stroke="#000000" stroke-width="4.904"/>
 </g>
 <text id="text34" y="231.36" x="729.64" font-family="Gentium Book Basic" word-spacing="0" line-height="125%" letter-spacing="0" font-size="129.23"><tspan id="tspan36" y="231.36" x="729.64"/>
 </text>
 <text id="text38" transform="scale(4.0128,0.2492)" y="579.25" x="378.91" font-family="Arial" text-anchor="middle" font-size="46.954"/>
 <text id="text40" y="151.36" x="1310.91" font-family="Gentium Book Basic" word-spacing="0" line-height="125%" letter-spacing="0" font-size="129.23"><tspan id="tspan42" y="151.36" x="1310.91"/>
 </text>
 <text id="text44" transform="scale(4.0128,0.2492)" y="258.22" x="523.76" font-family="Arial" text-anchor="middle" font-size="46.954"/>
 <text id="text46" y="-29.901" x="239.33" font-family="Gentium Book Basic" word-spacing="0" line-height="125%" letter-spacing="0" font-size="129.23"><tspan id="tspan48" y="-29.901" x="239.33"/>
 </text>
 <text id="text50" transform="scale(4.0128,0.2492)" y="-469.14" x="256.72" font-family="Arial" text-anchor="middle" font-size="46.954"/>
 <text id="text52" y="-246.37" x="1337.38" font-family="Gentium Book Basic" word-spacing="0" line-height="125%" letter-spacing="0" font-size="129.23"><tspan id="tspan54" y="-246.37" x="1337.38"/>
 </text>
 <text id="text56" transform="scale(4.0128,0.2492)" y="-1337.81" x="530.36" font-family="Arial" text-anchor="middle" font-size="46.954"/>
 <text id="text58" y="-326.38" x="1918.65" font-family="Gentium Book Basic" word-spacing="0" line-height="125%" letter-spacing="0" font-size="129.23"><tspan id="tspan60" y="-326.38" x="1918.65"/>
 </text>
 <text id="text62" transform="scale(4.0128,0.2492)" y="-1658.85" x="675.21" font-family="Arial" text-anchor="middle" font-size="46.954"/>
 <text id="text64" y="-798.78" x="1529.53" font-family="Gentium Book Basic" word-spacing="0" line-height="125%" letter-spacing="0" font-size="129.23"><tspan id="tspan66" y="-798.78" x="1529.53"/>
 </text>
 <text id="text68" transform="scale(4.0128,0.2492)" y="-3554.51" x="578.24" font-family="Arial" text-anchor="middle" font-size="46.954"/>
 <text id="text70" y="-878.78" x="2110.79" font-family="Gentium Book Basic" word-spacing="0" line-height="125%" letter-spacing="0" font-size="129.23"><tspan id="tspan72" y="-878.78" x="2110.79"/>
 </text>
 <text id="text74" transform="scale(4.0128,0.2492)" y="-3875.54" x="723.09" font-family="Arial" text-anchor="middle" font-size="46.954"/>
 <text id="text76" y="535.94" x="277.99" font-family="Gentium Book Basic" word-spacing="0" line-height="125%" letter-spacing="0" font-size="208.33"><tspan id="tspan78" y="535.94" x="277.99"/>
 </text>
 <g id="g80" transform="matrix(9.72692,0,0,9.72692,71.19,71.18)" fill="#ffffff">
  <g id="g82" clip-path="url(#2)">
   <path id="path84" inkscape:connector-curvature="0" d="M 4.156,29.477 11.141,19 4.156,8.523 H 9.394 L 16.379,19 9.394,29.477 z"/>
  </g>
  <g id="g86" clip-path="url(#3)">
   <path id="path88" inkscape:connector-curvature="0" d="M 11.141,29.477 18.125,19 11.141,8.523 h 5.238 l 13.973,20.954 h -5.239 l -4.367,-6.547 -4.367,6.547 z"/>
  </g>
  <g id="g90" clip-path="url(#0)">
   <path id="path92" inkscape:connector-curvature="0" d="m 28.02,23.367 -2.328,-3.492 8.149,-0.004 v 3.496 z"/>
  </g>
  <g id="g94" clip-path="url(#1)">
   <path id="path96" inkscape:connector-curvature="0" d="M 24.531,18.13 22.203,14.638 H 33.844 V 18.13 z"/>
  </g>
 </g>
</svg>
