<?xml version="1.0" encoding="UTF-8" standalone="no"?>
<svg xmlns="http://www.w3.org/2000/svg" xmlns:sodipodi="http://sodipodi.sourceforge.net/DTD/sodipodi-0.dtd" xmlns:inkscape="http://www.inkscape.org/namespaces/inkscape" version="1.1" width="512" height="512" viewBox="0 0 512 512">
 <metadata id="metadata102"/>
 <g id="g4" font-family="Gentium Book Basic" word-spacing="0" line-height="125%" letter-spacing="0" font-size="208.33">
  <text id="text6" y="89.28" x="478.8"><tspan id="tspan8" y="89.28" x="478.8"/>
  </text>
  <text id="text10" y="367.4" x="-1880.03"><tspan id="tspan12" y="367.4" x="-1880.03"/>
  </text>
  <text id="text14" y="140.11" x="-1591.81"><tspan id="tspan16" y="140.11" x="-1591.81"/>
  </text>
  <text id="text18" y="-116.79" x="2602.79"><tspan id="tspan20" y="-116.79" x="2602.79"/>
  </text>
  <text id="text22" y="28.25" x="474.85"><tspan id="tspan24" y="28.25" x="474.85"/>
  </text>
  <text id="text26" y="306.36" x="-1883.98"><tspan id="tspan28" y="306.36" x="-1883.98"/>
  </text>
  <text id="text30" y="79.08" x="-1595.76"><tspan id="tspan32" y="79.08" x="-1595.76"/>
  </text>
 </g>
 <g id="g34" fill-rule="evenodd">
  <path id="path36" inkscape:connector-curvature="0" d="m 471.95,253.05 c 0,120.9 -98.01,218.9 -218.9,218.9 -120.9,0 -218.9,-98.01 -218.9,-218.9 0,-120.9 98.01,-218.9 218.9,-218.9 120.9,0 218.9,98.01 218.9,218.9" fill="#585858"/>
  <path id="path38" inkscape:connector-curvature="0" d="m 363.94,172.03 -49.34,4.813 1.438,14.906 0.906,-0.094 0.094,1.094 0.906,-0.094 c 0.014,0.148 0.094,1.094 0.094,1.094 l 0.906,-0.094 c 0.014,0.148 0.094,1.094 0.094,1.094 l 0.875,-0.094 c 0.014,0.14 0.094,1.063 0.094,1.063 0,0 0.733,-0.077 0.906,-0.094 0.014,0.148 0.094,1.094 0.094,1.094 0,0 0.733,-0.077 0.906,-0.094 0.014,0.148 0.094,1.094 0.094,1.094 l 0.906,-0.094 0.094,1.094 c 0,0 0.733,-0.077 0.906,-0.094 0.014,0.148 0.094,1.094 0.094,1.094 0,0 0.733,-0.077 0.906,-0.094 0.014,0.148 0.094,1.094 0.094,1.094 l 0.875,-0.094 c 0.014,0.14 0.094,1.063 0.094,1.063 0,0 0.469,-0.056 0.531,-0.063 l 4.094,21.75 -48.37,4.719 c -0.053,-0.05 -0.103,-0.107 -0.156,-0.156 -0.303,-0.324 -0.616,-0.64 -0.938,-0.938 -0.307,-0.331 -0.643,-0.634 -0.969,-0.938 -0.338,-0.367 -0.671,-0.729 -1.031,-1.063 -0.36,-0.388 -0.739,-0.743 -1.125,-1.094 -0.276,-0.292 -0.553,-0.573 -0.844,-0.844 -0.352,-0.381 -0.717,-0.749 -1.094,-1.094 -0.299,-0.319 -0.59,-0.645 -0.906,-0.938 -0.307,-0.331 -0.643,-0.634 -0.969,-0.938 -0.338,-0.367 -0.671,-0.729 -1.031,-1.063 -0.36,-0.388 -0.739,-0.743 -1.125,-1.094 -0.276,-0.292 -0.553,-0.573 -0.844,-0.844 -0.352,-0.381 -0.717,-0.749 -1.094,-1.094 -0.299,-0.319 -0.59,-0.645 -0.906,-0.938 -0.307,-0.331 -0.643,-0.634 -0.969,-0.938 -3.333,-3.62 -7.818,-5.681 -12.563,-5.219 -8.924,0.869 -15.322,10.24 -14.281,20.938 0.001,0.01 -0.001,0.021 0,0.031 -0.004,0 -0.706,0.061 -0.719,0.063 -0.017,-0.174 -0.094,-1.094 -0.094,-1.094 -0.001,0 -0.86,0.092 -0.875,0.094 -0.017,-0.175 -0.125,-1.094 -0.125,-1.094 -0.001,0 -0.89,0.092 -0.906,0.094 -0.017,-0.174 -0.094,-1.094 -0.094,-1.094 -0.001,0 -0.89,0.092 -0.906,0.094 -0.017,-0.174 -0.094,-1.094 -0.094,-1.094 -0.001,0 -0.89,0.092 -0.906,0.094 -0.017,-0.174 -0.094,-1.094 -0.094,-1.094 -0.001,0 -0.89,0.092 -0.906,0.094 -0.017,-0.174 -0.094,-1.094 -0.094,-1.094 -0.001,0 -0.86,0.092 -0.875,0.094 -0.016,-0.165 -0.094,-1.063 -0.094,-1.063 -0.001,0 -0.89,0.092 -0.906,0.094 -0.017,-0.174 -0.094,-1.094 -0.094,-1.094 l -0.906,0.094 c -0.017,-0.174 -0.094,-1.094 -0.094,-1.094 l -0.906,0.094 c -0.017,-0.174 -0.094,-1.094 -0.094,-1.094 l -0.906,0.094 c -0.017,-0.174 -0.094,-1.094 -0.094,-1.094 l -0.906,0.094 c -0.017,-0.174 -0.094,-1.094 -0.094,-1.094 l -0.875,0.094 c -0.016,-0.165 -0.094,-1.063 -0.094,-1.063 l -0.906,0.094 c -0.017,-0.174 -0.094,-1.094 -0.094,-1.094 -0.001,0 -0.89,0.092 -0.906,0.094 -0.017,-0.174 -0.094,-1.094 -0.094,-1.094 -0.001,0 -0.89,0.092 -0.906,0.094 -0.017,-0.174 -0.094,-1.094 -0.094,-1.094 -0.001,0 -0.89,0.092 -0.906,0.094 -0.017,-0.174 -0.094,-1.094 -0.094,-1.094 -0.001,0 -0.89,0.092 -0.906,0.094 -0.017,-0.174 -0.094,-1.094 -0.094,-1.094 -0.001,0 -0.86,0.092 -0.875,0.094 -0.016,-0.165 -0.094,-1.063 -0.094,-1.063 -0.002,0 -0.89,0.092 -0.906,0.094 -0.017,-0.174 -0.094,-1.094 -0.094,-1.094 -0.002,0 -0.89,0.092 -0.906,0.094 -0.017,-0.174 -0.094,-1.094 -0.094,-1.094 -0.002,0 -0.89,0.092 -0.906,0.094 -0.017,-0.174 -0.094,-1.094 -0.094,-1.094 -0.002,0 -0.89,0.092 -0.906,0.094 -0.017,-0.174 -0.094,-1.094 -0.094,-1.094 -0.002,0 -0.89,0.092 -0.906,0.094 -0.017,-0.174 -0.094,-1.094 -0.094,-1.094 -0.002,0 -0.89,0.092 -0.906,0.094 -0.017,-0.174 -0.094,-1.094 -0.094,-1.094 -0.002,0 -0.86,0.092 -0.875,0.094 -0.016,-0.165 -0.094,-1.063 -0.094,-1.063 -0.002,0 -0.89,0.092 -0.906,0.094 -0.017,-0.174 -0.094,-1.094 -0.094,-1.094 -0.002,0 -0.89,0.092 -0.906,0.094 -0.017,-0.174 -0.094,-1.094 -0.094,-1.094 -0.002,0 -0.89,0.092 -0.906,0.094 -0.017,-0.174 -0.094,-1.094 -0.094,-1.094 -0.002,0 -0.89,0.092 -0.906,0.094 -0.017,-0.174 -0.094,-1.094 -0.094,-1.094 -0.002,0 -0.89,0.092 -0.906,0.094 -0.017,-0.174 -0.094,-1.094 -0.094,-1.094 -0.002,0 -0.86,0.092 -0.875,0.094 -0.016,-0.165 -0.094,-1.063 -0.094,-1.063 -0.002,0 -0.89,0.092 -0.906,0.094 -0.017,-0.174 -0.094,-1.094 -0.094,-1.094 -0.002,0 -0.89,0.092 -0.906,0.094 -0.017,-0.174 -0.094,-1.094 -0.094,-1.094 -0.002,0 -0.89,0.092 -0.906,0.094 -0.017,-0.174 -0.094,-1.094 -0.094,-1.094 -0.002,0 -0.89,0.092 -0.906,0.094 -0.017,-0.174 -0.094,-1.094 -0.094,-1.094 -0.002,0 -0.89,0.092 -0.906,0.094 -0.017,-0.174 -0.094,-1.094 -0.094,-1.094 -0.002,0 -0.86,0.092 -0.875,0.094 -0.016,-0.165 -0.094,-1.063 -0.094,-1.063 -0.002,0 -0.89,0.092 -0.906,0.094 -0.017,-0.174 -0.094,-1.094 -0.094,-1.094 -0.002,0 -0.89,0.092 -0.906,0.094 -0.017,-0.174 -0.094,-1.094 -0.094,-1.094 l -0.906,0.094 c -0.017,-0.174 -0.094,-1.094 -0.094,-1.094 l -0.906,0.094 c -0.017,-0.174 -0.094,-1.094 -0.094,-1.094 l -0.906,0.094 c -0.017,-0.174 -0.094,-1.094 -0.094,-1.094 l -0.875,0.094 c -0.016,-0.165 -0.094,-1.063 -0.094,-1.063 l -0.906,0.094 c -0.017,-0.174 -0.094,-1.094 -0.094,-1.094 l -0.906,0.094 c -0.017,-0.174 -0.094,-1.094 -0.094,-1.094 l -0.906,0.094 c -0.017,-0.174 -0.094,-1.094 -0.094,-1.094 -0.213,0.021 -109.37,10.625 -109.37,10.625 0.009,0.096 1.219,12.438 1.219,12.438 0.007,-0.001 0.732,-0.077 0.906,-0.094 l 0.094,1.094 c 0.007,-0.001 0.732,-0.077 0.906,-0.094 0.017,0.174 0.094,1.094 0.094,1.094 0.007,-0.001 0.732,-0.077 0.906,-0.094 l 0.094,1.094 c 0.007,-0.001 0.712,-0.078 0.875,-0.094 0.016,0.165 0.094,1.063 0.094,1.063 0.007,-10e-4 0.732,-0.077 0.906,-0.094 0.017,0.174 0.094,1.094 0.094,1.094 0.007,-10e-4 0.733,-0.077 0.906,-0.094 0.017,0.174 0.094,1.094 0.094,1.094 0.007,-10e-4 0.733,-0.077 0.906,-0.094 0.017,0.174 0.094,1.094 0.094,1.094 0.007,-10e-4 0.733,-0.077 0.906,-0.094 0.017,0.174 0.094,1.094 0.094,1.094 0.007,-10e-4 0.733,-0.077 0.906,-0.094 0.017,0.174 0.094,1.094 0.094,1.094 0.004,0 0.515,-0.055 0.594,-0.063 l 3.094,30.844 6.438,66.31 0.906,-0.094 c 0.003,0.035 0.094,1.094 0.094,1.094 0.007,-10e-4 0.807,-0.084 0.906,-0.094 l 0.094,1.094 c 0.007,-10e-4 0.807,-0.084 0.906,-0.094 0.003,0.035 0.094,1.094 0.094,1.094 l 0.875,-0.094 c 0.003,0.033 0.094,1.063 0.094,1.063 0.007,-10e-4 0.807,-0.084 0.906,-0.094 0.003,0.035 0.094,1.094 0.094,1.094 0.007,-10e-4 0.807,-0.084 0.906,-0.094 l 0.094,1.094 c 0.007,-10e-4 0.807,-0.084 0.906,-0.094 0.003,0.035 0.094,1.094 0.094,1.094 0.007,-10e-4 0.807,-0.084 0.906,-0.094 0.003,0.035 0.094,1.094 0.094,1.094 l 0.906,-0.094 c 0.003,0.035 0.094,1.094 0.094,1.094 0.006,-10e-4 0.782,-0.085 0.875,-0.094 l 0.094,1.063 c 0.007,-10e-4 0.807,-0.084 0.906,-0.094 0.003,0.035 0.094,1.094 0.094,1.094 l 0.906,-0.094 c 0.003,0.035 0.094,1.094 0.094,1.094 0.007,-10e-4 0.807,-0.084 0.906,-0.094 0.003,0.035 0.094,1.094 0.094,1.094 0.007,-10e-4 0.807,-0.084 0.906,-0.094 l 0.094,1.094 c 0.007,-10e-4 0.807,-0.084 0.906,-0.094 0.003,0.035 0.094,1.094 0.094,1.094 0.006,-10e-4 0.782,-0.085 0.875,-0.094 0.003,0.033 0.094,1.063 0.094,1.063 l 0.781,-0.063 c 0.053,0.145 0.101,0.294 0.156,0.438 10e-4,0.012 0.063,0.625 0.063,0.625 10e-4,0 0.152,-0.031 0.156,-0.031 1.433,3.491 3.607,6.565 6.281,9.09 0.314,0.33 0.639,0.656 0.969,0.969 0.458,0.483 0.913,0.96 1.406,1.406 0.333,0.336 0.649,0.682 1,1 0.333,0.336 0.649,0.682 1,1 0.151,0.152 0.283,0.32 0.438,0.469 0.363,0.387 0.771,0.76 1.156,1.125 0.314,0.33 0.639,0.656 0.969,0.969 0.458,0.483 0.913,0.96 1.406,1.406 0.333,0.336 0.649,0.682 1,1 0.333,0.336 0.649,0.682 1,1 0.161,0.163 0.303,0.341 0.469,0.5 0.36,0.384 0.743,0.732 1.125,1.094 0.314,0.33 0.639,0.656 0.969,0.969 0.458,0.483 0.913,0.96 1.406,1.406 0.333,0.336 0.649,0.682 1,1 0.333,0.336 0.649,0.682 1,1 0.333,0.336 0.649,0.682 1,1 0.151,0.152 0.283,0.32 0.438,0.469 0.492,0.525 1.03,1.048 1.563,1.531 0.134,0.135 0.27,0.275 0.406,0.406 0.505,0.541 1.015,1.066 1.563,1.563 0.333,0.336 0.649,0.682 1,1 0.333,0.336 0.649,0.682 1,1 0.151,0.152 0.283,0.32 0.438,0.469 0.363,0.387 0.771,0.76 1.156,1.125 0.314,0.33 0.639,0.656 0.969,0.969 0.458,0.483 0.913,0.96 1.406,1.406 0.333,0.336 0.649,0.682 1,1 0.333,0.336 0.649,0.682 1,1 0.151,0.152 0.283,0.32 0.438,0.469 0.363,0.387 0.771,0.76 1.156,1.125 0.314,0.33 0.639,0.656 0.969,0.969 0.458,0.483 0.913,0.96 1.406,1.406 0.333,0.336 0.649,0.682 1,1 0.333,0.336 0.649,0.682 1,1 0.333,0.336 0.649,0.682 1,1 0.151,0.152 0.283,0.32 0.438,0.469 0.356,0.38 0.748,0.736 1.125,1.094 0.273,0.288 0.558,0.569 0.844,0.844 0.505,0.541 1.015,1.066 1.563,1.563 0.333,0.336 0.649,0.682 1,1 0.333,0.336 0.649,0.682 1,1 0.151,0.152 0.283,0.32 0.438,0.469 0.363,0.387 0.771,0.76 1.156,1.125 0.314,0.33 0.639,0.656 0.969,0.969 0.458,0.483 0.913,0.96 1.406,1.406 0.333,0.336 0.649,0.682 1,1 0.333,0.336 0.649,0.682 1,1 0.151,0.152 0.283,0.32 0.438,0.469 0.363,0.387 0.771,0.76 1.156,1.125 0.314,0.33 0.639,0.656 0.969,0.969 0.458,0.483 0.913,0.96 1.406,1.406 0.333,0.336 0.649,0.682 1,1 0.333,0.336 0.649,0.682 1,1 0.161,0.163 0.303,0.341 0.469,0.5 0.36,0.384 0.743,0.732 1.125,1.094 0.314,0.33 0.639,0.656 0.969,0.969 0.458,0.483 0.913,0.96 1.406,1.406 0.333,0.336 0.649,0.682 1,1 0.333,0.336 0.649,0.682 1,1 0.333,0.336 0.649,0.682 1,1 0.151,0.152 0.283,0.32 0.438,0.469 0.492,0.525 1.03,1.048 1.563,1.531 0.134,0.135 0.27,0.275 0.406,0.406 0.505,0.541 1.015,1.066 1.563,1.563 0.333,0.336 0.649,0.682 1,1 0.333,0.336 0.649,0.682 1,1 0.151,0.152 0.283,0.32 0.438,0.469 0.363,0.387 0.771,0.76 1.156,1.125 0.314,0.33 0.639,0.656 0.969,0.969 0.458,0.483 0.913,0.96 1.406,1.406 0.333,0.336 0.649,0.682 1,1 0.333,0.336 0.649,0.682 1,1 0.151,0.152 0.283,0.32 0.438,0.469 0.363,0.387 0.771,0.76 1.156,1.125 0.314,0.33 0.639,0.656 0.969,0.969 0.458,0.483 0.913,0.96 1.406,1.406 0.333,0.336 0.649,0.682 1,1 0.333,0.336 0.649,0.682 1,1 0.333,0.336 0.649,0.682 1,1 0.151,0.152 0.283,0.32 0.438,0.469 0.356,0.38 0.748,0.736 1.125,1.094 0.273,0.288 0.558,0.569 0.844,0.844 0.505,0.541 1.015,1.066 1.563,1.563 0.333,0.336 0.649,0.682 1,1 0.333,0.336 0.649,0.682 1,1 0.151,0.152 0.283,0.32 0.438,0.469 0.363,0.387 0.771,0.76 1.156,1.125 0.314,0.33 0.639,0.656 0.969,0.969 0.458,0.483 0.913,0.96 1.406,1.406 0.333,0.336 0.649,0.682 1,1 0.333,0.336 0.649,0.682 1,1 0.151,0.152 0.283,0.32 0.438,0.469 0.363,0.387 0.771,0.76 1.156,1.125 0.314,0.33 0.639,0.656 0.969,0.969 0.458,0.483 0.913,0.96 1.406,1.406 0.333,0.336 0.649,0.682 1,1 0.333,0.336 0.649,0.682 1,1 0.208,0.21 0.41,0.422 0.625,0.625 0.314,0.329 0.638,0.656 0.969,0.969 0.314,0.33 0.639,0.656 0.969,0.969 0.458,0.483 0.913,0.96 1.406,1.406 0.333,0.336 0.649,0.682 1,1 0.333,0.336 0.649,0.682 1,1 0.333,0.336 0.649,0.682 1,1 0.151,0.152 0.283,0.32 0.438,0.469 0.492,0.525 1.03,1.048 1.563,1.531 0.134,0.135 0.27,0.275 0.406,0.406 0.505,0.541 1.015,1.066 1.563,1.563 0.333,0.336 0.649,0.682 1,1 0.333,0.336 0.649,0.682 1,1 0.151,0.152 0.283,0.32 0.438,0.469 0.363,0.387 0.771,0.76 1.156,1.125 0.314,0.33 0.639,0.656 0.969,0.969 0.458,0.483 0.913,0.96 1.406,1.406 0.333,0.336 0.649,0.682 1,1 0.333,0.336 0.649,0.682 1,1 0.151,0.152 0.283,0.32 0.438,0.469 0.363,0.387 0.771,0.76 1.156,1.125 0.314,0.33 0.639,0.656 0.969,0.969 0.458,0.483 0.913,0.96 1.406,1.406 0.333,0.336 0.649,0.682 1,1 0.333,0.336 0.649,0.682 1,1 0.333,0.336 0.649,0.682 1,1 0.151,0.152 0.283,0.32 0.438,0.469 0.356,0.38 0.748,0.736 1.125,1.094 0.273,0.288 0.558,0.569 0.844,0.844 0.505,0.541 1.015,1.066 1.563,1.563 0.333,0.336 0.649,0.682 1,1 0.333,0.336 0.649,0.682 1,1 0.151,0.152 0.283,0.32 0.438,0.469 0.363,0.387 0.771,0.76 1.156,1.125 0.314,0.33 0.639,0.656 0.969,0.969 0.408,0.429 0.819,0.847 1.25,1.25 107.84,-4.646 195.44,-87.28 207.81,-192.94 -0.008,-0.096 -0.031,-0.281 -0.031,-0.281 l -0.906,0.094 c -0.015,-0.148 -0.094,-1.094 -0.094,-1.094 l -0.906,0.094 c -0.015,-0.148 -0.094,-1.094 -0.094,-1.094 l -0.906,0.094 c -0.015,-0.148 -0.094,-1.094 -0.094,-1.094 l -0.875,0.094 c -0.014,-0.14 -0.094,-1.063 -0.094,-1.063 l -0.906,0.094 c -0.015,-0.148 -0.094,-1.094 -0.094,-1.094 l -0.906,0.094 c -0.015,-0.148 -0.094,-1.094 -0.094,-1.094 l -0.906,0.094 c -0.015,-0.148 -0.094,-1.094 -0.094,-1.094 l -0.906,0.094 c -0.015,-0.148 -0.094,-1.094 -0.094,-1.094 l -0.906,0.094 c -0.015,-0.148 -0.094,-1.094 -0.094,-1.094 l -0.875,0.094 c -0.014,-0.14 -0.094,-1.063 -0.094,-1.063 l -0.906,0.094 c -0.015,-0.148 -0.094,-1.094 -0.094,-1.094 l -0.906,0.094 -0.094,-1.094 -0.906,0.094 c -0.015,-0.148 -0.094,-1.094 -0.094,-1.094 l -0.906,0.094 c -0.015,-0.148 -0.094,-1.094 -0.094,-1.094 l -0.906,0.094 c -0.015,-0.148 -0.094,-1.094 -0.094,-1.094 l -0.875,0.094 c -0.014,-0.14 -0.094,-1.063 -0.094,-1.063 l -0.906,0.094 c -0.015,-0.148 -0.094,-1.094 -0.094,-1.094 l -0.906,0.094 c -0.015,-0.148 -0.094,-1.094 -0.094,-1.094 l -0.906,0.094 c -0.015,-0.148 -0.094,-1.094 -0.094,-1.094 l -0.906,0.094 c -0.015,-0.148 -0.094,-1.094 -0.094,-1.094 l -0.906,0.094 c -0.015,-0.148 -0.094,-1.094 -0.094,-1.094 l -0.906,0.094 c -0.015,-0.148 -0.094,-1.094 -0.094,-1.094 l -0.875,0.094 c -0.014,-0.14 -0.094,-1.063 -0.094,-1.063 l -0.906,0.094 c -0.015,-0.148 -0.094,-1.094 -0.094,-1.094 l -0.906,0.094 c -0.015,-0.148 -0.094,-1.094 -0.094,-1.094 l -0.906,0.094 c -0.015,-0.148 -0.094,-1.094 -0.094,-1.094 l -0.906,0.094 c -0.015,-0.148 -0.094,-1.094 -0.094,-1.094 l -0.906,0.094 c -0.015,-0.148 -0.094,-1.094 -0.094,-1.094 l -0.875,0.094 c -0.014,-0.14 -0.094,-1.063 -0.094,-1.063 l -0.906,0.094 c -0.015,-0.148 -0.094,-1.094 -0.094,-1.094 l -0.906,0.094 c -0.015,-0.148 -0.094,-1.094 -0.094,-1.094 l -0.906,0.094 c -0.015,-0.148 -0.094,-1.094 -0.094,-1.094 l -0.906,0.094 c -0.015,-0.148 -0.094,-1.094 -0.094,-1.094 l -0.906,0.094 c -0.015,-0.148 -0.094,-1.094 -0.094,-1.094 l -0.875,0.094 c -0.014,-0.14 -0.094,-1.063 -0.094,-1.063 l -0.906,0.094 c -0.015,-0.148 -0.094,-1.094 -0.094,-1.094 l -0.906,0.094 c -0.015,-0.148 -0.094,-1.094 -0.094,-1.094 l -0.906,0.094 c -0.015,-0.148 -0.094,-1.094 -0.094,-1.094 l -0.906,0.094 c -0.015,-0.148 -0.094,-1.094 -0.094,-1.094 l -0.906,0.094 c -0.015,-0.148 -0.094,-1.094 -0.094,-1.094 l -0.906,0.094 c -0.015,-0.148 -0.094,-1.094 -0.094,-1.094 l -0.875,0.094 c -0.014,-0.14 -0.094,-1.063 -0.094,-1.063 l -0.906,0.094 c -0.015,-0.148 -0.094,-1.094 -0.094,-1.094 l -0.906,0.094 c -0.015,-0.148 -0.094,-1.094 -0.094,-1.094 l -0.906,0.094 c -0.015,-0.148 -0.094,-1.094 -0.094,-1.094 l -0.906,0.094 c -0.015,-0.148 -0.094,-1.094 -0.094,-1.094 l -0.906,0.094 -0.094,-1.094 -0.875,0.094 c -0.014,-0.14 -0.094,-1.063 -0.094,-1.063 l -0.906,0.094 c -0.015,-0.148 -0.094,-1.094 -0.094,-1.094 l -0.906,0.094 c -0.015,-0.148 -0.094,-1.094 -0.094,-1.094 l -0.906,0.094 c -0.015,-0.148 -0.094,-1.094 -0.094,-1.094 l -0.906,0.094 c -0.015,-0.148 -0.094,-1.094 -0.094,-1.094 l -0.906,0.094 c -0.015,-0.148 -0.094,-1.094 -0.094,-1.094 l -0.875,0.094 c -0.014,-0.14 -0.094,-1.063 -0.094,-1.063 l -0.906,0.094 c -0.015,-0.148 -0.094,-1.094 -0.094,-1.094 l -0.906,0.094 c -0.015,-0.148 -0.094,-1.094 -0.094,-1.094 l -0.906,0.094 c -0.015,-0.148 -0.094,-1.094 -0.094,-1.094 l -0.906,0.094 c -0.015,-0.148 -0.094,-1.094 -0.094,-1.094 l -0.906,0.094 c -0.015,-0.148 -0.094,-1.094 -0.094,-1.094 l -0.875,0.094 c -0.014,-0.14 -0.094,-1.063 -0.094,-1.063 l -0.906,0.094 c -0.015,-0.148 -0.094,-1.094 -0.094,-1.094 l -0.906,0.094 c -0.015,-0.148 -0.094,-1.094 -0.094,-1.094 l -0.906,0.094 c -0.015,-0.148 -0.094,-1.094 -0.094,-1.094 l -0.906,0.094 c -0.015,-0.148 -0.094,-1.094 -0.094,-1.094 l -0.906,0.094 -0.094,-1.094 -0.906,0.094 c -0.015,-0.147 -0.094,-1.094 -0.094,-1.094 l -0.875,0.094 c -0.014,-0.14 -0.094,-1.063 -0.094,-1.063 l -0.906,0.094 c -0.015,-0.147 -0.094,-1.094 -0.094,-1.094 l -0.906,0.094 c -0.015,-0.147 -0.094,-1.094 -0.094,-1.094 l -0.906,0.094 c -0.015,-0.147 -0.094,-1.094 -0.094,-1.094 l -0.906,0.094 c -0.015,-0.147 -0.094,-1.094 -0.094,-1.094 l -0.906,0.094 c -0.015,-0.147 -0.094,-1.094 -0.094,-1.094 l -0.875,0.094 c -0.014,-0.14 -0.094,-1.063 -0.094,-1.063 l -0.906,0.094 c -0.015,-0.147 -0.094,-1.094 -0.094,-1.094 l -0.906,0.094 c -0.015,-0.147 -0.094,-1.094 -0.094,-1.094 l -0.906,0.094 c -0.015,-0.147 -0.094,-1.094 -0.094,-1.094 l -0.906,0.094 c -0.015,-0.147 -0.094,-1.094 -0.094,-1.094 l -0.906,0.094 c -0.015,-0.147 -0.094,-1.094 -0.094,-1.094 l -0.875,0.094 c -0.014,-0.139 -0.094,-1.063 -0.094,-1.063 l -0.906,0.094 c -0.015,-0.147 -0.094,-1.094 -0.094,-1.094 l -0.906,0.094 c -0.015,-0.147 -0.094,-1.094 -0.094,-1.094 l -0.906,0.094 c -0.015,-0.147 -0.094,-1.094 -0.094,-1.094 l -0.906,0.094 c -0.015,-0.147 -0.094,-1.094 -0.094,-1.094 l -0.906,0.094 c -0.015,-0.147 -0.094,-1.094 -0.094,-1.094 l -0.906,0.094 c -0.015,-0.147 -0.094,-1.094 -0.094,-1.094 l -0.875,0.094 -0.094,-1.063 -0.906,0.094 c -0.015,-0.147 -0.094,-1.094 -0.094,-1.094 l -0.906,0.094 -0.094,-1.094 -0.906,0.094 c -0.015,-0.147 -0.094,-1.094 -0.094,-1.094 l -0.906,0.094 c -0.015,-0.147 -0.094,-1.094 -0.094,-1.094 l -0.906,0.094 c -0.015,-0.147 -0.094,-1.094 -0.094,-1.094 l -0.875,0.094 c -0.014,-0.139 -0.094,-1.063 -0.094,-1.063 l -0.906,0.094 -0.094,-1.094 -0.906,0.094 c -0.015,-0.147 -0.094,-1.094 -0.094,-1.094 l -0.906,0.094 -0.094,-1.094 -0.906,0.094 c -0.015,-0.147 -0.094,-1.094 -0.094,-1.094 l -0.906,0.094 c -0.015,-0.147 -0.094,-1.094 -0.094,-1.094 l -0.875,0.094 c -0.014,-0.139 -0.094,-1.063 -0.094,-1.063 l -0.906,0.094 c -0.015,-0.147 -0.094,-1.094 -0.094,-1.094 l -0.906,0.094 c -0.015,-0.147 -0.094,-1.094 -0.094,-1.094 l -0.906,0.094 c -0.015,-0.147 -0.094,-1.094 -0.094,-1.094 l -0.906,0.094 -0.094,-1.094 -0.906,0.094 c -0.015,-0.147 -0.094,-1.094 -0.094,-1.094 l -0.875,0.094 c -0.014,-0.139 -0.094,-1.063 -0.094,-1.063 l -0.906,0.094 c -0.015,-0.147 -0.094,-1.094 -0.094,-1.094 l -0.906,0.094 c -0.015,-0.147 -0.094,-1.094 -0.094,-1.094 l -0.906,0.094 c -0.015,-0.147 -0.094,-1.094 -0.094,-1.094" fill-opacity="0.235"/>
  <path id="path40" inkscape:connector-curvature="0" d="M 256,1 C 115.17,1 1,115.17 1,256 1,396.83 115.17,511 256,511 396.83,511 511,396.83 511,256 511,115.17 396.83,1 256,1 m 8.827,44.931 c 120.9,0 218.9,98 218.9,218.9 0,120.9 -98,218.9 -218.9,218.9 -120.9,0 -218.93,-98 -218.93,-218.9 0,-120.9 98.03,-218.9 218.93,-218.9" fill-opacity="0.067"/>
  <g id="g42" fill-opacity="0.129">
   <path id="path44" inkscape:connector-curvature="0" d="m 256,4.433 c -138.94,0 -251.57,112.63 -251.57,251.57 0,138.94 112.63,251.57 251.57,251.57 138.94,0 251.57,-112.63 251.57,-251.57 C 507.57,117.063 394.94,4.433 256,4.433 m 5.885,38.556 c 120.9,0 218.9,98 218.9,218.9 0,120.9 -98,218.9 -218.9,218.9 -120.9,0 -218.93,-98 -218.93,-218.9 0,-120.9 98.03,-218.9 218.93,-218.9"/>
   <path id="path46" inkscape:connector-curvature="0" d="m 256,8.356 c -136.77,0 -247.64,110.87 -247.64,247.64 0,136.77 110.87,247.64 247.64,247.64 136.77,0 247.64,-110.87 247.64,-247.64 C 503.64,119.226 392.77,8.356 256,8.356 m 2.942,31.691 c 120.9,0 218.9,98 218.9,218.9 0,120.9 -98,218.9 -218.9,218.9 -120.9,0 -218.93,-98 -218.93,-218.9 0,-120.9 98.03,-218.9 218.93,-218.9"/>
  </g>
  <path id="path48" inkscape:connector-curvature="0" d="m 253.04,7.859 c -135.42,0 -245.19,109.78 -245.19,245.19 0,135.42 109.78,245.19 245.19,245.19 135.42,0 245.19,-109.78 245.19,-245.19 0,-135.42 -109.78,-245.19 -245.19,-245.19 z m 0,26.297 c 120.9,0 218.9,98 218.9,218.9 0,120.9 -98,218.9 -218.9,218.9 -120.9,0 -218.93,-98 -218.93,-218.9 0,-120.9 98.03,-218.9 218.93,-218.9 z" stroke-opacity="0.31" fill="#ffffff" stroke="#000000" stroke-width="4.904"/>
 </g>
 <text id="text50" y="231.36" x="729.64" font-family="Gentium Book Basic" word-spacing="0" line-height="125%" letter-spacing="0" font-size="129.23"><tspan id="tspan52" y="231.36" x="729.64"/>
 </text>
 <text id="text54" transform="scale(4.0128,0.2492)" y="579.25" x="378.91" font-family="Arial" text-anchor="middle" font-size="46.954"/>
 <text id="text56" y="151.36" x="1310.91" font-family="Gentium Book Basic" word-spacing="0" line-height="125%" letter-spacing="0" font-size="129.23"><tspan id="tspan58" y="151.36" x="1310.91"/>
 </text>
 <text id="text60" transform="scale(4.0128,0.2492)" y="258.22" x="523.76" font-family="Arial" text-anchor="middle" font-size="46.954"/>
 <text id="text62" y="-29.901" x="239.33" font-family="Gentium Book Basic" word-spacing="0" line-height="125%" letter-spacing="0" font-size="129.23"><tspan id="tspan64" y="-29.901" x="239.33"/>
 </text>
 <text id="text66" transform="scale(4.0128,0.2492)" y="-469.14" x="256.72" font-family="Arial" text-anchor="middle" font-size="46.954"/>
 <text id="text68" y="-246.37" x="1337.38" font-family="Gentium Book Basic" word-spacing="0" line-height="125%" letter-spacing="0" font-size="129.23"><tspan id="tspan70" y="-246.37" x="1337.38"/>
 </text>
 <text id="text72" transform="scale(4.0128,0.2492)" y="-1337.81" x="530.36" font-family="Arial" text-anchor="middle" font-size="46.954"/>
 <text id="text74" y="-326.38" x="1918.65" font-family="Gentium Book Basic" word-spacing="0" line-height="125%" letter-spacing="0" font-size="129.23"><tspan id="tspan76" y="-326.38" x="1918.65"/>
 </text>
 <text id="text78" transform="scale(4.0128,0.2492)" y="-1658.85" x="675.21" font-family="Arial" text-anchor="middle" font-size="46.954"/>
 <text id="text80" y="-798.78" x="1529.53" font-family="Gentium Book Basic" word-spacing="0" line-height="125%" letter-spacing="0" font-size="129.23"><tspan id="tspan82" y="-798.78" x="1529.53"/>
 </text>
 <text id="text84" transform="scale(4.0128,0.2492)" y="-3554.51" x="578.24" font-family="Arial" text-anchor="middle" font-size="46.954"/>
 <text id="text86" y="-878.78" x="2110.79" font-family="Gentium Book Basic" word-spacing="0" line-height="125%" letter-spacing="0" font-size="129.23"><tspan id="tspan88" y="-878.78" x="2110.79"/>
 </text>
 <text id="text90" transform="scale(4.0128,0.2492)" y="-3875.54" x="723.09" font-family="Arial" text-anchor="middle" font-size="46.954"/>
 <text id="text92" y="535.94" x="277.99" font-family="Gentium Book Basic" word-spacing="0" line-height="125%" letter-spacing="0" font-size="208.33"><tspan id="tspan94" y="535.94" x="277.99"/>
 </text>
 <path id="path96" inkscape:connector-curvature="0" d="m 85.41,193.7 1.21,12.43 8.701,-0.847 3.952,40.604 6.452,66.29 16.521,-1.608 c -1.177,3.443 -1.667,7.182 -1.291,11.04 1.408,14.465 14.278,25.05 28.742,23.644 14.465,-1.408 25.05,-14.278 23.644,-28.742 -0.375,-3.857 -1.565,-7.433 -3.383,-10.584 l 14.851,-1.445 c -1.177,3.443 -1.667,7.182 -1.291,11.04 1.408,14.465 14.278,25.05 28.742,23.644 14.465,-1.408 25.05,-14.278 23.644,-28.742 -0.375,-3.857 -1.565,-7.433 -3.383,-10.584 l 18.994,-1.849 c -1.177,3.443 -1.667,7.182 -1.291,11.04 1.408,14.465 14.278,25.05 28.742,23.644 14.465,-1.408 25.05,-14.278 23.644,-28.742 -0.375,-3.857 -1.565,-7.433 -3.383,-10.584 l 18.994,-1.849 c -1.177,3.443 -1.667,7.182 -1.291,11.04 1.408,14.465 14.278,25.05 28.742,23.644 14.465,-1.408 25.05,-14.278 23.644,-28.742 -0.375,-3.857 -1.565,-7.433 -3.383,-10.584 l 9.413,-0.916 2.641,27.14 47.647,-4.637 -52.1,-42.2 -4.535,-46.599 -8.481,0.825 0.116,-33.05 4.765,-0.464 -1.452,-14.916 -49.36,4.804 1.452,14.916 8.494,-0.827 6.073,32.451 -56.802,5.528 c -0.003,-0.721 -0.037,-1.45 -0.108,-2.185 -1.041,-10.698 -9.12,-18.666 -18.04,-17.797 -8.924,0.869 -15.315,10.245 -14.274,20.942 0.072,0.736 0.18,1.457 0.315,2.165 l -19.577,1.905 c -1.975,-7.03 -5.599,-11.793 -9.269,-11.436 -3.67,0.357 -6.308,5.728 -6.89,13.01 l -14.709,1.432 -3.952,-40.604 8.701,-0.847 -1.21,-12.43 -109.38,10.646" fill="#ffffff" fill-rule="evenodd"/>
</svg>
