<?xml version="1.0" encoding="UTF-8" standalone="no"?>
<svg xmlns="http://www.w3.org/2000/svg" xmlns:xlink="http://www.w3.org/1999/xlink" xmlns:sodipodi="http://sodipodi.sourceforge.net/DTD/sodipodi-0.dtd" xmlns:inkscape="http://www.inkscape.org/namespaces/inkscape" version="1.1" width="64" height="64">
 <metadata id="metadata8"/>
 <defs id="defs6">
  <linearGradient id="linearGradient3788-5-0">
   <stop id="stop3790-2" stop-opacity="0.51"/>
   <stop offset="1" id="stop3792-5" stop-opacity="0.392"/>
  </linearGradient>
  <linearGradient id="linearGradient3930-4-5" inkscape:collect="always">
   <stop id="stop3932-3-9" stop-color="#ffffff"/>
   <stop id="stop3934-8-8" offset="1" stop-color="#ffffff" stop-opacity="0"/>
  </linearGradient>
  <linearGradient id="linearGradient3927-52">
   <stop id="stop3929-3" stop-color="#f1f2f3"/>
   <stop id="stop3931-8" offset="1" stop-color="#e4e5e7"/>
  </linearGradient>
  <linearGradient id="linearGradient3782-8">
   <stop id="stop3784-36" stop-color="#ffffff"/>
   <stop offset="1" id="stop3786-5" stop-color="#e4e5e7"/>
  </linearGradient>
  <linearGradient id="linearGradient3829-30" inkscape:collect="always">
   <stop id="stop3831-61"/>
   <stop id="stop3833-4" offset="1" stop-opacity="0"/>
  </linearGradient>
  <linearGradient inkscape:collect="always" xlink:href="#linearGradient3788-5-0" id="linearGradient4245" gradientUnits="userSpaceOnUse" gradientTransform="matrix(1.3777778,0,0,1.2903226,-0.37777748,-13.903226)" y1="10.775" x2="0" y2="13.1"/>
  <linearGradient inkscape:collect="always" xlink:href="#linearGradient3782-8" id="linearGradient4247" gradientUnits="userSpaceOnUse" gradientTransform="matrix(1.5384615,0,0,1.52,-8.7692311,-41.040001)" y1="27" x2="0" y2="52"/>
  <linearGradient inkscape:collect="always" xlink:href="#linearGradient3927-52" id="linearGradient4249" gradientUnits="userSpaceOnUse" gradientTransform="matrix(1.5675677,0,0,1.5652173,-4.8378383,-24.043479)" y1="16" x2="0" y2="39"/>
  <linearGradient inkscape:collect="always" xlink:href="#linearGradient3829-30" id="linearGradient4251" gradientUnits="userSpaceOnUse" gradientTransform="matrix(1.4,0,0,1,-1.6,-12)" y1="11" x2="0" y2="9"/>
  <linearGradient inkscape:collect="always" xlink:href="#linearGradient3930-4-5" id="linearGradient4253" gradientUnits="userSpaceOnUse" x1="5" x2="9"/>
  <linearGradient inkscape:collect="always" xlink:href="#linearGradient3930-4-5" id="linearGradient4255" gradientUnits="userSpaceOnUse" gradientTransform="matrix(-1,0,0,1,64,5.0000001e-8)" x1="33" x2="37"/>
  <radialGradient inkscape:collect="always" xlink:href="#linearGradient4303" id="radialGradient4309" cx="31" cy="52.6" r="31" gradientTransform="matrix(1.3157302,0,0,0.06451598,-8.787638,52.606454)" gradientUnits="userSpaceOnUse"/>
  <linearGradient inkscape:collect="always" id="linearGradient4303">
   <stop id="stop4305" stop-opacity="0.19"/>
   <stop id="stop4311" offset="0.744" stop-opacity="0.059"/>
   <stop offset="1" id="stop4307" stop-opacity="0"/>
  </linearGradient>
 </defs>
 <g inkscape:groupmode="layer" id="layer1" inkscape:label="folder">
  <ellipse id="path4293" ry="2" rx="31" cy="56" cx="32" fill="url(#radialGradient4309)" stroke-width="1.2"/>
  <g transform="translate(0,17.000001)" id="g4327">
   <path inkscape:connector-curvature="0" id="rect3967" transform="translate(0,-17)" d="M 10,7 C 8.892,7 8,7.892 8,9 l 0,2 -2,0 c -1.108,0 -2,0.892 -2,2 l 0,10 c 0,1.108 0.892,2 2,2 l 52,0 c 1.108,0 2,-0.892 2,-2 l 0,-10 c 0,-1.108 -0.892,-2 -2,-2 L 28,11 28,9 C 28,7.892 27.108,7 26,7 L 10,7 Z" stroke="#000000" fill-opacity="0.659" stroke-width="0"/>
   <path d="M 10,8 C 9.4795638,8 9,8.4597303 9,9 l 0,3 -3,0 c -0.554,0 -1,0.446 -1,1 l 0,10 c 0,0.554 0.446,1 1,1 l 52,0 c 0.554,0 1,-0.446 1,-1 l 0,-10 c 0,-0.554 -0.446,-1 -1,-1 L 27,12 27,9 C 27,8.4508353 26.512693,8 26,8 L 10,8 Z" transform="translate(0,-17.000001)" id="rect3969" inkscape:connector-curvature="0" fill="#8b8b8d" stroke="#000000" stroke-width="0"/>
   <rect id="rect3915" width="62" height="40" x="1" y="-1" rx="2" fill="url(#linearGradient4245)" stroke="#000000" stroke-width="0"/>
   <rect rx="1" id="rect3957" width="60" height="38" x="2" fill="url(#linearGradient4247)" stroke="#000000" stroke-width="0"/>
   <rect id="rect3925" width="58" height="36" x="3" y="1" rx="0" fill="url(#linearGradient4249)" stroke="#000000" stroke-width="0"/>
   <rect y="-3" x="4" height="2" width="56" id="rect3827" opacity="0.173" fill="url(#linearGradient4251)" stroke="#102b68" stroke-width="0" rx="0"/>
   <path inkscape:connector-curvature="0" id="rect3891" d="m 10,-9 c -0.554,0 -1,0.446 -1,1 l 0,1 c 0,-0.554 0.446,-1 1,-1 l 16,0 c 0.554,0 1,0.446 1,1 l 0,-1 c 0,-0.554 -0.446,-1 -1,-1 l -16,0 z" opacity="0.15" fill="#ffffff" stroke="#767779" stroke-width="0"/>
   <path sodipodi:nodetypes="sscsccs" inkscape:connector-curvature="0" id="rect3891-8" d="m 6,-5 c -0.554,0 -1,0.446 -1,1 l 0,1 c 0,-0.554 0.446,-1 1,-1 l 3,0 0,-1 z" opacity="0.15" fill="url(#linearGradient4253)" stroke="#767779" stroke-width="0"/>
   <path sodipodi:nodetypes="sscsccs" inkscape:connector-curvature="0" id="rect3891-8-7" d="m 58,-5 c 0.554,0 1,0.446 1,1 l 0,1 c 0,-0.554 -0.446,-1 -1,-1 l -31,0 0,-1 z" opacity="0.15" fill="url(#linearGradient4255)" stroke="#767779" stroke-width="0"/>
  </g>
 </g>
 <g inkscape:groupmode="layer" id="layer4" inkscape:label="icon" transform="translate(0,16)">
  <g id="g3294-2-5-26-0" transform="matrix(0.49108617,0,0,0.57916137,-5.7665124,7.1774743)" opacity="0.85" fill="#ffffff" color="#000000" stroke-width="4.781">
   <path id="path2504-1-2-2-7" inkscape:connector-curvature="0" d="m 77.5703,6.9454345 c -11.317079,0 -20.630635,6.3193555 -21.648617,15.5397085 l -5.489571,0 8.107675,8.633172 8.107674,-8.633172 -5.29251,0 c 1.001307,-6.722239 7.890308,-11.035445 16.215349,-11.035445 9.013029,0 16.327956,6.104178 16.327956,13.625397 -3e-6,7.521219 -7.314924,13.625398 -16.327956,13.625398 -4.889999,0 -9.280846,-1.799942 -12.274118,-4.645022 L 61.3268,37.124 c 3.98185,3.735752 9.784188,6.080755 16.2435,6.080756 11.996656,0 21.733071,-8.122088 21.733072,-18.129661 0,-10.007573 -9.736418,-18.1296605 -21.733072,-18.1296605 z" stroke-width="4.781"/>
   <path id="path3288-4-0-74-9" inkscape:connector-curvature="0" d="m 78.940345,13.851971 -2.036302,0 -2.036301,12.086441 10.18151,6.906538 2e-6,-1.726635 -6.108907,-6.906537 -2e-6,-10.359807 z" stroke-width="4.781"/>
  </g>
  <g id="g3294-2-5-26" transform="matrix(0.49108617,0,0,0.57916137,-5.7665124,5.9774741)" fill="#767779" color="#000000" stroke-width="4.781">
   <path id="path2504-1-2-2" inkscape:connector-curvature="0" d="m 77.5703,6.9454345 c -11.317079,0 -20.630635,6.3193555 -21.648617,15.5397085 l -5.489571,0 8.107675,8.633172 8.107674,-8.633172 -5.29251,0 c 1.001307,-6.722239 7.890308,-11.035445 16.215349,-11.035445 9.013029,0 16.327956,6.104178 16.327956,13.625397 -3e-6,7.521219 -7.314924,13.625398 -16.327956,13.625398 -4.889999,0 -9.280846,-1.799942 -12.274118,-4.645022 L 61.3268,37.124 c 3.98185,3.735752 9.784188,6.080755 16.2435,6.080756 11.996656,0 21.733071,-8.122088 21.733072,-18.129661 0,-10.007573 -9.736418,-18.1296605 -21.733072,-18.1296605 z" stroke-width="4.781"/>
   <path id="path3288-4-0-74" inkscape:connector-curvature="0" d="m 78.940345,13.851971 -2.036302,0 -2.036301,12.086441 10.18151,6.906538 2e-6,-1.726635 -6.108907,-6.906537 -2e-6,-10.359807 z" stroke-width="4.781"/>
  </g>
 </g>
</svg>
