<?xml version="1.0" encoding="UTF-8" standalone="no"?>
<svg xmlns="http://www.w3.org/2000/svg" xmlns:xlink="http://www.w3.org/1999/xlink" xmlns:sodipodi="http://sodipodi.sourceforge.net/DTD/sodipodi-0.dtd" xmlns:inkscape="http://www.inkscape.org/namespaces/inkscape" version="1.1" width="48" height="48">
 <metadata id="metadata8"/>
 <defs id="defs6">
  <linearGradient inkscape:collect="always" id="linearGradient3829">
   <stop id="stop3831"/>
   <stop offset="1" id="stop3833" stop-opacity="0"/>
  </linearGradient>
  <linearGradient id="linearGradient3782">
   <stop id="stop3784" stop-color="#ffffff"/>
   <stop id="stop3786" offset="1" stop-color="#e4e5e7"/>
  </linearGradient>
  <linearGradient id="linearGradient3927">
   <stop id="stop3929" stop-color="#f1f2f3"/>
   <stop offset="1" id="stop3931" stop-color="#e4e5e7"/>
  </linearGradient>
  <linearGradient inkscape:collect="always" xlink:href="#linearGradient3829" id="linearGradient4148" gradientUnits="userSpaceOnUse" gradientTransform="matrix(1.05,0,0,1,-1.1999999,6)" y1="11" x2="0" y2="9"/>
  <linearGradient inkscape:collect="always" xlink:href="#linearGradient3927" id="linearGradient4151" gradientUnits="userSpaceOnUse" gradientTransform="matrix(1.1351352,0,0,1.1304347,-2.6756757,-4.0869566)" y1="16" x2="0" y2="39"/>
  <linearGradient inkscape:collect="always" xlink:href="#linearGradient3782" id="linearGradient4154" gradientUnits="userSpaceOnUse" gradientTransform="matrix(1.1282051,0,0,1.12,-5.8974358,-17.24)" y1="27" x2="0" y2="52"/>
  <linearGradient inkscape:collect="always" xlink:href="#linearGradient3788-3" id="linearGradient4777" gradientUnits="userSpaceOnUse" gradientTransform="matrix(1.0222222,0,0,0.96774194,-0.02222222,2.3225806)" y1="16.2" x2="0" y2="19.3"/>
  <linearGradient x2="29" x1="26" gradientTransform="matrix(-1,0,0,1,49,14)" gradientUnits="userSpaceOnUse" id="linearGradient3064" xlink:href="#linearGradient3930-4" inkscape:collect="always"/>
  <linearGradient inkscape:collect="always" id="linearGradient3930-4">
   <stop id="stop3932-8" stop-color="#ffffff"/>
   <stop offset="1" id="stop3934-2" stop-color="#ffffff" stop-opacity="0"/>
  </linearGradient>
  <linearGradient gradientTransform="translate(-1,14)" x2="8" x1="5" gradientUnits="userSpaceOnUse" id="linearGradient3987" xlink:href="#linearGradient3930-4" inkscape:collect="always"/>
  <linearGradient id="linearGradient3788-3">
   <stop id="stop3790-4" stop-opacity="0.51"/>
   <stop id="stop3792-5" offset="1" stop-opacity="0.471"/>
  </linearGradient>
  <radialGradient inkscape:collect="always" xlink:href="#linearGradient4303" id="radialGradient4309" cx="31" cy="52.6" r="31" gradientTransform="matrix(0.97618692,0,0,0.048387,-6.2617962,39.654835)" gradientUnits="userSpaceOnUse"/>
  <linearGradient inkscape:collect="always" id="linearGradient4303">
   <stop id="stop4305" stop-opacity="0.19"/>
   <stop id="stop4311" offset="0.744" stop-opacity="0.059"/>
   <stop offset="1" id="stop4307" stop-opacity="0"/>
  </linearGradient>
 </defs>
 <g inkscape:groupmode="layer" id="layer4" inkscape:label="Ebene#1">
  <ellipse cx="24" cy="42.2" rx="23" ry="1.5" id="path4293" fill="url(#radialGradient4309)" stroke-width="1.2"/>
  <path d="M 8 5 C 6.892 5 6 5.892 6 7 L 6 8 L 5 8 C 3.892 8 3 8.892 3 10 L 3 20 C 3 21.108 3.892 22 5 22 L 43 22 C 44.108 22 45 21.108 45 20 L 45 10 C 45 8.892 44.108 8 43 8 L 21 8 L 21 7 C 21 5.892 20.108 5 19 5 L 8 5 z " id="rect3967" stroke="#000000" fill-opacity="0.659" stroke-width="0"/>
  <path d="M 8 6 C 7.466143 6 7 6.2608133 7 7 L 7 9 L 5 9 C 4.446 9 4 9.446 4 10 L 4 20 C 4 20.554 4.446 21 5 21 L 43 21 C 43.554 21 44 20.554 44 20 L 44 10 C 44 9.446 43.554 9 43 9 L 20 9 L 20 7 C 20 6.2608133 19.533858 6 19 6 L 8 6 z " id="rect3969" fill="#8b8b8d" stroke="#000000" stroke-width="0"/>
  <path d="m 2,17 44,0 c 1.108,0 2.052702,0.893254 2,2 l -1,21 c -0.0527,1.106746 -0.892,2 -2,2 L 3,42 C 1.892,42 1.0527022,41.106746 1,40 L 0,19 c -0.05270217,-1.106746 0.892,-2 2,-2 z" id="rect3915" inkscape:connector-curvature="0" sodipodi:nodetypes="sssssssss" fill="url(#linearGradient4777)" stroke="#000000" stroke-width="0"/>
  <path d="m 2,18 44,0 c 0.554,0 1.026351,0.446627 1,1 l -1,21 c -0.02635,0.553373 -0.446,1 -1,1 L 3,41 C 2.446,41 2.0263511,40.553373 2,40 L 1,19 c -0.0263511,-0.553373 0.446,-1 1,-1 z" id="rect3957" inkscape:connector-curvature="0" sodipodi:nodetypes="sssssssss" fill="url(#linearGradient4154)" stroke="#000000" stroke-width="0"/>
  <path d="M 2,19 46,19 45,40 3,40 z" id="rect3925" inkscape:connector-curvature="0" sodipodi:nodetypes="ccccc" fill="url(#linearGradient4151)" stroke="#000000" stroke-width="0"/>
  <rect y="15" x="3" height="2" width="42" id="rect3827" opacity="0.173" fill="url(#linearGradient4148)" stroke="#102b68" stroke-width="0" rx="0"/>
  <path d="M 8,6 C 7.446,6 7,6.446 7,7 L 7,8 C 7,7.446 7.446,7 8,7 l 11,0 c 0.554,0 1,0.446 1,1 L 20,7 C 20,6.446 19.554,6 19,6 L 8,6 z" id="rect3011" inkscape:connector-curvature="0" opacity="0.15" fill="#ffffff" stroke="#767779" stroke-width="0"/>
  <path d="M 5,9 C 4.446,9 4,9.446 4,10 l 0,1 c 0,-0.554 0.446,-1 1,-1 l 2,0 0,-1 z" id="rect3891-8" inkscape:connector-curvature="0" sodipodi:nodetypes="sscsccs" opacity="0.15" fill="url(#linearGradient3987)" stroke="#767779" stroke-width="0"/>
  <path d="m 43,9 c 0.554,0 1,0.446 1,1 l 0,1 c 0,-0.554 -0.446,-1 -1,-1 l -23,0 0,-1 z" id="rect3891-8-0" inkscape:connector-curvature="0" sodipodi:nodetypes="sscsccs" opacity="0.15" fill="url(#linearGradient3064)" stroke="#767779" stroke-width="0"/>
 </g>
</svg>
