<?xml version="1.0" encoding="UTF-8" standalone="no"?>
<svg xmlns="http://www.w3.org/2000/svg" xmlns:xlink="http://www.w3.org/1999/xlink" xmlns:sodipodi="http://sodipodi.sourceforge.net/DTD/sodipodi-0.dtd" xmlns:inkscape="http://www.inkscape.org/namespaces/inkscape" width="22" height="22" version="1.0">
 <defs id="defs4">
  <linearGradient id="StandardGradient" gradientTransform="scale(0.9219544,1.0846523)" y1="0.922" x2="0" y2="19.387" gradientUnits="userSpaceOnUse">
   <stop id="stop3283" stop-opacity="0.235"/>
   <stop id="stop3850" offset="0.7" stop-opacity="0.392"/>
   <stop offset="1" id="stop2651" stop-opacity="0.55"/>
  </linearGradient>
  <radialGradient inkscape:collect="always" xlink:href="#StandardGradient" id="radialGradient3800" cx="9.666" cy="12.915" r="3.191" gradientTransform="matrix(2.9090908,0,0,1.4211702,-18.45344,-5.2494256)" gradientUnits="userSpaceOnUse"/>
  <radialGradient inkscape:collect="always" xlink:href="#StandardGradient" id="radialGradient3876" cx="12" cy="12.667" r="5" gradientTransform="matrix(3.2,-1.9382326e-8,0,1.4,-26.4,-4.7333335)" gradientUnits="userSpaceOnUse"/>
 </defs>
 <metadata id="metadata7"/>
 <g inkscape:label="Calque 1" id="layer1" inkscape:groupmode="layer">
  <path inkscape:connector-curvature="0" d="m 5.875,3.8437496 a 1.1630337,1.1630337 0 0 0 -1.03125,1.15625 L 4.84375,17 A 1.1630337,1.1630337 0 0 0 6,18.15625 l 4,0 a 1.1630337,1.1630337 0 0 0 1,-0.5625 1.1630337,1.1630337 0 0 0 1,0.5625 l 4,0 A 1.1630337,1.1630337 0 0 0 17.15625,17 l 0,-12.0000004 A 1.1630337,1.1630337 0 0 0 16,3.8437496 l -4,0 a 1.1630337,1.1630337 0 0 0 -1,0.5625 1.1630337,1.1630337 0 0 0 -1,-0.5625 l -4,0 a 1.1630337,1.1630337 0 0 0 -0.125,0 z m 0.125,1.15625 4,0 L 10,17 6,17 6,4.9999996 z m 6,0 4,0 L 16,17 12,17 12,4.9999996 z" id="path5022" opacity="0.05" fill="#ffffff"/>
  <path inkscape:connector-curvature="0" d="M 6,4.9999996 6,17 l 4,0 0,-12.0000004 -4,0 z m 6,0 L 12,17 l 4,0 0,-12.0000004 -4,0 z" id="Symbol" sodipodi:nodetypes="cccccccccc" fill="url(#radialGradient3876)"/>
  <path inkscape:connector-curvature="0" d="m 6,4.9999996 0,1 4,0 0,-1 -4,0 z m 6,0 0,1 4,0 0,-1 -4,0 z" id="BevelShadow" inkscape:label="#path2417" opacity="0.3"/>
  <path inkscape:connector-curvature="0" id="BevelHighlight" d="m 6,17 0,1 4,0 0,-1 -4,0 z m 6,0 0,1 4,0 0,-1 -4,0 z" inkscape:label="#path3192" opacity="0.2" fill="#ffffff"/>
  <path d="M 6 5 L 6 17 L 10 17 L 10 5 L 6 5 z M 12 5 L 12 17 L 16 17 L 16 5 L 12 5 z M 6.46875 5.46875 L 9.53125 5.46875 L 9.53125 16.53125 L 6.46875 16.53125 L 6.46875 5.46875 z M 12.46875 5.46875 L 15.53125 5.46875 L 15.53125 16.53125 L 12.46875 16.53125 L 12.46875 5.46875 z " id="path3878" opacity="0.3"/>
 </g>
</svg>
