<?xml version="1.0" encoding="UTF-8" standalone="no"?>
<svg xmlns="http://www.w3.org/2000/svg" xmlns:xlink="http://www.w3.org/1999/xlink" xmlns:sodipodi="http://sodipodi.sourceforge.net/DTD/sodipodi-0.dtd" xmlns:inkscape="http://www.inkscape.org/namespaces/inkscape" width="22" height="22" version="1.0">
 <defs id="defs4">
  <linearGradient inkscape:collect="always" xlink:href="#StandardGradient" id="linearGradient2549" gradientUnits="userSpaceOnUse" gradientTransform="matrix(0.9247229,0,0,1.0872097,16.939944,2.9976422)" y1="0.922" x2="0" y2="17.478"/>
  <linearGradient id="StandardGradient" gradientTransform="scale(0.9219544,1.0846523)" y1="0.922" x2="0" y2="19.387" gradientUnits="userSpaceOnUse">
   <stop id="stop3283" stop-opacity="0.235"/>
   <stop id="stop3850" offset="0.7" stop-opacity="0.392"/>
   <stop offset="1" id="stop2651" stop-opacity="0.55"/>
  </linearGradient>
  <linearGradient inkscape:collect="always" xlink:href="#StandardGradient" id="linearGradient2406" gradientUnits="userSpaceOnUse" gradientTransform="matrix(0.9219544,0,0,1.0846523,0,-1)" y1="2.766" x2="0" y2="19.387"/>
  <linearGradient inkscape:collect="always" xlink:href="#StandardGradient" id="linearGradient4636" gradientUnits="userSpaceOnUse" gradientTransform="matrix(0.9219544,0,0,1.0846523,-0.01723507,0.96875)" y1="2.766" x2="0" y2="15.702"/>
  <linearGradient inkscape:collect="always" xlink:href="#StandardGradient" id="linearGradient2405" gradientUnits="userSpaceOnUse" gradientTransform="matrix(0.9219544,0,0,1.0846523,-0.01723507,-0.03125)" y1="2.766" x2="0" y2="15.702"/>
  <linearGradient inkscape:collect="always" xlink:href="#StandardGradient" id="linearGradient2407" gradientUnits="userSpaceOnUse" gradientTransform="matrix(0.9219544,0,0,1.0846523,-0.01723507,-1.03125)" y1="2.766" x2="0" y2="15.702"/>
  <linearGradient inkscape:collect="always" xlink:href="#StandardGradient" id="linearGradient2542" gradientUnits="userSpaceOnUse" gradientTransform="matrix(0.9247229,0,0,1.0872097,-2.060056,5.9976422)" y1="0.922" x2="0" y2="17.478"/>
  <linearGradient inkscape:collect="always" xlink:href="#StandardGradient" id="linearGradient3644" gradientUnits="userSpaceOnUse" gradientTransform="matrix(0.9219544,0,0,1.0846523,-30.017235,-0.03125)" y1="2.766" x2="0" y2="15.702"/>
  <clipPath id="clipPath3651">
   <path d="m -30,0 0,22 22,0 0,-22 -22,0 z m 4,2 3.96875,0 c 0.554,0 1,0.446 1,1 l 0,1 8.5,0 c 0.669688,0 1.243585,0.3963931 1.4375,1 C -11.04026,5.1544781 -11,5.326875 -11,5.5 l 0,0.5 -5,0 -1,0 -4.21875,0 L -27,6 l 0,-1 0,-2 c 0,-0.554 0.446,-1 1,-1 z m -0.5,5 5,0 8,0 2,0 c 0.831,0 1.5,0.669 1.5,1.5 l 0,8 c 0,0.831 -0.669,1.5 -1.5,1.5 l -0.5,0 0,0.25 0,1.25 c 0,0.831 -0.669,1.5 -1.5,1.5 l -8,0 c -0.831,0 -1.5,-0.669 -1.5,-1.5 l 0,-1.5 -3.5,0 c -0.831,0 -1.5,-0.669 -1.5,-1.5 l 0,-8 C -28,7.669 -27.331,7 -26.5,7 z m 6,2 C -20.777,9 -21,9.223 -21,9.5 l 0,9 c 0,0.277 0.223,0.5 0.5,0.5 l 6,0 c 0.277,0 0.5,-0.223 0.5,-0.5 l 0,-9 C -14,9.223 -14.223,9 -14.5,9 l -2.90625,0 -2.09375,0 -1,0 z" id="path3653"/>
  </clipPath>
  <radialGradient inkscape:collect="always" xlink:href="#StandardGradient" id="radialGradient3799" gradientUnits="userSpaceOnUse" gradientTransform="matrix(1.1111111,-7.219351e-8,7.2193516e-8,1.1111112,-1.6666678,-1.4619872)" cx="15" cy="14.816" r="9"/>
  <radialGradient inkscape:collect="always" xlink:href="#StandardGradient" id="radialGradient3790" gradientUnits="userSpaceOnUse" gradientTransform="matrix(1.2222222,-1.4352098e-8,1.4352098e-8,1.2222222,-23.133333,-2.9081851)" cx="13.2" cy="13.02" r="9"/>
  <radialGradient inkscape:collect="always" xlink:href="#StandardGradient" id="radialGradient3055" gradientUnits="userSpaceOnUse" gradientTransform="matrix(2.1111111,0,0,1.2222222,-33.866667,-2.9081853)" cx="13.2" cy="13.02" r="9"/>
  <radialGradient inkscape:collect="always" xlink:href="#StandardGradient" id="radialGradient3071" gradientUnits="userSpaceOnUse" gradientTransform="matrix(2.1111111,0,0,1.2222222,6.133333,-2.9081853)" cx="13.2" cy="13.02" r="9"/>
  <radialGradient inkscape:collect="always" xlink:href="#StandardGradient" id="radialGradient3080" gradientUnits="userSpaceOnUse" gradientTransform="matrix(1.7777777,0,0,1.2222222,-9.7824554,-2.9081853)" cx="12.253" cy="13.02" r="9"/>
  <radialGradient inkscape:collect="always" xlink:href="#StandardGradient" id="radialGradient3869" gradientUnits="userSpaceOnUse" gradientTransform="matrix(1.7777777,0,0,1.2222222,-9.7824554,-1.9081853)" cx="12.253" cy="13.02" r="9"/>
  <radialGradient inkscape:collect="always" xlink:href="#StandardGradient" id="radialGradient3858" cx="12" cy="15.4" r="9" gradientTransform="matrix(1.7777778,0,0,0.88888887,-9.3333333,-0.68888838)" gradientUnits="userSpaceOnUse"/>
  <radialGradient inkscape:collect="always" xlink:href="#StandardGradient" id="radialGradient3878" gradientUnits="userSpaceOnUse" gradientTransform="matrix(1.7777778,0,0,0.88888887,-9.3333333,-1.6888884)" cx="12" cy="16.525" r="9"/>
  <radialGradient inkscape:collect="always" xlink:href="#StandardGradient" id="radialGradient3897" gradientUnits="userSpaceOnUse" gradientTransform="matrix(1.7777778,0,0,0.88888887,-9.3333333,-0.6888884)" cx="12" cy="16.525" r="9"/>
 </defs>
 <metadata id="metadata7"/>
 <g inkscape:label="Calque 1" id="layer1" inkscape:groupmode="layer">
  <path d="M 6.5 3 C 4.5719355 3 3 4.5719355 3 6.5 L 3 9 L 2 9 A 1.0119545 1.0119545 0 0 0 1 10 L 1 14 A 1.0119545 1.0119545 0 0 0 2 15 L 6 15 L 6 17 A 1.0119545 1.0119545 0 0 0 7 18 L 9 18 L 9 20 A 1.0119545 1.0119545 0 0 0 10 21 L 12 21 A 1.0119545 1.0119545 0 0 0 13 20 L 13 18 L 15 18 A 1.0119545 1.0119545 0 0 0 16 17 L 16 15 L 20 15 A 1.0119545 1.0119545 0 0 0 21 14 L 21 10 A 1.0119545 1.0119545 0 0 0 20 9 L 19 9 L 19 6.5 C 19 4.5719355 17.428064 3 15.5 3 L 6.5 3 z M 6.5 4 L 15.5 4 C 16.885 4 18 5.115 18 6.5 L 18 10 L 20 10 L 20 14 L 16 14 L 15.5 14 L 13 14 L 13 11 L 9 11 L 9 14 L 6.5 14 L 6 14 L 2 14 L 2 10 L 4 10 L 4 6.5 C 4 5.115 5.115 4 6.5 4 z M 10 12 L 12 12 L 12 15 L 15 15 L 15 17 L 12 17 L 12 20 L 10 20 L 10 17 L 7 17 L 7 15 L 10 15 L 10 12 z " id="path3917" opacity="0.05" fill="#ffffff" color="#000000" stroke-width="0.8"/>
  <path d="M 6.5,4 C 5.115,4 4,5.115 4,6.5 l 0,3.5 -2,0 0,4 4,0 0.5,0 2.5,0 0,-3 4,0 0,3 2.5,0 0.5,0 4,0 0,-4 -2,0 0,-3.5 C 18,5.115 16.885,4 15.5,4 l -9,0 z m 3.5,8 0,3 -3,0 0,2 3,0 0,3 2,0 0,-3 3,0 0,-2 -3,0 0,-3 -2,0 z" id="rect3070" inkscape:connector-curvature="0" fill="url(#radialGradient3878)" color="#000000" stroke-width="0.8"/>
  <path d="M 6.5 4 C 5.115 4 4 5.115 4 6.5 L 4 10 L 2 10 L 2 14 L 6 14 L 6.5 14 L 9 14 L 9 11 L 13 11 L 13 14 L 15.5 14 L 16 14 L 20 14 L 20 10 L 18 10 L 18 6.5 C 18 5.115 16.885 4 15.5 4 L 6.5 4 z M 6.5 4.53125 L 15.5 4.53125 C 16.592623 4.53125 17.46875 5.4073769 17.46875 6.5 L 17.46875 10 A 0.54481947 0.54481947 0 0 0 18 10.53125 L 19.46875 10.53125 L 19.46875 13.46875 L 16 13.46875 L 15.5 13.46875 L 13.53125 13.46875 L 13.53125 11 A 0.54481947 0.54481947 0 0 0 13 10.46875 L 9 10.46875 A 0.54481947 0.54481947 0 0 0 8.46875 11 L 8.46875 13.46875 L 6.5 13.46875 L 6 13.46875 L 2.53125 13.46875 L 2.53125 10.53125 L 4 10.53125 A 0.54481947 0.54481947 0 0 0 4.53125 10 L 4.53125 6.5 C 4.53125 5.4073769 5.4073769 4.53125 6.5 4.53125 z M 10 12 L 10 15 L 7 15 L 7 17 L 10 17 L 10 20 L 12 20 L 12 17 L 15 17 L 15 15 L 12 15 L 12 12 L 10 12 z M 10.53125 12.53125 L 11.46875 12.53125 L 11.46875 15 A 0.54481947 0.54481947 0 0 0 12 15.53125 L 14.46875 15.53125 L 14.46875 16.46875 L 12 16.46875 A 0.54481947 0.54481947 0 0 0 11.46875 17 L 11.46875 19.46875 L 10.53125 19.46875 L 10.53125 17 A 0.54481947 0.54481947 0 0 0 10 16.46875 L 7.53125 16.46875 L 7.53125 15.53125 L 10 15.53125 A 0.54481947 0.54481947 0 0 0 10.53125 15 L 10.53125 12.53125 z " id="path3880" opacity="0.3" color="#000000" stroke-width="0.8"/>
  <path d="M 6.5 4 C 5.115 4 4 5.115 4 6.5 L 4 7.5 C 4 6.115 5.115 5 6.5 5 L 15.5 5 C 16.885 5 18 6.115 18 7.5 L 18 6.5 C 18 5.115 16.885 4 15.5 4 L 6.5 4 z M 2 10 L 2 11 L 4 11 L 4 10 L 2 10 z M 18 10 L 18 11 L 20 11 L 20 10 L 18 10 z M 10 12 L 10 13 L 12 13 L 12 12 L 10 12 z M 7 15 L 7 16 L 10 16 L 10 15 L 9 15 L 7 15 z M 12 15 L 12 16 L 15 16 L 15 15 L 13 15 L 12 15 z " id="path3893" opacity="0.3" color="#000000" stroke-width="0.8"/>
  <path d="M 9 11 L 9 12 L 10 12 L 12 12 L 13 12 L 13 11 L 9 11 z M 2 14 L 2 15 L 6 15 L 6.5 15 L 7 15 L 9 15 L 9 14 L 6.5 14 L 6 14 L 2 14 z M 13 14 L 13 15 L 15 15 L 15.5 15 L 16 15 L 20 15 L 20 14 L 16 14 L 15.5 14 L 13 14 z M 7 17 L 7 18 L 10 18 L 10 17 L 7 17 z M 12 17 L 12 18 L 15 18 L 15 17 L 12 17 z M 10 20 L 10 21 L 12 21 L 12 20 L 10 20 z " id="path3902" opacity="0.2" fill="#ffffff" color="#000000" stroke-width="0.8"/>
 </g>
</svg>
