<?xml version="1.0" encoding="UTF-8" standalone="no"?>
<svg xmlns="http://www.w3.org/2000/svg" viewBox="0 0 512 512">
 <text font-size="129.23" y="231.36" x="729.64" font-family="Gentium Book Basic" line-height="125%" word-spacing="0" letter-spacing="0"><tspan y="231.36" x="729.64"/>
 </text>
 <text transform="scale(4.0128.2492)" font-size="46.954" y="579.26" x="378.91" font-family="Arial" text-anchor="middle"/>
 <text font-size="129.23" y="151.36" x="1310.91" font-family="Gentium Book Basic" line-height="125%" word-spacing="0" letter-spacing="0"><tspan y="151.36" x="1310.91"/>
 </text>
 <text transform="scale(4.0128.2492)" font-size="46.954" y="258.22" x="523.76" font-family="Arial" text-anchor="middle"/>
 <text font-size="129.23" y="-29.9" x="239.33" font-family="Gentium Book Basic" line-height="125%" word-spacing="0" letter-spacing="0"><tspan y="-29.9" x="239.33"/>
 </text>
 <text transform="scale(4.0128.2492)" font-size="46.954" y="-469.13" x="256.72" font-family="Arial" text-anchor="middle"/>
 <text font-size="129.23" y="-246.37" x="1337.38" font-family="Gentium Book Basic" line-height="125%" word-spacing="0" letter-spacing="0"><tspan y="-246.37" x="1337.38"/>
 </text>
 <text transform="scale(4.0128.2492)" font-size="46.954" y="-1337.8" x="530.36" font-family="Arial" text-anchor="middle"/>
 <text font-size="129.23" y="-326.37" x="1918.65" font-family="Gentium Book Basic" line-height="125%" word-spacing="0" letter-spacing="0"><tspan y="-326.37" x="1918.65"/>
 </text>
 <text transform="scale(4.0128.2492)" font-size="46.954" y="-1658.83" x="675.21" font-family="Arial" text-anchor="middle"/>
 <text font-size="129.23" y="-798.77" x="1529.53" font-family="Gentium Book Basic" line-height="125%" word-spacing="0" letter-spacing="0"><tspan y="-798.77" x="1529.53"/>
 </text>
 <text transform="scale(4.0128.2492)" font-size="46.954" y="-3554.48" x="578.24" font-family="Arial" text-anchor="middle"/>
 <text font-size="129.23" y="-878.78" x="2110.79" font-family="Gentium Book Basic" line-height="125%" word-spacing="0" letter-spacing="0"><tspan y="-878.78" x="2110.79"/>
 </text>
 <text transform="scale(4.0128.2492)" font-size="46.954" y="-3875.52" x="723.09" font-family="Arial" text-anchor="middle"/>
 <text font-size="208.33" y="535.94" x="277.99" font-family="Gentium Book Basic" line-height="125%" word-spacing="0" letter-spacing="0"><tspan y="535.94" x="277.99"/>
 </text>
 <g fill-rule="evenodd">
  <path d="m471.95 253.05c0 120.9-98.01 218.9-218.9 218.9-120.9 0-218.9-98.01-218.9-218.9 0-120.9 98.01-218.9 218.9-218.9 120.9 0 218.9 98.01 218.9 218.9" fill="#18222d"/>
  <path opacity="0.25" d="m447.66 152.78c5.31 10.284 9.821 21.03 13.469 32.19v13.594c0 2.223 1.777 4.03 4 4.03h0.969c3.824 16.202 5.844 33.1 5.844 50.47 0 19.659-2.609 38.687-7.469 56.813-1.906 0.31-3.344 1.938-3.344 3.938v7.313c-4.348 13.3-9.934 26.02-16.625 38.06h-229.75c-4.396 0-7.938-3.541-7.938-7.938v-190.53c0-4.396 3.541-7.938 7.938-7.938h232.91m-271.22 0c4.396 0 7.938 3.541 7.938 7.938v190.53c0 4.396-3.541 7.938-7.938 7.938h-114.87c-17.462-31.438-27.406-67.61-27.406-106.12 0-36.14 8.768-70.24 24.281-100.28h118m259.31 20.75h-11.03c-2.223 0-4.03 1.808-4.03 4.03v21c0 2.223 1.808 4.03 4.03 4.03h11.03c2.223 0 4.03-1.808 4.03-4.03v-21c0-2.223-1.808-4.03-4.03-4.03m-40.41 0h-11.06c-2.223 0-4 1.808-4 4.03v21c0 2.223 1.777 4.03 4 4.03h11.06c2.223 0 4-1.808 4-4.03v-21c0-2.223-1.777-4.03-4-4.03m-40.41 0h-11.06c-2.223 0-4.03 1.808-4.03 4.03v21c0 2.223 1.808 4.03 4.03 4.03h11.06c2.223 0 4-1.808 4-4.03v-21c0-2.223-1.777-4.03-4-4.03m-40.44 0h-11.03c-2.223 0-4.03 1.808-4.03 4.03v21c0 2.223 1.808 4.03 4.03 4.03h11.03c2.223 0 4.03-1.808 4.03-4.03v-21c0-2.223-1.808-4.03-4.03-4.03m-40.41 0h-11.06c-2.223 0-4 1.808-4 4.03v21c0 2.223 1.777 4.03 4 4.03h11.06c2.223 0 4-1.808 4-4.03v-21c0-2.223-1.777-4.03-4-4.03m-40.41 0h-11.06c-2.223 0-4.03 1.808-4.03 4.03v21c0 2.223 1.808 4.03 4.03 4.03h11.06c2.223 0 4-1.808 4-4.03v-21c0-2.223-1.777-4.03-4-4.03m-77.22 0h-11.06c-2.223 0-4 1.808-4 4.03v21c0 2.223 1.777 4.03 4 4.03h11.06c2.223 0 4-1.808 4-4.03v-21c0-2.223-1.777-4.03-4-4.03m-40.41 0h-11.06c-2.223 0-4.03 1.808-4.03 4.03v21c0 2.223 1.808 4.03 4.03 4.03h11.06c2.223 0 4-1.808 4-4.03v-21c0-2.223-1.777-4.03-4-4.03m-40.44 0h-11.06c-2.223 0-4 1.808-4 4.03v21c0 2.223 1.777 4.03 4 4.03h11.06c2.223 0 4.03-1.808 4.03-4.03v-21c0-2.223-1.808-4.03-4.03-4.03m80.84 132.34h-11.06c-2.223 0-4 1.777-4 4v21.03c0 2.223 1.777 4 4 4h11.06c2.223 0 4-1.777 4-4v-21.03c0-2.223-1.777-4-4-4m-40.41 0h-11.06c-2.223 0-4.03 1.777-4.03 4v21.03c0 2.223 1.808 4 4.03 4h11.06c2.223 0 4-1.777 4-4v-21.03c0-2.223-1.777-4-4-4m-40.44 0h-11.06c-2.223 0-4 1.777-4 4v21.03c0 2.223 1.777 4 4 4h11.06c2.223 0 4.03-1.777 4.03-4v-21.03c0-2.223-1.808-4-4.03-4m360.13 3.938h-11.03c-2.223 0-4.03 1.777-4.03 4v21.03c0 2.223 1.808 4 4.03 4h11.03c2.223 0 4.03-1.777 4.03-4v-21.03c0-2.223-1.808-4-4.03-4m-40.41 0h-11.06c-2.223 0-4 1.777-4 4v21.03c0 2.223 1.777 4 4 4h11.06c2.223 0 4-1.777 4-4v-21.03c0-2.223-1.777-4-4-4m-40.41 0h-11.06c-2.223 0-4.03 1.777-4.03 4v21.03c0 2.223 1.808 4 4.03 4h11.06c2.223 0 4-1.777 4-4v-21.03c0-2.223-1.777-4-4-4m-40.44 0h-11.03c-2.223 0-4.03 1.777-4.03 4v21.03c0 2.223 1.808 4 4.03 4h11.03c2.223 0 4.03-1.777 4.03-4v-21.03c0-2.223-1.808-4-4.03-4m-40.41 0h-11.06c-2.223 0-4 1.777-4 4v21.03c0 2.223 1.777 4 4 4h11.06c2.223 0 4-1.777 4-4v-21.03c0-2.223-1.777-4-4-4m-40.41 0h-11.06c-2.223 0-4.03 1.777-4.03 4v21.03c0 2.223 1.808 4 4.03 4h11.06c2.223 0 4-1.777 4-4v-21.03c0-2.223-1.777-4-4-4" fill="#fff"/>
  <path d="m256 1c-140.83 0-255 114.17-255 255s114.17 255 255 255 255-114.17 255-255-114.17-255-255-255m8.827 44.931c120.9 0 218.9 98 218.9 218.9s-98 218.9-218.9 218.9-218.93-98-218.93-218.9 98.03-218.9 218.93-218.9" fill-opacity="0.067"/>
  <g fill-opacity="0.129">
   <path d="m256 4.433c-138.94 0-251.57 112.63-251.57 251.57s112.63 251.57 251.57 251.57 251.57-112.63 251.57-251.57-112.63-251.57-251.57-251.57m5.885 38.556c120.9 0 218.9 98 218.9 218.9s-98 218.9-218.9 218.9-218.93-98-218.93-218.9 98.03-218.9 218.93-218.9"/>
   <path d="m256 8.356c-136.77 0-247.64 110.87-247.64 247.64s110.87 247.64 247.64 247.64 247.64-110.87 247.64-247.64-110.87-247.64-247.64-247.64m2.942 31.691c120.9 0 218.9 98 218.9 218.9s-98 218.9-218.9 218.9-218.93-98-218.93-218.9 98.03-218.9 218.93-218.9"/>
  </g>
  <path stroke="#000" stroke-width="4.904" d="m253.04 7.859c-135.42 0-245.19 109.78-245.19 245.19 0 135.42 109.78 245.19 245.19 245.19 135.42 0 245.19-109.78 245.19-245.19 0-135.42-109.78-245.19-245.19-245.19zm0 26.297c120.9 0 218.9 98 218.9 218.9s-98 218.9-218.9 218.9-218.93-98-218.93-218.9 98.03-218.9 218.93-218.9z" stroke-opacity="0.31" fill="#fff"/>
 </g>
 <text font-size="129.23" y="231.36" x="729.64" font-family="&apos;Gentium Book Basic&apos;" line-height="125%" word-spacing="0" letter-spacing="0"><tspan y="231.36" x="729.64"/>
 </text>
 <text transform="scale(4.0128.2492)" font-size="46.954" y="579.25" x="378.91" font-family="Arial" text-anchor="middle"/>
 <text font-size="129.23" y="151.36" x="1310.91" font-family="&apos;Gentium Book Basic&apos;" line-height="125%" word-spacing="0" letter-spacing="0"><tspan y="151.36" x="1310.91"/>
 </text>
 <text transform="scale(4.0128.2492)" font-size="46.954" y="258.22" x="523.76" font-family="Arial" text-anchor="middle"/>
 <text font-size="129.23" y="-29.901" x="239.33" font-family="&apos;Gentium Book Basic&apos;" line-height="125%" word-spacing="0" letter-spacing="0"><tspan y="-29.901" x="239.33"/>
 </text>
 <text transform="scale(4.0128.2492)" font-size="46.954" y="-469.14" x="256.72" font-family="Arial" text-anchor="middle"/>
 <text font-size="129.23" y="-246.37" x="1337.38" font-family="&apos;Gentium Book Basic&apos;" line-height="125%" word-spacing="0" letter-spacing="0"><tspan y="-246.37" x="1337.38"/>
 </text>
 <text transform="scale(4.0128.2492)" font-size="46.954" y="-1337.8" x="530.36" font-family="Arial" text-anchor="middle"/>
 <text font-size="129.23" y="-326.38" x="1918.65" font-family="&apos;Gentium Book Basic&apos;" line-height="125%" word-spacing="0" letter-spacing="0"><tspan y="-326.38" x="1918.65"/>
 </text>
 <text transform="scale(4.0128.2492)" font-size="46.954" y="-1658.84" x="675.21" font-family="Arial" text-anchor="middle"/>
 <text font-size="129.23" y="-798.78" x="1529.53" font-family="&apos;Gentium Book Basic&apos;" line-height="125%" word-spacing="0" letter-spacing="0"><tspan y="-798.78" x="1529.53"/>
 </text>
 <text transform="scale(4.0128.2492)" font-size="46.954" y="-3554.49" x="578.24" font-family="Arial" text-anchor="middle"/>
 <text font-size="129.23" y="-878.78" x="2110.79" font-family="&apos;Gentium Book Basic&apos;" line-height="125%" word-spacing="0" letter-spacing="0"><tspan y="-878.78" x="2110.79"/>
 </text>
 <text transform="scale(4.0128.2492)" font-size="46.954" y="-3875.52" x="723.09" font-family="Arial" text-anchor="middle"/>
 <g font-family="&apos;Gentium Book Basic&apos;" line-height="125%" word-spacing="0" letter-spacing="0">
  <text y="535.94" x="277.99" font-size="208.33"><tspan y="535.94" x="277.99"/>
  </text>
  <text y="270.87" x="-1745.96" font-size="129.23"><tspan y="270.87" x="-1745.96"/>
  </text>
 </g>
 <text transform="scale(4.0128.2492)" font-size="46.954" y="737.79" x="-238.01" font-family="Arial" text-anchor="middle"/>
 <text font-size="129.23" y="190.87" x="-1164.69" font-family="&apos;Gentium Book Basic&apos;" line-height="125%" word-spacing="0" letter-spacing="0"><tspan y="190.87" x="-1164.69"/>
 </text>
 <text transform="scale(4.0128.2492)" font-size="46.954" y="416.76" x="-93.17" font-family="Arial" text-anchor="middle"/>
 <text font-size="129.23" y="9.608" x="-2236.27" font-family="&apos;Gentium Book Basic&apos;" line-height="125%" word-spacing="0" letter-spacing="0"><tspan y="9.608" x="-2236.27"/>
 </text>
 <text transform="scale(4.0128.2492)" font-size="46.954" y="-310.6" x="-360.2" font-family="Arial" text-anchor="middle"/>
 <text font-size="129.23" y="-206.86" x="-1138.22" font-family="&apos;Gentium Book Basic&apos;" line-height="125%" word-spacing="0" letter-spacing="0"><tspan y="-206.86" x="-1138.22"/>
 </text>
 <text transform="scale(4.0128.2492)" font-size="46.954" y="-1179.26" x="-86.57" font-family="Arial" text-anchor="middle"/>
 <text font-size="129.23" y="-286.87" x="-556.95" font-family="&apos;Gentium Book Basic&apos;" line-height="125%" word-spacing="0" letter-spacing="0"><tspan y="-286.87" x="-556.95"/>
 </text>
 <text transform="scale(4.0128.2492)" font-size="46.954" y="-1500.3" x="58.28" font-family="Arial" text-anchor="middle"/>
 <text font-size="129.23" y="-759.27" x="-946.07" font-family="&apos;Gentium Book Basic&apos;" line-height="125%" word-spacing="0" letter-spacing="0"><tspan y="-759.27" x="-946.07"/>
 </text>
 <text transform="scale(4.0128.2492)" font-size="46.954" y="-3395.95" x="-38.686" font-family="Arial" text-anchor="middle"/>
 <text font-size="129.23" y="-839.27" x="-364.81" font-family="&apos;Gentium Book Basic&apos;" line-height="125%" word-spacing="0" letter-spacing="0"><tspan y="-839.27" x="-364.81"/>
 </text>
 <text transform="scale(4.0128.2492)" font-size="46.954" y="-3716.98" x="106.16" font-family="Arial" text-anchor="middle"/>
 <g font-family="&apos;Gentium Book Basic&apos;" line-height="125%" word-spacing="0" letter-spacing="0">
  <text y="575.45" x="-2197.61" font-size="208.33"><tspan y="575.45" x="-2197.61"/>
  </text>
  <text y="525.1" x="-1144.61" font-size="129.23"><tspan y="525.1" x="-1144.61"/>
  </text>
 </g>
 <text transform="scale(4.0128.2492)" font-size="46.954" y="1757.96" x="-88.16" font-family="Arial" text-anchor="middle"/>
 <text font-size="129.23" y="445.1" x="-563.34" font-family="&apos;Gentium Book Basic&apos;" line-height="125%" word-spacing="0" letter-spacing="0"><tspan y="445.1" x="-563.34"/>
 </text>
 <text transform="scale(4.0128.2492)" font-size="46.954" y="1436.93" x="56.693" font-family="Arial" text-anchor="middle"/>
 <text font-size="129.23" y="263.84" x="-1634.92" font-family="&apos;Gentium Book Basic&apos;" line-height="125%" word-spacing="0" letter-spacing="0"><tspan y="263.84" x="-1634.92"/>
 </text>
 <text transform="scale(4.0128.2492)" font-size="46.954" y="709.58" x="-210.35" font-family="Arial" text-anchor="middle"/>
 <text font-size="129.23" y="47.37" x="-536.87" font-family="&apos;Gentium Book Basic&apos;" line-height="125%" word-spacing="0" letter-spacing="0"><tspan y="47.37" x="-536.87"/>
 </text>
 <text transform="scale(4.0128.2492)" font-size="46.954" y="-159.09" x="63.29" font-family="Arial" text-anchor="middle"/>
 <text font-size="129.23" y="-32.643" x="44.4" font-family="&apos;Gentium Book Basic&apos;" line-height="125%" word-spacing="0" letter-spacing="0"><tspan y="-32.643" x="44.4"/>
 </text>
 <text transform="scale(4.0128.2492)" font-size="46.954" y="-480.13" x="208.14" font-family="Arial" text-anchor="middle"/>
 <text font-size="129.23" y="-505.04" x="-344.72" font-family="&apos;Gentium Book Basic&apos;" line-height="125%" word-spacing="0" letter-spacing="0"><tspan y="-505.04" x="-344.72"/>
 </text>
 <text transform="scale(4.0128.2492)" font-size="46.954" y="-2375.78" x="111.17" font-family="Arial" text-anchor="middle"/>
 <text font-size="129.23" y="-585.04" x="236.54" font-family="&apos;Gentium Book Basic&apos;" line-height="125%" word-spacing="0" letter-spacing="0"><tspan y="-585.04" x="236.54"/>
 </text>
 <text transform="scale(4.0128.2492)" font-size="46.954" y="-2696.8" x="256.02" font-family="Arial" text-anchor="middle"/>
 <g font-family="&apos;Gentium Book Basic&apos;" line-height="125%" word-spacing="0" letter-spacing="0">
  <text y="829.68" x="-1596.26" font-size="208.33"><tspan y="829.68" x="-1596.26"/>
  </text>
  <text y="246.55" x="1403.27" font-size="129.23"><tspan y="246.55" x="1403.27"/>
  </text>
 </g>
 <text transform="scale(4.0128.2492)" font-size="46.954" y="640.19" x="546.78" font-family="Arial" text-anchor="middle"/>
 <text font-size="129.23" y="166.55" x="1984.54" font-family="&apos;Gentium Book Basic&apos;" line-height="125%" word-spacing="0" letter-spacing="0"><tspan y="166.55" x="1984.54"/>
 </text>
 <text transform="scale(4.0128.2492)" font-size="46.954" y="319.16" x="691.63" font-family="Arial" text-anchor="middle"/>
 <text font-size="129.23" y="-14.715" x="912.96" font-family="&apos;Gentium Book Basic&apos;" line-height="125%" word-spacing="0" letter-spacing="0"><tspan y="-14.715" x="912.96"/>
 </text>
 <text transform="scale(4.0128.2492)" font-size="46.954" y="-408.2" x="424.59" font-family="Arial" text-anchor="middle"/>
 <text font-size="129.23" y="-231.18" x="2011.01" font-family="&apos;Gentium Book Basic&apos;" line-height="125%" word-spacing="0" letter-spacing="0"><tspan y="-231.18" x="2011.01"/>
 </text>
 <text transform="scale(4.0128.2492)" font-size="46.954" y="-1276.86" x="698.23" font-family="Arial" text-anchor="middle"/>
 <text font-size="129.23" y="-311.19" x="2592.28" font-family="&apos;Gentium Book Basic&apos;" line-height="125%" word-spacing="0" letter-spacing="0"><tspan y="-311.19" x="2592.28"/>
 </text>
 <text transform="scale(4.0128.2492)" font-size="46.954" y="-1597.9" x="843.08" font-family="Arial" text-anchor="middle"/>
 <text font-size="129.23" y="-783.59" x="2203.16" font-family="&apos;Gentium Book Basic&apos;" line-height="125%" word-spacing="0" letter-spacing="0"><tspan y="-783.59" x="2203.16"/>
 </text>
 <text transform="scale(4.0128.2492)" font-size="46.954" y="-3493.55" x="746.11" font-family="Arial" text-anchor="middle"/>
 <text font-size="129.23" y="-863.59" x="2784.42" font-family="&apos;Gentium Book Basic&apos;" line-height="125%" word-spacing="0" letter-spacing="0"><tspan y="-863.59" x="2784.42"/>
 </text>
 <text transform="scale(4.0128.2492)" font-size="46.954" y="-3814.58" x="890.96" font-family="Arial" text-anchor="middle"/>
 <g font-family="&apos;Gentium Book Basic&apos;" line-height="125%" word-spacing="0" letter-spacing="0">
  <text y="551.13" x="951.62" font-size="208.33"><tspan y="551.13" x="951.62"/>
  </text>
  <text y="246.55" x="1403.27" font-size="129.23"><tspan y="246.55" x="1403.27"/>
  </text>
 </g>
 <text transform="scale(4.0128.2492)" font-size="46.954" y="640.19" x="546.78" font-family="Arial" text-anchor="middle"/>
 <text font-size="129.23" y="166.55" x="1984.54" font-family="&apos;Gentium Book Basic&apos;" line-height="125%" word-spacing="0" letter-spacing="0"><tspan y="166.55" x="1984.54"/>
 </text>
 <text transform="scale(4.0128.2492)" font-size="46.954" y="319.16" x="691.63" font-family="Arial" text-anchor="middle"/>
 <text font-size="129.23" y="-14.715" x="912.96" font-family="&apos;Gentium Book Basic&apos;" line-height="125%" word-spacing="0" letter-spacing="0"><tspan y="-14.715" x="912.96"/>
 </text>
 <text transform="scale(4.0128.2492)" font-size="46.954" y="-408.2" x="424.59" font-family="Arial" text-anchor="middle"/>
 <text font-size="129.23" y="-231.18" x="2011.01" font-family="&apos;Gentium Book Basic&apos;" line-height="125%" word-spacing="0" letter-spacing="0"><tspan y="-231.18" x="2011.01"/>
 </text>
 <text transform="scale(4.0128.2492)" font-size="46.954" y="-1276.85" x="698.23" font-family="Arial" text-anchor="middle"/>
 <text font-size="129.23" y="-311.19" x="2592.28" font-family="&apos;Gentium Book Basic&apos;" line-height="125%" word-spacing="0" letter-spacing="0"><tspan y="-311.19" x="2592.28"/>
 </text>
 <text transform="scale(4.0128.2492)" font-size="46.954" y="-1597.89" x="843.08" font-family="Arial" text-anchor="middle"/>
 <text font-size="129.23" y="-783.59" x="2203.16" font-family="&apos;Gentium Book Basic&apos;" line-height="125%" word-spacing="0" letter-spacing="0"><tspan y="-783.59" x="2203.16"/>
 </text>
 <text transform="scale(4.0128.2492)" font-size="46.954" y="-3493.53" x="746.11" font-family="Arial" text-anchor="middle"/>
 <text font-size="129.23" y="-863.59" x="2784.42" font-family="&apos;Gentium Book Basic&apos;" line-height="125%" word-spacing="0" letter-spacing="0"><tspan y="-863.59" x="2784.42"/>
 </text>
 <text transform="scale(4.0128.2492)" font-size="46.954" y="-3814.56" x="890.96" font-family="Arial" text-anchor="middle"/>
 <g font-family="&apos;Gentium Book Basic&apos;" line-height="125%" font-size="208.33" word-spacing="0" letter-spacing="0">
  <text y="551.13" x="951.62"><tspan y="551.13" x="951.62"/>
  </text>
  <text y="46.35" x="-1154.36"><tspan y="46.35" x="-1154.36"/>
  </text>
 </g>
 <text transform="scale(4.0128.2492)" font-size="75.7" y="-376.91" x="30.06" font-family="Arial" text-anchor="middle"/>
 <g fill-rule="evenodd">
  <path opacity="0.25" d="m144.53 98.17v315.66l50.27 50.27c18.547 5.107 38.08 7.848 58.25 7.848 100.91 0 185.87-68.29 211.2-161.19l-212.59-212.59h-107.12"/>
  <path opacity="0.75" d="m144.53 98.17v315.66h107.13v-315.66h-107.12" fill="#fff"/>
 </g>
</svg>
