/* XPM */
static char * desktop_xpm[] = {
"32 32 80 1",
" 	c None",
".	c #BCBCBC",
"+	c #BFBFBF",
"@	c #ADADAD",
"#	c #B4B4B4",
"$	c #A0A0A0",
"%	c #898989",
"&	c #848484",
"*	c #878787",
"=	c #8F8F8F",
"-	c #8C8C8C",
";	c #A7A7A7",
">	c #4F4F4F",
",	c #5B5B5B",
"'	c #6F6F6F",
")	c #5E5E5E",
"!	c #777777",
"~	c #727272",
"{	c #707070",
"]	c #666666",
"^	c #7E7E7E",
"/	c #6C6C6C",
"(	c #818181",
"_	c #3D3D3D",
":	c #434343",
"<	c #737373",
"[	c #575757",
"}	c #787878",
"|	c #9A9A9A",
"1	c #7B7B7B",
"2	c #3B3B3B",
"3	c #2D2D2D",
"4	c #333333",
"5	c #686868",
"6	c #636363",
"7	c #676767",
"8	c #949494",
"9	c #9C9C9C",
"0	c #313131",
"a	c #5F5F5F",
"b	c #373737",
"c	c #393939",
"d	c #6B6B6B",
"e	c #535353",
"f	c #212121",
"g	c #474747",
"h	c #8A8A8A",
"i	c #444444",
"j	c #646464",
"k	c #919191",
"l	c #3F3F3F",
"m	c #565656",
"n	c #424242",
"o	c #484848",
"p	c #404040",
"q	c #808080",
"r	c #4C4C4C",
"s	c #1C1C1C",
"t	c #4E4E4E",
"u	c #4B4B4B",
"v	c #464646",
"w	c #292929",
"x	c #0F0F0F",
"y	c #272727",
"z	c #A4A4A4",
"A	c #505050",
"B	c #353535",
"C	c #1B1B1B",
"D	c #181818",
"E	c #1A1A1A",
"F	c #585858",
"G	c #2B2B2B",
"H	c #5C5C5C",
"I	c #606060",
"J	c #959595",
"K	c #6E6E6E",
"L	c #858585",
"M	c #8D8D8D",
"N	c #9F9F9F",
"O	c #000000",
"                                ",
"                                ",
"   .++++++++++++++++++++++++.   ",
"  @############.+..++.....++.@  ",
"  .#$%&&&&&&&&*=&&&&&&&&&&-;..  ",
"  ##%>,'))))),))!~{{'''''',-..  ",
"  #@&,]!)!''''))&^^^^^^^^^/&.#  ",
"  #@(_::::::::::]~~~<~<~~~[}=|12",
"  #@(344444444442<55555556789|* ",
"  @@(30!ab4bbbbbcd55557]d-=|1ef ",
"  @@(0ghhib2ccccc[555]j&k|&ag*  ",
"  @;(0_!!l22c_:__:{7]'k==7lm@@  ",
"  @;&3403c__:n::::75a88<obpq@@  ",
"  ;;*0266lp:::::::rsg&e2t[u*@;  ",
"  ;;*4l@|v:g:ggggwfxxyv[,,:q;;  ",
"  ;z-42=&::gtut2w3xft,,[>rpq$;  ",
"  $$-b222:ur>g03yfbA),u>r>l($$  ",
"  $$-bnnvur>BbfCb:2_tuuuuul*z$  ",
"  $|=2nvgr:b3DfBbbccuAAeee:=;$  ",
"  $$-2vvullfEw4B2:tA,),Fee:k$$  ",
"  |$=2vviGDwb:tFaH[[m),[e>:=$|  ",
"  ||k2vvcpum[aI66aHHmF[e>tpk||  ",
"  |8k2vurAm[[a6766HH[meArg_k||  ",
"  8|J2vurAm[aa6766aH[mAAui_k||  ",
"  889uee,)a667KKKK776a),[etJ8|  ",
"  8896<&LL^---(=MM11!!<~~')988  ",
"  88z[6]d/d/{<{{<<{''/7]]6[z88  ",
"  8=$zNNNNNNNNNzNNNNNNNNN9z$=8  ",
"  18======8=====k====8=======1  ",
"  4188888|||||$$$|9|||8|888814  ",
"    OOOOOOOOOOOOOOOOOOOOOOOO    ",
"                                "};
