<?xml version="1.0" encoding="UTF-8" standalone="no"?>
<svg xmlns="http://www.w3.org/2000/svg" height="512" width="512" version="1.1" viewBox="0 0 512 512">
 <metadata id="metadata304"/>
 <path id="path4" fill="#0078ad" d="m471.95 253.05c0 120.9-98.01 218.91-218.91 218.91s-218.91-98.01-218.91-218.91 98.01-218.91 218.91-218.91 218.91 98.01 218.91 218.91" fill-rule="evenodd"/>
 <path id="path6" fill="#fff8eb" d="m256.74 41.3c-119.06 0-216.41 93.37-223.62 211.27 2.263 5.493 7.424 9.187 10.357 14.599l1.414 13.07 2.37-12.12 26.1 11.08 18.04 16.893 15.479 2.293c-5.528 12.662-16.713 33.06-14.676 47.2 1.185 8.221 9.466 19.947 14.217 26.638 6.637 9.346 19.17 14.873 22.511 26.638l0.535 19.377 3.631 14.523c-0.6 5.087-4.576 13.239-3.822 19.15 10.253 7.143 21.13 13.435 32.524 18.804 1.994-1.897 1.739-5.998-0.077-8.905l8.828-12.345 11.198-8.37 7.873-27.632 16.969-11.122c6.946-10.534 1.911-19.296 4.51-30.12l11.427-32.677c-12.92-4.898-31.435-10.909-40.55-21.785l-2.37 1.223-2.408-10.892-14.294-7.262-2.37 2.408-3.593-16.931-19.07-1.567-14.332-7.911c-6.171-0.891-14.341 9.342-16.663 14.294l-8.37-1.185 2.408-2.446-7.147-4.854 1.185 4.854c-5.142-5.397-6.03-12.205-4.777-19.377l-8.332-3.631-1.223 3.631c-1.491-5.99-0.862-13.726 3.593-18.15-6.534-4.525-10.926-0.267-15.479 4.854l-9.557-19.37c-2.627 5.941-1.669 11.867-1.185 18.15h-2.408c-0.527-6.773-2.159-14.178 1.223-20.562 6.321-11.93 25.301-16.963 36.957-14.523l-1.223 2.408 10.739 9.708c0.049-18.508 7.236-20.464 17.313-33.938l7.03-12.994c7.82-8.732 19.967-14.686 30.46-18.612l13.147-8.293c-4.256-7.479-15.442-5.339-22.625-4.854 12.917-7.462 30.479-3.419 39.33-16.931-9.652-7.131-9.652-25.736-25.03-18.15l2.37-7.262-13.11-6.077-9.555 20.256-13.11 16.05-1.185-8.446c-5.04-2.378-18.915-6.559-19.19-13.338-0.294-7.368 22.13-18.498 27.556-22.969l-2.408 6.04 9.249-0.879c1.959-1.256 20.545-27.871 22.931-11.236 12.927 4.975 14.404 10.677 27.441 2.446l-8.332-3.669c-1.315-11.954-11.728-12.07-21.479-12.08l30.995-14.523c3.451 8.594 14.269 10.353 17.772 18.268 2.488 5.624-4.888 9.01-4.701 14.408 0.231 6.653 6.6 14.787 9.593 20.562l17.925-19.874c9.897-5.357 25.827-5.944 33.709-14.599 9.125-10.02 4.104-25.966 21.1-26.03-3.448-1.473-9-2.591-11.924 0l-3.593-3.631h4.777c-2.493-3.471-4.163-5.364-8.332-6.077-0.974-1.223-2.229-2.042-3.631-2.637-3.657-0.178-7.344-0.268-11.05-0.268m104.07 35.581c-4.191 3.484-11.301 5.241-16.663 6.077l-9.746 13.606-11.351 9.593c-1.828 4.409 1.086 11.08 1.987 15.517l11.924-6.04c1.715 6.01 6.362 7.559 10.739 10.892 7.07-13.616 0.985-26.635 17.886-33.9l-10.739 13.338 3.593-2.446 1.185 7.262 1.185-9.669c3.149 10.919-0.146 25.918-11.924 30.04l-11.924-0.994v-7.262c-6.781 1.437-6.526 4.865-4.739 10.892-4.602-1.328-7.348-1.107-10.739 2.408-3.642-3.8-6.607-6.688-7.147-12.08-2.315-2.341-3.354-3.935-3.593-7.262l-8.332-1.223 3.554 19.377c-3.181-6.06-6.475-7.537-13.11-6.077l3.593 14.523 4.777-1.185-3.593-1.223 4.777-8.485 2.37 13.338 10.739-2.446c-3.01 2.916-5.409 3.624-9.555 3.631l1.223 3.631h-5.962l8.332 14.523c-19.535 0.164-19.761 10.318-19.07 26.638 3.813 0.279 5.668 0.852 8.332 3.631 15.776-8.439 19.413-24.12 38.14-29.05 3.039 9.595 12.439 9.02 9.555 20.6 9.202-1.907 11.778-9.789 5.962-16.969 7.84 4.741 10.08 14.476 15.478 21.785 3.801-5.067 2.342-10.858 8.37-14.523v3.631c10.1 9.1 17.07 11.152 29.81 15.746-4.379 6.311-9.662 12.48-17.886 11.962-10.07-0.633-22.918-10.649-29.81 1.338l-19.19-15.44c-10.641-4.556-21.1-0.248-32.07-1.491l-4.777 2.408 2.37 1.223c-21.843 9.977-33.959 36.25-36.23 58.09l-4.166 14.523c2.323 14.184 14.175 28.872 24.12 38.524 7 6.795 12.03-6.486 18.689 0.229 8.812-3.387 22.11-9.299 30.19 0.153 5.309 6.211-0.237 11.356 1.605 18 3.187 11.498 10.796 24.971 10.778 37.531l-2.981 30.23c2.612 18.436 12.684 33.959 12.841 53.28 14.618-1.529 31.06-8.993 39.17-21.785l3.478-10.778 6.04-7.491-2.293-11.886c3.412-8.314 17.222-9.223 19.3-18.307 2.83-12.367-4.562-27.01-0.153-39.9 6.8-19.868 25.735-34.418 26.26-56.907l-14.294 1.223c12.868-16.03 40.13-24.1 26.22-48.42l-5.962 7.262h-2.36c-4.604-9.807-11.915-10.83-11.924-23.01 11.161 9.752 22.707 10.06 33.365 21.785 0.973-0.535 1.783-1.211 2.446-2.026-8.147-62.56-41.822-117.04-90.16-152.53-9.09-0.905-19.831-2.204-25.53-7.605h-2.408v-0.038" fill-opacity="0.263"/>
 <path id="path8" d="m167.31 117.59c-19.72 0.593-32.629 21.04-29.531 39.688 0.115 69.67-0.216 139.37 0.188 209.03 2.876 19.398 21.941 29.481 33.625 43.5 20.469 20.345 40.864 40.783 61.25 61.22 6.65 0.608 13.379 0.938 20.19 0.938 108.42 0 198.41-78.83 215.84-182.28l-172.09-172.09h-127.53c-0.65-0.023-1.301-0.019-1.938 0m219.84 41.34 3.125 0.469-3.125-0.469m12.313 9.625 3 0.781-3-0.781m41.469 44.16 3.125 0.469-3.125-0.469m12.313 9.625 3 0.781-3-0.781" fill-opacity="0.235"/>
 <g id="g10" fill-rule="evenodd">
  <path id="path12" d="m256 1c-140.83 0-255 114.17-255 255s114.17 255 255 255 255-114.17 255-255-114.17-255-255-255m8.827 44.931c120.9 0 218.9 98 218.9 218.9s-98 218.9-218.9 218.9-218.93-98-218.93-218.9 98.03-218.9 218.93-218.9" fill-opacity="0.067"/>
  <g id="g14" fill-opacity="0.129">
   <path id="path16" d="m256 4.43c-138.94 0-251.57 112.63-251.57 251.57s112.63 251.57 251.57 251.57 251.57-112.63 251.57-251.57-112.63-251.57-251.57-251.57m5.885 38.556c120.9 0 218.9 98 218.9 218.9s-98 218.9-218.9 218.9-218.93-98-218.93-218.9 98.03-218.9 218.93-218.9"/>
   <path id="path18" d="m256 8.36c-136.77 0-247.64 110.87-247.64 247.64s110.87 247.64 247.64 247.64 247.64-110.87 247.64-247.64-110.87-247.64-247.64-247.64m2.942 31.691c120.9 0 218.9 98 218.9 218.9s-98 218.9-218.9 218.9-218.93-98-218.93-218.9 98.03-218.9 218.93-218.9"/>
  </g>
  <path id="path20" d="m253.04 7.86c-135.42 0-245.19 109.78-245.19 245.19 0 135.42 109.78 245.19 245.19 245.19 135.42 0 245.19-109.78 245.19-245.19 0-135.42-109.78-245.19-245.19-245.19zm0 26.297c120.9 0 218.9 98 218.9 218.9s-98 218.9-218.9 218.9-218.93-98-218.93-218.9 98.03-218.9 218.93-218.9z" stroke-opacity="0.31" stroke="#000" stroke-width="4.904" fill="#fff"/>
 </g>
 <text id="text22" font-size="129.23" line-height="125%" y="231.36" x="729.64" font-family="Gentium Book Basic" word-spacing="0" letter-spacing="0"><tspan id="tspan24" y="231.36" x="729.64"/>
 </text>
 <text id="text26" transform="scale(4.0128 .2492)" font-size="46.954" y="579.26" x="378.91" font-family="Arial" text-anchor="middle"/>
 <text id="text28" font-size="129.23" line-height="125%" y="151.36" x="1310.91" font-family="Gentium Book Basic" word-spacing="0" letter-spacing="0"><tspan id="tspan30" y="151.36" x="1310.91"/>
 </text>
 <text id="text32" transform="scale(4.0128 .2492)" font-size="46.954" y="258.22" x="523.76" font-family="Arial" text-anchor="middle"/>
 <text id="text34" font-size="129.23" line-height="125%" y="-29.9" x="239.33" font-family="Gentium Book Basic" word-spacing="0" letter-spacing="0"><tspan id="tspan36" y="-29.9" x="239.33"/>
 </text>
 <text id="text38" transform="scale(4.0128 .2492)" font-size="46.954" y="-469.13" x="256.72" font-family="Arial" text-anchor="middle"/>
 <text id="text40" font-size="129.23" line-height="125%" y="-246.37" x="1337.38" font-family="Gentium Book Basic" word-spacing="0" letter-spacing="0"><tspan id="tspan42" y="-246.37" x="1337.38"/>
 </text>
 <text id="text44" transform="scale(4.0128 .2492)" font-size="46.954" y="-1337.8" x="530.36" font-family="Arial" text-anchor="middle"/>
 <text id="text46" font-size="129.23" line-height="125%" y="-326.37" x="1918.65" font-family="Gentium Book Basic" word-spacing="0" letter-spacing="0"><tspan id="tspan48" y="-326.37" x="1918.65"/>
 </text>
 <text id="text50" transform="scale(4.0128 .2492)" font-size="46.954" y="-1658.83" x="675.21" font-family="Arial" text-anchor="middle"/>
 <text id="text52" font-size="129.23" line-height="125%" y="-798.77" x="1529.53" font-family="Gentium Book Basic" word-spacing="0" letter-spacing="0"><tspan id="tspan54" y="-798.77" x="1529.53"/>
 </text>
 <text id="text56" transform="scale(4.0128 .2492)" font-size="46.954" y="-3554.48" x="578.24" font-family="Arial" text-anchor="middle"/>
 <text id="text58" font-size="129.23" line-height="125%" y="-878.78" x="2110.79" font-family="Gentium Book Basic" word-spacing="0" letter-spacing="0"><tspan id="tspan60" y="-878.78" x="2110.79"/>
 </text>
 <text id="text62" transform="scale(4.0128 .2492)" font-size="46.954" y="-3875.52" x="723.09" font-family="Arial" text-anchor="middle"/>
 <text id="text64" font-size="208.33" line-height="125%" y="535.94" x="277.99" font-family="Gentium Book Basic" word-spacing="0" letter-spacing="0"><tspan id="tspan66" y="535.94" x="277.99"/>
 </text>
 <path id="path68" d="m169.25 117.59c-17.422 0-31.469 14.02-31.469 31.438v213.94c0 17.422 14.05 31.438 31.469 31.438h173.5c17.422 0 31.469-14.02 31.469-31.438v-167.94l-77.44-77.44h-127.53m84.5 86.38c4.738 0.001 9.492 0.189 11.375 0.563 1.591 0.315 3.041 0.55 3.219 0.531 0.178-0.018 2.416 0.51 4.969 1.156 4.196 1.062 6 1.629 11.438 3.656 6.06 2.258 16.387 8.293 19.406 11.313l1.656 1.656 8.25-8.25c6.247-6.247 8.454-8.271 9.125-8.375 0.487-0.076 1.471 0.323 2.188 0.875 1.036 0.798 1.445 1.542 2.063 3.594l11.844 59.28c2.185 9.611 2.212 10.256 0.438 12.03-1.494 1.494-2.842 1.662-6.094 0.75-24.688-4.904-42.18-8.382-65.09-12.906-2.215-0.609-2.853-0.959-3.719-2.094-0.572-0.75-0.982-1.763-0.906-2.25 0.105-0.676 2.277-3.03 9.09-9.844l8.906-8.906-1.375-1.094c-1.253-0.956-5.128-2.964-9.09-4.75-0.782-0.352-1.98-0.759-2.688-0.906-0.707-0.147-1.408-0.408-1.563-0.563-0.154-0.154-0.618-0.299-1.031-0.313-0.413-0.013-2.286-0.322-4.156-0.688-3.465-0.678-10.928-0.978-11.438-0.469-0.154 0.154-0.411 0.152-0.563 0-0.253-0.253-5.683 0.501-7.906 1.094-3.213 0.856-9.938 3.357-10.5 3.906-0.204 0.2-1.139 0.741-2.063 1.188-2.172 1.05-8.251 5.621-10.5 7.906-5.106 5.188-10.118 13.557-11.875 19.844-0.315 1.125-0.668 2.474-0.813 2.969-0.645 2.206-1.364 8.846-1.313 12.188 0.053 3.41 0.719 9.04 1.313 11.125 0.142 0.498 0.498 1.812 0.813 2.938 1.348 4.82 4.761 11.177 8.719 16.219 5.376 6.847 15.25 13.537 23.281 15.781 1.125 0.315 2.442 0.699 2.938 0.844 4.241 1.241 13.934 1.744 18.16 0.938 1.208-0.231 2.853-0.484 3.656-0.563 1.246-0.122 8.11-2.358 10.656-3.469 3.407-1.486 9.911-5.867 12.406-8.344 1.593-1.581 3.255-2.354 4.813-2.219 0.997 0.084 2.061 1.061 11.281 10.281 9.614 9.617 10.187 10.252 10.344 11.469l0.156 1.313-4.813 4.656c-6.215 6.04-11.57 9.631-20.813 13.969-2.415 1.134-12.481 4.558-15.563 5.281-4.658 1.094-13.842 2.136-18.656 2.125-4.969-0.011-11.137-0.667-16.531-1.75-3.252-0.654-12.515-3.527-15.313-4.75-6.151-2.691-9.924-4.727-15.06-8.188v-0.031c-2.867-1.931-4.77-3.65-10.969-9.813-6.857-6.817-7.778-7.824-10.375-11.719-3.473-5.21-5.536-8.914-7.75-13.938-1.252-2.843-4.541-13.14-4.688-14.656-0.047-0.487-0.261-1.409-0.469-2.031-0.603-1.803-1.512-10.575-1.563-15.188-0.073-6.737 0.99-15.392 2.594-21.375 0.396-1.478 3.556-10.801 4.125-12.156 1.371-3.273 2.318-5.224 2.688-5.594 0.238-0.236 0.988-1.489 1.656-2.781 2.944-5.695 5.874-9.393 13.469-17 6.116-6.122 7.787-7.621 11.156-9.938 3.807-2.617 13.303-7.807 15.719-8.594 0.638-0.207 2.889-0.99 5-1.719 3.823-1.32 11.05-3.263 11.75-3.156 0.204 0.031 1.656-0.181 3.25-0.5 1.862-0.373 6.606-0.564 11.344-0.563" fill="#fff"/>
 <path id="path70" d="m296.78 117.59c0.342 17.512-0.744 35.12 0.688 52.56 3.969 16 19.369 24.787 29.531 36.688 15.748 15.732 31.479 31.479 47.22 47.22v-59.03l-77.44-77.44" fill-opacity="0.235"/>
 <path id="path72" d="m374.22 195.03-77.44-77.44v46c0 17.422 14.05 31.438 31.469 31.438h45.969" fill="#e9e9e9"/>
 <text id="text74" font-size="129.23" line-height="125%" y="285.6" x="-142.5" font-family="Gentium Book Basic" word-spacing="0" letter-spacing="0"><tspan id="tspan76" y="285.6" x="-142.5"/>
 </text>
 <text id="text78" transform="scale(4.0128 .2492)" font-size="46.954" y="796.89" x="161.57" font-family="Arial" text-anchor="middle"/>
 <text id="text80" font-size="129.23" line-height="125%" y="205.6" x="438.77" font-family="Gentium Book Basic" word-spacing="0" letter-spacing="0"><tspan id="tspan82" y="205.6" x="438.77"/>
 </text>
 <text id="text84" transform="scale(4.0128 .2492)" font-size="46.954" y="475.86" x="306.42" font-family="Arial" text-anchor="middle"/>
 <text id="text86" font-size="129.23" line-height="125%" y="24.336" x="-632.81" font-family="Gentium Book Basic" word-spacing="0" letter-spacing="0"><tspan id="tspan88" y="24.336" x="-632.81"/>
 </text>
 <text id="text90" transform="scale(4.0128 .2492)" font-size="46.954" y="-251.49" x="39.38" font-family="Arial" text-anchor="middle"/>
 <text id="text92" font-size="129.23" line-height="125%" y="-192.13" x="465.24" font-family="Gentium Book Basic" word-spacing="0" letter-spacing="0"><tspan id="tspan94" y="-192.13" x="465.24"/>
 </text>
 <text id="text96" transform="scale(4.0128 .2492)" font-size="46.954" y="-1120.16" x="313.02" font-family="Arial" text-anchor="middle"/>
 <text id="text98" font-size="129.23" line-height="125%" y="-272.14" x="1046.51" font-family="Gentium Book Basic" word-spacing="0" letter-spacing="0"><tspan id="tspan100" y="-272.14" x="1046.51"/>
 </text>
 <text id="text102" transform="scale(4.0128 .2492)" font-size="46.954" y="-1441.2" x="457.87" font-family="Arial" text-anchor="middle"/>
 <text id="text104" font-size="129.23" line-height="125%" y="-744.54" x="657.39" font-family="Gentium Book Basic" word-spacing="0" letter-spacing="0"><tspan id="tspan106" y="-744.54" x="657.39"/>
 </text>
 <text id="text108" transform="scale(4.0128 .2492)" font-size="46.954" y="-3336.85" x="360.9" font-family="Arial" text-anchor="middle"/>
 <text id="text110" font-size="129.23" line-height="125%" y="-824.54" x="1238.65" font-family="Gentium Book Basic" word-spacing="0" letter-spacing="0"><tspan id="tspan112" y="-824.54" x="1238.65"/>
 </text>
 <text id="text114" transform="scale(4.0128 .2492)" font-size="46.954" y="-3657.88" x="505.75" font-family="Arial" text-anchor="middle"/>
 <g id="g116" font-family="Gentium Book Basic" line-height="125%" word-spacing="0" letter-spacing="0">
  <text id="text118" y="590.18" x="-594.15" font-size="208.33"><tspan id="tspan120" y="590.18" x="-594.15"/>
  </text>
  <text id="text122" y="134.65" x="-850.87" font-size="129.23"><tspan id="tspan124" y="134.65" x="-850.87"/>
  </text>
 </g>
 <text id="text126" transform="scale(4.0128 .2492)" font-size="46.954" y="191.16" x="-14.958" font-family="Arial" text-anchor="middle"/>
 <text id="text128" font-size="129.23" line-height="125%" y="54.643" x="-269.61" font-family="Gentium Book Basic" word-spacing="0" letter-spacing="0"><tspan id="tspan130" y="54.643" x="-269.61"/>
 </text>
 <text id="text132" transform="scale(4.0128 .2492)" font-size="46.954" y="-129.87" x="129.89" font-family="Arial" text-anchor="middle"/>
 <text id="text134" font-size="129.23" line-height="125%" y="-126.61" x="-1341.19" font-family="Gentium Book Basic" word-spacing="0" letter-spacing="0"><tspan id="tspan136" y="-126.61" x="-1341.19"/>
 </text>
 <text id="text138" transform="scale(4.0128 .2492)" font-size="46.954" y="-857.22" x="-137.15" font-family="Arial" text-anchor="middle"/>
 <text id="text140" font-size="129.23" line-height="125%" y="-343.08" x="-243.14" font-family="Gentium Book Basic" word-spacing="0" letter-spacing="0"><tspan id="tspan142" y="-343.08" x="-243.14"/>
 </text>
 <text id="text144" transform="scale(4.0128 .2492)" font-size="46.954" y="-1725.9" x="136.49" font-family="Arial" text-anchor="middle"/>
 <text id="text146" font-size="129.23" line-height="125%" y="-423.09" x="338.13" font-family="Gentium Book Basic" word-spacing="0" letter-spacing="0"><tspan id="tspan148" y="-423.09" x="338.13"/>
 </text>
 <text id="text150" transform="scale(4.0128 .2492)" font-size="46.954" y="-2046.92" x="281.34" font-family="Arial" text-anchor="middle"/>
 <text id="text152" font-size="129.23" line-height="125%" y="-895.49" x="-50.986" font-family="Gentium Book Basic" word-spacing="0" letter-spacing="0"><tspan id="tspan154" y="-895.49" x="-50.986"/>
 </text>
 <text id="text156" transform="scale(4.0128 .2492)" font-size="46.954" y="-3942.58" x="184.37" font-family="Arial" text-anchor="middle"/>
 <text id="text158" font-size="129.23" line-height="125%" y="-975.49" x="530.28" font-family="Gentium Book Basic" word-spacing="0" letter-spacing="0"><tspan id="tspan160" y="-975.49" x="530.28"/>
 </text>
 <text id="text162" transform="scale(4.0128 .2492)" font-size="46.954" y="-4263.61" x="329.22" font-family="Arial" text-anchor="middle"/>
 <g id="g164" font-family="Gentium Book Basic" font-size="208.33" line-height="125%" word-spacing="0" letter-spacing="0">
  <text id="text166" y="439.23" x="-1302.53"><tspan id="tspan168" y="439.23" x="-1302.53"/>
  </text>
  <text id="text170" y="425.07" x="-1839.32"><tspan id="tspan172" y="425.07" x="-1839.32"/>
  </text>
 </g>
 <text id="text174" transform="scale(4.0128 .2492)" font-size="75.7" y="1142.86" x="-140.63" font-family="Arial" text-anchor="middle"/>
 <text id="text176" font-size="208.33" line-height="125%" y="269.44" x="-1132.98" font-family="Gentium Book Basic" word-spacing="0" letter-spacing="0"><tspan id="tspan178" y="269.44" x="-1132.98"/>
 </text>
 <text id="text180" transform="scale(4.0128 .2492)" font-size="75.7" y="518.33" x="35.38" font-family="Arial" text-anchor="middle"/>
 <text id="text182" font-size="208.33" line-height="125%" y="261.32" x="-1099.61" font-family="Gentium Book Basic" word-spacing="0" letter-spacing="0"><tspan id="tspan184" y="261.32" x="-1099.61"/>
 </text>
 <text id="text186" transform="scale(4.0128 .2492)" font-size="75.7" y="485.73" x="43.701" font-family="Arial" text-anchor="middle"/>
 <text id="text188" font-size="61.51" line-height="125%" y="-7.127" x="-842.79" font-family="Gentium Book Basic" word-spacing="0" letter-spacing="0"><tspan id="tspan190" y="-7.127" x="-842.79"/>
 </text>
 <text id="text192" transform="scale(4.0128 .2492)" font-size="22.349" y="-194.78" x="-116.22" font-family="Arial" text-anchor="middle"/>
 <text id="text194" font-size="208.33" line-height="125%" y="359.64" x="-1153.63" font-family="Gentium Book Basic" word-spacing="0" letter-spacing="0"><tspan id="tspan196" y="359.64" x="-1153.63"/>
 </text>
 <text id="text198" transform="scale(4.0128 .2492)" font-size="75.7" y="880.3" x="30.24" font-family="Arial" text-anchor="middle"/>
 <text id="text200" font-size="208.33" line-height="125%" y="204.01" x="-447.28" font-family="Gentium Book Basic" word-spacing="0" letter-spacing="0"><tspan id="tspan202" y="204.01" x="-447.28"/>
 </text>
 <text id="text204" transform="scale(4.0128 .2492)" font-size="75.7" y="255.78" x="206.26" font-family="Arial" text-anchor="middle"/>
 <text id="text206" font-size="208.33" line-height="125%" y="195.89" x="-413.91" font-family="Gentium Book Basic" word-spacing="0" letter-spacing="0"><tspan id="tspan208" y="195.89" x="-413.91"/>
 </text>
 <text id="text210" transform="scale(4.0128 .2492)" font-size="75.7" y="223.18" x="214.58" font-family="Arial" text-anchor="middle"/>
 <text id="text212" font-size="208.33" line-height="125%" y="385.33" x="-1836.33" font-family="Gentium Book Basic" word-spacing="0" letter-spacing="0"><tspan id="tspan214" y="385.33" x="-1836.33"/>
 </text>
 <text id="text216" transform="scale(4.0128 .2492)" font-size="75.7" y="983.37" x="-139.89" font-family="Arial" text-anchor="middle"/>
 <text id="text218" font-size="208.33" line-height="125%" y="229.7" x="-1129.99" font-family="Gentium Book Basic" word-spacing="0" letter-spacing="0"><tspan id="tspan220" y="229.7" x="-1129.99"/>
 </text>
 <text id="text222" transform="scale(4.0128 .2492)" font-size="75.7" y="358.85" x="36.13" font-family="Arial" text-anchor="middle"/>
 <text id="text224" font-size="208.33" line-height="125%" y="221.57" x="-1096.62" font-family="Gentium Book Basic" word-spacing="0" letter-spacing="0"><tspan id="tspan226" y="221.57" x="-1096.62"/>
 </text>
 <text id="text228" transform="scale(4.0128 .2492)" font-size="75.7" y="326.25" x="44.45" font-family="Arial" text-anchor="middle"/>
 <text id="text230" transform="rotate(30)" line-height="125%" font-size="208.33" y="621.34" x="-1715.47" font-family="Gentium Book Basic" word-spacing="0" letter-spacing="0"><tspan id="tspan232" y="621.34" x="-1715.47"/>
 </text>
 <text id="text234" transform="matrix(3.4752 2.0064 -.1246 .21581 0 0)" font-size="75.7" y="1930.41" x="-109.77" font-family="Arial" text-anchor="middle"/>
 <text id="text236" transform="rotate(30)" line-height="125%" font-size="208.33" y="465.71" x="-1009.13" font-family="Gentium Book Basic" word-spacing="0" letter-spacing="0"><tspan id="tspan238" y="465.71" x="-1009.13"/>
 </text>
 <text id="text240" transform="matrix(3.4752 2.0064 -.1246 .21581 0 0)" font-size="75.7" y="1305.9" x="66.25" font-family="Arial" text-anchor="middle"/>
 <text id="text242" transform="rotate(30)" line-height="125%" font-size="208.33" y="457.59" x="-975.75" font-family="Gentium Book Basic" word-spacing="0" letter-spacing="0"><tspan id="tspan244" y="457.59" x="-975.75"/>
 </text>
 <text id="text246" transform="matrix(3.4752 2.0064 -.1246 .21581 0 0)" font-size="75.7" y="1273.3" x="74.57" font-family="Arial" text-anchor="middle"/>
 <text id="text248" transform="rotate(30)" line-height="125%" font-size="61.51" y="189.15" x="-718.94" font-family="Gentium Book Basic" word-spacing="0" letter-spacing="0"><tspan id="tspan250" y="189.15" x="-718.94"/>
 </text>
 <text id="text252" transform="matrix(3.4752 2.0064 -.1246 .21581 0 0)" font-size="22.349" y="592.79" x="-85.35" font-family="Arial" text-anchor="middle"/>
 <text id="text254" font-size="129.23" line-height="125%" y="106.91" x="50.799" font-family="Gentium Book Basic" word-spacing="0" letter-spacing="0"><tspan id="tspan256" y="106.91" x="50.799"/>
 </text>
 <text id="text258" transform="scale(4.0128 .2492)" font-size="46.954" y="79.873" x="209.74" font-family="Arial" text-anchor="middle"/>
 <text id="text260" font-size="129.23" line-height="125%" y="26.913" x="632.07" font-family="Gentium Book Basic" word-spacing="0" letter-spacing="0"><tspan id="tspan262" y="26.913" x="632.07"/>
 </text>
 <text id="text264" transform="scale(4.0128 .2492)" font-size="46.954" y="-241.17" x="354.59" font-family="Arial" text-anchor="middle"/>
 <text id="text266" font-size="129.23" line-height="125%" y="-154.35" x="-439.51" font-family="Gentium Book Basic" word-spacing="0" letter-spacing="0"><tspan id="tspan268" y="-154.35" x="-439.51"/>
 </text>
 <text id="text270" transform="scale(4.0128 .2492)" font-size="46.954" y="-968.51" x="87.55" font-family="Arial" text-anchor="middle"/>
 <text id="text272" font-size="129.23" line-height="125%" y="-370.82" x="658.54" font-family="Gentium Book Basic" word-spacing="0" letter-spacing="0"><tspan id="tspan274" y="-370.82" x="658.54"/>
 </text>
 <text id="text276" transform="scale(4.0128 .2492)" font-size="46.954" y="-1837.19" x="361.19" font-family="Arial" text-anchor="middle"/>
 <text id="text278" font-size="129.23" line-height="125%" y="-450.82" x="1239.81" font-family="Gentium Book Basic" word-spacing="0" letter-spacing="0"><tspan id="tspan280" y="-450.82" x="1239.81"/>
 </text>
 <text id="text282" transform="scale(4.0128 .2492)" font-size="46.954" y="-2158.22" x="506.04" font-family="Arial" text-anchor="middle"/>
 <text id="text284" font-size="129.23" line-height="125%" y="-923.22" x="850.69" font-family="Gentium Book Basic" word-spacing="0" letter-spacing="0"><tspan id="tspan286" y="-923.22" x="850.69"/>
 </text>
 <text id="text288" transform="scale(4.0128 .2492)" font-size="46.954" y="-4053.87" x="409.07" font-family="Arial" text-anchor="middle"/>
 <text id="text290" font-size="129.23" line-height="125%" y="-1003.23" x="1431.95" font-family="Gentium Book Basic" word-spacing="0" letter-spacing="0"><tspan id="tspan292" y="-1003.23" x="1431.95"/>
 </text>
 <text id="text294" transform="scale(4.0128 .2492)" font-size="46.954" y="-4374.9" x="553.92" font-family="Arial" text-anchor="middle"/>
 <text id="text296" font-size="208.33" line-height="125%" y="411.49" x="-400.85" font-family="Gentium Book Basic" word-spacing="0" letter-spacing="0"><tspan id="tspan298" y="411.49" x="-400.85"/>
 </text>
</svg>
