<?xml version="1.0" encoding="UTF-8" standalone="no"?>
<svg xmlns="http://www.w3.org/2000/svg" xmlns:sodipodi="http://sodipodi.sourceforge.net/DTD/sodipodi-0.dtd" xmlns:inkscape="http://www.inkscape.org/namespaces/inkscape" height="512" width="512" version="1.1" viewBox="0 0 512 512">
 <metadata id="metadata72"/>
 <path fill-rule="evenodd" d="m471.95 253.05c0 120.9-98.01 218.91-218.91 218.91s-218.91-98.01-218.91-218.91 98.01-218.91 218.91-218.91 218.91 98.01 218.91 218.91" fill="#8e8e8e" id="path4"/>
 <path fill-opacity="0.235" d="m295.28 119.31c-20.716-0.599-19.999 27.717-42.44 17.969-34.931 0.398-38.619 39.5-48.34 64.53-10.465 29.777-33.767 52.22-60.28 68.19-12.801 9.592-32.517 32.769-24.625 46.38 7.388 6.497 13.328 13.625 20.719 20.13 5.577 6.471 12.607 12.307 18.19 18.781 6.412 5.97 12.55 12.04 18.313 18.313 7.386 6.495 13.327 13.624 20.719 20.13 5.575 6.468 12.606 12.307 18.19 18.781 7.386 6.495 13.327 13.624 20.719 20.13 5.575 6.468 12.606 12.307 18.19 18.781 7.151 6.287 12.96 13.169 20.03 19.5 100.39-9.849 180.89-87.53 195.06-186.59-53.26-53.28-106.46-106.63-159.87-159.75-4.068-3.339-9.308-5.19-14.563-5.25" id="path6"/>
 <g fill-rule="evenodd" id="g8">
  <path fill-opacity="0.067" d="m256 1c-140.83 0-255 114.17-255 255s114.17 255 255 255 255-114.17 255-255-114.17-255-255-255m8.827 44.931c120.9 0 218.9 98 218.9 218.9s-98 218.9-218.9 218.9-218.93-98-218.93-218.9 98.03-218.9 218.93-218.9" id="path10"/>
  <g fill-opacity="0.129" id="g12">
   <path d="m256 4.43c-138.94 0-251.57 112.63-251.57 251.57s112.63 251.57 251.57 251.57 251.57-112.63 251.57-251.57-112.63-251.57-251.57-251.57m5.885 38.556c120.9 0 218.9 98 218.9 218.9s-98 218.9-218.9 218.9-218.93-98-218.93-218.9 98.03-218.9 218.93-218.9" id="path14"/>
   <path d="m256 8.36c-136.77 0-247.64 110.87-247.64 247.64s110.87 247.64 247.64 247.64 247.64-110.87 247.64-247.64-110.87-247.64-247.64-247.64m2.942 31.691c120.9 0 218.9 98 218.9 218.9s-98 218.9-218.9 218.9-218.93-98-218.93-218.9 98.03-218.9 218.93-218.9" id="path16"/>
  </g>
  <path fill="#ffffff" stroke-width="4.904" stroke="#000000" stroke-opacity="0.31" d="m253.04 7.86c-135.42 0-245.19 109.78-245.19 245.19 0 135.42 109.78 245.19 245.19 245.19 135.42 0 245.19-109.78 245.19-245.19 0-135.42-109.78-245.19-245.19-245.19zm0 26.297c120.9 0 218.9 98 218.9 218.9s-98 218.9-218.9 218.9-218.93-98-218.93-218.9 98.03-218.9 218.93-218.9z" id="path18"/>
 </g>
 <text font-family="Gentium Book Basic" x="729.64" y="231.36" line-height="125%" font-size="129.23" id="text20" word-spacing="0" letter-spacing="0"><tspan x="729.64" y="231.36" id="tspan22"/>
 </text>
 <text font-family="Arial" x="378.91" y="579.26" font-size="46.954" transform="scale(4.0128 .2492)" id="text24" text-anchor="middle"/>
 <text font-family="Gentium Book Basic" x="1310.91" y="151.36" line-height="125%" font-size="129.23" id="text26" word-spacing="0" letter-spacing="0"><tspan x="1310.91" y="151.36" id="tspan28"/>
 </text>
 <text font-family="Arial" x="523.76" y="258.22" font-size="46.954" transform="scale(4.0128 .2492)" id="text30" text-anchor="middle"/>
 <text font-family="Gentium Book Basic" x="239.33" y="-29.9" line-height="125%" font-size="129.23" id="text32" word-spacing="0" letter-spacing="0"><tspan x="239.33" y="-29.9" id="tspan34"/>
 </text>
 <text font-family="Arial" x="256.72" y="-469.13" font-size="46.954" transform="scale(4.0128 .2492)" id="text36" text-anchor="middle"/>
 <text font-family="Gentium Book Basic" x="1337.38" y="-246.37" line-height="125%" font-size="129.23" id="text38" word-spacing="0" letter-spacing="0"><tspan x="1337.38" y="-246.37" id="tspan40"/>
 </text>
 <text font-family="Arial" x="530.36" y="-1337.8" font-size="46.954" transform="scale(4.0128 .2492)" id="text42" text-anchor="middle"/>
 <text font-family="Gentium Book Basic" x="1918.65" y="-326.37" line-height="125%" font-size="129.23" id="text44" word-spacing="0" letter-spacing="0"><tspan x="1918.65" y="-326.37" id="tspan46"/>
 </text>
 <text font-family="Arial" x="675.21" y="-1658.83" font-size="46.954" transform="scale(4.0128 .2492)" id="text48" text-anchor="middle"/>
 <text font-family="Gentium Book Basic" x="1529.53" y="-798.77" line-height="125%" font-size="129.23" id="text50" word-spacing="0" letter-spacing="0"><tspan x="1529.53" y="-798.77" id="tspan52"/>
 </text>
 <text font-family="Arial" x="578.24" y="-3554.48" font-size="46.954" transform="scale(4.0128 .2492)" id="text54" text-anchor="middle"/>
 <text font-family="Gentium Book Basic" x="2110.79" y="-878.78" line-height="125%" font-size="129.23" id="text56" word-spacing="0" letter-spacing="0"><tspan x="2110.79" y="-878.78" id="tspan58"/>
 </text>
 <text font-family="Arial" x="723.09" y="-3875.52" font-size="46.954" transform="scale(4.0128 .2492)" id="text60" text-anchor="middle"/>
 <text font-family="Gentium Book Basic" x="277.99" y="535.94" line-height="125%" font-size="208.33" id="text62" word-spacing="0" letter-spacing="0"><tspan x="277.99" y="535.94" id="tspan64"/>
 </text>
 <path fill="#ffffff" d="m237.59 357.59c-79.08-21.19-121.43-44.65-121.43-44.65 18.08-67.46 68.847-30.806 98.88-142.9 7.933-29.607 29.83-35.722 57.14-32.07 0.091-0.435 0.163-0.87 0.279-1.304 3.351-12.487 16.187-19.9 28.678-16.553s19.903 16.186 16.557 28.674c-0.111 0.414-0.261 0.808-0.388 1.215 25.598 10.448 41.41 26.617 33.427 56.39-30.21 112.75 32.16 106.14 14.19 173.19 0 0-48.25-0.811-127.33-22m-34.975 2.032c0.863 14.691 10.812 27.851 25.806 31.869 14.993 4.02 30.19-2.405 38.28-14.684-10.06-2.276-20.742-4.857-32.14-7.911-11.458-3.07-22.05-6.181-31.948-9.275" id="path66"/>
</svg>
