<?xml version="1.0" encoding="UTF-8" standalone="no"?>
<svg xmlns="http://www.w3.org/2000/svg" xmlns:sodipodi="http://sodipodi.sourceforge.net/DTD/sodipodi-0.dtd" xmlns:inkscape="http://www.inkscape.org/namespaces/inkscape" viewBox="0 0 512 512" height="512" width="512" version="1.1">
 <metadata id="metadata106"/>
 <rect id="rect4" rx="25.988" height="512" width="512" fill="#545454"/>
 <path d="M 256,41 C 233.55523,41 211.20408,44.91583 189.59375,51.9375 146.3726,65.98089 108.71216,93.32772 82,130.09375 55.2881,166.85977 40.8125,210.74222 40.8125,256.1875 c 0,45.4453 14.4756,89.32773 41.1875,126.09375 6.66187,9.16925 13.99729,17.74728 21.9375,25.6875 L 207.96875,512 486,512 c 14.39735,0 26,-11.60265 26,-26 L 512,208.34375 408.09375,104.4375 C 384.19083,80.53457 354.86083,62.48268 322.40625,51.9375 300.79566,44.91583 278.44452,41 256,41 Z" id="path3181" opacity="0.25"/>
 <g transform="matrix(0.68258418,0,0,0.68258418,81.26216,81.27569)" id="g8" fill="#d3d3d3">
  <path id="path10" transform="matrix(17.85529,0,0,17.85529,1663.4,-2022.08)" d="m -80.26,130.11 c 0.082,-0.262 -0.086,-0.522 -0.375,-0.522 l -4.908,0 c -0.289,0 -0.352,-0.235 -0.167,-0.446 l 10.486,-13.416 c 0.185,-0.212 0.252,-0.175 0.148,0.082 l -2.303,9.37 c -0.104,0.257 0.047,0.411 0.336,0.411 l 4.919,0 c 0.289,0 0.382,0.232 0.205,0.451 l -10.511,13.407 c -0.176,0.219 -0.254,0.18 -0.17,-0.082 z" fill-rule="evenodd"/>
 </g>
 <path d="M 256,41 C 233.55523,41 211.20408,44.91583 189.59375,51.9375 146.3726,65.98089 108.71216,93.32772 82,130.09375 55.2881,166.85977 40.8125,210.74222 40.8125,256.1875 c 0,45.4453 14.4756,89.32773 41.1875,126.09375 26.71216,36.76602 64.3726,64.14414 107.59375,78.1875 43.2209,14.04339 89.59133,14.04339 132.8125,0 C 365.62714,446.42539 403.28784,419.04727 430,382.28125 456.71217,345.51523 471.1875,301.6328 471.1875,256.1875 471.1875,210.74222 456.71217,166.85977 430,130.09375 403.28784,93.32772 365.62715,65.98089 322.40625,51.9375 300.79566,44.91583 278.44452,41 256,41 Z m 0,45.65625 c 18.23854,0 35.63045,3.51366 52.09375,8.84375 34.5432,11.18371 63.91858,33.02801 84.78125,61.8125 20.23899,27.92407 32.65625,61.75072 32.65625,98.875 0,37.12427 -12.41726,70.98218 -32.65625,98.90625 -20.86267,28.78448 -50.23805,50.62885 -84.78125,61.8125 -16.4633,5.33013 -33.85521,8.8125 -52.09375,8.8125 -18.23853,0 -35.63071,-3.48237 -52.09375,-8.8125 C 169.36306,405.7226 139.98766,383.87823 119.125,355.09375 98.88601,327.16968 86.46875,293.31177 86.46875,256.1875 c 0,-37.12428 12.41726,-70.95093 32.65625,-98.875 C 139.98766,128.52801 169.36306,106.68371 203.90625,95.5 220.36929,90.16991 237.76147,86.65625 256,86.65625 Z" id="path3096" opacity="0.4" fill="#ffffff"/>
 <path d="m 256.5,41 0,45.65625 c 18.05583,0.0637 35.28148,3.56255 51.59375,8.84375 34.5432,11.18371 63.91858,33.02801 84.78125,61.8125 11.8129,16.29846 20.9614,34.60408 26.53125,54.40625 L 463.59375,199.875 C 456.7617,174.9533 445.43311,151.33554 430,130.09375 403.28784,93.32772 365.62715,65.98089 322.40625,51.9375 300.95573,44.96784 278.77687,41.05753 256.5,41 Z m 208,162.3125 c 0.87998,3.43107 1.66553,6.86831 2.375,10.34375 -0.70592,-3.46383 -1.49876,-6.92401 -2.375,-10.34375 z m 3.0625,13.84375 c 0.21734,1.163 0.42691,2.30143 0.625,3.46875 -0.19685,-1.16312 -0.40899,-2.30992 -0.625,-3.46875 z m 0.625,3.46875 c 0.19809,1.16732 0.38376,2.35981 0.5625,3.53125 -0.17924,-1.17925 -0.36362,-2.35618 -0.5625,-3.53125 z m 1.0625,7.03125 c 0.15929,1.17535 0.32902,2.35219 0.46875,3.53125 -0.13977,-1.18458 -0.30925,-2.35041 -0.46875,-3.53125 z m -45.46875,4.65625 c 0.12793,0.87263 0.26089,1.74775 0.375,2.625 -0.11406,-0.87574 -0.24717,-1.75387 -0.375,-2.625 z m 0.59375,4.40625 c 0.1537,1.29213 0.28287,2.60448 0.40625,3.90625 -0.12398,-1.30722 -0.2517,-2.60874 -0.40625,-3.90625 z m 46.53125,8.71875 c 0.0605,1.19185 0.11582,2.36796 0.15625,3.5625 -0.0399,-1.18578 -0.0967,-2.37936 -0.15625,-3.5625 z M 471.0625,249 c 0.0404,1.19454 0.0735,2.39672 0.0937,3.59375 -0.0202,-1.19865 -0.0535,-2.39759 -0.0937,-3.59375 z m -45.6875,0.28125 c 0.0362,0.86541 0.0711,1.72453 0.0937,2.59375 -0.0225,-0.86957 -0.0577,-1.72798 -0.0937,-2.59375 z m -32.5,105.8125 c -1.06249,1.46593 -2.14452,2.91277 -3.25,4.34375 1.10705,-1.43046 2.18673,-2.87675 3.25,-4.34375 z" id="path3589" fill="#ffffff"/>
</svg>
