<?xml version="1.0" encoding="UTF-8" standalone="no"?>
<svg xmlns="http://www.w3.org/2000/svg" xmlns:sodipodi="http://sodipodi.sourceforge.net/DTD/sodipodi-0.dtd" xmlns:inkscape="http://www.inkscape.org/namespaces/inkscape" height="512" width="512" version="1.1" viewBox="0 0 512 512">
 <metadata id="metadata106"/>
 <g fill="#f9f9f9" id="g4">
  <text font-family="Gentium Book Basic" x="859.16" y="229.53" line-height="125%" font-size="162.29" id="text6" word-spacing="0" letter-spacing="0"><tspan x="859.16" y="229.53" id="tspan8"/>
  </text>
  <text font-family="Arial" x="461.6" y="482.59" font-size="58.966" transform="scale(4.0128 .2492)" id="text10" text-anchor="middle"/>
  <text font-family="Gentium Book Basic" x="1463.98" y="272.65" line-height="125%" font-size="162.29" id="text12" word-spacing="0" letter-spacing="0"><tspan x="1463.98" y="272.65" id="tspan14"/>
  </text>
  <text font-family="Arial" x="612.32" y="655.63" font-size="58.966" transform="scale(4.0128 .2492)" id="text16" text-anchor="middle"/>
  <text font-family="Gentium Book Basic" x="2193.96" y="172.18" line-height="125%" font-size="162.29" id="text18" word-spacing="0" letter-spacing="0"><tspan x="2193.96" y="172.18" id="tspan20"/>
  </text>
  <text font-family="Arial" x="794.23" y="252.47" font-size="58.966" transform="scale(4.0128 .2492)" id="text22" text-anchor="middle"/>
  <text font-family="Gentium Book Basic" x="1486.27" y="129.47" line-height="125%" font-size="162.29" id="text24" word-spacing="0" letter-spacing="0"><tspan x="1486.27" y="129.47" id="tspan26"/>
  </text>
  <text font-family="Arial" x="617.88" y="81.07" font-size="58.966" transform="scale(4.0128 .2492)" id="text28" text-anchor="middle"/>
  <text font-family="Gentium Book Basic" x="2216.24" y="29" line-height="125%" font-size="162.29" id="text30" word-spacing="0" letter-spacing="0"><tspan x="2216.24" y="29" id="tspan32"/>
  </text>
  <text font-family="Arial" x="799.79" y="-322.1" font-size="58.966" transform="scale(4.0128 .2492)" id="text34" text-anchor="middle"/>
  <text font-family="Gentium Book Basic" x="-956.12" y="496.14" line-height="125%" font-size="162.29" id="text36" word-spacing="0" letter-spacing="0"><tspan x="-956.12" y="496.14" id="tspan38"/>
  </text>
  <text font-family="Arial" x="9.235" y="1552.46" font-size="58.966" transform="scale(4.0128 .2492)" id="text40" text-anchor="middle"/>
 </g>
 <path fill-rule="evenodd" d="m471.95 253.05c0 120.9-98.01 218.9-218.9 218.9-120.9 0-218.9-98.01-218.9-218.9 0-120.9 98.01-218.9 218.9-218.9 120.9 0 218.9 98.01 218.9 218.9" fill="#ababab" id="path42"/>
 <path fill-opacity="0.235" d="m254.09 113.28c-23.787 0.457-42.38 24.362-38.28 47.688 5.065 42.15 18.14 83.02 21.563 125.47 0.447 12.149 1.833 23.05 9.938 26.688 2.967 4.201 7.112 7.119 10.375 10.969-26.718-2.5-48.4 28.508-35.75 52.594 9.949 16.54 26.658 27.535 40.09 41.19 16.448 15.515 33.3 30.67 49.969 46.03 75.65-21.11 134.79-81.83 153.63-158.41-61.18-61.2-122.29-122.49-183.66-183.5-7.04-6.01-16.404-8.749-25.563-8.688-0.778-0.035-1.545-0.046-2.313-0.031" id="path44"/>
 <g fill-rule="evenodd" id="g46">
  <path fill-opacity="0.067" d="m256 1c-140.83 0-255 114.17-255 255s114.17 255 255 255 255-114.17 255-255-114.17-255-255-255m8.827 44.931c120.9 0 218.9 98 218.9 218.9s-98 218.9-218.9 218.9-218.93-98-218.93-218.9 98.03-218.9 218.93-218.9" id="path48"/>
  <g fill-opacity="0.129" id="g50">
   <path d="m256 4.433c-138.94 0-251.57 112.63-251.57 251.57s112.63 251.57 251.57 251.57 251.57-112.63 251.57-251.57-112.63-251.57-251.57-251.57m5.885 38.556c120.9 0 218.9 98 218.9 218.9s-98 218.9-218.9 218.9-218.93-98-218.93-218.9 98.03-218.9 218.93-218.9" id="path52"/>
   <path d="m256 8.356c-136.77 0-247.64 110.87-247.64 247.64s110.87 247.64 247.64 247.64 247.64-110.87 247.64-247.64-110.87-247.64-247.64-247.64m2.942 31.691c120.9 0 218.9 98 218.9 218.9s-98 218.9-218.9 218.9-218.93-98-218.93-218.9 98.03-218.9 218.93-218.9" id="path54"/>
  </g>
  <path fill="#ffffff" stroke-width="4.904" stroke="#000000" stroke-opacity="0.31" d="m253.04 7.859c-135.42 0-245.19 109.78-245.19 245.19 0 135.42 109.78 245.19 245.19 245.19 135.42 0 245.19-109.78 245.19-245.19 0-135.42-109.78-245.19-245.19-245.19zm0 26.297c120.9 0 218.9 98 218.9 218.9s-98 218.9-218.9 218.9-218.93-98-218.93-218.9 98.03-218.9 218.93-218.9z" id="path56"/>
 </g>
 <text font-family="Gentium Book Basic" x="729.64" y="231.36" line-height="125%" font-size="129.23" id="text58" word-spacing="0" letter-spacing="0"><tspan x="729.64" y="231.36" id="tspan60"/>
 </text>
 <text font-family="Arial" x="378.91" y="579.25" font-size="46.954" transform="scale(4.0128 .2492)" id="text62" text-anchor="middle"/>
 <text font-family="Gentium Book Basic" x="1310.91" y="151.36" line-height="125%" font-size="129.23" id="text64" word-spacing="0" letter-spacing="0"><tspan x="1310.91" y="151.36" id="tspan66"/>
 </text>
 <text font-family="Arial" x="523.76" y="258.22" font-size="46.954" transform="scale(4.0128 .2492)" id="text68" text-anchor="middle"/>
 <text font-family="Gentium Book Basic" x="239.33" y="-29.901" line-height="125%" font-size="129.23" id="text70" word-spacing="0" letter-spacing="0"><tspan x="239.33" y="-29.901" id="tspan72"/>
 </text>
 <text font-family="Arial" x="256.72" y="-469.14" font-size="46.954" transform="scale(4.0128 .2492)" id="text74" text-anchor="middle"/>
 <text font-family="Gentium Book Basic" x="1337.38" y="-246.37" line-height="125%" font-size="129.23" id="text76" word-spacing="0" letter-spacing="0"><tspan x="1337.38" y="-246.37" id="tspan78"/>
 </text>
 <text font-family="Arial" x="530.36" y="-1337.81" font-size="46.954" transform="scale(4.0128 .2492)" id="text80" text-anchor="middle"/>
 <text font-family="Gentium Book Basic" x="1918.65" y="-326.38" line-height="125%" font-size="129.23" id="text82" word-spacing="0" letter-spacing="0"><tspan x="1918.65" y="-326.38" id="tspan84"/>
 </text>
 <text font-family="Arial" x="675.21" y="-1658.85" font-size="46.954" transform="scale(4.0128 .2492)" id="text86" text-anchor="middle"/>
 <text font-family="Gentium Book Basic" x="1529.53" y="-798.78" line-height="125%" font-size="129.23" id="text88" word-spacing="0" letter-spacing="0"><tspan x="1529.53" y="-798.78" id="tspan90"/>
 </text>
 <text font-family="Arial" x="578.24" y="-3554.51" font-size="46.954" transform="scale(4.0128 .2492)" id="text92" text-anchor="middle"/>
 <text font-family="Gentium Book Basic" x="2110.79" y="-878.78" line-height="125%" font-size="129.23" id="text94" word-spacing="0" letter-spacing="0"><tspan x="2110.79" y="-878.78" id="tspan96"/>
 </text>
 <text font-family="Arial" x="723.09" y="-3875.54" font-size="46.954" transform="scale(4.0128 .2492)" id="text98" text-anchor="middle"/>
 <path fill="#f9f9f9" d="m257.28 326.8c-18.709 0-34.12 15.04-34.12 33.02 0 19.442 15.04 34.85 33.749 34.85s34.12-15.407 34.12-34.12c0-18.709-15.04-33.749-33.749-33.749m15.04-16.14c2.568-35.22 4.769-50.26 12.839-86.21 7.337-30.815 8.804-38.518 8.804-48.79 0-24.578-14.307-40.35-36.32-40.35-20.91 0-37.05 16.14-37.05 36.684 0 12.11 1.467 20.91 8.804 54.659 6.236 28.25 9.538 49.89 12.839 84.01h30.08" transform="matrix(1.1004 0 0 1.1004 -27.11 -35.591)" id="path100"/>
</svg>
