<?xml version="1.0" encoding="UTF-8" standalone="no"?>
<svg xmlns="http://www.w3.org/2000/svg" xmlns:sodipodi="http://sodipodi.sourceforge.net/DTD/sodipodi-0.dtd" xmlns:inkscape="http://www.inkscape.org/namespaces/inkscape" height="512" width="512" version="1.1" viewBox="0 0 512 512">
 <metadata id="metadata473"/>
 <defs id="defs4">
  <linearGradient y2="454.64" y1="213.78" x2="0" gradientUnits="userSpaceOnUse" id="linearGradient3216">
   <stop stop-color="#6a6a6a" id="stop7"/>
   <stop offset="0.47" id="stop9"/>
   <stop offset="0.494" stop-color="#ffffff" id="stop11"/>
   <stop offset="0.901" stop-color="#ffffff" id="stop13"/>
   <stop offset="0.955" id="stop15"/>
   <stop offset="1" id="stop17"/>
  </linearGradient>
 </defs>
 <path fill="#ffffff" fill-rule="evenodd" d="m34.906 222.66c-7.787 0-15.279 1.659-21.469 4.469l280.81 227.56h28.594l-286.28-232.03h-1.656m30.25 0 286.31 232.03h28.563l-286.24-232.03h-28.627m57.22 0 286.31 232.03h28.594l-286.28-232.03h-28.625m57.25 0 282.34 228.84c6.316-2.573 11.362-6.538 14.719-11.25l-268.5-217.59h-28.563m57.22 0 245.47 199 3.219-20.625-220.12-178.37h-28.563m57.22 0 194.69 157.81 3.188-20.594-169.31-137.22h-28.563m57.19 0 143.91 116.63 3.219-20.594-118.53-96.03h-28.594m57.22 0 93.09 75.47 0.469-3 2.469-17.813-67.44-54.656h-28.594m57.19 0 41.688 33.781 2.906-20.844-8.781-7.094c-6.666-3.658-15.229-5.844-24.281-5.844h-11.531m-463.91 18.19 2.875 25.5 232.41 188.34h28.594l-263.88-213.86m5.969 51.19 3.281 25.813 168.84 136.84h28.563l-200.69-162.66m6.594 51.719 3.281 25.844 104.97 85.09h28.59l-136.84-110.94m6.594 51.719 3.281 25.844 41.16 33.375h28.625l-73.06-59.21" opacity="0.1" id="path467"/>
 <text font-family="Gentium Book Basic" x="729.64" y="233.74" line-height="125%" font-size="129.23" id="text19" word-spacing="0" letter-spacing="0"><tspan x="729.64" y="233.74" id="tspan21"/>
 </text>
 <text font-family="Arial" x="378.91" y="588.81" font-size="46.954" transform="scale(4.0128 .2492)" id="text23" text-anchor="middle"/>
 <text font-family="Gentium Book Basic" x="1310.91" y="153.74" line-height="125%" font-size="129.23" id="text25" word-spacing="0" letter-spacing="0"><tspan x="1310.91" y="153.74" id="tspan27"/>
 </text>
 <text font-family="Arial" x="523.76" y="267.77" font-size="46.954" transform="scale(4.0128 .2492)" id="text29" text-anchor="middle"/>
 <text font-family="Gentium Book Basic" x="239.33" y="-27.52" line-height="125%" font-size="129.23" id="text31" word-spacing="0" letter-spacing="0"><tspan x="239.33" y="-27.52" id="tspan33"/>
 </text>
 <text font-family="Arial" x="256.72" y="-459.58" font-size="46.954" transform="scale(4.0128 .2492)" id="text35" text-anchor="middle"/>
 <text font-family="Gentium Book Basic" x="1337.38" y="-243.99" line-height="125%" font-size="129.23" id="text37" word-spacing="0" letter-spacing="0"><tspan x="1337.38" y="-243.99" id="tspan39"/>
 </text>
 <text font-family="Arial" x="530.36" y="-1328.26" font-size="46.954" transform="scale(4.0128 .2492)" id="text41" text-anchor="middle"/>
 <text font-family="Gentium Book Basic" x="1918.65" y="-324" line-height="125%" font-size="129.23" id="text43" word-spacing="0" letter-spacing="0"><tspan x="1918.65" y="-324" id="tspan45"/>
 </text>
 <text font-family="Arial" x="675.21" y="-1649.29" font-size="46.954" transform="scale(4.0128 .2492)" id="text47" text-anchor="middle"/>
 <text font-family="Gentium Book Basic" x="1529.53" y="-796.4" line-height="125%" font-size="129.23" id="text49" word-spacing="0" letter-spacing="0"><tspan x="1529.53" y="-796.4" id="tspan51"/>
 </text>
 <text font-family="Arial" x="578.24" y="-3544.95" font-size="46.954" transform="scale(4.0128 .2492)" id="text53" text-anchor="middle"/>
 <text font-family="Gentium Book Basic" x="2110.8" y="-876.4" line-height="125%" font-size="129.23" id="text55" word-spacing="0" letter-spacing="0"><tspan x="2110.8" y="-876.4" id="tspan57"/>
 </text>
 <text font-family="Arial" x="723.09" y="-3865.99" font-size="46.954" transform="scale(4.0128 .2492)" id="text59" text-anchor="middle"/>
 <g line-height="125%" font-family="Gentium Book Basic" id="g61" word-spacing="0" letter-spacing="0">
  <text font-size="208.33" x="277.99" y="538.32" id="text63"><tspan x="277.99" y="538.32" id="tspan65"/>
  </text>
  <text font-size="129.23" x="3833.78" y="-509.14" id="text67"><tspan x="3833.78" y="-509.14" id="tspan69"/>
  </text>
 </g>
 <text font-family="Arial" x="1152.46" y="-2392.23" font-size="46.954" transform="scale(4.0128 .2492)" id="text71" text-anchor="middle"/>
 <text font-family="Gentium Book Basic" x="4415.05" y="-589.14" line-height="125%" font-size="129.23" id="text73" word-spacing="0" letter-spacing="0"><tspan x="4415.05" y="-589.14" id="tspan75"/>
 </text>
 <text font-family="Arial" x="1297.31" y="-2713.26" font-size="46.954" transform="scale(4.0128 .2492)" id="text77" text-anchor="middle"/>
 <text font-family="Gentium Book Basic" x="3343.47" y="-770.39" line-height="125%" font-size="129.23" id="text79" word-spacing="0" letter-spacing="0"><tspan x="3343.47" y="-770.39" id="tspan81"/>
 </text>
 <text font-family="Arial" x="1030.27" y="-3440.62" font-size="46.954" transform="scale(4.0128 .2492)" id="text83" text-anchor="middle"/>
 <text font-family="Gentium Book Basic" x="4441.52" y="-986.87" line-height="125%" font-size="129.23" id="text85" word-spacing="0" letter-spacing="0"><tspan x="4441.52" y="-986.87" id="tspan87"/>
 </text>
 <text font-family="Arial" x="1303.91" y="-4309.29" font-size="46.954" transform="scale(4.0128 .2492)" id="text89" text-anchor="middle"/>
 <text font-family="Gentium Book Basic" x="5022.79" y="-1066.87" line-height="125%" font-size="129.23" id="text91" word-spacing="0" letter-spacing="0"><tspan x="5022.79" y="-1066.87" id="tspan93"/>
 </text>
 <text font-family="Arial" x="1448.76" y="-4630.32" font-size="46.954" transform="scale(4.0128 .2492)" id="text95" text-anchor="middle"/>
 <text font-family="Gentium Book Basic" x="4633.67" y="-1539.27" line-height="125%" font-size="129.23" id="text97" word-spacing="0" letter-spacing="0"><tspan x="4633.67" y="-1539.27" id="tspan99"/>
 </text>
 <text font-family="Arial" x="1351.79" y="-6525.99" font-size="46.954" transform="scale(4.0128 .2492)" id="text101" text-anchor="middle"/>
 <text font-family="Gentium Book Basic" x="5214.93" y="-1619.27" line-height="125%" font-size="129.23" id="text103" word-spacing="0" letter-spacing="0"><tspan x="5214.93" y="-1619.27" id="tspan105"/>
 </text>
 <text font-family="Arial" x="1496.64" y="-6847.02" font-size="46.954" transform="scale(4.0128 .2492)" id="text107" text-anchor="middle"/>
 <g line-height="125%" font-family="Gentium Book Basic" id="g109" word-spacing="0" letter-spacing="0">
  <text font-size="208.33" x="3382.13" y="-204.56" id="text111"><tspan x="3382.13" y="-204.56" id="tspan113"/>
  </text>
  <text font-size="129.23" x="90.12" y="140.66" id="text115"><tspan x="90.12" y="140.66" id="tspan117"/>
  </text>
 </g>
 <text font-family="Arial" x="219.54" y="215.29" font-size="46.954" transform="scale(4.0128 .2492)" id="text119" text-anchor="middle"/>
 <text font-family="Gentium Book Basic" x="671.39" y="60.662" line-height="125%" font-size="129.23" id="text121" word-spacing="0" letter-spacing="0"><tspan x="671.39" y="60.662" id="tspan123"/>
 </text>
 <text font-family="Arial" x="364.39" y="-105.74" font-size="46.954" transform="scale(4.0128 .2492)" id="text125" text-anchor="middle"/>
 <text font-family="Gentium Book Basic" x="-400.19" y="-120.6" line-height="125%" font-size="129.23" id="text127" word-spacing="0" letter-spacing="0"><tspan x="-400.19" y="-120.6" id="tspan129"/>
 </text>
 <text font-family="Arial" x="97.35" y="-833.09" font-size="46.954" transform="scale(4.0128 .2492)" id="text131" text-anchor="middle"/>
 <text font-family="Gentium Book Basic" x="697.86" y="-337.07" line-height="125%" font-size="129.23" id="text133" word-spacing="0" letter-spacing="0"><tspan x="697.86" y="-337.07" id="tspan135"/>
 </text>
 <text font-family="Arial" x="370.99" y="-1701.76" font-size="46.954" transform="scale(4.0128 .2492)" id="text137" text-anchor="middle"/>
 <text font-family="Gentium Book Basic" x="1279.13" y="-417.08" line-height="125%" font-size="129.23" id="text139" word-spacing="0" letter-spacing="0"><tspan x="1279.13" y="-417.08" id="tspan141"/>
 </text>
 <text font-family="Arial" x="515.84" y="-2022.8" font-size="46.954" transform="scale(4.0128 .2492)" id="text143" text-anchor="middle"/>
 <text font-family="Gentium Book Basic" x="890.01" y="-889.48" line-height="125%" font-size="129.23" id="text145" word-spacing="0" letter-spacing="0"><tspan x="890.01" y="-889.48" id="tspan147"/>
 </text>
 <text font-family="Arial" x="418.87" y="-3918.45" font-size="46.954" transform="scale(4.0128 .2492)" id="text149" text-anchor="middle"/>
 <text font-family="Gentium Book Basic" x="1471.27" y="-969.48" line-height="125%" font-size="129.23" id="text151" word-spacing="0" letter-spacing="0"><tspan x="1471.27" y="-969.48" id="tspan153"/>
 </text>
 <text font-family="Arial" x="563.72" y="-4239.48" font-size="46.954" transform="scale(4.0128 .2492)" id="text155" text-anchor="middle"/>
 <g line-height="125%" font-size="208.33" font-family="Gentium Book Basic" id="g157" word-spacing="0" letter-spacing="0">
  <text x="-361.53" y="445.24" id="text159"><tspan x="-361.53" y="445.24" id="tspan161"/>
  </text>
  <text x="-2585.36" y="426.28" id="text163"><tspan x="-2585.36" y="426.28" id="tspan165"/>
  </text>
 </g>
 <text font-family="Arial" x="-326.55" y="1147.7" font-size="75.7" transform="scale(4.0128 .2492)" id="text167" text-anchor="middle"/>
 <text font-family="Gentium Book Basic" x="-1879.02" y="270.65" line-height="125%" font-size="208.33" id="text169" word-spacing="0" letter-spacing="0"><tspan x="-1879.02" y="270.65" id="tspan171"/>
 </text>
 <text font-family="Arial" x="-150.53" y="523.17" font-size="75.7" transform="scale(4.0128 .2492)" id="text173" text-anchor="middle"/>
 <text font-family="Gentium Book Basic" x="-1845.65" y="262.53" line-height="125%" font-size="208.33" id="text175" word-spacing="0" letter-spacing="0"><tspan x="-1845.65" y="262.53" id="tspan177"/>
 </text>
 <text font-family="Arial" x="-142.21" y="490.57" font-size="75.7" transform="scale(4.0128 .2492)" id="text179" text-anchor="middle"/>
 <text font-family="Gentium Book Basic" x="-695.23" y="108.12" line-height="125%" font-size="129.23" id="text181" word-spacing="0" letter-spacing="0"><tspan x="-695.23" y="108.12" id="tspan183"/>
 </text>
 <text font-family="Arial" x="23.831" y="84.71" font-size="46.954" transform="scale(4.0128 .2492)" id="text185" text-anchor="middle"/>
 <text font-family="Gentium Book Basic" x="-113.97" y="28.12" line-height="125%" font-size="129.23" id="text187" word-spacing="0" letter-spacing="0"><tspan x="-113.97" y="28.12" id="tspan189"/>
 </text>
 <text font-family="Arial" x="168.68" y="-236.33" font-size="46.954" transform="scale(4.0128 .2492)" id="text191" text-anchor="middle"/>
 <text font-family="Gentium Book Basic" x="-1185.55" y="-153.14" line-height="125%" font-size="129.23" id="text193" word-spacing="0" letter-spacing="0"><tspan x="-1185.55" y="-153.14" id="tspan195"/>
 </text>
 <text font-family="Arial" x="-98.36" y="-963.66" font-size="46.954" transform="scale(4.0128 .2492)" id="text197" text-anchor="middle"/>
 <text font-family="Gentium Book Basic" x="-87.5" y="-369.61" line-height="125%" font-size="129.23" id="text199" word-spacing="0" letter-spacing="0"><tspan x="-87.5" y="-369.61" id="tspan201"/>
 </text>
 <text font-family="Arial" x="175.28" y="-1832.34" font-size="46.954" transform="scale(4.0128 .2492)" id="text203" text-anchor="middle"/>
 <text font-family="Gentium Book Basic" x="493.77" y="-449.61" line-height="125%" font-size="129.23" id="text205" word-spacing="0" letter-spacing="0"><tspan x="493.77" y="-449.61" id="tspan207"/>
 </text>
 <text font-family="Arial" x="320.12" y="-2153.37" font-size="46.954" transform="scale(4.0128 .2492)" id="text209" text-anchor="middle"/>
 <text font-family="Gentium Book Basic" x="104.65" y="-922.01" line-height="125%" font-size="129.23" id="text211" word-spacing="0" letter-spacing="0"><tspan x="104.65" y="-922.01" id="tspan213"/>
 </text>
 <text font-family="Arial" x="223.16" y="-4049.01" font-size="46.954" transform="scale(4.0128 .2492)" id="text215" text-anchor="middle"/>
 <text font-family="Gentium Book Basic" x="685.91" y="-1002.02" line-height="125%" font-size="129.23" id="text217" word-spacing="0" letter-spacing="0"><tspan x="685.91" y="-1002.02" id="tspan219"/>
 </text>
 <text font-family="Arial" x="368" y="-4370.04" font-size="46.954" transform="scale(4.0128 .2492)" id="text221" text-anchor="middle"/>
 <g line-height="125%" font-family="Gentium Book Basic" id="g223" word-spacing="0" letter-spacing="0">
  <text font-size="208.33" x="-1146.89" y="412.7" id="text225"><tspan x="-1146.89" y="412.7" id="tspan227"/>
  </text>
  <text font-size="129.23" x="-745.68" y="-630.89" id="text229"><tspan x="-745.68" y="-630.89" id="tspan231"/>
  </text>
 </g>
 <text font-family="Arial" x="11.261" y="-2880.79" font-size="46.954" transform="scale(4.0128 .2492)" id="text233" text-anchor="middle"/>
 <text font-family="Gentium Book Basic" x="-164.41" y="-710.89" line-height="125%" font-size="129.23" id="text235" word-spacing="0" letter-spacing="0"><tspan x="-164.41" y="-710.89" id="tspan237"/>
 </text>
 <text font-family="Arial" x="156.11" y="-3201.82" font-size="46.954" transform="scale(4.0128 .2492)" id="text239" text-anchor="middle"/>
 <text font-family="Gentium Book Basic" x="-1235.99" y="-892.15" line-height="125%" font-size="129.23" id="text241" word-spacing="0" letter-spacing="0"><tspan x="-1235.99" y="-892.15" id="tspan243"/>
 </text>
 <text font-family="Arial" x="-110.93" y="-3929.18" font-size="46.954" transform="scale(4.0128 .2492)" id="text245" text-anchor="middle"/>
 <text font-family="Gentium Book Basic" x="-137.94" y="-1108.62" line-height="125%" font-size="129.23" id="text247" word-spacing="0" letter-spacing="0"><tspan x="-137.94" y="-1108.62" id="tspan249"/>
 </text>
 <text font-family="Arial" x="162.71" y="-4797.83" font-size="46.954" transform="scale(4.0128 .2492)" id="text251" text-anchor="middle"/>
 <text font-family="Gentium Book Basic" x="443.32" y="-1188.63" line-height="125%" font-size="129.23" id="text253" word-spacing="0" letter-spacing="0"><tspan x="443.32" y="-1188.63" id="tspan255"/>
 </text>
 <text font-family="Arial" x="307.55" y="-5118.87" font-size="46.954" transform="scale(4.0128 .2492)" id="text257" text-anchor="middle"/>
 <text font-family="Gentium Book Basic" x="54.2" y="-1661.03" line-height="125%" font-size="129.23" id="text259" word-spacing="0" letter-spacing="0"><tspan x="54.2" y="-1661.03" id="tspan261"/>
 </text>
 <text font-family="Arial" x="210.59" y="-7014.51" font-size="46.954" transform="scale(4.0128 .2492)" id="text263" text-anchor="middle"/>
 <text font-family="Gentium Book Basic" x="635.47" y="-1741.03" line-height="125%" font-size="129.23" id="text265" word-spacing="0" letter-spacing="0"><tspan x="635.47" y="-1741.03" id="tspan267"/>
 </text>
 <text font-family="Arial" x="355.43" y="-7335.54" font-size="46.954" transform="scale(4.0128 .2492)" id="text269" text-anchor="middle"/>
 <g line-height="125%" font-family="Gentium Book Basic" id="g271" word-spacing="0" letter-spacing="0">
  <text font-size="208.33" x="-1197.34" y="-326.31" id="text273"><tspan x="-1197.34" y="-326.31" id="tspan275"/>
  </text>
  <text font-size="129.23" x="2358.46" y="-1373.77" id="text277"><tspan x="2358.46" y="-1373.77" id="tspan279"/>
  </text>
 </g>
 <text font-family="Arial" x="784.8" y="-5861.8" font-size="46.954" transform="scale(4.0128 .2492)" id="text281" text-anchor="middle"/>
 <text font-family="Gentium Book Basic" x="2939.72" y="-1453.77" line-height="125%" font-size="129.23" id="text283" word-spacing="0" letter-spacing="0"><tspan x="2939.72" y="-1453.77" id="tspan285"/>
 </text>
 <text font-family="Arial" x="929.65" y="-6182.84" font-size="46.954" transform="scale(4.0128 .2492)" id="text287" text-anchor="middle"/>
 <text font-family="Gentium Book Basic" x="1868.14" y="-1635.02" line-height="125%" font-size="129.23" id="text289" word-spacing="0" letter-spacing="0"><tspan x="1868.14" y="-1635.02" id="tspan291"/>
 </text>
 <text font-family="Arial" x="662.61" y="-6910.17" font-size="46.954" transform="scale(4.0128 .2492)" id="text293" text-anchor="middle"/>
 <text font-family="Gentium Book Basic" x="2966.19" y="-1851.5" line-height="125%" font-size="129.23" id="text295" word-spacing="0" letter-spacing="0"><tspan x="2966.19" y="-1851.5" id="tspan297"/>
 </text>
 <text font-family="Arial" x="936.25" y="-7778.84" font-size="46.954" transform="scale(4.0128 .2492)" id="text299" text-anchor="middle"/>
 <text font-family="Gentium Book Basic" x="3547.46" y="-1931.5" line-height="125%" font-size="129.23" id="text301" word-spacing="0" letter-spacing="0"><tspan x="3547.46" y="-1931.5" id="tspan303"/>
 </text>
 <text font-family="Arial" x="1081.1" y="-8099.88" font-size="46.954" transform="scale(4.0128 .2492)" id="text305" text-anchor="middle"/>
 <text font-family="Gentium Book Basic" x="3158.34" y="-2403.9" line-height="125%" font-size="129.23" id="text307" word-spacing="0" letter-spacing="0"><tspan x="3158.34" y="-2403.9" id="tspan309"/>
 </text>
 <text font-family="Arial" x="984.13" y="-9995.52" font-size="46.954" transform="scale(4.0128 .2492)" id="text311" text-anchor="middle"/>
 <text font-family="Gentium Book Basic" x="3739.61" y="-2483.9" line-height="125%" font-size="129.23" id="text313" word-spacing="0" letter-spacing="0"><tspan x="3739.61" y="-2483.9" id="tspan315"/>
 </text>
 <text font-family="Arial" x="1128.98" y="-10316.54" font-size="46.954" transform="scale(4.0128 .2492)" id="text317" text-anchor="middle"/>
 <g line-height="125%" font-size="208.33" font-family="Gentium Book Basic" id="g319" word-spacing="0" letter-spacing="0">
  <text x="1906.8" y="-1069.19" id="text321"><tspan x="1906.8" y="-1069.19" id="tspan323"/>
  </text>
  <text x="-2635.81" y="-315.11" id="text325"><tspan x="-2635.81" y="-315.11" id="tspan327"/>
  </text>
 </g>
 <text font-family="Arial" x="-339.12" y="-1827.37" font-size="75.7" transform="scale(4.0128 .2492)" id="text329" text-anchor="middle"/>
 <text font-family="Gentium Book Basic" x="-2635.81" y="-315.11" line-height="125%" font-size="208.33" id="text331" word-spacing="0" letter-spacing="0"><tspan x="-2635.81" y="-315.11" id="tspan333"/>
 </text>
 <text font-family="Arial" x="-339.12" y="-1827.37" font-size="75.7" transform="scale(4.0128 .2492)" id="text335" text-anchor="middle"/>
 <text font-family="Gentium Book Basic" x="-2969.36" y="317.8" line-height="125%" font-size="208.33" id="text337" word-spacing="0" letter-spacing="0"><tspan x="-2969.36" y="317.8" id="tspan339"/>
 </text>
 <text font-family="Arial" x="-422.24" y="712.4" font-size="75.7" transform="scale(4.0128 .2492)" id="text341" text-anchor="middle"/>
 <text font-family="Gentium Book Basic" x="-2263.02" y="162.17" line-height="125%" font-size="208.33" id="text343" word-spacing="0" letter-spacing="0"><tspan x="-2263.02" y="162.17" id="tspan345"/>
 </text>
 <text font-family="Arial" x="-246.22" y="87.88" font-size="75.7" transform="scale(4.0128 .2492)" id="text347" text-anchor="middle"/>
 <path fill-rule="evenodd" d="m108.62 57.37c-7.963 0-15.223 2.323-20.688 6.25-4.545 3.266-7.749 7.867-8.75 13.13h-11.906c-16.447 0-29.875 13.02-29.875 29.19v66.75c0 0.505 0.005 1 0.031 1.5-0.001 0.011 0.001 0.021 0 0.031-0.026 0.499-0.031 1.026-0.031 1.531v66.72c0 16.17 13.428 29.22 29.875 29.22h377.47c16.447 0 29.875-13.05 29.875-29.22v-66.72c0-0.505-0.005-1.032-0.031-1.531 0.001-0.011-0.001-0.021 0-0.031 0.026-0.499 0.031-0.995 0.031-1.5v-66.75c0-16.17-13.428-29.19-29.875-29.19h-262.91c-1-5.255-4.205-9.857-8.75-13.12-5.465-3.927-12.756-6.25-20.719-6.25h-43.75" fill="#cccccc" id="path349"/>
 <text font-family="Gentium Book Basic" x="-1160.49" y="549.52" line-height="125%" font-size="208.33" id="text351" word-spacing="0" letter-spacing="0"><tspan x="-1160.49" y="549.52" id="tspan353"/>
 </text>
 <text font-family="Arial" x="28.532" y="1642.24" font-size="75.7" transform="scale(4.0128 .2492)" id="text355" text-anchor="middle"/>
 <text font-family="Gentium Book Basic" x="-1160.49" y="549.52" line-height="125%" font-size="208.33" id="text357" word-spacing="0" letter-spacing="0"><tspan x="-1160.49" y="549.52" id="tspan359"/>
 </text>
 <text font-family="Arial" x="28.532" y="1642.24" font-size="75.7" transform="scale(4.0128 .2492)" id="text361" text-anchor="middle"/>
 <text font-family="Gentium Book Basic" x="729.63" y="233.74" line-height="125%" font-size="129.23" id="text363" word-spacing="0" letter-spacing="0"><tspan x="729.63" y="233.74" id="tspan365"/>
 </text>
 <text font-family="Arial" x="378.91" y="588.81" font-size="46.954" transform="scale(4.0128 .2492)" id="text367" text-anchor="middle"/>
 <text font-family="Gentium Book Basic" x="1310.9" y="153.74" line-height="125%" font-size="129.23" id="text369" word-spacing="0" letter-spacing="0"><tspan x="1310.9" y="153.74" id="tspan371"/>
 </text>
 <text font-family="Arial" x="523.76" y="267.78" font-size="46.954" transform="scale(4.0128 .2492)" id="text373" text-anchor="middle"/>
 <text font-family="Gentium Book Basic" x="239.32" y="-27.52" line-height="125%" font-size="129.23" id="text375" word-spacing="0" letter-spacing="0"><tspan x="239.32" y="-27.52" id="tspan377"/>
 </text>
 <text font-family="Arial" x="256.72" y="-459.58" font-size="46.954" transform="scale(4.0128 .2492)" id="text379" text-anchor="middle"/>
 <text font-family="Gentium Book Basic" x="1337.37" y="-243.99" line-height="125%" font-size="129.23" id="text381" word-spacing="0" letter-spacing="0"><tspan x="1337.37" y="-243.99" id="tspan383"/>
 </text>
 <text font-family="Arial" x="530.36" y="-1328.24" font-size="46.954" transform="scale(4.0128 .2492)" id="text385" text-anchor="middle"/>
 <text font-family="Gentium Book Basic" x="1918.64" y="-323.99" line-height="125%" font-size="129.23" id="text387" word-spacing="0" letter-spacing="0"><tspan x="1918.64" y="-323.99" id="tspan389"/>
 </text>
 <text font-family="Arial" x="675.2" y="-1649.28" font-size="46.954" transform="scale(4.0128 .2492)" id="text391" text-anchor="middle"/>
 <text font-family="Gentium Book Basic" x="1529.52" y="-796.39" line-height="125%" font-size="129.23" id="text393" word-spacing="0" letter-spacing="0"><tspan x="1529.52" y="-796.39" id="tspan395"/>
 </text>
 <text font-family="Arial" x="578.24" y="-3544.93" font-size="46.954" transform="scale(4.0128 .2492)" id="text397" text-anchor="middle"/>
 <text font-family="Gentium Book Basic" x="2110.79" y="-876.4" line-height="125%" font-size="129.23" id="text399" word-spacing="0" letter-spacing="0"><tspan x="2110.79" y="-876.4" id="tspan401"/>
 </text>
 <text font-family="Arial" x="723.08" y="-3865.96" font-size="46.954" transform="scale(4.0128 .2492)" id="text403" text-anchor="middle"/>
 <g line-height="125%" font-family="Gentium Book Basic" id="g405" word-spacing="0" letter-spacing="0">
  <text font-size="208.33" x="277.98" y="538.32" id="text407"><tspan x="277.98" y="538.32" id="tspan409"/>
  </text>
  <text font-size="129.23" x="3833.77" y="-509.13" id="text411"><tspan x="3833.77" y="-509.13" id="tspan413"/>
  </text>
 </g>
 <text font-family="Arial" x="1152.45" y="-2392.21" font-size="46.954" transform="scale(4.0128 .2492)" id="text415" text-anchor="middle"/>
 <text font-family="Gentium Book Basic" x="4415.04" y="-589.14" line-height="125%" font-size="129.23" id="text417" word-spacing="0" letter-spacing="0"><tspan x="4415.04" y="-589.14" id="tspan419"/>
 </text>
 <text font-family="Arial" x="1297.3" y="-2713.25" font-size="46.954" transform="scale(4.0128 .2492)" id="text421" text-anchor="middle"/>
 <text font-family="Gentium Book Basic" x="3343.46" y="-770.39" line-height="125%" font-size="129.23" id="text423" word-spacing="0" letter-spacing="0"><tspan x="3343.46" y="-770.39" id="tspan425"/>
 </text>
 <text font-family="Arial" x="1030.26" y="-3440.59" font-size="46.954" transform="scale(4.0128 .2492)" id="text427" text-anchor="middle"/>
 <text font-family="Gentium Book Basic" x="4441.51" y="-986.87" line-height="125%" font-size="129.23" id="text429" word-spacing="0" letter-spacing="0"><tspan x="4441.51" y="-986.87" id="tspan431"/>
 </text>
 <text font-family="Arial" x="1303.9" y="-4309.26" font-size="46.954" transform="scale(4.0128 .2492)" id="text433" text-anchor="middle"/>
 <text font-family="Gentium Book Basic" x="5022.78" y="-1066.87" line-height="125%" font-size="129.23" id="text435" word-spacing="0" letter-spacing="0"><tspan x="5022.78" y="-1066.87" id="tspan437"/>
 </text>
 <text font-family="Arial" x="1448.75" y="-4630.3" font-size="46.954" transform="scale(4.0128 .2492)" id="text439" text-anchor="middle"/>
 <text font-family="Gentium Book Basic" x="4633.66" y="-1539.27" line-height="125%" font-size="129.23" id="text441" word-spacing="0" letter-spacing="0"><tspan x="4633.66" y="-1539.27" id="tspan443"/>
 </text>
 <text font-family="Arial" x="1351.78" y="-6525.95" font-size="46.954" transform="scale(4.0128 .2492)" id="text445" text-anchor="middle"/>
 <text font-family="Gentium Book Basic" x="5214.92" y="-1619.27" line-height="125%" font-size="129.23" id="text447" word-spacing="0" letter-spacing="0"><tspan x="5214.92" y="-1619.27" id="tspan449"/>
 </text>
 <text font-family="Arial" x="1496.63" y="-6846.99" font-size="46.954" transform="scale(4.0128 .2492)" id="text451" text-anchor="middle"/>
 <text font-family="Gentium Book Basic" x="3382.12" y="-204.56" line-height="125%" font-size="208.33" id="text453" word-spacing="0" letter-spacing="0"><tspan x="3382.12" y="-204.56" id="tspan455"/>
 </text>
 <path fill="#ffffff" fill-rule="evenodd" d="m108.54 57.31c-7.963 0-15.11 2.403-20.572 6.33-4.545 3.266-7.702 7.931-8.703 13.187h-12.13c-17.677 0-29.802 12.771-29.802 30.661v3.956c0-16.17 13.355-29.27 29.802-29.27h14.286c1-5.256 2-9.657 6.549-12.923 5.465-3.927 12.609-6.33 20.572-6.33h43.78c7.963 0 15.371 2.403 20.835 6.33 4.545 3.266 5.766 7.668 6.769 12.923h264.88c16.447 0 29.802 11.455 29.802 27.625v-3.956c0-16.17-13.355-29.01-29.802-29.01h-262.95c-1-5.256-4.159-9.921-8.703-13.187-5.465-3.927-12.872-6.33-20.835-6.33z" opacity="0.764" id="path459"/>
 <path fill-rule="evenodd" d="m37.35 213.72c-19.928 0-38.06 11.337-36.23 25.697l24.26 190.23c1.733 13.594 16.271 25.05 36.2 25.05h383.41c19.933 0 34.1-11.5 36.2-24.98l29.632-190.23c1.123-7.206-3.137-13.807-9.971-18.394-6.833-4.587-16.258-7.371-26.22-7.371h-437.27" fill="#8f8f8f" id="path461"/>
 <path fill="#ffffff" fill-rule="evenodd" d="m37.34 213.71c-19.928 0-38.05 11.353-36.22 25.713l0.406 3.136c3-11.423 18.732-19.755 35.812-19.755h437.28c9.966 0 19.386 2.782 26.22 7.369 4.736 3.178 8.234 7.317 9.563 11.96l0.406-2.643c1.123-7.206-3.134-13.825-9.969-18.411-6.833-4.587-16.252-7.369-26.22-7.369h-437.28" opacity="0.4" id="path465"/>
 <path fill="url(#linearGradient3216)" fill-rule="evenodd" d="m37.35 213.72c-19.928 0-38.06 11.337-36.23 25.697l24.26 190.23c1.733 13.594 16.271 25.05 36.2 25.05h383.41c19.933 0 34.1-11.5 36.2-24.98l29.632-190.23c1.123-7.206-3.137-13.807-9.971-18.394-6.833-4.587-16.258-7.371-26.22-7.371h-437.27" opacity="0.05" id="path469"/>
</svg>
