<?xml version='1.0' encoding='UTF-8' standalone='no'?>
<svg height="16" xmlns:inkscape="http://www.inkscape.org/namespaces/inkscape" xmlns:sodipodi="http://sodipodi.sourceforge.net/DTD/sodipodi-0.dtd" version="1.1" width="16" xmlns="http://www.w3.org/2000/svg">
 <metadata id="metadata90"/>
 <g inkscape:groupmode="layer" id="layer12" inkscape:label="actions" transform="translate(-101.0002,-787)">
  <path inkscape:connector-curvature="0" d="m 103.0002,791 c -0.5,0 -1,0.5 -1,1 l 0,4 c 0,0.5 0.5,1 1,1 l 1,0 0,-2 10,0 0,2 1,0 c 0.5,0 1,-0.5 1,-1 l 0,-4 c 0,-0.5 -0.5,-1 -1,-1 l -12,0 z" id="path5670" sodipodi:nodetypes="ccccccccccccc" fill="#bebebe"/>
  <path inkscape:connector-curvature="0" d="m 105.0002,788 0,2 8,0 0,-2 -8,0 z" id="path5672" sodipodi:nodetypes="ccccc" fill="#bebebe"/>
  <path inkscape:connector-curvature="0" d="m 105.0002,796 0,5 8,0 0,-5 z" id="path5674" sodipodi:nodetypes="ccccc" fill="#bebebe"/>
 </g>
</svg>
