<?xml version='1.0' encoding='UTF-8' standalone='no'?>
<svg height="16" xmlns:inkscape="http://www.inkscape.org/namespaces/inkscape" xmlns:sodipodi="http://sodipodi.sourceforge.net/DTD/sodipodi-0.dtd" version="1.1" width="16" xmlns="http://www.w3.org/2000/svg">
 <metadata id="metadata90"/>
 <g inkscape:groupmode="layer" id="layer12" inkscape:label="actions" transform="translate(-141.0002,-747)">
  <path inkscape:connector-curvature="0" d="m 144.78125,749 a 1.0001,1.0001 0 0 0 -0.5,1.71875 L 148.5625,755 l -4.28125,4.28125 a 1.016466,1.016466 0 1 0 1.4375,1.4375 l 5,-5 0.6875,-0.71875 -0.6875,-0.71875 -5,-5 A 1.0001,1.0001 0 0 0 144.78125,749 z" id="path1681" color="#000000" stroke-width="2" fill="#bebebe"/>
  <rect height="12" id="rect8360" rx="0" width="2" x="152" y="749" fill="#bebebe" color="#bebebe" stroke-width="2"/>
  <rect height="1" id="rect8362" rx="0" ry="0.5" transform="scale(-1,1)" width="1" x="-145" y="749" fill="#bebebe"/>
  <rect height="1" id="rect8366" rx="0" ry="0.5" transform="scale(-1,1)" width="1" x="-145" y="760" fill="#bebebe"/>
 </g>
</svg>
