<?xml version="1.0" encoding="UTF-8" standalone="no"?>
<svg xmlns="http://www.w3.org/2000/svg" xmlns:sodipodi="http://sodipodi.sourceforge.net/DTD/sodipodi-0.dtd" xmlns:inkscape="http://www.inkscape.org/namespaces/inkscape" height="16" version="1.1" width="16">
 <metadata id="metadata90"/>
 <g inkscape:groupmode="layer" id="layer12" inkscape:label="actions" transform="translate(-181.0002,-747)">
  <g id="g2996" transform="matrix(0.75119209,0,0,0.75119209,47.031901,187.85474)">
   <path id="path8393" d="m 183.78125,751 a 1.0001,1.0001 0 0 0 -0.5,1.71875 l 5,5 0.71875,0.6875 0.71875,-0.6875 5,-5 a 1.016466,1.016466 0 1 0 -1.4375,-1.4375 L 189,755.5625 184.71875,751.28125 A 1.0001,1.0001 0 0 0 183.78125,751 z" inkscape:connector-curvature="0" color="#000000" stroke-width="2" fill="#bebebe"/>
   <rect y="-195" x="-752" width="1" transform="matrix(0,-1,-1,0,0,0)" ry="0.5" rx="0" id="rect8399" height="1" fill="#bebebe"/>
   <rect y="-184" x="-752" width="1" transform="matrix(0,-1,-1,0,0,0)" ry="0.5" rx="0" id="rect8403" height="1" fill="#bebebe"/>
  </g>
 </g>
</svg>
