<?xml version="1.0" encoding="UTF-8" standalone="no"?>
<svg xmlns="http://www.w3.org/2000/svg" xmlns:sodipodi="http://sodipodi.sourceforge.net/DTD/sodipodi-0.dtd" xmlns:inkscape="http://www.inkscape.org/namespaces/inkscape" width="16" height="16" version="1.0">
 <metadata id="metadata7"/>
 <g inkscape:groupmode="layer" id="layer3" inkscape:label="Cross" transform="translate(-3,-2.9995677)">
  <path d="m 12,3.9995677 0,6 6,0 -2,-2 2,-2 -2,-2 -2,2 -2,-2 z m -6.5,6 c -0.831,0 -1.5,0.6690003 -1.5,1.5000003 l 0,6.5 8,0 0,-6.5 c 0,-0.831 -0.669,-1.5000003 -1.5,-1.5000003 l -5,0 z m 4.5,1.0000003 1,0 0,1 -1,0 0,-1 z m -4,2 4,0 0,3 -4,0 0,-3 z" id="path3842" inkscape:connector-curvature="0" fill="#bebebe" color="#000000" stroke-width="0.8"/>
 </g>
</svg>
