<?xml version="1.0" encoding="UTF-8" standalone="no"?>
<svg xmlns="http://www.w3.org/2000/svg" xmlns:xlink="http://www.w3.org/1999/xlink" xmlns:sodipodi="http://sodipodi.sourceforge.net/DTD/sodipodi-0.dtd" xmlns:inkscape="http://www.inkscape.org/namespaces/inkscape" width="16" height="16" version="1.0">
 <defs id="defs4">
  <linearGradient id="linearGradient6324">
   <stop id="stop6326"/>
   <stop offset="1" id="stop6328" stop-color="#646464"/>
  </linearGradient>
  <linearGradient inkscape:collect="always" xlink:href="#linearGradient6324" id="linearGradient4517" gradientUnits="userSpaceOnUse" y1="3.062" x2="0" y2="16.921" gradientTransform="translate(-1.9666407,-1.96875)"/>
  <linearGradient id="StandardGradient" gradientTransform="matrix(1.0022346,0,0,1.0022346,-2.7263793e-3,-3.4274669e-3)" y1="1" x2="0" y2="14.839" gradientUnits="userSpaceOnUse">
   <stop id="stop3292" stop-opacity="0.863"/>
   <stop offset="1" id="stop3294" stop-opacity="0.471"/>
  </linearGradient>
  <linearGradient inkscape:collect="always" xlink:href="#StandardGradient" id="linearGradient3630" gradientUnits="userSpaceOnUse" gradientTransform="matrix(1.0022346,0,0,1.0022346,-20.002726,-0.00342747)" y1="1" x2="0" y2="14.839"/>
  <clipPath id="clipPath3637">
   <path d="m -20,0 0,16 16,0 0,-16 -16,0 z m 6.03125,1 c 1.284137,0 2.583434,0.518602 3.5625,1.5 1.550185,1.5538805 1.873026,3.8766948 0.96875,5.75 -0.02944,0.062991 -0.492783,1.0685422 0,1.5625 0.298906,0.299618 0.66775,0.19791 1.125,0.65625 l 3.03125,3.0625 c 0.00872,0.01101 0.600029,0.617291 0,1.21875 -0.59772,0.599143 -1.18433,-0.0032 -1.1875,0 l -3.0625,-3.0625 c -0.45725,-0.45834 -0.357344,-0.856632 -0.65625,-1.15625 -0.402987,-0.403947 -1.16538,-0.182596 -1.46875,-0.0625 -0.04854,0.02556 -0.10707,0.0699 -0.15625,0.09375 -1.868852,0.90643 -4.168562,0.585132 -5.71875,-0.96875 -1.958131,-1.9627964 -1.95813,-5.1309536 0,-7.09375 0.979066,-0.9813981 2.278363,-1.5 3.5625,-1.5 z m 0,1.28125 c -2.076911,0 -3.749999,1.6993904 -3.75,3.78125 0,2.0818599 1.673088,3.7499998 3.75,3.75 2.076911,0 3.75,-1.6681401 3.75,-3.75 0,-2.0818599 -1.673089,-3.7812501 -3.75,-3.78125 z m -0.96875,0.75 1.96875,0 0,5.96875 -1.96875,0 0,-3.96875 -1,0 0,-1 c 0.220971,-0.033146 1.07711,0.07642 1,-1 z" id="path3639"/>
  </clipPath>
 </defs>
 <metadata id="metadata7"/>
 <g inkscape:groupmode="layer" id="layer3" inkscape:label="Cross">
  <path d="m 5.0625,3.03125 c 0.077114,1.0764204 -0.7790291,0.9668544 -1,1 l 0,1 1,0 0,3.96875 1.96875,0 0,-5.96875 -1.96875,0 z" id="Symbol" fill="#bebebe" stroke-linejoin="round" stroke-width="0.5"/>
  <path d="m 6.0346439,0.456963 c -1.4236033,0 -2.8640143,0.5749259 -3.9494135,1.662911 -2.17079759,2.1759704 -2.1707981,5.6882127 0,7.8641827 1.7185494,1.7226453 4.2680247,2.0788393 6.3398481,1.0739643 0.054521,-0.02644 0.1194082,-0.07559 0.1732199,-0.103932 0.3363183,-0.133139 1.1815124,-0.378525 1.6282666,0.06929 0.331369,0.33216 0.220613,0.773709 0.727524,1.281828 l 3.395109,3.395109 c 0.0035,-0.0035 0.653835,0.664216 1.316472,0 0.665196,-0.666781 0.0097,-1.338905 0,-1.351115 l -3.360466,-3.395109 c -0.506911,-0.50812 -0.915814,-0.395365 -1.247183,-0.727524 -0.546303,-0.5476049 -0.03264,-1.6623665 0,-1.732199 C 12.060508,6.4176092 11.702604,3.8425172 9.9840571,2.119874 8.8986578,1.031889 7.4582474,0.456963 6.0346439,0.456963 z m 0,1.4204031 c 2.3024792,-10e-8 4.1572781,1.8839564 4.1572781,4.1919215 0,2.3079648 -1.8547987,4.1572774 -4.1572781,4.1572774 -2.3024792,0 -4.1572774,-1.8493124 -4.1572774,-4.1572774 7e-7,-2.307965 1.8547983,-4.1919215 4.1572774,-4.1919215 z" id="path3007" inkscape:connector-curvature="0" inkscape:transform-center-x="-2.2103061" inkscape:transform-center-y="2.2258551" fill="#bebebe"/>
 </g>
</svg>
