/* XPM */
static char * desktop_xpm[] = {
"22 22 97 2",
"  	c None",
". 	c #BCBCBC",
"+ 	c #BFBFBF",
"@ 	c #B7B7B7",
"# 	c #9A9A9A",
"$ 	c #747474",
"% 	c #767676",
"& 	c #9C9C9C",
"* 	c #7A7A7A",
"= 	c #3B3B3B",
"- 	c #353535",
"; 	c #424242",
"> 	c #7C7C7C",
", 	c #575757",
"' 	c #787878",
") 	c #5B5B5B",
"! 	c #8E8E8E",
"~ 	c #777777",
"{ 	c #707070",
"] 	c #828282",
"^ 	c #676767",
"/ 	c #5E5E5E",
"( 	c #8A8A8A",
"_ 	c #7E7E7E",
": 	c #727272",
"< 	c #4E4E4E",
"[ 	c #8C8C8C",
"} 	c #191919",
"| 	c #B5B5B5",
"1 	c #878787",
"2 	c #212121",
"3 	c #292929",
"4 	c #272727",
"5 	c #2B2B2B",
"6 	c #525252",
"7 	c #6F6F6F",
"8 	c #646464",
"9 	c #606060",
"0 	c #636363",
"a 	c #737373",
"b 	c #474747",
"c 	c #B4B4B4",
"d 	c #959595",
"e 	c #2F2F2F",
"f 	c #4C4C4C",
"g 	c #373737",
"h 	c #AFAFAF",
"i 	c #333333",
"j 	c #6B6B6B",
"k 	c #2D2D2D",
"l 	c #171717",
"m 	c #AEAEAE",
"n 	c #ADADAD",
"o 	c #929292",
"p 	c #252525",
"q 	c #393939",
"r 	c #4A4A4A",
"s 	c #313131",
"t 	c #A9A9A9",
"u 	c #969696",
"v 	c #888888",
"w 	c #3D3D3D",
"x 	c #3F3F3F",
"y 	c #484848",
"z 	c #4F4F4F",
"A 	c #4B4B4B",
"B 	c #A7A7A7",
"C 	c #434343",
"D 	c #A4A4A4",
"E 	c #9F9F9F",
"F 	c #232323",
"G 	c #565656",
"H 	c #545454",
"I 	c #A0A0A0",
"J 	c #A2A2A2",
"K 	c #9E9E9E",
"L 	c #535353",
"M 	c #5A5A5A",
"N 	c #5F5F5F",
"O 	c #5C5C5C",
"P 	c #585858",
"Q 	c #ACACAC",
"R 	c #505050",
"S 	c #979797",
"T 	c #666666",
"U 	c #7F7F7F",
"V 	c #6C6C6C",
"W 	c #848484",
"X 	c #898989",
"Y 	c #868686",
"Z 	c #808080",
"` 	c #7B7B7B",
" .	c #686868",
"..	c #626262",
"+.	c #B6B6B6",
"@.	c #999999",
"#.	c #000000",
"                                            ",
"    . + + + + + + + + + + + + + + + + .     ",
"  @ # $ $ $ $ $ $ $ $ % $ % % % $ $ $ & @   ",
"  . * = - ; ; - - - - - - - - - - - = * .   ",
"  @ > - , ' ' ) ) ) ) ! ~ % % % % { - $ @   ",
"  @ ] - ) ^ ^ / / / / ( _ _ > _ > : < & [ } ",
"  | 1 2 3 4 3 5 5 5 5 6 7 8 8 9 0 ' ] a b   ",
"  c [ 2 4 d d 4 5 5 5 e ~ 9 ) 7 ] ] f g ]   ",
"  h ! 2 3 1 1 3 e i i i j 0 a [ ) k l ] m   ",
"  n o 2 3 p 3 e g q = = r < 7 g s b 2 o n   ",
"  t u 2 3 v v - w w w x y k s b z A 2 u t   ",
"  B # 2 5 j j = C g 6 e p ) ) z z b 2 # B   ",
"  D E F e - = q G g k y f 9 H z A C F E I   ",
"  I I F g x ; x k A , , H H H r b x F J I   ",
"  K B p g = - b L M N O P L L b x = F B E   ",
"  & Q p q x r R , O 0 0 N , R r C = p Q &   ",
"  S h q T 7 7 a ~ _ U U _ ~ ~ 7 V T g h S   ",
"  u c q 9 ~ U _ a W X Y ~ Z ] `  ...g c u   ",
"  o c C q q q w x x x x x x w q q q C | o   ",
"  > E c | @ | | | @ | | | +.| +.| @ c E >   ",
"  g U @.& & E E E I I B I I E & & & @.U g   ",
"      #.#.#.#.#.#.#.#.#.#.#.#.#.#.#.#.      "};
