<?xml version="1.0" encoding="UTF-8" standalone="no"?>
<svg xmlns="http://www.w3.org/2000/svg" xmlns:sodipodi="http://sodipodi.sourceforge.net/DTD/sodipodi-0.dtd" xmlns:inkscape="http://www.inkscape.org/namespaces/inkscape" height="512" viewBox="0 0 512 512" width="512" version="1.1">
 <metadata id="metadata70"/>
 <text font-family="Gentium Book Basic" x="729.64" y="231.36" line-height="125%" font-size="129.23" id="text20" word-spacing="0" letter-spacing="0"><tspan x="729.64" y="231.36" id="tspan22"/>
 </text>
 <text font-family="Arial" x="378.91" y="579.26" transform="scale(4.0128 .24920)" font-size="46.954" id="text24" text-anchor="middle"/>
 <text font-family="Gentium Book Basic" x="1310.91" y="151.36" line-height="125%" font-size="129.23" id="text26" word-spacing="0" letter-spacing="0"><tspan x="1310.91" y="151.36" id="tspan28"/>
 </text>
 <text font-family="Arial" x="523.76" y="258.22" transform="scale(4.0128 .24920)" font-size="46.954" id="text30" text-anchor="middle"/>
 <text font-family="Gentium Book Basic" x="239.33" y="-29.9" line-height="125%" font-size="129.23" id="text32" word-spacing="0" letter-spacing="0"><tspan x="239.33" y="-29.9" id="tspan34"/>
 </text>
 <text font-family="Arial" x="256.72" y="-469.13" transform="scale(4.0128 .24920)" font-size="46.954" id="text36" text-anchor="middle"/>
 <text font-family="Gentium Book Basic" x="1337.38" y="-246.37" line-height="125%" font-size="129.23" id="text38" word-spacing="0" letter-spacing="0"><tspan x="1337.38" y="-246.37" id="tspan40"/>
 </text>
 <text font-family="Arial" x="530.36" y="-1337.8" transform="scale(4.0128 .24920)" font-size="46.954" id="text42" text-anchor="middle"/>
 <text font-family="Gentium Book Basic" x="1918.65" y="-326.37" line-height="125%" font-size="129.23" id="text44" word-spacing="0" letter-spacing="0"><tspan x="1918.65" y="-326.37" id="tspan46"/>
 </text>
 <text font-family="Arial" x="675.21" y="-1658.83" transform="scale(4.0128 .24920)" font-size="46.954" id="text48" text-anchor="middle"/>
 <text font-family="Gentium Book Basic" x="1529.53" y="-798.77" line-height="125%" font-size="129.23" id="text50" word-spacing="0" letter-spacing="0"><tspan x="1529.53" y="-798.77" id="tspan52"/>
 </text>
 <text font-family="Arial" x="578.24" y="-3554.48" transform="scale(4.0128 .24920)" font-size="46.954" id="text54" text-anchor="middle"/>
 <text font-family="Gentium Book Basic" x="2110.79" y="-878.78" line-height="125%" font-size="129.23" id="text56" word-spacing="0" letter-spacing="0"><tspan x="2110.79" y="-878.78" id="tspan58"/>
 </text>
 <text font-family="Arial" x="723.09" y="-3875.52" transform="scale(4.0128 .24920)" font-size="46.954" id="text60" text-anchor="middle"/>
 <text font-family="Gentium Book Basic" x="277.99" y="535.94" line-height="125%" font-size="208.33" id="text62" word-spacing="0" letter-spacing="0"><tspan x="277.99" y="535.94" id="tspan64"/>
 </text>
 <text font-family="Gentium Book Basic" x="729.64" y="231.36" line-height="125%" font-size="129.23" id="text20-3" word-spacing="0" letter-spacing="0"><tspan x="729.64" y="231.36" id="tspan22-6"/>
 </text>
 <text font-family="Arial" x="378.91" y="579.26" transform="scale(4.0128 .24920)" font-size="46.954" id="text24-5" text-anchor="middle"/>
 <text font-family="Gentium Book Basic" x="1310.91" y="151.36" line-height="125%" font-size="129.23" id="text26-3" word-spacing="0" letter-spacing="0"><tspan x="1310.91" y="151.36" id="tspan28-9"/>
 </text>
 <text font-family="Arial" x="523.76" y="258.22" transform="scale(4.0128 .24920)" font-size="46.954" id="text30-9" text-anchor="middle"/>
 <text font-family="Gentium Book Basic" x="239.33" y="-29.9" line-height="125%" font-size="129.23" id="text32-8" word-spacing="0" letter-spacing="0"><tspan x="239.33" y="-29.9" id="tspan34-1"/>
 </text>
 <text font-family="Arial" x="256.72" y="-469.13" transform="scale(4.0128 .24920)" font-size="46.954" id="text36-3" text-anchor="middle"/>
 <text font-family="Gentium Book Basic" x="1337.38" y="-246.37" line-height="125%" font-size="129.23" id="text38-5" word-spacing="0" letter-spacing="0"><tspan x="1337.38" y="-246.37" id="tspan40-7"/>
 </text>
 <text font-family="Arial" x="530.36" y="-1337.8" transform="scale(4.0128 .24920)" font-size="46.954" id="text42-3" text-anchor="middle"/>
 <text font-family="Gentium Book Basic" x="1918.65" y="-326.37" line-height="125%" font-size="129.23" id="text44-6" word-spacing="0" letter-spacing="0"><tspan x="1918.65" y="-326.37" id="tspan46-4"/>
 </text>
 <text font-family="Arial" x="675.21" y="-1658.83" transform="scale(4.0128 .24920)" font-size="46.954" id="text48-2" text-anchor="middle"/>
 <text font-family="Gentium Book Basic" x="1529.53" y="-798.77" line-height="125%" font-size="129.23" id="text50-4" word-spacing="0" letter-spacing="0"><tspan x="1529.53" y="-798.77" id="tspan52-0"/>
 </text>
 <text font-family="Arial" x="578.24" y="-3554.48" transform="scale(4.0128 .24920)" font-size="46.954" id="text54-6" text-anchor="middle"/>
 <text font-family="Gentium Book Basic" x="2110.79" y="-878.78" line-height="125%" font-size="129.23" id="text56-5" word-spacing="0" letter-spacing="0"><tspan x="2110.79" y="-878.78" id="tspan58-3"/>
 </text>
 <text font-family="Arial" x="723.09" y="-3875.52" transform="scale(4.0128 .24920)" font-size="46.954" id="text60-8" text-anchor="middle"/>
 <text font-family="Gentium Book Basic" x="277.99" y="535.94" line-height="125%" font-size="208.33" id="text62-4" word-spacing="0" letter-spacing="0"><tspan x="277.99" y="535.94" id="tspan64-1"/>
 </text>
 <text font-family="Gentium Book Basic" x="729.64" y="231.36" line-height="125%" font-size="129.23" id="text20-8" word-spacing="0" letter-spacing="0"><tspan x="729.64" y="231.36" id="tspan22-7"/>
 </text>
 <text font-family="Arial" x="378.91" y="579.26" transform="scale(4.0128 .24920)" font-size="46.954" id="text24-2" text-anchor="middle"/>
 <text font-family="Gentium Book Basic" x="1310.91" y="151.36" line-height="125%" font-size="129.23" id="text26-0" word-spacing="0" letter-spacing="0"><tspan x="1310.91" y="151.36" id="tspan28-7"/>
 </text>
 <text font-family="Arial" x="523.76" y="258.22" transform="scale(4.0128 .24920)" font-size="46.954" id="text30-5" text-anchor="middle"/>
 <text font-family="Gentium Book Basic" x="239.33" y="-29.9" line-height="125%" font-size="129.23" id="text32-84" word-spacing="0" letter-spacing="0"><tspan x="239.33" y="-29.9" id="tspan34-9"/>
 </text>
 <text font-family="Arial" x="256.72" y="-469.13" transform="scale(4.0128 .24920)" font-size="46.954" id="text36-0" text-anchor="middle"/>
 <text font-family="Gentium Book Basic" x="1337.38" y="-246.37" line-height="125%" font-size="129.23" id="text38-4" word-spacing="0" letter-spacing="0"><tspan x="1337.38" y="-246.37" id="tspan40-9"/>
 </text>
 <text font-family="Arial" x="530.36" y="-1337.8" transform="scale(4.0128 .24920)" font-size="46.954" id="text42-1" text-anchor="middle"/>
 <text font-family="Gentium Book Basic" x="1918.65" y="-326.37" line-height="125%" font-size="129.23" id="text44-7" word-spacing="0" letter-spacing="0"><tspan x="1918.65" y="-326.37" id="tspan46-40"/>
 </text>
 <text font-family="Arial" x="675.21" y="-1658.83" transform="scale(4.0128 .24920)" font-size="46.954" id="text48-0" text-anchor="middle"/>
 <text font-family="Gentium Book Basic" x="1529.53" y="-798.77" line-height="125%" font-size="129.23" id="text50-3" word-spacing="0" letter-spacing="0"><tspan x="1529.53" y="-798.77" id="tspan52-4"/>
 </text>
 <text font-family="Arial" x="578.24" y="-3554.48" transform="scale(4.0128 .24920)" font-size="46.954" id="text54-4" text-anchor="middle"/>
 <text font-family="Gentium Book Basic" x="2110.79" y="-878.78" line-height="125%" font-size="129.23" id="text56-9" word-spacing="0" letter-spacing="0"><tspan x="2110.79" y="-878.78" id="tspan58-5"/>
 </text>
 <text font-family="Arial" x="723.09" y="-3875.52" transform="scale(4.0128 .24920)" font-size="46.954" id="text60-2" text-anchor="middle"/>
 <text font-family="Gentium Book Basic" x="277.99" y="535.94" line-height="125%" font-size="208.33" id="text62-48" word-spacing="0" letter-spacing="0"><tspan x="277.99" y="535.94" id="tspan64-10"/>
 </text>
 <text font-family="Gentium Book Basic" x="729.64" y="231.36" line-height="125%" font-size="129.23" id="text20-2" word-spacing="0" letter-spacing="0"><tspan x="729.64" y="231.36" id="tspan22-0"/>
 </text>
 <text font-family="Arial" x="378.91" y="579.26" transform="scale(4.0128 .24920)" font-size="46.954" id="text24-1" text-anchor="middle"/>
 <text font-family="Gentium Book Basic" x="1310.91" y="151.36" line-height="125%" font-size="129.23" id="text26-6" word-spacing="0" letter-spacing="0"><tspan x="1310.91" y="151.36" id="tspan28-1"/>
 </text>
 <text font-family="Arial" x="523.76" y="258.22" transform="scale(4.0128 .24920)" font-size="46.954" id="text30-1" text-anchor="middle"/>
 <text font-family="Gentium Book Basic" x="239.33" y="-29.9" line-height="125%" font-size="129.23" id="text32-0" word-spacing="0" letter-spacing="0"><tspan x="239.33" y="-29.9" id="tspan34-0"/>
 </text>
 <text font-family="Arial" x="256.72" y="-469.13" transform="scale(4.0128 .24920)" font-size="46.954" id="text36-4" text-anchor="middle"/>
 <text font-family="Gentium Book Basic" x="1337.38" y="-246.37" line-height="125%" font-size="129.23" id="text38-0" word-spacing="0" letter-spacing="0"><tspan x="1337.38" y="-246.37" id="tspan40-74"/>
 </text>
 <text font-family="Arial" x="530.36" y="-1337.8" transform="scale(4.0128 .24920)" font-size="46.954" id="text42-2" text-anchor="middle"/>
 <text font-family="Gentium Book Basic" x="1918.65" y="-326.37" line-height="125%" font-size="129.23" id="text44-2" word-spacing="0" letter-spacing="0"><tspan x="1918.65" y="-326.37" id="tspan46-8"/>
 </text>
 <text font-family="Arial" x="675.21" y="-1658.83" transform="scale(4.0128 .24920)" font-size="46.954" id="text48-7" text-anchor="middle"/>
 <text font-family="Gentium Book Basic" x="1529.53" y="-798.77" line-height="125%" font-size="129.23" id="text50-33" word-spacing="0" letter-spacing="0"><tspan x="1529.53" y="-798.77" id="tspan52-9"/>
 </text>
 <text font-family="Arial" x="578.24" y="-3554.48" transform="scale(4.0128 .24920)" font-size="46.954" id="text54-7" text-anchor="middle"/>
 <text font-family="Gentium Book Basic" x="2110.79" y="-878.78" line-height="125%" font-size="129.23" id="text56-2" word-spacing="0" letter-spacing="0"><tspan x="2110.79" y="-878.78" id="tspan58-2"/>
 </text>
 <text font-family="Arial" x="723.09" y="-3875.52" transform="scale(4.0128 .24920)" font-size="46.954" id="text60-9" text-anchor="middle"/>
 <text font-family="Gentium Book Basic" x="277.99" y="535.94" line-height="125%" font-size="208.33" id="text62-5" word-spacing="0" letter-spacing="0"><tspan x="277.99" y="535.94" id="tspan64-4"/>
 </text>
 <path d="m471.95 253.05c0 120.9-98.006 218.91-218.91 218.91s-218.91-98.006-218.91-218.91 98.006-218.91 218.91-218.91 218.91 98.006 218.91 218.91" fill="#959595" fill-rule="evenodd" id="path8"/>
 <path d="m256.22 97.125c-8.71 60.845-18.4 121.66-21.97 183.1-30.05-29.39-60.33-58.55-90.47-87.88 11.28 54.27 17.74 110.95 44.34 160.5-24.31-30.27-64.56-36.79-99.432-48.87 2.414 13.44 44.972 47.71 64.032 67.94 34.47 33.28 68.88 66.63 103.28 100 119.53-1.59 215.94-98.94 215.94-218.85 0-0.92-0.02-1.83-0.03-2.75-19.4-18.94-38.73-37.25-55.16-53.62-18.08 7.29-14.7 33.79-43.94 15.4-40.53-39.27-79.48-78.27-116.59-114.96z" opacity="0.25" id="path9071"/>
 <path fill-opacity="0.067" fill-rule="evenodd" d="m256 1c-140.83 0-255 114.17-255 255s114.17 255 255 255 255-114.17 255-255-114.17-255-255-255m8.827 44.931c120.9 0 218.9 98 218.9 218.9s-98 218.9-218.9 218.9-218.93-98-218.93-218.9 98.03-218.9 218.93-218.9" id="path10"/>
 <path fill-opacity="0.129" fill-rule="evenodd" d="m256 4.43c-138.94 0-251.57 112.63-251.57 251.57s112.63 251.57 251.57 251.57 251.57-112.63 251.57-251.57-112.63-251.57-251.57-251.57m5.885 38.556c120.9 0 218.9 98 218.9 218.9s-98 218.9-218.9 218.9-218.93-98-218.93-218.9 98.03-218.9 218.93-218.9" id="path14"/>
 <path fill-opacity="0.129" fill-rule="evenodd" d="m256 8.36c-136.77 0-247.64 110.87-247.64 247.64s110.87 247.64 247.64 247.64 247.64-110.87 247.64-247.64-110.87-247.64-247.64-247.64m2.942 31.691c120.9 0 218.9 98 218.9 218.9s-98 218.9-218.9 218.9-218.93-98-218.93-218.9 98.03-218.9 218.93-218.9" id="path16"/>
 <path fill="#ffffff" stroke-width="4.904" stroke="#000000" fill-rule="evenodd" stroke-opacity="0.31" d="m253.04 7.86c-135.42 0-245.19 109.78-245.19 245.19 0 135.42 109.78 245.19 245.19 245.19 135.42 0 245.19-109.78 245.19-245.19 0-135.42-109.78-245.19-245.19-245.19zm0 26.297c120.9 0 218.9 98 218.9 218.9s-98 218.9-218.9 218.9-218.93-98-218.93-218.9 98.03-218.9 218.93-218.9z" id="path18"/>
 <text font-family="Gentium Book Basic" x="729.64" y="231.36" line-height="125%" font-size="129.23" id="text20-6" word-spacing="0" letter-spacing="0"><tspan x="729.64" y="231.36" id="tspan22-3"/>
 </text>
 <text font-family="Arial" x="378.91" y="579.26" transform="scale(4.0128 .24920)" font-size="46.954" id="text24-9" text-anchor="middle"/>
 <text font-family="Gentium Book Basic" x="1310.91" y="151.36" line-height="125%" font-size="129.23" id="text26-8" word-spacing="0" letter-spacing="0"><tspan x="1310.91" y="151.36" id="tspan28-3"/>
 </text>
 <text font-family="Arial" x="523.76" y="258.22" transform="scale(4.0128 .24920)" font-size="46.954" id="text30-2" text-anchor="middle"/>
 <text font-family="Gentium Book Basic" x="239.33" y="-29.9" line-height="125%" font-size="129.23" id="text32-7" word-spacing="0" letter-spacing="0"><tspan x="239.33" y="-29.9" id="tspan34-5"/>
 </text>
 <text font-family="Arial" x="256.72" y="-469.13" transform="scale(4.0128 .24920)" font-size="46.954" id="text36-39" text-anchor="middle"/>
 <text font-family="Gentium Book Basic" x="1337.38" y="-246.37" line-height="125%" font-size="129.23" id="text38-7" word-spacing="0" letter-spacing="0"><tspan x="1337.38" y="-246.37" id="tspan40-99"/>
 </text>
 <text font-family="Arial" x="530.36" y="-1337.8" transform="scale(4.0128 .24920)" font-size="46.954" id="text42-4" text-anchor="middle"/>
 <text font-family="Gentium Book Basic" x="1918.65" y="-326.37" line-height="125%" font-size="129.23" id="text44-3" word-spacing="0" letter-spacing="0"><tspan x="1918.65" y="-326.37" id="tspan46-46"/>
 </text>
 <text font-family="Arial" x="675.21" y="-1658.83" transform="scale(4.0128 .24920)" font-size="46.954" id="text48-21" text-anchor="middle"/>
 <text font-family="Gentium Book Basic" x="1529.53" y="-798.77" line-height="125%" font-size="129.23" id="text50-1" word-spacing="0" letter-spacing="0"><tspan x="1529.53" y="-798.77" id="tspan52-7"/>
 </text>
 <text font-family="Arial" x="578.24" y="-3554.48" transform="scale(4.0128 .24920)" font-size="46.954" id="text54-2" text-anchor="middle"/>
 <text font-family="Gentium Book Basic" x="2110.79" y="-878.78" line-height="125%" font-size="129.23" id="text56-8" word-spacing="0" letter-spacing="0"><tspan x="2110.79" y="-878.78" id="tspan58-9"/>
 </text>
 <text font-family="Arial" x="723.09" y="-3875.52" transform="scale(4.0128 .24920)" font-size="46.954" id="text60-7" text-anchor="middle"/>
 <text font-family="Gentium Book Basic" x="277.99" y="535.94" line-height="125%" font-size="208.33" id="text62-9" word-spacing="0" letter-spacing="0"><tspan x="277.99" y="535.94" id="tspan64-7"/>
 </text>
 <path d="m256.22 97.126c-5.6618 37.502-19.544 132.62-21.812 179.22-0.51573 10.594-0.0591 21.127 1.0625 31.25 1.3041 9.8246 0.99381 10.682 5.5312 31.219 3.7968 15.889 8.4346 29.266 11.969 38.406 0.88876-2.6584 1.8965-5.6763 3.0312-9 5.3946-15.994 2.516-7.4884 6.625-18.969 8.2407-23.147 18.068-49.034 25.75-61.969 2.1387-3.6011 4.5652-7.3675 7.1875-11.219-0.27-64.5-27.11-145.3-39.34-178.94zm-112.47 95.154c2.1333 12.184 5.204 28.854 9.0938 47.562 5.9113 28.431 13.671 60.838 22.156 85.844 10.973 23.631 21.007 52.299 56.094 62.906 4.8577 1.4157 10.751 2.3207 16.625 2.875v-0.53125c-4.0522-11.662-0.46144-0.68867-4.6875-12.844-5.8465-15.761-13.485-40.178-16.781-67.438-4.0226-7.5123-7.5916-14.024-10.25-18.5-6.8099-11.466-28.052-40.741-47.312-66.688-13.079-17.62-18.42-24.586-24.938-33.188zm273.16 4.2188c-14.787 3.5952-38.465 10.512-54.5 22.156-20.297 14.738-42.328 39.107-57.281 60.406-6.4338 10.317-0.18565 0.48459-10.344 16.406-6.5397 12.41-15.662 36.038-23.125 57-1.9661 5.5226-3.6716 10.451-5.25 15.031-3.2223 16.747 8.0184 8.355 18.312-2.2188 7.6568-8.7184 15.472-16.969 21.562-21.094 9.9262-6.7215 22.07-13.139 34.969-19.094 5.7579-17.46 11.38-37.64 30.438-69.75 6.3982-10.78 19.825-27.926 31.812-42.719 7.1514-8.8252 9.2348-11.173 13.406-16.125zm-333.62 105.75c7.884 8.9041 18.77 20.784 33.094 34.656 24.604 23.828 55.46 48.237 75.5 51.688 7.1394 1.2293 13.858 2.058 20.156 2.625-19.19-9.9791-30.868-25.501-38.219-41.906-2.2631-5.0507-4.4818-10.677-6.625-16.719-11.472-5.3905-24.249-10.507-36.719-15.031-19.365-7.0254-35.382-11.898-47.188-15.312zm345.44 0.375c-9.0709 2.8238-21.163 6.7074-34.75 11.562-14.346 5.1265-30.121 11.252-44.906 17.906-7.8489 3.2985-2.275 0.73313-12.438 5.875-9.2877 4.5892-17.858 9.341-24.969 14.156-5.2071 3.526-16.704 15.805-26.062 26.781-4.0903 4.7974-6.3932 7.6334-8.375 10.125 0.0833 0.16674 0.20565 0.41114 0.28125 0.5625 14.06 2.3882 11.528 2.6138 23.094 1.9375 5.7341-0.69755 12.253-1.6304 19.844-2.9375 20.04-3.4507 50.896-27.859 75.5-51.688 14.01-13.569 24.876-25.375 32.781-34.281z" fill="#ffffff" id="path2276"/>
</svg>
