<?xml version="1.0" encoding="UTF-8" standalone="no"?>
<svg xmlns:dc="http://purl.org/dc/elements/1.1/" xmlns:cc="http://creativecommons.org/ns#" xmlns:rdf="http://www.w3.org/1999/02/22-rdf-syntax-ns#" xmlns:svg="http://www.w3.org/2000/svg" xmlns="http://www.w3.org/2000/svg" xmlns:sodipodi="http://sodipodi.sourceforge.net/DTD/sodipodi-0.dtd" xmlns:inkscape="http://www.inkscape.org/namespaces/inkscape" height="512" viewBox="0 0 512 512" width="512" version="1.1" id="svg2" inkscape:version="0.91 r" sodipodi:docname="amazon.svg">
<sodipodi:namedview pagecolor="#ffffff" bordercolor="#666666" borderopacity="1" objecttolerance="10" gridtolerance="10" guidetolerance="10" inkscape:pageopacity="0" inkscape:pageshadow="2" inkscape:window-width="733" inkscape:window-height="480" id="namedview41" showgrid="false" inkscape:zoom="0.4609375" inkscape:cx="-80.271186" inkscape:cy="256" inkscape:window-x="0" inkscape:window-y="0" inkscape:window-maximized="0" inkscape:current-layer="svg2" />
<defs id="defs43" />
<metadata id="metadata80">
<rdf:RDF>
<cc:Work rdf:about="">
<dc:format>image/svg+xml</dc:format>
<dc:type rdf:resource="http://purl.org/dc/dcmitype/StillImage" />
</cc:Work>
</rdf:RDF>
</metadata>
<g fill-rule="evenodd" id="g4">
<path d="m471.95 253.05c0 120.9-98.01 218.9-218.9 218.9-120.9 0-218.9-98.01-218.9-218.9 0-120.9 98.01-218.9 218.9-218.9 120.9 0 218.9 98.01 218.9 218.9" fill="#313131" id="path6" />
<path d="m253.59 139.41c-29.606-0.18-62.985 14.964-69.37 46.44-2.194 12.316 13.241 18.322 19.625 27.406 21.443 14-23.621 19.407-21.938 39.625-9.555 24.11-1.981 52.712 18.469 68.56 9.805 9.789 19.579 19.609 29.406 29.375-39.24-3.738-77.15-17.08-111.53-35.781-5.197 4.361 5.01 9.129 7.625 13.13 47.596 47.704 95.52 95.6 143.16 143.22 92.81-6.704 169.59-71.28 194.44-157.81-18.256-18.15-36.509-36.29-54.59-54.59-36.23-35.666-71.39-72.54-108.34-107.41-12.822-8.788-28.775-11.931-44.09-12.09-0.946-0.038-1.889-0.057-2.844-0.063" fill-opacity="0.235" id="path8" />
<path d="m256 1c-140.83 0-255 114.17-255 255s114.17 255 255 255 255-114.17 255-255-114.17-255-255-255m8.827 44.931c120.9 0 218.9 98 218.9 218.9s-98 218.9-218.9 218.9-218.93-98-218.93-218.9 98.03-218.9 218.93-218.9" fill-opacity="0.067" id="path10" />
<g fill-opacity="0.129" id="g12">
<path d="m256 4.433c-138.94 0-251.57 112.63-251.57 251.57s112.63 251.57 251.57 251.57 251.57-112.63 251.57-251.57-112.63-251.57-251.57-251.57m5.885 38.556c120.9 0 218.9 98 218.9 218.9s-98 218.9-218.9 218.9-218.93-98-218.93-218.9 98.03-218.9 218.93-218.9" id="path14" />
<path d="m256 8.356c-136.77 0-247.64 110.87-247.64 247.64s110.87 247.64 247.64 247.64 247.64-110.87 247.64-247.64-110.87-247.64-247.64-247.64m2.942 31.691c120.9 0 218.9 98 218.9 218.9s-98 218.9-218.9 218.9-218.93-98-218.93-218.9 98.03-218.9 218.93-218.9" id="path16" />
</g>
<path fill="#ffffff" stroke-width="4.904" stroke="#000000" stroke-opacity="0.31" d="m253.04 7.859c-135.42 0-245.19 109.78-245.19 245.19 0 135.42 109.78 245.19 245.19 245.19 135.42 0 245.19-109.78 245.19-245.19 0-135.42-109.78-245.19-245.19-245.19zm0 26.297c120.9 0 218.9 98 218.9 218.9s-98 218.9-218.9 218.9-218.93-98-218.93-218.9 98.03-218.9 218.93-218.9z" id="path18" />
</g>
<text letter-spacing="0" word-spacing="0" font-family="Gentium Book Basic" x="729.64" y="231.36" line-height="125%" font-size="129.23" id="text20">
<tspan x="729.64" y="231.36" id="tspan22" />
</text>
<text text-anchor="middle" font-family="Arial" x="378.91" y="579.25" transform="scale(4.0128 .2492)" font-size="46.954" id="text24" />
<text letter-spacing="0" word-spacing="0" font-family="Gentium Book Basic" x="1310.91" y="151.36" line-height="125%" font-size="129.23" id="text26">
<tspan x="1310.91" y="151.36" id="tspan28" />
</text>
<text text-anchor="middle" font-family="Arial" x="523.76" y="258.22" transform="scale(4.0128 .2492)" font-size="46.954" id="text30" />
<text letter-spacing="0" word-spacing="0" font-family="Gentium Book Basic" x="239.33" y="-29.901" line-height="125%" font-size="129.23" id="text32">
<tspan x="239.33" y="-29.901" id="tspan34" />
</text>
<text text-anchor="middle" font-family="Arial" x="256.72" y="-469.14" transform="scale(4.0128 .2492)" font-size="46.954" id="text36" />
<text letter-spacing="0" word-spacing="0" font-family="Gentium Book Basic" x="1337.38" y="-246.37" line-height="125%" font-size="129.23" id="text38">
<tspan x="1337.38" y="-246.37" id="tspan40" />
</text>
<text text-anchor="middle" font-family="Arial" x="530.36" y="-1337.81" transform="scale(4.0128 .2492)" font-size="46.954" id="text42" />
<text letter-spacing="0" word-spacing="0" font-family="Gentium Book Basic" x="1918.65" y="-326.38" line-height="125%" font-size="129.23" id="text44">
<tspan x="1918.65" y="-326.38" id="tspan46" />
</text>
<text text-anchor="middle" font-family="Arial" x="675.21" y="-1658.85" transform="scale(4.0128 .2492)" font-size="46.954" id="text48" />
<text letter-spacing="0" word-spacing="0" font-family="Gentium Book Basic" x="1529.53" y="-798.78" line-height="125%" font-size="129.23" id="text50">
<tspan x="1529.53" y="-798.78" id="tspan52" />
</text>
<text text-anchor="middle" font-family="Arial" x="578.24" y="-3554.51" transform="scale(4.0128 .2492)" font-size="46.954" id="text54" />
<text letter-spacing="0" word-spacing="0" font-family="Gentium Book Basic" x="2110.79" y="-878.78" line-height="125%" font-size="129.23" id="text56">
<tspan x="2110.79" y="-878.78" id="tspan58" />
</text>
<text text-anchor="middle" font-family="Arial" x="723.09" y="-3875.54" transform="scale(4.0128 .2492)" font-size="46.954" id="text60" />
<text letter-spacing="0" word-spacing="0" font-family="Gentium Book Basic" x="277.99" y="535.94" line-height="125%" font-size="208.33" id="text62">
<tspan x="277.99" y="535.94" id="tspan64" />
</text>
<path id="path68" d="m 256.44,139.47 c -31.02,0 -65.67,11.543 -72.969,49.906 -0.734,4.084 2.213,6.247 4.875,6.844 l 31.656,3.406 c 2.937,-0.138 5.106,-3.03 5.656,-5.969 2.707,-13.216 13.814,-19.594 26.25,-19.594 6.7,0 14.32,2.457 18.313,8.469 4.543,6.7 3.906,15.901 3.906,23.656 l 0,4.188 c -18.907,2.157 -43.63,3.542 -61.34,11.344 -20.421,8.811 -34.781,26.865 -34.781,53.34 0,33.912 21.402,50.844 48.844,50.844 23.22,0 35.884,-5.455 53.781,-23.719 5.966,8.581 7.889,12.756 18.719,21.75 2.432,1.285 5.531,1.146 7.688,-0.781 l 0.125,0.063 c 6.516,-5.782 18.315,-16.07 24.969,-21.625 2.662,-2.203 2.236,-5.751 0.125,-8.688 -5.966,-8.26 -12.313,-14.969 -12.313,-30.25 l 0,-50.813 c 0,-21.522 1.534,-41.3 -14.344,-56.12 -12.528,-12.02 -33.28,-16.25 -49.16,-16.25 m 17.688,97.09 0,7.03 c 0,12.711 0.331,23.336 -6.094,34.625 -5.186,9.178 -13.385,14.844 -22.563,14.844 -12.528,0 -19.813,-9.568 -19.813,-23.656 0,-27.809 24.881,-32.844 48.47,-32.844" inkscape:connector-curvature="0" style="fill:#ffffff;fill-rule:evenodd" />
<g id="g70" style="fill:#ffffff;fill-rule:evenodd">
<path style="fill:#ffffff" id="path72" d="m 375.31,309.53 c -9.789,0.135 -21.353,2.324 -30.11,8.484 -2.707,1.881 -2.234,4.506 0.771,4.139 9.866,-1.17 31.836,-3.819 35.737,1.183 3.924,5.02 -4.353,25.716 -8.05,34.94 -1.124,2.799 1.281,3.911 3.805,1.8 16.451,-13.744 20.678,-42.537 17.329,-46.69 -1.675,-2.065 -9.699,-3.991 -19.488,-3.857" inkscape:connector-curvature="0" />
<path style="fill:#ffffff" id="path74" d="m 118.69,315.03 c -2.4,-0.134 -3.642,2.598 -1.311,4.705 36.505,32.971 84.75,52.809 138.35,52.809 38.23,0 82.62,-12.05 113.25,-34.631 5.071,-3.763 0.738,-9.35 -4.448,-7.147 -34.33,14.57 -71.66,21.571 -105.59,21.571 -50.32,0 -99.03,-13.767 -138.42,-36.688 -0.645,-0.379 -1.272,-0.586 -1.825,-0.617" inkscape:connector-curvature="0" />
</g>
</svg>
