<?xml version="1.0" encoding="UTF-8" standalone="no"?>
<svg xmlns="http://www.w3.org/2000/svg" xmlns:sodipodi="http://sodipodi.sourceforge.net/DTD/sodipodi-0.dtd" xmlns:inkscape="http://www.inkscape.org/namespaces/inkscape" height="512" viewBox="0 0 512 512" width="512" version="1.1">
 <metadata id="metadata80"/>
 <path fill="#c4c4c4" fill-rule="evenodd" d="m479.56 256a223.57 223.57 0 0 1 -447.13 0 223.57 223.57 0 1 1 447.13 0" id="path4"/>
 <path d="m209.69 131.33c9.08 10.263 15.16 28.448 15.16 49.32 0 32.33-14.543 58.2-32.33 58.2-5.997 0-10.203-2.029-14.359-6.729v0.798c38.37 38.38 75.02 75.01 112.17 112.17-38.784 4.967-87.24 0.425-155.53-14.949l147.48 147.48c100.17-22.523 181.39-91.48 201.18-192.38l-153.91-153.91c9.08 10.263 15.16 28.448 15.16 49.32 0 29.676-12.262 53.9-28.03 57.681z" fill-opacity="0.235" id="path6"/>
 <g fill-rule="evenodd" transform="translate(0,-540.36)" id="g8">
  <path d="m256 541.36c-140.83 0-255 114.17-255 255s114.17 255 255 255 255-114.17 255-255-114.17-255-255-255m8.827 44.931c120.9 0 218.9 98 218.9 218.9s-98 218.9-218.9 218.9-218.93-98-218.93-218.9 98.03-218.9 218.93-218.9" fill-opacity="0.067" id="path10"/>
  <g fill-opacity="0.129" id="g12">
   <path d="m256 544.79c-138.94 0-251.57 112.63-251.57 251.57s112.63 251.54 251.57 251.54 251.57-112.6 251.57-251.54-112.63-251.57-251.57-251.57m5.885 38.556c120.9 0 218.9 98 218.9 218.9s-98 218.9-218.9 218.9-218.93-98-218.93-218.9 98.03-218.9 218.93-218.9" id="path14"/>
   <path d="m256 548.72c-136.77 0-247.64 110.87-247.64 247.64s110.87 247.64 247.64 247.64 247.64-110.87 247.64-247.64-110.87-247.64-247.64-247.64m2.942 31.691c120.9 0 218.9 98 218.9 218.9s-98 218.9-218.9 218.9-218.93-98-218.93-218.9 98.03-218.9 218.93-218.9" id="path16"/>
  </g>
  <path fill="#ffffff" stroke-width="4.904" stroke="#000000" stroke-opacity="0.31" d="m253.04 548.22c-135.42 0-245.19 109.78-245.19 245.19 0 135.42 109.78 245.19 245.19 245.19 135.42 0 245.19-109.78 245.19-245.19 0-135.42-109.78-245.19-245.19-245.19zm0 26.297c120.9 0 218.9 98 218.9 218.9s-98 218.9-218.9 218.9-218.93-98-218.93-218.9 98.03-218.9 218.93-218.9z" id="path18"/>
 </g>
 <text font-family="Gentium Book Basic" x="729.64" y="231.36" line-height="125%" font-size="129.23" id="text20" word-spacing="0" letter-spacing="0"><tspan x="729.64" y="231.36" id="tspan22"/>
 </text>
 <text font-family="Arial" x="378.91" y="579.26" transform="scale(4.0128 .2492)" font-size="46.954" id="text24" text-anchor="middle"/>
 <text font-family="Gentium Book Basic" x="1310.91" y="151.36" line-height="125%" font-size="129.23" id="text26" word-spacing="0" letter-spacing="0"><tspan x="1310.91" y="151.36" id="tspan28"/>
 </text>
 <text font-family="Arial" x="523.76" y="258.22" transform="scale(4.0128 .2492)" font-size="46.954" id="text30" text-anchor="middle"/>
 <text font-family="Gentium Book Basic" x="239.33" y="-29.9" line-height="125%" font-size="129.23" id="text32" word-spacing="0" letter-spacing="0"><tspan x="239.33" y="-29.9" id="tspan34"/>
 </text>
 <text font-family="Arial" x="256.72" y="-469.13" transform="scale(4.0128 .2492)" font-size="46.954" id="text36" text-anchor="middle"/>
 <text font-family="Gentium Book Basic" x="1337.38" y="-246.37" line-height="125%" font-size="129.23" id="text38" word-spacing="0" letter-spacing="0"><tspan x="1337.38" y="-246.37" id="tspan40"/>
 </text>
 <text font-family="Arial" x="530.36" y="-1337.8" transform="scale(4.0128 .2492)" font-size="46.954" id="text42" text-anchor="middle"/>
 <text font-family="Gentium Book Basic" x="1918.65" y="-326.37" line-height="125%" font-size="129.23" id="text44" word-spacing="0" letter-spacing="0"><tspan x="1918.65" y="-326.37" id="tspan46"/>
 </text>
 <text font-family="Arial" x="675.21" y="-1658.83" transform="scale(4.0128 .2492)" font-size="46.954" id="text48" text-anchor="middle"/>
 <text font-family="Gentium Book Basic" x="1529.53" y="-798.77" line-height="125%" font-size="129.23" id="text50" word-spacing="0" letter-spacing="0"><tspan x="1529.53" y="-798.77" id="tspan52"/>
 </text>
 <text font-family="Arial" x="578.24" y="-3554.48" transform="scale(4.0128 .2492)" font-size="46.954" id="text54" text-anchor="middle"/>
 <text font-family="Gentium Book Basic" x="2110.79" y="-878.78" line-height="125%" font-size="129.23" id="text56" word-spacing="0" letter-spacing="0"><tspan x="2110.79" y="-878.78" id="tspan58"/>
 </text>
 <text font-family="Arial" x="723.09" y="-3875.52" transform="scale(4.0128 .2492)" font-size="46.954" id="text60" text-anchor="middle"/>
 <text font-family="Gentium Book Basic" x="277.99" y="535.94" line-height="125%" font-size="208.33" id="text62" word-spacing="0" letter-spacing="0"><tspan x="277.99" y="535.94" id="tspan64"/>
 </text>
 <g fill="#ffffff" transform="matrix(.82629 0 0 .82629 -820.17 -786.59)" id="g66">
  <path d="m1507.3 1280.8c-47.22 81.78-102.43 140.71-200.71 140.71-95.48 0-165.36-67.93-208.99-143.48 93.6 54.04 202.8 50.54 204.84 50.54 14.898 0 128.04-3.423 204.85-47.771" id="path68"/>
  <g transform="matrix(15.652 0 0 15.652 929.21 942.43)" id="g70">
   <path d="m21.398 14.696c0 2.5-1.125 4.5-2.5 4.5s-2.5-2-2.5-4.5 1.125-4.5 2.5-4.5 2.5 2 2.5 4.5" id="path72"/>
   <path d="m30.689 14.696c0 2.5-1.125 4.5-2.5 4.5s-2.5-2-2.5-4.5 1.125-4.5 2.5-4.5 2.5 2 2.5 4.5" id="path74"/>
  </g>
 </g>
</svg>
