<?xml version="1.0" encoding="UTF-8" standalone="no"?>
<svg xmlns="http://www.w3.org/2000/svg" xmlns:sodipodi="http://sodipodi.sourceforge.net/DTD/sodipodi-0.dtd" xmlns:inkscape="http://www.inkscape.org/namespaces/inkscape" height="512" viewBox="0 0 512 512" width="512" version="1.1">
 <metadata id="metadata72"/>
 <g fill-rule="evenodd" id="g4">
  <path d="m471.95 253.05c0 120.9-98.01 218.9-218.9 218.9-120.9 0-218.9-98.01-218.9-218.9 0-120.9 98.01-218.9 218.9-218.9 120.9 0 218.9 98.01 218.9 218.9" fill="#b7b7b7" id="path6"/>
  <path d="m308.5 103.72c-2.165-0.011-5.575 3.602-11.313 11.75-4.04 5.743-7.526 10.673-7.719 10.938-0.193 0.264-4.825-0.719-10.25-2.125-12.973-3.362-34.707-3.275-46.938 0.156-2.183 0.613-4.134 1.16-5.813 1.531-0.06-0.058-0.129-0.101-0.188-0.156-0.357-0.376-0.671-0.721-1-1.031-0.348-0.366-0.678-0.696-1-1-0.488-0.513-0.939-0.985-1.375-1.375-0.199-0.202-0.373-0.351-0.563-0.531-0.289-0.305-0.573-0.581-0.844-0.844-0.389-0.416-0.768-0.784-1.125-1.125-0.346-0.367-0.679-0.694-1-1-0.374-0.396-0.718-0.769-1.063-1.094-0.488-0.513-0.939-0.985-1.375-1.375-0.199-0.202-0.373-0.351-0.563-0.531-0.289-0.305-0.573-0.581-0.844-0.844-0.389-0.416-0.768-0.784-1.125-1.125-0.317-0.336-0.611-0.653-0.906-0.938-0.403-0.429-0.788-0.809-1.156-1.156-0.488-0.513-0.939-0.985-1.375-1.375-0.199-0.202-0.373-0.351-0.563-0.531-0.289-0.305-0.573-0.581-0.844-0.844-0.389-0.416-0.768-0.784-1.125-1.125-1.978-2.096-3.554-3.25-4.594-3.25-4.72 0-3.698 4.844 3.219 14.719 3.456 4.932 6.281 9.617 6.281 10.406s-3.095 3.222-6.875 5.438c-9.173 5.376-21.694 18.866-26.688 28.719-4.503 8.887-7.459 20.06-6.188 23.375 0.081 0.21 0.37 0.39 0.875 0.563 0.036 0.149 0.076 0.311 0.125 0.438 0.081 0.21 0.37 0.39 0.875 0.563 0.036 0.149 0.076 0.311 0.125 0.438 0.082 0.214 0.351 0.388 0.875 0.563 0.036 0.147 0.077 0.312 0.125 0.438 0.08 0.209 0.341 0.391 0.844 0.563 0.036 0.145 0.078 0.283 0.125 0.406 0.082 0.214 0.382 0.419 0.906 0.594 0.034 0.135 0.049 0.29 0.094 0.406 0.082 0.214 0.381 0.419 0.906 0.594 0.034 0.135 0.049 0.29 0.094 0.406 0.082 0.214 0.379 0.418 0.906 0.594 0.034 0.135 0.049 0.29 0.094 0.406 0.081 0.21 0.37 0.39 0.875 0.563 0.036 0.149 0.076 0.311 0.125 0.438 0.082 0.214 0.351 0.388 0.875 0.563 0.036 0.149 0.076 0.311 0.125 0.438 0.08 0.209 0.341 0.391 0.844 0.563 0.036 0.145 0.078 0.283 0.125 0.406 0.082 0.214 0.382 0.419 0.906 0.594 0.034 0.135 0.049 0.29 0.094 0.406 0.082 0.214 0.382 0.419 0.906 0.594 0.034 0.135 0.049 0.29 0.094 0.406 0.047 0.123 0.19 0.234 0.375 0.344l-12.594 0.063-0.125 19.03c-0.15-0.155-0.313-0.288-0.469-0.438-0.328-0.37-0.674-0.721-1.031-1.063-0.352-0.396-0.709-0.792-1.094-1.156-0.329-0.366-0.674-0.725-1.031-1.063-0.301-0.335-0.613-0.657-0.938-0.969-0.336-0.379-0.665-0.744-1.031-1.094-0.349-0.392-0.713-0.765-1.094-1.125-0.333-0.37-0.67-0.721-1.031-1.063-0.3-0.333-0.614-0.659-0.938-0.969-0.335-0.377-0.667-0.746-1.031-1.094-0.33-0.369-0.674-0.721-1.031-1.063-0.311-0.348-0.634-0.676-0.969-1-0.338-0.381-0.696-0.741-1.063-1.094-0.335-0.375-0.669-0.747-1.031-1.094-3.518-3.926-8.603-6.406-14.281-6.406-10.66 0-19.25 8.658-19.25 19.438v72.63c0 5.742 2.454 10.856 6.344 14.406 0.309 0.324 0.638 0.636 0.969 0.938 0.344 0.361 0.692 0.699 1.063 1.031 0.291 0.301 0.596 0.594 0.906 0.875 0.24 0.251 0.527 0.45 0.781 0.688 0.434 0.467 0.865 0.923 1.344 1.344l0.031 0.031c0.118 0.103 0.224 0.213 0.344 0.313 0.123 0.118 0.249 0.229 0.375 0.344 0.329 0.346 0.677 0.681 1.031 1 0.292 0.304 0.594 0.592 0.906 0.875 0.319 0.334 0.657 0.628 1 0.938 0.266 0.278 0.529 0.551 0.813 0.813 0.344 0.367 0.721 0.694 1.094 1.031 0.278 0.291 0.578 0.572 0.875 0.844 0.356 0.378 0.738 0.717 1.125 1.063 0.299 0.31 0.617 0.619 0.938 0.906 0.28 0.292 0.576 0.572 0.875 0.844 0.381 0.403 0.771 0.791 1.188 1.156 0.021 0.021 0.042 0.041 0.063 0.063 0.095 0.082 0.185 0.17 0.281 0.25 0.143 0.138 0.29 0.273 0.438 0.406 0.318 0.335 0.657 0.66 1 0.969 0.315 0.331 0.66 0.633 1 0.938 0.303 0.316 0.612 0.614 0.938 0.906 0.32 0.335 0.654 0.66 1 0.969 0.318 0.332 0.656 0.632 1 0.938 0.289 0.301 0.596 0.596 0.906 0.875 0.313 0.328 0.631 0.635 0.969 0.938 0.352 0.369 0.71 0.727 1.094 1.063 0.031 0.032 0.063 0.062 0.094 0.094 0.073 0.063 0.145 0.126 0.219 0.188 0.142 0.139 0.29 0.272 0.438 0.406 0.365 0.389 0.725 0.773 1.125 1.125 0.051 0.052 0.105 0.105 0.156 0.156 0.062 0.053 0.125 0.104 0.188 0.156 0.177 0.173 0.347 0.335 0.531 0.5 0.29 0.304 0.594 0.594 0.906 0.875 0.307 0.326 0.637 0.638 0.969 0.938 0.337 0.357 0.695 0.674 1.063 1 0.3 0.313 0.614 0.618 0.938 0.906 0.31 0.326 0.633 0.639 0.969 0.938 0.281 0.295 0.603 0.571 0.906 0.844 0.309 0.329 0.633 0.636 0.969 0.938 0.368 0.391 0.751 0.773 1.156 1.125 0.031 0.032 0.063 0.062 0.094 0.094 0.05 0.043 0.105 0.083 0.156 0.125 0.172 0.169 0.352 0.339 0.531 0.5 0.358 0.382 0.73 0.75 1.125 1.094 0.046 0.048 0.078 0.109 0.125 0.156 0.039 0.034 0.085 0.061 0.125 0.094 0.227 0.225 0.447 0.446 0.688 0.656 0.051 0.053 0.104 0.104 0.156 0.156 0.04 0.034 0.085 0.06 0.125 0.094 0.163 0.161 0.33 0.315 0.5 0.469 0.325 0.35 0.676 0.682 1.031 1 0.352 0.375 0.706 0.725 1.094 1.063 0.051 0.053 0.104 0.104 0.156 0.156 0.029 0.024 0.065 0.038 0.094 0.063 0.229 0.228 0.444 0.474 0.688 0.688 0.06 0.063 0.126 0.125 0.188 0.188 0.028 0.024 0.065 0.039 0.094 0.063 0.19 0.189 0.394 0.353 0.594 0.531 0.362 0.387 0.725 0.779 1.125 1.125 0.041 0.042 0.084 0.083 0.125 0.125 0.028 0.024 0.065 0.039 0.094 0.063 0.164 0.163 0.329 0.314 0.5 0.469 0.338 0.367 0.69 0.732 1.063 1.063 0.307 0.326 0.633 0.641 0.969 0.938 0.332 0.352 0.697 0.683 1.063 1 0.056 0.059 0.099 0.13 0.156 0.188 0.017 0.014 0.046 0.017 0.063 0.031 0.198 0.198 0.416 0.376 0.625 0.563 0.33 0.354 0.668 0.681 1.031 1 0.296 0.313 0.615 0.621 0.938 0.906 0.341 0.363 0.686 0.706 1.063 1.031 0.051 0.053 0.104 0.104 0.156 0.156 0.006 0.005 0.025-0.005 0.031 0 0.231 0.233 0.472 0.472 0.719 0.688 0.076 0.08 0.141 0.172 0.219 0.25 0.006 0.005 0.026-0.005 0.031 0 0.181 0.182 0.371 0.359 0.563 0.531 0.36 0.394 0.753 0.776 1.156 1.125 0.061 0.064 0.125 0.125 0.188 0.188 0.006 0.005 0.025-0.005 0.031 0 0.307 0.309 0.603 0.628 0.938 0.906 0.314 0.318 0.625 0.651 0.969 0.938 0.312 0.316 0.627 0.622 0.969 0.906 0.31 0.314 0.598 0.624 0.938 0.906 0.317 0.323 0.621 0.648 0.969 0.938 0.315 0.321 0.623 0.619 0.969 0.906 0.313 0.319 0.626 0.652 0.969 0.938 0.226 0.231 0.445 0.443 0.688 0.656 0.386 0.417 0.782 0.824 1.219 1.188 0.236 0.24 0.497 0.466 0.75 0.688 0.303 0.325 0.634 0.646 0.969 0.938 0.369 0.396 0.741 0.779 1.156 1.125 0.309 0.317 0.628 0.654 0.969 0.938 0.23 0.236 0.471 0.47 0.719 0.688 0.374 0.406 0.763 0.772 1.188 1.125 0.312 0.323 0.623 0.65 0.969 0.938 0.31 0.321 0.626 0.621 0.969 0.906 0.308 0.319 0.628 0.654 0.969 0.938 0.113 0.117 0.226 0.231 0.344 0.344v15.188c0 5.831 2.514 11.05 6.5 14.625 0.031 0.031 0.063 0.062 0.094 0.094 0.127 0.112 0.245 0.235 0.375 0.344 0.07 0.067 0.148 0.122 0.219 0.188 0.347 0.373 0.718 0.719 1.094 1.063 0.32 0.337 0.657 0.657 1 0.969 0.267 0.279 0.561 0.519 0.844 0.781 0.372 0.398 0.752 0.792 1.156 1.156 0.041 0.042 0.084 0.083 0.125 0.125 0.122 0.107 0.251 0.208 0.375 0.313 0.079 0.076 0.17 0.144 0.25 0.219 0.362 0.389 0.732 0.768 1.125 1.125 0.292 0.305 0.595 0.59 0.906 0.875 0.312 0.329 0.665 0.632 1 0.938 0.304 0.32 0.643 0.609 0.969 0.906 0.354 0.373 0.71 0.752 1.094 1.094 0.031 0.032 0.063 0.062 0.094 0.094 0.104 0.092 0.206 0.192 0.313 0.281 0.143 0.138 0.29 0.273 0.438 0.406 0.326 0.344 0.679 0.652 1.031 0.969 0.332 0.347 0.673 0.681 1.031 1 0.036 0.037 0.058 0.088 0.094 0.125 0.094 0.083 0.185 0.169 0.281 0.25 0.144 0.14 0.289 0.271 0.438 0.406 0.37 0.392 0.753 0.769 1.156 1.125l0.063 0.063c0.095 0.083 0.185 0.169 0.281 0.25 0.142 0.139 0.291 0.273 0.438 0.406 0.361 0.383 0.731 0.745 1.125 1.094 0.036 0.037 0.058 0.089 0.094 0.125 0.084 0.073 0.165 0.147 0.25 0.219 0.208 0.204 0.407 0.401 0.625 0.594 0.031 0.031 0.063 0.062 0.094 0.094 0.085 0.074 0.164 0.147 0.25 0.219 0.126 0.123 0.246 0.256 0.375 0.375 0.315 0.337 0.66 0.658 1 0.969 0.345 0.368 0.718 0.695 1.094 1.031 0.289 0.302 0.596 0.595 0.906 0.875 0.324 0.342 0.68 0.655 1.031 0.969 0.325 0.34 0.648 0.688 1 1 0.041 0.043 0.083 0.082 0.125 0.125 0.072 0.062 0.146 0.126 0.219 0.188 0.174 0.171 0.35 0.337 0.531 0.5 0.353 0.373 0.739 0.723 1.125 1.063 0.026 0.027 0.036 0.067 0.063 0.094 0.072 0.063 0.146 0.126 0.219 0.188 0.156 0.153 0.338 0.29 0.5 0.438 0.358 0.381 0.702 0.78 1.094 1.125 0.04 0.042 0.084 0.083 0.125 0.125 0.061 0.053 0.125 0.104 0.188 0.156 0.216 0.213 0.429 0.424 0.656 0.625 0.041 0.042 0.084 0.083 0.125 0.125 0.062 0.053 0.125 0.104 0.188 0.156 0.163 0.16 0.331 0.315 0.5 0.469 0.327 0.35 0.675 0.681 1.031 1 0.354 0.375 0.706 0.723 1.094 1.063 0.031 0.032 0.063 0.062 0.094 0.094 0.051 0.044 0.104 0.082 0.156 0.125 0.214 0.212 0.431 0.425 0.656 0.625 0.056 0.058 0.1 0.13 0.156 0.188 0.05 0.043 0.106 0.083 0.156 0.125 0.173 0.172 0.35 0.336 0.531 0.5 0.451 0.483 0.899 0.952 1.406 1.375 0.216 0.214 0.428 0.424 0.656 0.625 0.05 0.052 0.105 0.105 0.156 0.156 0.04 0.034 0.085 0.06 0.125 0.094 0.219 0.219 0.424 0.451 0.656 0.656 0.06 0.064 0.126 0.125 0.188 0.188 0.039 0.034 0.085 0.061 0.125 0.094 0.174 0.173 0.349 0.335 0.531 0.5 0.319 0.343 0.651 0.657 1 0.969 0.358 0.382 0.73 0.75 1.125 1.094 0.031 0.032 0.063 0.062 0.094 0.094 0.039 0.034 0.085 0.061 0.125 0.094 0.181 0.18 0.373 0.36 0.563 0.531 0.313 0.336 0.658 0.662 1 0.969 0.349 0.373 0.709 0.727 1.094 1.063 0.041 0.043 0.084 0.083 0.125 0.125 0.029 0.024 0.065 0.038 0.094 0.063 0.231 0.232 0.473 0.472 0.719 0.688 0.057 0.06 0.099 0.129 0.156 0.188 0.028 0.024 0.066 0.039 0.094 0.063 0.192 0.192 0.392 0.381 0.594 0.563 0.354 0.381 0.733 0.752 1.125 1.094 0.041 0.043 0.083 0.082 0.125 0.125 0.028 0.024 0.066 0.039 0.094 0.063 0.229 0.229 0.444 0.474 0.688 0.688 0.06 0.063 0.126 0.125 0.188 0.188 0.017 0.014 0.046 0.017 0.063 0.031 0.199 0.2 0.415 0.374 0.625 0.563 0.355 0.383 0.731 0.751 1.125 1.094 0.046 0.048 0.079 0.109 0.125 0.156 0.017 0.014 0.045 0.017 0.063 0.031 0.226 0.227 0.447 0.445 0.688 0.656 0.075 0.08 0.142 0.172 0.219 0.25 0.006 0.005 0.025-0.005 0.031 0 0.249 0.252 0.483 0.517 0.75 0.75 0.06 0.064 0.126 0.125 0.188 0.188 0.006 0.005 0.025-0.005 0.031 0 0.246 0.249 0.486 0.488 0.75 0.719 0.061 0.064 0.125 0.124 0.188 0.188 0.006 0.005 0.025-0.005 0.031 0 0.231 0.234 0.473 0.471 0.719 0.688 0.076 0.081 0.141 0.171 0.219 0.25 0.006 0.005 0.026-0.005 0.031 0 0.31 0.314 0.599 0.623 0.938 0.906 0.313 0.318 0.627 0.651 0.969 0.938 0.311 0.316 0.629 0.622 0.969 0.906 0.214 0.218 0.428 0.421 0.656 0.625 0.393 0.424 0.807 0.848 1.25 1.219 0.232 0.237 0.47 0.469 0.719 0.688 0.38 0.408 0.792 0.799 1.219 1.156 0.305 0.311 0.604 0.626 0.938 0.906 0.312 0.321 0.626 0.65 0.969 0.938 0.31 0.318 0.629 0.621 0.969 0.906 0.308 0.316 0.631 0.654 0.969 0.938 0.306 0.314 0.602 0.625 0.938 0.906 0.313 0.323 0.624 0.618 0.969 0.906 0.311 0.321 0.626 0.651 0.969 0.938 0.231 0.239 0.47 0.467 0.719 0.688 0.386 0.422 0.779 0.822 1.219 1.188 0.299 0.308 0.608 0.599 0.938 0.875 0.321 0.334 0.644 0.673 1 0.969 0.036 0.037 0.089 0.057 0.125 0.094 103.66-12.996 184.73-98.45 190.97-204.06-0.032-0.018-0.061-0.046-0.094-0.063-0.129-0.222-0.284-0.44-0.469-0.625-0.17-0.17-0.344-0.283-0.531-0.375-0.129-0.222-0.284-0.44-0.469-0.625-0.17-0.17-0.344-0.283-0.531-0.375-0.128-0.219-0.255-0.411-0.438-0.594-0.159-0.159-0.357-0.284-0.531-0.375-0.131-0.231-0.278-0.434-0.469-0.625-0.176-0.176-0.367-0.313-0.563-0.406-0.128-0.217-0.257-0.413-0.438-0.594-0.182-0.181-0.361-0.344-0.563-0.438-0.123-0.202-0.267-0.392-0.438-0.563-0.17-0.17-0.344-0.283-0.531-0.375-0.129-0.222-0.284-0.44-0.469-0.625-0.17-0.17-0.344-0.283-0.531-0.375-0.129-0.222-0.284-0.44-0.469-0.625-0.17-0.17-0.344-0.283-0.531-0.375-0.128-0.219-0.286-0.443-0.469-0.625-0.159-0.159-0.326-0.253-0.5-0.344-0.131-0.231-0.278-0.434-0.469-0.625-0.176-0.176-0.367-0.313-0.563-0.406-0.128-0.217-0.257-0.413-0.438-0.594-0.182-0.181-0.361-0.345-0.563-0.438-0.123-0.202-0.267-0.392-0.438-0.563-0.182-0.181-0.361-0.345-0.563-0.438-0.123-0.202-0.267-0.392-0.438-0.563-0.17-0.17-0.344-0.283-0.531-0.375-0.129-0.222-0.284-0.44-0.469-0.625-0.17-0.17-0.344-0.283-0.531-0.375-0.128-0.219-0.286-0.443-0.469-0.625-0.159-0.159-0.326-0.253-0.5-0.344-0.131-0.231-0.278-0.434-0.469-0.625-0.176-0.176-0.367-0.313-0.563-0.406-0.128-0.217-0.257-0.413-0.438-0.594s-0.361-0.345-0.563-0.438c-0.123-0.202-0.267-0.392-0.438-0.563-0.182-0.181-0.361-0.344-0.563-0.438-0.123-0.202-0.267-0.392-0.438-0.563-0.17-0.17-0.344-0.283-0.531-0.375-0.129-0.222-0.284-0.44-0.469-0.625-0.17-0.17-0.344-0.283-0.531-0.375-0.128-0.219-0.286-0.443-0.469-0.625-0.162-0.162-0.322-0.284-0.5-0.375-0.129-0.222-0.284-0.409-0.469-0.594-0.176-0.176-0.367-0.313-0.563-0.406-0.128-0.217-0.257-0.413-0.438-0.594-0.176-0.176-0.367-0.313-0.563-0.406-0.128-0.217-0.257-0.413-0.438-0.594-0.182-0.182-0.361-0.344-0.563-0.438-0.123-0.202-0.267-0.392-0.438-0.563-0.17-0.17-0.344-0.283-0.531-0.375-0.129-0.222-0.284-0.44-0.469-0.625-0.17-0.17-0.344-0.283-0.531-0.375-0.129-0.222-0.284-0.44-0.469-0.625-0.17-0.17-0.344-0.283-0.531-0.375-0.128-0.219-0.255-0.411-0.438-0.594l-0.031-0.031c-0.159-0.159-0.326-0.253-0.5-0.344-0.131-0.231-0.278-0.434-0.469-0.625-0.176-0.176-0.367-0.313-0.563-0.406-0.128-0.217-0.257-0.413-0.438-0.594-0.182-0.182-0.361-0.344-0.563-0.438-0.123-0.202-0.267-0.392-0.438-0.563-0.171-0.17-0.343-0.314-0.531-0.406-0.126-0.212-0.291-0.416-0.469-0.594-0.17-0.17-0.344-0.283-0.531-0.375-0.129-0.222-0.284-0.44-0.469-0.625-0.17-0.17-0.344-0.283-0.531-0.375-0.128-0.219-0.286-0.443-0.469-0.625-0.159-0.159-0.326-0.253-0.5-0.344-0.131-0.231-0.278-0.434-0.469-0.625-0.176-0.176-0.367-0.313-0.563-0.406-0.128-0.217-0.257-0.413-0.438-0.594-0.182-0.182-0.361-0.344-0.563-0.438-0.123-0.202-0.267-0.392-0.438-0.563-0.182-0.182-0.361-0.344-0.563-0.438-0.123-0.202-0.267-0.392-0.438-0.563-0.17-0.17-0.344-0.283-0.531-0.375-0.129-0.222-0.284-0.44-0.469-0.625-0.17-0.17-0.344-0.283-0.531-0.375-0.128-0.219-0.286-0.443-0.469-0.625-0.159-0.159-0.326-0.253-0.5-0.344-0.131-0.231-0.278-0.434-0.469-0.625-0.176-0.176-0.367-0.313-0.563-0.406-0.128-0.217-0.257-0.413-0.438-0.594s-0.361-0.344-0.563-0.438c-0.123-0.202-0.267-0.392-0.438-0.563-0.182-0.182-0.361-0.344-0.563-0.438-0.123-0.202-0.267-0.392-0.438-0.563-0.17-0.17-0.344-0.283-0.531-0.375-0.129-0.222-0.284-0.44-0.469-0.625-0.17-0.17-0.344-0.283-0.531-0.375-0.128-0.219-0.286-0.443-0.469-0.625-0.17-0.17-0.344-0.283-0.531-0.375-0.128-0.219-0.255-0.411-0.438-0.594-0.159-0.159-0.357-0.284-0.531-0.375-0.131-0.231-0.278-0.434-0.469-0.625-0.176-0.176-0.367-0.313-0.563-0.406-0.128-0.217-0.257-0.413-0.438-0.594-0.182-0.182-0.361-0.344-0.563-0.438-0.123-0.202-0.267-0.392-0.438-0.563-0.17-0.17-0.344-0.283-0.531-0.375-0.129-0.222-0.284-0.44-0.469-0.625-0.17-0.17-0.344-0.283-0.531-0.375-0.129-0.222-0.284-0.44-0.469-0.625-0.17-0.17-0.344-0.283-0.531-0.375-0.128-0.219-0.286-0.443-0.469-0.625-0.159-0.159-0.326-0.253-0.5-0.344-0.131-0.231-0.278-0.434-0.469-0.625-0.176-0.176-0.367-0.313-0.563-0.406-0.128-0.217-0.257-0.413-0.438-0.594-0.182-0.182-0.361-0.344-0.563-0.438-0.123-0.202-0.267-0.392-0.438-0.563-0.182-0.182-0.361-0.344-0.563-0.438-0.123-0.202-0.267-0.392-0.438-0.563-0.17-0.17-0.344-0.283-0.531-0.375-0.129-0.222-0.284-0.44-0.469-0.625-0.17-0.17-0.344-0.283-0.531-0.375-0.128-0.219-0.286-0.443-0.469-0.625-0.159-0.159-0.326-0.253-0.5-0.344-0.131-0.231-0.278-0.434-0.469-0.625-0.176-0.176-0.367-0.313-0.563-0.406-0.128-0.217-0.257-0.413-0.438-0.594-0.182-0.182-0.361-0.344-0.563-0.438-0.123-0.202-0.267-0.392-0.438-0.563-0.182-0.182-0.361-0.344-0.563-0.438-0.123-0.202-0.267-0.392-0.438-0.563-0.17-0.17-0.344-0.283-0.531-0.375-0.129-0.222-0.284-0.44-0.469-0.625-0.17-0.17-0.344-0.283-0.531-0.375-0.128-0.219-0.286-0.443-0.469-0.625-0.159-0.159-0.326-0.253-0.5-0.344-0.131-0.231-0.278-0.434-0.469-0.625-0.176-0.176-0.367-0.313-0.563-0.406-0.128-0.217-0.257-0.413-0.438-0.594s-0.361-0.344-0.563-0.438c-0.123-0.202-0.267-0.392-0.438-0.563-0.182-0.182-0.361-0.344-0.563-0.438-0.123-0.202-0.267-0.392-0.438-0.563-0.17-0.17-0.344-0.283-0.531-0.375-0.129-0.222-0.284-0.44-0.469-0.625-0.17-0.17-0.344-0.283-0.531-0.375-0.129-0.222-0.284-0.44-0.469-0.625-0.17-0.17-0.344-0.283-0.531-0.375-0.128-0.219-0.255-0.411-0.438-0.594-0.159-0.159-0.357-0.284-0.531-0.375-0.131-0.231-0.278-0.434-0.469-0.625-0.176-0.176-0.367-0.313-0.563-0.406-0.128-0.217-0.257-0.413-0.438-0.594-0.182-0.182-0.361-0.344-0.563-0.438-0.123-0.202-0.267-0.392-0.438-0.563-0.171-0.17-0.343-0.314-0.531-0.406-0.126-0.212-0.291-0.416-0.469-0.594-0.17-0.17-0.344-0.283-0.531-0.375-0.129-0.222-0.284-0.44-0.469-0.625-0.17-0.17-0.344-0.283-0.531-0.375-0.128-0.219-0.286-0.443-0.469-0.625-0.159-0.159-0.326-0.253-0.5-0.344-0.131-0.231-0.278-0.434-0.469-0.625-0.176-0.176-0.367-0.313-0.563-0.406-0.128-0.217-0.257-0.413-0.438-0.594-0.182-0.182-0.361-0.344-0.563-0.438-0.123-0.202-0.267-0.392-0.438-0.563-0.182-0.182-0.361-0.344-0.563-0.438-0.123-0.202-0.267-0.392-0.438-0.563-0.17-0.17-0.344-0.283-0.531-0.375-0.129-0.222-0.284-0.44-0.469-0.625-0.17-0.17-0.344-0.283-0.531-0.375-0.128-0.219-0.286-0.443-0.469-0.625-0.159-0.159-0.326-0.253-0.5-0.344-0.131-0.231-0.278-0.434-0.469-0.625-0.176-0.176-0.367-0.313-0.563-0.406-0.128-0.217-0.257-0.413-0.438-0.594s-0.361-0.344-0.563-0.438c-0.123-0.202-0.267-0.392-0.438-0.563-0.182-0.182-0.361-0.344-0.563-0.438-0.123-0.202-0.267-0.392-0.438-0.563-0.17-0.17-0.344-0.283-0.531-0.375-0.129-0.222-0.284-0.44-0.469-0.625-0.17-0.17-0.344-0.283-0.531-0.375-0.128-0.219-0.286-0.443-0.469-0.625-0.17-0.17-0.344-0.283-0.531-0.375-0.128-0.219-0.255-0.411-0.438-0.594-0.176-0.176-0.367-0.313-0.563-0.406-0.128-0.217-0.257-0.413-0.438-0.594-0.176-0.176-0.367-0.313-0.563-0.406-0.128-0.217-0.257-0.413-0.438-0.594-0.182-0.182-0.361-0.344-0.563-0.438-0.123-0.202-0.267-0.392-0.438-0.563-0.17-0.17-0.344-0.283-0.531-0.375-0.129-0.222-0.284-0.44-0.469-0.625-0.17-0.17-0.344-0.283-0.531-0.375-0.129-0.222-0.284-0.44-0.469-0.625-0.17-0.17-0.344-0.283-0.531-0.375-0.128-0.219-0.286-0.443-0.469-0.625-0.159-0.159-0.326-0.253-0.5-0.344-0.131-0.231-0.278-0.434-0.469-0.625-0.177-0.176-0.367-0.313-0.563-0.406-0.128-0.217-0.257-0.413-0.438-0.594-0.182-0.182-0.361-0.344-0.563-0.438-0.123-0.202-0.267-0.392-0.438-0.563-0.182-0.182-0.361-0.344-0.563-0.438-0.123-0.202-0.267-0.392-0.438-0.563-0.17-0.17-0.344-0.283-0.531-0.375-0.129-0.222-0.284-0.44-0.469-0.625-0.17-0.17-0.344-0.283-0.531-0.375-0.128-0.219-0.286-0.443-0.469-0.625-0.159-0.159-0.326-0.253-0.5-0.344-0.131-0.231-0.278-0.434-0.469-0.625-0.177-0.176-0.367-0.313-0.563-0.406-0.128-0.217-0.257-0.413-0.438-0.594-0.182-0.182-0.361-0.344-0.563-0.438-0.123-0.202-0.267-0.392-0.438-0.563-0.182-0.182-0.361-0.344-0.563-0.438-0.123-0.202-0.267-0.392-0.438-0.563-0.17-0.17-0.344-0.283-0.531-0.375-0.129-0.222-0.284-0.44-0.469-0.625-0.17-0.17-0.344-0.283-0.531-0.375-0.128-0.219-0.286-0.443-0.469-0.625-0.159-0.159-0.326-0.253-0.5-0.344-0.131-0.231-0.278-0.434-0.469-0.625-0.177-0.176-0.367-0.313-0.563-0.406-0.128-0.217-0.257-0.413-0.438-0.594s-0.361-0.344-0.563-0.438c-0.123-0.202-0.267-0.392-0.438-0.563-0.182-0.182-0.361-0.344-0.563-0.438-0.123-0.202-0.267-0.392-0.438-0.563-0.17-0.17-0.344-0.283-0.531-0.375-0.129-0.222-0.284-0.44-0.469-0.625-0.17-0.17-0.344-0.283-0.531-0.375-0.129-0.222-0.284-0.44-0.469-0.625-0.17-0.17-0.344-0.283-0.531-0.375-0.128-0.219-0.255-0.411-0.438-0.594-0.159-0.159-0.357-0.284-0.531-0.375-0.131-0.231-0.278-0.434-0.469-0.625-0.177-0.176-0.367-0.313-0.563-0.406-0.128-0.217-0.257-0.413-0.438-0.594-0.182-0.182-0.361-0.344-0.563-0.438-0.123-0.202-0.267-0.392-0.438-0.563s-0.343-0.314-0.531-0.406c-0.126-0.212-0.291-0.416-0.469-0.594-0.17-0.17-0.344-0.283-0.531-0.375-0.129-0.222-0.284-0.44-0.469-0.625-0.17-0.17-0.344-0.283-0.531-0.375-0.128-0.219-0.286-0.443-0.469-0.625-0.159-0.159-0.326-0.253-0.5-0.344-0.131-0.231-0.278-0.434-0.469-0.625-0.177-0.176-0.367-0.313-0.563-0.406-0.128-0.217-0.257-0.413-0.438-0.594-0.182-0.182-0.361-0.344-0.563-0.438-0.123-0.202-0.267-0.392-0.438-0.563-0.182-0.182-0.361-0.344-0.563-0.438-0.123-0.202-0.267-0.392-0.438-0.563-0.17-0.17-0.344-0.283-0.531-0.375-0.129-0.222-0.284-0.44-0.469-0.625-0.17-0.17-0.344-0.283-0.531-0.375-0.128-0.219-0.286-0.443-0.469-0.625-0.159-0.159-0.326-0.253-0.5-0.344-0.131-0.231-0.278-0.434-0.469-0.625-0.177-0.176-0.367-0.313-0.563-0.406-0.128-0.217-0.257-0.413-0.438-0.594s-0.361-0.344-0.563-0.438c-0.123-0.202-0.267-0.392-0.438-0.563-0.182-0.182-0.361-0.344-0.563-0.438-0.123-0.202-0.267-0.392-0.438-0.563-0.17-0.17-0.344-0.283-0.531-0.375-0.129-0.222-0.284-0.44-0.469-0.625-0.17-0.17-0.344-0.283-0.531-0.375-0.128-0.219-0.286-0.443-0.469-0.625-0.17-0.17-0.344-0.283-0.531-0.375-0.128-0.219-0.255-0.411-0.438-0.594-0.177-0.176-0.367-0.313-0.563-0.406-0.128-0.217-0.257-0.413-0.438-0.594-0.177-0.176-0.367-0.313-0.563-0.406-0.128-0.217-0.257-0.413-0.438-0.594-0.182-0.182-0.361-0.344-0.563-0.438-0.123-0.202-0.267-0.392-0.438-0.563-0.17-0.17-0.344-0.283-0.531-0.375-0.129-0.222-0.284-0.44-0.469-0.625-0.17-0.17-0.344-0.283-0.531-0.375-0.129-0.222-0.284-0.44-0.469-0.625-0.17-0.17-0.344-0.283-0.531-0.375-0.128-0.219-0.286-0.443-0.469-0.625-0.159-0.159-0.326-0.253-0.5-0.344-0.131-0.231-0.278-0.434-0.469-0.625-0.177-0.176-0.367-0.313-0.563-0.406-0.128-0.217-0.257-0.413-0.438-0.594-0.182-0.182-0.361-0.344-0.563-0.438-0.123-0.202-0.267-0.392-0.438-0.563-0.182-0.182-0.361-0.344-0.563-0.438-0.123-0.202-0.267-0.392-0.438-0.563-0.17-0.17-0.344-0.283-0.531-0.375-0.129-0.222-0.284-0.44-0.469-0.625-0.17-0.17-0.344-0.283-0.531-0.375-0.128-0.219-0.286-0.443-0.469-0.625-0.159-0.159-0.326-0.253-0.5-0.344-0.131-0.231-0.278-0.434-0.469-0.625-0.177-0.176-0.367-0.313-0.563-0.406-0.128-0.217-0.257-0.413-0.438-0.594-0.182-0.182-0.361-0.344-0.563-0.438-0.123-0.202-0.267-0.392-0.438-0.563-0.182-0.182-0.361-0.344-0.563-0.438-0.123-0.202-0.267-0.392-0.438-0.563-0.17-0.17-0.344-0.283-0.531-0.375-0.129-0.222-0.284-0.44-0.469-0.625-0.17-0.17-0.344-0.283-0.531-0.375-0.128-0.219-0.286-0.443-0.469-0.625-0.159-0.159-0.326-0.253-0.5-0.344-0.131-0.231-0.278-0.434-0.469-0.625-0.177-0.176-0.367-0.313-0.563-0.406-0.128-0.217-0.257-0.413-0.438-0.594s-0.361-0.344-0.563-0.438c-0.123-0.202-0.267-0.392-0.438-0.563-0.182-0.182-0.361-0.344-0.563-0.438-0.123-0.202-0.267-0.392-0.438-0.563-0.17-0.17-0.344-0.283-0.531-0.375-0.129-0.222-0.284-0.44-0.469-0.625-0.17-0.17-0.344-0.283-0.531-0.375-0.129-0.222-0.284-0.44-0.469-0.625-0.17-0.17-0.344-0.283-0.531-0.375-0.128-0.219-0.255-0.411-0.438-0.594-0.159-0.159-0.357-0.284-0.531-0.375-0.131-0.231-0.278-0.434-0.469-0.625-0.177-0.176-0.367-0.313-0.563-0.406-0.128-0.217-0.257-0.413-0.438-0.594-0.182-0.182-0.361-0.344-0.563-0.438-0.123-0.202-0.267-0.392-0.438-0.563-0.377-0.377-0.782-0.56-1.281-0.563" fill-opacity="0.235" id="path8"/>
  <path d="m256 1c-140.83 0-255 114.17-255 255s114.17 255 255 255 255-114.17 255-255-114.17-255-255-255m8.827 44.931c120.9 0 218.9 98 218.9 218.9s-98 218.9-218.9 218.9-218.93-98-218.93-218.9 98.03-218.9 218.93-218.9" fill-opacity="0.067" id="path10"/>
  <g fill-opacity="0.129" id="g12">
   <path d="m256 4.433c-138.94 0-251.57 112.63-251.57 251.57s112.63 251.57 251.57 251.57 251.57-112.63 251.57-251.57-112.63-251.57-251.57-251.57m5.885 38.556c120.9 0 218.9 98 218.9 218.9s-98 218.9-218.9 218.9-218.93-98-218.93-218.9 98.03-218.9 218.93-218.9" id="path14"/>
   <path d="m256 8.356c-136.77 0-247.64 110.87-247.64 247.64s110.87 247.64 247.64 247.64 247.64-110.87 247.64-247.64-110.87-247.64-247.64-247.64m2.942 31.691c120.9 0 218.9 98 218.9 218.9s-98 218.9-218.9 218.9-218.93-98-218.93-218.9 98.03-218.9 218.93-218.9" id="path16"/>
  </g>
  <path fill="#ffffff" stroke-width="4.904" stroke="#000000" stroke-opacity="0.31" d="m253.04 7.859c-135.42 0-245.19 109.78-245.19 245.19 0 135.42 109.78 245.19 245.19 245.19 135.42 0 245.19-109.78 245.19-245.19 0-135.42-109.78-245.19-245.19-245.19zm0 26.297c120.9 0 218.9 98 218.9 218.9s-98 218.9-218.9 218.9-218.93-98-218.93-218.9 98.03-218.9 218.93-218.9z" id="path18"/>
 </g>
 <text font-family="Gentium Book Basic" x="729.64" y="231.36" line-height="125%" font-size="129.23" id="text20" word-spacing="0" letter-spacing="0"><tspan x="729.64" y="231.36" id="tspan22"/>
 </text>
 <text font-family="Arial" x="378.91" y="579.25" transform="scale(4.0128 .2492)" font-size="46.954" id="text24" text-anchor="middle"/>
 <text font-family="Gentium Book Basic" x="1310.91" y="151.36" line-height="125%" font-size="129.23" id="text26" word-spacing="0" letter-spacing="0"><tspan x="1310.91" y="151.36" id="tspan28"/>
 </text>
 <text font-family="Arial" x="523.76" y="258.22" transform="scale(4.0128 .2492)" font-size="46.954" id="text30" text-anchor="middle"/>
 <text font-family="Gentium Book Basic" x="239.33" y="-29.901" line-height="125%" font-size="129.23" id="text32" word-spacing="0" letter-spacing="0"><tspan x="239.33" y="-29.901" id="tspan34"/>
 </text>
 <text font-family="Arial" x="256.72" y="-469.14" transform="scale(4.0128 .2492)" font-size="46.954" id="text36" text-anchor="middle"/>
 <text font-family="Gentium Book Basic" x="1337.38" y="-246.37" line-height="125%" font-size="129.23" id="text38" word-spacing="0" letter-spacing="0"><tspan x="1337.38" y="-246.37" id="tspan40"/>
 </text>
 <text font-family="Arial" x="530.36" y="-1337.81" transform="scale(4.0128 .2492)" font-size="46.954" id="text42" text-anchor="middle"/>
 <text font-family="Gentium Book Basic" x="1918.65" y="-326.38" line-height="125%" font-size="129.23" id="text44" word-spacing="0" letter-spacing="0"><tspan x="1918.65" y="-326.38" id="tspan46"/>
 </text>
 <text font-family="Arial" x="675.21" y="-1658.85" transform="scale(4.0128 .2492)" font-size="46.954" id="text48" text-anchor="middle"/>
 <text font-family="Gentium Book Basic" x="1529.53" y="-798.78" line-height="125%" font-size="129.23" id="text50" word-spacing="0" letter-spacing="0"><tspan x="1529.53" y="-798.78" id="tspan52"/>
 </text>
 <text font-family="Arial" x="578.24" y="-3554.51" transform="scale(4.0128 .2492)" font-size="46.954" id="text54" text-anchor="middle"/>
 <text font-family="Gentium Book Basic" x="2110.79" y="-878.78" line-height="125%" font-size="129.23" id="text56" word-spacing="0" letter-spacing="0"><tspan x="2110.79" y="-878.78" id="tspan58"/>
 </text>
 <text font-family="Arial" x="723.09" y="-3875.54" transform="scale(4.0128 .2492)" font-size="46.954" id="text60" text-anchor="middle"/>
 <text font-family="Gentium Book Basic" x="277.99" y="535.94" line-height="125%" font-size="208.33" id="text62" word-spacing="0" letter-spacing="0"><tspan x="277.99" y="535.94" id="tspan64"/>
 </text>
 <path fill="#ffffff" fill-rule="evenodd" d="m308.52 103.73c-2.165-0.011-5.599 3.582-11.337 11.73-4.04 5.743-7.513 10.68-7.705 10.945-0.193 0.264-4.833-0.705-10.258-2.11-12.973-3.362-34.69-3.285-46.92 0.147-5.268 1.478-9.797 2.398-10.06 2.061-0.265-0.336-3.844-5.359-7.951-11.19-4.782-6.789-8.531-10.601-10.454-10.601-4.72 0-3.678 4.849 3.239 14.724 3.456 4.932 6.282 9.616 6.282 10.405s-3.091 3.233-6.871 5.448c-9.173 5.376-21.706 18.859-26.699 28.712-4.503 8.887-7.455 20.05-6.184 23.362 0.69 1.798 14.606 2.16 82.4 2.16 72.15 0 81.63-0.304 82.45-2.454 1.349-3.516-5.083-21.957-10.307-29.546-5.552-8.07-18.434-20.245-25.03-23.656-2.727-1.41-4.957-2.891-4.957-3.337 0-0.447 2.827-5.186 6.282-10.503 5.951-9.157 7.471-13.633 5.35-15.755-0.377-0.377-0.776-0.537-1.276-0.54m-86.04 45.06c5.214 0 9.423 4.209 9.423 9.423s-4.21 9.423-9.423 9.423c-5.215 0-9.472-4.209-9.472-9.423s4.258-9.423 9.472-9.423m67.926 0c5.214 0 9.423 4.209 9.423 9.423s-4.21 9.423-9.423 9.423c-5.214 0-9.423-4.209-9.423-9.423s4.209-9.423 9.423-9.423m-145.28 49.28c-10.66 0-19.239 8.656-19.239 19.435v72.64c0 10.779 8.579 19.435 19.239 19.435 10.659 0 19.239-8.656 19.239-19.435v-72.64c0-10.779-8.58-19.435-19.239-19.435m221.69 0c-10.66 0-19.239 8.656-19.239 19.435v72.64c0 10.779 8.58 19.435 19.239 19.435 10.66 0 19.288-8.656 19.288-19.435v-72.64c0-10.779-8.629-19.435-19.288-19.435m-27.828 0.834-82.85 0.393-82.85 0.442-0.393 68.17c-0.445 74.21-0.667 72.17 8.442 78.13 2.236 1.465 7.371 2.814 11.386 2.994 4.02 0.18 8.148 0.396 9.227 0.491 0.926-0.014 1.399-0.036 2.307-0.049v39.31c0 10.779 8.58 19.485 19.239 19.485 10.66 0 19.239-8.705 19.239-19.485v-39.754c10.967-0.102 19.655-0.128 27.24-0.147v39.902c0 10.779 8.579 19.485 19.239 19.485 10.659 0 19.239-8.705 19.239-19.485v-39.853c0.47 0.001 1 0 1.472 0l10.552-0.491c10.617 0 18.503-4.847 18.503-9.963v-139.57m-150.77 14.13 67.926 0.393 67.926 0.442 0.442 60.07 0.393 60.07h-136.69v-120.99m63.951 7.215c-1.562 0.052-3.088 0.226-4.466 0.491-0.549 0.106-1.456 3.213-2.01 6.92-0.836 5.572-1.778 7.02-5.546 8.442-3.892 1.469-5.372 1.206-9.963-1.914l-5.35-3.632-5.742 3.877c-6.581 4.472-7.218 8.182-2.454 14.626 3.096 4.188 3.183 4.734 0.834 9.276-1.941 3.754-3.973 5.106-9.178 6.135l-6.724 1.325v15.608l7.264 1.374c6.513 1.259 7.489 1.993 9.03 7.02 1.491 4.857 1.31 6.076-1.374 8.932-4.02 4.28-3.944 8.298 0.295 12.81 4.138 4.405 8.998 4.601 14.04 0.638 3.546-2.788 4.131-2.789 9.669-0.393 3.484 1.508 5.841 3.619 5.84 5.202 0 1.468 0.709 4.507 1.571 6.773 1.399 3.68 2.279 4.113 8.245 3.681 6.365-0.46 6.788-0.845 8.834-7.313 1.606-5.074 3.443-7.405 7.264-9.227 4.848-2.312 5.376-2.249 10.01 1.178 4.287 3.169 5.326 3.392 8.638 1.62 2.078-1.112 4.69-3.734 5.792-5.791 2.034-3.802 1.242-6.847-3.436-13.301-2.876-3.97 1.469-11.304 7.411-12.515 7.495-1.528 8.491-2.742 8.491-10.159 0-6.637-0.225-6.967-5.89-8.54-3.239-0.9-6.596-1.608-7.46-1.62-0.863-0.011-2.44-1.965-3.534-4.319-1.731-3.728-1.579-4.81 1.178-8.54 4.109-5.557 3.979-9.422-0.393-13.399-5.303-4.825-7.677-5.02-13.791-1.178-5.05 3.173-5.965 3.294-9.816 1.276-3.124-1.637-4.27-3.425-4.27-6.773 0-2.502-0.932-5.496-2.11-6.675-1.296-1.296-6.209-2.07-10.896-1.914m1.963 38.33c4.311 0.053 8.842 1.094 10.945 2.798 7.211 5.842 6.472 21.254-1.227 25.374-1.741 0.932-5.737 1.718-8.883 1.718-7.521 0-14.92-6.974-14.92-14.09 0-5.909 3.661-13.428 7.166-14.773 1.858-0.713 4.334-1.063 6.92-1.031" id="path66"/>
</svg>
