<?xml version="1.0" encoding="UTF-8" standalone="no"?>
<svg xmlns="http://www.w3.org/2000/svg" xmlns:sodipodi="http://sodipodi.sourceforge.net/DTD/sodipodi-0.dtd" xmlns:inkscape="http://www.inkscape.org/namespaces/inkscape" height="512" viewBox="0 0 512 512" width="512" version="1.1">
 <metadata id="metadata70"/>
 <text font-family="Gentium Book Basic" x="729.64" y="231.36" line-height="125%" font-size="129.23" id="text20" word-spacing="0" letter-spacing="0"><tspan x="729.64" y="231.36" id="tspan22"/>
 </text>
 <text font-family="Arial" x="378.91" y="579.26" transform="scale(4.0128 .24920)" font-size="46.954" id="text24" text-anchor="middle"/>
 <text font-family="Gentium Book Basic" x="1310.91" y="151.36" line-height="125%" font-size="129.23" id="text26" word-spacing="0" letter-spacing="0"><tspan x="1310.91" y="151.36" id="tspan28"/>
 </text>
 <text font-family="Arial" x="523.76" y="258.22" transform="scale(4.0128 .24920)" font-size="46.954" id="text30" text-anchor="middle"/>
 <text font-family="Gentium Book Basic" x="239.33" y="-29.9" line-height="125%" font-size="129.23" id="text32" word-spacing="0" letter-spacing="0"><tspan x="239.33" y="-29.9" id="tspan34"/>
 </text>
 <text font-family="Arial" x="256.72" y="-469.13" transform="scale(4.0128 .24920)" font-size="46.954" id="text36" text-anchor="middle"/>
 <text font-family="Gentium Book Basic" x="1337.38" y="-246.37" line-height="125%" font-size="129.23" id="text38" word-spacing="0" letter-spacing="0"><tspan x="1337.38" y="-246.37" id="tspan40"/>
 </text>
 <text font-family="Arial" x="530.36" y="-1337.8" transform="scale(4.0128 .24920)" font-size="46.954" id="text42" text-anchor="middle"/>
 <text font-family="Gentium Book Basic" x="1918.65" y="-326.37" line-height="125%" font-size="129.23" id="text44" word-spacing="0" letter-spacing="0"><tspan x="1918.65" y="-326.37" id="tspan46"/>
 </text>
 <text font-family="Arial" x="675.21" y="-1658.83" transform="scale(4.0128 .24920)" font-size="46.954" id="text48" text-anchor="middle"/>
 <text font-family="Gentium Book Basic" x="1529.53" y="-798.77" line-height="125%" font-size="129.23" id="text50" word-spacing="0" letter-spacing="0"><tspan x="1529.53" y="-798.77" id="tspan52"/>
 </text>
 <text font-family="Arial" x="578.24" y="-3554.48" transform="scale(4.0128 .24920)" font-size="46.954" id="text54" text-anchor="middle"/>
 <text font-family="Gentium Book Basic" x="2110.79" y="-878.78" line-height="125%" font-size="129.23" id="text56" word-spacing="0" letter-spacing="0"><tspan x="2110.79" y="-878.78" id="tspan58"/>
 </text>
 <text font-family="Arial" x="723.09" y="-3875.52" transform="scale(4.0128 .24920)" font-size="46.954" id="text60" text-anchor="middle"/>
 <text font-family="Gentium Book Basic" x="277.99" y="535.94" line-height="125%" font-size="208.33" id="text62" word-spacing="0" letter-spacing="0"><tspan x="277.99" y="535.94" id="tspan64"/>
 </text>
 <text font-family="Gentium Book Basic" x="729.64" y="231.36" line-height="125%" font-size="129.23" id="text20-3" word-spacing="0" letter-spacing="0"><tspan x="729.64" y="231.36" id="tspan22-6"/>
 </text>
 <text font-family="Arial" x="378.91" y="579.26" transform="scale(4.0128 .24920)" font-size="46.954" id="text24-5" text-anchor="middle"/>
 <text font-family="Gentium Book Basic" x="1310.91" y="151.36" line-height="125%" font-size="129.23" id="text26-3" word-spacing="0" letter-spacing="0"><tspan x="1310.91" y="151.36" id="tspan28-9"/>
 </text>
 <text font-family="Arial" x="523.76" y="258.22" transform="scale(4.0128 .24920)" font-size="46.954" id="text30-9" text-anchor="middle"/>
 <text font-family="Gentium Book Basic" x="239.33" y="-29.9" line-height="125%" font-size="129.23" id="text32-8" word-spacing="0" letter-spacing="0"><tspan x="239.33" y="-29.9" id="tspan34-1"/>
 </text>
 <text font-family="Arial" x="256.72" y="-469.13" transform="scale(4.0128 .24920)" font-size="46.954" id="text36-3" text-anchor="middle"/>
 <text font-family="Gentium Book Basic" x="1337.38" y="-246.37" line-height="125%" font-size="129.23" id="text38-5" word-spacing="0" letter-spacing="0"><tspan x="1337.38" y="-246.37" id="tspan40-7"/>
 </text>
 <text font-family="Arial" x="530.36" y="-1337.8" transform="scale(4.0128 .24920)" font-size="46.954" id="text42-3" text-anchor="middle"/>
 <text font-family="Gentium Book Basic" x="1918.65" y="-326.37" line-height="125%" font-size="129.23" id="text44-6" word-spacing="0" letter-spacing="0"><tspan x="1918.65" y="-326.37" id="tspan46-4"/>
 </text>
 <text font-family="Arial" x="675.21" y="-1658.83" transform="scale(4.0128 .24920)" font-size="46.954" id="text48-2" text-anchor="middle"/>
 <text font-family="Gentium Book Basic" x="1529.53" y="-798.77" line-height="125%" font-size="129.23" id="text50-4" word-spacing="0" letter-spacing="0"><tspan x="1529.53" y="-798.77" id="tspan52-0"/>
 </text>
 <text font-family="Arial" x="578.24" y="-3554.48" transform="scale(4.0128 .24920)" font-size="46.954" id="text54-6" text-anchor="middle"/>
 <text font-family="Gentium Book Basic" x="2110.79" y="-878.78" line-height="125%" font-size="129.23" id="text56-5" word-spacing="0" letter-spacing="0"><tspan x="2110.79" y="-878.78" id="tspan58-3"/>
 </text>
 <text font-family="Arial" x="723.09" y="-3875.52" transform="scale(4.0128 .24920)" font-size="46.954" id="text60-8" text-anchor="middle"/>
 <text font-family="Gentium Book Basic" x="277.99" y="535.94" line-height="125%" font-size="208.33" id="text62-4" word-spacing="0" letter-spacing="0"><tspan x="277.99" y="535.94" id="tspan64-1"/>
 </text>
 <text font-family="Gentium Book Basic" x="729.64" y="231.36" line-height="125%" font-size="129.23" id="text20-8" word-spacing="0" letter-spacing="0"><tspan x="729.64" y="231.36" id="tspan22-7"/>
 </text>
 <text font-family="Arial" x="378.91" y="579.26" transform="scale(4.0128 .24920)" font-size="46.954" id="text24-2" text-anchor="middle"/>
 <text font-family="Gentium Book Basic" x="1310.91" y="151.36" line-height="125%" font-size="129.23" id="text26-0" word-spacing="0" letter-spacing="0"><tspan x="1310.91" y="151.36" id="tspan28-7"/>
 </text>
 <text font-family="Arial" x="523.76" y="258.22" transform="scale(4.0128 .24920)" font-size="46.954" id="text30-5" text-anchor="middle"/>
 <text font-family="Gentium Book Basic" x="239.33" y="-29.9" line-height="125%" font-size="129.23" id="text32-84" word-spacing="0" letter-spacing="0"><tspan x="239.33" y="-29.9" id="tspan34-9"/>
 </text>
 <text font-family="Arial" x="256.72" y="-469.13" transform="scale(4.0128 .24920)" font-size="46.954" id="text36-0" text-anchor="middle"/>
 <text font-family="Gentium Book Basic" x="1337.38" y="-246.37" line-height="125%" font-size="129.23" id="text38-4" word-spacing="0" letter-spacing="0"><tspan x="1337.38" y="-246.37" id="tspan40-9"/>
 </text>
 <text font-family="Arial" x="530.36" y="-1337.8" transform="scale(4.0128 .24920)" font-size="46.954" id="text42-1" text-anchor="middle"/>
 <text font-family="Gentium Book Basic" x="1918.65" y="-326.37" line-height="125%" font-size="129.23" id="text44-7" word-spacing="0" letter-spacing="0"><tspan x="1918.65" y="-326.37" id="tspan46-40"/>
 </text>
 <text font-family="Arial" x="675.21" y="-1658.83" transform="scale(4.0128 .24920)" font-size="46.954" id="text48-0" text-anchor="middle"/>
 <text font-family="Gentium Book Basic" x="1529.53" y="-798.77" line-height="125%" font-size="129.23" id="text50-3" word-spacing="0" letter-spacing="0"><tspan x="1529.53" y="-798.77" id="tspan52-4"/>
 </text>
 <text font-family="Arial" x="578.24" y="-3554.48" transform="scale(4.0128 .24920)" font-size="46.954" id="text54-4" text-anchor="middle"/>
 <text font-family="Gentium Book Basic" x="2110.79" y="-878.78" line-height="125%" font-size="129.23" id="text56-9" word-spacing="0" letter-spacing="0"><tspan x="2110.79" y="-878.78" id="tspan58-5"/>
 </text>
 <text font-family="Arial" x="723.09" y="-3875.52" transform="scale(4.0128 .24920)" font-size="46.954" id="text60-2" text-anchor="middle"/>
 <text font-family="Gentium Book Basic" x="277.99" y="535.94" line-height="125%" font-size="208.33" id="text62-48" word-spacing="0" letter-spacing="0"><tspan x="277.99" y="535.94" id="tspan64-10"/>
 </text>
 <text font-family="Gentium Book Basic" x="729.64" y="231.36" line-height="125%" font-size="129.23" id="text20-2" word-spacing="0" letter-spacing="0"><tspan x="729.64" y="231.36" id="tspan22-0"/>
 </text>
 <text font-family="Arial" x="378.91" y="579.26" transform="scale(4.0128 .24920)" font-size="46.954" id="text24-1" text-anchor="middle"/>
 <text font-family="Gentium Book Basic" x="1310.91" y="151.36" line-height="125%" font-size="129.23" id="text26-6" word-spacing="0" letter-spacing="0"><tspan x="1310.91" y="151.36" id="tspan28-1"/>
 </text>
 <text font-family="Arial" x="523.76" y="258.22" transform="scale(4.0128 .24920)" font-size="46.954" id="text30-1" text-anchor="middle"/>
 <text font-family="Gentium Book Basic" x="239.33" y="-29.9" line-height="125%" font-size="129.23" id="text32-0" word-spacing="0" letter-spacing="0"><tspan x="239.33" y="-29.9" id="tspan34-0"/>
 </text>
 <text font-family="Arial" x="256.72" y="-469.13" transform="scale(4.0128 .24920)" font-size="46.954" id="text36-4" text-anchor="middle"/>
 <text font-family="Gentium Book Basic" x="1337.38" y="-246.37" line-height="125%" font-size="129.23" id="text38-0" word-spacing="0" letter-spacing="0"><tspan x="1337.38" y="-246.37" id="tspan40-74"/>
 </text>
 <text font-family="Arial" x="530.36" y="-1337.8" transform="scale(4.0128 .24920)" font-size="46.954" id="text42-2" text-anchor="middle"/>
 <text font-family="Gentium Book Basic" x="1918.65" y="-326.37" line-height="125%" font-size="129.23" id="text44-2" word-spacing="0" letter-spacing="0"><tspan x="1918.65" y="-326.37" id="tspan46-8"/>
 </text>
 <text font-family="Arial" x="675.21" y="-1658.83" transform="scale(4.0128 .24920)" font-size="46.954" id="text48-7" text-anchor="middle"/>
 <text font-family="Gentium Book Basic" x="1529.53" y="-798.77" line-height="125%" font-size="129.23" id="text50-33" word-spacing="0" letter-spacing="0"><tspan x="1529.53" y="-798.77" id="tspan52-9"/>
 </text>
 <text font-family="Arial" x="578.24" y="-3554.48" transform="scale(4.0128 .24920)" font-size="46.954" id="text54-7" text-anchor="middle"/>
 <text font-family="Gentium Book Basic" x="2110.79" y="-878.78" line-height="125%" font-size="129.23" id="text56-2" word-spacing="0" letter-spacing="0"><tspan x="2110.79" y="-878.78" id="tspan58-2"/>
 </text>
 <text font-family="Arial" x="723.09" y="-3875.52" transform="scale(4.0128 .24920)" font-size="46.954" id="text60-9" text-anchor="middle"/>
 <text font-family="Gentium Book Basic" x="277.99" y="535.94" line-height="125%" font-size="208.33" id="text62-5" word-spacing="0" letter-spacing="0"><tspan x="277.99" y="535.94" id="tspan64-4"/>
 </text>
 <text font-family="Gentium Book Basic" x="729.64" y="231.36" line-height="125%" font-size="129.23" id="text20-6" word-spacing="0" letter-spacing="0"><tspan x="729.64" y="231.36" id="tspan22-3"/>
 </text>
 <text font-family="Arial" x="378.91" y="579.26" transform="scale(4.0128 .24920)" font-size="46.954" id="text24-9" text-anchor="middle"/>
 <text font-family="Gentium Book Basic" x="1310.91" y="151.36" line-height="125%" font-size="129.23" id="text26-8" word-spacing="0" letter-spacing="0"><tspan x="1310.91" y="151.36" id="tspan28-3"/>
 </text>
 <text font-family="Arial" x="523.76" y="258.22" transform="scale(4.0128 .24920)" font-size="46.954" id="text30-2" text-anchor="middle"/>
 <text font-family="Gentium Book Basic" x="239.33" y="-29.9" line-height="125%" font-size="129.23" id="text32-7" word-spacing="0" letter-spacing="0"><tspan x="239.33" y="-29.9" id="tspan34-5"/>
 </text>
 <text font-family="Arial" x="256.72" y="-469.13" transform="scale(4.0128 .24920)" font-size="46.954" id="text36-39" text-anchor="middle"/>
 <text font-family="Gentium Book Basic" x="1337.38" y="-246.37" line-height="125%" font-size="129.23" id="text38-7" word-spacing="0" letter-spacing="0"><tspan x="1337.38" y="-246.37" id="tspan40-99"/>
 </text>
 <text font-family="Arial" x="530.36" y="-1337.8" transform="scale(4.0128 .24920)" font-size="46.954" id="text42-4" text-anchor="middle"/>
 <text font-family="Gentium Book Basic" x="1918.65" y="-326.37" line-height="125%" font-size="129.23" id="text44-3" word-spacing="0" letter-spacing="0"><tspan x="1918.65" y="-326.37" id="tspan46-46"/>
 </text>
 <text font-family="Arial" x="675.21" y="-1658.83" transform="scale(4.0128 .24920)" font-size="46.954" id="text48-21" text-anchor="middle"/>
 <text font-family="Gentium Book Basic" x="1529.53" y="-798.77" line-height="125%" font-size="129.23" id="text50-1" word-spacing="0" letter-spacing="0"><tspan x="1529.53" y="-798.77" id="tspan52-7"/>
 </text>
 <text font-family="Arial" x="578.24" y="-3554.48" transform="scale(4.0128 .24920)" font-size="46.954" id="text54-2" text-anchor="middle"/>
 <text font-family="Gentium Book Basic" x="2110.79" y="-878.78" line-height="125%" font-size="129.23" id="text56-8" word-spacing="0" letter-spacing="0"><tspan x="2110.79" y="-878.78" id="tspan58-9"/>
 </text>
 <text font-family="Arial" x="723.09" y="-3875.52" transform="scale(4.0128 .24920)" font-size="46.954" id="text60-7" text-anchor="middle"/>
 <text font-family="Gentium Book Basic" x="277.99" y="535.94" line-height="125%" font-size="208.33" id="text62-9" word-spacing="0" letter-spacing="0"><tspan x="277.99" y="535.94" id="tspan64-7"/>
 </text>
 <text font-family="Gentium Book Basic" x="729.64" y="231.36" line-height="125%" font-size="129.23" id="text20-32" word-spacing="0" letter-spacing="0"><tspan x="729.64" y="231.36" id="tspan22-1"/>
 </text>
 <text font-family="Arial" x="378.91" y="579.26" transform="scale(4.0128 .24920)" font-size="46.954" id="text24-8" text-anchor="middle"/>
 <text font-family="Gentium Book Basic" x="1310.91" y="151.36" line-height="125%" font-size="129.23" id="text26-81" word-spacing="0" letter-spacing="0"><tspan x="1310.91" y="151.36" id="tspan28-6"/>
 </text>
 <text font-family="Arial" x="523.76" y="258.22" transform="scale(4.0128 .24920)" font-size="46.954" id="text30-7" text-anchor="middle"/>
 <text font-family="Gentium Book Basic" x="239.33" y="-29.9" line-height="125%" font-size="129.23" id="text32-2" word-spacing="0" letter-spacing="0"><tspan x="239.33" y="-29.9" id="tspan34-2"/>
 </text>
 <text font-family="Arial" x="256.72" y="-469.13" transform="scale(4.0128 .24920)" font-size="46.954" id="text36-36" text-anchor="middle"/>
 <text font-family="Gentium Book Basic" x="1337.38" y="-246.37" line-height="125%" font-size="129.23" id="text38-9" word-spacing="0" letter-spacing="0"><tspan x="1337.38" y="-246.37" id="tspan40-5"/>
 </text>
 <text font-family="Arial" x="530.36" y="-1337.8" transform="scale(4.0128 .24920)" font-size="46.954" id="text42-9" text-anchor="middle"/>
 <text font-family="Gentium Book Basic" x="1918.65" y="-326.37" line-height="125%" font-size="129.23" id="text44-0" word-spacing="0" letter-spacing="0"><tspan x="1918.65" y="-326.37" id="tspan46-2"/>
 </text>
 <text font-family="Arial" x="675.21" y="-1658.83" transform="scale(4.0128 .24920)" font-size="46.954" id="text48-214" text-anchor="middle"/>
 <text font-family="Gentium Book Basic" x="1529.53" y="-798.77" line-height="125%" font-size="129.23" id="text50-12" word-spacing="0" letter-spacing="0"><tspan x="1529.53" y="-798.77" id="tspan52-1"/>
 </text>
 <text font-family="Arial" x="578.24" y="-3554.48" transform="scale(4.0128 .24920)" font-size="46.954" id="text54-28" text-anchor="middle"/>
 <text font-family="Gentium Book Basic" x="2110.79" y="-878.78" line-height="125%" font-size="129.23" id="text56-85" word-spacing="0" letter-spacing="0"><tspan x="2110.79" y="-878.78" id="tspan58-0"/>
 </text>
 <text font-family="Arial" x="723.09" y="-3875.52" transform="scale(4.0128 .24920)" font-size="46.954" id="text60-85" text-anchor="middle"/>
 <text font-family="Gentium Book Basic" x="277.99" y="535.94" line-height="125%" font-size="208.33" id="text62-41" word-spacing="0" letter-spacing="0"><tspan x="277.99" y="535.94" id="tspan64-9"/>
 </text>
 <text font-family="Gentium Book Basic" x="729.64" y="231.36" line-height="125%" font-size="129.23" id="text20-7" word-spacing="0" letter-spacing="0"><tspan x="729.64" y="231.36" id="tspan22-8"/>
 </text>
 <text font-family="Arial" x="378.91" y="579.26" transform="scale(4.0128 .24920)" font-size="46.954" id="text24-91" text-anchor="middle"/>
 <text font-family="Gentium Book Basic" x="1310.91" y="151.36" line-height="125%" font-size="129.23" id="text26-02" word-spacing="0" letter-spacing="0"><tspan x="1310.91" y="151.36" id="tspan28-8"/>
 </text>
 <text font-family="Arial" x="523.76" y="258.22" transform="scale(4.0128 .24920)" font-size="46.954" id="text30-97" text-anchor="middle"/>
 <text font-family="Gentium Book Basic" x="239.33" y="-29.9" line-height="125%" font-size="129.23" id="text32-9" word-spacing="0" letter-spacing="0"><tspan x="239.33" y="-29.9" id="tspan34-21"/>
 </text>
 <text font-family="Arial" x="256.72" y="-469.13" transform="scale(4.0128 .24920)" font-size="46.954" id="text36-35" text-anchor="middle"/>
 <text font-family="Gentium Book Basic" x="1337.38" y="-246.37" line-height="125%" font-size="129.23" id="text38-54" word-spacing="0" letter-spacing="0"><tspan x="1337.38" y="-246.37" id="tspan40-98"/>
 </text>
 <text font-family="Arial" x="530.36" y="-1337.8" transform="scale(4.0128 .24920)" font-size="46.954" id="text42-97" text-anchor="middle"/>
 <text font-family="Gentium Book Basic" x="1918.65" y="-326.37" line-height="125%" font-size="129.23" id="text44-8" word-spacing="0" letter-spacing="0"><tspan x="1918.65" y="-326.37" id="tspan46-47"/>
 </text>
 <text font-family="Arial" x="675.21" y="-1658.83" transform="scale(4.0128 .24920)" font-size="46.954" id="text48-6" text-anchor="middle"/>
 <text font-family="Gentium Book Basic" x="1529.53" y="-798.77" line-height="125%" font-size="129.23" id="text50-14" word-spacing="0" letter-spacing="0"><tspan x="1529.53" y="-798.77" id="tspan52-8"/>
 </text>
 <text font-family="Arial" x="578.24" y="-3554.48" transform="scale(4.0128 .24920)" font-size="46.954" id="text54-0" text-anchor="middle"/>
 <text font-family="Gentium Book Basic" x="2110.79" y="-878.78" line-height="125%" font-size="129.23" id="text56-20" word-spacing="0" letter-spacing="0"><tspan x="2110.79" y="-878.78" id="tspan58-01"/>
 </text>
 <text font-family="Arial" x="723.09" y="-3875.52" transform="scale(4.0128 .24920)" font-size="46.954" id="text60-89" text-anchor="middle"/>
 <text font-family="Gentium Book Basic" x="277.99" y="535.94" line-height="125%" font-size="208.33" id="text62-2" word-spacing="0" letter-spacing="0"><tspan x="277.99" y="535.94" id="tspan64-8"/>
 </text>
 <text font-family="Gentium Book Basic" x="729.64" y="231.36" line-height="125%" font-size="129.23" id="text23" word-spacing="0" letter-spacing="0"><tspan x="729.64" y="231.36" id="tspan25"/>
 </text>
 <text font-family="Arial" x="378.91" y="579.25" transform="scale(4.0128 .24920)" font-size="46.954" id="text27" text-anchor="middle"/>
 <text font-family="Gentium Book Basic" x="1310.91" y="151.36" line-height="125%" font-size="129.23" id="text29" word-spacing="0" letter-spacing="0"><tspan x="1310.91" y="151.36" id="tspan31"/>
 </text>
 <text font-family="Arial" x="523.76" y="258.22" transform="scale(4.0128 .24920)" font-size="46.954" id="text33" text-anchor="middle"/>
 <text font-family="Gentium Book Basic" x="239.33" y="-29.901" line-height="125%" font-size="129.23" id="text35" word-spacing="0" letter-spacing="0"><tspan x="239.33" y="-29.901" id="tspan37"/>
 </text>
 <text font-family="Arial" x="256.72" y="-469.14" transform="scale(4.0128 .24920)" font-size="46.954" id="text39" text-anchor="middle"/>
 <text font-family="Gentium Book Basic" x="1337.38" y="-246.37" line-height="125%" font-size="129.23" id="text41" word-spacing="0" letter-spacing="0"><tspan x="1337.38" y="-246.37" id="tspan43"/>
 </text>
 <text font-family="Arial" x="530.36" y="-1337.8" transform="scale(4.0128 .24920)" font-size="46.954" id="text45" text-anchor="middle"/>
 <text font-family="Gentium Book Basic" x="1918.65" y="-326.38" line-height="125%" font-size="129.23" id="text47" word-spacing="0" letter-spacing="0"><tspan x="1918.65" y="-326.38" id="tspan49"/>
 </text>
 <text font-family="Arial" x="675.21" y="-1658.84" transform="scale(4.0128 .24920)" font-size="46.954" id="text51" text-anchor="middle"/>
 <text font-family="Gentium Book Basic" x="1529.53" y="-798.78" line-height="125%" font-size="129.23" id="text53" word-spacing="0" letter-spacing="0"><tspan x="1529.53" y="-798.78" id="tspan55"/>
 </text>
 <text font-family="Arial" x="578.24" y="-3554.49" transform="scale(4.0128 .24920)" font-size="46.954" id="text57" text-anchor="middle"/>
 <text font-family="Gentium Book Basic" x="2110.79" y="-878.78" line-height="125%" font-size="129.23" id="text59" word-spacing="0" letter-spacing="0"><tspan x="2110.79" y="-878.78" id="tspan61"/>
 </text>
 <text font-family="Arial" x="723.09" y="-3875.52" transform="scale(4.0128 .24920)" font-size="46.954" id="text63" text-anchor="middle"/>
 <text font-family="Gentium Book Basic" x="277.99" y="535.94" line-height="125%" font-size="208.33" id="text65" word-spacing="0" letter-spacing="0"><tspan x="277.99" y="535.94" id="tspan67"/>
 </text>
 <text font-family="Gentium Book Basic" x="729.64" y="231.36" line-height="125%" font-size="129.23" id="text20-4" word-spacing="0" letter-spacing="0"><tspan x="729.64" y="231.36" id="tspan22-17"/>
 </text>
 <text font-family="Arial" x="378.91" y="579.26" transform="scale(4.0128 .24920)" font-size="46.954" id="text24-99" text-anchor="middle"/>
 <text font-family="Gentium Book Basic" x="1310.91" y="151.36" line-height="125%" font-size="129.23" id="text26-2" word-spacing="0" letter-spacing="0"><tspan x="1310.91" y="151.36" id="tspan28-87"/>
 </text>
 <text font-family="Arial" x="523.76" y="258.22" transform="scale(4.0128 .24920)" font-size="46.954" id="text30-18" text-anchor="middle"/>
 <text font-family="Gentium Book Basic" x="239.33" y="-29.9" line-height="125%" font-size="129.23" id="text32-6" word-spacing="0" letter-spacing="0"><tspan x="239.33" y="-29.9" id="tspan34-7"/>
 </text>
 <text font-family="Arial" x="256.72" y="-469.13" transform="scale(4.0128 .24920)" font-size="46.954" id="text36-7" text-anchor="middle"/>
 <text font-family="Gentium Book Basic" x="1337.38" y="-246.37" line-height="125%" font-size="129.23" id="text38-48" word-spacing="0" letter-spacing="0"><tspan x="1337.38" y="-246.37" id="tspan40-1"/>
 </text>
 <text font-family="Arial" x="530.36" y="-1337.8" transform="scale(4.0128 .24920)" font-size="46.954" id="text42-28" text-anchor="middle"/>
 <text font-family="Gentium Book Basic" x="1918.65" y="-326.37" line-height="125%" font-size="129.23" id="text44-34" word-spacing="0" letter-spacing="0"><tspan x="1918.65" y="-326.37" id="tspan46-0"/>
 </text>
 <text font-family="Arial" x="675.21" y="-1658.83" transform="scale(4.0128 .24920)" font-size="46.954" id="text48-62" text-anchor="middle"/>
 <text font-family="Gentium Book Basic" x="1529.53" y="-798.77" line-height="125%" font-size="129.23" id="text50-19" word-spacing="0" letter-spacing="0"><tspan x="1529.53" y="-798.77" id="tspan52-14"/>
 </text>
 <text font-family="Arial" x="578.24" y="-3554.48" transform="scale(4.0128 .24920)" font-size="46.954" id="text54-1" text-anchor="middle"/>
 <text font-family="Gentium Book Basic" x="2110.79" y="-878.78" line-height="125%" font-size="129.23" id="text56-1" word-spacing="0" letter-spacing="0"><tspan x="2110.79" y="-878.78" id="tspan58-4"/>
 </text>
 <text font-family="Arial" x="723.09" y="-3875.52" transform="scale(4.0128 .24920)" font-size="46.954" id="text60-5" text-anchor="middle"/>
 <text font-family="Gentium Book Basic" x="277.99" y="535.94" line-height="125%" font-size="208.33" id="text62-56" word-spacing="0" letter-spacing="0"><tspan x="277.99" y="535.94" id="tspan64-3"/>
 </text>
 <text font-family="Gentium Book Basic" x="729.64" y="231.36" line-height="125%" font-size="129.23" id="text20-5" word-spacing="0" letter-spacing="0"><tspan x="729.64" y="231.36" id="tspan22-4"/>
 </text>
 <text font-family="Arial" x="378.91" y="579.26" transform="scale(4.0128 .24920)" font-size="46.954" id="text24-7" text-anchor="middle"/>
 <text font-family="Gentium Book Basic" x="1310.91" y="151.36" line-height="125%" font-size="129.23" id="text26-5" word-spacing="0" letter-spacing="0"><tspan x="1310.91" y="151.36" id="tspan28-5"/>
 </text>
 <text font-family="Arial" x="523.76" y="258.22" transform="scale(4.0128 .24920)" font-size="46.954" id="text30-13" text-anchor="middle"/>
 <text font-family="Gentium Book Basic" x="239.33" y="-29.9" line-height="125%" font-size="129.23" id="text32-1" word-spacing="0" letter-spacing="0"><tspan x="239.33" y="-29.9" id="tspan34-6"/>
 </text>
 <text font-family="Arial" x="256.72" y="-469.13" transform="scale(4.0128 .24920)" font-size="46.954" id="text36-6" text-anchor="middle"/>
 <text font-family="Gentium Book Basic" x="1337.38" y="-246.37" line-height="125%" font-size="129.23" id="text38-78" word-spacing="0" letter-spacing="0"><tspan x="1337.38" y="-246.37" id="tspan40-78"/>
 </text>
 <text font-family="Arial" x="530.36" y="-1337.8" transform="scale(4.0128 .24920)" font-size="46.954" id="text42-12" text-anchor="middle"/>
 <text font-family="Gentium Book Basic" x="1918.65" y="-326.37" line-height="125%" font-size="129.23" id="text44-24" word-spacing="0" letter-spacing="0"><tspan x="1918.65" y="-326.37" id="tspan46-6"/>
 </text>
 <text font-family="Arial" x="675.21" y="-1658.83" transform="scale(4.0128 .24920)" font-size="46.954" id="text48-9" text-anchor="middle"/>
 <text font-family="Gentium Book Basic" x="1529.53" y="-798.77" line-height="125%" font-size="129.23" id="text50-142" word-spacing="0" letter-spacing="0"><tspan x="1529.53" y="-798.77" id="tspan52-71"/>
 </text>
 <text font-family="Arial" x="578.24" y="-3554.48" transform="scale(4.0128 .24920)" font-size="46.954" id="text54-16" text-anchor="middle"/>
 <text font-family="Gentium Book Basic" x="2110.79" y="-878.78" line-height="125%" font-size="129.23" id="text56-89" word-spacing="0" letter-spacing="0"><tspan x="2110.79" y="-878.78" id="tspan58-20"/>
 </text>
 <text font-family="Arial" x="723.09" y="-3875.52" transform="scale(4.0128 .24920)" font-size="46.954" id="text60-6" text-anchor="middle"/>
 <text font-family="Gentium Book Basic" x="277.99" y="535.94" line-height="125%" font-size="208.33" id="text62-8" word-spacing="0" letter-spacing="0"><tspan x="277.99" y="535.94" id="tspan64-91"/>
 </text>
 <text font-family="Gentium Book Basic" x="729.64" y="231.36" font-size="129.23" word-spacing="0" line-height="125%" letter-spacing="0" id="text3003"><tspan x="729.64" y="231.36" id="tspan3005"/>
 </text>
 <text font-family="Arial" x="378.91" y="579.26" transform="scale(4.0128 .24920)" font-size="46.954" id="text3007" text-anchor="middle"/>
 <text font-family="Gentium Book Basic" x="1310.91" y="151.36" font-size="129.23" word-spacing="0" line-height="125%" letter-spacing="0" id="text3009"><tspan x="1310.91" y="151.36" id="tspan3011"/>
 </text>
 <text font-family="Arial" x="523.76" y="258.22" transform="scale(4.0128 .24920)" font-size="46.954" id="text3013" text-anchor="middle"/>
 <text font-family="Gentium Book Basic" x="239.33" y="-29.9" font-size="129.23" word-spacing="0" line-height="125%" letter-spacing="0" id="text3015"><tspan x="239.33" y="-29.9" id="tspan3017"/>
 </text>
 <text font-family="Arial" x="256.72" y="-469.13" transform="scale(4.0128 .24920)" font-size="46.954" id="text3019" text-anchor="middle"/>
 <text font-family="Gentium Book Basic" x="1337.38" y="-246.37" font-size="129.23" word-spacing="0" line-height="125%" letter-spacing="0" id="text3021"><tspan x="1337.38" y="-246.37" id="tspan3023"/>
 </text>
 <text font-family="Arial" x="530.36" y="-1337.8" transform="scale(4.0128 .24920)" font-size="46.954" id="text3025" text-anchor="middle"/>
 <text font-family="Gentium Book Basic" x="1918.65" y="-326.37" font-size="129.23" word-spacing="0" line-height="125%" letter-spacing="0" id="text3027"><tspan x="1918.65" y="-326.37" id="tspan3029"/>
 </text>
 <text font-family="Arial" x="675.21" y="-1658.83" transform="scale(4.0128 .24920)" font-size="46.954" id="text3031" text-anchor="middle"/>
 <text font-family="Gentium Book Basic" x="1529.53" y="-798.77" font-size="129.23" word-spacing="0" line-height="125%" letter-spacing="0" id="text3033"><tspan x="1529.53" y="-798.77" id="tspan3035"/>
 </text>
 <text font-family="Arial" x="578.24" y="-3554.48" transform="scale(4.0128 .24920)" font-size="46.954" id="text3037" text-anchor="middle"/>
 <text font-family="Gentium Book Basic" x="2110.79" y="-878.78" font-size="129.23" word-spacing="0" line-height="125%" letter-spacing="0" id="text3039"><tspan x="2110.79" y="-878.78" id="tspan3041"/>
 </text>
 <text font-family="Arial" x="723.09" y="-3875.52" transform="scale(4.0128 .24920)" font-size="46.954" id="text3043" text-anchor="middle"/>
 <text font-family="Gentium Book Basic" x="277.99" y="535.94" font-size="208.33" word-spacing="0" line-height="125%" letter-spacing="0" id="text3045"><tspan x="277.99" y="535.94" id="tspan3047"/>
 </text>
 <text font-family="Gentium Book Basic" x="729.64" y="231.36" line-height="125%" font-size="129.23" id="text88" word-spacing="0" letter-spacing="0"><tspan x="729.64" y="231.36" id="tspan90"/>
 </text>
 <text font-family="Arial" x="378.91" y="579.25" transform="scale(4.0128 .24920)" font-size="46.954" id="text92" text-anchor="middle"/>
 <text font-family="Gentium Book Basic" x="1310.91" y="151.36" line-height="125%" font-size="129.23" id="text94" word-spacing="0" letter-spacing="0"><tspan x="1310.91" y="151.36" id="tspan96"/>
 </text>
 <text font-family="Arial" x="523.76" y="258.22" transform="scale(4.0128 .24920)" font-size="46.954" id="text98" text-anchor="middle"/>
 <text font-family="Gentium Book Basic" x="239.33" y="-29.901" line-height="125%" font-size="129.23" id="text100" word-spacing="0" letter-spacing="0"><tspan x="239.33" y="-29.901" id="tspan102"/>
 </text>
 <text font-family="Arial" x="256.72" y="-469.14" transform="scale(4.0128 .24920)" font-size="46.954" id="text104" text-anchor="middle"/>
 <text font-family="Gentium Book Basic" x="1337.38" y="-246.37" line-height="125%" font-size="129.23" id="text106" word-spacing="0" letter-spacing="0"><tspan x="1337.38" y="-246.37" id="tspan108"/>
 </text>
 <text font-family="Arial" x="530.36" y="-1337.8" transform="scale(4.0128 .24920)" font-size="46.954" id="text110" text-anchor="middle"/>
 <text font-family="Gentium Book Basic" x="1918.65" y="-326.38" line-height="125%" font-size="129.23" id="text112" word-spacing="0" letter-spacing="0"><tspan x="1918.65" y="-326.38" id="tspan114"/>
 </text>
 <text font-family="Arial" x="675.21" y="-1658.84" transform="scale(4.0128 .24920)" font-size="46.954" id="text116" text-anchor="middle"/>
 <text font-family="Gentium Book Basic" x="1529.53" y="-798.78" line-height="125%" font-size="129.23" id="text118" word-spacing="0" letter-spacing="0"><tspan x="1529.53" y="-798.78" id="tspan120"/>
 </text>
 <text font-family="Arial" x="578.24" y="-3554.49" transform="scale(4.0128 .24920)" font-size="46.954" id="text122" text-anchor="middle"/>
 <text font-family="Gentium Book Basic" x="2110.79" y="-878.78" line-height="125%" font-size="129.23" id="text124" word-spacing="0" letter-spacing="0"><tspan x="2110.79" y="-878.78" id="tspan126"/>
 </text>
 <text font-family="Arial" x="723.09" y="-3875.52" transform="scale(4.0128 .24920)" font-size="46.954" id="text128" text-anchor="middle"/>
 <text font-family="Gentium Book Basic" x="277.99" y="535.94" line-height="125%" font-size="208.33" id="text130" word-spacing="0" letter-spacing="0"><tspan x="277.99" y="535.94" id="tspan132"/>
 </text>
 <path d="m471.95 253.05c0 120.9-98.006 218.91-218.91 218.91s-218.91-98.006-218.91-218.91 98.006-218.91 218.91-218.91 218.91 98.006 218.91 218.91" fill="#656565" fill-rule="evenodd" id="path8"/>
 <path d="m343.53 139.38c-7.84 36.17-16.09 72.22-23.94 108.4-6.74-6.72-0.03 0.07-14.06-14.22-13.22 0.95-37.51-0.58-44.75-1.47-18.96-17.16 0.34 0.14-57.22-52.18-7.96 6.35-15.03 6.1-21.84 9.87l-74.75 182.97c91.31 81.7 95.55 86.23 106.47 95.63 12.84 2.34 26.07 3.59 39.59 3.59 120.9 0 218.91-98.01 218.91-218.91 0-7.29-0.37-14.51-1.06-21.62-30.17-27.62 0.23 0.87-98.54-90.82-8.47-0.4-20.34-0.84-28.81-1.24z" opacity="0.25" id="path29194"/>
 <path d="m256 1c-140.83 0-255 114.17-255 255s114.17 255 255 255 255-114.17 255-255-114.17-255-255-255m8.827 44.931c120.9 0 218.9 98 218.9 218.9s-98 218.9-218.9 218.9-218.93-98-218.93-218.9 98.03-218.9 218.93-218.9" fill-opacity="0.067" fill-rule="evenodd" id="path10-5"/>
 <path d="m256 4.43c-138.94 0-251.57 112.63-251.57 251.57s112.63 251.57 251.57 251.57 251.57-112.63 251.57-251.57-112.63-251.57-251.57-251.57m5.885 38.556c120.9 0 218.9 98 218.9 218.9s-98 218.9-218.9 218.9-218.93-98-218.93-218.9 98.03-218.9 218.93-218.9" fill-opacity="0.129" fill-rule="evenodd" id="path14"/>
 <path d="m256 8.36c-136.77 0-247.64 110.87-247.64 247.64s110.87 247.64 247.64 247.64 247.64-110.87 247.64-247.64-110.87-247.64-247.64-247.64m2.942 31.691c120.9 0 218.9 98 218.9 218.9s-98 218.9-218.9 218.9-218.93-98-218.93-218.9 98.03-218.9 218.93-218.9" fill-opacity="0.129" fill-rule="evenodd" id="path16"/>
 <path fill="#ffffff" stroke-width="4.904" stroke="#000000" fill-rule="evenodd" stroke-opacity="0.31" d="m253.04 7.86c-135.42 0-245.19 109.78-245.19 245.19 0 135.42 109.78 245.19 245.19 245.19 135.42 0 245.19-109.78 245.19-245.19 0-135.42-109.78-245.19-245.19-245.19zm0 26.297c120.9 0 218.9 98 218.9 218.9s-98 218.9-218.9 218.9-218.93-98-218.93-218.9 98.03-218.9 218.93-218.9z" id="path18"/>
 <text font-family="Gentium Book Basic" x="729.64" y="231.36" line-height="125%" font-size="129.23" id="text20-87" word-spacing="0" letter-spacing="0"><tspan x="729.64" y="231.36" id="tspan22-9"/>
 </text>
 <text font-family="Arial" x="378.91" y="579.26" transform="scale(4.0128 .24920)" font-size="46.954" id="text24-3" text-anchor="middle"/>
 <text font-family="Gentium Book Basic" x="1310.91" y="151.36" line-height="125%" font-size="129.23" id="text26-63" word-spacing="0" letter-spacing="0"><tspan x="1310.91" y="151.36" id="tspan28-4"/>
 </text>
 <text font-family="Arial" x="523.76" y="258.22" transform="scale(4.0128 .24920)" font-size="46.954" id="text30-21" text-anchor="middle"/>
 <text font-family="Gentium Book Basic" x="239.33" y="-29.9" line-height="125%" font-size="129.23" id="text32-4" word-spacing="0" letter-spacing="0"><tspan x="239.33" y="-29.9" id="tspan34-73"/>
 </text>
 <text font-family="Arial" x="256.72" y="-469.13" transform="scale(4.0128 .24920)" font-size="46.954" id="text36-2" text-anchor="middle"/>
 <text font-family="Gentium Book Basic" x="1337.38" y="-246.37" line-height="125%" font-size="129.23" id="text38-73" word-spacing="0" letter-spacing="0"><tspan x="1337.38" y="-246.37" id="tspan40-6"/>
 </text>
 <text font-family="Arial" x="530.36" y="-1337.8" transform="scale(4.0128 .24920)" font-size="46.954" id="text42-34" text-anchor="middle"/>
 <text font-family="Gentium Book Basic" x="1918.65" y="-326.37" line-height="125%" font-size="129.23" id="text44-5" word-spacing="0" letter-spacing="0"><tspan x="1918.65" y="-326.37" id="tspan46-03"/>
 </text>
 <text font-family="Arial" x="675.21" y="-1658.83" transform="scale(4.0128 .24920)" font-size="46.954" id="text48-09" text-anchor="middle"/>
 <text font-family="Gentium Book Basic" x="1529.53" y="-798.77" line-height="125%" font-size="129.23" id="text50-2" word-spacing="0" letter-spacing="0"><tspan x="1529.53" y="-798.77" id="tspan52-2"/>
 </text>
 <text font-family="Arial" x="578.24" y="-3554.48" transform="scale(4.0128 .24920)" font-size="46.954" id="text54-63" text-anchor="middle"/>
 <text font-family="Gentium Book Basic" x="2110.79" y="-878.78" line-height="125%" font-size="129.23" id="text56-95" word-spacing="0" letter-spacing="0"><tspan x="2110.79" y="-878.78" id="tspan58-94"/>
 </text>
 <text font-family="Arial" x="723.09" y="-3875.52" transform="scale(4.0128 .24920)" font-size="46.954" id="text60-3" text-anchor="middle"/>
 <text font-family="Gentium Book Basic" x="277.99" y="535.94" line-height="125%" font-size="208.33" id="text62-6" word-spacing="0" letter-spacing="0"><tspan x="277.99" y="535.94" id="tspan64-5"/>
 </text>
 <path d="m343.12 139.25-41.25 190.44-1.6875 8.0312 7.9375-1.0625 17.688-2.8125 3.7812-0.28125 1.0938-3.875 6.1562-27.625 6.9688 24.531 1.4062 4.875 4.75-0.6875l18.41-2.79 6.5625-0.6875-17.312-56.469 47.406-51.281-16.188 2.7812-16.312 2.7812h-1.6875l-1.375 1.4062-20.09 21.85 22.87-107.72-29.13-1.41zm-139.56 40.56-19.03 3.1-77.56 189.84 10.03-2.06l16.281-2.7812 3.0938-0.6875 1.0625-2.7812 12.438-31.844 24.25-3.4688v24.938l-0.34375 6.5625 6.5625-1.0312 19.062-3.125 4.8438-0.6875-0.34375-4.8438-0.34375-171.09v-0.0312zm77.281 48.938c-1.182 0.0258-2.4597 0.10053-3.8438 0.1875-19.401 0.69573-37.065 12.457-40.156 26.312-2.4251 11.082 0.68686 18.692 12.812 32.219 12.811 13.487 15.917 19.383 14.188 27.344-1.0337 5.1782-9.7116 11.765-19.75 13.156-5.1981 0.67586-8.6604 0.67586-11.781 0l-3.4375-1.0312-2.0938 2.7812-8.3125 10.031-5.875 6.9375 9 2.0625c5.546 1.3815 13.829 1.3856 22.844-0.34375 20.077-3.1109 44.002-17.657 48.156-35.656 3.8166-16.638-3.1367-27.022-17.688-41.562-11.42-11.43-10.727-14.204-10.031-16.281 0.34728-2.4012 4.847-5.861 11.062-6.2188h0.0312c5.5223 0.001 8.2923 0.337 10.375 1.0312l3.0938 0.6875 2.4375-2.4375 7.63-7.97 6.2188-6.5625-9-2.4375c-3.9396-1.2088-7.6008-2.4309-15.875-2.25zm-103.59 18.97l-3.8125 56.094-15.938 2.0938 19.75-58.188z" fill="#ffffff" id="use3094"/>
</svg>
