<?xml version="1.0" encoding="UTF-8" standalone="no"?>
<svg xmlns="http://www.w3.org/2000/svg" xmlns:sodipodi="http://sodipodi.sourceforge.net/DTD/sodipodi-0.dtd" xmlns:inkscape="http://www.inkscape.org/namespaces/inkscape" height="512" viewBox="0 0 512 512" width="512" version="1.1">
 <metadata id="metadata28"/>
 <g transform="translate(0,-540.36)" id="g4">
  <path d="m280 423.79c0 78.898-63.959 142.86-142.86 142.86-78.898 0-142.86-63.959-142.86-142.86 0-78.898 63.959-142.86 142.86-142.86 78.898 0 142.86 63.959 142.86 142.86" transform="matrix(1.5323 0 0 1.5323 42.896 144.03)" fill="#a7a7a7" fill-rule="evenodd" id="path6"/>
  <path transform="translate(0,540.36)" fill-opacity="0.235" d="m254.44 102.91c-11.28 0-22.881 1.596-34.28 4.656-72.96 19.509-116.11 94.05-96.56 166.84l0.688-0.188c0.103 0.397 0.206 0.79 0.313 1.188l0.688-0.188c0.102 0.394 0.207 0.794 0.313 1.188l0.688-0.188c0.102 0.394 0.207 0.794 0.313 1.188 0 0 0.646-0.177 0.688-0.188 0.1 0.386 0.178 0.771 0.281 1.156 0 0 0.646-0.177 0.688-0.188 0.103 0.397 0.206 0.79 0.313 1.188 0 0 0.646-0.177 0.688-0.188 0.103 0.397 0.206 0.79 0.313 1.188 0 0 0.646-0.177 0.688-0.188 0.103 0.397 0.206 0.79 0.313 1.188l0.688-0.188c0.102 0.394 0.207 0.794 0.313 1.188 0 0 0.646-0.177 0.688-0.188 0.102 0.394 0.207 0.794 0.313 1.188 0 0 0.646-0.177 0.688-0.188 0.1 0.386 0.178 0.771 0.281 1.156 0 0 0.646-0.177 0.688-0.188 0.103 0.397 0.206 0.79 0.313 1.188 0 0 0.646-0.177 0.688-0.188 0.103 0.397 0.206 0.79 0.313 1.188 0 0 0.646-0.177 0.688-0.188 0.103 0.397 0.206 0.79 0.313 1.188 0 0 0.646-0.177 0.688-0.188 0.103 0.397 0.206 0.79 0.313 1.188 0 0 0.646-0.177 0.688-0.188 0.094 0.362 0.184 0.732 0.281 1.094l-11.781 3.281c-15.247 4.078-23.835 19.508-19.75 34.719l14.563 54.906c1.404 5.23 4.161 9.724 7.781 13.219 0.46 0.487 0.946 0.954 1.438 1.406 0.154 0.156 0.311 0.317 0.469 0.469 0.46 0.488 0.977 0.923 1.469 1.375 0.153 0.154 0.282 0.318 0.438 0.469 0.006 0.005 0.025-0.005 0.031 0 0.409 0.434 0.816 0.844 1.25 1.25 0.361 0.371 0.745 0.745 1.125 1.094 0.463 0.469 0.943 0.911 1.438 1.344 0.005 0.005-0.005 0.026 0 0.031s0.026-0.005 0.031 0c0.1 0.096 0.18 0.218 0.281 0.313 0.305 0.314 0.619 0.608 0.938 0.906 0.515 0.532 1.039 1.045 1.594 1.531 0.316 0.306 0.639 0.648 0.969 0.938 0.315 0.304 0.609 0.618 0.938 0.906 0.015 0.016 0.016 0.046 0.031 0.063 0.011 0.01 0.021 0.021 0.031 0.031 0.585 0.622 1.205 1.19 1.844 1.75 0.12 0.117 0.221 0.261 0.344 0.375 0.36 0.372 0.744 0.713 1.125 1.063 0.454 0.462 0.89 0.919 1.375 1.344 0.324 0.316 0.629 0.64 0.969 0.938 0.313 0.304 0.61 0.619 0.938 0.906 0.132 0.128 0.241 0.281 0.375 0.406 0.306 0.317 0.617 0.607 0.938 0.906 0.341 0.354 0.703 0.699 1.063 1.031 0.463 0.476 0.94 0.939 1.438 1.375 0.178 0.174 0.348 0.363 0.531 0.531 0.444 0.453 0.9 0.896 1.375 1.313 0.312 0.304 0.611 0.62 0.938 0.906 0.32 0.313 0.633 0.643 0.969 0.938 0.139 0.136 0.264 0.273 0.406 0.406 0.482 0.502 0.979 0.981 1.5 1.438 0.01 0.011 0.021 0.02 0.031 0.031 0.059 0.057 0.097 0.131 0.156 0.188 0.01 0.011 0.021 0.021 0.031 0.031 0.239 0.228 0.471 0.47 0.719 0.688 0.126 0.123 0.246 0.255 0.375 0.375 0.491 0.515 0.999 1 1.531 1.469 0.196 0.193 0.391 0.377 0.594 0.563 0.428 0.438 0.854 0.879 1.313 1.281 0.316 0.311 0.605 0.646 0.938 0.938 0.195 0.191 0.393 0.379 0.594 0.563 0.43 0.441 0.851 0.877 1.313 1.281 0.085 0.083 0.164 0.168 0.25 0.25 0.525 0.562 1.081 1.09 1.656 1.594 0.318 0.314 0.633 0.644 0.969 0.938 0.309 0.303 0.613 0.622 0.938 0.906 0.316 0.311 0.636 0.646 0.969 0.938 0.158 0.156 0.307 0.318 0.469 0.469 0.454 0.476 0.914 0.943 1.406 1.375 0.174 0.172 0.352 0.334 0.531 0.5 0.447 0.468 0.891 0.919 1.375 1.344 0.317 0.314 0.635 0.645 0.969 0.938 0.315 0.312 0.606 0.615 0.938 0.906 0.315 0.313 0.636 0.646 0.969 0.938 0.101 0.1 0.21 0.183 0.313 0.281 0.036 0.038 0.058 0.087 0.094 0.125 0.18 0.169 0.346 0.338 0.531 0.5 0.119 0.118 0.254 0.229 0.375 0.344 0.026 0.028 0.037 0.066 0.063 0.094 0.175 0.164 0.351 0.342 0.531 0.5 0.327 0.325 0.654 0.667 1 0.969 0.311 0.307 0.609 0.62 0.938 0.906 0.084 0.083 0.165 0.169 0.25 0.25 0.055 0.06 0.1 0.128 0.156 0.188 0.166 0.156 0.329 0.319 0.5 0.469 0.131 0.13 0.272 0.248 0.406 0.375 0.025 0.027 0.037 0.067 0.063 0.094 0.156 0.146 0.308 0.297 0.469 0.438 0.135 0.135 0.268 0.275 0.406 0.406 0.03 0.032 0.064 0.062 0.094 0.094 0.155 0.145 0.309 0.298 0.469 0.438 0.344 0.344 0.664 0.714 1.031 1.031 0.1 0.099 0.21 0.185 0.313 0.281 0.512 0.553 1.058 1.073 1.625 1.563 0.104 0.102 0.206 0.213 0.313 0.313 0.03 0.033 0.063 0.061 0.094 0.094 0.144 0.134 0.29 0.277 0.438 0.406 0.327 0.327 0.652 0.666 1 0.969 0.312 0.31 0.607 0.618 0.938 0.906 0.105 0.105 0.206 0.21 0.313 0.313 0.065 0.071 0.122 0.149 0.188 0.219 0.135 0.126 0.268 0.254 0.406 0.375 0.342 0.343 0.666 0.715 1.031 1.031 0.152 0.151 0.312 0.292 0.469 0.438 0.01 0.011 0.021 0.021 0.031 0.031 0.124 0.115 0.248 0.232 0.375 0.344 0.34 0.343 0.668 0.685 1.031 1 0.095 0.095 0.185 0.189 0.281 0.281 0.492 0.542 1.014 1.053 1.563 1.531 0.312 0.314 0.636 0.648 0.969 0.938 0.296 0.298 0.591 0.599 0.906 0.875 0.338 0.343 0.669 0.686 1.031 1 0.156 0.156 0.308 0.319 0.469 0.469 0.03 0.032 0.064 0.062 0.094 0.094 0.103 0.094 0.208 0.19 0.313 0.281 0.337 0.342 0.67 0.687 1.031 1 0.162 0.163 0.332 0.312 0.5 0.469 0.035 0.038 0.058 0.087 0.094 0.125 0.093 0.085 0.187 0.167 0.281 0.25 0.167 0.17 0.327 0.337 0.5 0.5 0.055 0.06 0.1 0.128 0.156 0.188 0.093 0.085 0.186 0.167 0.281 0.25 0.097 0.099 0.21 0.185 0.313 0.281 16.387 3.917 33.476 6.03 51.06 6.03 84.75 0 158.25-48.18 194.63-118.62-0.198-0.201-0.402-0.383-0.625-0.563-0.325-0.379-0.667-0.747-1.063-1.063-0.324-0.378-0.667-0.718-1.063-1.031-0.323-0.376-0.668-0.72-1.063-1.031-0.322-0.375-0.668-0.722-1.063-1.031-0.316-0.368-0.675-0.728-1.063-1.031-0.31-0.361-0.651-0.702-1.031-1-0.315-0.374-0.671-0.725-1.063-1.031-0.129-0.154-0.264-0.295-0.406-0.438-0.034-0.04-0.059-0.086-0.094-0.125-0.021-0.02-0.041-0.042-0.063-0.063-0.284-0.324-0.572-0.63-0.875-0.938-0.324-0.378-0.65-0.737-1-1.094-0.326-0.38-0.679-0.766-1.031-1.125-0.328-0.383-0.677-0.764-1.031-1.125-0.328-0.383-0.677-0.764-1.031-1.125-0.043-0.05-0.081-0.106-0.125-0.156-0.124-0.125-0.248-0.253-0.375-0.375-0.174-0.191-0.319-0.409-0.5-0.594-0.328-0.382-0.678-0.764-1.031-1.125-0.33-0.384-0.676-0.762-1.031-1.125-0.33-0.385-0.676-0.762-1.031-1.125-0.327-0.381-0.648-0.764-1-1.125-0.329-0.383-0.677-0.762-1.031-1.125-0.328-0.382-0.678-0.763-1.031-1.125-0.33-0.385-0.676-0.761-1.031-1.125-0.227-0.265-0.449-0.526-0.688-0.781 0.404-0.11 0.813-0.206 1.219-0.313 0.018 0.005 0.898 0.224 1 0.25-0.06 0.229-0.126 0.459-0.188 0.688 0.001 0 1.066 0.281 1.188 0.313-0.06 0.229-0.126 0.459-0.188 0.688 0.001 0 1.066 0.281 1.188 0.313-0.06 0.229-0.126 0.459-0.188 0.688 0.001 0 1.066 0.281 1.188 0.313-0.06 0.229-0.126 0.459-0.188 0.688 0.001 0 1.042 0.252 1.156 0.281-0.061 0.231-0.126 0.457-0.188 0.688 0.002 0 1.066 0.281 1.188 0.313-0.06 0.229-0.126 0.459-0.188 0.688 0.002 0 1.066 0.281 1.188 0.313-0.06 0.229-0.126 0.459-0.188 0.688 0.002 0 1.066 0.281 1.188 0.313-0.06 0.229-0.126 0.459-0.188 0.688 0.002 0 1.066 0.281 1.188 0.313-0.06 0.229-0.126 0.459-0.188 0.688 0.002 0 1.066 0.281 1.188 0.313-0.06 0.229-0.126 0.459-0.188 0.688 0.002 0 1.066 0.281 1.188 0.313-0.06 0.229-0.126 0.459-0.188 0.688 0.002 0 1.042 0.252 1.156 0.281-0.061 0.231-0.125 0.457-0.188 0.688 0.002 0 1.066 0.281 1.188 0.313-0.06 0.229-0.126 0.459-0.188 0.688 0.002 0 1.066 0.281 1.188 0.313-0.06 0.229-0.126 0.459-0.188 0.688 0.002 0 1.066 0.281 1.188 0.313-0.06 0.229-0.126 0.459-0.188 0.688 0.002 0 1.066 0.281 1.188 0.313-0.06 0.229-0.126 0.459-0.188 0.688 0.002 0 1.066 0.281 1.188 0.313-0.06 0.229-0.126 0.459-0.188 0.688 0.002 0 1.042 0.252 1.156 0.281-0.061 0.231-0.125 0.457-0.188 0.688 0.002 0 1.066 0.281 1.188 0.313-0.06 0.229-0.126 0.459-0.188 0.688 0.002 0 1.066 0.281 1.188 0.313-0.06 0.229-0.126 0.459-0.188 0.688 0.002 0 1.066 0.281 1.188 0.313-0.06 0.229-0.126 0.459-0.188 0.688 0.002 0 1.066 0.281 1.188 0.313-0.06 0.229-0.126 0.459-0.188 0.688 0.001 0 0.273 0.065 0.5 0.125 13.617-27.03 21.791-57.3 23.09-89.31-0.767-0.793-1.526-1.57-2.313-2.344-0.171-0.172-0.359-0.329-0.531-0.5-0.32-0.331-0.646-0.672-0.969-1-0.005-0.005-0.026 0.005-0.031 0-0.322-0.334-0.643-0.669-0.969-1-0.005-0.005-0.026 0.005-0.031 0-0.317-0.329-0.648-0.643-0.969-0.969l-0.031-0.031c-0.809-0.838-1.609-1.653-2.438-2.469-0.171-0.172-0.359-0.329-0.531-0.5-0.32-0.331-0.646-0.672-0.969-1-0.005-0.005-0.026 0.005-0.031 0-0.322-0.334-0.643-0.669-0.969-1-0.005-0.005-0.026 0.005-0.031 0-0.317-0.329-0.648-0.643-0.969-0.969l-0.031-0.031c-0.32-0.331-0.646-0.641-0.969-0.969-0.011-0.01-0.021-0.021-0.031-0.031-0.315-0.326-0.62-0.646-0.938-0.969-0.115-0.114-0.229-0.23-0.344-0.344-0.225-0.227-0.461-0.431-0.688-0.656-0.32-0.331-0.646-0.672-0.969-1-0.005-0.005-0.026 0.005-0.031 0-0.32-0.331-0.646-0.672-0.969-1-0.005-0.005-0.026 0.005-0.031 0-0.322-0.334-0.643-0.669-0.969-1-0.005-0.005-0.026 0.005-0.031 0-0.317-0.329-0.648-0.643-0.969-0.969-0.011-0.01-0.021-0.021-0.031-0.031-0.809-0.838-1.609-1.653-2.438-2.469-0.171-0.172-0.359-0.329-0.531-0.5-0.32-0.331-0.646-0.672-0.969-1-0.005-0.005-0.026 0.005-0.031 0-0.322-0.334-0.643-0.669-0.969-1-0.005-0.005-0.026 0.005-0.031 0-0.317-0.329-0.648-0.643-0.969-0.969l-0.031-0.031c-0.809-0.838-1.609-1.653-2.438-2.469-0.171-0.172-0.359-0.329-0.531-0.5-0.32-0.331-0.646-0.672-0.969-1-0.005-0.005-0.026 0.005-0.031 0-0.322-0.334-0.643-0.669-0.969-1-0.005-0.005-0.026 0.005-0.031 0-0.317-0.329-0.648-0.643-0.969-0.969l-0.031-0.031c-0.809-0.838-1.609-1.653-2.438-2.469-0.171-0.172-0.359-0.329-0.531-0.5-0.32-0.331-0.646-0.672-0.969-1-0.005-0.005-0.026 0.005-0.031 0-0.322-0.334-0.643-0.669-0.969-1-0.005-0.005-0.026 0.005-0.031 0-0.317-0.329-0.648-0.643-0.969-0.969l-0.031-0.031c-0.32-0.331-0.646-0.641-0.969-0.969-0.011-0.01-0.021-0.021-0.031-0.031-0.315-0.326-0.62-0.646-0.938-0.969-0.115-0.114-0.229-0.23-0.344-0.344-0.225-0.227-0.461-0.431-0.688-0.656-0.32-0.331-0.646-0.672-0.969-1-0.005-0.005-0.026 0.005-0.031 0-0.32-0.331-0.646-0.672-0.969-1-0.005-0.005-0.026 0.005-0.031 0-0.322-0.334-0.643-0.669-0.969-1-0.005-0.005-0.026 0.005-0.031 0-0.317-0.329-0.648-0.643-0.969-0.969-0.011-0.01-0.021-0.021-0.031-0.031-0.809-0.838-1.609-1.653-2.438-2.469-0.171-0.172-0.359-0.329-0.531-0.5-0.32-0.331-0.646-0.672-0.969-1-0.005-0.005-0.026 0.005-0.031 0-0.322-0.334-0.643-0.669-0.969-1-0.005-0.005-0.026 0.005-0.031 0-0.317-0.329-0.648-0.643-0.969-0.969l-0.031-0.031c-0.809-0.838-1.609-1.653-2.438-2.469-0.171-0.172-0.359-0.329-0.531-0.5-0.32-0.331-0.646-0.672-0.969-1-0.005-0.005-0.026 0.005-0.031 0-0.322-0.334-0.643-0.669-0.969-1-0.005-0.005-0.026 0.005-0.031 0-0.317-0.329-0.648-0.643-0.969-0.969l-0.031-0.031c-0.32-0.331-0.646-0.641-0.969-0.969-0.011-0.01-0.021-0.021-0.031-0.031-0.315-0.326-0.62-0.646-0.938-0.969-0.115-0.114-0.229-0.23-0.344-0.344-0.225-0.227-0.461-0.431-0.688-0.656-0.32-0.331-0.646-0.672-0.969-1-0.005-0.005-0.026 0.005-0.031 0-0.32-0.331-0.646-0.672-0.969-1-0.005-0.005-0.026 0.005-0.031 0-0.322-0.334-0.643-0.669-0.969-1-0.005-0.005-0.026 0.005-0.031 0-0.317-0.329-0.648-0.643-0.969-0.969-0.011-0.01-0.021-0.021-0.031-0.031-0.809-0.838-1.609-1.653-2.438-2.469-0.171-0.172-0.359-0.329-0.531-0.5-0.32-0.331-0.646-0.672-0.969-1-0.005-0.005-0.026 0.005-0.031 0-0.322-0.334-0.643-0.669-0.969-1-0.005-0.005-0.026 0.005-0.031 0-0.317-0.329-0.648-0.643-0.969-0.969l-0.031-0.031c-0.809-0.838-1.609-1.653-2.438-2.469-0.171-0.172-0.359-0.329-0.531-0.5-0.32-0.331-0.646-0.672-0.969-1-0.005-0.005-0.026 0.005-0.031 0-0.322-0.334-0.643-0.669-0.969-1-0.005-0.005-0.026 0.005-0.031 0-0.317-0.329-0.648-0.643-0.969-0.969l-0.031-0.031c-0.809-0.838-1.609-1.653-2.438-2.469-0.171-0.172-0.359-0.329-0.531-0.5-0.32-0.331-0.646-0.672-0.969-1-0.005-0.005-0.026 0.005-0.031 0-0.322-0.334-0.643-0.669-0.969-1-0.005-0.005-0.026 0.005-0.031 0-0.317-0.329-0.648-0.643-0.969-0.969l-0.031-0.031c-0.32-0.331-0.646-0.641-0.969-0.969-0.011-0.01-0.021-0.021-0.031-0.031-0.315-0.326-0.62-0.646-0.938-0.969-0.115-0.114-0.229-0.23-0.344-0.344-0.225-0.227-0.461-0.431-0.688-0.656-0.32-0.331-0.646-0.672-0.969-1-0.005-0.005-0.026 0.005-0.031 0-0.32-0.331-0.646-0.672-0.969-1-0.005-0.005-0.026 0.005-0.031 0-0.322-0.334-0.643-0.669-0.969-1-0.005-0.005-0.026 0.005-0.031 0-0.317-0.329-0.648-0.643-0.969-0.969-0.011-0.01-0.021-0.021-0.031-0.031-0.809-0.838-1.609-1.653-2.438-2.469-0.171-0.172-0.359-0.329-0.531-0.5-0.32-0.331-0.646-0.672-0.969-1-0.005-0.005-0.026 0.005-0.031 0-0.322-0.334-0.643-0.669-0.969-1-0.005-0.005-0.026 0.005-0.031 0-0.317-0.329-0.648-0.643-0.969-0.969l-0.031-0.031c-0.809-0.838-1.609-1.653-2.438-2.469-0.171-0.172-0.359-0.329-0.531-0.5-0.32-0.331-0.646-0.672-0.969-1-0.005-0.005-0.026 0.005-0.031 0-0.322-0.334-0.643-0.669-0.969-1-0.005-0.005-0.026 0.005-0.031 0-0.317-0.329-0.648-0.643-0.969-0.969l-0.031-0.031c-0.32-0.331-0.646-0.641-0.969-0.969-0.011-0.01-0.021-0.021-0.031-0.031-0.315-0.326-0.62-0.646-0.938-0.969-0.115-0.114-0.229-0.23-0.344-0.344-0.225-0.227-0.461-0.431-0.688-0.656-0.32-0.331-0.646-0.672-0.969-1-0.005-0.005-0.026 0.005-0.031 0-0.322-0.334-0.643-0.669-0.969-1-0.005-0.005-0.026 0.005-0.031 0-0.317-0.329-0.648-0.643-0.969-0.969l-0.031-0.031c-0.317-0.329-0.648-0.643-0.969-0.969-0.011-0.01-0.021-0.021-0.031-0.031-0.65-0.673-1.306-1.309-1.969-1.969-0.32-0.331-0.646-0.672-0.969-1-0.005-0.005-0.026 0.005-0.031 0-0.32-0.331-0.646-0.672-0.969-1-0.005-0.005-0.026 0.005-0.031 0-0.322-0.334-0.643-0.669-0.969-1-0.005-0.005-0.026 0.005-0.031 0-0.317-0.329-0.648-0.643-0.969-0.969-0.011-0.01-0.021-0.021-0.031-0.031-0.809-0.838-1.609-1.653-2.438-2.469-0.171-0.172-0.359-0.329-0.531-0.5-0.32-0.331-0.646-0.672-0.969-1-0.005-0.005-0.026 0.005-0.031 0-0.322-0.334-0.643-0.669-0.969-1-0.005-0.005-0.026 0.005-0.031 0-0.317-0.329-0.648-0.643-0.969-0.969-0.334-0.332-0.663-0.671-1-1-0.326-0.324-0.639-0.648-0.969-0.969-0.081-0.077-0.169-0.142-0.25-0.219-25.544-24.773-60.31-39.11-96.84-38.75" id="path8" color="#000000"/>
  <g fill-rule="evenodd" id="g10">
   <path d="m256 541.36c-140.83 0-255 114.17-255 255s114.17 255 255 255 255-114.17 255-255-114.17-255-255-255m8.827 44.931c120.9 0 218.9 98 218.9 218.9s-98 218.9-218.9 218.9-218.93-98-218.93-218.9 98.03-218.9 218.93-218.9" fill-opacity="0.067" id="path12"/>
   <g fill-opacity="0.129" id="g14">
    <path d="m256 544.79c-138.94 0-251.57 112.63-251.57 251.57s112.63 251.54 251.57 251.54 251.57-112.6 251.57-251.54-112.63-251.57-251.57-251.57m5.885 38.556c120.9 0 218.9 98 218.9 218.9s-98 218.9-218.9 218.9-218.93-98-218.93-218.9 98.03-218.9 218.93-218.9" id="path16"/>
    <path d="m256 548.72c-136.77 0-247.64 110.87-247.64 247.64s110.87 247.64 247.64 247.64 247.64-110.87 247.64-247.64-110.87-247.64-247.64-247.64m2.942 31.691c120.9 0 218.9 98 218.9 218.9s-98 218.9-218.9 218.9-218.93-98-218.93-218.9 98.03-218.9 218.93-218.9" id="path18"/>
   </g>
   <path fill="#ffffff" stroke-width="4.904" stroke="#000000" stroke-opacity="0.31" d="m253.04 548.22c-135.42 0-245.19 109.78-245.19 245.19 0 135.42 109.78 245.19 245.19 245.19 135.42 0 245.19-109.78 245.19-245.19 0-135.42-109.78-245.19-245.19-245.19zm0 26.297c120.9 0 218.9 98 218.9 218.9s-98 218.9-218.9 218.9-218.93-98-218.93-218.9 98.03-218.9 218.93-218.9z" id="path20"/>
  </g>
  <path d="m254.44 643.27c-11.28 0-22.87 1.603-34.27 4.663-72.96 19.509-116.13 94.03-96.58 166.82l22.327-5.699c-2.542-9.437-4.154-19.293-4.154-29.531 0-62.803 50.768-113.46 113.71-113.46 62.945 0 114.23 50.657 114.23 113.46 0 10.238-1.612 20.09-4.154 29.531l22.327 5.699c6.214-23.14 6.214-47.32 0-70.46-16.495-61.42-72.53-101.64-133.44-101.03m28.558 173.04c-1.017-0.163-2 0.488-2.596 1.036-0.592 0.526-0.774 0.973-1.039 1.554-0.529 1.143-0.736 2.519-1.038 4.144-0.606 3.253-1.223 7.576-1.558 12.952-0.669 10.751-1.209 25.02-1.558 39.38-0.348 14.35-0.693 28.686-1.558 39.37-0.433 5.345-0.886 10.03-1.558 12.952-0.077 0.344-0.434 0.22-0.519 0.517-0.593-2.227-1.186-5.624-1.558-9.843-0.743-8.436-0.743-19.656-1.038-31.09-0.295-11.428-0.791-22.896-1.558-31.603-0.384-4.354-0.82-8.108-1.558-10.88-0.369-1.392-0.896-2.587-1.558-3.627-0.662-1.045-1.468-2.073-3.115-2.073-1.251 0-2.841 0.775-3.635 1.554-0.793 0.775-1.13 1.593-1.558 2.591-0.855 2.01-1.156 4.359-1.558 7.253-0.805 5.787-1.288 13.293-1.558 20.723-0.269 7.431-0.342 14.841-1.038 20.21-0.348 2.684-1.053 4.965-1.558 6.217-0.252 0.632-0.436 0.938-0.519 1.036-0.113 0-0.342-0.306-0.519-0.517-0.295-0.364-0.747-1.375-1.038-2.59-0.583-2.42-0.845-6.091-1.038-9.843-0.194-3.752-0.133-7.668-1.038-10.881-0.454-1.608-0.919-2.914-2.077-4.144-1.158-1.227-3.338-2.15-5.192-2.073-2.242 0.163-3.743 1.859-4.673 3.627-0.93 1.767-1.674 3.806-2.077 6.218-0.807 4.821-0.82 11.09-1.038 17.1-0.219 6.01-0.371 11.88-1.038 16.06-0.3 1.881-1.157 3.25-1.558 4.144-0.148-0.364-0.367-0.507-0.519-1.036-0.607-2.125-1.154-5.316-1.558-9.325-0.807-8.02-1.209-18.704-1.558-29.532-0.349-10.829-0.312-21.809-1.038-30.05-0.363-4.118-0.884-7.734-1.558-10.362-0.337-1.31-0.95-2.111-1.558-3.109-0.607-0.994-1.464-2.59-3.115-2.59-1.56 0-3.02 1.144-3.635 2.073-0.616 0.928-0.699 1.905-1.038 3.109-0.678 2.406-1.178 5.603-1.558 9.325-0.76 7.444-1.156 17.211-1.558 26.941s-0.757 19.302-1.558 26.423c-0.401 3.561-0.995 6.482-1.558 8.289-0.337-0.928-1.296-2-1.558-3.627-0.654-4.067-0.708-9.317-1.038-15.02-0.331-5.707-0.667-11.522-1.558-16.06-0.445-2.27-1.133-4.558-2.077-6.217-0.944-1.658-2.498-3.109-4.673-3.109-1.532 0-2.958 1.078-3.635 2.073-0.676 0.995-1.209 1.837-1.558 3.109-0.697 2.544-1.254 5.926-1.558 9.843-0.608 7.839-0.352 18.24-0.519 28.495s-0.729 20.438-1.558 27.976c-0.414 3.77-0.876 6.882-1.558 8.808-0.239 0.679-0.313 1.206-0.519 1.554-0.252-0.469-0.741-1.011-1.038-2.073-0.393-1.409-0.777-4.054-1.038-6.217h1.038l-1.558-5.18c-0.029-0.277 0.019-0.756 0-1.036-0.821-9.642-1.342-22.436-1.558-35.23-0.222-13.17-0.439-26.294-1.038-36.27-0.299-4.985-0.409-9.341-1.038-12.434-0.315-1.542-0.985-2.502-1.558-3.627-0.287-0.565-0.464-1.056-1.038-1.554s-1.66-1.07-2.596-1.036c-1.801 0-2.56 1.51-3.115 2.59-0.555 1.077-0.729 2.164-1.038 3.627-0.619 2.926-1.254 6.752-1.558 11.398-0.29 4.432-0.371 10.628-0.519 16.06l-12.462-47.664-28.04 7.772c-15.247 4.078-23.817 19.501-19.731 34.711l14.539 54.917c4.085 15.214 19.542 24.282 34.789 20.21l4.154-1.036c0.794 0.354 1.665 0.565 2.596 0.517 1.638-0.163 2.893-0.978 3.635-2.073l11.423-3.109c0.343 1.858 0.618 4.19 1.038 5.699 0.439 1.575 0.788 3.01 1.558 4.145 0.77 1.143 2.444 2.638 4.154 2.59 1.469 0 2.807-1.095 3.635-2.073s1.095-2.32 1.558-3.627c0.925-2.614 1.642-5.886 2.077-9.843 0.871-7.918 0.871-18.218 1.038-28.495 0.167-10.278 0.454-20.434 1.038-27.977 0.292-3.772 0.507-6.866 1.038-8.808 0.186-0.679 0.36-1.223 0.519-1.554 0.038 0 0.048-0.316 0.519 0.517 0.471 0.832 0.647 2.669 1.038 4.663 0.783 3.989 1.228 9.34 1.558 15.02 0.329 5.687 0.829 11.531 1.558 16.06 0.364 2.264 0.775 4.04 1.558 5.699 0.391 0.832 0.831 1.93 1.558 2.59 0.726 0.66 1.499 0.987 2.596 1.036 1.512 0 2.953-1.144 3.635-2.073 0.682-0.928 1.184-1.908 1.558-3.109 0.747-2.401 1.14-5.615 1.558-9.326 0.835-7.422 1.155-16.687 1.558-26.422 0.403-9.737 0.826-19.769 1.558-26.941 0.295-2.896 0.634-4.905 1.038-6.735 0.435 2.082 1.26 4.913 1.558 8.289 0.704 7.984 1.208 18.693 1.558 29.531 0.349 10.837 0.721 21.747 1.558 30.05 0.418 4.153 0.792 7.685 1.558 10.362 0.383 1.342 0.891 2.097 1.558 3.108 0.666 1.011 1.528 2.518 3.115 2.591 2.224 0.163 4.287-1.909 5.192-3.627 0.905-1.717 1.181-3.858 1.558-6.218 0.753-4.716 1.34-10.58 1.558-16.579 0.218-5.997 0.322-11.782 1.038-16.06 0.358-2.14 0.548-3.729 1.038-4.663 0.491-0.928 0.941-1.035 1.038-1.035 0.588 0 0.719 0.191 1.039 0.517 0.319 0.335 0.711 0.909 1.038 2.073 0.655 2.32 0.847 6.115 1.038 9.843 0.192 3.727 0.265 7.665 1.038 10.88 0.387 1.608 1.048 2.867 2.077 4.145 1.029 1.276 2.854 2.073 4.673 2.073 1.258 0 2.352-0.239 3.115-1.036 0.763-0.775 1.155-2.111 1.558-3.109 0.805-1.996 1.183-4.365 1.558-7.253 0.75-5.776 1.289-13.298 1.558-20.724 0.269-7.425 0.294-14.852 1.039-20.21 0.372-2.677 1.027-4.453 1.558-5.699 0.125 0.335 0.397 0.574 0.519 1.036 0.593 2.227 1.186 5.626 1.558 9.844 0.743 8.437 0.743 19.657 1.038 31.08 0.294 11.43 0.79 22.896 1.558 31.603 0.384 4.354 0.82 8.107 1.558 10.88 0.369 1.393 0.896 2.587 1.558 3.627 0.662 1.045 1.987 2.073 3.635 2.073 0.95 0 1.491-0.526 2.077-1.036 0.586-0.517 1.236-0.957 1.558-1.554 0.643-1.194 1.168-2.451 1.558-4.145 0.779-3.386 1.116-8.01 1.558-13.47 0.883-10.921 1.209-25.529 1.558-39.893s0.9-28.807 1.558-39.38c0.246-3.954 0.161-6.654 0.519-9.326 0.492 3.183 1.213 6.976 1.558 11.917 0.807 11.569 1.653 27.11 2.077 42.483 0.424 15.375 0.791 30.941 1.558 42.483 0.384 5.769 0.923 10.485 1.558 13.988 0.317 1.752 0.528 2.947 1.038 4.144 0.255 0.593 0.513 1.509 1.038 2.073 0.526 0.565 1.5 1.086 2.596 1.036 1.549-0.163 2.517-1.143 3.115-2.073 0.598-0.928 1.214-1.905 1.558-3.108 0.689-2.409 1.154-5.621 1.558-9.326 0.808-7.411 1.11-17.277 1.558-26.941s0.78-19.286 1.558-26.423c0.389-3.567 1.021-6.412 1.558-8.289 0.313 0.899 0.791 1.573 1.039 3.109 0.646 4.03 0.717 9.793 1.038 15.542 0.321 5.751 0.666 11.468 1.558 16.06 0.446 2.296 1.127 4.54 2.077 6.217 0.949 1.676 3 3.109 5.192 3.109 1.246 0 2.295-0.775 3.115-1.555 0.82-0.765 1.11-1.59 1.558-2.59 0.895-2.02 1.664-4.354 2.077-7.253 0.826-5.8 0.795-13.29 1.039-20.724s0.892-14.837 1.558-20.21c0.333-2.682 0.543-4.965 1.038-6.217 0.111 0.249 0.407 0.172 0.519 0.517 0.565 1.733 1.211 4.84 1.558 8.289 0.693 6.9 0.82 15.955 1.038 25.387 0.219 9.43 0.258 19.17 1.039 26.422 0.298 2.77 0.935 4.744 1.558 6.735l-3.635 13.988 27.52 7.253c15.247 4.077 30.703-4.991 34.789-20.21l14.539-54.917c4.085-15.21-4.484-30.633-19.731-34.711l-28.04-7.772-4.673 17.615c-0.196-0.498-0.22-1.123-0.519-1.554-0.81-1.161-1.946-2.073-3.635-2.073-1.542 0-2.928 1.077-3.635 2.073-0.707 0.994-1.183 1.8-1.558 3.108-0.75 2.618-1.212 6.322-1.558 10.362-0.692 8.08-0.847 18.446-1.038 29.01-0.038 1.885 0.029 3.306 0 5.18l-5.192 19.688c-0.382-6.194-0.869-12.851-1.038-20.21-0.218-9.427-0.83-18.661-1.558-25.904-0.363-3.621-0.778-6.933-1.558-9.326-0.39-1.194-0.819-2.18-1.558-3.109-0.738-0.928-1.679-1.554-3.115-1.554-1.258 0-2.873 0.239-3.635 1.036-0.761 0.794-1.161 2.109-1.558 3.109-0.793 1.999-1.2 4.364-1.558 7.253-0.716 5.776-0.795 13.3-1.038 20.723-0.244 7.422-0.797 14.861-1.558 20.21-0.381 2.671-0.491 4.465-1.038 5.698-0.205 0.469-0.901 0.354-1.038 0.517-0.479-0.842-1.165-2.642-1.558-4.663-0.784-4.04-1.238-9.813-1.558-15.542-0.319-5.73-0.835-11.04-1.558-15.543-0.362-2.251-0.756-4.579-1.558-6.217-0.401-0.813-0.781-1.426-1.558-2.073-0.778-0.651-2.02-1.086-3.115-1.036-1.55 0-2.515 1.144-3.115 2.073-0.6 0.928-0.694 1.905-1.038 3.109-0.689 2.406-1.154 5.622-1.558 9.326-0.808 7.407-1.629 17.276-2.077 26.941-0.448 9.663-0.779 19.282-1.558 26.422-0.291 2.666-0.659 4.426-1.039 6.218-0.539-3.125-1.194-7.485-1.558-12.952-0.756-11.369-1.134-26.587-1.558-41.965-0.424-15.377-0.738-30.733-1.558-42.483-0.409-5.878-0.883-10.855-1.558-14.507-0.337-1.827-0.526-3.411-1.038-4.663-0.257-0.632-0.581-0.99-1.038-1.554-0.457-0.565-1.556-1.388-2.596-1.554zm65.42 29.01c0.203 0.469 0.319 0.823 0.519 1.555l2.596-1.036-5.712 22.278c0.149-4.332 0.217-9.417 0.519-12.952 0.333-3.89 0.982-7.316 1.558-9.326 0.086-0.297 0.431-0.287 0.519-0.517zm-174.46 3.109c0.405 2.562 0.797 5.826 1.038 9.843 0.586 9.759 0.817 22.56 1.038 35.749 0.077 4.339 0.466 8.668 0.519 12.952l-4.673-16.06c0.005-0.191-0.003-0.325 0-0.517 0.252-12.06 0.454-24.22 1.038-33.16 0.241-3.68 0.65-6.428 1.038-8.807" fill="#ffffff" id="path22" color="#000000"/>
 </g>
</svg>
