<?xml version="1.0" encoding="UTF-8" standalone="no"?>
<svg xmlns="http://www.w3.org/2000/svg" xmlns:sodipodi="http://sodipodi.sourceforge.net/DTD/sodipodi-0.dtd" xmlns:inkscape="http://www.inkscape.org/namespaces/inkscape" width="1814.17" height="1814.17" viewBox="0 0 512 512" version="1.1">
 <metadata id="metadata7217"/>
 <g transform="translate(0,215.00001)" id="layer1" inkscape:groupmode="layer" inkscape:label="Layer 1">
  <g transform="matrix(3.7795274,0,0,3.7795274,58.857168,-518.66255)" id="g7254">
   <path inkscape:connector-curvature="0" id="path7506" d="m 109.29748,147.29687 c 0,31.98812 -25.931812,57.91993 -57.919938,57.91993 -31.988127,0 -57.9199395,-25.93181 -57.9199395,-57.91993 0,-31.98813 25.9318125,-57.919944 57.9199395,-57.919944 31.988126,0 57.919938,25.931814 57.919938,57.919944" fill="#606060" fill-rule="evenodd"/>
   <path inkscape:connector-curvature="0" id="path7508" d="m 77.634793,111.16007 c -0.837671,-0.0206 -1.625336,0.6059 -3.042709,0.63659 -10.279063,-0.76226 -23.00023,9.06198 -15.618355,19.58711 -0.389202,4.7625 -1.543843,8.08037 -4.754298,6.33359 -2.890837,-2.83607 -0.09419,0.0278 -7.14375,-6.9215 -2.896658,-0.25955 -5.491163,-0.5117 -8.466667,-0.33073 -2.193925,2.8956 0.869156,12.11739 -6.622521,9.12813 -2.402417,-2.39448 -5.120746,0.77628 -7.639844,-1.05013 -3.812911,2.14709 -3.255963,5.10884 -0.215106,7.75493 3.182937,4.30372 -2.596357,7.83273 -7.011459,6.20131 -3.5433,1.23349 -1.93675,6.51907 -1.769533,9.50013 2.445014,2.73314 -0.02858,0.0466 7.325783,7.92109 0.345017,0.36963 -0.905933,0.97632 -1.455208,1.50495 -2.969683,3.24115 2.227792,5.62346 3.992563,7.98778 8.566679,8.57487 17.187069,17.19235 25.788938,25.79687 0.12409,7.9e-4 0.247915,0.008 0.372004,0.008 31.988126,0 57.919939,-25.93181 57.919939,-57.91994 0,-1.72693 -0.0751,-3.43799 -0.22331,-5.1263 -20.277666,-20.52882 -13.156136,-13.37449 -20.356506,-20.48913 -6.010545,-6.10129 -0.04313,0.0617 -10.202868,-10.24441 -0.315912,-0.19711 -0.597164,-0.27437 -0.876564,-0.28125 z" opacity="0.25"/>
   <g transform="matrix(0.26458334,0,0,0.26458334,-15.572627,80.344051)" id="g7510" fill-rule="evenodd">
    <path inkscape:connector-curvature="0" id="path7512" d="M 256,1 C 115.17,1 1,115.17 1,256 1,396.83 115.17,511 256,511 396.83,511 511,396.83 511,256 511,115.17 396.83,1 256,1 m 8.827,44.931 c 120.9,0 218.9,98 218.9,218.9 0,120.9 -98,218.9 -218.9,218.9 -120.9,0 -218.93,-98 -218.93,-218.9 0,-120.9 98.03,-218.9 218.93,-218.9" fill-opacity="0.067"/>
    <g id="g7514" fill-opacity="0.129">
     <path inkscape:connector-curvature="0" id="path7516" d="M 256,4.43 C 117.06,4.43 4.43,117.06 4.43,256 4.43,394.94 117.06,507.57 256,507.57 394.94,507.57 507.57,394.94 507.57,256 507.57,117.06 394.94,4.43 256,4.43 m 5.885,38.556 c 120.9,0 218.9,98 218.9,218.9 0,120.9 -98,218.9 -218.9,218.9 -120.9,0 -218.93,-98 -218.93,-218.9 0,-120.9 98.03,-218.9 218.93,-218.9"/>
     <path inkscape:connector-curvature="0" id="path7518" d="M 256,8.36 C 119.23,8.36 8.36,119.23 8.36,256 8.36,392.77 119.23,503.64 256,503.64 392.77,503.64 503.64,392.77 503.64,256 503.64,119.23 392.77,8.36 256,8.36 m 2.942,31.691 c 120.9,0 218.9,98 218.9,218.9 0,120.9 -98,218.9 -218.9,218.9 -120.9,0 -218.93,-98 -218.93,-218.9 0,-120.9 98.03,-218.9 218.93,-218.9"/>
    </g>
    <path inkscape:connector-curvature="0" id="path7520" d="M 253.04,7.86 C 117.62,7.86 7.85,117.64 7.85,253.05 c 0,135.42 109.78,245.19 245.19,245.19 135.42,0 245.19,-109.78 245.19,-245.19 C 498.23,117.63 388.45,7.86 253.04,7.86 Z m 0,26.297 c 120.9,0 218.9,98 218.9,218.9 0,120.9 -98,218.9 -218.9,218.9 -120.9,0 -218.93,-98 -218.93,-218.9 0,-120.9 98.03,-218.9 218.93,-218.9 z" stroke-opacity="0.31" fill="#ffffff" stroke="#000000" stroke-width="4.904"/>
   </g>
   <g transform="matrix(0.26458334,0,0,0.26458334,-15.572627,80.344051)" id="g7700" fill="#ffffff">
    <g id="g7702" line-height="125%" font-family="&apos;Gentium Book Basic&apos;" word-spacing="0" letter-spacing="0">
     <text id="text7704" y="363.71" x="-522.91" font-size="155.15"><tspan id="tspan7706" y="363.71" x="-522.91"/>
     </text>
     <text id="text7708" y="363.74" x="-522.92" font-size="155.16"><tspan id="tspan7710" y="363.74" x="-522.92"/>
     </text>
    </g>
    <path inkscape:connector-curvature="0" id="path7712" d="m 355.9,117.42 c -24.27,-6.094 -53.57,2.153 -71.48,20.09 -16.975,16.972 -16.312,35.16 -6.276,52.9 1.431,2.531 4.174,7.623 -2.784,14.584 -10.04,10.04 -23.331,22.683 -37.37,35.819 -19.08,17.382 -35.421,28.439 -35.996,29.01 -11.505,11.497 -11.856,29.778 -0.796,40.835 11.05,11.06 29.328,10.712 40.835,-0.795 19.376,-27.16 40.25,-48.43 63.949,-72.26 7.339,-7.346 13.798,-4.792 16.728,-3.204 17.34,9.38 35.07,9.613 51.641,-6.961 17.927,-17.936 26.18,-47.21 20.09,-71.48 l -43.09,43.09 c 0,0 -12.843,0.006 -25.699,-12.838 -12.845,-12.856 -12.838,-25.699 -12.838,-25.699 l 43.09,-43.09 z M 320.68,274.8 c -1.232,-1.093 -2.82,-1.769 -4.53,-1.967 l -22.21,-2.585 c -0.678,-2.269 -1.459,-4.506 -2.342,-6.717 -12.935,13.42 -25.09,27.604 -36.615,42.23 -8.297,16.548 -29.41,25.466 -46.846,18.783 -22.607,-7.378 -30.11,-39.02 -15.181,-56.723 18.847,-15.323 37.761,-30.749 55.4,-47.531 -2.185,-0.875 -4.41,-1.648 -6.651,-2.32 l -2.541,-21.987 c -0.453,-3.909 -3.553,-7.113 -7.955,-7.115 l -23.401,0.022 c -4.402,0 -7.392,3.221 -7.955,7.115 l -3.16,21.987 c -11.465,4.508 -14.516,5.924 -14.474,5.9 L 164.873,210.17 c -3.084,-2.444 -7.517,-2.515 -10.629,0.597 l -16.551,16.551 c -3.113,3.113 -2.952,7.474 -0.597,10.629 l 13.325,17.877 c -2.496,4.655 -4.439,9.521 -5.922,14.496 l -21.81,2.497 c -3.909,0.453 -7.091,3.575 -7.093,7.977 l -0.022,23.401 c 0,4.402 3.198,7.368 7.093,7.933 l 21.898,3.16 c 1.504,4.976 3.492,9.843 6.01,14.496 l -13.722,17.302 c -2.444,3.084 -2.515,7.561 0.597,10.673 l 16.551,16.551 c 3.113,3.113 7.496,2.93 10.651,0.575 l 17.854,-13.347 c 4.547,2.425 9.292,4.371 14.14,5.834 l 3.204,22.12 c 0.564,3.895 3.53,7.091 7.933,7.093 l 23.423,0 c 4.402,0 7.502,-3.206 7.955,-7.115 l 2.541,-22.12 c 4.923,-1.478 9.732,-3.429 14.341,-5.9 l 17.877,13.325 c 3.152,2.355 7.517,2.515 10.629,-0.597 L 301.1,357.627 c 3.113,-3.113 3.042,-7.543 0.597,-10.629 l -13.766,-17.39 c 2.462,-4.577 4.438,-9.344 5.922,-14.231 l 22.296,-3.248 c 3.895,-0.564 7.113,-3.553 7.115,-7.955 l -0.022,-23.401 c 0,-2.201 -0.769,-4.08 -2.055,-5.458 -0.161,-0.172 -0.332,-0.352 -0.508,-0.508 z m -87.33,3.712 c 2.27,2.27 3.69,5.396 3.69,8.861 0,6.93 -5.621,12.551 -12.551,12.551 -6.93,0 -12.551,-5.621 -12.551,-12.551 0,-6.93 5.621,-12.551 12.551,-12.551 3.465,0 6.591,1.42 8.861,3.69"/>
   </g>
  </g>
 </g>
</svg>
