<?xml version="1.0" encoding="UTF-8" standalone="no"?>
<svg xmlns="http://www.w3.org/2000/svg" xmlns:xlink="http://www.w3.org/1999/xlink" xmlns:sodipodi="http://sodipodi.sourceforge.net/DTD/sodipodi-0.dtd" xmlns:inkscape="http://www.inkscape.org/namespaces/inkscape" height="512" viewBox="0 0 512 512" width="512" version="1.1">
 <metadata id="metadata448"/>
 <defs id="defs4">
  <path d="m13.895-8.388c0.075-0.29 0.112-0.574 0.112-0.854 0-0.858-0.334-1.59-1-2.193-0.669-0.604-1.507-0.904-2.514-0.904h-20.838c-1.057 0.016-1.924 0.291-2.602 0.824-0.678 0.536-1.01 1.222-0.99 2.061 0 0.296 0.045 0.608 0.135 0.936s0.244 0.666 0.459 1.01l10.977 18.382c0.313 0.512 0.685 0.897 1.114 1.153s0.876 0.384 1.339 0.384c0.461 0 0.908-0.128 1.336-0.384 0.431-0.256 0.794-0.642 1.091-1.153l11-18.407c0.181-0.282 0.31-0.567 0.384-0.856m-2.738-0.854v0.086c0 0.026-0.008 0.045-0.025 0.062 0 0.017-0.004 0.037-0.012 0.063-0.009 0.024-0.021 0.046-0.037 0.063l-11 18.382v0.051l-0.027-0.027v-0.026l-10.975-18.407c-0.051-0.066-0.09-0.135-0.124-0.21-0.032-0.076-0.049-0.145-0.049-0.212 0.065-0.032 0.161-0.053 0.284-0.062 0.125-0.009 0.277-0.013 0.459-0.013h20.838c0.131 0 0.242 0.009 0.334 0.025 0.091 0.017 0.168 0.042 0.234 0.074 0.017 0.018 0.029 0.029 0.037 0.037 0.009 0.01 0.021 0.021 0.037 0.037 0 0.018 0.009 0.035 0.025 0.05v0.051-0.024m-8.82 12.45v-0.089c-0.032-0.363-0.148-0.733-0.347-1.113-0.199-0.381-0.405-0.81-0.617-1.289-0.25-0.513-0.476-1.112-0.682-1.796-0.209-0.687-0.31-1.499-0.31-2.441h-0.719c0 0.941-0.104 1.754-0.311 2.44-0.205 0.685-0.424 1.283-0.656 1.796-0.23 0.479-0.445 0.908-0.643 1.289-0.199 0.38-0.314 0.75-0.348 1.113v0.152c0 0.644 0.227 1.19 0.682 1.646 0.453 0.452 1 0.681 1.646 0.681 0.629 0 1.169-0.229 1.623-0.681 0.453-0.456 0.681-1 0.681-1.646 0.001-0.017 0.001-0.038 0.001-0.062m-0.817-10.927c-0.413-0.405-0.909-0.606-1.487-0.606s-1.073 0.201-1.486 0.606c-0.414 0.404-0.619 0.895-0.619 1.474 0 0.578 0.205 1.07 0.619 1.475 0.413 0.404 0.908 0.607 1.486 0.607s1.074-0.203 1.486-0.607c0.414-0.404 0.619-0.896 0.619-1.475 0.001-0.579-0.204-1.069-0.618-1.474" id="0"/>
  <path d="m-9.02-7.64v20.015h18.092v-24.75h-13.822" id="1"/>
  <path d="m-9.02-7.64h4.27v-4.735" id="2"/>
  <path d="m14.427 8.58c-16.194 0-15.562 0-15.785 0.179 0 0.176-0.22 0.354-0.22 0.707s-0.223 0.706-0.445 1.237c-0.221 0.353-0.665 0.707-1.108 1.06-0.665 0.354-1.331 0.53-1.331 0.53s-9.317 0-9.763-0.176c-0.665-0.178-1.108-0.354-1.331-0.707-0.22-0.354-0.443-0.707-0.665-1.06-0.22-0.532-0.442-0.709-0.442-0.885-0.223-0.178-0.223-0.354-0.443-0.531 0-0.176-0.223-0.354-0.445-0.354l-0.442-0.176v-20.861h35.743v19.269c-0.223 0.531-0.443 0.887-0.888 1.238-0.443 0.176-1.108 0.354-1.774 0.529h-0.666" id="3"/>
  <path d="m12.401 0c0-6.834-5.539-12.375-12.375-12.375-6.834 0-12.375 5.541-12.375 12.375 0 6.837 5.541 12.375 12.375 12.375 6.836 0 12.375-5.538 12.375-12.375" id="4"/>
  <path d="m8.648 2.993c0-0.33-0.182-1.371-0.543-3.122-0.408-1.948-0.736-3.112-0.98-3.492-0.494-0.711-1.523-1.99-3.096-3.841-0.297-0.346-0.492-0.623-0.59-0.829-0.1-0.207-0.195-0.4-0.295-0.583-0.181-0.346-0.271-0.57-0.271-0.668v-3.049h-8.943v2.95c0 0.196-0.189 0.496-0.57 0.891-0.346 0.347-0.734 0.867-1.164 1.561-0.494 0.811-0.744 1.387-0.744 1.733v12.464c0 0.114 0.102 0.268 0.299 0.459 0.199 0.188 0.33 0.293 0.396 0.31 0.148 0.032 0.246 0.05 0.297 0.05 0.131 0 0.33-0.084 0.596-0.249 0.264-0.165 0.395-0.339 0.395-0.521v-5.524c0-0.233 0.166-0.349 0.496-0.349 0.348 0 0.521 0.107 0.521 0.323v8.694c0 0.216 0.117 0.423 0.359 0.621 0.238 0.198 0.459 0.297 0.656 0.297 0.229 0 0.453-0.107 0.67-0.323 0.213-0.214 0.32-0.437 0.32-0.668v-8.348c0-0.23 0.184-0.347 0.547-0.347 0.08 0 0.189 0.044 0.32 0.137 0.133 0.089 0.199 0.193 0.199 0.309v9.514c0 0.214 0.139 0.396 0.422 0.545 0.279 0.149 0.527 0.223 0.742 0.223 0.248 0 0.498-0.096 0.756-0.284 0.256-0.191 0.383-0.395 0.383-0.608v-9.243c0-0.181 0.174-0.279 0.52-0.296 0.365 0 0.547 0.115 0.547 0.347v8c0 0.199 0.111 0.379 0.334 0.545 0.223 0.164 0.443 0.247 0.656 0.247 0.148 0 0.352-0.078 0.607-0.236 0.256-0.155 0.383-0.342 0.383-0.556v-9.217c0-0.463 0.133-0.983 0.396-1.562 0.316-0.676 0.678-1.015 1.092-1.015 0.098 0 0.189 0.073 0.271 0.223 0.23 0.445 0.547 1.163 0.943 2.155 0.395 0.99 0.719 1.718 0.965 2.178 0.116 0.218 0.472 0.423 1.067 0.622 0.18 0.083 0.346 0.125 0.496 0.125 0.362 0 0.545-0.199 0.545-0.596" id="5"/>
  <path d="m13.189-8.282c-0.073-0.29-0.178-0.582-0.31-0.881-0.298-0.659-0.711-1.28-1.239-1.858-0.527-0.576-1.073-0.941-1.634-1.089-0.085-0.017-0.162-0.028-0.236-0.037-0.075-0.009-0.146-0.013-0.212-0.013h-15.483c-0.381 0.066-0.734 0.211-1.067 0.434-0.329 0.224-0.586 0.524-0.766 0.904l-5.378 11.149c-0.065 0.166-0.12 0.335-0.162 0.509-0.041 0.172-0.062 0.342-0.062 0.508 0 0.429 0.115 0.837 0.348 1.226 0.23 0.388 0.553 0.682 0.967 0.88 0.114 0.065 0.23 0.116 0.346 0.149s0.232 0.058 0.347 0.073c0.05 0 0.108 0.005 0.174 0.013 0.065 0.007 0.126 0.011 0.174 0.011 0.43-0.015 0.838-0.135 1.227-0.359 0.389-0.222 0.681-0.549 0.88-0.977l2.08-4.336v12.213c0 0.646 0.229 1.199 0.683 1.662 0.453 0.462 1 0.692 1.647 0.692 0.645 0 1.197-0.23 1.659-0.692 0.462-0.463 0.694-1.017 0.694-1.662v-11.124h0.444v3.469c0 0.643 0.232 1.192 0.694 1.646 0.463 0.456 1.018 0.683 1.661 0.683 0.645 0 1.197-0.227 1.659-0.683 0.464-0.454 0.694-1 0.694-1.646v-3.469h0.446v3.469c0 0.643 0.23 1.192 0.694 1.646 0.462 0.456 1.014 0.683 1.659 0.683 0.644 0 1.193-0.227 1.647-0.683 0.456-0.454 0.682-1 0.682-1.646v-3.469h0.472v1.71c0 0.645 0.227 1.192 0.681 1.647 0.455 0.453 1 0.681 1.647 0.681 0.646 0 1.197-0.228 1.659-0.681 0.464-0.454 0.695-1 0.695-1.647v-8.325c0-0.232-0.037-0.491-0.111-0.78" id="6"/>
  <path d="m-10.645-1.826v-10.549h20.932v10.676l1.126 1.276-3.1 3.443v9.355h-3.38v-5.356l-4.347 5.272-11.994-12.714 0.763-1.403" id="7"/>
  <path d="m12.416-0.007c0-3.415-1.21-6.332-3.627-8.746-2.421-2.414-5.337-3.621-8.754-3.621-3.419 0-6.337 1.207-8.756 3.621s-3.628 5.331-3.628 8.746c0 3.419 1.209 6.336 3.628 8.757 2.419 2.418 5.337 3.626 8.756 3.626 3.417 0 6.333-1.208 8.754-3.626 2.417-2.421 3.627-5.338 3.627-8.757m-2.024 0c0 2.864-1.01 5.309-3.03 7.335-2.02 2.025-4.464 3.039-7.325 3.039-2.864 0-5.308-1.014-7.335-3.039-2.026-2.026-3.037-4.471-3.037-7.335 0-2.861 1.01-5.305 3.037-7.325s4.471-3.03 7.335-3.03c2.861 0 5.304 1.01 7.325 3.03 2.02 2.02 3.03 4.464 3.03 7.325m-7.818 6.382c0-0.655-0.25-1.216-0.749-1.679-0.498-0.463-1.096-0.695-1.79-0.695-0.708 0-1.308 0.232-1.801 0.695s-0.74 1.023-0.74 1.679c0 0.654 0.247 1.213 0.74 1.677 0.494 0.465 1.093 0.698 1.801 0.698 0.694 0 1.292-0.233 1.79-0.698 0.499-0.464 0.749-1.023 0.749-1.677m-0.468-15.633h-4.16v11.792h4.16v-11.792" id="8"/>
  <path d="m4.239-3.868h-1.585v-8.499h-2.106v8.499h-1.14v-8.499h-2.057v8.499h-1.61v8.522c0 0.562 0.265 1.153 0.792 1.771 0.529 0.62 1.123 1.012 1.784 1.178 0.843 0.213 1.404 0.321 1.685 0.321 0.793 0 1.545-0.19 2.254-0.57 0.86-0.446 1.453-1.073 1.784-1.884 0.133-0.313 0.199-0.567 0.199-0.767v-8.571m-2.378 14.393c0-0.529-0.188-0.967-0.558-1.313s-0.806-0.521-1.301-0.521c-0.529 0-0.971 0.184-1.324 0.546-0.356 0.365-0.533 0.784-0.533 1.264 0 0.495 0.189 0.933 0.568 1.314 0.381 0.379 0.811 0.568 1.289 0.568 0.512 0 0.95-0.193 1.314-0.583 0.364-0.388 0.545-0.812 0.545-1.275" id="9"/>
  <path d="m4.36-10.3c0-0.691-0.639-1.215-1.911-1.57-0.908-0.262-1.831-0.39-2.772-0.39-0.938 0-1.86 0.128-2.769 0.39-1.264 0.355-1.896 0.879-1.896 1.57 0 0.526 0.4 0.988 1.201 1.376 0.667 0.313 1.305 0.472 1.91 0.472 0.085 0 0.239-0.351 0.46-1.046 0.221-0.696 0.538-1.046 0.947-1.046 0.25 0 0.412 0.361 0.487 1.079 0.076 0.717 0.19 1.076 0.341 1.076 0.657 0 1.442-0.168 2.348-0.502 1.105-0.409 1.654-0.882 1.654-1.409m0.584 20.33-7.29-5.265 2.121-14.417c-0.15-0.218-0.319-0.325-0.501-0.325-0.174 0-0.282 0.15-0.325 0.453l-2.916 21.383c-0.054 0.423 0.055 0.633 0.325 0.633 0.14 0 0.313-0.821 0.517-2.462 1.945-0.033 4.635-0.033 8.07 0" id="A"/>
  <path d="m4.581-12.375-5.769 10.02-4.01-3.984-2.476 18.71l14.976-11.484-5.446-1.484 5.769-10.03-3.046-1.757" id="B"/>
  <path d="m4.721-5.92 1.935-4.188c-2.087-1.438-4.336-2.181-6.742-2.225-2.316-0.059-4.407 0.529-6.278 1.762-1.434 0.947-2.552 2.2-3.352 3.759-0.83 1.625-1.213 3.382-1.148 5.263l-2.354-1.01 2.522 6.582 4.392-3.662-2.12-0.912c0.125-2.47 1.272-4.418 3.445-5.854 2.789-1.84 6.02-1.676 9.7 0.484m1.658 16.553c1.434-0.945 2.555-2.193 3.359-3.742 0.833-1.626 1.213-3.387 1.141-5.279l2.341 1.018-2.509-6.59-4.392 3.66 2.116 0.914c-0.122 2.469-1.27 4.418-3.445 5.853-2.787 1.84-6.02 1.677-9.696-0.485l-1.936 4.188c2.095 1.451 4.346 2.199 6.752 2.242 2.31 0.05 4.398-0.544 6.269-1.779" id="C"/>
  <path d="m11.979 4.782c0-4.531-1.119-8.348-3.364-11.449-2.148-2.979-5.02-4.894-8.613-5.743-3.589 0.85-6.458 2.765-8.612 5.743-2.239 3.102-3.362 6.918-3.362 11.449 0 1.653 0.352 3.233 1.054 4.74 0.543 1.178 1.189 2.118 1.936 2.819 1.665-1.031 3.313-1.546 4.944-1.546 1.63 0 2.978 0.503 4.04 1.512 1.065-1.01 2.414-1.512 4.046-1.512s3.277 0.515 4.942 1.546c0.746-0.701 1.393-1.642 1.938-2.819 0.698-1.506 1.05-3.086 1.05-4.74" id="D"/>
  <path d="m9.806 0.011c0 1.799-0.125 1.447-1.974 1.447-0.247 0-0.128 3.181-0.13 3.572-0.01 2.108-0.768 3.914-2.368 5.351-2.458 2.204-6.337 2.471-9.293 1.164-1.816-0.804-3.59-2.496-3.957-4.543-0.236-1.321 0-2.895 0-4.234 0-1.623-0.119-1.31-1.771-1.31 0-4.03-1.228-9.409 2.647-12.07 3.194-2.189 8.525-2.18 12.11-1.089 5.418 1.649 4.737 7.213 4.737 11.708m-5.76 1.464h-8.292v4.952l0.086 0.354 0.105 0.304 0.189 0.305 0.147 0.32 0.189 0.238 0.381 0.404 0.485 0.272 0.507 0.302 0.568 0.203 0.57 0.151 0.758 0.085 0.57-0.033 0.781-0.152 0.486-0.118 0.442-0.153 0.251-0.186 0.381-0.203 0.149-0.152 0.168-0.149 0.215-0.169 0.128-0.187 0.168-0.17 0.189-0.236 0.085-0.253 0.104-0.271 0.125-0.288 0.064-0.219v-4.951" id="E"/>
  <path d="m-11.939 7.452-2.048-4.965h-0.789c-1.419 0-2.129-0.557-2.129-1.663v-10.704h2.026v1.743c0 1.339 0.449 2.483 1.348 3.437 0.899 0.952 1.984 1.43 3.255 1.43 1.675 0 2.945-0.812 3.81-2.434v14.17h-3.951c-0.731 0-1.236-0.337-1.522-1.014m1.663-11.797c-1.054 0-1.953-0.392-2.695-1.176-0.745-0.784-1.116-1.731-1.116-2.838s0.371-2.055 1.116-2.841c0.742-0.78 1.642-1.174 2.695-1.174s1.951 0.394 2.695 1.174c0.742 0.786 1.114 1.733 1.114 2.841 0 1.106-0.372 2.054-1.114 2.838-0.744 0.785-1.642 1.176-2.695 1.176m4.518 16.724v-22.259h12.589l0.021 1.743c0 1.339 0.449 2.483 1.349 3.437 0.896 0.952 1.983 1.43 3.254 1.43 1.269 0 2.355-0.478 3.262-1.43 0.907-0.953 1.359-2.098 1.359-3.437v-1.743h0.95v22.259h-22.784m17.272-16.724c-1.056 0-1.954-0.392-2.697-1.176s-1.114-1.731-1.114-2.837c0-1.107 0.371-2.055 1.113-2.841 0.743-0.78 1.642-1.174 2.697-1.174 1.039 0 1.935 0.394 2.687 1.174 0.75 0.786 1.125 1.733 1.125 2.841 0 1.106-0.375 2.054-1.125 2.838-0.752 0.784-1.647 1.175-2.686 1.175" id="F"/>
  <path d="m2.363-1.698v-10.661h-4.727v10.661h-2.029v3.646c0 1.221 0.429 2.259 1.287 3.118 0.857 0.857 1.889 1.286 3.094 1.286 1.221 0 2.26-0.429 3.119-1.286 0.857-0.859 1.285-1.897 1.285-3.118v-3.646h-2.029m-0.431 9.413c-0.536-0.528-1.184-0.792-1.944-0.792-0.758 0-1.402 0.264-1.931 0.792-0.528 0.526-0.792 1.171-0.792 1.93s0.264 1.407 0.792 1.943 1.173 0.804 1.931 0.804c0.76 0 1.407-0.268 1.943-0.804s0.804-1.185 0.804-1.943-0.267-1.403-0.803-1.93" id="G"/>
  <path d="m9.577-1.609-2 4.332v1.436c-0.066 2.309-0.937 4.271-2.61 5.889-1.676 1.616-3.668 2.426-5.979 2.426-2.359 0-4.376-0.842-6.05-2.524-1.674-1.684-2.512-3.705-2.512-6.06 0-1.535 0.371-2.942 1.114-4.221 0.742-1.278 1.724-2.297 2.945-3.058v-8.885h9.08v5.199h3.291l0.718 0.715v1.314l0.792 0.792-0.593 0.618 0.594 0.595-0.322 0.791h1.534v0.644" id="H"/>
  <path d="m1.367-0.479v-0.022c0-0.463-0.167-0.711-0.497-0.742-0.197-0.037-0.379-0.053-0.544-0.053-0.199 0-0.454 0.033-0.768 0.1-0.313 0-0.47-0.297-0.47-0.893 0-0.063 0.033-0.368 0.099-0.914h-1.237c-0.677 0-1.016-0.116-1.016-0.348 0-0.13 0.059-0.226 0.174-0.284 0.116-0.058 0.223-0.111 0.321-0.161 1.04-0.693 1.559-1.146 1.559-1.36 0-0.183-0.062-0.309-0.184-0.383-0.124-0.075-0.261-0.154-0.408-0.236-0.315-0.215-0.471-0.429-0.471-0.643 0-0.101 0.008-0.238 0.025-0.421v-0.421c0-0.216-0.018-0.404-0.051-0.57-0.032-0.163-0.139-0.3-0.32-0.408-0.182-0.105-0.331-0.16-0.445-0.16h-0.05l-3.243 0.842v-3.12h-5.741v22.646c0.445 0.103 0.89 0.199 1.335 0.299 0.446 0.098 0.926 0.147 1.437 0.147 2.358 0 4.447-0.717 6.263-2.152 1.882-1.5 2.821-3.3 2.821-5.395 0-0.396-0.025-0.743-0.075-1.041 0-0.1-0.037-0.263-0.112-0.495-0.073-0.23-0.11-0.363-0.11-0.396 0-0.181 0.286-0.692 0.854-1.534 0.568-0.841 0.854-1.467 0.854-1.882m3.935-0.519c0-2.708-0.849-5.074-2.551-7.104l-0.891 0.743c1.52 1.765 2.278 3.879 2.278 6.336 0 1.551-0.389 3.102-1.164 4.654 0.348 0.23 0.702 0.421 1.065 0.57 0.841-1.849 1.263-3.582 1.263-5.199m3.316-0.074c0-3.333-1.114-6.378-3.342-9.134-0.065 0.05-0.38 0.306-0.939 0.768 2.077 2.458 3.117 5.273 3.117 8.44 0 2.243-0.536 4.324-1.609 6.237 0.248 0.15 0.595 0.314 1.041 0.494 0.545-0.84 0.975-1.914 1.286-3.217 0.298-1.221 0.446-2.417 0.446-3.588m3.291 0.174c0-4.291-1.361-8.103-4.084-11.437-0.23 0.183-0.551 0.446-0.965 0.792 2.559 3.087 3.836 6.592 3.836 10.52 0 2.706-0.661 5.313-1.981 7.822 0.464 0.263 0.811 0.445 1.042 0.545 1.434-2.411 2.152-5.158 2.152-8.242" id="I"/>
  <path d="m5.35-2.246c0.313 0.131 0.553 0.247 0.717 0.347l-3.716 8.868h-4.755l-3.669-8.868 0.793-0.271 3.27 6.316 0.495-2.849-3.368-6.071h3.368l1.142-8.3h0.991l0.917 8.3h3.295l-3.323 6.071 0.497 2.849 3.346-6.392m-5.477 11.227c0.511 0 0.975 0.195 1.389 0.583 0.412 0.388 0.618 0.871 0.618 1.45 0 0.546-0.189 1.024-0.57 1.437-0.379 0.413-0.858 0.62-1.437 0.62-0.596 0-1.083-0.207-1.462-0.62-0.379-0.412-0.57-0.891-0.57-1.437 0-0.529 0.191-1 0.57-1.413 0.379-0.412 0.866-0.62 1.462-0.62" id="J"/>
  <linearGradient y2="-12.373" x2="0" y1="12.379" gradientUnits="userSpaceOnUse" xlink:href="#d" id="k"/>
  <linearGradient y2="12.293" x2="0" y1="-12.457" gradientUnits="userSpaceOnUse" xlink:href="#r" id="j"/>
  <linearGradient gradientUnits="userSpaceOnUse" y2="-12.375" x2="0" y1="-7.64" id="d">
   <stop stop-opacity="0.77" stop-color="#ffffff" id="stop29"/>
   <stop offset="0.45" stop-opacity="0" stop-color="#ffffff" id="stop31"/>
   <stop offset="0.467" stop-opacity="0.005" stop-color="#dfdfdf" id="stop33"/>
   <stop offset="0.491" stop-opacity="0.012" stop-color="#b7b7b7" id="stop35"/>
   <stop offset="0.519" stop-opacity="0.02" stop-color="#929292" id="stop37"/>
   <stop offset="0.548" stop-opacity="0.029" stop-color="#737373" id="stop39"/>
   <stop offset="0.581" stop-opacity="0.038" stop-color="#585858" id="stop41"/>
   <stop offset="0.619" stop-opacity="0.049" stop-color="#424242" id="stop43"/>
   <stop offset="0.662" stop-opacity="0.062" stop-color="#323232" id="stop45"/>
   <stop offset="0.716" stop-opacity="0.077" stop-color="#272727" id="stop47"/>
   <stop offset="0.791" stop-opacity="0.099" stop-color="#202020" id="stop49"/>
   <stop offset="1" stop-opacity="0.16" stop-color="#1e1e1e" id="stop51"/>
  </linearGradient>
  <linearGradient y2="12.16" x2="0" y1="-12.591" gradientUnits="userSpaceOnUse" xlink:href="#r" id="i"/>
  <linearGradient y2="-12.457" x2="0" y1="12.293" gradientUnits="userSpaceOnUse" xlink:href="#d" id="h"/>
  <linearGradient y2="-12.417" x2="0" y1="12.335" gradientUnits="userSpaceOnUse" xlink:href="#d" id="e"/>
  <linearGradient y2="12.591" x2="0" y1="-12.16" gradientUnits="userSpaceOnUse" xlink:href="#r" id="g"/>
  <linearGradient y2="-12.34" x2="0" y1="12.412" gradientUnits="userSpaceOnUse" xlink:href="#d" id="f"/>
  <linearGradient y2="12.16" x2="0" y1="-12.591" gradientUnits="userSpaceOnUse" xlink:href="#s" id="l"/>
  <linearGradient y2="-7.64" x2="0" y1="-12.375" gradientUnits="userSpaceOnUse" xlink:href="#r" id="m"/>
  <linearGradient y2="12.384" x2="0" y1="-12.367" gradientUnits="userSpaceOnUse" xlink:href="#r" id="t"/>
  <linearGradient y2="12.414" x2="0" y1="-12.336" gradientUnits="userSpaceOnUse" xlink:href="#r" id="v"/>
  <linearGradient y2="12.342" x2="0" y1="-12.41" gradientUnits="userSpaceOnUse" xlink:href="#r" id="u"/>
  <linearGradient gradientUnits="userSpaceOnUse" y2="12.412" x2="0" y1="-12.34" id="s">
   <stop stop-color="#444444" id="stop64"/>
   <stop offset="0.618" stop-color="#383838" id="stop66"/>
   <stop offset="0.629" stop-color="#3c3c3c" id="stop68"/>
   <stop offset="0.983" stop-color="#4c4c4c" id="stop70"/>
  </linearGradient>
  <linearGradient gradientUnits="userSpaceOnUse" y2="12.412" x2="0" y1="-12.34" id="r">
   <stop stop-opacity="0.22" stop-color="#353535" id="stop73"/>
   <stop offset="0.5" stop-color="#272727" id="stop75"/>
   <stop offset="0.531" stop-opacity="0.946" stop-color="#373737" id="stop77"/>
   <stop offset="0.577" stop-opacity="0.866" stop-color="#4b4b4b" id="stop79"/>
   <stop offset="0.626" stop-opacity="0.781" stop-color="#5d5d5d" id="stop81"/>
   <stop offset="0.676" stop-opacity="0.693" stop-color="#6e6e6e" id="stop83"/>
   <stop offset="0.729" stop-opacity="0.602" stop-color="#7d7d7d" id="stop85"/>
   <stop offset="0.784" stop-opacity="0.506" stop-color="#898989" id="stop87"/>
   <stop offset="0.844" stop-opacity="0.402" stop-color="#939393" id="stop89"/>
   <stop offset="0.911" stop-opacity="0.285" stop-color="#9a9a9a" id="stop91"/>
   <stop offset="1" stop-opacity="0.13" stop-color="#9c9c9c" id="stop93"/>
  </linearGradient>
  <linearGradient y2="12.492" x2="0" y1="-12.26" gradientUnits="userSpaceOnUse" xlink:href="#r" id="o"/>
  <linearGradient y2="12.376" x2="0" y1="-12.374" gradientUnits="userSpaceOnUse" xlink:href="#r" id="q"/>
  <linearGradient y2="12.334" x2="0" y1="-12.417" gradientUnits="userSpaceOnUse" xlink:href="#r" id="p"/>
  <linearGradient y2="12.376" x2="0" y1="-12.374" gradientUnits="userSpaceOnUse" xlink:href="#s" id="n"/>
  <linearGradient y2="-12.591" x2="0" y1="12.16" gradientUnits="userSpaceOnUse" xlink:href="#d" id="S"/>
  <linearGradient y2="12.379" x2="0" y1="-12.373" gradientUnits="userSpaceOnUse" xlink:href="#r" id="P"/>
  <linearGradient y2="12.392" x2="0" y1="-12.359" gradientUnits="userSpaceOnUse" xlink:href="#r" id="R"/>
  <linearGradient y2="12.416" x2="0" y1="-12.335" gradientUnits="userSpaceOnUse" xlink:href="#r" id="Q"/>
  <linearGradient y2="-12.375" x2="0" y1="12.375" gradientUnits="userSpaceOnUse" xlink:href="#d" id="O"/>
  <linearGradient y2="-12.16" x2="0" y1="12.591" gradientUnits="userSpaceOnUse" xlink:href="#d" id="N"/>
  <linearGradient y2="-12.374" x2="0" y1="12.376" gradientUnits="userSpaceOnUse" xlink:href="#d" id="K"/>
  <linearGradient y2="-12.277" x2="0" y1="12.474" gradientUnits="userSpaceOnUse" xlink:href="#d" id="M"/>
  <linearGradient y2="12.379" x2="0" y1="-12.373" gradientUnits="userSpaceOnUse" xlink:href="#s" id="L"/>
  <linearGradient y2="12.375" x2="0" y1="-12.375" gradientUnits="userSpaceOnUse" xlink:href="#r" id="c"/>
  <linearGradient y2="12.474" x2="0" y1="-12.277" gradientUnits="userSpaceOnUse" xlink:href="#r" id="X"/>
  <linearGradient y2="-12.335" x2="0" y1="12.416" gradientUnits="userSpaceOnUse" xlink:href="#d" id="Y"/>
  <linearGradient y2="-12.359" x2="0" y1="12.392" gradientUnits="userSpaceOnUse" xlink:href="#d" id="b"/>
  <linearGradient y2="-12.336" x2="0" y1="12.414" gradientUnits="userSpaceOnUse" xlink:href="#d" id="a"/>
  <linearGradient y2="-13.07" x2="0" y1="13.07" gradientUnits="userSpaceOnUse" xlink:href="#d" id="Z"/>
  <linearGradient y2="-12.41" x2="0" y1="12.342" gradientUnits="userSpaceOnUse" xlink:href="#d" id="T"/>
  <linearGradient y2="-12.367" x2="0" y1="12.384" gradientUnits="userSpaceOnUse" xlink:href="#d" id="U"/>
  <linearGradient y2="13.07" x2="0" y1="-13.07" gradientUnits="userSpaceOnUse" xlink:href="#r" id="W"/>
  <linearGradient y2="-12.26" x2="0" y1="12.492" gradientUnits="userSpaceOnUse" xlink:href="#d" id="V"/>
  <radialGradient r="19.1" gradientTransform="matrix(.9996 -.0276 .0138 .4998 -.112 4.03)" cx="-0.841" cy="8.105" gradientUnits="userSpaceOnUse" xlink:href="#13" id="19"/>
  <radialGradient r="21.647" gradientTransform="matrix(.9996 -.0276 .0138 .4998 -.116 4.141)" cx="-1.415" cy="8.356" gradientUnits="userSpaceOnUse" xlink:href="#13" id="18"/>
  <radialGradient r="21.295" gradientTransform="matrix(.9996 -.0276 .0138 .4998 -.118 4.231)" cx="-1.41" cy="8.535" gradientUnits="userSpaceOnUse" xlink:href="#13" id="17"/>
  <radialGradient r="23.979" gradientTransform="matrix(.9996 -.0276 .0138 .4998 -.114 4.066)" cx="-1.971" cy="8.237" gradientUnits="userSpaceOnUse" xlink:href="#13" id="1A"/>
  <radialGradient r="20.56" gradientTransform="matrix(.9996 -.0276 .0138 .4998 -.116 4.148)" cx="-1.229" cy="8.36" gradientUnits="userSpaceOnUse" xlink:href="#13" id="1E"/>
  <radialGradient r="18.745" gradientTransform="matrix(.9996 -.0276 .0138 .4998 -.115 4.139)" cx="-0.814" cy="8.319" gradientUnits="userSpaceOnUse" xlink:href="#13" id="1B"/>
  <radialGradient r="3.864" gradientTransform="matrix(.9996 -.0276 .0138 .4998 .113 -4.405)" cx="-7.109" cy="-8.416" gradientUnits="userSpaceOnUse" xlink:href="#13" id="16"/>
  <radialGradient r="20.795" gradientTransform="matrix(.9996 -.0276 .0138 .4998 -.115 4.127)" cx="-1.256" cy="8.319" gradientUnits="userSpaceOnUse" xlink:href="#13" id="1C"/>
  <radialGradient r="20.596" gradientTransform="matrix(.9996 -.0276 .0138 .4998 -.115 4.11)" cx="-1.238" cy="8.286" gradientUnits="userSpaceOnUse" xlink:href="#13" id="1D"/>
  <radialGradient r="17.797" gradientTransform="matrix(.9996 -.0276 .0138 .4998 -.115 4.153)" cx="-0.45" cy="8.328" gradientUnits="userSpaceOnUse" xlink:href="#13" id="11"/>
  <radialGradient r="17.956" gradientTransform="matrix(.9996 -.0276 .0138 .4998 -.117 4.205)" cx="-0.536" cy="8.437" gradientUnits="userSpaceOnUse" xlink:href="#13" id="15"/>
  <radialGradient r="17.827" gradientTransform="matrix(.9996 -.0276 .0138 .4998 -.115 4.157)" cx="-0.455" cy="8.336" gradientUnits="userSpaceOnUse" xlink:href="#13" id="y"/>
  <radialGradient r="19.49" gradientTransform="matrix(.9996 -.0276 .0138 .4998 -.116 4.183)" cx="-0.993" cy="8.418" gradientUnits="userSpaceOnUse" xlink:href="#13" id="w"/>
  <radialGradient r="23.407" gradientTransform="matrix(.9996 -.0276 .0138 .4998 -.115 4.117)" cx="-1.697" cy="8.323" gradientUnits="userSpaceOnUse" xlink:href="#13" id="x"/>
  <radialGradient r="19.18" gradientTransform="matrix(.9996 -.0276 .0138 .4998 -.122 4.377)" cx="-0.632" cy="8.787" gradientUnits="userSpaceOnUse" xlink:href="#13" id="z"/>
  <radialGradient r="19.608" gradientTransform="matrix(.9996 -.0276 .0138 .4998 -.115 4.112)" cx="-1.04" cy="8.279" gradientUnits="userSpaceOnUse" xlink:href="#13" id="14"/>
  <radialGradient r="21.236" gradientTransform="matrix(.9996 -.0276 .0138 .4998 -.116 4.143)" cx="-1.369" cy="8.358" gradientUnits="userSpaceOnUse" xlink:href="#13" id="10"/>
  <radialGradient r="19.271" gradientTransform="matrix(.9996 -.0276 .0138 .4998 -.115 4.136)" cx="-0.914" cy="8.319" gradientUnits="userSpaceOnUse" id="13">
   <stop stop-color="#808080" id="stop136"/>
   <stop offset="0.186" stop-opacity="0.933" stop-color="#7e7e7e" id="stop138"/>
   <stop offset="0.525" stop-opacity="0.811" stop-color="#7a7a7a" id="stop140"/>
   <stop offset="0.744" stop-opacity="0.732" stop-color="#767676" id="stop142"/>
   <stop offset="1" stop-opacity="0.64" stop-color="#686868" id="stop144"/>
  </radialGradient>
  <radialGradient r="20.799" gradientTransform="matrix(.9996 -.0276 .0138 .4998 -.115 4.127)" cx="-1.249" cy="8.32" gradientUnits="userSpaceOnUse" xlink:href="#13" id="1F"/>
  <radialGradient r="20.317" gradientTransform="matrix(.9996 -.0276 .0138 .4998 -.115 4.129)" cx="-1.179" cy="8.319" gradientUnits="userSpaceOnUse" xlink:href="#13" id="12"/>
 </defs>
 <g transform="translate(441.07,-33.418)" id="g148">
  <symbol viewBox="-14.006 -13.196 28.013 26.392" id="symbol150">
   <use fill="url(#s)" width="512" height="512" xlink:href="#0" id="use152"/>
   <use fill="url(#r)" width="512" height="512" xlink:href="#0" id="use154"/>
   <g opacity="0.81" id="g156">
    <use fill="url(#18)" width="512" height="512" xlink:href="#0" id="use158"/>
   </g>
   <g opacity="0.7" id="g160">
    <use fill="url(#f)" width="512" height="512" xlink:href="#0" id="use162"/>
   </g>
  </symbol>
  <symbol viewBox="-9.085 -13 18.17 26" id="symbol164">
   <use fill="url(#c)" width="512" height="512" xlink:href="#1" id="use166"/>
   <use fill="url(#13)" width="512" height="512" xlink:href="#1" opacity="0.81" id="use168"/>
   <use fill="url(#O)" width="512" height="512" xlink:href="#1" opacity="0.7" id="use170"/>
   <use fill="url(#m)" width="512" height="512" xlink:href="#2" id="use172"/>
   <use fill="url(#16)" width="512" height="512" xlink:href="#2" opacity="0.81" id="use174"/>
   <use fill="url(#d)" width="512" height="512" xlink:href="#2" opacity="0.7" id="use176"/>
  </symbol>
  <symbol viewBox="-18.023 -13.082 36.047 26.164" id="symbol178">
   <use fill="url(#j)" width="512" height="512" xlink:href="#3" id="use180"/>
   <use fill="url(#1A)" width="512" height="512" xlink:href="#3" opacity="0.81" id="use182"/>
   <use fill="url(#h)" width="512" height="512" xlink:href="#3" opacity="0.7" id="use184"/>
  </symbol>
  <symbol viewBox="-12.408 -12.557 24.817 25.114" id="symbol186">
   <use fill="url(#c)" width="512" height="512" xlink:href="#4" id="use188"/>
   <use fill="url(#1C)" width="512" height="512" xlink:href="#4" opacity="0.81" id="use190"/>
   <use fill="url(#O)" width="512" height="512" xlink:href="#4" opacity="0.7" id="use192"/>
  </symbol>
  <symbol viewBox="-8.71 -13.216 17.421 26.431" id="symbol194">
   <use fill="url(#l)" width="512" height="512" xlink:href="#5" id="use196"/>
   <use fill="url(#i)" width="512" height="512" xlink:href="#5" id="use198"/>
   <g opacity="0.81" id="g200">
    <use fill="url(#19)" width="512" height="512" xlink:href="#5" id="use202"/>
   </g>
   <g opacity="0.7" id="g204">
    <use fill="url(#S)" width="512" height="512" xlink:href="#5" id="use206"/>
   </g>
  </symbol>
  <symbol viewBox="-13.473 -13.109 26.945 26.218" id="symbol208">
   <use fill="url(#g)" width="512" height="512" xlink:href="#6" id="use210"/>
   <g opacity="0.81" id="g212">
    <use fill="url(#17)" width="512" height="512" xlink:href="#6" id="use214"/>
   </g>
   <g opacity="0.7" id="g216">
    <use fill="url(#N)" width="512" height="512" xlink:href="#6" id="use218"/>
   </g>
  </symbol>
  <symbol viewBox="-11.468 -13 22.936 26" id="symbol220">
   <use fill="url(#c)" width="512" height="512" xlink:href="#7" id="use222"/>
   <use fill="url(#12)" width="512" height="512" xlink:href="#7" opacity="0.81" id="use224"/>
   <use fill="url(#O)" width="512" height="512" xlink:href="#7" opacity="0.7" id="use226"/>
  </symbol>
  <symbol viewBox="-12.423 -12.58 24.846 25.16" id="symbol228">
   <use fill="url(#n)" width="512" height="512" xlink:href="#8" id="use230"/>
   <use fill="url(#q)" width="512" height="512" xlink:href="#8" id="use232"/>
   <g opacity="0.81" id="g234">
    <use fill="url(#1F)" width="512" height="512" xlink:href="#8" id="use236"/>
   </g>
   <g opacity="0.7" id="g238">
    <use fill="url(#K)" width="512" height="512" xlink:href="#8" id="use240"/>
   </g>
  </symbol>
  <symbol viewBox="-4.515 -12.992 9.029 25.984" id="symbol242">
   <use fill="url(#t)" width="512" height="512" xlink:href="#9" id="use244"/>
   <g opacity="0.81" id="g246">
    <use fill="url(#11)" width="512" height="512" xlink:href="#9" id="use248"/>
   </g>
   <g opacity="0.7" id="g250">
    <use fill="url(#U)" width="512" height="512" xlink:href="#9" id="use252"/>
   </g>
  </symbol>
  <symbol viewBox="-5.005 -12.966 10.01 25.934" id="symbol254">
   <use fill="url(#o)" width="512" height="512" xlink:href="#A" id="use256"/>
   <g opacity="0.81" id="g258">
    <use fill="url(#15)" width="512" height="512" xlink:href="#A" id="use260"/>
   </g>
   <g opacity="0.7" id="g262">
    <use fill="url(#V)" width="512" height="512" xlink:href="#A" id="use264"/>
   </g>
  </symbol>
  <symbol viewBox="-7.674 -13 15.346 26" id="symbol266">
   <use fill="url(#c)" width="512" height="512" xlink:href="#B" id="use268"/>
   <g opacity="0.81" id="g270">
    <use fill="url(#1B)" width="512" height="512" xlink:href="#B" id="use272"/>
   </g>
   <g opacity="0.7" id="g274">
    <use fill="url(#O)" width="512" height="512" xlink:href="#B" id="use276"/>
   </g>
  </symbol>
  <symbol viewBox="-13.234 -12.959 26.468 25.918" id="symbol278">
   <use fill="url(#v)" width="512" height="512" xlink:href="#C" id="use280"/>
   <g opacity="0.81" id="g282">
    <use fill="url(#10)" width="512" height="512" xlink:href="#C" id="use284"/>
   </g>
   <g opacity="0.7" id="g286">
    <use fill="url(#a)" width="512" height="512" xlink:href="#C" id="use288"/>
   </g>
  </symbol>
  <symbol viewBox="-11.989 -12.933 23.978 25.865" id="symbol290">
   <use fill="url(#u)" width="512" height="512" xlink:href="#D" id="use292"/>
   <g opacity="0.81" id="g294">
    <use fill="url(#1D)" width="512" height="512" xlink:href="#D" id="use296"/>
   </g>
   <g opacity="0.7" id="g298">
    <use fill="url(#T)" width="512" height="512" xlink:href="#D" id="use300"/>
   </g>
  </symbol>
  <symbol viewBox="-9.887 -13.095 19.774 26.191" id="symbol302">
   <use fill="url(#p)" width="512" height="512" xlink:href="#E" id="use304"/>
   <g opacity="0.81" id="g306">
    <use fill="url(#14)" width="512" height="512" xlink:href="#E" id="use308"/>
   </g>
   <g opacity="0.7" id="g310">
    <use fill="url(#e)" width="512" height="512" xlink:href="#E" id="use312"/>
   </g>
  </symbol>
  <symbol viewBox="-17.032 -13.004 34.063 26.008" id="symbol314">
   <use fill="url(#L)" width="512" height="512" xlink:href="#F" id="use316"/>
   <use fill="url(#P)" width="512" height="512" xlink:href="#F" id="use318"/>
   <g opacity="0.81" id="g320">
    <use fill="url(#x)" width="512" height="512" xlink:href="#F" id="use322"/>
   </g>
   <g opacity="0.7" id="g324">
    <use fill="url(#k)" width="512" height="512" xlink:href="#F" id="use326"/>
   </g>
  </symbol>
  <symbol viewBox="-4.418 -12.984 8.836 25.968" id="symbol328">
   <use fill="url(#R)" width="512" height="512" xlink:href="#G" id="use330"/>
   <g opacity="0.81" id="g332">
    <use fill="url(#y)" width="512" height="512" xlink:href="#G" id="use334"/>
   </g>
   <g opacity="0.7" id="g336">
    <use fill="url(#b)" width="512" height="512" xlink:href="#G" id="use338"/>
   </g>
  </symbol>
  <symbol viewBox="-9.623 -12.902 19.247 25.805" id="symbol340">
   <use fill="url(#X)" width="512" height="512" xlink:href="#H" id="use342"/>
   <use fill="url(#w)" width="512" height="512" xlink:href="#H" opacity="0.81" id="use344"/>
   <use fill="url(#M)" width="512" height="512" xlink:href="#H" opacity="0.7" id="use346"/>
  </symbol>
  <symbol viewBox="-11.915 -12.868 23.829 25.735" id="symbol348">
   <use fill="url(#Q)" width="512" height="512" xlink:href="#I" id="use350"/>
   <g opacity="0.81" id="g352">
    <use fill="url(#1E)" width="512" height="512" xlink:href="#I" id="use354"/>
   </g>
   <g opacity="0.7" id="g356">
    <use fill="url(#Y)" width="512" height="512" xlink:href="#I" id="use358"/>
   </g>
  </symbol>
  <symbol viewBox="-6.073 -13.074 12.14 26.145" id="symbol360">
   <use fill="url(#W)" width="512" height="512" xlink:href="#J" id="use362"/>
   <g opacity="0.81" id="g364">
    <use fill="url(#z)" width="512" height="512" xlink:href="#J" id="use366"/>
   </g>
   <g opacity="0.7" id="g368">
    <use fill="url(#Z)" width="512" height="512" xlink:href="#J" id="use370"/>
   </g>
  </symbol>
 </g>
 <g line-height="125%" font-size="208.33" font-family="Gentium Book Basic" id="g372" word-spacing="0" letter-spacing="0">
  <text x="-2120.66" y="559.52" id="text374"><tspan x="-2120.66" y="559.52" id="tspan376"/>
  </text>
  <text x="-2413.74" y="401.68" id="text378"><tspan x="-2413.74" y="401.68" id="tspan380"/>
  </text>
 </g>
 <g fill-rule="evenodd" id="g382">
  <path d="m471.95 253.05c0 120.9-98.01 218.9-218.9 218.9-120.9 0-218.9-98.01-218.9-218.9 0-120.9 98.01-218.9 218.9-218.9 120.9 0 218.9 98.01 218.9 218.9" fill="#5a5a5a" id="path384"/>
  <path d="m317.59 111.81c-20.954 1.229-43.801 20.321-50.41 25.03-9.792 8.229-17.212 12.968-26.344 21.875-31.764 32.35-8.967 9.27-28.844 29.06-1.327 0.43-2.617 0.9-3.906 1.406-0.437-0.465-0.88-0.905-1.344-1.344-0.541-0.583-1.104-1.146-1.688-1.688-0.005-0.005 0.005-0.026 0-0.031-0.173-0.161-0.355-0.312-0.531-0.469-0.212-0.215-0.407-0.448-0.625-0.656-0.578-0.63-1.186-1.231-1.813-1.813-0.483-0.511-0.984-1.021-1.5-1.5-0.418-0.443-0.838-0.863-1.281-1.281-0.541-0.583-1.104-1.146-1.688-1.688-0.005-0.005 0.005-0.026 0-0.031-0.173-0.161-0.355-0.312-0.531-0.469-0.212-0.215-0.407-0.448-0.625-0.656-0.578-0.63-1.186-1.231-1.813-1.813-0.483-0.511-0.984-1.021-1.5-1.5-5.828-6.17-14.06-10.03-23.22-10.03-17.64 0-31.938 14.297-31.938 31.938 0 9.334 3.991 17.754 10.375 23.594 0.342 0.357 0.673 0.722 1.031 1.063 0.615 0.667 1.268 1.294 1.938 1.906 0.488 0.509 0.98 1.024 1.5 1.5 0.482 0.502 0.955 0.999 1.469 1.469 0.49 0.511 0.977 1.022 1.5 1.5 0.342 0.357 0.673 0.722 1.031 1.063 0.615 0.667 1.268 1.294 1.938 1.906 0.488 0.509 0.98 1.024 1.5 1.5 0.482 0.502 0.955 0.999 1.469 1.469 0.49 0.511 0.977 1.022 1.5 1.5 0.342 0.357 0.673 0.722 1.031 1.063 0.615 0.667 1.268 1.294 1.938 1.906 0.192 0.2 0.397 0.398 0.594 0.594-0.325 1.581-0.599 3.193-0.813 4.813-4.711-1.402-9.709-2.188-14.875-2.188-28.793 0-52.12 23.363-52.12 52.16 0 14.922 6.267 28.375 16.313 37.875 0.395 0.404 0.78 0.827 1.188 1.219 0.391 0.407 0.814 0.793 1.219 1.188 0.669 0.708 1.355 1.393 2.063 2.063 0.299 0.306 0.6 0.607 0.906 0.906 0.644 0.681 1.289 1.355 1.969 2 0.421 0.433 0.846 0.863 1.281 1.281 0.391 0.407 0.814 0.793 1.219 1.188 0.669 0.708 1.355 1.393 2.063 2.063 0.299 0.306 0.6 0.607 0.906 0.906 0.644 0.681 1.289 1.355 1.969 2 0.421 0.433 0.846 0.863 1.281 1.281 0.391 0.407 0.814 0.793 1.219 1.188 0.669 0.708 1.355 1.393 2.063 2.063 0.299 0.306 0.6 0.607 0.906 0.906 0.644 0.681 1.289 1.355 1.969 2 0.421 0.433 0.846 0.863 1.281 1.281 0.391 0.407 0.814 0.793 1.219 1.188 0.669 0.708 1.355 1.393 2.063 2.063 0.299 0.306 0.6 0.607 0.906 0.906 0.644 0.681 1.289 1.355 1.969 2 0.421 0.433 0.846 0.863 1.281 1.281 0.391 0.407 0.814 0.793 1.219 1.188 0.669 0.708 1.355 1.393 2.063 2.063 0.299 0.306 0.6 0.607 0.906 0.906 0.644 0.681 1.289 1.355 1.969 2 0.421 0.433 0.846 0.863 1.281 1.281 0.391 0.407 0.814 0.793 1.219 1.188 0.669 0.708 1.355 1.393 2.063 2.063 0.299 0.306 0.6 0.607 0.906 0.906 0.644 0.681 1.289 1.355 1.969 2 0.421 0.433 0.846 0.863 1.281 1.281 0.391 0.407 0.814 0.793 1.219 1.188 0.669 0.708 1.355 1.393 2.063 2.063 0.328 0.336 0.663 0.673 1 1 0.615 0.647 1.228 1.291 1.875 1.906 0.421 0.433 0.846 0.863 1.281 1.281 0.391 0.407 0.814 0.793 1.219 1.188 0.669 0.708 1.355 1.393 2.063 2.063 0.395 0.404 0.78 0.827 1.188 1.219 0.485 0.505 0.995 0.983 1.5 1.469 0.486 0.505 0.963 1.015 1.469 1.5 0.391 0.407 0.814 0.793 1.219 1.188 0.669 0.708 1.355 1.393 2.063 2.063 0.395 0.404 0.78 0.827 1.188 1.219 0.418 0.436 0.848 0.86 1.281 1.281 0.615 0.647 1.259 1.26 1.906 1.875 0.327 0.337 0.664 0.672 1 1 0.669 0.708 1.355 1.393 2.063 2.063 0.395 0.404 0.78 0.827 1.188 1.219 0.418 0.436 0.848 0.86 1.281 1.281 0.645 0.679 1.319 1.325 2 1.969 0.299 0.306 0.6 0.607 0.906 0.906 0.669 0.708 1.355 1.393 2.063 2.063 0.395 0.404 0.78 0.827 1.188 1.219 0.418 0.436 0.848 0.86 1.281 1.281 0.645 0.679 1.319 1.325 2 1.969 0.299 0.306 0.6 0.607 0.906 0.906 0.669 0.708 1.355 1.393 2.063 2.063 0.395 0.404 0.78 0.827 1.188 1.219 0.418 0.436 0.848 0.86 1.281 1.281 0.645 0.679 1.319 1.325 2 1.969 0.299 0.306 0.6 0.607 0.906 0.906 0.669 0.708 1.355 1.393 2.063 2.063 0.395 0.404 0.78 0.827 1.188 1.219 0.418 0.436 0.848 0.86 1.281 1.281 0.645 0.679 1.319 1.325 2 1.969 0.299 0.306 0.6 0.607 0.906 0.906 0.669 0.708 1.355 1.393 2.063 2.063 0.395 0.404 0.78 0.827 1.188 1.219 0.418 0.436 0.848 0.86 1.281 1.281 0.645 0.679 1.319 1.325 2 1.969 0.299 0.306 0.6 0.607 0.906 0.906 0.669 0.708 1.355 1.393 2.063 2.063 0.395 0.404 0.78 0.827 1.188 1.219 0.418 0.436 0.848 0.86 1.281 1.281 0.645 0.679 1.319 1.325 2 1.969 0.299 0.306 0.6 0.607 0.906 0.906 0.669 0.708 1.355 1.393 2.063 2.063 0.395 0.404 0.78 0.827 1.188 1.219 0.391 0.407 0.814 0.793 1.219 1.188 0.669 0.708 1.355 1.393 2.063 2.063 0.299 0.306 0.6 0.607 0.906 0.906 0.669 0.708 1.355 1.393 2.063 2.063 0.395 0.404 0.78 0.827 1.188 1.219 0.391 0.407 0.814 0.793 1.219 1.188 0.669 0.708 1.355 1.393 2.063 2.063 0.299 0.306 0.6 0.607 0.906 0.906 0.669 0.708 1.355 1.393 2.063 2.063 0.395 0.404 0.78 0.827 1.188 1.219 0.391 0.407 0.814 0.793 1.219 1.188 0.669 0.708 1.355 1.393 2.063 2.063 0.299 0.306 0.6 0.607 0.906 0.906 0.669 0.708 1.355 1.393 2.063 2.063 0.395 0.404 0.78 0.827 1.188 1.219 0.391 0.407 0.814 0.793 1.219 1.188 0.101 0.107 0.21 0.206 0.313 0.313 117.56-1.761 212.66-96.18 215.5-213.47-0.15-0.132-0.309-0.26-0.469-0.375-0.127-0.205-0.006-0.001-0.219-0.344-0.394-0.437-0.832-0.802-1.281-1.125-0.128-0.206-0.004 0.002-0.219-0.344-0.394-0.437-0.801-0.833-1.25-1.156-0.127-0.205-0.006-0.001-0.219-0.344-0.394-0.437-0.832-0.802-1.281-1.125-0.13-0.21 0.008-0.01-0.219-0.375-0.394-0.437-0.832-0.802-1.281-1.125-0.127-0.205-0.005 0-0.219-0.344-0.394-0.437-0.801-0.833-1.25-1.156-0.127-0.205-0.006-0.001-0.219-0.344-0.394-0.437-0.832-0.802-1.281-1.125-0.128-0.206-0.004 0.002-0.219-0.344-0.394-0.437-0.801-0.833-1.25-1.156-0.127-0.205-0.006-0.001-0.219-0.344-0.394-0.437-0.832-0.802-1.281-1.125-0.13-0.21 0.008-0.01-0.219-0.375-0.394-0.437-0.832-0.802-1.281-1.125-0.127-0.205-0.005 0-0.219-0.344-0.394-0.437-0.801-0.833-1.25-1.156-0.127-0.205-0.006-0.001-0.219-0.344-0.394-0.437-0.832-0.802-1.281-1.125-0.128-0.206-0.004 0.002-0.219-0.344-0.394-0.437-0.801-0.833-1.25-1.156-0.127-0.205-0.006-0.001-0.219-0.344-0.394-0.437-0.832-0.802-1.281-1.125-0.13-0.21 0.008-0.01-0.219-0.375-0.394-0.437-0.832-0.802-1.281-1.125-0.127-0.205-0.005 0-0.219-0.344-0.394-0.437-0.801-0.833-1.25-1.156-0.127-0.205-0.006-0.001-0.219-0.344-0.394-0.437-0.832-0.802-1.281-1.125-0.128-0.206-0.004 0.002-0.219-0.344-0.394-0.437-0.801-0.833-1.25-1.156-0.127-0.205-0.006-0.001-0.219-0.344-0.394-0.437-0.832-0.802-1.281-1.125-0.13-0.21 0.008-0.01-0.219-0.375-0.394-0.437-0.832-0.802-1.281-1.125-0.127-0.205-0.005 0-0.219-0.344-0.394-0.437-0.801-0.833-1.25-1.156-0.127-0.205-0.006-0.001-0.219-0.344-0.394-0.437-0.832-0.802-1.281-1.125-0.128-0.206-0.004 0.002-0.219-0.344v-0.031c-0.394-0.437-0.801-0.802-1.25-1.125-0.127-0.205-0.006-0.001-0.219-0.344-0.394-0.437-0.832-0.802-1.281-1.125-0.13-0.21 0.008-0.01-0.219-0.375-0.394-0.437-0.832-0.802-1.281-1.125-0.128-0.206-0.004 0.002-0.219-0.344-0.394-0.437-0.801-0.833-1.25-1.156-0.127-0.205-0.006-0.001-0.219-0.344-0.394-0.437-0.832-0.802-1.281-1.125-0.13-0.21 0.008-0.01-0.219-0.375-0.394-0.437-0.801-0.802-1.25-1.125-0.127-0.205-0.006-0.001-0.219-0.344-0.394-0.437-0.832-0.802-1.281-1.125-0.13-0.21 0.008-0.01-0.219-0.375-0.394-0.437-0.832-0.802-1.281-1.125-0.128-0.206-0.004 0.002-0.219-0.344-0.394-0.437-0.801-0.833-1.25-1.156-0.127-0.205-0.006-0.001-0.219-0.344-0.394-0.437-0.832-0.802-1.281-1.125-0.13-0.21 0.008-0.01-0.219-0.375-0.394-0.437-0.801-0.802-1.25-1.125-0.127-0.205-0.006-0.001-0.219-0.344-0.394-0.437-0.832-0.802-1.281-1.125-0.13-0.21 0.008-0.01-0.219-0.375-0.394-0.437-0.832-0.802-1.281-1.125-0.128-0.206-0.004 0.002-0.219-0.344-0.394-0.437-0.801-0.833-1.25-1.156-0.127-0.205-0.006-0.001-0.219-0.344-0.394-0.437-0.832-0.802-1.281-1.125-0.13-0.21 0.008-0.01-0.219-0.375-0.394-0.437-0.801-0.802-1.25-1.125-0.127-0.205-0.006-0.001-0.219-0.344-0.394-0.437-0.832-0.802-1.281-1.125-0.13-0.21 0.008-0.01-0.219-0.375-0.394-0.437-0.832-0.802-1.281-1.125-0.128-0.206-0.004 0.002-0.219-0.344-0.394-0.437-0.801-0.833-1.25-1.156-0.127-0.205-0.006-0.001-0.219-0.344-0.394-0.437-0.832-0.802-1.281-1.125-0.13-0.21 0.008-0.01-0.219-0.375-0.394-0.437-0.801-0.802-1.25-1.125-0.127-0.205-0.006-0.001-0.219-0.344-0.394-0.437-0.832-0.833-1.281-1.156-0.127-0.205-0.006-0.001-0.219-0.344-0.394-0.437-0.832-0.802-1.281-1.125-0.128-0.206-0.004 0.002-0.219-0.344-0.394-0.437-0.801-0.833-1.25-1.156-0.127-0.205-0.006-0.001-0.219-0.344-0.394-0.437-0.832-0.802-1.281-1.125-0.13-0.21 0.008-0.01-0.219-0.375-0.394-0.437-0.801-0.802-1.25-1.125-0.127-0.205-0.006-0.001-0.219-0.344-0.394-0.437-0.832-0.833-1.281-1.156-0.127-0.205-0.006-0.001-0.219-0.344-0.394-0.437-0.832-0.802-1.281-1.125-0.128-0.206-0.004 0.002-0.219-0.344-0.394-0.437-0.801-0.833-1.25-1.156-0.127-0.205-0.006-0.001-0.219-0.344-0.394-0.437-0.832-0.802-1.281-1.125-0.13-0.21 0.008-0.01-0.219-0.375-0.378-0.419-0.789-0.779-1.219-1.094-0.132-0.213-0.014 0.004-0.25-0.375-0.394-0.437-0.832-0.833-1.281-1.156-0.127-0.205-0.006-0.001-0.219-0.344-0.394-0.437-0.832-0.802-1.281-1.125-0.128-0.206-0.004 0.002-0.219-0.344-0.394-0.437-0.801-0.833-1.25-1.156-0.127-0.205-0.006-0.001-0.219-0.344-0.394-0.437-0.832-0.802-1.281-1.125-0.13-0.21 0.008-0.01-0.219-0.375-0.378-0.419-0.789-0.779-1.219-1.094-0.132-0.213-0.014 0.004-0.25-0.375-0.394-0.437-0.832-0.833-1.281-1.156-0.127-0.205-0.006-0.001-0.219-0.344-0.394-0.437-0.832-0.802-1.281-1.125-0.128-0.206-0.004 0.002-0.219-0.344-0.394-0.437-0.801-0.833-1.25-1.156-0.127-0.205-0.006-0.001-0.219-0.344-0.394-0.437-0.832-0.802-1.281-1.125-0.13-0.21 0.008-0.01-0.219-0.375-0.378-0.419-0.789-0.779-1.219-1.094-0.132-0.213-0.014 0.004-0.25-0.375-0.394-0.437-0.832-0.833-1.281-1.156-0.127-0.205-0.006-0.001-0.219-0.344-0.394-0.437-0.832-0.802-1.281-1.125-0.128-0.206-0.004 0.002-0.219-0.344-0.394-0.437-0.801-0.833-1.25-1.156-0.127-0.205-0.006-0.001-0.219-0.344-0.394-0.437-0.832-0.802-1.281-1.125-0.13-0.21 0.008-0.01-0.219-0.375-0.378-0.419-0.789-0.779-1.219-1.094-0.132-0.213-0.014 0.004-0.25-0.375-0.394-0.437-0.832-0.833-1.281-1.156-0.127-0.205-0.006-0.001-0.219-0.344-0.394-0.437-0.832-0.802-1.281-1.125-0.128-0.206-0.004 0.002-0.219-0.344-0.394-0.437-0.801-0.833-1.25-1.156-0.127-0.205-0.006-0.001-0.219-0.344-0.394-0.437-0.832-0.802-1.281-1.125-0.13-0.21 0.008-0.01-0.219-0.375-0.378-0.419-0.789-0.779-1.219-1.094-0.132-0.213-0.014 0.004-0.25-0.375h-0.031c-0.394-0.437-0.801-0.833-1.25-1.156-0.127-0.205-0.006-0.001-0.219-0.344-0.394-0.437-0.832-0.802-1.281-1.125-0.128-0.206-0.004 0.002-0.219-0.344-0.394-0.437-0.801-0.833-1.25-1.156-0.127-0.205-0.006-0.001-0.219-0.344-0.394-0.437-0.832-0.802-1.281-1.125-0.13-0.21 0.008-0.01-0.219-0.375-0.378-0.419-0.789-0.779-1.219-1.094-0.132-0.213-0.014 0.004-0.25-0.375h-0.031c-0.394-0.437-0.801-0.833-1.25-1.156-0.127-0.205-0.006-0.001-0.219-0.344-0.394-0.437-0.832-0.802-1.281-1.125-0.128-0.206-0.004 0.002-0.219-0.344-0.394-0.437-0.801-0.833-1.25-1.156-0.127-0.205-0.006-0.001-0.219-0.344-0.394-0.437-0.832-0.802-1.281-1.125-0.13-0.21 0.008-0.01-0.219-0.375-0.394-0.437-0.832-0.802-1.281-1.125-0.127-0.205-0.005 0-0.219-0.344-0.394-0.437-0.801-0.833-1.25-1.156-0.127-0.205-0.006-0.001-0.219-0.344-0.394-0.437-0.832-0.802-1.281-1.125-0.128-0.206-0.004 0.002-0.219-0.344-0.394-0.437-0.801-0.833-1.25-1.156-0.127-0.205-0.006-0.001-0.219-0.344-0.394-0.437-0.832-0.802-1.281-1.125-0.13-0.21 0.008-0.01-0.219-0.375-0.394-0.437-0.832-0.802-1.281-1.125-0.127-0.205-0.005 0-0.219-0.344-0.394-0.437-0.801-0.833-1.25-1.156-0.127-0.205-0.006-0.001-0.219-0.344-0.394-0.437-0.832-0.802-1.281-1.125-0.128-0.206-0.004 0.002-0.219-0.344-0.394-0.437-0.801-0.833-1.25-1.156-0.127-0.205-0.006-0.001-0.219-0.344-0.394-0.437-0.832-0.802-1.281-1.125-0.13-0.21 0.008-0.01-0.219-0.375-0.394-0.437-0.832-0.802-1.281-1.125-0.127-0.205-0.005 0-0.219-0.344-0.394-0.437-0.801-0.833-1.25-1.156-0.127-0.205-0.006-0.001-0.219-0.344-0.394-0.437-0.832-0.802-1.281-1.125-0.128-0.206-0.004 0.002-0.219-0.344-0.394-0.437-0.801-0.833-1.25-1.156-0.127-0.205-0.006-0.001-0.219-0.344-0.394-0.437-0.832-0.802-1.281-1.125-0.13-0.21 0.008-0.01-0.219-0.375-3.153-3.494-8.399-3.089-10.781-3.094" fill-opacity="0.235" id="path386"/>
  <path d="m256 1c-140.83 0-255 114.17-255 255s114.17 255 255 255 255-114.17 255-255-114.17-255-255-255m8.827 44.931c120.9 0 218.9 98 218.9 218.9s-98 218.9-218.9 218.9-218.93-98-218.93-218.9 98.03-218.9 218.93-218.9" fill-opacity="0.067" id="path388"/>
  <g fill-opacity="0.129" id="g390">
   <path d="m256 4.433c-138.94 0-251.57 112.63-251.57 251.57s112.63 251.57 251.57 251.57 251.57-112.63 251.57-251.57-112.63-251.57-251.57-251.57m5.885 38.556c120.9 0 218.9 98 218.9 218.9s-98 218.9-218.9 218.9-218.93-98-218.93-218.9 98.03-218.9 218.93-218.9" id="path392"/>
   <path d="m256 8.356c-136.77 0-247.64 110.87-247.64 247.64s110.87 247.64 247.64 247.64 247.64-110.87 247.64-247.64-110.87-247.64-247.64-247.64m2.942 31.691c120.9 0 218.9 98 218.9 218.9s-98 218.9-218.9 218.9-218.93-98-218.93-218.9 98.03-218.9 218.93-218.9" id="path394"/>
  </g>
  <path fill="#ffffff" stroke-width="4.904" stroke="#000000" stroke-opacity="0.31" d="m253.04 7.859c-135.42 0-245.19 109.78-245.19 245.19 0 135.42 109.78 245.19 245.19 245.19 135.42 0 245.19-109.78 245.19-245.19 0-135.42-109.78-245.19-245.19-245.19zm0 26.297c120.9 0 218.9 98 218.9 218.9s-98 218.9-218.9 218.9-218.93-98-218.93-218.9 98.03-218.9 218.93-218.9z" id="path396"/>
 </g>
 <text font-family="Gentium Book Basic" x="729.64" y="231.36" line-height="125%" font-size="129.23" id="text398" word-spacing="0" letter-spacing="0"><tspan x="729.64" y="231.36" id="tspan400"/>
 </text>
 <text font-family="Arial" x="378.91" y="579.25" transform="scale(4.0128 .2492)" font-size="46.954" id="text402" text-anchor="middle"/>
 <text font-family="Gentium Book Basic" x="1310.91" y="151.36" line-height="125%" font-size="129.23" id="text404" word-spacing="0" letter-spacing="0"><tspan x="1310.91" y="151.36" id="tspan406"/>
 </text>
 <text font-family="Arial" x="523.76" y="258.22" transform="scale(4.0128 .2492)" font-size="46.954" id="text408" text-anchor="middle"/>
 <text font-family="Gentium Book Basic" x="239.33" y="-29.901" line-height="125%" font-size="129.23" id="text410" word-spacing="0" letter-spacing="0"><tspan x="239.33" y="-29.901" id="tspan412"/>
 </text>
 <text font-family="Arial" x="256.72" y="-469.14" transform="scale(4.0128 .2492)" font-size="46.954" id="text414" text-anchor="middle"/>
 <text font-family="Gentium Book Basic" x="1337.38" y="-246.37" line-height="125%" font-size="129.23" id="text416" word-spacing="0" letter-spacing="0"><tspan x="1337.38" y="-246.37" id="tspan418"/>
 </text>
 <text font-family="Arial" x="530.36" y="-1337.81" transform="scale(4.0128 .2492)" font-size="46.954" id="text420" text-anchor="middle"/>
 <text font-family="Gentium Book Basic" x="1918.65" y="-326.38" line-height="125%" font-size="129.23" id="text422" word-spacing="0" letter-spacing="0"><tspan x="1918.65" y="-326.38" id="tspan424"/>
 </text>
 <text font-family="Arial" x="675.21" y="-1658.85" transform="scale(4.0128 .2492)" font-size="46.954" id="text426" text-anchor="middle"/>
 <text font-family="Gentium Book Basic" x="1529.53" y="-798.78" line-height="125%" font-size="129.23" id="text428" word-spacing="0" letter-spacing="0"><tspan x="1529.53" y="-798.78" id="tspan430"/>
 </text>
 <text font-family="Arial" x="578.24" y="-3554.51" transform="scale(4.0128 .2492)" font-size="46.954" id="text432" text-anchor="middle"/>
 <text font-family="Gentium Book Basic" x="2110.79" y="-878.78" line-height="125%" font-size="129.23" id="text434" word-spacing="0" letter-spacing="0"><tspan x="2110.79" y="-878.78" id="tspan436"/>
 </text>
 <text font-family="Arial" x="723.09" y="-3875.54" transform="scale(4.0128 .2492)" font-size="46.954" id="text438" text-anchor="middle"/>
 <text font-family="Gentium Book Basic" x="277.99" y="535.94" line-height="125%" font-size="208.33" id="text440" word-spacing="0" letter-spacing="0"><tspan x="277.99" y="535.94" id="tspan442"/>
 </text>
 <path fill="#ffffff" fill-rule="evenodd" d="m317.61 111.82c-20.954 1.229-43.801 20.311-50.41 25.02-9.792 8.229-17.216 12.967-26.348 21.874-31.764 32.35-8.968 9.287-28.845 29.08-3.602 1.166-7.07 2.615-10.378 4.344-1.981-15.738-15.43-27.908-31.706-27.908-17.64 0-31.94 14.3-31.94 31.94 0 17.57 14.188 31.827 31.732 31.94-1.783 4.728-3.038 9.711-3.719 14.877-4.711-1.402-9.711-2.185-14.877-2.185-28.793 0-52.12 23.382-52.12 52.18 0 28.793 23.33 52.12 52.12 52.12 22.517 0 41.709-14.287 49-34.28 9.675 5.373 20.791 8.427 32.642 8.427 3.479 0 6.91-0.272 10.248-0.78-2.152 4.514-3.381 9.541-3.381 14.877 0 19.18 15.57 34.723 34.749 34.723 19.18 0 34.723-15.544 34.723-34.723 0-17.01-12.275-31.12-28.428-34.1 12.03-12.17 19.481-28.898 19.481-47.36 0-26.18-14.958-48.881-36.777-60.03 6.736-8.379 13.794-16.603 22.576-24.813 7.529-6.957 7.811-8.164 16.15-13.863 20.538-8.67-7.833 52.06-10.43 59.718 9-16.763 20.443-32.27 27.362-50.09 5.218-10.432 9.08-19.656 11.34-31 1.085-4.767 1.328-9.638-0.312-14.201-1.342-2.089-0.03-0.009-1.691-2.679-3.153-3.495-8.386-3.091-10.768-3.095m35.451 96.26c-25.716 0-46.557 20.867-46.557 46.583s20.841 46.557 46.557 46.557 46.557-20.841 46.557-46.557-20.841-46.583-46.557-46.583" id="path444"/>
</svg>
