<?xml version="1.0" encoding="UTF-8" standalone="no"?>
<svg xmlns="http://www.w3.org/2000/svg" xmlns:sodipodi="http://sodipodi.sourceforge.net/DTD/sodipodi-0.dtd" xmlns:inkscape="http://www.inkscape.org/namespaces/inkscape" height="512" viewBox="0 0 512 512" width="512" version="1.1">
 <metadata id="metadata86"/>
 <path fill="#606060" fill-rule="evenodd" d="m471.95 253.05c0 120.9-98.01 218.9-218.9 218.9-120.9 0-218.9-98.01-218.9-218.9 0-120.9 98.01-218.9 218.9-218.9 120.9 0 218.9 98.01 218.9 218.9" id="path4"/>
 <path d="m304.72 109.97c-6.777 0.092-9.322 2.816-12.563 10.469-3.232 7.632-4.977 9.392-11.313 11.281-13.12 3.912-16.993 4.517-19.09 3-13.218-9.548-14.717-9.605-25.313-0.969-9.819 8-10.324 9.463-6.594 19.03 3.396 8.711 3 11.843-2.844 22.13-5.313 9.343-7.564 11.157-13.813 11.25-7.577 0.113-12.395 6.04-13.375 16.469-0.759 8.08-0.375 11.81 2.938 14.625 0.299 0.34 0.631 0.655 1 0.969 0.303 0.347 0.625 0.681 1 1 0.302 0.346 0.626 0.682 1 1 0.318 0.364 0.633 0.729 1.031 1.063 0.286 0.321 0.588 0.641 0.938 0.938 0.299 0.34 0.631 0.687 1 1 0.299 0.34 0.631 0.655 1 0.969 0.303 0.347 0.625 0.681 1 1 0.302 0.346 0.626 0.682 1 1 0.319 0.365 0.632 0.728 1.031 1.063 0.286 0.321 0.588 0.641 0.938 0.938 0.299 0.34 0.631 0.687 1 1 0.299 0.34 0.631 0.687 1 1 0.299 0.34 0.631 0.655 1 0.969 0.303 0.347 0.625 0.681 1 1 0.302 0.346 0.595 0.682 0.969 1 0.304 0.35 0.622 0.679 1 1 0.299 0.34 0.631 0.687 1 1 0.299 0.34 0.631 0.687 1 1 0.111 0.126 0.223 0.253 0.344 0.375 0.214 0.756 0.434 1.466 0.656 2.313 2.327 8.863 1.995 11.332-2.406 18.19-5.01 7.805-4.53 10.935 3.063 20.25 1.897 2.327 3.475 4.131 4.906 5.469 0.205 0.211 0.396 0.4 0.594 0.594 0.094 0.099 0.189 0.217 0.281 0.313 0.036 0.034 0.089 0.06 0.125 0.094 0.202 0.207 0.398 0.403 0.594 0.594 0.094 0.099 0.189 0.217 0.281 0.313 0.035 0.034 0.09 0.061 0.125 0.094 0.34 0.349 0.678 0.699 1 1 0.333 0.342 0.652 0.673 0.969 0.969 0.345 0.355 0.673 0.694 1 1 0.345 0.355 0.673 0.694 1 1 0.345 0.355 0.673 0.694 1 1 0.205 0.211 0.396 0.4 0.594 0.594 0.094 0.099 0.189 0.217 0.281 0.313 0.036 0.034 0.089 0.06 0.125 0.094 0.352 0.362 0.698 0.721 1.031 1.031 0.175 0.179 0.361 0.334 0.531 0.5 0.104 0.11 0.21 0.238 0.313 0.344 0.036 0.034 0.09 0.061 0.125 0.094 0.285 0.293 0.54 0.584 0.813 0.844 0.019 0.02 0.043 0.043 0.063 0.063 0.031 0.029 0.063 0.065 0.094 0.094 0.345 0.355 0.673 0.694 1 1 0.345 0.355 0.673 0.694 1 1 0.205 0.211 0.396 0.4 0.594 0.594 0.094 0.099 0.189 0.217 0.281 0.313 0.036 0.034 0.089 0.06 0.125 0.094 0.202 0.207 0.398 0.403 0.594 0.594 0.094 0.099 0.189 0.217 0.281 0.313 0.035 0.034 0.09 0.061 0.125 0.094 0.188 0.194 0.38 0.352 0.563 0.531 0.104 0.11 0.21 0.238 0.313 0.344 0.036 0.034 0.089 0.06 0.125 0.094 0.253 0.26 0.476 0.516 0.719 0.75 0.049 0.051 0.108 0.106 0.156 0.156 0.031 0.029 0.063 0.065 0.094 0.094 0.345 0.355 0.673 0.694 1 1 0.345 0.355 0.673 0.694 1 1 0.205 0.211 0.396 0.4 0.594 0.594 0.094 0.099 0.189 0.217 0.281 0.313 0.036 0.034 0.089 0.06 0.125 0.094 0.202 0.207 0.398 0.403 0.594 0.594 0.094 0.099 0.189 0.217 0.281 0.313 0.035 0.034 0.09 0.061 0.125 0.094 0.188 0.194 0.38 0.352 0.563 0.531 0.104 0.11 0.21 0.238 0.313 0.344 0.036 0.034 0.089 0.06 0.125 0.094 0.253 0.26 0.476 0.516 0.719 0.75 0.049 0.051 0.108 0.106 0.156 0.156 0.031 0.029 0.063 0.065 0.094 0.094 0.345 0.355 0.673 0.694 1 1 0.345 0.355 0.673 0.694 1 1 0.205 0.211 0.396 0.4 0.594 0.594 0.094 0.099 0.189 0.217 0.281 0.313 0.036 0.034 0.089 0.06 0.125 0.094 0.202 0.207 0.398 0.403 0.594 0.594 0.094 0.099 0.189 0.217 0.281 0.313 0.035 0.034 0.09 0.061 0.125 0.094 0.352 0.362 0.698 0.721 1.031 1.031 0.175 0.179 0.361 0.334 0.531 0.5 0.104 0.11 0.21 0.238 0.313 0.344 0.036 0.034 0.09 0.061 0.125 0.094 0.285 0.293 0.54 0.584 0.813 0.844 0.019 0.02 0.043 0.043 0.063 0.063 0.031 0.029 0.063 0.065 0.094 0.094 0.345 0.355 0.673 0.694 1 1 0.345 0.355 0.673 0.694 1 1 0.205 0.211 0.396 0.4 0.594 0.594 0.491 0.521 0.982 1.013 1.438 1.438 0.175 0.179 0.361 0.334 0.531 0.5 0.104 0.11 0.21 0.238 0.313 0.344 0.036 0.034 0.09 0.061 0.125 0.094 0.285 0.293 0.54 0.584 0.813 0.844 0.4 0.417 0.78 0.805 1.156 1.156 0.345 0.355 0.673 0.694 1 1 0.205 0.211 0.396 0.4 0.594 0.594 0.094 0.099 0.189 0.217 0.281 0.313 0.036 0.034 0.089 0.06 0.125 0.094 0.202 0.207 0.398 0.403 0.594 0.594 0.094 0.099 0.189 0.217 0.281 0.313 0.035 0.034 0.09 0.061 0.125 0.094 0.188 0.194 0.38 0.352 0.563 0.531 0.402 0.426 0.779 0.826 1.156 1.188 0.049 0.051 0.108 0.106 0.156 0.156 0.031 0.029 0.063 0.065 0.094 0.094 0.345 0.355 0.673 0.694 1 1 0.345 0.355 0.673 0.694 1 1 0.205 0.211 0.396 0.4 0.594 0.594 0.094 0.099 0.189 0.217 0.281 0.313 0.036 0.034 0.089 0.06 0.125 0.094 0.202 0.207 0.398 0.403 0.594 0.594 0.094 0.099 0.189 0.217 0.281 0.313 0.035 0.034 0.09 0.061 0.125 0.094 0.34 0.349 0.678 0.699 1 1 0.333 0.342 0.652 0.673 0.969 0.969 0.345 0.355 0.673 0.694 1 1 0.345 0.355 0.673 0.694 1 1 0.345 0.355 0.673 0.694 1 1 0.205 0.211 0.396 0.4 0.594 0.594 0.094 0.099 0.189 0.217 0.281 0.313 0.036 0.034 0.089 0.06 0.125 0.094 0.352 0.362 0.698 0.721 1.031 1.031 0.175 0.179 0.361 0.334 0.531 0.5 0.104 0.11 0.21 0.238 0.313 0.344 0.036 0.034 0.09 0.061 0.125 0.094 0.285 0.293 0.54 0.584 0.813 0.844 0.019 0.02 0.043 0.043 0.063 0.063 0.031 0.029 0.063 0.065 0.094 0.094 0.345 0.355 0.673 0.694 1 1 0.345 0.355 0.673 0.694 1 1 0.205 0.211 0.396 0.4 0.594 0.594 0.094 0.099 0.189 0.217 0.281 0.313 0.036 0.034 0.089 0.06 0.125 0.094 0.202 0.207 0.398 0.403 0.594 0.594 0.094 0.099 0.189 0.217 0.281 0.313 0.035 0.034 0.09 0.061 0.125 0.094 0.188 0.194 0.38 0.352 0.563 0.531 0.104 0.11 0.21 0.238 0.313 0.344 0.036 0.034 0.089 0.06 0.125 0.094 0.253 0.26 0.476 0.516 0.719 0.75 0.049 0.051 0.108 0.106 0.156 0.156 0.031 0.029 0.063 0.065 0.094 0.094 0.345 0.355 0.673 0.694 1 1 0.345 0.355 0.673 0.694 1 1 0.205 0.211 0.396 0.4 0.594 0.594 0.094 0.099 0.189 0.217 0.281 0.313 0.036 0.034 0.089 0.06 0.125 0.094 0.202 0.207 0.398 0.403 0.594 0.594 0.094 0.099 0.189 0.217 0.281 0.313 0.035 0.034 0.09 0.061 0.125 0.094 0.188 0.194 0.38 0.352 0.563 0.531 0.104 0.11 0.21 0.238 0.313 0.344 0.036 0.034 0.089 0.06 0.125 0.094 0.253 0.26 0.476 0.516 0.719 0.75 0.049 0.051 0.108 0.106 0.156 0.156 0.031 0.029 0.063 0.065 0.094 0.094 0.345 0.355 0.673 0.694 1 1 0.345 0.355 0.673 0.694 1 1 0.205 0.211 0.396 0.4 0.594 0.594 0.094 0.099 0.189 0.217 0.281 0.313 0.036 0.034 0.089 0.06 0.125 0.094 0.202 0.207 0.398 0.403 0.594 0.594 0.094 0.099 0.189 0.217 0.281 0.313 0.035 0.034 0.09 0.061 0.125 0.094 0.352 0.362 0.698 0.721 1.031 1.031 0.175 0.179 0.361 0.334 0.531 0.5 0.104 0.11 0.21 0.238 0.313 0.344 0.036 0.034 0.09 0.061 0.125 0.094 0.285 0.293 0.54 0.584 0.813 0.844 0.019 0.02 0.043 0.043 0.063 0.063 0.031 0.029 0.063 0.065 0.094 0.094 0.345 0.355 0.673 0.694 1 1 0.345 0.355 0.673 0.694 1 1 0.205 0.211 0.396 0.4 0.594 0.594 0.094 0.099 0.189 0.217 0.281 0.313 0.036 0.034 0.089 0.06 0.125 0.094 0.352 0.362 0.698 0.721 1.031 1.031 0.175 0.179 0.361 0.334 0.531 0.5 0.104 0.11 0.21 0.238 0.313 0.344 0.036 0.034 0.09 0.061 0.125 0.094 0.285 0.293 0.54 0.584 0.813 0.844 0.019 0.02 0.043 0.043 0.063 0.063 0.031 0.029 0.063 0.065 0.094 0.094 0.345 0.355 0.673 0.694 1 1 0.345 0.355 0.673 0.694 1 1 0.205 0.211 0.396 0.4 0.594 0.594 0.094 0.099 0.189 0.217 0.281 0.313 0.036 0.034 0.089 0.06 0.125 0.094 0.202 0.207 0.398 0.403 0.594 0.594 0.094 0.099 0.189 0.217 0.281 0.313 0.035 0.034 0.09 0.061 0.125 0.094 0.188 0.194 0.38 0.352 0.563 0.531 0.104 0.11 0.21 0.238 0.313 0.344 0.036 0.034 0.089 0.06 0.125 0.094 0.253 0.26 0.476 0.516 0.719 0.75 0.049 0.051 0.108 0.106 0.156 0.156 0.031 0.029 0.063 0.065 0.094 0.094 0.345 0.355 0.673 0.694 1 1 0.345 0.355 0.673 0.694 1 1 0.205 0.211 0.396 0.4 0.594 0.594 0.094 0.099 0.189 0.217 0.281 0.313 0.036 0.034 0.089 0.06 0.125 0.094 0.202 0.207 0.398 0.403 0.594 0.594 0.094 0.099 0.189 0.217 0.281 0.313 0.035 0.034 0.09 0.061 0.125 0.094 0.34 0.349 0.678 0.699 1 1 0.333 0.342 0.652 0.673 0.969 0.969 0.345 0.355 0.673 0.694 1 1 0.345 0.355 0.673 0.694 1 1 0.345 0.355 0.673 0.694 1 1 0.205 0.211 0.396 0.4 0.594 0.594 0.094 0.099 0.189 0.217 0.281 0.313 0.036 0.034 0.089 0.06 0.125 0.094 0.352 0.362 0.698 0.721 1.031 1.031 0.175 0.179 0.361 0.334 0.531 0.5 0.104 0.11 0.21 0.238 0.313 0.344 0.036 0.034 0.09 0.061 0.125 0.094 0.285 0.293 0.54 0.584 0.813 0.844 0.019 0.02 0.043 0.043 0.063 0.063 0.031 0.029 0.063 0.065 0.094 0.094 0.345 0.355 0.673 0.694 1 1 0.345 0.355 0.673 0.694 1 1 0.205 0.211 0.396 0.4 0.594 0.594 0.094 0.099 0.189 0.217 0.281 0.313 0.036 0.034 0.089 0.06 0.125 0.094 0.202 0.207 0.398 0.403 0.594 0.594 0.325 0.344 0.66 0.636 0.969 0.938 0.104 0.11 0.21 0.238 0.313 0.344 0.036 0.034 0.089 0.06 0.125 0.094 0.253 0.26 0.476 0.516 0.719 0.75 0.049 0.051 0.108 0.106 0.156 0.156 0.031 0.029 0.063 0.065 0.094 0.094 0.345 0.355 0.673 0.694 1 1 0.345 0.355 0.673 0.694 1 1 0.205 0.211 0.396 0.4 0.594 0.594 0.094 0.099 0.189 0.217 0.281 0.313 0.036 0.034 0.089 0.06 0.125 0.094 0.202 0.207 0.398 0.403 0.594 0.594 0.094 0.099 0.189 0.217 0.281 0.313 0.035 0.034 0.09 0.061 0.125 0.094 0.188 0.194 0.38 0.352 0.563 0.531 0.104 0.11 0.21 0.238 0.313 0.344 0.036 0.034 0.089 0.06 0.125 0.094 0.253 0.26 0.476 0.516 0.719 0.75 0.431 0.453 0.846 0.873 1.25 1.25 0.345 0.355 0.673 0.694 1 1 0.205 0.211 0.396 0.4 0.594 0.594 0.338 0.358 0.68 0.688 1 1 0.094 0.099 0.189 0.217 0.281 0.313 0.035 0.034 0.09 0.061 0.125 0.094 0.352 0.362 0.698 0.721 1.031 1.031 0.175 0.179 0.361 0.334 0.531 0.5 0.104 0.11 0.21 0.238 0.313 0.344 0.036 0.034 0.09 0.061 0.125 0.094 0.285 0.293 0.54 0.584 0.813 0.844 0.019 0.02 0.043 0.043 0.063 0.063 0.031 0.029 0.063 0.065 0.094 0.094 0.345 0.355 0.673 0.694 1 1 0.345 0.355 0.673 0.694 1 1 0.205 0.211 0.396 0.4 0.594 0.594 0.094 0.099 0.189 0.217 0.281 0.313 0.036 0.034 0.089 0.06 0.125 0.094 0.352 0.362 0.698 0.721 1.031 1.031 0.175 0.179 0.361 0.334 0.531 0.5 0.104 0.11 0.21 0.238 0.313 0.344 0.036 0.034 0.09 0.061 0.125 0.094 0.285 0.293 0.54 0.584 0.813 0.844 0.019 0.02 0.043 0.043 0.063 0.063 0.031 0.029 0.063 0.065 0.094 0.094 0.345 0.355 0.673 0.694 1 1 0.345 0.355 0.673 0.694 1 1 0.205 0.211 0.396 0.4 0.594 0.594 0.094 0.099 0.189 0.217 0.281 0.313 0.036 0.034 0.089 0.06 0.125 0.094 0.202 0.207 0.398 0.403 0.594 0.594 0.094 0.099 0.189 0.217 0.281 0.313 0.035 0.034 0.09 0.061 0.125 0.094 0.188 0.194 0.38 0.352 0.563 0.531 0.104 0.11 0.21 0.238 0.313 0.344 0.036 0.034 0.089 0.06 0.125 0.094 0.253 0.26 0.476 0.516 0.719 0.75 0.431 0.453 0.846 0.873 1.25 1.25 0.345 0.355 0.673 0.694 1 1 0.205 0.211 0.396 0.4 0.594 0.594 0.094 0.099 0.189 0.217 0.281 0.313 0.036 0.034 0.089 0.06 0.125 0.094 0.202 0.207 0.398 0.403 0.594 0.594 0.094 0.099 0.189 0.217 0.281 0.313 0.035 0.034 0.09 0.061 0.125 0.094 0.215 0.221 0.417 0.423 0.625 0.625 0.08 0.084 0.171 0.168 0.25 0.25 0.036 0.034 0.089 0.06 0.125 0.094 0.253 0.26 0.476 0.516 0.719 0.75 0.431 0.453 0.846 0.873 1.25 1.25 0.345 0.355 0.673 0.694 1 1 0.345 0.355 0.673 0.694 1 1 0.205 0.211 0.396 0.4 0.594 0.594 0.094 0.099 0.189 0.217 0.281 0.313 0.036 0.034 0.089 0.06 0.125 0.094 0.352 0.362 0.698 0.721 1.031 1.031 0.175 0.179 0.361 0.334 0.531 0.5 0.104 0.11 0.21 0.238 0.313 0.344 0.036 0.034 0.09 0.061 0.125 0.094 0.285 0.293 0.54 0.584 0.813 0.844 0.019 0.02 0.043 0.043 0.063 0.063 0.031 0.029 0.063 0.065 0.094 0.094 0.345 0.355 0.673 0.694 1 1 0.345 0.355 0.673 0.694 1 1 0.205 0.211 0.396 0.4 0.594 0.594 0.094 0.099 0.189 0.217 0.281 0.313 0.036 0.034 0.089 0.06 0.125 0.094 0.202 0.207 0.398 0.403 0.594 0.594 0.094 0.099 0.189 0.217 0.281 0.313 0.035 0.034 0.09 0.061 0.125 0.094 0.188 0.194 0.38 0.352 0.563 0.531 0.104 0.11 0.21 0.238 0.313 0.344 0.036 0.034 0.089 0.06 0.125 0.094 0.285 0.293 0.54 0.584 0.813 0.844 0.019 0.02 0.043 0.043 0.063 0.063 0.031 0.029 0.063 0.065 0.094 0.094 0.345 0.355 0.673 0.694 1 1 0.237 0.244 0.461 0.464 0.688 0.688 56.692-39.56 93.78-105.25 93.78-179.62 0-5.062-0.162-10.09-0.5-15.06-0.37-0.394-0.735-0.766-1.094-1.094-0.352-0.362-0.663-0.692-1-1-0.341-0.351-0.642-0.669-0.969-0.969-0.343-0.352-0.672-0.699-1-1-0.201-0.206-0.398-0.374-0.594-0.563-0.338-0.36-0.677-0.689-1-1-0.492-0.525-0.944-1.016-1.406-1.438-0.352-0.362-0.663-0.692-1-1-0.341-0.351-0.642-0.669-0.969-0.969-0.343-0.352-0.672-0.699-1-1-0.343-0.352-0.672-0.699-1-1-0.201-0.206-0.398-0.374-0.594-0.563-0.338-0.36-0.677-0.689-1-1-0.492-0.525-0.944-1.016-1.406-1.438-0.209-0.215-0.39-0.398-0.594-0.594-0.471-0.501-0.932-0.969-1.375-1.375-0.343-0.352-0.672-0.699-1-1-0.201-0.206-0.398-0.374-0.594-0.563-0.338-0.36-0.677-0.689-1-1-0.492-0.525-0.944-1.016-1.406-1.438-0.209-0.215-0.39-0.398-0.594-0.594-0.471-0.501-0.932-0.969-1.375-1.375-0.343-0.352-0.672-0.699-1-1-0.201-0.206-0.398-0.374-0.594-0.563-0.338-0.36-0.677-0.689-1-1-0.492-0.525-0.944-1.016-1.406-1.438-0.352-0.362-0.663-0.692-1-1-0.341-0.351-0.642-0.669-0.969-0.969-0.343-0.352-0.672-0.699-1-1-0.343-0.352-0.672-0.699-1-1-0.201-0.206-0.398-0.374-0.594-0.563-0.492-0.525-0.944-1.016-1.406-1.438-0.352-0.362-0.663-0.692-1-1-0.341-0.351-0.642-0.669-0.969-0.969-0.343-0.352-0.672-0.699-1-1-0.343-0.352-0.672-0.699-1-1-0.201-0.206-0.398-0.374-0.594-0.563-0.338-0.36-0.677-0.689-1-1-0.492-0.525-0.944-1.016-1.406-1.438-0.209-0.215-0.39-0.398-0.594-0.594-0.471-0.501-0.932-0.969-1.375-1.375-0.343-0.352-0.672-0.699-1-1-0.201-0.206-0.398-0.374-0.594-0.563-0.338-0.36-0.677-0.689-1-1-0.492-0.525-0.944-1.016-1.406-1.438-0.352-0.362-0.663-0.692-1-1-0.341-0.351-0.642-0.669-0.969-0.969-0.343-0.352-0.672-0.699-1-1-0.201-0.206-0.398-0.374-0.594-0.563-0.338-0.36-0.677-0.689-1-1-0.492-0.525-0.944-1.016-1.406-1.438-0.352-0.362-0.663-0.692-1-1-0.341-0.351-0.642-0.669-0.969-0.969-0.343-0.352-0.672-0.699-1-1-0.343-0.352-0.672-0.699-1-1-0.201-0.206-0.398-0.374-0.594-0.563-0.338-0.36-0.677-0.689-1-1-0.492-0.525-0.944-1.016-1.406-1.438-0.209-0.215-0.39-0.398-0.594-0.594-0.471-0.501-0.932-0.969-1.375-1.375-0.343-0.352-0.672-0.699-1-1-0.201-0.206-0.398-0.374-0.594-0.563-0.338-0.36-0.677-0.689-1-1-0.492-0.525-0.944-1.016-1.406-1.438-0.209-0.215-0.39-0.398-0.594-0.594-0.471-0.501-0.932-0.969-1.375-1.375-0.343-0.352-0.672-0.699-1-1-0.201-0.206-0.398-0.374-0.594-0.563-0.338-0.36-0.677-0.689-1-1-0.492-0.525-0.944-1.016-1.406-1.438-0.352-0.362-0.663-0.692-1-1-0.341-0.351-0.642-0.669-0.969-0.969-0.343-0.352-0.672-0.699-1-1-0.343-0.352-0.672-0.699-1-1-0.201-0.206-0.398-0.374-0.594-0.563-0.492-0.525-0.944-1.016-1.406-1.438-0.352-0.362-0.663-0.692-1-1-0.341-0.351-0.642-0.669-0.969-0.969-0.343-0.352-0.672-0.699-1-1-0.343-0.352-0.672-0.699-1-1-0.201-0.206-0.398-0.374-0.594-0.563-0.338-0.36-0.677-0.689-1-1-0.492-0.525-0.944-1.016-1.406-1.438-0.209-0.215-0.39-0.398-0.594-0.594-0.471-0.501-0.932-0.969-1.375-1.375-0.343-0.352-0.672-0.699-1-1-0.201-0.206-0.398-0.374-0.594-0.563-0.338-0.36-0.677-0.689-1-1-0.492-0.525-0.944-1.016-1.406-1.438-0.352-0.362-0.663-0.692-1-1-0.341-0.351-0.642-0.669-0.969-0.969-0.343-0.352-0.672-0.699-1-1-0.201-0.206-0.398-0.374-0.594-0.563-0.338-0.36-0.677-0.689-1-1-0.492-0.525-0.944-1.016-1.406-1.438-0.352-0.362-0.663-0.692-1-1-4.821-4.954-7.999-4.714-15.375-1.656-3.961 1.642-6.477 2.533-8.969 2.5-0.257-0.277-0.527-0.528-0.813-0.781-0.287-0.325-0.582-0.644-0.906-0.938-0.317-0.365-0.667-0.705-1.031-1.031-0.338-0.385-0.704-0.752-1.094-1.094-0.311-0.346-0.646-0.69-1-1-0.317-0.352-0.639-0.685-1-1-0.292-0.324-0.607-0.613-0.938-0.906-0.312-0.353-0.644-0.684-1-1-0.287-0.325-0.582-0.644-0.906-0.938-0.346-0.398-0.724-0.773-1.125-1.125-0.311-0.346-0.646-0.69-1-1-0.309-0.344-0.648-0.692-1-1-0.317-0.352-0.639-0.685-1-1-0.292-0.324-0.607-0.613-0.938-0.906-0.287-0.325-0.582-0.644-0.906-0.938-0.317-0.365-0.667-0.705-1.031-1.031-0.347-0.396-0.722-0.775-1.125-1.125-0.301-0.332-0.628-0.67-0.969-0.969-0.317-0.352-0.639-0.685-1-1-0.292-0.324-0.607-0.613-0.938-0.906-0.287-0.325-0.582-0.644-0.906-0.938-0.317-0.365-0.667-0.705-1.031-1.031-0.347-0.396-0.722-0.775-1.125-1.125-0.301-0.332-0.628-0.67-0.969-0.969-0.317-0.352-0.639-0.685-1-1-0.292-0.324-0.607-0.613-0.938-0.906-0.287-0.325-0.582-0.644-0.906-0.938-0.317-0.365-0.667-0.705-1.031-1.031-2.321-2.649-5.868-4.262-10.75-4.938-3.383-0.468-6.116-0.718-8.375-0.688m-112.37 155.78c-2.681 0.176-4.54 1.833-7.094 5.281-3.397 4.586-4.829 5.478-9.375 5.719-7.988 0.423-11.09 0.308-12.563-0.563-0.005-0.005-0.026 0.005-0.031 0-0.068-0.076-0.152-0.176-0.219-0.25-0.044-0.047-0.081-0.111-0.125-0.156-0.323-0.355-0.639-0.659-0.938-0.969-0.042-0.046-0.083-0.08-0.125-0.125-0.129-0.133-0.25-0.251-0.375-0.375-0.465-0.52-0.929-1.038-1.344-1.469-0.047-0.052-0.078-0.105-0.125-0.156-0.055-0.057-0.102-0.101-0.156-0.156-4.97-5.381-6.747-5.116-14.03-1.625-7.865 3.769-8.481 4.712-7.531 11.719 0.865 6.379 0.107 8.376-5.469 14.313-5.066 5.394-6.865 6.26-11.06 5.313-5.089-1.149-9.252 2.055-11.594 8.875-2.205 6.424-2.243 8.792 1.031 11.813 0.305 0.356 0.661 0.695 1.063 1.063 0.305 0.349 0.664 0.701 1.063 1.063 0.292 0.33 0.624 0.659 1 1 0.266 0.3 0.571 0.629 0.906 0.938 0.314 0.365 0.708 0.716 1.125 1.094 0.288 0.325 0.63 0.665 1 1 0.261 0.294 0.578 0.604 0.906 0.906 0.944 2.071 1.227 4.732 1.313 9.03 0.125 6.308-0.478 7.936-4.531 11.813-4.615 4.414-4.826 6.569-1.25 14.03 1.656 3.455 2.884 5.509 4.313 6.625 0.336 0.398 0.68 0.725 1.031 1 0.326 0.386 0.66 0.699 1 0.969 0.347 0.415 0.699 0.749 1.063 1.031 0.336 0.398 0.68 0.727 1.031 1 0.334 0.396 0.681 0.728 1.031 1 0.354 0.421 0.721 0.75 1.094 1.031 0.341 0.4 0.673 0.73 1.031 1 0.339 0.398 0.675 0.731 1.031 1 0.32 0.376 0.634 0.709 0.969 0.969 0.342 0.409 0.672 0.756 1.031 1.031 0.338 0.403 0.677 0.728 1.031 1 0.336 0.401 0.679 0.73 1.031 1 0.32 0.382 0.665 0.675 1 0.938 0.344 0.416 0.702 0.753 1.063 1.031 0.335 0.403 0.68 0.729 1.031 1 0.322 0.387 0.663 0.705 1 0.969 0.332 0.405 0.683 0.727 1.031 1 0.363 0.443 0.71 0.809 1.094 1.094 0.338 0.401 0.675 0.736 1.031 1 0.336 0.398 0.677 0.737 1.031 1 0.34 0.403 0.703 0.736 1.063 1 0.33 0.39 0.652 0.742 1 1 0.335 0.399 0.679 0.738 1.031 1 0.314 0.374 0.64 0.685 0.969 0.938 0.359 0.438 0.715 0.784 1.094 1.063 0.34 0.408 0.672 0.736 1.031 1 0.339 0.406 0.674 0.738 1.031 1 0.337 0.403 0.676 0.739 1.031 1 0.339 0.409 0.673 0.737 1.031 1 0.337 0.406 0.675 0.739 1.031 1 0.335 0.404 0.677 0.74 1.031 1 0.333 0.401 0.679 0.742 1.031 1 0.353 0.425 0.719 0.767 1.094 1.031 0.307 0.364 0.614 0.665 0.938 0.906 0.329 0.404 0.654 0.739 1 1 0.349 0.431 0.725 0.762 1.094 1.031 0.336 0.41 0.676 0.741 1.031 1 0.334 0.407 0.678 0.742 1.031 1 0.332 0.405 0.68 0.744 1.031 1 0.327 0.399 0.654 0.746 1 1 0.335 0.413 0.677 0.74 1.031 1 0.332 0.41 0.68 0.742 1.031 1 0.354 0.437 0.716 0.799 1.094 1.063 0.332 0.402 0.678 0.72 1.031 0.969 0.318 0.387 0.633 0.692 0.969 0.938 0.328 0.409 0.654 0.744 1 1 0.335 0.422 0.677 0.738 1.031 1 0.354 0.446 0.717 0.765 1.094 1.031 0.338 0.419 0.672 0.745 1.031 1 0.369 0.456 0.729 0.832 1.125 1.094 0.341 0.409 0.665 0.758 1.031 1 0.341 0.41 0.665 0.758 1.031 1 0.339 0.408 0.667 0.76 1.031 1 0.31 0.372 0.608 0.707 0.938 0.938 0.012 0.008 0.019 0.023 0.031 0.031 0.018 0.012 0.045 0.019 0.063 0.031 0.201 0.241 0.387 0.476 0.594 0.656 0.124 0.142 0.243 0.256 0.375 0.344 0.006 0.004 0.025-0.004 0.031 0 0.012 0.008 0.019 0.024 0.031 0.031 0.134 0.16 0.27 0.305 0.406 0.438 0.217 0.296 0.416 0.496 0.656 0.625 0.092 0.108 0.188 0.217 0.281 0.313 0.254 0.365 0.496 0.61 0.781 0.75 0.037 0.043 0.088 0.084 0.125 0.125 0.311 0.485 0.618 0.75 0.969 0.906 0.33 0.531 0.631 0.863 1 1.031 0.329 0.532 0.635 0.856 1 1.031 0.333 0.534 0.66 0.857 1.031 1.031 0.33 0.526 0.633 0.855 1 1.031 0.318 0.503 0.649 0.82 1 1 0.337 0.536 0.658 0.88 1.031 1.063 0.324 0.51 0.644 0.814 1 1 0.336 0.53 0.659 0.845 1.031 1.031 0.33 0.516 0.637 0.842 1 1.031 0.334 0.52 0.661 0.843 1.031 1.031 0.33 0.512 0.638 0.807 1 1 0.326 0.507 0.643 0.834 1 1.031 0.33 0.513 0.639 0.831 1 1.031 0.319 0.491 0.655 0.798 1 1 0.354 0.55 0.702 0.892 1.094 1.094 0.319 0.477 0.62 0.804 0.969 1 0.332 0.505 0.637 0.827 1 1.031 0.336 0.511 0.664 0.825 1.031 1.031 0.331 0.495 0.669 0.828 1.031 1.031 0.34 0.509 0.657 0.826 1.031 1.031 0.317 0.468 0.624 0.795 0.969 1 0.341 0.511 0.658 0.851 1.031 1.063 0.32 0.467 0.652 0.794 1 1 0.34 0.502 0.69 0.851 1.063 1.063 0.328 0.473 0.64 0.826 1 1.031 0.322 0.464 0.649 0.792 1 1 0.322 0.467 0.621 0.786 0.969 1 0.33 0.484 0.674 0.811 1.031 1.031 0.344 0.503 0.657 0.841 1.031 1.063 0.323 0.463 0.65 0.784 1 1 0.332 0.48 0.671 0.81 1.031 1.031 0.327 0.466 0.646 0.813 1 1.031 0.338 0.482 0.695 0.81 1.063 1.031 0.332 0.468 0.638 0.813 1 1.031 0.334 0.47 0.667 0.812 1.031 1.031 0.317 0.441 0.626 0.814 0.969 1.031 0.331 0.463 0.673 0.809 1.031 1.031 0.334 0.467 0.668 0.808 1.031 1.031 0.019 0.026 0.044 0.037 0.063 0.063 11.797 1.967 23.895 3.03 36.25 3.03 44.586 0 86.06-13.359 120.66-36.25-0.165-0.162-0.325-0.313-0.5-0.438-0.314-0.4-0.626-0.724-0.969-0.969-0.311-0.397-0.629-0.695-0.969-0.938-0.326-0.416-0.672-0.754-1.031-1-0.305-0.384-0.604-0.672-0.938-0.906-0.316-0.406-0.623-0.726-0.969-0.969-0.324-0.416-0.643-0.756-1-1-0.305-0.385-0.604-0.706-0.938-0.938-0.325-0.416-0.672-0.728-1.031-0.969-0.32-0.406-0.614-0.733-0.969-0.969-0.311-0.393-0.625-0.707-0.969-0.938-0.3-0.382-0.577-0.709-0.906-0.938-0.334-0.434-0.691-0.758-1.063-1-0.293-0.37-0.585-0.684-0.906-0.906-0.306-0.397-0.633-0.736-0.969-0.969-0.303-0.394-0.636-0.707-0.969-0.938-0.325-0.426-0.671-0.762-1.031-1-0.292-0.374-0.586-0.684-0.906-0.906-0.313-0.414-0.654-0.734-1-0.969-0.309-0.407-0.627-0.706-0.969-0.938-0.314-0.414-0.651-0.737-1-0.969-0.309-0.404-0.625-0.743-0.969-0.969-0.318-0.417-0.645-0.741-1-0.969-0.3-0.389-0.604-0.718-0.938-0.938-0.307-0.403-0.628-0.745-0.969-0.969-0.31-0.408-0.654-0.714-1-0.938-0.324-0.429-0.636-0.774-1-1-0.292-0.38-0.582-0.693-0.906-0.906-0.312-0.418-0.651-0.744-1-0.969-0.318-0.423-0.643-0.747-1-0.969-0.311-0.41-0.62-0.752-0.969-0.969-0.297-0.393-0.606-0.693-0.938-0.906-0.332-0.45-0.654-0.807-1.031-1.031-0.298-0.388-0.603-0.7-0.938-0.906-0.31-0.414-0.619-0.755-0.969-0.969-0.307-0.413-0.623-0.724-0.969-0.938-0.318-0.431-0.64-0.754-1-0.969-0.3-0.403-0.599-0.729-0.938-0.938-0.314-0.427-0.644-0.756-1-0.969-0.312-0.425-0.614-0.758-0.969-0.969-0.304-0.412-0.624-0.731-0.969-0.938-0.309-0.422-0.618-0.761-0.969-0.969-0.304-0.416-0.624-0.732-0.969-0.938-0.306-0.42-0.621-0.764-0.969-0.969-0.317-0.437-0.637-0.764-1-0.969-0.303-0.416-0.592-0.737-0.938-0.938-0.316-0.441-0.638-0.764-1-0.969-0.317-0.437-0.634-0.771-1-0.969-0.3-0.415-0.594-0.741-0.938-0.938-0.305-0.428-0.62-0.738-0.969-0.938-0.31-0.437-0.643-0.771-1-0.969-0.298-0.418-0.596-0.743-0.938-0.938-0.314-0.45-0.637-0.77-1-0.969-0.303-0.43-0.62-0.744-0.969-0.938-0.296-0.425-0.598-0.743-0.938-0.938-0.312-0.456-0.639-0.803-1-1-0.289-0.414-0.606-0.717-0.938-0.906-0.3-0.444-0.624-0.741-0.969-0.938-0.303-0.454-0.621-0.77-0.969-0.969-0.313-0.469-0.637-0.774-1-0.969-0.305-0.454-0.615-0.779-0.969-0.969-0.292-0.436-0.602-0.717-0.938-0.906-0.31-0.475-0.642-0.775-1-0.969-0.301-0.459-0.621-0.748-0.969-0.938-0.317-0.489-0.628-0.812-1-1-0.306-0.467-0.61-0.755-0.969-0.938-0.307-0.471-0.609-0.787-0.969-0.969-0.298-0.46-0.59-0.756-0.938-0.938-0.303-0.476-0.617-0.785-0.969-0.969-0.308-0.485-0.637-0.758-1-0.938-0.308-0.488-0.607-0.79-0.969-0.969-0.312-0.495-0.629-0.795-1-0.969-0.3-0.474-0.584-0.765-0.938-0.938-0.303-0.487-0.613-0.795-0.969-0.969-0.267-0.43-0.541-0.696-0.844-0.875-0.154-0.196-0.31-0.375-0.469-0.531-0.161-0.193-0.319-0.331-0.5-0.438-0.15-0.191-0.314-0.347-0.469-0.5-0.026-0.031-0.037-0.065-0.063-0.094-0.102-0.097-0.207-0.2-0.313-0.281-0.31-0.414-0.634-0.712-0.969-0.969-0.014-0.018-0.018-0.045-0.031-0.063-0.018-0.013-0.044-0.018-0.063-0.031-0.29-0.371-0.562-0.7-0.875-0.938-0.336-0.441-0.664-0.8-1.031-1.063-0.315-0.399-0.625-0.755-0.969-1-0.264-0.334-0.53-0.619-0.813-0.844-0.355-0.473-0.705-0.848-1.094-1.125-0.287-0.362-0.566-0.67-0.875-0.906-0.312-0.407-0.631-0.743-0.969-1-0.291-0.377-0.563-0.69-0.875-0.938-0.316-0.417-0.66-0.735-1-1-0.3-0.392-0.615-0.713-0.938-0.969-0.305-0.401-0.58-0.739-0.906-1-0.314-0.413-0.663-0.734-1-1-0.308-0.402-0.607-0.738-0.938-1-0.314-0.408-0.662-0.737-1-1-0.306-0.394-0.609-0.711-0.938-0.969-0.315-0.407-0.63-0.737-0.969-1-0.301-0.388-0.584-0.711-0.906-0.969-0.31-0.403-0.637-0.735-0.969-1-0.297-0.383-0.62-0.68-0.938-0.938-0.319-0.417-0.627-0.758-0.969-1.031-0.307-0.395-0.64-0.737-0.969-1-0.322-0.414-0.623-0.761-0.969-1.031-0.287-0.363-0.601-0.657-0.906-0.906-0.323-0.419-0.654-0.756-1-1.031-0.298-0.379-0.589-0.711-0.906-0.969-0.319-0.41-0.658-0.759-1-1.031-0.304-0.384-0.612-0.709-0.938-0.969-0.304-0.387-0.613-0.706-0.938-0.969-0.303-0.389-0.615-0.703-0.938-0.969-0.316-0.405-0.632-0.727-0.969-1-0.305-0.391-0.613-0.701-0.938-0.969-0.309-0.396-0.64-0.729-0.969-1-0.321-0.41-0.626-0.755-0.969-1.031-0.282-0.355-0.577-0.654-0.875-0.906-0.318-0.411-0.661-0.751-1-1.031-0.302-0.384-0.617-0.701-0.938-0.969-0.332-0.424-0.677-0.778-1.031-1.063-0.289-0.36-0.569-0.683-0.875-0.938-0.319-0.405-0.66-0.722-1-1-0.3-0.379-0.589-0.702-0.906-0.969-0.312-0.397-0.637-0.724-0.969-1-0.303-0.383-0.616-0.699-0.938-0.969-0.303-0.384-0.617-0.697-0.938-0.969-0.343-0.437-0.697-0.8-1.063-1.094-0.273-0.337-0.556-0.629-0.844-0.875-0.322-0.41-0.659-0.746-1-1.031-0.306-0.384-0.614-0.728-0.938-1-0.33-0.415-0.68-0.746-1.031-1.031-0.292-0.359-0.566-0.679-0.875-0.938-0.302-0.379-0.618-0.698-0.938-0.969-0.312-0.394-0.638-0.721-0.969-1-0.308-0.387-0.611-0.724-0.938-1-0.31-0.389-0.641-0.692-0.969-0.969-0.299-0.374-0.591-0.698-0.906-0.969-0.365-0.462-0.734-0.847-1.125-1.156-0.276-0.331-0.553-0.598-0.844-0.844-0.315-0.393-0.635-0.719-0.969-1-0.312-0.387-0.607-0.722-0.938-1-0.3-0.372-0.621-0.666-0.938-0.938-0.303-0.378-0.619-0.725-0.938-1-0.308-0.385-0.613-0.72-0.938-1-0.307-0.383-0.646-0.69-0.969-0.969-0.32-0.4-0.631-0.744-0.969-1.031-0.345-0.427-0.696-0.796-1.063-1.094-0.271-0.325-0.529-0.598-0.813-0.844-1.692-2.115-3.532-2.579-6.688-2.281-0.118-0.116-0.247-0.232-0.375-0.344-0.305-0.374-0.641-0.728-1.031-1.063-0.286-0.341-0.61-0.661-0.969-0.969-0.278-0.332-0.591-0.637-0.938-0.938-0.307-0.371-0.641-0.73-1.031-1.063-0.29-0.341-0.607-0.661-0.969-0.969-0.289-0.341-0.609-0.661-0.969-0.969-0.275-0.325-0.568-0.642-0.906-0.938-0.31-0.373-0.67-0.728-1.063-1.063-0.298-0.347-0.629-0.687-1-1-0.26-0.299-0.53-0.601-0.844-0.875-0.313-0.376-0.667-0.725-1.063-1.063-0.293-0.34-0.607-0.66-0.969-0.969-0.303-0.353-0.623-0.713-1-1.031-0.286-0.328-0.588-0.639-0.938-0.938-0.294-0.341-0.607-0.659-0.969-0.969-0.267-0.31-0.552-0.622-0.875-0.906-0.292-0.349-0.639-0.652-1-0.969-0.309-0.367-0.646-0.731-1.031-1.063-0.267-0.31-0.553-0.622-0.875-0.906-0.314-0.375-0.67-0.724-1.063-1.063-0.293-0.339-0.61-0.66-0.969-0.969-0.285-0.331-0.59-0.636-0.938-0.938-0.31-0.364-0.648-0.702-1.031-1.031-0.269-0.31-0.552-0.621-0.875-0.906-1.224-1.447-3.01-2.623-5.406-3.563-3.83-1.505-6.415-2.262-8.5-2.125" fill-opacity="0.235" id="path6"/>
 <g fill-rule="evenodd" id="g8">
  <path d="m256 1c-140.83 0-255 114.17-255 255s114.17 255 255 255 255-114.17 255-255-114.17-255-255-255m8.827 44.931c120.9 0 218.9 98 218.9 218.9s-98 218.9-218.9 218.9-218.93-98-218.93-218.9 98.03-218.9 218.93-218.9" fill-opacity="0.067" id="path10"/>
  <g fill-opacity="0.129" id="g12">
   <path d="m256 4.433c-138.94 0-251.57 112.63-251.57 251.57s112.63 251.57 251.57 251.57 251.57-112.63 251.57-251.57-112.63-251.57-251.57-251.57m5.885 38.556c120.9 0 218.9 98 218.9 218.9s-98 218.9-218.9 218.9-218.93-98-218.93-218.9 98.03-218.9 218.93-218.9" id="path14"/>
   <path d="m256 8.356c-136.77 0-247.64 110.87-247.64 247.64s110.87 247.64 247.64 247.64 247.64-110.87 247.64-247.64-110.87-247.64-247.64-247.64m2.942 31.691c120.9 0 218.9 98 218.9 218.9s-98 218.9-218.9 218.9-218.93-98-218.93-218.9 98.03-218.9 218.93-218.9" id="path16"/>
  </g>
  <path fill="#ffffff" stroke-width="4.904" stroke="#000000" stroke-opacity="0.31" d="m253.04 7.859c-135.42 0-245.19 109.78-245.19 245.19 0 135.42 109.78 245.19 245.19 245.19 135.42 0 245.19-109.78 245.19-245.19 0-135.42-109.78-245.19-245.19-245.19zm0 26.297c120.9 0 218.9 98 218.9 218.9s-98 218.9-218.9 218.9-218.93-98-218.93-218.9 98.03-218.9 218.93-218.9z" id="path18"/>
 </g>
 <text font-family="Gentium Book Basic" x="729.64" y="231.36" line-height="125%" font-size="129.23" id="text20" word-spacing="0" letter-spacing="0"><tspan x="729.64" y="231.36" id="tspan22"/>
 </text>
 <text font-family="Arial" x="378.91" y="579.25" transform="scale(4.0128 .2492)" font-size="46.954" id="text24" text-anchor="middle"/>
 <text font-family="Gentium Book Basic" x="1310.91" y="151.36" line-height="125%" font-size="129.23" id="text26" word-spacing="0" letter-spacing="0"><tspan x="1310.91" y="151.36" id="tspan28"/>
 </text>
 <text font-family="Arial" x="523.76" y="258.22" transform="scale(4.0128 .2492)" font-size="46.954" id="text30" text-anchor="middle"/>
 <text font-family="Gentium Book Basic" x="239.33" y="-29.901" line-height="125%" font-size="129.23" id="text32" word-spacing="0" letter-spacing="0"><tspan x="239.33" y="-29.901" id="tspan34"/>
 </text>
 <text font-family="Arial" x="256.72" y="-469.14" transform="scale(4.0128 .2492)" font-size="46.954" id="text36" text-anchor="middle"/>
 <text font-family="Gentium Book Basic" x="1337.38" y="-246.37" line-height="125%" font-size="129.23" id="text38" word-spacing="0" letter-spacing="0"><tspan x="1337.38" y="-246.37" id="tspan40"/>
 </text>
 <text font-family="Arial" x="530.36" y="-1337.81" transform="scale(4.0128 .2492)" font-size="46.954" id="text42" text-anchor="middle"/>
 <text font-family="Gentium Book Basic" x="1918.65" y="-326.38" line-height="125%" font-size="129.23" id="text44" word-spacing="0" letter-spacing="0"><tspan x="1918.65" y="-326.38" id="tspan46"/>
 </text>
 <text font-family="Arial" x="675.21" y="-1658.85" transform="scale(4.0128 .2492)" font-size="46.954" id="text48" text-anchor="middle"/>
 <text font-family="Gentium Book Basic" x="1529.53" y="-798.78" line-height="125%" font-size="129.23" id="text50" word-spacing="0" letter-spacing="0"><tspan x="1529.53" y="-798.78" id="tspan52"/>
 </text>
 <text font-family="Arial" x="578.24" y="-3554.51" transform="scale(4.0128 .2492)" font-size="46.954" id="text54" text-anchor="middle"/>
 <text font-family="Gentium Book Basic" x="2110.79" y="-878.78" line-height="125%" font-size="129.23" id="text56" word-spacing="0" letter-spacing="0"><tspan x="2110.79" y="-878.78" id="tspan58"/>
 </text>
 <text font-family="Arial" x="723.09" y="-3875.54" transform="scale(4.0128 .2492)" font-size="46.954" id="text60" text-anchor="middle"/>
 <text font-family="Gentium Book Basic" x="277.99" y="535.94" line-height="125%" font-size="208.33" id="text62" word-spacing="0" letter-spacing="0"><tspan x="277.99" y="535.94" id="tspan64"/>
 </text>
 <g fill="#ffffff" transform="matrix(.86669 0 0 .86669 25.16 45.859)" id="g66">
  <text font-family="Gentium Book Basic" x="-1672.58" y="383.17" line-height="125%" font-size="208.33" id="text68" word-spacing="0" letter-spacing="0"><tspan x="-1672.58" y="383.17" id="tspan70"/>
  </text>
  <g fill-opacity="0.969" id="g72">
   <path d="m379.93 289.71c-5.475-0.832-9.432-2.737-11.854-5.708-3.179-3.9-9.632-4.098-20.924-0.64-12.667 3.878-14.172 5.092-17.92 14.448-4.582 11.44-6.881 12.623-21.55 11.09-14.693-1.535-16.645-3.127-19.12-15.588-2.01-10.15-1.506-9.571-14.525-16.572-11.935-6.418-14.748-6.669-24.474-2.184-9.256 4.268-12.196 3.211-20.951-7.531-8.761-10.749-9.304-14.349-3.521-23.355 5.078-7.91 5.454-10.758 2.769-20.985-3.546-13.504-5.919-16.693-15.456-20.772-10.648-4.554-12.151-7.458-10.876-21.02 1.131-12.03 6.679-18.867 15.422-18.996 7.21-0.107 9.797-2.218 15.927-12.999 6.748-11.864 7.212-15.458 3.293-25.509-4.304-11.04-3.709-12.757 7.621-21.991 12.225-9.965 13.951-9.898 29.2 1.119 2.423 1.751 6.869 1.051 22.01-3.463 7.31-2.18 9.336-4.196 13.07-13 4.985-11.773 8.534-13.429 24.15-11.269 10.604 1.467 15.784 6.769 16.276 16.66 0.326 6.557 2.998 9.469 14.299 15.584 11.975 6.479 13.848 6.668 24.07 2.429 11.348-4.704 14.08-3.604 24.16 9.736 8.445 11.175 8.985 14.331 3.506 20.484-7.376 8.283-8.02 11.946-4.298 24.452 3.825 12.852 5.785 14.955 17.346 18.602 7.87 2.483 9.992 8.277 8.241 22.496-1.492 12.11-5.516 16.14-17.11 17.12-7.509 0.637-8.281 1.363-15.382 14.458-6.507 11.999-6.607 14.215-1.136 25.15 4.115 8.224 2.949 10.994-8.573 20.386-8.857 7.219-10.146 7.913-13.695 7.374m-27.428-81.35c11.447-24.12-3.638-51.12-30.28-54.19-27.437-3.164-48.47 23.375-39.486 49.828 10.858 31.981 55.34 34.764 69.769 4.365" id="path74"/>
   <path d="m199.91 407.72c-3.53-1.442-5.87-3.357-7.01-5.736-1.497-3.124-5.785-4.3-13.901-3.811-9.104 0.548-10.308 1.118-14.329 6.774-4.916 6.916-6.645 7.336-16.216 3.939-9.586-3.403-10.635-4.783-10.275-13.523 0.293-7.119 0.539-6.649-7.04-13.439-6.951-6.225-8.792-6.847-16.03-5.418-6.885 1.361-8.681 0.178-12.805-8.427-4.126-8.61-3.908-11.11 1.418-16.2 4.677-4.473 5.389-6.319 5.245-13.597-0.19-9.611-1.263-12.13-6.987-16.401-6.391-4.769-6.927-6.955-3.882-15.826 2.702-7.87 7.52-11.547 13.392-10.221 4.843 1.094 6.915 0.099 12.761-6.126 6.434-6.85 7.325-9.18 6.327-16.54-1.096-8.08-0.42-9.137 8.655-13.487 9.793-4.693 10.937-4.37 19.364 5.469 1.339 1.563 4.427 1.814 15.288 1.239 5.245-0.277 6.927-1.299 10.846-6.591 5.239-7.07 7.882-7.609 17.983-3.639 6.86 2.696 9.47 7.082 8.2 13.781-0.842 4.442 0.476 6.822 7.05 12.741 6.967 6.272 8.191 6.701 15.72 5.517 8.356-1.314 10.01-0.136 14.597 10.422 3.846 8.844 3.697 11.04-0.964 14.276-6.275 4.351-7.298 6.699-6.829 15.67 0.483 9.22 1.455 10.944 8.603 15.254 4.866 2.934 5.35 7.155 1.879 16.388-2.956 7.863-6.3 9.908-14.216 8.693-5.129-0.787-5.763-0.427-12.632 7.19-6.294 6.979-6.72 8.446-4.825 16.648 1.425 6.169 0.197 7.835-9.03 12.258-7.095 3.4-8.07 3.656-10.357 2.722m-5.208-58.878c11.561-14.296 5.828-34.802-11.508-41.17-17.852-6.552-36.22 7.811-34.481 26.967 2.098 23.16 31.422 32.21 45.99 14.199" id="path76"/>
  </g>
 </g>
 <text font-family="Gentium Book Basic" x="-1424.45" y="377.95" line-height="125%" font-size="180.56" id="text78" word-spacing="0" letter-spacing="0"><tspan x="-1424.45" y="377.95" id="tspan80"/>
 </text>
</svg>
