<?xml version="1.0" encoding="UTF-8" standalone="no"?>
<svg xmlns="http://www.w3.org/2000/svg" xmlns:sodipodi="http://sodipodi.sourceforge.net/DTD/sodipodi-0.dtd" xmlns:inkscape="http://www.inkscape.org/namespaces/inkscape" height="512" viewBox="0 0 512 512" width="512" version="1.1">
 <metadata id="metadata74"/>
 <g fill-rule="evenodd" id="g4">
  <path d="m471.95 253.05c0 120.9-98.01 218.91-218.91 218.91s-218.91-98.01-218.91-218.91 98.01-218.91 218.91-218.91 218.91 98.01 218.91 218.91" fill="#808080" id="path6"/>
  <path d="m256 1c-140.83 0-255 114.17-255 255s114.17 255 255 255 255-114.17 255-255-114.17-255-255-255m8.827 44.931c120.9 0 218.9 98 218.9 218.9s-98 218.9-218.9 218.9-218.93-98-218.93-218.9 98.03-218.9 218.93-218.9" fill-opacity="0.067" id="path8"/>
  <g fill-opacity="0.129" id="g10">
   <path d="m256 4.43c-138.94 0-251.57 112.63-251.57 251.57s112.63 251.57 251.57 251.57 251.57-112.63 251.57-251.57-112.63-251.57-251.57-251.57m5.885 38.556c120.9 0 218.9 98 218.9 218.9s-98 218.9-218.9 218.9-218.93-98-218.93-218.9 98.03-218.9 218.93-218.9" id="path12"/>
   <path d="m256 8.36c-136.77 0-247.64 110.87-247.64 247.64s110.87 247.64 247.64 247.64 247.64-110.87 247.64-247.64-110.87-247.64-247.64-247.64m2.942 31.691c120.9 0 218.9 98 218.9 218.9s-98 218.9-218.9 218.9-218.93-98-218.93-218.9 98.03-218.9 218.93-218.9" id="path14"/>
  </g>
  <path fill="#ffffff" stroke-width="4.904" stroke="#000000" stroke-opacity="0.31" d="m253.04 7.86c-135.42 0-245.19 109.78-245.19 245.19 0 135.42 109.78 245.19 245.19 245.19 135.42 0 245.19-109.78 245.19-245.19 0-135.42-109.78-245.19-245.19-245.19zm0 26.297c120.9 0 218.9 98 218.9 218.9s-98 218.9-218.9 218.9-218.93-98-218.93-218.9 98.03-218.9 218.93-218.9z" id="path16"/>
 </g>
 <text font-family="Gentium Book Basic" x="729.64" y="231.36" line-height="125%" font-size="129.23" id="text18" word-spacing="0" letter-spacing="0"><tspan x="729.64" y="231.36" id="tspan20"/>
 </text>
 <text font-family="Arial" x="378.91" y="579.26" transform="scale(4.0128 .2492)" font-size="46.954" id="text22" text-anchor="middle"/>
 <text font-family="Gentium Book Basic" x="1310.91" y="151.36" line-height="125%" font-size="129.23" id="text24" word-spacing="0" letter-spacing="0"><tspan x="1310.91" y="151.36" id="tspan26"/>
 </text>
 <text font-family="Arial" x="523.76" y="258.22" transform="scale(4.0128 .2492)" font-size="46.954" id="text28" text-anchor="middle"/>
 <text font-family="Gentium Book Basic" x="239.33" y="-29.9" line-height="125%" font-size="129.23" id="text30" word-spacing="0" letter-spacing="0"><tspan x="239.33" y="-29.9" id="tspan32"/>
 </text>
 <text font-family="Arial" x="256.72" y="-469.13" transform="scale(4.0128 .2492)" font-size="46.954" id="text34" text-anchor="middle"/>
 <text font-family="Gentium Book Basic" x="1337.38" y="-246.37" line-height="125%" font-size="129.23" id="text36" word-spacing="0" letter-spacing="0"><tspan x="1337.38" y="-246.37" id="tspan38"/>
 </text>
 <text font-family="Arial" x="530.36" y="-1337.8" transform="scale(4.0128 .2492)" font-size="46.954" id="text40" text-anchor="middle"/>
 <text font-family="Gentium Book Basic" x="1918.65" y="-326.37" line-height="125%" font-size="129.23" id="text42" word-spacing="0" letter-spacing="0"><tspan x="1918.65" y="-326.37" id="tspan44"/>
 </text>
 <text font-family="Arial" x="675.21" y="-1658.83" transform="scale(4.0128 .2492)" font-size="46.954" id="text46" text-anchor="middle"/>
 <text font-family="Gentium Book Basic" x="1529.53" y="-798.77" line-height="125%" font-size="129.23" id="text48" word-spacing="0" letter-spacing="0"><tspan x="1529.53" y="-798.77" id="tspan50"/>
 </text>
 <text font-family="Arial" x="578.24" y="-3554.48" transform="scale(4.0128 .2492)" font-size="46.954" id="text52" text-anchor="middle"/>
 <text font-family="Gentium Book Basic" x="2110.79" y="-878.78" line-height="125%" font-size="129.23" id="text54" word-spacing="0" letter-spacing="0"><tspan x="2110.79" y="-878.78" id="tspan56"/>
 </text>
 <text font-family="Arial" x="723.09" y="-3875.52" transform="scale(4.0128 .2492)" font-size="46.954" id="text58" text-anchor="middle"/>
 <text font-family="Gentium Book Basic" x="277.99" y="535.94" line-height="125%" font-size="208.33" id="text60" word-spacing="0" letter-spacing="0"><tspan x="277.99" y="535.94" id="tspan62"/>
 </text>
 <g id="g64" color="#000000">
  <path d="m248.47 173.38 1.938 5.03c0.331 0.867 0.647 1.721 0.969 2.563 0.011 0.031 0.02 0.063 0.031 0.094 0.708 1.989 1.417 3.979 2.125 5.969l-13.57-13.57h-11.501v41.469l-41.34-41.34h-30.063v7.157l-7.156-7.156h-35.282c-11.822 0-21.438 9.647-21.438 21.469v121.88c0 5.919 2.422 11.297 6.313 15.188l139.38 139.38c4.684 0.299 9.397 0.469 14.156 0.469 120.9 0 218.91-98.01 218.91-218.91 0-9.576-0.62-19.03-1.813-28.28l-51.31-51.31h-11.501l-0.906 2.406c-0.466 1.26-0.941 2.521-1.406 3.781l-6.281-6.281h-42.719l-0.875 2.438c-5.39 15.11-10.766 30.23-16.16 45.34l-47.781-47.781h-42.719" opacity="0.25" id="path66"/>
  <path d="m248.47 173.38 1.938 5.03c0.331 0.867 0.647 1.721 0.969 2.563 0.011 0.031 0.02 0.063 0.031 0.094 18.405 51.711 36.835 103.42 55.28 155.13l0.906 2.438h42.5l-1.75-4.938c-18.712-52.64-37.482-105.25-56.25-157.87l-0.906-2.438h-42.719m107.53 0-0.875 2.438c-9.09 25.497-18.19 50.998-27.28 76.5 7.087 19.924 14.179 39.832 21.281 59.75l1.094-3.063c15.207-42.647 30.383-85.29 45.563-127.94 0.011-0.031 0.02-0.063 0.031-0.094 0.322-0.841 0.669-1.696 1-2.563l1.906-5.03h-42.71m-127.53 0.094v165.1h33.22v-105.6l-0.219-0.625c-6.775-18.846-13.647-37.684-20.594-56.47l-0.906-2.406h-11.501m178.84 0-0.906 2.406c-6.946 18.784-13.819 37.623-20.594 56.47l-0.219 0.625v105.59h33.22v-165.1h-11.501m-292.69 0.125c-11.822 0-21.438 9.647-21.438 21.469v121.88c0 11.822 9.615 21.469 21.438 21.469h35.281v-24.598h-11.313v-115.62h11.313v-24.598h-35.282m42.44 0v24.598h30.063v-24.598h-30.063m0 140.22v24.598h30.063v-24.598h-30.063" fill="#ffffff" id="path68"/>
 </g>
</svg>
