<?xml version="1.0" encoding="UTF-8" standalone="no"?>
<svg xmlns="http://www.w3.org/2000/svg" xmlns:xlink="http://www.w3.org/1999/xlink" xmlns:sodipodi="http://sodipodi.sourceforge.net/DTD/sodipodi-0.dtd" xmlns:inkscape="http://www.inkscape.org/namespaces/inkscape" height="512" viewBox="0 0 512 512" width="512" version="1.1">
 <metadata id="metadata70"/>
 <defs id="defs68">
  <linearGradient y2="7.02" x2="0" gradientTransform="scale(1.0059 .99417)" y1="92.54" gradientUnits="userSpaceOnUse" id="ButtonShadow">
   <stop id="stop3750-1"/>
   <stop offset="1" stop-opacity="0.588" id="stop3752-6"/>
  </linearGradient>
  <filter color-interpolation-filters="sRGB" id="filter3174">
   <feGaussianBlur stdDeviation="1.71" id="feGaussianBlur3176"/>
  </filter>
  <radialGradient r="64" cx="64" cy="64" gradientUnits="userSpaceOnUse" id="radialGradient21305">
   <stop stop-color="#ffffff" id="stop4218-0"/>
   <stop offset="0.688" stop-color="#e8e8e8" id="stop4220-2"/>
   <stop offset="0.875" stop-color="#686868" id="stop4222-6"/>
   <stop offset="1" id="stop4224-6"/>
  </radialGradient>
  <filter color-interpolation-filters="sRGB" id="filter3657">
   <feGaussianBlur stdDeviation="1.14" id="feGaussianBlur3659"/>
  </filter>
  <clipPath id="clipPath3649">
   <rect fill="#ffffff" x="10" y="10" width="76" height="76" rx="4" id="rect3651"/>
  </clipPath>
  <clipPath id="clipPath3625">
   <path d="m0 0v96h96v-96h-96zm12 6h72c3.324 0 6 2.676 6 6v72c0 3.324-2.676 6-6 6h-72c-3.324 0-6-2.676-6-6v-72c0-3.324 2.676-6 6-6z" id="path3627"/>
  </clipPath>
  <linearGradient id="linearGradient3737">
   <stop stop-color="#ffffff" id="stop3739"/>
   <stop offset="1" stop-opacity="0" stop-color="#ffffff" id="stop3741"/>
  </linearGradient>
  <linearGradient y2="5.988" y1="90" gradientTransform="matrix(5.5614 0 0 5.5614 -68.443 384.26)" x2="0" gradientUnits="userSpaceOnUse" id="linearGradient31361">
   <stop stop-color="#666666" id="stop3702"/>
   <stop offset="1" stop-color="#a8a8a8" id="stop3704"/>
  </linearGradient>
  <radialGradient gradientTransform="matrix(6.4363 0 0 5.5387 -110.44 -170.79)" r="42" cy="90.17" gradientUnits="userSpaceOnUse" xlink:href="#linearGradient3737" cx="48" id="radialGradient31364"/>
  <linearGradient y2="63.893" y1="6" gradientTransform="matrix(5.5614 0 0 5.5614 -68.443 -171.89)" x2="0" gradientUnits="userSpaceOnUse" xlink:href="#linearGradient3737" id="linearGradient31367"/>
  <linearGradient y2="90.02" y1="6" gradientTransform="matrix(5.5614 0 0 5.5614 -68.443 -171.89)" x2="0" gradientUnits="userSpaceOnUse" id="linearGradient31370">
   <stop stop-color="#f0f0f0" id="stop3639"/>
   <stop offset="1" stop-color="#dcdcdc" id="stop3641"/>
  </linearGradient>
  <filter color-interpolation-filters="sRGB" height="1.384" x="-0.192" y="-0.192" width="1.384" id="filter3794">
   <feGaussianBlur stdDeviation="5.28" id="feGaussianBlur3796"/>
  </filter>
  <linearGradient x2="0" y1="20.221" gradientUnits="userSpaceOnUse" y2="138.66" id="linearGradient3613">
   <stop stop-color="#ffffff" id="stop3739-0"/>
   <stop offset="1" stop-opacity="0" stop-color="#ffffff" id="stop3741-6"/>
  </linearGradient>
  <clipPath id="clipPath3613">
   <rect fill="#ffffff" x="6" y="6" width="84" height="84" rx="6" id="rect3615"/>
  </clipPath>
  <clipPath id="clipPath3613-1">
   <rect fill="#ffffff" x="6" y="6" width="84" height="84" rx="6" id="rect3615-2"/>
  </clipPath>
  <linearGradient y2="63.893" y1="6" gradientTransform="matrix(5.5614 0 0 5.5614 -68.443 -171.89)" x2="0" gradientUnits="userSpaceOnUse" xlink:href="#linearGradient3737" id="linearGradient31367-548"/>
  <radialGradient gradientTransform="matrix(6.4363 0 0 5.5387 -110.44 -170.79)" r="42" cy="90.17" gradientUnits="userSpaceOnUse" xlink:href="#linearGradient3737" cx="48" id="radialGradient31364-363"/>
 </defs>
 <text font-family="Gentium Book Basic" x="729.64" y="231.36" word-spacing="0" line-height="125%" letter-spacing="0" font-size="129.23" id="text20"><tspan x="729.64" y="231.36" id="tspan22"/>
 </text>
 <text font-family="Arial" x="378.91" y="579.26" transform="scale(4.0128 .24920)" font-size="46.954" id="text24" text-anchor="middle"/>
 <text font-family="Gentium Book Basic" x="1310.91" y="151.36" word-spacing="0" line-height="125%" letter-spacing="0" font-size="129.23" id="text26"><tspan x="1310.91" y="151.36" id="tspan28"/>
 </text>
 <text font-family="Arial" x="523.76" y="258.22" transform="scale(4.0128 .24920)" font-size="46.954" id="text30" text-anchor="middle"/>
 <text font-family="Gentium Book Basic" x="239.33" y="-29.9" word-spacing="0" line-height="125%" letter-spacing="0" font-size="129.23" id="text32"><tspan x="239.33" y="-29.9" id="tspan34"/>
 </text>
 <text font-family="Arial" x="256.72" y="-469.13" transform="scale(4.0128 .24920)" font-size="46.954" id="text36" text-anchor="middle"/>
 <text font-family="Gentium Book Basic" x="1337.38" y="-246.37" word-spacing="0" line-height="125%" letter-spacing="0" font-size="129.23" id="text38"><tspan x="1337.38" y="-246.37" id="tspan40"/>
 </text>
 <text font-family="Arial" x="530.36" y="-1337.8" transform="scale(4.0128 .24920)" font-size="46.954" id="text42" text-anchor="middle"/>
 <text font-family="Gentium Book Basic" x="1918.65" y="-326.37" word-spacing="0" line-height="125%" letter-spacing="0" font-size="129.23" id="text44"><tspan x="1918.65" y="-326.37" id="tspan46"/>
 </text>
 <text font-family="Arial" x="675.21" y="-1658.83" transform="scale(4.0128 .24920)" font-size="46.954" id="text48" text-anchor="middle"/>
 <text font-family="Gentium Book Basic" x="1529.53" y="-798.77" word-spacing="0" line-height="125%" letter-spacing="0" font-size="129.23" id="text50"><tspan x="1529.53" y="-798.77" id="tspan52"/>
 </text>
 <text font-family="Arial" x="578.24" y="-3554.48" transform="scale(4.0128 .24920)" font-size="46.954" id="text54" text-anchor="middle"/>
 <text font-family="Gentium Book Basic" x="2110.79" y="-878.78" word-spacing="0" line-height="125%" letter-spacing="0" font-size="129.23" id="text56"><tspan x="2110.79" y="-878.78" id="tspan58"/>
 </text>
 <text font-family="Arial" x="723.09" y="-3875.52" transform="scale(4.0128 .24920)" font-size="46.954" id="text60" text-anchor="middle"/>
 <text font-family="Gentium Book Basic" x="277.99" y="535.94" word-spacing="0" line-height="125%" letter-spacing="0" font-size="208.33" id="text62"><tspan x="277.99" y="535.94" id="tspan64"/>
 </text>
 <text font-family="Gentium Book Basic" x="729.64" y="231.36" line-height="125%" font-size="129.23" id="text25" word-spacing="0" letter-spacing="0"><tspan x="729.64" y="231.36" id="tspan27"/>
 </text>
 <text font-family="Arial" x="378.91" y="579.26" transform="scale(4.0128 .24920)" font-size="46.954" id="text29" text-anchor="middle"/>
 <text font-family="Gentium Book Basic" x="1310.91" y="151.36" line-height="125%" font-size="129.23" id="text31" word-spacing="0" letter-spacing="0"><tspan x="1310.91" y="151.36" id="tspan33"/>
 </text>
 <text font-family="Arial" x="523.76" y="258.22" transform="scale(4.0128 .24920)" font-size="46.954" id="text35" text-anchor="middle"/>
 <text font-family="Gentium Book Basic" x="239.33" y="-29.9" line-height="125%" font-size="129.23" id="text37" word-spacing="0" letter-spacing="0"><tspan x="239.33" y="-29.9" id="tspan39"/>
 </text>
 <text font-family="Arial" x="256.72" y="-469.13" transform="scale(4.0128 .24920)" font-size="46.954" id="text41" text-anchor="middle"/>
 <text font-family="Gentium Book Basic" x="1337.38" y="-246.37" line-height="125%" font-size="129.23" id="text43" word-spacing="0" letter-spacing="0"><tspan x="1337.38" y="-246.37" id="tspan45"/>
 </text>
 <text font-family="Arial" x="530.36" y="-1337.8" transform="scale(4.0128 .24920)" font-size="46.954" id="text47" text-anchor="middle"/>
 <text font-family="Gentium Book Basic" x="1918.65" y="-326.37" line-height="125%" font-size="129.23" id="text49" word-spacing="0" letter-spacing="0"><tspan x="1918.65" y="-326.37" id="tspan51"/>
 </text>
 <text font-family="Arial" x="675.21" y="-1658.83" transform="scale(4.0128 .24920)" font-size="46.954" id="text53" text-anchor="middle"/>
 <text font-family="Gentium Book Basic" x="1529.53" y="-798.77" line-height="125%" font-size="129.23" id="text55" word-spacing="0" letter-spacing="0"><tspan x="1529.53" y="-798.77" id="tspan57"/>
 </text>
 <text font-family="Arial" x="578.24" y="-3554.48" transform="scale(4.0128 .24920)" font-size="46.954" id="text59" text-anchor="middle"/>
 <text font-family="Gentium Book Basic" x="2110.79" y="-878.78" line-height="125%" font-size="129.23" id="text61" word-spacing="0" letter-spacing="0"><tspan x="2110.79" y="-878.78" id="tspan63"/>
 </text>
 <text font-family="Arial" x="723.09" y="-3875.52" transform="scale(4.0128 .24920)" font-size="46.954" id="text65" text-anchor="middle"/>
 <text font-family="Gentium Book Basic" x="277.99" y="535.94" line-height="125%" font-size="208.33" id="text67" word-spacing="0" letter-spacing="0"><tspan x="277.99" y="535.94" id="tspan69"/>
 </text>
 <text font-family="Gentium Book Basic" x="729.64" y="231.36" word-spacing="0" line-height="125%" letter-spacing="0" font-size="129.23" id="text20-9"><tspan x="729.64" y="231.36" id="tspan22-0"/>
 </text>
 <text font-family="Arial" x="378.91" y="579.26" transform="scale(4.0128 .24920)" font-size="46.954" id="text24-55" text-anchor="middle"/>
 <text font-family="Gentium Book Basic" x="1310.91" y="151.36" word-spacing="0" line-height="125%" letter-spacing="0" font-size="129.23" id="text26-1"><tspan x="1310.91" y="151.36" id="tspan28-8"/>
 </text>
 <text font-family="Arial" x="523.76" y="258.22" transform="scale(4.0128 .24920)" font-size="46.954" id="text30-7" text-anchor="middle"/>
 <text font-family="Gentium Book Basic" x="239.33" y="-29.9" word-spacing="0" line-height="125%" letter-spacing="0" font-size="129.23" id="text32-7"><tspan x="239.33" y="-29.9" id="tspan34-1"/>
 </text>
 <text font-family="Arial" x="256.72" y="-469.13" transform="scale(4.0128 .24920)" font-size="46.954" id="text36-5" text-anchor="middle"/>
 <text font-family="Gentium Book Basic" x="1337.38" y="-246.37" word-spacing="0" line-height="125%" letter-spacing="0" font-size="129.23" id="text38-6"><tspan x="1337.38" y="-246.37" id="tspan40-5"/>
 </text>
 <text font-family="Arial" x="530.36" y="-1337.8" transform="scale(4.0128 .24920)" font-size="46.954" id="text42-9" text-anchor="middle"/>
 <text font-family="Gentium Book Basic" x="1918.65" y="-326.37" word-spacing="0" line-height="125%" letter-spacing="0" font-size="129.23" id="text44-8"><tspan x="1918.65" y="-326.37" id="tspan46-5"/>
 </text>
 <text font-family="Arial" x="675.21" y="-1658.83" transform="scale(4.0128 .24920)" font-size="46.954" id="text48-39" text-anchor="middle"/>
 <text font-family="Gentium Book Basic" x="1529.53" y="-798.77" word-spacing="0" line-height="125%" letter-spacing="0" font-size="129.23" id="text50-6"><tspan x="1529.53" y="-798.77" id="tspan52-2"/>
 </text>
 <text font-family="Arial" x="578.24" y="-3554.48" transform="scale(4.0128 .24920)" font-size="46.954" id="text54-2" text-anchor="middle"/>
 <text font-family="Gentium Book Basic" x="2110.79" y="-878.78" word-spacing="0" line-height="125%" letter-spacing="0" font-size="129.23" id="text56-8"><tspan x="2110.79" y="-878.78" id="tspan58-8"/>
 </text>
 <text font-family="Arial" x="723.09" y="-3875.52" transform="scale(4.0128 .24920)" font-size="46.954" id="text60-5" text-anchor="middle"/>
 <text font-family="Gentium Book Basic" x="277.99" y="535.94" word-spacing="0" line-height="125%" letter-spacing="0" font-size="208.33" id="text62-9"><tspan x="277.99" y="535.94" id="tspan64-4"/>
 </text>
 <text font-family="Gentium Book Basic" x="729.64" y="231.36" line-height="125%" font-size="129.23" id="text25-9" word-spacing="0" letter-spacing="0"><tspan x="729.64" y="231.36" id="tspan27-5"/>
 </text>
 <text font-family="Arial" x="378.91" y="579.26" transform="scale(4.0128 .24920)" font-size="46.954" id="text29-8" text-anchor="middle"/>
 <text font-family="Gentium Book Basic" x="1310.91" y="151.36" line-height="125%" font-size="129.23" id="text31-1" word-spacing="0" letter-spacing="0"><tspan x="1310.91" y="151.36" id="tspan33-0"/>
 </text>
 <text font-family="Arial" x="523.76" y="258.22" transform="scale(4.0128 .24920)" font-size="46.954" id="text35-5" text-anchor="middle"/>
 <text font-family="Gentium Book Basic" x="239.33" y="-29.9" line-height="125%" font-size="129.23" id="text37-2" word-spacing="0" letter-spacing="0"><tspan x="239.33" y="-29.9" id="tspan39-0"/>
 </text>
 <text font-family="Arial" x="256.72" y="-469.13" transform="scale(4.0128 .24920)" font-size="46.954" id="text41-4" text-anchor="middle"/>
 <text font-family="Gentium Book Basic" x="1337.38" y="-246.37" line-height="125%" font-size="129.23" id="text43-0" word-spacing="0" letter-spacing="0"><tspan x="1337.38" y="-246.37" id="tspan45-2"/>
 </text>
 <text font-family="Arial" x="530.36" y="-1337.8" transform="scale(4.0128 .24920)" font-size="46.954" id="text47-2" text-anchor="middle"/>
 <text font-family="Gentium Book Basic" x="1918.65" y="-326.37" line-height="125%" font-size="129.23" id="text49-8" word-spacing="0" letter-spacing="0"><tspan x="1918.65" y="-326.37" id="tspan51-7"/>
 </text>
 <text font-family="Arial" x="675.21" y="-1658.83" transform="scale(4.0128 .24920)" font-size="46.954" id="text53-3" text-anchor="middle"/>
 <text font-family="Gentium Book Basic" x="1529.53" y="-798.77" line-height="125%" font-size="129.23" id="text55-7" word-spacing="0" letter-spacing="0"><tspan x="1529.53" y="-798.77" id="tspan57-3"/>
 </text>
 <text font-family="Arial" x="578.24" y="-3554.48" transform="scale(4.0128 .24920)" font-size="46.954" id="text59-6" text-anchor="middle"/>
 <text font-family="Gentium Book Basic" x="2110.79" y="-878.78" line-height="125%" font-size="129.23" id="text61-6" word-spacing="0" letter-spacing="0"><tspan x="2110.79" y="-878.78" id="tspan63-1"/>
 </text>
 <text font-family="Arial" x="723.09" y="-3875.52" transform="scale(4.0128 .24920)" font-size="46.954" id="text65-1" text-anchor="middle"/>
 <text font-family="Gentium Book Basic" x="277.99" y="535.94" line-height="125%" font-size="208.33" id="text67-1" word-spacing="0" letter-spacing="0"><tspan x="277.99" y="535.94" id="tspan69-1"/>
 </text>
 <text font-family="Gentium Book Basic" x="-1976.75" y="557.19" line-height="125%" font-size="208.33" id="text8" word-spacing="0" letter-spacing="0"><tspan x="-1976.75" y="557.19" id="tspan10"/>
 </text>
 <text font-family="Arial" x="-174.88" y="1673.03" transform="scale(4.0128 .24920)" font-size="75.7" id="text12" text-anchor="middle"/>
 <text font-family="Gentium Book Basic" x="-1270.41" y="401.56" line-height="125%" font-size="208.33" id="text14" word-spacing="0" letter-spacing="0"><tspan x="-1270.41" y="401.56" id="tspan16"/>
 </text>
 <text font-family="Arial" x="1.134" y="1048.5" transform="scale(4.0128 .24920)" font-size="75.7" id="text18" text-anchor="middle"/>
 <text font-family="Gentium Book Basic" x="-1237.04" y="393.44" line-height="125%" font-size="208.33" id="text20-8" word-spacing="0" letter-spacing="0"><tspan x="-1237.04" y="393.44" id="tspan22-8"/>
 </text>
 <text font-family="Arial" x="9.454" y="1015.9" transform="scale(4.0128 .24920)" font-size="75.7" id="text24-5" text-anchor="middle"/>
 <text font-family="Gentium Book Basic" x="-980.22" y="124.99" line-height="125%" font-size="61.51" id="text26-5" word-spacing="0" letter-spacing="0"><tspan x="-980.22" y="124.99" id="tspan28-9"/>
 </text>
 <text font-family="Arial" x="-150.46" y="335.39" transform="scale(4.0128 .24920)" font-size="22.349" id="text30-8" text-anchor="middle"/>
 <text font-family="Gentium Book Basic" x="-1291.06" y="491.76" line-height="125%" font-size="208.33" id="text32-8" word-spacing="0" letter-spacing="0"><tspan x="-1291.06" y="491.76" id="tspan34-7"/>
 </text>
 <text font-family="Arial" x="-4.01" y="1410.47" transform="scale(4.0128 .24920)" font-size="75.7" id="text36-4" text-anchor="middle"/>
 <text font-family="Gentium Book Basic" x="-584.71" y="336.13" line-height="125%" font-size="208.33" id="text38-4" word-spacing="0" letter-spacing="0"><tspan x="-584.71" y="336.13" id="tspan40-2"/>
 </text>
 <text font-family="Arial" x="172.01" y="785.95" transform="scale(4.0128 .24920)" font-size="75.7" id="text42-6" text-anchor="middle"/>
 <text font-family="Gentium Book Basic" x="-551.34" y="328.01" line-height="125%" font-size="208.33" id="text44-5" word-spacing="0" letter-spacing="0"><tspan x="-551.34" y="328.01" id="tspan46-0"/>
 </text>
 <text font-family="Arial" x="180.33" y="753.35" transform="scale(4.0128 .24920)" font-size="75.7" id="text48-3" text-anchor="middle"/>
 <text font-family="Gentium Book Basic" x="-1973.76" y="517.45" line-height="125%" font-size="208.33" id="text52" word-spacing="0" letter-spacing="0"><tspan x="-1973.76" y="517.45" id="tspan54"/>
 </text>
 <text font-family="Arial" x="-174.14" y="1513.54" transform="scale(4.0128 .24920)" font-size="75.7" id="text56-4" text-anchor="middle"/>
 <text font-family="Gentium Book Basic" x="-1267.42" y="361.82" line-height="125%" font-size="208.33" id="text58" word-spacing="0" letter-spacing="0"><tspan x="-1267.42" y="361.82" id="tspan60"/>
 </text>
 <text font-family="Arial" x="1.884" y="889.02" transform="scale(4.0128 .24920)" font-size="75.7" id="text62-5" text-anchor="middle"/>
 <text font-family="Gentium Book Basic" x="-1234.05" y="353.69" line-height="125%" font-size="208.33" id="text64" word-spacing="0" letter-spacing="0"><tspan x="-1234.05" y="353.69" id="tspan66"/>
 </text>
 <text font-family="Arial" x="10.204" y="856.42" transform="scale(4.0128 .24920)" font-size="75.7" id="text68" text-anchor="middle"/>
 <text line-height="125%" font-family="Gentium Book Basic" x="-1768.43" y="804.47" font-size="208.33" transform="rotate(30)" id="text70" word-spacing="0" letter-spacing="0"><tspan x="-1768.43" y="804.47" id="tspan72"/>
 </text>
 <text font-family="Arial" x="-122.96" y="2665.3" transform="matrix(3.4752 2.0064 -.12460 .21581 0 0)" font-size="75.7" id="text74" text-anchor="middle"/>
 <text line-height="125%" font-family="Gentium Book Basic" x="-1062.08" y="648.84" font-size="208.33" transform="rotate(30)" id="text76" word-spacing="0" letter-spacing="0"><tspan x="-1062.08" y="648.84" id="tspan78"/>
 </text>
 <text font-family="Arial" x="53.05" y="2040.78" transform="matrix(3.4752 2.0064 -.12460 .21581 0 0)" font-size="75.7" id="text80" text-anchor="middle"/>
 <text line-height="125%" font-family="Gentium Book Basic" x="-1028.7" y="640.72" font-size="208.33" transform="rotate(30)" id="text82" word-spacing="0" letter-spacing="0"><tspan x="-1028.7" y="640.72" id="tspan84"/>
 </text>
 <text font-family="Arial" x="61.37" y="2008.18" transform="matrix(3.4752 2.0064 -.12460 .21581 0 0)" font-size="75.7" id="text86" text-anchor="middle"/>
 <text line-height="125%" font-family="Gentium Book Basic" x="-771.89" y="372.28" font-size="61.51" transform="rotate(30)" id="text88" word-spacing="0" letter-spacing="0"><tspan x="-771.89" y="372.28" id="tspan90"/>
 </text>
 <text font-family="Arial" x="-98.54" y="1327.68" transform="matrix(3.4752 2.0064 -.12460 .21581 0 0)" font-size="22.349" id="text92" text-anchor="middle"/>
 <text font-family="Gentium Book Basic" x="-86.63" y="239.03" line-height="125%" font-size="129.23" id="text106" word-spacing="0" letter-spacing="0"><tspan x="-86.63" y="239.03" id="tspan108"/>
 </text>
 <text font-family="Arial" x="175.49" y="610.04" transform="scale(4.0128 .24920)" font-size="46.954" id="text110" text-anchor="middle"/>
 <text font-family="Gentium Book Basic" x="494.64" y="159.03" line-height="125%" font-size="129.23" id="text112" word-spacing="0" letter-spacing="0"><tspan x="494.64" y="159.03" id="tspan114"/>
 </text>
 <text font-family="Arial" x="320.34" y="289" transform="scale(4.0128 .24920)" font-size="46.954" id="text116" text-anchor="middle"/>
 <text font-family="Gentium Book Basic" x="-576.94" y="-22.23" line-height="125%" font-size="129.23" id="text118" word-spacing="0" letter-spacing="0"><tspan x="-576.94" y="-22.23" id="tspan120"/>
 </text>
 <text font-family="Arial" x="53.3" y="-438.34" transform="scale(4.0128 .24920)" font-size="46.954" id="text122" text-anchor="middle"/>
 <text font-family="Gentium Book Basic" x="521.11" y="-238.7" line-height="125%" font-size="129.23" id="text124" word-spacing="0" letter-spacing="0"><tspan x="521.11" y="-238.7" id="tspan126"/>
 </text>
 <text font-family="Arial" x="326.94" y="-1307.02" transform="scale(4.0128 .24920)" font-size="46.954" id="text128" text-anchor="middle"/>
 <text font-family="Gentium Book Basic" x="1102.38" y="-318.7" line-height="125%" font-size="129.23" id="text130" word-spacing="0" letter-spacing="0"><tspan x="1102.38" y="-318.7" id="tspan132"/>
 </text>
 <text font-family="Arial" x="471.79" y="-1628.05" transform="scale(4.0128 .24920)" font-size="46.954" id="text134" text-anchor="middle"/>
 <text font-family="Gentium Book Basic" x="713.26" y="-791.1" line-height="125%" font-size="129.23" id="text136" word-spacing="0" letter-spacing="0"><tspan x="713.26" y="-791.1" id="tspan138"/>
 </text>
 <text font-family="Arial" x="374.82" y="-3523.7" transform="scale(4.0128 .24920)" font-size="46.954" id="text140" text-anchor="middle"/>
 <text font-family="Gentium Book Basic" x="1294.52" y="-871.11" line-height="125%" font-size="129.23" id="text142" word-spacing="0" letter-spacing="0"><tspan x="1294.52" y="-871.11" id="tspan144"/>
 </text>
 <text font-family="Arial" x="519.67" y="-3844.74" transform="scale(4.0128 .24920)" font-size="46.954" id="text146" text-anchor="middle"/>
 <text font-family="Gentium Book Basic" x="-538.28" y="543.61" line-height="125%" font-size="208.33" id="text148" word-spacing="0" letter-spacing="0"><tspan x="-538.28" y="543.61" id="tspan150"/>
 </text>
 <text font-family="Gentium Book Basic" x="729.64" y="231.36" word-spacing="0" line-height="125%" letter-spacing="0" font-size="129.23" id="text20-1"><tspan x="729.64" y="231.36" id="tspan22-9"/>
 </text>
 <text font-family="Arial" x="378.91" y="579.26" transform="scale(4.0128 .24920)" font-size="46.954" id="text24-6" text-anchor="middle"/>
 <text font-family="Gentium Book Basic" x="1310.91" y="151.36" word-spacing="0" line-height="125%" letter-spacing="0" font-size="129.23" id="text26-6"><tspan x="1310.91" y="151.36" id="tspan28-85"/>
 </text>
 <text font-family="Arial" x="523.76" y="258.22" transform="scale(4.0128 .24920)" font-size="46.954" id="text30-6" text-anchor="middle"/>
 <text font-family="Gentium Book Basic" x="239.33" y="-29.9" word-spacing="0" line-height="125%" letter-spacing="0" font-size="129.23" id="text32-5"><tspan x="239.33" y="-29.9" id="tspan34-0"/>
 </text>
 <text font-family="Arial" x="256.72" y="-469.13" transform="scale(4.0128 .24920)" font-size="46.954" id="text36-47" text-anchor="middle"/>
 <text font-family="Gentium Book Basic" x="1337.38" y="-246.37" word-spacing="0" line-height="125%" letter-spacing="0" font-size="129.23" id="text38-0"><tspan x="1337.38" y="-246.37" id="tspan40-8"/>
 </text>
 <text font-family="Arial" x="530.36" y="-1337.8" transform="scale(4.0128 .24920)" font-size="46.954" id="text42-7" text-anchor="middle"/>
 <text font-family="Gentium Book Basic" x="1918.65" y="-326.37" word-spacing="0" line-height="125%" letter-spacing="0" font-size="129.23" id="text44-88"><tspan x="1918.65" y="-326.37" id="tspan46-9"/>
 </text>
 <text font-family="Arial" x="675.21" y="-1658.83" transform="scale(4.0128 .24920)" font-size="46.954" id="text48-7" text-anchor="middle"/>
 <text font-family="Gentium Book Basic" x="1529.53" y="-798.77" word-spacing="0" line-height="125%" letter-spacing="0" font-size="129.23" id="text50-9"><tspan x="1529.53" y="-798.77" id="tspan52-3"/>
 </text>
 <text font-family="Arial" x="578.24" y="-3554.48" transform="scale(4.0128 .24920)" font-size="46.954" id="text54-9" text-anchor="middle"/>
 <text font-family="Gentium Book Basic" x="2110.79" y="-878.78" word-spacing="0" line-height="125%" letter-spacing="0" font-size="129.23" id="text56-0"><tspan x="2110.79" y="-878.78" id="tspan58-9"/>
 </text>
 <text font-family="Arial" x="723.09" y="-3875.52" transform="scale(4.0128 .24920)" font-size="46.954" id="text60-4" text-anchor="middle"/>
 <text font-family="Gentium Book Basic" x="277.99" y="535.94" word-spacing="0" line-height="125%" letter-spacing="0" font-size="208.33" id="text62-93"><tspan x="277.99" y="535.94" id="tspan64-9"/>
 </text>
 <text font-family="Gentium Book Basic" x="729.64" y="231.36" line-height="125%" font-size="129.23" id="text25-3" word-spacing="0" letter-spacing="0"><tspan x="729.64" y="231.36" id="tspan27-3"/>
 </text>
 <text font-family="Arial" x="378.91" y="579.26" transform="scale(4.0128 .24920)" font-size="46.954" id="text29-2" text-anchor="middle"/>
 <text font-family="Gentium Book Basic" x="1310.91" y="151.36" line-height="125%" font-size="129.23" id="text31-0" word-spacing="0" letter-spacing="0"><tspan x="1310.91" y="151.36" id="tspan33-1"/>
 </text>
 <text font-family="Arial" x="523.76" y="258.22" transform="scale(4.0128 .24920)" font-size="46.954" id="text35-2" text-anchor="middle"/>
 <text font-family="Gentium Book Basic" x="239.33" y="-29.9" line-height="125%" font-size="129.23" id="text37-7" word-spacing="0" letter-spacing="0"><tspan x="239.33" y="-29.9" id="tspan39-7"/>
 </text>
 <text font-family="Arial" x="256.72" y="-469.13" transform="scale(4.0128 .24920)" font-size="46.954" id="text41-8" text-anchor="middle"/>
 <text font-family="Gentium Book Basic" x="1337.38" y="-246.37" line-height="125%" font-size="129.23" id="text43-7" word-spacing="0" letter-spacing="0"><tspan x="1337.38" y="-246.37" id="tspan45-1"/>
 </text>
 <text font-family="Arial" x="530.36" y="-1337.8" transform="scale(4.0128 .24920)" font-size="46.954" id="text47-5" text-anchor="middle"/>
 <text font-family="Gentium Book Basic" x="1918.65" y="-326.37" line-height="125%" font-size="129.23" id="text49-7" word-spacing="0" letter-spacing="0"><tspan x="1918.65" y="-326.37" id="tspan51-0"/>
 </text>
 <text font-family="Arial" x="675.21" y="-1658.83" transform="scale(4.0128 .24920)" font-size="46.954" id="text53-2" text-anchor="middle"/>
 <text font-family="Gentium Book Basic" x="1529.53" y="-798.77" line-height="125%" font-size="129.23" id="text55-70" word-spacing="0" letter-spacing="0"><tspan x="1529.53" y="-798.77" id="tspan57-4"/>
 </text>
 <text font-family="Arial" x="578.24" y="-3554.48" transform="scale(4.0128 .24920)" font-size="46.954" id="text59-4" text-anchor="middle"/>
 <text font-family="Gentium Book Basic" x="2110.79" y="-878.78" line-height="125%" font-size="129.23" id="text61-1" word-spacing="0" letter-spacing="0"><tspan x="2110.79" y="-878.78" id="tspan63-7"/>
 </text>
 <text font-family="Arial" x="723.09" y="-3875.52" transform="scale(4.0128 .24920)" font-size="46.954" id="text65-6" text-anchor="middle"/>
 <text font-family="Gentium Book Basic" x="277.99" y="535.94" line-height="125%" font-size="208.33" id="text67-18" word-spacing="0" letter-spacing="0"><tspan x="277.99" y="535.94" id="tspan69-2"/>
 </text>
 <text font-family="Gentium Book Basic" x="729.64" y="231.36" line-height="125%" font-size="129.23" id="text20-14" word-spacing="0" letter-spacing="0"><tspan x="729.64" y="231.36" id="tspan22-96"/>
 </text>
 <text font-family="Arial" x="378.91" y="579.26" transform="scale(4.0128 .24920)" font-size="46.954" id="text24-61" text-anchor="middle"/>
 <text font-family="Gentium Book Basic" x="1310.91" y="151.36" line-height="125%" font-size="129.23" id="text26-7" word-spacing="0" letter-spacing="0"><tspan x="1310.91" y="151.36" id="tspan28-88"/>
 </text>
 <text font-family="Arial" x="523.76" y="258.22" transform="scale(4.0128 .24920)" font-size="46.954" id="text30-4" text-anchor="middle"/>
 <text font-family="Gentium Book Basic" x="239.33" y="-29.9" line-height="125%" font-size="129.23" id="text32-6" word-spacing="0" letter-spacing="0"><tspan x="239.33" y="-29.9" id="tspan34-78"/>
 </text>
 <text font-family="Arial" x="256.72" y="-469.13" transform="scale(4.0128 .24920)" font-size="46.954" id="text36-44" text-anchor="middle"/>
 <text font-family="Gentium Book Basic" x="1337.38" y="-246.37" line-height="125%" font-size="129.23" id="text38-08" word-spacing="0" letter-spacing="0"><tspan x="1337.38" y="-246.37" id="tspan40-4"/>
 </text>
 <text font-family="Arial" x="530.36" y="-1337.8" transform="scale(4.0128 .24920)" font-size="46.954" id="text42-2" text-anchor="middle"/>
 <text font-family="Gentium Book Basic" x="1918.65" y="-326.37" line-height="125%" font-size="129.23" id="text44-2" word-spacing="0" letter-spacing="0"><tspan x="1918.65" y="-326.37" id="tspan46-04"/>
 </text>
 <text font-family="Arial" x="675.21" y="-1658.83" transform="scale(4.0128 .24920)" font-size="46.954" id="text48-2" text-anchor="middle"/>
 <text font-family="Gentium Book Basic" x="1529.53" y="-798.77" line-height="125%" font-size="129.23" id="text50-65" word-spacing="0" letter-spacing="0"><tspan x="1529.53" y="-798.77" id="tspan52-28"/>
 </text>
 <text font-family="Arial" x="578.24" y="-3554.48" transform="scale(4.0128 .24920)" font-size="46.954" id="text54-8" text-anchor="middle"/>
 <text font-family="Gentium Book Basic" x="2110.79" y="-878.78" line-height="125%" font-size="129.23" id="text56-42" word-spacing="0" letter-spacing="0"><tspan x="2110.79" y="-878.78" id="tspan58-3"/>
 </text>
 <text font-family="Arial" x="723.09" y="-3875.52" transform="scale(4.0128 .24920)" font-size="46.954" id="text60-7" text-anchor="middle"/>
 <text font-family="Gentium Book Basic" x="277.99" y="535.94" line-height="125%" font-size="208.33" id="text62-6" word-spacing="0" letter-spacing="0"><tspan x="277.99" y="535.94" id="tspan64-2"/>
 </text>
 <text font-family="Gentium Book Basic" x="729.64" y="231.36" line-height="125%" font-size="129.23" id="text20-4" word-spacing="0" letter-spacing="0"><tspan x="729.64" y="231.36" id="tspan22-02"/>
 </text>
 <text font-family="Arial" x="378.91" y="579.26" transform="scale(4.0128 .24920)" font-size="46.954" id="text24-60" text-anchor="middle"/>
 <text font-family="Gentium Book Basic" x="1310.91" y="151.36" line-height="125%" font-size="129.23" id="text26-00" word-spacing="0" letter-spacing="0"><tspan x="1310.91" y="151.36" id="tspan28-2"/>
 </text>
 <text font-family="Arial" x="523.76" y="258.22" transform="scale(4.0128 .24920)" font-size="46.954" id="text30-30" text-anchor="middle"/>
 <text font-family="Gentium Book Basic" x="239.33" y="-29.9" line-height="125%" font-size="129.23" id="text32-0" word-spacing="0" letter-spacing="0"><tspan x="239.33" y="-29.9" id="tspan34-8"/>
 </text>
 <text font-family="Arial" x="256.72" y="-469.13" transform="scale(4.0128 .24920)" font-size="46.954" id="text36-443" text-anchor="middle"/>
 <text font-family="Gentium Book Basic" x="1337.38" y="-246.37" line-height="125%" font-size="129.23" id="text38-7" word-spacing="0" letter-spacing="0"><tspan x="1337.38" y="-246.37" id="tspan40-9"/>
 </text>
 <text font-family="Arial" x="530.36" y="-1337.8" transform="scale(4.0128 .24920)" font-size="46.954" id="text42-97" text-anchor="middle"/>
 <text font-family="Gentium Book Basic" x="1918.65" y="-326.37" line-height="125%" font-size="129.23" id="text44-29" word-spacing="0" letter-spacing="0"><tspan x="1918.65" y="-326.37" id="tspan46-51"/>
 </text>
 <text font-family="Arial" x="675.21" y="-1658.83" transform="scale(4.0128 .24920)" font-size="46.954" id="text48-65" text-anchor="middle"/>
 <text font-family="Gentium Book Basic" x="1529.53" y="-798.77" line-height="125%" font-size="129.23" id="text50-8" word-spacing="0" letter-spacing="0"><tspan x="1529.53" y="-798.77" id="tspan52-96"/>
 </text>
 <text font-family="Arial" x="578.24" y="-3554.48" transform="scale(4.0128 .24920)" font-size="46.954" id="text54-83" text-anchor="middle"/>
 <text font-family="Gentium Book Basic" x="2110.79" y="-878.78" line-height="125%" font-size="129.23" id="text56-2" word-spacing="0" letter-spacing="0"><tspan x="2110.79" y="-878.78" id="tspan58-2"/>
 </text>
 <text font-family="Arial" x="723.09" y="-3875.52" transform="scale(4.0128 .24920)" font-size="46.954" id="text60-3" text-anchor="middle"/>
 <text font-family="Gentium Book Basic" x="277.99" y="535.94" line-height="125%" font-size="208.33" id="text62-4" word-spacing="0" letter-spacing="0"><tspan x="277.99" y="535.94" id="tspan64-93"/>
 </text>
 <text font-family="Gentium Book Basic" x="968.53" y="-503.34" line-height="125%" font-size="129.23" id="text18-6" word-spacing="0" letter-spacing="0"><tspan x="968.53" y="-503.34" id="tspan20"/>
 </text>
 <text font-family="Arial" x="438.44" y="-2368.97" transform="scale(4.0128 .24920)" font-size="46.954" id="text22" text-anchor="middle"/>
 <text font-family="Gentium Book Basic" x="1549.8" y="-583.34" line-height="125%" font-size="129.23" id="text24-7" word-spacing="0" letter-spacing="0"><tspan x="1549.8" y="-583.34" id="tspan26"/>
 </text>
 <text font-family="Arial" x="583.29" y="-2690.01" transform="scale(4.0128 .24920)" font-size="46.954" id="text28" text-anchor="middle"/>
 <text font-family="Gentium Book Basic" x="478.22" y="-764.6" line-height="125%" font-size="129.23" id="text30-3" word-spacing="0" letter-spacing="0"><tspan x="478.22" y="-764.6" id="tspan32"/>
 </text>
 <text font-family="Arial" x="316.25" y="-3417.36" transform="scale(4.0128 .24920)" font-size="46.954" id="text34" text-anchor="middle"/>
 <text font-family="Gentium Book Basic" x="1576.27" y="-981.07" line-height="125%" font-size="129.23" id="text36-0" word-spacing="0" letter-spacing="0"><tspan x="1576.27" y="-981.07" id="tspan38"/>
 </text>
 <text font-family="Arial" x="589.89" y="-4286.02" transform="scale(4.0128 .24920)" font-size="46.954" id="text40" text-anchor="middle"/>
 <text font-family="Gentium Book Basic" x="2157.54" y="-1061.07" line-height="125%" font-size="129.23" id="text42-7-1" word-spacing="0" letter-spacing="0"><tspan x="2157.54" y="-1061.07" id="tspan44"/>
 </text>
 <text font-family="Arial" x="734.74" y="-4607.05" transform="scale(4.0128 .24920)" font-size="46.954" id="text46" text-anchor="middle"/>
 <text font-family="Gentium Book Basic" x="1768.42" y="-1533.47" line-height="125%" font-size="129.23" id="text48-4" word-spacing="0" letter-spacing="0"><tspan x="1768.42" y="-1533.47" id="tspan50"/>
 </text>
 <text font-family="Arial" x="637.77" y="-6502.69" transform="scale(4.0128 .24920)" font-size="46.954" id="text52-8" text-anchor="middle"/>
 <text font-family="Gentium Book Basic" x="2349.68" y="-1613.48" line-height="125%" font-size="129.23" id="text54-2-2" word-spacing="0" letter-spacing="0"><tspan x="2349.68" y="-1613.48" id="tspan56"/>
 </text>
 <text font-family="Arial" x="782.62" y="-6823.73" transform="scale(4.0128 .24920)" font-size="46.954" id="text58-1" text-anchor="middle"/>
 <text font-family="Gentium Book Basic" x="516.88" y="-198.76" line-height="125%" font-size="208.33" id="text60-1" word-spacing="0" letter-spacing="0"><tspan x="516.88" y="-198.76" id="tspan62"/>
 </text>
 <text font-family="Gentium Book Basic" x="729.64" y="231.36" line-height="125%" font-size="129.23" id="text20-9-8" word-spacing="0" letter-spacing="0"><tspan x="729.64" y="231.36" id="tspan22-1"/>
 </text>
 <text font-family="Arial" x="378.91" y="579.26" transform="scale(4.0128 .24920)" font-size="46.954" id="text24-3" text-anchor="middle"/>
 <text font-family="Gentium Book Basic" x="1310.91" y="151.36" line-height="125%" font-size="129.23" id="text26-0" word-spacing="0" letter-spacing="0"><tspan x="1310.91" y="151.36" id="tspan28-6"/>
 </text>
 <text font-family="Arial" x="523.76" y="258.22" transform="scale(4.0128 .24920)" font-size="46.954" id="text30-4-0" text-anchor="middle"/>
 <text font-family="Gentium Book Basic" x="239.33" y="-29.9" line-height="125%" font-size="129.23" id="text32-4" word-spacing="0" letter-spacing="0"><tspan x="239.33" y="-29.9" id="tspan34-1-7"/>
 </text>
 <text font-family="Arial" x="256.72" y="-469.13" transform="scale(4.0128 .24920)" font-size="46.954" id="text36-6" text-anchor="middle"/>
 <text font-family="Gentium Book Basic" x="1337.38" y="-246.37" line-height="125%" font-size="129.23" id="text38-3" word-spacing="0" letter-spacing="0"><tspan x="1337.38" y="-246.37" id="tspan40-3"/>
 </text>
 <text font-family="Arial" x="530.36" y="-1337.8" transform="scale(4.0128 .24920)" font-size="46.954" id="text42-3" text-anchor="middle"/>
 <text font-family="Gentium Book Basic" x="1918.65" y="-326.37" line-height="125%" font-size="129.23" id="text44-1" word-spacing="0" letter-spacing="0"><tspan x="1918.65" y="-326.37" id="tspan46-2"/>
 </text>
 <text font-family="Arial" x="675.21" y="-1658.83" transform="scale(4.0128 .24920)" font-size="46.954" id="text48-6" text-anchor="middle"/>
 <text font-family="Gentium Book Basic" x="1529.53" y="-798.77" line-height="125%" font-size="129.23" id="text50-2" word-spacing="0" letter-spacing="0"><tspan x="1529.53" y="-798.77" id="tspan52-9"/>
 </text>
 <text font-family="Arial" x="578.24" y="-3554.48" transform="scale(4.0128 .24920)" font-size="46.954" id="text54-3" text-anchor="middle"/>
 <text font-family="Gentium Book Basic" x="2110.79" y="-878.78" line-height="125%" font-size="129.23" id="text56-4-5" word-spacing="0" letter-spacing="0"><tspan x="2110.79" y="-878.78" id="tspan58-0"/>
 </text>
 <text font-family="Arial" x="723.09" y="-3875.52" transform="scale(4.0128 .24920)" font-size="46.954" id="text60-7-5" text-anchor="middle"/>
 <text font-family="Gentium Book Basic" x="277.99" y="535.94" line-height="125%" font-size="208.33" id="text62-5-7" word-spacing="0" letter-spacing="0"><tspan x="277.99" y="535.94" id="tspan64-8"/>
 </text>
 <text font-family="Gentium Book Basic" x="968.53" y="-503.34" line-height="125%" font-size="129.23" id="text18-0" word-spacing="0" letter-spacing="0"><tspan x="968.53" y="-503.34" id="tspan20-6"/>
 </text>
 <text font-family="Arial" x="438.44" y="-2368.97" transform="scale(4.0128 .24920)" font-size="46.954" id="text22-4" text-anchor="middle"/>
 <text font-family="Gentium Book Basic" x="1549.8" y="-583.34" line-height="125%" font-size="129.23" id="text24-7-6" word-spacing="0" letter-spacing="0"><tspan x="1549.8" y="-583.34" id="tspan26-8"/>
 </text>
 <text font-family="Arial" x="583.29" y="-2690.01" transform="scale(4.0128 .24920)" font-size="46.954" id="text28-3" text-anchor="middle"/>
 <text font-family="Gentium Book Basic" x="478.22" y="-764.6" line-height="125%" font-size="129.23" id="text30-3-3" word-spacing="0" letter-spacing="0"><tspan x="478.22" y="-764.6" id="tspan32-6"/>
 </text>
 <text font-family="Arial" x="316.25" y="-3417.36" transform="scale(4.0128 .24920)" font-size="46.954" id="text34-6" text-anchor="middle"/>
 <text font-family="Gentium Book Basic" x="1576.27" y="-981.07" line-height="125%" font-size="129.23" id="text36-0-0" word-spacing="0" letter-spacing="0"><tspan x="1576.27" y="-981.07" id="tspan38-8"/>
 </text>
 <text font-family="Arial" x="589.89" y="-4286.02" transform="scale(4.0128 .24920)" font-size="46.954" id="text40-8" text-anchor="middle"/>
 <text font-family="Gentium Book Basic" x="2157.54" y="-1061.07" line-height="125%" font-size="129.23" id="text42-7-6" word-spacing="0" letter-spacing="0"><tspan x="2157.54" y="-1061.07" id="tspan44-0"/>
 </text>
 <text font-family="Arial" x="734.74" y="-4607.05" transform="scale(4.0128 .24920)" font-size="46.954" id="text46-5" text-anchor="middle"/>
 <text font-family="Gentium Book Basic" x="1768.42" y="-1533.47" line-height="125%" font-size="129.23" id="text48-4-7" word-spacing="0" letter-spacing="0"><tspan x="1768.42" y="-1533.47" id="tspan50-4"/>
 </text>
 <text font-family="Arial" x="637.77" y="-6502.69" transform="scale(4.0128 .24920)" font-size="46.954" id="text52-5" text-anchor="middle"/>
 <text font-family="Gentium Book Basic" x="2349.68" y="-1613.48" line-height="125%" font-size="129.23" id="text54-2-3" word-spacing="0" letter-spacing="0"><tspan x="2349.68" y="-1613.48" id="tspan56-1"/>
 </text>
 <text font-family="Arial" x="782.62" y="-6823.73" transform="scale(4.0128 .24920)" font-size="46.954" id="text58-2" text-anchor="middle"/>
 <text font-family="Gentium Book Basic" x="516.88" y="-198.76" line-height="125%" font-size="208.33" id="text60-1-6" word-spacing="0" letter-spacing="0"><tspan x="516.88" y="-198.76" id="tspan62-4"/>
 </text>
 <path d="m471.95 253.05c0 120.9-98.006 218.91-218.91 218.91s-218.91-98.006-218.91-218.91 98.006-218.91 218.91-218.91 218.91 98.006 218.91 218.91" fill="#606060" fill-rule="evenodd" id="path8"/>
 <path d="m256 1c-140.83 0-255 114.17-255 255s114.17 255 255 255 255-114.17 255-255-114.17-255-255-255m8.827 44.931c120.9 0 218.9 98 218.9 218.9s-98 218.9-218.9 218.9-218.93-98-218.93-218.9 98.03-218.9 218.93-218.9" fill-opacity="0.067" fill-rule="evenodd" id="path10"/>
 <path fill-opacity="0.129" fill-rule="evenodd" d="m256 4.43c-138.94 0-251.57 112.63-251.57 251.57s112.63 251.57 251.57 251.57 251.57-112.63 251.57-251.57-112.63-251.57-251.57-251.57m5.885 38.556c120.9 0 218.9 98 218.9 218.9s-98 218.9-218.9 218.9-218.93-98-218.93-218.9 98.03-218.9 218.93-218.9" id="path14"/>
 <path fill-opacity="0.129" fill-rule="evenodd" d="m256 8.36c-136.77 0-247.64 110.87-247.64 247.64s110.87 247.64 247.64 247.64 247.64-110.87 247.64-247.64-110.87-247.64-247.64-247.64m2.942 31.691c120.9 0 218.9 98 218.9 218.9s-98 218.9-218.9 218.9-218.93-98-218.93-218.9 98.03-218.9 218.93-218.9" id="path16"/>
 <path fill="#ffffff" stroke-width="4.904" stroke="#000000" fill-rule="evenodd" stroke-opacity="0.31" d="m253.04 7.86c-135.42 0-245.19 109.78-245.19 245.19 0 135.42 109.78 245.19 245.19 245.19 135.42 0 245.19-109.78 245.19-245.19 0-135.42-109.78-245.19-245.19-245.19zm0 26.297c120.9 0 218.9 98 218.9 218.9s-98 218.9-218.9 218.9-218.93-98-218.93-218.9 98.03-218.9 218.93-218.9z" id="path18"/>
 <text font-family="Gentium Book Basic" x="729.64" y="231.36" word-spacing="0" line-height="125%" letter-spacing="0" font-size="129.23" id="text20-49"><tspan x="729.64" y="231.36" id="tspan22-965"/>
 </text>
 <text font-family="Arial" x="378.91" y="579.26" transform="scale(4.0128 .24920)" font-size="46.954" id="text24-8" text-anchor="middle"/>
 <text font-family="Gentium Book Basic" x="1310.91" y="151.36" word-spacing="0" line-height="125%" letter-spacing="0" font-size="129.23" id="text26-9"><tspan x="1310.91" y="151.36" id="tspan28-0"/>
 </text>
 <text font-family="Arial" x="523.76" y="258.22" transform="scale(4.0128 .24920)" font-size="46.954" id="text30-2" text-anchor="middle"/>
 <text font-family="Gentium Book Basic" x="239.33" y="-29.9" word-spacing="0" line-height="125%" letter-spacing="0" font-size="129.23" id="text32-2"><tspan x="239.33" y="-29.9" id="tspan34-6"/>
 </text>
 <text font-family="Arial" x="256.72" y="-469.13" transform="scale(4.0128 .24920)" font-size="46.954" id="text36-3" text-anchor="middle"/>
 <text font-family="Gentium Book Basic" x="1337.38" y="-246.37" word-spacing="0" line-height="125%" letter-spacing="0" font-size="129.23" id="text38-73"><tspan x="1337.38" y="-246.37" id="tspan40-7"/>
 </text>
 <text font-family="Arial" x="530.36" y="-1337.8" transform="scale(4.0128 .24920)" font-size="46.954" id="text42-5" text-anchor="middle"/>
 <text font-family="Gentium Book Basic" x="1918.65" y="-326.37" word-spacing="0" line-height="125%" letter-spacing="0" font-size="129.23" id="text44-50"><tspan x="1918.65" y="-326.37" id="tspan46-4"/>
 </text>
 <text font-family="Arial" x="675.21" y="-1658.83" transform="scale(4.0128 .24920)" font-size="46.954" id="text48-5" text-anchor="middle"/>
 <text font-family="Gentium Book Basic" x="1529.53" y="-798.77" word-spacing="0" line-height="125%" letter-spacing="0" font-size="129.23" id="text50-0"><tspan x="1529.53" y="-798.77" id="tspan52-1"/>
 </text>
 <text font-family="Arial" x="578.24" y="-3554.48" transform="scale(4.0128 .24920)" font-size="46.954" id="text54-27" text-anchor="middle"/>
 <text font-family="Gentium Book Basic" x="2110.79" y="-878.78" word-spacing="0" line-height="125%" letter-spacing="0" font-size="129.23" id="text56-7"><tspan x="2110.79" y="-878.78" id="tspan58-95"/>
 </text>
 <text font-family="Arial" x="723.09" y="-3875.52" transform="scale(4.0128 .24920)" font-size="46.954" id="text60-57" text-anchor="middle"/>
 <text font-family="Gentium Book Basic" x="277.99" y="535.94" word-spacing="0" line-height="125%" letter-spacing="0" font-size="208.33" id="text62-96"><tspan x="277.99" y="535.94" id="tspan64-1"/>
 </text>
 <path d="m242.94 93.5c-0.6-0.007-1.19 0.014-1.78 0.031-18.12 0.517-36.24 12.099-50.22 27.349-30.8 34.52-44.46 89.37-51.53 117.74-10.97 46.13-13.65 89.34-9.07 120.88 2.98 18.67 10.64 32.48 20.19 42.03l67.66 67.66c11.34 1.81 22.98 2.78 34.84 2.78 104.55 0 191.99-73.31 213.72-171.31l-197.72-197.72c-8.34-6.465-17.2-9.333-26.09-9.44z" opacity="0.25" id="path3143"/>
 <path fill="#ffffff" d="m241.17 93.528c-18.113 0.51645-36.246 12.113-50.23 27.36-30.801 34.527-44.458 89.356-51.533 117.73-10.967 46.13-13.652 89.347-9.0647 120.89 7.1591 44.873 41.379 61.701 63.758 58.629 213.08-67.079 258.73-123.15 74.929-315.21-8.8923-6.8935-18.371-9.6678-27.859-9.3973zm-2.8552 27.471c0.54011 0.002 1.0742 0.0738 1.5801 0.19404 4.0484 0.96245 7.411 6.1882 9.0646 9.231 4.0065 7.3632 6.9999 18.061 8.6766 30.936 3.7536 28.808 0.88576 65.535-8.1222 103.43-9.0085 37.893-22.964 71.989-39.28 96.024-7.2936 10.744-14.813 18.984-21.705 23.757-2.8455 1.9704-8.1764 5.1205-12.225 4.1581-4.0492-0.96265-7.4407-6.1914-9.0924-9.231-4.0056-7.363-7.001-18.088-8.6766-30.964-3.7541-28.809-0.88493-65.539 8.1222-103.43 9.0079-37.89 22.963-71.989 39.28-96.024 7.2928-10.744 14.784-18.956 21.678-23.729 2.4877-1.7254 6.9194-4.3636 10.7-4.3521zm-18.573 82.33c-1.4573-0.004-3.1713 0.99849-4.1304 1.6632-2.6583 1.839-5.5616 5.0062-8.3716 9.1478-6.2888 9.2631-11.664 22.403-15.135 37.007-3.4716 14.603-4.5795 28.759-3.1324 39.862 0.64569 4.9623 1.8114 9.0822 3.3542 11.92 0.63688 1.1717 1.9316 3.2048 3.4928 3.576 1.562 0.37135 3.6425-0.8485 4.7402-1.6078 2.6574-1.8392 5.5333-5.0073 8.3439-9.1478 6.2881-9.2641 11.664-22.403 15.135-37.007 3.4719-14.604 4.6063-28.759 3.1602-39.862-0.64655-4.9625-1.8114-9.0822-3.3542-11.92-0.6384-1.173-1.9585-3.2046-3.5205-3.576-0.19504-0.0464-0.37395-0.0547-0.58214-0.0554z" id="path3065"/>
</svg>
