<?xml version="1.0" encoding="UTF-8" standalone="no"?>
<svg xmlns="http://www.w3.org/2000/svg" xmlns:xlink="http://www.w3.org/1999/xlink" xmlns:sodipodi="http://sodipodi.sourceforge.net/DTD/sodipodi-0.dtd" xmlns:inkscape="http://www.inkscape.org/namespaces/inkscape" height="512" viewBox="0 0 512 512" width="512" version="1.1">
 <metadata id="metadata70"/>
 <defs id="defs68">
  <linearGradient y2="7.02" x2="0" gradientTransform="scale(1.0059 .99417)" y1="92.54" gradientUnits="userSpaceOnUse" id="ButtonShadow">
   <stop id="stop3750-1"/>
   <stop offset="1" stop-opacity="0.588" id="stop3752-6"/>
  </linearGradient>
  <filter color-interpolation-filters="sRGB" id="filter3174">
   <feGaussianBlur stdDeviation="1.71" id="feGaussianBlur3176"/>
  </filter>
  <radialGradient r="64" cx="64" cy="64" gradientUnits="userSpaceOnUse" id="radialGradient21305">
   <stop stop-color="#ffffff" id="stop4218-0"/>
   <stop offset="0.688" stop-color="#e8e8e8" id="stop4220-2"/>
   <stop offset="0.875" stop-color="#686868" id="stop4222-6"/>
   <stop offset="1" id="stop4224-6"/>
  </radialGradient>
  <filter color-interpolation-filters="sRGB" id="filter3657">
   <feGaussianBlur stdDeviation="1.14" id="feGaussianBlur3659"/>
  </filter>
  <clipPath id="clipPath3649">
   <rect fill="#ffffff" x="10" y="10" width="76" height="76" rx="4" id="rect3651"/>
  </clipPath>
  <clipPath id="clipPath3625">
   <path d="m0 0v96h96v-96h-96zm12 6h72c3.324 0 6 2.676 6 6v72c0 3.324-2.676 6-6 6h-72c-3.324 0-6-2.676-6-6v-72c0-3.324 2.676-6 6-6z" id="path3627"/>
  </clipPath>
  <linearGradient id="linearGradient3737">
   <stop stop-color="#ffffff" id="stop3739"/>
   <stop offset="1" stop-opacity="0" stop-color="#ffffff" id="stop3741"/>
  </linearGradient>
  <linearGradient y2="5.988" y1="90" gradientTransform="matrix(5.5614 0 0 5.5614 -68.443 384.26)" x2="0" gradientUnits="userSpaceOnUse" id="linearGradient31361">
   <stop stop-color="#666666" id="stop3702"/>
   <stop offset="1" stop-color="#a8a8a8" id="stop3704"/>
  </linearGradient>
  <radialGradient gradientTransform="matrix(6.4363 0 0 5.5387 -110.44 -170.79)" r="42" cy="90.17" gradientUnits="userSpaceOnUse" xlink:href="#linearGradient3737" cx="48" id="radialGradient31364"/>
  <linearGradient y2="63.893" y1="6" gradientTransform="matrix(5.5614 0 0 5.5614 -68.443 -171.89)" x2="0" gradientUnits="userSpaceOnUse" xlink:href="#linearGradient3737" id="linearGradient31367"/>
  <linearGradient y2="90.02" y1="6" gradientTransform="matrix(5.5614 0 0 5.5614 -68.443 -171.89)" x2="0" gradientUnits="userSpaceOnUse" id="linearGradient31370">
   <stop stop-color="#f0f0f0" id="stop3639"/>
   <stop offset="1" stop-color="#dcdcdc" id="stop3641"/>
  </linearGradient>
  <filter color-interpolation-filters="sRGB" height="1.384" x="-0.192" y="-0.192" width="1.384" id="filter3794">
   <feGaussianBlur stdDeviation="5.28" id="feGaussianBlur3796"/>
  </filter>
  <linearGradient x2="0" y1="20.221" gradientUnits="userSpaceOnUse" y2="138.66" id="linearGradient3613">
   <stop stop-color="#ffffff" id="stop3739-0"/>
   <stop offset="1" stop-opacity="0" stop-color="#ffffff" id="stop3741-6"/>
  </linearGradient>
  <clipPath id="clipPath3613">
   <rect fill="#ffffff" x="6" y="6" width="84" height="84" rx="6" id="rect3615"/>
  </clipPath>
  <clipPath id="clipPath3613-1">
   <rect fill="#ffffff" x="6" y="6" width="84" height="84" rx="6" id="rect3615-2"/>
  </clipPath>
 </defs>
 <path d="m471.95 253.05c0 120.9-98.006 218.91-218.91 218.91s-218.91-98.006-218.91-218.91 98.006-218.91 218.91-218.91 218.91 98.006 218.91 218.91" fill="#a7a7a7" fill-rule="evenodd" id="path8-2"/>
 <path d="m222.16 36.312c-24.243 3.4227-47.208 10.814-68.219 21.5v390.47c21.011 10.685 43.977 18.077 68.219 21.5v-433.47z" fill="#c4c4c4" fill-rule="evenodd" id="path3789" color="#000000"/>
 <path d="m253.03 34.156c-10.481 0-20.787 0.73192-30.875 2.1562v433.47c10.088 1.4243 20.394 2.1875 30.875 2.1875 12.744 0 25.228-1.1288 37.375-3.2188v-431.41c-12.147-2.0898-24.632-3.1875-37.375-3.1875z" fill="#828282" fill-rule="evenodd" id="path3791" color="#000000"/>
 <path d="m290.41 37.344v431.41c24.351-4.1897 47.328-12.38 68.219-23.906v-383.59c-20.89-11.525-43.87-19.717-68.22-23.906z" fill="#bcbcbc" fill-rule="evenodd" id="path3793" color="#000000"/>
 <path d="m153.94 57.812c-71.102 36.16-119.82 110.02-119.82 195.25 0 85.233 48.713 159.06 119.81 195.22v-390.47z" fill="#656565" fill-rule="evenodd" id="path3797" color="#000000"/>
 <path fill-opacity="0.067" fill-rule="evenodd" d="m256 1c-140.83 0-255 114.17-255 255s114.17 255 255 255 255-114.17 255-255-114.17-255-255-255m8.827 44.931c120.9 0 218.9 98 218.9 218.9s-98 218.9-218.9 218.9-218.93-98-218.93-218.9 98.03-218.9 218.93-218.9" id="path10-1"/>
 <path fill-opacity="0.129" fill-rule="evenodd" d="m256 4.43c-138.94 0-251.57 112.63-251.57 251.57s112.63 251.57 251.57 251.57 251.57-112.63 251.57-251.57-112.63-251.57-251.57-251.57m5.885 38.556c120.9 0 218.9 98 218.9 218.9s-98 218.9-218.9 218.9-218.93-98-218.93-218.9 98.03-218.9 218.93-218.9" id="path14-0"/>
 <path fill-opacity="0.129" fill-rule="evenodd" d="m256 8.36c-136.77 0-247.64 110.87-247.64 247.64s110.87 247.64 247.64 247.64 247.64-110.87 247.64-247.64-110.87-247.64-247.64-247.64m2.942 31.691c120.9 0 218.9 98 218.9 218.9s-98 218.9-218.9 218.9-218.93-98-218.93-218.9 98.03-218.9 218.93-218.9" id="path16-3"/>
 <path fill="#ffffff" stroke-width="4.904" stroke="#000000" fill-rule="evenodd" stroke-opacity="0.31" d="m253.04 7.86c-135.42 0-245.19 109.78-245.19 245.19 0 135.42 109.78 245.19 245.19 245.19 135.42 0 245.19-109.78 245.19-245.19 0-135.42-109.78-245.19-245.19-245.19zm0 26.297c120.9 0 218.9 98 218.9 218.9s-98 218.9-218.9 218.9-218.93-98-218.93-218.9 98.03-218.9 218.93-218.9z" id="path18-1"/>
 <text font-family="Gentium Book Basic" x="729.64" y="231.36" line-height="125%" font-size="129.23" id="text20-0" word-spacing="0" letter-spacing="0"><tspan x="729.64" y="231.36" id="tspan22-3"/>
 </text>
 <text font-family="Arial" x="378.91" y="579.26" transform="scale(4.0128 .24920)" font-size="46.954" id="text24-7" text-anchor="middle"/>
 <text font-family="Gentium Book Basic" x="1310.91" y="151.36" line-height="125%" font-size="129.23" id="text26-0" word-spacing="0" letter-spacing="0"><tspan x="1310.91" y="151.36" id="tspan28-0"/>
 </text>
 <text font-family="Arial" x="523.76" y="258.22" transform="scale(4.0128 .24920)" font-size="46.954" id="text30-5" text-anchor="middle"/>
 <text font-family="Gentium Book Basic" x="239.33" y="-29.9" line-height="125%" font-size="129.23" id="text32-9" word-spacing="0" letter-spacing="0"><tspan x="239.33" y="-29.9" id="tspan34-0"/>
 </text>
 <text font-family="Arial" x="256.72" y="-469.13" transform="scale(4.0128 .24920)" font-size="46.954" id="text36-6" text-anchor="middle"/>
 <text font-family="Gentium Book Basic" x="1337.38" y="-246.37" line-height="125%" font-size="129.23" id="text38-8" word-spacing="0" letter-spacing="0"><tspan x="1337.38" y="-246.37" id="tspan40-3"/>
 </text>
 <text font-family="Arial" x="530.36" y="-1337.8" transform="scale(4.0128 .24920)" font-size="46.954" id="text42-4" text-anchor="middle"/>
 <text font-family="Gentium Book Basic" x="1918.65" y="-326.37" line-height="125%" font-size="129.23" id="text44-7" word-spacing="0" letter-spacing="0"><tspan x="1918.65" y="-326.37" id="tspan46-3"/>
 </text>
 <text font-family="Arial" x="675.21" y="-1658.83" transform="scale(4.0128 .24920)" font-size="46.954" id="text48-8" text-anchor="middle"/>
 <text font-family="Gentium Book Basic" x="1529.53" y="-798.77" line-height="125%" font-size="129.23" id="text50-5" word-spacing="0" letter-spacing="0"><tspan x="1529.53" y="-798.77" id="tspan52-1"/>
 </text>
 <text font-family="Arial" x="578.24" y="-3554.48" transform="scale(4.0128 .24920)" font-size="46.954" id="text54-3" text-anchor="middle"/>
 <text font-family="Gentium Book Basic" x="2110.79" y="-878.78" line-height="125%" font-size="129.23" id="text56-0" word-spacing="0" letter-spacing="0"><tspan x="2110.79" y="-878.78" id="tspan58-4"/>
 </text>
 <text font-family="Arial" x="723.09" y="-3875.52" transform="scale(4.0128 .24920)" font-size="46.954" id="text60-9" text-anchor="middle"/>
 <text font-family="Gentium Book Basic" x="277.99" y="535.94" line-height="125%" font-size="208.33" id="text62-6" word-spacing="0" letter-spacing="0"><tspan x="277.99" y="535.94" id="tspan64-2"/>
 </text>
 <path d="m253.03 34.156c-120.9 0-218.91 98.009-218.91 218.91 0 4.19 0.14269 8.3368 0.375 12.469h437.09c0.23224-4.1313 0.34375-8.2794 0.34375-12.469 0-120.9-98.009-218.91-218.91-218.91z" fill="#ffffff" opacity="0.2" id="rect5116"/>
 <path d="m225.06 171.41v17.31l8 8h-8v17.31l8 8h-8v17.31l8 8h-8v17.32l8 8h-8v6.75l-6.75-6.75h-16.72l-50.62-50.63h-60.595v17.31l8 8h-8v17.32l8 8h-8v17.31l8 8h-8v17.31l8 8h-8v17.31l128.74 128.75c11.05 1.72 22.38 2.63 33.91 2.63 120.9 0 218.91-98.01 218.91-218.91 0-11.53-0.88-22.85-2.6-33.9l-47.75-47.75h-60.56v17.31l8 8h-8v17.31l8 8h-8v8.03l-8.03-8.03h-16.69l-50.62-50.62h-60.63z" fill-rule="evenodd" opacity="0.25" id="path4635" color="#000000"/>
 <path d="m225.06 171.41v17.312h60.625v-17.312h-60.625zm135.97 0v17.312h60.562v-17.312h-60.562zm-135.97 25.312v17.312h60.625v-17.312h-60.625zm135.97 0v17.312h60.562v-17.312h-60.562zm-270.66 25.312v17.312h60.594v-17.312h-60.594zm134.69 0v17.312h60.625v-17.312h-60.625zm67.375 0v17.312h60.562v-17.312h-60.562zm68.594 0v17.312h60.562v-17.312h-60.562zm-270.66 25.312v17.312h60.594v-17.312h-60.594zm134.69 0v17.312h60.625v-17.312h-60.625zm67.375 0v17.312h60.562v-17.312h-60.562zm68.594 0v17.312h60.562v-17.312h-60.562zm-270.66 25.312v17.312h60.594v-17.312h-60.594zm67.375 0v17.312h60.562v-17.312h-60.562zm67.312 0v17.312h60.625v-17.312h-60.625zm67.375 0v17.312h60.562v-17.312h-60.562zm68.594 0v17.312h60.562v-17.312h-60.562zm-270.66 25.312v17.312h60.594v-17.312h-60.594zm67.375 0v17.312h60.562v-17.312h-60.562zm67.312 0v17.312h60.625v-17.312h-60.625zm67.375 0v17.312h60.562v-17.312h-60.562zm68.594 0v17.312h60.562v-17.312h-60.562zm-270.66 25.312v17.312h60.594v-17.312h-60.594zm67.375 0v17.312h60.562v-17.312h-60.562zm67.312 0v17.312h60.625v-17.312h-60.625zm67.375 0v17.312h60.562v-17.312h-60.562zm68.594 0v17.312h60.562v-17.312h-60.562z" fill="#ffffff" fill-rule="evenodd" id="path3787" color="#000000"/>
</svg>
