<?xml version="1.0" encoding="UTF-8" standalone="no"?>
<svg xmlns="http://www.w3.org/2000/svg" xmlns:sodipodi="http://sodipodi.sourceforge.net/DTD/sodipodi-0.dtd" xmlns:inkscape="http://www.inkscape.org/namespaces/inkscape" height="512" viewBox="0 0 512 512" width="512" version="1.1">
 <metadata id="metadata94"/>
 <path fill="#a3a3a3" fill-rule="evenodd" d="m471.95 253.05c0 120.9-98.01 218.91-218.91 218.91s-218.91-98.01-218.91-218.91 98.01-218.91 218.91-218.91 218.91 98.01 218.91 218.91" id="path16"/>
 <path d="m252.22 89.25c-79.6 0.401-152.45 65.36-161.34 144.66-8.421 56.46 16.06 114.13 58.56 151.22 28.808 28.585 57.42 57.37 86.06 86.13 5.784 0.458 11.629 0.719 17.531 0.719 120.9 0 218.91-98.01 218.91-218.91 0-5.869-0.234-11.685-0.688-17.438-36.16-36.37-72.2-72.895-109.28-108.28-29.501-24.474-67.64-38.17-105.97-38.06-1.267-0.026-2.518-0.038-3.781-0.031" opacity="0.25" id="path18"/>
 <g fill-rule="evenodd" id="g20">
  <path d="m256 1c-140.83 0-255 114.17-255 255s114.17 255 255 255 255-114.17 255-255-114.17-255-255-255m8.827 44.931c120.9 0 218.9 98 218.9 218.9s-98 218.9-218.9 218.9-218.93-98-218.93-218.9 98.03-218.9 218.93-218.9" fill-opacity="0.067" id="path22"/>
  <g fill-opacity="0.129" id="g24">
   <path d="m256 4.43c-138.94 0-251.57 112.63-251.57 251.57s112.63 251.57 251.57 251.57 251.57-112.63 251.57-251.57-112.63-251.57-251.57-251.57m5.885 38.556c120.9 0 218.9 98 218.9 218.9s-98 218.9-218.9 218.9-218.93-98-218.93-218.9 98.03-218.9 218.93-218.9" id="path26"/>
   <path d="m256 8.36c-136.77 0-247.64 110.87-247.64 247.64s110.87 247.64 247.64 247.64 247.64-110.87 247.64-247.64-110.87-247.64-247.64-247.64m2.942 31.691c120.9 0 218.9 98 218.9 218.9s-98 218.9-218.9 218.9-218.93-98-218.93-218.9 98.03-218.9 218.93-218.9" id="path28"/>
  </g>
  <path fill="#ffffff" stroke-width="4.904" stroke="#000000" stroke-opacity="0.31" d="m253.04 7.86c-135.42 0-245.19 109.78-245.19 245.19 0 135.42 109.78 245.19 245.19 245.19 135.42 0 245.19-109.78 245.19-245.19 0-135.42-109.78-245.19-245.19-245.19zm0 26.297c120.9 0 218.9 98 218.9 218.9s-98 218.9-218.9 218.9-218.93-98-218.93-218.9 98.03-218.9 218.93-218.9z" id="path30"/>
 </g>
 <text font-family="Gentium Book Basic" x="729.64" y="231.36" line-height="125%" font-size="129.23" id="text32" word-spacing="0" letter-spacing="0"><tspan x="729.64" y="231.36" id="tspan34"/>
 </text>
 <text font-family="Arial" x="378.91" y="579.26" transform="scale(4.0128 .2492)" font-size="46.954" id="text36" text-anchor="middle"/>
 <text font-family="Gentium Book Basic" x="1310.91" y="151.36" line-height="125%" font-size="129.23" id="text38" word-spacing="0" letter-spacing="0"><tspan x="1310.91" y="151.36" id="tspan40"/>
 </text>
 <text font-family="Arial" x="523.76" y="258.22" transform="scale(4.0128 .2492)" font-size="46.954" id="text42" text-anchor="middle"/>
 <text font-family="Gentium Book Basic" x="239.33" y="-29.9" line-height="125%" font-size="129.23" id="text44" word-spacing="0" letter-spacing="0"><tspan x="239.33" y="-29.9" id="tspan46"/>
 </text>
 <text font-family="Arial" x="256.72" y="-469.13" transform="scale(4.0128 .2492)" font-size="46.954" id="text48" text-anchor="middle"/>
 <text font-family="Gentium Book Basic" x="1337.38" y="-246.37" line-height="125%" font-size="129.23" id="text50" word-spacing="0" letter-spacing="0"><tspan x="1337.38" y="-246.37" id="tspan52"/>
 </text>
 <text font-family="Arial" x="530.36" y="-1337.8" transform="scale(4.0128 .2492)" font-size="46.954" id="text54" text-anchor="middle"/>
 <text font-family="Gentium Book Basic" x="1918.65" y="-326.37" line-height="125%" font-size="129.23" id="text56" word-spacing="0" letter-spacing="0"><tspan x="1918.65" y="-326.37" id="tspan58"/>
 </text>
 <text font-family="Arial" x="675.21" y="-1658.83" transform="scale(4.0128 .2492)" font-size="46.954" id="text60" text-anchor="middle"/>
 <text font-family="Gentium Book Basic" x="1529.53" y="-798.77" line-height="125%" font-size="129.23" id="text62" word-spacing="0" letter-spacing="0"><tspan x="1529.53" y="-798.77" id="tspan64"/>
 </text>
 <text font-family="Arial" x="578.24" y="-3554.48" transform="scale(4.0128 .2492)" font-size="46.954" id="text66" text-anchor="middle"/>
 <text font-family="Gentium Book Basic" x="2110.79" y="-878.78" line-height="125%" font-size="129.23" id="text68" word-spacing="0" letter-spacing="0"><tspan x="2110.79" y="-878.78" id="tspan70"/>
 </text>
 <text font-family="Arial" x="723.09" y="-3875.52" transform="scale(4.0128 .2492)" font-size="46.954" id="text72" text-anchor="middle"/>
 <text font-family="Gentium Book Basic" x="277.99" y="535.94" line-height="125%" font-size="208.33" id="text74" word-spacing="0" letter-spacing="0"><tspan x="277.99" y="535.94" id="tspan76"/>
 </text>
 <g id="g78" color="#000000">
  <g fill="#545454" id="g80">
   <path d="m325.4 135.11-48.603 84.05c-12.877-7.395-29.18-8.03-42.969-0.07l-48.47-83.944c43.31-25 96.73-25.04 140.04-0.033" id="path82"/>
   <path d="m395.39 256.34c0 50.01-26.74 96.26-70.05 121.26l-48.45-83.91c13.786-7.959 21.39-22.397 21.424-37.25l97.07-0.102" id="path84"/>
   <path d="m278.65 242.92c7.433 12.874 3.048 29.349-9.827 36.782-12.874 7.433-29.368 3.01-36.802-9.861-7.433-12.874-2.994-29.334 9.881-36.767 12.874-7.433 29.31-3.03 36.747 9.846" id="path86"/>
   <path d="m212.41 256.34c-0.017 7.338 1.699 14.767 5.633 21.58 3.933 6.813 9.528 12.05 15.892 15.702l-48.657 84.03c-43.31-25-69.99-71.22-69.99-121.23l97.12-0.088" id="path88"/>
  </g>
  <path d="m402.25 177.2a166.89 166.89 0 0 0 -230.34 -65.35 166.89 166.89 0 0 0 166.89 289.05 166.89 166.89 0 0 0 63.45 -223.7m-76.847-42.08-48.603 84.05c-12.877-7.395-29.18-8.03-42.969-0.07l-48.47-83.944c43.31-25 96.73-25.04 140.04-0.033m69.99 121.23c0 50.01-26.74 96.26-70.05 121.26l-48.45-83.91c13.786-7.959 21.39-22.397 21.424-37.25l97.07-0.102m-116.73-13.44c7.433 12.874 3.048 29.349-9.827 36.782-12.874 7.433-29.368 3.01-36.802-9.861-7.433-12.874-2.994-29.334 9.881-36.767 12.874-7.433 29.31-3.03 36.747 9.846m-66.25 13.415c-0.017 7.338 1.699 14.767 5.633 21.58 3.933 6.813 9.528 12.05 15.892 15.702l-48.657 84.03c-43.29-25-69.98-71.22-69.98-121.22l97.12-0.088" fill="#ffffff" id="path90"/>
 </g>
</svg>
