<?xml version="1.0" encoding="UTF-8" standalone="no"?>
<svg xmlns="http://www.w3.org/2000/svg" xmlns:sodipodi="http://sodipodi.sourceforge.net/DTD/sodipodi-0.dtd" xmlns:inkscape="http://www.inkscape.org/namespaces/inkscape" height="512" viewBox="0 0 512 512" width="512" version="1.1">
 <metadata id="metadata102"/>
 <g line-height="125%" font-size="208.33" font-family="Gentium Book Basic" id="g4" word-spacing="0" letter-spacing="0">
  <text x="472.88" y="79.28" id="text6"><tspan x="472.88" y="79.28" id="tspan8"/>
  </text>
  <text x="-1885.95" y="357.4" id="text10"><tspan x="-1885.95" y="357.4" id="tspan12"/>
  </text>
  <text x="-1597.73" y="130.11" id="text14"><tspan x="-1597.73" y="130.11" id="tspan16"/>
  </text>
  <text x="2596.87" y="-126.79" id="text18"><tspan x="2596.87" y="-126.79" id="tspan20"/>
  </text>
  <text x="468.94" y="18.247" id="text22"><tspan x="468.94" y="18.247" id="tspan24"/>
  </text>
  <text x="-1889.89" y="296.36" id="text26"><tspan x="-1889.89" y="296.36" id="tspan28"/>
  </text>
  <text x="-1601.68" y="69.08" id="text30"><tspan x="-1601.68" y="69.08" id="tspan32"/>
  </text>
 </g>
 <g fill-rule="evenodd" id="g34">
  <path d="m471.95 253.05c0 120.9-98.01 218.9-218.9 218.9-120.9 0-218.9-98.01-218.9-218.9 0-120.9 98.01-218.9 218.9-218.9 120.9 0 218.9 98.01 218.9 218.9" fill="#585858" id="path36"/>
  <path d="m236.44 106.06c-2.579 0.037-5.193 0.13-7.781 0.313-5.568 0.393-10.32 0.862-10.594 1.031-0.215 0.18 8.882 15.758 20.906 35.906-0.143-0.14-0.316-0.225-0.5-0.281-0.177-0.27-0.369-0.59-0.406-0.625-0.18-0.194-0.335-0.307-0.563-0.375-0.177-0.27-0.4-0.558-0.438-0.594-0.189-0.204-0.349-0.341-0.594-0.406-0.161-0.245-0.34-0.56-0.375-0.594-0.182-0.197-0.364-0.337-0.594-0.406-0.164-0.25-0.371-0.56-0.406-0.594-0.182-0.197-0.365-0.305-0.594-0.375-0.169-0.257-0.37-0.59-0.406-0.625-0.18-0.195-0.338-0.304-0.563-0.375-0.166-0.253-0.37-0.559-0.406-0.594v-0.031c-0.195-0.21-0.372-0.34-0.625-0.406-0.144-0.218-0.342-0.531-0.375-0.563-0.178-0.192-0.344-0.333-0.563-0.406-0.161-0.245-0.371-0.56-0.406-0.594-0.184-0.199-0.364-0.334-0.594-0.406-0.162-0.246-0.371-0.559-0.406-0.594-0.185-0.2-0.362-0.334-0.594-0.406-0.152-0.231-0.372-0.561-0.406-0.594-0.181-0.195-0.34-0.301-0.563-0.375-0.163-0.249-0.371-0.559-0.406-0.594-0.19-0.205-0.387-0.334-0.625-0.406-0.151-0.23-0.341-0.56-0.375-0.594-0.188-0.203-0.36-0.333-0.594-0.406-0.154-0.235-0.372-0.56-0.406-0.594-0.189-0.204-0.359-0.332-0.594-0.406-0.152-0.233-0.341-0.56-0.375-0.594-0.191-0.206-0.387-0.332-0.625-0.406-0.14-0.212-0.343-0.53-0.375-0.563-0.191-0.206-0.356-0.331-0.594-0.406-0.156-0.239-0.372-0.559-0.406-0.594-0.192-0.207-0.355-0.331-0.594-0.406-0.145-0.221-0.342-0.561-0.375-0.594-0.193-0.208-0.385-0.331-0.625-0.406-0.146-0.222-0.342-0.561-0.375-0.594-0.194-0.209-0.383-0.33-0.625-0.406-0.053-0.076-0.326-0.544-0.344-0.563-0.203-0.219-0.398-0.363-0.656-0.438-0.052-0.075-0.326-0.544-0.344-0.563-0.197-0.213-0.379-0.361-0.625-0.438-0.053-0.078-0.357-0.544-0.375-0.563-0.19-0.205-0.363-0.327-0.594-0.406-0.056-0.083-0.356-0.574-0.375-0.594-0.202-0.219-0.401-0.33-0.656-0.406-0.051-0.074-0.326-0.544-0.344-0.563-0.207-0.223-0.393-0.362-0.656-0.438-0.05-0.073-0.326-0.544-0.344-0.563-0.2-0.216-0.376-0.359-0.625-0.438-0.051-0.074-0.326-0.544-0.344-0.563-0.201-0.217-0.406-0.358-0.656-0.438-0.05-0.073-0.326-0.544-0.344-0.563-0.2-0.216-0.377-0.357-0.625-0.438-0.047-0.069-0.327-0.514-0.344-0.531-0.201-0.217-0.408-0.357-0.656-0.438-0.05-0.073-0.327-0.544-0.344-0.563-0.204-0.221-0.402-0.357-0.656-0.438-0.05-0.072-0.327-0.544-0.344-0.563-0.203-0.219-0.375-0.356-0.625-0.438-0.049-0.072-0.327-0.544-0.344-0.563-0.204-0.22-0.405-0.356-0.656-0.438-0.046-0.068-0.327-0.514-0.344-0.531-0.205-0.221-0.403-0.386-0.656-0.469-0.046-0.067-0.327-0.514-0.344-0.531-0.201-0.217-0.38-0.353-0.625-0.438-0.049-0.072-0.327-0.544-0.344-0.563-0.35-0.378-0.638-0.558-1.313-0.531s-1.72 0.259-3.469 0.719c-11.779 3.098-29.07 10.895-39.34 17.75-21.05 14.04-37.606 32.736-48.44 54.59-2.261 4.563-4.125 8.479-4.125 8.719 0.008 0.03 0.555 0.065 1.563 0.094-0.183 0.51-0.271 0.844-0.219 0.906 0.03 0.027 0.586 0.068 1.438 0.094-0.14 0.515-0.168 0.844-0.063 0.906 0.045 0.023 0.634 0.04 1.281 0.063-0.099 0.529-0.098 0.874 0.063 0.938 0.056 0.02 0.662 0.043 1.156 0.063-0.053 0.529-0.027 0.874 0.188 0.938 0.06 0.016 0.635 0.015 1 0.031-0.011 0.542 0.102 0.905 0.375 0.969 0.058 0.013 0.566 0.019 0.813 0.031 0.037 0.54 0.204 0.905 0.531 0.969 0.057 0.01 0.505 0.021 0.688 0.031 0.085 0.537 0.305 0.874 0.688 0.938 0.046 0.007 0.391 0.024 0.5 0.031 0.128 0.56 0.395 0.904 0.844 0.969 0.035 0.005 0.281-0.005 0.344 0 0.174 0.573 0.518 0.935 1.031 1 0.017 0.002 0.134-0.002 0.156 0 0.224 0.573 0.616 0.935 1.188 1 0.246 0.516 0.652 0.859 1.188 0.969 0.083 0.155 0.172 0.283 0.281 0.406l-19.438 0.063c-0.014 0.059-1.875 7.563-1.875 7.563-6.57 26.28-5.549 52.714 3.063 78.59 3.252 9.771 10.04 23.631 15.656 32.06 2.116 3.174 4.03 5.781 4.25 5.781 0.015 0 0.038-0.045 0.063-0.063 0.462 0.601 0.845 1.01 0.938 1.031 0.013 0 0.042-0.018 0.063-0.031 0.471 0.613 0.826 1.062 0.906 1.063 0.002 0 0.019-0.009 0.031-0.031 0.012 0 0.045-0.021 0.063-0.031 0.469 0.61 0.827 1.062 0.906 1.063 0.003 0 0.043-0.03 0.063-0.063 0.007 0 0.021-0.027 0.031-0.031 0.475 0.619 0.826 1.062 0.906 1.063 0.004 0 0.037-0.019 0.063-0.063 0.479 0.625 0.857 1.062 0.938 1.063 0.005 0 0.031-0.039 0.063-0.094 0.485 0.634 0.857 1.094 0.938 1.094 0.005 0 0.007-0.055 0.031-0.094 0.486 0.636 0.888 1.094 0.969 1.094 0.004 0 0.042-0.032 0.063-0.063 0.473 0.618 0.827 1.062 0.906 1.063 0.005 0 0.04-0.058 0.063-0.094 0.075 0.098 0.152 0.196 0.219 0.281-0.079 0.144-0.429 0.72-0.438 0.75-0.157 0.57 2.933 4.045 6.844 7.938 0.131 0.132 0.242 0.241 0.375 0.375 0.172 0.17 0.357 0.329 0.531 0.5 0.328 0.333 0.657 0.658 1 1 0.465 0.472 0.944 0.949 1.438 1.438l0.031 0.031c0.276 0.273 0.561 0.537 0.844 0.813 0.047 0.048 0.078 0.108 0.125 0.156l0.031 0.031c0.021 0.021 0.041 0.042 0.063 0.063 0.47 0.481 0.934 0.936 1.438 1.438 0.33 0.335 0.655 0.656 1 1 0.328 0.333 0.657 0.658 1 1 0.465 0.472 0.944 0.949 1.438 1.438l0.031 0.031c0.276 0.273 0.561 0.537 0.844 0.813 0.047 0.048 0.078 0.108 0.125 0.156l0.031 0.031c0.021 0.021 0.041 0.042 0.063 0.063 0.441 0.452 0.873 0.874 1.344 1.344 0.326 0.332 0.627 0.659 0.969 1 0.364 0.371 0.742 0.712 1.125 1.094 0.465 0.472 0.944 0.949 1.438 1.438l0.031 0.031c0.24 0.237 0.505 0.448 0.75 0.688 0.015 0.015 0.017 0.047 0.031 0.063 0.021 0.02 0.042 0.042 0.063 0.063 0.005 0.005-0.005 0.026 0 0.031 0.054 0.055 0.101 0.101 0.156 0.156 0.284 0.276 0.556 0.536 0.844 0.813 0.047 0.048 0.078 0.108 0.125 0.156l0.031 0.031c0.021 0.021 0.041 0.042 0.063 0.063 0.47 0.481 0.934 0.936 1.438 1.438 0.33 0.335 0.655 0.656 1 1 0.328 0.333 0.657 0.658 1 1 0.465 0.472 0.944 0.949 1.438 1.438l0.031 0.031c0.276 0.273 0.561 0.537 0.844 0.813 0.047 0.048 0.078 0.108 0.125 0.156l0.031 0.031c0.021 0.021 0.041 0.042 0.063 0.063 0.47 0.481 0.934 0.936 1.438 1.438 0.33 0.335 0.655 0.656 1 1 0.328 0.333 0.657 0.658 1 1 0.465 0.472 0.944 0.949 1.438 1.438l0.031 0.031c0.276 0.273 0.561 0.537 0.844 0.813 0.047 0.048 0.078 0.108 0.125 0.156l0.031 0.031c0.021 0.021 0.041 0.042 0.063 0.063 0.47 0.481 0.934 0.936 1.438 1.438 0.296 0.3 0.567 0.599 0.875 0.906 0.364 0.371 0.742 0.712 1.125 1.094 0.465 0.472 0.944 0.949 1.438 1.438l0.031 0.031c0.276 0.273 0.561 0.537 0.844 0.813 0.005 0.005-0.005 0.026 0 0.031 0.054 0.055 0.101 0.101 0.156 0.156 0.134 0.13 0.271 0.244 0.406 0.375 0.011 0.012 0.02 0.019 0.031 0.031 0.14 0.136 0.265 0.271 0.406 0.406 0.015 0.015 0.017 0.047 0.031 0.063 0.031 0.032 0.063 0.062 0.094 0.094l0.031 0.031c0.021 0.021 0.041 0.042 0.063 0.063 0.436 0.447 0.847 0.879 1.313 1.344 0.364 0.371 0.742 0.712 1.125 1.094 0.328 0.333 0.657 0.658 1 1 0.465 0.472 0.944 0.949 1.438 1.438l0.031 0.031c0.276 0.273 0.561 0.537 0.844 0.813 0.047 0.048 0.078 0.108 0.125 0.156l0.031 0.031c0.021 0.021 0.041 0.042 0.063 0.063 0.47 0.481 0.934 0.936 1.438 1.438 0.33 0.335 0.655 0.656 1 1 0.328 0.333 0.657 0.658 1 1 0.465 0.472 0.944 0.949 1.438 1.438l0.031 0.031c0.276 0.273 0.561 0.537 0.844 0.813 0.047 0.048 0.078 0.108 0.125 0.156l0.031 0.031c0.021 0.021 0.041 0.042 0.063 0.063 0.47 0.481 0.934 0.936 1.438 1.438 0.296 0.3 0.567 0.599 0.875 0.906 0.364 0.371 0.742 0.712 1.125 1.094 0.465 0.472 0.944 0.949 1.438 1.438l0.031 0.031c0.24 0.237 0.505 0.448 0.75 0.688 0.015 0.015 0.017 0.047 0.031 0.063 0.021 0.02 0.042 0.042 0.063 0.063 0.005 0.005-0.005 0.026 0 0.031 0.054 0.055 0.101 0.101 0.156 0.156 0.134 0.13 0.271 0.244 0.406 0.375 0.011 0.012 0.02 0.019 0.031 0.031 0.14 0.136 0.265 0.271 0.406 0.406 0.015 0.015 0.017 0.047 0.031 0.063 0.031 0.032 0.063 0.062 0.094 0.094 0.031 0.031 0.063 0.062 0.094 0.094 0.436 0.447 0.847 0.879 1.313 1.344 0.364 0.371 0.742 0.712 1.125 1.094 0.465 0.472 0.944 0.949 1.438 1.438l0.031 0.031c0.276 0.273 0.561 0.537 0.844 0.813 0.005 0.005-0.005 0.026 0 0.031 0.054 0.055 0.101 0.101 0.156 0.156 0.284 0.276 0.556 0.536 0.844 0.813 0.047 0.048 0.078 0.108 0.125 0.156l0.031 0.031c0.021 0.021 0.041 0.042 0.063 0.063 0.47 0.481 0.934 0.936 1.438 1.438 0.33 0.335 0.655 0.656 1 1 0.465 0.472 0.944 0.949 1.438 1.438l0.031 0.031c0.24 0.237 0.505 0.448 0.75 0.688 0.015 0.015 0.017 0.047 0.031 0.063 0.021 0.02 0.042 0.042 0.063 0.063 0.005 0.005-0.005 0.026 0 0.031 0.054 0.055 0.101 0.101 0.156 0.156 0.284 0.276 0.556 0.536 0.844 0.813 0.047 0.048 0.078 0.108 0.125 0.156l0.031 0.031c0.021 0.021 0.041 0.042 0.063 0.063 0.47 0.481 0.934 0.936 1.438 1.438 0.33 0.335 0.655 0.656 1 1 0.328 0.333 0.657 0.658 1 1 0.465 0.472 0.944 0.949 1.438 1.438l0.031 0.031c0.276 0.273 0.561 0.537 0.844 0.813 0.047 0.048 0.078 0.108 0.125 0.156l0.031 0.031c0.021 0.021 0.041 0.042 0.063 0.063 0.47 0.481 0.934 0.936 1.438 1.438 0.296 0.3 0.567 0.599 0.875 0.906 0.364 0.371 0.742 0.712 1.125 1.094 0.465 0.472 0.944 0.949 1.438 1.438l0.031 0.031c0.24 0.237 0.505 0.448 0.75 0.688 0.015 0.015 0.017 0.047 0.031 0.063 0.021 0.02 0.042 0.042 0.063 0.063 0.005 0.005-0.005 0.026 0 0.031 0.054 0.055 0.102 0.101 0.156 0.156 0.284 0.276 0.556 0.536 0.844 0.813 0.047 0.048 0.078 0.108 0.125 0.156l0.031 0.031c0.021 0.021 0.041 0.042 0.063 0.063 0.47 0.481 0.934 0.936 1.438 1.438 0.33 0.335 0.655 0.656 1 1 0.465 0.472 0.944 0.949 1.438 1.438l0.031 0.031c0.276 0.273 0.561 0.537 0.844 0.813 0.005 0.005-0.005 0.026 0 0.031 0.054 0.055 0.102 0.101 0.156 0.156 0.284 0.276 0.556 0.536 0.844 0.813 0.047 0.048 0.078 0.108 0.125 0.156l0.031 0.031c0.021 0.021 0.041 0.042 0.063 0.063 0.47 0.481 0.934 0.936 1.438 1.438 0.33 0.335 0.655 0.656 1 1 0.328 0.333 0.657 0.658 1 1 0.465 0.472 0.944 0.949 1.438 1.438l0.031 0.031c0.276 0.273 0.561 0.537 0.844 0.813 0.047 0.048 0.078 0.108 0.125 0.156l0.031 0.031c0.021 0.021 0.041 0.042 0.063 0.063 0.465 0.476 0.909 0.941 1.406 1.438 0.433 0.44 0.886 0.859 1.344 1.313 0.06 0.061 0.096 0.126 0.156 0.188 0.016 0.015 0.047 0.016 0.063 0.031l0.063 0.063c0.591 0.605 1.203 1.209 1.844 1.844l0.031 0.031c0.276 0.273 0.561 0.537 0.844 0.813 0.005 0.005-0.005 0.026 0 0.031 0.054 0.055 0.102 0.101 0.156 0.156 0.134 0.13 0.271 0.244 0.406 0.375 0.011 0.012 0.02 0.019 0.031 0.031 0.14 0.136 0.265 0.271 0.406 0.406 0.015 0.015 0.017 0.047 0.031 0.063 0.031 0.032 0.063 0.062 0.094 0.094l0.031 0.031c0.021 0.021 0.041 0.042 0.063 0.063 0.436 0.447 0.847 0.879 1.313 1.344 0.364 0.371 0.742 0.712 1.125 1.094 0.465 0.472 0.944 0.949 1.438 1.438l0.031 0.031c0.24 0.237 0.506 0.448 0.75 0.688 0.015 0.015 0.017 0.047 0.031 0.063 0.021 0.02 0.042 0.042 0.063 0.063 0.005 0.005-0.005 0.026 0 0.031 0.054 0.055 0.102 0.101 0.156 0.156 0.284 0.276 0.556 0.536 0.844 0.813 0.047 0.048 0.078 0.108 0.125 0.156l0.031 0.031c0.021 0.021 0.041 0.042 0.063 0.063 0.47 0.481 0.934 0.936 1.438 1.438 0.33 0.335 0.655 0.656 1 1 0.328 0.333 0.657 0.658 1 1 0.465 0.472 0.944 0.949 1.438 1.438l0.031 0.031c0.276 0.273 0.561 0.537 0.844 0.813 0.047 0.048 0.078 0.108 0.125 0.156l0.031 0.031c0.021 0.021 0.041 0.042 0.063 0.063 0.47 0.481 0.934 0.936 1.438 1.438 0.33 0.335 0.655 0.656 1 1 0.328 0.333 0.657 0.658 1 1 0.465 0.472 0.944 0.949 1.438 1.438l0.031 0.031c0.276 0.273 0.561 0.537 0.844 0.813 0.047 0.048 0.078 0.108 0.125 0.156l0.031 0.031c0.021 0.021 0.041 0.042 0.063 0.063 0.47 0.481 0.934 0.936 1.438 1.438 0.296 0.3 0.567 0.599 0.875 0.906 0.364 0.371 0.742 0.712 1.125 1.094 0.465 0.472 0.944 0.949 1.438 1.438l0.031 0.031c0.276 0.273 0.561 0.537 0.844 0.813 0.005 0.005-0.005 0.026 0 0.031 0.054 0.055 0.102 0.101 0.156 0.156 0.284 0.276 0.556 0.536 0.844 0.813 0.047 0.048 0.078 0.108 0.125 0.156l0.031 0.031c0.021 0.021 0.041 0.042 0.063 0.063 0.47 0.481 0.934 0.936 1.438 1.438 0.33 0.335 0.655 0.656 1 1 0.324 0.328 0.663 0.665 1 1 104.57-7.225 188.93-87.86 201.88-190.75-0.354-0.365-0.701-0.737-1.063-1.094-0.327-0.329-0.67-0.643-1-0.969-0.201-0.203-0.423-0.392-0.625-0.594-0.053-0.051-0.103-0.106-0.156-0.156l-0.125-0.125c-0.037-0.036-0.057-0.089-0.094-0.125-0.332-0.335-0.665-0.669-1-1-0.334-0.337-0.663-0.667-1-1-0.125-0.126-0.249-0.249-0.375-0.375-0.532-0.542-1.054-1.092-1.594-1.625-0.332-0.335-0.665-0.669-1-1-0.327-0.329-0.67-0.643-1-0.969-0.104-0.105-0.208-0.208-0.313-0.313-0.063-0.062-0.124-0.126-0.188-0.188-0.167-0.166-0.332-0.335-0.5-0.5-0.334-0.337-0.663-0.667-1-1-0.094-0.095-0.187-0.187-0.281-0.281-0.562-0.574-1.117-1.155-1.688-1.719-0.332-0.335-0.665-0.669-1-1-0.327-0.329-0.67-0.643-1-0.969-0.201-0.203-0.423-0.392-0.625-0.594-0.053-0.051-0.103-0.106-0.156-0.156l-0.125-0.125c-0.037-0.036-0.057-0.089-0.094-0.125-0.332-0.335-0.665-0.669-1-1-0.334-0.337-0.663-0.667-1-1-0.125-0.126-0.249-0.249-0.375-0.375-0.532-0.542-1.054-1.092-1.594-1.625-0.327-0.329-0.67-0.643-1-0.969-0.201-0.203-0.423-0.392-0.625-0.594-0.053-0.051-0.103-0.106-0.156-0.156l-0.125-0.125c-0.037-0.036-0.057-0.089-0.094-0.125-0.332-0.335-0.665-0.669-1-1-0.334-0.337-0.663-0.667-1-1-0.125-0.126-0.249-0.249-0.375-0.375-0.532-0.542-1.054-1.092-1.594-1.625-0.327-0.329-0.67-0.643-1-0.969-0.201-0.203-0.423-0.392-0.625-0.594-0.053-0.051-0.103-0.106-0.156-0.156l-0.125-0.125c-0.037-0.036-0.057-0.089-0.094-0.125-0.332-0.335-0.665-0.669-1-1-0.334-0.337-0.663-0.667-1-1-0.125-0.126-0.249-0.249-0.375-0.375-0.532-0.542-1.054-1.092-1.594-1.625-0.332-0.335-0.665-0.669-1-1-0.327-0.329-0.67-0.643-1-0.969-0.104-0.105-0.208-0.208-0.313-0.313-0.105-0.103-0.207-0.21-0.313-0.313-0.125-0.125-0.249-0.251-0.375-0.375-0.332-0.335-0.665-0.669-1-1-0.334-0.337-0.663-0.667-1-1-0.125-0.126-0.249-0.249-0.375-0.375-0.532-0.542-1.054-1.092-1.594-1.625-0.327-0.329-0.67-0.643-1-0.969-0.201-0.203-0.423-0.392-0.625-0.594-0.053-0.051-0.103-0.106-0.156-0.156l-0.125-0.125c-0.037-0.036-0.057-0.089-0.094-0.125-0.332-0.335-0.665-0.669-1-1-0.334-0.337-0.663-0.667-1-1-0.125-0.126-0.249-0.249-0.375-0.375-0.532-0.542-1.054-1.092-1.594-1.625-0.327-0.329-0.67-0.643-1-0.969-0.201-0.203-0.423-0.392-0.625-0.594-0.053-0.051-0.103-0.106-0.156-0.156l-0.125-0.125c-0.037-0.036-0.057-0.089-0.094-0.125-0.332-0.335-0.665-0.669-1-1-0.334-0.337-0.663-0.667-1-1-0.125-0.126-0.249-0.249-0.375-0.375-0.532-0.542-1.054-1.092-1.594-1.625-0.332-0.335-0.665-0.669-1-1-0.327-0.329-0.67-0.643-1-0.969-0.104-0.105-0.208-0.208-0.313-0.313-0.063-0.062-0.124-0.126-0.188-0.188-0.167-0.166-0.332-0.335-0.5-0.5-0.334-0.337-0.663-0.667-1-1-0.094-0.095-0.187-0.187-0.281-0.281-0.562-0.574-1.117-1.155-1.688-1.719-0.332-0.335-0.665-0.669-1-1-0.327-0.329-0.67-0.643-1-0.969-0.201-0.203-0.423-0.392-0.625-0.594-0.053-0.051-0.103-0.106-0.156-0.156l-0.125-0.125c-0.037-0.036-0.057-0.089-0.094-0.125-0.332-0.335-0.665-0.669-1-1-0.334-0.337-0.663-0.667-1-1-0.125-0.126-0.249-0.249-0.375-0.375-0.532-0.542-1.054-1.092-1.594-1.625-0.327-0.329-0.67-0.643-1-0.969-0.201-0.203-0.423-0.392-0.625-0.594-0.053-0.051-0.103-0.106-0.156-0.156l-0.125-0.125c-0.037-0.036-0.057-0.089-0.094-0.125-0.332-0.335-0.665-0.669-1-1-0.334-0.337-0.663-0.667-1-1-0.125-0.126-0.249-0.249-0.375-0.375-0.532-0.542-1.054-1.092-1.594-1.625-0.327-0.329-0.67-0.643-1-0.969-0.201-0.203-0.423-0.392-0.625-0.594-0.053-0.051-0.103-0.106-0.156-0.156l-0.125-0.125c-0.037-0.036-0.057-0.089-0.094-0.125-0.332-0.335-0.665-0.669-1-1-0.334-0.337-0.663-0.667-1-1-0.125-0.126-0.249-0.249-0.375-0.375-0.532-0.542-1.054-1.092-1.594-1.625-0.332-0.335-0.665-0.669-1-1-0.327-0.329-0.67-0.643-1-0.969-0.104-0.105-0.208-0.208-0.313-0.313-0.105-0.103-0.207-0.21-0.313-0.313-0.125-0.125-0.249-0.251-0.375-0.375-0.332-0.335-0.665-0.669-1-1-0.334-0.337-0.663-0.667-1-1-0.125-0.126-0.249-0.249-0.375-0.375-0.532-0.542-1.054-1.092-1.594-1.625-0.327-0.329-0.67-0.643-1-0.969-0.201-0.203-0.423-0.392-0.625-0.594-0.053-0.051-0.103-0.106-0.156-0.156l-0.125-0.125c-0.037-0.036-0.057-0.089-0.094-0.125-0.332-0.335-0.665-0.669-1-1-0.334-0.337-0.663-0.667-1-1-0.125-0.126-0.249-0.249-0.375-0.375-0.532-0.542-1.054-1.092-1.594-1.625-0.327-0.329-0.67-0.643-1-0.969-0.201-0.203-0.423-0.392-0.625-0.594-0.053-0.051-0.103-0.106-0.156-0.156l-0.125-0.125c-0.037-0.036-0.057-0.089-0.094-0.125-0.332-0.335-0.665-0.669-1-1-0.334-0.337-0.663-0.667-1-1-0.125-0.126-0.249-0.249-0.375-0.375-0.532-0.542-1.054-1.092-1.594-1.625-0.332-0.335-0.665-0.669-1-1-0.327-0.329-0.67-0.643-1-0.969-0.104-0.105-0.208-0.208-0.313-0.313-0.063-0.062-0.124-0.126-0.188-0.188-0.167-0.166-0.332-0.335-0.5-0.5-0.334-0.337-0.663-0.667-1-1-0.125-0.126-0.249-0.249-0.375-0.375-0.532-0.542-1.054-1.092-1.594-1.625-0.332-0.335-0.665-0.669-1-1-0.327-0.329-0.67-0.643-1-0.969-0.201-0.203-0.423-0.392-0.625-0.594-0.053-0.051-0.103-0.106-0.156-0.156l-0.125-0.125c-0.037-0.036-0.057-0.089-0.094-0.125-0.332-0.335-0.665-0.669-1-1-0.334-0.337-0.663-0.667-1-1-0.125-0.126-0.249-0.249-0.375-0.375-0.532-0.542-1.054-1.092-1.594-1.625-0.327-0.329-0.67-0.643-1-0.969-0.201-0.203-0.423-0.392-0.625-0.594-0.053-0.051-0.103-0.106-0.156-0.156l-0.125-0.125c-0.037-0.036-0.057-0.089-0.094-0.125-0.332-0.335-0.665-0.669-1-1-0.334-0.337-0.663-0.667-1-1-0.125-0.126-0.249-0.249-0.375-0.375-0.532-0.542-1.054-1.092-1.594-1.625-0.327-0.329-0.67-0.643-1-0.969-0.201-0.203-0.423-0.392-0.625-0.594-0.053-0.051-0.103-0.106-0.156-0.156l-0.125-0.125c-0.037-0.036-0.057-0.089-0.094-0.125-0.332-0.335-0.665-0.669-1-1-0.334-0.337-0.663-0.667-1-1-0.125-0.126-0.249-0.249-0.375-0.375-0.532-0.542-1.054-1.092-1.594-1.625-0.332-0.335-0.665-0.669-1-1-0.327-0.329-0.67-0.643-1-0.969-0.104-0.105-0.208-0.208-0.313-0.313-0.105-0.103-0.207-0.21-0.313-0.313-0.125-0.125-0.249-0.251-0.375-0.375-0.332-0.335-0.665-0.669-1-1-0.334-0.337-0.663-0.667-1-1-0.125-0.126-0.249-0.249-0.375-0.375-0.532-0.542-1.054-1.092-1.594-1.625-0.327-0.329-0.67-0.643-1-0.969-0.201-0.203-0.423-0.392-0.625-0.594-0.053-0.051-0.103-0.106-0.156-0.156l-0.125-0.125c-0.037-0.036-0.057-0.089-0.094-0.125-0.332-0.335-0.665-0.669-1-1-0.334-0.337-0.663-0.667-1-1-0.125-0.126-0.249-0.249-0.375-0.375-0.532-0.542-1.054-1.092-1.594-1.625-0.327-0.329-0.67-0.643-1-0.969-0.206-0.208-0.417-0.419-0.625-0.625-0.332-0.323-0.665-0.649-1-0.969-26.558-25.899-62.02-40.11-98.75-39.594" fill-opacity="0.235" id="path38"/>
  <path d="m256 1c-140.83 0-255 114.17-255 255s114.17 255 255 255 255-114.17 255-255-114.17-255-255-255m8.827 44.931c120.9 0 218.9 98 218.9 218.9s-98 218.9-218.9 218.9-218.93-98-218.93-218.9 98.03-218.9 218.93-218.9" fill-opacity="0.067" id="path40"/>
  <g fill-opacity="0.129" id="g42">
   <path d="m256 4.433c-138.94 0-251.57 112.63-251.57 251.57s112.63 251.57 251.57 251.57 251.57-112.63 251.57-251.57-112.63-251.57-251.57-251.57m5.885 38.556c120.9 0 218.9 98 218.9 218.9s-98 218.9-218.9 218.9-218.93-98-218.93-218.9 98.03-218.9 218.93-218.9" id="path44"/>
   <path d="m256 8.356c-136.77 0-247.64 110.87-247.64 247.64s110.87 247.64 247.64 247.64 247.64-110.87 247.64-247.64-110.87-247.64-247.64-247.64m2.942 31.691c120.9 0 218.9 98 218.9 218.9s-98 218.9-218.9 218.9-218.93-98-218.93-218.9 98.03-218.9 218.93-218.9" id="path46"/>
  </g>
  <path fill="#ffffff" stroke-width="4.904" stroke="#000000" stroke-opacity="0.31" d="m253.04 7.859c-135.42 0-245.19 109.78-245.19 245.19 0 135.42 109.78 245.19 245.19 245.19 135.42 0 245.19-109.78 245.19-245.19 0-135.42-109.78-245.19-245.19-245.19zm0 26.297c120.9 0 218.9 98 218.9 218.9s-98 218.9-218.9 218.9-218.93-98-218.93-218.9 98.03-218.9 218.93-218.9z" id="path48"/>
 </g>
 <text font-family="Gentium Book Basic" x="729.64" y="231.36" line-height="125%" font-size="129.23" id="text50" word-spacing="0" letter-spacing="0"><tspan x="729.64" y="231.36" id="tspan52"/>
 </text>
 <text font-family="Arial" x="378.91" y="579.25" transform="scale(4.0128 .2492)" font-size="46.954" id="text54" text-anchor="middle"/>
 <text font-family="Gentium Book Basic" x="1310.91" y="151.36" line-height="125%" font-size="129.23" id="text56" word-spacing="0" letter-spacing="0"><tspan x="1310.91" y="151.36" id="tspan58"/>
 </text>
 <text font-family="Arial" x="523.76" y="258.22" transform="scale(4.0128 .2492)" font-size="46.954" id="text60" text-anchor="middle"/>
 <text font-family="Gentium Book Basic" x="239.33" y="-29.901" line-height="125%" font-size="129.23" id="text62" word-spacing="0" letter-spacing="0"><tspan x="239.33" y="-29.901" id="tspan64"/>
 </text>
 <text font-family="Arial" x="256.72" y="-469.14" transform="scale(4.0128 .2492)" font-size="46.954" id="text66" text-anchor="middle"/>
 <text font-family="Gentium Book Basic" x="1337.38" y="-246.37" line-height="125%" font-size="129.23" id="text68" word-spacing="0" letter-spacing="0"><tspan x="1337.38" y="-246.37" id="tspan70"/>
 </text>
 <text font-family="Arial" x="530.36" y="-1337.81" transform="scale(4.0128 .2492)" font-size="46.954" id="text72" text-anchor="middle"/>
 <text font-family="Gentium Book Basic" x="1918.65" y="-326.38" line-height="125%" font-size="129.23" id="text74" word-spacing="0" letter-spacing="0"><tspan x="1918.65" y="-326.38" id="tspan76"/>
 </text>
 <text font-family="Arial" x="675.21" y="-1658.85" transform="scale(4.0128 .2492)" font-size="46.954" id="text78" text-anchor="middle"/>
 <text font-family="Gentium Book Basic" x="1529.53" y="-798.78" line-height="125%" font-size="129.23" id="text80" word-spacing="0" letter-spacing="0"><tspan x="1529.53" y="-798.78" id="tspan82"/>
 </text>
 <text font-family="Arial" x="578.24" y="-3554.51" transform="scale(4.0128 .2492)" font-size="46.954" id="text84" text-anchor="middle"/>
 <text font-family="Gentium Book Basic" x="2110.79" y="-878.78" line-height="125%" font-size="129.23" id="text86" word-spacing="0" letter-spacing="0"><tspan x="2110.79" y="-878.78" id="tspan88"/>
 </text>
 <text font-family="Arial" x="723.09" y="-3875.54" transform="scale(4.0128 .2492)" font-size="46.954" id="text90" text-anchor="middle"/>
 <text font-family="Gentium Book Basic" x="277.99" y="535.94" line-height="125%" font-size="208.33" id="text92" word-spacing="0" letter-spacing="0"><tspan x="277.99" y="535.94" id="tspan94"/>
 </text>
 <path fill="#ffffff" fill-rule="evenodd" d="m236.43 106.07c-2.579 0.037-5.192 0.13-7.781 0.313-5.568 0.393-10.321 0.862-10.594 1.031s11.699 20.618 26.594 45.44c14.895 24.82 31.822 53.35 37.625 63.38l10.531 18.219 3-4.906c1.64-2.701 7.313-11.996 12.594-20.625s14.07-23.01 19.531-31.969c5.463-8.954 10.956-17.928 12.25-19.969l2.375-3.719-3.187-3.375c-26.948-28.581-64.25-44.36-102.94-43.813m-31.31 4.062c-0.675 0.026-1.718 0.258-3.469 0.719-11.779 3.098-29.07 10.895-39.34 17.75-21.05 14.04-37.605 32.736-48.44 54.59-2.261 4.563-4.125 8.479-4.125 8.719s32.762 0.438 72.812 0.438 72.813-0.155 72.813-0.344c0-0.529-48.03-80.36-48.938-81.34-0.351-0.378-0.638-0.558-1.312-0.531m144.63 52.656c-0.197-0.005-0.372 0.14-0.531 0.375-0.81 1.192-13.568 21.988-28.469 46.38-5.471 8.954-11.558 18.931-13.563 22.19-6.849 11.127-12.254 20.11-17.906 29.875-9.41 16.266-14.344 24.967-14.344 25.19 0 0.115 21.565 0.225 47.938 0.219l47.937-0.031 0.875-3.063c7.931-27.642 7.344-55.86-1.781-83.28-3.306-9.934-10.07-23.754-15.875-32.438-2.71-4.054-3.691-5.39-4.281-5.406m-135.5 40.25-2.125 3.688c-1.167 2.022-4.747 8.215-7.938 13.75s-7.643 13.243-9.906 17.13c-3.657 6.276-4.02 7.211-3.438 8.5 0.895 1.966 21.23 37.3 22.625 39.31l1.094 1.625 23.844-0.031 23.875-0.031 2.656-4.844c2.358-4.267 11.11-19.425 18.656-32.34 1.427-2.442 2.526-4.726 2.438-5.063-0.089-0.336-5.488-9.858-12-21.16l-11.83-20.54h-47.938m-60.813 0.094-48.09 0.188-1.875 7.563c-6.57 26.28-5.549 52.713 3.063 78.59 3.252 9.771 10.04 23.631 15.656 32.06 2.116 3.174 4.03 5.781 4.25 5.781 0.216 0.001 1.405-1.802 2.688-4 2.145-3.676 6.401-10.578 27.406-44.531 20.432-33.03 23.95-38.785 28.09-46.19 1.367-2.442 5.727-9.966 9.687-16.75s7.219-12.457 7.219-12.594c0-0.103-12.197-0.142-29.438-0.125-5.747 0.005-12.05-0.021-18.656 0m30 52.688c-0.085 0.093-1.605 2.569-3.375 5.5s-12.746 20.802-24.406 39.688-21.301 34.724-21.438 35.22c-0.298 1.08 11.08 12.525 17.563 17.656 20.517 16.241 47.732 27.26 73.13 29.625 7.523 0.7 18.53 0.731 25.406 0.063 3.226-0.314 5.938-0.657 6.06-0.781 0.125-0.125-11-19.795-24.719-43.688-34.404-59.918-48.04-83.48-48.22-83.28m138.31 42.03c-8.723 0.003-18.295 0.011-28.313 0.031l-72.875 0.156 23.719 41.28c13.05 22.711 23.952 41.31 24.25 41.31 1.164 0 9.907-2.413 14.688-4.063 20.222-6.979 38.12-18.18 53.22-33.28 7.433-7.433 11.728-12.763 17.969-22.19 4.489-6.778 12.792-22.458 12.188-23.06-0.118-0.118-18.675-0.198-44.844-0.188" id="path96"/>
</svg>
