<?xml version="1.0" encoding="UTF-8" standalone="no"?>
<svg xmlns="http://www.w3.org/2000/svg" xmlns:sodipodi="http://sodipodi.sourceforge.net/DTD/sodipodi-0.dtd" xmlns:inkscape="http://www.inkscape.org/namespaces/inkscape" height="512" viewBox="0 0 512 512" width="512" version="1.1">
 <metadata id="metadata72"/>
 <g fill-rule="evenodd" id="g4">
  <path d="m471.95 253.05c0 120.9-98.01 218.9-218.9 218.9-120.9 0-218.9-98.01-218.9-218.9 0-120.9 98.01-218.9 218.9-218.9 120.9 0 218.9 98.01 218.9 218.9" fill="#bfbfbf" id="path6"/>
  <path d="m136.47 141.84v164.38c0 17.442 6.396 32.725 18.813 45.09 0.153 0.151 0.315 0.288 0.469 0.438 0.181 0.184 0.348 0.38 0.531 0.563 0.153 0.151 0.315 0.288 0.469 0.438 0.181 0.184 0.348 0.38 0.531 0.563 0.064 0.063 0.124 0.125 0.188 0.188 0.262 0.269 0.514 0.546 0.781 0.813 0.153 0.151 0.315 0.288 0.469 0.438 0.181 0.184 0.348 0.38 0.531 0.563 0.232 0.229 0.485 0.431 0.719 0.656 0.1 0.1 0.181 0.213 0.281 0.313 0.151 0.15 0.316 0.289 0.469 0.438 0.182 0.185 0.346 0.378 0.531 0.563 0.189 0.187 0.372 0.378 0.563 0.563 0.146 0.148 0.29 0.29 0.438 0.438 0.153 0.151 0.315 0.288 0.469 0.438 0.181 0.184 0.348 0.38 0.531 0.563 0.064 0.063 0.124 0.125 0.188 0.188 0.262 0.269 0.514 0.546 0.781 0.813 0.153 0.151 0.315 0.288 0.469 0.438 0.181 0.184 0.348 0.38 0.531 0.563 0.232 0.229 0.485 0.431 0.719 0.656 0.1 0.1 0.181 0.213 0.281 0.313 0.151 0.15 0.316 0.289 0.469 0.438 0.182 0.185 0.346 0.378 0.531 0.563 0.189 0.187 0.372 0.378 0.563 0.563 0.146 0.148 0.29 0.29 0.438 0.438 0.153 0.151 0.315 0.288 0.469 0.438 0.181 0.184 0.348 0.38 0.531 0.563 0.032 0.031 0.062 0.062 0.094 0.094 0.294 0.303 0.574 0.607 0.875 0.906 0.153 0.151 0.315 0.288 0.469 0.438 0.181 0.184 0.348 0.38 0.531 0.563 0.153 0.151 0.315 0.288 0.469 0.438 0.181 0.184 0.348 0.38 0.531 0.563 0.232 0.229 0.485 0.431 0.719 0.656 0.1 0.1 0.181 0.213 0.281 0.313 0.189 0.187 0.372 0.378 0.563 0.563 0.146 0.148 0.29 0.29 0.438 0.438 0.153 0.151 0.315 0.288 0.469 0.438 0.181 0.184 0.348 0.38 0.531 0.563 0.153 0.151 0.315 0.288 0.469 0.438 0.181 0.184 0.348 0.38 0.531 0.563 0.064 0.063 0.124 0.125 0.188 0.188 0.262 0.269 0.514 0.546 0.781 0.813 0.153 0.151 0.315 0.288 0.469 0.438 0.181 0.184 0.348 0.38 0.531 0.563 0.232 0.229 0.485 0.431 0.719 0.656 0.1 0.1 0.181 0.213 0.281 0.313 0.151 0.15 0.316 0.289 0.469 0.438 0.182 0.185 0.346 0.378 0.531 0.563 0.189 0.187 0.372 0.378 0.563 0.563 0.146 0.148 0.29 0.29 0.438 0.438 0.153 0.151 0.315 0.288 0.469 0.438 0.181 0.184 0.348 0.38 0.531 0.563 0.064 0.063 0.124 0.125 0.188 0.188 0.262 0.269 0.514 0.546 0.781 0.813 0.153 0.151 0.315 0.288 0.469 0.438 0.181 0.184 0.348 0.38 0.531 0.563 0.232 0.229 0.485 0.431 0.719 0.656 0.1 0.1 0.181 0.213 0.281 0.313 0.151 0.15 0.316 0.289 0.469 0.438 0.182 0.185 0.346 0.378 0.531 0.563 0.189 0.187 0.372 0.378 0.563 0.563 0.146 0.148 0.29 0.29 0.438 0.438 0.153 0.151 0.315 0.288 0.469 0.438 0.181 0.184 0.348 0.38 0.531 0.563 0.064 0.063 0.124 0.125 0.188 0.188 0.262 0.269 0.514 0.546 0.781 0.813 0.153 0.151 0.315 0.288 0.469 0.438 0.181 0.184 0.348 0.38 0.531 0.563 0.232 0.229 0.485 0.431 0.719 0.656 0.1 0.1 0.181 0.213 0.281 0.313 0.151 0.15 0.316 0.289 0.469 0.438 0.182 0.185 0.346 0.378 0.531 0.563 0.189 0.187 0.372 0.378 0.563 0.563 0.146 0.148 0.29 0.29 0.438 0.438 0.153 0.151 0.315 0.288 0.469 0.438 0.181 0.184 0.348 0.38 0.531 0.563 0.101 0.1 0.211 0.182 0.313 0.281 0.232 0.237 0.452 0.484 0.688 0.719 0.074 0.073 0.144 0.146 0.219 0.219 0.252 0.258 0.493 0.525 0.75 0.781 0.153 0.151 0.315 0.288 0.469 0.438 0.181 0.184 0.348 0.38 0.531 0.563 0.232 0.229 0.485 0.431 0.719 0.656 0.1 0.1 0.181 0.213 0.281 0.313 0.189 0.187 0.372 0.378 0.563 0.563 0.146 0.148 0.29 0.29 0.438 0.438 0.153 0.151 0.315 0.288 0.469 0.438 0.181 0.184 0.348 0.38 0.531 0.563 0.153 0.151 0.315 0.288 0.469 0.438 0.181 0.184 0.348 0.38 0.531 0.563 0.064 0.063 0.124 0.125 0.188 0.188 0.262 0.269 0.514 0.546 0.781 0.813 0.153 0.151 0.315 0.288 0.469 0.438 0.181 0.184 0.348 0.38 0.531 0.563 0.232 0.229 0.485 0.431 0.719 0.656 0.1 0.1 0.181 0.213 0.281 0.313 0.151 0.15 0.316 0.289 0.469 0.438 0.182 0.185 0.346 0.378 0.531 0.563 0.189 0.187 0.372 0.378 0.563 0.563 0.146 0.148 0.29 0.29 0.438 0.438 0.153 0.151 0.315 0.288 0.469 0.438 0.181 0.184 0.348 0.38 0.531 0.563 0.064 0.063 0.124 0.125 0.188 0.188 0.262 0.269 0.514 0.546 0.781 0.813 0.153 0.151 0.315 0.288 0.469 0.438 0.181 0.184 0.348 0.38 0.531 0.563 0.232 0.229 0.485 0.431 0.719 0.656 0.1 0.1 0.181 0.213 0.281 0.313 0.151 0.15 0.316 0.289 0.469 0.438 0.182 0.185 0.346 0.378 0.531 0.563 0.189 0.187 0.372 0.378 0.563 0.563 0.146 0.148 0.29 0.29 0.438 0.438 0.153 0.151 0.315 0.288 0.469 0.438 0.181 0.184 0.348 0.38 0.531 0.563 0.032 0.031 0.062 0.062 0.094 0.094 0.294 0.303 0.574 0.607 0.875 0.906 0.153 0.151 0.315 0.288 0.469 0.438 0.181 0.184 0.348 0.38 0.531 0.563 0.232 0.229 0.485 0.431 0.719 0.656 0.1 0.1 0.181 0.213 0.281 0.313v0.031c0.232 0.229 0.485 0.431 0.719 0.656 0.1 0.1 0.181 0.213 0.281 0.313 0.189 0.187 0.372 0.378 0.563 0.563 0.146 0.148 0.29 0.29 0.438 0.438 0.153 0.151 0.315 0.288 0.469 0.438 0.181 0.184 0.348 0.38 0.531 0.563 0.101 0.1 0.211 0.182 0.313 0.281 0.232 0.237 0.452 0.484 0.688 0.719 0.074 0.073 0.144 0.146 0.219 0.219 0.252 0.258 0.493 0.525 0.75 0.781 0.153 0.151 0.315 0.288 0.469 0.438 0.181 0.184 0.348 0.38 0.531 0.563 0.232 0.229 0.485 0.431 0.719 0.656 0.1 0.1 0.181 0.213 0.281 0.313 0.151 0.15 0.316 0.289 0.469 0.438 0.182 0.185 0.346 0.378 0.531 0.563 0.153 0.151 0.315 0.288 0.469 0.438 0.181 0.184 0.348 0.38 0.531 0.563 0.153 0.151 0.315 0.288 0.469 0.438 0.181 0.184 0.348 0.38 0.531 0.563 0.064 0.063 0.124 0.125 0.188 0.188 0.262 0.269 0.514 0.546 0.781 0.813 0.153 0.151 0.315 0.288 0.469 0.438 0.181 0.184 0.348 0.38 0.531 0.563 0.232 0.229 0.485 0.431 0.719 0.656 0.1 0.1 0.181 0.213 0.281 0.313 0.151 0.15 0.316 0.289 0.469 0.438 0.182 0.185 0.346 0.378 0.531 0.563 0.189 0.187 0.372 0.378 0.563 0.563 0.146 0.148 0.29 0.29 0.438 0.438 0.153 0.151 0.315 0.288 0.469 0.438 0.181 0.184 0.348 0.38 0.531 0.563 0.064 0.063 0.124 0.125 0.188 0.188 0.262 0.269 0.514 0.546 0.781 0.813 0.153 0.151 0.315 0.288 0.469 0.438 0.181 0.184 0.348 0.38 0.531 0.563 0.232 0.229 0.485 0.431 0.719 0.656 0.1 0.1 0.181 0.213 0.281 0.313 0.151 0.15 0.316 0.289 0.469 0.438 0.182 0.185 0.346 0.378 0.531 0.563 0.189 0.187 0.372 0.378 0.563 0.563 0.146 0.148 0.29 0.29 0.438 0.438 0.153 0.151 0.315 0.288 0.469 0.438 0.181 0.184 0.348 0.38 0.531 0.563 0.101 0.1 0.211 0.182 0.313 0.281 0.232 0.237 0.452 0.484 0.688 0.719 0.074 0.073 0.144 0.146 0.219 0.219 0.252 0.258 0.493 0.525 0.75 0.781 0.153 0.151 0.315 0.288 0.469 0.438 0.181 0.184 0.348 0.38 0.531 0.563 0.232 0.229 0.485 0.431 0.719 0.656 0.1 0.1 0.181 0.213 0.281 0.313 0.189 0.187 0.372 0.378 0.563 0.563 0.146 0.148 0.29 0.29 0.438 0.438 0.153 0.151 0.315 0.288 0.469 0.438 0.181 0.184 0.348 0.38 0.531 0.563 0.153 0.151 0.315 0.288 0.469 0.438 0.181 0.184 0.348 0.38 0.531 0.563 0.064 0.063 0.124 0.125 0.188 0.188 0.262 0.269 0.514 0.546 0.781 0.813 0.153 0.151 0.315 0.288 0.469 0.438 0.181 0.184 0.348 0.38 0.531 0.563 0.232 0.229 0.485 0.431 0.719 0.656 0.1 0.1 0.181 0.213 0.281 0.313 0.151 0.15 0.316 0.289 0.469 0.438 0.182 0.185 0.346 0.378 0.531 0.563 0.189 0.187 0.372 0.378 0.563 0.563 0.146 0.148 0.29 0.29 0.438 0.438 0.153 0.151 0.315 0.288 0.469 0.438 0.181 0.184 0.348 0.38 0.531 0.563 0.064 0.063 0.124 0.125 0.188 0.188 0.262 0.269 0.514 0.546 0.781 0.813 0.153 0.151 0.315 0.288 0.469 0.438 0.181 0.184 0.348 0.38 0.531 0.563 0.232 0.229 0.485 0.431 0.719 0.656 0.1 0.1 0.181 0.213 0.281 0.313 0.151 0.15 0.316 0.289 0.469 0.438 0.182 0.185 0.346 0.378 0.531 0.563 0.189 0.187 0.372 0.378 0.563 0.563 0.146 0.148 0.29 0.29 0.438 0.438 0.153 0.151 0.315 0.288 0.469 0.438 0.181 0.184 0.348 0.38 0.531 0.563 0.032 0.031 0.062 0.062 0.094 0.094 0.294 0.303 0.574 0.607 0.875 0.906 0.153 0.151 0.315 0.288 0.469 0.438 0.181 0.184 0.348 0.38 0.531 0.563 0.232 0.229 0.485 0.431 0.719 0.656 0.1 0.1 0.181 0.213 0.281 0.313v0.031c0.232 0.229 0.485 0.431 0.719 0.656 0.1 0.1 0.181 0.213 0.281 0.313 0.189 0.187 0.372 0.378 0.563 0.563 0.146 0.148 0.29 0.29 0.438 0.438 0.153 0.151 0.315 0.288 0.469 0.438 0.181 0.184 0.348 0.38 0.531 0.563 0.101 0.1 0.211 0.182 0.313 0.281 0.232 0.237 0.452 0.484 0.688 0.719 0.074 0.073 0.144 0.146 0.219 0.219 0.252 0.258 0.493 0.525 0.75 0.781 0.153 0.151 0.315 0.288 0.469 0.438 0.181 0.184 0.348 0.38 0.531 0.563 0.232 0.229 0.485 0.431 0.719 0.656 0.1 0.1 0.181 0.213 0.281 0.313 0.151 0.15 0.316 0.289 0.469 0.438 0.182 0.185 0.346 0.378 0.531 0.563 0.153 0.151 0.315 0.288 0.469 0.438 0.181 0.184 0.348 0.38 0.531 0.563 0.153 0.151 0.315 0.288 0.469 0.438 0.181 0.184 0.348 0.38 0.531 0.563 0.064 0.063 0.124 0.125 0.188 0.188 0.262 0.269 0.514 0.546 0.781 0.813 0.153 0.151 0.315 0.288 0.469 0.438 0.181 0.184 0.348 0.38 0.531 0.563 0.232 0.229 0.485 0.431 0.719 0.656 0.1 0.1 0.181 0.213 0.281 0.313 0.151 0.15 0.316 0.289 0.469 0.438 0.182 0.185 0.346 0.378 0.531 0.563 0.189 0.187 0.372 0.378 0.563 0.563 0.146 0.148 0.29 0.29 0.438 0.438 0.053 0.052 0.102 0.106 0.156 0.156 97.56-9.642 176.28-83.32 193.56-178.44-0.139-0.131-0.269-0.272-0.406-0.406-0.13-0.134-0.244-0.274-0.375-0.406-0.224-0.226-0.461-0.435-0.688-0.656-0.108-0.111-0.203-0.233-0.313-0.344-0.224-0.226-0.461-0.435-0.688-0.656-0.108-0.111-0.203-0.233-0.313-0.344-0.198-0.2-0.394-0.398-0.594-0.594-0.133-0.136-0.272-0.271-0.406-0.406-0.163-0.165-0.336-0.307-0.5-0.469-0.16-0.166-0.306-0.335-0.469-0.5-0.203-0.205-0.42-0.392-0.625-0.594-0.13-0.134-0.244-0.274-0.375-0.406-0.203-0.205-0.42-0.392-0.625-0.594-0.13-0.134-0.244-0.274-0.375-0.406-0.224-0.226-0.461-0.435-0.688-0.656-0.108-0.111-0.203-0.233-0.313-0.344-0.224-0.226-0.461-0.435-0.688-0.656-0.108-0.111-0.203-0.233-0.313-0.344-0.198-0.2-0.394-0.398-0.594-0.594-0.133-0.136-0.272-0.271-0.406-0.406-0.163-0.165-0.336-0.307-0.5-0.469-0.168-0.174-0.329-0.359-0.5-0.531-0.196-0.198-0.396-0.368-0.594-0.563-0.13-0.134-0.244-0.274-0.375-0.406-0.203-0.205-0.42-0.392-0.625-0.594-0.13-0.134-0.244-0.274-0.375-0.406-0.224-0.226-0.461-0.435-0.688-0.656-0.108-0.111-0.203-0.233-0.313-0.344-0.224-0.226-0.461-0.435-0.688-0.656-0.108-0.111-0.203-0.233-0.313-0.344-0.198-0.2-0.394-0.398-0.594-0.594-0.133-0.136-0.272-0.271-0.406-0.406-0.198-0.2-0.394-0.398-0.594-0.594-0.133-0.136-0.272-0.271-0.406-0.406-0.163-0.165-0.336-0.307-0.5-0.469-0.16-0.166-0.306-0.335-0.469-0.5-0.203-0.205-0.42-0.392-0.625-0.594-0.13-0.134-0.244-0.274-0.375-0.406-0.203-0.205-0.42-0.392-0.625-0.594-0.13-0.134-0.244-0.274-0.375-0.406-0.224-0.226-0.461-0.435-0.688-0.656-0.108-0.111-0.203-0.233-0.313-0.344-0.224-0.226-0.461-0.435-0.688-0.656-0.108-0.111-0.203-0.233-0.313-0.344-0.198-0.2-0.394-0.398-0.594-0.594-0.133-0.136-0.272-0.271-0.406-0.406-0.163-0.165-0.336-0.307-0.5-0.469-0.16-0.166-0.306-0.335-0.469-0.5-0.203-0.205-0.42-0.392-0.625-0.594-0.13-0.134-0.244-0.274-0.375-0.406-0.203-0.205-0.42-0.392-0.625-0.594-0.13-0.134-0.244-0.274-0.375-0.406-0.224-0.226-0.461-0.435-0.688-0.656-0.108-0.111-0.203-0.233-0.313-0.344-0.224-0.226-0.461-0.435-0.688-0.656-0.108-0.111-0.203-0.233-0.313-0.344-0.198-0.2-0.394-0.398-0.594-0.594-0.133-0.136-0.272-0.271-0.406-0.406-0.163-0.165-0.336-0.307-0.5-0.469-0.16-0.166-0.306-0.335-0.469-0.5v-0.031c-0.331-0.334-0.664-0.645-1-0.969-0.203-0.205-0.42-0.392-0.625-0.594-0.13-0.134-0.244-0.274-0.375-0.406-0.224-0.226-0.461-0.435-0.688-0.656-0.108-0.111-0.203-0.233-0.313-0.344-0.224-0.226-0.461-0.435-0.688-0.656-0.108-0.111-0.203-0.233-0.313-0.344-0.198-0.2-0.394-0.398-0.594-0.594-0.133-0.136-0.272-0.271-0.406-0.406-0.198-0.2-0.394-0.398-0.594-0.594-0.133-0.136-0.272-0.271-0.406-0.406-0.196-0.198-0.396-0.368-0.594-0.563-0.13-0.134-0.244-0.274-0.375-0.406-0.203-0.205-0.42-0.392-0.625-0.594-0.13-0.134-0.244-0.274-0.375-0.406-0.203-0.205-0.42-0.392-0.625-0.594-0.13-0.134-0.244-0.274-0.375-0.406-0.224-0.226-0.461-0.435-0.688-0.656-0.108-0.111-0.203-0.233-0.313-0.344-0.198-0.2-0.394-0.398-0.594-0.594-0.133-0.136-0.272-0.271-0.406-0.406-0.198-0.2-0.394-0.398-0.594-0.594-0.133-0.136-0.272-0.271-0.406-0.406-0.163-0.165-0.336-0.307-0.5-0.469-0.16-0.166-0.306-0.335-0.469-0.5-0.203-0.205-0.42-0.392-0.625-0.594-0.13-0.134-0.244-0.274-0.375-0.406-0.203-0.205-0.42-0.392-0.625-0.594-0.13-0.134-0.244-0.274-0.375-0.406-0.224-0.226-0.461-0.435-0.688-0.656-0.108-0.111-0.203-0.233-0.313-0.344-0.224-0.226-0.461-0.435-0.688-0.656-0.108-0.111-0.203-0.233-0.313-0.344-0.198-0.2-0.394-0.398-0.594-0.594-0.133-0.136-0.272-0.271-0.406-0.406-0.163-0.165-0.336-0.307-0.5-0.469-0.16-0.166-0.306-0.335-0.469-0.5-0.203-0.205-0.42-0.392-0.625-0.594-0.13-0.134-0.244-0.274-0.375-0.406-0.203-0.205-0.42-0.392-0.625-0.594-0.13-0.134-0.244-0.274-0.375-0.406-0.224-0.226-0.461-0.435-0.688-0.656-0.108-0.111-0.203-0.233-0.313-0.344-0.224-0.226-0.461-0.435-0.688-0.656-0.108-0.111-0.203-0.233-0.313-0.344-0.198-0.2-0.394-0.398-0.594-0.594-0.133-0.136-0.272-0.271-0.406-0.406-0.1-0.101-0.212-0.181-0.313-0.281-0.224-0.234-0.427-0.487-0.656-0.719h-0.031c-0.196-0.198-0.396-0.368-0.594-0.563-0.13-0.134-0.244-0.274-0.375-0.406-0.203-0.205-0.42-0.392-0.625-0.594-0.13-0.134-0.244-0.274-0.375-0.406-0.224-0.226-0.461-0.435-0.688-0.656-0.108-0.111-0.203-0.233-0.313-0.344-0.224-0.226-0.461-0.435-0.688-0.656-0.108-0.111-0.203-0.233-0.313-0.344-0.198-0.2-0.394-0.398-0.594-0.594-0.133-0.136-0.272-0.271-0.406-0.406-0.198-0.2-0.394-0.398-0.594-0.594-0.133-0.136-0.272-0.271-0.406-0.406-0.196-0.198-0.396-0.368-0.594-0.563-0.13-0.134-0.244-0.274-0.375-0.406-0.203-0.205-0.42-0.392-0.625-0.594-0.13-0.134-0.244-0.274-0.375-0.406-0.203-0.205-0.42-0.392-0.625-0.594-0.13-0.134-0.244-0.274-0.375-0.406-0.224-0.226-0.461-0.435-0.688-0.656-0.108-0.111-0.203-0.233-0.313-0.344-0.224-0.226-0.461-0.435-0.688-0.656-0.108-0.111-0.203-0.233-0.313-0.344-0.198-0.2-0.394-0.398-0.594-0.594-0.133-0.136-0.272-0.271-0.406-0.406-0.163-0.165-0.336-0.307-0.5-0.469-0.16-0.166-0.306-0.335-0.469-0.5-0.203-0.205-0.42-0.392-0.625-0.594-0.13-0.134-0.244-0.274-0.375-0.406-0.203-0.205-0.42-0.392-0.625-0.594-0.13-0.134-0.244-0.274-0.375-0.406-0.224-0.226-0.461-0.435-0.688-0.656-0.108-0.111-0.203-0.233-0.313-0.344-0.224-0.226-0.461-0.435-0.688-0.656-0.108-0.111-0.203-0.233-0.313-0.344-0.198-0.2-0.394-0.398-0.594-0.594-0.133-0.136-0.272-0.271-0.406-0.406-0.163-0.165-0.336-0.307-0.5-0.469-0.16-0.166-0.306-0.335-0.469-0.5-0.203-0.205-0.42-0.392-0.625-0.594-0.13-0.134-0.244-0.274-0.375-0.406-0.203-0.205-0.42-0.392-0.625-0.594-0.13-0.134-0.244-0.274-0.375-0.406-0.224-0.226-0.461-0.435-0.688-0.656-0.108-0.111-0.203-0.233-0.313-0.344-0.224-0.226-0.461-0.435-0.688-0.656-0.108-0.111-0.203-0.233-0.313-0.344-0.198-0.2-0.394-0.398-0.594-0.594-0.133-0.136-0.272-0.271-0.406-0.406-0.198-0.2-0.394-0.398-0.594-0.594-0.133-0.136-0.272-0.271-0.406-0.406-0.196-0.198-0.396-0.368-0.594-0.563-0.13-0.134-0.244-0.274-0.375-0.406-0.203-0.205-0.42-0.392-0.625-0.594-0.13-0.134-0.244-0.274-0.375-0.406-0.203-0.205-0.42-0.392-0.625-0.594-0.13-0.134-0.244-0.274-0.375-0.406-0.224-0.226-0.461-0.435-0.688-0.656-0.108-0.111-0.203-0.233-0.313-0.344-0.198-0.2-0.394-0.398-0.594-0.594-0.133-0.136-0.272-0.271-0.406-0.406-0.198-0.2-0.394-0.398-0.594-0.594-0.133-0.136-0.272-0.271-0.406-0.406-0.163-0.165-0.336-0.307-0.5-0.469-0.16-0.166-0.306-0.335-0.469-0.5-0.203-0.205-0.42-0.392-0.625-0.594-0.13-0.134-0.244-0.274-0.375-0.406-0.203-0.205-0.42-0.392-0.625-0.594-0.13-0.134-0.244-0.274-0.375-0.406-0.224-0.226-0.461-0.435-0.688-0.656-0.108-0.111-0.203-0.233-0.313-0.344-0.224-0.226-0.461-0.435-0.688-0.656-0.108-0.111-0.203-0.233-0.313-0.344-0.198-0.2-0.394-0.398-0.594-0.594-0.133-0.136-0.272-0.271-0.406-0.406-0.163-0.165-0.336-0.307-0.5-0.469-0.16-0.166-0.306-0.335-0.469-0.5-0.203-0.205-0.42-0.392-0.625-0.594-0.13-0.134-0.244-0.274-0.375-0.406-0.203-0.205-0.42-0.392-0.625-0.594-0.13-0.134-0.244-0.274-0.375-0.406-0.224-0.226-0.461-0.435-0.688-0.656-0.108-0.111-0.203-0.233-0.313-0.344-0.224-0.226-0.461-0.435-0.688-0.656-0.108-0.111-0.203-0.233-0.313-0.344-0.198-0.2-0.394-0.398-0.594-0.594-0.133-0.136-0.272-0.271-0.406-0.406-0.1-0.101-0.212-0.181-0.313-0.281-0.224-0.234-0.427-0.487-0.656-0.719-0.331-0.334-0.664-0.645-1-0.969-0.203-0.205-0.42-0.392-0.625-0.594-0.13-0.134-0.244-0.274-0.375-0.406-0.224-0.226-0.461-0.435-0.688-0.656-0.108-0.111-0.203-0.233-0.313-0.344-0.224-0.226-0.461-0.435-0.688-0.656-0.108-0.111-0.203-0.233-0.313-0.344-0.198-0.2-0.394-0.398-0.594-0.594-0.133-0.136-0.272-0.271-0.406-0.406-0.198-0.2-0.394-0.398-0.594-0.594-0.133-0.136-0.272-0.271-0.406-0.406-0.196-0.198-0.396-0.368-0.594-0.563-0.13-0.134-0.244-0.274-0.375-0.406-0.203-0.205-0.42-0.392-0.625-0.594-0.13-0.134-0.244-0.274-0.375-0.406-0.203-0.205-0.42-0.392-0.625-0.594-0.13-0.134-0.244-0.274-0.375-0.406-0.224-0.226-0.461-0.435-0.688-0.656-0.108-0.111-0.203-0.233-0.313-0.344-10.01-10.11-22.453-15.313-36.469-15.313-13.758 0-25.797 5.132-35.531 14.5-9.706-9.352-21.654-14.5-35.406-14.5-14.02 0-26.463 5.205-36.469 15.313-1.116 1.127-2.191 2.28-3.188 3.469h-1v-1h-1v-1h-0.969v-1h-1v-1h-1v-1h-1v-0.969h-1v-1h-1v-1h-0.969v-1h-1v-1h-1v-1h-1v-1h-1v-0.969h-1v-1h-0.969v-1h-1v-1h-1v-1h-1v-1h-1v-0.969h-1v-1h-1v-1h-0.969v-1h-1v-1h-1v-1h-1v-0.969h-1v-1h-1v-1h-0.969v-1h-1v-1h-1v-1h-1v-0.969h-1v-1h-1v-1h-0.969v-1h-1v-1h-1v-1h-1v-1h-1v-0.969h-1v-1h-1v-1h-0.969v-1h-1v-1h-1v-1h-1v-0.969h-1v-1h-1v-1h-30.844" fill-opacity="0.235" id="path8"/>
  <path d="m256 1c-140.83 0-255 114.17-255 255s114.17 255 255 255 255-114.17 255-255-114.17-255-255-255m8.827 44.931c120.9 0 218.9 98 218.9 218.9s-98 218.9-218.9 218.9-218.93-98-218.93-218.9 98.03-218.9 218.93-218.9" fill-opacity="0.067" id="path10"/>
  <g fill-opacity="0.129" id="g12">
   <path d="m256 4.433c-138.94 0-251.57 112.63-251.57 251.57s112.63 251.57 251.57 251.57 251.57-112.63 251.57-251.57-112.63-251.57-251.57-251.57m5.885 38.556c120.9 0 218.9 98 218.9 218.9s-98 218.9-218.9 218.9-218.93-98-218.93-218.9 98.03-218.9 218.93-218.9" id="path14"/>
   <path d="m256 8.356c-136.77 0-247.64 110.87-247.64 247.64s110.87 247.64 247.64 247.64 247.64-110.87 247.64-247.64-110.87-247.64-247.64-247.64m2.942 31.691c120.9 0 218.9 98 218.9 218.9s-98 218.9-218.9 218.9-218.93-98-218.93-218.9 98.03-218.9 218.93-218.9" id="path16"/>
  </g>
  <path fill="#ffffff" stroke-width="4.904" stroke="#000000" stroke-opacity="0.31" d="m253.04 7.859c-135.42 0-245.19 109.78-245.19 245.19 0 135.42 109.78 245.19 245.19 245.19 135.42 0 245.19-109.78 245.19-245.19 0-135.42-109.78-245.19-245.19-245.19zm0 26.297c120.9 0 218.9 98 218.9 218.9s-98 218.9-218.9 218.9-218.93-98-218.93-218.9 98.03-218.9 218.93-218.9z" id="path18"/>
 </g>
 <text font-family="Gentium Book Basic" x="729.64" y="231.36" line-height="125%" font-size="129.23" id="text20" word-spacing="0" letter-spacing="0"><tspan x="729.64" y="231.36" id="tspan22"/>
 </text>
 <text font-family="Arial" x="378.91" y="579.25" transform="scale(4.0128 .2492)" font-size="46.954" id="text24" text-anchor="middle"/>
 <text font-family="Gentium Book Basic" x="1310.91" y="151.36" line-height="125%" font-size="129.23" id="text26" word-spacing="0" letter-spacing="0"><tspan x="1310.91" y="151.36" id="tspan28"/>
 </text>
 <text font-family="Arial" x="523.76" y="258.22" transform="scale(4.0128 .2492)" font-size="46.954" id="text30" text-anchor="middle"/>
 <text font-family="Gentium Book Basic" x="239.33" y="-29.901" line-height="125%" font-size="129.23" id="text32" word-spacing="0" letter-spacing="0"><tspan x="239.33" y="-29.901" id="tspan34"/>
 </text>
 <text font-family="Arial" x="256.72" y="-469.14" transform="scale(4.0128 .2492)" font-size="46.954" id="text36" text-anchor="middle"/>
 <text font-family="Gentium Book Basic" x="1337.38" y="-246.37" line-height="125%" font-size="129.23" id="text38" word-spacing="0" letter-spacing="0"><tspan x="1337.38" y="-246.37" id="tspan40"/>
 </text>
 <text font-family="Arial" x="530.36" y="-1337.81" transform="scale(4.0128 .2492)" font-size="46.954" id="text42" text-anchor="middle"/>
 <text font-family="Gentium Book Basic" x="1918.65" y="-326.38" line-height="125%" font-size="129.23" id="text44" word-spacing="0" letter-spacing="0"><tspan x="1918.65" y="-326.38" id="tspan46"/>
 </text>
 <text font-family="Arial" x="675.21" y="-1658.85" transform="scale(4.0128 .2492)" font-size="46.954" id="text48" text-anchor="middle"/>
 <text font-family="Gentium Book Basic" x="1529.53" y="-798.78" line-height="125%" font-size="129.23" id="text50" word-spacing="0" letter-spacing="0"><tspan x="1529.53" y="-798.78" id="tspan52"/>
 </text>
 <text font-family="Arial" x="578.24" y="-3554.51" transform="scale(4.0128 .2492)" font-size="46.954" id="text54" text-anchor="middle"/>
 <text font-family="Gentium Book Basic" x="2110.79" y="-878.78" line-height="125%" font-size="129.23" id="text56" word-spacing="0" letter-spacing="0"><tspan x="2110.79" y="-878.78" id="tspan58"/>
 </text>
 <text font-family="Arial" x="723.09" y="-3875.54" transform="scale(4.0128 .2492)" font-size="46.954" id="text60" text-anchor="middle"/>
 <text font-family="Gentium Book Basic" x="277.99" y="535.94" line-height="125%" font-size="208.33" id="text62" word-spacing="0" letter-spacing="0"><tspan x="277.99" y="535.94" id="tspan64"/>
 </text>
 <path fill="#ffffff" fill-rule="evenodd" d="m136.48 141.84v164.39c0 17.442 6.382 32.724 18.799 45.09 10.613 10.476 23.34 17.307 37.68 18.84h117.26c18 0 33.698-6.718 46.46-19.71h0.124c10.853-11.151 17.17-24.507 18.716-39.544v-18.302l-0.083-71.51c0-14.233-5.278-26.833-15.279-36.935-10.01-10.11-22.464-15.321-36.48-15.321-13.758 0-25.793 5.125-35.527 14.492-9.706-9.352-21.651-14.492-35.403-14.492-14.02 0-26.474 5.213-36.48 15.321-10 10.1-15.238 22.702-15.238 36.935v71.965h32.587v-71.965c0-5.455 1.819-9.688 5.714-13.623 3.908-3.947 8.04-5.756 13.416-5.756 5.486 0 9.582 1.799 13.499 5.756 3.895 3.935 5.673 8.168 5.673 13.623v71.965h32.587v-71.965c0-5.455 1.819-9.688 5.714-13.623 3.916-3.956 7.971-5.756 13.457-5.756 5.373 0 9.549 1.808 13.457 5.756 3.895 3.935 5.631 8.168 5.631 13.623l0.166 84.06c0 1.057-0.053 2.107-0.166 3.147-0.007 0.054 0.007 0.111 0 0.166-0.045 0.397-0.104 0.808-0.166 1.201-0.137 0.846-0.327 1.659-0.538 2.484-3.762 14.677-19.05 26-38.05 26l-70.47-0.248v0.041l-34.823-0.166c-16.931 0-31.387-16.42-31.387-37.598v-158.34h-30.848" id="path66"/>
</svg>
