<?xml version="1.0" encoding="UTF-8" standalone="no"?>
<svg xmlns="http://www.w3.org/2000/svg" xmlns:sodipodi="http://sodipodi.sourceforge.net/DTD/sodipodi-0.dtd" xmlns:inkscape="http://www.inkscape.org/namespaces/inkscape" height="512" viewBox="0 0 512 512" width="512" version="1.1">
 <metadata id="metadata74"/>
 <path fill="#cbcbcb" fill-rule="evenodd" d="m471.95 253.05c0 120.9-98.01 218.9-218.9 218.9-120.9 0-218.9-98.01-218.9-218.9 0-120.9 98.01-218.9 218.9-218.9 120.9 0 218.9 98.01 218.9 218.9" id="path4"/>
 <g id="g6" color="#000000">
  <path d="m121.56 114.69-0.75 28.813c-15.02-4.672-34.27-10.11-48.688-13.719-23.967 35.11-38 77.56-38 123.28 0 40.34 10.963 78.11 30 110.56 0.012-0.001 0.019 0.001 0.031 0 0.012 0.045 0.02 0.08 0.031 0.125 0.177 0.301 0.353 0.606 0.531 0.906 0.123-0.011 0.239-0.019 0.406-0.031 0.098 0.382 0.187 0.757 0.25 1.063 0.271-0.024 0.443-0.04 0.75-0.063 0.094 0.368 0.188 0.734 0.25 1.031 0.271-0.024 0.444-0.04 0.75-0.063 0.096 0.373 0.187 0.762 0.25 1.063 0.263-0.023 0.422-0.04 0.719-0.063 0.096 0.374 0.187 0.761 0.25 1.063 0.273-0.024 0.441-0.039 0.75-0.063 0.096 0.374 0.187 0.761 0.25 1.063 0.282-0.025 0.461-0.039 0.781-0.063 0.098 0.383 0.187 0.757 0.25 1.063 0.264-0.023 0.422-0.04 0.719-0.063 0.098 0.382 0.187 0.757 0.25 1.063 0.271-0.024 0.443-0.04 0.75-0.063 0.094 0.368 0.188 0.734 0.25 1.031 0.271-0.024 0.444-0.04 0.75-0.063 0.096 0.373 0.187 0.762 0.25 1.063 0.271-0.024 0.444-0.04 0.75-0.063 0.096 0.373 0.187 0.762 0.25 1.063 0.263-0.023 0.422-0.04 0.719-0.063 0.096 0.374 0.187 0.761 0.25 1.063 0.273-0.024 0.441-0.039 0.75-0.063 0.099 0.386 0.218 0.755 0.281 1.063 0.264-0.023 0.422-0.04 0.719-0.063 0.099 0.384 0.218 0.756 0.281 1.063 0.264-0.023 0.421-0.04 0.719-0.063 0.098 0.383 0.187 0.756 0.25 1.063 0.271-0.024 0.443-0.04 0.75-0.063 0.094 0.368 0.188 0.734 0.25 1.031 0.271-0.024 0.444-0.04 0.75-0.063 0.096 0.373 0.187 0.762 0.25 1.063 0.263-0.023 0.422-0.04 0.719-0.063 0.096 0.374 0.187 0.761 0.25 1.063 0.273-0.024 0.441-0.039 0.75-0.063 0.096 0.374 0.187 0.761 0.25 1.063 0.282-0.025 0.461-0.039 0.781-0.063 0.098 0.383 0.187 0.757 0.25 1.063 0.264-0.023 0.422-0.04 0.719-0.063 0.098 0.382 0.187 0.757 0.25 1.063 0.271-0.024 0.443-0.04 0.75-0.063 0.094 0.368 0.188 0.734 0.25 1.031 0.271-0.024 0.444-0.04 0.75-0.063 0.096 0.373 0.187 0.762 0.25 1.063 0.263-0.023 0.422-0.04 0.719-0.063 0.096 0.374 0.187 0.761 0.25 1.063 0.273-0.024 0.441-0.039 0.75-0.063 0.096 0.374 0.187 0.761 0.25 1.063 0.282-0.025 0.461-0.039 0.781-0.063 0.098 0.383 0.187 0.757 0.25 1.063 0.264-0.023 0.422-0.04 0.719-0.063 0.098 0.382 0.187 0.757 0.25 1.063 0.271-0.024 0.443-0.04 0.75-0.063 0.094 0.368 0.188 0.734 0.25 1.031 0.271-0.024 0.444-0.04 0.75-0.063 0.096 0.373 0.187 0.762 0.25 1.063 0.271-0.024 0.444-0.04 0.75-0.063 0.096 0.373 0.187 0.762 0.25 1.063 0.263-0.023 0.422-0.04 0.719-0.063 0.096 0.374 0.187 0.761 0.25 1.063 0.282-0.025 0.461-0.039 0.781-0.063 0.098 0.383 0.187 0.757 0.25 1.063 0.264-0.023 0.422-0.04 0.719-0.063 0.098 0.382 0.187 0.757 0.25 1.063 0.271-0.024 0.443-0.04 0.75-0.063 0.094 0.368 0.188 0.734 0.25 1.031 0.271-0.024 0.444-0.04 0.75-0.063 0.098 0.38 0.186 0.757 0.25 1.063 0.271-0.024 0.444-0.04 0.75-0.063 0.096 0.373 0.187 0.762 0.25 1.063 0.263-0.023 0.422-0.04 0.719-0.063 0.096 0.374 0.187 0.761 0.25 1.063 0.273-0.024 0.441-0.039 0.75-0.063 0.096 0.374 0.187 0.761 0.25 1.063 0.274-0.024 0.44-0.039 0.75-0.063 0.099 0.384 0.218 0.756 0.281 1.063 0.264-0.023 0.421-0.04 0.719-0.063 0.098 0.382 0.187 0.757 0.25 1.063 0.271-0.024 0.443-0.04 0.75-0.063 0.094 0.368 0.188 0.734 0.25 1.031 0.271-0.024 0.444-0.04 0.75-0.063 0.096 0.373 0.187 0.762 0.25 1.063 0.263-0.023 0.422-0.04 0.719-0.063 0.096 0.374 0.187 0.761 0.25 1.063 0.273-0.024 0.441-0.039 0.75-0.063 0.096 0.374 0.187 0.761 0.25 1.063 0.282-0.025 0.462-0.039 0.781-0.063 0.098 0.383 0.187 0.757 0.25 1.063 0.264-0.023 0.422-0.04 0.719-0.063 0.098 0.382 0.187 0.757 0.25 1.063 0.271-0.024 0.443-0.04 0.75-0.063 0.094 0.368 0.188 0.734 0.25 1.031 0.271-0.024 0.444-0.04 0.75-0.063 0.096 0.373 0.187 0.762 0.25 1.063 0.263-0.023 0.422-0.04 0.719-0.063 0.096 0.374 0.187 0.761 0.25 1.063 0.273-0.024 0.441-0.039 0.75-0.063 0.096 0.374 0.187 0.761 0.25 1.063 0.282-0.025 0.462-0.039 0.781-0.063 0.098 0.383 0.187 0.757 0.25 1.063 0.264-0.023 0.422-0.04 0.719-0.063 0.098 0.382 0.187 0.757 0.25 1.063 0.271-0.024 0.443-0.04 0.75-0.063 0.094 0.368 0.188 0.734 0.25 1.031 0.271-0.024 0.444-0.04 0.75-0.063 0.096 0.373 0.187 0.762 0.25 1.063 0.271-0.024 0.444-0.04 0.75-0.063 0.096 0.373 0.187 0.762 0.25 1.063 0.263-0.023 0.422-0.04 0.719-0.063 0.096 0.374 0.187 0.761 0.25 1.063 0.282-0.025 0.462-0.039 0.781-0.063 0.098 0.383 0.187 0.757 0.25 1.063 0.264-0.023 0.422-0.04 0.719-0.063 0.098 0.382 0.187 0.757 0.25 1.063 0.271-0.024 0.443-0.04 0.75-0.063 0.098 0.383 0.187 0.756 0.25 1.063 0.271-0.024 0.443-0.04 0.75-0.063 0.094 0.368 0.188 0.734 0.25 1.031 0.271-0.024 0.444-0.04 0.75-0.063 0.096 0.373 0.187 0.762 0.25 1.063 0.263-0.023 0.422-0.04 0.719-0.063 0.096 0.374 0.187 0.761 0.25 1.063 0.273-0.024 0.441-0.039 0.75-0.063 0.096 0.374 0.187 0.761 0.25 1.063 0.282-0.025 0.462-0.039 0.781-0.063 0.098 0.383 0.187 0.757 0.25 1.063 0.264-0.023 0.422-0.04 0.719-0.063 0.098 0.382 0.187 0.757 0.25 1.063 0.271-0.024 0.443-0.04 0.75-0.063 0.094 0.368 0.188 0.734 0.25 1.031 0.271-0.024 0.444-0.04 0.75-0.063 0.096 0.373 0.187 0.762 0.25 1.063 0.263-0.023 0.422-0.04 0.719-0.063 0.096 0.374 0.187 0.761 0.25 1.063 0.273-0.024 0.441-0.039 0.75-0.063 0.096 0.374 0.187 0.761 0.25 1.063 0.282-0.025 0.462-0.039 0.781-0.063 0.098 0.383 0.187 0.757 0.25 1.063 0.264-0.023 0.422-0.04 0.719-0.063 0.098 0.382 0.187 0.757 0.25 1.063 0.271-0.024 0.443-0.04 0.75-0.063 0.094 0.368 0.188 0.734 0.25 1.031 0.271-0.024 0.444-0.04 0.75-0.063 0.096 0.373 0.187 0.762 0.25 1.063 0.271-0.024 0.444-0.04 0.75-0.063 0.096 0.373 0.187 0.762 0.25 1.063 0.263-0.023 0.422-0.04 0.719-0.063 0.096 0.374 0.187 0.761 0.25 1.063 0.282-0.025 0.462-0.039 0.781-0.063 0.098 0.383 0.187 0.757 0.25 1.063 0.264-0.023 0.422-0.04 0.719-0.063 0.098 0.382 0.187 0.757 0.25 1.063 0.271-0.024 0.443-0.04 0.75-0.063 0.077 0.3 0.128 0.583 0.188 0.844 0.1 0.059 0.213 0.097 0.313 0.156 0.154-0.013 0.296-0.016 0.5-0.031 0.037 0.142 0.06 0.265 0.094 0.406 32.591 19.26 70.59 30.344 111.19 30.344 96.99 0 179.23-63.1 207.97-150.47-0.207-0.205-0.415-0.393-0.625-0.594-0.125-0.132-0.249-0.276-0.375-0.406-0.207-0.205-0.415-0.393-0.625-0.594-0.128-0.135-0.246-0.273-0.375-0.406-0.207-0.205-0.415-0.393-0.625-0.594-0.118-0.124-0.225-0.252-0.344-0.375-0.213-0.21-0.44-0.419-0.656-0.625-0.118-0.124-0.225-0.252-0.344-0.375-0.213-0.21-0.44-0.419-0.656-0.625-0.118-0.124-0.225-0.252-0.344-0.375-0.203-0.2-0.42-0.397-0.625-0.594-0.125-0.132-0.249-0.276-0.375-0.406-0.207-0.205-0.415-0.393-0.625-0.594-0.125-0.132-0.249-0.276-0.375-0.406-0.207-0.205-0.415-0.393-0.625-0.594-0.128-0.135-0.246-0.273-0.375-0.406-0.207-0.205-0.415-0.393-0.625-0.594-0.118-0.124-0.225-0.252-0.344-0.375-0.213-0.21-0.44-0.419-0.656-0.625-0.118-0.124-0.225-0.252-0.344-0.375-0.213-0.21-0.44-0.419-0.656-0.625-0.118-0.125-0.225-0.252-0.344-0.375-0.177-0.174-0.353-0.36-0.531-0.531-0.031-0.032-0.062-0.062-0.094-0.094-0.121-0.128-0.253-0.248-0.375-0.375-0.207-0.205-0.415-0.393-0.625-0.594-0.125-0.132-0.249-0.276-0.375-0.406-0.207-0.205-0.415-0.393-0.625-0.594-0.128-0.135-0.246-0.273-0.375-0.406-0.207-0.205-0.415-0.393-0.625-0.594-0.118-0.124-0.225-0.252-0.344-0.375-0.213-0.21-0.44-0.419-0.656-0.625-0.118-0.124-0.225-0.252-0.344-0.375-0.213-0.21-0.44-0.419-0.656-0.625-0.118-0.125-0.225-0.252-0.344-0.375-0.177-0.174-0.353-0.36-0.531-0.531-0.031-0.032-0.062-0.062-0.094-0.094-0.121-0.128-0.253-0.248-0.375-0.375-0.207-0.205-0.415-0.393-0.625-0.594-0.125-0.132-0.249-0.276-0.375-0.406-0.207-0.205-0.415-0.393-0.625-0.594-0.127-0.134-0.247-0.274-0.375-0.406-0.053-0.052-0.103-0.104-0.156-0.156-0.478-0.492-0.977-0.967-1.469-1.438-0.118-0.124-0.225-0.252-0.344-0.375-0.213-0.21-0.44-0.419-0.656-0.625-0.118-0.124-0.225-0.252-0.344-0.375-0.213-0.21-0.44-0.419-0.656-0.625-0.118-0.124-0.225-0.252-0.344-0.375-0.203-0.2-0.42-0.397-0.625-0.594-0.125-0.132-0.249-0.276-0.375-0.406-0.207-0.205-0.415-0.393-0.625-0.594-0.125-0.132-0.249-0.276-0.375-0.406-0.207-0.205-0.415-0.393-0.625-0.594-0.128-0.135-0.246-0.273-0.375-0.406-0.207-0.205-0.415-0.393-0.625-0.594-0.118-0.124-0.225-0.252-0.344-0.375-0.213-0.21-0.44-0.419-0.656-0.625-0.118-0.124-0.225-0.252-0.344-0.375-0.213-0.21-0.44-0.419-0.656-0.625-0.118-0.124-0.225-0.252-0.344-0.375-0.203-0.2-0.42-0.397-0.625-0.594-0.125-0.132-0.249-0.276-0.375-0.406-0.207-0.205-0.415-0.393-0.625-0.594-0.125-0.132-0.249-0.276-0.375-0.406-0.207-0.205-0.415-0.393-0.625-0.594-0.128-0.135-0.246-0.273-0.375-0.406-0.207-0.205-0.415-0.393-0.625-0.594-0.118-0.124-0.225-0.252-0.344-0.375-0.213-0.21-0.44-0.419-0.656-0.625-0.118-0.124-0.225-0.252-0.344-0.375-0.213-0.21-0.44-0.419-0.656-0.625-0.118-0.125-0.225-0.252-0.344-0.375-0.177-0.174-0.353-0.36-0.531-0.531-0.031-0.032-0.062-0.062-0.094-0.094-0.121-0.128-0.253-0.248-0.375-0.375-0.207-0.205-0.415-0.393-0.625-0.594-0.125-0.132-0.249-0.276-0.375-0.406-0.207-0.205-0.415-0.393-0.625-0.594-0.128-0.135-0.246-0.273-0.375-0.406-0.207-0.205-0.415-0.393-0.625-0.594-0.118-0.124-0.225-0.252-0.344-0.375-0.213-0.21-0.44-0.419-0.656-0.625-0.118-0.124-0.225-0.252-0.344-0.375-0.213-0.21-0.44-0.419-0.656-0.625-0.118-0.125-0.225-0.252-0.344-0.375-0.177-0.174-0.353-0.36-0.531-0.531-0.031-0.032-0.062-0.062-0.094-0.094-0.121-0.128-0.253-0.248-0.375-0.375-0.207-0.205-0.415-0.393-0.625-0.594-0.125-0.132-0.249-0.276-0.375-0.406-0.207-0.205-0.415-0.393-0.625-0.594-0.125-0.132-0.249-0.276-0.375-0.406-0.207-0.205-0.415-0.393-0.625-0.594-0.128-0.135-0.246-0.273-0.375-0.406-0.207-0.205-0.415-0.393-0.625-0.594-0.118-0.124-0.225-0.252-0.344-0.375-0.213-0.21-0.44-0.419-0.656-0.625-0.118-0.124-0.225-0.252-0.344-0.375-0.213-0.21-0.44-0.419-0.656-0.625-0.118-0.124-0.225-0.252-0.344-0.375-0.203-0.2-0.42-0.397-0.625-0.594-0.125-0.132-0.249-0.276-0.375-0.406-0.207-0.205-0.415-0.393-0.625-0.594-0.125-0.132-0.249-0.276-0.375-0.406-0.207-0.205-0.415-0.393-0.625-0.594-0.128-0.135-0.246-0.273-0.375-0.406-0.207-0.205-0.415-0.393-0.625-0.594-0.118-0.124-0.225-0.252-0.344-0.375-0.213-0.21-0.44-0.419-0.656-0.625-0.118-0.124-0.225-0.252-0.344-0.375-0.213-0.21-0.44-0.419-0.656-0.625-0.118-0.125-0.225-0.252-0.344-0.375-0.177-0.174-0.353-0.36-0.531-0.531-0.031-0.032-0.062-0.062-0.094-0.094-0.121-0.128-0.253-0.248-0.375-0.375-0.207-0.205-0.415-0.393-0.625-0.594-0.125-0.132-0.249-0.276-0.375-0.406-0.207-0.205-0.415-0.393-0.625-0.594-0.128-0.135-0.246-0.273-0.375-0.406-0.207-0.205-0.415-0.393-0.625-0.594-0.118-0.124-0.225-0.252-0.344-0.375-0.213-0.21-0.44-0.419-0.656-0.625-0.118-0.124-0.225-0.252-0.344-0.375-0.213-0.21-0.44-0.419-0.656-0.625-0.118-0.125-0.225-0.252-0.344-0.375-0.177-0.174-0.353-0.36-0.531-0.531-0.031-0.032-0.062-0.062-0.094-0.094-0.121-0.128-0.253-0.248-0.375-0.375-0.207-0.205-0.415-0.393-0.625-0.594-0.125-0.132-0.249-0.276-0.375-0.406-0.207-0.205-0.415-0.393-0.625-0.594-0.127-0.134-0.247-0.274-0.375-0.406-0.053-0.052-0.103-0.104-0.156-0.156-0.478-0.492-0.977-0.967-1.469-1.438-0.118-0.124-0.225-0.252-0.344-0.375-0.213-0.21-0.44-0.419-0.656-0.625-0.118-0.124-0.225-0.252-0.344-0.375-0.213-0.21-0.44-0.419-0.656-0.625-0.118-0.124-0.225-0.252-0.344-0.375-0.203-0.2-0.42-0.397-0.625-0.594-0.125-0.132-0.249-0.276-0.375-0.406-0.207-0.205-0.415-0.393-0.625-0.594-0.125-0.132-0.249-0.276-0.375-0.406-0.207-0.205-0.415-0.393-0.625-0.594-0.128-0.135-0.246-0.273-0.375-0.406-0.207-0.205-0.415-0.393-0.625-0.594-0.118-0.124-0.225-0.252-0.344-0.375-0.213-0.21-0.44-0.419-0.656-0.625-0.118-0.124-0.225-0.252-0.344-0.375-0.213-0.21-0.44-0.419-0.656-0.625-0.118-0.124-0.225-0.252-0.344-0.375-0.203-0.2-0.42-0.397-0.625-0.594-0.125-0.132-0.249-0.276-0.375-0.406-0.207-0.205-0.415-0.393-0.625-0.594-0.125-0.132-0.249-0.276-0.375-0.406-0.207-0.205-0.415-0.393-0.625-0.594-0.128-0.135-0.246-0.273-0.375-0.406-0.207-0.205-0.415-0.393-0.625-0.594-0.118-0.124-0.225-0.252-0.344-0.375-0.213-0.21-0.44-0.419-0.656-0.625-0.118-0.124-0.225-0.252-0.344-0.375-0.213-0.21-0.44-0.419-0.656-0.625-0.118-0.125-0.225-0.252-0.344-0.375-0.177-0.174-0.353-0.36-0.531-0.531-0.031-0.032-0.062-0.062-0.094-0.094-0.121-0.128-0.253-0.248-0.375-0.375-0.207-0.205-0.415-0.393-0.625-0.594-0.125-0.132-0.249-0.276-0.375-0.406-0.207-0.205-0.415-0.393-0.625-0.594-0.128-0.135-0.246-0.273-0.375-0.406-0.207-0.205-0.415-0.393-0.625-0.594-0.118-0.124-0.225-0.252-0.344-0.375-0.213-0.21-0.44-0.419-0.656-0.625-0.118-0.124-0.225-0.252-0.344-0.375-0.213-0.21-0.44-0.419-0.656-0.625-0.118-0.125-0.225-0.252-0.344-0.375-0.177-0.174-0.353-0.36-0.531-0.531-0.031-0.032-0.062-0.062-0.094-0.094-0.121-0.128-0.253-0.248-0.375-0.375-0.207-0.205-0.415-0.393-0.625-0.594-0.125-0.132-0.249-0.276-0.375-0.406-0.207-0.205-0.415-0.393-0.625-0.594-0.125-0.132-0.249-0.276-0.375-0.406-0.207-0.205-0.415-0.393-0.625-0.594-0.128-0.135-0.246-0.273-0.375-0.406-0.207-0.205-0.415-0.393-0.625-0.594-0.118-0.124-0.225-0.252-0.344-0.375-0.213-0.21-0.44-0.419-0.656-0.625-0.118-0.124-0.225-0.252-0.344-0.375-0.213-0.21-0.44-0.419-0.656-0.625-0.118-0.124-0.225-0.252-0.344-0.375-0.203-0.2-0.42-0.397-0.625-0.594-0.125-0.132-0.249-0.276-0.375-0.406-0.207-0.205-0.415-0.393-0.625-0.594-0.125-0.132-0.249-0.276-0.375-0.406-0.207-0.205-0.415-0.393-0.625-0.594-0.128-0.135-0.246-0.273-0.375-0.406-0.207-0.205-0.415-0.393-0.625-0.594-0.118-0.124-0.225-0.252-0.344-0.375-0.213-0.21-0.44-0.419-0.656-0.625-0.118-0.124-0.225-0.252-0.344-0.375-0.213-0.21-0.44-0.419-0.656-0.625-0.118-0.124-0.225-0.252-0.344-0.375-0.203-0.2-0.42-0.397-0.625-0.594-0.125-0.132-0.249-0.276-0.375-0.406-0.207-0.205-0.415-0.393-0.625-0.594-0.125-0.132-0.249-0.276-0.375-0.406-0.207-0.205-0.415-0.393-0.625-0.594-0.128-0.135-0.246-0.273-0.375-0.406-0.207-0.205-0.415-0.393-0.625-0.594-0.118-0.124-0.225-0.252-0.344-0.375-0.213-0.21-0.44-0.419-0.656-0.625-0.118-0.124-0.225-0.252-0.344-0.375-0.213-0.21-0.44-0.419-0.656-0.625-0.118-0.125-0.225-0.252-0.344-0.375-0.177-0.174-0.353-0.36-0.531-0.531-0.031-0.032-0.062-0.062-0.094-0.094-0.121-0.128-0.253-0.248-0.375-0.375-0.207-0.205-0.415-0.393-0.625-0.594-0.125-0.132-0.249-0.276-0.375-0.406-0.207-0.205-0.415-0.393-0.625-0.594-0.127-0.134-0.247-0.274-0.375-0.406-0.053-0.052-0.103-0.104-0.156-0.156-0.478-0.492-0.977-0.967-1.469-1.438-0.118-0.124-0.225-0.252-0.344-0.375-0.213-0.21-0.44-0.419-0.656-0.625-0.118-0.124-0.225-0.252-0.344-0.375-0.213-0.21-0.44-0.419-0.656-0.625-0.118-0.124-0.225-0.252-0.344-0.375-0.203-0.2-0.42-0.397-0.625-0.594-0.125-0.132-0.249-0.276-0.375-0.406-0.207-0.205-0.415-0.393-0.625-0.594-0.125-0.132-0.249-0.276-0.375-0.406-0.207-0.205-0.415-0.393-0.625-0.594-0.128-0.135-0.246-0.273-0.375-0.406-0.207-0.205-0.415-0.393-0.625-0.594-0.118-0.124-0.225-0.252-0.344-0.375-0.213-0.21-0.44-0.419-0.656-0.625-0.118-0.124-0.225-0.252-0.344-0.375-0.213-0.21-0.44-0.419-0.656-0.625-0.118-0.124-0.225-0.252-0.344-0.375-0.203-0.2-0.42-0.397-0.625-0.594-0.125-0.132-0.249-0.276-0.375-0.406-0.207-0.205-0.415-0.393-0.625-0.594-0.125-0.132-0.249-0.276-0.375-0.406-0.207-0.205-0.415-0.393-0.625-0.594-0.128-0.135-0.246-0.273-0.375-0.406-0.207-0.205-0.415-0.393-0.625-0.594-0.118-0.124-0.225-0.252-0.344-0.375-0.213-0.21-0.44-0.419-0.656-0.625-0.118-0.124-0.225-0.252-0.344-0.375-0.213-0.21-0.44-0.419-0.656-0.625-0.118-0.125-0.225-0.252-0.344-0.375-0.177-0.174-0.353-0.36-0.531-0.531-0.031-0.032-0.062-0.062-0.094-0.094-0.121-0.128-0.253-0.248-0.375-0.375-0.207-0.205-0.415-0.393-0.625-0.594-0.125-0.132-0.249-0.276-0.375-0.406-0.207-0.205-0.415-0.393-0.625-0.594-0.128-0.135-0.246-0.273-0.375-0.406-0.207-0.205-0.415-0.393-0.625-0.594-0.118-0.124-0.225-0.252-0.344-0.375-0.213-0.21-0.44-0.419-0.656-0.625-0.118-0.124-0.225-0.252-0.344-0.375-0.213-0.21-0.44-0.419-0.656-0.625-0.118-0.125-0.225-0.252-0.344-0.375-0.177-0.174-0.353-0.36-0.531-0.531-0.031-0.032-0.062-0.062-0.094-0.094-0.121-0.128-0.253-0.248-0.375-0.375-0.207-0.205-0.415-0.393-0.625-0.594-0.125-0.132-0.249-0.276-0.375-0.406-0.207-0.205-0.415-0.393-0.625-0.594-0.127-0.134-0.247-0.274-0.375-0.406-0.053-0.052-0.103-0.104-0.156-0.156-0.478-0.492-0.977-0.967-1.469-1.438-0.118-0.124-0.225-0.252-0.344-0.375-0.213-0.21-0.44-0.419-0.656-0.625-0.118-0.124-0.225-0.252-0.344-0.375-0.213-0.21-0.44-0.419-0.656-0.625-0.118-0.124-0.225-0.252-0.344-0.375-0.203-0.2-0.42-0.397-0.625-0.594-0.125-0.132-0.249-0.276-0.375-0.406-0.207-0.205-0.415-0.393-0.625-0.594-0.125-0.132-0.249-0.276-0.375-0.406-0.207-0.205-0.415-0.393-0.625-0.594-0.128-0.135-0.246-0.273-0.375-0.406-0.207-0.205-0.415-0.393-0.625-0.594-0.118-0.124-0.225-0.252-0.344-0.375-0.213-0.21-0.44-0.419-0.656-0.625-0.118-0.124-0.225-0.252-0.344-0.375-0.213-0.21-0.44-0.419-0.656-0.625-0.118-0.124-0.225-0.252-0.344-0.375-0.203-0.2-0.42-0.397-0.625-0.594-0.125-0.132-0.249-0.276-0.375-0.406-0.207-0.205-0.415-0.393-0.625-0.594-0.125-0.132-0.249-0.276-0.375-0.406-0.207-0.205-0.415-0.393-0.625-0.594-0.128-0.135-0.246-0.273-0.375-0.406-0.207-0.205-0.415-0.393-0.625-0.594-0.118-0.124-0.225-0.252-0.344-0.375-0.213-0.21-0.44-0.419-0.656-0.625-0.118-0.124-0.225-0.252-0.344-0.375-0.213-0.21-0.44-0.419-0.656-0.625-0.118-0.125-0.225-0.252-0.344-0.375-0.177-0.174-0.353-0.36-0.531-0.531-0.031-0.032-0.062-0.062-0.094-0.094-5.792-6.123-12.547-10.554-21.344-14.75-24.04-11.467-50.696-19.21-99.41-30.31-23.288-4.945-46.18-9.928-69.813-12.875m18.438 325.63c-0.115 0.01-0.207 0.024-0.313 0.031 0.116 0.07 0.228 0.149 0.344 0.219-0.019-0.092-0.011-0.152-0.031-0.25m-0.969-1c-0.315 0.027-0.577 0.065-0.844 0.094 0.316 0.195 0.621 0.4 0.938 0.594-0.027-0.218-0.038-0.418-0.094-0.688m-0.844 0.094c-0.013-0.279-0.093-0.642-0.188-1.094-0.302 0.026-0.556 0.066-0.813 0.094-0.013-0.279-0.062-0.642-0.156-1.094-0.31 0.027-0.581 0.066-0.844 0.094-0.013-0.279-0.062-0.642-0.156-1.094-0.31 0.027-0.581 0.066-0.844 0.094-0.013-0.279-0.062-0.642-0.156-1.094-0.299 0.026-0.558 0.067-0.813 0.094-0.015-0.268-0.101-0.643-0.188-1.063-0.298 0.026-0.559 0.035-0.813 0.063-0.015-0.267-0.07-0.645-0.156-1.063-0.315 0.027-0.577 0.065-0.844 0.094-0.013-0.279-0.093-0.642-0.188-1.094-0.302 0.026-0.556 0.066-0.813 0.094-0.013-0.279-0.093-0.642-0.188-1.094-0.297 0.026-0.56 0.067-0.813 0.094-0.013-0.279-0.062-0.642-0.156-1.094-0.31 0.027-0.581 0.066-0.844 0.094-0.013-0.279-0.062-0.642-0.156-1.094-0.299 0.026-0.558 0.067-0.813 0.094-0.015-0.268-0.101-0.643-0.188-1.063-0.298 0.026-0.559 0.035-0.813 0.063-0.015-0.267-0.07-0.645-0.156-1.063-0.315 0.027-0.577 0.065-0.844 0.094-0.013-0.279-0.093-0.642-0.188-1.094-0.302 0.026-0.556 0.066-0.813 0.094-0.013-0.279-0.093-0.642-0.188-1.094-0.297 0.026-0.56 0.067-0.813 0.094-0.013-0.279-0.062-0.642-0.156-1.094-0.31 0.027-0.581 0.066-0.844 0.094-0.013-0.279-0.062-0.642-0.156-1.094-0.31 0.027-0.581 0.066-0.844 0.094-0.012-0.272-0.067-0.628-0.156-1.063-0.298 0.026-0.559 0.035-0.813 0.063-0.015-0.268-0.101-0.643-0.188-1.063-0.298 0.026-0.559 0.035-0.813 0.063-0.015-0.267-0.071-0.647-0.156-1.063-0.315 0.027-0.577 0.065-0.844 0.094-0.013-0.279-0.093-0.642-0.188-1.094-0.302 0.026-0.556 0.066-0.813 0.094-0.013-0.279-0.062-0.642-0.156-1.094-0.31 0.027-0.581 0.066-0.844 0.094-0.013-0.279-0.062-0.642-0.156-1.094-0.31 0.027-0.581 0.066-0.844 0.094-0.013-0.279-0.062-0.642-0.156-1.094-0.299 0.026-0.558 0.067-0.813 0.094-0.015-0.268-0.101-0.643-0.188-1.063-0.298 0.026-0.559 0.035-0.813 0.063-0.015-0.267-0.07-0.645-0.156-1.063-0.315 0.027-0.577 0.065-0.844 0.094-0.013-0.279-0.093-0.642-0.188-1.094-0.302 0.026-0.556 0.066-0.813 0.094-0.013-0.279-0.093-0.642-0.188-1.094-0.297 0.026-0.56 0.067-0.813 0.094-0.013-0.279-0.062-0.642-0.156-1.094-0.31 0.027-0.581 0.066-0.844 0.094-0.013-0.279-0.062-0.642-0.156-1.094-0.299 0.026-0.558 0.067-0.813 0.094-0.015-0.268-0.101-0.643-0.188-1.063-0.298 0.026-0.559 0.035-0.813 0.063-0.015-0.267-0.07-0.645-0.156-1.063-0.315 0.027-0.577 0.065-0.844 0.094-0.013-0.279-0.093-0.642-0.188-1.094-0.302 0.026-0.556 0.066-0.813 0.094-0.013-0.279-0.093-0.642-0.188-1.094-0.297 0.026-0.56 0.067-0.813 0.094-0.013-0.279-0.062-0.642-0.156-1.094-0.31 0.027-0.581 0.066-0.844 0.094-0.013-0.279-0.062-0.642-0.156-1.094-0.31 0.027-0.581 0.066-0.844 0.094-0.015-0.268-0.07-0.643-0.156-1.063-0.298 0.026-0.559 0.035-0.813 0.063-0.015-0.267-0.07-0.645-0.156-1.063-0.314 0.027-0.578 0.034-0.844 0.063-0.016-0.275-0.097-0.629-0.188-1.063-0.302 0.026-0.556 0.066-0.813 0.094-0.013-0.279-0.093-0.642-0.188-1.094-0.297 0.026-0.56 0.067-0.813 0.094-0.013-0.279-0.062-0.642-0.156-1.094-0.31 0.027-0.581 0.066-0.844 0.094-0.013-0.279-0.062-0.642-0.156-1.094-0.31 0.027-0.581 0.066-0.844 0.094-0.013-0.279-0.062-0.642-0.156-1.094-0.299 0.026-0.558 0.067-0.813 0.094-0.015-0.268-0.101-0.643-0.188-1.063-0.298 0.026-0.559 0.035-0.813 0.063-0.015-0.267-0.07-0.645-0.156-1.063-0.315 0.027-0.577 0.065-0.844 0.094-0.013-0.279-0.093-0.642-0.188-1.094-0.302 0.026-0.556 0.066-0.813 0.094-0.013-0.279-0.062-0.642-0.156-1.094-0.31 0.027-0.581 0.066-0.844 0.094-0.013-0.279-0.062-0.642-0.156-1.094-0.31 0.027-0.581 0.066-0.844 0.094-0.013-0.279-0.062-0.642-0.156-1.094-0.299 0.026-0.558 0.067-0.813 0.094-0.015-0.268-0.101-0.643-0.188-1.063-0.298 0.026-0.559 0.035-0.813 0.063-0.015-0.267-0.07-0.645-0.156-1.063-0.315 0.027-0.577 0.065-0.844 0.094-0.013-0.279-0.093-0.642-0.188-1.094-0.302 0.026-0.556 0.066-0.813 0.094-0.013-0.279-0.093-0.642-0.188-1.094-0.297 0.026-0.56 0.067-0.813 0.094-0.013-0.279-0.062-0.642-0.156-1.094-0.31 0.027-0.581 0.066-0.844 0.094-0.013-0.279-0.062-0.642-0.156-1.094-0.299 0.026-0.558 0.067-0.813 0.094-0.015-0.268-0.101-0.643-0.188-1.063-0.298 0.026-0.559 0.035-0.813 0.063-0.015-0.267-0.07-0.645-0.156-1.063-0.315 0.027-0.577 0.065-0.844 0.094-0.013-0.279-0.093-0.642-0.188-1.094-0.302 0.026-0.556 0.066-0.813 0.094-0.013-0.279-0.093-0.642-0.188-1.094-0.297 0.026-0.56 0.067-0.813 0.094-0.013-0.279-0.062-0.642-0.156-1.094-0.31 0.027-0.581 0.066-0.844 0.094-0.013-0.279-0.062-0.642-0.156-1.094-0.31 0.027-0.581 0.066-0.844 0.094-0.012-0.272-0.067-0.628-0.156-1.063-0.298 0.026-0.559 0.035-0.813 0.063-0.015-0.267-0.07-0.645-0.156-1.063-0.314 0.027-0.578 0.034-0.844 0.063-0.015-0.267-0.071-0.647-0.156-1.063-0.315 0.027-0.577 0.065-0.844 0.094-0.013-0.279-0.093-0.642-0.188-1.094-0.297 0.026-0.56 0.067-0.813 0.094-0.013-0.279-0.062-0.642-0.156-1.094-0.31 0.027-0.581 0.066-0.844 0.094-0.013-0.279-0.062-0.642-0.156-1.094-0.31 0.027-0.581 0.066-0.844 0.094-0.013-0.279-0.062-0.642-0.156-1.094-0.299 0.026-0.558 0.067-0.813 0.094-0.015-0.268-0.101-0.643-0.188-1.063-0.298 0.026-0.559 0.035-0.813 0.063-0.015-0.267-0.07-0.645-0.156-1.063-0.315 0.027-0.577 0.065-0.844 0.094-0.013-0.279-0.093-0.642-0.188-1.094-0.302 0.026-0.556 0.066-0.813 0.094-0.013-0.279-0.093-0.642-0.188-1.094-0.297 0.026-0.56 0.067-0.813 0.094-0.013-0.279-0.062-0.642-0.156-1.094-0.287 0.025-0.537 0.066-0.781 0.094 0.638 1.034 1.252 2.071 1.906 3.094 0.203 0.214 0.395 0.391 0.531 0.469 0.422 0.493 0.765 0.866 1 1 0.382 0.446 0.711 0.791 0.938 0.938 0.407 0.48 0.763 0.847 1 1 0.407 0.48 0.763 0.847 1 1 0.407 0.48 0.763 0.847 1 1 0.439 0.518 0.79 0.893 1.031 1.031 0.422 0.493 0.765 0.866 1 1 0.382 0.446 0.711 0.791 0.938 0.938 0.407 0.48 0.763 0.847 1 1 0.407 0.48 0.763 0.847 1 1 0.407 0.48 0.763 0.847 1 1 0.439 0.518 0.79 0.893 1.031 1.031 0.422 0.493 0.765 0.866 1 1 0.382 0.447 0.71 0.786 0.938 0.938 0.407 0.48 0.763 0.847 1 1 0.407 0.48 0.763 0.847 1 1 0.407 0.48 0.763 0.847 1 1 0.439 0.518 0.79 0.893 1.031 1.031 0.422 0.493 0.765 0.866 1 1 0.396 0.463 0.738 0.791 0.969 0.938 0.403 0.475 0.734 0.848 0.969 1 0.407 0.48 0.763 0.847 1 1 0.407 0.48 0.763 0.847 1 1 0.428 0.504 0.791 0.887 1.031 1.031 0.422 0.493 0.765 0.866 1 1 0.422 0.493 0.765 0.866 1 1 0.382 0.446 0.711 0.791 0.938 0.938 0.407 0.48 0.763 0.847 1 1 0.407 0.48 0.763 0.847 1 1 0.407 0.48 0.763 0.847 1 1 0.439 0.518 0.79 0.893 1.031 1.031 0.422 0.493 0.765 0.866 1 1 0.374 0.436 0.713 0.788 0.938 0.938 0.407 0.48 0.763 0.847 1 1 0.407 0.48 0.763 0.847 1 1 0.407 0.48 0.763 0.847 1 1 0.439 0.518 0.79 0.893 1.031 1.031 0.422 0.493 0.765 0.866 1 1 0.396 0.463 0.738 0.791 0.969 0.938 0.403 0.475 0.734 0.848 0.969 1 0.407 0.48 0.763 0.847 1 1 0.407 0.48 0.763 0.847 1 1 0.439 0.518 0.79 0.893 1.031 1.031 0.422 0.493 0.765 0.866 1 1 0.422 0.493 0.765 0.866 1 1 0.382 0.446 0.711 0.791 0.938 0.938 0.407 0.48 0.763 0.847 1 1 0.407 0.48 0.763 0.847 1 1 0.428 0.504 0.791 0.887 1.031 1.031 0.422 0.493 0.765 0.866 1 1 0.422 0.493 0.765 0.866 1 1 0.382 0.446 0.711 0.791 0.938 0.938 0.407 0.48 0.763 0.847 1 1 0.407 0.48 0.763 0.847 1 1 0.407 0.48 0.763 0.847 1 1 0.439 0.518 0.79 0.893 1.031 1.031 0.422 0.493 0.765 0.866 1 1 0.382 0.447 0.71 0.786 0.938 0.938 0.407 0.48 0.763 0.847 1 1 0.407 0.48 0.763 0.847 1 1 0.407 0.48 0.763 0.847 1 1 0.439 0.518 0.79 0.893 1.031 1.031 0.422 0.493 0.765 0.866 1 1 0.396 0.463 0.738 0.791 0.969 0.938 0.403 0.475 0.734 0.848 0.969 1 0.407 0.48 0.763 0.847 1 1 0.204 0.24 0.393 0.454 0.563 0.625 0.983 0.629 1.975 1.23 2.969 1.844m-71.95-72.83c-0.161 0.014-0.294 0.044-0.438 0.063 0.193 0.317 0.399 0.622 0.594 0.938-0.017-0.269-0.07-0.586-0.156-1m-1-0.969c-0.011 0.001-0.02-0.001-0.031 0 0.024 0.04 0.039 0.085 0.063 0.125-0.01-0.049-0.021-0.075-0.031-0.125" fill-opacity="0.235" id="path8"/>
  <path d="m121.55 114.67-0.754 28.827c-15.33-4.767-35.06-10.34-49.572-13.947-19.2 27.503-38.972 62.837-38.972 98.92-13.82 50.18 29.839 138.86 18.448 124.44 9.781-1.375 74.946-1.534 95.15 0.754 29.556 3.345 45.764 4.489 65.25 3.02 44.38-3.356 73.7-10.632 106.23-26.535 17-8.312 20.597-12.04 24.274-21.982 3.506-9.476 4.803-18.243 3.02-18.243-0.633 0-6.174 2.154-12.846 5.307-25.03 11.829-46.956 17.725-66.04 16.705-19.835-1.061-51.726-12.58-90.28-31.12l-18.243-8.322-13.66-34.16 12.906 8.322c22.01 14.618 57.998 31.886 79.7 38.748 33.15 10.483 59.03 9.01 85.73-4.583 9.408-4.793 27.319-16.508 27.319-18.18 0-3.157-9.159-33.899-14.414-47.824-13.14-34.821-22.372-46.602-44.02-56.93-24.04-11.467-50.677-19.233-99.39-30.335-23.288-4.945-46.2-9.929-69.836-12.876m134.31 66.761c15.915-0.339 31.08 10.1 35.672 28.04 2.311 9.04 1.601 15.498-3.02 25.09-6.749 14.02-21.679 21.594-37.934 18.937-11.463-1.874-21.378-9.253-26.566-20.474-6.318-13.668-3.38-31.824 7.569-41.733 7.171-6.49 15.938-9.686 24.274-9.86m8.383 18.967c-12.7 0-20.68 9.314-13.66 15.921 5.694 5.359 15.201 6.158 22.766 2.292 4.899-2.504 6.542-6.35 5.277-11.398-0.931-3.715-8.204-6.815-14.383-6.815" fill="#ffffff" id="path10"/>
 </g>
 <g fill-rule="evenodd" id="g12">
  <path d="m256 1c-140.83 0-255 114.17-255 255s114.17 255 255 255 255-114.17 255-255-114.17-255-255-255m8.827 44.931c120.9 0 218.9 98 218.9 218.9s-98 218.9-218.9 218.9-218.93-98-218.93-218.9 98.03-218.9 218.93-218.9" fill-opacity="0.067" id="path14"/>
  <g fill-opacity="0.129" id="g16">
   <path d="m256 4.433c-138.94 0-251.57 112.63-251.57 251.57s112.63 251.57 251.57 251.57 251.57-112.63 251.57-251.57-112.63-251.57-251.57-251.57m5.885 38.556c120.9 0 218.9 98 218.9 218.9s-98 218.9-218.9 218.9-218.93-98-218.93-218.9 98.03-218.9 218.93-218.9" id="path18"/>
   <path d="m256 8.356c-136.77 0-247.64 110.87-247.64 247.64s110.87 247.64 247.64 247.64 247.64-110.87 247.64-247.64-110.87-247.64-247.64-247.64m2.942 31.691c120.9 0 218.9 98 218.9 218.9s-98 218.9-218.9 218.9-218.93-98-218.93-218.9 98.03-218.9 218.93-218.9" id="path20"/>
  </g>
  <path fill="#ffffff" stroke-width="4.904" stroke="#000000" stroke-opacity="0.31" d="m253.04 7.859c-135.42 0-245.19 109.78-245.19 245.19 0 135.42 109.78 245.19 245.19 245.19 135.42 0 245.19-109.78 245.19-245.19 0-135.42-109.78-245.19-245.19-245.19zm0 26.297c120.9 0 218.9 98 218.9 218.9s-98 218.9-218.9 218.9-218.93-98-218.93-218.9 98.03-218.9 218.93-218.9z" id="path22"/>
 </g>
 <text font-family="Gentium Book Basic" x="729.64" y="231.36" line-height="125%" font-size="129.23" id="text24" word-spacing="0" letter-spacing="0"><tspan x="729.64" y="231.36" id="tspan26"/>
 </text>
 <text font-family="Arial" x="378.91" y="579.25" transform="scale(4.0128 .2492)" font-size="46.954" id="text28" text-anchor="middle"/>
 <text font-family="Gentium Book Basic" x="1310.91" y="151.36" line-height="125%" font-size="129.23" id="text30" word-spacing="0" letter-spacing="0"><tspan x="1310.91" y="151.36" id="tspan32"/>
 </text>
 <text font-family="Arial" x="523.76" y="258.22" transform="scale(4.0128 .2492)" font-size="46.954" id="text34" text-anchor="middle"/>
 <text font-family="Gentium Book Basic" x="239.33" y="-29.901" line-height="125%" font-size="129.23" id="text36" word-spacing="0" letter-spacing="0"><tspan x="239.33" y="-29.901" id="tspan38"/>
 </text>
 <text font-family="Arial" x="256.72" y="-469.14" transform="scale(4.0128 .2492)" font-size="46.954" id="text40" text-anchor="middle"/>
 <text font-family="Gentium Book Basic" x="1337.38" y="-246.37" line-height="125%" font-size="129.23" id="text42" word-spacing="0" letter-spacing="0"><tspan x="1337.38" y="-246.37" id="tspan44"/>
 </text>
 <text font-family="Arial" x="530.36" y="-1337.81" transform="scale(4.0128 .2492)" font-size="46.954" id="text46" text-anchor="middle"/>
 <text font-family="Gentium Book Basic" x="1918.65" y="-326.38" line-height="125%" font-size="129.23" id="text48" word-spacing="0" letter-spacing="0"><tspan x="1918.65" y="-326.38" id="tspan50"/>
 </text>
 <text font-family="Arial" x="675.21" y="-1658.85" transform="scale(4.0128 .2492)" font-size="46.954" id="text52" text-anchor="middle"/>
 <text font-family="Gentium Book Basic" x="1529.53" y="-798.78" line-height="125%" font-size="129.23" id="text54" word-spacing="0" letter-spacing="0"><tspan x="1529.53" y="-798.78" id="tspan56"/>
 </text>
 <text font-family="Arial" x="578.24" y="-3554.51" transform="scale(4.0128 .2492)" font-size="46.954" id="text58" text-anchor="middle"/>
 <text font-family="Gentium Book Basic" x="2110.79" y="-878.78" line-height="125%" font-size="129.23" id="text60" word-spacing="0" letter-spacing="0"><tspan x="2110.79" y="-878.78" id="tspan62"/>
 </text>
 <text font-family="Arial" x="723.09" y="-3875.54" transform="scale(4.0128 .2492)" font-size="46.954" id="text64" text-anchor="middle"/>
 <text font-family="Gentium Book Basic" x="277.99" y="535.94" line-height="125%" font-size="208.33" id="text66" word-spacing="0" letter-spacing="0"><tspan x="277.99" y="535.94" id="tspan68"/>
 </text>
</svg>
