<?xml version="1.0" encoding="UTF-8" standalone="no"?>
<svg xmlns="http://www.w3.org/2000/svg" xmlns:sodipodi="http://sodipodi.sourceforge.net/DTD/sodipodi-0.dtd" xmlns:inkscape="http://www.inkscape.org/namespaces/inkscape" viewBox="0 0 512 512" version="1.1" width="512" height="512">
 <metadata id="metadata72"/>
 <g id="g4" fill-rule="evenodd">
  <path id="path6" fill="#acacac" d="m471.95 253.05c0 120.9-98.01 218.9-218.9 218.9-120.9 0-218.9-98.01-218.9-218.9 0-120.9 98.01-218.9 218.9-218.9 120.9 0 218.9 98.01 218.9 218.9"/>
  <path id="path8" fill-opacity="0.067" d="m256 1c-140.83 0-255 114.17-255 255s114.17 255 255 255 255-114.17 255-255-114.17-255-255-255m8.827 44.931c120.9 0 218.9 98 218.9 218.9s-98 218.9-218.9 218.9-218.93-98-218.93-218.9 98.03-218.9 218.93-218.9"/>
  <g id="g10" fill-opacity="0.129">
   <path id="path12" d="m256 4.433c-138.94 0-251.57 112.63-251.57 251.57s112.63 251.57 251.57 251.57 251.57-112.63 251.57-251.57-112.63-251.57-251.57-251.57m5.885 38.556c120.9 0 218.9 98 218.9 218.9s-98 218.9-218.9 218.9-218.93-98-218.93-218.9 98.03-218.9 218.93-218.9"/>
   <path id="path14" d="m256 8.356c-136.77 0-247.64 110.87-247.64 247.64s110.87 247.64 247.64 247.64 247.64-110.87 247.64-247.64-110.87-247.64-247.64-247.64m2.942 31.691c120.9 0 218.9 98 218.9 218.9s-98 218.9-218.9 218.9-218.93-98-218.93-218.9 98.03-218.9 218.93-218.9"/>
  </g>
  <path id="path16" fill="#ffffff" stroke-opacity="0.31" d="m253.04 7.859c-135.42 0-245.19 109.78-245.19 245.19 0 135.42 109.78 245.19 245.19 245.19 135.42 0 245.19-109.78 245.19-245.19 0-135.42-109.78-245.19-245.19-245.19zm0 26.297c120.9 0 218.9 98 218.9 218.9s-98 218.9-218.9 218.9-218.93-98-218.93-218.9 98.03-218.9 218.93-218.9z" stroke-width="4.904" stroke="#000000"/>
 </g>
 <text id="text18" line-height="125%" font-family="Gentium Book Basic" x="729.64" y="231.36" font-size="129.23" word-spacing="0" letter-spacing="0"><tspan id="tspan20" x="729.64" y="231.36"/>
 </text>
 <text id="text22" font-family="Arial" x="378.91" y="579.25" font-size="46.954" transform="scale(4.0128.2492)" text-anchor="middle"/>
 <text id="text24" line-height="125%" font-family="Gentium Book Basic" x="1310.91" y="151.36" font-size="129.23" word-spacing="0" letter-spacing="0"><tspan id="tspan26" x="1310.91" y="151.36"/>
 </text>
 <text id="text28" font-family="Arial" x="523.76" y="258.22" font-size="46.954" transform="scale(4.0128.2492)" text-anchor="middle"/>
 <text id="text30" line-height="125%" font-family="Gentium Book Basic" x="239.33" y="-29.901" font-size="129.23" word-spacing="0" letter-spacing="0"><tspan id="tspan32" x="239.33" y="-29.901"/>
 </text>
 <text id="text34" font-family="Arial" x="256.72" y="-469.14" font-size="46.954" transform="scale(4.0128.2492)" text-anchor="middle"/>
 <text id="text36" line-height="125%" font-family="Gentium Book Basic" x="1337.38" y="-246.37" font-size="129.23" word-spacing="0" letter-spacing="0"><tspan id="tspan38" x="1337.38" y="-246.37"/>
 </text>
 <text id="text40" font-family="Arial" x="530.36" y="-1337.8" font-size="46.954" transform="scale(4.0128.2492)" text-anchor="middle"/>
 <text id="text42" line-height="125%" font-family="Gentium Book Basic" x="1918.65" y="-326.38" font-size="129.23" word-spacing="0" letter-spacing="0"><tspan id="tspan44" x="1918.65" y="-326.38"/>
 </text>
 <text id="text46" font-family="Arial" x="675.21" y="-1658.84" font-size="46.954" transform="scale(4.0128.2492)" text-anchor="middle"/>
 <text id="text48" line-height="125%" font-family="Gentium Book Basic" x="1529.53" y="-798.78" font-size="129.23" word-spacing="0" letter-spacing="0"><tspan id="tspan50" x="1529.53" y="-798.78"/>
 </text>
 <text id="text52" font-family="Arial" x="578.24" y="-3554.49" font-size="46.954" transform="scale(4.0128.2492)" text-anchor="middle"/>
 <text id="text54" line-height="125%" font-family="Gentium Book Basic" x="2110.79" y="-878.78" font-size="129.23" word-spacing="0" letter-spacing="0"><tspan id="tspan56" x="2110.79" y="-878.78"/>
 </text>
 <text id="text58" font-family="Arial" x="723.09" y="-3875.52" font-size="46.954" transform="scale(4.0128.2492)" text-anchor="middle"/>
 <text id="text60" line-height="125%" font-family="Gentium Book Basic" x="277.99" y="535.94" font-size="208.33" word-spacing="0" letter-spacing="0"><tspan id="tspan62" x="277.99" y="535.94"/>
 </text>
 <path id="path64" d="m160.81 112.03l-4.75 32.656 25.594 25.594-24.906 170.66-30.406 7.344-4.781 32.656 86.34 86.34c14.57 3.055 29.677 4.656 45.16 4.656 114 0 207.63-87.12 217.94-198.44l-111.62-111.62c-17.693-17.693-42.609-29.03-73.844-33.594l-36.37-5.313-88.34-10.938" opacity="0.25"/>
 <path id="path66" fill="#ffffff" d="m156.73 340.94l-30.4 7.333-4.766 32.653 118.7 17.327c77.73 11.346 135.19-34.02 147.81-120.45 12.617-86.43-25.948-138.36-102.53-149.54l-36.38-5.31-88.35-10.935-4.766 32.653 27.04 15.717-26.356 180.55m59.63 6.743l26.08-178.63 34.461 5.03c37.524 5.478 55.985 31.713 46.564 96.25-10.09 69.15-38.18 87.41-75.32 81.989l-31.781-4.639"/>
</svg>
