<?xml version="1.0" encoding="UTF-8" standalone="no"?>
<svg xmlns="http://www.w3.org/2000/svg" xmlns:sodipodi="http://sodipodi.sourceforge.net/DTD/sodipodi-0.dtd" xmlns:inkscape="http://www.inkscape.org/namespaces/inkscape" height="512" viewBox="0 0 512 512" width="512" version="1.1">
 <metadata id="metadata72"/>
 <path fill="#858585" fill-rule="evenodd" d="m471.95 253.05c0 120.9-98.01 218.9-218.9 218.9-120.9 0-218.9-98.01-218.9-218.9 0-120.9 98.01-218.9 218.9-218.9 120.9 0 218.9 98.01 218.9 218.9" id="path4"/>
 <path d="m232.56 101.88c-61.24 0.363-118.44 45.84-132.12 105.63-14.06 52.853 8.06 111.02 50.34 144.69 28.921 25.654 58.49 50.61 86.969 76.66 14.314 13.608 28.407 27.403 42.25 41.44 103.14-12.661 184.08-97.02 191.41-201.72-41.72-41.689-83.17-83.69-125.34-124.91-22.2-19.568-48.844-36.729-79-39.438 7.471 1.101 9.264 1.811 0.688 0.594 7.638 1.15 8.945 1.775 0.469 0.594 7.614 1.121 9.236 1.794 0.625 0.594 7.614 1.121 9.205 1.825 0.594 0.625 7.614 1.121 9.205 1.794 0.594 0.594 7.697 1.156 9.289 1.837 0.594 0.594 7.697 1.156 9.32 1.869 0.625 0.625 7.697 1.156 9.289 1.837 0.594 0.594 7.07 1.028 8.664 1.662 0.594 0.594 7.07 1.028 8.695 1.694 0.625 0.625 7.07 1.028 8.664 1.662 0.594 0.594 7.07 1.028 8.664 1.662 0.594 0.594 7.07 1.028 8.695 1.694 0.625 0.625 7.07 1.028 8.664 1.662 0.594 0.594 7.488 1.089 9.08 1.749 0.594 0.594 7.488 1.089 9.111 1.78 0.625 0.625 7.488 1.089 9.08 1.749 0.594 0.594 7.488 1.089 9.08 1.749 0.594 0.594 7.488 1.089 9.111 1.749 0.625 0.594 7.405 1.055 8.995 1.735 0.594 0.625 7.405 1.055 8.995 1.704 0.594 0.594 7.698 1.119 9.287 1.792 0.594 0.594 7.698 1.119 9.318 1.823 0.625 0.625 7.657 1.082 9.244 1.747 0.594 0.594 7.662 1.09 9.24 1.752 0.594 0.563 7.471 1.101 9.264 1.811 0.688 0.594 7.638 1.15 8.976 1.806 0.5 0.625 7.614 1.121 9.205 1.794 0.594 0.594 7.614 1.121 9.205 1.794 0.594 0.594 7.614 1.121 9.236 1.825 0.625 0.625 7.614 1.121 9.205 1.794 0.594 0.594 7.697 1.156 9.289 1.837 0.594 0.594 7.697 1.156 9.32 1.869 0.625 0.625 7.07 1.028 8.664 1.662 0.594 0.594 7.07 1.028 8.664 1.662 0.594 0.594 7.07 1.028 8.695 1.662 0.625 0.594 7.07 1.028 8.664 1.694 0.594 0.625 7.07 1.028 8.664 1.662 0.594 0.594 7.07 1.028 8.664 1.662 0.594 0.594 7.488 1.089 9.111 1.78 0.625 0.625 7.488 1.089 9.08 1.749 0.594 0.594 7.488 1.089 9.08 1.749 0.594 0.594 7.488 1.089 9.111 1.78 0.625 0.625 7.488 1.089 9.08 1.749 0.594 0.594 7.488 1.089 9.08 1.749 0.594 0.594 7.405 1.055 9.03 1.735 0.625 0.625 7.698 1.119 9.287 1.792 0.594 0.594 7.698 1.119 9.287 1.792 0.594 0.594 7.657 1.082 9.275 1.778 0.625 0.625 7.662 1.09 9.24 1.752 0.594 0.563 7.471 1.101 9.264 1.811 0.688 0.594 7.638 1.15 8.945 1.775 0.469 0.594 7.613 1.121 9.236 1.826 0.625 0.625 7.613 1.121 9.205 1.794 0.594 0.594 7.613 1.121 9.205 1.794 0.594 0.594 7.613 1.121 9.236 1.794 0.625 0.594 7.697 1.156 9.289 1.869 0.594 0.625 7.697 1.156 9.289 1.837 0.594 0.594 7.07 1.028 8.664 1.662 0.594 0.594 7.07 1.028 8.695 1.694 0.625 0.625 7.07 1.028 8.664 1.662 0.594 0.594 7.07 1.028 8.664 1.662 0.594 0.594 7.07 1.028 8.695 1.694 0.625 0.625 7.07 1.028 8.664 1.662 0.594 0.594 7.488 1.089 9.08 1.749 0.594 0.594 7.488 1.089 9.111 1.78 0.625 0.625 7.488 1.089 9.08 1.749 0.594 0.594 7.488 1.089 9.08 1.749 0.594 0.594 7.488 1.089 9.111 1.749 0.625 0.594 7.488 1.089 9.08 1.78 0.594 0.625 7.405 1.055 8.995 1.704 0.594 0.594 7.698 1.119 9.287 1.792 0.594 0.594 7.698 1.119 9.318 1.823 0.625 0.625 7.657 1.082 9.244 1.747 0.594 0.594 7.662 1.09 9.24 1.752 0.594 0.563 7.471 1.101 9.264 1.811 0.688 0.594 7.638 1.15 8.976 1.806 0.5 0.625 7.613 1.121 9.205 1.794 0.594 0.594 7.613 1.121 9.205 1.794 0.594 0.594 7.613 1.121 9.236 1.825 0.625 0.625 7.613 1.121 9.205 1.794 0.594 0.594 7.697 1.156 9.289 1.837 0.594 0.594 7.697 1.156 9.32 1.869 0.625 0.625 7.07 1.028 8.664 1.662 0.594 0.594 7.07 1.028 8.664 1.662 0.594 0.594 7.07 1.028 8.695 1.694 0.625 0.625 7.07 1.028 8.664 1.662 0.594 0.594 7.07 1.028 8.664 1.662 0.594 0.594 16.06 2.494-7.46-0.583 6.938 1.688-13.444-1.59 8.316 1.714-5.125 0.125 3.46 0.562 4.64 0.804 4.75 0.875-0.537 0.066-6.892-0.682 0.938 0.781-14.659-2 9.778 1.742-3.875 0.156 13 2.051-7.571-0.741 4.375 1.5-5.65-0.773-2.567-0.061-0.563 0.406 0.411 1.694 4.899 9.964 2.344 13.719-17.397-18.444-33.993-37.678-51.34-56.12-12.4-11.412-29.02-18.13-45.875-18.438m95.53 61c0.681 0.161 0.998 0.264 0.125 0.125-0.054-0.056-0.077-0.077-0.125-0.125" fill-opacity="0.235" id="path6"/>
 <g fill-rule="evenodd" id="g8">
  <path d="m256 1c-140.83 0-255 114.17-255 255s114.17 255 255 255 255-114.17 255-255-114.17-255-255-255m8.827 44.931c120.9 0 218.9 98 218.9 218.9s-98 218.9-218.9 218.9-218.93-98-218.93-218.9 98.03-218.9 218.93-218.9" fill-opacity="0.067" id="path10"/>
  <g fill-opacity="0.129" id="g12">
   <path d="m256 4.433c-138.94 0-251.57 112.63-251.57 251.57s112.63 251.57 251.57 251.57 251.57-112.63 251.57-251.57-112.63-251.57-251.57-251.57m5.885 38.556c120.9 0 218.9 98 218.9 218.9s-98 218.9-218.9 218.9-218.93-98-218.93-218.9 98.03-218.9 218.93-218.9" id="path14"/>
   <path d="m256 8.356c-136.77 0-247.64 110.87-247.64 247.64s110.87 247.64 247.64 247.64 247.64-110.87 247.64-247.64-110.87-247.64-247.64-247.64m2.942 31.691c120.9 0 218.9 98 218.9 218.9s-98 218.9-218.9 218.9-218.93-98-218.93-218.9 98.03-218.9 218.93-218.9" id="path16"/>
  </g>
  <path fill="#ffffff" stroke-width="4.904" stroke="#000000" stroke-opacity="0.31" d="m253.04 7.859c-135.42 0-245.19 109.78-245.19 245.19 0 135.42 109.78 245.19 245.19 245.19 135.42 0 245.19-109.78 245.19-245.19 0-135.42-109.78-245.19-245.19-245.19zm0 26.297c120.9 0 218.9 98 218.9 218.9s-98 218.9-218.9 218.9-218.93-98-218.93-218.9 98.03-218.9 218.93-218.9z" id="path18"/>
 </g>
 <text font-family="Gentium Book Basic" x="729.64" y="231.36" line-height="125%" font-size="129.23" id="text20" word-spacing="0" letter-spacing="0"><tspan x="729.64" y="231.36" id="tspan22"/>
 </text>
 <text font-family="Arial" x="378.91" y="579.25" transform="scale(4.0128 .2492)" font-size="46.954" id="text24" text-anchor="middle"/>
 <text font-family="Gentium Book Basic" x="1310.91" y="151.36" line-height="125%" font-size="129.23" id="text26" word-spacing="0" letter-spacing="0"><tspan x="1310.91" y="151.36" id="tspan28"/>
 </text>
 <text font-family="Arial" x="523.76" y="258.22" transform="scale(4.0128 .2492)" font-size="46.954" id="text30" text-anchor="middle"/>
 <text font-family="Gentium Book Basic" x="239.33" y="-29.901" line-height="125%" font-size="129.23" id="text32" word-spacing="0" letter-spacing="0"><tspan x="239.33" y="-29.901" id="tspan34"/>
 </text>
 <text font-family="Arial" x="256.72" y="-469.14" transform="scale(4.0128 .2492)" font-size="46.954" id="text36" text-anchor="middle"/>
 <text font-family="Gentium Book Basic" x="1337.38" y="-246.37" line-height="125%" font-size="129.23" id="text38" word-spacing="0" letter-spacing="0"><tspan x="1337.38" y="-246.37" id="tspan40"/>
 </text>
 <text font-family="Arial" x="530.36" y="-1337.81" transform="scale(4.0128 .2492)" font-size="46.954" id="text42" text-anchor="middle"/>
 <text font-family="Gentium Book Basic" x="1918.65" y="-326.38" line-height="125%" font-size="129.23" id="text44" word-spacing="0" letter-spacing="0"><tspan x="1918.65" y="-326.38" id="tspan46"/>
 </text>
 <text font-family="Arial" x="675.21" y="-1658.85" transform="scale(4.0128 .2492)" font-size="46.954" id="text48" text-anchor="middle"/>
 <text font-family="Gentium Book Basic" x="1529.53" y="-798.78" line-height="125%" font-size="129.23" id="text50" word-spacing="0" letter-spacing="0"><tspan x="1529.53" y="-798.78" id="tspan52"/>
 </text>
 <text font-family="Arial" x="578.24" y="-3554.51" transform="scale(4.0128 .2492)" font-size="46.954" id="text54" text-anchor="middle"/>
 <text font-family="Gentium Book Basic" x="2110.79" y="-878.78" line-height="125%" font-size="129.23" id="text56" word-spacing="0" letter-spacing="0"><tspan x="2110.79" y="-878.78" id="tspan58"/>
 </text>
 <text font-family="Arial" x="723.09" y="-3875.54" transform="scale(4.0128 .2492)" font-size="46.954" id="text60" text-anchor="middle"/>
 <text font-family="Gentium Book Basic" x="277.99" y="535.94" line-height="125%" font-size="208.33" id="text62" word-spacing="0" letter-spacing="0"><tspan x="277.99" y="535.94" id="tspan64"/>
 </text>
 <path d="m232.59 101.88c-35.28 0.676-70.11 15.383-95.17 40.23-25.06 24.846-40.09 59.53-41.07 94.81-0.977 35.28 12.12 70.771 35.763 96.97 23.645 26.2 59.946 52.791 95.14 55.42-34.75-3.827-64.13-43.26-64.13-79.03 0-38.37 31.11-69.48 69.48-69.48 17.975-0.325 35.686-7.965 48.28-20.792 12.596-12.827 19.913-30.707 19.913-48.685 0-17.977-7.317-35.858-19.913-48.685s-30.31-20.43-48.28-20.755m34.445 2.343c34.75 3.827 64.17 43.26 64.17 79.03 0 38.37-31.11 69.48-69.48 69.48-17.975 0.325-35.722 7.965-48.32 20.792-12.596 12.827-19.913 30.707-19.913 48.685s7.317 35.858 19.913 48.685 30.344 20.43 48.32 20.755c35.28-0.676 70.08-15.383 95.14-40.23 25.06-24.846 40.09-59.53 41.07-94.81 0.977-35.28-12.08-70.771-35.727-96.97-23.645-26.2-59.982-52.791-95.17-55.42m-34.445 48.685c10.186 0 18.449 8.263 18.449 18.449s-8.263 18.412-18.449 18.412-18.449-8.226-18.449-18.412 8.263-18.449 18.449-18.449m29.14 150.85c10.186 0 18.449 8.226 18.449 18.412s-8.263 18.449-18.449 18.449-18.449-8.263-18.449-18.449 8.263-18.412 18.449-18.412" fill="#ffffff" id="path66"/>
</svg>
