<?xml version="1.0" encoding="UTF-8" standalone="no"?>
<svg
   xmlns:dc="http://purl.org/dc/elements/1.1/"
   xmlns:cc="http://creativecommons.org/ns#"
   xmlns:rdf="http://www.w3.org/1999/02/22-rdf-syntax-ns#"
   xmlns:svg="http://www.w3.org/2000/svg"
   xmlns="http://www.w3.org/2000/svg"
   xmlns:sodipodi="http://sodipodi.sourceforge.net/DTD/sodipodi-0.dtd"
   xmlns:inkscape="http://www.inkscape.org/namespaces/inkscape"
   height="512"
   viewBox="0 0 512 512"
   width="512"
   version="1.1"
   id="svg2"
   inkscape:version="0.91 r"
   sodipodi:docname="facebook.svg">
  <sodipodi:namedview
     pagecolor="#ffffff"
     bordercolor="#666666"
     borderopacity="1"
     objecttolerance="10"
     gridtolerance="10"
     guidetolerance="10"
     inkscape:pageopacity="0"
     inkscape:pageshadow="2"
     inkscape:window-width="445"
     inkscape:window-height="413"
     id="namedview14"
     showgrid="false"
     inkscape:zoom="0.4609375"
     inkscape:cx="256"
     inkscape:cy="256"
     inkscape:window-x="0"
     inkscape:window-y="0"
     inkscape:window-maximized="0"
     inkscape:current-layer="svg2" />
  <defs
     id="defs16" />
  <metadata
     id="metadata72">
    <rdf:RDF>
      <cc:Work
         rdf:about="">
        <dc:format>image/svg+xml</dc:format>
        <dc:type
           rdf:resource="http://purl.org/dc/dcmitype/StillImage" />
      </cc:Work>
    </rdf:RDF>
  </metadata>
  <path
     fill="#6a6a6a"
     fill-rule="evenodd"
     d="m471.95 253.05c0 120.9-98.01 218.9-218.9 218.9-120.9 0-218.9-98.01-218.9-218.9 0-120.9 98.01-218.9 218.9-218.9 120.9 0 218.9 98.01 218.9 218.9"
     id="path4" />
  <path
     d="m286.53 109.44c-51.55 0-69.69 25.927-69.69 69.56v29.563h-34.594v56.03h1v1h1v1h1v1h1v1h0.969v1h1v0.969h1v1h1v1h1v1h1v1h0.969v1h1v0.969h1v1h1v1h1v1h1v1h0.969v1h1v1h1v0.969h1v1h1v1h1v1h0.969v1h1v1h1v0.969h1v1h1v1h1v1h1v1h0.969v1h1v0.969h1v1h1v1h1v1h0.75v104.13h1v1h1v1h0.969v1h1v1h1v1h1v1h1v0.969h1v1h1v1h0.969v1h1v1h1v1h1v0.969h1v1h1v1h0.969v1h1v1h1v1h1v0.969h1v1h1v1h0.969v1h1v1h1v1h1v0.969h1v1h1v1h0.969v1h1v1h1v1h1v1h1v0.969h1v1h1v1h0.969v1h1v1h1v1h1v0.969h1v1h1v1h0.969v1h1v1h1v1h1v0.969h1v1h1v1h0.969v1h1v1h1v1h1v1h1v0.969h1v1h1v1h0.969v1h1v1h1v1h1v0.969h1v1h1v1h0.969v1h1v1h1v1h1v0.969h1v1h1v1h0.969v1h1v1h1v0.438c105.99-15.255 187.44-106.41 187.44-216.62v-0.344h-0.219v-1h-0.969v-1h-1v-1h-1v-1h-1v-1h-1v-0.969h-1v-1h-0.969v-1h-1v-1h-1v-1h-1v-1h-1v-0.969h-1v-1h-0.969v-1h-1v-1h-1v-1h-1v-1h-1v-1h-1v-0.969h-1v-1h-0.969v-1h-1v-1h-1v-1h-1v-1h-1v-0.969h-1v-1h-0.969v-1h-1v-1h-1v-1h-1v-1h-1v-0.969h-1v-1h-0.969v-1h-1v-1h-1v-1h-1v-1h-1v-0.969h-1v-1h-0.969v-1h-1v-1h-1v-1h-1v-1h-1v-1h-1v-0.969h-1v-1h-0.969v-1h-1v-1h-1v-1h-1v-1h-1v-0.969h-1v-1h-0.98v-1h-1v-1h-1v-1h-1v-1h-1v-0.969h-1v-1h-0.969v-1h-1v-1h-1v-1h-1v-1h-1v-1h-1v-0.969h-1v-1h-0.969v-1h-1v-1h-1v-1h-1v-1h-1v-0.969h-1v-1h-0.969v-1h-1v-1h-1v-1h-1v-1h-1v-0.969h-1v-1h-0.969v-1h-1v-1h-1v-1h-1v-1h-1v-0.969h-1v-1h-0.969v-1h-1v-1h-1v-1h-1v-1h-1v-1h-1v-0.969h-1v-1h-0.969v-1h-1v-1h-1v-1h-1v-1h-1v-0.969h-1v-1h-0.969v-1h-1v-1h-1v-1h-1v-1h-1v-0.969h-1v-1h-0.969v-1h-1v-1h-1v-1h-1v-1h-1v-1h-1v-0.969h-1v-1h-0.969v-1h-1v-1h-1v-1h-1v-1h-1v-0.969h-1v-1h-0.969v-1h-1v-1h-1v-1h-1v-1h-1v-0.969h-1v-1h-0.969v-1h-1v-1h-1v-1h-1v-1h-1v-0.969h-1v-1h-0.969v-1h-1v-1h-1v-1h-1v-1h-1v-1h-1v-0.969h-1v-1h-0.969v-1h-1v-1h-1v-1h-1v-1h-1v-0.969h-1v-1h-0.969v-1h-1v-1h-1v-1h-1v-1h-1v-0.969h-42.906"
     fill-opacity="0.235"
     id="path6" />
  <g
     fill-rule="evenodd"
     id="g8">
    <path
       d="m256 1c-140.83 0-255 114.17-255 255s114.17 255 255 255 255-114.17 255-255-114.17-255-255-255m8.827 44.931c120.9 0 218.9 98 218.9 218.9s-98 218.9-218.9 218.9-218.93-98-218.93-218.9 98.03-218.9 218.93-218.9"
       fill-opacity="0.067"
       id="path10" />
    <g
       fill-opacity="0.129"
       id="g12">
      <path
         d="m256 4.433c-138.94 0-251.57 112.63-251.57 251.57s112.63 251.57 251.57 251.57 251.57-112.63 251.57-251.57-112.63-251.57-251.57-251.57m5.885 38.556c120.9 0 218.9 98 218.9 218.9s-98 218.9-218.9 218.9-218.93-98-218.93-218.9 98.03-218.9 218.93-218.9"
         id="path14" />
      <path
         d="m256 8.356c-136.77 0-247.64 110.87-247.64 247.64s110.87 247.64 247.64 247.64 247.64-110.87 247.64-247.64-110.87-247.64-247.64-247.64m2.942 31.691c120.9 0 218.9 98 218.9 218.9s-98 218.9-218.9 218.9-218.93-98-218.93-218.9 98.03-218.9 218.93-218.9"
         id="path16" />
    </g>
    <path
       fill="#ffffff"
       stroke-width="4.904"
       stroke="#000000"
       stroke-opacity="0.31"
       d="m253.04 7.859c-135.42 0-245.19 109.78-245.19 245.19 0 135.42 109.78 245.19 245.19 245.19 135.42 0 245.19-109.78 245.19-245.19 0-135.42-109.78-245.19-245.19-245.19zm0 26.297c120.9 0 218.9 98 218.9 218.9s-98 218.9-218.9 218.9-218.93-98-218.93-218.9 98.03-218.9 218.93-218.9z"
       id="path18" />
  </g>
  <path
     d="m281.15 402.58h-64.31v-137.97h-34.588v-56.03h34.588v-29.573c0-43.635 18.14-69.58 69.68-69.58h42.917v53.5h-26.825c-20.07 0-21.39 7.474-21.39 21.428l-0.079 24.23h48.596l-5.686 56.03h-42.91z"
     fill="#ffffff"
     id="path66" />
</svg>
