<?xml version="1.0" encoding="UTF-8" standalone="no"?>
<svg xmlns="http://www.w3.org/2000/svg" xmlns:sodipodi="http://sodipodi.sourceforge.net/DTD/sodipodi-0.dtd" xmlns:inkscape="http://www.inkscape.org/namespaces/inkscape" viewBox="0 0 512 512" version="1.1" width="512" height="512">
 <metadata id="metadata474"/>
 <text id="text4" line-height="125%" font-family="&apos;Gentium Book Basic&apos;" x="729.64" y="231.36" font-size="129.23" word-spacing="0" letter-spacing="0"><tspan id="tspan6" x="729.64" y="231.36"/>
 </text>
 <text id="text8" font-family="Arial" x="378.91" y="579.26" font-size="46.954" transform="scale(4.0128.2492)" text-anchor="middle"/>
 <text id="text10" line-height="125%" font-family="&apos;Gentium Book Basic&apos;" x="1310.91" y="151.36" font-size="129.23" word-spacing="0" letter-spacing="0"><tspan id="tspan12" x="1310.91" y="151.36"/>
 </text>
 <text id="text14" font-family="Arial" x="523.76" y="258.22" font-size="46.954" transform="scale(4.0128.2492)" text-anchor="middle"/>
 <text id="text16" line-height="125%" font-family="&apos;Gentium Book Basic&apos;" x="239.33" y="-29.9" font-size="129.23" word-spacing="0" letter-spacing="0"><tspan id="tspan18" x="239.33" y="-29.9"/>
 </text>
 <text id="text20" font-family="Arial" x="256.72" y="-469.13" font-size="46.954" transform="scale(4.0128.2492)" text-anchor="middle"/>
 <text id="text22" line-height="125%" font-family="&apos;Gentium Book Basic&apos;" x="1337.38" y="-246.37" font-size="129.23" word-spacing="0" letter-spacing="0"><tspan id="tspan24" x="1337.38" y="-246.37"/>
 </text>
 <text id="text26" font-family="Arial" x="530.36" y="-1337.8" font-size="46.954" transform="scale(4.0128.2492)" text-anchor="middle"/>
 <text id="text28" line-height="125%" font-family="&apos;Gentium Book Basic&apos;" x="1918.65" y="-326.37" font-size="129.23" word-spacing="0" letter-spacing="0"><tspan id="tspan30" x="1918.65" y="-326.37"/>
 </text>
 <text id="text32" font-family="Arial" x="675.21" y="-1658.83" font-size="46.954" transform="scale(4.0128.2492)" text-anchor="middle"/>
 <text id="text34" line-height="125%" font-family="&apos;Gentium Book Basic&apos;" x="1529.53" y="-798.77" font-size="129.23" word-spacing="0" letter-spacing="0"><tspan id="tspan36" x="1529.53" y="-798.77"/>
 </text>
 <text id="text38" font-family="Arial" x="578.24" y="-3554.48" font-size="46.954" transform="scale(4.0128.2492)" text-anchor="middle"/>
 <text id="text40" line-height="125%" font-family="&apos;Gentium Book Basic&apos;" x="2110.79" y="-878.78" font-size="129.23" word-spacing="0" letter-spacing="0"><tspan id="tspan42" x="2110.79" y="-878.78"/>
 </text>
 <text id="text44" font-family="Arial" x="723.09" y="-3875.52" font-size="46.954" transform="scale(4.0128.2492)" text-anchor="middle"/>
 <g id="g46" line-height="125%" font-family="&apos;Gentium Book Basic&apos;" word-spacing="0" letter-spacing="0">
  <text id="text48" font-size="208.33" x="277.99" y="535.94"><tspan id="tspan50" x="277.99" y="535.94"/>
  </text>
  <text id="text52" font-size="129.23" x="729.64" y="231.36"><tspan id="tspan54" x="729.64" y="231.36"/>
  </text>
 </g>
 <text id="text56" font-family="Arial" x="378.91" y="579.26" font-size="46.954" transform="scale(4.0128.2492)" text-anchor="middle"/>
 <text id="text58" line-height="125%" font-family="&apos;Gentium Book Basic&apos;" x="1310.91" y="151.36" font-size="129.23" word-spacing="0" letter-spacing="0"><tspan id="tspan60" x="1310.91" y="151.36"/>
 </text>
 <text id="text62" font-family="Arial" x="523.76" y="258.22" font-size="46.954" transform="scale(4.0128.2492)" text-anchor="middle"/>
 <text id="text64" line-height="125%" font-family="&apos;Gentium Book Basic&apos;" x="239.33" y="-29.9" font-size="129.23" word-spacing="0" letter-spacing="0"><tspan id="tspan66" x="239.33" y="-29.9"/>
 </text>
 <text id="text68" font-family="Arial" x="256.72" y="-469.13" font-size="46.954" transform="scale(4.0128.2492)" text-anchor="middle"/>
 <text id="text70" line-height="125%" font-family="&apos;Gentium Book Basic&apos;" x="1337.38" y="-246.37" font-size="129.23" word-spacing="0" letter-spacing="0"><tspan id="tspan72" x="1337.38" y="-246.37"/>
 </text>
 <text id="text74" font-family="Arial" x="530.36" y="-1337.8" font-size="46.954" transform="scale(4.0128.2492)" text-anchor="middle"/>
 <text id="text76" line-height="125%" font-family="&apos;Gentium Book Basic&apos;" x="1918.65" y="-326.37" font-size="129.23" word-spacing="0" letter-spacing="0"><tspan id="tspan78" x="1918.65" y="-326.37"/>
 </text>
 <text id="text80" font-family="Arial" x="675.21" y="-1658.83" font-size="46.954" transform="scale(4.0128.2492)" text-anchor="middle"/>
 <text id="text82" line-height="125%" font-family="&apos;Gentium Book Basic&apos;" x="1529.53" y="-798.77" font-size="129.23" word-spacing="0" letter-spacing="0"><tspan id="tspan84" x="1529.53" y="-798.77"/>
 </text>
 <text id="text86" font-family="Arial" x="578.24" y="-3554.48" font-size="46.954" transform="scale(4.0128.2492)" text-anchor="middle"/>
 <text id="text88" line-height="125%" font-family="&apos;Gentium Book Basic&apos;" x="2110.79" y="-878.78" font-size="129.23" word-spacing="0" letter-spacing="0"><tspan id="tspan90" x="2110.79" y="-878.78"/>
 </text>
 <text id="text92" font-family="Arial" x="723.09" y="-3875.52" font-size="46.954" transform="scale(4.0128.2492)" text-anchor="middle"/>
 <g id="g94" line-height="125%" font-family="&apos;Gentium Book Basic&apos;" word-spacing="0" letter-spacing="0">
  <text id="text96" font-size="208.33" x="277.99" y="535.94"><tspan id="tspan98" x="277.99" y="535.94"/>
  </text>
  <text id="text100" font-size="129.23" x="1722.37" y="272.59"><tspan id="tspan102" x="1722.37" y="272.59"/>
  </text>
 </g>
 <text id="text104" font-family="Arial" x="626.3" y="744.7" font-size="46.954" transform="scale(4.0128.2492)" text-anchor="middle"/>
 <text id="text106" line-height="125%" font-family="&apos;Gentium Book Basic&apos;" x="2303.64" y="192.59" font-size="129.23" word-spacing="0" letter-spacing="0"><tspan id="tspan108" x="2303.64" y="192.59"/>
 </text>
 <text id="text110" font-family="Arial" x="771.15" y="423.67" font-size="46.954" transform="scale(4.0128.2492)" text-anchor="middle"/>
 <text id="text112" line-height="125%" font-family="&apos;Gentium Book Basic&apos;" x="1232.06" y="11.33" font-size="129.23" word-spacing="0" letter-spacing="0"><tspan id="tspan114" x="1232.06" y="11.33"/>
 </text>
 <text id="text116" font-family="Arial" x="504.11" y="-303.68" font-size="46.954" transform="scale(4.0128.2492)" text-anchor="middle"/>
 <text id="text118" line-height="125%" font-family="&apos;Gentium Book Basic&apos;" x="2330.11" y="-205.14" font-size="129.23" word-spacing="0" letter-spacing="0"><tspan id="tspan120" x="2330.11" y="-205.14"/>
 </text>
 <text id="text122" font-family="Arial" x="777.75" y="-1172.35" font-size="46.954" transform="scale(4.0128.2492)" text-anchor="middle"/>
 <text id="text124" line-height="125%" font-family="&apos;Gentium Book Basic&apos;" x="2911.38" y="-285.15" font-size="129.23" word-spacing="0" letter-spacing="0"><tspan id="tspan126" x="2911.38" y="-285.15"/>
 </text>
 <text id="text128" font-family="Arial" x="922.6" y="-1493.39" font-size="46.954" transform="scale(4.0128.2492)" text-anchor="middle"/>
 <text id="text130" line-height="125%" font-family="&apos;Gentium Book Basic&apos;" x="2522.26" y="-757.55" font-size="129.23" word-spacing="0" letter-spacing="0"><tspan id="tspan132" x="2522.26" y="-757.55"/>
 </text>
 <text id="text134" font-family="Arial" x="825.63" y="-3389.04" font-size="46.954" transform="scale(4.0128.2492)" text-anchor="middle"/>
 <text id="text136" line-height="125%" font-family="&apos;Gentium Book Basic&apos;" x="3103.52" y="-837.55" font-size="129.23" word-spacing="0" letter-spacing="0"><tspan id="tspan138" x="3103.52" y="-837.55"/>
 </text>
 <text id="text140" font-family="Arial" x="970.48" y="-3710.07" font-size="46.954" transform="scale(4.0128.2492)" text-anchor="middle"/>
 <g id="g142" line-height="125%" font-family="&apos;Gentium Book Basic&apos;" word-spacing="0" letter-spacing="0">
  <text id="text144" font-size="208.33" x="1270.72" y="577.17"><tspan id="tspan146" x="1270.72" y="577.17"/>
  </text>
  <text id="text148" font-size="129.23" x="729.64" y="231.36"><tspan id="tspan150" x="729.64" y="231.36"/>
  </text>
 </g>
 <text id="text152" font-family="Arial" x="378.91" y="579.25" font-size="46.954" transform="scale(4.0128.2492)" text-anchor="middle"/>
 <text id="text154" line-height="125%" font-family="&apos;Gentium Book Basic&apos;" x="1310.91" y="151.36" font-size="129.23" word-spacing="0" letter-spacing="0"><tspan id="tspan156" x="1310.91" y="151.36"/>
 </text>
 <text id="text158" font-family="Arial" x="523.76" y="258.22" font-size="46.954" transform="scale(4.0128.2492)" text-anchor="middle"/>
 <text id="text160" line-height="125%" font-family="&apos;Gentium Book Basic&apos;" x="239.33" y="-29.901" font-size="129.23" word-spacing="0" letter-spacing="0"><tspan id="tspan162" x="239.33" y="-29.901"/>
 </text>
 <text id="text164" font-family="Arial" x="256.72" y="-469.14" font-size="46.954" transform="scale(4.0128.2492)" text-anchor="middle"/>
 <text id="text166" line-height="125%" font-family="&apos;Gentium Book Basic&apos;" x="1337.38" y="-246.37" font-size="129.23" word-spacing="0" letter-spacing="0"><tspan id="tspan168" x="1337.38" y="-246.37"/>
 </text>
 <text id="text170" font-family="Arial" x="530.36" y="-1337.8" font-size="46.954" transform="scale(4.0128.2492)" text-anchor="middle"/>
 <text id="text172" line-height="125%" font-family="&apos;Gentium Book Basic&apos;" x="1918.65" y="-326.38" font-size="129.23" word-spacing="0" letter-spacing="0"><tspan id="tspan174" x="1918.65" y="-326.38"/>
 </text>
 <text id="text176" font-family="Arial" x="675.21" y="-1658.84" font-size="46.954" transform="scale(4.0128.2492)" text-anchor="middle"/>
 <text id="text178" line-height="125%" font-family="&apos;Gentium Book Basic&apos;" x="1529.53" y="-798.78" font-size="129.23" word-spacing="0" letter-spacing="0"><tspan id="tspan180" x="1529.53" y="-798.78"/>
 </text>
 <text id="text182" font-family="Arial" x="578.24" y="-3554.49" font-size="46.954" transform="scale(4.0128.2492)" text-anchor="middle"/>
 <text id="text184" line-height="125%" font-family="&apos;Gentium Book Basic&apos;" x="2110.79" y="-878.78" font-size="129.23" word-spacing="0" letter-spacing="0"><tspan id="tspan186" x="2110.79" y="-878.78"/>
 </text>
 <text id="text188" font-family="Arial" x="723.09" y="-3875.52" font-size="46.954" transform="scale(4.0128.2492)" text-anchor="middle"/>
 <g id="g190" line-height="125%" font-family="&apos;Gentium Book Basic&apos;" word-spacing="0" letter-spacing="0">
  <text id="text192" font-size="208.33" x="277.99" y="535.94"><tspan id="tspan194" x="277.99" y="535.94"/>
  </text>
  <text id="text196" font-size="4848.4" x="-26569.5" y="1377.33"><tspan id="tspan198" x="-26569.5" y="1377.33"/>
  </text>
 </g>
 <text id="text200" font-family="Arial" x="773.15" y="-7573.02" font-size="1761.7" transform="scale(4.0128.2492)" text-anchor="middle"/>
 <text id="text202" line-height="125%" font-family="&apos;Gentium Book Basic&apos;" x="-26704.25" y="2289.39" font-size="4848.4" word-spacing="0" letter-spacing="0"><tspan id="tspan204" x="-26704.25" y="2289.39"/>
 </text>
 <text id="text206" font-family="Arial" x="739.61" y="-3913.17" font-size="1761.7" transform="scale(4.0128.2492)" text-anchor="middle"/>
 <g id="g208" fill="#565656">
  <text id="text210" line-height="125%" font-family="&apos;Gentium Book Basic&apos;" x="-12267.45" y="-4757.27" font-size="2976.1" transform="scale(1.05082.95163)" word-spacing="0" letter-spacing="0"><tspan id="tspan212" x="-12267.45" y="-4757.27"/>
  </text>
  <text id="text214" font-family="Arial" x="1481.85" y="-27131.37" font-size="1081.5" transform="scale(4.21677.23715)" text-anchor="middle"/>
  <text id="text216" line-height="125%" font-family="&apos;Gentium Book Basic&apos;" x="-2864.61" y="-5582.29" font-size="1593.2" transform="scale(1.05082.95163)" word-spacing="0" letter-spacing="0"><tspan id="tspan218" x="-2864.61" y="-5582.29"/>
  </text>
  <text id="text220" font-family="Arial" x="1715.95" y="-26705.24" font-size="578.89" transform="scale(4.21677.23715)" text-anchor="middle"/>
  <text id="text222" line-height="125%" font-family="&apos;Gentium Book Basic&apos;" x="-38904.05" y="-1736.32" font-size="4654.6" word-spacing="0" letter-spacing="0"><tspan id="tspan224" x="-38904.05" y="-1736.32"/>
  </text>
  <text id="text226" font-family="Arial" x="-2596.26" y="-19543.06" font-size="1691.2" transform="scale(4.0128.2492)" text-anchor="middle"/>
 </g>
 <text id="text228" line-height="125%" font-family="&apos;Gentium Book Basic&apos;" x="-24720.95" y="-13962.89" stroke="#545454" font-size="4848.4" stroke-width="23.273" word-spacing="0" letter-spacing="0"><tspan id="tspan230" x="-24720.95" y="-13962.89"/>
 </text>
 <text id="text232" font-family="Arial" x="1233.94" y="-69130.72" font-size="1761.7" transform="scale(4.0128.2492)" text-anchor="middle"/>
 <text id="text234" line-height="125%" font-family="&apos;Gentium Book Basic&apos;" x="-24855.93" y="-13050.83" stroke="#545454" font-size="4848.4" stroke-width="23.273" word-spacing="0" letter-spacing="0"><tspan id="tspan236" x="-24855.93" y="-13050.83"/>
 </text>
 <text id="text238" font-family="Arial" x="1200.27" y="-65470.63" font-size="1761.7" transform="scale(4.0128.2492)" text-anchor="middle"/>
 <g id="g240" fill="#565656">
  <g id="g242" stroke-width="23.273" stroke="#545454">
   <text id="text244" line-height="125%" font-family="&apos;Gentium Book Basic&apos;" x="-10508.27" y="-20877.06" font-size="2976.1" transform="scale(1.05082.95163)" word-spacing="0" letter-spacing="0"><tspan id="tspan246" x="-10508.27" y="-20877.06"/>
   </text>
   <text id="text248" font-family="Arial" x="1920.29" y="-91818.3" font-size="1081.5" transform="scale(4.21677.23715)" text-anchor="middle"/>
   <text id="text250" line-height="125%" font-family="&apos;Gentium Book Basic&apos;" x="-1105.66" y="-21702.08" font-size="1593.2" transform="scale(1.05082.95163)" word-spacing="0" letter-spacing="0"><tspan id="tspan252" x="-1105.66" y="-21702.08"/>
   </text>
   <text id="text254" font-family="Arial" x="2154.18" y="-91392.18" font-size="578.89" transform="scale(4.21677.23715)" text-anchor="middle"/>
   <text id="text256" line-height="125%" font-family="&apos;Gentium Book Basic&apos;" x="-37055.5" y="-17076.54" font-size="4654.6" word-spacing="0" letter-spacing="0"><tspan id="tspan258" x="-37055.5" y="-17076.54"/>
   </text>
  </g>
  <text id="text260" font-family="Arial" x="-2135.7" y="-81100.75" font-size="1691.2" transform="scale(4.0128.2492)" text-anchor="middle"/>
 </g>
 <text id="text262" line-height="125%" font-family="&apos;Gentium Book Basic&apos;" x="-7745.12" y="-20652.4" stroke="#545454" font-size="4654.6" stroke-width="23.273" word-spacing="0" letter-spacing="0"><tspan id="tspan264" x="-7745.12" y="-20652.4"/>
 </text>
 <text id="text266" font-family="Arial" x="5168.41" y="-95449.94" font-size="1691.2" transform="scale(4.0128.2492)" text-anchor="middle"/>
 <text id="text268" line-height="125%" font-family="&apos;Gentium Book Basic&apos;" x="13191.49" y="-23534.03" stroke="#545454" font-size="4654.6" stroke-width="23.273" word-spacing="0" letter-spacing="0"><tspan id="tspan270" x="13191.49" y="-23534.03"/>
 </text>
 <text id="text272" font-family="Arial" x="10385.9" y="-107013.17" font-size="1691.2" transform="scale(4.0128.2492)" text-anchor="middle"/>
 <g id="g274" fill="#565656">
  <text id="text276" line-height="125%" font-family="&apos;Gentium Book Basic&apos;" x="2674.54" y="-506.69" stroke="#565656" font-size="4654.6" stroke-width="23.273" word-spacing="0" letter-spacing="0"><tspan id="tspan278" x="2674.54" y="-506.69"/>
  </text>
  <text id="text280" font-family="Arial" x="7764.94" y="-14609.03" font-size="1691.2" transform="scale(4.0128.2492)" text-anchor="middle"/>
  <text id="text282" line-height="125%" font-family="&apos;Gentium Book Basic&apos;" x="20021.57" y="730.1" stroke="#565656" font-size="4654.6" stroke-width="23.273" word-spacing="0" letter-spacing="0"><tspan id="tspan284" x="20021.57" y="730.1"/>
  </text>
  <text id="text286" font-family="Arial" x="12087.82" y="-9646.15" font-size="1691.2" transform="scale(4.0128.2492)" text-anchor="middle"/>
  <text id="text288" line-height="125%" font-family="&apos;Gentium Book Basic&apos;" x="40957.95" y="-2151.51" stroke="#565656" font-size="4654.6" stroke-width="23.273" word-spacing="0" letter-spacing="0"><tspan id="tspan290" x="40957.95" y="-2151.51"/>
  </text>
  <text id="text292" font-family="Arial" x="17305.31" y="-21209.38" font-size="1691.2" transform="scale(4.0128.2492)" text-anchor="middle"/>
  <text id="text294" line-height="125%" font-family="&apos;Gentium Book Basic&apos;" x="20660.64" y="-3376.59" stroke="#565656" font-size="4654.6" stroke-width="23.273" word-spacing="0" letter-spacing="0"><tspan id="tspan296" x="20660.64" y="-3376.59"/>
  </text>
  <text id="text298" font-family="Arial" x="12247.24" y="-26125.02" font-size="1691.2" transform="scale(4.0128.2492)" text-anchor="middle"/>
  <text id="text300" line-height="125%" font-family="&apos;Gentium Book Basic&apos;" x="41597.25" y="-6257.98" stroke="#565656" font-size="4654.6" stroke-width="23.273" word-spacing="0" letter-spacing="0"><tspan id="tspan302" x="41597.25" y="-6257.98"/>
  </text>
  <text id="text304" font-family="Arial" x="17464.5" y="-37688.25" font-size="1691.2" transform="scale(4.0128.2492)" text-anchor="middle"/>
  <text id="text306" line-height="125%" font-family="&apos;Gentium Book Basic&apos;" x="-49389.81" y="7140.13" stroke="#565656" font-size="4654.6" stroke-width="23.273" word-spacing="0" letter-spacing="0"><tspan id="tspan308" x="-49389.81" y="7140.13"/>
  </text>
  <text id="text310" font-family="Arial" x="-5209.31" y="16075.9" font-size="1691.2" transform="scale(4.0128.2492)" text-anchor="middle"/>
 </g>
 <text id="text312" line-height="125%" font-family="&apos;Gentium Book Basic&apos;" x="729.64" y="231.36" font-size="129.23" word-spacing="0" letter-spacing="0"><tspan id="tspan314" x="729.64" y="231.36"/>
 </text>
 <text id="text316" font-family="Arial" x="378.91" y="579.26" font-size="46.954" transform="scale(4.0128.2492)" text-anchor="middle"/>
 <text id="text318" line-height="125%" font-family="&apos;Gentium Book Basic&apos;" x="1310.91" y="151.36" font-size="129.23" word-spacing="0" letter-spacing="0"><tspan id="tspan320" x="1310.91" y="151.36"/>
 </text>
 <text id="text322" font-family="Arial" x="523.76" y="258.22" font-size="46.954" transform="scale(4.0128.2492)" text-anchor="middle"/>
 <text id="text324" line-height="125%" font-family="&apos;Gentium Book Basic&apos;" x="239.33" y="-29.9" font-size="129.23" word-spacing="0" letter-spacing="0"><tspan id="tspan326" x="239.33" y="-29.9"/>
 </text>
 <text id="text328" font-family="Arial" x="256.72" y="-469.13" font-size="46.954" transform="scale(4.0128.2492)" text-anchor="middle"/>
 <text id="text330" line-height="125%" font-family="&apos;Gentium Book Basic&apos;" x="1337.38" y="-246.37" font-size="129.23" word-spacing="0" letter-spacing="0"><tspan id="tspan332" x="1337.38" y="-246.37"/>
 </text>
 <text id="text334" font-family="Arial" x="530.36" y="-1337.79" font-size="46.954" transform="scale(4.0128.2492)" text-anchor="middle"/>
 <text id="text336" line-height="125%" font-family="&apos;Gentium Book Basic&apos;" x="1918.65" y="-326.37" font-size="129.23" word-spacing="0" letter-spacing="0"><tspan id="tspan338" x="1918.65" y="-326.37"/>
 </text>
 <text id="text340" font-family="Arial" x="675.21" y="-1658.82" font-size="46.954" transform="scale(4.0128.2492)" text-anchor="middle"/>
 <text id="text342" line-height="125%" font-family="&apos;Gentium Book Basic&apos;" x="1529.53" y="-798.77" font-size="129.23" word-spacing="0" letter-spacing="0"><tspan id="tspan344" x="1529.53" y="-798.77"/>
 </text>
 <text id="text346" font-family="Arial" x="578.24" y="-3554.46" font-size="46.954" transform="scale(4.0128.2492)" text-anchor="middle"/>
 <text id="text348" line-height="125%" font-family="&apos;Gentium Book Basic&apos;" x="2110.79" y="-878.78" font-size="129.23" word-spacing="0" letter-spacing="0"><tspan id="tspan350" x="2110.79" y="-878.78"/>
 </text>
 <text id="text352" font-family="Arial" x="723.09" y="-3875.5" font-size="46.954" transform="scale(4.0128.2492)" text-anchor="middle"/>
 <g id="g354" line-height="125%" font-family="&apos;Gentium Book Basic&apos;" word-spacing="0" letter-spacing="0">
  <text id="text356" font-size="208.33" x="277.99" y="535.94"><tspan id="tspan358" x="277.99" y="535.94"/>
  </text>
  <text id="text360" font-size="129.23" x="1532.35" y="177.12"><tspan id="tspan362" x="1532.35" y="177.12"/>
  </text>
 </g>
 <text id="text364" font-family="Arial" x="578.94" y="361.61" font-size="46.954" transform="scale(4.0128.2492)" text-anchor="middle"/>
 <text id="text366" line-height="125%" font-family="&apos;Gentium Book Basic&apos;" x="2113.62" y="97.12" font-size="129.23" word-spacing="0" letter-spacing="0"><tspan id="tspan368" x="2113.62" y="97.12"/>
 </text>
 <text id="text370" font-family="Arial" x="723.79" y="40.575" font-size="46.954" transform="scale(4.0128.2492)" text-anchor="middle"/>
 <text id="text372" line-height="125%" font-family="&apos;Gentium Book Basic&apos;" x="1042.04" y="-84.14" font-size="129.23" word-spacing="0" letter-spacing="0"><tspan id="tspan374" x="1042.04" y="-84.14"/>
 </text>
 <text id="text376" font-family="Arial" x="456.76" y="-686.77" font-size="46.954" transform="scale(4.0128.2492)" text-anchor="middle"/>
 <text id="text378" line-height="125%" font-family="&apos;Gentium Book Basic&apos;" x="2140.09" y="-300.61" font-size="129.23" word-spacing="0" letter-spacing="0"><tspan id="tspan380" x="2140.09" y="-300.61"/>
 </text>
 <text id="text382" font-family="Arial" x="730.39" y="-1555.45" font-size="46.954" transform="scale(4.0128.2492)" text-anchor="middle"/>
 <text id="text384" line-height="125%" font-family="&apos;Gentium Book Basic&apos;" x="2721.36" y="-380.61" font-size="129.23" word-spacing="0" letter-spacing="0"><tspan id="tspan386" x="2721.36" y="-380.61"/>
 </text>
 <text id="text388" font-family="Arial" x="875.24" y="-1876.47" font-size="46.954" transform="scale(4.0128.2492)" text-anchor="middle"/>
 <text id="text390" line-height="125%" font-family="&apos;Gentium Book Basic&apos;" x="2332.24" y="-853.01" font-size="129.23" word-spacing="0" letter-spacing="0"><tspan id="tspan392" x="2332.24" y="-853.01"/>
 </text>
 <text id="text394" font-family="Arial" x="778.27" y="-3772.13" font-size="46.954" transform="scale(4.0128.2492)" text-anchor="middle"/>
 <text id="text396" line-height="125%" font-family="&apos;Gentium Book Basic&apos;" x="2913.5" y="-933.02" font-size="129.23" word-spacing="0" letter-spacing="0"><tspan id="tspan398" x="2913.5" y="-933.02"/>
 </text>
 <text id="text400" font-family="Arial" x="923.12" y="-4093.16" font-size="46.954" transform="scale(4.0128.2492)" text-anchor="middle"/>
 <text id="text402" line-height="125%" font-family="&apos;Gentium Book Basic&apos;" x="1080.7" y="481.7" font-size="208.33" word-spacing="0" letter-spacing="0"><tspan id="tspan404" x="1080.7" y="481.7"/>
 </text>
 <g id="g406" fill-rule="evenodd">
  <path id="path408" fill="#656565" d="m471.95 253.05c0 120.9-98.01 218.91-218.91 218.91s-218.91-98.01-218.91-218.91 98.01-218.91 218.91-218.91 218.91 98.01 218.91 218.91"/>
  <path id="path410" fill-opacity="0.067" d="m256 1c-140.83 0-255 114.17-255 255s114.17 255 255 255 255-114.17 255-255-114.17-255-255-255m8.827 44.931c120.9 0 218.9 98 218.9 218.9s-98 218.9-218.9 218.9-218.93-98-218.93-218.9 98.03-218.9 218.93-218.9"/>
  <g id="g412" fill-opacity="0.129">
   <path id="path414" d="m256 4.43c-138.94 0-251.57 112.63-251.57 251.57s112.63 251.57 251.57 251.57 251.57-112.63 251.57-251.57-112.63-251.57-251.57-251.57m5.885 38.556c120.9 0 218.9 98 218.9 218.9s-98 218.9-218.9 218.9-218.93-98-218.93-218.9 98.03-218.9 218.93-218.9"/>
   <path id="path416" d="m256 8.36c-136.77 0-247.64 110.87-247.64 247.64s110.87 247.64 247.64 247.64 247.64-110.87 247.64-247.64-110.87-247.64-247.64-247.64m2.942 31.691c120.9 0 218.9 98 218.9 218.9s-98 218.9-218.9 218.9-218.93-98-218.93-218.9 98.03-218.9 218.93-218.9"/>
  </g>
  <path id="path418" fill="#ffffff" stroke-opacity="0.31" d="m253.04 7.86c-135.42 0-245.19 109.78-245.19 245.19 0 135.42 109.78 245.19 245.19 245.19 135.42 0 245.19-109.78 245.19-245.19 0-135.42-109.78-245.19-245.19-245.19m0 26.297c120.9 0 218.9 98 218.9 218.9s-98 218.9-218.9 218.9-218.93-98-218.93-218.9 98.03-218.9 218.93-218.9z" stroke-width="4.904" stroke="#000000"/>
 </g>
 <text id="text420" line-height="125%" font-family="&apos;Gentium Book Basic&apos;" x="729.64" y="231.36" font-size="129.23" word-spacing="0" letter-spacing="0"><tspan id="tspan422" x="729.64" y="231.36"/>
 </text>
 <text id="text424" font-family="Arial" x="378.91" y="579.26" font-size="46.954" transform="scale(4.0128.2492)" text-anchor="middle"/>
 <text id="text426" line-height="125%" font-family="&apos;Gentium Book Basic&apos;" x="1310.91" y="151.36" font-size="129.23" word-spacing="0" letter-spacing="0"><tspan id="tspan428" x="1310.91" y="151.36"/>
 </text>
 <text id="text430" font-family="Arial" x="523.76" y="258.22" font-size="46.954" transform="scale(4.0128.2492)" text-anchor="middle"/>
 <text id="text432" line-height="125%" font-family="&apos;Gentium Book Basic&apos;" x="239.33" y="-29.9" font-size="129.23" word-spacing="0" letter-spacing="0"><tspan id="tspan434" x="239.33" y="-29.9"/>
 </text>
 <text id="text436" font-family="Arial" x="256.72" y="-469.13" font-size="46.954" transform="scale(4.0128.2492)" text-anchor="middle"/>
 <text id="text438" line-height="125%" font-family="&apos;Gentium Book Basic&apos;" x="1337.38" y="-246.37" font-size="129.23" word-spacing="0" letter-spacing="0"><tspan id="tspan440" x="1337.38" y="-246.37"/>
 </text>
 <text id="text442" font-family="Arial" x="530.36" y="-1337.79" font-size="46.954" transform="scale(4.0128.2492)" text-anchor="middle"/>
 <text id="text444" line-height="125%" font-family="&apos;Gentium Book Basic&apos;" x="1918.65" y="-326.37" font-size="129.23" word-spacing="0" letter-spacing="0"><tspan id="tspan446" x="1918.65" y="-326.37"/>
 </text>
 <text id="text448" font-family="Arial" x="675.21" y="-1658.82" font-size="46.954" transform="scale(4.0128.2492)" text-anchor="middle"/>
 <text id="text450" line-height="125%" font-family="&apos;Gentium Book Basic&apos;" x="1529.53" y="-798.77" font-size="129.23" word-spacing="0" letter-spacing="0"><tspan id="tspan452" x="1529.53" y="-798.77"/>
 </text>
 <text id="text454" font-family="Arial" x="578.24" y="-3554.46" font-size="46.954" transform="scale(4.0128.2492)" text-anchor="middle"/>
 <text id="text456" line-height="125%" font-family="&apos;Gentium Book Basic&apos;" x="2110.79" y="-878.78" font-size="129.23" word-spacing="0" letter-spacing="0"><tspan id="tspan458" x="2110.79" y="-878.78"/>
 </text>
 <text id="text460" font-family="Arial" x="723.09" y="-3875.5" font-size="46.954" transform="scale(4.0128.2492)" text-anchor="middle"/>
 <text id="text462" line-height="125%" font-family="&apos;Gentium Book Basic&apos;" x="277.99" y="535.94" font-size="208.33" word-spacing="0" letter-spacing="0"><tspan id="tspan464" x="277.99" y="535.94"/>
 </text>
 <path id="path466" d="m240.01 92.01l46.596 46.598c0.004 0.006 0.009 0.012 0.014 0.018l-46.607-46.607c7.302 62.28-51.725 67.44-78.69 125.87-10.34 22.404-3.193 39.639 9.547 52.38l31.16 31.16-7.229 12.932 78.52 78.52-0.004 0.004-78.53-78.53h-47.25l102.79 102.79-0.002 0.002-102.79-102.79 100.09 105.63 47.844 47.844c83.91-16.484 150.61-80.897 170.43-163.56l-137.75-137.75c-0.418-0.418-0.645-0.635-0.645-0.635l-0.006-0.004c0.639 3.921 0.996 7.531 1.129 10.867l-63.07-63.07c-13.814-13.814-25.563-21.678-25.563-21.678" opacity="0.25"/>
 <path id="path468" fill="#ffffff" d="m240.01 92.02c7.302 62.28-51.726 67.44-78.69 125.87-16.399 35.532 11.187 58.07 35.31 70.28 16.18-28.909 32.38-57.811 48.563-86.72l2.406-4.313c18.315 32.717 36.656 65.41 54.969 98.13 40.24-10.781 61.46-39.34 61.875-60.5 0.635-32.707-36.938-68.875-36.938-68.875 6.997 42.933-19.06 49.41-19.06 49.41 9.118-71.37-68.44-123.28-68.44-123.28m7.625 127.78l-52.844 94.56h-47.25l100.09 105.63 100.09-105.62h-47.28l-52.813-94.56"/>
</svg>
