<?xml version="1.0" encoding="UTF-8" standalone="no"?>
<svg
   xmlns:dc="http://purl.org/dc/elements/1.1/"
   xmlns:cc="http://creativecommons.org/ns#"
   xmlns:rdf="http://www.w3.org/1999/02/22-rdf-syntax-ns#"
   xmlns:svg="http://www.w3.org/2000/svg"
   xmlns="http://www.w3.org/2000/svg"
   xmlns:sodipodi="http://sodipodi.sourceforge.net/DTD/sodipodi-0.dtd"
   xmlns:inkscape="http://www.inkscape.org/namespaces/inkscape"
   height="512"
   viewBox="0 0 512 512"
   width="512"
   version="1.1"
   id="svg2"
   inkscape:version="0.91 r"
   sodipodi:docname="flash.svg">
  <sodipodi:namedview
     pagecolor="#ffffff"
     bordercolor="#666666"
     borderopacity="1"
     objecttolerance="10"
     gridtolerance="10"
     guidetolerance="10"
     inkscape:pageopacity="0"
     inkscape:pageshadow="2"
     inkscape:window-width="445"
     inkscape:window-height="413"
     id="namedview14"
     showgrid="false"
     inkscape:zoom="0.4609375"
     inkscape:cx="256"
     inkscape:cy="256"
     inkscape:window-x="0"
     inkscape:window-y="0"
     inkscape:window-maximized="0"
     inkscape:current-layer="svg2" />
  <defs
     id="defs16" />
  <metadata
     id="metadata72">
    <rdf:RDF>
      <cc:Work
         rdf:about="">
        <dc:format>image/svg+xml</dc:format>
        <dc:type
           rdf:resource="http://purl.org/dc/dcmitype/StillImage" />
      </cc:Work>
    </rdf:RDF>
  </metadata>
  <path
     fill="#545454"
     fill-rule="evenodd"
     d="m471.95 253.05c0 120.9-98.01 218.9-218.9 218.9-120.9 0-218.9-98.01-218.9-218.9 0-120.9 98.01-218.9 218.9-218.9 120.9 0 218.9 98.01 218.9 218.9"
     id="path4" />
  <path
     d="m357.09 124.53c-18.438 0.279-94.1 8.312-124.37 118.88-27.607 100.82-81.7 90.98-81.906 90.94v52.906s0.351 0.046 1 0.094v0.906s0.351 0.046 1 0.094v0.906s0.351 0.015 1 0.063v0.906s0.334 0.047 0.969 0.094v0.906s0.351 0.046 1 0.094v0.906s0.351 0.046 1 0.094v0.906s0.351 0.046 1 0.094v0.906s0.351 0.046 1 0.094v0.906s0.351 0.015 1 0.063v0.937s0.334 0.016 0.969 0.063v0.906s0.351 0.046 1 0.094v0.906s0.351 0.046 1 0.094v0.906s0.351 0.046 1 0.094v0.906s0.351 0.046 1 0.094v0.906s0.351 0.015 1 0.063v0.938s0.351 0.015 1 0.063v0.906s0.334 0.047 0.969 0.094v0.906s0.351 0.046 1 0.094v0.906s0.351 0.046 1 0.094v0.906s0.351 0.046 1 0.094v0.906s0.351 0.046 1 0.094v0.906s0.351 0.015 1 0.063v0.906s0.334 0.047 0.969 0.094v0.906s0.351 0.046 1 0.094v0.906s0.351 0.046 1 0.094v0.906s0.351 0.046 1 0.094v0.906s0.351 0.046 1 0.094v0.906s0.351 0.015 1 0.063v0.906s0.334 0.047 0.969 0.094v0.906s0.351 0.046 1 0.094v0.906s0.351 0.046 1 0.094v0.906s0.351 0.046 1 0.094v0.906s0.351 0.046 1 0.094v0.906s0.351 0.015 1 0.063v0.938s0.334 0.016 0.969 0.063v0.906s0.365 0.047 1 0.094v0.906s0.351 0.046 1 0.094v0.906s0.351 0.046 1 0.094v0.906s0.351 0.046 1 0.094v0.906s0.351 0.046 1 0.094v0.906s0.351 0.015 1 0.063v0.906s0.334 0.047 0.969 0.094v0.906s0.351 0.046 1 0.094v0.906s0.351 0.046 1 0.094v0.906s0.351 0.046 1 0.094v0.906s0.351 0.046 1 0.094v0.906s0.351 0.015 1 0.063v0.906s0.334 0.047 0.969 0.094v0.906s0.351 0.046 1 0.094v0.906s0.351 0.046 1 0.094v0.906s0.351 0.046 1 0.094v0.906s0.351 0.046 1 0.094v0.906s0.351 0.015 1 0.063v0.937s0.334 0.016 0.969 0.063v0.906s0.351 0.046 1 0.094v0.906s0.351 0.046 1 0.094v0.906s0.351 0.046 1 0.094v0.906s0.351 0.046 1 0.094v0.906s0.351 0.015 1 0.063v0.938s0.351 0.015 1 0.063v0.906s0.334 0.047 0.969 0.094v0.906s0.351 0.046 1 0.094v0.906s0.351 0.046 1 0.094v0.906s0.351 0.046 1 0.094v0.906s0.351 0.046 1 0.094v0.906s0.351 0.015 1 0.063v0.906s0.334 0.047 0.969 0.094v0.906s0.351 0.046 1 0.094v0.906s0.351 0.046 1 0.094v0.906s0.351 0.046 1 0.094v0.906s0.351 0.046 1 0.094v0.906s0.351 0.015 1 0.063v0.906s0.334 0.047 0.969 0.094v0.906s0.351 0.046 1 0.094v0.906s0.351 0.046 1 0.094v0.906s0.351 0.046 1 0.094v0.906s0.351 0.046 1 0.094v0.906s0.351 0.015 1 0.063v0.938s0.334 0.016 0.969 0.063v0.906s0.365 0.047 1 0.094v0.906s0.351 0.046 1 0.094v0.906s0.351 0.046 1 0.094v0.906s0.351 0.046 1 0.094v0.906s0.351 0.046 1 0.094v0.906s0.351 0.015 1 0.063v0.344c5.814 0.463 11.691 0.719 17.625 0.719 120.9 0 218.91-98.01 218.91-218.91 0-6.07-0.234-12.09-0.719-18.03-0.17-0.013-0.227-0.017-0.594-0.031v-0.938s-0.387-0.04-0.969-0.063v-0.938s-0.381-0.039-1-0.063v-0.938s-0.381-0.039-1-0.063v-0.938s-0.382-0.008-1-0.031v-0.969s-0.382-0.008-1-0.031v-0.938s-0.381-0.039-1-0.063v-0.938s-0.387-0.04-0.969-0.063v-0.95s-0.381-0.039-1-0.063v-0.938s-0.381-0.039-1-0.063v-0.938s-0.382-0.008-1-0.031v-0.969s-0.382-0.008-1-0.031v-0.938s-0.381-0.039-1-0.063v-0.938s-0.381-0.039-1-0.063v-0.938s-0.387-0.04-0.969-0.063v-0.938s-0.381-0.039-1-0.063v-0.938s-0.382-0.008-1-0.031v-0.969s-0.382-0.008-1-0.031v-0.938s-0.381-0.039-1-0.063v-0.938s-0.381-0.039-1-0.063v-0.938s-0.387-0.04-0.969-0.063v-0.938s-0.381-0.039-1-0.063v-0.938s-0.381-0.039-1-0.063v-0.938s-0.382-0.008-1-0.031v-0.938s-0.381-0.039-1-0.063v-0.938s-0.381-0.039-1-0.063v-0.938s-0.387-0.04-0.969-0.063v-0.938s-0.381-0.039-1-0.063v-0.938s-0.381-0.039-1-0.063v-0.938s-0.382-0.008-1-0.031v-0.969s-0.382-0.008-1-0.031v-0.938s-0.381-0.039-1-0.063v-0.938s-0.387-0.04-0.969-0.063v-0.938s-0.381-0.039-1-0.063v-0.938s-0.381-0.039-1-0.063v-0.938s-0.382-0.008-1-0.031v-0.969s-0.382-0.008-1-0.031v-0.938s-0.381-0.039-1-0.063v-0.938s-0.381-0.039-1-0.063v-0.938s-0.387-0.04-0.969-0.063v-0.938s-0.381-0.039-1-0.063v-0.938s-0.381-0.039-1-0.063v-0.938s-0.382-0.008-1-0.031v-0.938s-0.381-0.039-1-0.063v-0.938s-0.381-0.039-1-0.063v-0.938s-0.387-0.04-0.969-0.063v-0.938s-0.381-0.039-1-0.063v-0.938s-0.381-0.039-1-0.063v-0.938s-0.382-0.008-1-0.031v-0.969s-0.382-0.008-1-0.031v-0.938s-0.381-0.039-1-0.063v-0.938s-0.387-0.04-0.969-0.063v-0.938s-0.381-0.039-1-0.063v-0.938s-0.381-0.039-1-0.063v-0.938s-0.382-0.008-1-0.031v-0.969s-0.382-0.008-1-0.031v-0.938s-0.381-0.039-1-0.063v-0.938s-0.381-0.039-1-0.063v-0.938s-0.387-0.04-0.969-0.063v-0.938s-0.381-0.039-1-0.063v-0.938s-0.382-0.008-1-0.031v-0.969s-0.382-0.008-1-0.031v-0.938s-0.381-0.039-1-0.063v-0.938s-0.381-0.039-1-0.063v-0.938s-0.387-0.04-0.969-0.063v-0.938s-0.381-0.039-1-0.063v-0.938s-0.381-0.039-1-0.063v-0.938s-0.382-0.008-1-0.031v-0.938s-0.381-0.039-1-0.063v-0.938s-0.381-0.039-1-0.063v-0.938s-0.387-0.04-0.969-0.063v-0.938s-0.381-0.039-1-0.063v-0.938s-0.381-0.039-1-0.063v-0.938s-0.382-0.008-1-0.031v-0.969s-0.382-0.008-1-0.031v-0.938s-0.381-0.039-1-0.063v-0.938s-0.387-0.04-0.969-0.063v-0.938s-0.381-0.039-1-0.063v-0.938s-0.381-0.039-1-0.063v-0.938s-0.382-0.008-1-0.031v-0.969s-0.382-0.008-1-0.031v-0.938s-0.381-0.039-1-0.063v-0.938s-0.381-0.039-1-0.063v-0.938s-0.387-0.04-0.969-0.063v-0.938s-0.381-0.039-1-0.063v-0.938s-0.381-0.039-1-0.063v-0.938s-0.382-0.008-1-0.031v-0.938s-0.381-0.039-1-0.063v-0.938s-0.381-0.039-1-0.063v-0.938s-0.387-0.04-0.969-0.063v-0.938s-0.381-0.039-1-0.063v-0.938s-0.381-0.039-1-0.063v-0.938s-0.382-0.008-1-0.031v-0.969s-0.382-0.008-1-0.031v-0.938s-0.381-0.039-1-0.063v-0.938s-0.387-0.04-0.969-0.063v-0.938s-0.381-0.039-1-0.063v-0.938s-0.381-0.039-1-0.063v-0.938s-0.382-0.008-1-0.031v-0.969s-0.382-0.008-1-0.031v-0.938s-0.381-0.039-1-0.063v-0.938s-0.381-0.039-1-0.063v-0.938s-0.387-0.04-0.969-0.063v-0.938s-0.381-0.039-1-0.063v-0.938s-0.382-0.008-1-0.031v-0.969s-0.382-0.008-1-0.031v-0.938s-0.381-0.039-1-0.063v-0.938s-0.381-0.039-1-0.063v-0.938s-0.387-0.04-0.969-0.063v-0.938s-0.381-0.039-1-0.063v-0.938s-0.381-0.039-1-0.063v-0.938s-1.46-0.102-4.094-0.063"
     fill-opacity="0.235"
     id="path6" />
  <g
     fill-rule="evenodd"
     id="g8">
    <path
       d="m256 1c-140.83 0-255 114.17-255 255s114.17 255 255 255 255-114.17 255-255-114.17-255-255-255m8.827 44.931c120.9 0 218.9 98 218.9 218.9s-98 218.9-218.9 218.9-218.93-98-218.93-218.9 98.03-218.9 218.93-218.9"
       fill-opacity="0.067"
       id="path10" />
    <g
       fill-opacity="0.129"
       id="g12">
      <path
         d="m256 4.433c-138.94 0-251.57 112.63-251.57 251.57s112.63 251.57 251.57 251.57 251.57-112.63 251.57-251.57-112.63-251.57-251.57-251.57m5.885 38.556c120.9 0 218.9 98 218.9 218.9s-98 218.9-218.9 218.9-218.93-98-218.93-218.9 98.03-218.9 218.93-218.9"
         id="path14" />
      <path
         d="m256 8.356c-136.77 0-247.64 110.87-247.64 247.64s110.87 247.64 247.64 247.64 247.64-110.87 247.64-247.64-110.87-247.64-247.64-247.64m2.942 31.691c120.9 0 218.9 98 218.9 218.9s-98 218.9-218.9 218.9-218.93-98-218.93-218.9 98.03-218.9 218.93-218.9"
         id="path16" />
    </g>
    <path
       fill="#ffffff"
       stroke-width="4.904"
       stroke="#000000"
       stroke-opacity="0.31"
       d="m253.04 7.859c-135.42 0-245.19 109.78-245.19 245.19 0 135.42 109.78 245.19 245.19 245.19 135.42 0 245.19-109.78 245.19-245.19 0-135.42-109.78-245.19-245.19-245.19zm0 26.297c120.9 0 218.9 98 218.9 218.9s-98 218.9-218.9 218.9-218.93-98-218.93-218.9 98.03-218.9 218.93-218.9z"
       id="path18" />
  </g>
  <path
     d="m361.19 124.6v52.9c-52.817 0.928-65.797 52.44-65.797 52.44h39.836v52.899h-61.768c-37.15 114.62-122.64 104.41-122.64 104.41v-52.9s54.25 10.06 81.91-90.95c34.601-126.36 128.46-118.79 128.46-118.79"
     fill="#ffffff"
     id="path66" />
</svg>
