<?xml version="1.0" encoding="UTF-8" standalone="no"?>
<svg xmlns="http://www.w3.org/2000/svg" xmlns:sodipodi="http://sodipodi.sourceforge.net/DTD/sodipodi-0.dtd" xmlns:inkscape="http://www.inkscape.org/namespaces/inkscape" height="512" viewBox="0 0 512 512" width="512" version="1.1">
 <metadata id="metadata70"/>
 <defs id="defs68">
  <radialGradient r="64" cx="64" cy="64" gradientUnits="userSpaceOnUse" id="radialGradient21305">
   <stop stop-color="#ffffff" id="stop4218-0"/>
   <stop offset="0.688" stop-color="#e8e8e8" id="stop4220-2"/>
   <stop offset="0.875" stop-color="#686868" id="stop4222-6"/>
   <stop offset="1" id="stop4224-6"/>
  </radialGradient>
  <filter color-interpolation-filters="sRGB" id="filter3174">
   <feGaussianBlur stdDeviation="1.71" id="feGaussianBlur3176"/>
  </filter>
  <linearGradient y2="7.02" y1="92.54" gradientTransform="scale(1.0059 .99417)" x2="0" gradientUnits="userSpaceOnUse" id="linearGradient4544">
   <stop id="stop3750"/>
   <stop offset="1" stop-opacity="0.588" id="stop3752"/>
  </linearGradient>
 </defs>
 <text font-family="&apos;Gentium Book Basic&apos;" x="764.06" y="240.45" line-height="125%" font-size="129.23" id="text20-5" word-spacing="0" letter-spacing="0"><tspan x="764.06" y="240.45" id="tspan22-4"/>
 </text>
 <text font-family="Arial" x="387.49" y="615.72" transform="scale(4.0128 .24920)" font-size="46.954" id="text24-1" text-anchor="middle"/>
 <text font-family="&apos;Gentium Book Basic&apos;" x="1345.33" y="160.45" line-height="125%" font-size="129.23" id="text26-9" word-spacing="0" letter-spacing="0"><tspan x="1345.33" y="160.45" id="tspan28-5"/>
 </text>
 <text font-family="Arial" x="532.33" y="294.7" transform="scale(4.0128 .24920)" font-size="46.954" id="text30-7" text-anchor="middle"/>
 <text font-family="&apos;Gentium Book Basic&apos;" x="273.75" y="-20.811" line-height="125%" font-size="129.23" id="text32-9" word-spacing="0" letter-spacing="0"><tspan x="273.75" y="-20.811" id="tspan34-3"/>
 </text>
 <text font-family="Arial" x="265.3" y="-432.66" transform="scale(4.0128 .24920)" font-size="46.954" id="text36-4" text-anchor="middle"/>
 <text font-family="&apos;Gentium Book Basic&apos;" x="1371.8" y="-237.28" line-height="125%" font-size="129.23" id="text38-4" word-spacing="0" letter-spacing="0"><tspan x="1371.8" y="-237.28" id="tspan40-2"/>
 </text>
 <text font-family="Arial" x="538.93" y="-1301.33" transform="scale(4.0128 .24920)" font-size="46.954" id="text42-5" text-anchor="middle"/>
 <text font-family="&apos;Gentium Book Basic&apos;" x="1953.07" y="-317.29" line-height="125%" font-size="129.23" id="text44-3" word-spacing="0" letter-spacing="0"><tspan x="1953.07" y="-317.29" id="tspan46-3"/>
 </text>
 <text font-family="Arial" x="683.78" y="-1622.36" transform="scale(4.0128 .24920)" font-size="46.954" id="text48-8" text-anchor="middle"/>
 <text font-family="&apos;Gentium Book Basic&apos;" x="1563.95" y="-789.69" line-height="125%" font-size="129.23" id="text50-9" word-spacing="0" letter-spacing="0"><tspan x="1563.95" y="-789.69" id="tspan52-1"/>
 </text>
 <text font-family="Arial" x="586.81" y="-3518.01" transform="scale(4.0128 .24920)" font-size="46.954" id="text54-2" text-anchor="middle"/>
 <text font-family="&apos;Gentium Book Basic&apos;" x="2145.21" y="-869.69" line-height="125%" font-size="129.23" id="text56-4" word-spacing="0" letter-spacing="0"><tspan x="2145.21" y="-869.69" id="tspan58-8"/>
 </text>
 <text font-family="Arial" x="731.66" y="-3839.04" transform="scale(4.0128 .24920)" font-size="46.954" id="text60-4" text-anchor="middle"/>
 <text font-family="&apos;Gentium Book Basic&apos;" x="312.41" y="545.03" line-height="125%" font-size="208.33" id="text62-3" word-spacing="0" letter-spacing="0"><tspan x="312.41" y="545.03" id="tspan64-4"/>
 </text>
 <text font-family="&apos;Gentium Book Basic&apos;" x="764.06" y="240.45" line-height="125%" font-size="129.23" id="text20" word-spacing="0" letter-spacing="0"><tspan x="764.06" y="240.45" id="tspan22"/>
 </text>
 <text font-family="Arial" x="387.49" y="615.74" transform="scale(4.0128 .24920)" font-size="46.954" id="text24" text-anchor="middle"/>
 <text font-family="&apos;Gentium Book Basic&apos;" x="1345.33" y="160.45" line-height="125%" font-size="129.23" id="text26" word-spacing="0" letter-spacing="0"><tspan x="1345.33" y="160.45" id="tspan28"/>
 </text>
 <text font-family="Arial" x="532.33" y="294.7" transform="scale(4.0128 .24920)" font-size="46.954" id="text30" text-anchor="middle"/>
 <text font-family="&apos;Gentium Book Basic&apos;" x="273.75" y="-20.81" line-height="125%" font-size="129.23" id="text32" word-spacing="0" letter-spacing="0"><tspan x="273.75" y="-20.81" id="tspan34"/>
 </text>
 <text font-family="Arial" x="265.3" y="-432.65" transform="scale(4.0128 .24920)" font-size="46.954" id="text36" text-anchor="middle"/>
 <text font-family="&apos;Gentium Book Basic&apos;" x="1371.8" y="-237.28" line-height="125%" font-size="129.23" id="text38" word-spacing="0" letter-spacing="0"><tspan x="1371.8" y="-237.28" id="tspan40"/>
 </text>
 <text font-family="Arial" x="538.93" y="-1301.32" transform="scale(4.0128 .24920)" font-size="46.954" id="text42" text-anchor="middle"/>
 <text font-family="&apos;Gentium Book Basic&apos;" x="1953.07" y="-317.28" line-height="125%" font-size="129.23" id="text44" word-spacing="0" letter-spacing="0"><tspan x="1953.07" y="-317.28" id="tspan46"/>
 </text>
 <text font-family="Arial" x="683.78" y="-1622.35" transform="scale(4.0128 .24920)" font-size="46.954" id="text48" text-anchor="middle"/>
 <text font-family="&apos;Gentium Book Basic&apos;" x="1563.95" y="-789.68" line-height="125%" font-size="129.23" id="text50" word-spacing="0" letter-spacing="0"><tspan x="1563.95" y="-789.68" id="tspan52"/>
 </text>
 <text font-family="Arial" x="586.81" y="-3518" transform="scale(4.0128 .24920)" font-size="46.954" id="text54" text-anchor="middle"/>
 <text font-family="&apos;Gentium Book Basic&apos;" x="2145.21" y="-869.69" line-height="125%" font-size="129.23" id="text56" word-spacing="0" letter-spacing="0"><tspan x="2145.21" y="-869.69" id="tspan58"/>
 </text>
 <text font-family="Arial" x="731.66" y="-3839.04" transform="scale(4.0128 .24920)" font-size="46.954" id="text60" text-anchor="middle"/>
 <text font-family="&apos;Gentium Book Basic&apos;" x="312.41" y="545.03" line-height="125%" font-size="208.33" id="text62" word-spacing="0" letter-spacing="0"><tspan x="312.41" y="545.03" id="tspan64"/>
 </text>
 <text font-family="&apos;Gentium Book Basic&apos;" x="1351.99" y="138.48" line-height="125%" font-size="129.23" id="text20-4" word-spacing="0" letter-spacing="0"><tspan x="1351.99" y="138.48" id="tspan22-7"/>
 </text>
 <text font-family="Arial" x="534" y="206.55" transform="scale(4.0128 .24920)" font-size="46.954" id="text24-2" text-anchor="middle"/>
 <text font-family="&apos;Gentium Book Basic&apos;" x="1933.26" y="58.48" line-height="125%" font-size="129.23" id="text26-4" word-spacing="0" letter-spacing="0"><tspan x="1933.26" y="58.48" id="tspan28-1"/>
 </text>
 <text font-family="Arial" x="678.85" y="-114.48" transform="scale(4.0128 .24920)" font-size="46.954" id="text30-0" text-anchor="middle"/>
 <text font-family="&apos;Gentium Book Basic&apos;" x="861.68" y="-122.78" line-height="125%" font-size="129.23" id="text32-4" word-spacing="0" letter-spacing="0"><tspan x="861.68" y="-122.78" id="tspan34-4"/>
 </text>
 <text font-family="Arial" x="411.81" y="-841.83" transform="scale(4.0128 .24920)" font-size="46.954" id="text36-7" text-anchor="middle"/>
 <text font-family="&apos;Gentium Book Basic&apos;" x="1959.73" y="-339.25" line-height="125%" font-size="129.23" id="text38-9" word-spacing="0" letter-spacing="0"><tspan x="1959.73" y="-339.25" id="tspan40-6"/>
 </text>
 <text font-family="Arial" x="685.45" y="-1710.5" transform="scale(4.0128 .24920)" font-size="46.954" id="text42-2" text-anchor="middle"/>
 <text font-family="&apos;Gentium Book Basic&apos;" x="2541" y="-419.26" line-height="125%" font-size="129.23" id="text44-8" word-spacing="0" letter-spacing="0"><tspan x="2541" y="-419.26" id="tspan46-6"/>
 </text>
 <text font-family="Arial" x="830.3" y="-2031.54" transform="scale(4.0128 .24920)" font-size="46.954" id="text48-8-2" text-anchor="middle"/>
 <text font-family="&apos;Gentium Book Basic&apos;" x="2151.88" y="-891.66" line-height="125%" font-size="129.23" id="text50-5" word-spacing="0" letter-spacing="0"><tspan x="2151.88" y="-891.66" id="tspan52-1-2"/>
 </text>
 <text font-family="Arial" x="733.33" y="-3927.19" transform="scale(4.0128 .24920)" font-size="46.954" id="text54-2-3" text-anchor="middle"/>
 <text font-family="&apos;Gentium Book Basic&apos;" x="2733.14" y="-971.66" line-height="125%" font-size="129.23" id="text56-5" word-spacing="0" letter-spacing="0"><tspan x="2733.14" y="-971.66" id="tspan58-8-7"/>
 </text>
 <text font-family="Arial" x="878.18" y="-4248.21" transform="scale(4.0128 .24920)" font-size="46.954" id="text60-2" text-anchor="middle"/>
 <text font-family="&apos;Gentium Book Basic&apos;" x="900.34" y="443.06" line-height="125%" font-size="208.33" id="text62-8" word-spacing="0" letter-spacing="0"><tspan x="900.34" y="443.06" id="tspan64-8"/>
 </text>
 <text font-family="&apos;Gentium Book Basic&apos;" x="764.06" y="240.45" line-height="125%" font-size="129.23" id="text27" word-spacing="0" letter-spacing="0"><tspan x="764.06" y="240.45" id="tspan29"/>
 </text>
 <text font-family="Arial" x="387.49" y="615.72" transform="scale(4.0128 .24920)" font-size="46.954" id="text31" text-anchor="middle"/>
 <text font-family="&apos;Gentium Book Basic&apos;" x="1345.33" y="160.45" line-height="125%" font-size="129.23" id="text33" word-spacing="0" letter-spacing="0"><tspan x="1345.33" y="160.45" id="tspan35"/>
 </text>
 <text font-family="Arial" x="532.33" y="294.7" transform="scale(4.0128 .24920)" font-size="46.954" id="text37" text-anchor="middle"/>
 <text font-family="&apos;Gentium Book Basic&apos;" x="273.75" y="-20.811" line-height="125%" font-size="129.23" id="text39" word-spacing="0" letter-spacing="0"><tspan x="273.75" y="-20.811" id="tspan41"/>
 </text>
 <text font-family="Arial" x="265.3" y="-432.66" transform="scale(4.0128 .24920)" font-size="46.954" id="text43" text-anchor="middle"/>
 <text font-family="&apos;Gentium Book Basic&apos;" x="1371.8" y="-237.28" line-height="125%" font-size="129.23" id="text45" word-spacing="0" letter-spacing="0"><tspan x="1371.8" y="-237.28" id="tspan47"/>
 </text>
 <text font-family="Arial" x="538.93" y="-1301.33" transform="scale(4.0128 .24920)" font-size="46.954" id="text49" text-anchor="middle"/>
 <text font-family="&apos;Gentium Book Basic&apos;" x="1953.07" y="-317.29" line-height="125%" font-size="129.23" id="text51" word-spacing="0" letter-spacing="0"><tspan x="1953.07" y="-317.29" id="tspan53"/>
 </text>
 <text font-family="Arial" x="683.78" y="-1622.36" transform="scale(4.0128 .24920)" font-size="46.954" id="text55" text-anchor="middle"/>
 <text font-family="&apos;Gentium Book Basic&apos;" x="1563.95" y="-789.69" line-height="125%" font-size="129.23" id="text57" word-spacing="0" letter-spacing="0"><tspan x="1563.95" y="-789.69" id="tspan59"/>
 </text>
 <text font-family="Arial" x="586.81" y="-3518.01" transform="scale(4.0128 .24920)" font-size="46.954" id="text61" text-anchor="middle"/>
 <text font-family="&apos;Gentium Book Basic&apos;" x="2145.21" y="-869.69" line-height="125%" font-size="129.23" id="text63" word-spacing="0" letter-spacing="0"><tspan x="2145.21" y="-869.69" id="tspan65"/>
 </text>
 <text font-family="Arial" x="731.66" y="-3839.04" transform="scale(4.0128 .24920)" font-size="46.954" id="text67" text-anchor="middle"/>
 <text font-family="&apos;Gentium Book Basic&apos;" x="312.41" y="545.03" line-height="125%" font-size="208.33" id="text69" word-spacing="0" letter-spacing="0"><tspan x="312.41" y="545.03" id="tspan71"/>
 </text>
 <text font-family="&apos;Gentium Book Basic&apos;" x="-843.53" y="97.26" line-height="125%" font-size="129.23" id="text3031" word-spacing="0" letter-spacing="0"><tspan x="-843.53" y="97.26" id="tspan3033"/>
 </text>
 <text font-family="Arial" x="-13.13" y="41.14" transform="scale(4.0128 .24920)" font-size="46.954" id="text3035" text-anchor="middle"/>
 <text font-family="&apos;Gentium Book Basic&apos;" x="-262.26" y="17.264" line-height="125%" font-size="129.23" id="text3037" word-spacing="0" letter-spacing="0"><tspan x="-262.26" y="17.264" id="tspan3039"/>
 </text>
 <text font-family="Arial" x="131.72" y="-279.89" transform="scale(4.0128 .24920)" font-size="46.954" id="text3041" text-anchor="middle"/>
 <text font-family="&apos;Gentium Book Basic&apos;" x="-1333.84" y="-164" line-height="125%" font-size="129.23" id="text3043" word-spacing="0" letter-spacing="0"><tspan x="-1333.84" y="-164" id="tspan3045"/>
 </text>
 <text font-family="Arial" x="-135.32" y="-1007.24" transform="scale(4.0128 .24920)" font-size="46.954" id="text3047" text-anchor="middle"/>
 <text font-family="&apos;Gentium Book Basic&apos;" x="-235.79" y="-380.47" line-height="125%" font-size="129.23" id="text3049" word-spacing="0" letter-spacing="0"><tspan x="-235.79" y="-380.47" id="tspan3051"/>
 </text>
 <text font-family="Arial" x="138.32" y="-1875.91" transform="scale(4.0128 .24920)" font-size="46.954" id="text3053" text-anchor="middle"/>
 <text font-family="&apos;Gentium Book Basic&apos;" x="345.48" y="-460.48" line-height="125%" font-size="129.23" id="text3055" word-spacing="0" letter-spacing="0"><tspan x="345.48" y="-460.48" id="tspan3057"/>
 </text>
 <text font-family="Arial" x="283.17" y="-2196.95" transform="scale(4.0128 .24920)" font-size="46.954" id="text3059" text-anchor="middle"/>
 <text font-family="&apos;Gentium Book Basic&apos;" x="-43.643" y="-932.88" line-height="125%" font-size="129.23" id="text3061" word-spacing="0" letter-spacing="0"><tspan x="-43.643" y="-932.88" id="tspan3063"/>
 </text>
 <text font-family="Arial" x="186.2" y="-4092.6" transform="scale(4.0128 .24920)" font-size="46.954" id="text3065" text-anchor="middle"/>
 <text font-family="&apos;Gentium Book Basic&apos;" x="537.62" y="-1012.88" line-height="125%" font-size="129.23" id="text3067" word-spacing="0" letter-spacing="0"><tspan x="537.62" y="-1012.88" id="tspan3069"/>
 </text>
 <text font-family="Arial" x="331.05" y="-4413.62" transform="scale(4.0128 .24920)" font-size="46.954" id="text3071" text-anchor="middle"/>
 <text font-family="&apos;Gentium Book Basic&apos;" x="-1295.18" y="401.84" line-height="125%" font-size="208.33" id="text3073" word-spacing="0" letter-spacing="0"><tspan x="-1295.18" y="401.84" id="tspan3075"/>
 </text>
 <text font-family="&apos;Gentium Book Basic&apos;" x="-1724.09" y="-95.23" line-height="125%" font-size="208.33" id="text4889" word-spacing="0" letter-spacing="0"><tspan x="-1724.09" y="-95.23" id="tspan4891"/>
 </text>
 <text font-family="Arial" x="-111.92" y="-945.03" transform="scale(4.0128 .24920)" font-size="75.7" id="text4893" text-anchor="middle"/>
 <text font-family="&apos;Gentium Book Basic&apos;" x="-2371.85" y="-863.18" line-height="125%" font-size="208.33" id="text4895" word-spacing="0" letter-spacing="0"><tspan x="-2371.85" y="-863.18" id="tspan4897"/>
 </text>
 <text font-family="Arial" x="-273.34" y="-4026.7" transform="scale(4.0128 .24920)" font-size="75.7" id="text4899" text-anchor="middle"/>
 <text font-family="&apos;Gentium Book Basic&apos;" x="-1665.51" y="-1018.81" line-height="125%" font-size="208.33" id="text4901" word-spacing="0" letter-spacing="0"><tspan x="-1665.51" y="-1018.81" id="tspan4903"/>
 </text>
 <text font-family="Arial" x="-97.32" y="-4651.22" transform="scale(4.0128 .24920)" font-size="75.7" id="text4905" text-anchor="middle"/>
 <text font-family="&apos;Gentium Book Basic&apos;" x="-767.6" y="192.72" line-height="125%" font-size="129.23" id="text3052" word-spacing="0" letter-spacing="0"><tspan x="-767.6" y="192.72" id="tspan3054"/>
 </text>
 <text font-family="Arial" x="5.794" y="424.2" transform="scale(4.0128 .24920)" font-size="46.954" id="text3056" text-anchor="middle"/>
 <text font-family="&apos;Gentium Book Basic&apos;" x="-186.33" y="112.72" line-height="125%" font-size="129.23" id="text3058" word-spacing="0" letter-spacing="0"><tspan x="-186.33" y="112.72" id="tspan3060"/>
 </text>
 <text font-family="Arial" x="150.64" y="103.17" transform="scale(4.0128 .24920)" font-size="46.954" id="text3062" text-anchor="middle"/>
 <text font-family="&apos;Gentium Book Basic&apos;" x="-1257.91" y="-68.54" line-height="125%" font-size="129.23" id="text3064" word-spacing="0" letter-spacing="0"><tspan x="-1257.91" y="-68.54" id="tspan3066"/>
 </text>
 <text font-family="Arial" x="-116.4" y="-624.19" transform="scale(4.0128 .24920)" font-size="46.954" id="text3068" text-anchor="middle"/>
 <text font-family="&apos;Gentium Book Basic&apos;" x="-159.86" y="-285.01" line-height="125%" font-size="129.23" id="text3070" word-spacing="0" letter-spacing="0"><tspan x="-159.86" y="-285.01" id="tspan3072"/>
 </text>
 <text font-family="Arial" x="157.24" y="-1492.85" transform="scale(4.0128 .24920)" font-size="46.954" id="text3074" text-anchor="middle"/>
 <text font-family="&apos;Gentium Book Basic&apos;" x="421.41" y="-365.02" line-height="125%" font-size="129.23" id="text3076" word-spacing="0" letter-spacing="0"><tspan x="421.41" y="-365.02" id="tspan3078"/>
 </text>
 <text font-family="Arial" x="302.09" y="-1813.89" transform="scale(4.0128 .24920)" font-size="46.954" id="text3080" text-anchor="middle"/>
 <text font-family="&apos;Gentium Book Basic&apos;" x="32.29" y="-837.42" line-height="125%" font-size="129.23" id="text3082" word-spacing="0" letter-spacing="0"><tspan x="32.29" y="-837.42" id="tspan3084"/>
 </text>
 <text font-family="Arial" x="205.12" y="-3709.54" transform="scale(4.0128 .24920)" font-size="46.954" id="text3086" text-anchor="middle"/>
 <text font-family="&apos;Gentium Book Basic&apos;" x="613.55" y="-917.42" line-height="125%" font-size="129.23" id="text3088" word-spacing="0" letter-spacing="0"><tspan x="613.55" y="-917.42" id="tspan3090"/>
 </text>
 <text font-family="Arial" x="349.97" y="-4030.57" transform="scale(4.0128 .24920)" font-size="46.954" id="text3092" text-anchor="middle"/>
 <text font-family="&apos;Gentium Book Basic&apos;" x="-1219.25" y="497.3" line-height="125%" font-size="208.33" id="text3094" word-spacing="0" letter-spacing="0"><tspan x="-1219.25" y="497.3" id="tspan3096"/>
 </text>
 <text font-family="&apos;Gentium Book Basic&apos;" x="-562.21" y="695.42" line-height="125%" font-size="129.23" id="text27-2" word-spacing="0" letter-spacing="0"><tspan x="-562.21" y="695.42" id="tspan29-5"/>
 </text>
 <text font-family="Arial" x="56.978" y="2441.44" transform="scale(4.0128 .24920)" font-size="46.954" id="text31-1" text-anchor="middle"/>
 <text font-family="&apos;Gentium Book Basic&apos;" x="19.06" y="615.42" line-height="125%" font-size="129.23" id="text33-8" word-spacing="0" letter-spacing="0"><tspan x="19.06" y="615.42" id="tspan35-5"/>
 </text>
 <text font-family="Arial" x="201.83" y="2120.41" transform="scale(4.0128 .24920)" font-size="46.954" id="text37-3" text-anchor="middle"/>
 <text font-family="&apos;Gentium Book Basic&apos;" x="-1052.52" y="434.16" line-height="125%" font-size="129.23" id="text39-2" word-spacing="0" letter-spacing="0"><tspan x="-1052.52" y="434.16" id="tspan41-4"/>
 </text>
 <text font-family="Arial" x="-65.21" y="1393.05" transform="scale(4.0128 .24920)" font-size="46.954" id="text43-3" text-anchor="middle"/>
 <text font-family="&apos;Gentium Book Basic&apos;" x="45.534" y="217.69" line-height="125%" font-size="129.23" id="text45-2" word-spacing="0" letter-spacing="0"><tspan x="45.534" y="217.69" id="tspan47-2"/>
 </text>
 <text font-family="Arial" x="208.43" y="524.39" transform="scale(4.0128 .24920)" font-size="46.954" id="text49-5" text-anchor="middle"/>
 <text font-family="&apos;Gentium Book Basic&apos;" x="626.8" y="137.68" line-height="125%" font-size="129.23" id="text51-8" word-spacing="0" letter-spacing="0"><tspan x="626.8" y="137.68" id="tspan53-0"/>
 </text>
 <text font-family="Arial" x="353.28" y="203.35" transform="scale(4.0128 .24920)" font-size="46.954" id="text55-5" text-anchor="middle"/>
 <text font-family="&apos;Gentium Book Basic&apos;" x="237.68" y="-334.72" line-height="125%" font-size="129.23" id="text57-7" word-spacing="0" letter-spacing="0"><tspan x="237.68" y="-334.72" id="tspan59-7"/>
 </text>
 <text font-family="Arial" x="256.31" y="-1692.3" transform="scale(4.0128 .24920)" font-size="46.954" id="text61-8" text-anchor="middle"/>
 <text font-family="&apos;Gentium Book Basic&apos;" x="818.94" y="-414.72" line-height="125%" font-size="129.23" id="text63-2" word-spacing="0" letter-spacing="0"><tspan x="818.94" y="-414.72" id="tspan65-4"/>
 </text>
 <text font-family="Arial" x="401.16" y="-2013.33" transform="scale(4.0128 .24920)" font-size="46.954" id="text67-2" text-anchor="middle"/>
 <text font-family="&apos;Gentium Book Basic&apos;" x="-1013.86" y="1000" line-height="125%" font-size="208.33" id="text69-5" word-spacing="0" letter-spacing="0"><tspan x="-1013.86" y="1000" id="tspan71-9"/>
 </text>
 <text font-family="&apos;Gentium Book Basic&apos;" x="-1505.94" y="617.32" line-height="125%" font-size="129.23" id="text20-63" word-spacing="0" letter-spacing="0"><tspan x="-1505.94" y="617.32" id="tspan22-8"/>
 </text>
 <text font-family="Arial" x="-178.2" y="2128.03" transform="scale(4.0128 .24920)" font-size="46.954" id="text24-5" text-anchor="middle"/>
 <text font-family="&apos;Gentium Book Basic&apos;" x="-924.67" y="537.32" line-height="125%" font-size="129.23" id="text26-1" word-spacing="0" letter-spacing="0"><tspan x="-924.67" y="537.32" id="tspan28-4"/>
 </text>
 <text font-family="Arial" x="-33.35" y="1807" transform="scale(4.0128 .24920)" font-size="46.954" id="text30-2" text-anchor="middle"/>
 <text font-family="&apos;Gentium Book Basic&apos;" x="-1996.25" y="356.06" line-height="125%" font-size="129.23" id="text32-0" word-spacing="0" letter-spacing="0"><tspan x="-1996.25" y="356.06" id="tspan34-8"/>
 </text>
 <text font-family="Arial" x="-300.39" y="1079.64" transform="scale(4.0128 .24920)" font-size="46.954" id="text36-8" text-anchor="middle"/>
 <text font-family="&apos;Gentium Book Basic&apos;" x="-898.2" y="139.59" line-height="125%" font-size="129.23" id="text38-1" word-spacing="0" letter-spacing="0"><tspan x="-898.2" y="139.59" id="tspan40-8"/>
 </text>
 <text font-family="Arial" x="-26.751" y="210.98" transform="scale(4.0128 .24920)" font-size="46.954" id="text42-25" text-anchor="middle"/>
 <text font-family="&apos;Gentium Book Basic&apos;" x="-316.93" y="59.58" line-height="125%" font-size="129.23" id="text44-5" word-spacing="0" letter-spacing="0"><tspan x="-316.93" y="59.58" id="tspan46-3-1"/>
 </text>
 <text font-family="Arial" x="118.1" y="-110.06" transform="scale(4.0128 .24920)" font-size="46.954" id="text48-1" text-anchor="middle"/>
 <text font-family="&apos;Gentium Book Basic&apos;" x="-706.05" y="-412.82" line-height="125%" font-size="129.23" id="text50-0" word-spacing="0" letter-spacing="0"><tspan x="-706.05" y="-412.82" id="tspan52-2"/>
 </text>
 <text font-family="Arial" x="21.13" y="-2005.71" transform="scale(4.0128 .24920)" font-size="46.954" id="text54-80" text-anchor="middle"/>
 <text font-family="&apos;Gentium Book Basic&apos;" x="-124.79" y="-492.82" line-height="125%" font-size="129.23" id="text56-71" word-spacing="0" letter-spacing="0"><tspan x="-124.79" y="-492.82" id="tspan58-2"/>
 </text>
 <text font-family="Arial" x="165.98" y="-2326.74" transform="scale(4.0128 .24920)" font-size="46.954" id="text60-4-0" text-anchor="middle"/>
 <text font-family="&apos;Gentium Book Basic&apos;" x="-1957.59" y="921.9" line-height="125%" font-size="208.33" id="text62-1" word-spacing="0" letter-spacing="0"><tspan x="-1957.59" y="921.9" id="tspan64-6"/>
 </text>
 <text font-family="&apos;Gentium Book Basic&apos;" x="-1258.48" y="692.16" line-height="125%" font-size="129.23" id="text20-2" word-spacing="0" letter-spacing="0"><tspan x="-1258.48" y="692.16" id="tspan22-5"/>
 </text>
 <text font-family="Arial" x="-116.53" y="2428.37" transform="scale(4.0128 .24920)" font-size="46.954" id="text24-8" text-anchor="middle"/>
 <text font-family="&apos;Gentium Book Basic&apos;" x="-677.21" y="612.16" line-height="125%" font-size="129.23" id="text26-6" word-spacing="0" letter-spacing="0"><tspan x="-677.21" y="612.16" id="tspan28-2"/>
 </text>
 <text font-family="Arial" x="28.315" y="2107.34" transform="scale(4.0128 .24920)" font-size="46.954" id="text30-6" text-anchor="middle"/>
 <text font-family="&apos;Gentium Book Basic&apos;" x="-1748.79" y="430.9" line-height="125%" font-size="129.23" id="text32-8" word-spacing="0" letter-spacing="0"><tspan x="-1748.79" y="430.9" id="tspan34-6"/>
 </text>
 <text font-family="Arial" x="-238.72" y="1379.98" transform="scale(4.0128 .24920)" font-size="46.954" id="text36-2" text-anchor="middle"/>
 <text font-family="&apos;Gentium Book Basic&apos;" x="-650.74" y="214.43" line-height="125%" font-size="129.23" id="text38-8" word-spacing="0" letter-spacing="0"><tspan x="-650.74" y="214.43" id="tspan40-3"/>
 </text>
 <text font-family="Arial" x="34.915" y="511.32" transform="scale(4.0128 .24920)" font-size="46.954" id="text42-2-4" text-anchor="middle"/>
 <text font-family="&apos;Gentium Book Basic&apos;" x="-69.47" y="134.42" line-height="125%" font-size="129.23" id="text44-1" word-spacing="0" letter-spacing="0"><tspan x="-69.47" y="134.42" id="tspan46-6-0"/>
 </text>
 <text font-family="Arial" x="179.76" y="190.28" transform="scale(4.0128 .24920)" font-size="46.954" id="text48-7" text-anchor="middle"/>
 <text font-family="&apos;Gentium Book Basic&apos;" x="-458.59" y="-337.98" line-height="125%" font-size="129.23" id="text50-2" word-spacing="0" letter-spacing="0"><tspan x="-458.59" y="-337.98" id="tspan52-4"/>
 </text>
 <text font-family="Arial" x="82.79" y="-1705.37" transform="scale(4.0128 .24920)" font-size="46.954" id="text54-8" text-anchor="middle"/>
 <text font-family="&apos;Gentium Book Basic&apos;" x="122.67" y="-417.98" line-height="125%" font-size="129.23" id="text56-7" word-spacing="0" letter-spacing="0"><tspan x="122.67" y="-417.98" id="tspan58-0"/>
 </text>
 <text font-family="Arial" x="227.64" y="-2026.4" transform="scale(4.0128 .24920)" font-size="46.954" id="text60-9" text-anchor="middle"/>
 <text font-family="&apos;Gentium Book Basic&apos;" x="-1710.13" y="996.74" line-height="125%" font-size="208.33" id="text62-5" word-spacing="0" letter-spacing="0"><tspan x="-1710.13" y="996.74" id="tspan64-2"/>
 </text>
 <text font-family="&apos;Gentium Book Basic&apos;" x="-2124.52" y="9.907" line-height="125%" font-size="129.23" id="text3031-3" word-spacing="0" letter-spacing="0"><tspan x="-2124.52" y="9.907" id="tspan3033-9"/>
 </text>
 <text font-family="Arial" x="-332.35" y="-309.4" transform="scale(4.0128 .24920)" font-size="46.954" id="text3035-2" text-anchor="middle"/>
 <text font-family="&apos;Gentium Book Basic&apos;" x="-1543.25" y="-70.09" line-height="125%" font-size="129.23" id="text3037-9" word-spacing="0" letter-spacing="0"><tspan x="-1543.25" y="-70.09" id="tspan3039-5"/>
 </text>
 <text font-family="Arial" x="-187.5" y="-630.43" transform="scale(4.0128 .24920)" font-size="46.954" id="text3041-6" text-anchor="middle"/>
 <text font-family="&apos;Gentium Book Basic&apos;" x="-2614.83" y="-251.35" line-height="125%" font-size="129.23" id="text3043-2" word-spacing="0" letter-spacing="0"><tspan x="-2614.83" y="-251.35" id="tspan3045-0"/>
 </text>
 <text font-family="Arial" x="-454.54" y="-1357.79" transform="scale(4.0128 .24920)" font-size="46.954" id="text3047-2" text-anchor="middle"/>
 <text font-family="&apos;Gentium Book Basic&apos;" x="-1516.78" y="-467.82" line-height="125%" font-size="129.23" id="text3049-4" word-spacing="0" letter-spacing="0"><tspan x="-1516.78" y="-467.82" id="tspan3051-5"/>
 </text>
 <text font-family="Arial" x="-180.9" y="-2226.45" transform="scale(4.0128 .24920)" font-size="46.954" id="text3053-0" text-anchor="middle"/>
 <text font-family="&apos;Gentium Book Basic&apos;" x="-935.51" y="-547.83" line-height="125%" font-size="129.23" id="text3055-7" word-spacing="0" letter-spacing="0"><tspan x="-935.51" y="-547.83" id="tspan3057-4"/>
 </text>
 <text font-family="Arial" x="-36.05" y="-2547.49" transform="scale(4.0128 .24920)" font-size="46.954" id="text3059-9" text-anchor="middle"/>
 <text font-family="&apos;Gentium Book Basic&apos;" x="-1324.63" y="-1020.23" line-height="125%" font-size="129.23" id="text3061-0" word-spacing="0" letter-spacing="0"><tspan x="-1324.63" y="-1020.23" id="tspan3063-9"/>
 </text>
 <text font-family="Arial" x="-133.02" y="-4443.14" transform="scale(4.0128 .24920)" font-size="46.954" id="text3065-8" text-anchor="middle"/>
 <text font-family="&apos;Gentium Book Basic&apos;" x="-743.37" y="-1100.23" line-height="125%" font-size="129.23" id="text3067-7" word-spacing="0" letter-spacing="0"><tspan x="-743.37" y="-1100.23" id="tspan3069-7"/>
 </text>
 <text font-family="Arial" x="11.825" y="-4764.17" transform="scale(4.0128 .24920)" font-size="46.954" id="text3071-9" text-anchor="middle"/>
 <text font-family="&apos;Gentium Book Basic&apos;" x="-2576.17" y="314.49" line-height="125%" font-size="208.33" id="text3073-9" word-spacing="0" letter-spacing="0"><tspan x="-2576.17" y="314.49" id="tspan3075-2"/>
 </text>
 <text font-family="&apos;Gentium Book Basic&apos;" x="-3005.08" y="-182.59" line-height="125%" font-size="208.33" id="text4889-0" word-spacing="0" letter-spacing="0"><tspan x="-3005.08" y="-182.59" id="tspan4891-9"/>
 </text>
 <text font-family="Arial" x="-431.14" y="-1295.58" transform="scale(4.0128 .24920)" font-size="75.7" id="text4893-1" text-anchor="middle"/>
 <text font-family="&apos;Gentium Book Basic&apos;" x="-3652.84" y="-950.54" line-height="125%" font-size="208.33" id="text4895-6" word-spacing="0" letter-spacing="0"><tspan x="-3652.84" y="-950.54" id="tspan4897-1"/>
 </text>
 <text font-family="Arial" x="-592.56" y="-4377.24" transform="scale(4.0128 .24920)" font-size="75.7" id="text4899-3" text-anchor="middle"/>
 <text font-family="&apos;Gentium Book Basic&apos;" x="-2946.5" y="-1106.17" line-height="125%" font-size="208.33" id="text4901-5" word-spacing="0" letter-spacing="0"><tspan x="-2946.5" y="-1106.17" id="tspan4903-8"/>
 </text>
 <text font-family="Arial" x="-416.54" y="-5001.77" transform="scale(4.0128 .24920)" font-size="75.7" id="text4905-1" text-anchor="middle"/>
 <text font-family="&apos;Gentium Book Basic&apos;" x="-2473.81" y="179.13" line-height="125%" font-size="129.23" id="text20-6" word-spacing="0" letter-spacing="0"><tspan x="-2473.81" y="179.13" id="tspan22-4-3"/>
 </text>
 <text font-family="Arial" x="-419.4" y="369.65" transform="scale(4.0128 .24920)" font-size="46.954" id="text24-4" text-anchor="middle"/>
 <text font-family="&apos;Gentium Book Basic&apos;" x="-1892.54" y="99.13" line-height="125%" font-size="129.23" id="text26-63" word-spacing="0" letter-spacing="0"><tspan x="-1892.54" y="99.13" id="tspan28-0"/>
 </text>
 <text font-family="Arial" x="-274.55" y="48.62" transform="scale(4.0128 .24920)" font-size="46.954" id="text30-5" text-anchor="middle"/>
 <text font-family="&apos;Gentium Book Basic&apos;" x="-2964.12" y="-82.13" line-height="125%" font-size="129.23" id="text32-3" word-spacing="0" letter-spacing="0"><tspan x="-2964.12" y="-82.13" id="tspan34-0"/>
 </text>
 <text font-family="Arial" x="-541.59" y="-678.74" transform="scale(4.0128 .24920)" font-size="46.954" id="text36-5" text-anchor="middle"/>
 <text font-family="&apos;Gentium Book Basic&apos;" x="-1866.07" y="-298.6" line-height="125%" font-size="129.23" id="text38-0" word-spacing="0" letter-spacing="0"><tspan x="-1866.07" y="-298.6" id="tspan40-9"/>
 </text>
 <text font-family="Arial" x="-267.95" y="-1547.4" transform="scale(4.0128 .24920)" font-size="46.954" id="text42-7" text-anchor="middle"/>
 <text font-family="&apos;Gentium Book Basic&apos;" x="-1284.8" y="-378.61" line-height="125%" font-size="129.23" id="text44-11" word-spacing="0" letter-spacing="0"><tspan x="-1284.8" y="-378.61" id="tspan46-4"/>
 </text>
 <text font-family="Arial" x="-123.1" y="-1868.44" transform="scale(4.0128 .24920)" font-size="46.954" id="text48-77" text-anchor="middle"/>
 <text font-family="&apos;Gentium Book Basic&apos;" x="-1673.92" y="-851.01" line-height="125%" font-size="129.23" id="text50-28" word-spacing="0" letter-spacing="0"><tspan x="-1673.92" y="-851.01" id="tspan52-0"/>
 </text>
 <text font-family="Arial" x="-220.07" y="-3764.09" transform="scale(4.0128 .24920)" font-size="46.954" id="text54-4" text-anchor="middle"/>
 <text font-family="&apos;Gentium Book Basic&apos;" x="-1092.66" y="-931.01" line-height="125%" font-size="129.23" id="text56-2" word-spacing="0" letter-spacing="0"><tspan x="-1092.66" y="-931.01" id="tspan58-6"/>
 </text>
 <text font-family="Arial" x="-75.22" y="-4085.12" transform="scale(4.0128 .24920)" font-size="46.954" id="text60-5" text-anchor="middle"/>
 <text font-family="&apos;Gentium Book Basic&apos;" x="-2925.46" y="483.71" line-height="125%" font-size="208.33" id="text62-7" word-spacing="0" letter-spacing="0"><tspan x="-2925.46" y="483.71" id="tspan64-3"/>
 </text>
 <text font-family="&apos;Gentium Book Basic&apos;" x="764.05" y="240.43" line-height="125%" font-size="129.22" id="text20-1" word-spacing="0" letter-spacing="0"><tspan x="764.05" y="240.43" id="tspan22-1"/>
 </text>
 <text font-family="Arial" x="387.5" y="615.73" transform="scale(4.0128 .24920)" font-size="46.952" id="text24-6" text-anchor="middle"/>
 <text font-family="&apos;Gentium Book Basic&apos;" x="1345.33" y="160.45" line-height="125%" font-size="129.22" id="text26-2" word-spacing="0" letter-spacing="0"><tspan x="1345.33" y="160.45" id="tspan28-21"/>
 </text>
 <text font-family="Arial" x="532.35" y="294.69" transform="scale(4.0128 .24920)" font-size="46.952" id="text30-9" text-anchor="middle"/>
 <text font-family="&apos;Gentium Book Basic&apos;" x="273.73" y="-20.812" line-height="125%" font-size="129.22" id="text32-7" word-spacing="0" letter-spacing="0"><tspan x="273.73" y="-20.812" id="tspan34-41"/>
 </text>
 <text font-family="Arial" x="265.29" y="-432.66" transform="scale(4.0128 .24920)" font-size="46.952" id="text36-9" text-anchor="middle"/>
 <text font-family="&apos;Gentium Book Basic&apos;" x="1371.8" y="-237.28" line-height="125%" font-size="129.22" id="text38-81" word-spacing="0" letter-spacing="0"><tspan x="1371.8" y="-237.28" id="tspan40-98"/>
 </text>
 <text font-family="Arial" x="538.94" y="-1301.33" transform="scale(4.0128 .24920)" font-size="46.952" id="text42-4" text-anchor="middle"/>
 <text font-family="&apos;Gentium Book Basic&apos;" x="1953.08" y="-317.28" line-height="125%" font-size="129.22" id="text44-4" word-spacing="0" letter-spacing="0"><tspan x="1953.08" y="-317.28" id="tspan46-2"/>
 </text>
 <text font-family="Arial" x="683.79" y="-1622.35" transform="scale(4.0128 .24920)" font-size="46.952" id="text48-6" text-anchor="middle"/>
 <text font-family="&apos;Gentium Book Basic&apos;" x="1563.96" y="-789.68" line-height="125%" font-size="129.22" id="text50-09" word-spacing="0" letter-spacing="0"><tspan x="1563.96" y="-789.68" id="tspan52-8"/>
 </text>
 <text font-family="Arial" x="586.81" y="-3518.01" transform="scale(4.0128 .24920)" font-size="46.952" id="text54-3" text-anchor="middle"/>
 <text font-family="&apos;Gentium Book Basic&apos;" x="2145.2" y="-869.69" line-height="125%" font-size="129.22" id="text56-78" word-spacing="0" letter-spacing="0"><tspan x="2145.2" y="-869.69" id="tspan58-3"/>
 </text>
 <text font-family="Arial" x="731.66" y="-3839.03" transform="scale(4.0128 .24920)" font-size="46.952" id="text60-44" text-anchor="middle"/>
 <text font-family="&apos;Gentium Book Basic&apos;" x="312.39" y="545.01" line-height="125%" font-size="208.33" id="text62-4" word-spacing="0" letter-spacing="0"><tspan x="312.39" y="545.01" id="tspan64-7"/>
 </text>
 <path d="m471.95 253.05c0 120.9-98.006 218.91-218.91 218.91s-218.91-98.006-218.91-218.91 98.006-218.91 218.91-218.91 218.91 98.006 218.91 218.91" fill="#5a5a5a" fill-rule="evenodd" id="path8"/>
 <path d="m256 1c-140.83 0-255 114.17-255 255s114.17 255 255 255 255-114.17 255-255-114.17-255-255-255m8.827 44.931c120.9 0 218.9 98 218.9 218.9s-98 218.9-218.9 218.9-218.93-98-218.93-218.9 98.03-218.9 218.93-218.9" fill-opacity="0.067" fill-rule="evenodd" id="path10-7"/>
 <path fill-opacity="0.129" fill-rule="evenodd" d="m256 4.43c-138.94 0-251.57 112.63-251.57 251.57s112.63 251.57 251.57 251.57 251.57-112.63 251.57-251.57-112.63-251.57-251.57-251.57m5.885 38.556c120.9 0 218.9 98 218.9 218.9s-98 218.9-218.9 218.9-218.93-98-218.93-218.9 98.03-218.9 218.93-218.9" id="path14-5"/>
 <path fill-opacity="0.129" fill-rule="evenodd" d="m256 8.36c-136.77 0-247.64 110.87-247.64 247.64s110.87 247.64 247.64 247.64 247.64-110.87 247.64-247.64-110.87-247.64-247.64-247.64m2.942 31.691c120.9 0 218.9 98 218.9 218.9s-98 218.9-218.9 218.9-218.93-98-218.93-218.9 98.03-218.9 218.93-218.9" id="path16-8"/>
 <path fill="#ffffff" stroke-width="4.904" stroke="#000000" fill-rule="evenodd" stroke-opacity="0.31" d="m253.04 7.86c-135.42 0-245.19 109.78-245.19 245.19 0 135.42 109.78 245.19 245.19 245.19 135.42 0 245.19-109.78 245.19-245.19 0-135.42-109.78-245.19-245.19-245.19zm0 26.297c120.9 0 218.9 98 218.9 218.9s-98 218.9-218.9 218.9-218.93-98-218.93-218.9 98.03-218.9 218.93-218.9z" id="path18-0"/>
 <text font-family="&apos;Gentium Book Basic&apos;" x="729.64" y="231.36" word-spacing="0" line-height="125%" letter-spacing="0" font-size="129.23" id="text20-40"><tspan x="729.64" y="231.36" id="tspan22-9"/>
 </text>
 <text font-family="Arial" x="378.91" y="579.26" transform="scale(4.0128 .24920)" font-size="46.954" id="text24-9" text-anchor="middle"/>
 <text font-family="&apos;Gentium Book Basic&apos;" x="1310.91" y="151.36" word-spacing="0" line-height="125%" letter-spacing="0" font-size="129.23" id="text26-43"><tspan x="1310.91" y="151.36" id="tspan28-58"/>
 </text>
 <text font-family="Arial" x="523.76" y="258.22" transform="scale(4.0128 .24920)" font-size="46.954" id="text30-8" text-anchor="middle"/>
 <text font-family="&apos;Gentium Book Basic&apos;" x="239.33" y="-29.9" word-spacing="0" line-height="125%" letter-spacing="0" font-size="129.23" id="text32-00"><tspan x="239.33" y="-29.9" id="tspan34-2"/>
 </text>
 <text font-family="Arial" x="256.72" y="-469.13" transform="scale(4.0128 .24920)" font-size="46.954" id="text36-0" text-anchor="middle"/>
 <text font-family="&apos;Gentium Book Basic&apos;" x="1337.38" y="-246.37" word-spacing="0" line-height="125%" letter-spacing="0" font-size="129.23" id="text38-04"><tspan x="1337.38" y="-246.37" id="tspan40-4"/>
 </text>
 <text font-family="Arial" x="530.36" y="-1337.8" transform="scale(4.0128 .24920)" font-size="46.954" id="text42-1" text-anchor="middle"/>
 <text font-family="&apos;Gentium Book Basic&apos;" x="1918.65" y="-326.37" word-spacing="0" line-height="125%" letter-spacing="0" font-size="129.23" id="text44-9"><tspan x="1918.65" y="-326.37" id="tspan46-5"/>
 </text>
 <text font-family="Arial" x="675.21" y="-1658.83" transform="scale(4.0128 .24920)" font-size="46.954" id="text48-5" text-anchor="middle"/>
 <text font-family="&apos;Gentium Book Basic&apos;" x="1529.53" y="-798.77" word-spacing="0" line-height="125%" letter-spacing="0" font-size="129.23" id="text50-6"><tspan x="1529.53" y="-798.77" id="tspan52-5"/>
 </text>
 <text font-family="Arial" x="578.24" y="-3554.48" transform="scale(4.0128 .24920)" font-size="46.954" id="text54-41" text-anchor="middle"/>
 <text font-family="&apos;Gentium Book Basic&apos;" x="2110.79" y="-878.78" word-spacing="0" line-height="125%" letter-spacing="0" font-size="129.23" id="text56-1"><tspan x="2110.79" y="-878.78" id="tspan58-02"/>
 </text>
 <text font-family="Arial" x="723.09" y="-3875.52" transform="scale(4.0128 .24920)" font-size="46.954" id="text60-0" text-anchor="middle"/>
 <text font-family="&apos;Gentium Book Basic&apos;" x="277.99" y="535.94" word-spacing="0" line-height="125%" letter-spacing="0" font-size="208.33" id="text62-82"><tspan x="277.99" y="535.94" id="tspan64-22"/>
 </text>
 <path d="m372.9 194.37c-11.33 0-21.12 6.03-26.38 14.93l-13.16-13.17h-54.6c-7.19 0-13.83 2.09-19.43 5.78l-5.77-5.78h-56c-7.43 0-14.42 2.39-20.22 6.38l-6.38-6.38h-52.5c-22.75 0-41.611 18.38-41.655 42.71 0 11.33 4.906 21.48 11.906 29.05h-11.906v49.74l153.12 153.11c7.6 0.8 15.31 1.22 23.12 1.22 112.16 0 204.6-84.35 217.38-193.07l-75.39-75.39c-5.61-5.61-13.44-9.11-22.12-9.12l-0.01-0.01z" opacity="0.25" id="path3236"/>
 <path d="m372.9 194.37c-12.947 0-23.889 7.8734-28.346 18.905l-11.2 34.305v-51.451h-54.598c-9.8445 0-18.681 3.8975-25.199 10.505v-10.505h-55.998c-10.416 0-19.991 4.6815-26.599 11.905v-11.905h-52.504c-22.747 0-41.607 18.379-41.652 42.704 0 11.334 4.9055 21.481 11.905 29.052h-11.905v49.738h53.199c14.918-0.0448 29.534-9.4973 34.652-20.697l0.34719-0.30239c5.947 12.376 18.2 20.999 32.546 20.999h55.998v-10.897c6.563 6.6526 15.31 10.897 25.199 10.897h156.45l-33.599-104.34c-4.5919-11.065-15.702-18.905-28.705-18.905m-3.5055 8.747c1.2208-0.1792 2.2287 0 3.5055 0 10.102 0 18.771 6.2158 21.347 15.052l29.399 90.65h-56.704v-14.347h37.452l-24.147-73.851c-1.176-2.8895-4.1103-4.9055-7.347-4.9055s-5.8238 2.3183-6.9998 5.2526l-29.052 87.85h-58.104c-15.534 0-27.999-12.992-27.999-29.052v-46.199c0-16.06 12.465-29.052 27.999-29.052h46.546v14.705h-46.546c-7.739 0-14 6.3054-14 14.347v46.199c0 8.0526 6.6078 14.705 14.347 14.705h31.852v-39.546h-25.546v-14.257h39.904v57.656l26.599-80.055c2.2735-7.739 9.0606-13.776 17.505-15.142m-251.3 1.4h44.799v14.739h-44.799c-10.461 0-18.905 8.7918-18.905 19.599 0 10.852 8.3998 19.599 18.905 19.599h11.547c8.6574 0 15.747 7.5262 15.747 16.452 0 8.971-7.0894 16.139-15.747 16.139h-44.799v-14.347h44.799c0.87358 0 1.7472-0.82878 1.7472-1.7472 0-0.91838-0.87357-1.7472-1.7472-1.7472h-11.547c-18.289 0-33.252-15.355-33.252-34.305 0-18.939 14.963-34.338 33.252-34.338m79.451 0h47.946v14.739h-47.946c-7.7838 0-14 6.4734-14 14.347v46.199c0 8.1422 6.2158 14.705 14 14.705h47.599v14.347h-47.599c-15.579 0-27.999-12.992-27.999-29.052v-46.199c0-16.105 12.42-29.097 27.999-29.097m175.34 14.739c2.0159 0 3.9423 1.3104 4.5471 3.1471l22.399 68.598h-32.905v-12.947l-10.147 30.799h-16.452l28.346-86.45c0.61598-1.8368 2.1839-3.1471 4.1999-3.1471m-254.79 3.5055h44.799v14.347h-44.799c-0.91837 0-1.7472 0.78397-1.7472 1.7472 0 0.96317 0.82878 1.7472 1.7472 1.7472h11.547c18.334 0 33.252 15.355 33.252 34.305 0 18.905-14.918 34.305-33.252 34.305h-44.799v-14.705h44.799c10.505 0 19.252-8.7918 19.252-19.599 0-10.808-8.747-19.599-19.252-19.599l-11.547-0.34719c-8.6574 0-15.747-7.1342-15.747-16.105 0-8.9262 7.0894-16.139 15.747-16.139m79.451 0h47.946v14.347h-41.338c-3.3263 0-3.1023 3.5391-3.1023 3.5391h34.305v14.302h-48.304v-21.302c0-6.1262 4.5023-10.897 10.505-10.897m81.198 0h46.546v14.347h-39.938c-3.3263 0.0896-3.1023 3.5391-3.1023 3.5391v32.502c0 1.8816 1.3552 3.5391 3.1023 3.5391h8.3998v-3.5391h-8.3998v-14.705h22.399v32.546h-29.052c-5.947 0-10.505-5.0287-10.505-11.2v-46.199c0-6.171 4.5471-10.897 10.505-10.897m-91.703 35.738h48.304v14.705h-34.305c0.0448 3.4607 3.1471 3.5391 3.1471 3.5391h40.946v14.347h-47.599c-5.9022 0-10.505-5.0735-10.505-11.2m185.85-19.991-4.9391 15.052h9.7997m-4.9055-15.052" fill="#ffffff" id="path3064"/>
</svg>
