<?xml version="1.0" encoding="UTF-8" standalone="no"?>
<svg xmlns="http://www.w3.org/2000/svg" xmlns:sodipodi="http://sodipodi.sourceforge.net/DTD/sodipodi-0.dtd" xmlns:inkscape="http://www.inkscape.org/namespaces/inkscape" height="512" viewBox="0 0 512 512" width="512" version="1.1">
 <metadata id="metadata72"/>
 <g fill-rule="evenodd" id="g4">
  <path d="m471.95 253.05c0 120.9-98.01 218.9-218.9 218.9-120.9 0-218.9-98.01-218.9-218.9 0-120.9 98.01-218.9 218.9-218.9 120.9 0 218.9 98.01 218.9 218.9" fill="#aaaaaa" id="path6"/>
  <path d="m212.47 129.38c-3.615 0.107-7.04 0.702-10.875 2.5-5.384 2.095-8.806 6.643-12.5 10.781-3.924 5.803-6.202 13.702-8.844 20.406-1.832 5.63-3.836 9.384-7.188 13.156-2.152 2.422-5 6.392-6.969 9.656-5.699 14.567-11.422 25.393-21.344 37.75-5.303 5.778-6.375 8.674-6.375 16.344-1.51 11.808-1.389 20.639 1.344 32.625 0.329 0.872 2.201 4.03 4.188 7 2.399 3.587 3.409 4.929 4.156 5.531 0.171 0.182 0.356 0.384 0.5 0.5 0.171 0.182 0.356 0.384 0.5 0.5 0.171 0.182 0.356 0.384 0.5 0.5 0.171 0.182 0.356 0.384 0.5 0.5 0.171 0.182 0.356 0.384 0.5 0.5 0.144 0.153 0.314 0.332 0.438 0.438 0.207 0.224 0.425 0.462 0.594 0.594 0.213 0.222 0.419 0.47 0.594 0.594 0.121 0.121 0.237 0.258 0.344 0.344 0.175 0.187 0.353 0.382 0.5 0.5 0.175 0.187 0.353 0.382 0.5 0.5 0.175 0.187 0.353 0.382 0.5 0.5 0.189 0.202 0.375 0.409 0.531 0.531 0.175 0.184 0.353 0.385 0.5 0.5 0.162 0.17 0.331 0.358 0.469 0.469 0.171 0.182 0.356 0.384 0.5 0.5 0.171 0.182 0.356 0.384 0.5 0.5 0.171 0.182 0.356 0.384 0.5 0.5 0.171 0.182 0.356 0.384 0.5 0.5 0.171 0.182 0.356 0.384 0.5 0.5-0.121 3.643 0.027 8.08 0.469 10.469 0.642 3.471 0.448 4.933-0.938 8.188-1.4 3.29-1.833 5.532-1.625 9.344 0.179 3.28 0.554 4.698 1.844 7.906 1.438 3.579 1.673 4.963 1.938 10.469 0.138 2.866 0.491 5.948 0.719 6.875 1.31 5.338 1.114 6.592-1.438 14.469-1.604 4.953-2.561 9.627-2.156 10.281 0.167 2.9-0.737 5.847-0.094 8.719 0.082 0.291 0.266 0.538 0.406 0.813 0.072-0.019 0.146-0.044 0.219-0.063 0.09 0.186 0.185 0.374 0.281 0.563 0.072-0.019 0.146-0.044 0.219-0.063 0.09 0.186 0.185 0.374 0.281 0.563 0.072-0.019 0.146-0.044 0.219-0.063 0.09 0.186 0.185 0.374 0.281 0.563 0.072-0.019 0.146-0.044 0.219-0.063 0.09 0.186 0.185 0.374 0.281 0.563 0.072-0.019 0.146-0.044 0.219-0.063 0.09 0.186 0.185 0.374 0.281 0.563 0.072-0.019 0.146-0.044 0.219-0.063 0.09 0.186 0.185 0.374 0.281 0.563 0.072-0.019 0.146-0.044 0.219-0.063 0.09 0.186 0.185 0.374 0.281 0.563 0.063-0.016 0.125-0.046 0.188-0.063 0.091 0.188 0.215 0.372 0.313 0.563 0.063-0.016 0.125-0.046 0.188-0.063 0.091 0.188 0.215 0.372 0.313 0.563 0.063-0.016 0.125-0.046 0.188-0.063 0.091 0.188 0.215 0.372 0.313 0.563 0.063-0.016 0.125-0.046 0.188-0.063 0.091 0.188 0.215 0.372 0.313 0.563 0.063-0.016 0.125-0.046 0.188-0.063 0.091 0.188 0.215 0.372 0.313 0.563 0.063-0.016 0.125-0.046 0.188-0.063 0.09 0.183 0.186 0.345 0.281 0.531 0.072-0.019 0.147-0.044 0.219-0.063 0.091 0.192 0.182 0.368 0.281 0.563 0.072-0.019 0.146-0.044 0.219-0.063 0.091 0.192 0.182 0.368 0.281 0.563 0.072-0.019 0.146-0.044 0.219-0.063 0.091 0.192 0.182 0.368 0.281 0.563 0.072-0.019 0.146-0.044 0.219-0.063 0.091 0.192 0.182 0.368 0.281 0.563 0.072-0.019 0.146-0.044 0.219-0.063 0.09 0.186 0.185 0.374 0.281 0.563 0.072-0.019 0.146-0.044 0.219-0.063 0.09 0.186 0.185 0.374 0.281 0.563 0.072-0.019 0.146-0.044 0.219-0.063 0.09 0.186 0.185 0.374 0.281 0.563 0.072-0.019 0.146-0.044 0.219-0.063 0.09 0.186 0.185 0.374 0.281 0.563 0.072-0.019 0.146-0.044 0.219-0.063 0.09 0.186 0.185 0.374 0.281 0.563 0.072-0.019 0.146-0.044 0.219-0.063 0.09 0.186 0.185 0.374 0.281 0.563 0.072-0.019 0.146-0.044 0.219-0.063 0.09 0.186 0.185 0.374 0.281 0.563 0.072-0.019 0.146-0.044 0.219-0.063 0.09 0.186 0.185 0.374 0.281 0.563 0.072-0.019 0.146-0.044 0.219-0.063 0.09 0.186 0.185 0.374 0.281 0.563 0.072-0.019 0.146-0.044 0.219-0.063 0.09 0.186 0.185 0.374 0.281 0.563 0.072-0.019 0.146-0.044 0.219-0.063 0.09 0.186 0.185 0.374 0.281 0.563 0.072-0.019 0.146-0.044 0.219-0.063 0.09 0.186 0.185 0.374 0.281 0.563 0.072-0.019 0.146-0.044 0.219-0.063 0.09 0.186 0.185 0.374 0.281 0.563 0.072-0.019 0.146-0.044 0.219-0.063 0.09 0.186 0.185 0.374 0.281 0.563 0.072-0.019 0.146-0.044 0.219-0.063 0.09 0.186 0.185 0.374 0.281 0.563 0.063-0.016 0.125-0.046 0.188-0.063 0.091 0.188 0.215 0.372 0.313 0.563 0.063-0.016 0.125-0.046 0.188-0.063 0.091 0.188 0.215 0.372 0.313 0.563 0.063-0.016 0.125-0.046 0.188-0.063 0.091 0.188 0.215 0.372 0.313 0.563 0.063-0.016 0.125-0.046 0.188-0.063 0.091 0.188 0.215 0.372 0.313 0.563 0.063-0.016 0.125-0.046 0.188-0.063 0.091 0.188 0.215 0.372 0.313 0.563 0.063-0.016 0.125-0.046 0.188-0.063 0.09 0.183 0.186 0.345 0.281 0.531 0.072-0.019 0.147-0.044 0.219-0.063 0.091 0.192 0.182 0.368 0.281 0.563 0.072-0.019 0.147-0.044 0.219-0.063 0.091 0.192 0.182 0.368 0.281 0.563 0.072-0.019 0.146-0.044 0.219-0.063 0.091 0.192 0.182 0.368 0.281 0.563 0.072-0.019 0.146-0.044 0.219-0.063 0.091 0.192 0.182 0.368 0.281 0.563 0.072-0.019 0.146-0.044 0.219-0.063 0.09 0.186 0.185 0.374 0.281 0.563 0.072-0.019 0.146-0.044 0.219-0.063 0.09 0.186 0.185 0.374 0.281 0.563 0.072-0.019 0.146-0.044 0.219-0.063 0.09 0.186 0.185 0.374 0.281 0.563 0.072-0.019 0.146-0.044 0.219-0.063 0.09 0.186 0.185 0.374 0.281 0.563 0.072-0.019 0.146-0.044 0.219-0.063 0.09 0.186 0.185 0.374 0.281 0.563 0.072-0.019 0.146-0.044 0.219-0.063 0.09 0.186 0.185 0.374 0.281 0.563 0.072-0.019 0.146-0.044 0.219-0.063 0.09 0.186 0.185 0.374 0.281 0.563 0.072-0.019 0.146-0.044 0.219-0.063 0.09 0.186 0.185 0.374 0.281 0.563 0.072-0.019 0.146-0.044 0.219-0.063 0.09 0.186 0.185 0.374 0.281 0.563 0.072-0.019 0.146-0.044 0.219-0.063 0.09 0.186 0.185 0.374 0.281 0.563 0.072-0.019 0.146-0.044 0.219-0.063 0.09 0.186 0.185 0.374 0.281 0.563 0.072-0.019 0.146-0.044 0.219-0.063 0.09 0.186 0.185 0.374 0.281 0.563 0.072-0.019 0.146-0.044 0.219-0.063 0.09 0.186 0.185 0.374 0.281 0.563 0.072-0.019 0.146-0.044 0.219-0.063 0.09 0.186 0.185 0.374 0.281 0.563 0.072-0.019 0.146-0.044 0.219-0.063 0.09 0.186 0.185 0.374 0.281 0.563 0.063-0.016 0.125-0.046 0.188-0.063 0.091 0.188 0.215 0.372 0.313 0.563 0.063-0.016 0.125-0.046 0.188-0.063 0.091 0.188 0.215 0.372 0.313 0.563 0.063-0.016 0.125-0.046 0.188-0.063 0.091 0.188 0.215 0.372 0.313 0.563 0.063-0.016 0.125-0.046 0.188-0.063 0.091 0.188 0.215 0.372 0.313 0.563 0.063-0.016 0.125-0.046 0.188-0.063 0.091 0.188 0.215 0.372 0.313 0.563 0.063-0.016 0.125-0.046 0.188-0.063 0.09 0.183 0.186 0.345 0.281 0.531 0.072-0.019 0.147-0.044 0.219-0.063 0.091 0.192 0.182 0.368 0.281 0.563 0.072-0.019 0.147-0.044 0.219-0.063 0.091 0.192 0.182 0.368 0.281 0.563 0.072-0.019 0.146-0.044 0.219-0.063 0.091 0.192 0.182 0.368 0.281 0.563 0.072-0.019 0.146-0.044 0.219-0.063 0.091 0.192 0.182 0.368 0.281 0.563 0.072-0.019 0.146-0.044 0.219-0.063 0.09 0.186 0.185 0.374 0.281 0.563 0.072-0.019 0.146-0.044 0.219-0.063 0.09 0.186 0.185 0.374 0.281 0.563 0.072-0.019 0.146-0.044 0.219-0.063 0.09 0.186 0.185 0.374 0.281 0.563 0.072-0.019 0.146-0.044 0.219-0.063 0.09 0.186 0.185 0.374 0.281 0.563 0.072-0.019 0.146-0.044 0.219-0.063 0.09 0.186 0.185 0.374 0.281 0.563 0.072-0.019 0.146-0.044 0.219-0.063 0.09 0.186 0.185 0.374 0.281 0.563 0.072-0.019 0.146-0.044 0.219-0.063 0.09 0.186 0.185 0.374 0.281 0.563 0.072-0.019 0.146-0.044 0.219-0.063 0.09 0.186 0.185 0.374 0.281 0.563 0.072-0.019 0.146-0.044 0.219-0.063 0.09 0.186 0.185 0.374 0.281 0.563 0.072-0.019 0.146-0.044 0.219-0.063 0.09 0.186 0.185 0.374 0.281 0.563 0.072-0.019 0.146-0.044 0.219-0.063 0.09 0.186 0.185 0.374 0.281 0.563 0.072-0.019 0.146-0.044 0.219-0.063 0.09 0.186 0.185 0.374 0.281 0.563 0.072-0.019 0.146-0.044 0.219-0.063 0.09 0.186 0.185 0.374 0.281 0.563 0.072-0.019 0.146-0.044 0.219-0.063 0.09 0.186 0.185 0.374 0.281 0.563 0.072-0.019 0.146-0.044 0.219-0.063 0.09 0.186 0.185 0.374 0.281 0.563 0.063-0.016 0.125-0.046 0.188-0.063 0.091 0.188 0.215 0.372 0.313 0.563 0.063-0.016 0.125-0.046 0.188-0.063 0.091 0.188 0.215 0.372 0.313 0.563 0.063-0.016 0.125-0.046 0.188-0.063 0.091 0.188 0.215 0.372 0.313 0.563 0.063-0.016 0.125-0.046 0.188-0.063 0.091 0.188 0.215 0.372 0.313 0.563 0.063-0.016 0.125-0.046 0.188-0.063 0.091 0.188 0.215 0.372 0.313 0.563 0.063-0.016 0.125-0.046 0.188-0.063 0.09 0.183 0.186 0.345 0.281 0.531 0.072-0.019 0.147-0.044 0.219-0.063 0.091 0.192 0.182 0.368 0.281 0.563 0.072-0.019 0.147-0.044 0.219-0.063 0.091 0.192 0.182 0.368 0.281 0.563 0.072-0.019 0.146-0.044 0.219-0.063 0.091 0.192 0.182 0.368 0.281 0.563 0.072-0.019 0.146-0.044 0.219-0.063 0.091 0.192 0.182 0.368 0.281 0.563 0.072-0.019 0.146-0.044 0.219-0.063 0.09 0.186 0.185 0.374 0.281 0.563 0.072-0.019 0.146-0.044 0.219-0.063 0.09 0.186 0.185 0.374 0.281 0.563 0.072-0.019 0.146-0.044 0.219-0.063 0.09 0.186 0.185 0.374 0.281 0.563 0.072-0.019 0.146-0.044 0.219-0.063 0.09 0.186 0.185 0.374 0.281 0.563 0.072-0.019 0.146-0.044 0.219-0.063 0.09 0.186 0.185 0.374 0.281 0.563 0.072-0.019 0.146-0.044 0.219-0.063 0.09 0.186 0.185 0.374 0.281 0.563 0.072-0.019 0.146-0.044 0.219-0.063 0.09 0.186 0.185 0.374 0.281 0.563 0.072-0.019 0.146-0.044 0.219-0.063 0.09 0.186 0.185 0.374 0.281 0.563 0.072-0.019 0.146-0.044 0.219-0.063 0.09 0.186 0.185 0.374 0.281 0.563 0.072-0.019 0.146-0.044 0.219-0.063 0.09 0.186 0.185 0.374 0.281 0.563 0.072-0.019 0.146-0.044 0.219-0.063 0.09 0.186 0.185 0.374 0.281 0.563 0.072-0.019 0.146-0.044 0.219-0.063 0.09 0.186 0.185 0.374 0.281 0.563 0.072-0.019 0.146-0.044 0.219-0.063 0.09 0.186 0.185 0.374 0.281 0.563 0.072-0.019 0.146-0.044 0.219-0.063 0.09 0.186 0.185 0.374 0.281 0.563 0.072-0.019 0.146-0.044 0.219-0.063 0.09 0.186 0.185 0.374 0.281 0.563 0.063-0.016 0.125-0.046 0.188-0.063 0.091 0.188 0.215 0.372 0.313 0.563 0.063-0.016 0.125-0.046 0.188-0.063 0.091 0.188 0.215 0.372 0.313 0.563 0.063-0.016 0.125-0.046 0.188-0.063 0.091 0.188 0.215 0.372 0.313 0.563 0.063-0.016 0.125-0.046 0.188-0.063 0.091 0.188 0.215 0.372 0.313 0.563 0.063-0.016 0.125-0.046 0.188-0.063 0.091 0.188 0.215 0.372 0.313 0.563 0.063-0.016 0.125-0.046 0.188-0.063 0.09 0.183 0.186 0.345 0.281 0.531h0.031c0.06-0.016 0.127-0.015 0.188-0.031 0.09 0.183 0.186 0.345 0.281 0.531 0.072-0.019 0.147-0.044 0.219-0.063 0.091 0.192 0.182 0.368 0.281 0.563 0.072-0.019 0.146-0.044 0.219-0.063 0.091 0.192 0.182 0.368 0.281 0.563 0.072-0.019 0.146-0.044 0.219-0.063 0.091 0.192 0.182 0.368 0.281 0.563 0.072-0.019 0.146-0.044 0.219-0.063 0.09 0.186 0.185 0.374 0.281 0.563 0.072-0.019 0.146-0.044 0.219-0.063 0.09 0.186 0.185 0.374 0.281 0.563 0.072-0.019 0.146-0.044 0.219-0.063 0.09 0.186 0.185 0.374 0.281 0.563 0.072-0.019 0.146-0.044 0.219-0.063 0.09 0.186 0.185 0.374 0.281 0.563 0.072-0.019 0.146-0.044 0.219-0.063 0.09 0.186 0.185 0.374 0.281 0.563 0.072-0.019 0.146-0.044 0.219-0.063 0.09 0.186 0.185 0.374 0.281 0.563 0.072-0.019 0.146-0.044 0.219-0.063 0.09 0.186 0.185 0.374 0.281 0.563 0.072-0.019 0.146-0.044 0.219-0.063 0.09 0.186 0.185 0.374 0.281 0.563 0.072-0.019 0.146-0.044 0.219-0.063 0.09 0.186 0.185 0.374 0.281 0.563 0.072-0.019 0.146-0.044 0.219-0.063 0.09 0.186 0.185 0.374 0.281 0.563 0.072-0.019 0.146-0.044 0.219-0.063 0.09 0.186 0.185 0.374 0.281 0.563 0.072-0.019 0.146-0.044 0.219-0.063 0.09 0.186 0.185 0.374 0.281 0.563 0.072-0.019 0.146-0.044 0.219-0.063 0.09 0.186 0.185 0.374 0.281 0.563 0.072-0.019 0.146-0.044 0.219-0.063 0.09 0.186 0.185 0.374 0.281 0.563 0.072-0.019 0.146-0.044 0.219-0.063 0.09 0.186 0.185 0.374 0.281 0.563 0.063-0.016 0.125-0.046 0.188-0.063 0.091 0.188 0.215 0.372 0.313 0.563 0.063-0.016 0.125-0.046 0.188-0.063 0.091 0.188 0.215 0.372 0.313 0.563 0.063-0.016 0.125-0.046 0.188-0.063 0.091 0.188 0.215 0.372 0.313 0.563 0.063-0.016 0.125-0.046 0.188-0.063 0.091 0.188 0.215 0.372 0.313 0.563 0.063-0.016 0.125-0.046 0.188-0.063 0.091 0.188 0.215 0.372 0.313 0.563 0.063-0.016 0.125-0.046 0.188-0.063 0.09 0.186 0.185 0.342 0.281 0.531h0.031c0.06-0.016 0.127-0.015 0.188-0.031 0.09 0.183 0.186 0.346 0.281 0.531 0.072-0.019 0.147-0.044 0.219-0.063 0.091 0.192 0.182 0.368 0.281 0.563 0.072-0.019 0.146-0.044 0.219-0.063 0.091 0.192 0.182 0.368 0.281 0.563 0.072-0.019 0.146-0.044 0.219-0.063 0.091 0.192 0.182 0.368 0.281 0.563 0.072-0.019 0.146-0.044 0.219-0.063 0.091 0.192 0.182 0.368 0.281 0.563 0.072-0.019 0.146-0.044 0.219-0.063 0.09 0.186 0.185 0.374 0.281 0.563 0.072-0.019 0.146-0.044 0.219-0.063 0.09 0.186 0.185 0.374 0.281 0.563 0.072-0.019 0.146-0.044 0.219-0.063 0.09 0.186 0.185 0.374 0.281 0.563 0.072-0.019 0.146-0.044 0.219-0.063 0.09 0.186 0.185 0.374 0.281 0.563 0.072-0.019 0.146-0.044 0.219-0.063 0.09 0.186 0.185 0.374 0.281 0.563 0.072-0.019 0.146-0.044 0.219-0.063 0.09 0.186 0.185 0.374 0.281 0.563 0.072-0.019 0.146-0.044 0.219-0.063 0.09 0.186 0.185 0.374 0.281 0.563 0.072-0.019 0.146-0.044 0.219-0.063 0.09 0.186 0.185 0.374 0.281 0.563 0.072-0.019 0.146-0.044 0.219-0.063 0.09 0.186 0.185 0.374 0.281 0.563 0.072-0.019 0.146-0.044 0.219-0.063 0.09 0.186 0.185 0.374 0.281 0.563 0.072-0.019 0.146-0.044 0.219-0.063 0.09 0.186 0.185 0.374 0.281 0.563 0.072-0.019 0.146-0.044 0.219-0.063 0.09 0.186 0.185 0.374 0.281 0.563 0.072-0.019 0.146-0.044 0.219-0.063 0.09 0.186 0.185 0.374 0.281 0.563 0.072-0.019 0.146-0.044 0.219-0.063 0.09 0.186 0.185 0.374 0.281 0.563 0.063-0.016 0.125-0.046 0.188-0.063 0.091 0.188 0.215 0.372 0.313 0.563 0.063-0.016 0.125-0.046 0.188-0.063 0.091 0.188 0.215 0.372 0.313 0.563 0.063-0.016 0.125-0.046 0.188-0.063 0.091 0.188 0.215 0.372 0.313 0.563 0.063-0.016 0.125-0.046 0.188-0.063 0.091 0.188 0.215 0.372 0.313 0.563 0.063-0.016 0.125-0.046 0.188-0.063 0.091 0.188 0.215 0.372 0.313 0.563 0.063-0.016 0.125-0.046 0.188-0.063 0.091 0.188 0.184 0.341 0.281 0.531h0.031c0.06-0.016 0.127-0.015 0.188-0.031 0.09 0.183 0.186 0.346 0.281 0.531 0.072-0.019 0.147-0.044 0.219-0.063 0.091 0.192 0.182 0.368 0.281 0.563 0.072-0.019 0.146-0.044 0.219-0.063 0.091 0.192 0.182 0.368 0.281 0.563 0.072-0.019 0.146-0.044 0.219-0.063 0.091 0.192 0.182 0.368 0.281 0.563 0.072-0.019 0.146-0.044 0.219-0.063 0.091 0.192 0.182 0.368 0.281 0.563 0.072-0.019 0.146-0.044 0.219-0.063 0.09 0.186 0.185 0.374 0.281 0.563 0.072-0.019 0.146-0.044 0.219-0.063 0.09 0.186 0.185 0.374 0.281 0.563 0.072-0.019 0.146-0.044 0.219-0.063 0.09 0.186 0.185 0.374 0.281 0.563 0.072-0.019 0.146-0.044 0.219-0.063 0.09 0.186 0.185 0.374 0.281 0.563 0.072-0.019 0.146-0.044 0.219-0.063 0.09 0.186 0.185 0.374 0.281 0.563 0.072-0.019 0.146-0.044 0.219-0.063 0.09 0.186 0.185 0.374 0.281 0.563 0.072-0.019 0.146-0.044 0.219-0.063 0.09 0.186 0.185 0.374 0.281 0.563 0.072-0.019 0.146-0.044 0.219-0.063 0.09 0.186 0.185 0.374 0.281 0.563 0.072-0.019 0.146-0.044 0.219-0.063 0.09 0.186 0.185 0.374 0.281 0.563 0.072-0.019 0.146-0.044 0.219-0.063 0.09 0.186 0.185 0.374 0.281 0.563 0.072-0.019 0.146-0.044 0.219-0.063 0.08 0.165 0.165 0.332 0.25 0.5 0.083 0.002 0.167-0.002 0.25 0 2.126 0.061 4.234 0.125 6.375 0.125 120.27 0 217.86-97 218.88-217.03-0.103-0.104-0.205-0.211-0.313-0.313-0.086-0.09-0.164-0.164-0.25-0.25-0.242-0.264-0.474-0.519-0.719-0.75-0.102-0.107-0.21-0.18-0.313-0.281-0.165-0.179-0.334-0.336-0.5-0.5-0.165-0.179-0.334-0.336-0.5-0.5-0.165-0.179-0.334-0.336-0.5-0.5-0.165-0.179-0.334-0.336-0.5-0.5-0.165-0.179-0.334-0.336-0.5-0.5-0.165-0.179-0.334-0.336-0.5-0.5-0.165-0.179-0.334-0.336-0.5-0.5-0.165-0.179-0.334-0.336-0.5-0.5-0.229-0.249-0.456-0.469-0.688-0.688-0.169-0.177-0.33-0.34-0.5-0.5-0.169-0.177-0.33-0.34-0.5-0.5-0.169-0.177-0.33-0.34-0.5-0.5-0.172-0.18-0.328-0.337-0.5-0.5-0.172-0.18-0.328-0.337-0.5-0.5-0.172-0.18-0.328-0.337-0.5-0.5-0.172-0.18-0.328-0.337-0.5-0.5-0.172-0.18-0.328-0.337-0.5-0.5-0.172-0.18-0.328-0.337-0.5-0.5-0.172-0.18-0.328-0.337-0.5-0.5-0.172-0.18-0.328-0.337-0.5-0.5-0.172-0.18-0.328-0.337-0.5-0.5-0.172-0.18-0.328-0.337-0.5-0.5-0.086-0.09-0.164-0.164-0.25-0.25-0.242-0.264-0.474-0.519-0.719-0.75-0.102-0.107-0.21-0.18-0.313-0.281-0.165-0.179-0.334-0.336-0.5-0.5-0.165-0.179-0.334-0.336-0.5-0.5-0.165-0.179-0.334-0.336-0.5-0.5-0.165-0.179-0.334-0.336-0.5-0.5-0.165-0.179-0.334-0.336-0.5-0.5-0.165-0.179-0.334-0.336-0.5-0.5-0.165-0.179-0.334-0.336-0.5-0.5-0.165-0.179-0.334-0.336-0.5-0.5-0.229-0.249-0.456-0.469-0.688-0.688-0.169-0.177-0.33-0.34-0.5-0.5-0.169-0.177-0.33-0.34-0.5-0.5-0.169-0.177-0.33-0.34-0.5-0.5-0.169-0.177-0.33-0.34-0.5-0.5-0.172-0.18-0.328-0.337-0.5-0.5-0.172-0.18-0.328-0.337-0.5-0.5-0.172-0.18-0.328-0.337-0.5-0.5-0.172-0.18-0.328-0.337-0.5-0.5-0.172-0.18-0.328-0.337-0.5-0.5-0.172-0.18-0.328-0.337-0.5-0.5-0.172-0.18-0.328-0.337-0.5-0.5-0.172-0.18-0.328-0.337-0.5-0.5-0.172-0.18-0.328-0.337-0.5-0.5-0.086-0.09-0.164-0.164-0.25-0.25-0.242-0.264-0.474-0.519-0.719-0.75-0.102-0.107-0.21-0.18-0.313-0.281-0.165-0.179-0.334-0.336-0.5-0.5-0.165-0.179-0.334-0.336-0.5-0.5-0.165-0.179-0.334-0.336-0.5-0.5-0.165-0.179-0.334-0.336-0.5-0.5-0.165-0.179-0.334-0.336-0.5-0.5-0.165-0.179-0.334-0.336-0.5-0.5-0.165-0.179-0.334-0.336-0.5-0.5-0.165-0.179-0.334-0.336-0.5-0.5-0.229-0.249-0.456-0.469-0.688-0.688-0.169-0.177-0.33-0.34-0.5-0.5-0.169-0.177-0.33-0.34-0.5-0.5-0.169-0.177-0.33-0.34-0.5-0.5-0.169-0.177-0.33-0.34-0.5-0.5-0.172-0.18-0.328-0.337-0.5-0.5-0.172-0.18-0.328-0.337-0.5-0.5-0.172-0.18-0.328-0.337-0.5-0.5-0.172-0.18-0.328-0.337-0.5-0.5-0.172-0.18-0.328-0.337-0.5-0.5-0.172-0.18-0.328-0.337-0.5-0.5-0.172-0.18-0.328-0.337-0.5-0.5-0.172-0.18-0.328-0.337-0.5-0.5-0.172-0.18-0.328-0.337-0.5-0.5-0.086-0.09-0.164-0.164-0.25-0.25-0.242-0.264-0.474-0.519-0.719-0.75-0.102-0.107-0.21-0.18-0.313-0.281-0.165-0.179-0.334-0.336-0.5-0.5-0.165-0.179-0.334-0.336-0.5-0.5-0.165-0.179-0.334-0.336-0.5-0.5-0.165-0.179-0.334-0.336-0.5-0.5-0.165-0.179-0.334-0.336-0.5-0.5-0.165-0.179-0.334-0.336-0.5-0.5-0.165-0.179-0.334-0.336-0.5-0.5-0.165-0.179-0.334-0.336-0.5-0.5-0.229-0.249-0.456-0.469-0.688-0.688-0.169-0.177-0.33-0.34-0.5-0.5-0.169-0.177-0.33-0.34-0.5-0.5-0.169-0.177-0.33-0.34-0.5-0.5-0.169-0.177-0.33-0.34-0.5-0.5-0.172-0.18-0.328-0.337-0.5-0.5-0.172-0.18-0.328-0.337-0.5-0.5-0.172-0.18-0.328-0.337-0.5-0.5-0.172-0.18-0.328-0.337-0.5-0.5-0.172-0.18-0.328-0.337-0.5-0.5-0.172-0.18-0.328-0.337-0.5-0.5-0.172-0.18-0.328-0.337-0.5-0.5-0.172-0.18-0.328-0.337-0.5-0.5-0.172-0.18-0.328-0.337-0.5-0.5-0.086-0.09-0.164-0.164-0.25-0.25-0.242-0.264-0.474-0.519-0.719-0.75-0.169-0.177-0.33-0.34-0.5-0.5-0.102-0.107-0.21-0.18-0.313-0.281-0.165-0.179-0.334-0.336-0.5-0.5-0.165-0.179-0.334-0.336-0.5-0.5-0.165-0.179-0.334-0.336-0.5-0.5-0.165-0.179-0.334-0.336-0.5-0.5-0.165-0.179-0.334-0.336-0.5-0.5-0.165-0.179-0.334-0.336-0.5-0.5-0.165-0.179-0.334-0.336-0.5-0.5-0.165-0.179-0.334-0.336-0.5-0.5-0.229-0.249-0.456-0.469-0.688-0.688-0.169-0.177-0.33-0.34-0.5-0.5-0.169-0.177-0.33-0.34-0.5-0.5-0.169-0.177-0.33-0.34-0.5-0.5-0.172-0.18-0.328-0.337-0.5-0.5-0.172-0.18-0.328-0.337-0.5-0.5-0.172-0.18-0.328-0.337-0.5-0.5-0.172-0.18-0.328-0.337-0.5-0.5-0.172-0.18-0.328-0.337-0.5-0.5-0.172-0.18-0.328-0.337-0.5-0.5-0.172-0.18-0.328-0.337-0.5-0.5-0.172-0.18-0.328-0.337-0.5-0.5-0.172-0.18-0.328-0.337-0.5-0.5-0.086-0.09-0.164-0.164-0.25-0.25-0.242-0.264-0.474-0.519-0.719-0.75-0.169-0.177-0.33-0.34-0.5-0.5-0.102-0.107-0.21-0.18-0.313-0.281-0.165-0.179-0.334-0.336-0.5-0.5-0.165-0.179-0.334-0.336-0.5-0.5-0.165-0.179-0.334-0.336-0.5-0.5-0.165-0.179-0.334-0.336-0.5-0.5-0.165-0.179-0.334-0.336-0.5-0.5-0.165-0.179-0.334-0.336-0.5-0.5-0.165-0.179-0.334-0.336-0.5-0.5-0.165-0.179-0.334-0.336-0.5-0.5-0.229-0.249-0.456-0.469-0.688-0.688-0.169-0.177-0.33-0.34-0.5-0.5-0.169-0.177-0.33-0.34-0.5-0.5-0.169-0.177-0.33-0.34-0.5-0.5-0.172-0.18-0.328-0.337-0.5-0.5-0.172-0.18-0.328-0.337-0.5-0.5-0.172-0.18-0.328-0.337-0.5-0.5-0.172-0.18-0.328-0.337-0.5-0.5-0.172-0.18-0.328-0.337-0.5-0.5-0.172-0.18-0.328-0.337-0.5-0.5-0.172-0.18-0.328-0.337-0.5-0.5-0.172-0.18-0.328-0.337-0.5-0.5-0.172-0.18-0.328-0.337-0.5-0.5-0.086-0.09-0.164-0.164-0.25-0.25-0.242-0.264-0.474-0.519-0.719-0.75-0.169-0.177-0.33-0.34-0.5-0.5-0.102-0.107-0.21-0.18-0.313-0.281-0.165-0.179-0.334-0.336-0.5-0.5-0.165-0.179-0.334-0.336-0.5-0.5-0.165-0.179-0.334-0.336-0.5-0.5-0.165-0.179-0.334-0.336-0.5-0.5-0.165-0.179-0.334-0.336-0.5-0.5-0.165-0.179-0.334-0.336-0.5-0.5-0.165-0.179-0.334-0.336-0.5-0.5-0.165-0.179-0.334-0.336-0.5-0.5-0.229-0.249-0.456-0.469-0.688-0.688-0.169-0.177-0.33-0.34-0.5-0.5-0.169-0.177-0.33-0.34-0.5-0.5-0.169-0.177-0.33-0.34-0.5-0.5-0.172-0.18-0.328-0.337-0.5-0.5-0.172-0.18-0.328-0.337-0.5-0.5-0.172-0.18-0.328-0.337-0.5-0.5-0.172-0.18-0.328-0.337-0.5-0.5-0.172-0.18-0.328-0.337-0.5-0.5-0.172-0.18-0.328-0.337-0.5-0.5-0.172-0.18-0.328-0.337-0.5-0.5-0.172-0.18-0.328-0.337-0.5-0.5-0.172-0.18-0.328-0.337-0.5-0.5-0.086-0.09-0.164-0.164-0.25-0.25-0.242-0.264-0.474-0.519-0.719-0.75-0.169-0.177-0.33-0.34-0.5-0.5-0.102-0.107-0.21-0.18-0.313-0.281-0.165-0.179-0.334-0.336-0.5-0.5-0.165-0.179-0.334-0.336-0.5-0.5-0.165-0.179-0.334-0.336-0.5-0.5-0.165-0.179-0.334-0.336-0.5-0.5-0.165-0.179-0.334-0.336-0.5-0.5-0.165-0.179-0.334-0.336-0.5-0.5-0.165-0.179-0.334-0.336-0.5-0.5-0.165-0.179-0.334-0.336-0.5-0.5-0.229-0.249-0.456-0.469-0.688-0.688-0.169-0.177-0.33-0.34-0.5-0.5-0.169-0.177-0.33-0.34-0.5-0.5-0.169-0.177-0.33-0.34-0.5-0.5-0.172-0.18-0.328-0.337-0.5-0.5-0.172-0.18-0.328-0.337-0.5-0.5-0.172-0.18-0.328-0.337-0.5-0.5-0.172-0.18-0.328-0.337-0.5-0.5-0.172-0.18-0.328-0.337-0.5-0.5-0.172-0.18-0.328-0.337-0.5-0.5-0.172-0.18-0.328-0.337-0.5-0.5-0.172-0.18-0.328-0.337-0.5-0.5-0.172-0.18-0.328-0.337-0.5-0.5-0.086-0.09-0.164-0.164-0.25-0.25-0.242-0.264-0.474-0.519-0.719-0.75-0.169-0.177-0.33-0.34-0.5-0.5-0.102-0.107-0.21-0.18-0.313-0.281-0.758-0.822-1.545-1.506-2.281-1.938-5.64-2.625-12.05-1.585-18.06-3.063-5.04-1.293-7.079-2.243-10.156-5.03-4.596-4.165-5.75-4.799-9.844-4.813-18.32 1.205-24.709 21.809-26.406 37.25-0.515 8.784 2.144 16.587 4.656 24.594-0.094-0.093-0.186-0.189-0.281-0.281-0.165-0.168-0.331-0.336-0.5-0.5-0.165-0.168-0.331-0.336-0.5-0.5-0.165-0.168-0.331-0.336-0.5-0.5-0.068-0.069-0.15-0.119-0.219-0.188-0.033-0.03-0.061-0.064-0.094-0.094-0.021-0.021-0.041-0.042-0.063-0.063-0.048-0.045-0.076-0.111-0.125-0.156-0.068-0.069-0.15-0.119-0.219-0.188-0.033-0.03-0.061-0.064-0.094-0.094-0.069-0.068-0.118-0.151-0.188-0.219-0.167-0.17-0.329-0.334-0.5-0.5-0.167-0.17-0.329-0.334-0.5-0.5-0.167-0.17-0.329-0.334-0.5-0.5-0.162-0.165-0.334-0.308-0.5-0.469-0.067-0.068-0.151-0.12-0.219-0.188-0.065-0.059-0.122-0.129-0.188-0.188-0.016-0.016-0.015-0.047-0.031-0.063-0.022-0.02-0.041-0.042-0.063-0.063-0.067-0.068-0.151-0.12-0.219-0.188-0.011-0.01-0.02-0.021-0.031-0.031-0.062-0.062-0.125-0.126-0.188-0.188-0.027-0.025-0.036-0.069-0.063-0.094-0.067-0.068-0.151-0.12-0.219-0.188-0.011-0.01-0.02-0.021-0.031-0.031-0.062-0.062-0.125-0.126-0.188-0.188-0.027-0.025-0.036-0.069-0.063-0.094-0.067-0.068-0.151-0.12-0.219-0.188-0.011-0.01-0.02-0.021-0.031-0.031-0.062-0.062-0.125-0.126-0.188-0.188-0.027-0.025-0.036-0.069-0.063-0.094l-0.063-0.063c-0.299-0.317-0.593-0.633-0.906-0.938-0.163-0.166-0.333-0.338-0.5-0.5-0.163-0.166-0.333-0.338-0.5-0.5-0.163-0.166-0.333-0.338-0.5-0.5-0.163-0.166-0.333-0.338-0.5-0.5-0.165-0.168-0.331-0.336-0.5-0.5-0.165-0.168-0.331-0.336-0.5-0.5-0.165-0.168-0.331-0.336-0.5-0.5-0.165-0.168-0.331-0.336-0.5-0.5-0.165-0.168-0.331-0.336-0.5-0.5-0.165-0.168-0.331-0.336-0.5-0.5-0.165-0.168-0.331-0.336-0.5-0.5-0.165-0.168-0.331-0.336-0.5-0.5-0.165-0.168-0.331-0.336-0.5-0.5-0.068-0.069-0.15-0.119-0.219-0.188-0.033-0.03-0.061-0.064-0.094-0.094-0.021-0.021-0.041-0.042-0.063-0.063-0.048-0.045-0.076-0.111-0.125-0.156-0.068-0.069-0.15-0.119-0.219-0.188-0.033-0.03-0.061-0.064-0.094-0.094-0.069-0.068-0.118-0.151-0.188-0.219-0.167-0.17-0.329-0.334-0.5-0.5-0.167-0.17-0.329-0.334-0.5-0.5-0.167-0.17-0.329-0.334-0.5-0.5-0.162-0.165-0.334-0.308-0.5-0.469-0.067-0.068-0.151-0.12-0.219-0.188-0.065-0.059-0.122-0.129-0.188-0.188-0.016-0.016-0.015-0.047-0.031-0.063-0.022-0.02-0.041-0.042-0.063-0.063-0.067-0.068-0.151-0.12-0.219-0.188-0.011-0.01-0.02-0.021-0.031-0.031-0.062-0.062-0.125-0.126-0.188-0.188-0.027-0.025-0.036-0.069-0.063-0.094-0.067-0.068-0.151-0.12-0.219-0.188-0.011-0.01-0.02-0.021-0.031-0.031-0.062-0.062-0.125-0.126-0.188-0.188-0.027-0.025-0.036-0.069-0.063-0.094-0.067-0.068-0.151-0.12-0.219-0.188-0.011-0.01-0.02-0.021-0.031-0.031-0.062-0.062-0.125-0.126-0.188-0.188-0.027-0.025-0.036-0.069-0.063-0.094l-0.063-0.063c-0.299-0.317-0.593-0.633-0.906-0.938-0.163-0.166-0.333-0.338-0.5-0.5-0.163-0.166-0.333-0.338-0.5-0.5-0.163-0.166-0.333-0.338-0.5-0.5-0.163-0.166-0.333-0.338-0.5-0.5-0.165-0.168-0.331-0.336-0.5-0.5-0.165-0.168-0.331-0.336-0.5-0.5-0.165-0.168-0.331-0.336-0.5-0.5-0.165-0.168-0.331-0.336-0.5-0.5-0.124-0.126-0.249-0.251-0.375-0.375-0.205-0.211-0.414-0.42-0.625-0.625-0.165-0.168-0.331-0.336-0.5-0.5-0.165-0.168-0.331-0.336-0.5-0.5-0.165-0.168-0.331-0.336-0.5-0.5-0.068-0.069-0.15-0.119-0.219-0.188-0.033-0.03-0.061-0.064-0.094-0.094-0.021-0.021-0.041-0.042-0.063-0.063-0.048-0.045-0.076-0.111-0.125-0.156-0.068-0.069-0.15-0.119-0.219-0.188-0.033-0.03-0.061-0.064-0.094-0.094-0.069-0.068-0.118-0.151-0.188-0.219-0.167-0.17-0.329-0.334-0.5-0.5-0.167-0.17-0.329-0.334-0.5-0.5-0.167-0.17-0.329-0.334-0.5-0.5-0.162-0.165-0.334-0.308-0.5-0.469-0.067-0.068-0.151-0.12-0.219-0.188-0.065-0.059-0.122-0.129-0.188-0.188-0.016-0.016-0.015-0.047-0.031-0.063-0.022-0.02-0.041-0.042-0.063-0.063-0.067-0.068-0.151-0.12-0.219-0.188-0.011-0.01-0.02-0.021-0.031-0.031-0.089-0.088-0.16-0.194-0.25-0.281-0.067-0.068-0.151-0.12-0.219-0.188-0.011-0.01-0.02-0.021-0.031-0.031-0.062-0.062-0.125-0.126-0.188-0.188-0.027-0.025-0.036-0.069-0.063-0.094-0.067-0.068-0.151-0.12-0.219-0.188-0.011-0.01-0.02-0.021-0.031-0.031-0.062-0.062-0.125-0.126-0.188-0.188-0.027-0.025-0.036-0.069-0.063-0.094l-0.063-0.063c-0.299-0.317-0.593-0.633-0.906-0.938-0.163-0.166-0.333-0.338-0.5-0.5-0.163-0.166-0.333-0.338-0.5-0.5-0.163-0.166-0.333-0.338-0.5-0.5-0.163-0.166-0.333-0.338-0.5-0.5-0.165-0.168-0.331-0.336-0.5-0.5-0.165-0.168-0.331-0.336-0.5-0.5-0.165-0.168-0.331-0.336-0.5-0.5-0.165-0.168-0.331-0.336-0.5-0.5-0.165-0.168-0.331-0.336-0.5-0.5-0.165-0.168-0.331-0.336-0.5-0.5-0.165-0.168-0.331-0.336-0.5-0.5-0.165-0.168-0.331-0.336-0.5-0.5-0.165-0.168-0.331-0.336-0.5-0.5-0.068-0.069-0.15-0.119-0.219-0.188-0.033-0.03-0.061-0.064-0.094-0.094-0.021-0.021-0.041-0.042-0.063-0.063-0.048-0.045-0.076-0.111-0.125-0.156-0.068-0.069-0.15-0.119-0.219-0.188-0.033-0.03-0.061-0.064-0.094-0.094-0.069-0.068-0.118-0.151-0.188-0.219-0.167-0.17-0.329-0.334-0.5-0.5-0.167-0.17-0.329-0.334-0.5-0.5-0.167-0.17-0.329-0.334-0.5-0.5-0.167-0.17-0.329-0.334-0.5-0.5-0.162-0.165-0.334-0.308-0.5-0.469-0.067-0.068-0.151-0.12-0.219-0.188-0.065-0.059-0.122-0.129-0.188-0.188-0.016-0.016-0.015-0.047-0.031-0.063-0.022-0.02-0.041-0.042-0.063-0.063-0.067-0.068-0.151-0.12-0.219-0.188-0.011-0.01-0.02-0.021-0.031-0.031-0.062-0.062-0.125-0.126-0.188-0.188-0.027-0.025-0.036-0.069-0.063-0.094-0.067-0.068-0.151-0.12-0.219-0.188-0.011-0.01-0.02-0.021-0.031-0.031-0.062-0.062-0.125-0.126-0.188-0.188-0.027-0.025-0.036-0.069-0.063-0.094l-0.063-0.063c-0.299-0.317-0.593-0.633-0.906-0.938-0.163-0.166-0.333-0.338-0.5-0.5-0.163-0.166-0.333-0.338-0.5-0.5-0.163-0.166-0.333-0.338-0.5-0.5-0.163-0.166-0.333-0.338-0.5-0.5-0.165-0.168-0.331-0.336-0.5-0.5-0.165-0.168-0.331-0.336-0.5-0.5-0.165-0.168-0.331-0.336-0.5-0.5-0.165-0.168-0.331-0.336-0.5-0.5-0.165-0.168-0.331-0.336-0.5-0.5-0.165-0.168-0.331-0.336-0.5-0.5-0.165-0.168-0.331-0.336-0.5-0.5-0.165-0.168-0.331-0.336-0.5-0.5-0.165-0.168-0.331-0.336-0.5-0.5-0.068-0.069-0.15-0.119-0.219-0.188-0.033-0.03-0.061-0.064-0.094-0.094-0.021-0.021-0.041-0.042-0.063-0.063-0.048-0.045-0.076-0.111-0.125-0.156-0.068-0.069-0.15-0.119-0.219-0.188-0.033-0.03-0.061-0.064-0.094-0.094-0.069-0.068-0.118-0.151-0.188-0.219-0.167-0.17-0.329-0.334-0.5-0.5-0.167-0.17-0.329-0.334-0.5-0.5-0.167-0.17-0.329-0.334-0.5-0.5-0.167-0.17-0.329-0.334-0.5-0.5-0.162-0.165-0.334-0.308-0.5-0.469-0.036-0.037-0.089-0.057-0.125-0.094-0.011-0.01-0.021-0.021-0.031-0.031-0.022-0.02-0.04-0.042-0.063-0.063-0.049-0.046-0.076-0.11-0.125-0.156-0.052-0.052-0.103-0.105-0.156-0.156-3.97-4.04-9.106-7.03-14.375-9.09-5.449-1.922-10.724-4.565-16.406-5.75-1.918-0.101-3.65-0.162-5.344-0.219-1.27-0.043-2.514-0.067-3.719-0.031" fill-opacity="0.235" id="path8"/>
  <path d="m256 1c-140.83 0-255 114.17-255 255s114.17 255 255 255 255-114.17 255-255-114.17-255-255-255m8.827 44.931c120.9 0 218.9 98 218.9 218.9s-98 218.9-218.9 218.9-218.93-98-218.93-218.9 98.03-218.9 218.93-218.9" fill-opacity="0.067" id="path10"/>
  <g fill-opacity="0.129" id="g12">
   <path d="m256 4.433c-138.94 0-251.57 112.63-251.57 251.57s112.63 251.57 251.57 251.57 251.57-112.63 251.57-251.57-112.63-251.57-251.57-251.57m5.885 38.556c120.9 0 218.9 98 218.9 218.9s-98 218.9-218.9 218.9-218.93-98-218.93-218.9 98.03-218.9 218.93-218.9" id="path14"/>
   <path d="m256 8.356c-136.77 0-247.64 110.87-247.64 247.64s110.87 247.64 247.64 247.64 247.64-110.87 247.64-247.64-110.87-247.64-247.64-247.64m2.942 31.691c120.9 0 218.9 98 218.9 218.9s-98 218.9-218.9 218.9-218.93-98-218.93-218.9 98.03-218.9 218.93-218.9" id="path16"/>
  </g>
  <path fill="#ffffff" stroke-width="4.904" stroke="#000000" stroke-opacity="0.31" d="m253.04 7.859c-135.42 0-245.19 109.78-245.19 245.19 0 135.42 109.78 245.19 245.19 245.19 135.42 0 245.19-109.78 245.19-245.19 0-135.42-109.78-245.19-245.19-245.19zm0 26.297c120.9 0 218.9 98 218.9 218.9s-98 218.9-218.9 218.9-218.93-98-218.93-218.9 98.03-218.9 218.93-218.9z" id="path18"/>
 </g>
 <text font-family="Gentium Book Basic" x="729.64" y="231.36" line-height="125%" font-size="129.23" id="text20" word-spacing="0" letter-spacing="0"><tspan x="729.64" y="231.36" id="tspan22"/>
 </text>
 <text font-family="Arial" x="378.91" y="579.25" transform="scale(4.0128 .2492)" font-size="46.954" id="text24" text-anchor="middle"/>
 <text font-family="Gentium Book Basic" x="1310.91" y="151.36" line-height="125%" font-size="129.23" id="text26" word-spacing="0" letter-spacing="0"><tspan x="1310.91" y="151.36" id="tspan28"/>
 </text>
 <text font-family="Arial" x="523.76" y="258.22" transform="scale(4.0128 .2492)" font-size="46.954" id="text30" text-anchor="middle"/>
 <text font-family="Gentium Book Basic" x="239.33" y="-29.901" line-height="125%" font-size="129.23" id="text32" word-spacing="0" letter-spacing="0"><tspan x="239.33" y="-29.901" id="tspan34"/>
 </text>
 <text font-family="Arial" x="256.72" y="-469.14" transform="scale(4.0128 .2492)" font-size="46.954" id="text36" text-anchor="middle"/>
 <text font-family="Gentium Book Basic" x="1337.38" y="-246.37" line-height="125%" font-size="129.23" id="text38" word-spacing="0" letter-spacing="0"><tspan x="1337.38" y="-246.37" id="tspan40"/>
 </text>
 <text font-family="Arial" x="530.36" y="-1337.81" transform="scale(4.0128 .2492)" font-size="46.954" id="text42" text-anchor="middle"/>
 <text font-family="Gentium Book Basic" x="1918.65" y="-326.38" line-height="125%" font-size="129.23" id="text44" word-spacing="0" letter-spacing="0"><tspan x="1918.65" y="-326.38" id="tspan46"/>
 </text>
 <text font-family="Arial" x="675.21" y="-1658.85" transform="scale(4.0128 .2492)" font-size="46.954" id="text48" text-anchor="middle"/>
 <text font-family="Gentium Book Basic" x="1529.53" y="-798.78" line-height="125%" font-size="129.23" id="text50" word-spacing="0" letter-spacing="0"><tspan x="1529.53" y="-798.78" id="tspan52"/>
 </text>
 <text font-family="Arial" x="578.24" y="-3554.51" transform="scale(4.0128 .2492)" font-size="46.954" id="text54" text-anchor="middle"/>
 <text font-family="Gentium Book Basic" x="2110.79" y="-878.78" line-height="125%" font-size="129.23" id="text56" word-spacing="0" letter-spacing="0"><tspan x="2110.79" y="-878.78" id="tspan58"/>
 </text>
 <text font-family="Arial" x="723.09" y="-3875.54" transform="scale(4.0128 .2492)" font-size="46.954" id="text60" text-anchor="middle"/>
 <text font-family="Gentium Book Basic" x="277.99" y="535.94" line-height="125%" font-size="208.33" id="text62" word-spacing="0" letter-spacing="0"><tspan x="277.99" y="535.94" id="tspan64"/>
 </text>
 <path fill="#ffffff" fill-rule="evenodd" d="m216.18 129.41c1.694 0.057 3.419 0.104 5.337 0.205 5.683 1.185 10.974 3.826 16.423 5.748 8.431 3.307 16.537 8.96 20.02 17.552 0.872 1.904 4.693 8.08 6.672 10.88 3.706 4.326 8.41 7.875 13.14 10.983 5.87 3.492 10.659 8.101 16.423 15.807 5.824 8.01 6.332 14.965 9.238 24.02 4.479 4.737 8.02-1.797 6.877-6.364-2.741-11.05-7.667-21.02-6.98-32.743 1.697-15.441 8.06-36.05 26.379-37.26 4.094 0.013 5.257 0.66 9.854 4.824 3.077 2.788 5.127 3.737 10.162 5.03 6.01 1.477 12.425 0.454 18.07 3.079 2.698 1.581 5.954 6.399 6.672 9.854 0.598 2.883-0.837 5.738-3.695 7.288-5.763 2.709-15.589 0.689-16.834 8.725 1.959 8.511 7.29 14.393 6.98 22.89 0.379 9.294-0.804 16.975-1.437 26.07-0.836 11.149-8.889 17.06-14.473 26.379-8.406 10.728-23.326 21.933-37.67 17.552-4.979-1.61-6.972-1.325-8.827 1.334-1.266 1.815-1.442 3.486-0.718 7.493 0.883 4.889 0.874 14.179 0 19.4-0.647 3.867-1.13 9.749-1.129 13.04 0.001 2.688-0.533 6.05-1.232 8.827-0.456 1.812-0.535 3.709-0.719 9.854-0.124 4.149-0.342 8.203-0.513 9.03-0.581 2.813-0.453 5.104 0.821 13.857 0.539 3.704 2.41 10.475 3.695 13.344 0.694 1.548 2.479 5.167 4 8.109 0.128 0.248 0.21 0.419 0.308 0.616-0.655-0.04-1.409-0.062-2.053-0.103-5.084-0.317-9.912-0.745-14.678-1.129 1.508 0.101 3.01 0.192 4.516 0.308-0.747-3.681-1.487-7.618-1.642-10.367-0.147-2.584-0.5-5.551-0.924-7.596-0.384-1.851-0.767-4.943-0.924-6.877-0.367-4.544-0.722-5.863-2.874-10.47-0.979-2.095-2.088-4.862-2.463-6.159-0.657-2.268-0.676-2.708-0.616-9.341 0.054-6.03-0.083-7.27-0.616-10.47-1.057-6.355-1.545-8.247-3.592-12.42-2.783-5.672-3.02-6.539-3.285-11.701-0.311-6.02-1.297-9.14-3.387-11.291-1.176-1.21-2.193-1.848-4.106-2.053-0.638-0.068-1.398 0.003-2.258 0-3.622-0.009-5.244 0.482-6.364 1.95-1.05 1.376-1.165 3.071-0.308 6.774 0.384 1.66 0.865 4.667 1.026 6.672 0.354 4.392 1.12 6.89 3.079 10.367 2.497 4.431 2.563 4.821 2.566 12.215 0 5.938-0.048 6.546-0.616 8.314-0.339 1.056-1.015 2.472-1.54 3.182-1.164 1.574-4.635 4.548-8.314 7.185-3.564 2.554-7.615 6.482-10.06 9.751-2.595 3.44-6.309 6.84-6.775 11.291-0.009 3.252 1.887 7.359 4.619 10.06 1.401 1.385 2.362 2.034 5.132 3.387 3.814 1.862 5.253 3.072 5.543 4.619 0.111 0.593-0.096 1.052-0.308 1.54-6.787-0.006-13.207 0.107-19.297 0.308-1.184-0.875-2.115-2-2.874-3.593-1.04-2.179-1.841-3.27-2.874-3.182s-2.215 1.395-3.798 3.798c-1.062 1.612-2.067 2.745-3.079 3.593-2.306 0.137-4.674 0.246-6.877 0.411-1.266-1.19-2.12-3.209-2.566-6.261-0.266-1.819-0.256-2.643 0.103-4.722 0.823-4.768 1.955-6.622 5.337-9.443 1.142-0.953 2.388-2.193 2.771-2.771 1.018-1.537 1.338-3.574 0.924-5.543-0.504-2.398-2.848-6.651-5.543-10.264-2.414-3.237-3.683-5.258-5.645-9.03-0.735-1.414-1.828-2.802-3.49-4.516-1.331-1.373-2.789-3.296-3.285-4.208l-0.821-1.642v-9.341c0.033-6.658-0.352-13.11-1.232-19.708-0.729-7.907-3.532-14.15-7.39-20.939-2.206-4.556-3.242-5.851-5.132-5.851-2.535 0-4.077 2.808-4.824 8.725-0.854 5.808-3.68 10.778-5.44 16.32-1.073 3.948-1.84 5.723-4.311 10.675-2.345 4.698-4.32 9.939-4.927 13.14-0.321 1.693-0.409 4.04-0.411 8.93 0 7.202-0.241 10.07-1.129 13.754-0.675 2.798-1 10.821-0.719 16.218 0.168 3.156 0.23 3.567 1.95 8.622 2.523 7.415 3.101 9.581 3.593 13.344 0.473 3.624 0.792 4.502 2.463 8.109 0.239 0.516 0.349 0.961 0.513 1.437-6.078 1.18-11.496 2.456-16.628 3.798-0.141-0.275-0.329-0.53-0.411-0.821-0.643-2.872 0.269-5.825 0.103-8.725-0.405-0.655 0.551-5.311 2.156-10.264 2.552-7.877 2.747-9.134 1.437-14.473-0.228-0.927-0.581-4.01-0.719-6.877-0.264-5.506-0.512-6.891-1.95-10.47-1.29-3.209-1.669-4.623-1.848-7.904-0.208-3.812 0.242-6.05 1.642-9.341 1.385-3.254 1.566-4.74 0.924-8.211-0.695-3.758-0.693-12.581 0-15.397 0.689-2.8 1.041-12.955 0.924-25.969l-1.437-15.91c-2.213-8.608-3.563-11.701-5.337-11.701-1.627 0-3.156 2.66-4.208 7.493-0.644 4.482-0.319 9.08-1.129 13.549-1.049 6.165 0.63 12.334 3.798 17.655 1.88 3.297 2.528 5.669 2.053 7.39-0.379 1.373-1.78 2.907-2.874 3.182-0.475 0.119-1.069-0.071-1.745-0.411-0.838-0.421-1.688-1.47-4.619-5.851-1.987-2.97-3.879-6.108-4.208-6.98-2.733-11.986-2.844-20.832-1.334-32.641 0-7.67 1.061-10.542 6.364-16.32 9.922-12.357 15.651-23.21 21.35-37.773 1.965-3.265 4.828-7.227 6.98-9.649 3.352-3.772 5.353-7.509 7.185-13.14 2.642-6.704 4.904-14.623 8.827-20.426 3.694-4.138 7.139-8.683 12.523-10.778 5.116-2.398 9.494-2.635 14.575-2.463m5.543 142.26c-0.405 0.026-0.785 0.265-1.232 0.616-1.261 0.992-1.561 2.108-2.258 9.648-0.364 3.936-0.835 8.871-1.129 10.983-1.296 9.322-1.502 12.241-1.129 15.397 0.192 1.625 0.387 4.976 0.513 7.39 0.354 6.803 1.318 9.818 5.03 16.218 1.133 1.953 2.522 4.474 3.079 5.645 1.109 2.332 2.3 3.901 3.49 4.516 1.167 0.604 2.695 0.494 4.208-0.308 2.085-1.105 5.874-4.04 7.698-5.953 1.952-2.045 2.781-3.149 5.03-7.185 2.556-4.588 2.872-5.551 2.874-7.596 0-2.675-0.976-4.658-3.593-7.185-1.143-1.104-3.616-3.554-5.44-5.44-3.777-3.904-3.878-4.101-4.824-9.648-0.858-5.03-0.877-5.113-4.414-10.264-1.267-1.845-1.869-3.521-3.387-9.238-1.404-5.284-2.036-6.593-3.182-7.185-0.548-0.283-0.93-0.437-1.334-0.411" id="path66"/>
</svg>
