<?xml version="1.0" encoding="UTF-8" standalone="no"?>
<svg xmlns="http://www.w3.org/2000/svg" xmlns:sodipodi="http://sodipodi.sourceforge.net/DTD/sodipodi-0.dtd" xmlns:inkscape="http://www.inkscape.org/namespaces/inkscape" height="512" viewBox="0 0 512 512" width="512" version="1.1">
 <metadata id="metadata72"/>
 <path fill="#868686" fill-rule="evenodd" d="m471.95 253.05c0 120.9-98.01 218.9-218.9 218.9-120.9 0-218.9-98.01-218.9-218.9 0-120.9 98.01-218.9 218.9-218.9 120.9 0 218.9 98.01 218.9 218.9" id="path4"/>
 <path d="m256 83.13-124 291 1.625-0.469-0.625 1.438c0.003-0.001 1.58-0.456 1.625-0.469l-0.62 1.47c0.003-0.001 1.58-0.456 1.625-0.469l-0.62 1.47c0.003-0.001 1.58-0.456 1.625-0.469l-0.62 1.47c0.003-0.001 1.55-0.456 1.594-0.469l-0.625 1.469c0.003-0.001 1.58-0.456 1.625-0.469l-0.625 1.469c0.003-0.001 1.58-0.456 1.625-0.469l-0.625 1.438c0.003-0.001 1.58-0.456 1.625-0.469l-0.625 1.469 1.625-0.469-0.625 1.469c0.003-0.001 1.58-0.456 1.625-0.469l-0.625 1.469 1.594-0.469-0.625 1.469c0.003-0.001 1.58-0.456 1.625-0.469l-0.625 1.469 1.625-0.469-0.625 1.469c0.003-0.001 1.58-0.456 1.625-0.469l-0.625 1.438 1.625-0.469-0.625 1.469c0.003-0.001 1.58-0.456 1.625-0.469l-0.625 1.469c0.003-0.001 1.55-0.456 1.594-0.469l-0.625 1.469c0.003-0.001 1.58-0.456 1.625-0.469l-0.625 1.469c0.003-0.001 1.58-0.456 1.625-0.469l-0.625 1.469c0.003-0.001 1.58-0.456 1.625-0.469l-0.625 1.438c0.003-0.001 1.58-0.456 1.625-0.469l-0.625 1.469c0.003-0.001 1.58-0.456 1.625-0.469l-0.625 1.469c0.003-0.001 1.551-0.456 1.594-0.469l-0.625 1.469c0.003-0.001 1.58-0.456 1.625-0.469l-0.625 1.469c0.003-0.001 1.58-0.456 1.625-0.469l-0.625 1.469c0.003-0.001 1.58-0.456 1.625-0.469l-0.625 1.438c0.003-0.001 1.58-0.456 1.625-0.469l-0.625 1.469c0.003-0.001 1.58-0.456 1.625-0.469l-0.625 1.469c0.003-0.001 1.58-0.456 1.625-0.469l-0.625 1.469 1.594-0.469-0.625 1.469c0.003-0.001 1.58-0.456 1.625-0.469l-0.625 1.469 1.625-0.469-0.625 1.469c0.003-0.001 1.58-0.456 1.625-0.469l-0.625 1.438 1.625-0.469-0.625 1.469c0.003-0.001 1.58-0.456 1.625-0.469l-0.625 1.469 1.594-0.469-0.625 1.469c0.003-0.001 1.581-0.456 1.625-0.469l-0.625 1.469c0.003-0.001 1.581-0.456 1.625-0.469l-0.625 1.469c0.003-0.001 1.581-0.456 1.625-0.469l-0.625 1.438c0.003-0.001 1.581-0.456 1.625-0.469l-0.625 1.469c0.003-0.001 1.581-0.456 1.625-0.469l-0.625 1.469c0.002-0.001 1.551-0.456 1.594-0.469l-0.625 1.469c0.003-0.001 1.581-0.456 1.625-0.469l-0.625 1.469c0.002-0.001 1.581-0.456 1.625-0.469l-0.625 1.469c0.002-0.001 1.581-0.456 1.625-0.469l-0.625 1.438c0.002-0.001 1.581-0.456 1.625-0.469l-0.625 1.469c0.002-0.001 1.581-0.456 1.625-0.469l-0.625 1.469c0.002-0.001 1.551-0.456 1.594-0.469l-0.625 1.469h0.031l1.594-0.469-0.625 1.469c0.002-0.001 1.581-0.456 1.625-0.469l-0.625 1.469 1.625-0.469-0.625 1.438c0.002-0.001 1.581-0.456 1.625-0.469l-0.625 1.469 1.625-0.469-0.625 1.469c0.002-0.001 1.581-0.456 1.625-0.469l-0.625 1.469 1.594-0.469-0.625 1.469c0.002-0.001 1.581-0.456 1.625-0.469l-0.625 1.469 1.625-0.469-0.625 1.469c0.002-0.001 1.581-0.456 1.625-0.469l-0.625 1.438c0.002-0.001 1.581-0.456 1.625-0.469l-0.625 1.469c0.002-0.001 1.581-0.456 1.625-0.469l-0.625 1.469c0.002-0.001 1.551-0.456 1.594-0.469l-0.625 1.469c0.002-0.001 1.581-0.456 1.625-0.469l-0.625 1.469c0.002-0.001 1.581-0.456 1.625-0.469l-0.625 1.469c0.002-0.001 1.581-0.456 1.625-0.469l-0.625 1.438c0.002-0.001 1.581-0.456 1.625-0.469l-0.625 1.469c0.002-0.001 1.581-0.456 1.625-0.469l-0.625 1.469c0.002-0.001 1.551-0.456 1.594-0.469l-0.625 1.469c0.002-0.001 1.581-0.456 1.625-0.469l-0.625 1.469c0.002-0.001 1.581-0.456 1.625-0.469l-0.625 1.469c0.002-0.001 1.581-0.456 1.625-0.469l-0.625 1.438c0.002-0.001 1.581-0.456 1.625-0.469l-0.625 1.469 1.625-0.469-0.625 1.469c0.002-0.001 1.581-0.456 1.625-0.469l-0.625 1.469 1.594-0.469-0.625 1.469c0.002-0.001 1.581-0.456 1.625-0.469l-0.625 1.469 1.625-0.469-0.625 1.469c0.002-0.001 1.581-0.456 1.625-0.469l-0.625 1.438 1.625-0.469-0.625 1.469c0.002-0.001 1.581-0.456 1.625-0.469l-0.625 1.469c0.002-0.001 1.551-0.457 1.594-0.469l-0.625 1.469c0.002-0.001 1.581-0.456 1.625-0.469l-0.625 1.469c0.002-0.001 1.581-0.456 1.625-0.469l-0.625 1.469c0.002-0.001 1.581-0.456 1.625-0.469l-0.625 1.438c0.002-0.001 1.581-0.456 1.625-0.469l-0.625 1.469c0.002-0.001 1.581-0.456 1.625-0.469l-0.625 1.469c0.002-0.001 1.551-0.457 1.594-0.469l-0.625 1.469c0.002-0.001 1.581-0.456 1.625-0.469l-0.625 1.469c0.002-0.001 1.581-0.456 1.625-0.469l-0.625 1.469c0.002-0.001 1.581-0.456 1.625-0.469l-0.625 1.438c0.002-0.001 1.581-0.456 1.625-0.469l-0.625 1.469c0.002-0.001 1.581-0.456 1.625-0.469l-0.625 1.469c0.002 0 1.552-0.457 1.594-0.469l-0.625 1.469 1.625-0.469-0.625 1.469c0.002 0 1.581-0.456 1.625-0.469l-0.625 1.469 1.625-0.469-0.625 1.438c0.002 0 1.581-0.456 1.625-0.469l-0.625 1.469 1.625-0.469-0.594 1.406c0.032 0.004 0.062 0.028 0.094 0.031 0.207-0.06 1.46-0.426 1.5-0.438l-0.25 0.563c7.602 0.799 15.311 1.25 23.13 1.25 102.77 0 189.02-70.841 212.56-166.34l-9.594-22.5-0.281 0.688-0.719-1.656-0.281 0.688-0.719-1.688-0.281 0.688-0.719-1.688-0.281 0.625-0.688-1.625-0.281 0.688-0.719-1.688-0.281 0.688-0.719-1.688-0.281 0.688-0.719-1.688-0.281 0.688-0.719-1.656-0.281 0.688-0.719-1.688-0.281 0.625-0.688-1.625-0.281 0.688-0.719-1.688-0.281 0.688-0.719-1.688-0.281 0.688-0.719-1.688-0.281 0.688-0.719-1.656-0.281 0.688-0.719-1.688-0.281 0.625-0.688-1.625-0.281 0.688-0.719-1.688-0.281 0.688-0.719-1.688-0.281 0.688-0.719-1.688-0.281 0.688-0.719-1.656-0.281 0.688-0.719-1.688-0.281 0.625-0.688-1.625-0.281 0.688-0.719-1.688-0.281 0.688-0.719-1.688-0.281 0.688-0.719-1.688-0.281 0.688-0.719-1.656-0.281 0.688-0.719-1.688-0.281 0.688-0.719-1.688-0.281 0.625-0.688-1.625-0.281 0.688-0.719-1.688-0.281 0.688-0.719-1.688-0.281 0.688-0.719-1.688-0.281 0.688-0.719-1.656-0.281 0.688-0.719-1.688-0.281 0.625-0.688-1.625-0.281 0.688-0.719-1.688-0.281 0.688-0.719-1.688-0.281 0.688-0.719-1.688-0.281 0.688-0.719-1.656-0.281 0.688-0.719-1.688-0.281 0.625-0.688-1.625-0.281 0.688-0.719-1.688-0.281 0.688-0.719-1.688-0.281 0.688-0.719-1.688-0.281 0.688-0.719-1.656-0.281 0.688-0.719-1.688-0.281 0.688-0.719-1.688-0.281 0.625-0.688-1.625-0.281 0.688-0.719-1.688-0.281 0.688-0.719-1.688-0.281 0.688-0.719-1.688-0.281 0.688-0.719-1.656-0.281 0.688-0.719-1.688-0.281 0.625-0.688-1.625-0.281 0.688-0.719-1.688-0.281 0.688-0.719-1.688-0.281 0.688-0.719-1.688-0.281 0.688-0.719-1.656-0.281 0.688-0.719-1.688-0.281 0.625-0.688-1.625-0.281 0.688-0.719-1.688-0.281 0.688-0.719-1.688-0.281 0.688-0.719-1.688-0.281 0.688-0.719-1.656-0.281 0.688-0.719-1.688-0.281 0.625-0.688-1.625-0.281 0.688-0.719-1.688-0.281 0.688-0.719-1.688-0.281 0.688-0.719-1.688-0.281 0.688-0.719-1.656-0.281 0.688-0.719-1.688-0.281 0.688-0.719-1.688-0.281 0.625-0.688-1.625-0.281 0.688-0.719-1.688-0.281 0.688-0.719-1.688-0.281 0.688-0.719-1.688-0.281 0.688-0.719-1.656-0.281 0.688-0.719-1.688-0.281 0.625-0.688-1.625-0.281 0.688-0.719-1.688-0.281 0.688-0.719-1.688-0.281 0.688-0.719-1.688-0.281 0.688-0.719-1.656-0.281 0.688-0.719-1.688-0.281 0.625-0.688-1.625-0.281 0.688-0.719-1.688-0.281 0.688-0.719-1.688-0.281 0.688-0.719-1.688-0.281 0.688-0.719-1.656-0.281 0.688-0.719-1.688-0.281 0.688-0.719-1.688-0.281 0.625-0.688-1.625-0.281 0.688-0.719-1.688-0.281 0.688-0.719-1.688-0.281 0.688-0.719-1.688-0.281 0.688-0.719-1.656-0.281 0.688-0.719-1.688-0.281 0.625-0.688-1.625-0.281 0.688-0.719-1.688-0.281 0.688-0.719-1.688-0.281 0.688-0.719-1.688-0.281 0.688-0.719-1.656-0.281 0.688-0.719-1.688-0.281 0.625-0.688-1.625-0.281 0.688-0.719-1.688-0.281 0.688-0.719-1.688-0.281 0.688-0.719-1.688-0.281 0.688-0.719-1.656-0.281 0.688-0.719-1.688-0.281 0.625-0.688-1.625-0.281 0.688-0.719-1.688-0.281 0.688-0.719-1.688-0.281 0.688-0.719-1.688-0.281 0.688-0.719-1.656-0.281 0.688-0.719-1.688-0.281 0.688-0.719-1.688-0.281 0.625-0.688-1.625-0.281 0.688-0.719-1.688-0.281 0.688-0.719-1.688-0.281 0.688-0.719-1.688-0.281 0.688-0.719-1.656-0.281 0.688-0.719-1.688-0.281 0.625-0.688-1.625-0.281 0.688-0.719-1.688-0.281 0.688-0.719-1.688-0.281 0.688-0.719-1.688-0.281 0.688c-0.008-0.019-0.719-1.656-0.719-1.656l-0.281 0.688-0.719-1.688-0.281 0.625c-0.008-0.018-0.688-1.625-0.688-1.625l-0.281 0.688-0.719-1.688-0.281 0.688-0.719-1.688-0.281 0.688-0.719-1.688-0.281 0.688c-0.008-0.019-0.719-1.656-0.719-1.656l-0.281 0.688-0.719-1.688-0.281 0.688-0.719-1.688-0.281 0.625c-0.008-0.018-0.688-1.625-0.688-1.625l-0.281 0.688-0.719-1.688-0.281 0.688-0.719-1.688-0.281 0.688-0.719-1.688-0.281 0.688c-0.008-0.019-0.719-1.656-0.719-1.656l-0.281 0.688-0.719-1.688-0.281 0.625c-0.008-0.018-0.688-1.625-0.688-1.625l-0.281 0.688-0.719-1.688-0.281 0.688-0.719-1.688-0.281 0.688-0.719-1.688-0.281 0.688c-0.008-0.019-0.719-1.656-0.719-1.656l-0.281 0.688-0.719-1.688-0.281 0.625c-0.008-0.018-0.688-1.625-0.688-1.625l-0.281 0.688-0.719-1.688-0.281 0.688-0.719-1.688-0.281 0.688-0.719-1.688-0.281 0.688c-0.008-0.019-0.719-1.656-0.719-1.656l-0.281 0.688-0.719-1.688-0.281 0.625c-0.008-0.018-0.688-1.625-0.688-1.625l-0.281 0.688-0.719-1.688-0.281 0.688-0.719-1.688-0.281 0.688-0.719-1.688-0.281 0.688-0.719-1.656-0.281 0.688-0.719-1.688-0.281 0.688-0.719-1.688-0.281 0.625-0.688-1.625-0.281 0.688-0.719-1.688-0.281 0.688-0.719-1.688-0.281 0.688-0.719-1.688-0.281 0.688-0.719-1.656-0.281 0.688-0.719-1.688-0.281 0.625-0.688-1.625-0.281 0.688-0.719-1.688-0.281 0.688-0.719-1.688-0.281 0.688-0.719-1.688-0.281 0.688-0.719-1.656-0.281 0.688-0.719-1.688-0.281 0.625c-0.008-0.018-0.688-1.625-0.688-1.625l-0.281 0.688-0.719-1.688-0.281 0.688-0.719-1.688-0.281 0.688-0.719-1.688-0.281 0.688c-0.008-0.019-0.719-1.656-0.719-1.656l-0.281 0.688-0.719-1.688-0.281 0.688-0.719-1.688-0.281 0.625c-0.008-0.018-0.688-1.625-0.688-1.625l-0.281 0.688-0.719-1.688-0.281 0.688-0.719-1.688-0.281 0.688c-0.008-0.019-0.719-1.656-0.719-1.656l-0.281 0.688-0.719-1.688-0.281 0.688-0.719-1.688-0.281 0.625c-0.008-0.018-0.688-1.625-0.688-1.625l-0.281 0.688-0.719-1.688-0.281 0.688-0.719-1.688-0.281 0.688-0.719-1.688-0.281 0.688-0.719-1.656-0.281 0.688-0.719-1.688-0.281 0.625c-0.008-0.018-0.688-1.625-0.688-1.625l-0.281 0.688-0.719-1.688-0.281 0.688-0.719-1.688-0.281 0.688-0.719-1.688-0.281 0.688-0.719-1.656-0.281 0.688-0.719-1.688-0.281 0.625c-0.008-0.018-0.688-1.625-0.688-1.625l-0.281 0.688-0.719-1.688-0.281 0.688-0.719-1.688-0.281 0.688-0.719-1.688" fill-opacity="0.235" id="path6"/>
 <g fill-rule="evenodd" id="g8">
  <path d="m256 1c-140.83 0-255 114.17-255 255s114.17 255 255 255 255-114.17 255-255-114.17-255-255-255m8.827 44.931c120.9 0 218.9 98 218.9 218.9s-98 218.9-218.9 218.9-218.93-98-218.93-218.9 98.03-218.9 218.93-218.9" fill-opacity="0.067" id="path10"/>
  <g fill-opacity="0.129" id="g12">
   <path d="m256 4.433c-138.94 0-251.57 112.63-251.57 251.57s112.63 251.57 251.57 251.57 251.57-112.63 251.57-251.57-112.63-251.57-251.57-251.57m5.885 38.556c120.9 0 218.9 98 218.9 218.9s-98 218.9-218.9 218.9-218.93-98-218.93-218.9 98.03-218.9 218.93-218.9" id="path14"/>
   <path d="m256 8.356c-136.77 0-247.64 110.87-247.64 247.64s110.87 247.64 247.64 247.64 247.64-110.87 247.64-247.64-110.87-247.64-247.64-247.64m2.942 31.691c120.9 0 218.9 98 218.9 218.9s-98 218.9-218.9 218.9-218.93-98-218.93-218.9 98.03-218.9 218.93-218.9" id="path16"/>
  </g>
  <path fill="#ffffff" stroke-width="4.904" stroke="#000000" stroke-opacity="0.31" d="m253.04 7.859c-135.42 0-245.19 109.78-245.19 245.19 0 135.42 109.78 245.19 245.19 245.19 135.42 0 245.19-109.78 245.19-245.19 0-135.42-109.78-245.19-245.19-245.19zm0 26.297c120.9 0 218.9 98 218.9 218.9s-98 218.9-218.9 218.9-218.93-98-218.93-218.9 98.03-218.9 218.93-218.9z" id="path18"/>
 </g>
 <text font-family="Gentium Book Basic" x="729.64" y="231.36" line-height="125%" font-size="129.23" id="text20" word-spacing="0" letter-spacing="0"><tspan x="729.64" y="231.36" id="tspan22"/>
 </text>
 <text font-family="Arial" x="378.91" y="579.25" transform="scale(4.0128 .2492)" font-size="46.954" id="text24" text-anchor="middle"/>
 <text font-family="Gentium Book Basic" x="1310.91" y="151.36" line-height="125%" font-size="129.23" id="text26" word-spacing="0" letter-spacing="0"><tspan x="1310.91" y="151.36" id="tspan28"/>
 </text>
 <text font-family="Arial" x="523.76" y="258.22" transform="scale(4.0128 .2492)" font-size="46.954" id="text30" text-anchor="middle"/>
 <text font-family="Gentium Book Basic" x="239.33" y="-29.901" line-height="125%" font-size="129.23" id="text32" word-spacing="0" letter-spacing="0"><tspan x="239.33" y="-29.901" id="tspan34"/>
 </text>
 <text font-family="Arial" x="256.72" y="-469.14" transform="scale(4.0128 .2492)" font-size="46.954" id="text36" text-anchor="middle"/>
 <text font-family="Gentium Book Basic" x="1337.38" y="-246.37" line-height="125%" font-size="129.23" id="text38" word-spacing="0" letter-spacing="0"><tspan x="1337.38" y="-246.37" id="tspan40"/>
 </text>
 <text font-family="Arial" x="530.36" y="-1337.81" transform="scale(4.0128 .2492)" font-size="46.954" id="text42" text-anchor="middle"/>
 <text font-family="Gentium Book Basic" x="1918.65" y="-326.38" line-height="125%" font-size="129.23" id="text44" word-spacing="0" letter-spacing="0"><tspan x="1918.65" y="-326.38" id="tspan46"/>
 </text>
 <text font-family="Arial" x="675.21" y="-1658.85" transform="scale(4.0128 .2492)" font-size="46.954" id="text48" text-anchor="middle"/>
 <text font-family="Gentium Book Basic" x="1529.53" y="-798.78" line-height="125%" font-size="129.23" id="text50" word-spacing="0" letter-spacing="0"><tspan x="1529.53" y="-798.78" id="tspan52"/>
 </text>
 <text font-family="Arial" x="578.24" y="-3554.51" transform="scale(4.0128 .2492)" font-size="46.954" id="text54" text-anchor="middle"/>
 <text font-family="Gentium Book Basic" x="2110.79" y="-878.78" line-height="125%" font-size="129.23" id="text56" word-spacing="0" letter-spacing="0"><tspan x="2110.79" y="-878.78" id="tspan58"/>
 </text>
 <text font-family="Arial" x="723.09" y="-3875.54" transform="scale(4.0128 .2492)" font-size="46.954" id="text60" text-anchor="middle"/>
 <text font-family="Gentium Book Basic" x="277.99" y="535.94" line-height="125%" font-size="208.33" id="text62" word-spacing="0" letter-spacing="0"><tspan x="277.99" y="535.94" id="tspan64"/>
 </text>
 <path d="m256 83.14-124 290.98 124-35.85 124 35.85-124-290.98" fill="#ffffff" id="path66"/>
</svg>
