<?xml version="1.0" encoding="UTF-8" standalone="no"?>
<svg xmlns="http://www.w3.org/2000/svg" xmlns:sodipodi="http://sodipodi.sourceforge.net/DTD/sodipodi-0.dtd" xmlns:inkscape="http://www.inkscape.org/namespaces/inkscape" viewBox="0 0 512 512" version="1.1" width="512" height="512">
 <metadata id="metadata166"/>
 <text id="text4" line-height="125%" font-family="Gentium Book Basic" x="729.64" y="231.36" font-size="129.23" word-spacing="0" letter-spacing="0"><tspan id="tspan6" x="729.64" y="231.36"/>
 </text>
 <text id="text8" font-family="Arial" x="378.91" y="579.26" font-size="46.954" transform="scale(4.0128.2492)" text-anchor="middle"/>
 <text id="text10" line-height="125%" font-family="Gentium Book Basic" x="1310.91" y="151.36" font-size="129.23" word-spacing="0" letter-spacing="0"><tspan id="tspan12" x="1310.91" y="151.36"/>
 </text>
 <text id="text14" font-family="Arial" x="523.76" y="258.22" font-size="46.954" transform="scale(4.0128.2492)" text-anchor="middle"/>
 <text id="text16" line-height="125%" font-family="Gentium Book Basic" x="239.33" y="-29.9" font-size="129.23" word-spacing="0" letter-spacing="0"><tspan id="tspan18" x="239.33" y="-29.9"/>
 </text>
 <text id="text20" font-family="Arial" x="256.72" y="-469.13" font-size="46.954" transform="scale(4.0128.2492)" text-anchor="middle"/>
 <text id="text22" line-height="125%" font-family="Gentium Book Basic" x="1337.38" y="-246.37" font-size="129.23" word-spacing="0" letter-spacing="0"><tspan id="tspan24" x="1337.38" y="-246.37"/>
 </text>
 <text id="text26" font-family="Arial" x="530.36" y="-1337.8" font-size="46.954" transform="scale(4.0128.2492)" text-anchor="middle"/>
 <text id="text28" line-height="125%" font-family="Gentium Book Basic" x="1918.65" y="-326.37" font-size="129.23" word-spacing="0" letter-spacing="0"><tspan id="tspan30" x="1918.65" y="-326.37"/>
 </text>
 <text id="text32" font-family="Arial" x="675.21" y="-1658.83" font-size="46.954" transform="scale(4.0128.2492)" text-anchor="middle"/>
 <text id="text34" line-height="125%" font-family="Gentium Book Basic" x="1529.53" y="-798.77" font-size="129.23" word-spacing="0" letter-spacing="0"><tspan id="tspan36" x="1529.53" y="-798.77"/>
 </text>
 <text id="text38" font-family="Arial" x="578.24" y="-3554.48" font-size="46.954" transform="scale(4.0128.2492)" text-anchor="middle"/>
 <text id="text40" line-height="125%" font-family="Gentium Book Basic" x="2110.79" y="-878.78" font-size="129.23" word-spacing="0" letter-spacing="0"><tspan id="tspan42" x="2110.79" y="-878.78"/>
 </text>
 <text id="text44" font-family="Arial" x="723.09" y="-3875.52" font-size="46.954" transform="scale(4.0128.2492)" text-anchor="middle"/>
 <g id="g46" line-height="125%" word-spacing="0" letter-spacing="0">
  <text id="text48" font-family="Gentium Book Basic" font-size="208.33" x="277.99" y="535.94"><tspan id="tspan50" x="277.99" y="535.94"/>
  </text>
  <text id="text52" font-family="&apos;Gentium Book Basic&apos;" font-size="129.23" x="729.64" y="231.36"><tspan id="tspan54" x="729.64" y="231.36"/>
  </text>
 </g>
 <text id="text56" font-family="Arial" x="378.91" y="579.26" font-size="46.954" transform="scale(4.0128.2492)" text-anchor="middle"/>
 <text id="text58" line-height="125%" font-family="&apos;Gentium Book Basic&apos;" x="1310.91" y="151.36" font-size="129.23" word-spacing="0" letter-spacing="0"><tspan id="tspan60" x="1310.91" y="151.36"/>
 </text>
 <text id="text62" font-family="Arial" x="523.76" y="258.22" font-size="46.954" transform="scale(4.0128.2492)" text-anchor="middle"/>
 <text id="text64" line-height="125%" font-family="&apos;Gentium Book Basic&apos;" x="239.33" y="-29.9" font-size="129.23" word-spacing="0" letter-spacing="0"><tspan id="tspan66" x="239.33" y="-29.9"/>
 </text>
 <text id="text68" font-family="Arial" x="256.72" y="-469.13" font-size="46.954" transform="scale(4.0128.2492)" text-anchor="middle"/>
 <text id="text70" line-height="125%" font-family="&apos;Gentium Book Basic&apos;" x="1337.38" y="-246.37" font-size="129.23" word-spacing="0" letter-spacing="0"><tspan id="tspan72" x="1337.38" y="-246.37"/>
 </text>
 <text id="text74" font-family="Arial" x="530.36" y="-1337.8" font-size="46.954" transform="scale(4.0128.2492)" text-anchor="middle"/>
 <text id="text76" line-height="125%" font-family="&apos;Gentium Book Basic&apos;" x="1918.65" y="-326.37" font-size="129.23" word-spacing="0" letter-spacing="0"><tspan id="tspan78" x="1918.65" y="-326.37"/>
 </text>
 <text id="text80" font-family="Arial" x="675.21" y="-1658.83" font-size="46.954" transform="scale(4.0128.2492)" text-anchor="middle"/>
 <text id="text82" line-height="125%" font-family="&apos;Gentium Book Basic&apos;" x="1529.53" y="-798.77" font-size="129.23" word-spacing="0" letter-spacing="0"><tspan id="tspan84" x="1529.53" y="-798.77"/>
 </text>
 <text id="text86" font-family="Arial" x="578.24" y="-3554.48" font-size="46.954" transform="scale(4.0128.2492)" text-anchor="middle"/>
 <text id="text88" line-height="125%" font-family="&apos;Gentium Book Basic&apos;" x="2110.79" y="-878.78" font-size="129.23" word-spacing="0" letter-spacing="0"><tspan id="tspan90" x="2110.79" y="-878.78"/>
 </text>
 <text id="text92" font-family="Arial" x="723.09" y="-3875.52" font-size="46.954" transform="scale(4.0128.2492)" text-anchor="middle"/>
 <text id="text94" line-height="125%" font-family="&apos;Gentium Book Basic&apos;" x="277.99" y="535.94" font-size="208.33" word-spacing="0" letter-spacing="0"><tspan id="tspan96" x="277.99" y="535.94"/>
 </text>
 <path id="path98" fill="#898989" d="m471.95 253.05c0 120.9-98.01 218.9-218.9 218.9-120.9 0-218.9-98.01-218.9-218.9 0-120.9 98.01-218.9 218.9-218.9 120.9 0 218.9 98.01 218.9 218.9" fill-rule="evenodd"/>
 <path id="path100" fill-opacity="0.235" d="m264.16 105.94c-38.961 0.212-78 27.516-81.78 69.47-5.413 29.648 13.12 50.53 33.16 68.5 10.05 12.425 35.552 30.789 35.969 39.5-36.19 1.456-79.78 14.991-91.87 53.25-5.748 17.383 1.555 32.32 12.313 45.16 29.795 29.44 60.04 59.778 90.09 89.94 116.73-4.716 209.91-100.8 209.91-218.69 0-9.955-0.651-19.773-1.938-29.375-44.638-44.891-72.1-72.911-116.69-117.5-25.629-0.065-59.746-0.131-85.37-0.188-1.255-0.05-2.524-0.069-3.781-0.063"/>
 <g id="g102" fill-rule="evenodd">
  <path id="path104" fill-opacity="0.067" d="m256 1c-140.83 0-255 114.17-255 255s114.17 255 255 255 255-114.17 255-255-114.17-255-255-255m8.827 44.931c120.9 0 218.9 98 218.9 218.9s-98 218.9-218.9 218.9-218.93-98-218.93-218.9 98.03-218.9 218.93-218.9"/>
  <g id="g106" fill-opacity="0.129">
   <path id="path108" d="m256 4.433c-138.94 0-251.57 112.63-251.57 251.57s112.63 251.57 251.57 251.57 251.57-112.63 251.57-251.57-112.63-251.57-251.57-251.57m5.885 38.556c120.9 0 218.9 98 218.9 218.9s-98 218.9-218.9 218.9-218.93-98-218.93-218.9 98.03-218.9 218.93-218.9"/>
   <path id="path110" d="m256 8.356c-136.77 0-247.64 110.87-247.64 247.64s110.87 247.64 247.64 247.64 247.64-110.87 247.64-247.64-110.87-247.64-247.64-247.64m2.942 31.691c120.9 0 218.9 98 218.9 218.9s-98 218.9-218.9 218.9-218.93-98-218.93-218.9 98.03-218.9 218.93-218.9"/>
  </g>
  <path id="path112" fill="#ffffff" stroke-opacity="0.31" d="m253.04 7.859c-135.42 0-245.19 109.78-245.19 245.19 0 135.42 109.78 245.19 245.19 245.19 135.42 0 245.19-109.78 245.19-245.19 0-135.42-109.78-245.19-245.19-245.19zm0 26.297c120.9 0 218.9 98 218.9 218.9s-98 218.9-218.9 218.9-218.93-98-218.93-218.9 98.03-218.9 218.93-218.9z" stroke-width="4.904" stroke="#000000"/>
 </g>
 <text id="text114" line-height="125%" font-family="&apos;Gentium Book Basic&apos;" x="729.64" y="231.36" font-size="129.23" word-spacing="0" letter-spacing="0"><tspan id="tspan116" x="729.64" y="231.36"/>
 </text>
 <text id="text118" font-family="Arial" x="378.91" y="579.25" font-size="46.954" transform="scale(4.0128.2492)" text-anchor="middle"/>
 <text id="text120" line-height="125%" font-family="&apos;Gentium Book Basic&apos;" x="1310.91" y="151.36" font-size="129.23" word-spacing="0" letter-spacing="0"><tspan id="tspan122" x="1310.91" y="151.36"/>
 </text>
 <text id="text124" font-family="Arial" x="523.76" y="258.22" font-size="46.954" transform="scale(4.0128.2492)" text-anchor="middle"/>
 <text id="text126" line-height="125%" font-family="&apos;Gentium Book Basic&apos;" x="239.33" y="-29.901" font-size="129.23" word-spacing="0" letter-spacing="0"><tspan id="tspan128" x="239.33" y="-29.901"/>
 </text>
 <text id="text130" font-family="Arial" x="256.72" y="-469.14" font-size="46.954" transform="scale(4.0128.2492)" text-anchor="middle"/>
 <text id="text132" line-height="125%" font-family="&apos;Gentium Book Basic&apos;" x="1337.38" y="-246.37" font-size="129.23" word-spacing="0" letter-spacing="0"><tspan id="tspan134" x="1337.38" y="-246.37"/>
 </text>
 <text id="text136" font-family="Arial" x="530.36" y="-1337.8" font-size="46.954" transform="scale(4.0128.2492)" text-anchor="middle"/>
 <text id="text138" line-height="125%" font-family="&apos;Gentium Book Basic&apos;" x="1918.65" y="-326.38" font-size="129.23" word-spacing="0" letter-spacing="0"><tspan id="tspan140" x="1918.65" y="-326.38"/>
 </text>
 <text id="text142" font-family="Arial" x="675.21" y="-1658.84" font-size="46.954" transform="scale(4.0128.2492)" text-anchor="middle"/>
 <text id="text144" line-height="125%" font-family="&apos;Gentium Book Basic&apos;" x="1529.53" y="-798.78" font-size="129.23" word-spacing="0" letter-spacing="0"><tspan id="tspan146" x="1529.53" y="-798.78"/>
 </text>
 <text id="text148" font-family="Arial" x="578.24" y="-3554.49" font-size="46.954" transform="scale(4.0128.2492)" text-anchor="middle"/>
 <text id="text150" line-height="125%" font-family="&apos;Gentium Book Basic&apos;" x="2110.79" y="-878.78" font-size="129.23" word-spacing="0" letter-spacing="0"><tspan id="tspan152" x="2110.79" y="-878.78"/>
 </text>
 <text id="text154" font-family="Arial" x="723.09" y="-3875.52" font-size="46.954" transform="scale(4.0128.2492)" text-anchor="middle"/>
 <text id="text156" line-height="125%" font-family="&apos;Gentium Book Basic&apos;" x="277.99" y="535.94" font-size="208.33" word-spacing="0" letter-spacing="0"><tspan id="tspan158" x="277.99" y="535.94"/>
 </text>
 <path id="path160" fill="#ffffff" d="m267.94 106c-3.55-0.001-11.882 0.192-21.815 1.996-23.478 4.247-55.936 19.747-65.12 52.03-14.205 49.93 22.372 69.762 22.372 69.762s12.812 7.528 18.1 9c15.9 4.438 32.816 2.369 32.816 2.369s-6.745 22.332 6.777 38.11c3.228 3.766 0.883 3.899 0.883 3.899s-59.1-1.524-87.07 28.17c-27.978 29.7-12.811 57.04-12.811 57.04s14.66 35.743 77.931 37.55c63.55 1.813 102.86-35.827 106.29-64.24 1.727-14.281-0.224-27.66-7.38-39.36-6.958-11.38-18.915-21.18-30.588-30.727-7.253-5.934-12.298-8.981-15.549-12.393-3.071-3.223-3.59-7.375-3.481-10.49 0.16-4.35 2.442-9.684 10.07-18.52 13.917-16.12 17.445-14.11 25.853-26.18 2.519-3.617 4.375-8.894 6.962-16.756 1.56-4.736 1.3-9.638 1.3-14.203 0-9.869-2.369-19.272-6.312-27.2-7.327-14.732-19.903-24.295-20.14-25.02h22.05l24.972-14.621-84.24-0.224h-1.858zm-18.1 13.693c12.85 0.096 32.16 6.745 43.723 41.45 19.851 59.55-21.722 68.65-21.722 68.65s-47.638 7.336-56.39-45.626c-8.92-53.951 12.805-56.869 21.305-62.2 0 0 5.379-2.327 13.09-2.276zm26.317 175.45s37.928 23.25 41.495 40.29c3.996 19.09 4.265 32.997-24.693 48.23-8.549 4.496-23.553 5.02-33 5.059-23.22 0.096-40.764-8.84-49.43-13.321-4.505-2.33-29.525-30.425-11-55.56 4.66-6.322 9.823-9.125 14.621-12.347 10.21-6.855 20.233-10.05 39.13-11.697 6.285-0.549 14.659-0.096 22.883-0.651z"/>
</svg>
