<?xml version="1.0" encoding="UTF-8" standalone="no"?>
<svg xmlns="http://www.w3.org/2000/svg" xmlns:sodipodi="http://sodipodi.sourceforge.net/DTD/sodipodi-0.dtd" xmlns:inkscape="http://www.inkscape.org/namespaces/inkscape" height="512" viewBox="0 0 512 512" width="512" version="1.1">
 <metadata id="metadata90"/>
 <g fill-rule="evenodd" id="g24">
  <path d="m471.95 253.05c0 120.9-98.01 218.91-218.91 218.91s-218.91-98.01-218.91-218.91 98.01-218.91 218.91-218.91 218.91 98.01 218.91 218.91" fill="#6b6b6b" id="path26"/>
  <path d="m256 1c-140.83 0-255 114.17-255 255s114.17 255 255 255 255-114.17 255-255-114.17-255-255-255m8.827 44.931c120.9 0 218.9 98 218.9 218.9s-98 218.9-218.9 218.9-218.93-98-218.93-218.9 98.03-218.9 218.93-218.9" fill-opacity="0.067" id="path28"/>
  <g fill-opacity="0.129" id="g30">
   <path d="m256 4.43c-138.94 0-251.57 112.63-251.57 251.57s112.63 251.57 251.57 251.57 251.57-112.63 251.57-251.57-112.63-251.57-251.57-251.57m5.885 38.556c120.9 0 218.9 98 218.9 218.9s-98 218.9-218.9 218.9-218.93-98-218.93-218.9 98.03-218.9 218.93-218.9" id="path32"/>
   <path d="m256 8.36c-136.77 0-247.64 110.87-247.64 247.64s110.87 247.64 247.64 247.64 247.64-110.87 247.64-247.64-110.87-247.64-247.64-247.64m2.942 31.691c120.9 0 218.9 98 218.9 218.9s-98 218.9-218.9 218.9-218.93-98-218.93-218.9 98.03-218.9 218.93-218.9" id="path34"/>
  </g>
  <path fill="#ffffff" stroke-width="4.904" stroke="#000000" stroke-opacity="0.31" d="m253.04 7.86c-135.42 0-245.19 109.78-245.19 245.19 0 135.42 109.78 245.19 245.19 245.19 135.42 0 245.19-109.78 245.19-245.19 0-135.42-109.78-245.19-245.19-245.19zm0 26.297c120.9 0 218.9 98 218.9 218.9s-98 218.9-218.9 218.9-218.93-98-218.93-218.9 98.03-218.9 218.93-218.9z" id="path36"/>
 </g>
 <text font-family="Gentium Book Basic" x="729.64" y="231.36" line-height="125%" font-size="129.23" id="text38" word-spacing="0" letter-spacing="0"><tspan x="729.64" y="231.36" id="tspan40"/>
 </text>
 <text font-family="Arial" x="378.91" y="579.26" transform="scale(4.0128 .2492)" font-size="46.954" id="text42" text-anchor="middle"/>
 <text font-family="Gentium Book Basic" x="1310.91" y="151.36" line-height="125%" font-size="129.23" id="text44" word-spacing="0" letter-spacing="0"><tspan x="1310.91" y="151.36" id="tspan46"/>
 </text>
 <text font-family="Arial" x="523.76" y="258.22" transform="scale(4.0128 .2492)" font-size="46.954" id="text48" text-anchor="middle"/>
 <text font-family="Gentium Book Basic" x="239.33" y="-29.9" line-height="125%" font-size="129.23" id="text50" word-spacing="0" letter-spacing="0"><tspan x="239.33" y="-29.9" id="tspan52"/>
 </text>
 <text font-family="Arial" x="256.72" y="-469.13" transform="scale(4.0128 .2492)" font-size="46.954" id="text54" text-anchor="middle"/>
 <text font-family="Gentium Book Basic" x="1337.38" y="-246.37" line-height="125%" font-size="129.23" id="text56" word-spacing="0" letter-spacing="0"><tspan x="1337.38" y="-246.37" id="tspan58"/>
 </text>
 <text font-family="Arial" x="530.36" y="-1337.8" transform="scale(4.0128 .2492)" font-size="46.954" id="text60" text-anchor="middle"/>
 <text font-family="Gentium Book Basic" x="1918.65" y="-326.37" line-height="125%" font-size="129.23" id="text62" word-spacing="0" letter-spacing="0"><tspan x="1918.65" y="-326.37" id="tspan64"/>
 </text>
 <text font-family="Arial" x="675.21" y="-1658.83" transform="scale(4.0128 .2492)" font-size="46.954" id="text66" text-anchor="middle"/>
 <text font-family="Gentium Book Basic" x="1529.53" y="-798.77" line-height="125%" font-size="129.23" id="text68" word-spacing="0" letter-spacing="0"><tspan x="1529.53" y="-798.77" id="tspan70"/>
 </text>
 <text font-family="Arial" x="578.24" y="-3554.48" transform="scale(4.0128 .2492)" font-size="46.954" id="text72" text-anchor="middle"/>
 <text font-family="Gentium Book Basic" x="2110.79" y="-878.78" line-height="125%" font-size="129.23" id="text74" word-spacing="0" letter-spacing="0"><tspan x="2110.79" y="-878.78" id="tspan76"/>
 </text>
 <text font-family="Arial" x="723.09" y="-3875.52" transform="scale(4.0128 .2492)" font-size="46.954" id="text78" text-anchor="middle"/>
 <text font-family="Gentium Book Basic" x="277.99" y="535.94" line-height="125%" font-size="208.33" id="text80" word-spacing="0" letter-spacing="0"><tspan x="277.99" y="535.94" id="tspan82"/>
 </text>
 <path d="m246 125.34 121.59 121.63-4.313 4.969-121.94-121.94v72.844h-40.03l109.66 109.66-5.156 5.969-107.91-107.91 98.06 111.47 98.28 98.28c47.519-40.16 77.69-100.17 77.69-167.25 0-2.277-0.025-4.552-0.094-6.813l-116.25-116.25-4.656-4.656h-104.94m-134.34 162.34v22l24.406 24.438-24.406 9.25v21.281l104.09 104.13c12.12 2.079 24.572 3.188 37.28 3.188 28.981 0 56.653-5.646 81.969-15.875l-91.44-91.44h-17.781l-48.16-48.16-65.969-28.813" opacity="0.25" id="path84"/>
 <path d="m245.51 125.36a4.5565 4.5565 0 0 0 -4.1665 4.6473v72.834h-40.04a4.5565 4.5565 0 0 0 -3.4187 7.7188l98.09 111.48a4.5565 4.5565 0 0 0 6.8907 -0.16025l96.36-111.48a4.5565 4.5565 0 0 0 -3.4454 -7.5585h-40.2v-72.834a4.5565 4.5565 0 0 0 -4.6474 -4.6473h-104.94a4.5565 4.5565 0 0 0 -0.48075 0m-133.86 162.33v22.01l44.04 16.987-44.04 16.693v21.287l65.68-27.03 0.294-21.13-65.97-28.819m65.97 76.974v21.981h65.943v-21.981h-65.943" fill="#ffffff" id="path86"/>
</svg>
