<?xml version="1.0" encoding="UTF-8" standalone="no"?>
<svg
   xmlns:dc="http://purl.org/dc/elements/1.1/"
   xmlns:cc="http://creativecommons.org/ns#"
   xmlns:rdf="http://www.w3.org/1999/02/22-rdf-syntax-ns#"
   xmlns:svg="http://www.w3.org/2000/svg"
   xmlns="http://www.w3.org/2000/svg"
   xmlns:sodipodi="http://sodipodi.sourceforge.net/DTD/sodipodi-0.dtd"
   xmlns:inkscape="http://www.inkscape.org/namespaces/inkscape"
   height="512"
   viewBox="0 0 512 512"
   width="512"
   version="1.1"
   id="svg2"
   inkscape:version="0.91 r"
   sodipodi:docname="gweled.svg">
  <sodipodi:namedview
     pagecolor="#ffffff"
     bordercolor="#666666"
     borderopacity="1"
     objecttolerance="10"
     gridtolerance="10"
     guidetolerance="10"
     inkscape:pageopacity="0"
     inkscape:pageshadow="2"
     inkscape:window-width="445"
     inkscape:window-height="413"
     id="namedview14"
     showgrid="false"
     inkscape:zoom="0.4609375"
     inkscape:cx="256"
     inkscape:cy="256"
     inkscape:window-x="0"
     inkscape:window-y="0"
     inkscape:window-maximized="0"
     inkscape:current-layer="svg2" />
  <defs
     id="defs16" />
  <metadata
     id="metadata72">
    <rdf:RDF>
      <cc:Work
         rdf:about="">
        <dc:format>image/svg+xml</dc:format>
        <dc:type
           rdf:resource="http://purl.org/dc/dcmitype/StillImage" />
      </cc:Work>
    </rdf:RDF>
  </metadata>
  <g
     fill-rule="evenodd"
     id="g4">
    <path
       d="m471.95 253.05c0 120.9-98.01 218.9-218.9 218.9-120.9 0-218.9-98.01-218.9-218.9 0-120.9 98.01-218.9 218.9-218.9 120.9 0 218.9 98.01 218.9 218.9"
       fill="#848484"
       id="path6" />
    <path
       d="m182.56 129.28-2.531 2.375-55.16 52.719c-0.042 0.041-5.375 5.219-5.375 5.219l4.406 6.094 127.56 177.13 7.125 9.906 0.063-0.094 0.438 0.594 0.063-0.094 0.438 0.594 0.063-0.094 0.438 0.594 0.063-0.094 0.438 0.594 0.063-0.094 0.406 0.594 0.063-0.094c0.049 0.068 0.438 0.594 0.438 0.594s0.061-0.092 0.063-0.094c0.049 0.068 0.438 0.594 0.438 0.594s0.061-0.092 0.063-0.094c0.049 0.068 0.438 0.594 0.438 0.594s0.091-0.122 0.094-0.125c0.047 0.065 0.406 0.594 0.406 0.594s0.061-0.092 0.063-0.094c0.049 0.068 0.438 0.594 0.438 0.594s0.061-0.092 0.063-0.094c0.049 0.068 0.438 0.594 0.438 0.594s0.061-0.092 0.063-0.094c0.049 0.068 0.438 0.594 0.438 0.594s0.061-0.092 0.063-0.094c0.049 0.068 0.438 0.594 0.438 0.594s0.061-0.092 0.063-0.094c0.049 0.068 0.438 0.594 0.438 0.594s0.061-0.092 0.063-0.094c0.049 0.068 0.438 0.594 0.438 0.594s0.061-0.092 0.063-0.094c0.049 0.068 0.438 0.594 0.438 0.594s0.061-0.092 0.063-0.094c0.049 0.068 0.438 0.594 0.438 0.594s0.061-0.092 0.063-0.094c0.049 0.068 0.438 0.594 0.438 0.594s0.061-0.092 0.063-0.094c0.049 0.068 0.438 0.594 0.438 0.594s0.061-0.092 0.063-0.094c0.049 0.068 0.438 0.594 0.438 0.594s0.061-0.092 0.063-0.094c0.049 0.068 0.438 0.594 0.438 0.594s0.061-0.092 0.063-0.094c0.049 0.068 0.438 0.594 0.438 0.594s0.061-0.092 0.063-0.094c0.049 0.068 0.438 0.594 0.438 0.594s0.061-0.092 0.063-0.094c0.049 0.068 0.438 0.594 0.438 0.594s0.061-0.092 0.063-0.094c0.049 0.068 0.438 0.594 0.438 0.594s0.061-0.092 0.063-0.094c0.049 0.068 0.438 0.594 0.438 0.594s0.061-0.092 0.063-0.094c0.049 0.068 0.438 0.594 0.438 0.594s0.061-0.092 0.063-0.094c0.049 0.068 0.438 0.594 0.438 0.594s0.061-0.092 0.063-0.094c0.049 0.068 0.438 0.594 0.438 0.594s0.061-0.092 0.063-0.094c0.046 0.065 0.406 0.594 0.406 0.594s0.061-0.092 0.063-0.094c0.049 0.068 0.438 0.594 0.438 0.594s0.061-0.092 0.063-0.094c0.049 0.068 0.438 0.594 0.438 0.594s0.061-0.092 0.063-0.094c0.049 0.068 0.438 0.594 0.438 0.594s0.091-0.122 0.094-0.125c0.048 0.067 0.405 0.591 0.406 0.594 0 0 0.061-0.092 0.063-0.094 0.049 0.068 0.438 0.594 0.438 0.594s0.061-0.092 0.063-0.094c0.049 0.068 0.438 0.594 0.438 0.594s0.061-0.092 0.063-0.094c0.049 0.068 0.438 0.594 0.438 0.594s0.061-0.092 0.063-0.094c0.049 0.068 0.438 0.594 0.438 0.594s0.061-0.092 0.063-0.094c0.049 0.068 0.438 0.594 0.438 0.594s0.061-0.092 0.063-0.094c0.049 0.068 0.438 0.594 0.438 0.594s0.061-0.092 0.063-0.094c0.049 0.068 0.438 0.594 0.438 0.594s0.061-0.092 0.063-0.094c0.049 0.068 0.438 0.594 0.438 0.594s0.061-0.092 0.063-0.094c0.049 0.068 0.438 0.594 0.438 0.594s0.061-0.092 0.063-0.094c0.049 0.068 0.438 0.594 0.438 0.594s0.061-0.092 0.063-0.094c0.049 0.068 0.438 0.594 0.438 0.594s0.061-0.092 0.063-0.094c0.049 0.068 0.438 0.594 0.438 0.594s0.061-0.092 0.063-0.094c0.049 0.068 0.438 0.594 0.438 0.594s0.061-0.092 0.063-0.094c0.049 0.068 0.438 0.594 0.438 0.594s0.061-0.092 0.063-0.094c0.049 0.068 0.438 0.594 0.438 0.594s0.061-0.092 0.063-0.094c0.049 0.068 0.438 0.594 0.438 0.594l0.063-0.094c0.049 0.068 0.438 0.594 0.438 0.594l0.063-0.094c0.049 0.068 0.438 0.594 0.438 0.594l0.063-0.094c0.049 0.068 0.438 0.594 0.438 0.594s0.061-0.092 0.063-0.094c0.049 0.068 0.438 0.594 0.438 0.594s0.061-0.092 0.063-0.094c0.046 0.065 0.406 0.594 0.406 0.594s0.061-0.092 0.063-0.094c0.049 0.068 0.438 0.594 0.438 0.594s0.061-0.092 0.063-0.094c0.049 0.068 0.438 0.594 0.438 0.594s0.061-0.092 0.063-0.094c0.049 0.068 0.438 0.594 0.438 0.594s0.061-0.092 0.063-0.094c0.049 0.068 0.438 0.594 0.438 0.594s0.091-0.122 0.094-0.125c0.047 0.065 0.406 0.594 0.406 0.594s0.061-0.092 0.063-0.094c0.049 0.068 0.438 0.594 0.438 0.594s0.061-0.092 0.063-0.094c0.049 0.068 0.438 0.594 0.438 0.594s0.061-0.092 0.063-0.094c0.049 0.068 0.438 0.594 0.438 0.594s0.061-0.092 0.063-0.094c0.049 0.068 0.438 0.594 0.438 0.594s0.061-0.092 0.063-0.094c0.049 0.068 0.438 0.594 0.438 0.594s0.061-0.092 0.063-0.094c0.049 0.068 0.438 0.594 0.438 0.594s0.061-0.092 0.063-0.094c0.049 0.068 0.438 0.594 0.438 0.594s0.061-0.092 0.063-0.094c0.049 0.068 0.438 0.594 0.438 0.594s0.061-0.092 0.063-0.094c0.049 0.068 0.438 0.594 0.438 0.594s0.061-0.092 0.063-0.094c0.049 0.068 0.438 0.594 0.438 0.594s0.061-0.092 0.063-0.094c0.049 0.068 0.438 0.594 0.438 0.594s0.061-0.092 0.063-0.094c0.049 0.068 0.438 0.594 0.438 0.594s0.061-0.092 0.063-0.094c0.049 0.068 0.438 0.594 0.438 0.594s0.061-0.092 0.063-0.094l0.438 0.594 0.063-0.094c0.049 0.068 0.438 0.594 0.438 0.594s0.061-0.092 0.063-0.094c0.049 0.068 0.438 0.594 0.438 0.594s0.061-0.092 0.063-0.094c0.049 0.068 0.438 0.594 0.438 0.594s0.061-0.092 0.063-0.094l0.438 0.594 0.063-0.094c0.049 0.068 0.438 0.594 0.438 0.594s0.061-0.092 0.063-0.094l0.406 0.594s0.061-0.092 0.063-0.094c0.049 0.068 0.438 0.594 0.438 0.594l0.063-0.094c0.049 0.068 0.438 0.594 0.438 0.594s0.061-0.092 0.063-0.094c0.049 0.068 0.438 0.594 0.438 0.594l0.063-0.094c0.049 0.068 0.438 0.594 0.438 0.594s0.091-0.122 0.094-0.125l0.406 0.594s0.061-0.092 0.063-0.094c0.049 0.068 0.438 0.594 0.438 0.594l0.063-0.094 0.438 0.594s0.061-0.092 0.063-0.094c0.049 0.068 0.438 0.594 0.438 0.594l0.063-0.094c0.049 0.068 0.438 0.594 0.438 0.594s0.061-0.092 0.063-0.094c0.049 0.068 0.438 0.594 0.438 0.594s0.061-0.092 0.063-0.094l0.438 0.594 0.063-0.094c0.049 0.068 0.438 0.594 0.438 0.594s0.061-0.092 0.063-0.094c0.049 0.068 0.438 0.594 0.438 0.594s0.061-0.092 0.063-0.094c0.049 0.068 0.438 0.594 0.438 0.594s0.061-0.092 0.063-0.094c0.049 0.068 0.438 0.594 0.438 0.594l0.063-0.094c0.049 0.068 0.438 0.594 0.438 0.594s0.061-0.092 0.063-0.094c0.049 0.068 0.438 0.594 0.438 0.594s0.061-0.092 0.063-0.094l0.438 0.594s0.061-0.092 0.063-0.094c0.049 0.068 0.438 0.594 0.438 0.594s0.061-0.092 0.063-0.094l0.438 0.594 0.063-0.094c0.049 0.068 0.438 0.594 0.438 0.594s0.061-0.092 0.063-0.094l0.438 0.594s0.061-0.092 0.063-0.094c0.049 0.068 0.438 0.594 0.438 0.594s0.061-0.092 0.063-0.094l0.438 0.594s0.061-0.092 0.063-0.094c0.046 0.065 0.406 0.594 0.406 0.594l0.063-0.094c0.049 0.068 0.438 0.594 0.438 0.594s0.061-0.092 0.063-0.094c0.049 0.068 0.438 0.594 0.438 0.594s0.061-0.092 0.063-0.094c0.049 0.068 0.438 0.594 0.438 0.594s0.061-0.092 0.063-0.094c0.049 0.068 0.438 0.594 0.438 0.594s0.091-0.122 0.094-0.125c0.046 0.065 0.406 0.594 0.406 0.594s0.061-0.092 0.063-0.094l0.438 0.594s0.061-0.092 0.063-0.094c0.049 0.068 0.438 0.594 0.438 0.594l0.063-0.094c0.049 0.068 0.438 0.594 0.438 0.594s0.061-0.092 0.063-0.094c0.049 0.068 0.438 0.594 0.438 0.594s0.061-0.092 0.063-0.094l0.438 0.594s0.061-0.092 0.063-0.094c0.049 0.068 0.438 0.594 0.438 0.594s0.061-0.092 0.063-0.094l0.438 0.594 0.063-0.094c0.049 0.068 0.438 0.594 0.438 0.594s0.061-0.092 0.063-0.094c0.049 0.068 0.438 0.594 0.438 0.594s0.061-0.092 0.063-0.094c0.049 0.068 0.438 0.594 0.438 0.594s0.061-0.092 0.063-0.094c0.049 0.068 0.438 0.594 0.438 0.594l0.063-0.094 0.438 0.594s0.061-0.092 0.063-0.094c0.049 0.068 0.438 0.594 0.438 0.594s0.061-0.092 0.063-0.094l0.438 0.594s0.061-0.092 0.063-0.094c0.049 0.068 0.438 0.594 0.438 0.594s0.061-0.092 0.063-0.094c0.049 0.068 0.438 0.594 0.438 0.594l0.063-0.094c0.049 0.068 0.438 0.594 0.438 0.594s0.061-0.092 0.063-0.094l0.438 0.594s0.061-0.092 0.063-0.094c0.049 0.068 0.438 0.594 0.438 0.594s0.061-0.092 0.063-0.094c0.046 0.065 0.406 0.594 0.406 0.594s0.061-0.092 0.063-0.094c0.049 0.068 0.438 0.594 0.438 0.594l0.063-0.094c0.049 0.068 0.438 0.594 0.438 0.594s0.061-0.092 0.063-0.094c0.049 0.068 0.438 0.594 0.438 0.594s0.061-0.092 0.063-0.094c0.049 0.068 0.438 0.594 0.438 0.594l0.094-0.125 0.406 0.594s0.061-0.092 0.063-0.094c0.049 0.068 0.438 0.594 0.438 0.594l0.063-0.094 0.438 0.594s0.061-0.092 0.063-0.094c0.049 0.068 0.438 0.594 0.438 0.594l0.063-0.094 0.438 0.594s0.061-0.092 0.063-0.094c0.049 0.068 0.438 0.594 0.438 0.594s0.061-0.092 0.063-0.094l0.438 0.594s0.061-0.092 0.063-0.094c0.049 0.068 0.438 0.594 0.438 0.594s0.061-0.092 0.063-0.094c0.049 0.068 0.438 0.594 0.438 0.594l0.063-0.094c0.049 0.068 0.438 0.594 0.438 0.594s0.061-0.092 0.063-0.094c0.049 0.068 0.438 0.594 0.438 0.594s0.061-0.092 0.063-0.094c0.049 0.068 0.438 0.594 0.438 0.594s0.061-0.092 0.063-0.094c0.049 0.068 0.438 0.594 0.438 0.594s0.061-0.092 0.063-0.094l0.438 0.594 0.063-0.094c0.043 0.06 0.303 0.434 0.375 0.531 76.71-30.04 132.33-102.13 138.53-187.91l-0.031-0.031-0.5-0.5-0.5-0.5-0.313-0.313-0.188-0.188-0.5-0.5-0.5-0.5-0.5-0.5-0.5-0.5-0.125-0.125-0.188-0.188-0.125-0.156-0.031-0.031-0.438-0.406-0.031-0.031-0.031-0.031v-0.031l-0.5-0.5-0.5-0.5-0.5-0.5-0.5-0.5-0.5-0.5-0.5-0.5-0.5-0.5-0.5-0.469-0.5-0.5-0.344-0.344-0.156-0.156-0.5-0.5-0.5-0.5-0.188-0.188-0.313-0.313-0.5-0.5-0.188-0.188-0.313-0.313-0.5-0.5-0.5-0.5-0.5-0.5-0.313-0.313-0.188-0.188-0.5-0.5-0.5-0.5-0.5-0.5-0.5-0.5-0.125-0.125-0.188-0.188-0.125-0.156-0.031-0.031-0.438-0.406-0.031-0.031-0.031-0.031v-0.031l-0.5-0.5-0.5-0.5-0.5-0.5-0.5-0.5-0.5-0.5-0.5-0.5-0.5-0.5-0.5-0.469-0.5-0.5-0.344-0.344-0.156-0.156-0.5-0.5-0.5-0.5-0.188-0.188-0.313-0.313-0.5-0.5-0.188-0.188-0.313-0.313-0.5-0.5-0.5-0.5-0.5-0.5-0.313-0.313-0.188-0.188-0.5-0.5-0.5-0.5-0.5-0.5-0.5-0.5-0.125-0.125-0.188-0.188-0.125-0.156-0.031-0.031-0.438-0.406-0.031-0.031-0.031-0.031v-0.031l-0.5-0.5-0.5-0.5-0.5-0.5-0.5-0.5-0.5-0.5-0.5-0.5-0.5-0.5-0.5-0.469-0.5-0.5-0.344-0.344-0.156-0.156-0.5-0.5-0.5-0.5-0.188-0.188-0.313-0.313-0.5-0.5-0.188-0.188-0.313-0.313-0.5-0.5-0.5-0.5-0.5-0.5-0.313-0.313-0.188-0.188-0.5-0.5-0.5-0.5-0.5-0.5-0.5-0.5-0.125-0.125-0.188-0.188-0.125-0.156-0.031-0.031-0.438-0.406-0.031-0.031-0.031-0.031v-0.031l-0.5-0.5-0.5-0.5-0.5-0.5-0.5-0.5-0.5-0.5-0.5-0.5-0.5-0.5-0.5-0.469-0.5-0.5-0.344-0.344-0.156-0.156-0.5-0.5-0.5-0.5-0.188-0.188-0.313-0.313-0.5-0.5-0.188-0.188-0.313-0.313-0.5-0.5-0.5-0.5-0.5-0.5-0.313-0.313-0.188-0.188-0.5-0.5-0.5-0.5-0.5-0.5-0.5-0.5-0.125-0.125-0.188-0.188-0.125-0.156-0.031-0.031-0.438-0.406-0.031-0.031-0.031-0.031v-0.031l-0.5-0.5-0.5-0.5-0.5-0.5-0.5-0.5-0.5-0.5-0.5-0.5-0.5-0.5-0.5-0.5-0.5-0.469-0.344-0.344-0.156-0.156-0.5-0.5-0.5-0.5-0.188-0.188-0.313-0.313-0.5-0.5-0.188-0.188-0.313-0.313-0.5-0.5-0.5-0.5-0.5-0.5-0.313-0.313-0.188-0.188-0.5-0.5-0.5-0.5-0.5-0.5-0.5-0.5-0.125-0.125-0.188-0.188-0.125-0.156-0.031-0.031-0.438-0.406-0.031-0.031-0.031-0.031v-0.031l-0.5-0.5-0.5-0.5-0.5-0.5-0.5-0.5-0.5-0.5-0.5-0.5-0.5-0.5-0.5-0.5-0.5-0.469-0.344-0.344-0.156-0.156-0.5-0.5-0.5-0.5-0.188-0.188-0.313-0.313-0.5-0.5-0.188-0.188-0.313-0.313-0.5-0.5-0.5-0.5-0.5-0.5-0.313-0.313-0.188-0.188-0.5-0.5-0.5-0.5-0.5-0.5-0.5-0.5-0.125-0.125-0.188-0.188-0.125-0.156-0.031-0.031-0.438-0.406-0.031-0.031-0.031-0.031v-0.031l-0.5-0.5-0.5-0.5-0.5-0.5-0.5-0.5-0.5-0.5-0.5-0.5-0.5-0.5-0.5-0.5-0.5-0.469-0.344-0.344-0.156-0.156-0.5-0.5-0.5-0.5-0.188-0.188-0.313-0.313-0.5-0.5-0.188-0.188-0.313-0.313-0.5-0.5-0.5-0.5-0.5-0.5-0.313-0.313-0.188-0.188-0.5-0.5-0.5-0.5-0.5-0.5-0.5-0.5-0.125-0.125-0.188-0.188-0.125-0.156-0.031-0.031-0.5-0.5-0.344-0.313-0.125-0.156-0.031-0.031-0.281-0.281-0.031-0.031-0.063-0.063-0.125-0.125-0.281-0.25-0.094-0.125-0.125-0.125-0.5-0.5-0.5-0.5-0.5-0.5-0.5-0.5-0.5-0.5-0.5-0.469-0.5-0.5-0.5-0.5-0.5-0.5-0.5-0.5-0.5-0.5-0.5-0.5-0.188-0.188-0.313-0.313-0.5-0.5-0.5-0.5-0.5-0.5-0.313-0.313-0.188-0.188-0.5-0.5-0.5-0.5-0.5-0.5-0.5-0.5-0.125-0.125-0.188-0.188-0.125-0.156-0.031-0.031-0.063-0.063h-0.031v-0.031h-0.031l-0.125-0.125-0.094-0.125-0.031-0.031-0.125-0.125-0.094-0.094h-0.031l-0.094-0.125-0.031-0.031-0.125-0.125-0.125-0.125-0.031-0.031h-0.031l-0.219-0.219-0.063-0.094-0.031-0.031-0.125-0.125-0.5-0.5-0.5-0.5-0.5-0.5-0.5-0.5-0.5-0.5-0.5-0.469-0.5-0.5-0.5-0.5-0.5-0.5-0.5-0.5-0.5-0.5-0.5-0.5-0.188-0.188-0.313-0.313-0.5-0.5-0.5-0.5-0.5-0.5-0.313-0.313-0.188-0.188-0.5-0.5-0.5-0.5-0.5-0.5-0.5-0.5-0.125-0.125-0.188-0.188-0.125-0.156-0.031-0.031-0.063-0.063h-0.031v-0.031h-0.031l-0.125-0.125-0.094-0.125-0.031-0.031-0.125-0.125-0.094-0.094h-0.031l-0.094-0.125-0.031-0.031-0.125-0.125-0.125-0.125-0.031-0.031h-0.031l-0.219-0.219-0.063-0.094-0.031-0.031-0.125-0.125-0.063-0.063h-0.031l-0.188-0.188-0.031-0.031-0.063-0.094-0.125-0.125-0.063-0.063h-0.031l-0.188-0.188-0.031-0.031-0.063-0.094-0.125-0.125-0.063-0.063h-0.031l-0.188-0.188-0.031-0.031-0.063-0.094-0.125-0.125-0.5-0.5-0.5-0.5-0.5-0.469-0.5-0.5-0.5-0.5-0.5-0.5-0.5-0.5-0.5-0.5-0.5-0.5-0.5-0.5-0.5-0.5-0.5-0.5-0.5-0.5-0.5-0.5-0.5-0.5-0.5-0.5-0.5-0.5-0.5-0.5-0.125-0.125-0.188-0.188-0.125-0.156-0.031-0.031-0.5-0.5-0.5-0.5-0.5-0.5-0.5-0.5-0.5-0.5-0.5-0.5-0.5-0.5-0.5-0.5-0.5-0.469-0.5-0.5-0.5-0.5-0.5-0.5-0.5-0.5-0.5-0.5-0.5-0.5-0.5-0.5-2.563-2.594h-149.06"
       fill-opacity="0.235"
       opacity="0.99"
       id="path8" />
    <path
       d="m256 1c-140.83 0-255 114.17-255 255s114.17 255 255 255 255-114.17 255-255-114.17-255-255-255m8.827 44.931c120.9 0 218.9 98 218.9 218.9s-98 218.9-218.9 218.9-218.93-98-218.93-218.9 98.03-218.9 218.93-218.9"
       fill-opacity="0.067"
       id="path10" />
    <g
       fill-opacity="0.129"
       id="g12">
      <path
         d="m256 4.433c-138.94 0-251.57 112.63-251.57 251.57s112.63 251.57 251.57 251.57 251.57-112.63 251.57-251.57-112.63-251.57-251.57-251.57m5.885 38.556c120.9 0 218.9 98 218.9 218.9s-98 218.9-218.9 218.9-218.93-98-218.93-218.9 98.03-218.9 218.93-218.9"
         id="path14" />
      <path
         d="m256 8.356c-136.77 0-247.64 110.87-247.64 247.64s110.87 247.64 247.64 247.64 247.64-110.87 247.64-247.64-110.87-247.64-247.64-247.64m2.942 31.691c120.9 0 218.9 98 218.9 218.9s-98 218.9-218.9 218.9-218.93-98-218.93-218.9 98.03-218.9 218.93-218.9"
         id="path16" />
    </g>
    <path
       fill="#ffffff"
       stroke-width="4.904"
       stroke="#000000"
       stroke-opacity="0.31"
       d="m253.04 7.859c-135.42 0-245.19 109.78-245.19 245.19 0 135.42 109.78 245.19 245.19 245.19 135.42 0 245.19-109.78 245.19-245.19 0-135.42-109.78-245.19-245.19-245.19zm0 26.297c120.9 0 218.9 98 218.9 218.9s-98 218.9-218.9 218.9-218.93-98-218.93-218.9 98.03-218.9 218.93-218.9z"
       id="path18" />
  </g>
  <path
     d="m182.55 129.29-2.513 2.374-55.15 52.71-5.376 5.236 4.398 6.074 127.55 177.12 7.121 9.914 6.982-9.984 122.8-176.42 4.119-5.934-5.096-5.096-53.2-53.41-2.583-2.583h-149.05"
     fill="#ffffff"
     fill-rule="evenodd"
     opacity="0.99"
     id="path66" />
</svg>
