<?xml version="1.0" encoding="UTF-8" standalone="no"?>
<svg xmlns="http://www.w3.org/2000/svg" xmlns:sodipodi="http://sodipodi.sourceforge.net/DTD/sodipodi-0.dtd" xmlns:inkscape="http://www.inkscape.org/namespaces/inkscape" height="512" viewBox="0 0 512 512" width="512" version="1.1">
 <metadata id="metadata78"/>
 <g transform="translate(0,-540.36)" id="g4">
  <path fill="#5a5a5a" fill-rule="evenodd" d="m471.95 793.41c0 120.9-98.01 218.9-218.9 218.9-120.9 0-218.9-98.01-218.9-218.9 0-120.9 98.01-218.9 218.9-218.9 120.9 0 218.9 98.01 218.9 218.9" id="path6"/>
  <path transform="translate(0,540.36)" fill-opacity="0.235" d="m254.13 133.47c-19.06 0-30.969 13.63-30.969 29.625 0 8.505 3.246 16.261 9.03 21.75 0.105 0.11 0.206 0.235 0.313 0.344 0.006 0.005 0.026-0.005 0.031 0 0.155 0.157 0.31 0.315 0.469 0.469 0.353 0.377 0.719 0.767 1.094 1.125 0.367 0.387 0.735 0.758 1.125 1.125 0.083 0.086 0.166 0.165 0.25 0.25 0.006 0.005 0.026-0.005 0.031 0 0.217 0.22 0.432 0.443 0.656 0.656 0.108 0.113 0.203 0.232 0.313 0.344 0.006 0.005 0.026-0.005 0.031 0 0.32 0.324 0.632 0.659 0.969 0.969 0.005 0.005-0.005 0.026 0 0.031 0.006 0.005 0.026-0.005 0.031 0 0.16 0.162 0.305 0.342 0.469 0.5 0.16 0.171 0.335 0.333 0.5 0.5 0.006 0.005 0.026-0.005 0.031 0 0.217 0.22 0.432 0.443 0.656 0.656 0.105 0.11 0.206 0.235 0.313 0.344 0.006 0.005 0.026-0.005 0.031 0 0.155 0.157 0.31 0.315 0.469 0.469 0.4 0.427 0.791 0.847 1.219 1.25 0.083 0.086 0.166 0.165 0.25 0.25 0.006 0.005 0.026-0.005 0.031 0 0.217 0.22 0.432 0.443 0.656 0.656 0.108 0.113 0.203 0.232 0.313 0.344 0.006 0.005 0.026-0.005 0.031 0 0.32 0.324 0.632 0.659 0.969 0.969 0.005 0.005-0.005 0.026 0 0.031 0.006 0.005 0.026-0.005 0.031 0 0.16 0.162 0.305 0.342 0.469 0.5 0.16 0.171 0.335 0.333 0.5 0.5 0.006 0.005 0.026-0.005 0.031 0 0.217 0.22 0.432 0.443 0.656 0.656 0.105 0.11 0.206 0.235 0.313 0.344 0.006 0.005 0.026-0.005 0.031 0 0.155 0.157 0.31 0.315 0.469 0.469 0.486 0.519 0.972 1.048 1.5 1.531 0.212 0.214 0.437 0.417 0.656 0.625 0.108 0.113 0.203 0.232 0.313 0.344 0.006 0.005 0.026-0.005 0.031 0 0.217 0.22 0.432 0.443 0.656 0.656 0.108 0.113 0.203 0.232 0.313 0.344 0.006 0.005 0.026-0.005 0.031 0 0.217 0.22 0.432 0.443 0.656 0.656 0.108 0.113 0.203 0.232 0.313 0.344 0.006 0.005 0.026-0.005 0.031 0 0.217 0.22 0.432 0.443 0.656 0.656 0.105 0.11 0.206 0.235 0.313 0.344 0.006 0.005 0.026-0.005 0.031 0 0.155 0.157 0.31 0.315 0.469 0.469 0.353 0.377 0.719 0.767 1.094 1.125 0.367 0.387 0.735 0.758 1.125 1.125 0.083 0.086 0.166 0.165 0.25 0.25 0.006 0.005 0.026-0.005 0.031 0 0.217 0.22 0.432 0.443 0.656 0.656 0.108 0.113 0.203 0.232 0.313 0.344 0.006 0.005 0.026-0.005 0.031 0 0.217 0.22 0.432 0.443 0.656 0.656 0.108 0.113 0.203 0.232 0.313 0.344 0.006 0.005 0.026-0.005 0.031 0 0.217 0.22 0.432 0.443 0.656 0.656 0.105 0.11 0.206 0.235 0.313 0.344 0.006 0.005 0.026-0.005 0.031 0 0.217 0.22 0.432 0.443 0.656 0.656l-47.844 6.813v12.25c0.008 0.001 0.84 0.133 1 0.156v0.844h0.063c0.007 0.001 0.796 0.105 0.938 0.125v0.875h0.094l0.906 0.125v0.875h0.156c0.006 0.001 0.703 0.109 0.813 0.125v0.844l0.25 0.031c0.006 0.001 0.656 0.08 0.75 0.094v0.875s0.312 0.063 0.313 0.063l0.688 0.094v0.844s0.343 0.062 0.344 0.063c0.005 0.001 0.582 0.083 0.656 0.094v0.844s0.406 0.063 0.406 0.063c0.005 0.001 0.532 0.085 0.594 0.094v0.844s0.468 0.062 0.469 0.063l0.531 0.063v0.875s0.531 0.063 0.531 0.063c0.003 0 0.402 0.057 0.438 0.063v0.844s0.593 0.094 0.594 0.094c0.003 0 0.375 0.058 0.406 0.063v0.844s0.656 0.094 0.656 0.094c0.003 0 0.321 0.059 0.344 0.063v0.844l0.719 0.094c0.002 0 0.266 0.029 0.281 0.031v0.875l0.781 0.094c0.002 0 0.209 0.03 0.219 0.031v0.875l0.813 0.125 0.188 0.031v0.844l0.875 0.125h0.094v0.844l0.969 0.156h0.031v0.844l1 0.156v0.844l1 0.156v0.844l1 0.125v0.875l0.188 0.031v99.19c0 14.293-2.727 15.667-22.12 16.688v12.938h1v1h1v1h1.001v1h0.969v0.969h1v1h1v1h1v1h1v1h1v1h0.969v0.969h1v1h1v1h1v1h1v1h1v1h0.969v0.969h1v1h1v1h1v1h1v1h1v1h0.969v0.969h1v1h1v1h1v1h1v1h1v1h1v1h0.969v0.969h1v1h1v1h1v1h1v1h1v1h0.969v0.969h1v1h1v1h1v1h1v1h1v1h0.969v0.969h1v1h1v1h1v1h1v1h1v1h1v1h0.969v0.969h1v1h1v1h1v1h1v1h1v1h0.969v0.969h1v1h1v1h1v1h1v1h1v1h0.969v0.969h1v1h1v1h1v1h1v1h1v1h0.969v0.969h1v1h1v1h1v1h1v1h1v1h1v1h0.969v0.969h1v1h1v1h1v1h1v1h1v1h0.969v0.969h1v1h1v1h1v1h1v1h1v1h0.969v0.969h1v1h1v1h1v1h1v1h1v0.281c75.68-15.707 137.02-70.5 162.03-142.31-0.378-0.402-0.754-0.805-1.156-1.188-0.323-0.34-0.658-0.675-1-1-0.318-0.335-0.633-0.649-0.969-0.969-0.482-0.507-0.978-0.995-1.5-1.469-0.01-0.011-0.021-0.02-0.031-0.031-0.322-0.322-0.629-0.661-0.969-0.969-0.478-0.53-0.979-1.036-1.5-1.531-0.323-0.34-0.658-0.675-1-1-0.318-0.335-0.633-0.649-0.969-0.969-0.482-0.507-0.978-0.995-1.5-1.469-0.01-0.011-0.021-0.02-0.031-0.031-0.322-0.322-0.629-0.661-0.969-0.969-0.478-0.53-0.979-1.036-1.5-1.531-0.323-0.34-0.658-0.675-1-1-0.154-0.162-0.311-0.31-0.469-0.469-0.162-0.179-0.333-0.356-0.5-0.531-0.171-0.163-0.325-0.341-0.5-0.5-0.005-0.005-0.026 0.005-0.031 0-0.614-0.677-1.285-1.318-1.969-1.938-0.478-0.53-0.979-1.036-1.5-1.531-0.323-0.34-0.658-0.675-1-1-0.482-0.507-0.946-1.027-1.469-1.5-0.005-0.005-0.026 0.005-0.031 0-0.614-0.677-1.285-1.318-1.969-1.938-0.01-0.011-0.021-0.02-0.031-0.031-0.322-0.322-0.629-0.661-0.969-0.969-0.478-0.53-0.979-1.036-1.5-1.531-0.323-0.34-0.658-0.675-1-1-0.318-0.335-0.633-0.649-0.969-0.969-0.482-0.507-0.978-0.995-1.5-1.469-0.01-0.011-0.021-0.02-0.031-0.031-0.322-0.322-0.629-0.661-0.969-0.969-0.478-0.53-0.979-1.036-1.5-1.531-0.323-0.34-0.658-0.675-1-1-0.482-0.507-0.946-1.027-1.469-1.5-0.005-0.005-0.026 0.005-0.031 0-0.614-0.677-1.285-1.318-1.969-1.938-0.478-0.53-0.979-1.036-1.5-1.531-0.323-0.34-0.658-0.675-1-1-0.154-0.162-0.311-0.31-0.469-0.469-0.162-0.179-0.333-0.356-0.5-0.531-0.171-0.163-0.325-0.341-0.5-0.5-0.005-0.005-0.026 0.005-0.031 0-0.614-0.677-1.285-1.318-1.969-1.938-0.01-0.011-0.021-0.02-0.031-0.031-0.322-0.322-0.629-0.661-0.969-0.969-0.478-0.53-0.979-1.036-1.5-1.531-0.323-0.34-0.658-0.675-1-1-0.318-0.335-0.633-0.649-0.969-0.969-0.482-0.507-0.978-0.995-1.5-1.469-0.01-0.011-0.021-0.02-0.031-0.031-0.322-0.322-0.629-0.661-0.969-0.969-0.478-0.53-0.979-1.036-1.5-1.531-0.323-0.34-0.658-0.675-1-1-0.318-0.335-0.633-0.649-0.969-0.969-0.482-0.507-0.978-0.995-1.5-1.469-0.01-0.011-0.021-0.02-0.031-0.031-0.322-0.322-0.629-0.661-0.969-0.969-0.478-0.53-0.979-1.036-1.5-1.531-0.323-0.34-0.658-0.675-1-1-0.154-0.162-0.311-0.31-0.469-0.469-0.162-0.179-0.333-0.356-0.5-0.531-0.171-0.163-0.325-0.341-0.5-0.5-0.005-0.005-0.026 0.005-0.031 0-0.614-0.677-1.285-1.318-1.969-1.938-0.478-0.53-0.979-1.036-1.5-1.531-0.323-0.34-0.658-0.675-1-1-0.154-0.162-0.311-0.31-0.469-0.469-0.162-0.179-0.333-0.356-0.5-0.531-0.171-0.163-0.325-0.341-0.5-0.5-0.005-0.005-0.026 0.005-0.031 0-0.614-0.677-1.285-1.318-1.969-1.938-0.01-0.011-0.021-0.02-0.031-0.031-0.322-0.322-0.629-0.661-0.969-0.969-0.478-0.53-0.979-1.036-1.5-1.531-0.323-0.34-0.658-0.675-1-1-0.318-0.335-0.633-0.649-0.969-0.969-0.482-0.507-0.978-0.995-1.5-1.469-0.01-0.011-0.021-0.02-0.031-0.031-0.322-0.322-0.629-0.661-0.969-0.969-0.478-0.53-0.979-1.036-1.5-1.531-0.323-0.34-0.658-0.675-1-1-0.482-0.507-0.946-1.027-1.469-1.5-0.005-0.005-0.026 0.005-0.031 0-0.614-0.677-1.285-1.318-1.969-1.938-0.478-0.53-0.979-1.036-1.5-1.531-0.323-0.34-0.658-0.675-1-1-0.154-0.162-0.311-0.31-0.469-0.469-0.162-0.179-0.333-0.356-0.5-0.531-0.171-0.162-0.325-0.341-0.5-0.5-0.005-0.005-0.026 0.005-0.031 0-0.614-0.677-1.285-1.318-1.969-1.938-0.01-0.011-0.021-0.02-0.031-0.031-0.322-0.322-0.629-0.661-0.969-0.969-0.478-0.53-0.979-1.036-1.5-1.531-0.323-0.34-0.658-0.675-1-1-0.318-0.335-0.633-0.649-0.969-0.969-0.482-0.507-0.978-0.995-1.5-1.469-0.01-0.011-0.021-0.02-0.031-0.031-0.322-0.322-0.629-0.661-0.969-0.969-0.478-0.53-0.979-1.036-1.5-1.531-0.323-0.34-0.658-0.675-1-1-0.318-0.335-0.633-0.649-0.969-0.969-0.482-0.507-0.978-0.995-1.5-1.469-0.01-0.011-0.021-0.02-0.031-0.031-0.322-0.322-0.629-0.661-0.969-0.969-0.478-0.53-0.979-1.036-1.5-1.531-0.323-0.34-0.658-0.675-1-1-0.154-0.162-0.311-0.31-0.469-0.469-0.162-0.179-0.333-0.356-0.5-0.531-0.171-0.162-0.325-0.341-0.5-0.5-0.005-0.005-0.026 0.005-0.031 0-0.614-0.677-1.285-1.318-1.969-1.938-0.478-0.53-0.979-1.036-1.5-1.531-0.323-0.34-0.658-0.675-1-1-0.154-0.162-0.311-0.31-0.469-0.469-0.162-0.179-0.333-0.356-0.5-0.531-0.171-0.162-0.325-0.341-0.5-0.5-0.005-0.005-0.026 0.005-0.031 0-0.614-0.677-1.285-1.318-1.969-1.938-0.01-0.011-0.021-0.02-0.031-0.031-0.322-0.322-0.629-0.661-0.969-0.969-0.478-0.53-0.979-1.036-1.5-1.531-0.323-0.34-0.658-0.675-1-1-0.318-0.335-0.633-0.649-0.969-0.969-0.482-0.507-0.978-0.995-1.5-1.469-0.01-0.011-0.021-0.02-0.031-0.031-0.322-0.322-0.629-0.661-0.969-0.969-0.478-0.53-0.979-1.036-1.5-1.531-0.323-0.34-0.658-0.675-1-1-0.482-0.507-0.946-1.027-1.469-1.5-0.005-0.005-0.026 0.005-0.031 0-0.614-0.677-1.285-1.318-1.969-1.938-0.478-0.53-0.979-1.036-1.5-1.531-0.323-0.34-0.658-0.675-1-1-0.154-0.162-0.311-0.31-0.469-0.469-0.162-0.179-0.333-0.356-0.5-0.531-0.171-0.162-0.325-0.341-0.5-0.5-0.005-0.005-0.026 0.005-0.031 0-0.614-0.677-1.285-1.318-1.969-1.938-0.478-0.53-0.979-1.036-1.5-1.531-0.323-0.34-0.658-0.675-1-1-0.323-0.34-0.658-0.675-1-1-0.318-0.335-0.633-0.649-0.969-0.969-0.482-0.507-0.978-0.995-1.5-1.469-0.01-0.011-0.021-0.02-0.031-0.031-0.322-0.322-0.629-0.661-0.969-0.969-0.478-0.53-0.979-1.036-1.5-1.531-0.323-0.34-0.658-0.675-1-1-0.318-0.335-0.633-0.649-0.969-0.969-0.482-0.507-0.978-0.995-1.5-1.469-0.01-0.011-0.021-0.02-0.031-0.031-0.322-0.322-0.629-0.661-0.969-0.969-0.478-0.53-0.979-1.036-1.5-1.531-0.323-0.34-0.658-0.675-1-1-0.154-0.162-0.311-0.31-0.469-0.469-0.162-0.179-0.333-0.356-0.5-0.531-0.171-0.162-0.325-0.341-0.5-0.5-0.005-0.005-0.026 0.005-0.031 0-0.614-0.677-1.285-1.318-1.969-1.938-0.478-0.53-0.979-1.036-1.5-1.531-0.323-0.34-0.658-0.675-1-1-0.154-0.162-0.311-0.31-0.469-0.469-0.162-0.179-0.333-0.356-0.5-0.531-0.171-0.162-0.325-0.341-0.5-0.5-0.005-0.005-0.026 0.005-0.031 0-0.614-0.677-1.285-1.318-1.969-1.938-0.01-0.011-0.021-0.02-0.031-0.031-0.322-0.322-0.629-0.661-0.969-0.969-0.478-0.53-0.979-1.036-1.5-1.531-0.323-0.34-0.658-0.675-1-1-0.318-0.335-0.633-0.649-0.969-0.969-0.482-0.507-0.978-0.995-1.5-1.469-0.01-0.011-0.021-0.02-0.031-0.031-0.322-0.322-0.629-0.661-0.969-0.969-0.478-0.53-0.979-1.036-1.5-1.531-0.323-0.34-0.658-0.675-1-1-0.318-0.335-0.633-0.649-0.969-0.969-0.482-0.507-0.978-0.995-1.5-1.469-0.01-0.011-0.021-0.02-0.031-0.031-0.322-0.322-0.629-0.661-0.969-0.969-0.478-0.53-0.979-1.036-1.5-1.531-0.323-0.34-0.658-0.675-1-1-0.154-0.162-0.311-0.31-0.469-0.469-0.162-0.179-0.333-0.356-0.5-0.531-0.171-0.162-0.325-0.341-0.5-0.5-0.005-0.005-0.026 0.005-0.031 0-0.614-0.677-1.285-1.318-1.969-1.938-0.478-0.53-0.979-1.036-1.5-1.531-0.323-0.34-0.658-0.675-1-1-0.323-0.34-0.658-0.675-1-1-0.318-0.335-0.633-0.649-0.969-0.969-0.482-0.507-0.978-0.995-1.5-1.469-0.01-0.011-0.021-0.02-0.031-0.031-0.322-0.322-0.629-0.661-0.969-0.969-0.478-0.53-0.979-1.036-1.5-1.531-5.415-5.694-13.413-9.313-23.406-9.313" id="path8"/>
  <g fill-rule="evenodd" id="g10">
   <path d="m256 541.36c-140.83 0-255 114.17-255 255s114.17 255 255 255 255-114.17 255-255-114.17-255-255-255m8.827 44.931c120.9 0 218.9 98 218.9 218.9s-98 218.9-218.9 218.9-218.93-98-218.93-218.9 98.03-218.9 218.93-218.9" fill-opacity="0.067" id="path12"/>
   <g fill-opacity="0.129" id="g14">
    <path d="m256 544.79c-138.94 0-251.57 112.63-251.57 251.57s112.63 251.54 251.57 251.54 251.57-112.6 251.57-251.54-112.63-251.57-251.57-251.57m5.885 38.556c120.9 0 218.9 98 218.9 218.9s-98 218.9-218.9 218.9-218.93-98-218.93-218.9 98.03-218.9 218.93-218.9" id="path16"/>
    <path d="m256 548.72c-136.77 0-247.64 110.87-247.64 247.64s110.87 247.64 247.64 247.64 247.64-110.87 247.64-247.64-110.87-247.64-247.64-247.64m2.942 31.691c120.9 0 218.9 98 218.9 218.9s-98 218.9-218.9 218.9-218.93-98-218.93-218.9 98.03-218.9 218.93-218.9" id="path18"/>
   </g>
   <path fill="#ffffff" stroke-width="4.904" stroke="#000000" stroke-opacity="0.31" d="m253.04 548.22c-135.42 0-245.19 109.78-245.19 245.19 0 135.42 109.78 245.19 245.19 245.19 135.42 0 245.19-109.78 245.19-245.19 0-135.42-109.78-245.19-245.19-245.19zm0 26.297c120.9 0 218.9 98 218.9 218.9s-98 218.9-218.9 218.9-218.93-98-218.93-218.9 98.03-218.9 218.93-218.9z" id="path20"/>
  </g>
  <text font-family="Gentium Book Basic" x="729.64" y="771.72" line-height="125%" font-size="129.23" id="text22" word-spacing="0" letter-spacing="0"><tspan x="729.64" y="771.72" id="tspan24"/>
  </text>
  <text font-family="Arial" x="378.91" y="2747.64" transform="scale(4.0128 .2492)" font-size="46.954" id="text26" text-anchor="middle"/>
  <text font-family="Gentium Book Basic" x="1310.91" y="691.72" line-height="125%" font-size="129.23" id="text28" word-spacing="0" letter-spacing="0"><tspan x="1310.91" y="691.72" id="tspan30"/>
  </text>
  <text font-family="Arial" x="523.76" y="2426.6" transform="scale(4.0128 .2492)" font-size="46.954" id="text32" text-anchor="middle"/>
  <text font-family="Gentium Book Basic" x="239.33" y="510.46" line-height="125%" font-size="129.23" id="text34" word-spacing="0" letter-spacing="0"><tspan x="239.33" y="510.46" id="tspan36"/>
  </text>
  <text font-family="Arial" x="256.72" y="1699.25" transform="scale(4.0128 .2492)" font-size="46.954" id="text38" text-anchor="middle"/>
  <text font-family="Gentium Book Basic" x="1337.38" y="293.99" line-height="125%" font-size="129.23" id="text40" word-spacing="0" letter-spacing="0"><tspan x="1337.38" y="293.99" id="tspan42"/>
  </text>
  <text font-family="Arial" x="530.36" y="830.57" transform="scale(4.0128 .2492)" font-size="46.954" id="text44" text-anchor="middle"/>
  <text font-family="Gentium Book Basic" x="1918.65" y="213.99" line-height="125%" font-size="129.23" id="text46" word-spacing="0" letter-spacing="0"><tspan x="1918.65" y="213.99" id="tspan48"/>
  </text>
  <text font-family="Arial" x="675.21" y="509.54" transform="scale(4.0128 .2492)" font-size="46.954" id="text50" text-anchor="middle"/>
  <text font-family="Gentium Book Basic" x="1529.53" y="-258.41" line-height="125%" font-size="129.23" id="text52" word-spacing="0" letter-spacing="0"><tspan x="1529.53" y="-258.41" id="tspan54"/>
  </text>
  <text font-family="Arial" x="578.24" y="-1386.12" transform="scale(4.0128 .2492)" font-size="46.954" id="text56" text-anchor="middle"/>
  <text font-family="Gentium Book Basic" x="2110.79" y="-338.42" line-height="125%" font-size="129.23" id="text58" word-spacing="0" letter-spacing="0"><tspan x="2110.79" y="-338.42" id="tspan60"/>
  </text>
  <text font-family="Arial" x="723.09" y="-1707.16" transform="scale(4.0128 .2492)" font-size="46.954" id="text62" text-anchor="middle"/>
  <text font-family="Gentium Book Basic" x="277.99" y="1076.3" line-height="125%" font-size="208.33" id="text64" word-spacing="0" letter-spacing="0"><tspan x="277.99" y="1076.3" id="tspan66"/>
  </text>
  <path d="m256 604.57c-105.92 0-191.79 85.88-191.79 191.79 0 105.92 85.88 191.8 191.79 191.8 105.92 0 191.8-85.88 191.8-191.8s-85.88-191.79-191.79-191.79z" fill="none" stroke-width="11" stroke="#bebebe" id="path68"/>
  <text fill="#ffffff" font-weight="bold" x="199.34" y="918.88" stroke="#ffffff" line-height="125%" font-size="340.33" font-family="Serif" stroke-width="0.995" id="text70" word-spacing="0" letter-spacing="0"><tspan x="199.34" y="918.88" id="tspan72">i</tspan>
  </text>
 </g>
</svg>
