<?xml version="1.0" encoding="UTF-8" standalone="no"?>
<svg xmlns="http://www.w3.org/2000/svg" xmlns:sodipodi="http://sodipodi.sourceforge.net/DTD/sodipodi-0.dtd" xmlns:inkscape="http://www.inkscape.org/namespaces/inkscape" width="1814.17" height="1814.17" viewBox="0 0 512 512" version="1.1">
 <metadata id="metadata7182"/>
 <g transform="translate(0,215.00001)" id="layer1" inkscape:groupmode="layer" inkscape:label="Layer 1">
  <g transform="matrix(3.7795274,0,0,3.7795274,-75.428545,-587.23398)" id="g7227">
   <path inkscape:connector-curvature="0" id="path7552" d="m 144.82725,165.43972 c 0,31.98813 -25.93182,57.9173 -57.917299,57.9173 -31.988126,0 -57.917294,-25.93182 -57.917294,-57.9173 0,-31.98812 25.931814,-57.91729 57.917294,-57.91729 31.988129,0 57.917299,25.93181 57.917299,57.91729" fill="#5d5d5d" fill-rule="evenodd"/>
   <path inkscape:connector-curvature="0" id="path7554" d="m 78.562347,108.1278 c -3.131608,0.45217 -6.179609,1.15146 -9.128125,2.08359 l 0,29.17031 9.128125,0 0,-31.25258" fill="#656565"/>
   <path inkscape:connector-curvature="0" id="path7556" d="m 86.912597,107.52508 c -2.83501,0 -5.624777,0.21008 -8.351044,0.60351 l 0,31.25523 9.128126,0 0,-31.8479 c -0.260086,-0.003 -0.516203,-0.008 -0.777346,-0.008" fill="#ababab"/>
   <path inkscape:connector-curvature="0" id="path7558" d="m 87.690472,107.53301 0,31.85055 9.128126,0 0,-31.01446 c -2.970742,-0.51197 -6.020859,-0.79375 -9.128126,-0.83503" fill="#a2a2a2"/>
   <path inkscape:connector-curvature="0" id="path7560" d="m 96.818598,108.36645 0,31.01446 9.128122,0 0,-28.64908 c -2.94375,-1.02421 -5.989899,-1.82378 -9.128122,-2.36485" fill="#5a5a5a"/>
   <path inkscape:connector-curvature="0" id="path7562" d="m 31.573933,148.3106 c -1.674284,5.41443 -2.579688,11.16806 -2.579688,17.13177 0,31.98548 25.931814,57.912 57.91994,57.912 31.985475,0 57.912005,-25.92387 57.912005,-57.90935 0,-5.96424 -0.90541,-11.7184 -2.57969,-17.13178 l -110.669921,0" fill="#d5d5d5"/>
   <path inkscape:connector-curvature="0" id="path7564" d="m 87.690472,128.6256 c -20.7645,0 -37.594647,16.83014 -37.594647,37.59464 0,10.38226 4.207934,19.78026 11.011165,26.58534 l 30.374168,30.37416 c 28.342172,-2.21244 50.956112,-24.82585 53.170672,-53.16802 l -30.37417,-30.37416 c -6.80323,-6.80324 -16.203085,-11.01117 -26.585336,-11.01117" opacity="0.25"/>
   <path inkscape:connector-curvature="0" id="path7566" d="m 87.690472,128.6256 c -20.7645,0 -37.594647,16.83014 -37.594647,37.59464 0,20.76451 16.830147,37.59465 37.594647,37.59465 20.764498,0 37.594648,-16.83014 37.594648,-37.59465 0,-20.7645 -16.83015,-37.59464 -37.594648,-37.59464" fill="#434343"/>
   <g transform="matrix(0.26458334,0,0,0.26458334,19.957136,98.486909)" id="g7568" fill-rule="evenodd">
    <path inkscape:connector-curvature="0" id="path7570" d="M 256,1 C 115.17,1 1,115.17 1,256 1,396.83 115.17,511 256,511 396.83,511 511,396.83 511,256 511,115.17 396.83,1 256,1 m 8.827,44.931 c 120.9,0 218.9,98 218.9,218.9 0,120.9 -98,218.9 -218.9,218.9 -120.9,0 -218.93,-98 -218.93,-218.9 0,-120.9 98.03,-218.9 218.93,-218.9" fill-opacity="0.067"/>
    <g id="g7572" fill-opacity="0.129">
     <path inkscape:connector-curvature="0" id="path7574" d="m 256,4.433 c -138.94,0 -251.57,112.63 -251.57,251.57 0,138.94 112.63,251.57 251.57,251.57 138.94,0 251.57,-112.63 251.57,-251.57 C 507.57,117.063 394.94,4.433 256,4.433 m 5.885,38.556 c 120.9,0 218.9,98 218.9,218.9 0,120.9 -98,218.9 -218.9,218.9 -120.9,0 -218.93,-98 -218.93,-218.9 0,-120.9 98.03,-218.9 218.93,-218.9"/>
     <path inkscape:connector-curvature="0" id="path7576" d="m 256,8.356 c -136.77,0 -247.64,110.87 -247.64,247.64 0,136.77 110.87,247.64 247.64,247.64 136.77,0 247.64,-110.87 247.64,-247.64 C 503.64,119.226 392.77,8.356 256,8.356 m 2.942,31.691 c 120.9,0 218.9,98 218.9,218.9 0,120.9 -98,218.9 -218.9,218.9 -120.9,0 -218.93,-98 -218.93,-218.9 0,-120.9 98.03,-218.9 218.93,-218.9"/>
    </g>
    <path inkscape:connector-curvature="0" id="path7578" d="m 253.04,7.859 c -135.42,0 -245.19,109.78 -245.19,245.19 0,135.42 109.78,245.19 245.19,245.19 135.42,0 245.19,-109.78 245.19,-245.19 0,-135.42 -109.78,-245.19 -245.19,-245.19 z m 0,26.297 c 120.9,0 218.9,98 218.9,218.9 0,120.9 -98,218.9 -218.9,218.9 -120.9,0 -218.93,-98 -218.93,-218.9 0,-120.9 98.03,-218.9 218.93,-218.9 z" stroke-opacity="0.31" fill="#ffffff" stroke="#000000" stroke-width="4.904"/>
   </g>
   <path inkscape:connector-curvature="0" id="path7626" d="m 87.690472,146.55112 c -10.863792,0 -19.669125,8.80533 -19.669125,19.66912 0,10.8638 8.805333,19.66913 19.669125,19.66913 10.863792,0 19.669128,-8.80533 19.669128,-19.66913 0,-10.86379 -8.805336,-19.66912 -19.669128,-19.66912" fill="#6c6c6c"/>
   <g transform="matrix(0.26458334,0,0,0.26458334,19.957136,98.486909)" id="g7628" fill="#ffffff">
    <path inkscape:connector-curvature="0" id="path7630" d="m 200.68,184.41 c -14.974,0 -27.11,12.137 -27.11,27.11 0,14.974 12.137,27.11 27.11,27.11 14.974,0 27.11,-12.137 27.11,-27.11 0,-14.974 -12.137,-27.11 -27.11,-27.11" opacity="0.25"/>
    <path inkscape:connector-curvature="0" id="path7632" d="m 256,113.91 c -78.48,0 -142.09,63.61 -142.09,142.09 0,78.48 63.61,142.09 142.09,142.09 78.48,0 142.09,-63.61 142.09,-142.09 0,-78.48 -63.61,-142.09 -142.09,-142.09 m 0,28.19 c 62.904,0 113.91,51 113.91,113.91 0,62.904 -51,113.91 -113.91,113.91 -62.904,0 -113.91,-51 -113.91,-113.91 0,-62.904 51,-113.91 113.91,-113.91"/>
    <path inkscape:connector-curvature="0" id="path7634" d="m 241.73,232.55 c -9.881,0 -17.89,8.01 -17.89,17.89 0,9.881 8.01,17.89 17.89,17.89 9.881,0 17.89,-8.01 17.89,-17.89 0,-9.881 -8.01,-17.89 -17.89,-17.89" opacity="0.25"/>
   </g>
  </g>
 </g>
</svg>
