<?xml version="1.0" encoding="UTF-8" standalone="no"?>
<svg xmlns="http://www.w3.org/2000/svg" xmlns:xlink="http://www.w3.org/1999/xlink" xmlns:sodipodi="http://sodipodi.sourceforge.net/DTD/sodipodi-0.dtd" xmlns:inkscape="http://www.inkscape.org/namespaces/inkscape" height="512" viewBox="0 0 512 512" width="512" version="1.1">
 <metadata id="metadata448"/>
 <defs id="defs4">
  <path d="m13.895-8.388c0.075-0.29 0.112-0.574 0.112-0.854 0-0.858-0.334-1.59-1-2.193-0.669-0.604-1.507-0.904-2.514-0.904h-20.838c-1.057 0.016-1.924 0.291-2.602 0.824-0.678 0.536-1.01 1.222-0.99 2.061 0 0.296 0.045 0.608 0.135 0.936s0.244 0.666 0.459 1.01l10.977 18.382c0.313 0.512 0.685 0.897 1.114 1.153s0.876 0.384 1.339 0.384c0.461 0 0.908-0.128 1.336-0.384 0.431-0.256 0.794-0.642 1.091-1.153l11-18.407c0.181-0.282 0.31-0.567 0.384-0.856m-2.738-0.854v0.086c0 0.026-0.008 0.045-0.025 0.062 0 0.017-0.004 0.037-0.012 0.063-0.009 0.024-0.021 0.046-0.037 0.063l-11 18.382v0.051l-0.027-0.027v-0.026l-10.975-18.407c-0.051-0.066-0.09-0.135-0.124-0.21-0.032-0.076-0.049-0.145-0.049-0.212 0.065-0.032 0.161-0.053 0.284-0.062 0.125-0.009 0.277-0.013 0.459-0.013h20.838c0.131 0 0.242 0.009 0.334 0.025 0.091 0.017 0.168 0.042 0.234 0.074 0.017 0.018 0.029 0.029 0.037 0.037 0.009 0.01 0.021 0.021 0.037 0.037 0 0.018 0.009 0.035 0.025 0.05v0.051-0.024m-8.82 12.45v-0.089c-0.032-0.363-0.148-0.733-0.347-1.113-0.199-0.381-0.405-0.81-0.617-1.289-0.25-0.513-0.476-1.112-0.682-1.796-0.209-0.687-0.31-1.499-0.31-2.441h-0.719c0 0.941-0.104 1.754-0.311 2.44-0.205 0.685-0.424 1.283-0.656 1.796-0.23 0.479-0.445 0.908-0.643 1.289-0.199 0.38-0.314 0.75-0.348 1.113v0.152c0 0.644 0.227 1.19 0.682 1.646 0.453 0.452 1 0.681 1.646 0.681 0.629 0 1.169-0.229 1.623-0.681 0.453-0.456 0.681-1 0.681-1.646 0.001-0.017 0.001-0.038 0.001-0.062m-0.817-10.927c-0.413-0.405-0.909-0.606-1.487-0.606s-1.073 0.201-1.486 0.606c-0.414 0.404-0.619 0.895-0.619 1.474 0 0.578 0.205 1.07 0.619 1.475 0.413 0.404 0.908 0.607 1.486 0.607s1.074-0.203 1.486-0.607c0.414-0.404 0.619-0.896 0.619-1.475 0.001-0.579-0.204-1.069-0.618-1.474" id="u"/>
  <path d="m-9.02-7.64v20.015h18.092v-24.75h-13.822" id="v"/>
  <path d="m-9.02-7.64h4.27v-4.735" id="w"/>
  <path d="m14.427 8.58c-16.194 0-15.562 0-15.785 0.179 0 0.176-0.22 0.354-0.22 0.707s-0.223 0.706-0.445 1.237c-0.221 0.353-0.665 0.707-1.108 1.06-0.665 0.354-1.331 0.53-1.331 0.53s-9.317 0-9.763-0.176c-0.665-0.178-1.108-0.354-1.331-0.707-0.22-0.354-0.443-0.707-0.665-1.06-0.22-0.532-0.442-0.709-0.442-0.885-0.223-0.178-0.223-0.354-0.443-0.531 0-0.176-0.223-0.354-0.445-0.354l-0.442-0.176v-20.861h35.743v19.269c-0.223 0.531-0.443 0.887-0.888 1.238-0.443 0.176-1.108 0.354-1.774 0.529h-0.666" id="x"/>
  <path d="m12.401 0c0-6.834-5.539-12.375-12.375-12.375-6.834 0-12.375 5.541-12.375 12.375 0 6.837 5.541 12.375 12.375 12.375 6.836 0 12.375-5.538 12.375-12.375" id="y"/>
  <path d="m8.648 2.993c0-0.33-0.182-1.371-0.543-3.122-0.408-1.948-0.736-3.112-0.98-3.492-0.494-0.711-1.523-1.99-3.096-3.841-0.297-0.346-0.492-0.623-0.59-0.829-0.1-0.207-0.195-0.4-0.295-0.583-0.181-0.346-0.271-0.57-0.271-0.668v-3.049h-8.943v2.95c0 0.196-0.189 0.496-0.57 0.891-0.346 0.347-0.734 0.867-1.164 1.561-0.494 0.811-0.744 1.387-0.744 1.733v12.464c0 0.114 0.102 0.268 0.299 0.459 0.199 0.188 0.33 0.293 0.396 0.31 0.148 0.032 0.246 0.05 0.297 0.05 0.131 0 0.33-0.084 0.596-0.249 0.264-0.165 0.395-0.339 0.395-0.521v-5.524c0-0.233 0.166-0.349 0.496-0.349 0.348 0 0.521 0.107 0.521 0.323v8.694c0 0.216 0.117 0.423 0.359 0.621 0.238 0.198 0.459 0.297 0.656 0.297 0.229 0 0.453-0.107 0.67-0.323 0.213-0.214 0.32-0.437 0.32-0.668v-8.348c0-0.23 0.184-0.347 0.547-0.347 0.08 0 0.189 0.044 0.32 0.137 0.133 0.089 0.199 0.193 0.199 0.309v9.514c0 0.214 0.139 0.396 0.422 0.545 0.279 0.149 0.527 0.223 0.742 0.223 0.248 0 0.498-0.096 0.756-0.284 0.256-0.191 0.383-0.395 0.383-0.608v-9.243c0-0.181 0.174-0.279 0.52-0.296 0.365 0 0.547 0.115 0.547 0.347v8c0 0.199 0.111 0.379 0.334 0.545 0.223 0.164 0.443 0.247 0.656 0.247 0.148 0 0.352-0.078 0.607-0.236 0.256-0.155 0.383-0.342 0.383-0.556v-9.217c0-0.463 0.133-0.983 0.396-1.562 0.316-0.676 0.678-1.015 1.092-1.015 0.098 0 0.189 0.073 0.271 0.223 0.23 0.445 0.547 1.163 0.943 2.155 0.395 0.99 0.719 1.718 0.965 2.178 0.116 0.218 0.472 0.423 1.067 0.622 0.18 0.083 0.346 0.125 0.496 0.125 0.362 0 0.545-0.199 0.545-0.596" id="z"/>
  <path d="m13.189-8.282c-0.073-0.29-0.178-0.582-0.31-0.881-0.298-0.659-0.711-1.28-1.239-1.858-0.527-0.576-1.073-0.941-1.634-1.089-0.085-0.017-0.162-0.028-0.236-0.037-0.075-0.009-0.146-0.013-0.212-0.013h-15.483c-0.381 0.066-0.734 0.211-1.067 0.434-0.329 0.224-0.586 0.524-0.766 0.904l-5.378 11.149c-0.065 0.166-0.12 0.335-0.162 0.509-0.041 0.172-0.062 0.342-0.062 0.508 0 0.429 0.115 0.837 0.348 1.226 0.23 0.388 0.553 0.682 0.967 0.88 0.114 0.065 0.23 0.116 0.346 0.149s0.232 0.058 0.347 0.073c0.05 0 0.108 0.005 0.174 0.013 0.065 0.007 0.126 0.011 0.174 0.011 0.43-0.015 0.838-0.135 1.227-0.359 0.389-0.222 0.681-0.549 0.88-0.977l2.08-4.336v12.213c0 0.646 0.229 1.199 0.683 1.662 0.453 0.462 1 0.692 1.647 0.692 0.645 0 1.197-0.23 1.659-0.692 0.462-0.463 0.694-1.017 0.694-1.662v-11.124h0.444v3.469c0 0.643 0.232 1.192 0.694 1.646 0.463 0.456 1.018 0.683 1.661 0.683 0.645 0 1.197-0.227 1.659-0.683 0.464-0.454 0.694-1 0.694-1.646v-3.469h0.446v3.469c0 0.643 0.23 1.192 0.694 1.646 0.462 0.456 1.014 0.683 1.659 0.683 0.644 0 1.193-0.227 1.647-0.683 0.456-0.454 0.682-1 0.682-1.646v-3.469h0.472v1.71c0 0.645 0.227 1.192 0.681 1.647 0.455 0.453 1 0.681 1.647 0.681 0.646 0 1.197-0.228 1.659-0.681 0.464-0.454 0.695-1 0.695-1.647v-8.325c0-0.232-0.037-0.491-0.111-0.78" id="10"/>
  <path d="m-10.645-1.826v-10.549h20.932v10.676l1.126 1.276-3.1 3.443v9.355h-3.38v-5.356l-4.347 5.272-11.994-12.714 0.763-1.403" id="11"/>
  <path d="m12.416-0.007c0-3.415-1.21-6.332-3.627-8.746-2.421-2.414-5.337-3.621-8.754-3.621-3.419 0-6.337 1.207-8.756 3.621s-3.628 5.331-3.628 8.746c0 3.419 1.209 6.336 3.628 8.757 2.419 2.418 5.337 3.626 8.756 3.626 3.417 0 6.333-1.208 8.754-3.626 2.417-2.421 3.627-5.338 3.627-8.757m-2.024 0c0 2.864-1.01 5.309-3.03 7.335-2.02 2.025-4.464 3.039-7.325 3.039-2.864 0-5.308-1.014-7.335-3.039-2.026-2.026-3.037-4.471-3.037-7.335 0-2.861 1.01-5.305 3.037-7.325s4.471-3.03 7.335-3.03c2.861 0 5.304 1.01 7.325 3.03 2.02 2.02 3.03 4.464 3.03 7.325m-7.818 6.382c0-0.655-0.25-1.216-0.749-1.679-0.498-0.463-1.096-0.695-1.79-0.695-0.708 0-1.308 0.232-1.801 0.695s-0.74 1.023-0.74 1.679c0 0.654 0.247 1.213 0.74 1.677 0.494 0.465 1.093 0.698 1.801 0.698 0.694 0 1.292-0.233 1.79-0.698 0.499-0.464 0.749-1.023 0.749-1.677m-0.468-15.633h-4.16v11.792h4.16v-11.792" id="12"/>
  <path d="m4.239-3.868h-1.585v-8.499h-2.106v8.499h-1.14v-8.499h-2.057v8.499h-1.61v8.522c0 0.562 0.265 1.153 0.792 1.771 0.529 0.62 1.123 1.012 1.784 1.178 0.843 0.213 1.404 0.321 1.685 0.321 0.793 0 1.545-0.19 2.254-0.57 0.86-0.446 1.453-1.073 1.784-1.884 0.133-0.313 0.199-0.567 0.199-0.767v-8.571m-2.378 14.393c0-0.529-0.188-0.967-0.558-1.313s-0.806-0.521-1.301-0.521c-0.529 0-0.971 0.184-1.324 0.546-0.356 0.365-0.533 0.784-0.533 1.264 0 0.495 0.189 0.933 0.568 1.314 0.381 0.379 0.811 0.568 1.289 0.568 0.512 0 0.95-0.193 1.314-0.583 0.364-0.388 0.545-0.812 0.545-1.275" id="13"/>
  <path d="m4.36-10.3c0-0.691-0.639-1.215-1.911-1.57-0.908-0.262-1.831-0.39-2.772-0.39-0.938 0-1.86 0.128-2.769 0.39-1.264 0.355-1.896 0.879-1.896 1.57 0 0.526 0.4 0.988 1.201 1.376 0.667 0.313 1.305 0.472 1.91 0.472 0.085 0 0.239-0.351 0.46-1.046 0.221-0.696 0.538-1.046 0.947-1.046 0.25 0 0.412 0.361 0.487 1.079 0.076 0.717 0.19 1.076 0.341 1.076 0.657 0 1.442-0.168 2.348-0.502 1.105-0.409 1.654-0.882 1.654-1.409m0.584 20.33-7.29-5.265 2.121-14.417c-0.15-0.218-0.319-0.325-0.501-0.325-0.174 0-0.282 0.15-0.325 0.453l-2.916 21.383c-0.054 0.423 0.055 0.633 0.325 0.633 0.14 0 0.313-0.821 0.517-2.462 1.945-0.033 4.635-0.033 8.07 0" id="14"/>
  <path d="m4.581-12.375-5.769 10.02-4.01-3.984-2.476 18.71l14.976-11.484-5.446-1.484 5.769-10.03-3.046-1.757" id="15"/>
  <path d="m4.721-5.92 1.935-4.188c-2.087-1.438-4.336-2.181-6.742-2.225-2.316-0.059-4.407 0.529-6.278 1.762-1.434 0.947-2.552 2.2-3.352 3.759-0.83 1.625-1.213 3.382-1.148 5.263l-2.354-1.01 2.522 6.582 4.392-3.662-2.12-0.912c0.125-2.47 1.272-4.418 3.445-5.854 2.789-1.84 6.02-1.676 9.7 0.484m1.658 16.553c1.434-0.945 2.555-2.193 3.359-3.742 0.833-1.626 1.213-3.387 1.141-5.279l2.341 1.018-2.509-6.59-4.392 3.66 2.116 0.914c-0.122 2.469-1.27 4.418-3.445 5.853-2.787 1.84-6.02 1.677-9.696-0.485l-1.936 4.188c2.095 1.451 4.346 2.199 6.752 2.242 2.31 0.05 4.398-0.544 6.269-1.779" id="16"/>
  <path d="m11.979 4.782c0-4.531-1.119-8.348-3.364-11.449-2.148-2.979-5.02-4.894-8.613-5.743-3.589 0.85-6.458 2.765-8.612 5.743-2.239 3.102-3.362 6.918-3.362 11.449 0 1.653 0.352 3.233 1.054 4.74 0.543 1.178 1.189 2.118 1.936 2.819 1.665-1.031 3.313-1.546 4.944-1.546 1.63 0 2.978 0.503 4.04 1.512 1.065-1.01 2.414-1.512 4.046-1.512s3.277 0.515 4.942 1.546c0.746-0.701 1.393-1.642 1.938-2.819 0.698-1.506 1.05-3.086 1.05-4.74" id="17"/>
  <path d="m9.806 0.011c0 1.799-0.125 1.447-1.974 1.447-0.247 0-0.128 3.181-0.13 3.572-0.01 2.108-0.768 3.914-2.368 5.351-2.458 2.204-6.337 2.471-9.293 1.164-1.816-0.804-3.59-2.496-3.957-4.543-0.236-1.321 0-2.895 0-4.234 0-1.623-0.119-1.31-1.771-1.31 0-4.03-1.228-9.409 2.647-12.07 3.194-2.189 8.525-2.18 12.11-1.089 5.418 1.649 4.737 7.213 4.737 11.708m-5.76 1.464h-8.292v4.952l0.086 0.354 0.105 0.304 0.189 0.305 0.147 0.32 0.189 0.238 0.381 0.404 0.485 0.272 0.507 0.302 0.568 0.203 0.57 0.151 0.758 0.085 0.57-0.033 0.781-0.152 0.486-0.118 0.442-0.153 0.251-0.186 0.381-0.203 0.149-0.152 0.168-0.149 0.215-0.169 0.128-0.187 0.168-0.17 0.189-0.236 0.085-0.253 0.104-0.271 0.125-0.288 0.064-0.219v-4.951" id="18"/>
  <path d="m-11.939 7.452-2.048-4.965h-0.789c-1.419 0-2.129-0.557-2.129-1.663v-10.704h2.026v1.743c0 1.339 0.449 2.483 1.348 3.437 0.899 0.952 1.984 1.43 3.255 1.43 1.675 0 2.945-0.812 3.81-2.434v14.17h-3.951c-0.731 0-1.236-0.337-1.522-1.014m1.663-11.797c-1.054 0-1.953-0.392-2.695-1.176-0.745-0.784-1.116-1.731-1.116-2.838s0.371-2.055 1.116-2.841c0.742-0.78 1.642-1.174 2.695-1.174s1.951 0.394 2.695 1.174c0.742 0.786 1.114 1.733 1.114 2.841 0 1.106-0.372 2.054-1.114 2.838-0.744 0.785-1.642 1.176-2.695 1.176m4.518 16.724v-22.259h12.589l0.021 1.743c0 1.339 0.449 2.483 1.349 3.437 0.896 0.952 1.983 1.43 3.254 1.43 1.269 0 2.355-0.478 3.262-1.43 0.907-0.953 1.359-2.098 1.359-3.437v-1.743h0.95v22.259h-22.784m17.272-16.724c-1.056 0-1.954-0.392-2.697-1.176s-1.114-1.731-1.114-2.837c0-1.107 0.371-2.055 1.113-2.841 0.743-0.78 1.642-1.174 2.697-1.174 1.039 0 1.935 0.394 2.687 1.174 0.75 0.786 1.125 1.733 1.125 2.841 0 1.106-0.375 2.054-1.125 2.838-0.752 0.784-1.647 1.175-2.686 1.175" id="19"/>
  <path d="m2.363-1.698v-10.661h-4.727v10.661h-2.029v3.646c0 1.221 0.429 2.259 1.287 3.118 0.857 0.857 1.889 1.286 3.094 1.286 1.221 0 2.26-0.429 3.119-1.286 0.857-0.859 1.285-1.897 1.285-3.118v-3.646h-2.029m-0.431 9.413c-0.536-0.528-1.184-0.792-1.944-0.792-0.758 0-1.402 0.264-1.931 0.792-0.528 0.526-0.792 1.171-0.792 1.93s0.264 1.407 0.792 1.943 1.173 0.804 1.931 0.804c0.76 0 1.407-0.268 1.943-0.804s0.804-1.185 0.804-1.943-0.267-1.403-0.803-1.93" id="1A"/>
  <path d="m9.577-1.609-2 4.332v1.436c-0.066 2.309-0.937 4.271-2.61 5.889-1.676 1.616-3.668 2.426-5.979 2.426-2.359 0-4.376-0.842-6.05-2.524-1.674-1.684-2.512-3.705-2.512-6.06 0-1.535 0.371-2.942 1.114-4.221 0.742-1.278 1.724-2.297 2.945-3.058v-8.885h9.08v5.199h3.291l0.718 0.715v1.314l0.792 0.792-0.593 0.618 0.594 0.595-0.322 0.791h1.534v0.644" id="1B"/>
  <path d="m1.367-0.479v-0.022c0-0.463-0.167-0.711-0.497-0.742-0.197-0.037-0.379-0.053-0.544-0.053-0.199 0-0.454 0.033-0.768 0.1-0.313 0-0.47-0.297-0.47-0.893 0-0.063 0.033-0.368 0.099-0.914h-1.237c-0.677 0-1.016-0.116-1.016-0.348 0-0.13 0.059-0.226 0.174-0.284 0.116-0.058 0.223-0.111 0.321-0.161 1.04-0.693 1.559-1.146 1.559-1.36 0-0.183-0.062-0.309-0.184-0.383-0.124-0.075-0.261-0.154-0.408-0.236-0.315-0.215-0.471-0.429-0.471-0.643 0-0.101 0.008-0.238 0.025-0.421v-0.421c0-0.216-0.018-0.404-0.051-0.57-0.032-0.163-0.139-0.3-0.32-0.408-0.182-0.105-0.331-0.16-0.445-0.16h-0.05l-3.243 0.842v-3.12h-5.741v22.646c0.445 0.103 0.89 0.199 1.335 0.299 0.446 0.098 0.926 0.147 1.437 0.147 2.358 0 4.447-0.717 6.263-2.152 1.882-1.5 2.821-3.3 2.821-5.395 0-0.396-0.025-0.743-0.075-1.041 0-0.1-0.037-0.263-0.112-0.495-0.073-0.23-0.11-0.363-0.11-0.396 0-0.181 0.286-0.692 0.854-1.534 0.568-0.841 0.854-1.467 0.854-1.882m3.935-0.519c0-2.708-0.849-5.074-2.551-7.104l-0.891 0.743c1.52 1.765 2.278 3.879 2.278 6.336 0 1.551-0.389 3.102-1.164 4.654 0.348 0.23 0.702 0.421 1.065 0.57 0.841-1.849 1.263-3.582 1.263-5.199m3.316-0.074c0-3.333-1.114-6.378-3.342-9.134-0.065 0.05-0.38 0.306-0.939 0.768 2.077 2.458 3.117 5.273 3.117 8.44 0 2.243-0.536 4.324-1.609 6.237 0.248 0.15 0.595 0.314 1.041 0.494 0.545-0.84 0.975-1.914 1.286-3.217 0.298-1.221 0.446-2.417 0.446-3.588m3.291 0.174c0-4.291-1.361-8.103-4.084-11.437-0.23 0.183-0.551 0.446-0.965 0.792 2.559 3.087 3.836 6.592 3.836 10.52 0 2.706-0.661 5.313-1.981 7.822 0.464 0.263 0.811 0.445 1.042 0.545 1.434-2.411 2.152-5.158 2.152-8.242" id="1C"/>
  <path d="m5.35-2.246c0.313 0.131 0.553 0.247 0.717 0.347l-3.716 8.868h-4.755l-3.669-8.868 0.793-0.271 3.27 6.316 0.495-2.849-3.368-6.071h3.368l1.142-8.3h0.991l0.917 8.3h3.295l-3.323 6.071 0.497 2.849 3.346-6.392m-5.477 11.227c0.511 0 0.975 0.195 1.389 0.583 0.412 0.388 0.618 0.871 0.618 1.45 0 0.546-0.189 1.024-0.57 1.437-0.379 0.413-0.858 0.62-1.437 0.62-0.596 0-1.083-0.207-1.462-0.62-0.379-0.412-0.57-0.891-0.57-1.437 0-0.529 0.191-1 0.57-1.413 0.379-0.412 0.866-0.62 1.462-0.62" id="1D"/>
  <linearGradient y2="12.379" x2="0" y1="-12.373" gradientUnits="userSpaceOnUse" xlink:href="#0" id="L"/>
  <linearGradient y2="-12.591" x2="0" y1="12.16" gradientUnits="userSpaceOnUse" xlink:href="#5" id="V"/>
  <linearGradient y2="-12.374" x2="0" y1="12.376" gradientUnits="userSpaceOnUse" xlink:href="#5" id="Z"/>
  <linearGradient y2="-12.16" x2="0" y1="12.591" gradientUnits="userSpaceOnUse" xlink:href="#5" id="X"/>
  <linearGradient y2="-12.375" x2="0" y1="12.375" gradientUnits="userSpaceOnUse" xlink:href="#5" id="1F"/>
  <linearGradient y2="12.379" x2="0" y1="-12.373" gradientUnits="userSpaceOnUse" xlink:href="#1" id="M"/>
  <linearGradient y2="12.416" x2="0" y1="-12.335" gradientUnits="userSpaceOnUse" xlink:href="#1" id="R"/>
  <linearGradient y2="12.392" x2="0" y1="-12.359" gradientUnits="userSpaceOnUse" xlink:href="#1" id="N"/>
  <linearGradient y2="-12.277" x2="0" y1="12.474" gradientUnits="userSpaceOnUse" xlink:href="#5" id="Q"/>
  <linearGradient y2="12.474" x2="0" y1="-12.277" gradientUnits="userSpaceOnUse" xlink:href="#1" id="O"/>
  <linearGradient y2="-12.367" x2="0" y1="12.384" gradientUnits="userSpaceOnUse" xlink:href="#5" id="b"/>
  <linearGradient y2="-12.26" x2="0" y1="12.492" gradientUnits="userSpaceOnUse" xlink:href="#5" id="d"/>
  <linearGradient y2="13.07" x2="0" y1="-13.07" gradientUnits="userSpaceOnUse" xlink:href="#1" id="r"/>
  <linearGradient y2="12.375" x2="0" y1="-12.375" gradientUnits="userSpaceOnUse" xlink:href="#1" id="1E"/>
  <linearGradient y2="-13.07" x2="0" y1="13.07" gradientUnits="userSpaceOnUse" xlink:href="#5" id="t"/>
  <linearGradient y2="-12.335" x2="0" y1="12.416" gradientUnits="userSpaceOnUse" xlink:href="#5" id="q"/>
  <linearGradient y2="-12.336" x2="0" y1="12.414" gradientUnits="userSpaceOnUse" xlink:href="#5" id="g"/>
  <linearGradient y2="-12.359" x2="0" y1="12.392" gradientUnits="userSpaceOnUse" xlink:href="#5" id="o"/>
  <linearGradient y2="-12.41" x2="0" y1="12.342" gradientUnits="userSpaceOnUse" xlink:href="#5" id="i"/>
  <linearGradient y2="-12.373" x2="0" y1="12.379" gradientUnits="userSpaceOnUse" xlink:href="#5" id="m"/>
  <linearGradient y2="-12.417" x2="0" y1="12.335" gradientUnits="userSpaceOnUse" xlink:href="#5" id="k"/>
  <linearGradient y2="-12.34" x2="0" y1="12.412" gradientUnits="userSpaceOnUse" xlink:href="#5" id="T"/>
  <linearGradient y2="12.591" x2="0" y1="-12.16" gradientUnits="userSpaceOnUse" xlink:href="#1" id="C"/>
  <linearGradient y2="-12.457" x2="0" y1="12.293" gradientUnits="userSpaceOnUse" xlink:href="#5" id="8"/>
  <linearGradient y2="12.16" x2="0" y1="-12.591" gradientUnits="userSpaceOnUse" xlink:href="#1" id="B"/>
  <linearGradient y2="12.16" x2="0" y1="-12.591" gradientUnits="userSpaceOnUse" xlink:href="#0" id="A"/>
  <linearGradient y2="12.293" x2="0" y1="-12.457" gradientUnits="userSpaceOnUse" xlink:href="#1" id="6"/>
  <linearGradient gradientUnits="userSpaceOnUse" y2="-12.375" x2="0" y1="-7.64" id="5">
   <stop stop-opacity="0.77" stop-color="#ffffff" id="stop54"/>
   <stop offset="0.45" stop-opacity="0" stop-color="#ffffff" id="stop56"/>
   <stop offset="0.467" stop-opacity="0.005" stop-color="#dfdfdf" id="stop58"/>
   <stop offset="0.491" stop-opacity="0.012" stop-color="#b7b7b7" id="stop60"/>
   <stop offset="0.519" stop-opacity="0.02" stop-color="#929292" id="stop62"/>
   <stop offset="0.548" stop-opacity="0.029" stop-color="#737373" id="stop64"/>
   <stop offset="0.581" stop-opacity="0.038" stop-color="#585858" id="stop66"/>
   <stop offset="0.619" stop-opacity="0.049" stop-color="#424242" id="stop68"/>
   <stop offset="0.662" stop-opacity="0.062" stop-color="#323232" id="stop70"/>
   <stop offset="0.716" stop-opacity="0.077" stop-color="#272727" id="stop72"/>
   <stop offset="0.791" stop-opacity="0.099" stop-color="#202020" id="stop74"/>
   <stop offset="1" stop-opacity="0.16" stop-color="#1e1e1e" id="stop76"/>
  </linearGradient>
  <linearGradient gradientUnits="userSpaceOnUse" y2="12.412" x2="0" y1="-12.34" id="0">
   <stop stop-color="#444444" id="stop79"/>
   <stop offset="0.618" stop-color="#383838" id="stop81"/>
   <stop offset="0.629" stop-color="#3c3c3c" id="stop83"/>
   <stop offset="0.983" stop-color="#4c4c4c" id="stop85"/>
  </linearGradient>
  <linearGradient y2="-7.64" x2="0" y1="-12.375" gradientUnits="userSpaceOnUse" xlink:href="#1" id="3"/>
  <linearGradient gradientUnits="userSpaceOnUse" y2="12.412" x2="0" y1="-12.34" id="1">
   <stop stop-opacity="0.22" stop-color="#353535" id="stop89"/>
   <stop offset="0.5" stop-color="#272727" id="stop91"/>
   <stop offset="0.531" stop-opacity="0.946" stop-color="#373737" id="stop93"/>
   <stop offset="0.577" stop-opacity="0.866" stop-color="#4b4b4b" id="stop95"/>
   <stop offset="0.626" stop-opacity="0.781" stop-color="#5d5d5d" id="stop97"/>
   <stop offset="0.676" stop-opacity="0.693" stop-color="#6e6e6e" id="stop99"/>
   <stop offset="0.729" stop-opacity="0.602" stop-color="#7d7d7d" id="stop101"/>
   <stop offset="0.784" stop-opacity="0.506" stop-color="#898989" id="stop103"/>
   <stop offset="0.844" stop-opacity="0.402" stop-color="#939393" id="stop105"/>
   <stop offset="0.911" stop-opacity="0.285" stop-color="#9a9a9a" id="stop107"/>
   <stop offset="1" stop-opacity="0.13" stop-color="#9c9c9c" id="stop109"/>
  </linearGradient>
  <linearGradient y2="12.334" x2="0" y1="-12.417" gradientUnits="userSpaceOnUse" xlink:href="#1" id="K"/>
  <linearGradient y2="12.376" x2="0" y1="-12.374" gradientUnits="userSpaceOnUse" xlink:href="#1" id="F"/>
  <linearGradient y2="12.492" x2="0" y1="-12.26" gradientUnits="userSpaceOnUse" xlink:href="#1" id="H"/>
  <linearGradient y2="12.376" x2="0" y1="-12.374" gradientUnits="userSpaceOnUse" xlink:href="#0" id="E"/>
  <linearGradient y2="12.384" x2="0" y1="-12.367" gradientUnits="userSpaceOnUse" xlink:href="#1" id="G"/>
  <linearGradient y2="12.342" x2="0" y1="-12.41" gradientUnits="userSpaceOnUse" xlink:href="#1" id="J"/>
  <linearGradient y2="12.414" x2="0" y1="-12.336" gradientUnits="userSpaceOnUse" xlink:href="#1" id="I"/>
  <radialGradient r="23.407" gradientTransform="matrix(.9996 -.0276 .0138 .4998 -.115 4.117)" cx="-1.697" cy="8.323" gradientUnits="userSpaceOnUse" xlink:href="#2" id="l"/>
  <radialGradient r="19.49" gradientTransform="matrix(.9996 -.0276 .0138 .4998 -.116 4.183)" cx="-0.993" cy="8.418" gradientUnits="userSpaceOnUse" xlink:href="#2" id="P"/>
  <radialGradient r="17.827" gradientTransform="matrix(.9996 -.0276 .0138 .4998 -.115 4.157)" cx="-0.455" cy="8.336" gradientUnits="userSpaceOnUse" xlink:href="#2" id="n"/>
  <radialGradient r="19.18" gradientTransform="matrix(.9996 -.0276 .0138 .4998 -.122 4.377)" cx="-0.632" cy="8.787" gradientUnits="userSpaceOnUse" xlink:href="#2" id="s"/>
  <radialGradient r="19.271" gradientTransform="matrix(.9996 -.0276 .0138 .4998 -.115 4.136)" cx="-0.914" cy="8.319" gradientUnits="userSpaceOnUse" id="2">
   <stop stop-color="#808080" id="stop123"/>
   <stop offset="0.186" stop-opacity="0.933" stop-color="#7e7e7e" id="stop125"/>
   <stop offset="0.525" stop-opacity="0.811" stop-color="#7a7a7a" id="stop127"/>
   <stop offset="0.744" stop-opacity="0.732" stop-color="#767676" id="stop129"/>
   <stop offset="1" stop-opacity="0.64" stop-color="#686868" id="stop131"/>
  </radialGradient>
  <radialGradient r="3.864" gradientTransform="matrix(.9996 -.0276 .0138 .4998 .113 -4.405)" cx="-7.109" cy="-8.416" gradientUnits="userSpaceOnUse" xlink:href="#2" id="4"/>
  <radialGradient r="20.56" gradientTransform="matrix(.9996 -.0276 .0138 .4998 -.116 4.148)" cx="-1.229" cy="8.36" gradientUnits="userSpaceOnUse" xlink:href="#2" id="p"/>
  <radialGradient r="19.608" gradientTransform="matrix(.9996 -.0276 .0138 .4998 -.115 4.112)" cx="-1.04" cy="8.279" gradientUnits="userSpaceOnUse" xlink:href="#2" id="j"/>
  <radialGradient r="17.797" gradientTransform="matrix(.9996 -.0276 .0138 .4998 -.115 4.153)" cx="-0.45" cy="8.328" gradientUnits="userSpaceOnUse" xlink:href="#2" id="a"/>
  <radialGradient r="20.317" gradientTransform="matrix(.9996 -.0276 .0138 .4998 -.115 4.129)" cx="-1.179" cy="8.319" gradientUnits="userSpaceOnUse" xlink:href="#2" id="D"/>
  <radialGradient r="20.799" gradientTransform="matrix(.9996 -.0276 .0138 .4998 -.115 4.127)" cx="-1.249" cy="8.32" gradientUnits="userSpaceOnUse" xlink:href="#2" id="Y"/>
  <radialGradient r="21.295" gradientTransform="matrix(.9996 -.0276 .0138 .4998 -.118 4.231)" cx="-1.41" cy="8.535" gradientUnits="userSpaceOnUse" xlink:href="#2" id="W"/>
  <radialGradient r="19.1" gradientTransform="matrix(.9996 -.0276 .0138 .4998 -.112 4.03)" cx="-0.841" cy="8.105" gradientUnits="userSpaceOnUse" xlink:href="#2" id="U"/>
  <radialGradient r="21.647" gradientTransform="matrix(.9996 -.0276 .0138 .4998 -.116 4.141)" cx="-1.415" cy="8.356" gradientUnits="userSpaceOnUse" xlink:href="#2" id="S"/>
  <radialGradient r="23.979" gradientTransform="matrix(.9996 -.0276 .0138 .4998 -.114 4.066)" cx="-1.971" cy="8.237" gradientUnits="userSpaceOnUse" xlink:href="#2" id="7"/>
  <radialGradient r="17.956" gradientTransform="matrix(.9996 -.0276 .0138 .4998 -.117 4.205)" cx="-0.536" cy="8.437" gradientUnits="userSpaceOnUse" xlink:href="#2" id="c"/>
  <radialGradient r="20.596" gradientTransform="matrix(.9996 -.0276 .0138 .4998 -.115 4.11)" cx="-1.238" cy="8.286" gradientUnits="userSpaceOnUse" xlink:href="#2" id="h"/>
  <radialGradient r="18.745" gradientTransform="matrix(.9996 -.0276 .0138 .4998 -.115 4.139)" cx="-0.814" cy="8.319" gradientUnits="userSpaceOnUse" xlink:href="#2" id="e"/>
  <radialGradient r="20.795" gradientTransform="matrix(.9996 -.0276 .0138 .4998 -.115 4.127)" cx="-1.256" cy="8.319" gradientUnits="userSpaceOnUse" xlink:href="#2" id="9"/>
  <radialGradient r="21.236" gradientTransform="matrix(.9996 -.0276 .0138 .4998 -.116 4.143)" cx="-1.369" cy="8.358" gradientUnits="userSpaceOnUse" xlink:href="#2" id="f"/>
  <radialGradient r="21.647" gradientTransform="matrix(.9996 -.0276 .0138 .4998 -.116 4.141)" cx="-1.415" cy="8.356" gradientUnits="userSpaceOnUse" xlink:href="#2" id="S-286"/>
  <linearGradient y2="-12.34" x2="0" y1="12.412" gradientUnits="userSpaceOnUse" xlink:href="#5" id="T-986"/>
  <linearGradient y2="12.375" x2="0" y1="-12.375" gradientUnits="userSpaceOnUse" xlink:href="#1" id="1E-530"/>
  <linearGradient y2="-12.375" x2="0" y1="12.375" gradientUnits="userSpaceOnUse" xlink:href="#5" id="1F-560"/>
  <linearGradient y2="-7.64" x2="0" y1="-12.375" gradientUnits="userSpaceOnUse" xlink:href="#1" id="3-919"/>
  <radialGradient r="3.864" gradientTransform="matrix(.9996 -.0276 .0138 .4998 .113 -4.405)" cx="-7.109" cy="-8.416" gradientUnits="userSpaceOnUse" xlink:href="#2" id="4-855"/>
  <linearGradient y2="12.293" x2="0" y1="-12.457" gradientUnits="userSpaceOnUse" xlink:href="#1" id="6-378"/>
  <radialGradient r="23.979" gradientTransform="matrix(.9996 -.0276 .0138 .4998 -.114 4.066)" cx="-1.971" cy="8.237" gradientUnits="userSpaceOnUse" xlink:href="#2" id="7-647"/>
  <linearGradient y2="-12.457" x2="0" y1="12.293" gradientUnits="userSpaceOnUse" xlink:href="#5" id="8-169"/>
  <linearGradient y2="12.375" x2="0" y1="-12.375" gradientUnits="userSpaceOnUse" xlink:href="#1" id="1E-83"/>
  <radialGradient r="20.795" gradientTransform="matrix(.9996 -.0276 .0138 .4998 -.115 4.127)" cx="-1.256" cy="8.319" gradientUnits="userSpaceOnUse" xlink:href="#2" id="9-22"/>
  <linearGradient y2="-12.375" x2="0" y1="12.375" gradientUnits="userSpaceOnUse" xlink:href="#5" id="1F-472"/>
  <linearGradient y2="12.16" x2="0" y1="-12.591" gradientUnits="userSpaceOnUse" xlink:href="#0" id="A-240"/>
  <linearGradient y2="12.16" x2="0" y1="-12.591" gradientUnits="userSpaceOnUse" xlink:href="#1" id="B-658"/>
  <radialGradient r="19.1" gradientTransform="matrix(.9996 -.0276 .0138 .4998 -.112 4.03)" cx="-0.841" cy="8.105" gradientUnits="userSpaceOnUse" xlink:href="#2" id="U-437"/>
  <linearGradient y2="-12.591" x2="0" y1="12.16" gradientUnits="userSpaceOnUse" xlink:href="#5" id="V-58"/>
  <linearGradient y2="12.591" x2="0" y1="-12.16" gradientUnits="userSpaceOnUse" xlink:href="#1" id="C-932"/>
  <radialGradient r="21.295" gradientTransform="matrix(.9996 -.0276 .0138 .4998 -.118 4.231)" cx="-1.41" cy="8.535" gradientUnits="userSpaceOnUse" xlink:href="#2" id="W-840"/>
  <linearGradient y2="-12.16" x2="0" y1="12.591" gradientUnits="userSpaceOnUse" xlink:href="#5" id="X-394"/>
  <linearGradient y2="12.375" x2="0" y1="-12.375" gradientUnits="userSpaceOnUse" xlink:href="#1" id="1E-424"/>
  <radialGradient r="20.317" gradientTransform="matrix(.9996 -.0276 .0138 .4998 -.115 4.129)" cx="-1.179" cy="8.319" gradientUnits="userSpaceOnUse" xlink:href="#2" id="D-267"/>
  <linearGradient y2="-12.375" x2="0" y1="12.375" gradientUnits="userSpaceOnUse" xlink:href="#5" id="1F-251"/>
  <linearGradient y2="12.376" x2="0" y1="-12.374" gradientUnits="userSpaceOnUse" xlink:href="#0" id="E-635"/>
  <linearGradient y2="12.376" x2="0" y1="-12.374" gradientUnits="userSpaceOnUse" xlink:href="#1" id="F-401"/>
  <radialGradient r="20.799" gradientTransform="matrix(.9996 -.0276 .0138 .4998 -.115 4.127)" cx="-1.249" cy="8.32" gradientUnits="userSpaceOnUse" xlink:href="#2" id="Y-470"/>
  <linearGradient y2="-12.374" x2="0" y1="12.376" gradientUnits="userSpaceOnUse" xlink:href="#5" id="Z-312"/>
  <linearGradient y2="12.384" x2="0" y1="-12.367" gradientUnits="userSpaceOnUse" xlink:href="#1" id="G-437"/>
  <radialGradient r="17.797" gradientTransform="matrix(.9996 -.0276 .0138 .4998 -.115 4.153)" cx="-0.45" cy="8.328" gradientUnits="userSpaceOnUse" xlink:href="#2" id="a-396"/>
  <linearGradient y2="-12.367" x2="0" y1="12.384" gradientUnits="userSpaceOnUse" xlink:href="#5" id="b-149"/>
  <linearGradient y2="12.492" x2="0" y1="-12.26" gradientUnits="userSpaceOnUse" xlink:href="#1" id="H-462"/>
  <radialGradient r="17.956" gradientTransform="matrix(.9996 -.0276 .0138 .4998 -.117 4.205)" cx="-0.536" cy="8.437" gradientUnits="userSpaceOnUse" xlink:href="#2" id="c-385"/>
  <linearGradient y2="-12.26" x2="0" y1="12.492" gradientUnits="userSpaceOnUse" xlink:href="#5" id="d-560"/>
  <linearGradient y2="12.375" x2="0" y1="-12.375" gradientUnits="userSpaceOnUse" xlink:href="#1" id="1E-127"/>
  <radialGradient r="18.745" gradientTransform="matrix(.9996 -.0276 .0138 .4998 -.115 4.139)" cx="-0.814" cy="8.319" gradientUnits="userSpaceOnUse" xlink:href="#2" id="e-470"/>
  <linearGradient y2="-12.375" x2="0" y1="12.375" gradientUnits="userSpaceOnUse" xlink:href="#5" id="1F-243"/>
  <linearGradient y2="12.414" x2="0" y1="-12.336" gradientUnits="userSpaceOnUse" xlink:href="#1" id="I-547"/>
  <radialGradient r="21.236" gradientTransform="matrix(.9996 -.0276 .0138 .4998 -.116 4.143)" cx="-1.369" cy="8.358" gradientUnits="userSpaceOnUse" xlink:href="#2" id="f-616"/>
  <linearGradient y2="-12.336" x2="0" y1="12.414" gradientUnits="userSpaceOnUse" xlink:href="#5" id="g-874"/>
  <linearGradient y2="12.342" x2="0" y1="-12.41" gradientUnits="userSpaceOnUse" xlink:href="#1" id="J-76"/>
  <radialGradient r="20.596" gradientTransform="matrix(.9996 -.0276 .0138 .4998 -.115 4.11)" cx="-1.238" cy="8.286" gradientUnits="userSpaceOnUse" xlink:href="#2" id="h-244"/>
  <linearGradient y2="-12.41" x2="0" y1="12.342" gradientUnits="userSpaceOnUse" xlink:href="#5" id="i-755"/>
  <linearGradient y2="12.334" x2="0" y1="-12.417" gradientUnits="userSpaceOnUse" xlink:href="#1" id="K-597"/>
  <radialGradient r="19.608" gradientTransform="matrix(.9996 -.0276 .0138 .4998 -.115 4.112)" cx="-1.04" cy="8.279" gradientUnits="userSpaceOnUse" xlink:href="#2" id="j-34"/>
  <linearGradient y2="-12.417" x2="0" y1="12.335" gradientUnits="userSpaceOnUse" xlink:href="#5" id="k-837"/>
  <linearGradient y2="12.379" x2="0" y1="-12.373" gradientUnits="userSpaceOnUse" xlink:href="#0" id="L-405"/>
  <linearGradient y2="12.379" x2="0" y1="-12.373" gradientUnits="userSpaceOnUse" xlink:href="#1" id="M-482"/>
  <radialGradient r="23.407" gradientTransform="matrix(.9996 -.0276 .0138 .4998 -.115 4.117)" cx="-1.697" cy="8.323" gradientUnits="userSpaceOnUse" xlink:href="#2" id="l-314"/>
  <linearGradient y2="-12.373" x2="0" y1="12.379" gradientUnits="userSpaceOnUse" xlink:href="#5" id="m-498"/>
  <linearGradient y2="12.392" x2="0" y1="-12.359" gradientUnits="userSpaceOnUse" xlink:href="#1" id="N-964"/>
  <radialGradient r="17.827" gradientTransform="matrix(.9996 -.0276 .0138 .4998 -.115 4.157)" cx="-0.455" cy="8.336" gradientUnits="userSpaceOnUse" xlink:href="#2" id="n-571"/>
  <linearGradient y2="-12.359" x2="0" y1="12.392" gradientUnits="userSpaceOnUse" xlink:href="#5" id="o-397"/>
  <linearGradient y2="12.474" x2="0" y1="-12.277" gradientUnits="userSpaceOnUse" xlink:href="#1" id="O-781"/>
  <radialGradient r="19.49" gradientTransform="matrix(.9996 -.0276 .0138 .4998 -.116 4.183)" cx="-0.993" cy="8.418" gradientUnits="userSpaceOnUse" xlink:href="#2" id="P-488"/>
  <linearGradient y2="-12.277" x2="0" y1="12.474" gradientUnits="userSpaceOnUse" xlink:href="#5" id="Q-974"/>
  <linearGradient y2="12.416" x2="0" y1="-12.335" gradientUnits="userSpaceOnUse" xlink:href="#1" id="R-97"/>
  <radialGradient r="20.56" gradientTransform="matrix(.9996 -.0276 .0138 .4998 -.116 4.148)" cx="-1.229" cy="8.36" gradientUnits="userSpaceOnUse" xlink:href="#2" id="p-180"/>
  <linearGradient y2="-12.335" x2="0" y1="12.416" gradientUnits="userSpaceOnUse" xlink:href="#5" id="q-66"/>
  <linearGradient y2="13.07" x2="0" y1="-13.07" gradientUnits="userSpaceOnUse" xlink:href="#1" id="r-382"/>
  <radialGradient r="19.18" gradientTransform="matrix(.9996 -.0276 .0138 .4998 -.122 4.377)" cx="-0.632" cy="8.787" gradientUnits="userSpaceOnUse" xlink:href="#2" id="s-140"/>
  <linearGradient y2="-13.07" x2="0" y1="13.07" gradientUnits="userSpaceOnUse" xlink:href="#5" id="t-776"/>
 </defs>
 <path fill="#989898" fill-rule="evenodd" d="m471.95 253.05c0 120.9-98.01 218.9-218.9 218.9-120.9 0-218.9-98.01-218.9-218.9 0-120.9 98.01-218.9 218.9-218.9 120.9 0 218.9 98.01 218.9 218.9" id="path148"/>
 <path d="m261.34 101.34-2.156 3.03c-24.17 33.922-43.24 69.23-58.25 105.63-4.337 10.513-8.293 21.12-11.969 31.813l-2.25 1.625c-19.257 14-42.915 28.374-58.688 46.06-0.023 0.026-1.5 1.688-1.5 1.688 0.022 0.026 1.438 1.719 1.438 1.719 1.755 2.168 3.675 4.271 5.75 6.313 0.396 0.404 0.81 0.789 1.219 1.188 0.252 0.255 0.493 0.528 0.75 0.781 0.384 0.392 0.792 0.769 1.188 1.156 0.109 0.11 0.203 0.234 0.313 0.344 0.302 0.292 0.597 0.585 0.906 0.875 0.01 0.011 0.021 0.021 0.031 0.031 0.026 0.026 0.036 0.067 0.063 0.094 0.074 0.072 0.144 0.147 0.219 0.219 0.39 0.401 0.786 0.791 1.188 1.188 0.426 0.436 0.872 0.851 1.313 1.281 0.031 0.032 0.063 0.062 0.094 0.094 0.17 0.171 0.328 0.361 0.5 0.531 0.411 0.421 0.826 0.834 1.25 1.25 0.134 0.136 0.271 0.27 0.406 0.406 0.122 0.118 0.252 0.226 0.375 0.344 0.005 0.005-0.005 0.026 0 0.031-0.018 0.189-0.048 0.374-0.063 0.563-0.058 0.755-0.123 1.477-0.156 2.063-0.034 0.585-0.113 1.218-0.063 0.938v0.031c-2.898 18.04-6.315 20.65-18.281 31l-2.125 1.844 1.969 2.031 1 1 1 1c0.292 0.288 0.591 0.599 0.875 0.875l0.125 0.125c0.061 0.059 0.127 0.098 0.188 0.156 0.163 0.16 0.34 0.344 0.5 0.5l0.281 0.313c0.231 0.228 0.494 0.468 0.719 0.688l0.281 0.313c0.231 0.228 0.494 0.468 0.719 0.688l0.281 0.313c0.228 0.225 0.496 0.47 0.719 0.688 0.074 0.076 0.281 0.313 0.281 0.313 0.176 0.178 0.327 0.327 0.5 0.5 0.06 0.059 0.128 0.129 0.188 0.188 0.081 0.084 0.313 0.313 0.313 0.313 0.292 0.288 0.591 0.599 0.875 0.875 0.014 0.015 0.125 0.125 0.125 0.125 0.061 0.059 0.127 0.098 0.188 0.156 0.163 0.16 0.34 0.344 0.5 0.5 0.074 0.076 0.281 0.313 0.281 0.313 0.231 0.228 0.494 0.468 0.719 0.688 0.074 0.076 0.281 0.313 0.281 0.313 0.231 0.228 0.494 0.468 0.719 0.688 0.074 0.076 0.281 0.313 0.281 0.313 0.228 0.225 0.496 0.47 0.719 0.688 0.074 0.076 0.281 0.313 0.281 0.313 0.224 0.221 0.469 0.474 0.688 0.688 0.081 0.084 0.313 0.313 0.313 0.313 0.224 0.221 0.469 0.474 0.688 0.688 0.081 0.084 0.313 0.313 0.313 0.313 0.292 0.288 0.591 0.599 0.875 0.875 0.008 0.009 0.094 0.094 0.094 0.094 0.072 0.07 0.148 0.119 0.219 0.188 0.163 0.16 0.34 0.344 0.5 0.5 0.074 0.076 0.281 0.313 0.281 0.313 0.231 0.228 0.494 0.468 0.719 0.688 0.074 0.076 0.281 0.313 0.281 0.313 0.228 0.225 0.496 0.47 0.719 0.688 0.074 0.076 0.281 0.313 0.281 0.313 0.224 0.221 0.469 0.474 0.688 0.688 0.081 0.084 0.313 0.313 0.313 0.313 0.224 0.221 0.469 0.474 0.688 0.688 0.081 0.084 0.313 0.313 0.313 0.313 0.292 0.288 0.591 0.599 0.875 0.875l0.094 0.094c0.072 0.07 0.148 0.119 0.219 0.188 0.163 0.16 0.34 0.344 0.5 0.5 0.074 0.076 0.281 0.313 0.281 0.313 0.231 0.228 0.494 0.468 0.719 0.688 0.074 0.076 0.281 0.313 0.281 0.313 0.228 0.225 0.496 0.47 0.719 0.688 0.074 0.076 0.281 0.313 0.281 0.313 0.228 0.225 0.496 0.47 0.719 0.688 0.074 0.076 0.281 0.313 0.281 0.313 0.176 0.178 0.327 0.327 0.5 0.5 0.06 0.059 0.128 0.129 0.188 0.188 0.081 0.084 0.313 0.313 0.313 0.313 0.292 0.288 0.591 0.599 0.875 0.875 0.014 0.015 0.125 0.125 0.125 0.125 0.061 0.059 0.127 0.098 0.188 0.156 0.163 0.16 0.34 0.344 0.5 0.5 0.074 0.076 0.281 0.313 0.281 0.313 0.231 0.228 0.494 0.468 0.719 0.688 0.074 0.076 0.281 0.313 0.281 0.313 0.231 0.228 0.494 0.468 0.719 0.688 0.074 0.076 0.281 0.313 0.281 0.313 0.228 0.225 0.496 0.47 0.719 0.688 0.074 0.076 0.281 0.313 0.281 0.313 0.176 0.178 0.327 0.327 0.5 0.5 0.138 0.135 0.27 0.274 0.406 0.406l0.094 0.094c0.093 0.091 0.189 0.161 0.281 0.25 0.005 0.005-0.005 0.026 0 0.031-0.342 2.724-0.722 5.454-1.031 8.188l-0.469 4 1.156-0.344-0.156 1.344 1.156-0.344-0.156 1.344 1.156-0.344-0.156 1.344 1.125-0.344c-0.068 0.579-0.156 1.313-0.156 1.313s0.671-0.198 1.156-0.344c-0.07 0.599-0.156 1.344-0.156 1.344s0.671-0.198 1.156-0.344c-0.07 0.599-0.156 1.344-0.156 1.344 0.001 0 0.671-0.198 1.156-0.344-0.07 0.599-0.156 1.344-0.156 1.344 0.001 0 0.671-0.198 1.156-0.344-0.07 0.599-0.156 1.344-0.156 1.344 0.001 0 0.671-0.198 1.156-0.344-0.07 0.599-0.156 1.344-0.156 1.344 0.001 0 0.658-0.203 1.125-0.344l-0.156 1.313c0.001 0 0.671-0.198 1.156-0.344-0.07 0.599-0.156 1.344-0.156 1.344 0.001 0 0.671-0.198 1.156-0.344-0.07 0.599-0.156 1.344-0.156 1.344 0.001 0 0.671-0.198 1.156-0.344l-0.156 1.344c0.001 0 0.671-0.198 1.156-0.344-0.07 0.599-0.156 1.344-0.156 1.344 0.001 0 0.671-0.198 1.156-0.344-0.07 0.599-0.156 1.344-0.156 1.344 0.001 0 0.658-0.203 1.125-0.344-0.068 0.578-0.156 1.313-0.156 1.313 0.001 0 0.671-0.198 1.156-0.344-0.07 0.599-0.156 1.344-0.156 1.344 0.001 0 0.671-0.198 1.156-0.344-0.07 0.599-0.156 1.344-0.156 1.344 0.001-0.001 0.671-0.198 1.156-0.344-0.07 0.599-0.156 1.344-0.156 1.344 0.002-0.001 0.671-0.198 1.156-0.344-0.07 0.599-0.156 1.344-0.156 1.344 0.002-0.001 0.671-0.198 1.156-0.344-0.07 0.599-0.156 1.344-0.156 1.344 0.002-0.001 0.658-0.203 1.125-0.344-0.068 0.578-0.156 1.313-0.156 1.313 0.002-0.001 0.671-0.198 1.156-0.344l-0.156 1.344c0.002-0.001 0.67-0.198 1.156-0.344-0.07 0.599-0.156 1.344-0.156 1.344 0.002-0.001 0.67-0.198 1.156-0.344-0.07 0.599-0.156 1.344-0.156 1.344 0.002-0.001 0.67-0.198 1.156-0.344l-0.156 1.344c0.002-0.001 0.67-0.198 1.156-0.344-0.07 0.599-0.156 1.344-0.156 1.344 0.002-0.001 0.67-0.198 1.156-0.344-0.07 0.598-0.156 1.344-0.156 1.344 0.002-0.001 0.658-0.203 1.125-0.344-0.068 0.578-0.156 1.313-0.156 1.313 0.003-0.001 0.67-0.198 1.156-0.344-0.07 0.598-0.156 1.344-0.156 1.344 0.003-0.001 0.67-0.198 1.156-0.344-0.07 0.598-0.156 1.344-0.156 1.344 0.003-0.001 0.67-0.198 1.156-0.344-0.07 0.598-0.156 1.344-0.156 1.344 0.003-0.001 0.67-0.198 1.156-0.344-0.07 0.598-0.156 1.344-0.156 1.344l1.156-0.344c-0.07 0.598-0.156 1.344-0.156 1.344l1.125-0.344c-0.068 0.578-0.156 1.313-0.156 1.313 0.003-0.001 0.67-0.198 1.156-0.344-0.07 0.598-0.156 1.344-0.156 1.344 0.003-0.001 0.67-0.198 1.156-0.344-0.07 0.598-0.156 1.344-0.156 1.344 0.003-0.001 0.67-0.198 1.156-0.344-0.07 0.598-0.156 1.344-0.156 1.344 0.003-0.001 0.67-0.198 1.156-0.344-0.07 0.598-0.156 1.344-0.156 1.344 0.003-0.001 0.67-0.198 1.156-0.344-0.07 0.598-0.156 1.344-0.156 1.344 0.003-0.001 0.658-0.203 1.125-0.344-0.068 0.577-0.156 1.313-0.156 1.313 0.004-0.001 0.67-0.198 1.156-0.344-0.07 0.598-0.156 1.344-0.156 1.344 0.004-0.001 0.67-0.198 1.156-0.344-0.07 0.598-0.156 1.344-0.156 1.344 0.004-0.001 0.67-0.198 1.156-0.344-0.07 0.598-0.156 1.344-0.156 1.344 0.004-0.001 0.67-0.198 1.156-0.344-0.07 0.598-0.156 1.344-0.156 1.344 0.004-0.001 0.67-0.198 1.156-0.344-0.07 0.598-0.156 1.344-0.156 1.344 0.004-0.001 0.67-0.198 1.156-0.344-0.07 0.598-0.156 1.344-0.156 1.344 0.004-0.001 0.658-0.203 1.125-0.344-0.068 0.577-0.156 1.313-0.156 1.313 0.004-0.001 0.67-0.198 1.156-0.344-0.07 0.598-0.156 1.344-0.156 1.344 0.004-0.001 0.67-0.198 1.156-0.344-0.07 0.598-0.156 1.344-0.156 1.344 0.004-0.001 0.67-0.198 1.156-0.344-0.07 0.598-0.156 1.344-0.156 1.344 0.005-0.002 0.67-0.198 1.156-0.344-0.07 0.598-0.156 1.344-0.156 1.344 0.005-0.002 0.67-0.198 1.156-0.344-0.07 0.598-0.156 1.344-0.156 1.344 0.005-0.001 0.658-0.203 1.125-0.344-0.068 0.577-0.156 1.313-0.156 1.313 0.005-0.002 0.67-0.198 1.156-0.344-0.07 0.598-0.156 1.344-0.156 1.344 0.005-0.002 0.67-0.198 1.156-0.344l-0.156 1.344c0.005-0.002 0.67-0.198 1.156-0.344-0.07 0.597-0.156 1.344-0.156 1.344 0.005-0.002 0.67-0.198 1.156-0.344-0.07 0.597-0.156 1.344-0.156 1.344 0.005-0.002 0.67-0.198 1.156-0.344-0.07 0.597-0.156 1.344-0.156 1.344 0.005-0.001 0.658-0.203 1.125-0.344-0.068 0.577-0.156 1.313-0.156 1.313 0.005-0.002 0.67-0.198 1.156-0.344-0.07 0.597-0.156 1.344-0.156 1.344 0.005-0.002 0.67-0.198 1.156-0.344-0.07 0.597-0.156 1.344-0.156 1.344 0.005-0.002 0.67-0.198 1.156-0.344-0.07 0.597-0.156 1.344-0.156 1.344 0.006-0.002 0.67-0.198 1.156-0.344-0.07 0.597-0.156 1.344-0.156 1.344 0.006-0.002 0.67-0.198 1.156-0.344-0.07 0.597-0.156 1.344-0.156 1.344 0.006-0.002 0.658-0.203 1.125-0.344-0.068 0.577-0.156 1.313-0.156 1.313 0.006-0.002 0.67-0.198 1.156-0.344-0.07 0.597-0.156 1.344-0.156 1.344 0.006-0.002 0.67-0.198 1.156-0.344-0.07 0.597-0.156 1.344-0.156 1.344 0.006-0.002 0.67-0.198 1.156-0.344-0.07 0.597-0.156 1.344-0.156 1.344 0.006-0.002 0.67-0.198 1.156-0.344-0.07 0.597-0.156 1.344-0.156 1.344 0.006-0.002 0.67-0.198 1.156-0.344-0.07 0.597-0.156 1.344-0.156 1.344 0.006-0.002 0.67-0.198 1.156-0.344-0.07 0.597-0.156 1.344-0.156 1.344 0.006-0.002 0.658-0.203 1.125-0.344-0.068 0.576-0.156 1.313-0.156 1.313 0.006-0.002 0.67-0.198 1.156-0.344-0.07 0.597-0.156 1.344-0.156 1.344 0.007-0.002 0.67-0.198 1.156-0.344-0.07 0.597-0.156 1.344-0.156 1.344 0.007-0.002 0.67-0.198 1.156-0.344-0.07 0.597-0.156 1.344-0.156 1.344 0.007-0.002 0.67-0.198 1.156-0.344-0.07 0.597-0.156 1.344-0.156 1.344 0.007-0.002 0.67-0.198 1.156-0.344-0.07 0.597-0.156 1.344-0.156 1.344 0.007-0.002 0.658-0.203 1.125-0.344-0.058 0.493-0.105 0.96-0.125 1.125 0.156 0.013 0.312 0.019 0.469 0.031 0.237-0.07 0.381-0.105 0.656-0.188-0.013 0.111-0.018 0.134-0.031 0.25 5.569 0.425 11.197 0.656 16.875 0.656 102.31 0 188.25-70.21 212.25-165.06-0.593-0.847-1.181-1.684-1.781-2.531-0.033-0.047-2.156-3.03-2.156-3.03l-0.156 0.188-0.844-1.188-0.156 0.188c-0.398-0.56-0.844-1.188-0.844-1.188l-0.156 0.188c-0.398-0.56-0.844-1.188-0.844-1.188l-0.125 0.188-0.844-1.156-0.156 0.188c-0.398-0.56-0.844-1.188-0.844-1.188l-0.156 0.188c-0.398-0.56-0.844-1.188-0.844-1.188l-0.156 0.188-0.844-1.188-0.156 0.188c-0.398-0.56-0.844-1.188-0.844-1.188l-0.156 0.188c-0.398-0.56-0.844-1.188-0.844-1.188l-0.125 0.188c-0.389-0.547-0.844-1.156-0.844-1.156l-0.156 0.188c-0.398-0.56-0.844-1.188-0.844-1.188l-0.156 0.188c-0.398-0.56-0.844-1.188-0.844-1.188l-0.156 0.188c-0.398-0.56-0.844-1.188-0.844-1.188l-0.156 0.188c-0.398-0.56-0.844-1.188-0.844-1.188l-0.156 0.188c-0.398-0.56-0.844-1.188-0.844-1.188l-0.125 0.188c-0.389-0.547-0.844-1.156-0.844-1.156l-0.156 0.188c-0.398-0.56-0.844-1.188-0.844-1.188l-0.156 0.188c-0.398-0.56-0.844-1.188-0.844-1.188l-0.156 0.188c-0.398-0.56-0.844-1.188-0.844-1.188l-0.156 0.188c-0.399-0.56-0.844-1.188-0.844-1.188l-0.156 0.188c-0.399-0.56-0.844-1.188-0.844-1.188l-0.156 0.188c-0.389-0.546-0.813-1.156-0.813-1.156l-0.156 0.188c-0.399-0.56-0.844-1.188-0.844-1.188l-0.156 0.188c-0.399-0.56-0.844-1.188-0.844-1.188l-0.156 0.188c-0.399-0.56-0.844-1.188-0.844-1.188l-0.156 0.188c-0.399-0.56-0.844-1.188-0.844-1.188l-0.156 0.188c-0.399-0.56-0.844-1.188-0.844-1.188l-0.156 0.188c-0.399-0.56-0.844-1.188-0.844-1.188l-0.125 0.188c-0.389-0.547-0.844-1.156-0.844-1.156l-0.156 0.188c-0.399-0.561-0.844-1.188-0.844-1.188l-0.156 0.188c-0.399-0.561-0.844-1.188-0.844-1.188l-0.156 0.188c-0.399-0.561-0.844-1.188-0.844-1.188l-0.156 0.188c-0.399-0.561-0.844-1.188-0.844-1.188l-0.156 0.188c-0.399-0.561-0.844-1.188-0.844-1.188l-0.125 0.188c-0.389-0.547-0.844-1.156-0.844-1.156l-0.156 0.188c-0.399-0.561-0.844-1.188-0.844-1.188l-0.156 0.188c-0.399-0.561-0.844-1.188-0.844-1.188l-0.156 0.188-0.844-1.188-0.156 0.188c-0.399-0.561-0.844-1.188-0.844-1.188l-0.156 0.188c-0.399-0.561-0.844-1.188-0.844-1.188l-0.125 0.188-0.844-1.156-0.156 0.188c-0.399-0.561-0.844-1.188-0.844-1.188l-0.156 0.188-0.844-1.188-0.156 0.188-0.844-1.188-0.156 0.188c-0.399-0.561-0.844-1.188-0.844-1.188l-0.156 0.188-0.844-1.188-0.156 0.188-0.844-1.188-0.125 0.188c-0.39-0.548-0.844-1.156-0.844-1.156l-0.156 0.188-0.844-1.188-0.156 0.188-0.844-1.188-0.156 0.188c-0.399-0.561-0.844-1.188-0.844-1.188l-0.156 0.188c-0.399-0.561-0.844-1.188-0.844-1.188l-0.156 0.188-0.844-1.188-0.125 0.188c-0.39-0.548-0.844-1.156-0.844-1.156l-0.156 0.188c-0.399-0.561-0.844-1.188-0.844-1.188l-0.156 0.188-0.844-1.188-0.156 0.188c-0.399-0.561-0.844-1.188-0.844-1.188l-0.156 0.188c-0.399-0.561-0.844-1.188-0.844-1.188l-0.156 0.188-0.844-1.188-0.125 0.188c-0.39-0.548-0.844-1.156-0.844-1.156l-0.156 0.188c-0.399-0.561-0.844-1.188-0.844-1.188l-0.156 0.188-0.844-1.188-0.156 0.188c-0.399-0.562-0.844-1.188-0.844-1.188l-0.156 0.188c-0.399-0.562-0.844-1.188-0.844-1.188l-0.156 0.188c-0.399-0.562-0.844-1.188-0.844-1.188l-0.156 0.188c-0.389-0.547-0.813-1.156-0.813-1.156l-0.156 0.188c-0.4-0.562-0.844-1.188-0.844-1.188l-0.156 0.188c-0.4-0.562-0.844-1.188-0.844-1.188l-0.156 0.188c-0.4-0.562-0.844-1.188-0.844-1.188l-0.156 0.188c-0.4-0.562-0.844-1.188-0.844-1.188l-0.156 0.188c-0.4-0.562-0.844-1.188-0.844-1.188l-0.156 0.188c-0.4-0.562-0.844-1.188-0.844-1.188l-0.125 0.188c-0.39-0.548-0.844-1.156-0.844-1.156l-0.156 0.188c-0.4-0.562-0.844-1.188-0.844-1.188l-0.156 0.188c-0.4-0.562-0.844-1.188-0.844-1.188l-0.156 0.188c-0.4-0.562-0.844-1.188-0.844-1.188l-0.156 0.188c-0.4-0.562-0.844-1.188-0.844-1.188l-0.156 0.188c-0.4-0.562-0.844-1.188-0.844-1.188l-0.125 0.188c-0.39-0.549-0.844-1.156-0.844-1.156l-0.156 0.188-0.844-1.188-0.156 0.188c-0.4-0.562-0.844-1.188-0.844-1.188l-0.156 0.188c-0.4-0.562-0.844-1.188-0.844-1.188l-0.156 0.188-0.844-1.188-0.156 0.188c-0.4-0.562-0.844-1.188-0.844-1.188l-0.125 0.188c-0.39-0.549-0.844-1.156-0.844-1.156l-0.156 0.188-0.844-1.188-0.156 0.188c-0.4-0.562-0.844-1.188-0.844-1.188l-0.156 0.188c-0.4-0.562-0.844-1.188-0.844-1.188l-0.156 0.188-0.844-1.188-0.156 0.188c-0.4-0.562-0.844-1.188-0.844-1.188l-0.156 0.188c-0.4-0.562-0.844-1.188-0.844-1.188l-0.125 0.188-0.844-1.156-0.156 0.188c-0.4-0.562-0.844-1.188-0.844-1.188l-0.156 0.188c-0.4-0.562-0.844-1.188-0.844-1.188l-0.156 0.188-0.844-1.188-0.156 0.188c-0.4-0.563-0.844-1.188-0.844-1.188l-0.156 0.188c-0.4-0.563-0.844-1.188-0.844-1.188l-0.125 0.188-0.844-1.156-0.156 0.188c-0.4-0.563-0.844-1.188-0.844-1.188l-0.156 0.188c-0.4-0.563-0.844-1.188-0.844-1.188l-0.156 0.188-0.844-1.188-0.156 0.188c-0.4-0.563-0.844-1.188-0.844-1.188l-0.156 0.188c-0.4-0.563-0.844-1.188-0.844-1.188l-0.125 0.188-0.844-1.156-0.156 0.188c-0.4-0.563-0.844-1.188-0.844-1.188l-0.156 0.188c-0.4-0.563-0.844-1.188-0.844-1.188l-0.156 0.188-0.844-1.188-0.156 0.188c-0.4-0.563-0.844-1.188-0.844-1.188l-0.156 0.188c-0.4-0.563-0.844-1.188-0.844-1.188l-0.125 0.188-0.844-1.156-0.156 0.188c-0.4-0.563-0.844-1.188-0.844-1.188l-0.156 0.188c-0.4-0.563-0.844-1.188-0.844-1.188l-0.156 0.188-0.844-1.188-0.156 0.188c-0.401-0.563-0.844-1.188-0.844-1.188l-0.156 0.188c-0.401-0.563-0.844-1.188-0.844-1.188l-0.156 0.188c-0.401-0.563-0.844-1.188-0.844-1.188l-0.125 0.188c-0.391-0.55-0.844-1.156-0.844-1.156l-0.156 0.188c-0.401-0.563-0.844-1.188-0.844-1.188l-0.156 0.188c-0.401-0.563-0.844-1.188-0.844-1.188l-0.156 0.188c-0.401-0.563-0.844-1.188-0.844-1.188l-0.156 0.188c-0.401-0.563-0.844-1.188-0.844-1.188l-0.156 0.188c-0.401-0.563-0.844-1.188-0.844-1.188l-0.125 0.188c-0.391-0.55-0.844-1.156-0.844-1.156l-0.156 0.188c-0.401-0.563-0.844-1.188-0.844-1.188l-0.156 0.188c-0.401-0.563-0.844-1.188-0.844-1.188l-0.156 0.188c-0.401-0.563-0.844-1.188-0.844-1.188l-0.156 0.188c-0.401-0.563-0.844-1.188-0.844-1.188l-0.156 0.188c-0.401-0.563-0.844-1.188-0.844-1.188l-0.125 0.188c-0.391-0.55-0.844-1.156-0.844-1.156l-0.156 0.188c-0.401-0.564-0.844-1.188-0.844-1.188l-0.156 0.188c-0.401-0.564-0.844-1.188-0.844-1.188l-0.156 0.188c-0.401-0.564-0.844-1.188-0.844-1.188l-0.156 0.188c-0.401-0.564-0.844-1.188-0.844-1.188l-0.156 0.188c-0.401-0.564-0.844-1.188-0.844-1.188l-0.156 0.188c-0.401-0.564-0.844-1.188-0.844-1.188l-0.125 0.188c-0.391-0.55-0.844-1.156-0.844-1.156l-0.156 0.188c-0.401-0.564-0.844-1.188-0.844-1.188l-0.156 0.188c-0.401-0.564-0.844-1.188-0.844-1.188l-0.156 0.188c-0.401-0.564-0.844-1.188-0.844-1.188l-0.156 0.188-0.844-1.188-0.156 0.188c-0.401-0.564-0.844-1.188-0.844-1.188l-0.125 0.188c-0.392-0.55-0.844-1.156-0.844-1.156l-0.156 0.188c-0.401-0.564-0.844-1.188-0.844-1.188l-0.156 0.188c-0.401-0.564-0.844-1.188-0.844-1.188l-0.156 0.188c-0.401-0.564-0.844-1.188-0.844-1.188l-0.156 0.188c-0.401-0.564-0.844-1.188-0.844-1.188l-0.156 0.188c-0.401-0.564-0.844-1.188-0.844-1.188l-0.125 0.188c-0.392-0.551-0.844-1.156-0.844-1.156l-0.156 0.188c-0.401-0.564-0.844-1.188-0.844-1.188l-0.156 0.188c-0.401-0.564-0.844-1.188-0.844-1.188l-0.156 0.188c-0.401-0.564-0.844-1.188-0.844-1.188l-0.156 0.188c-0.401-0.564-0.844-1.188-0.844-1.188l-0.156 0.188c-0.401-0.564-0.844-1.188-0.844-1.188l-0.125 0.188c-0.392-0.551-0.844-1.156-0.844-1.156l-0.156 0.188c-0.401-0.564-0.844-1.188-0.844-1.188l-0.156 0.188c-0.401-0.564-0.844-1.188-0.844-1.188l-0.156 0.188c-0.401-0.564-0.844-1.188-0.844-1.188l-0.156 0.188c-0.401-0.564-0.844-1.188-0.844-1.188l-0.156 0.188c-0.401-0.564-0.844-1.188-0.844-1.188l-0.156 0.188c-0.401-0.564-0.844-1.188-0.844-1.188l-0.125 0.188c-0.392-0.551-0.844-1.156-0.844-1.156l-0.156 0.188c-0.402-0.564-0.844-1.188-0.844-1.188l-0.156 0.188c-0.402-0.564-0.844-1.188-0.844-1.188l-0.156 0.188c-0.402-0.564-0.844-1.188-0.844-1.188l-0.156 0.188c-0.402-0.565-0.844-1.188-0.844-1.188l-0.156 0.188c-0.402-0.565-0.844-1.188-0.844-1.188l-0.125 0.188c-0.392-0.551-0.844-1.156-0.844-1.156l-0.156 0.188c-0.402-0.565-0.844-1.188-0.844-1.188l-0.156 0.188c-0.402-0.565-0.844-1.188-0.844-1.188l-0.156 0.188c-0.402-0.565-0.844-1.188-0.844-1.188l-0.156 0.188c-0.402-0.565-0.844-1.188-0.844-1.188l-0.156 0.188c-0.402-0.565-0.844-1.188-0.844-1.188l-0.125 0.188c-0.392-0.551-0.844-1.156-0.844-1.156l-0.156 0.188c-0.402-0.565-0.844-1.188-0.844-1.188l-0.156 0.188c-0.402-0.565-0.844-1.188-0.844-1.188l-0.156 0.188c-0.402-0.565-0.844-1.188-0.844-1.188l-0.156 0.188c-0.402-0.565-0.844-1.188-0.844-1.188l-0.156 0.188c-0.402-0.565-0.844-1.188-0.844-1.188l-0.156 0.188c-0.402-0.565-0.844-1.188-0.844-1.188l-0.125 0.188c-0.392-0.552-0.844-1.156-0.844-1.156l-0.156 0.188c-0.402-0.565-0.844-1.188-0.844-1.188l-0.156 0.188c-0.402-0.565-0.844-1.188-0.844-1.188l-0.156 0.188c-0.402-0.565-0.844-1.188-0.844-1.188l-0.156 0.188c-0.402-0.565-0.844-1.188-0.844-1.188l-0.156 0.188c-0.402-0.565-0.844-1.188-0.844-1.188l-0.125 0.188c-0.393-0.552-0.844-1.156-0.844-1.156l-0.156 0.188c-0.402-0.565-0.844-1.188-0.844-1.188l-0.156 0.188c-0.402-0.565-0.844-1.188-0.844-1.188l-0.156 0.188c-0.402-0.565-0.844-1.188-0.844-1.188l-0.156 0.188c-0.402-0.565-0.844-1.188-0.844-1.188l-0.156 0.188c-0.402-0.565-0.844-1.188-0.844-1.188l-0.125 0.188c-0.393-0.552-0.844-1.156-0.844-1.156l-0.156 0.188c-0.402-0.565-0.844-1.188-0.844-1.188l-0.156 0.188c-0.402-0.565-0.844-1.188-0.844-1.188l-0.156 0.188c-0.402-0.566-0.844-1.188-0.844-1.188l-0.156 0.188c-0.402-0.566-0.844-1.188-0.844-1.188l-0.156 0.188-0.844-1.188-0.125 0.188-0.844-1.156-0.156 0.188-0.844-1.188-0.156 0.188-0.844-1.188-0.156 0.188-0.844-1.188" fill-opacity="0.235" id="path150"/>
 <g transform="translate(2106,-33.418)" id="g152">
  <symbol viewBox="-14.006 -13.196 28.013 26.392" id="symbol154">
   <use fill="url(#0)" width="512" height="512" xlink:href="#u" id="use156"/>
   <use fill="url(#1)" width="512" height="512" xlink:href="#u" id="use158"/>
   <g opacity="0.81" id="g160">
    <use fill="url(#S-286)" width="512" height="512" xlink:href="#u" id="use162"/>
   </g>
   <g opacity="0.7" id="g164">
    <use fill="url(#T-986)" width="512" height="512" xlink:href="#u" id="use166"/>
   </g>
  </symbol>
  <symbol viewBox="-9.085 -13 18.17 26" id="symbol168">
   <use fill="url(#1E-530)" width="512" height="512" xlink:href="#v" id="use170"/>
   <use fill="url(#2)" width="512" height="512" xlink:href="#v" opacity="0.81" id="use172"/>
   <use fill="url(#1F-560)" width="512" height="512" xlink:href="#v" opacity="0.7" id="use174"/>
   <use fill="url(#3-919)" width="512" height="512" xlink:href="#w" id="use176"/>
   <use fill="url(#4-855)" width="512" height="512" xlink:href="#w" opacity="0.81" id="use178"/>
   <use fill="url(#5)" width="512" height="512" xlink:href="#w" opacity="0.7" id="use180"/>
  </symbol>
  <symbol viewBox="-18.023 -13.082 36.047 26.164" id="symbol182">
   <use fill="url(#6-378)" width="512" height="512" xlink:href="#x" id="use184"/>
   <use fill="url(#7-647)" width="512" height="512" xlink:href="#x" opacity="0.81" id="use186"/>
   <use fill="url(#8-169)" width="512" height="512" xlink:href="#x" opacity="0.7" id="use188"/>
  </symbol>
  <symbol viewBox="-12.408 -12.557 24.817 25.114" id="symbol190">
   <use fill="url(#1E-83)" width="512" height="512" xlink:href="#y" id="use192"/>
   <use fill="url(#9-22)" width="512" height="512" xlink:href="#y" opacity="0.81" id="use194"/>
   <use fill="url(#1F-472)" width="512" height="512" xlink:href="#y" opacity="0.7" id="use196"/>
  </symbol>
  <symbol viewBox="-8.71 -13.216 17.421 26.431" id="symbol198">
   <use fill="url(#A-240)" width="512" height="512" xlink:href="#z" id="use200"/>
   <use fill="url(#B-658)" width="512" height="512" xlink:href="#z" id="use202"/>
   <g opacity="0.81" id="g204">
    <use fill="url(#U-437)" width="512" height="512" xlink:href="#z" id="use206"/>
   </g>
   <g opacity="0.7" id="g208">
    <use fill="url(#V-58)" width="512" height="512" xlink:href="#z" id="use210"/>
   </g>
  </symbol>
  <symbol viewBox="-13.473 -13.109 26.945 26.218" id="symbol212">
   <use fill="url(#C-932)" width="512" height="512" xlink:href="#10" id="use214"/>
   <g opacity="0.81" id="g216">
    <use fill="url(#W-840)" width="512" height="512" xlink:href="#10" id="use218"/>
   </g>
   <g opacity="0.7" id="g220">
    <use fill="url(#X-394)" width="512" height="512" xlink:href="#10" id="use222"/>
   </g>
  </symbol>
  <symbol viewBox="-11.468 -13 22.936 26" id="symbol224">
   <use fill="url(#1E-424)" width="512" height="512" xlink:href="#11" id="use226"/>
   <use fill="url(#D-267)" width="512" height="512" xlink:href="#11" opacity="0.81" id="use228"/>
   <use fill="url(#1F-251)" width="512" height="512" xlink:href="#11" opacity="0.7" id="use230"/>
  </symbol>
  <symbol viewBox="-12.423 -12.58 24.846 25.16" id="symbol232">
   <use fill="url(#E-635)" width="512" height="512" xlink:href="#12" id="use234"/>
   <use fill="url(#F-401)" width="512" height="512" xlink:href="#12" id="use236"/>
   <g opacity="0.81" id="g238">
    <use fill="url(#Y-470)" width="512" height="512" xlink:href="#12" id="use240"/>
   </g>
   <g opacity="0.7" id="g242">
    <use fill="url(#Z-312)" width="512" height="512" xlink:href="#12" id="use244"/>
   </g>
  </symbol>
  <symbol viewBox="-4.515 -12.992 9.029 25.984" id="symbol246">
   <use fill="url(#G-437)" width="512" height="512" xlink:href="#13" id="use248"/>
   <g opacity="0.81" id="g250">
    <use fill="url(#a-396)" width="512" height="512" xlink:href="#13" id="use252"/>
   </g>
   <g opacity="0.7" id="g254">
    <use fill="url(#b-149)" width="512" height="512" xlink:href="#13" id="use256"/>
   </g>
  </symbol>
  <symbol viewBox="-5.005 -12.966 10.01 25.934" id="symbol258">
   <use fill="url(#H-462)" width="512" height="512" xlink:href="#14" id="use260"/>
   <g opacity="0.81" id="g262">
    <use fill="url(#c-385)" width="512" height="512" xlink:href="#14" id="use264"/>
   </g>
   <g opacity="0.7" id="g266">
    <use fill="url(#d-560)" width="512" height="512" xlink:href="#14" id="use268"/>
   </g>
  </symbol>
  <symbol viewBox="-7.674 -13 15.346 26" id="symbol270">
   <use fill="url(#1E-127)" width="512" height="512" xlink:href="#15" id="use272"/>
   <g opacity="0.81" id="g274">
    <use fill="url(#e-470)" width="512" height="512" xlink:href="#15" id="use276"/>
   </g>
   <g opacity="0.7" id="g278">
    <use fill="url(#1F-243)" width="512" height="512" xlink:href="#15" id="use280"/>
   </g>
  </symbol>
  <symbol viewBox="-13.234 -12.959 26.468 25.918" id="symbol282">
   <use fill="url(#I-547)" width="512" height="512" xlink:href="#16" id="use284"/>
   <g opacity="0.81" id="g286">
    <use fill="url(#f-616)" width="512" height="512" xlink:href="#16" id="use288"/>
   </g>
   <g opacity="0.7" id="g290">
    <use fill="url(#g-874)" width="512" height="512" xlink:href="#16" id="use292"/>
   </g>
  </symbol>
  <symbol viewBox="-11.989 -12.933 23.978 25.865" id="symbol294">
   <use fill="url(#J-76)" width="512" height="512" xlink:href="#17" id="use296"/>
   <g opacity="0.81" id="g298">
    <use fill="url(#h-244)" width="512" height="512" xlink:href="#17" id="use300"/>
   </g>
   <g opacity="0.7" id="g302">
    <use fill="url(#i-755)" width="512" height="512" xlink:href="#17" id="use304"/>
   </g>
  </symbol>
  <symbol viewBox="-9.887 -13.095 19.774 26.191" id="symbol306">
   <use fill="url(#K-597)" width="512" height="512" xlink:href="#18" id="use308"/>
   <g opacity="0.81" id="g310">
    <use fill="url(#j-34)" width="512" height="512" xlink:href="#18" id="use312"/>
   </g>
   <g opacity="0.7" id="g314">
    <use fill="url(#k-837)" width="512" height="512" xlink:href="#18" id="use316"/>
   </g>
  </symbol>
  <symbol viewBox="-17.032 -13.004 34.063 26.008" id="symbol318">
   <use fill="url(#L-405)" width="512" height="512" xlink:href="#19" id="use320"/>
   <use fill="url(#M-482)" width="512" height="512" xlink:href="#19" id="use322"/>
   <g opacity="0.81" id="g324">
    <use fill="url(#l-314)" width="512" height="512" xlink:href="#19" id="use326"/>
   </g>
   <g opacity="0.7" id="g328">
    <use fill="url(#m-498)" width="512" height="512" xlink:href="#19" id="use330"/>
   </g>
  </symbol>
  <symbol viewBox="-4.418 -12.984 8.836 25.968" id="symbol332">
   <use fill="url(#N-964)" width="512" height="512" xlink:href="#1A" id="use334"/>
   <g opacity="0.81" id="g336">
    <use fill="url(#n-571)" width="512" height="512" xlink:href="#1A" id="use338"/>
   </g>
   <g opacity="0.7" id="g340">
    <use fill="url(#o-397)" width="512" height="512" xlink:href="#1A" id="use342"/>
   </g>
  </symbol>
  <symbol viewBox="-9.623 -12.902 19.247 25.805" id="symbol344">
   <use fill="url(#O-781)" width="512" height="512" xlink:href="#1B" id="use346"/>
   <use fill="url(#P-488)" width="512" height="512" xlink:href="#1B" opacity="0.81" id="use348"/>
   <use fill="url(#Q-974)" width="512" height="512" xlink:href="#1B" opacity="0.7" id="use350"/>
  </symbol>
  <symbol viewBox="-11.915 -12.868 23.829 25.735" id="symbol352">
   <use fill="url(#R-97)" width="512" height="512" xlink:href="#1C" id="use354"/>
   <g opacity="0.81" id="g356">
    <use fill="url(#p-180)" width="512" height="512" xlink:href="#1C" id="use358"/>
   </g>
   <g opacity="0.7" id="g360">
    <use fill="url(#q-66)" width="512" height="512" xlink:href="#1C" id="use362"/>
   </g>
  </symbol>
  <symbol viewBox="-6.073 -13.074 12.14 26.145" id="symbol364">
   <use fill="url(#r-382)" width="512" height="512" xlink:href="#1D" id="use366"/>
   <g opacity="0.81" id="g368">
    <use fill="url(#s-140)" width="512" height="512" xlink:href="#1D" id="use370"/>
   </g>
   <g opacity="0.7" id="g372">
    <use fill="url(#t-776)" width="512" height="512" xlink:href="#1D" id="use374"/>
   </g>
  </symbol>
 </g>
 <path d="m261.34 101.34-2.156 3.03c-24.17 33.922-43.24 69.23-58.25 105.63-4.337 10.513-8.293 21.12-11.969 31.813l-2.25 1.625c-19.257 14-42.915 28.374-58.688 46.06l-1.5 1.688 1.438 1.719c4.289 5.3 9.547 10.229 15.719 14.75-0.096 0.627-0.169 1.287-0.219 1.938-0.058 0.755-0.123 1.477-0.156 2.063-0.034 0.586-0.113 1.218-0.063 0.938v0.031c-2.898 18.04-6.315 20.65-18.281 31l-2.125 1.844 1.969 2.031c7.537 7.59 12.07 11.447 17.5 13.375 4.781 1.697 10.199 1.757 18 1.938-1.254 8.638-2.422 17.292-3.406 26l-0.469 4 3.844-1.156 81.56-24.719c0.085-0.021 0.074-0.011 0.156-0.031 6.352-1.549 5.776-1.632 10.563-1.719 6.109-0.111 6.02 0.097 10.813 1.406v-0.031l82.09 23.469 3.188 0.906 0.156-3.281c0.452-8.247 0.622-16.499 0.625-24.75 8.975-0.229 14.717-0.184 19.813-1.875 5.6-1.858 10.169-5.708 17.938-13.531l1.969-2.031-2.125-1.844c-11.965-10.349-15.351-12.954-18.25-31h-0.031v-0.031c0.05 0.281-0.029-0.352-0.063-0.938-0.034-0.585-0.067-1.307-0.125-2.063-0.045-0.587-0.107-1.18-0.188-1.75 6.272-3.988 10.96-9.67 15.594-14.813l1.563-1.75-1.563-1.781c-13.407-14.996-29.35-28.634-51-44.03-3.225-11.12-6.911-22.23-11.156-33.34-13.724-35.935-32.908-71.866-58.31-107.75l-2.156-3.03m-76.875 154.81c-5.984 18.967-11.1 38.15-15.281 57.59-0.228-0.087-0.48-0.226-0.688-0.281-0.754-0.199-1.519-0.305-2.281-0.406-0.763-0.101-1.534-0.171-2.094-0.25-0.28-0.039-0.581-0.143-0.719-0.188l-3.063-1.656c-6.394-6.284-10.316-13.747-18.844-20.03 14.775-10.32 29.698-22.599 42.969-34.781m152.38 4.03c11.284 10.711 22.04 21.22 34.844 30.813-8.06 6.107-13.343 13.492-19.969 19.969l-3.25 1.75c-0.066 0.024-0.234 0.088-0.406 0.125-0.345 0.073-0.831 0.14-1.344 0.25-0.049 0.01-0.107 0.052-0.156 0.063-2.056-17.655-5.289-35.31-9.719-52.969" fill="#ffffff" id="path376"/>
 <g line-height="125%" font-size="208.33" font-family="Gentium Book Basic" id="g378" word-spacing="0" letter-spacing="0">
  <text x="-455.74" y="559.52" id="text380"><tspan x="-455.74" y="559.52" id="tspan382"/>
  </text>
  <text x="-748.82" y="401.68" id="text384"><tspan x="-748.82" y="401.68" id="tspan386"/>
  </text>
 </g>
 <g fill-rule="evenodd" id="g388">
  <path d="m256 1c-140.83 0-255 114.17-255 255s114.17 255 255 255 255-114.17 255-255-114.17-255-255-255m8.827 44.931c120.9 0 218.9 98 218.9 218.9s-98 218.9-218.9 218.9-218.93-98-218.93-218.9 98.03-218.9 218.93-218.9" fill-opacity="0.067" id="path390"/>
  <g fill-opacity="0.129" id="g392">
   <path d="m256 4.433c-138.94 0-251.57 112.63-251.57 251.57s112.63 251.57 251.57 251.57 251.57-112.63 251.57-251.57-112.63-251.57-251.57-251.57m5.885 38.556c120.9 0 218.9 98 218.9 218.9s-98 218.9-218.9 218.9-218.93-98-218.93-218.9 98.03-218.9 218.93-218.9" id="path394"/>
   <path d="m256 8.356c-136.77 0-247.64 110.87-247.64 247.64s110.87 247.64 247.64 247.64 247.64-110.87 247.64-247.64-110.87-247.64-247.64-247.64m2.942 31.691c120.9 0 218.9 98 218.9 218.9s-98 218.9-218.9 218.9-218.93-98-218.93-218.9 98.03-218.9 218.93-218.9" id="path396"/>
  </g>
  <path fill="#ffffff" stroke-width="4.904" stroke="#000000" stroke-opacity="0.31" d="m253.04 7.859c-135.42 0-245.19 109.78-245.19 245.19 0 135.42 109.78 245.19 245.19 245.19 135.42 0 245.19-109.78 245.19-245.19 0-135.42-109.78-245.19-245.19-245.19zm0 26.297c120.9 0 218.9 98 218.9 218.9s-98 218.9-218.9 218.9-218.93-98-218.93-218.9 98.03-218.9 218.93-218.9z" id="path398"/>
 </g>
 <text font-family="Gentium Book Basic" x="729.64" y="231.36" line-height="125%" font-size="129.23" id="text400" word-spacing="0" letter-spacing="0"><tspan x="729.64" y="231.36" id="tspan402"/>
 </text>
 <text font-family="Arial" x="378.91" y="579.25" transform="scale(4.0128 .2492)" font-size="46.954" id="text404" text-anchor="middle"/>
 <text font-family="Gentium Book Basic" x="1310.91" y="151.36" line-height="125%" font-size="129.23" id="text406" word-spacing="0" letter-spacing="0"><tspan x="1310.91" y="151.36" id="tspan408"/>
 </text>
 <text font-family="Arial" x="523.76" y="258.22" transform="scale(4.0128 .2492)" font-size="46.954" id="text410" text-anchor="middle"/>
 <text font-family="Gentium Book Basic" x="239.33" y="-29.901" line-height="125%" font-size="129.23" id="text412" word-spacing="0" letter-spacing="0"><tspan x="239.33" y="-29.901" id="tspan414"/>
 </text>
 <text font-family="Arial" x="256.72" y="-469.14" transform="scale(4.0128 .2492)" font-size="46.954" id="text416" text-anchor="middle"/>
 <text font-family="Gentium Book Basic" x="1337.38" y="-246.37" line-height="125%" font-size="129.23" id="text418" word-spacing="0" letter-spacing="0"><tspan x="1337.38" y="-246.37" id="tspan420"/>
 </text>
 <text font-family="Arial" x="530.36" y="-1337.81" transform="scale(4.0128 .2492)" font-size="46.954" id="text422" text-anchor="middle"/>
 <text font-family="Gentium Book Basic" x="1918.65" y="-326.38" line-height="125%" font-size="129.23" id="text424" word-spacing="0" letter-spacing="0"><tspan x="1918.65" y="-326.38" id="tspan426"/>
 </text>
 <text font-family="Arial" x="675.21" y="-1658.85" transform="scale(4.0128 .2492)" font-size="46.954" id="text428" text-anchor="middle"/>
 <text font-family="Gentium Book Basic" x="1529.53" y="-798.78" line-height="125%" font-size="129.23" id="text430" word-spacing="0" letter-spacing="0"><tspan x="1529.53" y="-798.78" id="tspan432"/>
 </text>
 <text font-family="Arial" x="578.24" y="-3554.51" transform="scale(4.0128 .2492)" font-size="46.954" id="text434" text-anchor="middle"/>
 <text font-family="Gentium Book Basic" x="2110.79" y="-878.78" line-height="125%" font-size="129.23" id="text436" word-spacing="0" letter-spacing="0"><tspan x="2110.79" y="-878.78" id="tspan438"/>
 </text>
 <text font-family="Arial" x="723.09" y="-3875.54" transform="scale(4.0128 .2492)" font-size="46.954" id="text440" text-anchor="middle"/>
 <text font-family="Gentium Book Basic" x="277.99" y="535.94" line-height="125%" font-size="208.33" id="text442" word-spacing="0" letter-spacing="0"><tspan x="277.99" y="535.94" id="tspan444"/>
 </text>
</svg>
