<?xml version="1.0" encoding="UTF-8" standalone="no"?>
<svg xmlns="http://www.w3.org/2000/svg" xmlns:sodipodi="http://sodipodi.sourceforge.net/DTD/sodipodi-0.dtd" xmlns:inkscape="http://www.inkscape.org/namespaces/inkscape" height="512" viewBox="0 0 512 512" width="512" version="1.1">
 <metadata id="metadata72"/>
 <path fill="#9c9c9c" fill-rule="evenodd" d="m471.95 253.05c0 120.9-98.01 218.9-218.9 218.9-120.9 0-218.9-98.01-218.9-218.9 0-120.9 98.01-218.9 218.9-218.9 120.9 0 218.9 98.01 218.9 218.9" id="path4"/>
 <path d="m289.47 73.78c-1.113 0.017-2.166 0.555-2.844 1.438-0.677 0.882-0.896 2.01-0.625 3.094 3.338 13.147 2.067 23.596-1.969 32.781-4.04 9.185-10.982 17.14-19.281 24.656-16.6 15.03-38.51 27.808-50.688 46.09-8.609 12.927-6.389 27.16 1.844 40.625 4.631 7.574 11.07 15.178 18.656 22.938 0.329 0.34 0.667 0.659 1 1 0.613 0.62 1.217 1.252 1.844 1.875 0.241 0.241 0.476 0.477 0.719 0.719 0.083 0.082 0.167 0.168 0.25 0.25 0.052 0.053 0.104 0.103 0.156 0.156 0.281 0.281 0.56 0.562 0.844 0.844 0.052 0.053 0.104 0.103 0.156 0.156 0.199 0.199 0.393 0.394 0.594 0.594 0.59 0.594 1.21 1.186 1.813 1.781 0.063 0.063 0.124 0.125 0.188 0.188 0.124 0.126 0.251 0.249 0.375 0.375 0.01 0.011 0.021 0.021 0.031 0.031 0.306 0.306 0.597 0.631 0.906 0.938 0.312 0.312 0.623 0.625 0.938 0.938 0.322 0.323 0.643 0.645 0.969 0.969 0.052 0.053 0.104 0.103 0.156 0.156 0.281 0.281 0.56 0.562 0.844 0.844 0.251 0.252 0.497 0.498 0.75 0.75 0.413 0.415 0.831 0.834 1.25 1.25 0.352 0.353 0.706 0.709 1.063 1.063 0.312 0.312 0.623 0.625 0.938 0.938 0.322 0.323 0.643 0.645 0.969 0.969 0.052 0.053 0.104 0.103 0.156 0.156 0.281 0.281 0.56 0.562 0.844 0.844 0.251 0.252 0.497 0.498 0.75 0.75 0.611 0.614 1.251 1.228 1.875 1.844l0.125 0.125c0.124 0.126 0.251 0.249 0.375 0.375 0.01 0.011 0.021 0.021 0.031 0.031 0.286 0.286 0.555 0.589 0.844 0.875 0.322 0.323 0.643 0.645 0.969 0.969 0.052 0.053 0.104 0.103 0.156 0.156 0.281 0.281 0.56 0.562 0.844 0.844 0.251 0.252 0.497 0.498 0.75 0.75 0.509 0.512 1.044 1.018 1.563 1.531 0.143 0.146 0.293 0.291 0.438 0.438 0.134 0.137 0.272 0.269 0.406 0.406l0.031 0.031c0.093 0.094 0.188 0.187 0.281 0.281l0.031 0.031c0.156 0.156 0.312 0.313 0.469 0.469 0.114 0.115 0.23 0.229 0.344 0.344l0.031 0.031c0.203 0.203 0.389 0.422 0.594 0.625 0.343 0.344 0.684 0.687 1.031 1.031 0.338 0.338 0.69 0.661 1.031 1 0.042 0.043 0.083 0.082 0.125 0.125 0.083 0.084 0.167 0.166 0.25 0.25l0.031 0.031c0.371 0.371 0.749 0.753 1.125 1.125 0.016 0.016 0.016 0.047 0.031 0.063-8.954 0.608-17.929 1.047-26.469 1.281-0.061-0.045-0.124-0.084-0.188-0.125-0.26-0.407-0.593-0.741-1-1-0.257-0.407-0.597-0.738-1-1-0.251-0.398-0.578-0.739-0.969-1-0.253-0.402-0.606-0.737-1-1-0.261-0.416-0.62-0.764-1.031-1.031-0.26-0.402-0.599-0.739-1-1-0.262-0.405-0.595-0.769-1-1.031-0.252-0.383-0.588-0.714-0.969-0.969-0.258-0.407-0.6-0.733-1-1-0.267-0.421-0.613-0.791-1.031-1.063-0.263-0.398-0.6-0.739-1-1-0.265-0.4-0.598-0.738-1-1-0.258-0.39-0.611-0.709-1-0.969-0.266-0.41-0.623-0.763-1.031-1.031-0.265-0.396-0.602-0.738-1-1-0.261-0.391-0.578-0.739-0.969-1-0.265-0.406-0.597-0.731-1-1-0.266-0.408-0.595-0.76-1-1.031-0.266-0.4-0.601-0.733-1-1-0.604-0.91-1.596-1.537-2.75-1.625-0.03-0.002-1.02-0.064-2.625-0.063-7.08 0.007-27.671 1.176-51.938 12.906-2.359 1.141-4.182 2.262-5.625 3.656s-2.622 3.373-2.5 5.625c0.117 2.164 1.386 3.833 2.781 5 0.303 0.34 0.603 0.656 0.938 0.938 0.282 0.32 0.595 0.638 0.906 0.906 0.314 0.366 0.649 0.7 1 1 0.345 0.4 0.706 0.774 1.094 1.094 0.029 0.032 0.064 0.062 0.094 0.094 0.006 0.005 0.025-0.005 0.031 0 0.002 0.045 0.033 0.07 0.063 0.094 0.222 0.233 0.451 0.454 0.688 0.656 0.332 0.384 0.691 0.753 1.063 1.063 0.039 0.045 0.085 0.082 0.125 0.125 0.006 0.005 0.025-0.005 0.031 0 0.025 0.027 0.037 0.067 0.063 0.094 0.014 0.018 0.015 0.049 0.031 0.063 0.029 0.023 0.064 0.039 0.094 0.063 0.192 0.193 0.392 0.391 0.594 0.563 0.085 0.097 0.162 0.189 0.25 0.281 0.019 0.03 0.037 0.042 0.063 0.063 0.21 0.216 0.434 0.436 0.656 0.625 0.081 0.094 0.166 0.192 0.25 0.281 0.021 0.034 0.065 0.07 0.094 0.094 0.011 0.009 0.02 0.022 0.031 0.031 0.18 0.183 0.373 0.337 0.563 0.5 0.107 0.127 0.199 0.256 0.313 0.375 0.024 0.038 0.061 0.068 0.094 0.094 0.197 0.2 0.418 0.386 0.625 0.563 0.081 0.094 0.165 0.191 0.25 0.281 0.028 0.057 0.049 0.12 0.094 0.156 0.069 0.056 0.148 0.102 0.219 0.156 0.207 0.199 0.409 0.39 0.625 0.563 0.015 0.017 0.016 0.046 0.031 0.063 0.025 0.088 0.062 0.168 0.125 0.219 0.076 0.061 0.173 0.097 0.25 0.156 0.192 0.182 0.363 0.371 0.563 0.531 0.015 0.017 0.016 0.046 0.031 0.063 0.028 0.096 0.087 0.195 0.156 0.25 0.099 0.079 0.211 0.143 0.313 0.219 0.083 0.077 0.166 0.146 0.25 0.219 0.089 0.106 0.188 0.213 0.281 0.313 0.032 0.096 0.085 0.162 0.156 0.219 0.081 0.065 0.167 0.125 0.25 0.188 0.115 0.107 0.226 0.213 0.344 0.313 0.073 0.084 0.143 0.169 0.219 0.25 0.035 0.104 0.111 0.189 0.188 0.25 0.081 0.065 0.168 0.125 0.25 0.188 0.164 0.151 0.331 0.302 0.5 0.438 0.015 0.017 0.016 0.046 0.031 0.063 0.029 0.134 0.126 0.238 0.219 0.313 0.117 0.094 0.254 0.16 0.375 0.25 0.055 0.049 0.101 0.109 0.156 0.156 0.081 0.095 0.166 0.191 0.25 0.281 0.038 0.126 0.096 0.24 0.188 0.313 0.179 0.144 0.374 0.272 0.563 0.406 0.061 0.051 0.126 0.107 0.188 0.156 0.015 0.017 0.016 0.046 0.031 0.063 0.031 0.156 0.111 0.289 0.219 0.375 0.178 0.143 0.375 0.273 0.563 0.406 0.071 0.083 0.145 0.171 0.219 0.25 0.045 0.133 0.121 0.265 0.219 0.344 0.195 0.156 0.419 0.293 0.625 0.438 0.043 0.049 0.081 0.109 0.125 0.156 0.04 0.164 0.135 0.314 0.25 0.406 0.189 0.152 0.394 0.266 0.594 0.406 0.045 0.052 0.078 0.106 0.125 0.156 0.042 0.172 0.16 0.309 0.281 0.406 0.219 0.176 0.454 0.339 0.688 0.5 0.015 0.017 0.016 0.046 0.031 0.063 0.042 0.185 0.152 0.334 0.281 0.438 0.212 0.17 0.431 0.344 0.656 0.5 0.01 0.011 0.021 0.02 0.031 0.031 0.044 0.194 0.146 0.36 0.281 0.469 0.215 0.173 0.458 0.311 0.688 0.469 0.01 0.011 0.021 0.021 0.031 0.031 0.045 0.204 0.139 0.386 0.281 0.5 0.208 0.166 0.436 0.316 0.656 0.469 0.043 0.223 0.19 0.408 0.344 0.531 0.087 0.069 0.192 0.121 0.281 0.188-0.588 1.739-0.606 3.716 0 5.406 0.649 1.812 1.773 3.252 3.219 4.5 0.045 0.049 0.079 0.108 0.125 0.156 0.006 0.005 0.025-0.005 0.031 0 0.188 0.195 0.391 0.377 0.594 0.563 0.364 0.422 0.758 0.84 1.188 1.219 0.317 0.352 0.667 0.679 1.031 1 0.319 0.355 0.664 0.708 1.031 1.031 0.317 0.352 0.667 0.679 1.031 1 0.31 0.345 0.613 0.686 0.969 1 0.402 0.453 0.832 0.879 1.313 1.281 0.241 0.253 0.483 0.514 0.75 0.75 0.287 0.323 0.611 0.611 0.938 0.906 0.353 0.406 0.74 0.792 1.156 1.156 0.316 0.352 0.666 0.68 1.031 1 0.307 0.343 0.646 0.688 1 1 0.389 0.437 0.787 0.862 1.25 1.25 0.25 0.265 0.502 0.535 0.781 0.781 0.388 0.438 0.817 0.862 1.281 1.25 0.253 0.268 0.53 0.533 0.813 0.781 0.109 0.123 0.197 0.256 0.313 0.375-2.538 1.126-4.646 2.347-6.313 3.75-3.228 2.718-4.869 6.959-3.594 10.563h0.031c0.669 1.89 1.831 3.463 3.344 4.844 0.365 0.403 0.768 0.784 1.188 1.156 0.364 0.389 0.741 0.764 1.156 1.125 0.249 0.259 0.509 0.504 0.781 0.75 0.367 0.401 0.766 0.786 1.188 1.156 0.291 0.308 0.583 0.617 0.906 0.906 0.338 0.365 0.71 0.723 1.094 1.063 0.268 0.285 0.548 0.574 0.844 0.844 0.364 0.4 0.77 0.786 1.188 1.156 0.332 0.354 0.688 0.701 1.063 1.031 0.289 0.306 0.585 0.618 0.906 0.906 0.33 0.357 0.689 0.699 1.063 1.031 0.326 0.35 0.663 0.673 1.031 1 0.332 0.356 0.687 0.699 1.063 1.031 0.333 0.355 0.654 0.7 1.031 1.031 0.335 0.355 0.684 0.7 1.063 1.031 0.296 0.312 0.608 0.613 0.938 0.906 0.278 0.299 0.566 0.594 0.875 0.875 0.415 0.458 0.858 0.894 1.344 1.313 0.244 0.253 0.484 0.51 0.75 0.75 0.37 0.403 0.793 0.783 1.219 1.156 0.047 0.049 0.077 0.108 0.125 0.156 0.006 0.005 0.025-0.005 0.031 0 0.334 0.339 0.657 0.683 1.031 1 0.211 0.215 0.429 0.419 0.656 0.625 0.347 0.38 0.729 0.741 1.125 1.094 0.277 0.298 0.567 0.594 0.875 0.875 0.375 0.414 0.786 0.806 1.219 1.188 0.275 0.291 0.54 0.6 0.844 0.875 0.351 0.383 0.756 0.738 1.156 1.094 0.333 0.356 0.654 0.73 1.031 1.063 0.11 0.117 0.229 0.23 0.344 0.344-4.902-0.136-9.709-0.367-14.375-0.625-0.079-0.069-0.165-0.123-0.25-0.188-0.266-0.387-0.595-0.763-1-1.063-0.274-0.39-0.615-0.734-1.031-1.031-0.249-0.345-0.544-0.666-0.906-0.938-0.262-0.379-0.604-0.739-1-1.031-0.265-0.381-0.598-0.709-1-1-0.245-0.353-0.543-0.662-0.906-0.938-0.258-0.386-0.603-0.735-1-1.031-0.263-0.392-0.593-0.734-1-1.031-0.247-0.362-0.566-0.689-0.938-0.969-0.247-0.369-0.593-0.685-0.969-0.969-0.25-0.382-0.582-0.709-0.969-1-0.267-0.417-0.603-0.787-1.031-1.094-0.249-0.363-0.562-0.694-0.938-0.969-0.251-0.377-0.583-0.686-0.969-0.969-0.261-0.397-0.59-0.771-1-1.063-0.247-0.366-0.593-0.664-0.969-0.938-0.253-0.391-0.571-0.744-0.969-1.031-0.258-0.392-0.594-0.747-1-1.031-0.269-0.4-0.607-0.779-1.031-1.063-0.238-0.339-0.522-0.654-0.875-0.906-0.259-0.4-0.587-0.747-1-1.031-0.25-0.378-0.549-0.728-0.938-1h-0.031c-0.242-0.366-0.532-0.703-0.906-0.969l-10.75-2.594c-12.495-0.024-29.988 5.311-40.41 12.13-2.604 1.703-4.816 3.476-6.375 5.656s-2.479 5.245-1.438 8.06c0.539 1.457 1.472 2.656 2.656 3.688 0.311 0.354 0.664 0.682 1.031 1 0.338 0.385 0.69 0.751 1.094 1.094 0.278 0.307 0.586 0.596 0.906 0.875 0.325 0.373 0.675 0.729 1.063 1.063 0.327 0.368 0.675 0.702 1.063 1.031 0.297 0.33 0.622 0.639 0.969 0.938 0.342 0.387 0.715 0.75 1.125 1.094 0.296 0.323 0.625 0.645 0.969 0.938 0.318 0.353 0.656 0.714 1.031 1.031 0.322 0.356 0.651 0.681 1.031 1 0.325 0.357 0.679 0.711 1.063 1.031 0.278 0.302 0.554 0.6 0.875 0.875 0.362 0.407 0.75 0.796 1.188 1.156 0.27 0.29 0.565 0.579 0.875 0.844 0.301 0.337 0.616 0.665 0.969 0.969 0.332 0.375 0.698 0.728 1.094 1.063 0.315 0.347 0.661 0.687 1.031 1 0.293 0.323 0.595 0.644 0.938 0.938 0.267 0.301 0.566 0.569 0.875 0.844 0.354 0.417 0.755 0.788 1.188 1.156 0.246 0.274 0.501 0.529 0.781 0.781 0.339 0.403 0.745 0.766 1.156 1.125 0.32 0.365 0.681 0.735 1.063 1.063 0.304 0.341 0.642 0.661 1 0.969 0.319 0.361 0.653 0.707 1.031 1.031 0.289 0.325 0.6 0.611 0.938 0.906 0.304 0.349 0.64 0.685 1 1 0.31 0.356 0.663 0.679 1.031 1 0.319 0.366 0.651 0.703 1.031 1.031 0.289 0.328 0.63 0.64 0.969 0.938 0.329 0.379 0.698 0.755 1.094 1.094 0.327 0.368 0.672 0.701 1.063 1.031 0.311 0.345 0.633 0.689 1 1 0.278 0.309 0.583 0.593 0.906 0.875 0.33 0.378 0.698 0.724 1.094 1.063 0.317 0.355 0.655 0.712 1.031 1.031 0.304 0.338 0.611 0.663 0.969 0.969 0.311 0.349 0.663 0.685 1.031 1 0.314 0.35 0.66 0.684 1.031 1 0.322 0.359 0.648 0.708 1.031 1.031 0.324 0.358 0.678 0.709 1.063 1.031 0.259 0.282 0.546 0.553 0.844 0.813 0.313 0.359 0.658 0.708 1.031 1.031 0.299 0.34 0.615 0.66 0.969 0.969 0.317 0.364 0.684 0.704 1.063 1.031 0.338 0.383 0.718 0.751 1.125 1.094 0.296 0.326 0.591 0.641 0.938 0.938 0.301 0.338 0.613 0.662 0.969 0.969 0.321 0.364 0.679 0.704 1.063 1.031 0.305 0.34 0.64 0.66 1 0.969 0.295 0.331 0.59 0.668 0.938 0.969 0.296 0.337 0.62 0.632 0.969 0.938 0.329 0.381 0.697 0.721 1.094 1.063 0.334 0.377 0.692 0.755 1.094 1.094 0.255 0.28 0.52 0.554 0.813 0.813 0.312 0.363 0.657 0.704 1.031 1.031 0.336 0.387 0.719 0.747 1.125 1.094 0.281 0.313 0.578 0.62 0.906 0.906 0.314 0.36 0.656 0.706 1.031 1.031 0.313 0.356 0.659 0.679 1.031 1 0.317 0.359 0.654 0.676 1.031 1 0.296 0.333 0.62 0.666 0.969 0.969 0.314 0.357 0.657 0.709 1.031 1.031 0.291 0.328 0.596 0.639 0.938 0.938 0.33 0.379 0.697 0.722 1.094 1.063 0.317 0.355 0.654 0.71 1.031 1.031 0.295 0.327 0.591 0.639 0.938 0.938 0.329 0.373 0.667 0.727 1.063 1.063 0.313 0.348 0.66 0.685 1.031 1 0.316 0.349 0.657 0.684 1.031 1 0.322 0.354 0.649 0.711 1.031 1.031 0.265 0.29 0.538 0.577 0.844 0.844 0.298 0.34 0.616 0.659 0.969 0.969 0.329 0.378 0.698 0.722 1.094 1.063 0.317 0.356 0.654 0.709 1.031 1.031 0.288 0.321 0.569 0.644 0.906 0.938 0.304 0.347 0.67 0.653 1.031 0.969 0.291 0.332 0.594 0.666 0.938 0.969 0.32 0.37 0.679 0.697 1.063 1.031 0.315 0.358 0.656 0.707 1.031 1.031 0.297 0.336 0.618 0.663 0.969 0.969 0.276 0.314 0.583 0.619 0.906 0.906 0.178 0.208 0.362 0.399 0.563 0.594 12.285 2.14 24.915 3.281 37.813 3.281 120.34 0 217.98-97.12 218.88-217.25-0.024-0.017-0.039-0.045-0.063-0.063-0.367-0.428-0.625-0.719-0.625-0.719-0.137-0.135-0.283-0.233-0.438-0.344-0.339-0.393-0.563-0.625-0.563-0.625-0.106-0.105-0.226-0.191-0.344-0.281-0.375-0.437-0.656-0.719-0.656-0.719-0.128-0.126-0.263-0.239-0.406-0.344-0.34-0.394-0.594-0.656-0.594-0.656-0.128-0.126-0.263-0.239-0.406-0.344-0.34-0.394-0.594-0.656-0.594-0.656-0.128-0.126-0.263-0.239-0.406-0.344-0.34-0.394-0.563-0.656-0.563-0.656-0.112-0.11-0.252-0.187-0.375-0.281-0.367-0.428-0.625-0.719-0.625-0.719-0.137-0.135-0.283-0.233-0.438-0.344-0.339-0.393-0.563-0.625-0.563-0.625-0.128-0.126-0.263-0.239-0.406-0.344-0.352-0.408-0.594-0.656-0.594-0.656-0.128-0.126-0.263-0.239-0.406-0.344-0.34-0.394-0.594-0.656-0.594-0.656-0.128-0.126-0.263-0.239-0.406-0.344-0.34-0.394-0.594-0.656-0.594-0.656-0.128-0.126-0.263-0.239-0.406-0.344-0.34-0.394-0.563-0.656-0.563-0.656-0.129-0.128-0.293-0.238-0.438-0.344-0.34-0.394-0.563-0.656-0.563-0.656-0.112-0.11-0.252-0.187-0.375-0.281-0.367-0.428-0.625-0.688-0.625-0.688-0.128-0.126-0.263-0.239-0.406-0.344-0.352-0.408-0.594-0.656-0.594-0.656-0.128-0.126-0.263-0.239-0.406-0.344-0.34-0.394-0.594-0.656-0.594-0.656-0.128-0.126-0.263-0.239-0.406-0.344-0.34-0.394-0.594-0.656-0.594-0.656-0.128-0.126-0.263-0.239-0.406-0.344-0.34-0.394-0.563-0.656-0.563-0.656-0.129-0.128-0.293-0.238-0.438-0.344-0.34-0.394-0.563-0.656-0.563-0.656-0.112-0.11-0.252-0.187-0.375-0.281-0.367-0.428-0.625-0.719-0.625-0.719-0.137-0.135-0.283-0.233-0.438-0.344-0.338-0.391-0.563-0.625-0.563-0.625-0.106-0.105-0.226-0.191-0.344-0.281-0.375-0.437-0.656-0.719-0.656-0.719-0.128-0.126-0.263-0.239-0.406-0.344-0.34-0.394-0.594-0.656-0.594-0.656-0.128-0.126-0.263-0.239-0.406-0.344-0.34-0.394-0.594-0.656-0.594-0.656-0.128-0.126-0.263-0.239-0.406-0.344-0.34-0.394-0.563-0.656-0.563-0.656-0.112-0.11-0.252-0.187-0.375-0.281-0.367-0.428-0.625-0.719-0.625-0.719-0.137-0.135-0.283-0.233-0.438-0.344-0.339-0.393-0.563-0.625-0.563-0.625-0.128-0.126-0.263-0.239-0.406-0.344-0.352-0.408-0.594-0.656-0.594-0.656-0.128-0.126-0.263-0.239-0.406-0.344-0.34-0.394-0.594-0.656-0.594-0.656-0.128-0.126-0.263-0.239-0.406-0.344-0.34-0.394-0.594-0.656-0.594-0.656-0.128-0.126-0.263-0.239-0.406-0.344-0.34-0.394-0.563-0.656-0.563-0.656-0.112-0.11-0.252-0.187-0.375-0.281-0.367-0.428-0.625-0.719-0.625-0.719-0.112-0.11-0.252-0.187-0.375-0.281-0.367-0.428-0.625-0.688-0.625-0.688-0.128-0.126-0.263-0.239-0.406-0.344-0.352-0.408-0.594-0.656-0.594-0.656-0.128-0.126-0.263-0.239-0.406-0.344-0.34-0.394-0.594-0.656-0.594-0.656-0.128-0.126-0.263-0.239-0.406-0.344-0.34-0.394-0.594-0.656-0.594-0.656-0.128-0.126-0.263-0.239-0.406-0.344-0.34-0.394-0.563-0.656-0.563-0.656-0.129-0.128-0.293-0.238-0.438-0.344-0.34-0.394-0.563-0.656-0.563-0.656-0.112-0.11-0.252-0.187-0.375-0.281-0.367-0.428-0.625-0.688-0.625-0.688-0.128-0.126-0.263-0.239-0.406-0.344-0.352-0.408-0.594-0.656-0.594-0.656-0.106-0.105-0.226-0.191-0.344-0.281-0.375-0.437-0.656-0.719-0.656-0.719-0.128-0.126-0.263-0.239-0.406-0.344-0.34-0.394-0.594-0.656-0.594-0.656-0.128-0.126-0.263-0.239-0.406-0.344-0.34-0.394-0.594-0.656-0.594-0.656-0.128-0.126-0.263-0.239-0.406-0.344-0.34-0.394-0.563-0.656-0.563-0.656-0.112-0.11-0.252-0.187-0.375-0.281-0.367-0.428-0.625-0.719-0.625-0.719-0.137-0.135-0.283-0.233-0.438-0.344-0.339-0.393-0.563-0.625-0.563-0.625-0.106-0.105-0.226-0.191-0.344-0.281-0.375-0.437-0.656-0.719-0.656-0.719-0.128-0.126-0.263-0.239-0.406-0.344-0.34-0.394-0.594-0.656-0.594-0.656-0.128-0.126-0.263-0.239-0.406-0.344-0.34-0.394-0.594-0.656-0.594-0.656-0.128-0.126-0.263-0.239-0.406-0.344-0.34-0.394-0.563-0.656-0.563-0.656-0.112-0.11-0.252-0.187-0.375-0.281-0.367-0.428-0.625-0.719-0.625-0.719-0.137-0.135-0.283-0.233-0.438-0.344-0.339-0.393-0.563-0.625-0.563-0.625-0.128-0.126-0.263-0.239-0.406-0.344-0.352-0.408-0.594-0.656-0.594-0.656-0.128-0.126-0.263-0.239-0.406-0.344-0.34-0.394-0.594-0.656-0.594-0.656-0.128-0.126-0.263-0.239-0.406-0.344-0.34-0.394-0.594-0.656-0.594-0.656-0.128-0.126-0.263-0.239-0.406-0.344-0.34-0.394-0.563-0.656-0.563-0.656-0.129-0.128-0.293-0.238-0.438-0.344-0.339-0.393-0.563-0.656-0.563-0.656-0.112-0.11-0.252-0.187-0.375-0.281-0.367-0.428-0.625-0.688-0.625-0.688-0.128-0.126-0.263-0.239-0.406-0.344-0.352-0.408-0.594-0.656-0.594-0.656-0.128-0.126-0.263-0.239-0.406-0.344-0.34-0.394-0.594-0.656-0.594-0.656-0.128-0.126-0.263-0.239-0.406-0.344-0.34-0.394-0.594-0.656-0.594-0.656-0.128-0.126-0.263-0.239-0.406-0.344-0.34-0.394-0.563-0.656-0.563-0.656-0.129-0.128-0.293-0.238-0.438-0.344-0.34-0.394-0.563-0.656-0.563-0.656-0.112-0.11-0.252-0.187-0.375-0.281-0.367-0.428-0.625-0.719-0.625-0.719-0.137-0.135-0.283-0.233-0.438-0.344-0.338-0.391-0.563-0.625-0.563-0.625-0.106-0.105-0.226-0.191-0.344-0.281-0.375-0.437-0.656-0.719-0.656-0.719-0.128-0.126-0.263-0.239-0.406-0.344-0.34-0.394-0.594-0.656-0.594-0.656-0.128-0.126-0.263-0.239-0.406-0.344-0.34-0.394-0.594-0.656-0.594-0.656-0.128-0.126-0.263-0.239-0.406-0.344-0.34-0.394-0.563-0.656-0.563-0.656-0.112-0.11-0.252-0.187-0.375-0.281-0.367-0.428-0.625-0.719-0.625-0.719-0.137-0.135-0.283-0.233-0.438-0.344-0.339-0.393-0.563-0.625-0.563-0.625-0.106-0.105-0.226-0.191-0.344-0.281-0.375-0.437-0.656-0.719-0.656-0.719-0.128-0.126-0.263-0.239-0.406-0.344-0.34-0.394-0.594-0.656-0.594-0.656-0.128-0.126-0.263-0.239-0.406-0.344-0.34-0.394-0.594-0.656-0.594-0.656-0.128-0.126-0.263-0.239-0.406-0.344-0.34-0.394-0.563-0.656-0.563-0.656-0.112-0.11-0.252-0.187-0.375-0.281-0.367-0.428-0.625-0.719-0.625-0.719-0.112-0.11-0.252-0.187-0.375-0.281-0.367-0.428-0.625-0.688-0.625-0.688-0.128-0.126-0.263-0.239-0.406-0.344-0.352-0.408-0.594-0.656-0.594-0.656-0.128-0.126-0.263-0.239-0.406-0.344-0.34-0.394-0.594-0.656-0.594-0.656-0.128-0.126-0.263-0.239-0.406-0.344-0.34-0.394-0.594-0.656-0.594-0.656-0.128-0.126-0.263-0.239-0.406-0.344-0.34-0.394-0.563-0.656-0.563-0.656-0.129-0.128-0.293-0.238-0.438-0.344-0.34-0.394-0.563-0.656-0.563-0.656-0.112-0.11-0.252-0.187-0.375-0.281-0.367-0.428-0.625-0.688-0.625-0.688-0.128-0.126-0.263-0.239-0.406-0.344-0.352-0.408-0.594-0.656-0.594-0.656-0.106-0.105-0.226-0.191-0.344-0.281-0.375-0.437-0.656-0.719-0.656-0.719-0.128-0.126-0.263-0.239-0.406-0.344-0.34-0.394-0.594-0.656-0.594-0.656-0.128-0.126-0.263-0.239-0.406-0.344-0.34-0.394-0.594-0.656-0.594-0.656-0.128-0.126-0.263-0.239-0.406-0.344-0.34-0.394-0.563-0.656-0.563-0.656-0.112-0.11-0.252-0.187-0.375-0.281-0.367-0.428-0.625-0.719-0.625-0.719-0.137-0.135-0.283-0.233-0.438-0.344-0.339-0.393-0.563-0.625-0.563-0.625-0.106-0.105-0.226-0.191-0.344-0.281-0.375-0.437-0.656-0.719-0.656-0.719-0.128-0.126-0.263-0.239-0.406-0.344-0.34-0.394-0.594-0.656-0.594-0.656-0.128-0.126-0.263-0.239-0.406-0.344-0.34-0.394-0.594-0.656-0.594-0.656-0.128-0.126-0.263-0.239-0.406-0.344-0.34-0.394-0.563-0.656-0.563-0.656-0.112-0.11-0.252-0.187-0.375-0.281-0.367-0.428-0.625-0.719-0.625-0.719-0.137-0.135-0.283-0.233-0.438-0.344-0.339-0.393-0.563-0.625-0.563-0.625-0.128-0.126-0.263-0.239-0.406-0.344-0.352-0.408-0.594-0.656-0.594-0.656-0.128-0.126-0.263-0.239-0.406-0.344-0.34-0.394-0.594-0.656-0.594-0.656-0.128-0.126-0.263-0.239-0.406-0.344-0.34-0.394-0.594-0.656-0.594-0.656-0.128-0.126-0.263-0.239-0.406-0.344-0.34-0.394-0.563-0.656-0.563-0.656-0.129-0.128-0.293-0.238-0.438-0.344-0.339-0.393-0.563-0.656-0.563-0.656-0.112-0.11-0.252-0.187-0.375-0.281-0.367-0.428-0.625-0.688-0.625-0.688-0.128-0.126-0.263-0.239-0.406-0.344-0.352-0.408-0.594-0.656-0.594-0.656-0.128-0.126-0.263-0.239-0.406-0.344-0.34-0.394-0.594-0.656-0.594-0.656-0.128-0.126-0.263-0.239-0.406-0.344-0.34-0.394-0.594-0.656-0.594-0.656-0.128-0.126-0.263-0.239-0.406-0.344-0.34-0.394-0.563-0.656-0.563-0.656-0.129-0.128-0.293-0.238-0.438-0.344-0.34-0.394-0.563-0.656-0.563-0.656-0.112-0.11-0.252-0.187-0.375-0.281-0.367-0.428-0.625-0.719-0.625-0.719-0.137-0.135-0.283-0.233-0.438-0.344-0.338-0.391-0.563-0.625-0.563-0.625-0.106-0.105-0.226-0.191-0.344-0.281-0.375-0.437-0.656-0.719-0.656-0.719-0.128-0.126-0.263-0.239-0.406-0.344-0.34-0.394-0.594-0.656-0.594-0.656-0.128-0.126-0.263-0.239-0.406-0.344-0.34-0.394-0.594-0.656-0.594-0.656-0.128-0.126-0.263-0.239-0.406-0.344-0.34-0.394-0.563-0.656-0.563-0.656-0.112-0.11-0.252-0.187-0.375-0.281-0.367-0.428-0.625-0.719-0.625-0.719-0.137-0.135-0.283-0.233-0.438-0.344-0.339-0.393-0.563-0.625-0.563-0.625-0.106-0.105-0.226-0.191-0.344-0.281-0.375-0.437-0.656-0.719-0.656-0.719-0.128-0.126-0.263-0.239-0.406-0.344-0.34-0.394-0.594-0.656-0.594-0.656-0.128-0.126-0.263-0.239-0.406-0.344-0.34-0.394-0.594-0.656-0.594-0.656-0.128-0.126-0.263-0.239-0.406-0.344-0.34-0.394-0.563-0.656-0.563-0.656-0.112-0.11-0.252-0.187-0.375-0.281-0.367-0.428-0.625-0.719-0.625-0.719-0.112-0.11-0.252-0.187-0.375-0.281-0.367-0.428-0.625-0.688-0.625-0.688-0.128-0.126-0.263-0.239-0.406-0.344-0.352-0.408-0.594-0.656-0.594-0.656-0.128-0.126-0.263-0.239-0.406-0.344-0.34-0.394-0.594-0.656-0.594-0.656-0.128-0.126-0.263-0.239-0.406-0.344-0.34-0.394-0.594-0.656-0.594-0.656-0.128-0.126-0.263-0.239-0.406-0.344-0.34-0.394-0.563-0.656-0.563-0.656-0.129-0.128-0.293-0.238-0.438-0.344-0.34-0.394-0.563-0.656-0.563-0.656-0.112-0.11-0.252-0.187-0.375-0.281-0.367-0.428-0.625-0.688-0.625-0.688-0.128-0.126-0.263-0.239-0.406-0.344-0.352-0.408-0.594-0.656-0.594-0.656-0.106-0.105-0.226-0.191-0.344-0.281-0.375-0.437-0.656-0.719-0.656-0.719-0.128-0.126-0.263-0.239-0.406-0.344-0.34-0.394-0.594-0.656-0.594-0.656-0.128-0.126-0.263-0.239-0.406-0.344-0.34-0.394-0.594-0.656-0.594-0.656-0.128-0.126-0.263-0.239-0.406-0.344-0.34-0.394-0.563-0.656-0.563-0.656-0.112-0.11-0.252-0.187-0.375-0.281-0.367-0.428-0.625-0.719-0.625-0.719-0.137-0.135-0.283-0.233-0.438-0.344-0.339-0.393-0.563-0.625-0.563-0.625-0.106-0.105-0.226-0.191-0.344-0.281-0.375-0.437-0.656-0.719-0.656-0.719-0.128-0.126-0.263-0.239-0.406-0.344-0.34-0.394-0.594-0.656-0.594-0.656-0.128-0.126-0.263-0.239-0.406-0.344-0.34-0.394-0.594-0.656-0.594-0.656-0.128-0.126-0.263-0.239-0.406-0.344-0.34-0.394-0.563-0.656-0.563-0.656-0.112-0.11-0.252-0.187-0.375-0.281-0.367-0.428-0.625-0.719-0.625-0.719-0.137-0.135-0.283-0.233-0.438-0.344-0.339-0.393-0.563-0.625-0.563-0.625-0.128-0.126-0.263-0.239-0.406-0.344-0.352-0.408-0.594-0.656-0.594-0.656-0.128-0.126-0.263-0.239-0.406-0.344-0.34-0.394-0.594-0.656-0.594-0.656-0.128-0.126-0.263-0.239-0.406-0.344-0.34-0.394-0.594-0.656-0.594-0.656-0.128-0.126-0.263-0.239-0.406-0.344-0.34-0.394-0.563-0.656-0.563-0.656-0.129-0.128-0.293-0.238-0.438-0.344-0.339-0.393-0.563-0.656-0.563-0.656-0.112-0.11-0.252-0.187-0.375-0.281-0.367-0.428-0.625-0.688-0.625-0.688-0.128-0.126-0.263-0.239-0.406-0.344-0.352-0.408-0.594-0.656-0.594-0.656-0.128-0.126-0.263-0.239-0.406-0.344-0.34-0.394-0.594-0.656-0.594-0.656-0.128-0.126-0.263-0.239-0.406-0.344-0.34-0.394-0.594-0.656-0.594-0.656-0.128-0.126-0.263-0.239-0.406-0.344-0.34-0.394-0.563-0.656-0.563-0.656-0.129-0.128-0.293-0.238-0.438-0.344-0.34-0.394-0.563-0.656-0.563-0.656-0.112-0.11-0.252-0.187-0.375-0.281-0.367-0.428-0.625-0.688-0.625-0.688v-0.031c-0.137-0.135-0.283-0.233-0.438-0.344-0.338-0.391-0.563-0.625-0.563-0.625-0.106-0.105-0.226-0.191-0.344-0.281-0.375-0.437-0.656-0.719-0.656-0.719-0.128-0.126-0.263-0.239-0.406-0.344-0.34-0.394-0.594-0.656-0.594-0.656-0.128-0.126-0.263-0.239-0.406-0.344-0.34-0.394-0.594-0.656-0.594-0.656-0.128-0.126-0.263-0.239-0.406-0.344-0.34-0.394-0.563-0.656-0.563-0.656-0.112-0.11-0.252-0.187-0.375-0.281-0.367-0.428-0.625-0.719-0.625-0.719-0.137-0.135-0.283-0.233-0.438-0.344-0.339-0.393-0.563-0.625-0.563-0.625-0.106-0.105-0.226-0.191-0.344-0.281-0.375-0.437-0.656-0.719-0.656-0.719-0.128-0.126-0.263-0.239-0.406-0.344-0.34-0.394-0.594-0.656-0.594-0.656-0.128-0.126-0.263-0.239-0.406-0.344-0.34-0.394-0.594-0.656-0.594-0.656-0.128-0.126-0.263-0.239-0.406-0.344-0.34-0.394-0.563-0.656-0.563-0.656-0.112-0.11-0.252-0.187-0.375-0.281-0.367-0.428-0.625-0.719-0.625-0.719-0.112-0.11-0.252-0.187-0.375-0.281-0.367-0.428-0.625-0.688-0.625-0.688-0.128-0.126-0.263-0.239-0.406-0.344-0.352-0.408-0.594-0.656-0.594-0.656-0.128-0.126-0.263-0.239-0.406-0.344-0.34-0.394-0.594-0.656-0.594-0.656-0.128-0.126-0.263-0.239-0.406-0.344-0.34-0.394-0.594-0.656-0.594-0.656-0.128-0.126-0.263-0.239-0.406-0.344-0.34-0.394-0.563-0.656-0.563-0.656-0.129-0.128-0.293-0.238-0.438-0.344-0.34-0.394-0.563-0.656-0.563-0.656-0.112-0.11-0.252-0.187-0.375-0.281-0.367-0.428-0.625-0.688-0.625-0.688-0.128-0.126-0.263-0.239-0.406-0.344-0.352-0.408-0.594-0.656-0.594-0.656-0.128-0.126-0.263-0.239-0.406-0.344-0.34-0.394-0.594-0.656-0.594-0.656-0.128-0.126-0.263-0.239-0.406-0.344-0.34-0.394-0.594-0.656-0.594-0.656-0.128-0.126-0.263-0.239-0.406-0.344-0.34-0.394-0.563-0.656-0.563-0.656h-0.031c-0.128-0.126-0.263-0.239-0.406-0.344-0.34-0.394-0.563-0.656-0.563-0.656-0.112-0.11-0.252-0.187-0.375-0.281-0.367-0.428-0.625-0.719-0.625-0.719-0.137-0.135-0.283-0.233-0.438-0.344-0.339-0.393-0.563-0.625-0.563-0.625-0.106-0.105-0.226-0.191-0.344-0.281-0.375-0.437-0.656-0.719-0.656-0.719-0.128-0.126-0.263-0.239-0.406-0.344-0.34-0.394-0.594-0.656-0.594-0.656-0.128-0.126-0.263-0.239-0.406-0.344-0.34-0.394-0.594-0.656-0.594-0.656-0.702-0.694-1.638-1.084-2.625-1.063" fill-opacity="0.235" id="path6"/>
 <g fill-rule="evenodd" transform="translate(0,-540.36)" id="g8">
  <path d="m256 541.36c-140.83 0-255 114.17-255 255s114.17 255 255 255 255-114.17 255-255-114.17-255-255-255m8.827 44.931c120.9 0 218.9 98 218.9 218.9s-98 218.9-218.9 218.9-218.93-98-218.93-218.9 98.03-218.9 218.93-218.9" fill-opacity="0.067" id="path10"/>
  <g fill-opacity="0.129" id="g12">
   <path d="m256 544.79c-138.94 0-251.57 112.63-251.57 251.57s112.63 251.54 251.57 251.54 251.57-112.6 251.57-251.54-112.63-251.57-251.57-251.57m5.885 38.556c120.9 0 218.9 98 218.9 218.9s-98 218.9-218.9 218.9-218.93-98-218.93-218.9 98.03-218.9 218.93-218.9" id="path14"/>
   <path d="m256 548.72c-136.77 0-247.64 110.87-247.64 247.64s110.87 247.64 247.64 247.64 247.64-110.87 247.64-247.64-110.87-247.64-247.64-247.64m2.942 31.691c120.9 0 218.9 98 218.9 218.9s-98 218.9-218.9 218.9-218.93-98-218.93-218.9 98.03-218.9 218.93-218.9" id="path16"/>
  </g>
  <path fill="#ffffff" stroke-width="4.904" stroke="#000000" stroke-opacity="0.31" d="m253.04 548.22c-135.42 0-245.19 109.78-245.19 245.19 0 135.42 109.78 245.19 245.19 245.19 135.42 0 245.19-109.78 245.19-245.19 0-135.42-109.78-245.19-245.19-245.19zm0 26.297c120.9 0 218.9 98 218.9 218.9s-98 218.9-218.9 218.9-218.93-98-218.93-218.9 98.03-218.9 218.93-218.9z" id="path18"/>
 </g>
 <text font-family="Gentium Book Basic" x="729.64" y="231.36" line-height="125%" font-size="129.23" id="text20" word-spacing="0" letter-spacing="0"><tspan x="729.64" y="231.36" id="tspan22"/>
 </text>
 <text font-family="Arial" x="378.91" y="579.26" transform="scale(4.0128 .2492)" font-size="46.954" id="text24" text-anchor="middle"/>
 <text font-family="Gentium Book Basic" x="1310.91" y="151.36" line-height="125%" font-size="129.23" id="text26" word-spacing="0" letter-spacing="0"><tspan x="1310.91" y="151.36" id="tspan28"/>
 </text>
 <text font-family="Arial" x="523.76" y="258.22" transform="scale(4.0128 .2492)" font-size="46.954" id="text30" text-anchor="middle"/>
 <text font-family="Gentium Book Basic" x="239.33" y="-29.9" line-height="125%" font-size="129.23" id="text32" word-spacing="0" letter-spacing="0"><tspan x="239.33" y="-29.9" id="tspan34"/>
 </text>
 <text font-family="Arial" x="256.72" y="-469.13" transform="scale(4.0128 .2492)" font-size="46.954" id="text36" text-anchor="middle"/>
 <text font-family="Gentium Book Basic" x="1337.38" y="-246.37" line-height="125%" font-size="129.23" id="text38" word-spacing="0" letter-spacing="0"><tspan x="1337.38" y="-246.37" id="tspan40"/>
 </text>
 <text font-family="Arial" x="530.36" y="-1337.8" transform="scale(4.0128 .2492)" font-size="46.954" id="text42" text-anchor="middle"/>
 <text font-family="Gentium Book Basic" x="1918.65" y="-326.37" line-height="125%" font-size="129.23" id="text44" word-spacing="0" letter-spacing="0"><tspan x="1918.65" y="-326.37" id="tspan46"/>
 </text>
 <text font-family="Arial" x="675.21" y="-1658.83" transform="scale(4.0128 .2492)" font-size="46.954" id="text48" text-anchor="middle"/>
 <text font-family="Gentium Book Basic" x="1529.53" y="-798.77" line-height="125%" font-size="129.23" id="text50" word-spacing="0" letter-spacing="0"><tspan x="1529.53" y="-798.77" id="tspan52"/>
 </text>
 <text font-family="Arial" x="578.24" y="-3554.48" transform="scale(4.0128 .2492)" font-size="46.954" id="text54" text-anchor="middle"/>
 <text font-family="Gentium Book Basic" x="2110.79" y="-878.78" line-height="125%" font-size="129.23" id="text56" word-spacing="0" letter-spacing="0"><tspan x="2110.79" y="-878.78" id="tspan58"/>
 </text>
 <text font-family="Arial" x="723.09" y="-3875.52" transform="scale(4.0128 .2492)" font-size="46.954" id="text60" text-anchor="middle"/>
 <text font-family="Gentium Book Basic" x="277.99" y="535.94" line-height="125%" font-size="208.33" id="text62" word-spacing="0" letter-spacing="0"><tspan x="277.99" y="535.94" id="tspan64"/>
 </text>
 <path d="m289.47 73.798a3.6443 3.6443 0 0 0 -3.4785 4.5301c3.338 13.147 2.067 23.577-1.968 32.763-4.04 9.186-10.98 17.16-19.28 24.673-16.6 15.03-38.489 27.797-50.667 46.08-8.61 12.927-6.399 27.17 1.834 40.636 8.233 13.465 22.19 27.01 38.13 41.39a3.6443 3.6443 0 0 0 5.7975 -4.1796c-6.646-15.02-20.1-28.04-24.916-41.796-2.407-6.88-2.891-13.734 0.297-21.68 3.187-7.946 10.285-17.1 23.567-27.585 34.444-27.19 43.55-50.4 43.31-67.14-0.244-16.746-9.977-26.642-9.977-26.642a3.6443 3.6443 0 0 0 -2.6426 -1.0516m41.769 68.357a3.6443 3.6443 0 0 0 -0.0809 0.027 3.6443 3.6443 0 0 0 -0.56627 0.10786s-29.06 7.166-51.665 22.759c-11.301 7.797-21.21 17.827-24.592 30.659-3.383 12.832 0.314 27.923 14.507 44.28 7.225 8.318 6.074 15.04 3.398 20.682-2.677 5.646-7.227 9.411-7.227 9.411a3.6443 3.6443 0 0 0 3.9908 6.0672s0.593-0.376 0.647-0.404c1-0.523 10.494-5.514 18.525-14.265 4.231-4.61 7.995-10.254 9.384-16.88 1.388-6.627 0.135-14.166-5.069-21.491-4.444-6.246-8.485-11.597-10.84-16.395-2.355-4.797-3.146-8.763-1.672-13.51 2.948-9.494 17.03-23.17 53.34-44.22a3.6443 3.6443 0 0 0 -2.0763 -6.8222m20.547 112.74c-4.454 0.009-9.158 0.809-13.914 2.481-4.821 1.712-7.227 5.636-7.227 5.636a3.6443 3.6443 0 0 0 4.4492 5.3121s1.812-0.76 6.579-1.753c8.04-1.675 18.508 4.01 20.06 13.13 0.777 4.559-0.407 10.301-5.744 17.18-5.337 6.876-14.859 14.704-30.25 22.705a3.6443 3.6443 0 0 0 -1.6988 1.8336c-0.024 0.038-0.048 0.044-0.081 0.081-0.023 0.026-0.031 0.057-0.054 0.081-0.045 0.048-0.103 0.104-0.135 0.135a3.6443 3.6443 0 0 0 -0.0539 0.027 3.6443 3.6443 0 0 0 -1.2134 2.7235s2.332 1.054 4.126 1.861l0.431 1.672c38.12-10.02 54.51-27.27 55.872-43.576 1.357-16.302-13.03-29.562-31.14-29.527m-135.96 3.182c-7.08 0.007-27.669 1.159-51.935 12.889-2.359 1.141-4.192 2.273-5.636 3.667-1.443 1.394-2.63 3.357-2.508 5.609s1.478 3.98 2.939 5.15c1.461 1.171 3.21 2.024 5.258 2.804 8.193 3.123 21.852 5.01 38.668 5.986 33.633 1.956 79.04-0.156 110.64-8.467a3.6443 3.6443 0 0 0 1.1325 -0.51233c5.945-4.06 14.696-7.874 14.696-7.874a3.6443 3.6443 0 0 0 -2.0763 -6.93s-25.16 4.474-50.13 6.579c-30.648 2.568-63.838 3.02-79.74 0.89-4.381-0.585-7.232-1.318-8.872-1.941 1.301-0.866 3.37-1.906 5.797-2.912 9.8-4.064 24.97-7.712 24.97-7.712a3.6443 3.6443 0 0 0 -0.59322 -7.1727s-0.985-0.056-2.616-0.054m-12.161 38.048a3.6443 3.6443 0 0 0 -0.78199 0.18875c-7.323 2.431-12.463 4.87-15.936 7.712-1.736 1.421-3.081 2.983-3.883 4.854s-0.891 4.103-0.216 5.986c1.35 3.766 4.687 6.02 8.898 7.982 4.211 1.957 9.598 3.508 16.02 4.746 25.677 4.95 67.854 4.47 108.13-7.308a3.6443 3.6443 0 0 0 0.18876 -6.93c-7.567-2.668-12.404-7.55-12.404-7.55a3.6443 3.6443 0 0 0 -3.2898 -1.0247c-38.475 7.409-60.22 7.194-88.39 4.287-5.15-0.533-7.816-1.669-8.602-2.265-0.197-0.149-0.33-0.236-0.404-0.27 0.036-0.019 0.08-0.064 0.108-0.162 0.126-0.44 0.881-1.558 1.672-2.373s1.456-1.294 1.456-1.294a3.6443 3.6443 0 0 0 -2.1842 -6.5795 3.6443 3.6443 0 0 0 -0.3775 0m8.1435 36.646a3.6443 3.6443 0 0 0 -0.0809 0.027 3.6443 3.6443 0 0 0 -0.64716 0.13482c-6.716 1.877-11.468 3.969-14.696 6.687s-4.861 6.966-3.586 10.57 4.333 6.05 8.224 8.224 8.831 4.01 14.669 5.501c23.352 5.945 60.953 6.336 94.67-8.116a3.6443 3.6443 0 0 0 -0.10786 -6.7413c-10.406-4.047-17.797-8.683-17.797-8.683a3.6443 3.6443 0 0 0 -2.6156 -0.48537c-29.08 5.504-41.912 5.92-68.28 2.912-5.05-0.581-7.901-1.487-9.09-2.103 0.134-0.173 0.087-0.116 0.297-0.297 0.582-0.502 1.106-0.809 1.106-0.809a3.6443 3.6443 0 0 0 -2.0763 -6.8222m-34.27 24.322c-12.496-0.024-30 5.32-40.42 12.134-2.605 1.703-4.804 3.482-6.364 5.663-1.56 2.18-2.47 5.218-1.429 8.04 1.041 2.818 3.447 4.715 6.606 6.175s7.286 2.565 12.755 3.452c67.27 10.91 128.51 8.487 168.88 1.294 20.19-3.596 35.04-8.207 43.47-13.59 4.214-2.691 7.482-5.86 7.388-10.301-0.047-2.22-1.14-4.296-2.67-5.851-1.529-1.555-3.496-2.757-5.932-3.856a3.6443 3.6443 0 0 0 -3.829 6.1211s0.94 1.182 0.917 1.699c-0.012 0.259 0.021 0.722-1.321 1.834-1.343 1.112-4.074 2.622-8.764 4.045-18 5.453-57.5 9.307-96.1 9.788-19.303 0.24-38.457-0.344-54.766-1.861s-29.871-4.084-37.4-7.361c-0.279-0.121-0.154-0.106-0.351-0.216 0.549-0.459 1.252-1.043 2.238-1.564 4.418-2.335 11.798-4.557 14.939-5.231a3.6443 3.6443 0 0 0 0.027 0c6.979-1.513 10.489-1.213 10.489-1.213a3.6443 3.6443 0 0 0 2.3729 -6.6064c-2.974-2.095-6.637-2.581-10.732-2.589m201.78 19.9a3.6443 3.6443 0 0 0 -3.1549 2.1572c-0.077 0.116-0.257 0.377-0.647 0.782-0.81 0.839-2.458 2.246-5.582 3.991-6.248 3.49-18.37 8.263-40.933 12.512-50.897 9.578-114.3 8.486-151.38 2.373l-0.162 0.971a3.6443 3.6443 0 0 0 -1.7258 5.42c-0.296 0.019-0.947 0.051-0.944 0.054 0.017 0.014 0.03 0.036 0.054 0.054 0.048 0.036 0.096 0.088 0.162 0.135 0.132 0.094 0.305 0.195 0.512 0.324 0.415 0.257 0.996 0.573 1.78 0.944 1.568 0.742 3.969 1.697 7.577 2.697 7.216 1.999 19.261 4.245 39.26 5.528 30.397 1.946 68.791 1.429 100.15-3.209 15.679-2.319 29.573-5.651 40.04-10.409 10.471-4.758 18.12-11.334 18.822-20.413a3.6443 3.6443 0 0 0 -3.829 -3.9099" fill="#ffffff" stroke="#ffffff" id="path66"/>
</svg>
