<?xml version="1.0" encoding="UTF-8" standalone="no"?>
<svg xmlns="http://www.w3.org/2000/svg" xmlns:sodipodi="http://sodipodi.sourceforge.net/DTD/sodipodi-0.dtd" xmlns:inkscape="http://www.inkscape.org/namespaces/inkscape" height="512" viewBox="0 0 512 512" width="512" version="1.1">
 <metadata id="metadata80"/>
 <g transform="translate(0,-540.36)" id="g4">
  <text font-family="Gentium Book Basic" x="-1160.48" y="1089.88" line-height="125%" font-size="208.33" id="text6" word-spacing="0" letter-spacing="0"><tspan x="-1160.48" y="1089.88" id="tspan8"/>
  </text>
  <text font-family="Arial" x="28.534" y="3810.63" transform="scale(4.0128 .2492)" font-size="75.7" id="text10" text-anchor="middle"/>
  <g fill-rule="evenodd" id="g12">
   <path d="m471.95 793.41c0 120.9-98.01 218.9-218.9 218.9-120.9 0-218.9-98.01-218.9-218.9 0-120.9 98.01-218.9 218.9-218.9 120.9 0 218.9 98.01 218.9 218.9" fill="#9f9f9f" id="path14"/>
   <path transform="translate(0,540.36)" fill-opacity="0.235" d="m296.25 100.47c-0.528-0.017-1.066 0.009-1.625 0.031-2.504 0.098-5.343 0.586-8.625 1.656-6.073 1.829-9.742 5.03-11.813 9.09-2.146 7.04-4.057 10.05-2.813 23.719-23.17 40.738-49.656 70.26-75.69 96.91-77.946 66.886-4.643 3.548-74.44 63.5-5.362 3.809-8.854 8.967-11.25 14.656-5.636 13.539-3.051 25.508 4.625 32.531 0.206 0.213 0.411 0.42 0.625 0.625 0.085 0.093 0.163 0.19 0.25 0.281 0.038 0.035 0.087 0.059 0.125 0.094 0.203 0.21 0.414 0.423 0.625 0.625 0.085 0.093 0.163 0.19 0.25 0.281 0.038 0.035 0.087 0.059 0.125 0.094 0.203 0.21 0.414 0.423 0.625 0.625 0.085 0.093 0.163 0.19 0.25 0.281 0.038 0.035 0.087 0.059 0.125 0.094 0.213 0.221 0.434 0.444 0.656 0.656 0.074 0.08 0.143 0.171 0.219 0.25 0.038 0.035 0.087 0.059 0.125 0.094 0.325 0.336 0.654 0.684 1 1 0.32 0.33 0.629 0.658 0.969 0.969 0.206 0.213 0.411 0.42 0.625 0.625 0.085 0.093 0.163 0.19 0.25 0.281 0.038 0.035 0.087 0.059 0.125 0.094 0.203 0.21 0.414 0.423 0.625 0.625 0.085 0.093 0.163 0.19 0.25 0.281 0.038 0.035 0.087 0.059 0.125 0.094 0.203 0.21 0.414 0.423 0.625 0.625 0.085 0.093 0.163 0.19 0.25 0.281 0.038 0.035 0.087 0.059 0.125 0.094 0.213 0.221 0.434 0.444 0.656 0.656 0.074 0.08 0.143 0.171 0.219 0.25 0.038 0.035 0.087 0.059 0.125 0.094 0.213 0.221 0.434 0.444 0.656 0.656 0.074 0.08 0.143 0.171 0.219 0.25 0.038 0.035 0.087 0.059 0.125 0.094 0.324 0.335 0.624 0.653 0.969 0.969 0.206 0.213 0.411 0.42 0.625 0.625 0.085 0.093 0.163 0.19 0.25 0.281 0.038 0.035 0.087 0.059 0.125 0.094 0.203 0.21 0.414 0.423 0.625 0.625 0.085 0.093 0.163 0.19 0.25 0.281 0.038 0.035 0.087 0.059 0.125 0.094 0.203 0.21 0.414 0.423 0.625 0.625 0.085 0.093 0.163 0.19 0.25 0.281 0.038 0.035 0.087 0.059 0.125 0.094 0.203 0.21 0.414 0.423 0.625 0.625 0.085 0.093 0.163 0.19 0.25 0.281 0.038 0.035 0.087 0.059 0.125 0.094 0.213 0.221 0.434 0.444 0.656 0.656 0.074 0.08 0.143 0.171 0.219 0.25 0.038 0.035 0.087 0.059 0.125 0.094 0.324 0.335 0.624 0.653 0.969 0.969 0.329 0.341 0.649 0.679 1 1 0.206 0.213 0.411 0.42 0.625 0.625 0.085 0.093 0.163 0.19 0.25 0.281 0.038 0.035 0.087 0.059 0.125 0.094 0.203 0.21 0.414 0.423 0.625 0.625 0.085 0.093 0.163 0.19 0.25 0.281 0.038 0.035 0.087 0.059 0.125 0.094 0.203 0.21 0.414 0.423 0.625 0.625 0.085 0.093 0.163 0.19 0.25 0.281 0.038 0.035 0.087 0.059 0.125 0.094 0.213 0.221 0.434 0.444 0.656 0.656 0.074 0.08 0.143 0.171 0.219 0.25 0.038 0.035 0.087 0.059 0.125 0.094 0.324 0.335 0.624 0.653 0.969 0.969 0.329 0.341 0.649 0.679 1 1 0.206 0.213 0.411 0.42 0.625 0.625 0.085 0.093 0.163 0.19 0.25 0.281 0.038 0.035 0.087 0.059 0.125 0.094 0.203 0.21 0.414 0.423 0.625 0.625 0.085 0.093 0.163 0.19 0.25 0.281 0.038 0.035 0.087 0.059 0.125 0.094 0.203 0.21 0.414 0.423 0.625 0.625 0.085 0.093 0.163 0.19 0.25 0.281 0.038 0.035 0.087 0.059 0.125 0.094 0.213 0.221 0.434 0.444 0.656 0.656 0.074 0.08 0.143 0.171 0.219 0.25 0.038 0.035 0.087 0.059 0.125 0.094 0.325 0.336 0.654 0.684 1 1 0.32 0.33 0.629 0.658 0.969 0.969 0.206 0.213 0.411 0.42 0.625 0.625 0.085 0.093 0.163 0.19 0.25 0.281 0.038 0.035 0.087 0.059 0.125 0.094 0.203 0.21 0.414 0.423 0.625 0.625 0.085 0.093 0.163 0.19 0.25 0.281 0.038 0.035 0.087 0.059 0.125 0.094 0.203 0.21 0.414 0.423 0.625 0.625 0.085 0.093 0.163 0.19 0.25 0.281 0.038 0.035 0.087 0.059 0.125 0.094 0.203 0.21 0.414 0.423 0.625 0.625 0.085 0.093 0.163 0.19 0.25 0.281 0.038 0.035 0.087 0.059 0.125 0.094 0.213 0.221 0.434 0.444 0.656 0.656 0.074 0.08 0.143 0.171 0.219 0.25 0.038 0.035 0.087 0.059 0.125 0.094 0.324 0.335 0.624 0.653 0.969 0.969 0.206 0.213 0.411 0.42 0.625 0.625 0.085 0.093 0.163 0.19 0.25 0.281 0.038 0.035 0.087 0.059 0.125 0.094 0.203 0.21 0.414 0.423 0.625 0.625 0.085 0.093 0.163 0.19 0.25 0.281 0.038 0.035 0.087 0.059 0.125 0.094 0.203 0.21 0.414 0.423 0.625 0.625 0.085 0.093 0.163 0.19 0.25 0.281 0.038 0.035 0.087 0.059 0.125 0.094 0.203 0.21 0.414 0.423 0.625 0.625 0.085 0.093 0.163 0.19 0.25 0.281 0.038 0.035 0.087 0.059 0.125 0.094 0.213 0.221 0.434 0.444 0.656 0.656 0.074 0.08 0.143 0.171 0.219 0.25 0.038 0.035 0.087 0.059 0.125 0.094 0.324 0.335 0.624 0.653 0.969 0.969 0.329 0.341 0.649 0.679 1 1 0.206 0.213 0.411 0.42 0.625 0.625 0.085 0.093 0.163 0.19 0.25 0.281 0.038 0.035 0.087 0.059 0.125 0.094 0.203 0.21 0.414 0.423 0.625 0.625 0.085 0.093 0.163 0.19 0.25 0.281 0.038 0.035 0.087 0.059 0.125 0.094 0.203 0.21 0.414 0.423 0.625 0.625 0.085 0.093 0.163 0.19 0.25 0.281 0.038 0.035 0.087 0.059 0.125 0.094 0.213 0.221 0.434 0.444 0.656 0.656 0.074 0.08 0.143 0.171 0.219 0.25 0.038 0.035 0.087 0.059 0.125 0.094 0.325 0.336 0.654 0.684 1 1 0.32 0.33 0.629 0.658 0.969 0.969 0.206 0.213 0.411 0.42 0.625 0.625 0.085 0.093 0.163 0.19 0.25 0.281 0.038 0.035 0.087 0.059 0.125 0.094 0.203 0.21 0.414 0.423 0.625 0.625 0.085 0.093 0.163 0.19 0.25 0.281 0.038 0.035 0.087 0.059 0.125 0.094 0.203 0.21 0.414 0.423 0.625 0.625 0.085 0.093 0.163 0.19 0.25 0.281 0.038 0.035 0.087 0.059 0.125 0.094 0.213 0.221 0.434 0.444 0.656 0.656 0.074 0.08 0.143 0.171 0.219 0.25 0.038 0.035 0.087 0.059 0.125 0.094 0.213 0.221 0.434 0.444 0.656 0.656 0.074 0.08 0.143 0.171 0.219 0.25 0.038 0.035 0.087 0.059 0.125 0.094 0.324 0.335 0.624 0.653 0.969 0.969 0.206 0.213 0.411 0.42 0.625 0.625 0.085 0.093 0.163 0.19 0.25 0.281 0.038 0.035 0.087 0.059 0.125 0.094 0.203 0.21 0.414 0.423 0.625 0.625 0.085 0.093 0.163 0.19 0.25 0.281 0.038 0.035 0.087 0.059 0.125 0.094 0.203 0.21 0.414 0.423 0.625 0.625 0.085 0.093 0.163 0.19 0.25 0.281 0.038 0.035 0.087 0.059 0.125 0.094 0.203 0.21 0.414 0.423 0.625 0.625 0.085 0.093 0.163 0.19 0.25 0.281 0.038 0.035 0.087 0.059 0.125 0.094 0.213 0.221 0.434 0.444 0.656 0.656 0.074 0.08 0.143 0.171 0.219 0.25 0.038 0.035 0.087 0.059 0.125 0.094 0.324 0.335 0.624 0.653 0.969 0.969 0.329 0.341 0.649 0.679 1 1 0.206 0.213 0.411 0.42 0.625 0.625 0.085 0.093 0.163 0.19 0.25 0.281 0.038 0.035 0.087 0.059 0.125 0.094 0.203 0.21 0.414 0.423 0.625 0.625 0.085 0.093 0.163 0.19 0.25 0.281 0.038 0.035 0.087 0.059 0.125 0.094 0.203 0.21 0.414 0.423 0.625 0.625 0.085 0.093 0.163 0.19 0.25 0.281 0.038 0.035 0.087 0.059 0.125 0.094 0.213 0.221 0.434 0.444 0.656 0.656 0.074 0.08 0.143 0.171 0.219 0.25 0.038 0.035 0.087 0.059 0.125 0.094 0.324 0.335 0.624 0.653 0.969 0.969 0.329 0.341 0.649 0.679 1 1 0.206 0.213 0.411 0.42 0.625 0.625 0.085 0.093 0.163 0.19 0.25 0.281 0.038 0.035 0.087 0.059 0.125 0.094 0.203 0.21 0.414 0.423 0.625 0.625 0.085 0.093 0.163 0.19 0.25 0.281 0.038 0.035 0.087 0.059 0.125 0.094 0.203 0.21 0.414 0.423 0.625 0.625 0.085 0.093 0.163 0.19 0.25 0.281 0.038 0.035 0.087 0.059 0.125 0.094 0.213 0.221 0.434 0.444 0.656 0.656 0.074 0.08 0.143 0.171 0.219 0.25 0.038 0.035 0.087 0.059 0.125 0.094 0.325 0.336 0.654 0.684 1 1 0.32 0.33 0.629 0.658 0.969 0.969 0.206 0.213 0.411 0.42 0.625 0.625 0.085 0.093 0.163 0.19 0.25 0.281 0.038 0.035 0.087 0.059 0.125 0.094 0.203 0.21 0.414 0.423 0.625 0.625 0.085 0.093 0.163 0.19 0.25 0.281 0.038 0.035 0.087 0.059 0.125 0.094 0.203 0.21 0.414 0.423 0.625 0.625 0.085 0.093 0.163 0.19 0.25 0.281 0.038 0.035 0.087 0.059 0.125 0.094 0.203 0.21 0.414 0.423 0.625 0.625 0.085 0.093 0.163 0.19 0.25 0.281 0.038 0.035 0.087 0.059 0.125 0.094 0.213 0.221 0.434 0.444 0.656 0.656 0.074 0.08 0.143 0.171 0.219 0.25 0.038 0.035 0.087 0.059 0.125 0.094 0.324 0.335 0.624 0.653 0.969 0.969 0.206 0.213 0.411 0.42 0.625 0.625 0.085 0.093 0.163 0.19 0.25 0.281 0.038 0.035 0.087 0.059 0.125 0.094 0.203 0.21 0.414 0.423 0.625 0.625 0.085 0.093 0.163 0.19 0.25 0.281 0.038 0.035 0.087 0.059 0.125 0.094 0.203 0.21 0.414 0.423 0.625 0.625 0.085 0.093 0.163 0.19 0.25 0.281 0.038 0.035 0.087 0.059 0.125 0.094 0.203 0.21 0.414 0.423 0.625 0.625 0.085 0.093 0.163 0.19 0.25 0.281 0.038 0.035 0.087 0.059 0.125 0.094 0.213 0.221 0.434 0.444 0.656 0.656 0.074 0.08 0.143 0.171 0.219 0.25 0.038 0.035 0.087 0.059 0.125 0.094 0.324 0.335 0.624 0.653 0.969 0.969 0.329 0.341 0.649 0.679 1 1 0.206 0.213 0.411 0.42 0.625 0.625 0.085 0.093 0.163 0.19 0.25 0.281 0.038 0.035 0.087 0.059 0.125 0.094 0.203 0.21 0.414 0.423 0.625 0.625 0.085 0.093 0.163 0.19 0.25 0.281 0.038 0.035 0.087 0.059 0.125 0.094 0.203 0.21 0.414 0.423 0.625 0.625 0.085 0.093 0.163 0.19 0.25 0.281 0.038 0.035 0.087 0.059 0.125 0.094 0.213 0.221 0.434 0.444 0.656 0.656 0.074 0.08 0.143 0.171 0.219 0.25 0.038 0.035 0.087 0.059 0.125 0.094 0.325 0.336 0.654 0.684 1 1 0.32 0.33 0.629 0.658 0.969 0.969 0.206 0.213 0.411 0.42 0.625 0.625 0.085 0.093 0.163 0.19 0.25 0.281 0.038 0.035 0.087 0.059 0.125 0.094 0.203 0.21 0.414 0.423 0.625 0.625 0.085 0.093 0.163 0.19 0.25 0.281 0.038 0.035 0.087 0.059 0.125 0.094 0.203 0.21 0.414 0.423 0.625 0.625 0.085 0.093 0.163 0.19 0.25 0.281 0.038 0.035 0.087 0.059 0.125 0.094 0.213 0.221 0.434 0.444 0.656 0.656 0.074 0.08 0.143 0.171 0.219 0.25 0.038 0.035 0.087 0.059 0.125 0.094 0.213 0.221 0.434 0.444 0.656 0.656 0.074 0.08 0.143 0.171 0.219 0.25 0.038 0.035 0.087 0.059 0.125 0.094 0.324 0.335 0.624 0.653 0.969 0.969 0.206 0.213 0.411 0.42 0.625 0.625 0.085 0.093 0.163 0.19 0.25 0.281 0.038 0.035 0.087 0.059 0.125 0.094 0.203 0.21 0.414 0.423 0.625 0.625 0.085 0.093 0.163 0.19 0.25 0.281 0.038 0.035 0.087 0.059 0.125 0.094 0.203 0.21 0.414 0.423 0.625 0.625 0.085 0.093 0.163 0.19 0.25 0.281 0.038 0.035 0.087 0.059 0.125 0.094 0.203 0.21 0.414 0.423 0.625 0.625 0.085 0.093 0.163 0.19 0.25 0.281 0.038 0.035 0.087 0.059 0.125 0.094 0.213 0.221 0.434 0.444 0.656 0.656 0.074 0.08 0.143 0.171 0.219 0.25 0.038 0.035 0.087 0.059 0.125 0.094 0.324 0.335 0.624 0.653 0.969 0.969 0.329 0.341 0.649 0.679 1 1 0.206 0.213 0.411 0.42 0.625 0.625 0.085 0.093 0.163 0.19 0.25 0.281 0.038 0.035 0.087 0.059 0.125 0.094 0.203 0.21 0.414 0.423 0.625 0.625 0.085 0.093 0.163 0.19 0.25 0.281 0.038 0.035 0.087 0.059 0.125 0.094 0.203 0.21 0.414 0.423 0.625 0.625 0.085 0.093 0.163 0.19 0.25 0.281 0.038 0.035 0.087 0.059 0.125 0.094 0.213 0.221 0.434 0.444 0.656 0.656 0.074 0.08 0.143 0.171 0.219 0.25 0.038 0.035 0.087 0.059 0.125 0.094 0.324 0.335 0.624 0.653 0.969 0.969 0.329 0.341 0.649 0.679 1 1 0.206 0.213 0.411 0.42 0.625 0.625 0.085 0.093 0.163 0.19 0.25 0.281 0.038 0.035 0.087 0.059 0.125 0.094 0.203 0.21 0.414 0.423 0.625 0.625 0.085 0.093 0.163 0.19 0.25 0.281 0.038 0.035 0.087 0.059 0.125 0.094 0.203 0.21 0.414 0.423 0.625 0.625 0.085 0.093 0.163 0.19 0.25 0.281 0.038 0.035 0.087 0.059 0.125 0.094 0.213 0.221 0.434 0.444 0.656 0.656 0.074 0.08 0.143 0.171 0.219 0.25 0.038 0.035 0.087 0.059 0.125 0.094 0.325 0.336 0.654 0.684 1 1 0.32 0.33 0.629 0.658 0.969 0.969 0.206 0.213 0.411 0.42 0.625 0.625 0.085 0.093 0.163 0.19 0.25 0.281 0.038 0.035 0.087 0.059 0.125 0.094 0.203 0.21 0.414 0.423 0.625 0.625 0.085 0.093 0.163 0.19 0.25 0.281 0.038 0.035 0.087 0.059 0.125 0.094 0.203 0.21 0.414 0.423 0.625 0.625 0.085 0.093 0.163 0.19 0.25 0.281 0.038 0.035 0.087 0.059 0.125 0.094 0.203 0.21 0.414 0.423 0.625 0.625 0.085 0.093 0.163 0.19 0.25 0.281 0.038 0.035 0.087 0.059 0.125 0.094 0.213 0.221 0.434 0.444 0.656 0.656 0.074 0.08 0.143 0.171 0.219 0.25 0.038 0.035 0.087 0.059 0.125 0.094 0.324 0.335 0.624 0.653 0.969 0.969 0.206 0.213 0.411 0.42 0.625 0.625 0.085 0.093 0.163 0.19 0.25 0.281 0.038 0.035 0.087 0.059 0.125 0.094 0.203 0.21 0.414 0.423 0.625 0.625 0.085 0.093 0.163 0.19 0.25 0.281 0.038 0.035 0.087 0.059 0.125 0.094 0.203 0.21 0.414 0.423 0.625 0.625 0.085 0.093 0.163 0.19 0.25 0.281 0.038 0.035 0.087 0.059 0.125 0.094 0.203 0.21 0.414 0.423 0.625 0.625 0.085 0.093 0.163 0.19 0.25 0.281 0.038 0.035 0.087 0.059 0.125 0.094 0.213 0.221 0.434 0.444 0.656 0.656 0.04 0.043 0.087 0.08 0.125 0.125 3.075 0.128 6.143 0.25 9.25 0.25 117.46 0 213.31-92.54 218.66-208.69-0.167-0.167-0.333-0.334-0.5-0.5-0.062-0.063-0.125-0.125-0.188-0.188-0.593-0.606-1.181-1.215-1.781-1.813-0.332-0.335-0.666-0.668-1-1-0.327-0.33-0.671-0.642-1-0.969l-0.063-0.063c-0.219-0.218-0.436-0.439-0.656-0.656-0.094-0.094-0.187-0.188-0.281-0.281-0.332-0.335-0.666-0.668-1-1-0.333-0.336-0.664-0.666-1-1-0.062-0.063-0.125-0.125-0.188-0.188-0.593-0.606-1.181-1.215-1.781-1.813-0.327-0.33-0.671-0.642-1-0.969l-0.063-0.063c-0.209-0.208-0.415-0.418-0.625-0.625-0.104-0.104-0.208-0.209-0.313-0.313-0.332-0.335-0.666-0.668-1-1-0.332-0.335-0.666-0.668-1-1-0.062-0.063-0.125-0.125-0.188-0.188-0.593-0.606-1.181-1.215-1.781-1.813-0.327-0.33-0.671-0.642-1-0.969l-0.063-0.063c-0.209-0.208-0.415-0.418-0.625-0.625-0.104-0.104-0.208-0.209-0.313-0.313-0.332-0.335-0.666-0.668-1-1-0.332-0.335-0.666-0.668-1-1-0.062-0.063-0.125-0.125-0.188-0.188-0.593-0.606-1.181-1.215-1.781-1.813-0.332-0.335-0.666-0.668-1-1-0.327-0.33-0.671-0.642-1-0.969l-0.063-0.063c-0.219-0.218-0.436-0.439-0.656-0.656-0.094-0.094-0.187-0.188-0.281-0.281-0.332-0.335-0.666-0.668-1-1-0.062-0.063-0.125-0.125-0.188-0.188-0.593-0.606-1.181-1.215-1.781-1.813-0.332-0.335-0.666-0.668-1-1-0.327-0.33-0.671-0.642-1-0.969l-0.063-0.063c-0.219-0.218-0.436-0.439-0.656-0.656-0.094-0.094-0.187-0.188-0.281-0.281-0.332-0.335-0.666-0.668-1-1-0.333-0.336-0.664-0.667-1-1-0.062-0.063-0.125-0.125-0.188-0.188-0.593-0.606-1.181-1.215-1.781-1.813-0.327-0.33-0.671-0.642-1-0.969l-0.063-0.063c-0.209-0.208-0.415-0.418-0.625-0.625-0.104-0.104-0.208-0.209-0.313-0.313-0.332-0.335-0.666-0.668-1-1-0.332-0.335-0.666-0.668-1-1-0.062-0.063-0.125-0.125-0.188-0.188-0.593-0.606-1.181-1.215-1.781-1.813-0.332-0.335-0.666-0.668-1-1-0.327-0.33-0.671-0.642-1-0.969l-0.063-0.063c-0.219-0.218-0.436-0.439-0.656-0.656-0.094-0.094-0.187-0.188-0.281-0.281-0.332-0.335-0.666-0.668-1-1-0.062-0.063-0.125-0.125-0.188-0.188-0.593-0.606-1.181-1.215-1.781-1.813-0.332-0.335-0.666-0.668-1-1-0.327-0.33-0.671-0.642-1-0.969l-0.063-0.063c-0.219-0.218-0.436-0.439-0.656-0.656-0.094-0.094-0.187-0.188-0.281-0.281-0.332-0.335-0.666-0.668-1-1-0.333-0.336-0.664-0.667-1-1-0.062-0.063-0.125-0.125-0.188-0.188-0.593-0.606-1.181-1.215-1.781-1.813-0.327-0.33-0.671-0.642-1-0.969l-0.063-0.063c-0.209-0.208-0.415-0.418-0.625-0.625-0.104-0.104-0.208-0.209-0.313-0.313-0.332-0.335-0.666-0.668-1-1-0.332-0.335-0.666-0.668-1-1-0.062-0.063-0.125-0.125-0.188-0.188-0.593-0.606-1.181-1.215-1.781-1.813-0.327-0.33-0.671-0.642-1-0.969l-0.063-0.063c-0.209-0.208-0.415-0.418-0.625-0.625-0.104-0.104-0.208-0.209-0.313-0.313-0.332-0.335-0.666-0.668-1-1-0.332-0.335-0.666-0.668-1-1-0.062-0.063-0.125-0.125-0.188-0.188-0.593-0.606-1.181-1.215-1.781-1.813-0.332-0.335-0.666-0.668-1-1-0.327-0.33-0.671-0.642-1-0.969l-0.063-0.063c-0.219-0.218-0.436-0.439-0.656-0.656-0.094-0.094-0.187-0.188-0.281-0.281-0.332-0.335-0.666-0.668-1-1-0.062-0.063-0.125-0.125-0.188-0.188-0.593-0.606-1.181-1.215-1.781-1.813-0.332-0.335-0.666-0.668-1-1-0.327-0.33-0.671-0.642-1-0.969l-0.063-0.063c-0.219-0.218-0.436-0.439-0.656-0.656-0.094-0.094-0.187-0.188-0.281-0.281-0.332-0.335-0.666-0.668-1-1-0.333-0.336-0.664-0.667-1-1-0.062-0.063-0.125-0.125-0.188-0.188-0.593-0.606-1.181-1.215-1.781-1.813-0.327-0.33-0.671-0.642-1-0.969l-0.063-0.063c-0.209-0.208-0.415-0.418-0.625-0.625-0.104-0.104-0.208-0.209-0.313-0.313-0.332-0.335-0.666-0.668-1-1-0.332-0.335-0.666-0.668-1-1-0.062-0.063-0.125-0.125-0.188-0.188-0.593-0.606-1.181-1.215-1.781-1.813-0.327-0.33-0.671-0.642-1-0.969l-0.063-0.063c-0.188-0.187-0.374-0.377-0.563-0.563-0.125-0.125-0.25-0.251-0.375-0.375-0.332-0.335-0.666-0.668-1-1-0.332-0.335-0.666-0.668-1-1-0.062-0.063-0.125-0.125-0.188-0.188-0.593-0.606-1.181-1.215-1.781-1.813-0.332-0.335-0.666-0.668-1-1-0.327-0.33-0.671-0.642-1-0.969l-0.063-0.063c-0.219-0.218-0.436-0.439-0.656-0.656-0.094-0.094-0.187-0.188-0.281-0.281-0.332-0.335-0.666-0.668-1-1-0.333-0.336-0.664-0.667-1-1-0.062-0.063-0.125-0.125-0.188-0.188-0.593-0.606-1.181-1.215-1.781-1.813-0.327-0.33-0.671-0.642-1-0.969l-0.063-0.063c-0.209-0.208-0.415-0.418-0.625-0.625-0.104-0.104-0.208-0.209-0.313-0.313-0.332-0.335-0.666-0.668-1-1-0.332-0.335-0.666-0.668-1-1-0.062-0.063-0.125-0.125-0.188-0.188-0.593-0.606-1.181-1.215-1.781-1.813-0.327-0.33-0.671-0.642-1-0.969l-0.063-0.063c-0.209-0.208-0.415-0.418-0.625-0.625-0.104-0.104-0.208-0.209-0.313-0.313-0.332-0.335-0.666-0.668-1-1-0.332-0.335-0.666-0.668-1-1-0.062-0.063-0.125-0.125-0.188-0.188-0.593-0.606-1.181-1.215-1.781-1.813-0.332-0.335-0.666-0.668-1-1-0.327-0.33-0.671-0.642-1-0.969l-0.063-0.063c-0.219-0.218-0.436-0.439-0.656-0.656-0.094-0.094-0.187-0.188-0.281-0.281-0.332-0.335-0.666-0.668-1-1-0.062-0.063-0.125-0.125-0.188-0.188-0.593-0.606-1.181-1.215-1.781-1.813-0.332-0.335-0.666-0.668-1-1-0.327-0.33-0.671-0.642-1-0.969l-0.063-0.063c-0.219-0.218-0.436-0.439-0.656-0.656-0.094-0.094-0.187-0.188-0.281-0.281-0.332-0.335-0.666-0.668-1-1-0.333-0.336-0.664-0.667-1-1-0.062-0.063-0.125-0.125-0.188-0.188-0.593-0.606-1.181-1.215-1.781-1.813-0.327-0.33-0.671-0.642-1-0.969l-0.063-0.063c-0.209-0.208-0.415-0.418-0.625-0.625-0.104-0.104-0.208-0.209-0.313-0.313-0.332-0.335-0.666-0.668-1-1-0.332-0.335-0.666-0.668-1-1-0.062-0.063-0.125-0.125-0.188-0.188-0.593-0.606-1.181-1.215-1.781-1.813-0.327-0.33-0.671-0.642-1-0.969l-0.063-0.063c-0.188-0.187-0.374-0.377-0.563-0.563-0.125-0.125-0.25-0.251-0.375-0.375-0.332-0.335-0.666-0.668-1-1-0.332-0.335-0.666-0.668-1-1-0.062-0.063-0.125-0.125-0.188-0.188-0.593-0.606-1.181-1.215-1.781-1.813-0.332-0.335-0.666-0.668-1-1-0.327-0.33-0.671-0.642-1-0.969l-0.063-0.063c-0.219-0.218-0.436-0.439-0.656-0.656-0.094-0.094-0.187-0.188-0.281-0.281-0.332-0.335-0.666-0.668-1-1-0.333-0.336-0.664-0.666-1-1-0.062-0.063-0.125-0.125-0.188-0.188-0.593-0.606-1.181-1.215-1.781-1.813-0.327-0.33-0.671-0.642-1-0.969-0.275-0.277-0.567-0.537-0.844-0.813-0.058-0.057-0.098-0.131-0.156-0.188-0.332-0.335-0.666-0.668-1-1-4.138-4.177-8.47-8.15-13-11.875-6.129-2.492-10.734-6.904-18.656-7.156" id="path16"/>
   <path d="m256 541.36c-140.83 0-255 114.17-255 255s114.17 255 255 255 255-114.17 255-255-114.17-255-255-255m8.827 44.931c120.9 0 218.9 98 218.9 218.9s-98 218.9-218.9 218.9-218.93-98-218.93-218.9 98.03-218.9 218.93-218.9" fill-opacity="0.067" id="path18"/>
   <g fill-opacity="0.129" id="g20">
    <path d="m256 544.79c-138.94 0-251.57 112.63-251.57 251.57s112.63 251.54 251.57 251.54 251.57-112.6 251.57-251.54-112.63-251.57-251.57-251.57m5.885 38.556c120.9 0 218.9 98 218.9 218.9s-98 218.9-218.9 218.9-218.93-98-218.93-218.9 98.03-218.9 218.93-218.9" id="path22"/>
    <path d="m256 548.72c-136.77 0-247.64 110.87-247.64 247.64s110.87 247.64 247.64 247.64 247.64-110.87 247.64-247.64-110.87-247.64-247.64-247.64m2.942 31.691c120.9 0 218.9 98 218.9 218.9s-98 218.9-218.9 218.9-218.93-98-218.93-218.9 98.03-218.9 218.93-218.9" id="path24"/>
   </g>
   <path fill="#ffffff" stroke-width="4.904" stroke="#000000" stroke-opacity="0.31" d="m253.04 548.22c-135.42 0-245.19 109.78-245.19 245.19 0 135.42 109.78 245.19 245.19 245.19 135.42 0 245.19-109.78 245.19-245.19 0-135.42-109.78-245.19-245.19-245.19zm0 26.297c120.9 0 218.9 98 218.9 218.9s-98 218.9-218.9 218.9-218.93-98-218.93-218.9 98.03-218.9 218.93-218.9z" id="path26"/>
  </g>
  <text font-family="Gentium Book Basic" x="729.64" y="771.72" line-height="125%" font-size="129.23" id="text28" word-spacing="0" letter-spacing="0"><tspan x="729.64" y="771.72" id="tspan30"/>
  </text>
  <text font-family="Arial" x="378.91" y="2747.64" transform="scale(4.0128 .2492)" font-size="46.954" id="text32" text-anchor="middle"/>
  <text font-family="Gentium Book Basic" x="1310.91" y="691.72" line-height="125%" font-size="129.23" id="text34" word-spacing="0" letter-spacing="0"><tspan x="1310.91" y="691.72" id="tspan36"/>
  </text>
  <text font-family="Arial" x="523.76" y="2426.6" transform="scale(4.0128 .2492)" font-size="46.954" id="text38" text-anchor="middle"/>
  <text font-family="Gentium Book Basic" x="239.33" y="510.46" line-height="125%" font-size="129.23" id="text40" word-spacing="0" letter-spacing="0"><tspan x="239.33" y="510.46" id="tspan42"/>
  </text>
  <text font-family="Arial" x="256.72" y="1699.25" transform="scale(4.0128 .2492)" font-size="46.954" id="text44" text-anchor="middle"/>
  <text font-family="Gentium Book Basic" x="1337.38" y="293.99" line-height="125%" font-size="129.23" id="text46" word-spacing="0" letter-spacing="0"><tspan x="1337.38" y="293.99" id="tspan48"/>
  </text>
  <text font-family="Arial" x="530.36" y="830.57" transform="scale(4.0128 .2492)" font-size="46.954" id="text50" text-anchor="middle"/>
  <text font-family="Gentium Book Basic" x="1918.65" y="213.99" line-height="125%" font-size="129.23" id="text52" word-spacing="0" letter-spacing="0"><tspan x="1918.65" y="213.99" id="tspan54"/>
  </text>
  <text font-family="Arial" x="675.21" y="509.54" transform="scale(4.0128 .2492)" font-size="46.954" id="text56" text-anchor="middle"/>
  <text font-family="Gentium Book Basic" x="1529.53" y="-258.41" line-height="125%" font-size="129.23" id="text58" word-spacing="0" letter-spacing="0"><tspan x="1529.53" y="-258.41" id="tspan60"/>
  </text>
  <text font-family="Arial" x="578.24" y="-1386.12" transform="scale(4.0128 .2492)" font-size="46.954" id="text62" text-anchor="middle"/>
  <text font-family="Gentium Book Basic" x="2110.79" y="-338.42" line-height="125%" font-size="129.23" id="text64" word-spacing="0" letter-spacing="0"><tspan x="2110.79" y="-338.42" id="tspan66"/>
  </text>
  <text font-family="Arial" x="723.09" y="-1707.16" transform="scale(4.0128 .2492)" font-size="46.954" id="text68" text-anchor="middle"/>
  <text font-family="Gentium Book Basic" x="277.99" y="1076.3" line-height="125%" font-size="208.33" id="text70" word-spacing="0" letter-spacing="0"><tspan x="277.99" y="1076.3" id="tspan72"/>
  </text>
  <path fill="#ffffff" fill-rule="evenodd" d="m294.62 640.85c-2.504 0.098-5.335 0.613-8.618 1.683-6.073 1.829-9.734 5.01-11.804 9.08-2.146 7.04-4.075 10.07-2.83 23.736-23.17 40.738-49.639 70.23-75.67 96.88-77.946 66.886-4.665 3.56-74.46 63.51-5.362 3.809-8.843 8.974-11.239 14.664-9.02 21.663 3.03 39.31 23.26 39.1 13.609 1.788 37.17-3.984 55.759-5.991 21.18 2.636 23.04 18.394 32.889 28.733 9.282 13.958 17.252 37.31 28.351 38.27 10.24 1.553 20.02 3.753 37.988-5.864 1.893-2.151-3.211-6.084-6.731-9.612-1.016-0.879-0.141-2.562 0.102-11.779-2.422-3.622-12.06-8.91-13.666-11.957 2.02-7.786-6.63-11.172-12.416-16.19-3.487-9.274-8.293-15.07-13.207-20.422-15.213-22.5 22.257-20.347 62.39-26.592 19.03-2.961 38.959-7.236 58.38-1.606 7.01 2.031 12.02 2.734 18.08 3.697 5.286 0.84 11.83-3.21 13-5.558 6.305-6.126 8.686-25.671 5.762-38.957-11.1-50.43-36.705-117.95-85.03-157.69-6.537-2.658-11.351-7.488-20.294-7.139m-20.06 57.52c9.333 30.22 13.347 55.23 40.461 96.76 8.628 13.215 18.88 26.42 32.1 39.26-30.845 2.75-61.897 0.572-91.61 9.561-9.753 2.951-17.831 2.45-26.872-0.153-16.805-11.648-23.355-29.514-26.694-49.31 1.663-10.144 5.186-15.465 11.524-22.23 4.746-5.172 9.1-11.409 14.991-16.904 17.09-15.943 31.566-34.588 46.1-56.982m21.824 28.2c26.567 14.919 41.07 45.772 44.18 82.73l-0.306 1.428c-21.41-30-32.01-56.866-44.03-84.14l0.153-0.025" id="path74"/>
 </g>
</svg>
