<?xml version="1.0" encoding="UTF-8" standalone="no"?>
<svg xmlns="http://www.w3.org/2000/svg" xmlns:sodipodi="http://sodipodi.sourceforge.net/DTD/sodipodi-0.dtd" xmlns:inkscape="http://www.inkscape.org/namespaces/inkscape" height="512" viewBox="0 0 512 512" width="512" version="1.1">
 <metadata id="metadata34"/>
 <g transform="translate(0,-540.36)" id="g4">
  <path d="m280 423.79c0 78.898-63.959 142.86-142.86 142.86-78.898 0-142.86-63.959-142.86-142.86 0-78.898 63.959-142.86 142.86-142.86 78.898 0 142.86 63.959 142.86 142.86" transform="matrix(1.5323 0 0 1.5323 42.896 144.03)" fill="#545454" fill-rule="evenodd" id="path6"/>
  <path transform="translate(0,540.36)" fill-opacity="0.235" d="m201.72 114.25c-17.11 0.362-32.627 14.743-36.19 36.13-0.469 2.797 0.637 5.48 2.656 7.188 0.296 0.36 0.642 0.697 1 1 0.293 0.357 0.646 0.668 1 0.969 0.324 0.395 0.665 0.768 1.063 1.094 0.306 0.363 0.631 0.697 1 1 0.282 0.335 0.57 0.654 0.906 0.938 0.305 0.371 0.66 0.69 1.031 1 0.289 0.348 0.621 0.675 0.969 0.969 0.306 0.371 0.66 0.721 1.031 1.031 0.313 0.376 0.651 0.719 1.031 1.031 0.306 0.363 0.631 0.697 1 1 0.282 0.335 0.57 0.654 0.906 0.938 0.298 0.361 0.64 0.696 1 1 0.296 0.359 0.643 0.667 1 0.969 0.306 0.371 0.66 0.721 1.031 1.031 0.291 0.349 0.619 0.674 0.969 0.969 0.32 0.388 0.671 0.742 1.063 1.063 0.282 0.335 0.57 0.654 0.906 0.938 0.298 0.361 0.64 0.696 1 1 0.296 0.359 0.643 0.667 1 0.969 0.296 0.36 0.642 0.697 1 1 0.3 0.364 0.637 0.695 1 1 0.32 0.388 0.671 0.742 1.063 1.063 0.297 0.352 0.612 0.673 0.969 0.969-4.651 7.327-7.281 15.57-7.281 24.281 0.001 12.654 5.546 24.304 14.813 33.625 0.418 0.441 0.846 0.881 1.281 1.313 0.366 0.38 0.747 0.753 1.125 1.125 0.043 0.041 0.082 0.085 0.125 0.125 0.235 0.241 0.479 0.481 0.719 0.719 0.051 0.053 0.105 0.103 0.156 0.156 0.043 0.041 0.082 0.085 0.125 0.125 0.235 0.241 0.479 0.481 0.719 0.719 0.051 0.053 0.105 0.103 0.156 0.156 0.038 0.036 0.087 0.058 0.125 0.094 0.24 0.247 0.473 0.507 0.719 0.75 0.051 0.053 0.105 0.103 0.156 0.156 0.038 0.036 0.087 0.058 0.125 0.094 0.158 0.163 0.308 0.339 0.469 0.5 0.367 0.387 0.745 0.777 1.125 1.156 0.359 0.375 0.754 0.726 1.125 1.094 0.368 0.383 0.745 0.75 1.125 1.125 0.043 0.041 0.082 0.085 0.125 0.125 0.235 0.241 0.479 0.481 0.719 0.719 0.051 0.053 0.105 0.103 0.156 0.156 0.038 0.036 0.087 0.058 0.125 0.094 0.24 0.247 0.473 0.507 0.719 0.75 0.051 0.053 0.105 0.103 0.156 0.156 0.038 0.036 0.087 0.058 0.125 0.094 0.158 0.163 0.308 0.339 0.469 0.5 0.367 0.387 0.745 0.777 1.125 1.156 0.359 0.375 0.754 0.726 1.125 1.094 0.389 0.404 0.785 0.792 1.188 1.188 0.022 0.02 0.041 0.042 0.063 0.063 0.235 0.241 0.479 0.481 0.719 0.719 0.051 0.053 0.105 0.103 0.156 0.156 0.038 0.036 0.087 0.058 0.125 0.094 0.24 0.247 0.473 0.507 0.719 0.75 0.051 0.053 0.105 0.103 0.156 0.156 0.038 0.036 0.087 0.058 0.125 0.094 0.143 0.147 0.293 0.292 0.438 0.438 0.021 0.02 0.041 0.042 0.063 0.063 0.364 0.382 0.718 0.781 1.094 1.156 0.359 0.375 0.754 0.726 1.125 1.094 0.389 0.404 0.785 0.792 1.188 1.188 0.022 0.02 0.041 0.042 0.063 0.063 0.235 0.241 0.479 0.481 0.719 0.719 0.325 0.338 0.665 0.668 1 1 0.051 0.053 0.105 0.103 0.156 0.156 0.038 0.036 0.087 0.058 0.125 0.094 0.24 0.247 0.473 0.507 0.719 0.75 0.051 0.053 0.105 0.103 0.156 0.156 0.038 0.036 0.087 0.058 0.125 0.094 0.143 0.147 0.293 0.292 0.438 0.438 0.021 0.02 0.041 0.042 0.063 0.063 0.399 0.419 0.805 0.84 1.219 1.25 0.366 0.38 0.747 0.753 1.125 1.125 0.043 0.041 0.082 0.085 0.125 0.125 0.235 0.241 0.479 0.481 0.719 0.719 0.051 0.053 0.105 0.103 0.156 0.156 0.043 0.041 0.082 0.085 0.125 0.125 0.235 0.241 0.479 0.481 0.719 0.719 0.168 0.175 0.361 0.327 0.531 0.5-2-0.464-3.97-0.96-5.906-1.5-0.227-0.247-0.496-0.453-0.75-0.656-0.29-0.357-0.595-0.693-0.938-0.969-0.28-0.347-0.607-0.637-0.938-0.906-0.327-0.416-0.696-0.758-1.094-1.063-0.295-0.36-0.587-0.698-0.938-0.969-0.296-0.364-0.615-0.666-0.969-0.938-0.287-0.357-0.594-0.67-0.938-0.938-0.297-0.375-0.64-0.724-1-1-0.282-0.354-0.598-0.643-0.938-0.906-0.284-0.365-0.623-0.668-0.969-0.938-0.301-0.393-0.628-0.75-1-1.031-0.285-0.365-0.62-0.674-0.969-0.938-0.289-0.374-0.612-0.702-0.969-0.969-0.274-0.358-0.6-0.648-0.938-0.906-0.286-0.384-0.609-0.73-0.969-1-0.294-0.396-0.658-0.697-1.031-0.969-0.293-0.391-0.597-0.735-0.969-1-0.276-0.364-0.59-0.686-0.938-0.938-0.281-0.382-0.609-0.679-0.969-0.938-0.282-0.389-0.635-0.71-1-0.969-0.278-0.387-0.575-0.713-0.938-0.969-0.282-0.396-0.629-0.714-1-0.969-0.226-0.317-0.493-0.587-0.781-0.813-0.139-0.146-0.264-0.297-0.406-0.438-0.004-0.005-0.027 0.005-0.031 0-0.015-0.017-0.016-0.046-0.031-0.063-0.05-0.057-0.103-0.103-0.156-0.156-0.232-0.255-0.477-0.51-0.719-0.75-0.299-0.339-0.621-0.656-0.938-0.969-0.291-0.33-0.599-0.632-0.906-0.938-0.297-0.337-0.623-0.657-0.938-0.969-0.299-0.339-0.59-0.655-0.906-0.969-0.291-0.33-0.599-0.632-0.906-0.938-0.298-0.338-0.623-0.656-0.938-0.969-0.294-0.334-0.596-0.659-0.906-0.969-0.396-0.45-0.824-0.845-1.25-1.25-0.199-0.216-0.388-0.451-0.594-0.656-0.005-0.006 0.005-0.025 0-0.031-0.059-0.058-0.128-0.099-0.188-0.156-0.242-0.268-0.466-0.529-0.719-0.781-0.296-0.336-0.625-0.626-0.938-0.938-0.293-0.332-0.597-0.66-0.906-0.969-0.295-0.334-0.595-0.658-0.906-0.969-0.292-0.331-0.63-0.63-0.938-0.938-0.015-0.017-0.016-0.046-0.031-0.063-0.048-0.048-0.108-0.078-0.156-0.125-0.237-0.262-0.472-0.534-0.719-0.781-0.015-0.017-0.016-0.046-0.031-0.063-0.08-0.08-0.169-0.141-0.25-0.219-0.215-0.235-0.433-0.465-0.656-0.688-0.296-0.336-0.594-0.625-0.906-0.938-0.015-0.017-0.016-0.046-0.031-0.063-0.058-0.057-0.129-0.1-0.188-0.156-0.228-0.251-0.45-0.512-0.688-0.75-0.295-0.335-0.626-0.656-0.938-0.969-0.292-0.331-0.599-0.629-0.906-0.938-0.024-0.028-0.038-0.066-0.063-0.094-0.073-0.073-0.145-0.147-0.219-0.219-0.206-0.225-0.443-0.442-0.656-0.656-0.025-0.028-0.038-0.066-0.063-0.094-0.052-0.052-0.103-0.105-0.156-0.156-0.224-0.247-0.455-0.485-0.688-0.719-0.025-0.028-0.038-0.066-0.063-0.094-0.106-0.105-0.205-0.21-0.313-0.313-0.172-0.186-0.354-0.353-0.531-0.531-0.299-0.339-0.623-0.653-0.938-0.969-0.025-0.028-0.038-0.066-0.063-0.094-0.072-0.072-0.146-0.148-0.219-0.219-0.205-0.224-0.413-0.442-0.625-0.656-0.441-0.5-0.901-0.955-1.375-1.406-0.156-0.167-0.309-0.339-0.469-0.5-0.034-0.039-0.059-0.087-0.094-0.125-0.068-0.068-0.15-0.12-0.219-0.188-0.198-0.216-0.39-0.45-0.594-0.656-0.297-0.337-0.625-0.622-0.938-0.938-0.034-0.039-0.059-0.086-0.094-0.125-0.072-0.072-0.146-0.148-0.219-0.219-0.195-0.212-0.393-0.422-0.594-0.625-0.301-0.341-0.621-0.65-0.938-0.969-0.035-0.04-0.059-0.086-0.094-0.125-0.073-0.073-0.145-0.147-0.219-0.219-0.192-0.209-0.396-0.394-0.594-0.594-0.044-0.05-0.08-0.106-0.125-0.156-0.042-0.042-0.083-0.084-0.125-0.125-0.214-0.235-0.435-0.463-0.656-0.688-0.044-0.05-0.081-0.107-0.125-0.156-0.052-0.052-0.104-0.105-0.156-0.156-0.208-0.227-0.442-0.439-0.656-0.656-0.044-0.05-0.081-0.107-0.125-0.156-0.069-0.069-0.149-0.12-0.219-0.188-0.184-0.201-0.373-0.401-0.563-0.594-0.054-0.061-0.102-0.127-0.156-0.188-0.064-0.064-0.123-0.125-0.188-0.188-0.185-0.202-0.372-0.4-0.563-0.594-0.288-0.326-0.605-0.631-0.906-0.938l-0.031-0.031c-0.05-0.056-0.106-0.101-0.156-0.156-4.158-4.63-9.731-7.251-15.219-7.219-2.468 0.015-4.928 0.573-7.219 1.719-9.165 4.584-12.23 16.884-6.875 27.594l16.313 32.625c-1.243 2.961-2.238 6.03-3 9.219h-14.625c-11.974 0.001-21.625 8.284-21.625 18.531 0 4.937 2.245 9.408 5.906 12.719 0.031 0.032 0.063 0.061 0.094 0.094 0.106 0.094 0.204 0.189 0.313 0.281 0.232 0.231 0.474 0.467 0.719 0.688 0.02 0.021 0.042 0.041 0.063 0.063 0.104 0.093 0.206 0.19 0.313 0.281 0.184 0.183 0.37 0.355 0.563 0.531 0.386 0.413 0.792 0.805 1.219 1.188 0.02 0.021 0.042 0.041 0.063 0.063 0.094 0.084 0.185 0.168 0.281 0.25 0.231 0.23 0.443 0.467 0.688 0.688 0.03 0.032 0.063 0.062 0.094 0.094 0.095 0.085 0.184 0.167 0.281 0.25 0.251 0.25 0.515 0.481 0.781 0.719 0.01 0.011 0.021 0.021 0.031 0.031 0.095 0.084 0.185 0.167 0.281 0.25 0.229 0.228 0.446 0.47 0.688 0.688 0.031 0.032 0.063 0.062 0.094 0.094 0.094 0.084 0.185 0.168 0.281 0.25 0.372 0.371 0.75 0.75 1.156 1.094 0.202 0.199 0.413 0.402 0.625 0.594 0.036 0.038 0.057 0.087 0.094 0.125 0.093 0.083 0.186 0.169 0.281 0.25 0.243 0.243 0.492 0.488 0.75 0.719 0.02 0.021 0.042 0.041 0.063 0.063 0.083 0.073 0.166 0.147 0.25 0.219 0.239 0.24 0.465 0.491 0.719 0.719 0.031 0.032 0.063 0.062 0.094 0.094 0.084 0.074 0.165 0.146 0.25 0.219 0.373 0.373 0.749 0.749 1.156 1.094 0.184 0.182 0.37 0.356 0.563 0.531 0.385 0.412 0.792 0.808 1.219 1.188 0.02 0.021 0.042 0.041 0.063 0.063 0.072 0.064 0.145 0.125 0.219 0.188 0.24 0.241 0.464 0.49 0.719 0.719 0.041 0.043 0.084 0.082 0.125 0.125 0.073 0.064 0.145 0.124 0.219 0.188 0.256 0.257 0.539 0.506 0.813 0.75 0.026 0.027 0.037 0.067 0.063 0.094 0.072 0.063 0.146 0.125 0.219 0.188 0.251 0.252 0.514 0.48 0.781 0.719 0.026 0.028 0.036 0.066 0.063 0.094 0.073 0.064 0.145 0.124 0.219 0.188 0.354 0.355 0.707 0.734 1.094 1.063 0.357 0.357 0.704 0.732 1.094 1.063 0.237 0.237 0.498 0.463 0.75 0.688 0.03 0.032 0.063 0.062 0.094 0.094 0.061 0.053 0.126 0.103 0.188 0.156 0.253 0.255 0.511 0.508 0.781 0.75 0.036 0.038 0.057 0.087 0.094 0.125 0.061 0.054 0.125 0.103 0.188 0.156 0.354 0.357 0.706 0.732 1.094 1.063 0.247 0.248 0.487 0.484 0.75 0.719 0.041 0.043 0.084 0.082 0.125 0.125 0.051 0.045 0.105 0.081 0.156 0.125 0.272 0.275 0.552 0.553 0.844 0.813 0.031 0.032 0.063 0.062 0.094 0.094 0.05 0.044 0.106 0.082 0.156 0.125 0.258 0.262 0.504 0.534 0.781 0.781 0.04 0.043 0.084 0.083 0.125 0.125 0.05 0.044 0.105 0.081 0.156 0.125 0.375 0.38 0.743 0.777 1.156 1.125 0.204 0.204 0.441 0.368 0.656 0.563 0.374 0.403 0.77 0.787 1.188 1.156 0.035 0.037 0.058 0.088 0.094 0.125 0.039 0.034 0.085 0.06 0.125 0.094 0.357 0.363 0.701 0.728 1.094 1.063 0.331 0.334 0.67 0.659 1.031 0.969 0.271 0.276 0.552 0.553 0.844 0.813 0.041 0.044 0.083 0.082 0.125 0.125 0.039 0.034 0.086 0.06 0.125 0.094 0.351 0.357 0.708 0.734 1.094 1.063l-13.06 11.969c-8.829 8.089-10.359 20.694-3.438 28.25 0.302 0.329 0.615 0.638 0.938 0.938 0.02 0.022 0.043 0.041 0.063 0.063 0.017 0.019 0.037 0.032 0.063 0.031 0.103 0.093 0.208 0.191 0.313 0.281 0.034 0.029 0.06 0.065 0.094 0.094 0.168 0.202 0.352 0.398 0.531 0.594 0.043 0.047 0.092 0.014 0.156 0 0.006 0.005 0.025-0.005 0.031 0 0.022 0.02 0.04 0.043 0.063 0.063 0.244 0.31 0.48 0.643 0.75 0.938 0.052 0.057 0.111 0.065 0.188 0.063 0.249 0.318 0.504 0.604 0.781 0.906 0.069 0.075 0.179 0.128 0.281 0.125 0.237 0.3 0.457 0.589 0.719 0.875 0.065 0.071 0.158 0.11 0.25 0.125 0.239 0.303 0.486 0.586 0.75 0.875 0.073 0.08 0.177 0.104 0.281 0.125 0.234 0.297 0.46 0.592 0.719 0.875 0.083 0.09 0.196 0.131 0.313 0.156 0.222 0.278 0.444 0.578 0.688 0.844 0.084 0.091 0.197 0.123 0.313 0.156 0.221 0.278 0.445 0.579 0.688 0.844 0.092 0.1 0.187 0.149 0.313 0.188 0.212 0.265 0.424 0.528 0.656 0.781 0.086 0.094 0.198 0.174 0.313 0.219 0.215 0.269 0.452 0.524 0.688 0.781 0.095 0.103 0.218 0.201 0.344 0.25 0.205 0.255 0.432 0.506 0.656 0.75 0.103 0.113 0.238 0.196 0.375 0.25 0.2 0.249 0.407 0.512 0.625 0.75 0.112 0.122 0.257 0.223 0.406 0.281 0.191 0.235 0.387 0.493 0.594 0.719 0.121 0.132 0.246 0.219 0.406 0.281 0.19 0.234 0.388 0.494 0.594 0.719 0.113 0.123 0.228 0.215 0.375 0.281 0.192 0.238 0.385 0.459 0.594 0.688 0.11 0.12 0.265 0.212 0.406 0.281 0.196 0.243 0.38 0.486 0.594 0.719 0.115 0.125 0.26 0.239 0.406 0.313 0.19 0.235 0.387 0.462 0.594 0.688 0.115 0.125 0.262 0.205 0.406 0.281 0.194 0.241 0.382 0.488 0.594 0.719 0.113 0.123 0.265 0.203 0.406 0.281 0.193 0.239 0.384 0.489 0.594 0.719 0.121 0.132 0.256 0.229 0.406 0.313 0.187 0.232 0.39 0.465 0.594 0.688 0.132 0.145 0.271 0.255 0.438 0.344 0.178 0.219 0.37 0.415 0.563 0.625 0.133 0.145 0.272 0.252 0.438 0.344 0.179 0.221 0.337 0.444 0.531 0.656 0.131 0.143 0.307 0.251 0.469 0.344 0.178 0.22 0.338 0.445 0.531 0.656 0.136 0.148 0.301 0.278 0.469 0.375 0.173 0.212 0.345 0.421 0.531 0.625 0.15 0.164 0.313 0.303 0.5 0.406 0.163 0.199 0.324 0.402 0.5 0.594 0.139 0.152 0.298 0.273 0.469 0.375 0.171 0.21 0.347 0.424 0.531 0.625 0.148 0.162 0.317 0.267 0.5 0.375 0.168 0.206 0.319 0.427 0.5 0.625 0.16 0.174 0.334 0.293 0.531 0.406 0.154 0.186 0.273 0.383 0.438 0.563 0.151 0.165 0.347 0.325 0.531 0.438 0.157 0.191 0.3 0.379 0.469 0.563 0.156 0.171 0.34 0.321 0.531 0.438 0.156 0.189 0.301 0.38 0.469 0.563 0.166 0.181 0.359 0.316 0.563 0.438 0.151 0.183 0.276 0.386 0.438 0.563 0.163 0.178 0.332 0.315 0.531 0.438 0.154 0.187 0.303 0.382 0.469 0.563 0.169 0.184 0.357 0.342 0.563 0.469 0.144 0.175 0.283 0.363 0.438 0.531 0.169 0.185 0.358 0.309 0.563 0.438 0.143 0.173 0.253 0.364 0.406 0.531 0.166 0.182 0.362 0.34 0.563 0.469 0.149 0.18 0.278 0.357 0.438 0.531 0.155 0.169 0.347 0.313 0.531 0.438 0.156 0.191 0.3 0.378 0.469 0.563 0.176 0.192 0.382 0.364 0.594 0.5 0.138 0.167 0.259 0.339 0.406 0.5 0.18 0.196 0.377 0.36 0.594 0.5 0.137 0.165 0.26 0.34 0.406 0.5 0.184 0.201 0.373 0.357 0.594 0.5 0.136 0.164 0.261 0.341 0.406 0.5 0.172 0.188 0.358 0.33 0.563 0.469 0.139 0.168 0.257 0.337 0.406 0.5 0.187 0.204 0.402 0.416 0.625 0.563 0.125 0.149 0.243 0.293 0.375 0.438 0.191 0.208 0.397 0.412 0.625 0.563 0.124 0.148 0.243 0.294 0.375 0.438 0.185 0.202 0.405 0.382 0.625 0.531 0.128 0.154 0.239 0.32 0.375 0.469 0.189 0.207 0.4 0.379 0.625 0.531 0.127 0.153 0.24 0.321 0.375 0.469 0.194 0.212 0.395 0.376 0.625 0.531 0.126 0.152 0.24 0.322 0.375 0.469 0.198 0.216 0.421 0.403 0.656 0.563 0.117 0.139 0.22 0.302 0.344 0.438 0.202 0.221 0.416 0.4 0.656 0.563 0.112 0.133 0.194 0.277 0.313 0.406 0.207 0.226 0.442 0.428 0.688 0.594 0.111 0.133 0.195 0.277 0.313 0.406 0.211 0.23 0.437 0.424 0.688 0.594 0.111 0.132 0.195 0.278 0.313 0.406 0.195 0.213 0.428 0.4 0.656 0.563 0.119 0.142 0.217 0.299 0.344 0.438 0.199 0.217 0.423 0.397 0.656 0.563 0.118 0.141 0.218 0.3 0.344 0.438 0.203 0.222 0.419 0.394 0.656 0.563 0.117 0.141 0.219 0.301 0.344 0.438 0.186 0.203 0.379 0.372 0.594 0.531 0.124 0.149 0.243 0.293 0.375 0.438 0.203 0.221 0.451 0.423 0.688 0.594 0.11 0.132 0.196 0.279 0.313 0.406 0.206 0.225 0.447 0.42 0.688 0.594 0.11 0.131 0.196 0.279 0.313 0.406 0.21 0.229 0.443 0.417 0.688 0.594 0.109 0.13 0.197 0.28 0.313 0.406 0.2 0.218 0.425 0.391 0.656 0.563 0.117 0.14 0.219 0.302 0.344 0.438 0.225 0.245 0.456 0.469 0.719 0.656 0.095 0.112 0.181 0.235 0.281 0.344 0.224 0.245 0.457 0.437 0.719 0.625 0.093 0.11 0.152 0.237 0.25 0.344 0.214 0.234 0.471 0.442 0.719 0.625 0.102 0.121 0.174 0.258 0.281 0.375 0.199 0.218 0.428 0.42 0.656 0.594 0.116 0.139 0.22 0.271 0.344 0.406 0.203 0.221 0.424 0.417 0.656 0.594 0.115 0.138 0.221 0.272 0.344 0.406 0.201 0.219 0.427 0.417 0.656 0.594 0.114 0.137 0.222 0.273 0.344 0.406 0.204 0.223 0.423 0.415 0.656 0.594 0.113 0.136 0.223 0.274 0.344 0.406 0.207 0.226 0.42 0.412 0.656 0.594 0.112 0.135 0.224 0.275 0.344 0.406 0.21 0.229 0.416 0.409 0.656 0.594 0.106 0.127 0.199 0.252 0.313 0.375 0.209 0.228 0.45 0.441 0.688 0.625 0.106 0.126 0.2 0.252 0.313 0.375 0.22 0.24 0.468 0.464 0.719 0.656 0.096 0.114 0.18 0.233 0.281 0.344 0.223 0.243 0.464 0.461 0.719 0.656 0.095 0.113 0.181 0.234 0.281 0.344 0.219 0.239 0.469 0.432 0.719 0.625 0.099 0.119 0.176 0.26 0.281 0.375 0.234 0.256 0.481 0.483 0.75 0.688 0.085 0.1 0.161 0.215 0.25 0.313 0.227 0.248 0.459 0.456 0.719 0.656 0.087 0.103 0.158 0.212 0.25 0.313 0.231 0.252 0.487 0.485 0.75 0.688 0.086 0.102 0.159 0.213 0.25 0.313 0.221 0.241 0.468 0.459 0.719 0.656 0.096 0.115 0.179 0.232 0.281 0.344 0.224 0.245 0.465 0.457 0.719 0.656 0.096 0.114 0.18 0.233 0.281 0.344 0.235 0.257 0.482 0.479 0.75 0.688 0.086 0.102 0.159 0.213 0.25 0.313 0.226 0.247 0.463 0.454 0.719 0.656 0.094 0.112 0.181 0.235 0.281 0.344 0.215 0.235 0.446 0.43 0.688 0.625 0.097 0.116 0.178 0.231 0.281 0.344 0.218 0.238 0.474 0.459 0.719 0.656 0.096 0.115 0.179 0.232 0.281 0.344 0.218 0.238 0.474 0.458 0.719 0.656 0.095 0.114 0.18 0.233 0.281 0.344 0.22 0.241 0.471 0.456 0.719 0.656 0.094 0.113 0.181 0.234 0.281 0.344 0.223 0.244 0.468 0.453 0.719 0.656 0.094 0.112 0.182 0.235 0.281 0.344 0.226 0.247 0.465 0.451 0.719 0.656 0.093 0.111 0.182 0.236 0.281 0.344 0.226 0.247 0.465 0.45 0.719 0.656 0.092 0.11 0.183 0.237 0.281 0.344 0.229 0.25 0.462 0.448 0.719 0.656 0.086 0.102 0.159 0.213 0.25 0.313 0.231 0.253 0.49 0.477 0.75 0.688 0.085 0.101 0.16 0.214 0.25 0.313 0.234 0.255 0.488 0.506 0.75 0.719 0.081 0.097 0.164 0.187 0.25 0.281 0.236 0.258 0.485 0.503 0.75 0.719 0.081 0.096 0.165 0.188 0.25 0.281 0.248 0.271 0.502 0.525 0.781 0.75 0.072 0.085 0.143 0.167 0.219 0.25 0.245 0.267 0.506 0.496 0.781 0.719 0.077 0.091 0.138 0.193 0.219 0.281 0.248 0.27 0.503 0.493 0.781 0.719 0.07 0.082 0.114 0.17 0.188 0.25 0.25 0.273 0.531 0.522 0.813 0.75 0.069 0.081 0.115 0.171 0.188 0.25 0.256 0.28 0.524 0.549 0.813 0.781 0.063 0.074 0.121 0.146 0.188 0.219 0.253 0.277 0.528 0.519 0.813 0.75 0.068 0.08 0.116 0.172 0.188 0.25 0.241 0.263 0.512 0.496 0.781 0.719 0.076 0.09 0.138 0.193 0.219 0.281 7.147 0.704 14.387 1.094 21.719 1.094 117.76 0 213.78-93.01 218.69-209.56-0.147-0.145-0.291-0.293-0.438-0.438-0.066-0.07-0.121-0.149-0.188-0.219-0.084-0.082-0.166-0.169-0.25-0.25-0.18-0.185-0.38-0.35-0.563-0.531-0.066-0.07-0.121-0.149-0.188-0.219-0.084-0.082-0.166-0.169-0.25-0.25-0.18-0.185-0.38-0.35-0.563-0.531-0.066-0.07-0.121-0.149-0.188-0.219-0.112-0.109-0.231-0.205-0.344-0.313-0.154-0.158-0.312-0.314-0.469-0.469-0.066-0.07-0.121-0.149-0.188-0.219-0.112-0.109-0.231-0.205-0.344-0.313-0.149-0.153-0.286-0.319-0.438-0.469-0.071-0.075-0.147-0.144-0.219-0.219-0.032-0.032-0.061-0.062-0.094-0.094-0.22-0.229-0.463-0.434-0.688-0.656-0.041-0.043-0.084-0.082-0.125-0.125-0.031-0.031-0.062-0.063-0.094-0.094-0.255-0.267-0.52-0.523-0.781-0.781-0.066-0.07-0.121-0.149-0.188-0.219-0.084-0.082-0.166-0.169-0.25-0.25-0.18-0.185-0.38-0.35-0.563-0.531-0.066-0.07-0.121-0.149-0.188-0.219-0.084-0.082-0.166-0.169-0.25-0.25-0.18-0.185-0.38-0.35-0.563-0.531-0.066-0.07-0.121-0.149-0.188-0.219-0.112-0.109-0.231-0.205-0.344-0.313-0.154-0.158-0.312-0.314-0.469-0.469-0.066-0.07-0.121-0.149-0.188-0.219-0.112-0.109-0.231-0.205-0.344-0.313-0.149-0.153-0.286-0.319-0.438-0.469-0.071-0.075-0.147-0.144-0.219-0.219-0.038-0.037-0.087-0.057-0.125-0.094-0.215-0.223-0.437-0.439-0.656-0.656-0.324-0.345-0.666-0.669-1-1-0.066-0.07-0.121-0.149-0.188-0.219-0.084-0.082-0.166-0.169-0.25-0.25-0.18-0.185-0.38-0.35-0.563-0.531-0.066-0.07-0.121-0.149-0.188-0.219-0.084-0.082-0.166-0.169-0.25-0.25-0.18-0.185-0.38-0.35-0.563-0.531-0.066-0.07-0.121-0.149-0.188-0.219-0.084-0.082-0.166-0.169-0.25-0.25-0.18-0.185-0.38-0.35-0.563-0.531-0.066-0.07-0.121-0.149-0.188-0.219-0.112-0.109-0.231-0.205-0.344-0.313-0.154-0.158-0.312-0.314-0.469-0.469-0.067-0.071-0.12-0.148-0.188-0.219-0.135-0.132-0.27-0.246-0.406-0.375-0.125-0.128-0.248-0.249-0.375-0.375-0.32-0.34-0.671-0.673-1-1-0.324-0.345-0.666-0.669-1-1-0.066-0.07-0.121-0.149-0.188-0.219-0.084-0.082-0.166-0.169-0.25-0.25-0.18-0.185-0.38-0.35-0.563-0.531-0.066-0.07-0.121-0.149-0.188-0.219-0.084-0.082-0.166-0.169-0.25-0.25-0.18-0.185-0.38-0.35-0.563-0.531-0.066-0.07-0.121-0.149-0.188-0.219-0.112-0.109-0.231-0.205-0.344-0.313-0.154-0.158-0.312-0.314-0.469-0.469-0.066-0.07-0.121-0.149-0.188-0.219-0.112-0.109-0.231-0.205-0.344-0.313-0.149-0.153-0.286-0.319-0.438-0.469-0.071-0.075-0.147-0.144-0.219-0.219-0.038-0.037-0.087-0.057-0.125-0.094-0.215-0.223-0.437-0.439-0.656-0.656-0.324-0.345-0.666-0.669-1-1-0.066-0.07-0.121-0.149-0.188-0.219-0.084-0.082-0.166-0.169-0.25-0.25-0.18-0.185-0.38-0.35-0.563-0.531-0.066-0.07-0.121-0.149-0.188-0.219-0.084-0.082-0.166-0.169-0.25-0.25-0.18-0.185-0.38-0.35-0.563-0.531-0.066-0.07-0.121-0.149-0.188-0.219-0.112-0.109-0.231-0.205-0.344-0.313-0.154-0.158-0.312-0.314-0.469-0.469-0.066-0.07-0.121-0.149-0.188-0.219-0.112-0.109-0.231-0.205-0.344-0.313-0.149-0.153-0.286-0.319-0.438-0.469-0.071-0.075-0.147-0.144-0.219-0.219-0.032-0.032-0.061-0.062-0.094-0.094-0.22-0.229-0.463-0.434-0.688-0.656-0.041-0.043-0.084-0.082-0.125-0.125-0.031-0.031-0.062-0.063-0.094-0.094-0.255-0.267-0.52-0.523-0.781-0.781-0.066-0.07-0.121-0.149-0.188-0.219-0.084-0.082-0.166-0.169-0.25-0.25-0.18-0.185-0.38-0.35-0.563-0.531-0.066-0.07-0.121-0.149-0.188-0.219-0.084-0.082-0.166-0.169-0.25-0.25-0.18-0.185-0.38-0.35-0.563-0.531-0.066-0.07-0.121-0.149-0.188-0.219-0.084-0.082-0.166-0.169-0.25-0.25-0.18-0.185-0.38-0.35-0.563-0.531-0.066-0.07-0.121-0.149-0.188-0.219-0.112-0.109-0.231-0.205-0.344-0.313-0.154-0.158-0.312-0.314-0.469-0.469-0.067-0.071-0.12-0.148-0.188-0.219-0.26-0.254-0.515-0.504-0.781-0.75-0.07-0.074-0.148-0.145-0.219-0.219-0.069-0.068-0.149-0.121-0.219-0.188-0.187-0.194-0.372-0.405-0.563-0.594-0.324-0.345-0.666-0.669-1-1-0.066-0.07-0.121-0.149-0.188-0.219-0.084-0.082-0.166-0.169-0.25-0.25-0.18-0.185-0.38-0.35-0.563-0.531-0.066-0.07-0.121-0.149-0.188-0.219-0.084-0.082-0.166-0.169-0.25-0.25-0.18-0.185-0.38-0.35-0.563-0.531-0.066-0.07-0.121-0.149-0.188-0.219-0.112-0.109-0.231-0.205-0.344-0.313-0.154-0.158-0.312-0.314-0.469-0.469-0.067-0.071-0.12-0.148-0.188-0.219-0.26-0.254-0.515-0.504-0.781-0.75-0.07-0.074-0.148-0.145-0.219-0.219-0.069-0.068-0.149-0.121-0.219-0.188-0.187-0.194-0.372-0.405-0.563-0.594-0.324-0.345-0.666-0.669-1-1-0.066-0.07-0.121-0.149-0.188-0.219-0.084-0.082-0.166-0.169-0.25-0.25-0.18-0.185-0.38-0.35-0.563-0.531-0.066-0.07-0.121-0.149-0.188-0.219-0.084-0.082-0.166-0.169-0.25-0.25-0.18-0.185-0.38-0.35-0.563-0.531-0.066-0.07-0.121-0.149-0.188-0.219-0.112-0.109-0.231-0.205-0.344-0.313-0.154-0.158-0.312-0.314-0.469-0.469-0.066-0.07-0.121-0.149-0.188-0.219-0.112-0.109-0.231-0.205-0.344-0.313-0.149-0.153-0.286-0.319-0.438-0.469-0.071-0.075-0.147-0.144-0.219-0.219-0.038-0.037-0.087-0.057-0.125-0.094-0.215-0.223-0.437-0.439-0.656-0.656-0.324-0.345-0.666-0.669-1-1-0.066-0.07-0.121-0.149-0.188-0.219-0.084-0.082-0.166-0.169-0.25-0.25-0.18-0.185-0.38-0.35-0.563-0.531-0.066-0.07-0.121-0.149-0.188-0.219-0.084-0.082-0.166-0.169-0.25-0.25-0.18-0.185-0.38-0.35-0.563-0.531-0.066-0.07-0.121-0.149-0.188-0.219-0.084-0.082-0.166-0.169-0.25-0.25-0.18-0.185-0.38-0.35-0.563-0.531-0.066-0.07-0.121-0.149-0.188-0.219-0.112-0.109-0.231-0.205-0.344-0.313-0.154-0.158-0.312-0.314-0.469-0.469-0.067-0.071-0.12-0.148-0.188-0.219-0.135-0.132-0.27-0.246-0.406-0.375-0.125-0.128-0.248-0.249-0.375-0.375-0.324-0.345-0.666-0.669-1-1-0.066-0.07-0.121-0.149-0.188-0.219-0.084-0.082-0.166-0.169-0.25-0.25-0.18-0.185-0.38-0.35-0.563-0.531-0.066-0.07-0.121-0.149-0.188-0.219-0.084-0.082-0.166-0.169-0.25-0.25-0.18-0.185-0.38-0.35-0.563-0.531-0.066-0.07-0.121-0.149-0.188-0.219-0.084-0.082-0.166-0.169-0.25-0.25-0.18-0.185-0.38-0.35-0.563-0.531-0.066-0.07-0.121-0.149-0.188-0.219-0.112-0.109-0.231-0.205-0.344-0.313-0.154-0.158-0.312-0.314-0.469-0.469-0.067-0.071-0.12-0.148-0.188-0.219-0.26-0.254-0.515-0.504-0.781-0.75-0.07-0.074-0.148-0.145-0.219-0.219-0.069-0.068-0.149-0.121-0.219-0.188-0.187-0.194-0.372-0.405-0.563-0.594-0.324-0.345-0.666-0.669-1-1-0.066-0.07-0.121-0.149-0.188-0.219-0.084-0.082-0.166-0.169-0.25-0.25-0.18-0.185-0.38-0.35-0.563-0.531-0.066-0.07-0.121-0.149-0.188-0.219-0.084-0.082-0.166-0.169-0.25-0.25-0.18-0.185-0.38-0.35-0.563-0.531-0.066-0.07-0.121-0.149-0.188-0.219-0.112-0.109-0.231-0.205-0.344-0.313-0.154-0.158-0.312-0.314-0.469-0.469-0.066-0.07-0.121-0.149-0.188-0.219-0.112-0.109-0.231-0.205-0.344-0.313-0.144-0.148-0.292-0.293-0.438-0.438-0.075-0.08-0.143-0.171-0.219-0.25-0.135-0.132-0.27-0.246-0.406-0.375-0.122-0.124-0.251-0.252-0.375-0.375-0.324-0.345-0.666-0.669-1-1-0.066-0.07-0.121-0.149-0.188-0.219-0.084-0.082-0.166-0.169-0.25-0.25-0.18-0.185-0.38-0.35-0.563-0.531-0.066-0.07-0.121-0.149-0.188-0.219-0.084-0.082-0.166-0.169-0.25-0.25-0.18-0.185-0.38-0.35-0.563-0.531-0.066-0.07-0.121-0.149-0.188-0.219-0.084-0.082-0.166-0.169-0.25-0.25-0.18-0.185-0.38-0.35-0.563-0.531-0.066-0.07-0.121-0.149-0.188-0.219-0.112-0.109-0.231-0.205-0.344-0.313-0.149-0.153-0.286-0.319-0.438-0.469-0.071-0.075-0.147-0.144-0.219-0.219-0.038-0.037-0.087-0.057-0.125-0.094-0.215-0.223-0.437-0.439-0.656-0.656-0.324-0.345-0.666-0.669-1-1-0.066-0.07-0.121-0.149-0.188-0.219-0.084-0.082-0.166-0.169-0.25-0.25-0.18-0.185-0.38-0.35-0.563-0.531-0.066-0.07-0.121-0.149-0.188-0.219-0.084-0.082-0.166-0.169-0.25-0.25-0.18-0.185-0.38-0.35-0.563-0.531-0.066-0.07-0.121-0.149-0.188-0.219-0.084-0.082-0.166-0.169-0.25-0.25-0.18-0.185-0.38-0.35-0.563-0.531-0.066-0.07-0.121-0.149-0.188-0.219-0.112-0.109-0.231-0.205-0.344-0.313-0.154-0.158-0.312-0.314-0.469-0.469-0.067-0.071-0.12-0.148-0.188-0.219-0.135-0.132-0.27-0.246-0.406-0.375-0.125-0.128-0.248-0.249-0.375-0.375-0.32-0.34-0.671-0.673-1-1-0.324-0.345-0.666-0.669-1-1-0.066-0.07-0.121-0.149-0.188-0.219-0.084-0.082-0.166-0.169-0.25-0.25-0.18-0.185-0.38-0.35-0.563-0.531-0.066-0.07-0.121-0.149-0.188-0.219-0.084-0.082-0.166-0.169-0.25-0.25-0.18-0.185-0.38-0.35-0.563-0.531-0.066-0.07-0.121-0.149-0.188-0.219-0.112-0.109-0.231-0.205-0.344-0.313-0.154-0.158-0.312-0.314-0.469-0.469-0.067-0.071-0.12-0.148-0.188-0.219-0.26-0.254-0.515-0.504-0.781-0.75-0.07-0.074-0.148-0.145-0.219-0.219-0.069-0.068-0.149-0.121-0.219-0.188-0.187-0.194-0.372-0.405-0.563-0.594-0.324-0.345-0.666-0.669-1-1-0.066-0.07-0.121-0.149-0.188-0.219-0.084-0.082-0.166-0.169-0.25-0.25-0.18-0.185-0.38-0.35-0.563-0.531-0.066-0.07-0.121-0.149-0.188-0.219-0.084-0.082-0.166-0.169-0.25-0.25-0.18-0.185-0.38-0.35-0.563-0.531-0.066-0.07-0.121-0.149-0.188-0.219-0.112-0.109-0.231-0.205-0.344-0.313-0.154-0.158-0.312-0.314-0.469-0.469-0.066-0.07-0.121-0.149-0.188-0.219-0.112-0.109-0.231-0.205-0.344-0.313-0.149-0.153-0.286-0.319-0.438-0.469-0.071-0.075-0.147-0.144-0.219-0.219-0.032-0.032-0.061-0.062-0.094-0.094-0.22-0.229-0.463-0.434-0.688-0.656-0.041-0.043-0.084-0.082-0.125-0.125-0.031-0.031-0.062-0.063-0.094-0.094-0.255-0.267-0.52-0.523-0.781-0.781-0.066-0.07-0.121-0.149-0.188-0.219-0.084-0.082-0.166-0.169-0.25-0.25-0.18-0.185-0.38-0.35-0.563-0.531-0.066-0.07-0.121-0.149-0.188-0.219-0.084-0.082-0.166-0.169-0.25-0.25-0.18-0.185-0.38-0.35-0.563-0.531-0.066-0.07-0.121-0.149-0.188-0.219-0.084-0.082-0.166-0.169-0.25-0.25-0.18-0.185-0.38-0.35-0.563-0.531-0.066-0.07-0.121-0.149-0.188-0.219-0.112-0.109-0.231-0.205-0.344-0.313-0.154-0.158-0.312-0.314-0.469-0.469-0.067-0.071-0.12-0.148-0.188-0.219-0.135-0.132-0.27-0.246-0.406-0.375-0.125-0.128-0.248-0.249-0.375-0.375-0.32-0.34-0.671-0.673-1-1-0.324-0.345-0.666-0.669-1-1-0.066-0.07-0.121-0.149-0.188-0.219-0.084-0.082-0.166-0.169-0.25-0.25-0.18-0.185-0.38-0.35-0.563-0.531-0.066-0.07-0.121-0.149-0.188-0.219-0.084-0.082-0.166-0.169-0.25-0.25-0.18-0.185-0.38-0.35-0.563-0.531-0.066-0.07-0.121-0.149-0.188-0.219-0.112-0.109-0.231-0.205-0.344-0.313-0.154-0.158-0.312-0.314-0.469-0.469-0.066-0.07-0.121-0.149-0.188-0.219-0.112-0.109-0.231-0.205-0.344-0.313-0.144-0.148-0.292-0.293-0.438-0.438-0.075-0.08-0.143-0.171-0.219-0.25-0.135-0.132-0.27-0.246-0.406-0.375-0.122-0.124-0.251-0.252-0.375-0.375-0.324-0.345-0.666-0.669-1-1-0.066-0.07-0.121-0.149-0.188-0.219-0.084-0.082-0.166-0.169-0.25-0.25-0.18-0.185-0.38-0.35-0.563-0.531-0.066-0.07-0.121-0.149-0.188-0.219-0.084-0.082-0.166-0.169-0.25-0.25-0.18-0.185-0.38-0.35-0.563-0.531-0.066-0.07-0.121-0.149-0.188-0.219-0.112-0.109-0.231-0.205-0.344-0.313-0.154-0.158-0.312-0.314-0.469-0.469-0.066-0.07-0.121-0.149-0.188-0.219-0.112-0.109-0.231-0.205-0.344-0.313-0.149-0.153-0.286-0.319-0.438-0.469-0.071-0.075-0.147-0.144-0.219-0.219-0.038-0.037-0.087-0.057-0.125-0.094-0.215-0.223-0.437-0.439-0.656-0.656-0.324-0.345-0.666-0.669-1-1-0.066-0.07-0.121-0.149-0.188-0.219-0.084-0.082-0.166-0.169-0.25-0.25-0.18-0.185-0.38-0.35-0.563-0.531-0.066-0.07-0.121-0.149-0.188-0.219-0.084-0.082-0.166-0.169-0.25-0.25-0.18-0.185-0.38-0.35-0.563-0.531-0.066-0.07-0.121-0.149-0.188-0.219-0.084-0.082-0.166-0.169-0.25-0.25-0.18-0.185-0.38-0.35-0.563-0.531-0.066-0.07-0.121-0.149-0.188-0.219-0.112-0.109-0.231-0.205-0.344-0.313-0.154-0.158-0.312-0.314-0.469-0.469-0.067-0.071-0.12-0.148-0.188-0.219-0.135-0.132-0.27-0.246-0.406-0.375-0.125-0.128-0.248-0.249-0.375-0.375-0.324-0.345-0.666-0.669-1-1-0.066-0.07-0.121-0.149-0.188-0.219-0.084-0.082-0.166-0.169-0.25-0.25-0.18-0.185-0.38-0.35-0.563-0.531-0.066-0.07-0.121-0.149-0.188-0.219-0.084-0.082-0.166-0.169-0.25-0.25-0.18-0.185-0.38-0.35-0.563-0.531-0.066-0.07-0.121-0.149-0.188-0.219-0.084-0.082-0.166-0.169-0.25-0.25-0.18-0.185-0.38-0.35-0.563-0.531-0.066-0.07-0.121-0.149-0.188-0.219-0.112-0.109-0.231-0.205-0.344-0.313-0.154-0.158-0.312-0.314-0.469-0.469-0.067-0.071-0.12-0.148-0.188-0.219-0.135-0.132-0.27-0.246-0.406-0.375-0.125-0.128-0.248-0.249-0.375-0.375-0.32-0.34-0.671-0.673-1-1-0.324-0.345-0.666-0.669-1-1-0.066-0.07-0.121-0.149-0.188-0.219-0.084-0.082-0.166-0.169-0.25-0.25-0.18-0.185-0.38-0.35-0.563-0.531-0.066-0.07-0.121-0.149-0.188-0.219-0.084-0.082-0.166-0.169-0.25-0.25-0.18-0.185-0.38-0.35-0.563-0.531-0.066-0.07-0.121-0.149-0.188-0.219-0.112-0.109-0.231-0.205-0.344-0.313-0.154-0.158-0.312-0.314-0.469-0.469-0.066-0.07-0.121-0.149-0.188-0.219-0.112-0.109-0.231-0.205-0.344-0.313-0.144-0.148-0.292-0.293-0.438-0.438-0.075-0.08-0.143-0.171-0.219-0.25-0.135-0.132-0.27-0.246-0.406-0.375-0.122-0.124-0.251-0.252-0.375-0.375-0.324-0.345-0.666-0.669-1-1-0.066-0.07-0.121-0.149-0.188-0.219-0.084-0.082-0.166-0.169-0.25-0.25-0.18-0.185-0.38-0.35-0.563-0.531-0.066-0.07-0.121-0.149-0.188-0.219-0.084-0.082-0.166-0.169-0.25-0.25-0.18-0.185-0.38-0.35-0.563-0.531-0.066-0.07-0.121-0.149-0.188-0.219-0.112-0.109-0.231-0.205-0.344-0.313-0.154-0.158-0.312-0.314-0.469-0.469-0.066-0.07-0.121-0.149-0.188-0.219-0.112-0.109-0.231-0.205-0.344-0.313-0.149-0.153-0.286-0.319-0.438-0.469-0.071-0.075-0.147-0.144-0.219-0.219-0.038-0.037-0.087-0.057-0.125-0.094-0.215-0.223-0.437-0.439-0.656-0.656-0.071-0.075-0.147-0.144-0.219-0.219-6.608-6.916-15.17-10.997-24.16-11.188-0.266-0.006-0.515-0.001-0.781 0-8.294 0.054-16.692 3.637-23 10.531-5.831 6.374-9.956 15.339-11.875 26.75-6.183-1.342-12.699-2.063-19.438-2.063-1.718 0-3.408 0.062-5.094 0.156-0.24-0.241-0.474-0.487-0.719-0.719-0.087-0.09-0.193-0.161-0.281-0.25-0.085-0.093-0.164-0.189-0.25-0.281-0.111-0.11-0.231-0.205-0.344-0.313-0.133-0.139-0.271-0.271-0.406-0.406-0.085-0.093-0.164-0.189-0.25-0.281-0.111-0.11-0.231-0.205-0.344-0.313-0.133-0.139-0.271-0.271-0.406-0.406-0.087-0.095-0.163-0.188-0.25-0.281-0.064-0.063-0.124-0.126-0.188-0.188-0.391-0.411-0.782-0.801-1.188-1.188-0.307-0.318-0.622-0.635-0.938-0.938-0.368-0.383-0.744-0.764-1.125-1.125-0.087-0.09-0.193-0.161-0.281-0.25-0.085-0.093-0.164-0.189-0.25-0.281-0.111-0.11-0.231-0.205-0.344-0.313-0.133-0.139-0.271-0.271-0.406-0.406-0.085-0.093-0.164-0.189-0.25-0.281-0.111-0.11-0.231-0.205-0.344-0.313-0.133-0.139-0.271-0.271-0.406-0.406-0.087-0.095-0.163-0.188-0.25-0.281-0.064-0.063-0.124-0.126-0.188-0.188-0.391-0.411-0.782-0.801-1.188-1.188-0.326-0.338-0.664-0.679-1-1-0.349-0.361-0.702-0.721-1.063-1.063-0.087-0.09-0.193-0.161-0.281-0.25-0.085-0.093-0.164-0.189-0.25-0.281-0.111-0.11-0.231-0.205-0.344-0.313-0.133-0.139-0.271-0.271-0.406-0.406-0.085-0.093-0.164-0.189-0.25-0.281-0.111-0.11-0.231-0.205-0.344-0.313-0.133-0.139-0.271-0.271-0.406-0.406-0.087-0.095-0.163-0.188-0.25-0.281-0.064-0.063-0.124-0.126-0.188-0.188-0.391-0.411-0.782-0.801-1.188-1.188-0.326-0.338-0.664-0.679-1-1-0.307-0.318-0.622-0.635-0.938-0.938-0.402-0.418-0.802-0.827-1.219-1.219-0.057-0.058-0.13-0.099-0.188-0.156-0.085-0.093-0.164-0.189-0.25-0.281-0.111-0.11-0.231-0.205-0.344-0.313-0.133-0.139-0.271-0.271-0.406-0.406-0.085-0.093-0.164-0.189-0.25-0.281-0.111-0.11-0.231-0.205-0.344-0.313-0.128-0.133-0.245-0.276-0.375-0.406-0.533-0.582-1.095-1.121-1.656-1.656-0.307-0.318-0.622-0.635-0.938-0.938-0.402-0.418-0.802-0.827-1.219-1.219-6.417-6.549-14.796-9.861-23-9.688" id="path8" color="#000000"/>
  <g fill-rule="evenodd" id="g10">
   <path d="m256 541.36c-140.83 0-255 114.17-255 255s114.17 255 255 255 255-114.17 255-255-114.17-255-255-255m8.827 44.931c120.9 0 218.9 98 218.9 218.9s-98 218.9-218.9 218.9-218.93-98-218.93-218.9 98.03-218.9 218.93-218.9" fill-opacity="0.067" id="path12"/>
   <g fill-opacity="0.129" id="g14">
    <path d="m256 544.79c-138.94 0-251.57 112.63-251.57 251.57s112.63 251.54 251.57 251.54 251.57-112.6 251.57-251.54-112.63-251.57-251.57-251.57m5.885 38.556c120.9 0 218.9 98 218.9 218.9s-98 218.9-218.9 218.9-218.93-98-218.93-218.9 98.03-218.9 218.93-218.9" id="path16"/>
    <path d="m256 548.72c-136.77 0-247.64 110.87-247.64 247.64s110.87 247.64 247.64 247.64 247.64-110.87 247.64-247.64-110.87-247.64-247.64-247.64m2.942 31.691c120.9 0 218.9 98 218.9 218.9s-98 218.9-218.9 218.9-218.93-98-218.93-218.9 98.03-218.9 218.93-218.9" id="path18"/>
   </g>
   <path fill="#ffffff" stroke-width="4.904" stroke="#000000" stroke-opacity="0.31" d="m253.04 548.22c-135.42 0-245.19 109.78-245.19 245.19 0 135.42 109.78 245.19 245.19 245.19 135.42 0 245.19-109.78 245.19-245.19 0-135.42-109.78-245.19-245.19-245.19zm0 26.297c120.9 0 218.9 98 218.9 218.9s-98 218.9-218.9 218.9-218.93-98-218.93-218.9 98.03-218.9 218.93-218.9z" id="path20"/>
  </g>
  <g fill="#ffffff" transform="matrix(.30982 0 0 .30982 -267.21 415.11)" id="g22">
   <path transform="translate(0,540.36)" d="m1862.4 232.69c-26.774 0.171-53.856 11.778-74.22 34.03-18.825 20.573-32.09 49.51-38.28 86.34-19.959-4.332-40.997-6.656-62.75-6.656-20.266 0-39.924 2.035-58.656 5.813-6.252-36.442-19.44-65.08-38.12-85.5-21.02-22.972-49.2-34.585-76.81-34-55.22 1.17-105.29 47.582-116.78 116.59a25.002 25.002 0 1 0 49.313 8.2188c8.304-49.864 41.16-74.26 68.53-74.844 13.687-0.29 26.709 4.485 38.875 17.781 11.534 12.605 22.09 33.773 26.688 66.16-73.902 29.794-124.34 89.49-124.34 158.28 0 98.57 103.56 178.47 231.31 178.47s231.31-79.895 231.31-178.47c0-67.52-48.609-126.27-120.28-156.59 4.473-33.31 15.15-54.996 26.875-67.813 12.166-13.296 25.19-18.07 38.875-17.781 27.374 0.58 60.23 24.949 68.53 74.81a25.012 25.012 0 0 0 49.344 -8.2188c-11.493-69.01-61.59-115.42-116.81-116.59-0.863-0.018-1.73-0.037-2.594-0.031" id="path24" color="#000000"/>
   <path d="m2031.7 1051.9c-23.904-0.142-48.35 15.291-61.31 41.22l-34.31 68.66c-0.209-0.096-0.415-0.186-0.625-0.281-46.87 85.62-125.15 104.89-216.16 119.19v406.09c86.57 10.14 168.14-37.831 227.41-109.16l38.31 35.09c28.5 26.11 69.44 27.485 91.78 3.094 22.343-24.391 17.376-65.05-11.125-91.16l-55.56-50.906c10.24-23.855 18.14-48.35 23.312-72.72h48.03c38.65 0 69.75-26.641 69.75-59.719 0-33.08-31.1-59.719-69.75-59.719h-47.19c-2.461-10.28-5.706-20.223-9.719-29.781l52.656-105.28c17.284-34.57 7.367-74.3-22.22-89.09-7.397-3.698-15.313-5.484-23.281-5.531" id="path26"/>
   <path d="m1345.8 1051.9c23.904-0.142 48.35 15.291 61.31 41.22l34.31 68.66c0.209-0.096 0.415-0.186 0.625-0.281 46.87 85.62 125.15 104.89 216.16 119.19v406.09c-86.57 10.14-168.14-37.831-227.41-109.16l-38.31 35.09c-28.5 26.11-69.44 27.485-91.78 3.094-22.343-24.391-17.376-65.05 11.125-91.16l55.56-50.906c-10.24-23.855-18.14-48.35-23.312-72.72h-48.03c-38.65 0-69.75-26.641-69.75-59.719 0-33.08 31.1-59.719 69.75-59.719h47.19c2.461-10.28 5.706-20.223 9.719-29.781l-52.656-105.28c-17.284-34.57-7.367-74.3 22.22-89.09 7.397-3.698 15.313-5.484 23.281-5.531" id="path28"/>
  </g>
 </g>
</svg>
