<?xml version="1.0" encoding="UTF-8" standalone="no"?>
<svg xmlns="http://www.w3.org/2000/svg" xmlns:sodipodi="http://sodipodi.sourceforge.net/DTD/sodipodi-0.dtd" xmlns:inkscape="http://www.inkscape.org/namespaces/inkscape" height="512" viewBox="0 0 512 512" width="512" version="1.1">
 <metadata id="metadata90"/>
 <g transform="translate(0,-540.36)" id="g4">
  <text font-family="Gentium Book Basic" x="-1160.48" y="1089.88" line-height="125%" font-size="208.33" id="text6" word-spacing="0" letter-spacing="0"><tspan x="-1160.48" y="1089.88" id="tspan8"/>
  </text>
  <text font-family="Arial" x="28.534" y="3810.63" transform="scale(4.0128 .2492)" font-size="75.7" id="text10" text-anchor="middle"/>
  <path fill="#c4c4c4" fill-rule="evenodd" d="m471.95 793.41c0 120.9-98.01 218.9-218.9 218.9-120.9 0-218.9-98.01-218.9-218.9 0-120.9 98.01-218.9 218.9-218.9 120.9 0 218.9 98.01 218.9 218.9" id="path12"/>
  <path transform="translate(0,540.36)" fill-opacity="0.235" d="m271.56 79.78c-4.55-0.057-10.01 1.552-16.469 5.281-37.817 21.834-30.406 70.1-12.313 87.84 0.01 0.011 0.021 0.021 0.031 0.031 0.053 0.052 0.103 0.105 0.156 0.156 0.397 0.416 0.811 0.802 1.219 1.188 0.328 0.338 0.665 0.682 1 1 0.354 0.365 0.7 0.752 1.063 1.094 0.232 0.238 0.483 0.46 0.719 0.688 0.328 0.344 0.665 0.676 1 1 0.26 0.273 0.517 0.522 0.781 0.781 0.015 0.016 0.016 0.046 0.031 0.063 0.053 0.052 0.103 0.105 0.156 0.156 0.328 0.344 0.665 0.676 1 1 0.397 0.416 0.811 0.802 1.219 1.188 0.355 0.366 0.73 0.721 1.094 1.063 0.144 0.148 0.292 0.294 0.438 0.438 0.035 0.037 0.059 0.088 0.094 0.125 0.052 0.051 0.104 0.106 0.156 0.156 0.328 0.344 0.665 0.676 1 1 0.41 0.431 0.797 0.852 1.219 1.25 0.251 0.258 0.495 0.504 0.75 0.75 0.397 0.416 0.811 0.802 1.219 1.188 0.354 0.365 0.7 0.752 1.063 1.094 0.232 0.238 0.483 0.46 0.719 0.688 0.328 0.344 0.665 0.676 1 1 0.328 0.344 0.665 0.676 1 1 0.26 0.273 0.517 0.522 0.781 0.781 0.015 0.016 0.016 0.046 0.031 0.063 0.053 0.052 0.103 0.105 0.156 0.156 0.397 0.416 0.811 0.802 1.219 1.188 0.318 0.327 0.644 0.661 0.969 0.969 0.229 0.236 0.455 0.492 0.688 0.719-3.848 1.114-7.767 2.636-11.781 4.406-0.071-0.069-0.148-0.121-0.219-0.188-0.175-0.191-0.352-0.383-0.531-0.563-0.065-0.074-0.122-0.146-0.188-0.219-0.059-0.057-0.129-0.101-0.188-0.156-0.186-0.203-0.372-0.402-0.563-0.594-0.065-0.075-0.122-0.145-0.188-0.219-0.059-0.057-0.128-0.1-0.188-0.156-0.188-0.205-0.37-0.401-0.563-0.594-0.065-0.075-0.121-0.145-0.188-0.219-0.043-0.042-0.082-0.084-0.125-0.125-0.338-0.371-0.679-0.7-1.031-1.031-0.338-0.367-0.679-0.735-1.031-1.063-0.135-0.145-0.269-0.299-0.406-0.438-0.083-0.095-0.166-0.188-0.25-0.281-0.055-0.053-0.101-0.104-0.156-0.156-0.168-0.183-0.359-0.358-0.531-0.531-0.083-0.096-0.166-0.188-0.25-0.281-0.049-0.048-0.107-0.078-0.156-0.125-0.174-0.19-0.353-0.383-0.531-0.563-0.084-0.097-0.165-0.187-0.25-0.281-0.038-0.037-0.087-0.057-0.125-0.094-0.338-0.37-0.679-0.731-1.031-1.063-0.308-0.333-0.618-0.667-0.938-0.969-0.31-0.335-0.615-0.666-0.938-0.969-0.321-0.346-0.635-0.687-0.969-1-0.138-0.148-0.266-0.296-0.406-0.438-0.093-0.107-0.187-0.208-0.281-0.313-0.081-0.078-0.169-0.142-0.25-0.219-0.13-0.14-0.274-0.272-0.406-0.406-0.102-0.118-0.209-0.229-0.313-0.344-0.043-0.042-0.082-0.084-0.125-0.125-0.159-0.172-0.338-0.336-0.5-0.5-0.103-0.119-0.208-0.229-0.313-0.344-0.054-0.052-0.102-0.105-0.156-0.156-0.15-0.162-0.316-0.314-0.469-0.469-0.104-0.119-0.207-0.228-0.313-0.344-0.054-0.052-0.102-0.105-0.156-0.156-0.151-0.163-0.315-0.313-0.469-0.469-0.104-0.12-0.207-0.227-0.313-0.344-0.043-0.042-0.082-0.084-0.125-0.125-0.162-0.176-0.335-0.332-0.5-0.5-0.105-0.121-0.206-0.226-0.313-0.344-0.032-0.031-0.061-0.063-0.094-0.094-0.352-0.384-0.696-0.749-1.063-1.094-0.306-0.328-0.621-0.638-0.938-0.938-0.128-0.137-0.245-0.274-0.375-0.406-0.112-0.128-0.231-0.25-0.344-0.375-0.043-0.042-0.082-0.084-0.125-0.125-0.148-0.161-0.318-0.315-0.469-0.469-0.122-0.14-0.251-0.27-0.375-0.406-0.043-0.042-0.082-0.084-0.125-0.125-0.139-0.151-0.296-0.293-0.438-0.438-0.123-0.141-0.25-0.269-0.375-0.406-0.027-0.027-0.066-0.036-0.094-0.063-0.339-0.368-0.68-0.729-1.031-1.063-0.308-0.331-0.619-0.667-0.938-0.969-0.309-0.332-0.618-0.666-0.938-0.969-0.311-0.334-0.616-0.664-0.938-0.969-0.312-0.335-0.615-0.663-0.938-0.969-0.313-0.336-0.614-0.661-0.938-0.969-0.345-0.37-0.704-0.728-1.063-1.063-0.075-0.08-0.143-0.172-0.219-0.25-0.143-0.164-0.292-0.31-0.438-0.469-0.038-0.037-0.087-0.057-0.125-0.094-0.126-0.135-0.248-0.275-0.375-0.406-0.144-0.165-0.292-0.309-0.438-0.469-0.038-0.037-0.086-0.057-0.125-0.094-0.126-0.136-0.247-0.275-0.375-0.406-0.144-0.166-0.291-0.309-0.438-0.469-0.021-0.021-0.041-0.042-0.063-0.063-0.347-0.376-0.703-0.721-1.063-1.063-0.312-0.333-0.616-0.663-0.938-0.969-0.097-0.103-0.183-0.212-0.281-0.313-0.154-0.177-0.313-0.33-0.469-0.5-0.038-0.037-0.087-0.058-0.125-0.094-0.116-0.125-0.226-0.254-0.344-0.375-0.154-0.178-0.312-0.329-0.469-0.5-0.021-0.021-0.041-0.042-0.063-0.063-0.439-0.475-0.885-0.923-1.344-1.344-0.316-0.327-0.612-0.67-0.938-0.969-0.316-0.327-0.612-0.669-0.938-0.969-0.316-0.327-0.612-0.669-0.938-0.969-0.169-0.194-0.328-0.376-0.5-0.563-0.049-0.048-0.107-0.078-0.156-0.125-0.394-0.421-0.778-0.84-1.188-1.219-0.316-0.327-0.612-0.668-0.938-0.969-0.315-0.327-0.613-0.668-0.938-0.969-0.314-0.326-0.614-0.669-0.938-0.969-0.183-0.21-0.376-0.393-0.563-0.594-0.032-0.031-0.061-0.063-0.094-0.094-0.398-0.426-0.805-0.835-1.219-1.219-0.315-0.327-0.613-0.667-0.938-0.969-0.314-0.326-0.614-0.668-0.938-0.969-0.19-0.218-0.369-0.416-0.563-0.625-0.118-0.115-0.225-0.233-0.344-0.344-0.092-0.096-0.188-0.187-0.281-0.281-0.105-0.118-0.206-0.229-0.313-0.344-0.032-0.031-0.062-0.063-0.094-0.094-0.388-0.414-0.786-0.812-1.188-1.188-0.311-0.324-0.617-0.669-0.938-0.969-0.313-0.326-0.616-0.668-0.938-0.969-0.202-0.232-0.42-0.435-0.625-0.656-0.108-0.105-0.204-0.211-0.313-0.313-0.208-0.239-0.413-0.46-0.625-0.688-0.061-0.059-0.126-0.098-0.188-0.156-3.385-3.578-7.267-5.781-11.563-5.719-3.03 0.044-6.261 1.21-9.625 3.781-17.247 13.185-7.231 36.26 6.406 49.03l0.094 0.094c0.29 0.27 0.582 0.552 0.875 0.813 0.032 0.031 0.061 0.063 0.094 0.094 0.236 0.235 0.48 0.459 0.719 0.688 0.115 0.104 0.228 0.21 0.344 0.313 0.347 0.327 0.711 0.656 1.063 0.969 0.038 0.036 0.087 0.058 0.125 0.094 0.046 0.046 0.079 0.11 0.125 0.156 0.28 0.26 0.561 0.53 0.844 0.781 0.043 0.041 0.082 0.084 0.125 0.125 0.041 0.041 0.083 0.084 0.125 0.125 0.283 0.263 0.558 0.527 0.844 0.781 0.394 0.372 0.788 0.74 1.188 1.094 0.032 0.031 0.061 0.063 0.094 0.094 0.089 0.088 0.192 0.162 0.281 0.25 0.278 0.257 0.531 0.534 0.813 0.781 0.011 0.01 0.021 0.021 0.031 0.031l0.094 0.094c0.268 0.249 0.542 0.509 0.813 0.75 0.032 0.031 0.061 0.063 0.094 0.094 0.062 0.062 0.125 0.126 0.188 0.188 0.271 0.252 0.539 0.507 0.813 0.75 0.376 0.355 0.744 0.724 1.125 1.063 0.769 0.772 1.549 1.488 2.344 2.188 0.022 0.02 0.041 0.042 0.063 0.063l0.094 0.094c0.259 0.241 0.52 0.486 0.781 0.719 0.043 0.04 0.082 0.085 0.125 0.125 0.072 0.072 0.146 0.147 0.219 0.219 0.247 0.229 0.501 0.466 0.75 0.688 0.054 0.051 0.102 0.105 0.156 0.156 0.062 0.062 0.125 0.126 0.188 0.188 0.25 0.232 0.498 0.463 0.75 0.688 0.426 0.404 0.848 0.806 1.281 1.188 0.021 0.02 0.041 0.042 0.063 0.063l0.125 0.125c0.247 0.23 0.5 0.465 0.75 0.688 0.059 0.056 0.129 0.101 0.188 0.156 0.067 0.067 0.12 0.152 0.188 0.219 0.236 0.218 0.481 0.445 0.719 0.656 0.049 0.046 0.108 0.079 0.156 0.125 0.685 0.686 1.387 1.342 2.094 1.969 0.065 0.061 0.123 0.127 0.188 0.188 0.152 0.152 0.316 0.289 0.469 0.438 0.191 0.174 0.37 0.362 0.563 0.531 0.032 0.03 0.061 0.063 0.094 0.094 0.052 0.052 0.104 0.105 0.156 0.156 0.228 0.211 0.458 0.42 0.688 0.625 0.375 0.357 0.744 0.724 1.125 1.063 0.065 0.061 0.123 0.127 0.188 0.188 0.072 0.072 0.146 0.147 0.219 0.219 0.217 0.201 0.438 0.399 0.656 0.594 0.378 0.359 0.741 0.722 1.125 1.063 0.401 0.381 0.78 0.765 1.188 1.125 0.337 0.319 0.689 0.634 1.031 0.938 0.07 0.066 0.149 0.122 0.219 0.188 0.077 0.077 0.141 0.173 0.219 0.25 0.205 0.19 0.418 0.378 0.625 0.563 0.365 0.348 0.723 0.701 1.094 1.031 0.097 0.093 0.215 0.159 0.313 0.25 0.168 0.168 0.331 0.336 0.5 0.5 0.126 0.115 0.248 0.231 0.375 0.344 0.106 0.101 0.206 0.213 0.313 0.313-5.456 4.699-10.693 9.821-15.531 15.281-0.164-0.169-0.334-0.337-0.5-0.5-0.367-0.392-0.749-0.761-1.125-1.125-0.084-0.095-0.165-0.187-0.25-0.281-0.042-0.043-0.083-0.082-0.125-0.125-0.393-0.432-0.784-0.849-1.188-1.25-0.302-0.325-0.629-0.63-0.938-0.938-0.305-0.329-0.594-0.659-0.906-0.969-0.303-0.326-0.629-0.63-0.938-0.938-0.3-0.323-0.6-0.663-0.906-0.969-0.489-0.526-0.964-1.053-1.469-1.531-0.127-0.13-0.247-0.248-0.375-0.375-0.312-0.336-0.619-0.652-0.938-0.969-0.253-0.272-0.524-0.522-0.781-0.781-0.402-0.437-0.806-0.875-1.219-1.281-0.323-0.344-0.639-0.676-0.969-1-0.113-0.129-0.229-0.249-0.344-0.375-0.021-0.022-0.042-0.041-0.063-0.063-0.585-0.644-1.174-1.265-1.781-1.844-0.186-0.192-0.375-0.377-0.563-0.563-0.219-0.232-0.434-0.464-0.656-0.688-0.389-0.421-0.789-0.826-1.188-1.219-0.303-0.321-0.598-0.633-0.906-0.938-0.441-0.468-0.86-0.943-1.313-1.375-0.176-0.182-0.353-0.355-0.531-0.531-0.254-0.27-0.492-0.554-0.75-0.813-0.493-0.529-0.993-1.046-1.5-1.531-0.165-0.17-0.334-0.335-0.5-0.5-0.26-0.277-0.517-0.548-0.781-0.813-0.351-0.377-0.704-0.738-1.063-1.094-0.301-0.32-0.599-0.633-0.906-0.938-0.148-0.168-0.288-0.336-0.438-0.5-0.062-0.064-0.125-0.124-0.188-0.188-0.469-0.509-0.956-0.998-1.438-1.469-0.225-0.235-0.46-0.461-0.688-0.688-0.158-0.18-0.309-0.356-0.469-0.531-0.309-0.318-0.593-0.636-0.906-0.938-0.151-0.155-0.317-0.286-0.469-0.438-0.158-0.179-0.309-0.356-0.469-0.531-0.063-0.065-0.125-0.124-0.188-0.188-0.471-0.511-0.954-0.996-1.438-1.469-0.214-0.225-0.439-0.439-0.656-0.656-0.167-0.19-0.331-0.377-0.5-0.563-0.068-0.07-0.15-0.118-0.219-0.188-0.543-0.588-1.065-1.18-1.625-1.719-0.067-0.069-0.12-0.15-0.188-0.219-0.389-0.421-0.79-0.822-1.188-1.219-0.378-0.402-0.771-0.778-1.156-1.156-0.084-0.094-0.165-0.188-0.25-0.281-0.052-0.054-0.104-0.103-0.156-0.156-0.4-0.434-0.81-0.842-1.219-1.25-0.305-0.324-0.596-0.659-0.906-0.969-4.548-4.837-9.68-8.097-14.625-8.06-3.523 0.025-6.972 1.711-10.03 5.688-8.654 11.248-2.969 23.72 6.469 32.406 0.042 0.041 0.083 0.084 0.125 0.125 0.228 0.209 0.455 0.421 0.688 0.625 0.473 0.444 0.946 0.889 1.438 1.313 0.325 0.3 0.666 0.585 1 0.875 0.362 0.337 0.72 0.675 1.094 1 0.436 0.407 0.86 0.829 1.313 1.219 0.358 0.331 0.725 0.65 1.094 0.969 0.344 0.319 0.677 0.66 1.031 0.969 0.464 0.433 0.955 0.837 1.438 1.25 0.011 0.01 0.02 0.021 0.031 0.031 0.095 0.093 0.186 0.189 0.281 0.281 0.186 0.167 0.374 0.336 0.563 0.5 0.482 0.45 0.967 0.884 1.469 1.313 0.613 0.602 1.226 1.184 1.875 1.75 0.428 0.401 0.868 0.803 1.313 1.188 0.411 0.381 0.825 0.76 1.25 1.125 0.353 0.326 0.698 0.655 1.063 0.969 0.353 0.327 0.699 0.654 1.063 0.969 0.34 0.316 0.681 0.632 1.031 0.938 0.479 0.449 0.969 0.886 1.469 1.313 0.239 0.219 0.475 0.442 0.719 0.656 0.522 0.494 1.046 0.971 1.594 1.438 0.032 0.03 0.061 0.064 0.094 0.094 0.121 0.119 0.253 0.226 0.375 0.344 0.099 0.088 0.182 0.194 0.281 0.281 0.457 0.43 0.93 0.841 1.406 1.25 0.351 0.325 0.7 0.656 1.063 0.969 0.41 0.382 0.824 0.76 1.25 1.125 0.283 0.261 0.554 0.528 0.844 0.781 0.359 0.338 0.722 0.675 1.094 1 0.443 0.419 0.913 0.82 1.375 1.219 0.394 0.367 0.779 0.742 1.188 1.094 0.352 0.328 0.698 0.654 1.063 0.969 0.412 0.385 0.821 0.757 1.25 1.125 0.279 0.258 0.558 0.531 0.844 0.781 0.467 0.443 0.949 0.862 1.438 1.281 0.135 0.125 0.269 0.251 0.406 0.375l0.031 0.031c0.126 0.114 0.247 0.232 0.375 0.344 0.443 0.422 0.88 0.818 1.344 1.219 0.312 0.292 0.616 0.593 0.938 0.875 0.308 0.292 0.62 0.593 0.938 0.875-3.514 6.455-6.391 13.11-8.375 19.875-0.09-0.097-0.19-0.185-0.281-0.281l-0.125-0.125c-0.461-0.51-0.924-1.01-1.406-1.5-0.082-0.087-0.168-0.163-0.25-0.25-0.093-0.093-0.188-0.189-0.281-0.281-0.41-0.449-0.824-0.911-1.25-1.344-0.09-0.097-0.19-0.185-0.281-0.281-0.084-0.084-0.166-0.167-0.25-0.25-0.415-0.454-0.819-0.906-1.25-1.344-0.168-0.18-0.33-0.354-0.5-0.531-0.417-0.457-0.848-0.903-1.281-1.344-0.165-0.177-0.332-0.356-0.5-0.531-0.418-0.458-0.847-0.902-1.281-1.344-0.101-0.109-0.21-0.205-0.313-0.313-0.167-0.167-0.331-0.336-0.5-0.5-0.036-0.037-0.057-0.088-0.094-0.125-0.102-0.109-0.21-0.204-0.313-0.313-0.063-0.063-0.124-0.125-0.188-0.188-0.42-0.46-0.846-0.931-1.281-1.375-0.407-0.437-0.798-0.86-1.219-1.281-0.189-0.199-0.371-0.398-0.563-0.594-0.157-0.169-0.309-0.333-0.469-0.5-0.427-0.468-0.87-0.923-1.313-1.375-0.294-0.316-0.573-0.63-0.875-0.938-0.297-0.319-0.602-0.626-0.906-0.938-0.122-0.13-0.252-0.246-0.375-0.375l-0.188-0.188c-0.404-0.441-0.801-0.886-1.219-1.313-0.288-0.309-0.58-0.604-0.875-0.906-0.134-0.144-0.271-0.295-0.406-0.438-0.167-0.167-0.331-0.335-0.5-0.5-0.2-0.214-0.422-0.414-0.625-0.625-0.1-0.099-0.18-0.214-0.281-0.313-0.135-0.145-0.269-0.294-0.406-0.438-0.016-0.016-0.047-0.016-0.063-0.031-0.142-0.149-0.262-0.321-0.406-0.469-0.298-0.319-0.602-0.626-0.906-0.938-0.135-0.145-0.269-0.294-0.406-0.438l-0.031-0.031c-0.147-0.154-0.289-0.316-0.438-0.469-0.144-0.155-0.291-0.315-0.438-0.469-0.157-0.157-0.31-0.314-0.469-0.469-0.145-0.156-0.291-0.315-0.438-0.469-0.053-0.053-0.103-0.104-0.156-0.156-0.097-0.101-0.184-0.213-0.281-0.313-0.297-0.318-0.602-0.626-0.906-0.938-0.147-0.158-0.289-0.313-0.438-0.469l-0.156-0.156c-0.098-0.102-0.183-0.212-0.281-0.313-0.293-0.314-0.606-0.63-0.906-0.938-0.155-0.166-0.312-0.336-0.469-0.5-0.037-0.037-0.088-0.057-0.125-0.094-6.194-6.454-13.809-11.389-20.16-11.03-3.813 0.215-7.151 2.335-9.438 7.156-4.447 9.384-0.393 17.678 6.625 23.594 0.173 0.16 0.354 0.312 0.531 0.469 0.012 0.009 0.02 0.022 0.031 0.031 0.138 0.122 0.265 0.255 0.406 0.375 0.46 0.434 0.947 0.839 1.438 1.25 0.011 0.01 0.02 0.021 0.031 0.031 0.148 0.123 0.287 0.254 0.438 0.375 0.183 0.162 0.344 0.342 0.531 0.5 0.06 0.056 0.127 0.101 0.188 0.156 0.149 0.124 0.286 0.253 0.438 0.375 0.156 0.138 0.309 0.27 0.469 0.406 0.357 0.337 0.748 0.646 1.125 0.969 0.393 0.372 0.802 0.739 1.219 1.094 0.29 0.273 0.604 0.518 0.906 0.781 0.468 0.451 0.966 0.886 1.469 1.313 0.419 0.392 0.867 0.784 1.313 1.156 0.022 0.02 0.041 0.042 0.063 0.063 0.135 0.112 0.269 0.233 0.406 0.344 0.132 0.118 0.271 0.228 0.406 0.344 0.404 0.384 0.821 0.76 1.25 1.125 0.43 0.406 0.885 0.803 1.344 1.188 0.032 0.03 0.061 0.064 0.094 0.094 0.124 0.103 0.249 0.211 0.375 0.313 0.155 0.138 0.31 0.271 0.469 0.406 0.384 0.364 0.78 0.715 1.188 1.063 0.435 0.411 0.879 0.829 1.344 1.219 0.038 0.035 0.087 0.058 0.125 0.094 0.114 0.094 0.228 0.188 0.344 0.281 0.176 0.157 0.351 0.315 0.531 0.469 0.096 0.091 0.183 0.191 0.281 0.281 0.115 0.095 0.228 0.188 0.344 0.281 0.155 0.138 0.31 0.271 0.469 0.406 0.452 0.431 0.921 0.844 1.406 1.25 0.043 0.04 0.081 0.085 0.125 0.125 0.103 0.086 0.208 0.166 0.313 0.25 0.408 0.365 0.787 0.748 1.219 1.094 0.215 0.191 0.434 0.376 0.656 0.563 0.044 0.041 0.081 0.084 0.125 0.125 0.103 0.086 0.208 0.166 0.313 0.25 0.222 0.198 0.459 0.401 0.688 0.594 0.064 0.06 0.123 0.128 0.188 0.188 0.102 0.084 0.21 0.167 0.313 0.25 0.163 0.146 0.333 0.295 0.5 0.438 0.119 0.113 0.222 0.232 0.344 0.344 0.102 0.085 0.209 0.167 0.313 0.25 0.125 0.112 0.247 0.233 0.375 0.344 0.473 0.456 0.989 0.885 1.5 1.313 0.054 0.05 0.102 0.106 0.156 0.156 0.091 0.075 0.189 0.144 0.281 0.219 0.197 0.176 0.391 0.36 0.594 0.531 0.332 0.314 0.681 0.606 1.031 0.906 0.459 0.441 0.942 0.867 1.438 1.281 0.054 0.05 0.102 0.106 0.156 0.156 0.08 0.066 0.169 0.122 0.25 0.188 0.192 0.172 0.365 0.363 0.563 0.531 0.395 0.376 0.828 0.706 1.25 1.063 0.088 0.083 0.161 0.168 0.25 0.25 0.081 0.067 0.168 0.121 0.25 0.188 0.266 0.239 0.536 0.488 0.813 0.719 0.043 0.04 0.081 0.085 0.125 0.125 0.074 0.061 0.144 0.127 0.219 0.188 0.278 0.251 0.553 0.509 0.844 0.75 0.033 0.03 0.061 0.063 0.094 0.094 0.074 0.061 0.144 0.127 0.219 0.188 0.225 0.203 0.454 0.397 0.688 0.594 0.443 0.419 0.898 0.825 1.375 1.219 0.022 0.02 0.041 0.043 0.063 0.063 0.063 0.052 0.124 0.105 0.188 0.156 0.291 0.262 0.571 0.529 0.875 0.781 0.033 0.03 0.061 0.064 0.094 0.094 0.064 0.052 0.123 0.105 0.188 0.156 0.226 0.204 0.453 0.396 0.688 0.594 0.386 0.366 0.806 0.716 1.219 1.063 0.352 0.333 0.72 0.652 1.094 0.969 0.351 0.335 0.72 0.651 1.094 0.969 0.486 0.467 1 0.909 1.531 1.344 0.011 0.01 0.02 0.021 0.031 0.031 0.052 0.042 0.104 0.083 0.156 0.125 0.27 0.245 0.53 0.515 0.813 0.75 0.06 0.056 0.127 0.101 0.188 0.156 0.052 0.042 0.104 0.083 0.156 0.125 0.223 0.202 0.456 0.398 0.688 0.594 0.439 0.419 0.9 0.827 1.375 1.219 0.043 0.04 0.082 0.085 0.125 0.125 0.04 0.033 0.085 0.061 0.125 0.094 0.267 0.242 0.534 0.486 0.813 0.719 0.454 2.435 1.025 4.869 1.781 7.281 3.447 10.997 10.346 21.11 19.563 29.875 0.137 0.134 0.268 0.273 0.406 0.406 0.235 0.221 0.481 0.437 0.719 0.656 0.063 0.061 0.124 0.126 0.188 0.188 0.049 0.045 0.107 0.08 0.156 0.125 0.249 0.239 0.498 0.482 0.75 0.719 0.065 0.06 0.122 0.128 0.188 0.188 0.124 0.116 0.25 0.228 0.375 0.344 0.106 0.103 0.206 0.21 0.313 0.313 0.049 0.045 0.107 0.08 0.156 0.125 0.247 0.237 0.5 0.484 0.75 0.719 0.065 0.06 0.122 0.128 0.188 0.188 0.316 0.295 0.648 0.583 0.969 0.875 0.206 0.198 0.416 0.398 0.625 0.594 0.011 0.01 0.02 0.021 0.031 0.031 0.054 0.05 0.102 0.107 0.156 0.156 0.188 0.176 0.373 0.357 0.563 0.531 0.063 0.062 0.124 0.126 0.188 0.188 0.027 0.025 0.066 0.037 0.094 0.063 0.085 0.082 0.165 0.169 0.25 0.25 0.179 0.176 0.35 0.357 0.531 0.531 0.005 0.005 0.026-0.005 0.031 0 0.033 0.03 0.061 0.064 0.094 0.094 0.146 0.137 0.29 0.27 0.438 0.406 0.117 0.114 0.226 0.23 0.344 0.344 0.028 0.025 0.066 0.037 0.094 0.063 0.268 0.258 0.54 0.526 0.813 0.781 0.033 0.03 0.061 0.064 0.094 0.094 0.289 0.27 0.582 0.545 0.875 0.813 0.456 0.427 0.907 0.861 1.375 1.281 0.126 0.123 0.248 0.253 0.375 0.375 0.286 0.284 0.584 0.563 0.875 0.844 0.006 0.005 0.026-0.005 0.031 0 0.151 0.142 0.285 0.296 0.438 0.438 0.143 0.14 0.293 0.267 0.438 0.406 0.006 0.005 0.026-0.005 0.031 0 0.296 0.278 0.574 0.569 0.875 0.844 0.3 0.281 0.601 0.565 0.906 0.844 0.296 0.277 0.574 0.57 0.875 0.844 0.005 0.005 0.026-0.005 0.031 0 0.065 0.06 0.122 0.128 0.188 0.188 0.231 0.215 0.454 0.443 0.688 0.656 0.201 0.194 0.39 0.401 0.594 0.594 0.092 0.085 0.188 0.165 0.281 0.25 0.297 0.287 0.603 0.56 0.906 0.844 0.011 0.01 0.021 0.021 0.031 0.031 0.281 0.264 0.558 0.52 0.844 0.781 0.021 0.02 0.041 0.042 0.063 0.063 0.28 0.262 0.559 0.522 0.844 0.781 0.063 0.061 0.124 0.127 0.188 0.188 0.233 0.217 0.451 0.441 0.688 0.656 0.021 0.021 0.041 0.042 0.063 0.063 0.043 0.039 0.082 0.086 0.125 0.125 0.237 0.221 0.478 0.437 0.719 0.656 0.063 0.061 0.124 0.127 0.188 0.188 0.23 0.215 0.454 0.443 0.688 0.656 0.032 0.031 0.062 0.063 0.094 0.094 0.028 0.025 0.066 0.038 0.094 0.063 0.239 0.224 0.476 0.466 0.719 0.688 0.032 0.031 0.062 0.063 0.094 0.094 0.261 0.244 0.516 0.477 0.781 0.719 0.042 0.041 0.082 0.084 0.125 0.125 0.259 0.243 0.518 0.478 0.781 0.719 0.288 0.279 0.581 0.568 0.875 0.844 0.043 0.041 0.082 0.084 0.125 0.125 0.256 0.24 0.521 0.481 0.781 0.719 0.11 0.107 0.232 0.206 0.344 0.313 0.232 0.215 0.453 0.443 0.688 0.656 0.249 0.241 0.497 0.481 0.75 0.719 0.095 0.092 0.186 0.19 0.281 0.281 0.211 0.197 0.411 0.399 0.625 0.594 0.043 0.041 0.082 0.084 0.125 0.125 0.175 0.158 0.355 0.312 0.531 0.469 0.128 0.125 0.246 0.251 0.375 0.375 0.237 0.222 0.478 0.436 0.719 0.656 0.064 0.062 0.123 0.126 0.188 0.188 0.236 0.221 0.479 0.438 0.719 0.656 0.158 0.154 0.309 0.316 0.469 0.469 0.189 0.175 0.371 0.358 0.563 0.531 0.021 0.02 0.041 0.042 0.063 0.063 0.225 0.21 0.459 0.417 0.688 0.625 0.288 0.28 0.581 0.567 0.875 0.844 0.074 0.072 0.144 0.147 0.219 0.219 0.224 0.21 0.46 0.417 0.688 0.625 0.132 0.129 0.273 0.247 0.406 0.375 0.232 0.215 0.452 0.444 0.688 0.656 0.011 0.01 0.021 0.021 0.031 0.031 0.216 0.201 0.438 0.394 0.656 0.594 0.199 0.194 0.392 0.402 0.594 0.594 0.136 0.125 0.269 0.251 0.406 0.375 0.043 0.042 0.082 0.083 0.125 0.125 0.215 0.201 0.438 0.395 0.656 0.594 0.288 0.281 0.581 0.566 0.875 0.844 0.095 0.093 0.185 0.189 0.281 0.281 0.204 0.19 0.418 0.374 0.625 0.563 0.215 0.209 0.438 0.418 0.656 0.625 0.108 0.099 0.204 0.213 0.313 0.313 0.069 0.067 0.149 0.121 0.219 0.188 0.198 0.185 0.393 0.379 0.594 0.563 0.038 0.036 0.087 0.058 0.125 0.094 0.246 0.239 0.499 0.482 0.75 0.719 0.107 0.104 0.205 0.209 0.313 0.313 0.192 0.179 0.399 0.353 0.594 0.531 0.29 0.284 0.579 0.564 0.875 0.844 0.247 0.242 0.498 0.48 0.75 0.719 0.071 0.065 0.147 0.122 0.219 0.188 0.095 0.093 0.185 0.189 0.281 0.281 0.179 0.166 0.35 0.335 0.531 0.5 0.246 0.241 0.499 0.48 0.75 0.719 0.065 0.06 0.122 0.128 0.188 0.188 0.101 0.099 0.21 0.183 0.313 0.281 0.176 0.164 0.353 0.337 0.531 0.5 0.122 0.119 0.252 0.225 0.375 0.344 0.344 0.32 0.679 0.654 1.031 0.969 0.125 0.115 0.249 0.229 0.375 0.344 0.278 0.273 0.56 0.544 0.844 0.813 0.011 0.01 0.02 0.021 0.031 0.031 0.141 0.139 0.295 0.268 0.438 0.406 0.158 0.147 0.309 0.292 0.469 0.438 0.277 0.272 0.561 0.544 0.844 0.813 0.011 0.01 0.02 0.021 0.031 0.031 0.142 0.14 0.293 0.267 0.438 0.406 0.156 0.145 0.311 0.294 0.469 0.438 0.141 0.139 0.294 0.268 0.438 0.406 0.232 0.216 0.451 0.443 0.688 0.656 0.07 0.068 0.149 0.12 0.219 0.188 0.253 0.235 0.492 0.487 0.75 0.719 0.053 0.051 0.103 0.105 0.156 0.156 0.136 0.127 0.268 0.249 0.406 0.375 0.043 0.041 0.082 0.084 0.125 0.125 0.4 0.392 0.805 0.772 1.219 1.156 0.011 0.01 0.021 0.021 0.031 0.031 0.136 0.126 0.269 0.25 0.406 0.375 0.149 0.141 0.287 0.297 0.438 0.438 0.089 0.086 0.191 0.164 0.281 0.25 0.087 0.08 0.193 0.139 0.281 0.219 0.137 0.135 0.268 0.273 0.406 0.406 0.2 0.185 0.391 0.379 0.594 0.563 0.1 0.097 0.212 0.184 0.313 0.281 0.494 0.497 1.015 0.985 1.531 1.469 0.084 0.082 0.166 0.169 0.25 0.25 0.183 0.17 0.377 0.332 0.563 0.5 0.362 0.355 0.751 0.683 1.125 1.031 0.048 0.046 0.077 0.11 0.125 0.156 0.227 0.21 0.457 0.418 0.688 0.625 0.247 0.241 0.497 0.481 0.75 0.719 0.323 0.317 0.667 0.626 1 0.938 0.226 0.22 0.457 0.439 0.688 0.656 0.395 0.39 0.809 0.775 1.219 1.156 0.053 0.052 0.103 0.105 0.156 0.156 0.216 0.2 0.436 0.396 0.656 0.594 0.252 0.247 0.523 0.476 0.781 0.719 0.321 0.315 0.638 0.628 0.969 0.938 0.293 0.287 0.605 0.562 0.906 0.844 0.266 0.26 0.54 0.525 0.813 0.781 0.325 0.32 0.665 0.624 1 0.938 0.257 0.252 0.518 0.502 0.781 0.75 0.326 0.321 0.664 0.623 1 0.938 0.346 0.339 0.705 0.668 1.063 1 0.252 0.245 0.523 0.478 0.781 0.719 0.085 0.083 0.164 0.167 0.25 0.25 0.006 0.005 0.026-0.005 0.031 0 0.161 0.142 0.306 0.297 0.469 0.438 0.313 0.309 0.614 0.634 0.938 0.938 0.304 0.299 0.624 0.582 0.938 0.875 0.345 0.339 0.705 0.668 1.063 1 0.241 0.235 0.503 0.456 0.75 0.688 0.252 0.247 0.523 0.475 0.781 0.719 0.327 0.324 0.661 0.652 1 0.969 0.246 0.242 0.497 0.481 0.75 0.719 0.385 0.382 0.786 0.753 1.188 1.125 0.064 0.062 0.123 0.126 0.188 0.188 0.217 0.199 0.435 0.397 0.656 0.594 0.272 0.266 0.564 0.52 0.844 0.781 0.293 0.288 0.604 0.561 0.906 0.844 0.257 0.253 0.517 0.502 0.781 0.75 0.313 0.31 0.645 0.603 0.969 0.906 0.314 0.31 0.644 0.603 0.969 0.906 0.351 0.345 0.697 0.695 1.063 1.031 0.273 0.266 0.562 0.521 0.844 0.781 0.011 0.01 0.02 0.021 0.031 0.031 0.053 0.052 0.103 0.105 0.156 0.156 0.039 0.034 0.085 0.06 0.125 0.094 0.053 0.051 0.103 0.106 0.156 0.156 0.444 0.446 0.906 0.881 1.375 1.313 0.043 0.041 0.082 0.084 0.125 0.125 0.162 0.148 0.335 0.291 0.5 0.438 0.38 0.377 0.758 0.758 1.156 1.125 0.053 0.052 0.103 0.105 0.156 0.156 0.301 0.274 0.595 0.544 0.906 0.813 0.147 0.142 0.287 0.297 0.438 0.438 0.302 0.3 0.624 0.582 0.938 0.875 0.368 0.366 0.77 0.707 1.156 1.063 0.334 0.326 0.652 0.682 1 1 0.016 0.016 0.046 0.016 0.063 0.031 0.271 0.247 0.533 0.509 0.813 0.75 0.222 0.216 0.428 0.445 0.656 0.656 0.349 0.344 0.728 0.665 1.094 1 0.272 0.265 0.562 0.522 0.844 0.781 0.069 0.068 0.117 0.151 0.188 0.219 0.245 0.222 0.498 0.439 0.75 0.656 0.314 0.307 0.641 0.607 0.969 0.906 0.037 0.036 0.057 0.089 0.094 0.125 0.093 0.084 0.187 0.166 0.281 0.25 0.414 0.419 0.842 0.815 1.281 1.219 0.281 0.277 0.582 0.543 0.875 0.813 0.293 0.289 0.601 0.562 0.906 0.844 0.328 0.324 0.655 0.655 1 0.969 0.053 0.052 0.103 0.105 0.156 0.156 0.198 0.178 0.391 0.356 0.594 0.531 0.287 0.284 0.575 0.567 0.875 0.844 0.359 0.356 0.715 0.719 1.094 1.063 0.042 0.041 0.082 0.084 0.125 0.125 0.177 0.159 0.35 0.313 0.531 0.469 0.022 0.02 0.041 0.043 0.063 0.063 0.327 0.324 0.656 0.655 1 0.969 0.068 0.067 0.15 0.121 0.219 0.188 0.061 0.054 0.127 0.103 0.188 0.156 85.72-24.23 150.05-99.37 158.31-190.69-0.166-0.17-0.326-0.348-0.5-0.5-0.326-0.338-0.652-0.695-1-1-0.212-0.22-0.435-0.419-0.656-0.625-0.294-0.323-0.563-0.643-0.875-0.938-0.365-0.405-0.763-0.763-1.156-1.125-0.413-0.449-0.832-0.888-1.281-1.281-0.326-0.338-0.652-0.695-1-1-0.326-0.338-0.652-0.695-1-1-0.212-0.22-0.435-0.419-0.656-0.625-0.294-0.323-0.563-0.643-0.875-0.938-0.344-0.383-0.724-0.718-1.094-1.063-0.342-0.375-0.696-0.725-1.063-1.063-0.413-0.449-0.832-0.888-1.281-1.281-0.326-0.338-0.652-0.695-1-1-0.326-0.338-0.652-0.695-1-1-0.181-0.188-0.374-0.354-0.563-0.531-0.347-0.387-0.689-0.747-1.063-1.094-0.342-0.375-0.696-0.725-1.063-1.063-0.413-0.449-0.832-0.888-1.281-1.281-0.326-0.338-0.652-0.695-1-1-0.326-0.338-0.652-0.695-1-1-0.212-0.22-0.435-0.419-0.656-0.625-0.294-0.323-0.563-0.643-0.875-0.938-0.365-0.405-0.763-0.763-1.156-1.125-0.413-0.449-0.832-0.888-1.281-1.281-0.326-0.338-0.652-0.695-1-1-0.326-0.338-0.652-0.695-1-1-0.212-0.22-0.435-0.419-0.656-0.625-0.294-0.323-0.563-0.643-0.875-0.938-0.365-0.405-0.763-0.763-1.156-1.125-0.322-0.349-0.656-0.684-1-1-0.413-0.449-0.832-0.888-1.281-1.281-0.326-0.338-0.652-0.695-1-1-0.326-0.338-0.652-0.695-1-1-0.184-0.191-0.34-0.382-0.531-0.563-0.344-0.383-0.724-0.718-1.094-1.063-0.342-0.375-0.696-0.725-1.063-1.063-0.413-0.449-0.832-0.888-1.281-1.281-0.326-0.338-0.652-0.695-1-1-0.326-0.338-0.652-0.695-1-1-0.212-0.22-0.435-0.419-0.656-0.625-0.294-0.323-0.563-0.643-0.875-0.938-0.365-0.405-0.763-0.763-1.156-1.125-0.413-0.449-0.832-0.888-1.281-1.281-0.326-0.338-0.652-0.695-1-1-0.326-0.338-0.652-0.695-1-1-0.212-0.22-0.435-0.419-0.656-0.625-0.294-0.323-0.563-0.643-0.875-0.938-0.365-0.405-0.763-0.763-1.156-1.125-0.413-0.449-0.832-0.888-1.281-1.281-0.326-0.338-0.652-0.695-1-1-0.326-0.338-0.652-0.695-1-1-0.212-0.22-0.435-0.419-0.656-0.625-0.294-0.323-0.563-0.643-0.875-0.938-0.344-0.383-0.724-0.718-1.094-1.063-0.342-0.375-0.696-0.725-1.063-1.063-0.413-0.449-0.832-0.888-1.281-1.281-0.326-0.338-0.652-0.695-1-1-0.326-0.338-0.652-0.695-1-1-0.181-0.188-0.374-0.354-0.563-0.531-0.347-0.387-0.689-0.747-1.063-1.094-0.342-0.375-0.696-0.725-1.063-1.063-0.413-0.449-0.832-0.888-1.281-1.281-0.326-0.338-0.652-0.695-1-1-0.326-0.338-0.652-0.695-1-1-0.212-0.22-0.435-0.419-0.656-0.625-0.294-0.323-0.563-0.643-0.875-0.938-0.365-0.405-0.763-0.763-1.156-1.125-0.413-0.449-0.832-0.888-1.281-1.281-0.326-0.338-0.652-0.695-1-1-0.326-0.338-0.652-0.695-1-1-0.212-0.22-0.435-0.419-0.656-0.625-0.294-0.323-0.563-0.643-0.875-0.938-0.365-0.405-0.763-0.763-1.156-1.125-0.322-0.349-0.656-0.684-1-1-0.413-0.449-0.832-0.888-1.281-1.281-0.326-0.338-0.652-0.695-1-1-0.326-0.338-0.652-0.695-1-1-0.184-0.191-0.34-0.382-0.531-0.563-0.344-0.383-0.724-0.718-1.094-1.063-0.342-0.375-0.696-0.725-1.063-1.063-0.413-0.449-0.832-0.888-1.281-1.281-0.326-0.338-0.652-0.695-1-1-0.326-0.338-0.652-0.695-1-1-0.212-0.22-0.435-0.419-0.656-0.625-0.294-0.323-0.563-0.643-0.875-0.938-0.365-0.405-0.763-0.763-1.156-1.125-0.413-0.449-0.832-0.888-1.281-1.281-0.326-0.338-0.652-0.695-1-1-0.326-0.338-0.652-0.695-1-1-0.212-0.22-0.435-0.419-0.656-0.625-0.294-0.323-0.563-0.643-0.875-0.938-0.365-0.405-0.763-0.763-1.156-1.125-0.413-0.449-0.832-0.888-1.281-1.281-0.326-0.338-0.652-0.695-1-1-0.326-0.338-0.652-0.695-1-1-0.212-0.22-0.435-0.419-0.656-0.625-0.294-0.323-0.563-0.643-0.875-0.938-0.344-0.383-0.724-0.718-1.094-1.063-0.342-0.375-0.696-0.725-1.063-1.063-0.413-0.449-0.832-0.888-1.281-1.281-0.326-0.338-0.652-0.695-1-1-0.326-0.338-0.652-0.695-1-1-0.181-0.188-0.374-0.354-0.563-0.531-0.347-0.387-0.689-0.747-1.063-1.094-0.342-0.375-0.696-0.725-1.063-1.063-0.413-0.449-0.832-0.888-1.281-1.281-0.326-0.338-0.652-0.695-1-1-0.326-0.338-0.652-0.695-1-1-0.212-0.22-0.435-0.419-0.656-0.625-0.294-0.323-0.563-0.643-0.875-0.938-0.365-0.405-0.763-0.763-1.156-1.125-0.413-0.449-0.832-0.888-1.281-1.281-0.326-0.338-0.652-0.695-1-1-0.326-0.338-0.652-0.695-1-1-0.212-0.22-0.435-0.419-0.656-0.625-0.294-0.323-0.563-0.643-0.875-0.938-0.365-0.405-0.763-0.763-1.156-1.125-0.413-0.449-0.832-0.888-1.281-1.281-0.326-0.338-0.652-0.695-1-1-0.326-0.338-0.652-0.695-1-1-0.326-0.338-0.652-0.695-1-1-0.184-0.191-0.34-0.382-0.531-0.563-0.344-0.383-0.724-0.718-1.094-1.063-0.342-0.375-0.696-0.725-1.063-1.063-0.413-0.449-0.832-0.888-1.281-1.281-0.326-0.338-0.652-0.695-1-1-0.326-0.338-0.652-0.695-1-1-0.212-0.22-0.435-0.419-0.656-0.625-0.294-0.323-0.563-0.643-0.875-0.938-0.365-0.405-0.763-0.763-1.156-1.125-0.413-0.449-0.832-0.888-1.281-1.281-0.326-0.338-0.652-0.695-1-1-0.326-0.338-0.652-0.695-1-1-0.212-0.22-0.435-0.419-0.656-0.625-0.294-0.323-0.563-0.643-0.875-0.938-0.365-0.405-0.763-0.763-1.156-1.125-0.413-0.449-0.832-0.888-1.281-1.281-0.326-0.338-0.652-0.695-1-1-0.326-0.338-0.652-0.695-1-1-0.212-0.22-0.435-0.419-0.656-0.625-0.294-0.323-0.563-0.643-0.875-0.938-0.365-0.405-0.763-0.763-1.156-1.125-0.322-0.349-0.656-0.684-1-1-0.413-0.449-0.832-0.888-1.281-1.281-0.326-0.338-0.652-0.695-1-1-0.326-0.338-0.652-0.695-1-1-0.145-0.15-0.288-0.294-0.438-0.438-0.376-0.426-0.78-0.809-1.188-1.188-0.342-0.375-0.696-0.725-1.063-1.063-0.413-0.449-0.832-0.888-1.281-1.281-0.326-0.338-0.652-0.695-1-1-0.326-0.338-0.652-0.695-1-1-0.212-0.22-0.435-0.419-0.656-0.625-0.294-0.323-0.563-0.643-0.875-0.938-0.365-0.405-0.763-0.763-1.156-1.125-0.413-0.449-0.832-0.888-1.281-1.281-0.326-0.338-0.652-0.695-1-1-0.326-0.338-0.652-0.695-1-1-0.212-0.22-0.435-0.419-0.656-0.625-0.294-0.323-0.563-0.643-0.875-0.938-0.365-0.405-0.763-0.763-1.156-1.125-0.413-0.449-0.832-0.888-1.281-1.281-0.326-0.338-0.652-0.695-1-1-0.326-0.338-0.652-0.695-1-1-0.212-0.22-0.435-0.419-0.656-0.625-0.294-0.323-0.563-0.643-0.875-0.938-0.344-0.383-0.724-0.718-1.094-1.063-0.342-0.375-0.696-0.725-1.063-1.063-0.413-0.449-0.832-0.888-1.281-1.281-0.326-0.338-0.652-0.695-1-1-0.326-0.338-0.652-0.695-1-1-0.212-0.22-0.435-0.419-0.656-0.625-0.294-0.323-0.563-0.643-0.875-0.938-0.365-0.405-0.763-0.763-1.156-1.125-0.413-0.449-0.832-0.888-1.281-1.281-0.326-0.338-0.652-0.695-1-1-0.326-0.338-0.652-0.695-1-1-0.212-0.22-0.435-0.419-0.656-0.625-0.294-0.323-0.563-0.643-0.875-0.938-0.365-0.405-0.763-0.763-1.156-1.125-0.413-0.449-0.832-0.888-1.281-1.281-0.326-0.338-0.652-0.695-1-1-0.326-0.338-0.652-0.695-1-1-0.212-0.22-0.435-0.419-0.656-0.625-0.294-0.323-0.563-0.643-0.875-0.938-0.365-0.405-0.763-0.763-1.156-1.125-0.322-0.349-0.656-0.684-1-1-0.413-0.449-0.832-0.888-1.281-1.281-0.326-0.338-0.652-0.695-1-1-2.812-2.914-6.403-4.631-10.906-4.688" id="path14"/>
  <g fill-rule="evenodd" id="g16">
   <path d="m256 541.36c-140.83 0-255 114.17-255 255s114.17 255 255 255 255-114.17 255-255-114.17-255-255-255m8.827 44.931c120.9 0 218.9 98 218.9 218.9s-98 218.9-218.9 218.9-218.93-98-218.93-218.9 98.03-218.9 218.93-218.9" fill-opacity="0.067" id="path18"/>
   <g fill-opacity="0.129" id="g20">
    <path d="m256 544.79c-138.94 0-251.57 112.63-251.57 251.57s112.63 251.54 251.57 251.54 251.57-112.6 251.57-251.54-112.63-251.57-251.57-251.57m5.885 38.556c120.9 0 218.9 98 218.9 218.9s-98 218.9-218.9 218.9-218.93-98-218.93-218.9 98.03-218.9 218.93-218.9" id="path22"/>
    <path d="m256 548.72c-136.77 0-247.64 110.87-247.64 247.64s110.87 247.64 247.64 247.64 247.64-110.87 247.64-247.64-110.87-247.64-247.64-247.64m2.942 31.691c120.9 0 218.9 98 218.9 218.9s-98 218.9-218.9 218.9-218.93-98-218.93-218.9 98.03-218.9 218.93-218.9" id="path24"/>
   </g>
   <path fill="#ffffff" stroke-width="4.904" stroke="#000000" stroke-opacity="0.31" d="m253.04 548.22c-135.42 0-245.19 109.78-245.19 245.19 0 135.42 109.78 245.19 245.19 245.19 135.42 0 245.19-109.78 245.19-245.19 0-135.42-109.78-245.19-245.19-245.19zm0 26.297c120.9 0 218.9 98 218.9 218.9s-98 218.9-218.9 218.9-218.93-98-218.93-218.9 98.03-218.9 218.93-218.9z" id="path26"/>
  </g>
  <text font-family="Gentium Book Basic" x="729.64" y="771.72" line-height="125%" font-size="129.23" id="text28" word-spacing="0" letter-spacing="0"><tspan x="729.64" y="771.72" id="tspan30"/>
  </text>
  <text font-family="Arial" x="378.91" y="2747.64" transform="scale(4.0128 .2492)" font-size="46.954" id="text32" text-anchor="middle"/>
  <text font-family="Gentium Book Basic" x="1310.91" y="691.72" line-height="125%" font-size="129.23" id="text34" word-spacing="0" letter-spacing="0"><tspan x="1310.91" y="691.72" id="tspan36"/>
  </text>
  <text font-family="Arial" x="523.76" y="2426.6" transform="scale(4.0128 .2492)" font-size="46.954" id="text38" text-anchor="middle"/>
  <text font-family="Gentium Book Basic" x="239.33" y="510.46" line-height="125%" font-size="129.23" id="text40" word-spacing="0" letter-spacing="0"><tspan x="239.33" y="510.46" id="tspan42"/>
  </text>
  <text font-family="Arial" x="256.72" y="1699.25" transform="scale(4.0128 .2492)" font-size="46.954" id="text44" text-anchor="middle"/>
  <text font-family="Gentium Book Basic" x="1337.38" y="293.99" line-height="125%" font-size="129.23" id="text46" word-spacing="0" letter-spacing="0"><tspan x="1337.38" y="293.99" id="tspan48"/>
  </text>
  <text font-family="Arial" x="530.36" y="830.57" transform="scale(4.0128 .2492)" font-size="46.954" id="text50" text-anchor="middle"/>
  <text font-family="Gentium Book Basic" x="1918.65" y="213.99" line-height="125%" font-size="129.23" id="text52" word-spacing="0" letter-spacing="0"><tspan x="1918.65" y="213.99" id="tspan54"/>
  </text>
  <text font-family="Arial" x="675.21" y="509.54" transform="scale(4.0128 .2492)" font-size="46.954" id="text56" text-anchor="middle"/>
  <text font-family="Gentium Book Basic" x="1529.53" y="-258.41" line-height="125%" font-size="129.23" id="text58" word-spacing="0" letter-spacing="0"><tspan x="1529.53" y="-258.41" id="tspan60"/>
  </text>
  <text font-family="Arial" x="578.24" y="-1386.12" transform="scale(4.0128 .2492)" font-size="46.954" id="text62" text-anchor="middle"/>
  <text font-family="Gentium Book Basic" x="2110.79" y="-338.42" line-height="125%" font-size="129.23" id="text64" word-spacing="0" letter-spacing="0"><tspan x="2110.79" y="-338.42" id="tspan66"/>
  </text>
  <text font-family="Arial" x="723.09" y="-1707.16" transform="scale(4.0128 .2492)" font-size="46.954" id="text68" text-anchor="middle"/>
  <text font-family="Gentium Book Basic" x="277.99" y="1076.3" line-height="125%" font-size="208.33" id="text70" word-spacing="0" letter-spacing="0"><tspan x="277.99" y="1076.3" id="tspan72"/>
  </text>
  <g fill="#ffffff" transform="matrix(2.1005 -1.2127 1.2127 2.1005 74.3 729.8)" id="g74">
   <path d="m86.07 0c-24.602 0-29.22 35.04-15.377 35.04 13.838 0 39.977-35.04 15.377-35.04" id="path76"/>
   <path d="m45.22 30.699c7.369 0.45 15.454-28.12 1.604-26.325-13.845 1.797-8.976 25.875-1.604 26.325" id="path78"/>
   <path d="m11.445 48.45c5.241-2.307 0.675-24.872-8.237-18.718-8.908 6.155 2.996 21.02 8.237 18.718" id="path80"/>
   <path d="m26.21 36.642c6.239-1.272 6.581-26.864-4.545-22.273-11.128 4.592-1.689 23.547 4.545 22.273" id="path82"/>
   <path d="m58.791 93.91c1.107 8.454-6.202 12.629-13.36 7.179-22.787-17.349 37.729-26 33.74-49.706-3.311-19.674-63.68-13.617-70.55 17.17-4.653 20.821 19.15 49.707 43.993 49.707 12.22 0 26.315-11.03 28.952-25.01 2.01-10.659-23.699-6.388-22.775 0.665" id="path84"/>
  </g>
 </g>
</svg>
