<?xml version="1.0" encoding="UTF-8" standalone="no"?>
<svg xmlns="http://www.w3.org/2000/svg" xmlns:sodipodi="http://sodipodi.sourceforge.net/DTD/sodipodi-0.dtd" xmlns:inkscape="http://www.inkscape.org/namespaces/inkscape" viewBox="0 0 512 512" version="1.1" width="512" height="512">
 <metadata id="metadata81"/>
 <defs id="defs4">
  <linearGradient x1="51.01" y1="58.23" x2="510.3" gradientUnits="userSpaceOnUse" y2="536.85" id="0">
   <stop id="stop7" stop-color="#5a5a5a"/>
   <stop id="stop9" offset="0.5" stop-opacity="0.498" stop-color="#6f6f6f"/>
   <stop id="stop11" offset="1" stop-color="#909090"/>
  </linearGradient>
 </defs>
 <g id="g13" fill-rule="evenodd">
  <path id="path15" fill="#ffffff" d="m470.41 253.05c0 120.9-98.01 218.91-218.91 218.91s-218.91-98.01-218.91-218.91 98.01-218.91 218.91-218.91 218.91 98.01 218.91 218.91"/>
  <path id="path17" fill="url(#0)" d="m470.41 253.05c0 120.9-98.01 218.91-218.91 218.91s-218.91-98.01-218.91-218.91 98.01-218.91 218.91-218.91 218.91 98.01 218.91 218.91"/>
  <path id="path19" fill-opacity="0.067" d="m256 1c-140.83 0-255 114.17-255 255s114.17 255 255 255 255-114.17 255-255-114.17-255-255-255m8.827 44.931c120.9 0 218.9 98 218.9 218.9s-98 218.9-218.9 218.9-218.93-98-218.93-218.9 98.03-218.9 218.93-218.9"/>
  <g id="g21" fill-opacity="0.129">
   <path id="path23" d="m256 4.43c-138.94 0-251.57 112.63-251.57 251.57s112.63 251.57 251.57 251.57 251.57-112.63 251.57-251.57-112.63-251.57-251.57-251.57m5.885 38.556c120.9 0 218.9 98 218.9 218.9s-98 218.9-218.9 218.9-218.93-98-218.93-218.9 98.03-218.9 218.93-218.9"/>
   <path id="path25" d="m256 8.36c-136.77 0-247.64 110.87-247.64 247.64s110.87 247.64 247.64 247.64 247.64-110.87 247.64-247.64-110.87-247.64-247.64-247.64m2.942 31.691c120.9 0 218.9 98 218.9 218.9s-98 218.9-218.9 218.9-218.93-98-218.93-218.9 98.03-218.9 218.93-218.9"/>
  </g>
  <path id="path27" fill="#ffffff" stroke-opacity="0.31" d="m253.04 7.86c-135.42 0-245.19 109.78-245.19 245.19 0 135.42 109.78 245.19 245.19 245.19 135.42 0 245.19-109.78 245.19-245.19 0-135.42-109.78-245.19-245.19-245.19zm0 26.297c120.9 0 218.9 98 218.9 218.9s-98 218.9-218.9 218.9-218.93-98-218.93-218.9 98.03-218.9 218.93-218.9z" stroke-width="4.904" stroke="#000000"/>
 </g>
 <text id="text29" line-height="125%" font-family="Gentium Book Basic" x="729.64" y="231.36" font-size="129.23" word-spacing="0" letter-spacing="0"><tspan id="tspan31" x="729.64" y="231.36"/>
 </text>
 <text id="text33" font-family="Arial" x="378.91" y="579.26" font-size="46.954" transform="scale(4.0128.2492)" text-anchor="middle"/>
 <text id="text35" line-height="125%" font-family="Gentium Book Basic" x="1310.91" y="151.36" font-size="129.23" word-spacing="0" letter-spacing="0"><tspan id="tspan37" x="1310.91" y="151.36"/>
 </text>
 <text id="text39" font-family="Arial" x="523.76" y="258.22" font-size="46.954" transform="scale(4.0128.2492)" text-anchor="middle"/>
 <text id="text41" line-height="125%" font-family="Gentium Book Basic" x="239.33" y="-29.9" font-size="129.23" word-spacing="0" letter-spacing="0"><tspan id="tspan43" x="239.33" y="-29.9"/>
 </text>
 <text id="text45" font-family="Arial" x="256.72" y="-469.13" font-size="46.954" transform="scale(4.0128.2492)" text-anchor="middle"/>
 <text id="text47" line-height="125%" font-family="Gentium Book Basic" x="1337.38" y="-246.37" font-size="129.23" word-spacing="0" letter-spacing="0"><tspan id="tspan49" x="1337.38" y="-246.37"/>
 </text>
 <text id="text51" font-family="Arial" x="530.36" y="-1337.8" font-size="46.954" transform="scale(4.0128.2492)" text-anchor="middle"/>
 <text id="text53" line-height="125%" font-family="Gentium Book Basic" x="1918.65" y="-326.37" font-size="129.23" word-spacing="0" letter-spacing="0"><tspan id="tspan55" x="1918.65" y="-326.37"/>
 </text>
 <text id="text57" font-family="Arial" x="675.21" y="-1658.83" font-size="46.954" transform="scale(4.0128.2492)" text-anchor="middle"/>
 <text id="text59" line-height="125%" font-family="Gentium Book Basic" x="1529.53" y="-798.77" font-size="129.23" word-spacing="0" letter-spacing="0"><tspan id="tspan61" x="1529.53" y="-798.77"/>
 </text>
 <text id="text63" font-family="Arial" x="578.24" y="-3554.48" font-size="46.954" transform="scale(4.0128.2492)" text-anchor="middle"/>
 <text id="text65" line-height="125%" font-family="Gentium Book Basic" x="2110.79" y="-878.78" font-size="129.23" word-spacing="0" letter-spacing="0"><tspan id="tspan67" x="2110.79" y="-878.78"/>
 </text>
 <text id="text69" font-family="Arial" x="723.09" y="-3875.52" font-size="46.954" transform="scale(4.0128.2492)" text-anchor="middle"/>
 <text id="text71" line-height="125%" font-family="Gentium Book Basic" x="277.99" y="535.94" font-size="208.33" word-spacing="0" letter-spacing="0"><tspan id="tspan73" x="277.99" y="535.94"/>
 </text>
 <path id="path75" d="m277.61 118.39l-45.768 4.395v67.44l-8.906-8.906c-4.582 1.604-9.02 3.535-13.227 5.822l-0.076-0.076-34.24-22.479c-0.462-0.302-0.986-0.286-1.504-0.232-0.517 0.053-1.076 0.188-1.465 0.578l-18.01 17.93c-0.755 0.758-0.824 1.936-0.27 2.854l21.05 34.701c-3.732 6.273-6.773 12.992-8.906 20.13l-38.672 8.02c-1.075 0.222-1.813 1.289-1.813 2.391v25.408c0 0.607 0.246 1.151 0.648 1.553l41.992 41.992-15.844 24.16c-0.605 0.923-0.549 2.19 0.23 2.969l123.51 123.51c109.2-12.341 194.06-105 194.06-217.49 0-14.09-1.348-27.869-3.893-41.22l-80.33-80.33-48.658-11.182-24.793 33.2-35.12-35.13" opacity="0.25"/>
 <path id="path77" fill="#ffffff" d="m277.61 118.39l-45.767 4.396v188.43l45.3-6.863v-80.31l60.843 89.18 47.772-15.192-62.42-85.75 62.848-80.78-48.659-11.182-60.38 80.85 0.463-82.78m-103.72 45.96c-0.517 0.053-1.076 0.188-1.465 0.578l-18.01 17.929c-0.755 0.758-0.825 1.936-0.27 2.853l21.05 34.701c-3.732 6.274-6.773 12.992-8.907 20.13l-38.673 8.02c-1.075 0.222-1.812 1.289-1.812 2.391v25.409c0 1.075 0.772 1.944 1.812 2.198l37.478 9.099c2 8.26 5.083 16.17 9.177 23.366l-21.669 33.04c-0.605 0.923-0.549 2.19 0.231 2.969l18.01 18.01c0.757 0.755 1.938 0.788 2.853 0.231l34.01-20.628c6.672 3.852 13.866 6.967 21.476 9.02l7.943 38.13c0.222 1.076 1.175 1.812 2.275 1.812h25.409c1.067 0 2.02-0.691 2.275-1.735l9.331-38.33c7.849-2.116 15.249-5.263 22.09-9.292l33.545 22.02c0.925 0.602 2.147 0.509 2.93-0.27l17.929-18.01c0.76-0.758 0.942-1.938 0.386-2.853l-12.261-20.13-4.01 1.311c-0.579 0.178-1.198-0.113-1.542-0.617 0 0-7.741-11.357-17.813-26.1-12.05 23.572-36.634 39.675-64.93 39.675-40.21 0-72.796-32.588-72.796-72.796 0-29.576 17.664-54.998 42.991-66.4v-18.777c-4.61 1.613-9.07 3.555-13.302 5.861-0.018-0.002 0.018-0.111 0-0.116l-34.24-22.479c-0.462-0.302-0.986-0.285-1.504-0.231"/>
</svg>
