<?xml version="1.0" encoding="UTF-8" standalone="no"?>
<svg xmlns="http://www.w3.org/2000/svg" xmlns:sodipodi="http://sodipodi.sourceforge.net/DTD/sodipodi-0.dtd" xmlns:inkscape="http://www.inkscape.org/namespaces/inkscape" height="512" viewBox="0 0 512 512" width="512" version="1.1">
 <metadata id="metadata88"/>
 <g fill-rule="evenodd" id="g4">
  <path d="m471.95 252.95c0 120.9-98.01 218.9-218.9 218.9-120.9 0-218.9-98.01-218.9-218.9 0-120.9 98.01-218.9 218.9-218.9 120.9 0 218.9 98.01 218.9 218.9" fill="#8e8e8e" id="path6"/>
  <path d="m320.13 134.59c-2.859 0.108-5.253 0.971-6.969 2.688l-14.5 14.469 1 1 60.813 60.813 1 1 1 1 1 1 0.969 0.969 1 1 1 1 1 1 1 1 1 1 0.969 0.969 1 1 1 1 1 1 1 1 1 1 0.969 0.969 1 1 1 1 1 1 1 1 1 1 0.969 0.969 1 1 1 1 1 1 1 1 1 1 1 1 0.969 0.969 1 1 1 1 1 1 1 1 1.969 1.969 1 1 1 1 1 1 1 1 1 1 0.969 0.969 1 1 1 1 1 1 1 1 1 1 1 1 0.969 0.969 1 1 1 1 1 1 1 1 1 1 0.969 0.969 1 1 1 1 1 1 1 1 1 1 0.969 0.969 1 1 1 1 1 1 1 1 1 1 0.969 0.969 1 1 1 1 1 1 1 1 1 1 1 1 0.969 0.969 1 1 1 1 1 1 1 1 1 1 0.969 0.969 1 1 1 1 1 1 1 1 1 1 0.969 0.969 1 1 1 1 1 1 1 1 1 1 1 1 0.969 0.969 1 1 1 1 1 1 1 1 1 1 0.969 0.969 1 1 1 1 1 1 1 1 0.781 0.781c4.344-14.501 7.253-29.625 8.5-45.22l-0.063-0.063c-0.222-0.222-0.433-0.438-0.656-0.656l-0.344-0.344c-0.222-0.222-0.433-0.438-0.656-0.656l-0.344-0.344c-0.211-0.211-0.413-0.417-0.625-0.625l-0.344-0.344c-0.219-0.219-0.437-0.441-0.656-0.656l-0.344-0.344c-0.22-0.22-0.435-0.44-0.656-0.656l-0.344-0.344c-0.22-0.22-0.435-0.44-0.656-0.656l-0.344-0.344c-0.222-0.222-0.433-0.438-0.656-0.656l-0.344-0.344c-0.222-0.222-0.433-0.438-0.656-0.656l-0.344-0.344c-0.211-0.211-0.413-0.417-0.625-0.625l-0.375-0.375c-0.211-0.211-0.413-0.417-0.625-0.625l-0.344-0.344c-0.219-0.219-0.437-0.441-0.656-0.656l-0.344-0.344c-0.22-0.22-0.435-0.44-0.656-0.656l-0.344-0.344c-0.222-0.222-0.433-0.438-0.656-0.656l-0.344-0.344c-0.222-0.222-0.433-0.438-0.656-0.656l-0.344-0.344c-0.211-0.211-0.413-0.417-0.625-0.625l-0.375-0.375c-0.211-0.211-0.413-0.417-0.625-0.625l-0.344-0.344c-0.219-0.219-0.437-0.441-0.656-0.656l-0.344-0.344c-0.22-0.22-0.435-0.44-0.656-0.656l-0.344-0.344c-0.22-0.22-0.435-0.44-0.656-0.656l-0.344-0.344c-0.222-0.222-0.433-0.438-0.656-0.656l-0.344-0.344c-0.211-0.211-0.413-0.417-0.625-0.625l-0.375-0.375c-0.211-0.211-0.413-0.417-0.625-0.625l-0.344-0.344c-0.219-0.219-0.437-0.441-0.656-0.656l-0.344-0.344c-0.22-0.22-0.435-0.44-0.656-0.656l-0.344-0.344c-0.22-0.22-0.435-0.44-0.656-0.656l-0.344-0.344c-0.222-0.222-0.433-0.438-0.656-0.656l-0.344-0.344c-0.222-0.222-0.433-0.438-0.656-0.656l-0.344-0.344c-0.211-0.211-0.413-0.417-0.625-0.625l-0.344-0.344c-0.219-0.219-0.437-0.441-0.656-0.656l-0.344-0.344c-0.22-0.22-0.435-0.44-0.656-0.656l-0.344-0.344c-0.22-0.22-0.435-0.44-0.656-0.656l-0.344-0.344c-0.222-0.222-0.433-0.438-0.656-0.656l-0.344-0.344c-0.222-0.222-0.433-0.438-0.656-0.656l-0.344-0.344c-0.211-0.211-0.413-0.417-0.625-0.625l-0.375-0.375c-0.211-0.211-0.413-0.417-0.625-0.625l-0.344-0.344c-0.219-0.219-0.437-0.441-0.656-0.656l-0.344-0.344c-0.22-0.22-0.435-0.44-0.656-0.656l-0.344-0.344c-0.222-0.222-0.433-0.438-0.656-0.656l-0.344-0.344c-0.222-0.222-0.433-0.438-0.656-0.656l-0.344-0.344c-0.211-0.211-0.413-0.417-0.625-0.625l-0.375-0.375c-0.211-0.211-0.413-0.417-0.625-0.625l-0.344-0.344c-0.219-0.219-0.437-0.441-0.656-0.656l-0.344-0.344c-0.22-0.22-0.435-0.44-0.656-0.656l-0.344-0.344c-0.22-0.22-0.435-0.44-0.656-0.656l-0.344-0.344c-0.222-0.222-0.433-0.438-0.656-0.656l-0.344-0.344c-0.222-0.222-0.433-0.438-0.656-0.656l-0.344-0.344c-0.211-0.211-0.413-0.417-0.625-0.625l-0.344-0.344c-0.219-0.219-0.437-0.441-0.656-0.656l-0.344-0.344c-0.22-0.22-0.435-0.44-0.656-0.656l-0.344-0.344c-0.22-0.22-0.435-0.44-0.656-0.656l-0.344-0.344c-0.222-0.222-0.433-0.438-0.656-0.656l-0.344-0.344c-0.222-0.222-0.433-0.438-0.656-0.656l-0.344-0.344c-0.211-0.211-0.413-0.417-0.625-0.625l-0.375-0.375c-0.211-0.211-0.413-0.417-0.625-0.625l-0.344-0.344c-0.22-0.22-0.435-0.44-0.656-0.656l-0.344-0.344c-0.22-0.22-0.435-0.44-0.656-0.656l-0.344-0.344c-0.222-0.222-0.433-0.438-0.656-0.656l-0.344-0.344c-0.222-0.222-0.433-0.438-0.656-0.656l-0.344-0.344c-0.211-0.211-0.413-0.417-0.625-0.625l-0.375-0.375c-0.211-0.211-0.413-0.417-0.625-0.625l-0.344-0.344c-0.219-0.219-0.437-0.441-0.656-0.656l-0.344-0.344c-0.22-0.22-0.435-0.44-0.656-0.656l-0.344-0.344c-0.22-0.22-0.435-0.44-0.656-0.656l-0.344-0.344c-0.222-0.222-0.433-0.438-0.656-0.656l-0.344-0.344c-0.211-0.211-0.413-0.417-0.625-0.625l-0.375-0.375c-0.211-0.211-0.413-0.417-0.625-0.625l-0.344-0.344c-0.219-0.219-0.437-0.441-0.656-0.656l-0.344-0.344c-0.22-0.22-0.435-0.44-0.656-0.656l-0.344-0.344c-0.22-0.22-0.435-0.44-0.656-0.656l-0.344-0.344c-0.222-0.222-0.433-0.438-0.656-0.656l-0.344-0.344c-0.222-0.222-0.433-0.438-0.656-0.656l-0.344-0.344c-0.211-0.211-0.413-0.417-0.625-0.625l-0.344-0.344c-0.219-0.219-0.437-0.441-0.656-0.656l-0.344-0.344c-0.22-0.22-0.435-0.44-0.656-0.656l-0.344-0.344c-0.22-0.22-0.435-0.44-0.656-0.656l-0.344-0.344c-0.222-0.222-0.433-0.438-0.656-0.656l-0.344-0.344c-0.222-0.222-0.433-0.438-0.656-0.656l-0.344-0.344c-0.211-0.211-0.413-0.417-0.625-0.625l-0.375-0.375c-0.211-0.211-0.413-0.417-0.625-0.625l-0.344-0.344c-0.219-0.219-0.437-0.441-0.656-0.656l-0.344-0.344c-0.22-0.22-0.435-0.44-0.656-0.656l-0.344-0.344c-0.222-0.222-0.433-0.438-0.656-0.656l-0.344-0.344c-0.222-0.222-0.433-0.438-0.656-0.656l-0.344-0.344c-0.211-0.211-0.413-0.417-0.625-0.625l-0.375-0.375c-0.211-0.211-0.413-0.417-0.625-0.625l-0.344-0.344c-0.219-0.219-0.437-0.441-0.656-0.656l-0.344-0.344c-0.22-0.22-0.435-0.44-0.656-0.656l-0.344-0.344c-0.22-0.22-0.435-0.44-0.656-0.656l-0.344-0.344c-0.222-0.222-0.433-0.438-0.656-0.656l-0.344-0.344c-0.222-0.222-0.433-0.438-0.656-0.656l-0.344-0.344c-0.211-0.211-0.413-0.417-0.625-0.625l-0.344-0.344c-0.219-0.219-0.437-0.441-0.656-0.656l-0.344-0.344c-0.22-0.22-0.435-0.44-0.656-0.656l-0.344-0.344c-0.22-0.22-0.435-0.44-0.656-0.656l-0.344-0.344c-0.222-0.222-0.433-0.438-0.656-0.656l-0.344-0.344c-0.222-0.222-0.433-0.438-0.656-0.656l-0.344-0.344c-0.211-0.211-0.413-0.417-0.625-0.625l-0.375-0.375c-0.211-0.211-0.413-0.417-0.625-0.625l-0.344-0.344c-0.22-0.22-0.435-0.44-0.656-0.656l-0.344-0.344c-0.22-0.22-0.435-0.44-0.656-0.656l-0.344-0.344c-0.222-0.222-0.433-0.438-0.656-0.656l-0.344-0.344c-0.222-0.222-0.433-0.438-0.656-0.656l-0.344-0.344c-0.211-0.211-0.413-0.417-0.625-0.625l-0.375-0.375c-0.211-0.211-0.413-0.417-0.625-0.625l-0.344-0.344c-0.219-0.219-0.437-0.441-0.656-0.656l-0.344-0.344c-0.22-0.22-0.435-0.44-0.656-0.656l-0.344-0.344c-0.22-0.22-0.435-0.44-0.656-0.656l-0.344-0.344c-0.222-0.222-0.433-0.438-0.656-0.656l-0.344-0.344c-0.211-0.211-0.413-0.417-0.625-0.625l-0.375-0.375c-0.211-0.211-0.413-0.417-0.625-0.625l-0.344-0.344c-0.219-0.219-0.437-0.441-0.656-0.656l-0.344-0.344c-0.22-0.22-0.435-0.44-0.656-0.656l-1.344-1.344c-0.338-0.338-0.66-0.671-1-1-0.338-0.338-0.66-0.671-1-1-0.327-0.327-0.639-0.649-0.969-0.969-0.333-0.333-0.665-0.675-1-1l-2-2c-11.324-11.324-24.08-17.887-32.656-17.563m-29.469 25.19-15.313 15.313 1 1 60.813 60.813 0.688 0.688 0.688 0.688 0.688 0.688 0.688 0.688 0.688 0.688 0.688 0.688 0.688 0.688 0.688 0.688 0.688 0.688 0.688 0.688 0.688 0.688 0.688 0.688 0.688 0.688 0.688 0.688 0.688 0.688 0.688 0.688 0.688 0.688 0.688 0.688 0.688 0.688 0.688 0.688 0.688 0.688 0.688 0.688 0.688 0.688 0.688 0.688 0.688 0.688 0.688 0.688 0.688 0.688 0.688 0.688 0.688 0.688 0.688 0.688 0.688 0.688 0.688 0.688 0.688 0.688 0.688 0.688 0.688 0.688 0.688 0.688 0.688 0.688 0.688 0.688 1.375 1.375 0.688 0.688 0.688 0.688 0.688 0.688 0.688 0.688 0.688 0.688 0.688 0.688 0.688 0.688 0.688 0.688 0.688 0.688 0.688 0.688 0.688 0.688 0.688 0.688 0.688 0.688 0.688 0.688 0.688 0.688 0.688 0.688 0.688 0.688 0.688 0.688 0.688 0.688 0.688 0.688 0.688 0.688 0.688 0.688 0.688 0.688 0.688 0.688 0.688 0.688 0.688 0.688 0.688 0.688 0.688 0.688 0.688 0.688 0.688 0.688 0.688 0.688 0.688 0.688 0.688 0.688 0.688 0.688 0.688 0.688 0.688 0.688 0.688 0.688 0.688 0.688 0.688 0.688 0.688 0.688 0.688 0.688 0.688 0.688 0.688 0.688 0.688 0.688 0.688 0.688 0.688 0.688 0.688 0.688 0.688 0.688 0.688 0.688 0.688 0.688 0.688 0.688 0.688 0.688 0.688 0.688 0.688 0.688 0.688 0.688 0.688 0.688 0.688 0.688 0.688 0.688 0.688 0.688 0.688 0.688 0.688 0.688 0.688 0.688 0.688 0.688 0.688 0.688 0.688 0.688 0.688 0.688 0.688 0.688 0.688 0.688 0.688 0.688 0.688 0.688 0.688 0.688 0.688 0.688 0.688 0.688 0.688 0.688 0.688 0.688 0.688 0.688 0.688 0.688 0.688 0.688 0.688 0.688 0.688 0.688 0.688 0.688 0.688 0.688 0.688 0.688 0.688 0.688 0.688 0.688 0.688 0.688 0.688 0.688 0.688 0.688 0.688 0.688 0.688 0.688 0.688 0.688 0.688 0.688 0.688 0.688 0.688 0.688 0.688 0.688 0.688 0.688 0.688 0.688 0.688 0.688 0.688 0.688 0.688 0.688 0.688 0.688 0.688 0.688 0.688 0.688 0.688 0.688 0.688 0.688 0.688 0.688 0.688 0.688 0.688 0.688 0.688 0.688 0.688 0.688 0.688 0.688 0.688 0.688 0.688 0.688 0.688 0.688 0.688 0.688 0.688 0.688 0.688 0.688 0.688 0.688 0.688 0.688 0.688 0.688 0.688 0.688 0.688 0.688 0.688 0.688 0.375 0.375c3.418-6.955 6.51-14.09 9.188-21.438l-0.094-0.094-1.313-1.313-1.281-1.281-1.313-1.313-1.313-1.313-1.281-1.281-1.313-1.313-1.313-1.313-1.313-1.313-1.281-1.281-1.313-1.313-1.313-1.313-1.281-1.281-1.313-1.313-1.313-1.313-1.281-1.281-1.313-1.313-1.313-1.313-1.281-1.281-1.313-1.313-1.313-1.313-1.281-1.281-1.313-1.313-1.313-1.313-1.281-1.281-1.313-1.313-1.313-1.313-1.281-1.281-1.313-1.313-1.313-1.313-1.313-1.313-1.281-1.281-1.313-1.313-1.313-1.313-1.281-1.281-1.313-1.313-1.313-1.313-1.281-1.281-1.313-1.313-1.313-1.313-1.281-1.281-1.313-1.313-1.313-1.313-1.281-1.281-1.313-1.313-1.313-1.313-1.281-1.281-1.313-1.313-1.313-1.313-1.281-1.281-1.313-1.313-1.313-1.313-1.313-1.313-1.281-1.281-1.313-1.313-1.313-1.313-1.281-1.281-1.313-1.313-1.313-1.313-1.281-1.281-1.313-1.313-1.313-1.313-1.281-1.281-1.313-1.313-1.313-1.313-1.281-1.281-1.313-1.313-1.313-1.313-1.281-1.281-1.313-1.313-1.313-1.313-1.281-1.281-1.313-1.313-1.313-1.313-1.313-1.313-1.281-1.281-2.625-2.625-1.281-1.281-1.313-1.313-1.313-1.313-1.281-1.281-0.719-0.719-0.594-0.594-1.313-1.313-1.281-1.281-1.313-1.313-1.313-1.313-1.281-1.281-1.313-1.313-1.313-1.313-1.281-1.281-1.313-1.313-1.313-1.313-1.281-1.281-1.313-1.313-1.313-1.313-1.313-1.313-1.281-1.281-1.313-1.313-1.313-1.313-1.281-1.281-1.313-1.313-1.313-1.313-1.281-1.281-1.313-1.313-1.313-1.313-1.281-1.281-1.313-1.313-1.313-1.313-1.281-1.281-1.313-1.313-1.313-1.313-1.281-1.281-1.313-1.313-1.313-1.313-1.281-1.281-1.313-1.313-1.313-1.313-1.313-1.313-1.281-1.281-1.313-1.313-1.313-1.313-1.281-1.281-1.313-1.313-1.313-1.313-1.281-1.281-1.25-1.25-0.063-0.063-0.906-0.906-0.406-0.406-0.594-0.594-0.688-0.688-0.313-0.313-1-1m-24.781 24.75-93.34 93.34-11.469 11.469-2.906 2.906-23.281 73c-0.839 3.862 0.331 7.916 3.03 10.5 0.092 0.069 0.187 0.123 0.281 0.188 0.219 0.258 0.442 0.515 0.688 0.75 0.109 0.082 0.233 0.142 0.344 0.219 0.213 0.249 0.419 0.492 0.656 0.719 0.08 0.061 0.169 0.098 0.25 0.156 0.23 0.274 0.46 0.565 0.719 0.813 0.109 0.084 0.232 0.14 0.344 0.219 0.207 0.24 0.395 0.499 0.625 0.719 0.106 0.083 0.235 0.141 0.344 0.219 0.21 0.245 0.423 0.495 0.656 0.719 0.101 0.08 0.209 0.143 0.313 0.219 0.212 0.248 0.42 0.493 0.656 0.719 0.112 0.09 0.229 0.166 0.344 0.25 0.203 0.236 0.43 0.471 0.656 0.688 0.095 0.078 0.184 0.146 0.281 0.219 0.217 0.256 0.445 0.486 0.688 0.719 0.093 0.077 0.186 0.146 0.281 0.219 0.217 0.256 0.444 0.517 0.688 0.75 0.127 0.106 0.275 0.183 0.406 0.281 0.191 0.219 0.383 0.455 0.594 0.656 0.111 0.094 0.229 0.162 0.344 0.25 0.204 0.238 0.398 0.47 0.625 0.688 0.12 0.102 0.251 0.186 0.375 0.281 0.194 0.225 0.379 0.45 0.594 0.656 0.159 0.137 0.335 0.251 0.5 0.375 0.167 0.188 0.318 0.388 0.5 0.563 0.114 0.1 0.226 0.188 0.344 0.281 0.199 0.233 0.403 0.444 0.625 0.656 0.145 0.128 0.287 0.258 0.438 0.375 0.176 0.201 0.338 0.408 0.531 0.594 0.155 0.139 0.338 0.248 0.5 0.375 0.164 0.185 0.321 0.391 0.5 0.563 0.14 0.127 0.291 0.227 0.438 0.344 0.177 0.203 0.336 0.407 0.531 0.594 0.139 0.128 0.292 0.226 0.438 0.344 0.177 0.202 0.337 0.408 0.531 0.594 0.189 0.176 0.393 0.343 0.594 0.5 0.135 0.147 0.262 0.299 0.406 0.438 0.154 0.145 0.308 0.274 0.469 0.406 0.164 0.185 0.321 0.36 0.5 0.531 0.18 0.171 0.372 0.315 0.563 0.469 0.147 0.163 0.278 0.348 0.438 0.5 0.173 0.167 0.349 0.319 0.531 0.469 0.142 0.156 0.285 0.323 0.438 0.469 0.171 0.167 0.35 0.318 0.531 0.469 0.146 0.161 0.28 0.318 0.438 0.469 0.197 0.195 0.415 0.358 0.625 0.531 0.124 0.135 0.242 0.279 0.375 0.406 0.264 0.265 0.525 0.525 0.813 0.75 0.058 0.058 0.097 0.131 0.156 0.188 0.262 0.266 0.527 0.524 0.813 0.75 0.058 0.059 0.096 0.13 0.156 0.188 0.26 0.267 0.529 0.522 0.813 0.75 0.067 0.068 0.118 0.153 0.188 0.219 0.2 0.208 0.41 0.378 0.625 0.563 0.114 0.123 0.222 0.259 0.344 0.375 0.256 0.269 0.532 0.519 0.813 0.75 0.058 0.059 0.096 0.13 0.156 0.188 0.264 0.282 0.553 0.541 0.844 0.781 0.052 0.052 0.103 0.105 0.156 0.156 0.267 0.289 0.548 0.536 0.844 0.781 0.047 0.048 0.076 0.11 0.125 0.156 0.286 0.313 0.588 0.612 0.906 0.875 0.022 0.021 0.041 0.042 0.063 0.063 0.292 0.325 0.61 0.635 0.938 0.906 0.021 0.021 0.041 0.042 0.063 0.063 0.265 0.298 0.548 0.558 0.844 0.813 0.041 0.041 0.083 0.085 0.125 0.125 0.324 0.369 0.693 0.698 1.063 1 0.305 0.344 0.624 0.652 0.969 0.938 0.31 0.355 0.647 0.675 1 0.969 0.324 0.372 0.692 0.695 1.063 1 0.307 0.35 0.62 0.679 0.969 0.969 0.299 0.346 0.629 0.649 0.969 0.938 0.316 0.371 0.669 0.695 1.031 1 0.336 0.393 0.706 0.744 1.094 1.063 0.301 0.342 0.627 0.653 0.969 0.938 0.324 0.374 0.69 0.726 1.063 1.031 0.31 0.354 0.646 0.677 1 0.969 0.342 0.394 0.697 0.776 1.094 1.094 0.303 0.337 0.625 0.658 0.969 0.938 0.302 0.341 0.625 0.686 0.969 0.969 0.308 0.352 0.648 0.678 1 0.969 0.298 0.342 0.628 0.653 0.969 0.938 0.316 0.367 0.667 0.729 1.031 1.031 0.305 0.354 0.65 0.644 1 0.938 0.316 0.37 0.666 0.696 1.031 1 0.286 0.332 0.58 0.658 0.906 0.938 0.31 0.371 0.672 0.694 1.031 1 0.291 0.346 0.634 0.648 0.969 0.938 0.374 0.45 0.804 0.863 1.25 1.219 0.264 0.295 0.547 0.561 0.844 0.813 0.338 0.401 0.697 0.769 1.094 1.094 0.326 0.375 0.684 0.725 1.063 1.031 0.25 0.283 0.531 0.538 0.813 0.781 0.36 0.436 0.759 0.84 1.188 1.188 0.286 0.326 0.611 0.602 0.938 0.875 0.356 0.419 0.703 0.821 1.125 1.156 0.308 0.345 0.615 0.684 0.969 0.969 0.304 0.345 0.619 0.652 0.969 0.938 0.311 0.359 0.639 0.704 1 1 0.316 0.365 0.664 0.7 1.031 1 0.309 0.355 0.642 0.676 1 0.969 0.299 0.344 0.624 0.682 0.969 0.969 0.316 0.368 0.632 0.697 1 1 0.302 0.351 0.619 0.677 0.969 0.969 0.324 0.382 0.682 0.719 1.063 1.031 0.282 0.327 0.582 0.631 0.906 0.906 0.341 0.409 0.72 0.763 1.125 1.094 0.263 0.304 0.544 0.585 0.844 0.844 0.332 0.404 0.7 0.733 1.094 1.063 0.303 0.359 0.616 0.702 0.969 1 0.329 0.393 0.673 0.742 1.063 1.063 0.32 0.373 0.688 0.694 1.063 1 0.314 0.363 0.633 0.733 1 1.031 0.284 0.326 0.611 0.601 0.938 0.875 0.354 0.419 0.703 0.82 1.125 1.156 0.304 0.341 0.618 0.686 0.969 0.969 0.3 0.342 0.621 0.684 0.969 0.969 0.323 0.373 0.652 0.726 1.031 1.031 0.285 0.325 0.578 0.633 0.906 0.906 0.305 0.359 0.643 0.67 1 0.969 0.318 0.377 0.656 0.72 1.031 1.031 0.296 0.346 0.593 0.679 0.938 0.969 0.315 0.373 0.661 0.723 1.031 1.031 0.282 0.33 0.611 0.627 0.938 0.906 0.293 0.353 0.626 0.672 0.969 0.969 0.333 0.407 0.695 0.761 1.094 1.094 0.297 0.35 0.622 0.675 0.969 0.969 0.295 0.353 0.623 0.673 0.969 0.969 0.301 0.363 0.615 0.665 0.969 0.969 0.292 0.354 0.627 0.671 0.969 0.969 0.009 0.012 0.022 0.02 0.031 0.031 5.764 0.455 11.588 0.688 17.469 0.688 81.32 0 152.28-44.34 190.03-110.16l-0.031-0.031-0.906-0.906-0.406-0.406-0.594-0.594-0.5-0.5h-0.031l-0.188-0.188-0.031-0.031v-0.031l-0.031-0.031-0.031-0.031-0.031-0.031-0.031-0.031-0.031-0.031-0.031-0.031-0.031-0.031-0.031-0.031-1-1-1-1-0.313-0.313-0.688-0.688-0.375-0.375h-0.031l-0.031-0.031-0.188-0.188-0.25-0.25-0.031-0.031v-0.031l-0.031-0.031-0.031-0.031-0.938-0.938-0.063-0.063-1-1-0.25-0.25-0.75-0.75-0.156-0.156-0.094-0.094-0.188-0.188h-0.031l-0.094-0.094-0.094-0.094-0.031-0.031v-0.031l-0.063-0.063-0.063-0.063-0.063-0.063-0.063-0.063-0.031-0.031-0.031-0.031-0.844-0.844-0.156-0.156-0.969-0.969-0.188-0.188-0.813-0.813-0.344-0.344h-0.031l-0.125-0.125-0.25-0.25-0.031-0.031v-0.031l-0.031-0.031-0.063-0.063-0.063-0.063-0.031-0.031-0.031-0.031-0.781-0.781-0.219-0.219-1-1-0.094-0.094-0.906-0.906-0.031-0.031h-0.031l-0.344-0.344-0.375-0.375-0.063-0.063v-0.031l-0.063-0.063-0.031-0.031-0.031-0.031-0.531-0.531h-0.031l-0.188-0.188-0.031-0.031v-0.031l-0.031-0.031-0.031-0.031-0.031-0.031-0.031-0.031-0.031-0.031-0.031-0.031-0.031-0.031-1-1-0.031-0.031-0.969-0.969-0.031-0.031h-0.031l-0.281-0.281-0.344-0.344-0.031-0.031v-0.031l-0.031-0.031-0.031-0.031-0.094-0.094-0.094-0.094-0.031-0.031-0.281-0.281h-0.031l-0.344-0.344-0.094-0.094-0.031-0.031v-0.031l-0.063-0.063-0.063-0.063-0.063-0.063-0.031-0.031-0.938-0.938-0.031-0.031-1-1-0.281-0.281-0.719-0.719-0.531-0.531h-0.031l-0.031-0.031-0.094-0.094-0.031-0.031v-0.031l-0.063-0.063-0.094-0.094-0.063-0.063-0.031-0.031-0.031-0.031-0.875-0.875-0.125-0.125-1-1-0.188-0.188-0.813-0.813-0.438-0.438h-0.031l-0.031-0.031-0.125-0.125-0.031-0.031v-0.031l-0.031-0.031-0.094-0.094-0.063-0.063-0.063-0.063-0.031-0.031-0.031-0.031-0.813-0.813-0.188-0.188-1-1-0.125-0.125-0.875-0.875-0.406-0.406h-0.031l-0.406-0.406-0.063-0.063v-0.031l-0.063-0.063-0.031-0.031-0.719-0.719-0.281-0.281-0.969-0.969-0.063-0.063-0.938-0.938-0.031-0.031h-0.031l-0.313-0.313-0.188-0.188-0.031-0.031v-0.031l-0.031-0.031-0.094-0.094-0.094-0.094-0.094-0.094-0.063-0.063-0.031-0.031-0.656-0.656-0.344-0.344-0.969-0.969-0.031-0.031-1-1-0.094-0.094h-0.031l-0.156-0.156-0.406-0.406-0.031-0.031v-0.031l-0.031-0.031-0.031-0.031-0.094-0.094-0.063-0.063-0.031-0.031-0.594-0.594-0.406-0.406-0.906-0.906-0.094-0.094-1-1h-0.031l-0.188-0.188-0.656-0.656-0.063-0.063v-0.031l-0.063-0.063-0.219-0.219h-0.031l-0.281-0.281-0.438-0.438-0.031-0.031v-0.031l-0.813-0.813-0.188-0.188-0.969-0.969-0.094-0.094h-0.031l-0.031-0.031-0.5-0.5-0.094-0.094-0.031-0.031v-0.031l-0.156-0.156-0.063-0.063-0.156-0.156h-0.031l-0.281-0.281-0.375-0.375-0.031-0.031v-0.031l-0.031-0.031-0.031-0.031-0.063-0.063-0.75-0.75-0.25-0.25-1-1h-0.031l-0.031-0.031-0.719-0.719-0.031-0.031v-0.031l-0.031-0.031-0.031-0.031-0.063-0.063-0.063-0.063-0.25-0.25h-0.031l-0.094-0.094-0.281-0.281-0.031-0.031v-0.031l-0.031-0.031-0.063-0.063-0.125-0.125-0.063-0.063-0.688-0.688-0.313-0.313-0.344-0.344h-0.031l-0.625-0.625v-0.031l-1-1-0.281-0.281h-0.031l-0.156-0.156-0.063-0.063-0.031-0.031v-0.031l-0.031-0.031-0.156-0.156-0.156-0.156-0.094-0.094-0.594-0.594-0.406-0.406-0.063-0.063h-0.031l-0.813-0.813-0.063-0.063v-0.031l-1-1-0.031-0.031h-0.031l-0.188-0.188-0.063-0.063-0.031-0.031-0.031-0.031v-0.031l-0.031-0.031-0.156-0.156-0.188-0.188-0.156-0.156-0.094-0.094-0.531-0.531-0.469-0.469-0.688-0.688h-0.031l-0.125-0.125-0.094-0.094-0.031-0.031v-0.031l-0.031-0.031-1-1-0.094-0.094-0.031-0.031h-0.031l-0.344-0.344-0.094-0.094v-0.031l-0.031-0.031-0.063-0.063-0.188-0.188-0.094-0.094-0.469-0.469-0.531-0.531-0.781-0.781-0.219-0.219-1-1h-0.031l-0.063-0.063-0.844-0.844-0.031-0.031v-0.031l-0.031-0.031-0.375-0.375-0.625-0.625-0.688-0.688-0.313-0.313-0.969-0.969h-0.031l-0.25-0.25-0.031-0.031-0.031-0.063-0.094-0.094-0.156-0.156c-0.067-0.066-0.12-0.12-0.188-0.188l-0.125-0.125-0.094-0.094-0.281-0.281h-0.031l-0.031-0.031-0.25-0.25-0.063-0.063v-0.031l-0.031-0.031-0.125-0.125-0.094-0.094-0.094-0.094-0.625-0.625-0.375-0.375h-0.031l-0.906-0.906-0.063-0.063v-0.031l-1-1-0.094-0.094h-0.031l-0.125-0.125-0.094-0.094-0.031-0.031v-0.031l-0.031-0.031-0.125-0.125-0.156-0.156-0.188-0.188-0.094-0.094-0.563-0.563-0.438-0.438-0.375-0.375h-0.031l-0.469-0.469-0.063-0.063-0.031-0.031v-0.031l-0.031-0.031-1-1-0.063-0.063h-0.031l-0.094-0.094-0.063-0.063-0.031-0.031v-0.031l-0.031-0.031-0.125-0.125-0.219-0.219-0.219-0.219-0.125-0.125-0.469-0.469-0.531-0.531-0.719-0.719h-0.031l-0.031-0.031-0.156-0.156-0.031-0.031v-0.031l-1-1-0.094-0.094h-0.031l-0.75-0.75-0.094-0.094-0.031-0.031v-0.031l-0.406-0.406-0.594-0.594-0.719-0.688-0.125-0.125-0.031-0.031v-0.031l-0.031-0.031-0.063-0.063-0.031-0.031-1-1h-0.031l-0.281-0.281c-0.047-0.046-0.047-0.047-0.094-0.094l-0.031-0.031-0.031-0.031c-0.013-0.013-0.082-0.113-0.094-0.125l-0.281-0.281-0.156-0.156-0.313-0.313-0.656-0.656-0.125-0.125c-0.001-0.001-0.03 0.001-0.031 0l-0.5-0.5-0.063-0.063-0.031-0.031c-0.001-0.001-0.03-0.061-0.031-0.063l-0.094-0.094-0.094-0.094-0.031-0.031-0.969-0.938-0.031-0.031c-0.001-0.001 0.001-0.03 0-0.031l-1-1-0.25-0.25-0.75-0.75-0.563-0.531-0.063-0.063-0.031-0.031c-0.015-0.015-0.048-0.08-0.063-0.094l-0.125-0.125-0.125-0.125-0.031-0.031-0.156-0.156c-0.002-0.002-0.029 0.002-0.031 0l-0.688-0.688-0.094-0.094c-0.001-0.001 0.001-0.03 0-0.031l-1-1-0.188-0.188-0.813-0.813-0.5-0.469-0.063-0.063-0.031-0.031c-0.01-0.01-0.053-0.084-0.063-0.094l-0.156-0.156-0.125-0.125-0.063-0.063-0.75-0.719-0.063-0.063v-0.031l-0.031-0.031-0.063-0.063-0.063-0.063-0.031-0.031-1-1-0.094-0.094c-0.003-0.003-0.029 0.003-0.031 0l-0.031-0.031c-0.018-0.018-0.077-0.108-0.094-0.125l-0.219-0.219-0.281-0.281c-0.084-0.083-0.133-0.133-0.219-0.219l-0.438-0.406-0.063-0.063-0.031-0.031c-0.006-0.006-0.089-0.12-0.094-0.125-0.094-0.093-0.094-0.094-0.188-0.188l-0.188-0.188-0.75-0.719-0.031-0.031c-0.009-0.009-0.022-0.053-0.031-0.063l-0.094-0.094-0.094-0.094-1-1h-0.031l-0.031-0.031-0.188-0.188-0.063-0.063c-0.02-0.02-0.236-0.268-0.25-0.281-0.218-0.217-0.219-0.219-0.438-0.438l-0.094-0.094c-0.004-0.004-0.027 0.004-0.031 0l-0.219-0.219-0.313-0.313-0.094-0.094-0.031-0.031c-0.048-0.048-0.175-0.206-0.219-0.25l-0.656-0.625-0.125-0.125c-0.006-0.006-0.026-0.057-0.031-0.063l-0.156-0.156-1-0.969v-0.031l-1-1-0.281-0.281-0.719-0.719-0.469-0.469c-0.035-0.035-0.091-0.059-0.125-0.094l-1.313-1.313-0.125-0.125c-0.175-0.175-0.736-0.767-0.844-0.875l-0.313-0.313c-0.005-0.005-1.089-1.057-1.313-1.281l-1.313-1.313-0.5-0.5c-0.226-0.225-0.212-0.243-0.438-0.469l-0.344-0.344-0.938-0.938c-0.173-0.173-0.206-0.174-0.375-0.344l-1.313-1.313-0.938-0.938-0.156-0.156c-0.024-0.024-0.008-0.039-0.031-0.063l-0.156-0.156c-0.005-0.005-1.059-1.028-1.313-1.281l-1.313-1.313-0.094-0.094c-0.015-0.015-0.312-0.343-0.313-0.344-0.248-0.248-0.256-0.257-0.5-0.5l-0.375-0.375-1.281-1.281c-0.002-0.002-0.03 0.002-0.031 0-0.005-0.005-1.029-1.03-1.313-1.313l-1.313-1.313-1.281-1.281-1.313-1.313-1.313-1.313-1.281-1.281-1.313-1.313-1.313-1.313-1.281-1.281-1.313-1.313-1.313-1.313-1.281-1.281-1.313-1.313-1.313-1.313-1.281-1.281-1.313-1.313-1.313-1.313-1.281-1.281-1.313-1.313-1.313-1.313-1.281-1.313c-0.005-0.005-0.764-0.734-1.313-1.281l-1.313-1.313-1.313-1.313-1.281-1.281-1.313-1.313-1.313-1.313-1.281-1.281-1.313-1.313-1.313-1.313-1.281-1.281-1.25-1.25-0.063-0.063-0.906-0.906-0.406-0.406-0.594-0.594-0.688-0.688-0.313-0.313-1-1" fill-opacity="0.235" id="path8"/>
 </g>
 <g transform="translate(-747.19,17.422)" id="g10">
  <path fill="#585858" fill-rule="evenodd" d="m1003.2 14.79c-85.72 0-161.05 43.559-204.11 109.3h408.21c-43.1-65.745-118.4-109.3-204.1-109.3" id="path12"/>
  <path fill="#5a5a5a" stroke-width="7" stroke-linecap="round" stroke="#ffffff" stroke-dashoffset="200" d="m818.57 98.34c-1.012 1.164-2.01 2.348-3 3.531h13.938v-3.53h-10.94zm32.938 0v3.531h32.844v-3.53h-32.844zm54.844 0v3.531h32.844v-3.53h-32.844zm54.844 0v3.531h32.813v-3.53h-32.813zm54.812 0v3.531h32.844v-3.53h-32.844zm54.844 0v3.531h32.813v-3.53h-32.813zm54.813 0v3.531h32.844v-3.53h-32.844zm54.844 0v3.531h10.313c-0.989-1.183-1.988-2.367-3-3.531h-7.313z" stroke-linejoin="round" id="path14"/>
 </g>
 <g fill-rule="evenodd" id="g16">
  <path d="m256 0.9c-140.83 0-255 114.17-255 255s114.17 255 255 255 255-114.17 255-255-114.17-255-255-255m8.827 44.931c120.9 0 218.9 98 218.9 218.9s-98 218.9-218.9 218.9-218.93-98-218.93-218.9 98.03-218.9 218.93-218.9" fill-opacity="0.067" id="path18"/>
  <g fill-opacity="0.129" id="g20">
   <path d="m256 4.333c-138.94 0-251.57 112.63-251.57 251.57s112.63 251.57 251.57 251.57 251.57-112.63 251.57-251.57-112.63-251.57-251.57-251.57m5.885 38.556c120.9 0 218.9 98 218.9 218.9s-98 218.9-218.9 218.9-218.93-98-218.93-218.9 98.03-218.9 218.93-218.9" id="path22"/>
   <path d="m256 8.256c-136.77 0-247.64 110.87-247.64 247.64s110.87 247.64 247.64 247.64 247.64-110.87 247.64-247.64-110.87-247.64-247.64-247.64m2.942 31.691c120.9 0 218.9 98 218.9 218.9s-98 218.9-218.9 218.9-218.93-98-218.93-218.9 98.03-218.9 218.93-218.9" id="path24"/>
  </g>
  <path fill="#ffffff" stroke-width="4.904" stroke="#000000" stroke-opacity="0.31" d="m253.04 7.759c-135.42 0-245.19 109.78-245.19 245.19 0 135.42 109.78 245.19 245.19 245.19 135.42 0 245.19-109.78 245.19-245.19 0-135.42-109.78-245.19-245.19-245.19zm0 26.297c120.9 0 218.9 98 218.9 218.9s-98 218.9-218.9 218.9-218.93-98-218.93-218.9 98.03-218.9 218.93-218.9z" id="path26"/>
 </g>
 <text font-family="Gentium Book Basic" x="729.64" y="231.26" line-height="125%" font-size="129.23" id="text28" word-spacing="0" letter-spacing="0"><tspan x="729.64" y="231.26" id="tspan30"/>
 </text>
 <text font-family="Arial" x="378.91" y="578.85" transform="scale(4.0128 .2492)" font-size="46.954" id="text32" text-anchor="middle"/>
 <text font-family="Gentium Book Basic" x="1310.91" y="151.26" line-height="125%" font-size="129.23" id="text34" word-spacing="0" letter-spacing="0"><tspan x="1310.91" y="151.26" id="tspan36"/>
 </text>
 <text font-family="Arial" x="523.76" y="257.82" transform="scale(4.0128 .2492)" font-size="46.954" id="text38" text-anchor="middle"/>
 <text font-family="Gentium Book Basic" x="239.33" y="-30" line-height="125%" font-size="129.23" id="text40" word-spacing="0" letter-spacing="0"><tspan x="239.33" y="-30" id="tspan42"/>
 </text>
 <text font-family="Arial" x="256.72" y="-469.54" transform="scale(4.0128 .2492)" font-size="46.954" id="text44" text-anchor="middle"/>
 <text font-family="Gentium Book Basic" x="1337.38" y="-246.47" line-height="125%" font-size="129.23" id="text46" word-spacing="0" letter-spacing="0"><tspan x="1337.38" y="-246.47" id="tspan48"/>
 </text>
 <text font-family="Arial" x="530.36" y="-1338.21" transform="scale(4.0128 .2492)" font-size="46.954" id="text50" text-anchor="middle"/>
 <text font-family="Gentium Book Basic" x="1918.65" y="-326.48" line-height="125%" font-size="129.23" id="text52" word-spacing="0" letter-spacing="0"><tspan x="1918.65" y="-326.48" id="tspan54"/>
 </text>
 <text font-family="Arial" x="675.21" y="-1659.25" transform="scale(4.0128 .2492)" font-size="46.954" id="text56" text-anchor="middle"/>
 <text font-family="Gentium Book Basic" x="1529.53" y="-798.88" line-height="125%" font-size="129.23" id="text58" word-spacing="0" letter-spacing="0"><tspan x="1529.53" y="-798.88" id="tspan60"/>
 </text>
 <text font-family="Arial" x="578.24" y="-3554.91" transform="scale(4.0128 .2492)" font-size="46.954" id="text62" text-anchor="middle"/>
 <text font-family="Gentium Book Basic" x="2110.79" y="-878.88" line-height="125%" font-size="129.23" id="text64" word-spacing="0" letter-spacing="0"><tspan x="2110.79" y="-878.88" id="tspan66"/>
 </text>
 <text font-family="Arial" x="723.09" y="-3875.94" transform="scale(4.0128 .2492)" font-size="46.954" id="text68" text-anchor="middle"/>
 <text font-family="Gentium Book Basic" x="277.99" y="535.84" line-height="125%" font-size="208.33" id="text70" word-spacing="0" letter-spacing="0"><tspan x="277.99" y="535.84" id="tspan72"/>
 </text>
 <g fill-rule="evenodd" transform="matrix(.43862 .43862 -.43862 .43862 483.79 -196.14)" fill="#ffffff" id="g74">
  <path transform="translate(0,540.36)" d="m185.53 141.97v245.63l56.656 109.75a15.316 17.064 0 0 0 15.469 8.5 15.316 17.064 0 0 0 11.031 -8.4062l57.75-111v-244.47h-140.91m71.344 211.97a4.2743 4.2743 0 0 1 3.4375 1.375l24.03 26.375h9.219a4.2743 4.2743 0 0 1 3.6875 6.4062l-29.16 50.44a4.2743 4.2743 0 0 1 -3.6875 2.1562h-15.438a4.2743 4.2743 0 0 1 -3.75 -2.1875l-29.28-52.5a4.2743 4.2743 0 0 1 3.7188 -6.375h12.406l21.938-24.281a4.2743 4.2743 0 0 1 2.875 -1.4062" id="path76"/>
  <rect x="185.55" y="546.36" width="140.92" height="56.5" ry="28.25" rx="62.13" id="rect78"/>
  <path d="m185.55 574.38h140.92v33.24h-140.92z" id="path80"/>
  <path d="m185.55 625.89h140.92v34.899h-140.92z" id="path82"/>
 </g>
</svg>
