<?xml version="1.0" encoding="UTF-8" standalone="no"?>
<svg xmlns="http://www.w3.org/2000/svg" xmlns:sodipodi="http://sodipodi.sourceforge.net/DTD/sodipodi-0.dtd" xmlns:inkscape="http://www.inkscape.org/namespaces/inkscape" height="512" viewBox="0 0 512 512" width="512" version="1.1">
 <metadata id="metadata86"/>
 <path fill="#b0b0b0" fill-rule="evenodd" d="m471.95 253.05c0 120.9-98.01 218.9-218.9 218.9-120.9 0-218.9-98.01-218.9-218.9 0-120.9 98.01-218.9 218.9-218.9 120.9 0 218.9 98.01 218.9 218.9" id="path4"/>
 <path d="m115.59 148v64.781h1v1h1v1h1v1h0.969v0.969h1v1h1v1h1v1h1v1h1v1h0.969v0.969h1v1h1v1h1v1h1v1h1v1h0.969v0.969h1v1h1v1h1v1h1v1h1v1h0.969v0.969h1v1h1v1h1v1h1v1h1v1h1v1h0.969v0.969h1v1h1v1h1v1h1v0.563h-32.844v64.813h1v1h1v1h1v1h0.969v0.969h1v1h1v1h1v1h1v1h1v1h0.969v0.969h1v1h1v1h1v1h1v1h1v1h0.969v0.969h1v1h1v1h1v1h1v1h1v1h0.969v0.969h1v1h1v1h1v1h1v1h1v1h1v1h0.969v0.969h1v1h1v1h1v1h1v0.563h-32.844v21.594h1v1h1v1h1v1h0.969v0.969h1v1h1v1h1v1h1v1h1v1h0.969v0.969h1v1h1v1h1v1h1v1h1v1h0.969v0.969h1v1h1v1h1v1h1v1h1v1h0.969v0.969h1v1h1v1h1v1h1v1h1v1h1v1h0.969v0.969h1v1h1v1h1v1h1v1h1v1h0.969v0.969h1v1h1v1h1v1h1v1h1v1h0.969v0.969h1v1h1v1h1v1h1v1h1v1h1v1h0.969v0.969h1v1h1v1h1v1h1v1h1v1h0.969v0.969h1v1h1v1h1v1h1v1h1v1h0.969v0.969h1v1h1v1h1v1h1v1h1v1h0.969v0.969h1v1h1v1h1v1h1v1h1v1h1v1h0.969v0.969h1v1h1v1h1v1h1v1h1v1h0.969v0.969h1v1h1v1h1v1h1v1h1v1h0.969v0.969h1v1h1v1h1v1h1v1h1v1h1v1h0.969v0.969h1v1h1v1h1v1h1v1h1v1h0.969v0.969h1v1h1v1h1v1h1v1h1v1h0.969v0.969h1v1h1v1h1v0.281c10.124 1.435 20.448 2.219 30.969 2.219 116.1 0 211.08-90.39 218.44-204.62-0.063-0.062-0.124-0.126-0.188-0.188-0.346-0.352-0.71-0.686-1.063-1.031-0.29-0.294-0.581-0.585-0.875-0.875-0.247-0.252-0.5-0.502-0.75-0.75-0.59-0.609-1.171-1.224-1.781-1.813-0.167-0.167-0.332-0.335-0.5-0.5-0.33-0.337-0.663-0.67-1-1-0.346-0.352-0.71-0.686-1.063-1.031-0.29-0.294-0.581-0.585-0.875-0.875-0.247-0.252-0.5-0.502-0.75-0.75-0.59-0.609-1.171-1.224-1.781-1.813-0.192-0.192-0.4-0.373-0.594-0.563-0.305-0.31-0.596-0.633-0.906-0.938-0.33-0.337-0.663-0.67-1-1-0.346-0.352-0.71-0.686-1.063-1.031-0.147-0.155-0.289-0.315-0.438-0.469-0.057-0.057-0.13-0.099-0.188-0.156-0.59-0.609-1.171-1.224-1.781-1.813-0.192-0.192-0.4-0.373-0.594-0.563-0.305-0.31-0.596-0.633-0.906-0.938-0.33-0.337-0.663-0.67-1-1-0.346-0.352-0.71-0.686-1.063-1.031-0.29-0.294-0.581-0.585-0.875-0.875-0.247-0.252-0.5-0.502-0.75-0.75-0.59-0.609-1.171-1.224-1.781-1.813-0.167-0.167-0.332-0.335-0.5-0.5-0.33-0.337-0.663-0.67-1-1-0.346-0.352-0.71-0.686-1.063-1.031-0.29-0.294-0.581-0.585-0.875-0.875-0.247-0.252-0.5-0.502-0.75-0.75-0.59-0.609-1.171-1.224-1.781-1.813-0.192-0.192-0.4-0.373-0.594-0.563-0.305-0.31-0.596-0.633-0.906-0.938-0.33-0.337-0.663-0.67-1-1-0.346-0.352-0.71-0.686-1.063-1.031-0.147-0.155-0.289-0.315-0.438-0.469-0.057-0.057-0.13-0.099-0.188-0.156-0.59-0.609-1.171-1.224-1.781-1.813-0.192-0.192-0.4-0.373-0.594-0.563-0.305-0.31-0.596-0.633-0.906-0.938-0.33-0.337-0.663-0.67-1-1-0.346-0.352-0.71-0.686-1.063-1.031-0.147-0.155-0.289-0.315-0.438-0.469-0.057-0.057-0.13-0.099-0.188-0.156-0.431-0.444-0.839-0.91-1.281-1.344-0.49-0.5-0.996-0.983-1.5-1.469-0.167-0.167-0.332-0.335-0.5-0.5-0.33-0.337-0.663-0.67-1-1-0.346-0.352-0.71-0.686-1.063-1.031-0.29-0.294-0.581-0.585-0.875-0.875-0.247-0.252-0.5-0.502-0.75-0.75-0.59-0.609-1.171-1.224-1.781-1.813-0.167-0.167-0.332-0.335-0.5-0.5-0.33-0.337-0.663-0.67-1-1-0.346-0.352-0.71-0.686-1.063-1.031-0.29-0.294-0.581-0.585-0.875-0.875-0.247-0.252-0.5-0.502-0.75-0.75-0.59-0.609-1.171-1.224-1.781-1.813-0.192-0.192-0.4-0.373-0.594-0.563-0.305-0.31-0.596-0.633-0.906-0.938-0.33-0.337-0.663-0.67-1-1-0.346-0.352-0.71-0.686-1.063-1.031-0.147-0.155-0.289-0.315-0.438-0.469-0.057-0.057-0.13-0.099-0.188-0.156-0.59-0.609-1.171-1.224-1.781-1.813-0.192-0.192-0.4-0.373-0.594-0.563-0.305-0.31-0.596-0.633-0.906-0.938-0.33-0.337-0.663-0.67-1-1-0.346-0.352-0.71-0.686-1.063-1.031-0.29-0.294-0.581-0.585-0.875-0.875-0.247-0.252-0.5-0.502-0.75-0.75-0.59-0.609-1.171-1.224-1.781-1.813-0.167-0.167-0.332-0.335-0.5-0.5-0.33-0.337-0.663-0.67-1-1-0.346-0.352-0.71-0.686-1.063-1.031-0.29-0.294-0.581-0.585-0.875-0.875-0.247-0.252-0.5-0.502-0.75-0.75-0.59-0.609-1.171-1.224-1.781-1.813-0.192-0.192-0.4-0.373-0.594-0.563-0.305-0.31-0.596-0.633-0.906-0.938-0.33-0.337-0.663-0.67-1-1-0.346-0.352-0.71-0.686-1.063-1.031-0.147-0.155-0.289-0.315-0.438-0.469-0.057-0.057-0.13-0.099-0.188-0.156-0.59-0.609-1.171-1.224-1.781-1.813-0.192-0.192-0.4-0.373-0.594-0.563-0.305-0.31-0.596-0.633-0.906-0.938-0.33-0.337-0.663-0.67-1-1-0.346-0.352-0.71-0.686-1.063-1.031-0.147-0.155-0.289-0.315-0.438-0.469-0.057-0.057-0.13-0.099-0.188-0.156-0.447-0.46-0.886-0.926-1.344-1.375-0.475-0.483-0.95-0.968-1.438-1.438-0.167-0.167-0.332-0.335-0.5-0.5-0.33-0.337-0.663-0.67-1-1-0.346-0.352-0.71-0.686-1.063-1.031-0.29-0.294-0.581-0.585-0.875-0.875-0.247-0.252-0.5-0.502-0.75-0.75-0.59-0.609-1.171-1.224-1.781-1.813-0.167-0.167-0.332-0.335-0.5-0.5-0.33-0.337-0.663-0.67-1-1-0.346-0.352-0.71-0.686-1.063-1.031-0.29-0.294-0.581-0.585-0.875-0.875-0.247-0.252-0.5-0.502-0.75-0.75-13.738-14.16-32.957-22.969-54.25-22.969v21.719c-0.295 0-0.581 0.027-0.875 0.031v-1.031c-0.326 0-0.644 0.027-0.969 0.031v-1c-0.334 0-0.667 0.027-1 0.031v-1.031c-0.334 0-0.667 0.027-1 0.031v-1.031c-0.334 0-0.667 0.027-1 0.031v-1.031c-0.337 0-0.664 0.027-1 0.031v-1.031c-0.337 0-0.664 0.027-1 0.031v-1.031c-0.326 0-0.644 0.027-0.969 0.031v-1c-0.334 0-0.667 0.027-1 0.031v-1.031c-0.334 0-0.667 0.027-1 0.031v-1.031c-0.334 0-0.667 0.027-1 0.031v-1.031c-26.446 0-49.71 13.586-63.22 34.16v-0.156h-1v-1h-1v-1h-1v-1h-1v-1h-0.969v-0.969h-1v-1h-1v-1h-1v-1h-1v-1h-1v-1h-0.969v-0.969h-1v-1h-1v-1h-1v-1h-1v-1h-1v-1h-0.969v-0.969h-1v-1h-1v-1h-1v-1h-1v-1h-1v-1h-1v-1h-0.969v-0.969h-1v-1h-1v-1h-1v-1h-1v-1h-1v-1h-0.969v-0.969h-1v-1h-1v-1h-1v-1h-1v-1h-1v-1h-0.969v-0.969h-1v-1h-1v-1h-1v-1h-1v-1h-1v-1h-0.969v-0.969h-1v-1h-1v-1h-1v-1h-86.41" fill-opacity="0.235" id="path6"/>
 <g fill-rule="evenodd" id="g8">
  <path d="m256 1c-140.83 0-255 114.17-255 255s114.17 255 255 255 255-114.17 255-255-114.17-255-255-255m8.827 44.931c120.9 0 218.9 98 218.9 218.9s-98 218.9-218.9 218.9-218.93-98-218.93-218.9 98.03-218.9 218.93-218.9" fill-opacity="0.067" id="path10"/>
  <g fill-opacity="0.129" id="g12">
   <path d="m256 4.433c-138.94 0-251.57 112.63-251.57 251.57s112.63 251.57 251.57 251.57 251.57-112.63 251.57-251.57-112.63-251.57-251.57-251.57m5.885 38.556c120.9 0 218.9 98 218.9 218.9s-98 218.9-218.9 218.9-218.93-98-218.93-218.9 98.03-218.9 218.93-218.9" id="path14"/>
   <path d="m256 8.356c-136.77 0-247.64 110.87-247.64 247.64s110.87 247.64 247.64 247.64 247.64-110.87 247.64-247.64-110.87-247.64-247.64-247.64m2.942 31.691c120.9 0 218.9 98 218.9 218.9s-98 218.9-218.9 218.9-218.93-98-218.93-218.9 98.03-218.9 218.93-218.9" id="path16"/>
  </g>
  <path fill="#ffffff" stroke-width="4.904" stroke="#000000" stroke-opacity="0.31" d="m253.04 7.859c-135.42 0-245.19 109.78-245.19 245.19 0 135.42 109.78 245.19 245.19 245.19 135.42 0 245.19-109.78 245.19-245.19 0-135.42-109.78-245.19-245.19-245.19zm0 26.297c120.9 0 218.9 98 218.9 218.9s-98 218.9-218.9 218.9-218.93-98-218.93-218.9 98.03-218.9 218.93-218.9z" id="path18"/>
 </g>
 <text font-family="Gentium Book Basic" x="729.64" y="231.36" line-height="125%" font-size="129.23" id="text20" word-spacing="0" letter-spacing="0"><tspan x="729.64" y="231.36" id="tspan22"/>
 </text>
 <text font-family="Arial" x="378.91" y="579.25" transform="scale(4.0128 .2492)" font-size="46.954" id="text24" text-anchor="middle"/>
 <text font-family="Gentium Book Basic" x="1310.91" y="151.36" line-height="125%" font-size="129.23" id="text26" word-spacing="0" letter-spacing="0"><tspan x="1310.91" y="151.36" id="tspan28"/>
 </text>
 <text font-family="Arial" x="523.76" y="258.22" transform="scale(4.0128 .2492)" font-size="46.954" id="text30" text-anchor="middle"/>
 <text font-family="Gentium Book Basic" x="239.33" y="-29.901" line-height="125%" font-size="129.23" id="text32" word-spacing="0" letter-spacing="0"><tspan x="239.33" y="-29.901" id="tspan34"/>
 </text>
 <text font-family="Arial" x="256.72" y="-469.14" transform="scale(4.0128 .2492)" font-size="46.954" id="text36" text-anchor="middle"/>
 <text font-family="Gentium Book Basic" x="1337.38" y="-246.37" line-height="125%" font-size="129.23" id="text38" word-spacing="0" letter-spacing="0"><tspan x="1337.38" y="-246.37" id="tspan40"/>
 </text>
 <text font-family="Arial" x="530.36" y="-1337.81" transform="scale(4.0128 .2492)" font-size="46.954" id="text42" text-anchor="middle"/>
 <text font-family="Gentium Book Basic" x="1918.65" y="-326.38" line-height="125%" font-size="129.23" id="text44" word-spacing="0" letter-spacing="0"><tspan x="1918.65" y="-326.38" id="tspan46"/>
 </text>
 <text font-family="Arial" x="675.21" y="-1658.85" transform="scale(4.0128 .2492)" font-size="46.954" id="text48" text-anchor="middle"/>
 <text font-family="Gentium Book Basic" x="1529.53" y="-798.78" line-height="125%" font-size="129.23" id="text50" word-spacing="0" letter-spacing="0"><tspan x="1529.53" y="-798.78" id="tspan52"/>
 </text>
 <text font-family="Arial" x="578.24" y="-3554.51" transform="scale(4.0128 .2492)" font-size="46.954" id="text54" text-anchor="middle"/>
 <text font-family="Gentium Book Basic" x="2110.79" y="-878.78" line-height="125%" font-size="129.23" id="text56" word-spacing="0" letter-spacing="0"><tspan x="2110.79" y="-878.78" id="tspan58"/>
 </text>
 <text font-family="Arial" x="723.09" y="-3875.54" transform="scale(4.0128 .2492)" font-size="46.954" id="text60" text-anchor="middle"/>
 <text font-family="Gentium Book Basic" x="277.99" y="535.94" line-height="125%" font-size="208.33" id="text62" word-spacing="0" letter-spacing="0"><tspan x="277.99" y="535.94" id="tspan64"/>
 </text>
 <g fill="#f9f9f9" transform="matrix(1.3984,0,0,1.3984,549.67,4.03)" id="g66">
  <g transform="matrix(27.369 0 0 27.369 -399.24 -5.194)" id="g68">
   <path d="m3.246 3.951h2.258v1.693h-2.258z" id="path70"/>
   <path d="m3.246 6.491h2.258v1.693h-2.258z" id="path72"/>
   <path d="m3.246 9.03h7.338v0.564h-7.338z" id="path74"/>
  </g>
  <g transform="matrix(27.369 0 0 27.369 -391.52 -5.194)" id="g76">
   <path d="m8.326 3.951v1.976h1.976c0-1.091-0.884-1.976-1.976-1.976" id="path78"/>
   <path d="m8.04 4.233c-1.091 0-1.976 0.884-1.976 1.976 0 1.091 0.884 1.976 1.976 1.976 1.091 0 1.976-0.884 1.976-1.976h-1.976v-1.976" id="path80"/>
  </g>
 </g>
</svg>
