<?xml version="1.0" encoding="UTF-8" standalone="no"?>
<svg xmlns="http://www.w3.org/2000/svg" xmlns:sodipodi="http://sodipodi.sourceforge.net/DTD/sodipodi-0.dtd" xmlns:inkscape="http://www.inkscape.org/namespaces/inkscape" height="512" viewBox="0 0 512 512" width="512" version="1.1">
 <metadata id="metadata292"/>
 <g fill-rule="evenodd" id="g4">
  <path d="m471.95 253.05c0 120.9-98.01 218.9-218.9 218.9-120.9 0-218.9-98.01-218.9-218.9 0-120.9 98.01-218.9 218.9-218.9 120.9 0 218.9 98.01 218.9 218.9" fill="#8e8e8e" id="path6"/>
  <path d="m230.31 95.34c-36.798 0.021-68.25 36.01-62.875 72.59 1.304 13.919 7.962 26.691 17.469 36.594 19.308 20.708 39.26 39.833 57.938 58.688-10.685 10.554-24.429 1.499-31.969-7.875-13.736-14.594-37.747-18.482-54.09-5.719-30.751 22.472-37.69 65.12-29.28 100.28l5.906 32.844c15.272 9.993 57.32 56.05 87.09 86.81 10.621 1.583 21.469 2.406 32.531 2.406 103.15 0 189.65-71.37 212.81-167.41-65.2-69.34-125.61-127.99-186.47-188.75-10.456-8.638-21.981-16.864-36.09-18.281-3.386-1.498-8.881 0.956-11.219-2.156-0.587-0.018-1.166-0.032-1.75-0.031" fill-opacity="0.235" id="path8"/>
  <path d="m256 1c-140.83 0-255 114.17-255 255s114.17 255 255 255 255-114.17 255-255-114.17-255-255-255m8.827 44.931c120.9 0 218.9 98 218.9 218.9s-98 218.9-218.9 218.9-218.93-98-218.93-218.9 98.03-218.9 218.93-218.9" fill-opacity="0.067" id="path10"/>
  <g fill-opacity="0.129" id="g12">
   <path d="m256 4.433c-138.94 0-251.57 112.63-251.57 251.57s112.63 251.57 251.57 251.57 251.57-112.63 251.57-251.57-112.63-251.57-251.57-251.57m5.885 38.556c120.9 0 218.9 98 218.9 218.9s-98 218.9-218.9 218.9-218.93-98-218.93-218.9 98.03-218.9 218.93-218.9" id="path14"/>
   <path d="m256 8.356c-136.77 0-247.64 110.87-247.64 247.64s110.87 247.64 247.64 247.64 247.64-110.87 247.64-247.64-110.87-247.64-247.64-247.64m2.942 31.691c120.9 0 218.9 98 218.9 218.9s-98 218.9-218.9 218.9-218.93-98-218.93-218.9 98.03-218.9 218.93-218.9" id="path16"/>
  </g>
  <path fill="#ffffff" stroke-width="4.904" stroke="#000000" stroke-opacity="0.31" d="m253.04 7.859c-135.42 0-245.19 109.78-245.19 245.19 0 135.42 109.78 245.19 245.19 245.19 135.42 0 245.19-109.78 245.19-245.19 0-135.42-109.78-245.19-245.19-245.19zm0 26.297c120.9 0 218.9 98 218.9 218.9s-98 218.9-218.9 218.9-218.93-98-218.93-218.9 98.03-218.9 218.93-218.9z" id="path18"/>
 </g>
 <text font-family="Gentium Book Basic" x="729.64" y="231.36" line-height="125%" font-size="129.23" id="text20" word-spacing="0" letter-spacing="0"><tspan x="729.64" y="231.36" id="tspan22"/>
 </text>
 <text font-family="Arial" x="378.91" y="579.25" transform="scale(4.0128 .2492)" font-size="46.954" id="text24" text-anchor="middle"/>
 <text font-family="Gentium Book Basic" x="1310.91" y="151.36" line-height="125%" font-size="129.23" id="text26" word-spacing="0" letter-spacing="0"><tspan x="1310.91" y="151.36" id="tspan28"/>
 </text>
 <text font-family="Arial" x="523.76" y="258.22" transform="scale(4.0128 .2492)" font-size="46.954" id="text30" text-anchor="middle"/>
 <text font-family="Gentium Book Basic" x="239.33" y="-29.901" line-height="125%" font-size="129.23" id="text32" word-spacing="0" letter-spacing="0"><tspan x="239.33" y="-29.901" id="tspan34"/>
 </text>
 <text font-family="Arial" x="256.72" y="-469.14" transform="scale(4.0128 .2492)" font-size="46.954" id="text36" text-anchor="middle"/>
 <text font-family="Gentium Book Basic" x="1337.38" y="-246.37" line-height="125%" font-size="129.23" id="text38" word-spacing="0" letter-spacing="0"><tspan x="1337.38" y="-246.37" id="tspan40"/>
 </text>
 <text font-family="Arial" x="530.36" y="-1337.81" transform="scale(4.0128 .2492)" font-size="46.954" id="text42" text-anchor="middle"/>
 <text font-family="Gentium Book Basic" x="1918.65" y="-326.38" line-height="125%" font-size="129.23" id="text44" word-spacing="0" letter-spacing="0"><tspan x="1918.65" y="-326.38" id="tspan46"/>
 </text>
 <text font-family="Arial" x="675.21" y="-1658.85" transform="scale(4.0128 .2492)" font-size="46.954" id="text48" text-anchor="middle"/>
 <text font-family="Gentium Book Basic" x="1529.53" y="-798.78" line-height="125%" font-size="129.23" id="text50" word-spacing="0" letter-spacing="0"><tspan x="1529.53" y="-798.78" id="tspan52"/>
 </text>
 <text font-family="Arial" x="578.24" y="-3554.51" transform="scale(4.0128 .2492)" font-size="46.954" id="text54" text-anchor="middle"/>
 <text font-family="Gentium Book Basic" x="2110.79" y="-878.78" line-height="125%" font-size="129.23" id="text56" word-spacing="0" letter-spacing="0"><tspan x="2110.79" y="-878.78" id="tspan58"/>
 </text>
 <text font-family="Arial" x="723.09" y="-3875.54" transform="scale(4.0128 .2492)" font-size="46.954" id="text60" text-anchor="middle"/>
 <g line-height="125%" font-family="Gentium Book Basic" id="g62" word-spacing="0" letter-spacing="0">
  <text font-size="208.33" x="277.99" y="535.94" id="text64"><tspan x="277.99" y="535.94" id="tspan66"/>
  </text>
  <text font-size="4848.5" x="-27857.79" y="1333.14" id="text68"><tspan x="-27857.79" y="1333.14" id="tspan70"/>
  </text>
 </g>
 <text font-family="Arial" x="452.3" y="-7750.68" transform="scale(4.0128 .2492)" font-size="1761.8" id="text72" text-anchor="middle"/>
 <text font-family="Gentium Book Basic" x="-27992.54" y="2245.22" line-height="125%" font-size="4848.5" id="text74" word-spacing="0" letter-spacing="0"><tspan x="-27992.54" y="2245.22" id="tspan76"/>
 </text>
 <text font-family="Arial" x="418.77" y="-4090.74" transform="scale(4.0128 .2492)" font-size="1761.8" id="text78" text-anchor="middle"/>
 <g fill="#565656" id="g80">
  <text line-height="125%" font-family="Gentium Book Basic" x="-13493.03" y="-4803.86" font-size="2976.2" transform="scale(1.0508 .95163)" id="text82" word-spacing="0" letter-spacing="0"><tspan x="-13493.03" y="-4803.86" id="tspan84"/>
  </text>
  <text font-family="Arial" x="1176.55" y="-27318.7" transform="scale(4.2168 .23715)" font-size="1081.5" id="text86" text-anchor="middle"/>
  <text line-height="125%" font-family="Gentium Book Basic" x="-4089.96" y="-5628.9" font-size="1593.3" transform="scale(1.0508 .95163)" id="text88" word-spacing="0" letter-spacing="0"><tspan x="-4089.96" y="-5628.9" id="tspan90"/>
  </text>
  <text font-family="Arial" x="1410.66" y="-26892.56" transform="scale(4.2168 .23715)" font-size="578.9" id="text92" text-anchor="middle"/>
  <text font-family="Gentium Book Basic" x="-40192.67" y="-1780.6" line-height="125%" font-size="4654.7" id="text94" word-spacing="0" letter-spacing="0"><tspan x="-40192.67" y="-1780.6" id="tspan96"/>
  </text>
  <text font-family="Arial" x="-2917.18" y="-19720.97" transform="scale(4.0128 .2492)" font-size="1691.2" id="text98" text-anchor="middle"/>
 </g>
 <g id="g100">
  <text stroke-width="23.274" x="-26009.19" y="-14007.49" stroke="#545454" line-height="125%" font-size="4848.5" font-family="Gentium Book Basic" id="text102" word-spacing="0" letter-spacing="0"><tspan x="-26009.19" y="-14007.49" id="tspan104"/>
  </text>
  <text font-family="Arial" x="913.11" y="-69309.72" transform="scale(4.0128 .2492)" font-size="1761.8" id="text106" text-anchor="middle"/>
  <text stroke-width="23.274" x="-26144.18" y="-13095.41" stroke="#545454" line-height="125%" font-size="4848.5" font-family="Gentium Book Basic" id="text108" word-spacing="0" letter-spacing="0"><tspan x="-26144.18" y="-13095.41" id="tspan110"/>
  </text>
  <text font-family="Arial" x="879.43" y="-65649.55" transform="scale(4.0128 .2492)" font-size="1761.8" id="text112" text-anchor="middle"/>
 </g>
 <g fill="#565656" id="g114">
  <g stroke="#545454" id="g116">
   <text line-height="125%" font-family="Gentium Book Basic" x="-11733.85" y="-20924.11" font-size="2976.2" transform="scale(1.0508 .95163)" stroke-width="23.273" id="text118" word-spacing="0" letter-spacing="0"><tspan x="-11733.85" y="-20924.11" id="tspan120"/>
   </text>
   <text font-family="Arial" x="1615" y="-92007.3" transform="scale(4.2168 .23715)" font-size="1081.5" stroke-width="23.274" id="text122" text-anchor="middle"/>
   <text line-height="125%" font-family="Gentium Book Basic" x="-2330.98" y="-21749.15" font-size="1593.3" transform="scale(1.0508 .95163)" stroke-width="23.273" id="text124" word-spacing="0" letter-spacing="0"><tspan x="-2330.98" y="-21749.15" id="tspan126"/>
   </text>
   <text font-family="Arial" x="1848.9" y="-91581.16" transform="scale(4.2168 .23715)" font-size="578.91" stroke-width="23.274" id="text128" text-anchor="middle"/>
   <text font-family="Gentium Book Basic" x="-38344.07" y="-17121.24" line-height="125%" font-size="4654.7" stroke-width="23.273" id="text130" word-spacing="0" letter-spacing="0"><tspan x="-38344.07" y="-17121.24" id="tspan132"/>
   </text>
  </g>
  <text font-family="Arial" x="-2456.61" y="-81280.02" transform="scale(4.0128 .2492)" font-size="1691.2" id="text134" text-anchor="middle"/>
 </g>
 <g id="g136">
  <text stroke-width="23.274" x="-9032.9" y="-20697.19" stroke="#545454" line-height="125%" font-size="4654.7" font-family="Gentium Book Basic" id="text138" word-spacing="0" letter-spacing="0"><tspan x="-9032.9" y="-20697.19" id="tspan140"/>
  </text>
  <text font-family="Arial" x="4847.67" y="-95629.52" transform="scale(4.0128 .2492)" font-size="1691.2" id="text142" text-anchor="middle"/>
  <text stroke-width="23.274" x="11904.28" y="-23578.9" stroke="#545454" line-height="125%" font-size="4654.7" font-family="Gentium Book Basic" id="text144" word-spacing="0" letter-spacing="0"><tspan x="11904.28" y="-23578.9" id="tspan146"/>
  </text>
  <text font-family="Arial" x="10065.26" y="-107193.01" transform="scale(4.0128 .2492)" font-size="1691.2" id="text148" text-anchor="middle"/>
 </g>
 <text font-family="Gentium Book Basic" x="-40497.09" y="6633.88" line-height="125%" font-size="4848.5" id="text150" word-spacing="0" letter-spacing="0"><tspan x="-40497.09" y="6633.88" id="tspan152"/>
 </text>
 <text font-family="Arial" x="-2697.25" y="13520.5" transform="scale(4.0128 .2492)" font-size="1761.8" id="text154" text-anchor="middle"/>
 <text font-family="Gentium Book Basic" x="3492.36" y="-770.75" line-height="125%" font-size="3007.6" id="text156" word-spacing="0" letter-spacing="0"><tspan x="3492.36" y="-770.75" id="tspan158"/>
 </text>
 <text font-family="Arial" x="5456.95" y="-11218.6" transform="scale(4.0128 .2492)" font-size="1092.8" id="text160" text-anchor="middle"/>
 <text font-family="Gentium Book Basic" x="17020.47" y="-2632.64" line-height="125%" font-size="3007.6" id="text162" word-spacing="0" letter-spacing="0"><tspan x="17020.47" y="-2632.64" id="tspan164"/>
 </text>
 <text font-family="Arial" x="8828.07" y="-18690.2" transform="scale(4.0128 .2492)" font-size="1092.8" id="text166" text-anchor="middle"/>
 <text font-family="Gentium Book Basic" x="-7918.8" y="-6851.17" line-height="125%" font-size="3007.6" id="text168" word-spacing="0" letter-spacing="0"><tspan x="-7918.8" y="-6851.17" id="tspan170"/>
 </text>
 <text font-family="Arial" x="2613.21" y="-35617.91" transform="scale(4.0128 .2492)" font-size="1092.8" id="text172" text-anchor="middle"/>
 <text font-family="Gentium Book Basic" x="17636.51" y="-11889.15" line-height="125%" font-size="3007.6" id="text174" word-spacing="0" letter-spacing="0"><tspan x="17636.51" y="-11889.15" id="tspan176"/>
 </text>
 <text font-family="Arial" x="8981.67" y="-55834.81" transform="scale(4.0128 .2492)" font-size="1092.8" id="text178" text-anchor="middle"/>
 <text font-family="Gentium Book Basic" x="31164.38" y="-13751.02" line-height="125%" font-size="3007.6" id="text180" word-spacing="0" letter-spacing="0"><tspan x="31164.38" y="-13751.02" id="tspan182"/>
 </text>
 <text font-family="Arial" x="12352.78" y="-63306.18" transform="scale(4.0128 .2492)" font-size="1092.8" id="text184" text-anchor="middle"/>
 <text font-family="Gentium Book Basic" x="22108.26" y="-24745.35" line-height="125%" font-size="3007.6" id="text186" word-spacing="0" letter-spacing="0"><tspan x="22108.26" y="-24745.35" id="tspan188"/>
 </text>
 <text font-family="Arial" x="10095.98" y="-107424.11" transform="scale(4.0128 .2492)" font-size="1092.8" id="text190" text-anchor="middle"/>
 <text font-family="Gentium Book Basic" x="35636.37" y="-26607.46" line-height="125%" font-size="3007.6" id="text192" word-spacing="0" letter-spacing="0"><tspan x="35636.37" y="-26607.46" id="tspan194"/>
 </text>
 <text font-family="Arial" x="13467.1" y="-114895.7" transform="scale(4.0128 .2492)" font-size="1092.8" id="text196" text-anchor="middle"/>
 <text font-family="Gentium Book Basic" x="-7019.29" y="6317.83" line-height="125%" font-size="4848.5" id="text198" word-spacing="0" letter-spacing="0"><tspan x="-7019.29" y="6317.83" id="tspan200"/>
 </text>
 <path fill="#ffffff" fill-rule="evenodd" d="m232.08 95.36c-35.912 0-65.09 29.16-65.09 65.09 0 35.912 29.16 65.09 65.09 65.09 35.912 0 65.09-29.16 65.09-65.09 0-35.912-29.16-65.09-65.09-65.09m-54.999 146.45c-32.661 3.104-60.868 48.2-51.07 100.45l7.29 40.4h182.94v-37.599h-51.627v-78.557h51.627v-9.534c-17.291-17.704-41.21-21.87-62.29-2.801-21.08 19.09-23.25 19.09-44.34 0-10.648-9.642-21.658-13.377-32.553-12.353m114.47 51.623v24.689h48.27c-0.252-8.762-1.221-16.932-3.376-24.689h-44.894" id="path202"/>
 <text font-family="Gentium Book Basic" x="-28732.17" y="1332.21" line-height="125%" font-size="4848.5" id="text204" word-spacing="0" letter-spacing="0"><tspan x="-28732.17" y="1332.21" id="tspan206"/>
 </text>
 <text font-family="Arial" x="234.46" y="-7754.63" transform="scale(4.0128 .2492)" font-size="1761.8" id="text208" text-anchor="middle"/>
 <text font-family="Gentium Book Basic" x="-28866.93" y="2244.29" line-height="125%" font-size="4848.5" id="text210" word-spacing="0" letter-spacing="0"><tspan x="-28866.93" y="2244.29" id="tspan212"/>
 </text>
 <text font-family="Arial" x="200.88" y="-4094.46" transform="scale(4.0128 .2492)" font-size="1761.8" id="text214" text-anchor="middle"/>
 <g fill="#565656" id="g216">
  <text line-height="125%" font-family="Gentium Book Basic" x="-14325.04" y="-4804.79" font-size="2976.2" transform="scale(1.0508 .95163)" id="text218" word-spacing="0" letter-spacing="0"><tspan x="-14325.04" y="-4804.79" id="tspan220"/>
  </text>
  <text font-family="Arial" x="969.16" y="-27322.65" transform="scale(4.2168 .23715)" font-size="1081.5" id="text222" text-anchor="middle"/>
  <text line-height="125%" font-family="Gentium Book Basic" x="-4922.21" y="-5629.83" font-size="1593.3" transform="scale(1.0508 .95163)" id="text224" word-spacing="0" letter-spacing="0"><tspan x="-4922.21" y="-5629.83" id="tspan226"/>
  </text>
  <text font-family="Arial" x="1203.29" y="-26896.75" transform="scale(4.2168 .23715)" font-size="578.9" id="text228" text-anchor="middle"/>
  <text font-family="Gentium Book Basic" x="-41067.05" y="-1781.53" line-height="125%" font-size="4654.7" id="text230" word-spacing="0" letter-spacing="0"><tspan x="-41067.05" y="-1781.53" id="tspan232"/>
  </text>
  <text font-family="Arial" x="-3135.01" y="-19724.93" transform="scale(4.0128 .2492)" font-size="1691.2" id="text234" text-anchor="middle"/>
 </g>
 <g id="g236">
  <text stroke-width="23.274" x="-26883.57" y="-14008.42" stroke="#545454" line-height="125%" font-size="4848.5" font-family="Gentium Book Basic" id="text238" word-spacing="0" letter-spacing="0"><tspan x="-26883.57" y="-14008.42" id="tspan240"/>
  </text>
  <text font-family="Arial" x="695.14" y="-69313.44" transform="scale(4.0128 .2492)" font-size="1761.8" id="text242" text-anchor="middle"/>
  <text stroke-width="23.274" x="-27018.32" y="-13096.34" stroke="#545454" line-height="125%" font-size="4848.5" font-family="Gentium Book Basic" id="text244" word-spacing="0" letter-spacing="0"><tspan x="-27018.32" y="-13096.34" id="tspan246"/>
  </text>
  <text font-family="Arial" x="661.53" y="-65653.51" transform="scale(4.0128 .2492)" font-size="1761.8" id="text248" text-anchor="middle"/>
 </g>
 <g fill="#565656" id="g250">
  <g stroke="#545454" id="g252">
   <text line-height="125%" font-family="Gentium Book Basic" x="-12565.87" y="-20925.04" font-size="2976.2" transform="scale(1.0508 .95163)" stroke-width="23.273" id="text254" word-spacing="0" letter-spacing="0"><tspan x="-12565.87" y="-20925.04" id="tspan256"/>
   </text>
   <text font-family="Arial" x="1407.58" y="-92011.26" transform="scale(4.2168 .23715)" font-size="1081.5" stroke-width="23.274" id="text258" text-anchor="middle"/>
   <text line-height="125%" font-family="Gentium Book Basic" x="-3163" y="-21750.08" font-size="1593.3" transform="scale(1.0508 .95163)" stroke-width="23.273" id="text260" word-spacing="0" letter-spacing="0"><tspan x="-3163" y="-21750.08" id="tspan262"/>
   </text>
   <text font-family="Arial" x="1641.65" y="-91585.35" transform="scale(4.2168 .23715)" font-size="578.91" stroke-width="23.274" id="text264" text-anchor="middle"/>
   <text font-family="Gentium Book Basic" x="-39218.45" y="-17122.17" line-height="125%" font-size="4654.7" stroke-width="23.273" id="text266" word-spacing="0" letter-spacing="0"><tspan x="-39218.45" y="-17122.17" id="tspan268"/>
   </text>
  </g>
  <text font-family="Arial" x="-2674.44" y="-81283.95" transform="scale(4.0128 .2492)" font-size="1691.2" id="text270" text-anchor="middle"/>
 </g>
 <g id="g272">
  <text stroke-width="23.274" x="-9907.28" y="-20698.12" stroke="#545454" line-height="125%" font-size="4654.7" font-family="Gentium Book Basic" id="text274" word-spacing="0" letter-spacing="0"><tspan x="-9907.28" y="-20698.12" id="tspan276"/>
  </text>
  <text font-family="Arial" x="4629.82" y="-95633.48" transform="scale(4.0128 .2492)" font-size="1691.2" id="text278" text-anchor="middle"/>
  <text stroke-width="23.274" x="11029.91" y="-23579.83" stroke="#545454" line-height="125%" font-size="4654.7" font-family="Gentium Book Basic" id="text280" word-spacing="0" letter-spacing="0"><tspan x="11029.91" y="-23579.83" id="tspan282"/>
  </text>
  <text font-family="Arial" x="9847.2" y="-107196.97" transform="scale(4.0128 .2492)" font-size="1691.2" id="text284" text-anchor="middle"/>
 </g>
 <path d="m277.94 331.33 0.308-51.575 51.23 0.013v-51.24h51.627l0.109 51.22 51.32 0.013 0.289 51.658-51.43-0.064 0.128 51.627-51.996-0.372v-51.28z" fill="#ffffff" id="path286"/>
</svg>
