<?xml version="1.0" encoding="UTF-8" standalone="no"?>
<svg xmlns="http://www.w3.org/2000/svg" xmlns:xlink="http://www.w3.org/1999/xlink" xmlns:sodipodi="http://sodipodi.sourceforge.net/DTD/sodipodi-0.dtd" xmlns:inkscape="http://www.inkscape.org/namespaces/inkscape" height="512" viewBox="0 0 512 512" width="512" version="1.1">
 <defs id="defs45">
  <linearGradient inkscape:collect="always" xlink:href="#linearGradient10691" id="linearGradient5191" y1="60.65" x2="0" y2="0.971" gradientUnits="userSpaceOnUse"/>
  <linearGradient inkscape:collect="always" xlink:href="#linearGradient10691" id="linearGradient5183" y1="60.65" x2="0" y2="0.971" gradientUnits="userSpaceOnUse"/>
  <radialGradient inkscape:collect="always" xlink:href="#linearGradient15653" id="radialGradient2953" gradientUnits="userSpaceOnUse" gradientTransform="matrix(1.6267145,0,0,1.708051,-13.636687,-7.507523)" cx="22.75" cy="10.25" r="19.875"/>
  <radialGradient inkscape:collect="always" xlink:href="#linearGradient2660" id="radialGradient2949" gradientUnits="userSpaceOnUse" gradientTransform="matrix(4.0986091,0,0,2.874492,-48.714322,-42.71542)" cx="17.62" cy="21.611" r="8"/>
  <linearGradient id="linearGradient4873" inkscape:collect="always">
   <stop id="stop4875" stop-color="#ffffff"/>
   <stop id="stop4877" offset="1" stop-color="#ffffff" stop-opacity="0"/>
  </linearGradient>
  <linearGradient y2="7.107" x2="62.61" y1="-13.445" x1="62.746" gradientTransform="matrix(2.3440063,0,0,2.3440063,-121.79862,31.22942)" gradientUnits="userSpaceOnUse" id="linearGradient2704" xlink:href="#linearGradient4873" inkscape:collect="always"/>
  <linearGradient id="linearGradient3811">
   <stop id="stop3813" stop-color="#444444"/>
   <stop offset="1" id="stop3815" stop-color="#5e5e5e"/>
  </linearGradient>
  <linearGradient gradientTransform="matrix(1.0805272,0,0,1.0805026,-1.5082857,-3.3507598)" gradientUnits="userSpaceOnUse" y2="3.885" x2="0" y1="44.788" id="linearGradient3927" xlink:href="#linearGradient3811" inkscape:collect="always"/>
  <linearGradient id="linearGradient5106">
   <stop id="stop5108" stop-color="#adadad"/>
   <stop offset="0.253" id="stop8208" stop-color="#979797"/>
   <stop id="stop8210" offset="0.683" stop-color="#5e5e5e"/>
   <stop id="stop5110" offset="1" stop-color="#444444"/>
  </linearGradient>
  <radialGradient r="9.755" cy="-5.713" cx="62.2" gradientTransform="matrix(-7.565785,-6.219707e-7,3.9644633e-7,-4.8230546,494.60904,-26.555114)" gradientUnits="userSpaceOnUse" id="radialGradient2707" xlink:href="#linearGradient5106" inkscape:collect="always"/>
  <linearGradient inkscape:collect="always" id="linearGradient10691">
   <stop id="stop10693"/>
   <stop offset="1" id="stop10695" stop-opacity="0"/>
  </linearGradient>
  <radialGradient r="7.228" cy="73.62" cx="6.703" gradientTransform="scale(1.902215,0.525703)" gradientUnits="userSpaceOnUse" id="radialGradient3080" xlink:href="#linearGradient10691" inkscape:collect="always"/>
  <linearGradient gradientUnits="userSpaceOnUse" y2="20.587" x2="0" y1="-7.06" id="linearGradient7956" xlink:href="#linearGradient4873" inkscape:collect="always"/>
  <linearGradient id="linearGradient7948" inkscape:collect="always">
   <stop id="stop7950" stop-color="#999999"/>
   <stop id="stop7953" offset="1" stop-color="#747474"/>
  </linearGradient>
  <linearGradient gradientUnits="userSpaceOnUse" y2="21.05" x2="0" y1="-7.577" id="linearGradient7955" xlink:href="#linearGradient7948" inkscape:collect="always"/>
  <linearGradient id="linearGradient2760">
   <stop id="stop2762" stop-color="#f0f0f0"/>
   <stop offset="0.564" id="stop1884" stop-color="#dddddd"/>
   <stop id="stop2764" offset="1" stop-color="#b9b9b9"/>
  </linearGradient>
  <radialGradient gradientUnits="userSpaceOnUse" gradientTransform="matrix(-0.9906918,0.9838734,-0.9873672,-0.9911854,14.34067,-13.780844)" r="15.177" cy="-3.123" cx="6.484" id="radialGradient2766" xlink:href="#linearGradient2760" inkscape:collect="always"/>
  <radialGradient r="10.982" cy="15.747" cx="11.03" gradientTransform="matrix(1,0,0,0.4889336,0,8.0475196)" gradientUnits="userSpaceOnUse" id="radialGradient8567" xlink:href="#linearGradient10691" inkscape:collect="always"/>
  <linearGradient id="linearGradient2378">
   <stop id="stop2380" stop-color="#ffffff"/>
   <stop id="stop4146" offset="0.25" stop-color="#fafafa" stop-opacity="0.918"/>
   <stop id="stop2386" offset="0.5" stop-color="#dcdcdc"/>
   <stop offset="1" id="stop2382" stop-color="#dddddd" stop-opacity="0.122"/>
  </linearGradient>
  <linearGradient id="linearGradient47870">
   <stop id="stop47872" stop-opacity="0"/>
   <stop offset="0.5" id="stop47878"/>
   <stop offset="1" id="stop47874" stop-opacity="0"/>
  </linearGradient>
  <linearGradient id="linearGradient2781">
   <stop id="stop2783" stop-color="#d5d5d5"/>
   <stop offset="1" id="stop2785" stop-color="#eeeeee"/>
  </linearGradient>
  <linearGradient id="linearGradient3674">
   <stop id="stop3676" stop-color="#565656"/>
   <stop offset="1" id="stop3678" stop-color="#898989"/>
  </linearGradient>
  <linearGradient id="linearGradient3690">
   <stop id="stop3692" stop-color="#ffffff"/>
   <stop offset="1" id="stop3694" stop-color="#ffffff" stop-opacity="0.469"/>
  </linearGradient>
  <linearGradient id="linearGradient11223" gradientUnits="userSpaceOnUse" x1="4.191" y1="11.11" x2="47.32" y2="56.05">
   <stop id="stop11225" stop-color="#ffffff"/>
   <stop offset="1" id="stop11227" stop-color="#ffffff" stop-opacity="0"/>
  </linearGradient>
  <linearGradient id="linearGradient5252">
   <stop id="stop5256" stop-color="#d9d9d9"/>
   <stop offset="1" id="stop5254" stop-color="#b9b9b9"/>
  </linearGradient>
  <linearGradient id="linearGradient3319">
   <stop id="stop3321" stop-color="#ffffff" stop-opacity="0"/>
   <stop offset="0.574" id="stop3323" stop-color="#ffffff" stop-opacity="0.144"/>
   <stop id="stop3325" offset="1" stop-color="#ffffff" stop-opacity="0"/>
  </linearGradient>
  <linearGradient id="linearGradient3266">
   <stop id="stop3268" stop-color="#444444"/>
   <stop id="stop3270" offset="1" stop-color="#444444" stop-opacity="0"/>
  </linearGradient>
  <linearGradient id="linearGradient3533">
   <stop id="stop3535" stop-color="#979797"/>
   <stop offset="1" id="stop3545" stop-color="#5e5e5e"/>
  </linearGradient>
  <linearGradient id="linearGradient1731">
   <stop id="stop1733" stop-color="#c3c3c3"/>
   <stop offset="1" id="stop1735" stop-color="#868686"/>
  </linearGradient>
  <linearGradient id="linearGradient5313">
   <stop id="stop5315" stop-color="#b3b3b3"/>
   <stop id="stop5333" offset="0.237" stop-color="#626262"/>
   <stop id="stop5317" offset="0.547" stop-color="#777777"/>
   <stop offset="0.746" id="stop5321" stop-color="#b0b0b0"/>
   <stop id="stop5331" offset="0.873" stop-color="#b8b8b8"/>
   <stop offset="1" id="stop5319" stop-color="#979797"/>
  </linearGradient>
  <linearGradient id="linearGradient8152">
   <stop id="stop8154" stop-color="#5e5e5e"/>
   <stop offset="0.5" id="stop3174" stop-color="#777777"/>
   <stop id="stop8156" offset="1" stop-color="#979797"/>
  </linearGradient>
  <linearGradient id="linearGradient3207">
   <stop id="stop3209" stop-color="#eeeeee" stop-opacity="0.471"/>
   <stop id="stop3211" offset="1" stop-color="#eeeeee" stop-opacity="0"/>
  </linearGradient>
  <linearGradient id="linearGradient2831">
   <stop id="stop2833" stop-color="#5e5e5e"/>
   <stop offset="0.333" id="stop2855" stop-color="#808080"/>
   <stop id="stop2835" offset="1" stop-color="#a2a2a2" stop-opacity="0"/>
  </linearGradient>
  <linearGradient gradientUnits="userSpaceOnUse" y2="19.776" x2="11.881" y1="37.904" x1="49.41" id="linearGradient8158" xlink:href="#linearGradient8152" inkscape:collect="always"/>
  <linearGradient gradientUnits="userSpaceOnUse" x2="52.12" x1="8.688" id="linearGradient5341" xlink:href="#linearGradient4873" inkscape:collect="always"/>
  <radialGradient inkscape:collect="always" xlink:href="#linearGradient10691" id="radialGradient15685" cx="23.313" cy="40.938" r="17.188" gradientTransform="matrix(1,0,0,0.316364,0,27.98636)" gradientUnits="userSpaceOnUse"/>
  <radialGradient inkscape:collect="always" xlink:href="#linearGradient15653" id="radialGradient3207" gradientUnits="userSpaceOnUse" gradientTransform="matrix(1.616548,0,0,1.708051,-14.02647,-8.007523)" cx="22.75" cy="10.25" r="19.875"/>
  <linearGradient id="linearGradient15653">
   <stop id="stop15655" stop-color="#f0f0f0"/>
   <stop offset="1" id="stop15657" stop-color="#d7d7d7"/>
  </linearGradient>
  <radialGradient inkscape:collect="always" xlink:href="#linearGradient2660" id="radialGradient3209" gradientUnits="userSpaceOnUse" gradientTransform="matrix(4.072994,0,0,2.874492,-48.88488,-43.21542)" cx="17.62" cy="21.611" r="8"/>
  <linearGradient id="linearGradient2660">
   <stop id="stop2662" stop-color="#ededed"/>
   <stop offset="1" id="stop2664" stop-color="#bbbbbb"/>
  </linearGradient>
  <radialGradient inkscape:collect="always" xlink:href="#linearGradient11494" id="radialGradient3211" gradientUnits="userSpaceOnUse" gradientTransform="matrix(1.478479,0,0,1.478479,-13.1951,-7.329062)" cx="27.577" cy="15.259" r="3.834"/>
  <linearGradient id="linearGradient11494" inkscape:collect="always">
   <stop id="stop11496" stop-color="#646464"/>
   <stop id="stop11498" offset="1" stop-color="#646464" stop-opacity="0"/>
  </linearGradient>
  <radialGradient inkscape:collect="always" xlink:href="#linearGradient11494" id="radialGradient3213" gradientUnits="userSpaceOnUse" gradientTransform="matrix(1.341804,0,0,1.341804,-9.425986,-5.222852)" cx="27.577" cy="15.05" r="3.834"/>
  <radialGradient inkscape:collect="always" xlink:href="#linearGradient15653" id="radialGradient2953-560" gradientUnits="userSpaceOnUse" gradientTransform="matrix(1.6267145,0,0,1.708051,-13.636687,-7.507523)" cx="22.75" cy="10.25" r="19.875"/>
  <radialGradient inkscape:collect="always" xlink:href="#linearGradient2660" id="radialGradient2949-734" gradientUnits="userSpaceOnUse" gradientTransform="matrix(4.0986091,0,0,2.874492,-48.714322,-42.71542)" cx="17.62" cy="21.611" r="8"/>
  <linearGradient inkscape:collect="always" xlink:href="#linearGradient10691" id="linearGradient5183-647" y1="60.65" x2="0" y2="0.971" gradientUnits="userSpaceOnUse"/>
  <linearGradient inkscape:collect="always" xlink:href="#linearGradient10691" id="linearGradient5191-509" y1="60.65" x2="0" y2="0.971" gradientUnits="userSpaceOnUse"/>
 </defs>
 <metadata id="metadata86"/>
 <text font-family="Gentium Book Basic" x="-164.02" y="549.52" line-height="125%" font-size="208.33" id="text4" word-spacing="0" letter-spacing="0"><tspan x="-164.02" y="549.52" id="tspan6"/>
 </text>
 <text font-family="Arial" x="276.85" y="1642.24" transform="scale(4.0128 .2492)" font-size="75.7" id="text8" text-anchor="middle"/>
 <path id="path12" d="m 471.95,253.05 c 0,120.9 -98.01,218.9 -218.9,218.9 -120.9,0 -218.9,-98.01 -218.9,-218.9 0,-120.9 98.01,-218.9 218.9,-218.9 120.9,0 218.9,98.01 218.9,218.9" inkscape:connector-curvature="0" opacity="0.705" fill="#555555" fill-rule="evenodd"/>
 <path id="path26" d="M 256,1 C 115.17,1 1,115.17 1,256 1,396.83 115.17,511 256,511 396.83,511 511,396.83 511,256 511,115.17 396.83,1 256,1 m 8.827,44.931 c 120.9,0 218.9,98 218.9,218.9 0,120.9 -98,218.9 -218.9,218.9 -120.9,0 -218.93,-98 -218.93,-218.9 0,-120.9 98.03,-218.9 218.93,-218.9" inkscape:connector-curvature="0" fill-rule="evenodd" fill-opacity="0.067"/>
 <g id="g28" fill-rule="evenodd" fill-opacity="0.129">
  <path id="path30" d="m 256,4.433 c -138.94,0 -251.57,112.63 -251.57,251.57 0,138.94 112.63,251.57 251.57,251.57 138.94,0 251.57,-112.63 251.57,-251.57 C 507.57,117.063 394.94,4.433 256,4.433 m 5.885,38.556 c 120.9,0 218.9,98 218.9,218.9 0,120.9 -98,218.9 -218.9,218.9 -120.9,0 -218.93,-98 -218.93,-218.9 0,-120.9 98.03,-218.9 218.93,-218.9" inkscape:connector-curvature="0"/>
  <path id="path32" d="m 256,8.356 c -136.77,0 -247.64,110.87 -247.64,247.64 0,136.77 110.87,247.64 247.64,247.64 136.77,0 247.64,-110.87 247.64,-247.64 C 503.64,119.226 392.77,8.356 256,8.356 m 2.942,31.691 c 120.9,0 218.9,98 218.9,218.9 0,120.9 -98,218.9 -218.9,218.9 -120.9,0 -218.93,-98 -218.93,-218.9 0,-120.9 98.03,-218.9 218.93,-218.9" inkscape:connector-curvature="0"/>
 </g>
 <path id="path34" d="m 253.04,7.859 c -135.42,0 -245.19,109.78 -245.19,245.19 0,135.42 109.78,245.19 245.19,245.19 135.42,0 245.19,-109.78 245.19,-245.19 0,-135.42 -109.78,-245.19 -245.19,-245.19 z m 0,26.297 c 120.9,0 218.9,98 218.9,218.9 0,120.9 -98,218.9 -218.9,218.9 -120.9,0 -218.93,-98 -218.93,-218.9 0,-120.9 98.03,-218.9 218.93,-218.9 z" inkscape:connector-curvature="0" stroke-opacity="0.31" fill="#ffffff" fill-rule="evenodd" stroke="#000000" stroke-width="4.904"/>
 <text font-family="Gentium Book Basic" x="729.64" y="231.36" line-height="125%" font-size="129.23" id="text36" word-spacing="0" letter-spacing="0"><tspan x="729.64" y="231.36" id="tspan38"/>
 </text>
 <text font-family="Arial" x="378.91" y="579.25" transform="scale(4.0128 .2492)" font-size="46.954" id="text40" text-anchor="middle"/>
 <text font-family="Gentium Book Basic" x="1310.91" y="151.36" line-height="125%" font-size="129.23" id="text42" word-spacing="0" letter-spacing="0"><tspan x="1310.91" y="151.36" id="tspan44"/>
 </text>
 <text font-family="Arial" x="523.76" y="258.22" transform="scale(4.0128 .2492)" font-size="46.954" id="text46" text-anchor="middle"/>
 <text font-family="Gentium Book Basic" x="239.33" y="-29.901" line-height="125%" font-size="129.23" id="text48" word-spacing="0" letter-spacing="0"><tspan x="239.33" y="-29.901" id="tspan50"/>
 </text>
 <text font-family="Arial" x="256.72" y="-469.14" transform="scale(4.0128 .2492)" font-size="46.954" id="text52" text-anchor="middle"/>
 <text font-family="Gentium Book Basic" x="1337.38" y="-246.37" line-height="125%" font-size="129.23" id="text54" word-spacing="0" letter-spacing="0"><tspan x="1337.38" y="-246.37" id="tspan56"/>
 </text>
 <text font-family="Arial" x="530.36" y="-1337.81" transform="scale(4.0128 .2492)" font-size="46.954" id="text58" text-anchor="middle"/>
 <text font-family="Gentium Book Basic" x="1918.65" y="-326.38" line-height="125%" font-size="129.23" id="text60" word-spacing="0" letter-spacing="0"><tspan x="1918.65" y="-326.38" id="tspan62"/>
 </text>
 <text font-family="Arial" x="675.21" y="-1658.85" transform="scale(4.0128 .2492)" font-size="46.954" id="text64" text-anchor="middle"/>
 <text font-family="Gentium Book Basic" x="1529.53" y="-798.78" line-height="125%" font-size="129.23" id="text66" word-spacing="0" letter-spacing="0"><tspan x="1529.53" y="-798.78" id="tspan68"/>
 </text>
 <text font-family="Arial" x="578.24" y="-3554.51" transform="scale(4.0128 .2492)" font-size="46.954" id="text70" text-anchor="middle"/>
 <text font-family="Gentium Book Basic" x="2110.79" y="-878.78" line-height="125%" font-size="129.23" id="text72" word-spacing="0" letter-spacing="0"><tspan x="2110.79" y="-878.78" id="tspan74"/>
 </text>
 <text font-family="Arial" x="723.09" y="-3875.54" transform="scale(4.0128 .2492)" font-size="46.954" id="text76" text-anchor="middle"/>
 <text font-family="Gentium Book Basic" x="277.99" y="535.94" line-height="125%" font-size="208.33" id="text78" word-spacing="0" letter-spacing="0"><tspan x="277.99" y="535.94" id="tspan80"/>
 </text>
 <path sodipodi:nodetypes="cccccccccccc" id="path14" d="m 253.40846,411.62375 62.22658,50.41655 C 400.35159,442.96927 466.5393,382.737 471.941,253.068 c 0,-6.93 -0.339,-13.797 -0.969,-20.563 -0.246,-0.244 -0.505,-0.474 -0.75,-0.719 -0.058,-0.056 -0.098,-0.132 -0.156,-0.188 -0.273,-0.28 -0.567,-0.537 -0.844,-0.813 -0.058,-0.056 -0.098,-0.132 -0.156,-0.188 -0.324,-0.333 -0.67,-0.642 -1,-0.969 -0.218,-0.224 -0.436,-0.436 -0.656,-0.656 -0.111,-0.107 -0.201,-0.237 -0.313,-0.344 -65.48372,-61.95631 -10.83419,-9.60949 -66.81035,-61.48513" inkscape:connector-curvature="0" opacity="0.25" fill-opacity="0.235"/>
 <g transform="matrix(7.4539016,0,0,7.4539016,74.507727,79.093156)" id="layer1" inkscape:label="Layer 1">
  <g id="g3215" transform="translate(-1.5095767e-4,0)">
   <path inkscape:connector-curvature="0" sodipodi:nodetypes="ccccc" id="path15651" d="M 23.622642,3.5 C 16.175131,9.0765861 4.503151,12.5 4.503151,12.5 7.522018,38.25 24,44.5 24,44.5 c 0,0 16.22641,-6.5 19.49685,-32.375 0,0 -14.088046,-5.125 -19.874208,-8.625 z" inkscape:r_cx="true" inkscape:r_cy="true" fill="url(#radialGradient2953-560)" display="block" stroke="#898989" stroke-linejoin="round" stroke-linecap="round"/>
   <path inkscape:connector-curvature="0" d="M 23.646377,4.789309 C 16.667263,10.015167 5.7293685,13.223272 5.7293685,13.223272 8.5583699,37.353777 23.960447,43.210696 23.960447,43.210696 c 0,0 15.245439,-6.091195 18.310189,-30.338839 0,0 -13.202006,-4.8026735 -18.624259,-8.082548 z" id="path15665" sodipodi:nodetypes="ccccc" inkscape:r_cx="true" inkscape:r_cy="true" fill="none" display="block" stroke="#ffffff" stroke-linejoin="round" stroke-linecap="round"/>
   <path inkscape:connector-curvature="0" inkscape:r_cy="true" inkscape:r_cx="true" sodipodi:nodetypes="cccc" id="path15667" d="m 23.504896,7.5 0,33 c 0,0 -12.395928,-5.259424 -16.1006234,-26 5.2830164,-0.875 16.1006234,-7 16.1006234,-7 z" fill="url(#radialGradient2949-734)" display="block"/>
   <path inkscape:connector-curvature="0" d="M 22.453307,44.202077 C 15.073465,40.229503 9.0576003,32.166893 6.0662893,22.239796 4.9936136,18.679966 3.874919,12.702923 4.2065329,12.303353 4.293241,12.198876 4.9861712,11.908619 5.7463777,11.658339 11.901592,9.6318729 18.689847,6.4485931 22.364609,3.8653967 c 0.60125,-0.4226519 1.171014,-0.768458 1.266142,-0.768458 0.09513,0 0.728199,0.3118601 1.40682,0.6930225 3.001002,1.6855774 8.626996,4.1261198 16.023819,6.9510928 1.372664,0.524244 2.581744,1.03564 2.686844,1.136435 0.210367,0.201751 0.12996,0.966145 -0.421304,4.005164 -2.041884,11.256523 -7.434586,20.785773 -14.984073,26.477813 -1.078834,0.813403 -4.069377,2.595337 -4.349387,2.591611 -0.08284,-0.0011 -0.77591,-0.338601 -1.540163,-0.75 l 0,0 z m 3.297123,-1.140853 c 4.860836,-2.927081 9.497317,-8.167878 12.417254,-14.035714 1.535253,-3.085203 3.005655,-7.28549 3.825786,-10.928571 0.346211,-1.537891 1.078876,-5.60714 1.019219,-5.660782 -0.01484,-0.01334 -1.794832,-0.71387 -3.955546,-1.556732 C 33.673411,8.7793129 29.631216,7.039867 26.424394,5.4432763 24.937097,4.7027906 23.670534,4.0969387 23.60981,4.0969387 c -0.06072,0 -0.515273,0.2819648 -1.010109,0.6265884 -3.554118,2.475232 -10.161533,5.5796719 -16.2568439,7.6381459 l -1.2142857,0.410082 0.02237,0.842523 c 0.0253,0.952904 0.6028036,4.129752 1.1394963,6.268375 2.6753283,10.660694 8.4566203,18.963229 16.3255883,23.445237 0.596185,0.339576 1.21171,0.619386 1.367831,0.621802 0.15612,0.0024 0.951079,-0.397396 1.766573,-0.888468 l 0,0 z" id="path3727" transform="translate(1.5095767e-4,0)" fill="url(#linearGradient5183-647)" stroke="url(#linearGradient5191-509)" stroke-width="0.5"/>
  </g>
 </g>
</svg>
