<?xml version="1.0" encoding="UTF-8" standalone="no"?>
<svg xmlns="http://www.w3.org/2000/svg" xmlns:sodipodi="http://sodipodi.sourceforge.net/DTD/sodipodi-0.dtd" xmlns:inkscape="http://www.inkscape.org/namespaces/inkscape" viewBox="0 0 512 512" version="1.1" width="512" height="512">
 <metadata id="metadata310"/>
 <text id="text4" line-height="125%" font-family="Gentium Book Basic" x="729.64" y="231.36" font-size="129.23" word-spacing="0" letter-spacing="0"><tspan id="tspan6" x="729.64" y="231.36"/>
 </text>
 <text id="text8" font-family="Arial" x="378.91" y="579.26" font-size="46.954" transform="scale(4.0128.2492)" text-anchor="middle"/>
 <text id="text10" line-height="125%" font-family="Gentium Book Basic" x="1310.91" y="151.36" font-size="129.23" word-spacing="0" letter-spacing="0"><tspan id="tspan12" x="1310.91" y="151.36"/>
 </text>
 <text id="text14" font-family="Arial" x="523.76" y="258.22" font-size="46.954" transform="scale(4.0128.2492)" text-anchor="middle"/>
 <text id="text16" line-height="125%" font-family="Gentium Book Basic" x="239.33" y="-29.9" font-size="129.23" word-spacing="0" letter-spacing="0"><tspan id="tspan18" x="239.33" y="-29.9"/>
 </text>
 <text id="text20" font-family="Arial" x="256.72" y="-469.13" font-size="46.954" transform="scale(4.0128.2492)" text-anchor="middle"/>
 <text id="text22" line-height="125%" font-family="Gentium Book Basic" x="1337.38" y="-246.37" font-size="129.23" word-spacing="0" letter-spacing="0"><tspan id="tspan24" x="1337.38" y="-246.37"/>
 </text>
 <text id="text26" font-family="Arial" x="530.36" y="-1337.8" font-size="46.954" transform="scale(4.0128.2492)" text-anchor="middle"/>
 <text id="text28" line-height="125%" font-family="Gentium Book Basic" x="1918.65" y="-326.37" font-size="129.23" word-spacing="0" letter-spacing="0"><tspan id="tspan30" x="1918.65" y="-326.37"/>
 </text>
 <text id="text32" font-family="Arial" x="675.21" y="-1658.83" font-size="46.954" transform="scale(4.0128.2492)" text-anchor="middle"/>
 <text id="text34" line-height="125%" font-family="Gentium Book Basic" x="1529.53" y="-798.77" font-size="129.23" word-spacing="0" letter-spacing="0"><tspan id="tspan36" x="1529.53" y="-798.77"/>
 </text>
 <text id="text38" font-family="Arial" x="578.24" y="-3554.48" font-size="46.954" transform="scale(4.0128.2492)" text-anchor="middle"/>
 <text id="text40" line-height="125%" font-family="Gentium Book Basic" x="2110.79" y="-878.78" font-size="129.23" word-spacing="0" letter-spacing="0"><tspan id="tspan42" x="2110.79" y="-878.78"/>
 </text>
 <text id="text44" font-family="Arial" x="723.09" y="-3875.52" font-size="46.954" transform="scale(4.0128.2492)" text-anchor="middle"/>
 <g id="g46" line-height="125%" word-spacing="0" letter-spacing="0">
  <text id="text48" font-family="Gentium Book Basic" font-size="208.33" x="277.99" y="535.94"><tspan id="tspan50" x="277.99" y="535.94"/>
  </text>
  <text id="text52" font-family="&apos;Gentium Book Basic&apos;" font-size="129.23" x="729.64" y="231.36"><tspan id="tspan54" x="729.64" y="231.36"/>
  </text>
 </g>
 <text id="text56" font-family="Arial" x="378.91" y="579.26" font-size="46.954" transform="scale(4.0128.2492)" text-anchor="middle"/>
 <text id="text58" line-height="125%" font-family="&apos;Gentium Book Basic&apos;" x="1310.91" y="151.36" font-size="129.23" word-spacing="0" letter-spacing="0"><tspan id="tspan60" x="1310.91" y="151.36"/>
 </text>
 <text id="text62" font-family="Arial" x="523.76" y="258.22" font-size="46.954" transform="scale(4.0128.2492)" text-anchor="middle"/>
 <text id="text64" line-height="125%" font-family="&apos;Gentium Book Basic&apos;" x="239.33" y="-29.9" font-size="129.23" word-spacing="0" letter-spacing="0"><tspan id="tspan66" x="239.33" y="-29.9"/>
 </text>
 <text id="text68" font-family="Arial" x="256.72" y="-469.13" font-size="46.954" transform="scale(4.0128.2492)" text-anchor="middle"/>
 <text id="text70" line-height="125%" font-family="&apos;Gentium Book Basic&apos;" x="1337.38" y="-246.37" font-size="129.23" word-spacing="0" letter-spacing="0"><tspan id="tspan72" x="1337.38" y="-246.37"/>
 </text>
 <text id="text74" font-family="Arial" x="530.36" y="-1337.8" font-size="46.954" transform="scale(4.0128.2492)" text-anchor="middle"/>
 <text id="text76" line-height="125%" font-family="&apos;Gentium Book Basic&apos;" x="1918.65" y="-326.37" font-size="129.23" word-spacing="0" letter-spacing="0"><tspan id="tspan78" x="1918.65" y="-326.37"/>
 </text>
 <text id="text80" font-family="Arial" x="675.21" y="-1658.83" font-size="46.954" transform="scale(4.0128.2492)" text-anchor="middle"/>
 <text id="text82" line-height="125%" font-family="&apos;Gentium Book Basic&apos;" x="1529.53" y="-798.77" font-size="129.23" word-spacing="0" letter-spacing="0"><tspan id="tspan84" x="1529.53" y="-798.77"/>
 </text>
 <text id="text86" font-family="Arial" x="578.24" y="-3554.48" font-size="46.954" transform="scale(4.0128.2492)" text-anchor="middle"/>
 <text id="text88" line-height="125%" font-family="&apos;Gentium Book Basic&apos;" x="2110.79" y="-878.78" font-size="129.23" word-spacing="0" letter-spacing="0"><tspan id="tspan90" x="2110.79" y="-878.78"/>
 </text>
 <text id="text92" font-family="Arial" x="723.09" y="-3875.52" font-size="46.954" transform="scale(4.0128.2492)" text-anchor="middle"/>
 <g id="g94" line-height="125%" font-family="&apos;Gentium Book Basic&apos;" word-spacing="0" letter-spacing="0">
  <text id="text96" font-size="208.33" x="277.99" y="535.94"><tspan id="tspan98" x="277.99" y="535.94"/>
  </text>
  <text id="text100" font-size="129.23" x="729.64" y="231.36"><tspan id="tspan102" x="729.64" y="231.36"/>
  </text>
 </g>
 <text id="text104" font-family="Arial" x="378.91" y="579.26" font-size="46.954" transform="scale(4.0128.2492)" text-anchor="middle"/>
 <text id="text106" line-height="125%" font-family="&apos;Gentium Book Basic&apos;" x="1310.91" y="151.36" font-size="129.23" word-spacing="0" letter-spacing="0"><tspan id="tspan108" x="1310.91" y="151.36"/>
 </text>
 <text id="text110" font-family="Arial" x="523.76" y="258.22" font-size="46.954" transform="scale(4.0128.2492)" text-anchor="middle"/>
 <text id="text112" line-height="125%" font-family="&apos;Gentium Book Basic&apos;" x="239.33" y="-29.9" font-size="129.23" word-spacing="0" letter-spacing="0"><tspan id="tspan114" x="239.33" y="-29.9"/>
 </text>
 <text id="text116" font-family="Arial" x="256.72" y="-469.13" font-size="46.954" transform="scale(4.0128.2492)" text-anchor="middle"/>
 <text id="text118" line-height="125%" font-family="&apos;Gentium Book Basic&apos;" x="1337.38" y="-246.37" font-size="129.23" word-spacing="0" letter-spacing="0"><tspan id="tspan120" x="1337.38" y="-246.37"/>
 </text>
 <text id="text122" font-family="Arial" x="530.36" y="-1337.79" font-size="46.954" transform="scale(4.0128.2492)" text-anchor="middle"/>
 <text id="text124" line-height="125%" font-family="&apos;Gentium Book Basic&apos;" x="1918.65" y="-326.37" font-size="129.23" word-spacing="0" letter-spacing="0"><tspan id="tspan126" x="1918.65" y="-326.37"/>
 </text>
 <text id="text128" font-family="Arial" x="675.21" y="-1658.82" font-size="46.954" transform="scale(4.0128.2492)" text-anchor="middle"/>
 <text id="text130" line-height="125%" font-family="&apos;Gentium Book Basic&apos;" x="1529.53" y="-798.77" font-size="129.23" word-spacing="0" letter-spacing="0"><tspan id="tspan132" x="1529.53" y="-798.77"/>
 </text>
 <text id="text134" font-family="Arial" x="578.24" y="-3554.46" font-size="46.954" transform="scale(4.0128.2492)" text-anchor="middle"/>
 <text id="text136" line-height="125%" font-family="&apos;Gentium Book Basic&apos;" x="2110.79" y="-878.78" font-size="129.23" word-spacing="0" letter-spacing="0"><tspan id="tspan138" x="2110.79" y="-878.78"/>
 </text>
 <text id="text140" font-family="Arial" x="723.09" y="-3875.5" font-size="46.954" transform="scale(4.0128.2492)" text-anchor="middle"/>
 <g id="g142" line-height="125%" font-family="&apos;Gentium Book Basic&apos;" word-spacing="0" letter-spacing="0">
  <text id="text144" font-size="208.33" x="277.99" y="535.94"><tspan id="tspan146" x="277.99" y="535.94"/>
  </text>
  <text id="text148" font-size="129.23" x="729.64" y="231.36"><tspan id="tspan150" x="729.64" y="231.36"/>
  </text>
 </g>
 <text id="text152" font-family="Arial" x="378.91" y="579.26" font-size="46.954" transform="scale(4.0128.2492)" text-anchor="middle"/>
 <text id="text154" line-height="125%" font-family="&apos;Gentium Book Basic&apos;" x="1310.91" y="151.36" font-size="129.23" word-spacing="0" letter-spacing="0"><tspan id="tspan156" x="1310.91" y="151.36"/>
 </text>
 <text id="text158" font-family="Arial" x="523.76" y="258.22" font-size="46.954" transform="scale(4.0128.2492)" text-anchor="middle"/>
 <text id="text160" line-height="125%" font-family="&apos;Gentium Book Basic&apos;" x="239.33" y="-29.9" font-size="129.23" word-spacing="0" letter-spacing="0"><tspan id="tspan162" x="239.33" y="-29.9"/>
 </text>
 <text id="text164" font-family="Arial" x="256.72" y="-469.13" font-size="46.954" transform="scale(4.0128.2492)" text-anchor="middle"/>
 <text id="text166" line-height="125%" font-family="&apos;Gentium Book Basic&apos;" x="1337.38" y="-246.37" font-size="129.23" word-spacing="0" letter-spacing="0"><tspan id="tspan168" x="1337.38" y="-246.37"/>
 </text>
 <text id="text170" font-family="Arial" x="530.36" y="-1337.8" font-size="46.954" transform="scale(4.0128.2492)" text-anchor="middle"/>
 <text id="text172" line-height="125%" font-family="&apos;Gentium Book Basic&apos;" x="1918.65" y="-326.37" font-size="129.23" word-spacing="0" letter-spacing="0"><tspan id="tspan174" x="1918.65" y="-326.37"/>
 </text>
 <text id="text176" font-family="Arial" x="675.21" y="-1658.83" font-size="46.954" transform="scale(4.0128.2492)" text-anchor="middle"/>
 <text id="text178" line-height="125%" font-family="&apos;Gentium Book Basic&apos;" x="1529.53" y="-798.77" font-size="129.23" word-spacing="0" letter-spacing="0"><tspan id="tspan180" x="1529.53" y="-798.77"/>
 </text>
 <text id="text182" font-family="Arial" x="578.24" y="-3554.48" font-size="46.954" transform="scale(4.0128.2492)" text-anchor="middle"/>
 <text id="text184" line-height="125%" font-family="&apos;Gentium Book Basic&apos;" x="2110.79" y="-878.78" font-size="129.23" word-spacing="0" letter-spacing="0"><tspan id="tspan186" x="2110.79" y="-878.78"/>
 </text>
 <text id="text188" font-family="Arial" x="723.09" y="-3875.52" font-size="46.954" transform="scale(4.0128.2492)" text-anchor="middle"/>
 <g id="g190" line-height="125%" font-family="&apos;Gentium Book Basic&apos;" word-spacing="0" letter-spacing="0">
  <text id="text192" font-size="208.33" x="277.99" y="535.94"><tspan id="tspan194" x="277.99" y="535.94"/>
  </text>
  <text id="text196" font-size="129.23" x="729.64" y="231.36"><tspan id="tspan198" x="729.64" y="231.36"/>
  </text>
 </g>
 <text id="text200" font-family="Arial" x="378.91" y="579.26" font-size="46.954" transform="scale(4.0128.2492)" text-anchor="middle"/>
 <text id="text202" line-height="125%" font-family="&apos;Gentium Book Basic&apos;" x="1310.91" y="151.36" font-size="129.23" word-spacing="0" letter-spacing="0"><tspan id="tspan204" x="1310.91" y="151.36"/>
 </text>
 <text id="text206" font-family="Arial" x="523.76" y="258.22" font-size="46.954" transform="scale(4.0128.2492)" text-anchor="middle"/>
 <text id="text208" line-height="125%" font-family="&apos;Gentium Book Basic&apos;" x="239.33" y="-29.9" font-size="129.23" word-spacing="0" letter-spacing="0"><tspan id="tspan210" x="239.33" y="-29.9"/>
 </text>
 <text id="text212" font-family="Arial" x="256.72" y="-469.13" font-size="46.954" transform="scale(4.0128.2492)" text-anchor="middle"/>
 <text id="text214" line-height="125%" font-family="&apos;Gentium Book Basic&apos;" x="1337.38" y="-246.37" font-size="129.23" word-spacing="0" letter-spacing="0"><tspan id="tspan216" x="1337.38" y="-246.37"/>
 </text>
 <text id="text218" font-family="Arial" x="530.36" y="-1337.8" font-size="46.954" transform="scale(4.0128.2492)" text-anchor="middle"/>
 <text id="text220" line-height="125%" font-family="&apos;Gentium Book Basic&apos;" x="1918.65" y="-326.37" font-size="129.23" word-spacing="0" letter-spacing="0"><tspan id="tspan222" x="1918.65" y="-326.37"/>
 </text>
 <text id="text224" font-family="Arial" x="675.21" y="-1658.83" font-size="46.954" transform="scale(4.0128.2492)" text-anchor="middle"/>
 <text id="text226" line-height="125%" font-family="&apos;Gentium Book Basic&apos;" x="1529.53" y="-798.77" font-size="129.23" word-spacing="0" letter-spacing="0"><tspan id="tspan228" x="1529.53" y="-798.77"/>
 </text>
 <text id="text230" font-family="Arial" x="578.24" y="-3554.48" font-size="46.954" transform="scale(4.0128.2492)" text-anchor="middle"/>
 <text id="text232" line-height="125%" font-family="&apos;Gentium Book Basic&apos;" x="2110.79" y="-878.78" font-size="129.23" word-spacing="0" letter-spacing="0"><tspan id="tspan234" x="2110.79" y="-878.78"/>
 </text>
 <text id="text236" font-family="Arial" x="723.09" y="-3875.52" font-size="46.954" transform="scale(4.0128.2492)" text-anchor="middle"/>
 <text id="text238" line-height="125%" font-family="&apos;Gentium Book Basic&apos;" x="277.99" y="535.94" font-size="208.33" word-spacing="0" letter-spacing="0"><tspan id="tspan240" x="277.99" y="535.94"/>
 </text>
 <g id="g242" fill-rule="evenodd">
  <path id="path244" fill="#656565" d="m471.95 253.05c0 120.9-98.01 218.91-218.91 218.91s-218.91-98.01-218.91-218.91 98.01-218.91 218.91-218.91 218.91 98.01 218.91 218.91"/>
  <path id="path246" fill-opacity="0.067" d="m256 1c-140.83 0-255 114.17-255 255s114.17 255 255 255 255-114.17 255-255-114.17-255-255-255m8.827 44.931c120.9 0 218.9 98 218.9 218.9s-98 218.9-218.9 218.9-218.93-98-218.93-218.9 98.03-218.9 218.93-218.9"/>
  <g id="g248" fill-opacity="0.129">
   <path id="path250" d="m256 4.43c-138.94 0-251.57 112.63-251.57 251.57s112.63 251.57 251.57 251.57 251.57-112.63 251.57-251.57-112.63-251.57-251.57-251.57m5.885 38.556c120.9 0 218.9 98 218.9 218.9s-98 218.9-218.9 218.9-218.93-98-218.93-218.9 98.03-218.9 218.93-218.9"/>
   <path id="path252" d="m256 8.36c-136.77 0-247.64 110.87-247.64 247.64s110.87 247.64 247.64 247.64 247.64-110.87 247.64-247.64-110.87-247.64-247.64-247.64m2.942 31.691c120.9 0 218.9 98 218.9 218.9s-98 218.9-218.9 218.9-218.93-98-218.93-218.9 98.03-218.9 218.93-218.9"/>
  </g>
  <path id="path254" fill="#ffffff" stroke-opacity="0.31" d="m253.04 7.86c-135.42 0-245.19 109.78-245.19 245.19 0 135.42 109.78 245.19 245.19 245.19 135.42 0 245.19-109.78 245.19-245.19 0-135.42-109.78-245.19-245.19-245.19m0 26.297c120.9 0 218.9 98 218.9 218.9s-98 218.9-218.9 218.9-218.93-98-218.93-218.9 98.03-218.9 218.93-218.9z" stroke-width="4.904" stroke="#000000"/>
 </g>
 <text id="text256" line-height="125%" font-family="&apos;Gentium Book Basic&apos;" x="729.64" y="231.36" font-size="129.23" word-spacing="0" letter-spacing="0"><tspan id="tspan258" x="729.64" y="231.36"/>
 </text>
 <text id="text260" font-family="Arial" x="378.91" y="579.26" font-size="46.954" transform="scale(4.0128.2492)" text-anchor="middle"/>
 <text id="text262" line-height="125%" font-family="&apos;Gentium Book Basic&apos;" x="1310.91" y="151.36" font-size="129.23" word-spacing="0" letter-spacing="0"><tspan id="tspan264" x="1310.91" y="151.36"/>
 </text>
 <text id="text266" font-family="Arial" x="523.76" y="258.22" font-size="46.954" transform="scale(4.0128.2492)" text-anchor="middle"/>
 <text id="text268" line-height="125%" font-family="&apos;Gentium Book Basic&apos;" x="239.33" y="-29.9" font-size="129.23" word-spacing="0" letter-spacing="0"><tspan id="tspan270" x="239.33" y="-29.9"/>
 </text>
 <text id="text272" font-family="Arial" x="256.72" y="-469.13" font-size="46.954" transform="scale(4.0128.2492)" text-anchor="middle"/>
 <text id="text274" line-height="125%" font-family="&apos;Gentium Book Basic&apos;" x="1337.38" y="-246.37" font-size="129.23" word-spacing="0" letter-spacing="0"><tspan id="tspan276" x="1337.38" y="-246.37"/>
 </text>
 <text id="text278" font-family="Arial" x="530.36" y="-1337.8" font-size="46.954" transform="scale(4.0128.2492)" text-anchor="middle"/>
 <text id="text280" line-height="125%" font-family="&apos;Gentium Book Basic&apos;" x="1918.65" y="-326.37" font-size="129.23" word-spacing="0" letter-spacing="0"><tspan id="tspan282" x="1918.65" y="-326.37"/>
 </text>
 <text id="text284" font-family="Arial" x="675.21" y="-1658.83" font-size="46.954" transform="scale(4.0128.2492)" text-anchor="middle"/>
 <text id="text286" line-height="125%" font-family="&apos;Gentium Book Basic&apos;" x="1529.53" y="-798.77" font-size="129.23" word-spacing="0" letter-spacing="0"><tspan id="tspan288" x="1529.53" y="-798.77"/>
 </text>
 <text id="text290" font-family="Arial" x="578.24" y="-3554.48" font-size="46.954" transform="scale(4.0128.2492)" text-anchor="middle"/>
 <text id="text292" line-height="125%" font-family="&apos;Gentium Book Basic&apos;" x="2110.79" y="-878.78" font-size="129.23" word-spacing="0" letter-spacing="0"><tspan id="tspan294" x="2110.79" y="-878.78"/>
 </text>
 <text id="text296" font-family="Arial" x="723.09" y="-3875.52" font-size="46.954" transform="scale(4.0128.2492)" text-anchor="middle"/>
 <text id="text298" line-height="125%" font-family="&apos;Gentium Book Basic&apos;" x="277.99" y="535.94" font-size="208.33" word-spacing="0" letter-spacing="0"><tspan id="tspan300" x="277.99" y="535.94"/>
 </text>
 <path id="path302" d="m125.34 116.2v129.47l86.62 86.62-14.824 54.31-0.012 0.059-0.164 0.564 83.08 83.08c108.16-13.303 191.91-105.49 191.91-217.25 0-20.752-2.888-40.83-8.283-59.854l-76.998-76.996h-14.877v34.525l-14.303-14.303h-14.879v29.03l-14.01-14.01h-14.891v21.15l-26.84-26.84c-7.889-7.889-18.787-12.77-30.826-12.77-20.684 0-37.994 14.409-42.473 33.732l-15.275-15.275h-13.867l-15.02-15.02h-8.959l-20.223-20.223h-14.889" opacity="0.25"/>
 <path id="path304" fill="#ffffff" d="m125.34 116.2v129.47h14.89v-129.47h-14.89m246.45 0v129.47h14.879v-129.47h-14.879m-115.75 16.786c-24.08 0-43.612 19.527-43.612 43.612 0 19.573 12.895 36.13 30.652 41.646l-45.954 168.35-0.012 0.059-0.165 0.565a6.7414 6.7414 0 0 0 11.029 6.8154l0.483-0.447a6.7414 6.7414 0 0 0 0.35314 -0.35313l49.46-52.32 46.696 52.19a6.7414 6.7414 0 0 0 0.63564 0.6121l0.471 0.412a6.7414 6.7414 0 0 0 10.853 -7.0509l-0.177-0.577v-0.012l-49.909-167.63c18.853-4.811 32.794-21.907 32.794-42.26 0-24.08-19.516-43.612-43.6-43.612m-101.53 3.437v89.02h14.89v-89.02h-14.89m188.09 0v89.02h14.879v-89.02h-14.879m-159.2 15.02v58.973h14.89v-58.973h-14.89m130.31 0v58.973h14.89v-58.973h-14.89"/>
</svg>
