<?xml version="1.0" encoding="UTF-8" standalone="no"?>
<svg xmlns="http://www.w3.org/2000/svg" xmlns:sodipodi="http://sodipodi.sourceforge.net/DTD/sodipodi-0.dtd" xmlns:inkscape="http://www.inkscape.org/namespaces/inkscape" height="512" viewBox="0 0 512 512" width="512" version="1.1">
 <metadata id="metadata90"/>
 <g fill-rule="evenodd" id="g20">
  <path d="m471.95 253.05c0 120.9-98.01 218.91-218.91 218.91s-218.91-98.01-218.91-218.91 98.01-218.91 218.91-218.91 218.91 98.01 218.91 218.91" fill="#595959" id="path22"/>
  <path d="m298 98.63c-5.193 0.02-10.426 1.384-15.281 4.188l-51.656 29.813 0.031 0.031h-67.62c-17.09 0-30.813 13.756-30.813 30.844v12.875l-0.031-0.031-18.5 10.781c-14.798 8.544-19.856 27.358-11.313 42.16l29.813 51.656 0.031 0.031v67.59c0 8.544 3.433 16.245 9 21.813l1.063 1.031 100.31 100.31c3.319 0.149 6.644 0.25 10 0.25 120.9 0 218.91-98.01 218.91-218.91 0-3.358-0.069-6.71-0.219-10.03l-101.34-101.34c-5.584-5.584-13.323-9.03-21.875-9.03h-3.594l-24.938-24.938c-5.35-5.35-12.439-8.489-19.75-9-0.74-0.052-1.477-0.097-2.219-0.094m81.38 249.97c-0.017 17.04-13.747 30.731-30.781 30.781 0.034-17.05 13.729-30.764 30.781-30.781" opacity="0.25" id="path24"/>
  <path d="m256 1c-140.83 0-255 114.17-255 255s114.17 255 255 255 255-114.17 255-255-114.17-255-255-255m8.827 44.931c120.9 0 218.9 98 218.9 218.9s-98 218.9-218.9 218.9-218.93-98-218.93-218.9 98.03-218.9 218.93-218.9" fill-opacity="0.067" id="path26"/>
  <g fill-opacity="0.129" id="g28">
   <path d="m256 4.43c-138.94 0-251.57 112.63-251.57 251.57s112.63 251.57 251.57 251.57 251.57-112.63 251.57-251.57-112.63-251.57-251.57-251.57m5.885 38.556c120.9 0 218.9 98 218.9 218.9s-98 218.9-218.9 218.9-218.93-98-218.93-218.9 98.03-218.9 218.93-218.9" id="path30"/>
   <path d="m256 8.36c-136.77 0-247.64 110.87-247.64 247.64s110.87 247.64 247.64 247.64 247.64-110.87 247.64-247.64-110.87-247.64-247.64-247.64m2.942 31.691c120.9 0 218.9 98 218.9 218.9s-98 218.9-218.9 218.9-218.93-98-218.93-218.9 98.03-218.9 218.93-218.9" id="path32"/>
  </g>
  <path fill="#ffffff" stroke-width="4.904" stroke="#000000" stroke-opacity="0.31" d="m253.04 7.86c-135.42 0-245.19 109.78-245.19 245.19 0 135.42 109.78 245.19 245.19 245.19 135.42 0 245.19-109.78 245.19-245.19 0-135.42-109.78-245.19-245.19-245.19zm0 26.297c120.9 0 218.9 98 218.9 218.9s-98 218.9-218.9 218.9-218.93-98-218.93-218.9 98.03-218.9 218.93-218.9z" id="path34"/>
 </g>
 <text font-family="Gentium Book Basic" x="729.64" y="231.36" line-height="125%" font-size="129.23" id="text36" word-spacing="0" letter-spacing="0"><tspan x="729.64" y="231.36" id="tspan38"/>
 </text>
 <text font-family="Arial" x="378.91" y="579.26" transform="scale(4.0128 .2492)" font-size="46.954" id="text40" text-anchor="middle"/>
 <text font-family="Gentium Book Basic" x="1310.91" y="151.36" line-height="125%" font-size="129.23" id="text42" word-spacing="0" letter-spacing="0"><tspan x="1310.91" y="151.36" id="tspan44"/>
 </text>
 <text font-family="Arial" x="523.76" y="258.22" transform="scale(4.0128 .2492)" font-size="46.954" id="text46" text-anchor="middle"/>
 <text font-family="Gentium Book Basic" x="239.33" y="-29.9" line-height="125%" font-size="129.23" id="text48" word-spacing="0" letter-spacing="0"><tspan x="239.33" y="-29.9" id="tspan50"/>
 </text>
 <text font-family="Arial" x="256.72" y="-469.13" transform="scale(4.0128 .2492)" font-size="46.954" id="text52" text-anchor="middle"/>
 <text font-family="Gentium Book Basic" x="1337.38" y="-246.37" line-height="125%" font-size="129.23" id="text54" word-spacing="0" letter-spacing="0"><tspan x="1337.38" y="-246.37" id="tspan56"/>
 </text>
 <text font-family="Arial" x="530.36" y="-1337.8" transform="scale(4.0128 .2492)" font-size="46.954" id="text58" text-anchor="middle"/>
 <text font-family="Gentium Book Basic" x="1918.65" y="-326.37" line-height="125%" font-size="129.23" id="text60" word-spacing="0" letter-spacing="0"><tspan x="1918.65" y="-326.37" id="tspan62"/>
 </text>
 <text font-family="Arial" x="675.21" y="-1658.83" transform="scale(4.0128 .2492)" font-size="46.954" id="text64" text-anchor="middle"/>
 <text font-family="Gentium Book Basic" x="1529.53" y="-798.77" line-height="125%" font-size="129.23" id="text66" word-spacing="0" letter-spacing="0"><tspan x="1529.53" y="-798.77" id="tspan68"/>
 </text>
 <text font-family="Arial" x="578.24" y="-3554.48" transform="scale(4.0128 .2492)" font-size="46.954" id="text70" text-anchor="middle"/>
 <text font-family="Gentium Book Basic" x="2110.79" y="-878.78" line-height="125%" font-size="129.23" id="text72" word-spacing="0" letter-spacing="0"><tspan x="2110.79" y="-878.78" id="tspan74"/>
 </text>
 <text font-family="Arial" x="723.09" y="-3875.52" transform="scale(4.0128 .2492)" font-size="46.954" id="text76" text-anchor="middle"/>
 <text font-family="Gentium Book Basic" x="277.99" y="535.94" line-height="125%" font-size="208.33" id="text78" word-spacing="0" letter-spacing="0"><tspan x="277.99" y="535.94" id="tspan80"/>
 </text>
 <g fill-rule="evenodd" id="g82">
  <path d="m163.45 132.65c-17.09 0-30.806 13.772-30.806 30.86v185.05c0 17.09 13.718 30.806 30.806 30.806h185.05c17.09 0 30.86-13.718 30.86-30.806v-185.05c0-17.09-13.772-30.86-30.86-30.86h-185.05m27.893 32.91 148.1 90.48-148.1 90.48v-180.95" fill="#ffffff" id="path84"/>
  <path d="m300.21 98.71c-5.922-0.414-11.929 0.909-17.478 4.113l-51.664 29.816h104.61l-10.8-18.51c-5.34-9.25-14.8-14.73-24.67-15.42m-167.59 77.62-18.507 10.796c-14.798 8.544-19.853 27.356-11.31 42.15l29.816 51.664v-104.61m246.75 54.749v104.61l18.507-10.796c14.798-8.544 19.853-27.356 11.31-42.15l-29.816-51.664m-203.06 148.31 10.796 18.507c8.544 14.798 27.356 19.853 42.15 11.31l51.664-29.816h-104.61" fill="#2e2e2e" opacity="0.5" id="path86"/>
 </g>
</svg>
