<?xml version="1.0" encoding="UTF-8" standalone="no"?>
<svg xmlns="http://www.w3.org/2000/svg" xmlns:sodipodi="http://sodipodi.sourceforge.net/DTD/sodipodi-0.dtd" xmlns:inkscape="http://www.inkscape.org/namespaces/inkscape" viewBox="0 0 512 512" version="1.1" width="512" height="512">
 <metadata id="metadata697"/>
 <defs id="defs4">
  <clipPath id="0">
   <path id="path7" d="m47 24c0 12.708-10.304 23-23 23s-23-10.292-23-23 10.304-23 23-23 23 10.292 23 23"/>
  </clipPath>
 </defs>
 <text id="text9" line-height="125%" font-family="Gentium Book Basic" x="729.64" y="231.36" font-size="129.23" word-spacing="0" letter-spacing="0"><tspan id="tspan11" x="729.64" y="231.36"/>
 </text>
 <text id="text13" font-family="Arial" x="378.91" y="579.26" font-size="46.954" transform="scale(4.0128.2492)" text-anchor="middle"/>
 <text id="text15" line-height="125%" font-family="Gentium Book Basic" x="1310.91" y="151.36" font-size="129.23" word-spacing="0" letter-spacing="0"><tspan id="tspan17" x="1310.91" y="151.36"/>
 </text>
 <text id="text19" font-family="Arial" x="523.76" y="258.22" font-size="46.954" transform="scale(4.0128.2492)" text-anchor="middle"/>
 <text id="text21" line-height="125%" font-family="Gentium Book Basic" x="239.33" y="-29.9" font-size="129.23" word-spacing="0" letter-spacing="0"><tspan id="tspan23" x="239.33" y="-29.9"/>
 </text>
 <text id="text25" font-family="Arial" x="256.72" y="-469.13" font-size="46.954" transform="scale(4.0128.2492)" text-anchor="middle"/>
 <text id="text27" line-height="125%" font-family="Gentium Book Basic" x="1337.38" y="-246.37" font-size="129.23" word-spacing="0" letter-spacing="0"><tspan id="tspan29" x="1337.38" y="-246.37"/>
 </text>
 <text id="text31" font-family="Arial" x="530.36" y="-1337.8" font-size="46.954" transform="scale(4.0128.2492)" text-anchor="middle"/>
 <text id="text33" line-height="125%" font-family="Gentium Book Basic" x="1918.65" y="-326.37" font-size="129.23" word-spacing="0" letter-spacing="0"><tspan id="tspan35" x="1918.65" y="-326.37"/>
 </text>
 <text id="text37" font-family="Arial" x="675.21" y="-1658.83" font-size="46.954" transform="scale(4.0128.2492)" text-anchor="middle"/>
 <text id="text39" line-height="125%" font-family="Gentium Book Basic" x="1529.53" y="-798.77" font-size="129.23" word-spacing="0" letter-spacing="0"><tspan id="tspan41" x="1529.53" y="-798.77"/>
 </text>
 <text id="text43" font-family="Arial" x="578.24" y="-3554.48" font-size="46.954" transform="scale(4.0128.2492)" text-anchor="middle"/>
 <text id="text45" line-height="125%" font-family="Gentium Book Basic" x="2110.79" y="-878.78" font-size="129.23" word-spacing="0" letter-spacing="0"><tspan id="tspan47" x="2110.79" y="-878.78"/>
 </text>
 <text id="text49" font-family="Arial" x="723.09" y="-3875.52" font-size="46.954" transform="scale(4.0128.2492)" text-anchor="middle"/>
 <g id="g51" line-height="125%" word-spacing="0" letter-spacing="0">
  <text id="text53" font-family="Gentium Book Basic" font-size="208.33" x="277.99" y="535.94"><tspan id="tspan55" x="277.99" y="535.94"/>
  </text>
  <text id="text57" font-family="&apos;Gentium Book Basic&apos;" font-size="129.23" x="729.64" y="231.36"><tspan id="tspan59" x="729.64" y="231.36"/>
  </text>
 </g>
 <text id="text61" font-family="Arial" x="378.91" y="579.26" font-size="46.954" transform="scale(4.0128.2492)" text-anchor="middle"/>
 <text id="text63" line-height="125%" font-family="&apos;Gentium Book Basic&apos;" x="1310.91" y="151.36" font-size="129.23" word-spacing="0" letter-spacing="0"><tspan id="tspan65" x="1310.91" y="151.36"/>
 </text>
 <text id="text67" font-family="Arial" x="523.76" y="258.22" font-size="46.954" transform="scale(4.0128.2492)" text-anchor="middle"/>
 <text id="text69" line-height="125%" font-family="&apos;Gentium Book Basic&apos;" x="239.33" y="-29.9" font-size="129.23" word-spacing="0" letter-spacing="0"><tspan id="tspan71" x="239.33" y="-29.9"/>
 </text>
 <text id="text73" font-family="Arial" x="256.72" y="-469.13" font-size="46.954" transform="scale(4.0128.2492)" text-anchor="middle"/>
 <text id="text75" line-height="125%" font-family="&apos;Gentium Book Basic&apos;" x="1337.38" y="-246.37" font-size="129.23" word-spacing="0" letter-spacing="0"><tspan id="tspan77" x="1337.38" y="-246.37"/>
 </text>
 <text id="text79" font-family="Arial" x="530.36" y="-1337.8" font-size="46.954" transform="scale(4.0128.2492)" text-anchor="middle"/>
 <text id="text81" line-height="125%" font-family="&apos;Gentium Book Basic&apos;" x="1918.65" y="-326.37" font-size="129.23" word-spacing="0" letter-spacing="0"><tspan id="tspan83" x="1918.65" y="-326.37"/>
 </text>
 <text id="text85" font-family="Arial" x="675.21" y="-1658.83" font-size="46.954" transform="scale(4.0128.2492)" text-anchor="middle"/>
 <text id="text87" line-height="125%" font-family="&apos;Gentium Book Basic&apos;" x="1529.53" y="-798.77" font-size="129.23" word-spacing="0" letter-spacing="0"><tspan id="tspan89" x="1529.53" y="-798.77"/>
 </text>
 <text id="text91" font-family="Arial" x="578.24" y="-3554.48" font-size="46.954" transform="scale(4.0128.2492)" text-anchor="middle"/>
 <text id="text93" line-height="125%" font-family="&apos;Gentium Book Basic&apos;" x="2110.79" y="-878.78" font-size="129.23" word-spacing="0" letter-spacing="0"><tspan id="tspan95" x="2110.79" y="-878.78"/>
 </text>
 <text id="text97" font-family="Arial" x="723.09" y="-3875.52" font-size="46.954" transform="scale(4.0128.2492)" text-anchor="middle"/>
 <g id="g99" line-height="125%" font-family="&apos;Gentium Book Basic&apos;" word-spacing="0" letter-spacing="0">
  <text id="text101" font-size="208.33" x="277.99" y="535.94"><tspan id="tspan103" x="277.99" y="535.94"/>
  </text>
  <text id="text105" font-size="129.23" x="729.64" y="231.36"><tspan id="tspan107" x="729.64" y="231.36"/>
  </text>
 </g>
 <text id="text109" font-family="Arial" x="378.91" y="579.26" font-size="46.954" transform="scale(4.0128.2492)" text-anchor="middle"/>
 <text id="text111" line-height="125%" font-family="&apos;Gentium Book Basic&apos;" x="1310.91" y="151.36" font-size="129.23" word-spacing="0" letter-spacing="0"><tspan id="tspan113" x="1310.91" y="151.36"/>
 </text>
 <text id="text115" font-family="Arial" x="523.76" y="258.22" font-size="46.954" transform="scale(4.0128.2492)" text-anchor="middle"/>
 <text id="text117" line-height="125%" font-family="&apos;Gentium Book Basic&apos;" x="239.33" y="-29.9" font-size="129.23" word-spacing="0" letter-spacing="0"><tspan id="tspan119" x="239.33" y="-29.9"/>
 </text>
 <text id="text121" font-family="Arial" x="256.72" y="-469.13" font-size="46.954" transform="scale(4.0128.2492)" text-anchor="middle"/>
 <text id="text123" line-height="125%" font-family="&apos;Gentium Book Basic&apos;" x="1337.38" y="-246.37" font-size="129.23" word-spacing="0" letter-spacing="0"><tspan id="tspan125" x="1337.38" y="-246.37"/>
 </text>
 <text id="text127" font-family="Arial" x="530.36" y="-1337.79" font-size="46.954" transform="scale(4.0128.2492)" text-anchor="middle"/>
 <text id="text129" line-height="125%" font-family="&apos;Gentium Book Basic&apos;" x="1918.65" y="-326.37" font-size="129.23" word-spacing="0" letter-spacing="0"><tspan id="tspan131" x="1918.65" y="-326.37"/>
 </text>
 <text id="text133" font-family="Arial" x="675.21" y="-1658.82" font-size="46.954" transform="scale(4.0128.2492)" text-anchor="middle"/>
 <text id="text135" line-height="125%" font-family="&apos;Gentium Book Basic&apos;" x="1529.53" y="-798.77" font-size="129.23" word-spacing="0" letter-spacing="0"><tspan id="tspan137" x="1529.53" y="-798.77"/>
 </text>
 <text id="text139" font-family="Arial" x="578.24" y="-3554.46" font-size="46.954" transform="scale(4.0128.2492)" text-anchor="middle"/>
 <text id="text141" line-height="125%" font-family="&apos;Gentium Book Basic&apos;" x="2110.79" y="-878.78" font-size="129.23" word-spacing="0" letter-spacing="0"><tspan id="tspan143" x="2110.79" y="-878.78"/>
 </text>
 <text id="text145" font-family="Arial" x="723.09" y="-3875.5" font-size="46.954" transform="scale(4.0128.2492)" text-anchor="middle"/>
 <g id="g147" line-height="125%" font-family="&apos;Gentium Book Basic&apos;" word-spacing="0" letter-spacing="0">
  <text id="text149" font-size="208.33" x="277.99" y="535.94"><tspan id="tspan151" x="277.99" y="535.94"/>
  </text>
  <text id="text153" font-size="129.23" x="729.64" y="231.36"><tspan id="tspan155" x="729.64" y="231.36"/>
  </text>
 </g>
 <text id="text157" font-family="Arial" x="378.91" y="579.26" font-size="46.954" transform="scale(4.0128.2492)" text-anchor="middle"/>
 <text id="text159" line-height="125%" font-family="&apos;Gentium Book Basic&apos;" x="1310.91" y="151.36" font-size="129.23" word-spacing="0" letter-spacing="0"><tspan id="tspan161" x="1310.91" y="151.36"/>
 </text>
 <text id="text163" font-family="Arial" x="523.76" y="258.22" font-size="46.954" transform="scale(4.0128.2492)" text-anchor="middle"/>
 <text id="text165" line-height="125%" font-family="&apos;Gentium Book Basic&apos;" x="239.33" y="-29.9" font-size="129.23" word-spacing="0" letter-spacing="0"><tspan id="tspan167" x="239.33" y="-29.9"/>
 </text>
 <text id="text169" font-family="Arial" x="256.72" y="-469.13" font-size="46.954" transform="scale(4.0128.2492)" text-anchor="middle"/>
 <text id="text171" line-height="125%" font-family="&apos;Gentium Book Basic&apos;" x="1337.38" y="-246.37" font-size="129.23" word-spacing="0" letter-spacing="0"><tspan id="tspan173" x="1337.38" y="-246.37"/>
 </text>
 <text id="text175" font-family="Arial" x="530.36" y="-1337.8" font-size="46.954" transform="scale(4.0128.2492)" text-anchor="middle"/>
 <text id="text177" line-height="125%" font-family="&apos;Gentium Book Basic&apos;" x="1918.65" y="-326.37" font-size="129.23" word-spacing="0" letter-spacing="0"><tspan id="tspan179" x="1918.65" y="-326.37"/>
 </text>
 <text id="text181" font-family="Arial" x="675.21" y="-1658.83" font-size="46.954" transform="scale(4.0128.2492)" text-anchor="middle"/>
 <text id="text183" line-height="125%" font-family="&apos;Gentium Book Basic&apos;" x="1529.53" y="-798.77" font-size="129.23" word-spacing="0" letter-spacing="0"><tspan id="tspan185" x="1529.53" y="-798.77"/>
 </text>
 <text id="text187" font-family="Arial" x="578.24" y="-3554.48" font-size="46.954" transform="scale(4.0128.2492)" text-anchor="middle"/>
 <text id="text189" line-height="125%" font-family="&apos;Gentium Book Basic&apos;" x="2110.79" y="-878.78" font-size="129.23" word-spacing="0" letter-spacing="0"><tspan id="tspan191" x="2110.79" y="-878.78"/>
 </text>
 <text id="text193" font-family="Arial" x="723.09" y="-3875.52" font-size="46.954" transform="scale(4.0128.2492)" text-anchor="middle"/>
 <g id="g195" line-height="125%" font-family="&apos;Gentium Book Basic&apos;" word-spacing="0" letter-spacing="0">
  <text id="text197" font-size="208.33" x="277.99" y="535.94"><tspan id="tspan199" x="277.99" y="535.94"/>
  </text>
  <text id="text201" font-size="129.23" x="729.64" y="231.36"><tspan id="tspan203" x="729.64" y="231.36"/>
  </text>
 </g>
 <text id="text205" font-family="Arial" x="378.91" y="579.26" font-size="46.954" transform="scale(4.0128.2492)" text-anchor="middle"/>
 <text id="text207" line-height="125%" font-family="&apos;Gentium Book Basic&apos;" x="1310.91" y="151.36" font-size="129.23" word-spacing="0" letter-spacing="0"><tspan id="tspan209" x="1310.91" y="151.36"/>
 </text>
 <text id="text211" font-family="Arial" x="523.76" y="258.22" font-size="46.954" transform="scale(4.0128.2492)" text-anchor="middle"/>
 <text id="text213" line-height="125%" font-family="&apos;Gentium Book Basic&apos;" x="239.33" y="-29.9" font-size="129.23" word-spacing="0" letter-spacing="0"><tspan id="tspan215" x="239.33" y="-29.9"/>
 </text>
 <text id="text217" font-family="Arial" x="256.72" y="-469.13" font-size="46.954" transform="scale(4.0128.2492)" text-anchor="middle"/>
 <text id="text219" line-height="125%" font-family="&apos;Gentium Book Basic&apos;" x="1337.38" y="-246.37" font-size="129.23" word-spacing="0" letter-spacing="0"><tspan id="tspan221" x="1337.38" y="-246.37"/>
 </text>
 <text id="text223" font-family="Arial" x="530.36" y="-1337.8" font-size="46.954" transform="scale(4.0128.2492)" text-anchor="middle"/>
 <text id="text225" line-height="125%" font-family="&apos;Gentium Book Basic&apos;" x="1918.65" y="-326.37" font-size="129.23" word-spacing="0" letter-spacing="0"><tspan id="tspan227" x="1918.65" y="-326.37"/>
 </text>
 <text id="text229" font-family="Arial" x="675.21" y="-1658.83" font-size="46.954" transform="scale(4.0128.2492)" text-anchor="middle"/>
 <text id="text231" line-height="125%" font-family="&apos;Gentium Book Basic&apos;" x="1529.53" y="-798.77" font-size="129.23" word-spacing="0" letter-spacing="0"><tspan id="tspan233" x="1529.53" y="-798.77"/>
 </text>
 <text id="text235" font-family="Arial" x="578.24" y="-3554.48" font-size="46.954" transform="scale(4.0128.2492)" text-anchor="middle"/>
 <text id="text237" line-height="125%" font-family="&apos;Gentium Book Basic&apos;" x="2110.79" y="-878.78" font-size="129.23" word-spacing="0" letter-spacing="0"><tspan id="tspan239" x="2110.79" y="-878.78"/>
 </text>
 <text id="text241" font-family="Arial" x="723.09" y="-3875.52" font-size="46.954" transform="scale(4.0128.2492)" text-anchor="middle"/>
 <g id="g243" line-height="125%" font-family="&apos;Gentium Book Basic&apos;" word-spacing="0" letter-spacing="0">
  <text id="text245" font-size="208.33" x="277.99" y="535.94"><tspan id="tspan247" x="277.99" y="535.94"/>
  </text>
  <text id="text249" font-size="129.23" x="729.64" y="231.36"><tspan id="tspan251" x="729.64" y="231.36"/>
  </text>
 </g>
 <text id="text253" font-family="Arial" x="378.91" y="579.26" font-size="46.954" transform="scale(4.0128.2492)" text-anchor="middle"/>
 <text id="text255" line-height="125%" font-family="&apos;Gentium Book Basic&apos;" x="1310.91" y="151.36" font-size="129.23" word-spacing="0" letter-spacing="0"><tspan id="tspan257" x="1310.91" y="151.36"/>
 </text>
 <text id="text259" font-family="Arial" x="523.76" y="258.22" font-size="46.954" transform="scale(4.0128.2492)" text-anchor="middle"/>
 <text id="text261" line-height="125%" font-family="&apos;Gentium Book Basic&apos;" x="239.33" y="-29.9" font-size="129.23" word-spacing="0" letter-spacing="0"><tspan id="tspan263" x="239.33" y="-29.9"/>
 </text>
 <text id="text265" font-family="Arial" x="256.72" y="-469.13" font-size="46.954" transform="scale(4.0128.2492)" text-anchor="middle"/>
 <text id="text267" line-height="125%" font-family="&apos;Gentium Book Basic&apos;" x="1337.38" y="-246.37" font-size="129.23" word-spacing="0" letter-spacing="0"><tspan id="tspan269" x="1337.38" y="-246.37"/>
 </text>
 <text id="text271" font-family="Arial" x="530.36" y="-1337.8" font-size="46.954" transform="scale(4.0128.2492)" text-anchor="middle"/>
 <text id="text273" line-height="125%" font-family="&apos;Gentium Book Basic&apos;" x="1918.65" y="-326.37" font-size="129.23" word-spacing="0" letter-spacing="0"><tspan id="tspan275" x="1918.65" y="-326.37"/>
 </text>
 <text id="text277" font-family="Arial" x="675.21" y="-1658.83" font-size="46.954" transform="scale(4.0128.2492)" text-anchor="middle"/>
 <text id="text279" line-height="125%" font-family="&apos;Gentium Book Basic&apos;" x="1529.53" y="-798.77" font-size="129.23" word-spacing="0" letter-spacing="0"><tspan id="tspan281" x="1529.53" y="-798.77"/>
 </text>
 <text id="text283" font-family="Arial" x="578.24" y="-3554.48" font-size="46.954" transform="scale(4.0128.2492)" text-anchor="middle"/>
 <text id="text285" line-height="125%" font-family="&apos;Gentium Book Basic&apos;" x="2110.79" y="-878.78" font-size="129.23" word-spacing="0" letter-spacing="0"><tspan id="tspan287" x="2110.79" y="-878.78"/>
 </text>
 <text id="text289" font-family="Arial" x="723.09" y="-3875.52" font-size="46.954" transform="scale(4.0128.2492)" text-anchor="middle"/>
 <g id="g291" line-height="125%" font-family="&apos;Gentium Book Basic&apos;" word-spacing="0" letter-spacing="0">
  <text id="text293" font-size="208.33" x="277.99" y="535.94"><tspan id="tspan295" x="277.99" y="535.94"/>
  </text>
  <text id="text297" font-size="129.23" x="729.64" y="231.36"><tspan id="tspan299" x="729.64" y="231.36"/>
  </text>
 </g>
 <text id="text301" font-family="Arial" x="378.91" y="579.26" font-size="46.954" transform="scale(4.0128.2492)" text-anchor="middle"/>
 <text id="text303" line-height="125%" font-family="&apos;Gentium Book Basic&apos;" x="1310.91" y="151.36" font-size="129.23" word-spacing="0" letter-spacing="0"><tspan id="tspan305" x="1310.91" y="151.36"/>
 </text>
 <text id="text307" font-family="Arial" x="523.76" y="258.22" font-size="46.954" transform="scale(4.0128.2492)" text-anchor="middle"/>
 <text id="text309" line-height="125%" font-family="&apos;Gentium Book Basic&apos;" x="239.33" y="-29.9" font-size="129.23" word-spacing="0" letter-spacing="0"><tspan id="tspan311" x="239.33" y="-29.9"/>
 </text>
 <text id="text313" font-family="Arial" x="256.72" y="-469.13" font-size="46.954" transform="scale(4.0128.2492)" text-anchor="middle"/>
 <text id="text315" line-height="125%" font-family="&apos;Gentium Book Basic&apos;" x="1337.38" y="-246.37" font-size="129.23" word-spacing="0" letter-spacing="0"><tspan id="tspan317" x="1337.38" y="-246.37"/>
 </text>
 <text id="text319" font-family="Arial" x="530.36" y="-1337.8" font-size="46.954" transform="scale(4.0128.2492)" text-anchor="middle"/>
 <text id="text321" line-height="125%" font-family="&apos;Gentium Book Basic&apos;" x="1918.65" y="-326.37" font-size="129.23" word-spacing="0" letter-spacing="0"><tspan id="tspan323" x="1918.65" y="-326.37"/>
 </text>
 <text id="text325" font-family="Arial" x="675.21" y="-1658.83" font-size="46.954" transform="scale(4.0128.2492)" text-anchor="middle"/>
 <text id="text327" line-height="125%" font-family="&apos;Gentium Book Basic&apos;" x="1529.53" y="-798.77" font-size="129.23" word-spacing="0" letter-spacing="0"><tspan id="tspan329" x="1529.53" y="-798.77"/>
 </text>
 <text id="text331" font-family="Arial" x="578.24" y="-3554.48" font-size="46.954" transform="scale(4.0128.2492)" text-anchor="middle"/>
 <text id="text333" line-height="125%" font-family="&apos;Gentium Book Basic&apos;" x="2110.79" y="-878.78" font-size="129.23" word-spacing="0" letter-spacing="0"><tspan id="tspan335" x="2110.79" y="-878.78"/>
 </text>
 <text id="text337" font-family="Arial" x="723.09" y="-3875.52" font-size="46.954" transform="scale(4.0128.2492)" text-anchor="middle"/>
 <g id="g339" line-height="125%" font-family="&apos;Gentium Book Basic&apos;" word-spacing="0" letter-spacing="0">
  <text id="text341" font-size="208.33" x="277.99" y="535.94"><tspan id="tspan343" x="277.99" y="535.94"/>
  </text>
  <text id="text345" font-size="129.23" x="729.64" y="231.36"><tspan id="tspan347" x="729.64" y="231.36"/>
  </text>
 </g>
 <text id="text349" font-family="Arial" x="378.91" y="579.26" font-size="46.954" transform="scale(4.0128.2492)" text-anchor="middle"/>
 <text id="text351" line-height="125%" font-family="&apos;Gentium Book Basic&apos;" x="1310.91" y="151.36" font-size="129.23" word-spacing="0" letter-spacing="0"><tspan id="tspan353" x="1310.91" y="151.36"/>
 </text>
 <text id="text355" font-family="Arial" x="523.76" y="258.22" font-size="46.954" transform="scale(4.0128.2492)" text-anchor="middle"/>
 <text id="text357" line-height="125%" font-family="&apos;Gentium Book Basic&apos;" x="239.33" y="-29.9" font-size="129.23" word-spacing="0" letter-spacing="0"><tspan id="tspan359" x="239.33" y="-29.9"/>
 </text>
 <text id="text361" font-family="Arial" x="256.72" y="-469.13" font-size="46.954" transform="scale(4.0128.2492)" text-anchor="middle"/>
 <text id="text363" line-height="125%" font-family="&apos;Gentium Book Basic&apos;" x="1337.38" y="-246.37" font-size="129.23" word-spacing="0" letter-spacing="0"><tspan id="tspan365" x="1337.38" y="-246.37"/>
 </text>
 <text id="text367" font-family="Arial" x="530.36" y="-1337.8" font-size="46.954" transform="scale(4.0128.2492)" text-anchor="middle"/>
 <text id="text369" line-height="125%" font-family="&apos;Gentium Book Basic&apos;" x="1918.65" y="-326.37" font-size="129.23" word-spacing="0" letter-spacing="0"><tspan id="tspan371" x="1918.65" y="-326.37"/>
 </text>
 <text id="text373" font-family="Arial" x="675.21" y="-1658.83" font-size="46.954" transform="scale(4.0128.2492)" text-anchor="middle"/>
 <text id="text375" line-height="125%" font-family="&apos;Gentium Book Basic&apos;" x="1529.53" y="-798.77" font-size="129.23" word-spacing="0" letter-spacing="0"><tspan id="tspan377" x="1529.53" y="-798.77"/>
 </text>
 <text id="text379" font-family="Arial" x="578.24" y="-3554.48" font-size="46.954" transform="scale(4.0128.2492)" text-anchor="middle"/>
 <text id="text381" line-height="125%" font-family="&apos;Gentium Book Basic&apos;" x="2110.79" y="-878.78" font-size="129.23" word-spacing="0" letter-spacing="0"><tspan id="tspan383" x="2110.79" y="-878.78"/>
 </text>
 <text id="text385" font-family="Arial" x="723.09" y="-3875.52" font-size="46.954" transform="scale(4.0128.2492)" text-anchor="middle"/>
 <g id="g387" line-height="125%" font-family="&apos;Gentium Book Basic&apos;" word-spacing="0" letter-spacing="0">
  <text id="text389" font-size="208.33" x="277.99" y="535.94"><tspan id="tspan391" x="277.99" y="535.94"/>
  </text>
  <text id="text393" font-size="129.23" x="729.64" y="231.36"><tspan id="tspan395" x="729.64" y="231.36"/>
  </text>
 </g>
 <text id="text397" font-family="Arial" x="378.91" y="579.26" font-size="46.954" transform="scale(4.0128.2492)" text-anchor="middle"/>
 <text id="text399" line-height="125%" font-family="&apos;Gentium Book Basic&apos;" x="1310.91" y="151.36" font-size="129.23" word-spacing="0" letter-spacing="0"><tspan id="tspan401" x="1310.91" y="151.36"/>
 </text>
 <text id="text403" font-family="Arial" x="523.76" y="258.22" font-size="46.954" transform="scale(4.0128.2492)" text-anchor="middle"/>
 <text id="text405" line-height="125%" font-family="&apos;Gentium Book Basic&apos;" x="239.33" y="-29.9" font-size="129.23" word-spacing="0" letter-spacing="0"><tspan id="tspan407" x="239.33" y="-29.9"/>
 </text>
 <text id="text409" font-family="Arial" x="256.72" y="-469.13" font-size="46.954" transform="scale(4.0128.2492)" text-anchor="middle"/>
 <text id="text411" line-height="125%" font-family="&apos;Gentium Book Basic&apos;" x="1337.38" y="-246.37" font-size="129.23" word-spacing="0" letter-spacing="0"><tspan id="tspan413" x="1337.38" y="-246.37"/>
 </text>
 <text id="text415" font-family="Arial" x="530.36" y="-1337.8" font-size="46.954" transform="scale(4.0128.2492)" text-anchor="middle"/>
 <text id="text417" line-height="125%" font-family="&apos;Gentium Book Basic&apos;" x="1918.65" y="-326.37" font-size="129.23" word-spacing="0" letter-spacing="0"><tspan id="tspan419" x="1918.65" y="-326.37"/>
 </text>
 <text id="text421" font-family="Arial" x="675.21" y="-1658.83" font-size="46.954" transform="scale(4.0128.2492)" text-anchor="middle"/>
 <text id="text423" line-height="125%" font-family="&apos;Gentium Book Basic&apos;" x="1529.53" y="-798.77" font-size="129.23" word-spacing="0" letter-spacing="0"><tspan id="tspan425" x="1529.53" y="-798.77"/>
 </text>
 <text id="text427" font-family="Arial" x="578.24" y="-3554.48" font-size="46.954" transform="scale(4.0128.2492)" text-anchor="middle"/>
 <text id="text429" line-height="125%" font-family="&apos;Gentium Book Basic&apos;" x="2110.79" y="-878.78" font-size="129.23" word-spacing="0" letter-spacing="0"><tspan id="tspan431" x="2110.79" y="-878.78"/>
 </text>
 <text id="text433" font-family="Arial" x="723.09" y="-3875.52" font-size="46.954" transform="scale(4.0128.2492)" text-anchor="middle"/>
 <g id="g435" line-height="125%" font-family="&apos;Gentium Book Basic&apos;" word-spacing="0" letter-spacing="0">
  <text id="text437" font-size="208.33" x="277.99" y="535.94"><tspan id="tspan439" x="277.99" y="535.94"/>
  </text>
  <text id="text441" font-size="129.23" x="729.64" y="231.36"><tspan id="tspan443" x="729.64" y="231.36"/>
  </text>
 </g>
 <text id="text445" font-family="Arial" x="378.91" y="579.26" font-size="46.954" transform="scale(4.0128.2492)" text-anchor="middle"/>
 <text id="text447" line-height="125%" font-family="&apos;Gentium Book Basic&apos;" x="1310.91" y="151.36" font-size="129.23" word-spacing="0" letter-spacing="0"><tspan id="tspan449" x="1310.91" y="151.36"/>
 </text>
 <text id="text451" font-family="Arial" x="523.76" y="258.22" font-size="46.954" transform="scale(4.0128.2492)" text-anchor="middle"/>
 <text id="text453" line-height="125%" font-family="&apos;Gentium Book Basic&apos;" x="239.33" y="-29.9" font-size="129.23" word-spacing="0" letter-spacing="0"><tspan id="tspan455" x="239.33" y="-29.9"/>
 </text>
 <text id="text457" font-family="Arial" x="256.72" y="-469.13" font-size="46.954" transform="scale(4.0128.2492)" text-anchor="middle"/>
 <text id="text459" line-height="125%" font-family="&apos;Gentium Book Basic&apos;" x="1337.38" y="-246.37" font-size="129.23" word-spacing="0" letter-spacing="0"><tspan id="tspan461" x="1337.38" y="-246.37"/>
 </text>
 <text id="text463" font-family="Arial" x="530.36" y="-1337.8" font-size="46.954" transform="scale(4.0128.2492)" text-anchor="middle"/>
 <text id="text465" line-height="125%" font-family="&apos;Gentium Book Basic&apos;" x="1918.65" y="-326.37" font-size="129.23" word-spacing="0" letter-spacing="0"><tspan id="tspan467" x="1918.65" y="-326.37"/>
 </text>
 <text id="text469" font-family="Arial" x="675.21" y="-1658.83" font-size="46.954" transform="scale(4.0128.2492)" text-anchor="middle"/>
 <text id="text471" line-height="125%" font-family="&apos;Gentium Book Basic&apos;" x="1529.53" y="-798.77" font-size="129.23" word-spacing="0" letter-spacing="0"><tspan id="tspan473" x="1529.53" y="-798.77"/>
 </text>
 <text id="text475" font-family="Arial" x="578.24" y="-3554.48" font-size="46.954" transform="scale(4.0128.2492)" text-anchor="middle"/>
 <text id="text477" line-height="125%" font-family="&apos;Gentium Book Basic&apos;" x="2110.79" y="-878.78" font-size="129.23" word-spacing="0" letter-spacing="0"><tspan id="tspan479" x="2110.79" y="-878.78"/>
 </text>
 <text id="text481" font-family="Arial" x="723.09" y="-3875.52" font-size="46.954" transform="scale(4.0128.2492)" text-anchor="middle"/>
 <g id="g483" line-height="125%" font-family="&apos;Gentium Book Basic&apos;" word-spacing="0" letter-spacing="0">
  <text id="text485" font-size="208.33" x="277.99" y="535.94"><tspan id="tspan487" x="277.99" y="535.94"/>
  </text>
  <text id="text489" font-size="129.23" x="729.64" y="231.36"><tspan id="tspan491" x="729.64" y="231.36"/>
  </text>
 </g>
 <text id="text493" font-family="Arial" x="378.91" y="579.26" font-size="46.954" transform="scale(4.0128.2492)" text-anchor="middle"/>
 <text id="text495" line-height="125%" font-family="&apos;Gentium Book Basic&apos;" x="1310.91" y="151.36" font-size="129.23" word-spacing="0" letter-spacing="0"><tspan id="tspan497" x="1310.91" y="151.36"/>
 </text>
 <text id="text499" font-family="Arial" x="523.76" y="258.22" font-size="46.954" transform="scale(4.0128.2492)" text-anchor="middle"/>
 <text id="text501" line-height="125%" font-family="&apos;Gentium Book Basic&apos;" x="239.33" y="-29.9" font-size="129.23" word-spacing="0" letter-spacing="0"><tspan id="tspan503" x="239.33" y="-29.9"/>
 </text>
 <text id="text505" font-family="Arial" x="256.72" y="-469.13" font-size="46.954" transform="scale(4.0128.2492)" text-anchor="middle"/>
 <text id="text507" line-height="125%" font-family="&apos;Gentium Book Basic&apos;" x="1337.38" y="-246.37" font-size="129.23" word-spacing="0" letter-spacing="0"><tspan id="tspan509" x="1337.38" y="-246.37"/>
 </text>
 <text id="text511" font-family="Arial" x="530.36" y="-1337.8" font-size="46.954" transform="scale(4.0128.2492)" text-anchor="middle"/>
 <text id="text513" line-height="125%" font-family="&apos;Gentium Book Basic&apos;" x="1918.65" y="-326.37" font-size="129.23" word-spacing="0" letter-spacing="0"><tspan id="tspan515" x="1918.65" y="-326.37"/>
 </text>
 <text id="text517" font-family="Arial" x="675.21" y="-1658.83" font-size="46.954" transform="scale(4.0128.2492)" text-anchor="middle"/>
 <text id="text519" line-height="125%" font-family="&apos;Gentium Book Basic&apos;" x="1529.53" y="-798.77" font-size="129.23" word-spacing="0" letter-spacing="0"><tspan id="tspan521" x="1529.53" y="-798.77"/>
 </text>
 <text id="text523" font-family="Arial" x="578.24" y="-3554.48" font-size="46.954" transform="scale(4.0128.2492)" text-anchor="middle"/>
 <text id="text525" line-height="125%" font-family="&apos;Gentium Book Basic&apos;" x="2110.79" y="-878.78" font-size="129.23" word-spacing="0" letter-spacing="0"><tspan id="tspan527" x="2110.79" y="-878.78"/>
 </text>
 <text id="text529" font-family="Arial" x="723.09" y="-3875.52" font-size="46.954" transform="scale(4.0128.2492)" text-anchor="middle"/>
 <g id="g531" line-height="125%" font-family="&apos;Gentium Book Basic&apos;" word-spacing="0" letter-spacing="0">
  <text id="text533" font-size="208.33" x="277.99" y="535.94"><tspan id="tspan535" x="277.99" y="535.94"/>
  </text>
  <text id="text537" font-size="129.23" x="729.64" y="231.36"><tspan id="tspan539" x="729.64" y="231.36"/>
  </text>
 </g>
 <text id="text541" font-family="Arial" x="378.91" y="579.26" font-size="46.954" transform="scale(4.0128.2492)" text-anchor="middle"/>
 <text id="text543" line-height="125%" font-family="&apos;Gentium Book Basic&apos;" x="1310.91" y="151.36" font-size="129.23" word-spacing="0" letter-spacing="0"><tspan id="tspan545" x="1310.91" y="151.36"/>
 </text>
 <text id="text547" font-family="Arial" x="523.76" y="258.22" font-size="46.954" transform="scale(4.0128.2492)" text-anchor="middle"/>
 <text id="text549" line-height="125%" font-family="&apos;Gentium Book Basic&apos;" x="239.33" y="-29.9" font-size="129.23" word-spacing="0" letter-spacing="0"><tspan id="tspan551" x="239.33" y="-29.9"/>
 </text>
 <text id="text553" font-family="Arial" x="256.72" y="-469.13" font-size="46.954" transform="scale(4.0128.2492)" text-anchor="middle"/>
 <text id="text555" line-height="125%" font-family="&apos;Gentium Book Basic&apos;" x="1337.38" y="-246.37" font-size="129.23" word-spacing="0" letter-spacing="0"><tspan id="tspan557" x="1337.38" y="-246.37"/>
 </text>
 <text id="text559" font-family="Arial" x="530.36" y="-1337.8" font-size="46.954" transform="scale(4.0128.2492)" text-anchor="middle"/>
 <text id="text561" line-height="125%" font-family="&apos;Gentium Book Basic&apos;" x="1918.65" y="-326.37" font-size="129.23" word-spacing="0" letter-spacing="0"><tspan id="tspan563" x="1918.65" y="-326.37"/>
 </text>
 <text id="text565" font-family="Arial" x="675.21" y="-1658.83" font-size="46.954" transform="scale(4.0128.2492)" text-anchor="middle"/>
 <text id="text567" line-height="125%" font-family="&apos;Gentium Book Basic&apos;" x="1529.53" y="-798.77" font-size="129.23" word-spacing="0" letter-spacing="0"><tspan id="tspan569" x="1529.53" y="-798.77"/>
 </text>
 <text id="text571" font-family="Arial" x="578.24" y="-3554.48" font-size="46.954" transform="scale(4.0128.2492)" text-anchor="middle"/>
 <text id="text573" line-height="125%" font-family="&apos;Gentium Book Basic&apos;" x="2110.79" y="-878.78" font-size="129.23" word-spacing="0" letter-spacing="0"><tspan id="tspan575" x="2110.79" y="-878.78"/>
 </text>
 <text id="text577" font-family="Arial" x="723.09" y="-3875.52" font-size="46.954" transform="scale(4.0128.2492)" text-anchor="middle"/>
 <g id="g579" line-height="125%" font-family="&apos;Gentium Book Basic&apos;" word-spacing="0" letter-spacing="0">
  <text id="text581" font-size="208.33" x="277.99" y="535.94"><tspan id="tspan583" x="277.99" y="535.94"/>
  </text>
  <text id="text585" font-size="129.23" x="729.64" y="231.36"><tspan id="tspan587" x="729.64" y="231.36"/>
  </text>
 </g>
 <text id="text589" font-family="Arial" x="378.91" y="579.26" font-size="46.954" transform="scale(4.0128.2492)" text-anchor="middle"/>
 <text id="text591" line-height="125%" font-family="&apos;Gentium Book Basic&apos;" x="1310.91" y="151.36" font-size="129.23" word-spacing="0" letter-spacing="0"><tspan id="tspan593" x="1310.91" y="151.36"/>
 </text>
 <text id="text595" font-family="Arial" x="523.76" y="258.22" font-size="46.954" transform="scale(4.0128.2492)" text-anchor="middle"/>
 <text id="text597" line-height="125%" font-family="&apos;Gentium Book Basic&apos;" x="239.33" y="-29.9" font-size="129.23" word-spacing="0" letter-spacing="0"><tspan id="tspan599" x="239.33" y="-29.9"/>
 </text>
 <text id="text601" font-family="Arial" x="256.72" y="-469.13" font-size="46.954" transform="scale(4.0128.2492)" text-anchor="middle"/>
 <text id="text603" line-height="125%" font-family="&apos;Gentium Book Basic&apos;" x="1337.38" y="-246.37" font-size="129.23" word-spacing="0" letter-spacing="0"><tspan id="tspan605" x="1337.38" y="-246.37"/>
 </text>
 <text id="text607" font-family="Arial" x="530.36" y="-1337.8" font-size="46.954" transform="scale(4.0128.2492)" text-anchor="middle"/>
 <text id="text609" line-height="125%" font-family="&apos;Gentium Book Basic&apos;" x="1918.65" y="-326.37" font-size="129.23" word-spacing="0" letter-spacing="0"><tspan id="tspan611" x="1918.65" y="-326.37"/>
 </text>
 <text id="text613" font-family="Arial" x="675.21" y="-1658.83" font-size="46.954" transform="scale(4.0128.2492)" text-anchor="middle"/>
 <text id="text615" line-height="125%" font-family="&apos;Gentium Book Basic&apos;" x="1529.53" y="-798.77" font-size="129.23" word-spacing="0" letter-spacing="0"><tspan id="tspan617" x="1529.53" y="-798.77"/>
 </text>
 <text id="text619" font-family="Arial" x="578.24" y="-3554.48" font-size="46.954" transform="scale(4.0128.2492)" text-anchor="middle"/>
 <text id="text621" line-height="125%" font-family="&apos;Gentium Book Basic&apos;" x="2110.79" y="-878.78" font-size="129.23" word-spacing="0" letter-spacing="0"><tspan id="tspan623" x="2110.79" y="-878.78"/>
 </text>
 <text id="text625" font-family="Arial" x="723.09" y="-3875.52" font-size="46.954" transform="scale(4.0128.2492)" text-anchor="middle"/>
 <text id="text627" line-height="125%" font-family="&apos;Gentium Book Basic&apos;" x="277.99" y="535.94" font-size="208.33" word-spacing="0" letter-spacing="0"><tspan id="tspan629" x="277.99" y="535.94"/>
 </text>
 <g id="g631" fill-rule="evenodd">
  <path id="path633" fill="#6e6e6e" d="m471.95 253.05c0 120.9-98.01 218.91-218.91 218.91s-218.91-98.01-218.91-218.91 98.01-218.91 218.91-218.91 218.91 98.01 218.91 218.91"/>
  <path id="path635" fill-opacity="0.067" d="m256 1c-140.83 0-255 114.17-255 255s114.17 255 255 255 255-114.17 255-255-114.17-255-255-255m8.827 44.931c120.9 0 218.9 98 218.9 218.9s-98 218.9-218.9 218.9-218.93-98-218.93-218.9 98.03-218.9 218.93-218.9"/>
  <g id="g637" fill-opacity="0.129">
   <path id="path639" d="m256 4.43c-138.94 0-251.57 112.63-251.57 251.57s112.63 251.57 251.57 251.57 251.57-112.63 251.57-251.57-112.63-251.57-251.57-251.57m5.885 38.556c120.9 0 218.9 98 218.9 218.9s-98 218.9-218.9 218.9-218.93-98-218.93-218.9 98.03-218.9 218.93-218.9"/>
   <path id="path641" d="m256 8.36c-136.77 0-247.64 110.87-247.64 247.64s110.87 247.64 247.64 247.64 247.64-110.87 247.64-247.64-110.87-247.64-247.64-247.64m2.942 31.691c120.9 0 218.9 98 218.9 218.9s-98 218.9-218.9 218.9-218.93-98-218.93-218.9 98.03-218.9 218.93-218.9"/>
  </g>
  <path id="path643" fill="#ffffff" stroke-opacity="0.31" d="m253.04 7.86c-135.42 0-245.19 109.78-245.19 245.19 0 135.42 109.78 245.19 245.19 245.19 135.42 0 245.19-109.78 245.19-245.19 0-135.42-109.78-245.19-245.19-245.19m0 26.297c120.9 0 218.9 98 218.9 218.9s-98 218.9-218.9 218.9-218.93-98-218.93-218.9 98.03-218.9 218.93-218.9z" stroke-width="4.904" stroke="#000000"/>
 </g>
 <text id="text645" line-height="125%" font-family="&apos;Gentium Book Basic&apos;" x="729.64" y="231.36" font-size="129.23" word-spacing="0" letter-spacing="0"><tspan id="tspan647" x="729.64" y="231.36"/>
 </text>
 <text id="text649" font-family="Arial" x="378.91" y="579.26" font-size="46.954" transform="scale(4.0128.2492)" text-anchor="middle"/>
 <text id="text651" line-height="125%" font-family="&apos;Gentium Book Basic&apos;" x="1310.91" y="151.36" font-size="129.23" word-spacing="0" letter-spacing="0"><tspan id="tspan653" x="1310.91" y="151.36"/>
 </text>
 <text id="text655" font-family="Arial" x="523.76" y="258.22" font-size="46.954" transform="scale(4.0128.2492)" text-anchor="middle"/>
 <text id="text657" line-height="125%" font-family="&apos;Gentium Book Basic&apos;" x="239.33" y="-29.9" font-size="129.23" word-spacing="0" letter-spacing="0"><tspan id="tspan659" x="239.33" y="-29.9"/>
 </text>
 <text id="text661" font-family="Arial" x="256.72" y="-469.13" font-size="46.954" transform="scale(4.0128.2492)" text-anchor="middle"/>
 <text id="text663" line-height="125%" font-family="&apos;Gentium Book Basic&apos;" x="1337.38" y="-246.37" font-size="129.23" word-spacing="0" letter-spacing="0"><tspan id="tspan665" x="1337.38" y="-246.37"/>
 </text>
 <text id="text667" font-family="Arial" x="530.36" y="-1337.8" font-size="46.954" transform="scale(4.0128.2492)" text-anchor="middle"/>
 <text id="text669" line-height="125%" font-family="&apos;Gentium Book Basic&apos;" x="1918.65" y="-326.37" font-size="129.23" word-spacing="0" letter-spacing="0"><tspan id="tspan671" x="1918.65" y="-326.37"/>
 </text>
 <text id="text673" font-family="Arial" x="675.21" y="-1658.83" font-size="46.954" transform="scale(4.0128.2492)" text-anchor="middle"/>
 <text id="text675" line-height="125%" font-family="&apos;Gentium Book Basic&apos;" x="1529.53" y="-798.77" font-size="129.23" word-spacing="0" letter-spacing="0"><tspan id="tspan677" x="1529.53" y="-798.77"/>
 </text>
 <text id="text679" font-family="Arial" x="578.24" y="-3554.48" font-size="46.954" transform="scale(4.0128.2492)" text-anchor="middle"/>
 <text id="text681" line-height="125%" font-family="&apos;Gentium Book Basic&apos;" x="2110.79" y="-878.78" font-size="129.23" word-spacing="0" letter-spacing="0"><tspan id="tspan683" x="2110.79" y="-878.78"/>
 </text>
 <text id="text685" font-family="Arial" x="723.09" y="-3875.52" font-size="46.954" transform="scale(4.0128.2492)" text-anchor="middle"/>
 <text id="text687" line-height="125%" font-family="&apos;Gentium Book Basic&apos;" x="277.99" y="535.94" font-size="208.33" word-spacing="0" letter-spacing="0"><tspan id="tspan689" x="277.99" y="535.94"/>
 </text>
 <path id="path691" d="m131.82 122.06c-8.137-0.163-12.725 3.175-14.293 10.313-2.131 9.701 0.608 16.43 13.17 32.465 9.684 12.361 13.03 18.17 16.488 28.586 5.191 15.646 8.852 23.17 14.445 29.813l4.186 5-3.266 13.629c-6.775 28.26-1.314 61.1 10.02 72.43l147.27 147.27c51-16.327 93.87-50.842 120.96-95.92l-186.46-186.46c-26.693-26.693-52.23-42.799-73.36-40.484-5.467 0.599-8.911-1.03-13.885-4.951-7.692-6.06-25.26-11.489-35.27-11.689" opacity="0.25"/>
 <path id="path693" fill="#ffffff" d="m131.82 122.06c-8.137-0.163-12.725 3.174-14.293 10.311-2.131 9.701 0.608 16.431 13.17 32.466 9.684 12.361 13.03 18.17 16.488 28.586 5.191 15.646 8.853 23.16 14.446 29.811l4.186 5-3.267 13.629c-8.34 34.788 1.864 76.52 18.734 76.52 5.681 0 12.03-7.177 13.272-14.957 0.549-3.43 1.909-7.477 3.01-8.984 1.765-2.413 2.475-1.795 5.819 4.9 2.089 4.182 7.258 11.49 11.486 16.233 8.458 9.489 25.784 24.804 26.851 23.737 0.372-0.372-3.541-6.345-8.729-13.272-5.188-6.928-14.83-22.604-21.44-34.814-6.609-12.21-13.04-22.559-14.242-23.02-5.21-1.999-12.305 10.152-14.344 24.553-2.067 14.597-8.817 11.807-13.221-5.411-3.552-13.886-2.442-29.688 3.267-46.5 4.973-14.647 5.081-13.954-5.615-31.904-3.48-5.84-8.461-16.518-11.08-23.737-4.837-13.346-8.958-20.528-19.14-33.18-7.24-8.994-7.691-14.957-1.072-14.957 7.084 0 15.339 2.348 25.17 10.01 8.624 6.72 9.974 7.543 21.235 6.33 10.755-1.159 12.873 0.566 22.563 6.228 22.792 13.319 44.12 30.79 54.926 45.02 4.168 5.492 13 21.399 19.653 35.32 6.65 13.926 14.728 30.7 17.968 37.26 7.491 15.176 17.84 24.775 30.985 28.841 12.13 3.752 20.915 8.178 28.944 14.497 6.333 4.985 6.349 5 2.348 6.075-2.214 0.592-8.933 1.606-14.906 2.246-12.177 1.304-19.14 5.438-19.14 11.383 0 2.405 3.314 6.857 9.393 12.609 11.826 11.19 16.569 14.535 38.796 27.16 20.523 11.655 22.75 12.275 20.266 5.717-2.562-6.764-7.02-11.02-28.23-26.8-11.12-8.277-18.434-14.745-17.15-15.16 1.229-0.399 7.797-1.162 14.599-1.736 13.355-1.126 20.01-3.531 20.776-7.504 0.275-1.426-6.513-9.339-15.722-18.275-13.829-13.419-18.492-16.803-31.751-23.12-19.713-9.398-25.682-15.923-31.343-34.3-8.137-26.421-23.1-50.562-46.3-74.73-28.438-29.629-55.806-47.886-78.2-45.43-5.467 0.599-8.911-1.031-13.885-4.952-7.692-6.06-25.26-11.489-35.27-11.69m45.942 43.849c-0.865 0.098-1.721 0.363-2.603 0.817-3.75 1.929-3.676 5.778 0.153 6.993 1.668 0.53 4.211 3.879 5.615 7.453s2.921 6.534 3.369 6.534c6.933 0 8.486-11.878 2.297-17.509-3.579-3.256-6.237-4.581-8.831-4.288"/>
</svg>
