<?xml version="1.0" encoding="UTF-8" standalone="no"?>
<svg xmlns="http://www.w3.org/2000/svg" xmlns:sodipodi="http://sodipodi.sourceforge.net/DTD/sodipodi-0.dtd" xmlns:inkscape="http://www.inkscape.org/namespaces/inkscape" viewBox="0 0 512 512" version="1.1" width="512" height="512">
 <metadata id="metadata70"/>
 <path inkscape:connector-curvature="0" id="path6" d="m 471.94999,253.05 c 0,120.9 -98.01,218.9 -218.9,218.9 -120.89998,0 -218.89998,-98.01 -218.89998,-218.9 0,-120.9 98.01,-218.9 218.89998,-218.9 120.9,0 218.9,98.01 218.9,218.9" fill="#909090" fill-rule="evenodd"/>
 <path inkscape:connector-curvature="0" id="path970" d="m 257.28319,36.16016 c -2.9728,-0.6098 -2.5463,0.39701 -1.8222,2.55078 -1.1608,9.29945 -0.3992,18.75644 -0.6836,28.13281 -11.4786,0 -22.9571,0 -34.43558,0 -0.0462,-9.36566 0.092,-18.93813 -0.0684,-28.17578 -1.8199,0.1633 -6.03463,-0.16441 -4.1875,2.93945 0,8.41211 0,16.82422 0,25.23633 -11.47526,0 -22.95052,0 -34.42578,0 -0.52623,-6.10164 0.67849,-13.26636 -0.46485,-18.63477 -5.23202,0.24268 -1.93119,5.30767 -2.24219,8.3711 0.93106,5.3408 -2.92403,11.55201 -8.96679,10.25872 -8.90951,0.006 -17.81901,0.005 -26.72852,0.005 0.7277,-2.25915 -4.99005,2.41047 -6.36328,3.10938 5.6665,1.34545 5.57309,7.9844 4.89189,12.54284 -0.0663,7.06047 0.0578,14.12123 -0.0149,21.18176 -11.2207,0 -22.4414,0 -33.6621,0 -1.3596,-3.62409 -0.95253,-8.02952 -0.85157,-11.41406 -4.01967,2.6215 -5.30319,7.99006 -1.82089,11.76162 3.65063,6.07553 -4.18982,-1.76629 -7.30021,-0.67959 -2.0472,0.1555 -5.39,2.63796 -5.53711,3.83008 5.09967,-0.6665 13.28879,1.15112 11.07813,8.11719 0,8.82943 0,17.65885 0,26.48828 -11.02148,0 -22.04297,0 -33.06445,0 -0.88475,-2.06381 -0.41296,-7.1628 -2.50196,-2.19336 -1.69771,2.98091 -4.94887,6.17685 -1.6914,9.05273 1.78349,5.9932 -0.6864,12.31807 0.51953,18.43946 1.07712,5.24763 -1.44485,12.62837 -7.9082,11.97461 -3.49601,0.32506 -9.77584,-2.99584 -10.78711,1.99219 -1.19299,2.22939 4.2124,0.0599 5.3164,0.50781 5.50632,-1.08358 14.04797,0.40146 13.78321,7.55664 -1.14825,7.3968 -0.59561,14.64254 -0.26368,22.07812 0.10957,4.53561 -4.84097,5.73362 -8.40429,4.89649 -6.44141,0 -12.88282,0 -19.32422,0 -0.0468,1.59852 -2.3633,5.84304 0.94922,4.25586 8.84765,0 17.69531,0 26.54297,0 0,11.48242 0,22.96484 0,34.44726 -10.1759,0.47074 -21.17641,-0.71606 -30.77735,0.50977 -0.21189,2.07514 -0.32531,4.06417 2.20703,2.55273 6.34776,-0.91491 12.75659,1.14305 19.08399,-0.38672 5.3371,-0.75776 11.4465,3.43788 9.67968,9.35547 -0.5788,8.26947 0.0741,16.56045 -0.23437,24.83789 -8.87225,0.35634 -19.36795,-0.70295 -27.25586,0.51172 -0.18539,3.02745 2.195,5.59627 5.21289,3.74414 7.36133,0 14.72266,0 22.08399,0 0,11.47136 0,22.94271 0,34.41406 -5.40755,0.50445 -11.5713,-0.5282 -16.51563,0.32227 0.006,3.89637 3.27083,2.92335 5.77734,2.50781 5.21896,-0.89303 12.34612,2.25557 11.17031,8.53944 -0.11533,8.05694 -1.85224,16.7136 0.7379,24.44298 1.37863,1.88878 2.43851,4.97163 4.06054,6.13477 6.09524,-5.01761 14.21649,-0.22691 21.12696,-2.44531 5.05784,-0.80981 11.47271,2.50065 10.47656,8.38867 0,8.77539 0,17.55078 0,26.32617 -1.89337,0.26501 -3.80643,0.30415 -5.70898,0.125 3.12775,2.67043 6.55428,7.33677 9.5957,8.81836 1.84335,-5.15697 8.05703,-6.95165 12.87822,-5.25596 7.09946,0.256 14.20391,-0.0223 21.30538,0.10557 0.30148,10.37081 -0.38251,20.81272 0.27343,31.10352 5.53299,4.9213 1.55251,-7.36752 2.7461,-10.27149 0,-6.94922 0,-13.89844 0,-20.84765 11.2832,0 22.5664,0 33.84961,0 0,11.28255 0,22.5651 0,33.84765 -10.69727,0 -21.39453,0 -32.0918,0 7.681,5.57526 17.05356,2.31197 25.64453,2.78906 5.55851,0.54751 7.26335,6.58347 6.32227,11.29688 -0.20022,1.74905 3.67233,1.78906 3.29687,1.34961 -1.29302,-4.88127 -0.34948,-12.72847 6.27539,-12.52149 7.11936,-0.13116 14.25783,0.43477 21.3418,-0.16406 4.8062,0.40602 8.48405,5.3148 7.05078,10.01758 0.44121,3.93988 -2.08716,9.25355 0.5,12.00586 5.54532,2.75881 2.76025,-5.12542 3.38477,-8.37109 1.1431,-4.99557 -3.42577,-15.70311 5,-13.41602 9.82098,0 19.64188,0 29.46288,0 0.1914,8.27866 -0.225,16.56252 0.1367,24.83789 3.2469,0.98947 3.8478,-0.48997 2.8692,-3.23828 0,-7.19987 0,-14.39974 0,-21.59961 11.2825,0 22.5651,0 33.8476,0 0.4001,6.89855 -0.7858,15.60442 0.5664,21.41797 4.3945,0.41927 4.6175,-3.35403 3.8965,-6.43555 0.4952,-4.66759 -3.0109,-13.11635 3.4219,-15.0039 9.995,-0.0576 20.0605,0.0856 30.0801,0.0215 1.3153,3.49285 0.8626,7.41869 0.6992,10.9082 3.7474,-0.37814 3.8828,-3.44874 3.0371,-6.16992 1.1177,-5.96033 9.1173,-4.81204 13.5527,-4.62695 4.3742,0.35581 9.0654,-0.34244 12.6133,-3.09766 -8.7142,0 -17.4284,0 -26.1426,0 0,-11.28255 0,-22.5651 0,-33.84765 11.2832,0 22.5664,0 33.8496,0 0.2086,9.5349 -0.4126,20.52724 0.3028,29.17187 5.5505,-2.8371 1.4235,-10.03508 2.6836,-14.80664 1.301,-4.17523 -2.6627,-13.8268 2.08,-14.42188 10.4337,0.50032 20.9526,-0.80337 31.3243,0.85157 2.0377,-2.2338 4.1821,-4.3436 6.5273,-6.26563 -4.6602,-5.60964 -0.1729,-13.17865 -1.8526,-19.58404 -0.8364,-5.14924 -0.061,-13.07891 6.6046,-13.5058 6.8417,0.45839 13.8304,0.82005 20.7343,0.23437 4.742,-5.28617 -6.3272,-1.74382 -9.2715,-2.76367 -6.0143,0 -12.0286,0 -18.0429,0 0,-11.2832 0,-22.5664 0,-33.84961 11.2825,0 22.5651,0 33.8476,0 0,8.73763 0,17.47526 0,26.21289 3.717,-5.25369 3.3224,-11.56908 2.5274,-17.57422 -0.3044,-5.11854 4.4575,-10.24647 9.6719,-8.31445 1.2883,-1.57164 2.1816,-4.18339 -0.8907,-3.03515 -4.7875,0.78314 -9.5529,-3.20642 -8.3222,-8.27344 0,-8.82813 0,-17.65625 0,-26.48438 6.8064,-0.263 14.4212,0.51843 20.7382,-0.37695 0.598,-1.77149 1.5895,-5.91197 -1.8828,-4.11719 -5.5678,-0.92429 -12.2274,2.4981 -17.3672,-1.01172 -3.5783,-4.64706 -0.4224,-11.40358 -1.4882,-16.75 1.4469,-4.83666 -3.2157,-15.72361 2.9804,-15.85721 7.1826,-0.16509 14.7236,0.35741 21.6739,-0.20529 1.985,-4.67088 -3.104,-2.31594 -5.9336,-2.77148 -6.2403,0 -12.4805,0 -18.7207,0 0,-11.49414 0,-22.98828 0,-34.48242 7.3982,-0.0467 15.0053,0.0927 22.2754,-0.0684 0.142,-2.67965 -0.2631,-5.93272 -3.6739,-4.25586 -6.1354,-0.61326 -13.0563,1.88941 -18.6015,-1.77149 0,-10.51432 0,-21.02864 0,-31.54297 3.9087,-2.27725 9.0448,-0.87862 12.7734,-1.07812 -0.2628,-2.23491 -1.1496,-4.36629 -3.418,-2.58008 -6.1029,1.77174 -11.1123,-5.01953 -9.5039,-10.66601 0.3548,-6.97081 1.346,-16.87325 -2.8379,-21.61133 0,10.61653 0,21.23307 0,31.84961 -11.2825,0 -22.5651,0 -33.8476,0 0,-11.28321 0,-22.56641 0,-33.84961 10.6169,-0.185 22.652,0.36656 32.4004,-0.26953 -1.0528,-2.41321 -1.7079,-4.2438 -4.5352,-2.85157 -7.0805,0.71905 -14.2318,-0.37755 -21.2969,0.36914 -5.3883,-0.50031 -8.5521,-6.4764 -6.6709,-11.35091 0.2833,-7.71764 -0.012,-15.44081 0.1143,-23.1608 1.3405,-1.13417 6.9408,0.86443 4.3535,-1.26758 -2.6617,-2.51792 -5.5872,-6.38265 -8.1172,-8.0918 -1.2646,5.41726 -7.3752,7.46244 -12.2369,5.67614 -7.3625,-0.53187 -14.7455,0.16081 -22.1146,-0.19372 -0.3555,-11.10934 0.6829,-22.86359 -0.4668,-33.60546 -7.8992,-6.35164 -18.7766,-1.85463 -27.8789,-3.17774 -3.5673,0.0163 -8.5241,1.22827 -8.625,-3.54492 -1.2282,-3.90926 2.4267,-9.45012 -0.9473,-12.1582 -3.8004,-2.99074 -1.4253,3.20559 -1.6836,5.31836 0.984,5.39736 -2.6448,11.8417 -8.7656,10.83398 -7.4663,-1.2746 -14.9981,0.17938 -22.4531,-0.62695 -5.3316,-1.07864 -3.7811,-7.37463 -3.4844,-11.09571 -0.281,-5.00154 0.5427,-10.85805 -0.377,-15.36523 -1.7712,-0.59551 -5.9131,-1.59307 -4.1172,1.88086 0.5772,8.18398 0.065,16.51812 0.2383,24.75781 -11.2825,0 -22.5651,0 -33.8476,0 0,-10.23372 0,-20.46745 0,-30.70117 l -0.5274,0.0176 z m -110.5156,33.66992 c 10.61653,0 21.23307,0 31.84961,0 0,11.28255 0,22.5651 0,33.84765 -11.28321,0 -22.56641,0 -33.84961,0 0,-11.28255 0,-22.5651 0,-33.84765 l 1,0 1,0 z m 36.83398,0 c 10.82813,0 21.65625,0 32.48438,0 0,11.28255 0,22.5651 0,33.84765 -11.49479,0 -22.98959,0 -34.48438,0 0,-11.28255 0,-22.5651 0,-33.84765 l 1,0 1,0 z m 38.74024,0 c 10.82748,0 21.65498,0 32.48238,0 0,11.28255 0,22.5651 0,33.84765 -11.4941,0 -22.9882,0 -34.48238,0 0,-11.28255 0,-22.5651 0,-33.84765 l 1,0 1,0 z m 37.46878,0 c 10.6158,0 21.2317,0 31.8476,0 0,11.28255 0,22.5651 0,33.84765 -11.2825,0 -22.5651,0 -33.8476,0 0,-11.28255 0,-22.5651 0,-33.84765 l 1,0 1,0 z m 38.1035,0 c 10.8281,0 21.6562,0 32.4844,0 0,11.28255 0,22.5651 0,33.84765 -11.4948,0 -22.9896,0 -34.4844,0 0,-11.28255 0,-22.5651 0,-33.84765 l 1,0 1,0 z m 37.4687,0 c 10.6166,0 21.2331,0 31.8496,0 0,11.28255 0,22.5651 0,33.84765 -11.2832,0 -22.5664,0 -33.8496,0 0,-11.28255 0,-22.5651 0,-33.84765 l 1,0 1,0 z m -226.08395,37.46875 c 10.82747,0 21.65495,0 32.48242,0 0,11.49414 0,22.98828 0,34.48242 -11.49414,0 -22.98828,0 -34.48242,0 0,-11.49414 0,-22.98828 0,-34.48242 l 1,0 1,0 z m 37.46875,0 c 10.61653,0 21.23307,0 31.84961,0 0,11.49414 0,22.98828 0,34.48242 -11.28321,0 -22.56641,0 -33.84961,0 0,-11.49414 0,-22.98828 0,-34.48242 l 1,0 1,0 z m 36.83398,0 c 10.82813,0 21.65625,0 32.48438,0 0,11.49414 0,22.98828 0,34.48242 -11.49479,0 -22.98959,0 -34.48438,0 0,-11.49414 0,-22.98828 0,-34.48242 l 1,0 1,0 z m 38.74024,0 c 10.82748,0 21.65498,0 32.48238,0 0,11.49414 0,22.98828 0,34.48242 -11.4941,0 -22.9882,0 -34.48238,0 0,-11.49414 0,-22.98828 0,-34.48242 l 1,0 1,0 z m 37.46878,0 c 10.6158,0 21.2317,0 31.8476,0 0,11.49414 0,22.98828 0,34.48242 -11.2825,0 -22.5651,0 -33.8476,0 0,-11.49414 0,-22.98828 0,-34.48242 l 1,0 1,0 z m 38.1035,0 c 10.8281,0 21.6562,0 32.4844,0 0,11.49414 0,22.98828 0,34.48242 -11.4948,0 -22.9896,0 -34.4844,0 0,-11.49414 0,-22.98828 0,-34.48242 l 1,0 1,0 z m 37.4687,0 c 10.6166,0 21.2331,0 31.8496,0 0,11.49414 0,22.98828 0,34.48242 -11.2832,0 -22.5664,0 -33.8496,0 0,-11.49414 0,-22.98828 0,-34.48242 l 1,0 1,0 z m 36.836,0 c 10.8274,0 21.6549,0 32.4824,0 0,11.49414 0,22.98828 0,34.48242 -11.4942,0 -22.9883,0 -34.4824,0 0,-11.49414 0,-22.98828 0,-34.48242 l 1,0 1,0 z M 71.83008,144.76758 c 10.61589,0 21.23177,0 31.84766,0 0,11.2832 0,22.5664 0,33.84961 -11.28255,0 -22.5651,0 -33.84766,0 0,-11.28321 0,-22.56641 0,-33.84961 l 1,0 1,0 z m 37.46876,0 c 10.82747,0 21.65495,0 32.48242,0 0,11.2832 0,22.5664 0,33.84961 -11.49414,0 -22.98828,0 -34.48242,0 0,-11.28321 0,-22.56641 0,-33.84961 l 1,0 1,0 z m 37.46875,0 c 10.61653,0 21.23307,0 31.84961,0 0,11.2832 0,22.5664 0,33.84961 -11.28321,0 -22.56641,0 -33.84961,0 0,-11.28321 0,-22.56641 0,-33.84961 l 1,0 1,0 z m 36.83398,0 c 10.82813,0 21.65625,0 32.48438,0 0,11.2832 0,22.5664 0,33.84961 -11.49479,0 -22.98959,0 -34.48438,0 0,-11.28321 0,-22.56641 0,-33.84961 l 1,0 1,0 z m 38.74024,0 c 10.82748,0 21.65498,0 32.48238,0 0,11.2832 0,22.5664 0,33.84961 -11.4941,0 -22.9882,0 -34.48238,0 0,-11.28321 0,-22.56641 0,-33.84961 l 1,0 1,0 z m 37.46878,0 c 10.6158,0 21.2317,0 31.8476,0 0,11.2832 0,22.5664 0,33.84961 -11.2825,0 -22.5651,0 -33.8476,0 0,-11.28321 0,-22.56641 0,-33.84961 l 1,0 1,0 z m 38.1035,0 c 10.8281,0 21.6562,0 32.4844,0 0,11.2832 0,22.5664 0,33.84961 -11.4948,0 -22.9896,0 -34.4844,0 0,-11.28321 0,-22.56641 0,-33.84961 l 1,0 1,0 z m 37.4687,0 c 10.6166,0 21.2331,0 31.8496,0 0,11.2832 0,22.5664 0,33.84961 -11.2832,0 -22.5664,0 -33.8496,0 0,-11.28321 0,-22.56641 0,-33.84961 l 1,0 1,0 z m 36.836,0 c 10.8274,0 21.6549,0 32.4824,0 0,11.2832 0,22.5664 0,33.84961 -11.4942,0 -22.9883,0 -34.4824,0 0,-11.28321 0,-22.56641 0,-33.84961 l 1,0 1,0 z M 71.83008,181.60156 c 10.61589,0 21.23177,0 31.84766,0 0,11.49479 0,22.98959 0,34.48438 -11.28255,0 -22.5651,0 -33.84766,0 0,-11.49479 0,-22.98959 0,-34.48438 l 1,0 1,0 z m 37.46876,0 c 10.82747,0 21.65495,0 32.48242,0 0,11.49479 0,22.98959 0,34.48438 -11.49414,0 -22.98828,0 -34.48242,0 0,-11.49479 0,-22.98959 0,-34.48438 l 1,0 1,0 z m 37.46875,0 c 10.61653,0 21.23307,0 31.84961,0 0,11.49479 0,22.98959 0,34.48438 -11.28321,0 -22.56641,0 -33.84961,0 0,-11.49479 0,-22.98959 0,-34.48438 l 1,0 1,0 z m 36.83398,0 c 10.82813,0 21.65625,0 32.48438,0 0,11.49479 0,22.98959 0,34.48438 -11.49479,0 -22.98959,0 -34.48438,0 0,-11.49479 0,-22.98959 0,-34.48438 l 1,0 1,0 z m 38.74024,0 c 10.82748,0 21.65498,0 32.48238,0 0,11.49479 0,22.98959 0,34.48438 -11.4941,0 -22.9882,0 -34.48238,0 0,-11.49479 0,-22.98959 0,-34.48438 l 1,0 1,0 z m 37.46878,0 c 10.6158,0 21.2317,0 31.8476,0 0,11.49479 0,22.98959 0,34.48438 -11.2825,0 -22.5651,0 -33.8476,0 0,-11.49479 0,-22.98959 0,-34.48438 l 1,0 1,0 z m 38.1035,0 c 10.8281,0 21.6562,0 32.4844,0 0,11.49479 0,22.98959 0,34.48438 -11.4948,0 -22.9896,0 -34.4844,0 0,-11.49479 0,-22.98959 0,-34.48438 l 1,0 1,0 z m 37.4687,0 c 10.6166,0 21.2331,0 31.8496,0 0,11.49479 0,22.98959 0,34.48438 -11.2832,0 -22.5664,0 -33.8496,0 0,-11.49479 0,-22.98959 0,-34.48438 l 1,0 1,0 z m 36.836,0 c 10.8274,0 21.6549,0 32.4824,0 0,11.49479 0,22.98959 0,34.48438 -11.4942,0 -22.9883,0 -34.4824,0 0,-11.49479 0,-22.98959 0,-34.48438 l 1,0 1,0 z m 38.1035,0 c 10.6159,0 21.2318,0 31.8476,0 0,11.49479 0,22.98959 0,34.48438 -11.2825,0 -22.5651,0 -33.8476,0 0,-11.49479 0,-22.98959 0,-34.48438 l 1,0 1,0 z M 71.83008,220.3418 c 10.61589,0 21.23177,0 31.84766,0 0,11.49414 0,22.98828 0,34.48242 -11.28255,0 -22.5651,0 -33.84766,0 0,-11.49414 0,-22.98828 0,-34.48242 l 1,0 1,0 z m 37.46876,0 c 10.82747,0 21.65495,0 32.48242,0 0,11.49414 0,22.98828 0,34.48242 -11.49414,0 -22.98828,0 -34.48242,0 0,-11.49414 0,-22.98828 0,-34.48242 l 1,0 1,0 z m 37.46875,0 c 10.61653,0 21.23307,0 31.84961,0 0,11.49414 0,22.98828 0,34.48242 -11.28321,0 -22.56641,0 -33.84961,0 0,-11.49414 0,-22.98828 0,-34.48242 l 1,0 1,0 z m 36.83398,0 c 10.82813,0 21.65625,0 32.48438,0 0,11.49414 0,22.98828 0,34.48242 -11.49479,0 -22.98959,0 -34.48438,0 0,-11.49414 0,-22.98828 0,-34.48242 l 1,0 1,0 z m 38.74024,0 c 10.82748,0 21.65498,0 32.48238,0 0,11.49414 0,22.98828 0,34.48242 -11.4941,0 -22.9882,0 -34.48238,0 0,-11.49414 0,-22.98828 0,-34.48242 l 1,0 1,0 z m 37.46878,0 c 10.6158,0 21.2317,0 31.8476,0 0,11.49414 0,22.98828 0,34.48242 -11.2825,0 -22.5651,0 -33.8476,0 0,-11.49414 0,-22.98828 0,-34.48242 l 1,0 1,0 z m 38.1035,0 c 10.8281,0 21.6562,0 32.4844,0 0,11.49414 0,22.98828 0,34.48242 -11.4948,0 -22.9896,0 -34.4844,0 0,-11.49414 0,-22.98828 0,-34.48242 l 1,0 1,0 z m 37.4687,0 c 10.6166,0 21.2331,0 31.8496,0 0,11.49414 0,22.98828 0,34.48242 -11.2832,0 -22.5664,0 -33.8496,0 0,-11.49414 0,-22.98828 0,-34.48242 l 1,0 1,0 z m 36.836,0 c 10.8274,0 21.6549,0 32.4824,0 0,11.49414 0,22.98828 0,34.48242 -11.4942,0 -22.9883,0 -34.4824,0 0,-11.49414 0,-22.98828 0,-34.48242 l 1,0 1,0 z m 38.1035,0 c 10.6159,0 21.2318,0 31.8476,0 0,11.49414 0,22.98828 0,34.48242 -11.2825,0 -22.5651,0 -33.8476,0 0,-11.49414 0,-22.98828 0,-34.48242 l 1,0 1,0 z M 71.83008,257.81055 c 10.61589,0 21.23177,0 31.84766,0 0,11.28255 0,22.5651 0,33.84765 -11.28255,0 -22.5651,0 -33.84766,0 0,-11.28255 0,-22.5651 0,-33.84765 l 1,0 1,0 z m 37.46876,0 c 10.82747,0 21.65495,0 32.48242,0 0,11.28255 0,22.5651 0,33.84765 -11.49414,0 -22.98828,0 -34.48242,0 0,-11.28255 0,-22.5651 0,-33.84765 l 1,0 1,0 z m 37.46875,0 c 10.61653,0 21.23307,0 31.84961,0 0,11.28255 0,22.5651 0,33.84765 -11.28321,0 -22.56641,0 -33.84961,0 0,-11.28255 0,-22.5651 0,-33.84765 l 1,0 1,0 z m 36.83398,0 c 10.82813,0 21.65625,0 32.48438,0 0,11.28255 0,22.5651 0,33.84765 -11.49479,0 -22.98959,0 -34.48438,0 0,-11.28255 0,-22.5651 0,-33.84765 l 1,0 1,0 z m 38.74024,0 c 10.82748,0 21.65498,0 32.48238,0 0,11.28255 0,22.5651 0,33.84765 -11.4941,0 -22.9882,0 -34.48238,0 0,-11.28255 0,-22.5651 0,-33.84765 l 1,0 1,0 z m 37.46878,0 c 10.6158,0 21.2317,0 31.8476,0 0,11.28255 0,22.5651 0,33.84765 -11.2825,0 -22.5651,0 -33.8476,0 0,-11.28255 0,-22.5651 0,-33.84765 l 1,0 1,0 z m 38.1035,0 c 10.8281,0 21.6562,0 32.4844,0 0,11.28255 0,22.5651 0,33.84765 -11.4948,0 -22.9896,0 -34.4844,0 0,-11.28255 0,-22.5651 0,-33.84765 l 1,0 1,0 z m 37.4687,0 c 10.6166,0 21.2331,0 31.8496,0 0,11.28255 0,22.5651 0,33.84765 -11.2832,0 -22.5664,0 -33.8496,0 0,-11.28255 0,-22.5651 0,-33.84765 l 1,0 1,0 z m 36.836,0 c 10.8274,0 21.6549,0 32.4824,0 0,11.28255 0,22.5651 0,33.84765 -11.4942,0 -22.9883,0 -34.4824,0 0,-11.28255 0,-22.5651 0,-33.84765 l 1,0 1,0 z m 38.1035,0 c 10.6159,0 21.2318,0 31.8476,0 0,11.28255 0,22.5651 0,33.84765 -11.2825,0 -22.5651,0 -33.8476,0 0,-11.28255 0,-22.5651 0,-33.84765 l 1,0 1,0 z M 71.83008,295.91406 c 10.61589,0 21.23177,0 31.84766,0 0,11.49479 0,22.98959 0,34.48438 -11.28255,0 -22.5651,0 -33.84766,0 0,-11.49479 0,-22.98959 0,-34.48438 l 1,0 1,0 z m 37.46876,0 c 10.82747,0 21.65495,0 32.48242,0 0,11.49479 0,22.98959 0,34.48438 -11.49414,0 -22.98828,0 -34.48242,0 0,-11.49479 0,-22.98959 0,-34.48438 l 1,0 1,0 z m 37.46875,0 c 10.61653,0 21.23307,0 31.84961,0 0,11.49479 0,22.98959 0,34.48438 -11.28321,0 -22.56641,0 -33.84961,0 0,-11.49479 0,-22.98959 0,-34.48438 l 1,0 1,0 z m 36.83398,0 c 10.82813,0 21.65625,0 32.48438,0 0,11.49479 0,22.98959 0,34.48438 -11.49479,0 -22.98959,0 -34.48438,0 0,-11.49479 0,-22.98959 0,-34.48438 l 1,0 1,0 z m 38.74024,0 c 10.82748,0 21.65498,0 32.48238,0 0,11.49479 0,22.98959 0,34.48438 -11.4941,0 -22.9882,0 -34.48238,0 0,-11.49479 0,-22.98959 0,-34.48438 l 1,0 1,0 z m 37.46878,0 c 10.6158,0 21.2317,0 31.8476,0 0,11.49479 0,22.98959 0,34.48438 -11.2825,0 -22.5651,0 -33.8476,0 0,-11.49479 0,-22.98959 0,-34.48438 l 1,0 1,0 z m 38.1035,0 c 10.8281,0 21.6562,0 32.4844,0 0,11.49479 0,22.98959 0,34.48438 -11.4948,0 -22.9896,0 -34.4844,0 0,-11.49479 0,-22.98959 0,-34.48438 l 1,0 1,0 z m 37.4687,0 c 10.6166,0 21.2331,0 31.8496,0 0,11.49479 0,22.98959 0,34.48438 -11.2832,0 -22.5664,0 -33.8496,0 0,-11.49479 0,-22.98959 0,-34.48438 l 1,0 1,0 z m 36.836,0 c 10.8274,0 21.6549,0 32.4824,0 0,11.49479 0,22.98959 0,34.48438 -11.4942,0 -22.9883,0 -34.4824,0 0,-11.49479 0,-22.98959 0,-34.48438 l 1,0 1,0 z m 38.1035,0 c 10.6159,0 21.2318,0 31.8476,0 0,11.49479 0,22.98959 0,34.48438 -11.2825,0 -22.5651,0 -33.8476,0 0,-11.49479 0,-22.98959 0,-34.48438 l 1,0 1,0 z M 71.83008,333.38281 c 10.61589,0 21.23177,0 31.84766,0 0,11.28321 0,22.56641 0,33.84961 -11.28255,0 -22.5651,0 -33.84766,0 0,-11.2832 0,-22.5664 0,-33.84961 l 1,0 1,0 z m 37.46876,0 c 10.82747,0 21.65495,0 32.48242,0 0,11.28321 0,22.56641 0,33.84961 -11.49414,0 -22.98828,0 -34.48242,0 0,-11.2832 0,-22.5664 0,-33.84961 l 1,0 1,0 z m 37.46875,0 c 10.61653,0 21.23307,0 31.84961,0 0,11.28321 0,22.56641 0,33.84961 -11.28321,0 -22.56641,0 -33.84961,0 0,-11.2832 0,-22.5664 0,-33.84961 l 1,0 1,0 z m 36.83398,0 c 10.82813,0 21.65625,0 32.48438,0 0,11.28321 0,22.56641 0,33.84961 -11.49479,0 -22.98959,0 -34.48438,0 0,-11.2832 0,-22.5664 0,-33.84961 l 1,0 1,0 z m 38.74024,0 c 10.82748,0 21.65498,0 32.48238,0 0,11.28321 0,22.56641 0,33.84961 -11.4941,0 -22.9882,0 -34.48238,0 0,-11.2832 0,-22.5664 0,-33.84961 l 1,0 1,0 z m 37.46878,0 c 10.6158,0 21.2317,0 31.8476,0 0,11.28321 0,22.56641 0,33.84961 -11.2825,0 -22.5651,0 -33.8476,0 0,-11.2832 0,-22.5664 0,-33.84961 l 1,0 1,0 z m 38.1035,0 c 10.8281,0 21.6562,0 32.4844,0 0,11.28321 0,22.56641 0,33.84961 -11.4948,0 -22.9896,0 -34.4844,0 0,-11.2832 0,-22.5664 0,-33.84961 l 1,0 1,0 z m 37.4687,0 c 10.6166,0 21.2331,0 31.8496,0 0,11.28321 0,22.56641 0,33.84961 -11.2832,0 -22.5664,0 -33.8496,0 0,-11.2832 0,-22.5664 0,-33.84961 l 1,0 1,0 z m 36.836,0 c 10.8274,0 21.6549,0 32.4824,0 0,11.28321 0,22.56641 0,33.84961 -11.4942,0 -22.9883,0 -34.4824,0 0,-11.2832 0,-22.5664 0,-33.84961 l 1,0 1,0 z m -262.91995,36.83594 c 10.82747,0 21.65495,0 32.48242,0 0,11.49414 0,22.98828 0,34.48242 -11.49414,0 -22.98828,0 -34.48242,0 0,-11.49414 0,-22.98828 0,-34.48242 l 1,0 1,0 z m 37.46875,0 c 10.61653,0 21.23307,0 31.84961,0 0,11.49414 0,22.98828 0,34.48242 -11.28321,0 -22.56641,0 -33.84961,0 0,-11.49414 0,-22.98828 0,-34.48242 l 1,0 1,0 z m 36.83398,0 c 10.82813,0 21.65625,0 32.48438,0 0,11.49414 0,22.98828 0,34.48242 -11.49479,0 -22.98959,0 -34.48438,0 0,-11.49414 0,-22.98828 0,-34.48242 l 1,0 1,0 z m 38.74024,0 c 10.82748,0 21.65498,0 32.48238,0 0,11.49414 0,22.98828 0,34.48242 -11.4941,0 -22.9882,0 -34.48238,0 0,-11.49414 0,-22.98828 0,-34.48242 l 1,0 1,0 z m 37.46878,0 c 10.6158,0 21.2317,0 31.8476,0 0,11.49414 0,22.98828 0,34.48242 -11.2825,0 -22.5651,0 -33.8476,0 0,-11.49414 0,-22.98828 0,-34.48242 l 1,0 1,0 z m 38.1035,0 c 10.8281,0 21.6562,0 32.4844,0 0,11.49414 0,22.98828 0,34.48242 -11.4948,0 -22.9896,0 -34.4844,0 0,-11.49414 0,-22.98828 0,-34.48242 l 1,0 1,0 z m 37.4687,0 c 10.6166,0 21.2331,0 31.8496,0 0,11.49414 0,22.98828 0,34.48242 -11.2832,0 -22.5664,0 -33.8496,0 0,-11.49414 0,-22.98828 0,-34.48242 l 1,0 1,0 z m 36.836,0 c 10.8274,0 21.6549,0 32.4824,0 0,11.49414 0,22.98828 0,34.48242 -11.4942,0 -22.9883,0 -34.4824,0 0,-11.49414 0,-22.98828 0,-34.48242 l 1,0 1,0 z m -188.61722,38.10352 c 10.82813,0 21.65625,0 32.48438,0 0,11.28255 0,22.5651 0,33.84765 -11.49479,0 -22.98959,0 -34.48438,0 0,-11.28255 0,-22.5651 0,-33.84765 l 1,0 1,0 z m 38.74024,0 c 10.82748,0 21.65498,0 32.48238,0 0,11.28255 0,22.5651 0,33.84765 -11.4941,0 -22.9882,0 -34.48238,0 0,-11.28255 0,-22.5651 0,-33.84765 l 1,0 1,0 z m 37.46878,0 c 10.6158,0 21.2317,0 31.8476,0 0,11.28255 0,22.5651 0,33.84765 -11.2825,0 -22.5651,0 -33.8476,0 0,-11.28255 0,-22.5651 0,-33.84765 l 1,0 1,0 z m 38.1035,0 c 10.8281,0 21.6562,0 32.4844,0 0,11.28255 0,22.5651 0,33.84765 -11.4948,0 -22.9896,0 -34.4844,0 0,-11.28255 0,-22.5651 0,-33.84765 l 1,0 1,0 z" fill="#ffffff" fill-opacity="0.088" color="#000000" stroke-width="0.5"/>
 <path inkscape:connector-curvature="0" id="path8-2" d="m 256.21529,101.31426 c -18.5544,0 -35.90105,3.72359 -52.0054,11.16862 -16.10328,7.47625 -30.58643,18.54369 -43.53342,33.03545 -13.99335,15.42078 -24.35568,32.13765 -30.94921,50.12479 -6.59568,17.96023 -9.82301,38.17679 -9.82301,60.58509 0,22.40938 3.22733,42.62809 9.82301,60.58509 6.59353,18.00221 16.95586,34.70617 30.94921,50.1248 2.40165,2.69446 4.88513,5.28343 7.40089,7.73783 0.23145,0.24006 0.47366,0.46828 0.70618,0.70619 0.12272,0.12056 0.2476,0.24974 0.37032,0.37031 0.34878,0.34771 0.69111,0.69972 1.04312,1.04312 0.36062,0.35847 0.71371,0.72233 1.07649,1.0765 0.23899,0.24867 0.4995,0.49411 0.74063,0.74062 0.11303,0.11088 0.22284,0.22607 0.33694,0.33695 0.23145,0.24005 0.47366,0.46827 0.70618,0.70618 0.12488,0.12164 0.24544,0.24867 0.37032,0.37031 0.23144,0.24006 0.47366,0.46828 0.70618,0.70618 0.12487,0.12164 0.24544,0.24867 0.37031,0.37031 0.23145,0.24006 0.47366,0.46828 0.70618,0.70618 0.12272,0.12057 0.2476,0.24975 0.37032,0.37032 0.34878,0.34771 0.69111,0.69972 1.04312,1.04312 0.36062,0.35847 0.71371,0.72233 1.07649,1.0765 0.23898,0.24867 0.4995,0.49411 0.74063,0.74062 0.11303,0.11088 0.22284,0.22607 0.33694,0.33695 0.23145,0.24005 0.47366,0.46827 0.70618,0.70618 0.12488,0.12164 0.24544,0.24867 0.37032,0.37031 0.23144,0.24006 0.47366,0.46828 0.70618,0.70618 0.12487,0.12164 0.24544,0.24867 0.37031,0.37031 0.23145,0.24006 0.47366,0.46828 0.70618,0.70618 0.12272,0.12057 0.2476,0.24975 0.37032,0.37032 0.34878,0.34771 0.69111,0.69972 1.04312,1.04312 0.36062,0.35847 0.71371,0.72233 1.07649,1.0765 0.36063,0.35847 0.71372,0.72233 1.0765,1.07649 0.0334,0.0334 0.0667,0.0678 0.10119,0.10119 0.20345,0.20992 0.40153,0.4306 0.60606,0.63944 0.11842,0.11626 0.25083,0.22068 0.37032,0.33694 0.23144,0.24006 0.47366,0.46828 0.70618,0.70618 0.12487,0.12164 0.24544,0.24867 0.37031,0.37031 0.23145,0.24007 0.47366,0.46828 0.70618,0.70618 0.1238,0.12165 0.24652,0.24975 0.37032,0.37032 0.23144,0.24007 0.47365,0.46828 0.70618,0.70619 0.12272,0.12056 0.24759,0.24975 0.37031,0.37031 0.34878,0.34771 0.69111,0.69972 1.04312,1.04313 0.36063,0.35847 0.71372,0.72232 1.0765,1.07649 0.23898,0.24867 0.49949,0.4941 0.74062,0.74063 0.11304,0.11088 0.22284,0.22606 0.33695,0.33694 0.23144,0.24006 0.47365,0.46827 0.70618,0.70618 0.12487,0.12164 0.24544,0.24867 0.37031,0.37031 0.23145,0.24006 0.47366,0.46828 0.70618,0.70618 0.12488,0.12165 0.24544,0.24867 0.37032,0.37032 0.23144,0.24006 0.47365,0.46827 0.70618,0.70618 0.12272,0.12057 0.24759,0.24974 0.37031,0.37031 0.34878,0.34771 0.69111,0.69972 1.04312,1.04312 0.36063,0.35848 0.71372,0.72233 1.0765,1.0765 0.23898,0.24867 0.49949,0.49411 0.74062,0.74063 0.11304,0.11088 0.22284,0.22606 0.33695,0.33694 0.23144,0.24006 0.47365,0.46827 0.70618,0.70618 0.12487,0.12164 0.24544,0.24867 0.37031,0.37031 0.23145,0.24006 0.47366,0.46828 0.70618,0.70618 0.12487,0.12165 0.24544,0.24867 0.37032,0.37032 0.23144,0.24006 0.47365,0.46827 0.70618,0.70618 0.12272,0.12057 0.24759,0.24974 0.37031,0.37031 0.34878,0.34771 0.69111,0.69972 1.04312,1.04312 0.36063,0.35848 0.71372,0.72233 1.0765,1.0765 0.36062,0.35847 0.71371,0.72233 1.07649,1.07649 0.0334,0.0334 0.0667,0.0678 0.10119,0.10119 0.20346,0.20992 0.40153,0.4306 0.60607,0.63944 0.11841,0.11626 0.25082,0.22068 0.37031,0.33694 0.23145,0.24006 0.47366,0.46828 0.70618,0.70618 0.12487,0.12165 0.24544,0.24867 0.37032,0.37032 0.23144,0.24006 0.47365,0.46827 0.70618,0.70618 0.12379,0.12164 0.24651,0.24974 0.37031,0.37031 0.34878,0.34771 0.69111,0.69972 1.04312,1.04312 0.36063,0.35848 0.71372,0.72233 1.0765,1.0765 0.36062,0.35847 0.71371,0.72233 1.07649,1.07649 0.0334,0.0334 0.0667,0.0678 0.10119,0.10119 0.20346,0.20992 0.40153,0.4306 0.60607,0.63944 0.11841,0.11626 0.25082,0.22068 0.37031,0.33694 0.23145,0.24006 0.47366,0.46828 0.70618,0.70618 0.12487,0.12165 0.24544,0.24867 0.37032,0.37032 0.23144,0.24006 0.47365,0.46827 0.70618,0.70618 0.12379,0.12164 0.24651,0.24974 0.37031,0.37031 0.23145,0.24006 0.47366,0.46828 0.70618,0.70618 0.12272,0.12057 0.24759,0.24975 0.37031,0.37032 0.34879,0.3477 0.69111,0.69972 1.04313,1.04312 0.36062,0.35847 0.71371,0.72233 1.07649,1.07649 0.23898,0.24867 0.49949,0.49411 0.74063,0.74063 0.11303,0.11088 0.22283,0.22606 0.33694,0.33694 0.23145,0.24006 0.47366,0.46828 0.70618,0.70618 0.12487,0.12165 0.24544,0.24867 0.37031,0.37032 0.23145,0.24006 0.47366,0.46827 0.70618,0.70618 0.12488,0.12164 0.24545,0.24867 0.37032,0.37031 0.23145,0.24006 0.47366,0.46828 0.70618,0.70618 0.12272,0.12057 0.24759,0.24975 0.37031,0.37032 0.34879,0.3477 0.69111,0.69972 1.04313,1.04312 0.36062,0.35847 0.71371,0.72233 1.07649,1.07649 0.23898,0.24867 0.49949,0.49411 0.74063,0.74063 0.11303,0.11088 0.22283,0.22606 0.33694,0.33694 0.23145,0.24006 0.47366,0.46828 0.70618,0.70618 0.12482,0.12165 0.24542,0.24867 0.37032,0.37032 0.2314,0.24006 0.4736,0.46827 0.7062,0.70618 0.1248,0.12164 0.2454,0.24867 0.3703,0.37031 0.2314,0.24006 0.4736,0.46828 0.7062,0.70618 0.1227,0.12057 0.2476,0.24975 0.3703,0.37032 0.3488,0.3477 0.6911,0.69972 1.0431,1.04312 0.3606,0.35847 0.7137,0.72233 1.0765,1.07649 0.3606,0.35847 0.7137,0.72233 1.0765,1.0765 0.033,0.0334 0.067,0.0678 0.1012,0.10119 0.2034,0.20991 0.4015,0.43059 0.606,0.63943 0.1185,0.11627 0.2509,0.22069 0.3704,0.33695 0.2314,0.24005 0.4736,0.46827 0.7061,0.70618 0.1249,0.12164 0.2455,0.24867 0.3704,0.37031 0.2314,0.24006 0.4736,0.46828 0.7061,0.70618 0.1238,0.12164 0.2466,0.24975 0.3703,0.37031 0.2315,0.24006 0.4737,0.46828 0.7062,0.70619 0.2831,0.27773 0.5566,0.56623 0.8408,0.84074 0.076,0.0786 0.1582,0.15717 0.2357,0.23575 0.1131,0.11088 0.2229,0.22606 0.337,0.33694 0.3606,0.35847 0.7137,0.72233 1.0765,1.0765 0.033,0.0334 0.067,0.0678 0.1011,0.10119 0.2035,0.20991 0.4016,0.43059 0.6061,0.63943 0.1184,0.11627 0.2508,0.22069 0.3703,0.33695 0.2315,0.24005 0.4737,0.46827 0.7062,0.70618 0.1249,0.12164 0.2454,0.24867 0.3703,0.37031 0.2315,0.24006 0.4737,0.46828 0.7062,0.70618 0.1238,0.12164 0.2465,0.24975 0.3703,0.37031 0.2315,0.24006 0.4737,0.46828 0.7062,0.70618 0.1227,0.12057 0.2476,0.24975 0.3703,0.37032 0.3488,0.34771 0.6911,0.69972 1.0431,1.04312 0.3607,0.35847 0.7137,0.72233 1.0765,1.0765 0.239,0.24867 0.4995,0.49411 0.7407,0.74062 0.113,0.11088 0.2228,0.22607 0.3369,0.33695 0.2314,0.24005 0.4737,0.46827 0.7062,0.70618 0.1249,0.12164 0.2454,0.24867 0.3703,0.37031 0.2314,0.24006 0.4737,0.46828 0.7062,0.70618 0.1248,0.12164 0.2454,0.24867 0.3703,0.37031 0.2314,0.24006 0.4736,0.46828 0.7062,0.70618 0.1227,0.12057 0.2476,0.24975 0.3703,0.37032 0.3488,0.34771 0.6911,0.69972 1.0431,1.04312 0.3606,0.35847 0.7137,0.72233 1.0765,1.0765 0.3606,0.35847 0.7137,0.72232 1.0765,1.07649 0.2314,0.24006 0.4736,0.46827 0.7062,0.70618 0.1248,0.12164 0.2454,0.24867 0.3703,0.37031 0.2314,0.24006 0.4736,0.46828 0.7062,0.70618 0.1248,0.12165 0.2454,0.24867 0.3703,0.37032 0.2314,0.24006 0.4736,0.46827 0.7062,0.70618 0.1227,0.12057 0.2476,0.24974 0.3703,0.37031 0.3488,0.34771 0.6911,0.69972 1.0431,1.04312 0.3606,0.35848 0.7137,0.72233 1.0765,1.0765 0.3606,0.35847 0.7137,0.72233 1.0765,1.07649 0.033,0.0334 0.067,0.0678 0.1012,0.10119 0.2034,0.20992 0.4015,0.4306 0.606,0.63944 0.1185,0.11626 0.2509,0.22068 0.3704,0.33694 0.2314,0.24006 0.4736,0.46828 0.7061,0.70618 0.1249,0.12165 0.2455,0.24867 0.3704,0.37032 0.2314,0.24006 0.4736,0.46827 0.7061,0.70618 0.1238,0.12164 0.2465,0.24974 0.3703,0.37031 0.2315,0.24006 0.4737,0.46828 0.7062,0.70618 0.1227,0.12057 0.2476,0.24975 0.3703,0.37032 0.3488,0.3477 0.6911,0.69972 1.0432,1.04312 0.3606,0.35847 0.7137,0.72233 1.0765,1.07649 0.2389,0.24867 0.4994,0.49411 0.7406,0.74063 0.113,0.11088 0.2228,0.22606 0.3369,0.33694 0.2315,0.24006 0.4737,0.46828 0.7062,0.70618 0.1249,0.12165 0.2454,0.24867 0.3703,0.37032 0.2315,0.24006 0.4737,0.46827 0.7062,0.70618 0.1249,0.12164 0.2454,0.24867 0.3703,0.37031 0.2315,0.24006 0.4737,0.46828 0.7062,0.70618 0.1227,0.12057 0.2476,0.24975 0.3703,0.37032 0.3488,0.3477 0.6911,0.69972 1.0431,1.04312 0.3607,0.35847 0.7137,0.72233 1.0765,1.07649 0.239,0.24867 0.4995,0.49411 0.7407,0.74063 0.113,0.11088 0.2228,0.22606 0.3369,0.33694 0.2314,0.24006 0.4737,0.46828 0.7062,0.70618 0.1248,0.12165 0.2454,0.24867 0.3703,0.37032 0.2314,0.24006 0.4736,0.46827 0.7062,0.70618 0.1248,0.12164 0.2454,0.24867 0.3703,0.37031 0.2314,0.24006 0.4736,0.46828 0.7062,0.70618 0.1227,0.12057 0.2476,0.24975 0.3703,0.37032 0.3488,0.3477 0.6911,0.69972 1.0431,1.04312 0.3606,0.35847 0.7137,0.72233 1.0765,1.07649 0.3606,0.35847 0.7137,0.72233 1.0765,1.0765 0.033,0.0334 0.067,0.0678 0.1012,0.10119 0.2034,0.20991 0.4015,0.43059 0.606,0.63943 0.033,0.0334 0.066,0.0689 0.1012,0.10119 108.2092,-12.5433 194.0596,-98.38079 206.6223,-206.58998 -0.056,-0.056 -0.1119,-0.11303 -0.1679,-0.16793 -0.096,-0.0958 -0.1733,-0.20776 -0.2691,-0.3025 -0.2466,-0.24974 -0.492,-0.49303 -0.7407,-0.74062 -0.2239,-0.22822 -0.4478,-0.44675 -0.6728,-0.67281 l -0.033,-0.0334 c -0.1227,-0.12595 -0.2465,-0.24437 -0.3703,-0.37032 -0.1432,-0.13994 -0.2939,-0.26482 -0.437,-0.40368 l -0.2024,-0.20238 c -0.023,-0.0226 -0.044,-0.0452 -0.068,-0.0678 -0.1217,-0.12488 -0.2476,-0.24544 -0.3703,-0.37032 -0.2379,-0.23252 -0.4672,-0.47581 -0.7062,-0.70618 -0.1217,-0.12487 -0.2476,-0.24544 -0.3703,-0.37031 -0.2379,-0.23252 -0.4672,-0.47581 -0.7062,-0.70618 -0.1227,-0.12595 -0.2465,-0.24437 -0.3703,-0.37032 -0.2379,-0.23252 -0.4672,-0.47581 -0.7062,-0.70618 -0.1227,-0.12595 -0.2465,-0.24436 -0.3703,-0.37031 -0.069,-0.0678 -0.1324,-0.13456 -0.2024,-0.20238 -0.1292,-0.13026 -0.2411,-0.27343 -0.3703,-0.40369 -0.033,-0.0334 -0.067,-0.0678 -0.1012,-0.10119 -0.3466,-0.35416 -0.6943,-0.69326 -1.0431,-1.04312 -0.045,-0.0441 -0.089,-0.0904 -0.1346,-0.13456 -0.089,-0.0915 -0.1798,-0.17762 -0.2691,-0.26912 -0.1432,-0.13995 -0.2939,-0.26482 -0.4371,-0.40369 l -0.2023,-0.20238 c -0.023,-0.0226 -0.044,-0.0452 -0.068,-0.0678 -0.1217,-0.12487 -0.2476,-0.24544 -0.3704,-0.37031 -0.2379,-0.23253 -0.4672,-0.47581 -0.7061,-0.70618 -0.1217,-0.12488 -0.2476,-0.24544 -0.3704,-0.37032 -0.2379,-0.23252 -0.4672,-0.47581 -0.7061,-0.70618 -0.1217,-0.12487 -0.2476,-0.24544 -0.3704,-0.37031 -0.2379,-0.23252 -0.4671,-0.47581 -0.7061,-0.70618 -0.1217,-0.12703 -0.2487,-0.24437 -0.3703,-0.37032 -0.069,-0.0667 -0.1335,-0.13563 -0.2024,-0.20238 -0.1626,-0.1647 -0.3079,-0.34125 -0.4715,-0.50487 -0.3553,-0.36386 -0.7191,-0.71802 -1.0765,-1.0765 -0.034,-0.0334 -0.067,-0.0678 -0.1012,-0.10119 -0.089,-0.0915 -0.1798,-0.17762 -0.2691,-0.26912 -0.2336,-0.22822 -0.4715,-0.44675 -0.7062,-0.67281 -0.127,-0.13026 -0.2422,-0.27343 -0.3703,-0.40368 -0.2336,-0.22822 -0.4715,-0.44675 -0.7062,-0.67281 -0.1217,-0.12488 -0.2476,-0.24544 -0.3703,-0.37032 -0.2379,-0.23252 -0.4672,-0.47581 -0.7062,-0.70618 -0.1227,-0.12379 -0.2465,-0.24759 -0.3703,-0.37031 -0.2379,-0.23252 -0.4672,-0.47581 -0.7062,-0.70618 -0.3574,-0.36601 -0.7169,-0.71587 -1.0765,-1.0765 -0.1227,-0.12595 -0.2465,-0.24436 -0.3703,-0.37031 -0.012,-0.0108 -0.023,-0.0226 -0.033,-0.0334 -0.096,-0.0958 -0.1733,-0.20776 -0.2691,-0.3025 -0.1238,-0.12487 -0.2466,-0.24544 -0.3703,-0.37031 -0.1228,-0.12595 -0.2466,-0.24436 -0.3704,-0.37031 -0.023,-0.0226 -0.044,-0.0452 -0.068,-0.0678 -0.2066,-0.211 -0.4316,-0.39723 -0.6394,-0.60607 -0.127,-0.13025 -0.2422,-0.27343 -0.3703,-0.40368 -0.2336,-0.22822 -0.4715,-0.44675 -0.7062,-0.67281 -0.1216,-0.12488 -0.2476,-0.24544 -0.3703,-0.37032 -0.2379,-0.23252 -0.4672,-0.47581 -0.7062,-0.70618 -0.1216,-0.12487 -0.2476,-0.24544 -0.3703,-0.37031 -0.2379,-0.23252 -0.4672,-0.47581 -0.7062,-0.70618 -0.3574,-0.36601 -0.7169,-0.71587 -1.0765,-1.0765 -0.1227,-0.12595 -0.2465,-0.24436 -0.3703,-0.37031 -0.069,-0.0678 -0.1324,-0.13456 -0.2024,-0.20238 -0.1291,-0.13026 -0.2411,-0.27343 -0.3703,-0.40369 -0.033,-0.0334 -0.067,-0.0678 -0.1012,-0.10119 -0.3466,-0.35416 -0.6943,-0.69326 -1.0431,-1.04312 l -0.033,-0.0334 c -0.3294,-0.33694 -0.6782,-0.64267 -1.0097,-0.9753 -0.023,-0.0226 -0.044,-0.0452 -0.068,-0.0678 -0.1217,-0.12488 -0.2476,-0.24544 -0.3704,-0.37032 -0.2379,-0.23252 -0.4672,-0.47581 -0.7061,-0.70618 -0.1217,-0.12487 -0.2476,-0.24544 -0.3704,-0.37031 -0.2379,-0.23252 -0.4672,-0.47581 -0.7061,-0.70618 -0.1228,-0.12595 -0.2466,-0.24437 -0.3704,-0.37032 -0.2379,-0.23252 -0.4671,-0.47581 -0.7061,-0.70618 -0.1228,-0.12595 -0.2465,-0.24436 -0.3703,-0.37031 -0.069,-0.0678 -0.1325,-0.13456 -0.2024,-0.20238 -0.1292,-0.13026 -0.2412,-0.27343 -0.3703,-0.40369 -0.033,-0.0334 -0.067,-0.0678 -0.1012,-0.10119 -0.3553,-0.36385 -0.7191,-0.71802 -1.0765,-1.07649 -0.1227,-0.12595 -0.2465,-0.24436 -0.3703,-0.37031 -0.2336,-0.22822 -0.4715,-0.44675 -0.7062,-0.67281 -0.127,-0.13026 -0.2422,-0.27343 -0.3703,-0.40369 -0.2336,-0.22821 -0.4715,-0.44674 -0.7062,-0.67281 -0.1217,-0.12487 -0.2476,-0.24544 -0.3703,-0.37031 -0.2379,-0.23252 -0.4672,-0.47581 -0.7062,-0.70618 -0.1216,-0.12487 -0.2476,-0.24544 -0.3703,-0.37031 -0.2379,-0.23253 -0.4672,-0.47582 -0.7062,-0.70619 -0.1227,-0.12594 -0.2465,-0.24436 -0.3703,-0.37031 -0.069,-0.0667 -0.1335,-0.13564 -0.2024,-0.20238 -0.1625,-0.1647 -0.3079,-0.34125 -0.4715,-0.50488 -0.3552,-0.36385 -0.7191,-0.71802 -1.0765,-1.07649 -0.1227,-0.12595 -0.2465,-0.24436 -0.3703,-0.37031 -0.2336,-0.22822 -0.4715,-0.44675 -0.7062,-0.67281 -0.127,-0.13026 -0.2422,-0.27343 -0.3703,-0.40369 -0.2336,-0.22821 -0.4715,-0.44674 -0.7062,-0.67281 -0.1216,-0.12487 -0.2476,-0.24544 -0.3703,-0.37031 -0.2379,-0.23252 -0.4672,-0.47581 -0.7062,-0.70618 -0.1216,-0.12487 -0.2476,-0.24544 -0.3703,-0.37031 -0.2379,-0.23253 -0.4672,-0.47582 -0.7062,-0.70618 -0.3574,-0.36601 -0.7169,-0.71587 -1.0765,-1.0765 -0.1227,-0.12595 -0.2465,-0.24436 -0.3703,-0.37031 -0.012,-0.0108 -0.023,-0.0226 -0.033,-0.0334 -0.096,-0.0958 -0.1733,-0.20777 -0.2691,-0.3025 -0.1238,-0.12487 -0.2465,-0.24544 -0.3703,-0.37031 -0.3466,-0.35417 -0.6944,-0.69327 -1.0431,-1.04313 l -0.033,-0.0334 c -0.1228,-0.12595 -0.2465,-0.24436 -0.3703,-0.37031 -0.1432,-0.13995 -0.2939,-0.26482 -0.4371,-0.40369 l -0.2024,-0.20238 c -0.023,-0.0226 -0.044,-0.0452 -0.068,-0.0678 -0.1216,-0.12487 -0.2476,-0.24544 -0.3703,-0.37031 -0.2379,-0.23252 -0.4672,-0.47581 -0.7062,-0.70618 -0.1216,-0.12487 -0.2476,-0.24544 -0.3703,-0.37031 -0.2379,-0.23253 -0.4672,-0.47581 -0.7062,-0.70618 -0.3606,-0.35525 -0.7137,-0.72664 -1.0765,-1.0765 -0.1227,-0.12595 -0.2465,-0.24436 -0.3703,-0.37031 -0.069,-0.0678 -0.1324,-0.13456 -0.2024,-0.20238 -0.1291,-0.13026 -0.2411,-0.27343 -0.3703,-0.40369 -0.033,-0.0334 -0.067,-0.0678 -0.1012,-0.10119 l -0.3703,-0.37031 c -0.2239,-0.22822 -0.4478,-0.44675 -0.6728,-0.67281 l -0.033,-0.0334 c -0.1227,-0.12595 -0.2465,-0.24437 -0.3703,-0.37032 -0.1432,-0.13994 -0.2939,-0.26481 -0.4371,-0.40368 l -0.2023,-0.20238 c -0.023,-0.0226 -0.044,-0.0452 -0.068,-0.0678 -0.1217,-0.12488 -0.2476,-0.24544 -0.3704,-0.37032 -0.2379,-0.23252 -0.4672,-0.47581 -0.7061,-0.70618 -0.1217,-0.12487 -0.2476,-0.24544 -0.3703,-0.37031 -0.238,-0.23252 -0.4672,-0.47581 -0.7062,-0.70618 -0.1217,-0.12487 -0.2476,-0.24544 -0.3703,-0.37031 -0.2379,-0.23253 -0.4672,-0.47582 -0.7062,-0.70618 -0.1227,-0.12595 -0.2465,-0.24437 -0.3703,-0.37032 -0.069,-0.0667 -0.1335,-0.13564 -0.2024,-0.20238 -0.1626,-0.1647 -0.3079,-0.34125 -0.4715,-0.50488 -0.3553,-0.36385 -0.7191,-0.71802 -1.0765,-1.07649 -0.1227,-0.12595 -0.2465,-0.24436 -0.3703,-0.37031 -0.2336,-0.22822 -0.4715,-0.44675 -0.7062,-0.67281 -0.127,-0.13026 -0.2422,-0.27343 -0.3703,-0.40369 -0.2336,-0.22821 -0.4715,-0.44674 -0.7062,-0.67281 -0.1216,-0.12487 -0.2476,-0.24544 -0.3703,-0.37031 -0.2379,-0.23252 -0.4672,-0.47581 -0.7062,-0.70618 -0.1216,-0.12487 -0.2476,-0.24544 -0.3703,-0.37031 -0.2379,-0.23253 -0.4672,-0.47581 -0.7062,-0.70618 -0.3574,-0.36601 -0.7169,-0.71587 -1.0765,-1.0765 -0.1227,-0.12595 -0.2465,-0.24436 -0.3703,-0.37031 -0.012,-0.0108 -0.023,-0.0226 -0.033,-0.0334 -0.096,-0.0958 -0.1733,-0.20777 -0.2691,-0.3025 -0.1238,-0.12487 -0.2465,-0.24544 -0.3703,-0.37031 -0.1228,-0.12595 -0.2466,-0.24437 -0.3704,-0.37032 -0.023,-0.0226 -0.044,-0.0452 -0.068,-0.0678 -0.2066,-0.21099 -0.4316,-0.39722 -0.6394,-0.60606 -0.127,-0.13026 -0.2422,-0.27343 -0.3703,-0.40369 -0.2336,-0.22821 -0.4715,-0.44674 -0.7062,-0.67281 -0.1216,-0.12487 -0.2476,-0.24544 -0.3703,-0.37031 -0.2379,-0.23252 -0.4672,-0.47581 -0.7062,-0.70618 -0.1216,-0.12487 -0.2476,-0.24544 -0.3703,-0.37031 -0.2379,-0.23253 -0.4672,-0.47581 -0.7062,-0.70618 -0.3574,-0.36601 -0.7169,-0.71587 -1.0765,-1.0765 -0.1227,-0.12595 -0.2465,-0.24436 -0.3703,-0.37031 -0.069,-0.0678 -0.1324,-0.13456 -0.2024,-0.20238 -0.1291,-0.13026 -0.2411,-0.27343 -0.3703,-0.40369 -0.033,-0.0334 -0.067,-0.0678 -0.1012,-0.10119 -0.3466,-0.35417 -0.6943,-0.69326 -1.0431,-1.04312 l -0.033,-0.0334 c -0.1227,-0.12595 -0.2465,-0.24437 -0.3703,-0.37032 -0.1432,-0.13994 -0.2939,-0.26481 -0.4371,-0.40368 l -0.2023,-0.20238 c -0.023,-0.0226 -0.044,-0.0452 -0.068,-0.0678 -0.1217,-0.12488 -0.2476,-0.24544 -0.3704,-0.37032 -0.2379,-0.23252 -0.4672,-0.47581 -0.7061,-0.70618 -0.1217,-0.12487 -0.2476,-0.24544 -0.3704,-0.37031 -0.2379,-0.23252 -0.4672,-0.47581 -0.7061,-0.70618 -0.1228,-0.12595 -0.2466,-0.24436 -0.3703,-0.37031 -0.238,-0.23253 -0.4672,-0.47582 -0.7062,-0.70618 -0.1228,-0.12595 -0.2465,-0.24437 -0.3703,-0.37032 -0.069,-0.0678 -0.1325,-0.13456 -0.2024,-0.20238 -0.1292,-0.13026 -0.2412,-0.27343 -0.3703,-0.40369 -0.033,-0.0334 -0.067,-0.0678 -0.1012,-0.10119 -0.3553,-0.36385 -0.7191,-0.71802 -1.0765,-1.07649 -0.1227,-0.12595 -0.2465,-0.24436 -0.3703,-0.37031 -0.2336,-0.22822 -0.4715,-0.44675 -0.7062,-0.67281 -0.127,-0.13026 -0.2422,-0.27343 -0.3703,-0.40369 -0.2336,-0.22821 -0.4715,-0.44674 -0.7062,-0.67281 -0.1217,-0.12487 -0.2476,-0.24544 -0.3703,-0.37031 -0.2379,-0.23252 -0.4672,-0.47581 -0.7062,-0.70618 -0.1216,-0.12487 -0.2476,-0.24544 -0.3703,-0.37031 -0.2379,-0.23253 -0.4672,-0.47581 -0.7062,-0.70618 -0.1227,-0.12595 -0.2465,-0.24437 -0.3703,-0.37032 -0.069,-0.0667 -0.1335,-0.13564 -0.2024,-0.20238 -0.1625,-0.1647 -0.3079,-0.34125 -0.4715,-0.50488 -0.3552,-0.36385 -0.7191,-0.71802 -1.0765,-1.07649 -0.1227,-0.12595 -0.2465,-0.24436 -0.3703,-0.37031 -0.2336,-0.22822 -0.4715,-0.44675 -0.7062,-0.67281 -0.127,-0.13026 -0.2422,-0.27343 -0.3703,-0.40369 -0.2336,-0.22821 -0.4715,-0.44674 -0.7062,-0.67281 -0.1227,-0.12379 -0.2465,-0.24759 -0.3703,-0.37031 -0.2379,-0.23252 -0.4672,-0.47581 -0.7062,-0.70618 -0.1216,-0.12487 -0.2476,-0.24544 -0.3703,-0.37031 -0.2379,-0.23253 -0.4672,-0.47581 -0.7062,-0.70618 -0.3574,-0.36601 -0.7169,-0.71587 -1.0765,-1.0765 -0.1227,-0.12595 -0.2465,-0.24436 -0.3703,-0.37031 -0.012,-0.0108 -0.023,-0.0226 -0.033,-0.0334 -0.096,-0.0958 -0.1733,-0.20777 -0.2691,-0.3025 -0.1238,-0.12487 -0.2465,-0.24544 -0.3703,-0.37031 -0.3466,-0.35417 -0.6944,-0.69326 -1.0431,-1.04313 l -0.033,-0.0334 c -0.1228,-0.12595 -0.2465,-0.24436 -0.3703,-0.37031 -0.1432,-0.13994 -0.2939,-0.26482 -0.4371,-0.40369 l -0.2024,-0.20238 c -0.023,-0.0226 -0.044,-0.0452 -0.068,-0.0678 -0.1216,-0.12487 -0.2476,-0.24544 -0.3703,-0.37031 -0.2379,-0.23252 -0.4672,-0.47581 -0.7062,-0.70618 -0.1216,-0.12487 -0.2476,-0.24544 -0.3703,-0.37031 -0.2379,-0.23253 -0.4672,-0.47581 -0.7062,-0.70618 -0.3574,-0.36601 -0.7169,-0.71587 -1.0765,-1.0765 -0.1227,-0.12595 -0.2465,-0.24436 -0.3703,-0.37031 -0.069,-0.0678 -0.1324,-0.13456 -0.2024,-0.20238 -0.1291,-0.13026 -0.2411,-0.27343 -0.3703,-0.40369 -0.033,-0.0334 -0.067,-0.0678 -0.1012,-0.10119 -0.3466,-0.35417 -0.6943,-0.69326 -1.0431,-1.04312 l -0.033,-0.0334 c -0.1227,-0.12595 -0.2465,-0.24437 -0.3703,-0.37032 -0.1432,-0.13994 -0.2939,-0.26481 -0.4371,-0.40368 l -0.2023,-0.20238 c -0.023,-0.0226 -0.044,-0.0452 -0.068,-0.0678 -0.1217,-0.12488 -0.2476,-0.24544 -0.3704,-0.37032 -0.2379,-0.23252 -0.4671,-0.47581 -0.7061,-0.70618 -0.1217,-0.12487 -0.2476,-0.24544 -0.3703,-0.37031 -0.238,-0.23252 -0.4672,-0.47581 -0.7062,-0.70618 -0.1217,-0.12487 -0.2476,-0.24544 -0.3703,-0.37031 -0.2379,-0.23253 -0.4672,-0.47581 -0.7062,-0.70618 -0.1227,-0.12595 -0.2465,-0.24437 -0.3703,-0.37032 -0.069,-0.0667 -0.1335,-0.13564 -0.2024,-0.20238 -0.1626,-0.16147 -0.3079,-0.34448 -0.4715,-0.50488 -0.3553,-0.36385 -0.7191,-0.71802 -1.0765,-1.07649 -0.1227,-0.12595 -0.2465,-0.24436 -0.3703,-0.37031 -0.2336,-0.22822 -0.4715,-0.44675 -0.7062,-0.67281 -0.127,-0.13026 -0.2422,-0.27343 -0.3703,-0.40369 -0.2336,-0.22821 -0.4715,-0.44674 -0.7062,-0.67281 -0.1216,-0.12487 -0.2476,-0.24544 -0.3703,-0.37031 -0.2379,-0.23252 -0.4672,-0.47581 -0.7062,-0.70618 -0.1216,-0.12487 -0.2476,-0.24544 -0.3703,-0.37031 -0.2379,-0.23253 -0.4672,-0.47581 -0.7062,-0.70618 -0.3574,-0.36601 -0.7169,-0.71587 -1.0765,-1.0765 -0.1227,-0.12595 -0.2465,-0.24436 -0.3703,-0.37031 -0.012,-0.0108 -0.023,-0.0226 -0.033,-0.0334 -0.096,-0.0958 -0.1733,-0.20777 -0.2691,-0.3025 -0.1238,-0.12487 -0.2465,-0.24544 -0.3703,-0.37031 -0.1228,-0.12595 -0.2466,-0.24437 -0.3704,-0.37032 -0.023,-0.0226 -0.044,-0.0452 -0.068,-0.0678 -0.2066,-0.21099 -0.4316,-0.39722 -0.6394,-0.60606 -0.127,-0.13026 -0.2422,-0.27343 -0.3703,-0.40369 -0.2336,-0.22821 -0.4715,-0.44674 -0.7062,-0.67281 -0.1216,-0.12487 -0.2476,-0.24544 -0.3703,-0.37031 -0.2379,-0.23252 -0.4672,-0.47581 -0.7062,-0.70618 -0.1216,-0.12487 -0.2476,-0.24544 -0.3703,-0.37031 -0.2379,-0.23253 -0.4672,-0.47581 -0.7062,-0.70618 -0.3574,-0.36601 -0.7169,-0.71587 -1.0765,-1.0765 -0.1227,-0.12595 -0.2465,-0.24436 -0.3703,-0.37031 -0.069,-0.0678 -0.1324,-0.13456 -0.2024,-0.20238 -0.1291,-0.13026 -0.2411,-0.27343 -0.3703,-0.40369 -0.1582,-0.15609 -0.3122,-0.31541 -0.4715,-0.4715 -0.2239,-0.22822 -0.4478,-0.44675 -0.6728,-0.67281 l -0.033,-0.0334 c -0.1227,-0.12595 -0.2465,-0.24437 -0.3703,-0.37032 -0.1432,-0.13994 -0.2939,-0.26481 -0.4371,-0.40368 l -0.2023,-0.20238 c -0.023,-0.0226 -0.044,-0.0452 -0.068,-0.0678 -0.1217,-0.12488 -0.2476,-0.24544 -0.3704,-0.37032 -0.2379,-0.23252 -0.4672,-0.47581 -0.7061,-0.70618 -0.1217,-0.12487 -0.2476,-0.24544 -0.3704,-0.37031 -0.2379,-0.23252 -0.4672,-0.47581 -0.7061,-0.70618 -0.1228,-0.12595 -0.2466,-0.24436 -0.3703,-0.37031 -0.238,-0.23253 -0.4672,-0.47581 -0.7062,-0.70618 -0.1227,-0.12595 -0.2465,-0.24437 -0.3703,-0.37032 -0.069,-0.0678 -0.1325,-0.13456 -0.2024,-0.20238 -0.1292,-0.13026 -0.2412,-0.27343 -0.3703,-0.40368 -0.033,-0.0334 -0.067,-0.0678 -0.1012,-0.1012 -0.3553,-0.36385 -0.7191,-0.71802 -1.0765,-1.07649 -0.1227,-0.12595 -0.2465,-0.24436 -0.3703,-0.37031 -0.2336,-0.22822 -0.4715,-0.44675 -0.7062,-0.67281 -0.127,-0.13026 -0.2422,-0.27343 -0.3703,-0.40369 -0.2336,-0.22821 -0.4715,-0.44674 -0.7062,-0.67281 -0.1217,-0.12487 -0.2476,-0.24544 -0.3703,-0.37031 -0.2379,-0.23252 -0.4672,-0.47581 -0.7062,-0.70618 -0.1216,-0.12487 -0.2476,-0.24544 -0.3703,-0.37031 -0.2379,-0.23253 -0.4672,-0.47581 -0.7062,-0.70618 -0.1227,-0.12595 -0.2465,-0.24437 -0.3703,-0.37032 -0.069,-0.0667 -0.1335,-0.13564 -0.2024,-0.20238 -0.1625,-0.1647 -0.3079,-0.34125 -0.4715,-0.50487 -0.3552,-0.36386 -0.7191,-0.71803 -1.0765,-1.0765 -0.1227,-0.12595 -0.2465,-0.24436 -0.3703,-0.37031 -0.2336,-0.22822 -0.4715,-0.44675 -0.7062,-0.67281 -0.127,-0.13026 -0.2422,-0.27343 -0.3703,-0.40369 -0.2336,-0.22821 -0.4715,-0.44674 -0.7062,-0.67281 -0.1216,-0.12487 -0.2476,-0.24544 -0.3703,-0.37031 -0.2379,-0.23252 -0.4672,-0.47581 -0.7062,-0.70618 -0.1216,-0.12487 -0.2476,-0.24544 -0.3703,-0.37031 -0.2379,-0.23253 -0.4672,-0.47581 -0.7062,-0.70618 -11.6444,-11.92756 -24.4751,-21.21447 -38.5525,-27.7531 l -0.033,0 c -16.0761,-7.44489 -33.4572,-11.16848 -52.0052,-11.16848" fill-rule="evenodd" fill-opacity="0.235"/>
 <path d="m 256.21529,101.30134 c -18.5544,0 -35.91183,3.71606 -52.01618,11.16109 -16.10328,7.47625 -30.57889,18.53723 -43.52266,33.02899 -13.99335,15.42078 -24.38044,32.15703 -30.97289,50.14417 -6.59568,17.96023 -9.79931,38.14772 -9.79931,60.5528 0,22.40937 3.20364,42.65284 9.79931,60.60661 6.59353,18.00221 16.97954,34.69541 30.97289,50.11726 12.80813,14.3712 27.23422,25.33529 43.30737,32.73511 16.0882,7.38475 33.54357,11.05452 52.23147,11.05452 18.6858,0 36.0949,-3.67192 52.1992,-11.05452 16.1033,-7.39982 30.5122,-18.36499 43.3397,-32.73511 13.8555,-15.3142 24.135,-31.92128 30.6531,-49.85244 6.5311,-17.86657 9.6885,-38.21231 9.6885,-60.87574 0,-22.67097 -3.1595,-42.99518 -9.6885,-60.87574 -6.5128,-17.91179 -16.8083,-34.52317 -30.679,-49.82015 -12.9125,-14.49392 -27.4075,-25.55489 -43.5011,-33.02899 -16.0774,-7.44503 -33.4682,-11.16109 -52.0162,-11.16109 m 0,20.39956 c 20.996,0 34.3585,8.02204 41.8939,23.55046 8.0813,16.63507 12.6564,53.0281 12.6564,110.94348 0,57.94553 -4.573,94.33318 -12.6564,110.94349 -7.5354,15.55857 -20.9001,23.57737 -41.8939,23.57737 -21.1197,0 -34.60927,-8.10277 -42.24161,-23.76899 -8.15875,-16.76209 -12.736,-53.09269 -12.736,-110.76048 0,-57.64626 4.57833,-93.94564 12.736,-110.70665 7.62911,-15.67914 21.12291,-23.79052 42.24161,-23.79052" id="path66" inkscape:connector-curvature="0" fill="#ffffff" fill-rule="evenodd"/>
 <path d="M 192.52137,471.94501 471.58139,310.85502 c 3.438,-15.40898 5.25,-31.42999 5.25,-47.87497 0,-23.27203 -3.648,-45.67903 -10.375,-66.72004 l -370.53001,213.94 c 25.83599,28.41399 59.04,50.01002 96.58999,61.74999" id="path7758" inkscape:connector-curvature="0" fill="#545454"/>
 <path id="path12169" d="m 361.79929,279.85547 -7.998,4.61719 10.1992,63.64453 7.4395,-4.29688 -2.9746,-16.11914 23.5078,-13.57226 12.4746,10.63476 7.334,-4.23437 -49.9825,-40.67383 z m 0,9.26953 24.5899,20.40625 -19.1758,11.07227 -5.4141,-31.47852 z m -22.6992,3.83789 -44.1152,25.4707 3.4277,5.9375 18.5137,-10.6875 26.6797,46.20899 7.0898,-4.09375 -26.6797,-46.20899 18.5118,-10.68945 -3.4278,-5.9375 z m -49.1797,28.39453 -32.9726,19.03711 30.1074,52.14844 33.6016,-19.40039 -3.4278,-5.9375 -26.5449,15.32617 -10.9101,-18.89648 24.8339,-14.33789 -3.4277,-5.9375 -24.8359,14.33789 -8.9121,-15.43946 25.916,-14.96289 -3.4278,-5.9375 z m -51.2207,32.9961 c -3.8049,-0.0852 -8.0609,1.22989 -12.76753,3.94726 l -18.02344,10.40625 30.10737,52.14844 18.7227,-10.80859 c 5.8447,-3.37445 9.6169,-7.2448 11.3184,-11.61133 1.7014,-4.36654 1.2083,-8.87998 -1.4805,-13.53711 -2.0435,-3.53944 -4.7114,-5.92611 -8.002,-7.16211 -3.2807,-1.27275 -6.8697,-1.2795 -10.7695,-0.0215 2.6186,-2.13277 4.128,-4.57376 4.5293,-7.32031 0.4013,-2.74657 -0.3183,-5.71416 -2.1602,-8.9043 -2.3795,-4.12157 -5.6717,-6.4607 -9.873,-7.01562 -0.5252,-0.0694 -1.058,-0.10892 -1.6016,-0.12109 z m -2.0664,7.49609 c 0.3196,0.006 0.6319,0.0303 0.9356,0.0723 2.4527,0.32258 4.4378,1.7984 5.957,4.42968 1.5326,2.65458 1.8259,5.12475 0.8789,7.41016 -0.9371,2.24869 -3.1279,4.36771 -6.5742,6.35742 l -10.4453,6.0293 -9.07423,-15.7168 10.44333,-6.0293 c 3.0155,-1.741 5.642,-2.59238 7.8789,-2.55273 z m 13.0078,20.84375 c 0.7467,-0.041 1.4595,0.003 2.1387,0.13086 2.7269,0.47478 5.03,2.34156 6.9121,5.60156 1.8687,3.23671 2.3414,6.17872 1.416,8.82422 -0.9155,2.60878 -3.2708,5.00785 -7.0664,7.19922 l -11.3164,6.53516 -11.0312,-19.10743 11.3164,-6.5332 c 2.8467,-1.64353 5.3908,-2.52723 7.6308,-2.65039 z" inkscape:connector-curvature="0" fill="#ffffff"/>
 <path inkscape:connector-curvature="0" id="path10-7" d="M 255.99999,1 C 115.17001,1 1.00001,115.17 1.00001,256 c 0,140.83 114.17,255 254.99998,255 140.83,0 255,-114.17 255,-255 0,-140.83 -114.17,-255 -255,-255 m 8.827,44.931 c 120.9,0 218.9,98 218.9,218.9 0,120.9 -98,218.9 -218.9,218.9 -120.89998,0 -218.92998,-98 -218.92998,-218.9 0,-120.9 98.03,-218.9 218.92998,-218.9" fill-rule="evenodd" fill-opacity="0.067"/>
 <path d="M 255.99999,4.43 C 117.06001,4.43 4.43001,117.06 4.43001,256 c 0,138.94 112.63,251.54 251.56998,251.54 138.94,0 251.57,-112.6 251.57,-251.54 0,-138.94 -112.63,-251.57 -251.57,-251.57 m 5.885,38.556 c 120.9,0 218.9,98 218.9,218.9 0,120.9 -98,218.9 -218.9,218.9 -120.89998,0 -218.92998,-98 -218.92998,-218.9 0,-120.9 98.03,-218.9 218.92998,-218.9" id="path14-9" inkscape:connector-curvature="0" fill-rule="evenodd" fill-opacity="0.129"/>
 <path d="M 255.99999,8.36 C 119.23001,8.36 8.36001,119.23 8.36001,256 c 0,136.77 110.87,247.64 247.63998,247.64 136.77,0 247.64,-110.87 247.64,-247.64 0,-136.77 -110.87,-247.64 -247.64,-247.64 m 2.942,31.691 c 120.9,0 218.9,98 218.9,218.9 0,120.9 -98,218.9 -218.9,218.9 -120.89998,0 -218.92998,-98 -218.92998,-218.9 0,-120.9 98.03,-218.9 218.92998,-218.9" id="path16-3" inkscape:connector-curvature="0" fill-rule="evenodd" fill-opacity="0.129"/>
 <path inkscape:connector-curvature="0" id="path18-1" d="M 253.03999,7.86 C 117.62001,7.86 7.85001,117.64 7.85001,253.05 c 0,135.42 109.78,245.19 245.18998,245.19 135.42,0 245.19,-109.78 245.19,-245.19 0,-135.42 -109.78,-245.19 -245.19,-245.19 z m 0,26.297 c 120.9,0 218.9,98 218.9,218.9 0,120.9 -98,218.9 -218.9,218.9 -120.89998,0 -218.92998,-98 -218.92998,-218.9 0,-120.9 98.03,-218.9 218.92998,-218.9 z" stroke-opacity="0.31" fill="#ffffff" fill-rule="evenodd" stroke="#000000" stroke-width="4.904"/>
</svg>
