<?xml version="1.0" encoding="UTF-8" standalone="no"?>
<svg xmlns="http://www.w3.org/2000/svg" xmlns:sodipodi="http://sodipodi.sourceforge.net/DTD/sodipodi-0.dtd" xmlns:inkscape="http://www.inkscape.org/namespaces/inkscape" height="512" viewBox="0 0 512 512" width="512" version="1.1">
 <metadata id="metadata110"/>
 <path fill="#585858" fill-rule="evenodd" d="m471.95 253.05c0 120.9-98.01 218.9-218.9 218.9-120.9 0-218.9-98.01-218.9-218.9 0-120.9 98.01-218.9 218.9-218.9 120.9 0 218.9 98.01 218.9 218.9" id="path4"/>
 <path d="m167.97 171.66c-30.911 0.601-61.41 20.623-68.03 52.03-8.558 35.22-4.86 78.38 24.594 103.06 48.23 48.17 96.39 96.4 144.59 144.59 113.38-8.239 202.81-102.8 202.81-218.28 0-6.378-0.278-12.698-0.813-18.938-0.593-0.612-1.374-1.137-2.594-1.406-0.76-3.362-5.714-4.445-6.156-8-3.874-1.153-3.811-4.505-7.594-5.719-0.71-3.403-5.718-4.435-6.125-8-4.257-1.458-4.816-4.945-8.219-6.875-2.249-2.413-3.972-5.088-7.375-6.875-1.169-2.891-3.88-4.969-6.875-6.844-0.765-3.442-5.695-4.423-6.156-8.03-3.633-1.435-5.135-4.107-7.125-6.438-1.821-3.14-13.541-0.888-19.875-1.563-7.573 1.42-19.15-4.175-21.813 5.844l-22.563 38.22c-11.12-11.309-22.495-22.19-33.5-33.75-5.579-3.641-8.268-12.381-17.09-10.313h-31.5l50.813 79.22c-4.277 3.103-7.26 18.836-12.469 12.938-27.608-26.941-53.973-55.25-82.41-81.28-13.907-10.07-31.465-13.472-48.34-13.438-2.057-0.135-4.127-0.196-6.188-0.156" fill-opacity="0.235" id="path6"/>
 <g fill-rule="evenodd" id="g8">
  <path d="m256 1c-140.83 0-255 114.17-255 255s114.17 255 255 255 255-114.17 255-255-114.17-255-255-255m8.827 44.931c120.9 0 218.9 98 218.9 218.9s-98 218.9-218.9 218.9-218.93-98-218.93-218.9 98.03-218.9 218.93-218.9" fill-opacity="0.067" id="path10"/>
  <g fill-opacity="0.129" id="g12">
   <path d="m256 4.433c-138.94 0-251.57 112.63-251.57 251.57s112.63 251.57 251.57 251.57 251.57-112.63 251.57-251.57-112.63-251.57-251.57-251.57m5.885 38.556c120.9 0 218.9 98 218.9 218.9s-98 218.9-218.9 218.9-218.93-98-218.93-218.9 98.03-218.9 218.93-218.9" id="path14"/>
   <path d="m256 8.356c-136.77 0-247.64 110.87-247.64 247.64s110.87 247.64 247.64 247.64 247.64-110.87 247.64-247.64-110.87-247.64-247.64-247.64m2.942 31.691c120.9 0 218.9 98 218.9 218.9s-98 218.9-218.9 218.9-218.93-98-218.93-218.9 98.03-218.9 218.93-218.9" id="path16"/>
  </g>
  <path fill="#ffffff" stroke-width="4.904" stroke="#000000" stroke-opacity="0.31" d="m253.04 7.859c-135.42 0-245.19 109.78-245.19 245.19 0 135.42 109.78 245.19 245.19 245.19 135.42 0 245.19-109.78 245.19-245.19 0-135.42-109.78-245.19-245.19-245.19zm0 26.297c120.9 0 218.9 98 218.9 218.9s-98 218.9-218.9 218.9-218.93-98-218.93-218.9 98.03-218.9 218.93-218.9z" id="path18"/>
 </g>
 <text font-family="Gentium Book Basic" x="729.64" y="231.36" line-height="125%" font-size="129.23" id="text20" word-spacing="0" letter-spacing="0"><tspan x="729.64" y="231.36" id="tspan22"/>
 </text>
 <text font-family="Arial" x="378.91" y="579.25" transform="scale(4.0128 .2492)" font-size="46.954" id="text24" text-anchor="middle"/>
 <text font-family="Gentium Book Basic" x="1310.91" y="151.36" line-height="125%" font-size="129.23" id="text26" word-spacing="0" letter-spacing="0"><tspan x="1310.91" y="151.36" id="tspan28"/>
 </text>
 <text font-family="Arial" x="523.76" y="258.22" transform="scale(4.0128 .2492)" font-size="46.954" id="text30" text-anchor="middle"/>
 <text font-family="Gentium Book Basic" x="239.33" y="-29.901" line-height="125%" font-size="129.23" id="text32" word-spacing="0" letter-spacing="0"><tspan x="239.33" y="-29.901" id="tspan34"/>
 </text>
 <text font-family="Arial" x="256.72" y="-469.14" transform="scale(4.0128 .2492)" font-size="46.954" id="text36" text-anchor="middle"/>
 <text font-family="Gentium Book Basic" x="1337.38" y="-246.37" line-height="125%" font-size="129.23" id="text38" word-spacing="0" letter-spacing="0"><tspan x="1337.38" y="-246.37" id="tspan40"/>
 </text>
 <text font-family="Arial" x="530.36" y="-1337.81" transform="scale(4.0128 .2492)" font-size="46.954" id="text42" text-anchor="middle"/>
 <text font-family="Gentium Book Basic" x="1918.65" y="-326.38" line-height="125%" font-size="129.23" id="text44" word-spacing="0" letter-spacing="0"><tspan x="1918.65" y="-326.38" id="tspan46"/>
 </text>
 <text font-family="Arial" x="675.21" y="-1658.85" transform="scale(4.0128 .2492)" font-size="46.954" id="text48" text-anchor="middle"/>
 <text font-family="Gentium Book Basic" x="1529.53" y="-798.78" line-height="125%" font-size="129.23" id="text50" word-spacing="0" letter-spacing="0"><tspan x="1529.53" y="-798.78" id="tspan52"/>
 </text>
 <text font-family="Arial" x="578.24" y="-3554.51" transform="scale(4.0128 .2492)" font-size="46.954" id="text54" text-anchor="middle"/>
 <text font-family="Gentium Book Basic" x="2110.79" y="-878.78" line-height="125%" font-size="129.23" id="text56" word-spacing="0" letter-spacing="0"><tspan x="2110.79" y="-878.78" id="tspan58"/>
 </text>
 <text font-family="Arial" x="723.09" y="-3875.54" transform="scale(4.0128 .2492)" font-size="46.954" id="text60" text-anchor="middle"/>
 <g line-height="125%" font-size="208.33" font-family="Gentium Book Basic" id="g62" word-spacing="0" letter-spacing="0">
  <text x="277.99" y="535.94" id="text64"><tspan x="277.99" y="535.94" id="tspan66"/>
  </text>
  <text x="-1771.42" y="413.27" id="text68"><tspan x="-1771.42" y="413.27" id="tspan70"/>
  </text>
 </g>
 <text font-family="Arial" x="-123.71" y="1095.49" transform="scale(4.0128 .2492)" font-size="75.7" id="text72" text-anchor="middle"/>
 <text font-family="Gentium Book Basic" x="-1213.24" y="859.18" line-height="125%" font-size="208.33" id="text74" word-spacing="0" letter-spacing="0"><tspan x="-1213.24" y="859.18" id="tspan76"/>
 </text>
 <text font-family="Arial" x="15.386" y="2884.85" transform="scale(4.0128 .2492)" font-size="75.7" id="text78" text-anchor="middle"/>
 <g line-height="125%" id="g80" word-spacing="0" letter-spacing="0">
  <text font-family="Sans" font-size="40" x="875.45" y="621.66" id="text82"><tspan font-style="italic" font-weight="bold" x="875.45" y="621.66" id="tspan84"/>
  </text>
  <text font-family="Gentium Book Basic" font-size="208.33" x="-1886.19" y="424.14" id="text86"><tspan x="-1886.19" y="424.14" id="tspan88"/>
  </text>
 </g>
 <text font-family="Arial" x="-152.31" y="1139.13" transform="scale(4.0128 .2492)" font-size="75.7" id="text90" text-anchor="middle"/>
 <text font-family="Gentium Book Basic" x="-1179.85" y="268.51" line-height="125%" font-size="208.33" id="text92" word-spacing="0" letter-spacing="0"><tspan x="-1179.85" y="268.51" id="tspan94"/>
 </text>
 <text font-family="Arial" x="23.707" y="514.61" transform="scale(4.0128 .2492)" font-size="75.7" id="text96" text-anchor="middle"/>
 <text font-family="Gentium Book Basic" x="-1146.48" y="260.39" line-height="125%" font-size="208.33" id="text98" word-spacing="0" letter-spacing="0"><tspan x="-1146.48" y="260.39" id="tspan100"/>
 </text>
 <text font-family="Arial" x="32.02" y="482.01" transform="scale(4.0128 .2492)" font-size="75.7" id="text102" text-anchor="middle"/>
 <path d="m174.16 171.81c-25.14 0-44.44 7.199-57.938 21.594-13.426 14.321-20.16 35.09-20.16 62.31s6.73 48.11 20.16 62.66c13.426 14.545 32.657 21.813 57.719 21.813 25.06 0 44.29-7.268 57.719-21.813 13.426-14.545 20.16-35.36 20.16-62.44 0-27.15-6.68-47.967-20.03-62.44-13.277-14.47-32.489-21.687-57.62-21.688m92.41 2.563 50.813 79.22-54.28 84.34h37.16l38.03-61.844 38.03 61.844h39.625l-55.28-82.44 51.38-81.12h-37.37l-34.563 58.844-35.25-58.844h-38.28m-92.41 26.313c27.523 0 41.28 18.404 41.28 55.25 0 36.772-13.828 55.16-41.5 55.16-13.799 0-24.16-4.626-31.09-13.875-6.937-9.249-10.406-23.01-10.406-41.28 0-18.274 3.489-32.03 10.5-41.28 7.01-9.323 17.42-13.969 31.22-13.969" fill="#ffffff" id="path104"/>
</svg>
