<?xml version="1.0" encoding="UTF-8" standalone="no"?>
<svg xmlns="http://www.w3.org/2000/svg" xmlns:sodipodi="http://sodipodi.sourceforge.net/DTD/sodipodi-0.dtd" xmlns:inkscape="http://www.inkscape.org/namespaces/inkscape" height="512" viewBox="0 0 512 512" width="512" version="1.1">
 <metadata id="metadata90"/>
 <g transform="translate(0,-540.36)" id="g4">
  <text font-family="Gentium Book Basic" x="-1160.48" y="1089.88" line-height="125%" font-size="208.33" id="text6" word-spacing="0" letter-spacing="0"><tspan x="-1160.48" y="1089.88" id="tspan8"/>
  </text>
  <text font-family="Arial" x="28.534" y="3810.63" transform="scale(4.0128 .2492)" font-size="75.7" id="text10" text-anchor="middle"/>
  <g fill-rule="evenodd" transform="matrix(.91476 0 0 .91476 -967.4 66.57)" id="g12">
   <path d="m1336 549.22c-91.42 0-171.34 49.11-214.94 122.34-22.249 37.37-35.06 81-35.06 127.66 0 138.07 111.93 250 250 250s250-111.93 250-250c0-46.653-12.814-90.28-35.06-127.66-43.6-73.24-123.5-122.34-214.9-122.34" fill="#272727" id="path14"/>
   <path d="m1338.8 546.36v500h0.062c136.64 0 247.64-109.63 249.94-245.72v-9.75c-0.958-44.596-13.622-86.28-35-122.19-43.597-73.24-123.52-122.34-214.94-122.34h-0.062" fill="#c6c6c6" id="path16"/>
  </g>
  <path d="m114.94 700.55v33.28c34.05 35.18 4.157 3.879 55.659 58.54-0.124 1.402-2.02 2.331-2.912 3.871-14.289 29.06-21.32 61.1-25.06 93.09 11.947 10.02 21.733 21.997 33.18 32.464 11.701 12.185 24.35 23.526 35.474 36.19 11.513 9.471 20.647 21.14 31.969 30.844 9.407 10.575 20.16 20.12 29.868 30.41 14.819 12.833 38.19-2.212 55.49-5.02 55.41-18.961 103.12-59.877 129.64-112.17-107.66-113.84-4.908-4.424-107.77-114.62-4.505-0.995-8.713 0.676-13.213-0.348-30.29-25.565-61.08-55.01-85.48-82.56-5.637-6.617-15.11-3.079-22.858-3.969h-113.99" fill-opacity="0.235" id="path18"/>
  <g fill="#ffffff" id="g20">
   <text font-family="Nimbus Sans L" x="107.22" y="889.33" line-height="125%" font-size="266.28" font-weight="bold" id="text22" word-spacing="0" letter-spacing="0"><tspan x="107.22" y="889.33" id="tspan24">7</tspan>
   </text>
   <path d="m352.12 889.33h-75.891v-14.02l48.897-70.1h-47.572v-17.857h73.24v13.951l-48.827 70.17h50.15v17.857" id="path26"/>
  </g>
  <g fill-rule="evenodd" id="g28">
   <path d="m256 541.36c-140.83 0-255 114.17-255 255s114.17 255 255 255 255-114.17 255-255-114.17-255-255-255m8.827 44.931c120.9 0 218.9 98 218.9 218.9s-98 218.9-218.9 218.9-218.93-98-218.93-218.9 98.03-218.9 218.93-218.9" fill-opacity="0.067" id="path30"/>
   <g fill-opacity="0.129" id="g32">
    <path d="m256 544.79c-138.94 0-251.57 112.63-251.57 251.57s112.63 251.54 251.57 251.54 251.57-112.6 251.57-251.54-112.63-251.57-251.57-251.57m5.885 38.556c120.9 0 218.9 98 218.9 218.9s-98 218.9-218.9 218.9-218.93-98-218.93-218.9 98.03-218.9 218.93-218.9" id="path34"/>
    <path d="m256 548.72c-136.77 0-247.64 110.87-247.64 247.64s110.87 247.64 247.64 247.64 247.64-110.87 247.64-247.64-110.87-247.64-247.64-247.64m2.942 31.691c120.9 0 218.9 98 218.9 218.9s-98 218.9-218.9 218.9-218.93-98-218.93-218.9 98.03-218.9 218.93-218.9" id="path36"/>
   </g>
   <path fill="#ffffff" stroke-width="4.904" stroke="#000000" stroke-opacity="0.31" d="m253.04 548.22c-135.42 0-245.19 109.78-245.19 245.19 0 135.42 109.78 245.19 245.19 245.19 135.42 0 245.19-109.78 245.19-245.19 0-135.42-109.78-245.19-245.19-245.19zm0 26.297c120.9 0 218.9 98 218.9 218.9s-98 218.9-218.9 218.9-218.93-98-218.93-218.9 98.03-218.9 218.93-218.9z" id="path38"/>
  </g>
  <text font-family="Gentium Book Basic" x="729.64" y="771.72" line-height="125%" font-size="129.23" id="text40" word-spacing="0" letter-spacing="0"><tspan x="729.64" y="771.72" id="tspan42"/>
  </text>
  <text font-family="Arial" x="378.91" y="2747.64" transform="scale(4.0128 .2492)" font-size="46.954" id="text44" text-anchor="middle"/>
  <text font-family="Gentium Book Basic" x="1310.91" y="691.72" line-height="125%" font-size="129.23" id="text46" word-spacing="0" letter-spacing="0"><tspan x="1310.91" y="691.72" id="tspan48"/>
  </text>
  <text font-family="Arial" x="523.76" y="2426.6" transform="scale(4.0128 .2492)" font-size="46.954" id="text50" text-anchor="middle"/>
  <text font-family="Gentium Book Basic" x="239.33" y="510.46" line-height="125%" font-size="129.23" id="text52" word-spacing="0" letter-spacing="0"><tspan x="239.33" y="510.46" id="tspan54"/>
  </text>
  <text font-family="Arial" x="256.72" y="1699.25" transform="scale(4.0128 .2492)" font-size="46.954" id="text56" text-anchor="middle"/>
  <text font-family="Gentium Book Basic" x="1337.38" y="293.99" line-height="125%" font-size="129.23" id="text58" word-spacing="0" letter-spacing="0"><tspan x="1337.38" y="293.99" id="tspan60"/>
  </text>
  <text font-family="Arial" x="530.36" y="830.57" transform="scale(4.0128 .2492)" font-size="46.954" id="text62" text-anchor="middle"/>
  <text font-family="Gentium Book Basic" x="1918.65" y="213.99" line-height="125%" font-size="129.23" id="text64" word-spacing="0" letter-spacing="0"><tspan x="1918.65" y="213.99" id="tspan66"/>
  </text>
  <text font-family="Arial" x="675.21" y="509.54" transform="scale(4.0128 .2492)" font-size="46.954" id="text68" text-anchor="middle"/>
  <text font-family="Gentium Book Basic" x="1529.53" y="-258.41" line-height="125%" font-size="129.23" id="text70" word-spacing="0" letter-spacing="0"><tspan x="1529.53" y="-258.41" id="tspan72"/>
  </text>
  <text font-family="Arial" x="578.24" y="-1386.12" transform="scale(4.0128 .2492)" font-size="46.954" id="text74" text-anchor="middle"/>
  <text font-family="Gentium Book Basic" x="2110.79" y="-338.42" line-height="125%" font-size="129.23" id="text76" word-spacing="0" letter-spacing="0"><tspan x="2110.79" y="-338.42" id="tspan78"/>
  </text>
  <text font-family="Arial" x="723.09" y="-1707.16" transform="scale(4.0128 .2492)" font-size="46.954" id="text80" text-anchor="middle"/>
  <text font-family="Gentium Book Basic" x="277.99" y="1076.3" line-height="125%" font-size="208.33" id="text82" word-spacing="0" letter-spacing="0"><tspan x="277.99" y="1076.3" id="tspan84"/>
  </text>
 </g>
</svg>
