<?xml version="1.0" encoding="UTF-8" standalone="no"?>
<svg xmlns="http://www.w3.org/2000/svg" xmlns:sodipodi="http://sodipodi.sourceforge.net/DTD/sodipodi-0.dtd" xmlns:inkscape="http://www.inkscape.org/namespaces/inkscape" height="512" viewBox="0 0 512 512" width="512" version="1.1">
 <metadata id="metadata120"/>
 <text font-family="Gentium Book Basic" x="729.64" y="231.36" line-height="125%" font-size="129.23" id="text4" word-spacing="0" letter-spacing="0"><tspan x="729.64" y="231.36" id="tspan6"/>
 </text>
 <text font-family="Arial" x="378.91" y="579.25" transform="scale(4.0128 .2492)" font-size="46.954" id="text8" text-anchor="middle"/>
 <text font-family="Gentium Book Basic" x="1310.91" y="151.36" line-height="125%" font-size="129.23" id="text10" word-spacing="0" letter-spacing="0"><tspan x="1310.91" y="151.36" id="tspan12"/>
 </text>
 <text font-family="Arial" x="523.76" y="258.22" transform="scale(4.0128 .2492)" font-size="46.954" id="text14" text-anchor="middle"/>
 <text font-family="Gentium Book Basic" x="239.33" y="-29.901" line-height="125%" font-size="129.23" id="text16" word-spacing="0" letter-spacing="0"><tspan x="239.33" y="-29.901" id="tspan18"/>
 </text>
 <text font-family="Arial" x="256.72" y="-469.14" transform="scale(4.0128 .2492)" font-size="46.954" id="text20" text-anchor="middle"/>
 <text font-family="Gentium Book Basic" x="1337.38" y="-246.37" line-height="125%" font-size="129.23" id="text22" word-spacing="0" letter-spacing="0"><tspan x="1337.38" y="-246.37" id="tspan24"/>
 </text>
 <text font-family="Arial" x="530.36" y="-1337.81" transform="scale(4.0128 .2492)" font-size="46.954" id="text26" text-anchor="middle"/>
 <text font-family="Gentium Book Basic" x="1918.65" y="-326.38" line-height="125%" font-size="129.23" id="text28" word-spacing="0" letter-spacing="0"><tspan x="1918.65" y="-326.38" id="tspan30"/>
 </text>
 <text font-family="Arial" x="675.21" y="-1658.85" transform="scale(4.0128 .2492)" font-size="46.954" id="text32" text-anchor="middle"/>
 <text font-family="Gentium Book Basic" x="1529.53" y="-798.78" line-height="125%" font-size="129.23" id="text34" word-spacing="0" letter-spacing="0"><tspan x="1529.53" y="-798.78" id="tspan36"/>
 </text>
 <text font-family="Arial" x="578.24" y="-3554.51" transform="scale(4.0128 .2492)" font-size="46.954" id="text38" text-anchor="middle"/>
 <text font-family="Gentium Book Basic" x="2110.79" y="-878.78" line-height="125%" font-size="129.23" id="text40" word-spacing="0" letter-spacing="0"><tspan x="2110.79" y="-878.78" id="tspan42"/>
 </text>
 <text font-family="Arial" x="723.09" y="-3875.54" transform="scale(4.0128 .2492)" font-size="46.954" id="text44" text-anchor="middle"/>
 <text font-family="Gentium Book Basic" x="277.99" y="535.94" line-height="125%" font-size="208.33" id="text46" word-spacing="0" letter-spacing="0"><tspan x="277.99" y="535.94" id="tspan48"/>
 </text>
 <path fill="#5b5b5b" fill-rule="evenodd" d="m471.95 253.05c0 120.9-98.01 218.9-218.9 218.9-120.9 0-218.9-98.01-218.9-218.9 0-120.9 98.01-218.9 218.9-218.9 120.9 0 218.9 98.01 218.9 218.9" id="path50"/>
 <path fill="#ffffff" fill-opacity="0.437" d="m256.73 32.577c-119.06 0-216.41 93.37-223.62 211.27 2.263 5.493 7.424 9.187 10.357 14.599l1.414 13.07 2.37-12.12 26.1 11.08 18.04 16.893 15.479 2.293c-5.528 12.662-16.713 33.06-14.676 47.2 1.185 8.221 9.466 19.947 14.217 26.638 6.637 9.346 19.17 14.873 22.511 26.638l0.535 19.377 3.631 14.523c-0.6 5.087-4.576 13.239-3.822 19.15 10.253 7.143 21.13 13.435 32.524 18.804 1.994-1.897 1.739-5.998-0.077-8.905l8.828-12.345 11.198-8.37 7.873-27.632 16.969-11.122c6.946-10.534 1.911-19.296 4.51-30.12l11.427-32.677c-12.92-4.898-31.435-10.909-40.55-21.785l-2.37 1.223-2.408-10.892-14.294-7.262-2.37 2.408-3.593-16.931-19.07-1.567-14.332-7.911c-6.171-0.891-14.341 9.342-16.663 14.294l-8.37-1.185 2.408-2.446-7.147-4.854 1.185 4.854c-5.142-5.397-6.03-12.205-4.777-19.377l-8.332-3.631-1.223 3.631c-1.491-5.99-0.862-13.726 3.593-18.15-6.534-4.525-10.926-0.267-15.479 4.854l-9.555-19.377c-2.627 5.941-1.669 11.867-1.185 18.15h-2.408c-0.527-6.773-2.159-14.178 1.223-20.562 6.32-11.93 25.301-16.963 36.957-14.523l-1.223 2.408 10.739 9.708c0.049-18.508 7.236-20.464 17.313-33.938l7.03-12.994c7.82-8.732 19.967-14.686 30.46-18.612l13.147-8.293c-4.256-7.479-15.442-5.339-22.625-4.854 12.917-7.462 30.479-3.419 39.33-16.931-9.652-7.131-9.652-25.736-25.03-18.15l2.37-7.262-13.11-6.077-9.555 20.256-13.11 16.05-1.185-8.446c-5.04-2.378-18.915-6.559-19.19-13.338-0.294-7.368 22.13-18.498 27.556-22.969l-2.408 6.04 9.249-0.879c1.959-1.256 20.545-27.871 22.931-11.236 12.927 4.975 14.404 10.677 27.441 2.446l-8.332-3.669c-1.315-11.954-11.728-12.07-21.479-12.08l30.995-14.523c3.451 8.594 14.269 10.353 17.772 18.268 2.488 5.624-4.888 9.01-4.701 14.408 0.231 6.653 6.6 14.787 9.593 20.562l17.925-19.874c9.897-5.357 25.827-5.944 33.709-14.599 9.125-10.02 4.104-25.966 21.1-26.03-3.448-1.473-9-2.591-11.924 0l-3.593-3.631h4.777c-2.493-3.471-4.163-5.364-8.332-6.077-0.974-1.223-2.229-2.042-3.631-2.637-3.657-0.178-7.344-0.268-11.05-0.268m104.07 35.581c-4.191 3.484-11.301 5.241-16.663 6.077l-9.746 13.606-11.351 9.593c-1.828 4.409 1.086 11.08 1.987 15.517l11.924-6.04c1.715 6.01 6.362 7.559 10.739 10.892 7.07-13.616 0.985-26.635 17.886-33.9l-10.739 13.338 3.593-2.446 1.185 7.262 1.185-9.669c3.149 10.919-0.146 25.918-11.924 30.04l-11.924-0.994v-7.262c-6.781 1.437-6.526 4.865-4.739 10.892-4.602-1.328-7.348-1.107-10.739 2.408-3.642-3.8-6.607-6.688-7.147-12.08-2.315-2.341-3.354-3.935-3.593-7.262l-8.332-1.223 3.554 19.377c-3.181-6.06-6.475-7.537-13.11-6.077l3.593 14.523 4.777-1.185-3.593-1.223 4.777-8.485 2.37 13.338 10.739-2.446c-3.01 2.916-5.409 3.624-9.555 3.631l1.223 3.631h-5.962l8.332 14.523c-19.535 0.164-19.761 10.318-19.07 26.638 3.813 0.279 5.668 0.852 8.332 3.631 15.776-8.439 19.413-24.12 38.14-29.05 3.039 9.595 12.439 9.02 9.555 20.6 9.202-1.907 11.778-9.789 5.962-16.969 7.84 4.741 10.08 14.476 15.478 21.785 3.801-5.067 2.342-10.858 8.37-14.523v3.631c10.1 9.1 17.07 11.152 29.81 15.746-4.379 6.311-9.662 12.48-17.886 11.962-10.07-0.633-22.918-10.649-29.81 1.338l-19.19-15.44c-10.641-4.556-21.1-0.248-32.07-1.491l-4.777 2.408 2.37 1.223c-21.843 9.977-33.959 36.25-36.23 58.09l-4.166 14.523c2.323 14.184 14.175 28.872 24.12 38.524 7 6.795 12.03-6.486 18.689 0.229 8.812-3.387 22.11-9.299 30.19 0.153 5.309 6.211-0.237 11.356 1.605 18 3.187 11.498 10.796 24.971 10.778 37.531l-2.981 30.23c2.612 18.436 12.684 33.959 12.841 53.28 14.618-1.529 31.06-8.993 39.17-21.785l3.478-10.778 6.04-7.491-2.293-11.886c3.412-8.314 17.222-9.223 19.3-18.307 2.83-12.367-4.562-27.01-0.153-39.9 6.8-19.868 25.735-34.418 26.26-56.907l-14.294 1.223c12.868-16.03 40.13-24.1 26.22-48.42l-5.962 7.262h-2.37c-4.604-9.807-11.915-10.83-11.924-23.01 11.161 9.752 22.707 10.06 33.365 21.785 0.973-0.535 1.783-1.211 2.446-2.026-8.147-62.56-41.822-117.04-90.16-152.53-9.09-0.905-19.831-2.204-25.53-7.605h-2.408v-0.038" id="path52"/>
 <path d="m327.47 135.69c-22.939 0.003-41.525 18.456-41.875 41.31 0.333 0.209 0.641 0.44 0.969 0.656-0.003 0.115 0.002 0.228 0 0.344 0.342 0.215 0.663 0.465 1 0.688-0.002 0.094 0.001 0.187 0 0.281 0.342 0.215 0.663 0.465 1 0.688-0.002 0.105 0.002 0.208 0 0.313 0.342 0.215 0.663 0.465 1 0.688-0.002 0.105 0.002 0.208 0 0.313 0.342 0.215 0.663 0.465 1 0.688-0.002 0.105 0.002 0.208 0 0.313 0.342 0.215 0.663 0.465 1 0.688-0.002 0.105 0.002 0.208 0 0.313 0.333 0.209 0.641 0.44 0.969 0.656-0.003 0.115 0.002 0.228 0 0.344 0.342 0.215 0.663 0.465 1 0.688-0.002 0.103 0.002 0.209 0 0.313 0.339 0.213 0.666 0.436 1 0.656-0.002 0.105 0.002 0.208 0 0.313 0.342 0.215 0.663 0.465 1 0.688-0.002 0.105 0.002 0.208 0 0.313 0.342 0.215 0.663 0.465 1 0.688-0.002 0.105 0.002 0.208 0 0.313 0.342 0.215 0.663 0.465 1 0.688-0.002 0.105 0.002 0.208 0 0.313 0.333 0.209 0.641 0.44 0.969 0.656-0.003 0.115 0.002 0.228 0 0.344 0.337 0.212 0.668 0.437 1 0.656-0.003 0.113 0.002 0.23 0 0.344 0.339 0.213 0.666 0.436 1 0.656-0.002 0.105 0.002 0.208 0 0.313 0.342 0.215 0.663 0.465 1 0.688-0.002 0.105 0.002 0.208 0 0.313 0.152 0.095 0.287 0.216 0.438 0.313 3.743 5.867 6.344 12.534 7.469 19.688-0.047-0.047-0.109-0.079-0.156-0.125-0.327-0.34-0.662-0.671-1-1-0.381-0.397-0.791-0.775-1.188-1.156-0.317-0.349-0.671-0.662-1-1-0.06-0.066-0.127-0.122-0.188-0.188-0.08-0.076-0.138-0.175-0.219-0.25-0.515-0.55-1.05-1.072-1.594-1.594-0.273-0.28-0.563-0.54-0.844-0.813-0.022-0.02-0.041-0.043-0.063-0.063-0.328-0.339-0.661-0.672-1-1-0.349-0.361-0.701-0.715-1.063-1.063-0.317-0.349-0.671-0.662-1-1-0.06-0.066-0.127-0.122-0.188-0.188-0.08-0.076-0.138-0.175-0.219-0.25-0.515-0.55-1.05-1.072-1.594-1.594-0.273-0.28-0.563-0.54-0.844-0.813-0.022-0.02-0.041-0.043-0.063-0.063-0.328-0.339-0.661-0.672-1-1-0.292-0.302-0.574-0.613-0.875-0.906-0.522-0.544-1.043-1.079-1.594-1.594-0.161-0.172-0.336-0.33-0.5-0.5-0.17-0.164-0.328-0.339-0.5-0.5-0.125-0.125-0.248-0.252-0.375-0.375-0.342-0.356-0.708-0.687-1.063-1.031-0.022-0.02-0.041-0.043-0.063-0.063-0.328-0.339-0.661-0.672-1-1-0.292-0.302-0.574-0.613-0.875-0.906-0.522-0.544-1.043-1.079-1.594-1.594-7.588-7.588-18.08-12.281-29.656-12.281-4.681 0-9.171 0.772-13.375 2.188-0.156-0.17-0.31-0.333-0.469-0.5-0.366-0.419-0.741-0.817-1.125-1.219-0.326-0.37-0.66-0.737-1-1.094-0.326-0.371-0.66-0.736-1-1.094-0.376-0.429-0.762-0.838-1.156-1.25-0.309-0.351-0.615-0.692-0.938-1.031-0.345-0.394-0.702-0.777-1.063-1.156-0.465-0.531-0.944-1.059-1.438-1.563-0.114-0.126-0.228-0.25-0.344-0.375-0.565-0.66-1.142-1.286-1.75-1.906-0.193-0.213-0.396-0.416-0.594-0.625-0.489-0.56-0.98-1.125-1.5-1.656-0.104-0.115-0.207-0.23-0.313-0.344-0.474-0.554-0.996-1.068-1.5-1.594-0.445-0.503-0.874-1.021-1.344-1.5-0.184-0.203-0.375-0.395-0.563-0.594-0.406-0.465-0.823-0.898-1.25-1.344-0.24-0.271-0.471-0.548-0.719-0.813-0.432-0.499-0.888-0.992-1.344-1.469-0.275-0.31-0.56-0.605-0.844-0.906-0.409-0.469-0.82-0.925-1.25-1.375-0.332-0.375-0.686-0.732-1.031-1.094-0.298-0.337-0.598-0.673-0.906-1-0.501-0.572-0.999-1.145-1.531-1.688-0.216-0.238-0.435-0.455-0.656-0.688-0.317-0.36-0.639-0.714-0.969-1.063-0.331-0.377-0.687-0.729-1.031-1.094-0.377-0.43-0.762-0.867-1.156-1.281-7.682-8.688-18.901-14.156-31.406-14.156-23.16 0-41.938 18.746-41.938 41.906 0 14.02 6.899 26.419 17.469 34.03 0.116 0.09 0.227 0.193 0.344 0.281 0.224 0.158 0.46 0.315 0.688 0.469 0.35 0.272 0.704 0.552 1.063 0.813 0.052 0.041 0.104 0.085 0.156 0.125 0.217 0.156 0.437 0.317 0.656 0.469 0.072 0.053 0.146 0.103 0.219 0.156 0.07 0.055 0.148 0.102 0.219 0.156 0.216 0.156 0.405 0.348 0.625 0.5 0.058 0.046 0.129 0.079 0.188 0.125 0.209 0.153 0.413 0.319 0.625 0.469 0.405 0.307 0.802 0.614 1.219 0.906 0.012 0.009 0.02 0.022 0.031 0.031 0.208 0.156 0.414 0.317 0.625 0.469 0.452 0.35 0.908 0.7 1.375 1.031 0.207 0.158 0.415 0.315 0.625 0.469 0.42 0.33 0.848 0.655 1.281 0.969 0.347 0.27 0.706 0.522 1.063 0.781 0.286 0.223 0.583 0.441 0.875 0.656 0.635 0.504 1.271 1 1.938 1.469 0.03 0.022 0.064 0.04 0.094 0.063 0.138 0.111 0.266 0.234 0.406 0.344h-7.656c-29.604 0-53.688 24.09-53.688 53.688v43.531c0.003 0.02 0.125 0.688 0.125 0.688l0.875 0.281v0.031c0.003 0.02 0.125 0.656 0.125 0.656l0.875 0.281v0.063c0.003 0.02 0.125 0.656 0.125 0.656l0.875 0.281v0.062c0.003 0.02 0.094 0.656 0.094 0.656l0.906 0.281v0.031c0.003 0.02 0.094 0.688 0.094 0.688l0.906 0.281v0.031c0.003 0.02 0.094 0.688 0.094 0.688l0.906 0.281v0.031c0.003 0.02 0.094 0.688 0.094 0.688l0.875 0.281v0.031c0.003 0.02 0.125 0.656 0.125 0.656l0.875 0.281v0.063c0.003 0.02 0.125 0.656 0.125 0.656l0.875 0.281v0.063c0.003 0.019 0.125 0.656 0.125 0.656l0.875 0.281v0.031c0.003 0.019 0.094 0.688 0.094 0.688l0.906 0.281v0.031c0.003 0.019 0.094 0.688 0.094 0.688l0.906 0.281v0.031c0.003 0.019 0.094 0.688 0.094 0.688l0.875 0.281v0.031c0.003 0.019 0.125 0.656 0.125 0.656l0.875 0.281v0.063c0.003 0.019 0.125 0.656 0.125 0.656l0.875 0.281v0.063c0.003 0.019 0.125 0.656 0.125 0.656l0.875 0.281v0.031c0.003 0.019 0.094 0.688 0.094 0.688l0.906 0.281v0.031c0.003 0.019 0.094 0.688 0.094 0.688l0.906 0.281v0.031c0.003 0.019 0.094 0.688 0.094 0.688l0.875 0.281v0.031c0.003 0.019 0.125 0.688 0.125 0.688l0.875 0.281v0.031c0.003 0.018 0.125 0.656 0.125 0.656l0.875 0.281v0.063l0.125 0.656 0.875 0.281v0.031c0.003 0.018 0.094 0.688 0.094 0.688l0.906 0.281v0.031c0.003 0.018 0.094 0.688 0.094 0.688l0.906 0.281v0.031c0.003 0.018 0.094 0.688 0.094 0.688l0.875 0.281v0.031c0.003 0.018 0.125 0.688 0.125 0.688l0.875 0.281v0.031c0.003 0.018 0.125 0.656 0.125 0.656l0.875 0.281v0.063c0.003 0.018 0.125 0.656 0.125 0.656l0.875 0.281v0.063c0.003 0.018 0.125 0.656 0.125 0.656l0.875 0.281v0.031c0.003 0.017 0.094 0.688 0.094 0.688l0.906 0.281v0.031c0.003 0.017 0.094 0.688 0.094 0.688l0.906 0.281v0.031c0.003 0.017 0.094 0.688 0.094 0.688l0.875 0.281v0.031c0.003 0.017 0.125 0.656 0.125 0.656l0.875 0.281v0.063c0.003 0.017 0.125 0.656 0.125 0.656l0.875 0.281v0.063c0.003 0.017 0.125 0.656 0.125 0.656l0.875 0.281v0.031c0.003 0.017 0.094 0.688 0.094 0.688l0.906 0.281v0.031c0.003 0.017 0.094 0.688 0.094 0.688l0.906 0.281v0.031c0.003 0.017 0.094 0.688 0.094 0.688l0.875 0.281v0.031c0.003 0.017 0.125 0.656 0.125 0.656l0.875 0.281v0.063c0.003 0.017 0.125 0.656 0.125 0.656l0.875 0.281v0.063c0.003 0.016 0.125 0.656 0.125 0.656l0.875 0.281v0.031c0.003 0.016 0.094 0.688 0.094 0.688l0.906 0.281v0.031c0.003 0.016 0.094 0.688 0.094 0.688l0.906 0.281v0.031c0.003 0.016 0.094 0.688 0.094 0.688l0.875 0.281v0.031c0.003 0.016 0.125 0.688 0.125 0.688l0.875 0.281v0.031c0.003 0.016 0.125 0.656 0.125 0.656l0.875 0.281v0.063l0.125 0.656 0.875 0.281v0.031c0.003 0.016 0.125 0.688 0.125 0.688l0.875 0.281v0.031c0.003 0.015 0.094 0.688 0.094 0.688l0.906 0.281v0.031c0.003 0.015 0.094 0.688 0.094 0.688l0.875 0.281v0.031c0.003 0.015 0.125 0.688 0.125 0.688l0.875 0.281v0.031c0.002 0.015 0.125 0.656 0.125 0.656l0.875 0.281v0.063c0.002 0.015 0.125 0.656 0.125 0.656l0.875 0.281v0.063c0.002 0.015 0.125 0.656 0.125 0.656l0.875 0.281v0.031c0.002 0.015 0.094 0.688 0.094 0.688l0.906 0.281v0.031c0.002 0.015 0.094 0.688 0.094 0.688l0.906 0.281v0.031l0.094 0.688 0.875 0.281v0.031c0.002 0.015 0.125 0.656 0.125 0.656l0.875 0.281v0.063c0.002 0.014 0.125 0.656 0.125 0.656l0.875 0.281v0.063c0.002 0.014 0.125 0.656 0.125 0.656l0.875 0.281v0.031c0.002 0.014 0.094 0.688 0.094 0.688l0.906 0.281v0.031c0.002 0.014 0.094 0.688 0.094 0.688l0.906 0.281v0.031c0.002 0.014 0.094 0.688 0.094 0.688l0.875 0.281v0.031c0.002 0.014 0.125 0.688 0.125 0.688l0.875 0.281v0.031c0.002 0.014 0.125 0.656 0.125 0.656l0.875 0.281v0.063c0.002 0.014 0.125 0.656 0.125 0.656l0.875 0.281v0.031c0.002 0.014 0.094 0.688 0.094 0.688l0.906 0.281v0.031c0.002 0.014 0.094 0.688 0.094 0.688l0.906 0.281v0.031c0.002 0.014 0.094 0.688 0.094 0.688l0.875 0.281v0.031c0.002 0.013 0.125 0.688 0.125 0.688l0.875 0.281v0.031c0.002 0.013 0.125 0.656 0.125 0.656l0.875 0.281v0.063c0.002 0.013 0.125 0.656 0.125 0.656l0.875 0.281v0.063c0.002 0.013 0.125 0.656 0.125 0.656l0.875 0.281v0.031c0.002 0.013 0.094 0.688 0.094 0.688l0.906 0.281v0.031c0.002 0.013 0.094 0.688 0.094 0.688l0.906 0.281v0.031c0.002 0.013 0.094 0.688 0.094 0.688l0.875 0.281v0.031c0.002 0.013 0.125 0.656 0.125 0.656l0.875 0.281v0.063c0.002 0.013 0.125 0.656 0.125 0.656l0.875 0.281v0.063c0.002 0.012 0.125 0.656 0.125 0.656l0.875 0.281v0.031c0.002 0.012 0.094 0.688 0.094 0.688l0.906 0.281v0.031c0.002 0.012 0.094 0.688 0.094 0.688l0.906 0.281v0.031l0.094 0.688 0.875 0.281v0.031c0.002 0.012 0.125 0.656 0.125 0.656l0.875 0.281v0.063c0.002 0.012 0.125 0.656 0.125 0.656l0.875 0.281v0.063c0.002 0.012 0.125 0.656 0.125 0.656l0.875 0.281v0.031c0.002 0.012 0.094 0.688 0.094 0.688l0.906 0.281v0.031c0.002 0.012 0.094 0.688 0.094 0.688l0.906 0.281v0.031c0.002 0.012 0.094 0.688 0.094 0.688l0.875 0.281v0.031c0.002 0.012 0.125 0.688 0.125 0.688l0.875 0.281v0.031c0.002 0.011 0.125 0.656 0.125 0.656l0.875 0.281v0.063c0.002 0.011 0.125 0.656 0.125 0.656l0.875 0.281v0.031c0.002 0.011 0.125 0.688 0.125 0.688l0.875 0.281v0.031c0.002 0.011 0.094 0.688 0.094 0.688l0.906 0.281v0.031c0.002 0.011 0.094 0.688 0.094 0.688l0.875 0.281v0.031c0.002 0.011 0.125 0.688 0.125 0.688l0.875 0.281v0.031c0.002 0.011 0.125 0.656 0.125 0.656l0.875 0.281v0.063c0.002 0.011 0.125 0.656 0.125 0.656l0.875 0.281v0.063c0.002 0.011 0.125 0.656 0.125 0.656l0.875 0.281v0.031c0.002 0.01 0.094 0.688 0.094 0.688l0.906 0.281v0.031c0.002 0.01 0.094 0.688 0.094 0.688l0.906 0.281v0.031c0.002 0.01 0.094 0.688 0.094 0.688l0.875 0.281v0.031c0.002 0.01 0.125 0.656 0.125 0.656l0.875 0.281v0.063c0.002 0.01 0.125 0.656 0.125 0.656l0.875 0.281v0.063c0.002 0.01 0.125 0.656 0.125 0.656l0.875 0.281v0.031c0.002 0.01 0.094 0.688 0.094 0.688l0.906 0.281v0.031c0.002 0.01 0.094 0.688 0.094 0.688l0.906 0.281v0.031c0.002 0.01 0.094 0.688 0.094 0.688l0.875 0.281v0.031c0.002 0.01 0.125 0.688 0.125 0.688l0.875 0.281v0.031c0.002 0.009 0.125 0.656 0.125 0.656l0.875 0.281v0.063c0.002 0.009 0.125 0.656 0.125 0.656l0.875 0.281v0.031c0.002 0.009 0.094 0.688 0.094 0.688l0.906 0.281v0.031c0.001 0.009 0.094 0.688 0.094 0.688l0.906 0.281v0.031c0.001 0.009 0.094 0.688 0.094 0.688l0.875 0.281v0.031c0.001 0.009 0.125 0.688 0.125 0.688l0.875 0.281v0.031c0.001 0.009 0.125 0.656 0.125 0.656l0.875 0.281v0.063c0.001 0.009 0.125 0.656 0.125 0.656l0.875 0.281v0.063c0.001 0.009 0.125 0.656 0.125 0.656l0.875 0.281v0.031c0.001 0.009 0.094 0.688 0.094 0.688l0.906 0.281v0.031c0.001 0.008 0.094 0.688 0.094 0.688l0.906 0.281v0.031c0.001 0.008 0.094 0.688 0.094 0.688l0.875 0.281v0.031c0.001 0.008 0.125 0.656 0.125 0.656l0.875 0.281v0.063c0.001 0.008 0.125 0.656 0.125 0.656l0.875 0.281v0.063c0.001 0.008 0.125 0.656 0.125 0.656l0.875 0.281v0.031c0.001 0.008 0.094 0.688 0.094 0.688l0.906 0.281v0.031c0.001 0.008 0.094 0.688 0.094 0.688l0.906 0.281v0.031c0.001 0.008 0.094 0.688 0.094 0.688l0.875 0.281v0.031c0.001 0.008 0.125 0.656 0.125 0.656l0.875 0.281v0.063c0.001 0.008 0.125 0.656 0.125 0.656l0.875 0.281v0.063c0.001 0.007 0.125 0.656 0.125 0.656l0.875 0.281v0.031c0.001 0.007 0.094 0.688 0.094 0.688l0.906 0.281v0.031c0.001 0.007 0.094 0.688 0.094 0.688l0.906 0.281v0.031c0.001 0.007 0.094 0.688 0.094 0.688l0.875 0.281v0.031c0.001 0.007 0.125 0.688 0.125 0.688l0.875 0.281v0.031c0.001 0.007 0.125 0.656 0.125 0.656l0.875 0.281v0.063c0.001 0.007 0.125 0.656 0.125 0.656l0.875 0.281v0.031c0.001 0.007 0.094 0.688 0.094 0.688l0.906 0.281v0.031c0.001 0.007 0.094 0.688 0.094 0.688l0.906 0.281v0.031c0.001 0.007 0.094 0.688 0.094 0.688l0.875 0.281v0.031c0.001 0.006 0.125 0.688 0.125 0.688l0.875 0.281v0.031c0.001 0.006 0.125 0.656 0.125 0.656l0.875 0.281v0.063c0.001 0.006 0.125 0.656 0.125 0.656l0.875 0.281v0.063c0.001 0.006 0.125 0.656 0.125 0.656l0.875 0.281v0.031l0.094 0.688 0.906 0.281v0.031c0.001 0.006 0.094 0.688 0.094 0.688l0.906 0.281v0.031c0.001 0.006 0.094 0.688 0.094 0.688l0.875 0.281v0.031c0.001 0.006 0.125 0.656 0.125 0.656l0.875 0.281v0.063c0.001 0.006 0.125 0.656 0.125 0.656l0.875 0.281v0.063c0.001 0.005 0.125 0.656 0.125 0.656l0.875 0.281v0.031c0.001 0.005 0.094 0.688 0.094 0.688l0.906 0.281v0.031c0.001 0.005 0.094 0.688 0.094 0.688l0.906 0.281v0.031c0.001 0.005 0.094 0.688 0.094 0.688l0.875 0.281v0.031l0.125 0.688 0.875 0.281v0.031l0.125 0.656 0.313 0.094c112.31-5.901 202.17-96.44 207-209.03-0.206-0.2-0.419-0.393-0.625-0.594-0.022-0.02-0.041-0.043-0.063-0.063-0.292-0.302-0.574-0.613-0.875-0.906-0.357-0.372-0.723-0.735-1.094-1.094-0.493-0.511-0.981-1.015-1.5-1.5l-0.188-0.188c-0.457-0.482-0.927-0.946-1.406-1.406-0.273-0.28-0.563-0.54-0.844-0.813-0.022-0.02-0.041-0.043-0.063-0.063-0.328-0.339-0.661-0.672-1-1-0.292-0.302-0.574-0.613-0.875-0.906-0.522-0.544-1.043-1.079-1.594-1.594l-0.188-0.188c-0.427-0.451-0.866-0.881-1.313-1.313-0.358-0.37-0.722-0.737-1.094-1.094-0.273-0.28-0.563-0.54-0.844-0.813-0.022-0.02-0.041-0.043-0.063-0.063-0.292-0.302-0.574-0.613-0.875-0.906-0.522-0.544-1.043-1.079-1.594-1.594-0.141-0.141-0.295-0.267-0.438-0.406-0.054-0.049-0.102-0.107-0.156-0.156-0.06-0.066-0.127-0.122-0.188-0.188-0.08-0.076-0.138-0.175-0.219-0.25l-0.188-0.188c-0.457-0.482-0.927-0.946-1.406-1.406-0.273-0.28-0.563-0.54-0.844-0.813-0.022-0.02-0.041-0.043-0.063-0.063-0.292-0.302-0.574-0.613-0.875-0.906-0.357-0.372-0.723-0.735-1.094-1.094-0.493-0.511-0.981-1.015-1.5-1.5l-0.188-0.188c-0.457-0.482-0.927-0.946-1.406-1.406-0.273-0.28-0.563-0.54-0.844-0.813-0.022-0.02-0.041-0.043-0.063-0.063-0.292-0.302-0.574-0.613-0.875-0.906-0.325-0.338-0.664-0.673-1-1-0.522-0.544-1.043-1.079-1.594-1.594l-0.188-0.188c-0.457-0.482-0.927-0.946-1.406-1.406-0.327-0.336-0.662-0.675-1-1-0.273-0.28-0.563-0.54-0.844-0.813-0.022-0.02-0.041-0.043-0.063-0.063-0.292-0.302-0.574-0.613-0.875-0.906-0.522-0.544-1.043-1.079-1.594-1.594l-0.188-0.188c-0.427-0.451-0.866-0.881-1.313-1.313-0.358-0.37-0.722-0.737-1.094-1.094-0.273-0.28-0.563-0.54-0.844-0.813-0.022-0.02-0.041-0.043-0.063-0.063-0.292-0.302-0.574-0.613-0.875-0.906-0.522-0.544-1.043-1.079-1.594-1.594-0.141-0.141-0.295-0.267-0.438-0.406-0.054-0.049-0.102-0.107-0.156-0.156-0.06-0.066-0.127-0.122-0.188-0.188-0.08-0.076-0.138-0.175-0.219-0.25l-0.188-0.188c-0.457-0.482-0.927-0.946-1.406-1.406-0.273-0.28-0.563-0.54-0.844-0.813-0.022-0.02-0.041-0.043-0.063-0.063-0.292-0.302-0.574-0.613-0.875-0.906-0.357-0.372-0.723-0.735-1.094-1.094-0.493-0.511-0.981-1.015-1.5-1.5l-0.188-0.188c-0.457-0.482-0.927-0.946-1.406-1.406-0.273-0.28-0.563-0.54-0.844-0.813-0.022-0.02-0.041-0.043-0.063-0.063-0.328-0.339-0.661-0.672-1-1-0.292-0.302-0.574-0.613-0.875-0.906-0.522-0.544-1.043-1.079-1.594-1.594l-0.188-0.188c-0.427-0.451-0.866-0.881-1.313-1.313-0.358-0.37-0.722-0.737-1.094-1.094-0.273-0.28-0.563-0.54-0.844-0.813-0.022-0.02-0.041-0.043-0.063-0.063-0.292-0.302-0.574-0.613-0.875-0.906-0.522-0.544-1.043-1.079-1.594-1.594-0.141-0.141-0.295-0.267-0.438-0.406-0.054-0.049-0.102-0.107-0.156-0.156-0.06-0.066-0.127-0.122-0.188-0.188-0.08-0.076-0.138-0.175-0.219-0.25l-0.188-0.188c-0.457-0.482-0.927-0.946-1.406-1.406-0.273-0.28-0.563-0.54-0.844-0.813-0.022-0.02-0.041-0.043-0.063-0.063-0.292-0.302-0.574-0.613-0.875-0.906-0.357-0.372-0.723-0.735-1.094-1.094-0.493-0.511-0.981-1.015-1.5-1.5l-0.188-0.188c-0.457-0.482-0.927-0.946-1.406-1.406-0.273-0.28-0.563-0.54-0.844-0.813-0.022-0.02-0.041-0.043-0.063-0.063-0.292-0.302-0.574-0.613-0.875-0.906-0.325-0.338-0.664-0.673-1-1-0.522-0.544-1.043-1.079-1.594-1.594l-0.188-0.188c-0.457-0.482-0.927-0.946-1.406-1.406-0.327-0.336-0.662-0.675-1-1-0.273-0.28-0.563-0.54-0.844-0.813-0.022-0.02-0.041-0.043-0.063-0.063-0.292-0.302-0.574-0.613-0.875-0.906-0.522-0.544-1.043-1.079-1.594-1.594l-0.188-0.188c-0.427-0.451-0.866-0.881-1.313-1.313-0.358-0.37-0.722-0.737-1.094-1.094-0.273-0.28-0.563-0.54-0.844-0.813-0.022-0.02-0.041-0.043-0.063-0.063-0.292-0.302-0.574-0.613-0.875-0.906-0.522-0.544-1.043-1.079-1.594-1.594-0.141-0.141-0.295-0.267-0.438-0.406-0.054-0.049-0.102-0.107-0.156-0.156-0.06-0.066-0.127-0.122-0.188-0.188-0.08-0.076-0.138-0.175-0.219-0.25l-0.188-0.188c-0.457-0.482-0.927-0.946-1.406-1.406-0.273-0.28-0.563-0.54-0.844-0.813-0.022-0.02-0.041-0.043-0.063-0.063-0.292-0.302-0.574-0.613-0.875-0.906-0.357-0.372-0.723-0.735-1.094-1.094-0.493-0.511-0.981-1.015-1.5-1.5l-0.188-0.188c-0.457-0.482-0.927-0.946-1.406-1.406-0.273-0.28-0.563-0.54-0.844-0.813-0.022-0.02-0.041-0.043-0.063-0.063-0.328-0.339-0.661-0.672-1-1-0.292-0.302-0.574-0.613-0.875-0.906-0.522-0.544-1.043-1.079-1.594-1.594l-0.188-0.188c-0.457-0.482-0.927-0.946-1.406-1.406-0.327-0.336-0.662-0.675-1-1-0.273-0.28-0.563-0.54-0.844-0.813-0.022-0.02-0.041-0.043-0.063-0.063-0.292-0.302-0.574-0.613-0.875-0.906-0.522-0.544-1.043-1.079-1.594-1.594-0.141-0.141-0.295-0.267-0.438-0.406-0.054-0.049-0.102-0.107-0.156-0.156-0.06-0.066-0.127-0.122-0.188-0.188-0.08-0.076-0.138-0.175-0.219-0.25l-0.188-0.188c-0.457-0.482-0.927-0.946-1.406-1.406-0.273-0.28-0.563-0.54-0.844-0.813-0.022-0.02-0.041-0.043-0.063-0.063-0.292-0.302-0.574-0.613-0.875-0.906-0.357-0.372-0.723-0.735-1.094-1.094-0.493-0.511-0.981-1.015-1.5-1.5l-0.188-0.188c-0.457-0.482-0.927-0.946-1.406-1.406-0.273-0.28-0.563-0.54-0.844-0.813-0.022-0.02-0.041-0.043-0.063-0.063-0.292-0.302-0.574-0.613-0.875-0.906-7.63-7.945-18.361-12.906-30.25-12.906" fill-opacity="0.235" id="path54"/>
 <g fill-rule="evenodd" id="g56">
  <path d="m256 1c-140.83 0-255 114.17-255 255s114.17 255 255 255 255-114.17 255-255-114.17-255-255-255m8.827 44.931c120.9 0 218.9 98 218.9 218.9s-98 218.9-218.9 218.9-218.93-98-218.93-218.9 98.03-218.9 218.93-218.9" fill-opacity="0.067" id="path58"/>
  <g fill-opacity="0.129" id="g60">
   <path d="m256 4.433c-138.94 0-251.57 112.63-251.57 251.57s112.63 251.57 251.57 251.57 251.57-112.63 251.57-251.57-112.63-251.57-251.57-251.57m5.885 38.556c120.9 0 218.9 98 218.9 218.9s-98 218.9-218.9 218.9-218.93-98-218.93-218.9 98.03-218.9 218.93-218.9" id="path62"/>
   <path d="m256 8.356c-136.77 0-247.64 110.87-247.64 247.64s110.87 247.64 247.64 247.64 247.64-110.87 247.64-247.64-110.87-247.64-247.64-247.64m2.942 31.691c120.9 0 218.9 98 218.9 218.9s-98 218.9-218.9 218.9-218.93-98-218.93-218.9 98.03-218.9 218.93-218.9" id="path64"/>
  </g>
  <path fill="#ffffff" stroke-width="4.904" stroke="#000000" stroke-opacity="0.31" d="m253.04 7.859c-135.42 0-245.19 109.78-245.19 245.19 0 135.42 109.78 245.19 245.19 245.19 135.42 0 245.19-109.78 245.19-245.19 0-135.42-109.78-245.19-245.19-245.19zm0 26.297c120.9 0 218.9 98 218.9 218.9s-98 218.9-218.9 218.9-218.93-98-218.93-218.9 98.03-218.9 218.93-218.9z" id="path66"/>
 </g>
 <text font-family="Gentium Book Basic" x="729.64" y="231.36" line-height="125%" font-size="129.23" id="text68" word-spacing="0" letter-spacing="0"><tspan x="729.64" y="231.36" id="tspan70"/>
 </text>
 <text font-family="Arial" x="378.91" y="579.25" transform="scale(4.0128 .2492)" font-size="46.954" id="text72" text-anchor="middle"/>
 <text font-family="Gentium Book Basic" x="1310.91" y="151.36" line-height="125%" font-size="129.23" id="text74" word-spacing="0" letter-spacing="0"><tspan x="1310.91" y="151.36" id="tspan76"/>
 </text>
 <text font-family="Arial" x="523.76" y="258.22" transform="scale(4.0128 .2492)" font-size="46.954" id="text78" text-anchor="middle"/>
 <text font-family="Gentium Book Basic" x="239.33" y="-29.901" line-height="125%" font-size="129.23" id="text80" word-spacing="0" letter-spacing="0"><tspan x="239.33" y="-29.901" id="tspan82"/>
 </text>
 <text font-family="Arial" x="256.72" y="-469.14" transform="scale(4.0128 .2492)" font-size="46.954" id="text84" text-anchor="middle"/>
 <text font-family="Gentium Book Basic" x="1337.38" y="-246.37" line-height="125%" font-size="129.23" id="text86" word-spacing="0" letter-spacing="0"><tspan x="1337.38" y="-246.37" id="tspan88"/>
 </text>
 <text font-family="Arial" x="530.36" y="-1337.81" transform="scale(4.0128 .2492)" font-size="46.954" id="text90" text-anchor="middle"/>
 <text font-family="Gentium Book Basic" x="1918.65" y="-326.38" line-height="125%" font-size="129.23" id="text92" word-spacing="0" letter-spacing="0"><tspan x="1918.65" y="-326.38" id="tspan94"/>
 </text>
 <text font-family="Arial" x="675.21" y="-1658.85" transform="scale(4.0128 .2492)" font-size="46.954" id="text96" text-anchor="middle"/>
 <text font-family="Gentium Book Basic" x="1529.53" y="-798.78" line-height="125%" font-size="129.23" id="text98" word-spacing="0" letter-spacing="0"><tspan x="1529.53" y="-798.78" id="tspan100"/>
 </text>
 <text font-family="Arial" x="578.24" y="-3554.51" transform="scale(4.0128 .2492)" font-size="46.954" id="text102" text-anchor="middle"/>
 <text font-family="Gentium Book Basic" x="2110.79" y="-878.78" line-height="125%" font-size="129.23" id="text104" word-spacing="0" letter-spacing="0"><tspan x="2110.79" y="-878.78" id="tspan106"/>
 </text>
 <text font-family="Arial" x="723.09" y="-3875.54" transform="scale(4.0128 .2492)" font-size="46.954" id="text108" text-anchor="middle"/>
 <text font-family="Gentium Book Basic" x="277.99" y="535.94" line-height="125%" font-size="208.33" id="text110" word-spacing="0" letter-spacing="0"><tspan x="277.99" y="535.94" id="tspan112"/>
 </text>
 <path d="m285.58 176.99c13.22 8.289 22.49 22.315 24.18 38.596 5.388 2.519 11.375 3.968 17.715 3.968 23.16 0 41.932-18.772 41.932-41.928 0-23.16-18.768-41.932-41.932-41.932-22.939 0.003-41.547 18.44-41.896 41.3m-27.471 85.85c23.16 0 41.932-18.775 41.932-41.932 0-23.16-18.775-41.928-41.932-41.928-23.16 0-41.939 18.775-41.939 41.932 0 23.16 18.782 41.928 41.939 41.928m17.783 2.858h-35.577c-29.604 0-53.689 24.09-53.689 53.689v43.516l0.111 0.682 2.997 0.938c28.25 8.824 52.797 11.771 72.999 11.771 39.459 0 62.33-11.25 63.744-11.967l2.801-1.42h0.3v-43.52c0.003-29.601-24.08-53.689-53.685-53.689m69.38-43.29h-35.31c-0.382 14.13-6.412 26.846-15.946 35.995 26.315 7.825 45.564 32.23 45.564 61.05v13.409c34.86-1.281 54.948-11.157 56.27-11.825l2.801-1.42h0.3v-43.523c0-29.601-24.08-53.685-53.685-53.685m-160.74-2.858c8.203 0 15.835-2.394 22.3-6.472 2.055-13.405 9.241-25.12 19.507-33.1 0.043-0.785 0.118-1.563 0.118-2.355 0-23.16-18.775-41.932-41.925-41.932-23.16 0-41.932 18.772-41.932 41.932 0 23.15 18.768 41.925 41.932 41.925m37.657 38.853c-9.491-9.102-15.5-21.755-15.939-35.795-1.309-0.096-2.605-0.2-3.939-0.2h-35.577c-29.604 0-53.689 24.08-53.689 53.685v43.52l0.111 0.674 2.997 0.942c22.664 7.079 42.892 10.337 60.46 11.364v-13.14c0.007-28.823 19.253-53.22 45.575-61.05" fill="#ffffff" id="path114"/>
</svg>
