<?xml version="1.0" encoding="UTF-8" standalone="no"?>
<svg xmlns="http://www.w3.org/2000/svg" xmlns:sodipodi="http://sodipodi.sourceforge.net/DTD/sodipodi-0.dtd" xmlns:inkscape="http://www.inkscape.org/namespaces/inkscape" height="512" viewBox="0 0 512 512" width="512" version="1.1">
 <metadata id="metadata80"/>
 <g transform="translate(0,-540.36)" id="g4">
  <path fill="#ababab" fill-rule="evenodd" d="m471.95 793.41c0 120.9-98.01 218.9-218.9 218.9-120.9 0-218.9-98.01-218.9-218.9 0-120.9 98.01-218.9 218.9-218.9 120.9 0 218.9 98.01 218.9 218.9" id="path6"/>
  <path transform="translate(0,540.36)" fill-opacity="0.235" d="m181.81 88.72c-6.747 0-12.188 4.67-12.188 10.469v356.28c25.714 10.61 53.862 16.5 83.41 16.5 120.9 0 218.91-98.01 218.91-218.91 0-11.171-0.823-22.15-2.438-32.875-0.062-0.002-0.125 0.002-0.188 0 0.055-0.049 0.101-0.108 0.156-0.156-0.041-0.272-0.083-0.541-0.125-0.813-0.344-0.01-0.687-0.021-1.031-0.031 0.297-0.267 0.608-0.516 0.906-0.781-0.008-0.053-0.023-0.104-0.031-0.156-0.604-0.019-1.208-0.045-1.813-0.063 0.341-0.307 0.691-0.598 1.031-0.906-0.684-0.022-1.378-0.043-2.063-0.063 0.352-0.317 0.711-0.619 1.063-0.938-0.684-0.022-1.378-0.043-2.063-0.063 0.352-0.317 0.711-0.619 1.063-0.938-0.687-0.022-1.375-0.043-2.063-0.063 0.352-0.317 0.711-0.619 1.063-0.938-0.687-0.022-1.375-0.043-2.063-0.063 0.352-0.317 0.711-0.619 1.063-0.938-0.687-0.022-1.375-0.043-2.063-0.063 0.351-0.316 0.712-0.62 1.063-0.938-0.666-0.021-1.333-0.043-2-0.063 0.341-0.307 0.691-0.598 1.031-0.906-0.684-0.022-1.378-0.043-2.063-0.063 0.352-0.317 0.711-0.619 1.063-0.938-0.684-0.022-1.378-0.043-2.063-0.063 0.352-0.317 0.711-0.619 1.063-0.938-0.684-0.022-1.377-0.043-2.063-0.063 0.352-0.317 0.711-0.619 1.063-0.938-0.687-0.022-1.375-0.043-2.063-0.063 0.352-0.317 0.711-0.619 1.063-0.938-0.687-0.022-1.375-0.043-2.063-0.063 0.351-0.316 0.712-0.62 1.063-0.938-0.687-0.022-1.375-0.043-2.063-0.063 0.352-0.317 0.711-0.619 1.063-0.938-0.666-0.021-1.333-0.043-2-0.063 0.341-0.307 0.691-0.598 1.031-0.906-0.684-0.022-1.378-0.043-2.063-0.063 0.352-0.317 0.711-0.619 1.063-0.938-0.684-0.022-1.377-0.043-2.063-0.063 0.352-0.317 0.711-0.619 1.063-0.938-0.687-0.022-1.375-0.043-2.063-0.063 0.352-0.317 0.711-0.619 1.063-0.938-0.687-0.022-1.375-0.043-2.063-0.063 0.351-0.316 0.712-0.62 1.063-0.938-0.687-0.022-1.375-0.043-2.063-0.063 0.351-0.316 0.712-0.62 1.063-0.938-0.666-0.021-1.333-0.043-2-0.063 0.341-0.307 0.691-0.598 1.031-0.906-0.684-0.022-1.378-0.043-2.063-0.063 0.352-0.317 0.711-0.619 1.063-0.938-0.684-0.022-1.378-0.043-2.063-0.063 0.352-0.317 0.711-0.619 1.063-0.938-0.687-0.022-1.375-0.043-2.063-0.063 0.352-0.317 0.711-0.619 1.063-0.938-0.687-0.022-1.375-0.043-2.063-0.063 0.351-0.316 0.712-0.62 1.063-0.938-0.687-0.022-1.375-0.043-2.063-0.063 0.351-0.316 0.712-0.62 1.063-0.938-0.666-0.021-1.333-0.043-2-0.063 0.341-0.307 0.691-0.598 1.031-0.906-0.684-0.022-1.378-0.043-2.063-0.063 0.352-0.317 0.711-0.619 1.063-0.938-0.684-0.022-1.378-0.043-2.063-0.063 0.352-0.317 0.711-0.619 1.063-0.938-0.687-0.022-1.375-0.043-2.063-0.063 0.352-0.317 0.711-0.619 1.063-0.938-0.687-0.022-1.375-0.043-2.063-0.063 0.352-0.317 0.711-0.619 1.063-0.938-0.687-0.022-1.375-0.043-2.063-0.063 0.351-0.316 0.712-0.62 1.063-0.938-0.687-0.022-1.375-0.043-2.063-0.063 0.352-0.317 0.711-0.619 1.063-0.938-0.666-0.021-1.333-0.043-2-0.063 0.341-0.307 0.691-0.598 1.031-0.906-0.684-0.022-1.378-0.043-2.063-0.063 0.352-0.317 0.711-0.619 1.063-0.938-0.684-0.022-1.377-0.043-2.063-0.063 0.352-0.317 0.711-0.619 1.063-0.938-0.687-0.022-1.375-0.043-2.063-0.063 0.352-0.317 0.711-0.619 1.063-0.938-0.687-0.022-1.375-0.043-2.063-0.063 0.351-0.316 0.712-0.62 1.063-0.938-0.687-0.022-1.375-0.043-2.063-0.063 0.352-0.317 0.711-0.619 1.063-0.938-0.666-0.021-1.333-0.043-2-0.063 0.341-0.307 0.691-0.598 1.031-0.906-0.684-0.022-1.378-0.043-2.063-0.063 0.352-0.317 0.711-0.619 1.063-0.938-0.684-0.022-1.377-0.043-2.063-0.063 0.352-0.317 0.711-0.619 1.063-0.938-0.687-0.022-1.375-0.043-2.063-0.063 0.352-0.317 0.711-0.619 1.063-0.938-0.687-0.022-1.375-0.043-2.063-0.063 0.351-0.316 0.712-0.62 1.063-0.938-0.687-0.022-1.375-0.043-2.063-0.063 0.351-0.316 0.712-0.62 1.063-0.938-0.666-0.021-1.333-0.043-2-0.063 0.341-0.307 0.691-0.598 1.031-0.906-0.684-0.022-1.378-0.043-2.063-0.063 0.352-0.317 0.711-0.619 1.063-0.938-0.684-0.022-1.378-0.043-2.063-0.063 0.352-0.317 0.711-0.619 1.063-0.938-0.687-0.022-1.375-0.043-2.063-0.063 0.352-0.317 0.711-0.619 1.063-0.938-0.687-0.022-1.375-0.043-2.063-0.063 0.352-0.317 0.711-0.619 1.063-0.938-0.687-0.022-1.375-0.043-2.063-0.063 0.351-0.316 0.712-0.62 1.063-0.938-0.666-0.021-1.333-0.043-2-0.063 0.341-0.307 0.691-0.598 1.031-0.906-0.684-0.022-1.378-0.043-2.063-0.063 0.352-0.317 0.711-0.619 1.063-0.938-0.684-0.022-1.378-0.043-2.063-0.063 0.352-0.317 0.711-0.619 1.063-0.938-0.687-0.022-1.375-0.043-2.063-0.063 0.352-0.317 0.711-0.619 1.063-0.938-54.2-1.713-111.01 2.694-161.16-8.688-0.136-0.129-0.263-0.252-0.406-0.375-0.313-0.348-0.64-0.689-1-1-0.309-0.342-0.614-0.694-0.969-1-0.318-0.353-0.664-0.685-1.031-1-0.314-0.348-0.638-0.689-1-1-0.259-0.287-0.521-0.551-0.813-0.813-0.355-0.412-0.736-0.794-1.156-1.156-0.313-0.348-0.64-0.689-1-1-0.309-0.342-0.614-0.694-0.969-1-0.318-0.353-0.664-0.685-1.031-1-0.314-0.348-0.638-0.689-1-1-0.304-0.336-0.589-0.698-0.938-1-0.315-0.351-0.668-0.655-1.031-0.969-0.313-0.348-0.64-0.689-1-1-0.309-0.342-0.614-0.694-0.969-1-0.318-0.353-0.664-0.685-1.031-1-0.314-0.348-0.638-0.689-1-1-0.304-0.336-0.589-0.698-0.938-1-0.315-0.351-0.668-0.655-1.031-0.969-0.249-0.277-0.501-0.559-0.781-0.813-0.363-0.425-0.787-0.815-1.219-1.188-0.309-0.342-0.614-0.694-0.969-1-0.318-0.353-0.664-0.685-1.031-1-0.314-0.348-0.638-0.689-1-1-0.259-0.287-0.521-0.551-0.813-0.813-0.355-0.412-0.736-0.794-1.156-1.156-0.313-0.348-0.64-0.689-1-1-0.309-0.342-0.614-0.694-0.969-1-0.318-0.353-0.664-0.685-1.031-1-0.314-0.348-0.638-0.689-1-1-0.259-0.287-0.521-0.551-0.813-0.813-0.355-0.412-0.736-0.794-1.156-1.156-0.313-0.348-0.64-0.689-1-1-0.309-0.342-0.614-0.694-0.969-1-0.318-0.353-0.664-0.685-1.031-1-0.314-0.348-0.638-0.689-1-1-0.304-0.336-0.589-0.698-0.938-1-0.315-0.351-0.668-0.655-1.031-0.969-0.249-0.277-0.501-0.559-0.781-0.813-0.363-0.425-0.787-0.815-1.219-1.188-0.314-0.348-0.638-0.689-1-1-0.314-0.348-0.638-0.689-1-1-0.304-0.336-0.589-0.698-0.938-1-0.315-0.351-0.668-0.655-1.031-0.969-0.313-0.348-0.64-0.689-1-1-0.313-0.348-0.64-0.689-1-1-0.309-0.342-0.614-0.694-0.969-1-0.318-0.353-0.664-0.685-1.031-1-0.314-0.348-0.638-0.689-1-1-0.259-0.287-0.521-0.551-0.813-0.813-0.355-0.412-0.736-0.794-1.156-1.156-0.313-0.348-0.64-0.689-1-1-0.309-0.342-0.614-0.694-0.969-1-0.318-0.353-0.664-0.685-1.031-1-0.314-0.348-0.638-0.689-1-1-0.304-0.336-0.589-0.698-0.938-1-0.315-0.351-0.668-0.655-1.031-0.969-0.313-0.348-0.64-0.689-1-1-0.309-0.342-0.614-0.694-0.969-1-0.318-0.353-0.664-0.685-1.031-1-0.314-0.348-0.638-0.689-1-1-0.304-0.336-0.589-0.698-0.938-1-0.315-0.351-0.668-0.655-1.031-0.969-0.249-0.277-0.501-0.559-0.781-0.813-2.207-2.585-5.775-4.25-9.813-4.25" id="path8"/>
  <g fill="#ffffff" id="g10">
   <path d="m199.99 683.31c48.906 57.674 141.12 54.49 217.14 75.952-79.61 42.692-158.81 57.5-244.87 50.46z" fill-opacity="0.561" id="path12"/>
   <path d="m190.84 668.63c61.37 44.18 145.88 33.767 224.83 36.26-66.959 60.63-144.14 94.4-229.36 108.33z" id="path14"/>
   <rect x="169.62" y="629.08" width="24.359" height="386.08" ry="10.466" rx="12.18" fill-rule="evenodd" id="rect16"/>
  </g>
  <g fill-rule="evenodd" id="g18">
   <path d="m256 541.36c-140.83 0-255 114.17-255 255s114.17 255 255 255 255-114.17 255-255-114.17-255-255-255m8.827 44.931c120.9 0 218.9 98 218.9 218.9s-98 218.9-218.9 218.9-218.93-98-218.93-218.9 98.03-218.9 218.93-218.9" fill-opacity="0.067" id="path20"/>
   <g fill-opacity="0.129" id="g22">
    <path d="m256 544.79c-138.94 0-251.57 112.63-251.57 251.57s112.63 251.54 251.57 251.54 251.57-112.6 251.57-251.54-112.63-251.57-251.57-251.57m5.885 38.556c120.9 0 218.9 98 218.9 218.9s-98 218.9-218.9 218.9-218.93-98-218.93-218.9 98.03-218.9 218.93-218.9" id="path24"/>
    <path d="m256 548.72c-136.77 0-247.64 110.87-247.64 247.64s110.87 247.64 247.64 247.64 247.64-110.87 247.64-247.64-110.87-247.64-247.64-247.64m2.942 31.691c120.9 0 218.9 98 218.9 218.9s-98 218.9-218.9 218.9-218.93-98-218.93-218.9 98.03-218.9 218.93-218.9" id="path26"/>
   </g>
   <path fill="#ffffff" stroke-width="4.904" stroke="#000000" stroke-opacity="0.31" d="m253.04 548.22c-135.42 0-245.19 109.78-245.19 245.19 0 135.42 109.78 245.19 245.19 245.19 135.42 0 245.19-109.78 245.19-245.19 0-135.42-109.78-245.19-245.19-245.19zm0 26.297c120.9 0 218.9 98 218.9 218.9s-98 218.9-218.9 218.9-218.93-98-218.93-218.9 98.03-218.9 218.93-218.9z" id="path28"/>
  </g>
  <text font-family="Gentium Book Basic" x="729.64" y="771.72" line-height="125%" font-size="129.23" id="text30" word-spacing="0" letter-spacing="0"><tspan x="729.64" y="771.72" id="tspan32"/>
  </text>
  <text font-family="Arial" x="378.91" y="2747.64" transform="scale(4.0128 .2492)" font-size="46.954" id="text34" text-anchor="middle"/>
  <text font-family="Gentium Book Basic" x="1310.91" y="691.72" line-height="125%" font-size="129.23" id="text36" word-spacing="0" letter-spacing="0"><tspan x="1310.91" y="691.72" id="tspan38"/>
  </text>
  <text font-family="Arial" x="523.76" y="2426.6" transform="scale(4.0128 .2492)" font-size="46.954" id="text40" text-anchor="middle"/>
  <text font-family="Gentium Book Basic" x="239.33" y="510.46" line-height="125%" font-size="129.23" id="text42" word-spacing="0" letter-spacing="0"><tspan x="239.33" y="510.46" id="tspan44"/>
  </text>
  <text font-family="Arial" x="256.72" y="1699.25" transform="scale(4.0128 .2492)" font-size="46.954" id="text46" text-anchor="middle"/>
  <text font-family="Gentium Book Basic" x="1337.38" y="293.99" line-height="125%" font-size="129.23" id="text48" word-spacing="0" letter-spacing="0"><tspan x="1337.38" y="293.99" id="tspan50"/>
  </text>
  <text font-family="Arial" x="530.36" y="830.57" transform="scale(4.0128 .2492)" font-size="46.954" id="text52" text-anchor="middle"/>
  <text font-family="Gentium Book Basic" x="1918.65" y="213.99" line-height="125%" font-size="129.23" id="text54" word-spacing="0" letter-spacing="0"><tspan x="1918.65" y="213.99" id="tspan56"/>
  </text>
  <text font-family="Arial" x="675.21" y="509.54" transform="scale(4.0128 .2492)" font-size="46.954" id="text58" text-anchor="middle"/>
  <text font-family="Gentium Book Basic" x="1529.53" y="-258.41" line-height="125%" font-size="129.23" id="text60" word-spacing="0" letter-spacing="0"><tspan x="1529.53" y="-258.41" id="tspan62"/>
  </text>
  <text font-family="Arial" x="578.24" y="-1386.12" transform="scale(4.0128 .2492)" font-size="46.954" id="text64" text-anchor="middle"/>
  <text font-family="Gentium Book Basic" x="2110.79" y="-338.42" line-height="125%" font-size="129.23" id="text66" word-spacing="0" letter-spacing="0"><tspan x="2110.79" y="-338.42" id="tspan68"/>
  </text>
  <text font-family="Arial" x="723.09" y="-1707.16" transform="scale(4.0128 .2492)" font-size="46.954" id="text70" text-anchor="middle"/>
  <text font-family="Gentium Book Basic" x="277.99" y="1076.3" line-height="125%" font-size="208.33" id="text72" word-spacing="0" letter-spacing="0"><tspan x="277.99" y="1076.3" id="tspan74"/>
  </text>
 </g>
</svg>
