<?xml version="1.0" encoding="UTF-8" standalone="no"?>
<svg xmlns="http://www.w3.org/2000/svg" xmlns:sodipodi="http://sodipodi.sourceforge.net/DTD/sodipodi-0.dtd" xmlns:inkscape="http://www.inkscape.org/namespaces/inkscape" viewBox="0 0 512 512" version="1.1" width="512" height="512">
 <metadata id="metadata714"/>
 <g id="g4" line-height="125%" word-spacing="0" letter-spacing="0">
  <g id="g6" font-family="&apos;Gentium Book Basic&apos;" font-size="0">
   <text id="text8" x="-1672.58" y="383.17"><tspan id="tspan10" x="-1672.58" y="383.17"/>
   </text>
   <text id="text12" x="1476.07" y="80.12"><tspan id="tspan14" x="1476.07" y="80.12"/>
   </text>
  </g>
  <text id="text16" font-family="Gentium Book Basic" font-size="129.23" x="729.64" y="231.36"><tspan id="tspan18" x="729.64" y="231.36"/>
  </text>
 </g>
 <text id="text20" font-family="Arial" x="378.91" y="579.25" font-size="46.954" transform="scale(4.0128.2492)" text-anchor="middle"/>
 <text id="text22" line-height="125%" font-family="Gentium Book Basic" x="1310.91" y="151.36" font-size="129.23" word-spacing="0" letter-spacing="0"><tspan id="tspan24" x="1310.91" y="151.36"/>
 </text>
 <text id="text26" font-family="Arial" x="523.76" y="258.22" font-size="46.954" transform="scale(4.0128.2492)" text-anchor="middle"/>
 <text id="text28" line-height="125%" font-family="Gentium Book Basic" x="239.33" y="-29.901" font-size="129.23" word-spacing="0" letter-spacing="0"><tspan id="tspan30" x="239.33" y="-29.901"/>
 </text>
 <text id="text32" font-family="Arial" x="256.72" y="-469.14" font-size="46.954" transform="scale(4.0128.2492)" text-anchor="middle"/>
 <text id="text34" line-height="125%" font-family="Gentium Book Basic" x="1337.38" y="-246.37" font-size="129.23" word-spacing="0" letter-spacing="0"><tspan id="tspan36" x="1337.38" y="-246.37"/>
 </text>
 <text id="text38" font-family="Arial" x="530.36" y="-1337.81" font-size="46.954" transform="scale(4.0128.2492)" text-anchor="middle"/>
 <text id="text40" line-height="125%" font-family="Gentium Book Basic" x="1918.65" y="-326.38" font-size="129.23" word-spacing="0" letter-spacing="0"><tspan id="tspan42" x="1918.65" y="-326.38"/>
 </text>
 <text id="text44" font-family="Arial" x="675.21" y="-1658.85" font-size="46.954" transform="scale(4.0128.2492)" text-anchor="middle"/>
 <text id="text46" line-height="125%" font-family="Gentium Book Basic" x="1529.53" y="-798.78" font-size="129.23" word-spacing="0" letter-spacing="0"><tspan id="tspan48" x="1529.53" y="-798.78"/>
 </text>
 <text id="text50" font-family="Arial" x="578.24" y="-3554.51" font-size="46.954" transform="scale(4.0128.2492)" text-anchor="middle"/>
 <text id="text52" line-height="125%" font-family="Gentium Book Basic" x="2110.79" y="-878.78" font-size="129.23" word-spacing="0" letter-spacing="0"><tspan id="tspan54" x="2110.79" y="-878.78"/>
 </text>
 <text id="text56" font-family="Arial" x="723.09" y="-3875.54" font-size="46.954" transform="scale(4.0128.2492)" text-anchor="middle"/>
 <text id="text58" line-height="125%" font-family="Gentium Book Basic" x="286.53" y="553.99" font-size="148.94" word-spacing="0" letter-spacing="0"><tspan id="tspan60" x="286.53" y="553.99"/>
 </text>
 <g id="g62" fill-rule="evenodd">
  <path id="path64" fill="#8e8e8e" d="m471.95 253.05c0 120.9-98.01 218.9-218.9 218.9-120.9 0-218.9-98.01-218.9-218.9 0-120.9 98.01-218.9 218.9-218.9 120.9 0 218.9 98.01 218.9 218.9"/>
  <path id="path66" fill-opacity="0.067" d="m256 1c-140.83 0-255 114.17-255 255s114.17 255 255 255 255-114.17 255-255-114.17-255-255-255m8.827 44.931c120.9 0 218.9 98 218.9 218.9s-98 218.9-218.9 218.9-218.93-98-218.93-218.9 98.03-218.9 218.93-218.9"/>
  <g id="g68" fill-opacity="0.129">
   <path id="path70" d="m256 4.433c-138.94 0-251.57 112.63-251.57 251.57s112.63 251.57 251.57 251.57 251.57-112.63 251.57-251.57-112.63-251.57-251.57-251.57m5.885 38.556c120.9 0 218.9 98 218.9 218.9s-98 218.9-218.9 218.9-218.93-98-218.93-218.9 98.03-218.9 218.93-218.9"/>
   <path id="path72" d="m256 8.356c-136.77 0-247.64 110.87-247.64 247.64s110.87 247.64 247.64 247.64 247.64-110.87 247.64-247.64-110.87-247.64-247.64-247.64m2.942 31.691c120.9 0 218.9 98 218.9 218.9s-98 218.9-218.9 218.9-218.93-98-218.93-218.9 98.03-218.9 218.93-218.9"/>
  </g>
  <path id="path74" fill="#ffffff" stroke-opacity="0.31" d="m253.04 7.859c-135.42 0-245.19 109.78-245.19 245.19 0 135.42 109.78 245.19 245.19 245.19 135.42 0 245.19-109.78 245.19-245.19 0-135.42-109.78-245.19-245.19-245.19zm0 26.297c120.9 0 218.9 98 218.9 218.9s-98 218.9-218.9 218.9-218.93-98-218.93-218.9 98.03-218.9 218.93-218.9z" stroke-width="4.904" stroke="#000000"/>
 </g>
 <text id="text76" line-height="125%" font-family="&apos;Gentium Book Basic&apos;" x="729.64" y="231.36" font-size="129.23" word-spacing="0" letter-spacing="0"><tspan id="tspan78" x="729.64" y="231.36"/>
 </text>
 <text id="text80" font-family="Arial" x="378.91" y="579.25" font-size="46.954" transform="scale(4.0128.2492)" text-anchor="middle"/>
 <text id="text82" line-height="125%" font-family="&apos;Gentium Book Basic&apos;" x="1310.91" y="151.36" font-size="129.23" word-spacing="0" letter-spacing="0"><tspan id="tspan84" x="1310.91" y="151.36"/>
 </text>
 <text id="text86" font-family="Arial" x="523.76" y="258.22" font-size="46.954" transform="scale(4.0128.2492)" text-anchor="middle"/>
 <text id="text88" line-height="125%" font-family="&apos;Gentium Book Basic&apos;" x="239.33" y="-29.901" font-size="129.23" word-spacing="0" letter-spacing="0"><tspan id="tspan90" x="239.33" y="-29.901"/>
 </text>
 <text id="text92" font-family="Arial" x="256.72" y="-469.14" font-size="46.954" transform="scale(4.0128.2492)" text-anchor="middle"/>
 <text id="text94" line-height="125%" font-family="&apos;Gentium Book Basic&apos;" x="1337.38" y="-246.37" font-size="129.23" word-spacing="0" letter-spacing="0"><tspan id="tspan96" x="1337.38" y="-246.37"/>
 </text>
 <text id="text98" font-family="Arial" x="530.36" y="-1337.8" font-size="46.954" transform="scale(4.0128.2492)" text-anchor="middle"/>
 <text id="text100" line-height="125%" font-family="&apos;Gentium Book Basic&apos;" x="1918.65" y="-326.38" font-size="129.23" word-spacing="0" letter-spacing="0"><tspan id="tspan102" x="1918.65" y="-326.38"/>
 </text>
 <text id="text104" font-family="Arial" x="675.21" y="-1658.84" font-size="46.954" transform="scale(4.0128.2492)" text-anchor="middle"/>
 <text id="text106" line-height="125%" font-family="&apos;Gentium Book Basic&apos;" x="1529.53" y="-798.78" font-size="129.23" word-spacing="0" letter-spacing="0"><tspan id="tspan108" x="1529.53" y="-798.78"/>
 </text>
 <text id="text110" font-family="Arial" x="578.24" y="-3554.49" font-size="46.954" transform="scale(4.0128.2492)" text-anchor="middle"/>
 <text id="text112" line-height="125%" font-family="&apos;Gentium Book Basic&apos;" x="2110.79" y="-878.78" font-size="129.23" word-spacing="0" letter-spacing="0"><tspan id="tspan114" x="2110.79" y="-878.78"/>
 </text>
 <text id="text116" font-family="Arial" x="723.09" y="-3875.52" font-size="46.954" transform="scale(4.0128.2492)" text-anchor="middle"/>
 <g id="g118" font-size="208.33" line-height="125%" font-family="&apos;Gentium Book Basic&apos;" word-spacing="0" letter-spacing="0">
  <text id="text120" x="277.99" y="535.94"><tspan id="tspan122" x="277.99" y="535.94"/>
  </text>
  <text id="text124" x="-860.84" y="11.553"><tspan id="tspan126" x="-860.84" y="11.553"/>
  </text>
  <text id="text128" x="-3219.67" y="289.67"><tspan id="tspan130" x="-3219.67" y="289.67"/>
  </text>
  <text id="text132" x="-2931.46" y="62.38"><tspan id="tspan134" x="-2931.46" y="62.38"/>
  </text>
  <text id="text136" x="1263.14" y="-194.52"><tspan id="tspan138" x="1263.14" y="-194.52"/>
  </text>
  <text id="text140" x="-864.79" y="-49.48"><tspan id="tspan142" x="-864.79" y="-49.48"/>
  </text>
  <text id="text144" x="-3223.62" y="228.64"><tspan id="tspan146" x="-3223.62" y="228.64"/>
  </text>
  <text id="text148" x="-2935.41" y="1.35"><tspan id="tspan150" x="-2935.41" y="1.35"/>
  </text>
 </g>
 <g id="g152" line-height="125%" font-family="&apos;Gentium Book Basic&apos;" word-spacing="0" letter-spacing="0">
  <g id="g154" fill="#ffffff">
   <g id="g156" font-size="179.16">
    <text id="text158" x="409.62" y="86.66"><tspan id="tspan160" x="409.62" y="86.66"/>
    </text>
    <text id="text162" x="-1618.98" y="325.85"><tspan id="tspan164" x="-1618.98" y="325.85"/>
    </text>
    <text id="text166" x="-1371.12" y="130.39"><tspan id="tspan168" x="-1371.12" y="130.39"/>
    </text>
    <text id="text170" x="2236.24" y="-90.55"><tspan id="tspan172" x="2236.24" y="-90.55"/>
    </text>
    <text id="text174" x="406.22" y="34.18"><tspan id="tspan176" x="406.22" y="34.18"/>
    </text>
    <text id="text178" x="-1622.37" y="273.36"><tspan id="tspan180" x="-1622.37" y="273.36"/>
    </text>
    <text id="text182" x="-1374.5" y="77.893"><tspan id="tspan184" x="-1374.5" y="77.893"/>
    </text>
   </g>
   <g id="g186" font-size="185.33">
    <text id="text188" x="393.51" y="80.84"><tspan id="tspan190" x="393.51" y="80.84"/>
    </text>
    <text id="text192" x="-1704.91" y="328.26"><tspan id="tspan194" x="-1704.91" y="328.26"/>
    </text>
    <text id="text196" x="-1448.51" y="126.07"><tspan id="tspan198" x="-1448.51" y="126.07"/>
    </text>
    <text id="text200" x="2283.01" y="-102.47"><tspan id="tspan202" x="2283.01" y="-102.47"/>
    </text>
    <text id="text204" x="390" y="26.549"><tspan id="tspan206" x="390" y="26.549"/>
    </text>
    <text id="text208" x="-1708.42" y="273.96"><tspan id="tspan210" x="-1708.42" y="273.96"/>
    </text>
    <text id="text212" x="-1452.02" y="71.77"><tspan id="tspan214" x="-1452.02" y="71.77"/>
    </text>
   </g>
   <g id="g216" font-size="179.16">
    <text id="text218" opacity="0.408" x="409.62" y="86.66"><tspan id="tspan220" x="409.62" y="86.66"/>
    </text>
    <text id="text222" opacity="0.408" x="-1618.98" y="325.85"><tspan id="tspan224" x="-1618.98" y="325.85"/>
    </text>
    <text id="text226" opacity="0.408" x="-1371.12" y="130.39"><tspan id="tspan228" x="-1371.12" y="130.39"/>
    </text>
    <text id="text230" opacity="0.408" x="2236.24" y="-90.55"><tspan id="tspan232" x="2236.24" y="-90.55"/>
    </text>
    <text id="text234" opacity="0.408" x="406.22" y="34.18"><tspan id="tspan236" x="406.22" y="34.18"/>
    </text>
    <text id="text238" opacity="0.408" x="-1622.37" y="273.36"><tspan id="tspan240" x="-1622.37" y="273.36"/>
    </text>
    <text id="text242" opacity="0.408" x="-1374.5" y="77.893"><tspan id="tspan244" x="-1374.5" y="77.893"/>
    </text>
   </g>
   <g id="g246" font-size="185.33">
    <text id="text248" opacity="0.408" x="393.51" y="80.84"><tspan id="tspan250" x="393.51" y="80.84"/>
    </text>
    <text id="text252" opacity="0.408" x="-1704.91" y="328.26"><tspan id="tspan254" x="-1704.91" y="328.26"/>
    </text>
    <text id="text256" opacity="0.408" x="-1448.51" y="126.07"><tspan id="tspan258" x="-1448.51" y="126.07"/>
    </text>
    <text id="text260" opacity="0.408" x="2283.01" y="-102.47"><tspan id="tspan262" x="2283.01" y="-102.47"/>
    </text>
    <text id="text264" opacity="0.408" x="390" y="26.549"><tspan id="tspan266" x="390" y="26.549"/>
    </text>
    <text id="text268" opacity="0.408" x="-1708.42" y="273.96"><tspan id="tspan270" x="-1708.42" y="273.96"/>
    </text>
    <text id="text272" opacity="0.408" x="-1452.02" y="71.77"><tspan id="tspan274" x="-1452.02" y="71.77"/>
    </text>
   </g>
  </g>
  <text id="text276" font-size="129.23" x="1990.11" y="185.8"><tspan id="tspan278" x="1990.11" y="185.8"/>
  </text>
 </g>
 <text id="text280" font-family="Arial" x="693.02" y="396.43" font-size="46.954" transform="scale(4.0128.2492)" text-anchor="middle"/>
 <text id="text282" line-height="125%" font-family="&apos;Gentium Book Basic&apos;" x="2571.38" y="105.8" font-size="129.23" word-spacing="0" letter-spacing="0"><tspan id="tspan284" x="2571.38" y="105.8"/>
 </text>
 <text id="text286" font-family="Arial" x="837.87" y="75.4" font-size="46.954" transform="scale(4.0128.2492)" text-anchor="middle"/>
 <text id="text288" line-height="125%" font-family="&apos;Gentium Book Basic&apos;" x="1499.8" y="-75.46" font-size="129.23" word-spacing="0" letter-spacing="0"><tspan id="tspan290" x="1499.8" y="-75.46"/>
 </text>
 <text id="text292" font-family="Arial" x="570.83" y="-651.96" font-size="46.954" transform="scale(4.0128.2492)" text-anchor="middle"/>
 <text id="text294" line-height="125%" font-family="&apos;Gentium Book Basic&apos;" x="2597.85" y="-291.93" font-size="129.23" word-spacing="0" letter-spacing="0"><tspan id="tspan296" x="2597.85" y="-291.93"/>
 </text>
 <text id="text298" font-family="Arial" x="844.47" y="-1520.62" font-size="46.954" transform="scale(4.0128.2492)" text-anchor="middle"/>
 <text id="text300" line-height="125%" font-family="&apos;Gentium Book Basic&apos;" x="3179.12" y="-371.94" font-size="129.23" word-spacing="0" letter-spacing="0"><tspan id="tspan302" x="3179.12" y="-371.94"/>
 </text>
 <text id="text304" font-family="Arial" x="989.32" y="-1841.66" font-size="46.954" transform="scale(4.0128.2492)" text-anchor="middle"/>
 <text id="text306" line-height="125%" font-family="&apos;Gentium Book Basic&apos;" x="2790" y="-844.34" font-size="129.23" word-spacing="0" letter-spacing="0"><tspan id="tspan308" x="2790" y="-844.34"/>
 </text>
 <text id="text310" font-family="Arial" x="892.35" y="-3737.31" font-size="46.954" transform="scale(4.0128.2492)" text-anchor="middle"/>
 <text id="text312" line-height="125%" font-family="&apos;Gentium Book Basic&apos;" x="3371.26" y="-924.34" font-size="129.23" word-spacing="0" letter-spacing="0"><tspan id="tspan314" x="3371.26" y="-924.34"/>
 </text>
 <text id="text316" font-family="Arial" x="1037.2" y="-4058.34" font-size="46.954" transform="scale(4.0128.2492)" text-anchor="middle"/>
 <g id="g318" line-height="125%" font-family="&apos;Gentium Book Basic&apos;" word-spacing="0" letter-spacing="0">
  <text id="text320" font-size="208.33" x="1538.46" y="490.38"><tspan id="tspan322" x="1538.46" y="490.38"/>
  </text>
  <text id="text324" font-size="129.23" x="2168.01" y="250.57"><tspan id="tspan326" x="2168.01" y="250.57"/>
  </text>
 </g>
 <text id="text328" font-family="Arial" x="737.35" y="656.34" font-size="46.954" transform="scale(4.0128.2492)" text-anchor="middle"/>
 <text id="text330" line-height="125%" font-family="&apos;Gentium Book Basic&apos;" x="2749.28" y="170.57" font-size="129.23" word-spacing="0" letter-spacing="0"><tspan id="tspan332" x="2749.28" y="170.57"/>
 </text>
 <text id="text334" font-family="Arial" x="882.2" y="335.3" font-size="46.954" transform="scale(4.0128.2492)" text-anchor="middle"/>
 <text id="text336" line-height="125%" font-family="&apos;Gentium Book Basic&apos;" x="1677.7" y="-10.691" font-size="129.23" word-spacing="0" letter-spacing="0"><tspan id="tspan338" x="1677.7" y="-10.691"/>
 </text>
 <text id="text340" font-family="Arial" x="615.16" y="-392.05" font-size="46.954" transform="scale(4.0128.2492)" text-anchor="middle"/>
 <text id="text342" line-height="125%" font-family="&apos;Gentium Book Basic&apos;" x="2775.75" y="-227.16" font-size="129.23" word-spacing="0" letter-spacing="0"><tspan id="tspan344" x="2775.75" y="-227.16"/>
 </text>
 <text id="text346" font-family="Arial" x="888.8" y="-1260.71" font-size="46.954" transform="scale(4.0128.2492)" text-anchor="middle"/>
 <text id="text348" line-height="125%" font-family="&apos;Gentium Book Basic&apos;" x="3357.02" y="-307.16" font-size="129.23" word-spacing="0" letter-spacing="0"><tspan id="tspan350" x="3357.02" y="-307.16"/>
 </text>
 <text id="text352" font-family="Arial" x="1033.65" y="-1581.74" font-size="46.954" transform="scale(4.0128.2492)" text-anchor="middle"/>
 <text id="text354" line-height="125%" font-family="&apos;Gentium Book Basic&apos;" x="2967.9" y="-779.56" font-size="129.23" word-spacing="0" letter-spacing="0"><tspan id="tspan356" x="2967.9" y="-779.56"/>
 </text>
 <text id="text358" font-family="Arial" x="936.68" y="-3477.38" font-size="46.954" transform="scale(4.0128.2492)" text-anchor="middle"/>
 <text id="text360" line-height="125%" font-family="&apos;Gentium Book Basic&apos;" x="3549.16" y="-859.57" font-size="129.23" word-spacing="0" letter-spacing="0"><tspan id="tspan362" x="3549.16" y="-859.57"/>
 </text>
 <text id="text364" font-family="Arial" x="1081.53" y="-3798.42" font-size="46.954" transform="scale(4.0128.2492)" text-anchor="middle"/>
 <g id="g366" line-height="125%" font-family="&apos;Gentium Book Basic&apos;" word-spacing="0" letter-spacing="0">
  <text id="text368" font-size="208.33" x="1716.36" y="555.15"><tspan id="tspan370" x="1716.36" y="555.15"/>
  </text>
  <text id="text372" font-size="129.23" x="1990.11" y="186.78"><tspan id="tspan374" x="1990.11" y="186.78"/>
  </text>
 </g>
 <text id="text376" font-family="Arial" x="693.02" y="400.37" font-size="46.954" transform="scale(4.0128.2492)" text-anchor="middle"/>
 <text id="text378" line-height="125%" font-family="&apos;Gentium Book Basic&apos;" x="2571.38" y="106.78" font-size="129.23" word-spacing="0" letter-spacing="0"><tspan id="tspan380" x="2571.38" y="106.78"/>
 </text>
 <text id="text382" font-family="Arial" x="837.87" y="79.33" font-size="46.954" transform="scale(4.0128.2492)" text-anchor="middle"/>
 <text id="text384" line-height="125%" font-family="&apos;Gentium Book Basic&apos;" x="1499.8" y="-74.48" font-size="129.23" word-spacing="0" letter-spacing="0"><tspan id="tspan386" x="1499.8" y="-74.48"/>
 </text>
 <text id="text388" font-family="Arial" x="570.83" y="-648.02" font-size="46.954" transform="scale(4.0128.2492)" text-anchor="middle"/>
 <text id="text390" line-height="125%" font-family="&apos;Gentium Book Basic&apos;" x="2597.85" y="-290.95" font-size="129.23" word-spacing="0" letter-spacing="0"><tspan id="tspan392" x="2597.85" y="-290.95"/>
 </text>
 <text id="text394" font-family="Arial" x="844.47" y="-1516.68" font-size="46.954" transform="scale(4.0128.2492)" text-anchor="middle"/>
 <text id="text396" line-height="125%" font-family="&apos;Gentium Book Basic&apos;" x="3179.12" y="-370.95" font-size="129.23" word-spacing="0" letter-spacing="0"><tspan id="tspan398" x="3179.12" y="-370.95"/>
 </text>
 <text id="text400" font-family="Arial" x="989.32" y="-1837.71" font-size="46.954" transform="scale(4.0128.2492)" text-anchor="middle"/>
 <text id="text402" line-height="125%" font-family="&apos;Gentium Book Basic&apos;" x="2790" y="-843.35" font-size="129.23" word-spacing="0" letter-spacing="0"><tspan id="tspan404" x="2790" y="-843.35"/>
 </text>
 <text id="text406" font-family="Arial" x="892.35" y="-3733.35" font-size="46.954" transform="scale(4.0128.2492)" text-anchor="middle"/>
 <text id="text408" line-height="125%" font-family="&apos;Gentium Book Basic&apos;" x="3371.26" y="-923.36" font-size="129.23" word-spacing="0" letter-spacing="0"><tspan id="tspan410" x="3371.26" y="-923.36"/>
 </text>
 <text id="text412" font-family="Arial" x="1037.2" y="-4054.39" font-size="46.954" transform="scale(4.0128.2492)" text-anchor="middle"/>
 <g id="g414" line-height="125%" font-family="&apos;Gentium Book Basic&apos;" word-spacing="0" letter-spacing="0">
  <text id="text416" font-size="208.33" x="1538.46" y="491.36"><tspan id="tspan418" x="1538.46" y="491.36"/>
  </text>
  <text id="text420" font-size="129.23" x="701.44" y="192.02"><tspan id="tspan422" x="701.44" y="192.02"/>
  </text>
 </g>
 <text id="text424" font-family="Arial" x="371.88" y="421.4" font-size="46.954" transform="scale(4.0128.2492)" text-anchor="middle"/>
 <text id="text426" line-height="125%" font-family="&apos;Gentium Book Basic&apos;" x="1282.71" y="112.02" font-size="129.23" word-spacing="0" letter-spacing="0"><tspan id="tspan428" x="1282.71" y="112.02"/>
 </text>
 <text id="text430" font-family="Arial" x="516.73" y="100.36" font-size="46.954" transform="scale(4.0128.2492)" text-anchor="middle"/>
 <text id="text432" line-height="125%" font-family="&apos;Gentium Book Basic&apos;" x="211.13" y="-69.24" font-size="129.23" word-spacing="0" letter-spacing="0"><tspan id="tspan434" x="211.13" y="-69.24"/>
 </text>
 <text id="text436" font-family="Arial" x="249.69" y="-626.99" font-size="46.954" transform="scale(4.0128.2492)" text-anchor="middle"/>
 <text id="text438" line-height="125%" font-family="&apos;Gentium Book Basic&apos;" x="1309.18" y="-285.71" font-size="129.23" word-spacing="0" letter-spacing="0"><tspan id="tspan440" x="1309.18" y="-285.71"/>
 </text>
 <text id="text442" font-family="Arial" x="523.33" y="-1495.65" font-size="46.954" transform="scale(4.0128.2492)" text-anchor="middle"/>
 <text id="text444" line-height="125%" font-family="&apos;Gentium Book Basic&apos;" x="1890.45" y="-365.71" font-size="129.23" word-spacing="0" letter-spacing="0"><tspan id="tspan446" x="1890.45" y="-365.71"/>
 </text>
 <text id="text448" font-family="Arial" x="668.18" y="-1816.68" font-size="46.954" transform="scale(4.0128.2492)" text-anchor="middle"/>
 <text id="text450" line-height="125%" font-family="&apos;Gentium Book Basic&apos;" x="1501.33" y="-838.11" font-size="129.23" word-spacing="0" letter-spacing="0"><tspan id="tspan452" x="1501.33" y="-838.11"/>
 </text>
 <text id="text454" font-family="Arial" x="571.21" y="-3712.32" font-size="46.954" transform="scale(4.0128.2492)" text-anchor="middle"/>
 <text id="text456" line-height="125%" font-family="&apos;Gentium Book Basic&apos;" x="2082.59" y="-918.12" font-size="129.23" word-spacing="0" letter-spacing="0"><tspan id="tspan458" x="2082.59" y="-918.12"/>
 </text>
 <text id="text460" font-family="Arial" x="716.06" y="-4033.36" font-size="46.954" transform="scale(4.0128.2492)" text-anchor="middle"/>
 <g id="g462" line-height="125%" font-family="&apos;Gentium Book Basic&apos;" word-spacing="0" letter-spacing="0">
  <text id="text464" font-size="208.33" x="249.79" y="496.6"><tspan id="tspan466" x="249.79" y="496.6"/>
  </text>
  <text id="text468" font-size="129.23" x="2053.01" y="175.46"><tspan id="tspan470" x="2053.01" y="175.46"/>
  </text>
 </g>
 <text id="text472" font-family="Arial" x="708.69" y="354.95" font-size="46.954" transform="scale(4.0128.2492)" text-anchor="middle"/>
 <text id="text474" line-height="125%" font-family="&apos;Gentium Book Basic&apos;" x="2634.28" y="95.46" font-size="129.23" word-spacing="0" letter-spacing="0"><tspan id="tspan476" x="2634.28" y="95.46"/>
 </text>
 <text id="text478" font-family="Arial" x="853.54" y="33.919" font-size="46.954" transform="scale(4.0128.2492)" text-anchor="middle"/>
 <text id="text480" line-height="125%" font-family="&apos;Gentium Book Basic&apos;" x="1562.7" y="-85.8" font-size="129.23" word-spacing="0" letter-spacing="0"><tspan id="tspan482" x="1562.7" y="-85.8"/>
 </text>
 <text id="text484" font-family="Arial" x="586.5" y="-693.44" font-size="46.954" transform="scale(4.0128.2492)" text-anchor="middle"/>
 <text id="text486" line-height="125%" font-family="&apos;Gentium Book Basic&apos;" x="2660.75" y="-302.27" font-size="129.23" word-spacing="0" letter-spacing="0"><tspan id="tspan488" x="2660.75" y="-302.27"/>
 </text>
 <text id="text490" font-family="Arial" x="860.14" y="-1562.1" font-size="46.954" transform="scale(4.0128.2492)" text-anchor="middle"/>
 <text id="text492" line-height="125%" font-family="&apos;Gentium Book Basic&apos;" x="3242.02" y="-382.28" font-size="129.23" word-spacing="0" letter-spacing="0"><tspan id="tspan494" x="3242.02" y="-382.28"/>
 </text>
 <text id="text496" font-family="Arial" x="1004.99" y="-1883.14" font-size="46.954" transform="scale(4.0128.2492)" text-anchor="middle"/>
 <text id="text498" line-height="125%" font-family="&apos;Gentium Book Basic&apos;" x="2852.9" y="-854.68" font-size="129.23" word-spacing="0" letter-spacing="0"><tspan id="tspan500" x="2852.9" y="-854.68"/>
 </text>
 <text id="text502" font-family="Arial" x="908.02" y="-3778.79" font-size="46.954" transform="scale(4.0128.2492)" text-anchor="middle"/>
 <text id="text504" line-height="125%" font-family="&apos;Gentium Book Basic&apos;" x="3434.16" y="-934.68" font-size="129.23" word-spacing="0" letter-spacing="0"><tspan id="tspan506" x="3434.16" y="-934.68"/>
 </text>
 <text id="text508" font-family="Arial" x="1052.87" y="-4099.82" font-size="46.954" transform="scale(4.0128.2492)" text-anchor="middle"/>
 <g id="g510" line-height="125%" font-family="&apos;Gentium Book Basic&apos;" word-spacing="0" letter-spacing="0">
  <text id="text512" font-size="208.33" x="1601.36" y="480.04"><tspan id="tspan514" x="1601.36" y="480.04"/>
  </text>
  <text id="text516" font-size="129.23" x="2191.88" y="83.83"><tspan id="tspan518" x="2191.88" y="83.83"/>
  </text>
 </g>
 <text id="text520" font-family="Arial" x="743.3" y="-12.736" font-size="46.954" transform="scale(4.0128.2492)" text-anchor="middle"/>
 <text id="text522" line-height="125%" font-family="&apos;Gentium Book Basic&apos;" x="2773.15" y="3.835" font-size="129.23" word-spacing="0" letter-spacing="0"><tspan id="tspan524" x="2773.15" y="3.835"/>
 </text>
 <text id="text526" font-family="Arial" x="888.15" y="-333.77" font-size="46.954" transform="scale(4.0128.2492)" text-anchor="middle"/>
 <text id="text528" line-height="125%" font-family="&apos;Gentium Book Basic&apos;" x="1701.57" y="-177.43" font-size="129.23" word-spacing="0" letter-spacing="0"><tspan id="tspan530" x="1701.57" y="-177.43"/>
 </text>
 <text id="text532" font-family="Arial" x="621.11" y="-1061.12" font-size="46.954" transform="scale(4.0128.2492)" text-anchor="middle"/>
 <text id="text534" line-height="125%" font-family="&apos;Gentium Book Basic&apos;" x="2799.62" y="-393.9" font-size="129.23" word-spacing="0" letter-spacing="0"><tspan id="tspan536" x="2799.62" y="-393.9"/>
 </text>
 <text id="text538" font-family="Arial" x="894.75" y="-1929.79" font-size="46.954" transform="scale(4.0128.2492)" text-anchor="middle"/>
 <text id="text540" line-height="125%" font-family="&apos;Gentium Book Basic&apos;" x="3380.89" y="-473.9" font-size="129.23" word-spacing="0" letter-spacing="0"><tspan id="tspan542" x="3380.89" y="-473.9"/>
 </text>
 <text id="text544" font-family="Arial" x="1039.6" y="-2250.81" font-size="46.954" transform="scale(4.0128.2492)" text-anchor="middle"/>
 <text id="text546" line-height="125%" font-family="&apos;Gentium Book Basic&apos;" x="2991.77" y="-946.3" font-size="129.23" word-spacing="0" letter-spacing="0"><tspan id="tspan548" x="2991.77" y="-946.3"/>
 </text>
 <text id="text550" font-family="Arial" x="942.63" y="-4146.46" font-size="46.954" transform="scale(4.0128.2492)" text-anchor="middle"/>
 <text id="text552" line-height="125%" font-family="&apos;Gentium Book Basic&apos;" x="3573.03" y="-1026.31" font-size="129.23" word-spacing="0" letter-spacing="0"><tspan id="tspan554" x="3573.03" y="-1026.31"/>
 </text>
 <text id="text556" font-family="Arial" x="1087.48" y="-4467.49" font-size="46.954" transform="scale(4.0128.2492)" text-anchor="middle"/>
 <g id="g558" line-height="125%" font-family="&apos;Gentium Book Basic&apos;" word-spacing="0" letter-spacing="0">
  <text id="text560" font-size="208.33" x="1740.23" y="388.41"><tspan id="tspan562" x="1740.23" y="388.41"/>
  </text>
  <text id="text564" font-size="129.23" x="2111.61" y="125.91"><tspan id="tspan566" x="2111.61" y="125.91"/>
  </text>
 </g>
 <text id="text568" font-family="Arial" x="723.3" y="156.09" font-size="46.954" transform="scale(4.0128.2492)" text-anchor="middle"/>
 <text id="text570" line-height="125%" font-family="&apos;Gentium Book Basic&apos;" x="2692.88" y="45.909" font-size="129.23" word-spacing="0" letter-spacing="0"><tspan id="tspan572" x="2692.88" y="45.909"/>
 </text>
 <text id="text574" font-family="Arial" x="868.15" y="-164.94" font-size="46.954" transform="scale(4.0128.2492)" text-anchor="middle"/>
 <text id="text576" line-height="125%" font-family="&apos;Gentium Book Basic&apos;" x="1621.3" y="-135.35" font-size="129.23" word-spacing="0" letter-spacing="0"><tspan id="tspan578" x="1621.3" y="-135.35"/>
 </text>
 <text id="text580" font-family="Arial" x="601.11" y="-892.29" font-size="46.954" transform="scale(4.0128.2492)" text-anchor="middle"/>
 <text id="text582" line-height="125%" font-family="&apos;Gentium Book Basic&apos;" x="2719.35" y="-351.82" font-size="129.23" word-spacing="0" letter-spacing="0"><tspan id="tspan584" x="2719.35" y="-351.82"/>
 </text>
 <text id="text586" font-family="Arial" x="874.74" y="-1760.96" font-size="46.954" transform="scale(4.0128.2492)" text-anchor="middle"/>
 <text id="text588" line-height="125%" font-family="&apos;Gentium Book Basic&apos;" x="3300.62" y="-431.83" font-size="129.23" word-spacing="0" letter-spacing="0"><tspan id="tspan590" x="3300.62" y="-431.83"/>
 </text>
 <text id="text592" font-family="Arial" x="1019.59" y="-2082" font-size="46.954" transform="scale(4.0128.2492)" text-anchor="middle"/>
 <text id="text594" line-height="125%" font-family="&apos;Gentium Book Basic&apos;" x="2911.5" y="-904.23" font-size="129.23" word-spacing="0" letter-spacing="0"><tspan id="tspan596" x="2911.5" y="-904.23"/>
 </text>
 <text id="text598" font-family="Arial" x="922.62" y="-3977.65" font-size="46.954" transform="scale(4.0128.2492)" text-anchor="middle"/>
 <text id="text600" line-height="125%" font-family="&apos;Gentium Book Basic&apos;" x="3492.76" y="-984.23" font-size="129.23" word-spacing="0" letter-spacing="0"><tspan id="tspan602" x="3492.76" y="-984.23"/>
 </text>
 <text id="text604" font-family="Arial" x="1067.47" y="-4298.68" font-size="46.954" transform="scale(4.0128.2492)" text-anchor="middle"/>
 <g id="g606" line-height="125%" font-family="&apos;Gentium Book Basic&apos;" word-spacing="0" letter-spacing="0">
  <text id="text608" font-size="208.33" x="1659.96" y="430.49"><tspan id="tspan610" x="1659.96" y="430.49"/>
  </text>
  <text id="text612" font-size="129.23" x="2131.25" y="173.93"><tspan id="tspan614" x="2131.25" y="173.93"/>
  </text>
 </g>
 <text id="text616" font-family="Arial" x="728.19" y="348.8" font-size="46.954" transform="scale(4.0128.2492)" text-anchor="middle"/>
 <text id="text618" line-height="125%" font-family="&apos;Gentium Book Basic&apos;" x="2712.52" y="93.93" font-size="129.23" word-spacing="0" letter-spacing="0"><tspan id="tspan620" x="2712.52" y="93.93"/>
 </text>
 <text id="text622" font-family="Arial" x="873.04" y="27.764" font-size="46.954" transform="scale(4.0128.2492)" text-anchor="middle"/>
 <text id="text624" line-height="125%" font-family="&apos;Gentium Book Basic&apos;" x="1640.94" y="-87.33" font-size="129.23" word-spacing="0" letter-spacing="0"><tspan id="tspan626" x="1640.94" y="-87.33"/>
 </text>
 <text id="text628" font-family="Arial" x="606" y="-699.58" font-size="46.954" transform="scale(4.0128.2492)" text-anchor="middle"/>
 <text id="text630" line-height="125%" font-family="&apos;Gentium Book Basic&apos;" x="2738.99" y="-303.8" font-size="129.23" word-spacing="0" letter-spacing="0"><tspan id="tspan632" x="2738.99" y="-303.8"/>
 </text>
 <text id="text634" font-family="Arial" x="879.64" y="-1568.26" font-size="46.954" transform="scale(4.0128.2492)" text-anchor="middle"/>
 <text id="text636" line-height="125%" font-family="&apos;Gentium Book Basic&apos;" x="3320.26" y="-383.8" font-size="129.23" word-spacing="0" letter-spacing="0"><tspan id="tspan638" x="3320.26" y="-383.8"/>
 </text>
 <text id="text640" font-family="Arial" x="1024.49" y="-1889.29" font-size="46.954" transform="scale(4.0128.2492)" text-anchor="middle"/>
 <text id="text642" line-height="125%" font-family="&apos;Gentium Book Basic&apos;" x="2931.14" y="-856.2" font-size="129.23" word-spacing="0" letter-spacing="0"><tspan id="tspan644" x="2931.14" y="-856.2"/>
 </text>
 <text id="text646" font-family="Arial" x="927.52" y="-3784.94" font-size="46.954" transform="scale(4.0128.2492)" text-anchor="middle"/>
 <text id="text648" line-height="125%" font-family="&apos;Gentium Book Basic&apos;" x="3512.4" y="-936.21" font-size="129.23" word-spacing="0" letter-spacing="0"><tspan id="tspan650" x="3512.4" y="-936.21"/>
 </text>
 <text id="text652" font-family="Arial" x="1072.37" y="-4105.98" font-size="46.954" transform="scale(4.0128.2492)" text-anchor="middle"/>
 <g id="g654" line-height="125%" font-family="&apos;Gentium Book Basic&apos;" word-spacing="0" letter-spacing="0">
  <text id="text656" font-size="208.33" x="1679.6" y="478.51"><tspan id="tspan658" x="1679.6" y="478.51"/>
  </text>
  <text id="text660" font-size="129.23" x="2080.63" y="150"><tspan id="tspan662" x="2080.63" y="150"/>
  </text>
 </g>
 <text id="text664" font-family="Arial" x="715.58" y="252.77" font-size="46.954" transform="scale(4.0128.2492)" text-anchor="middle"/>
 <text id="text666" line-height="125%" font-family="&apos;Gentium Book Basic&apos;" x="2661.9" y="69.999" font-size="129.23" word-spacing="0" letter-spacing="0"><tspan id="tspan668" x="2661.9" y="69.999"/>
 </text>
 <text id="text670" font-family="Arial" x="860.42" y="-68.27" font-size="46.954" transform="scale(4.0128.2492)" text-anchor="middle"/>
 <text id="text672" line-height="125%" font-family="&apos;Gentium Book Basic&apos;" x="1590.32" y="-111.26" font-size="129.23" word-spacing="0" letter-spacing="0"><tspan id="tspan674" x="1590.32" y="-111.26"/>
 </text>
 <text id="text676" font-family="Arial" x="593.39" y="-795.61" font-size="46.954" transform="scale(4.0128.2492)" text-anchor="middle"/>
 <text id="text678" line-height="125%" font-family="&apos;Gentium Book Basic&apos;" x="2688.37" y="-327.73" font-size="129.23" word-spacing="0" letter-spacing="0"><tspan id="tspan680" x="2688.37" y="-327.73"/>
 </text>
 <text id="text682" font-family="Arial" x="867.02" y="-1664.29" font-size="46.954" transform="scale(4.0128.2492)" text-anchor="middle"/>
 <text id="text684" line-height="125%" font-family="&apos;Gentium Book Basic&apos;" x="3269.64" y="-407.73" font-size="129.23" word-spacing="0" letter-spacing="0"><tspan id="tspan686" x="3269.64" y="-407.73"/>
 </text>
 <text id="text688" font-family="Arial" x="1011.87" y="-1985.32" font-size="46.954" transform="scale(4.0128.2492)" text-anchor="middle"/>
 <text id="text690" line-height="125%" font-family="&apos;Gentium Book Basic&apos;" x="2880.52" y="-880.13" font-size="129.23" word-spacing="0" letter-spacing="0"><tspan id="tspan692" x="2880.52" y="-880.13"/>
 </text>
 <text id="text694" font-family="Arial" x="914.9" y="-3880.97" font-size="46.954" transform="scale(4.0128.2492)" text-anchor="middle"/>
 <text id="text696" line-height="125%" font-family="&apos;Gentium Book Basic&apos;" x="3461.78" y="-960.14" font-size="129.23" word-spacing="0" letter-spacing="0"><tspan id="tspan698" x="3461.78" y="-960.14"/>
 </text>
 <text id="text700" font-family="Arial" x="1059.75" y="-4202.01" font-size="46.954" transform="scale(4.0128.2492)" text-anchor="middle"/>
 <text id="text702" line-height="125%" font-family="&apos;Gentium Book Basic&apos;" x="1628.98" y="454.58" font-size="208.33" word-spacing="0" letter-spacing="0"><tspan id="tspan704" x="1628.98" y="454.58"/>
 </text>
 <path id="path706" d="m255.99 77.61c-47.686 0-86.06 38.37-86.06 86.06v33.73c0 5.191 0.446 10.274 1.318 15.207 0.002 0.008-0.002 0.016 0 0.023-0.816 0.731-1.621 1.469-2.418 2.221-0.794 0.749-1.567 1.501-2.342 2.27-0.767 0.762-1.547 1.54-2.295 2.32-0.063 0.066-0.132 0.129-0.195 0.195-3.699 3.88-7.135 8-10.324 12.324-0.648 0.878-1.279 1.765-1.904 2.66-0.61 0.873-1.216 1.748-1.805 2.637-0.059 0.088-0.114 0.179-0.172 0.268-0.511 0.776-1.019 1.556-1.514 2.344-0.066 0.105-0.129 0.211-0.195 0.316-1.716 2.753-3.326 5.582-4.832 8.471-0.506 0.97-1.01 1.943-1.488 2.928-0.971 1.987-1.889 3.986-2.758 6.03-0.196 0.462-0.395 0.926-0.586 1.391-0.23 0.559-0.461 1.12-0.684 1.684-0.002 0.007 0.003 0.018 0 0.025-0.103 0.26-0.215 0.52-0.316 0.781-0.697 1.802-1.337 3.626-1.953 5.467-0.292 0.874-0.58 1.753-0.854 2.635-0.149 0.48-0.296 0.959-0.439 1.441-0.229 0.769-0.446 1.544-0.66 2.318-0.3 1.086-0.581 2.172-0.854 3.27-0.259 1.047-0.524 2.092-0.758 3.148-0.021 0.096-0.028 0.196-0.049 0.293-0.22 1.01-0.437 2.01-0.633 3.03-0.02 0.105-0.029 0.211-0.049 0.316-0.187 0.982-0.35 1.964-0.514 2.953-0.026 0.155-0.047 0.31-0.072 0.465-0.061 0.375-0.138 0.747-0.195 1.123-0.103 0.673-0.201 1.349-0.293 2.025-0.284 2.085-0.527 4.181-0.709 6.297-0.028 0.325-0.047 0.651-0.072 0.977-0.007 0.09-0.018 0.177-0.025 0.268-0.246 3.227-0.365 6.497-0.365 9.787s0.12 6.56 0.365 9.787 0.617 6.413 1.1 9.568c0.161 1.052 0.326 2.105 0.512 3.148 0.373 2.086 0.797 4.15 1.27 6.199 0.473 2.05 0.992 4.066 1.563 6.076s1.188 4.01 1.854 5.98c0.666 1.968 1.39 3.91 2.148 5.834 0.379 0.962 0.77 1.929 1.172 2.879 0.804 1.9 1.645 3.761 2.537 5.613s1.831 3.691 2.809 5.492c1.467 2.701 3.03 5.33 4.686 7.908 2.203 3.438 4.563 6.782 7.078 9.982 0.972 1.237 1.96 2.438 2.977 3.637 0.299 0.353 0.602 0.7 0.904 1.049 1.989 2.297 4.058 4.521 6.205 6.668l74.46 74.46c4.133 0.232 8.293 0.361 12.484 0.361 119.32 0 216.34-95.48 218.84-214.21l-154.97-154.97c-15.56-15.56-37.09-25.16-60.934-25.16h-0.002v-0.002" opacity="0.25"/>
 <path id="path708" fill="#ffffff" d="m255.99 77.61c-47.686 0-86.06 38.37-86.06 86.06v33.73c0 5.191 0.446 10.272 1.318 15.205 0.002 0.008-0.002 0.017 0 0.024-0.816 0.731-1.619 1.469-2.416 2.221-0.794 0.749-1.569 1.501-2.343 2.27-0.767 0.762-1.547 1.538-2.294 2.319-0.063 0.066-0.132 0.129-0.195 0.195-3.699 3.88-7.135 8-10.324 12.325-0.648 0.878-1.278 1.765-1.904 2.66-0.61 0.873-1.218 1.747-1.806 2.636-0.059 0.088-0.113 0.18-0.171 0.268-0.511 0.776-1.019 1.555-1.513 2.343-0.066 0.105-0.129 0.212-0.195 0.317-1.716 2.753-3.326 5.58-4.832 8.469-0.506 0.97-1.01 1.944-1.489 2.929-0.971 1.987-1.889 3.985-2.758 6.03-0.196 0.462-0.395 0.927-0.586 1.391-0.23 0.559-0.461 1.121-0.683 1.684-0.002 0.007 0.003 0.017 0 0.024-0.103 0.26-0.216 0.52-0.317 0.781-0.697 1.802-1.337 3.626-1.953 5.467-0.292 0.874-0.58 1.754-0.854 2.636-0.149 0.48-0.296 0.958-0.439 1.44-0.229 0.769-0.445 1.544-0.659 2.319-0.3 1.086-0.582 2.173-0.854 3.271-0.259 1.047-0.523 2.092-0.757 3.148-0.021 0.096-0.028 0.196-0.049 0.293-0.22 1.01-0.439 2.01-0.635 3.03-0.02 0.105-0.029 0.212-0.049 0.317-0.187 0.982-0.349 1.964-0.513 2.953-0.026 0.155-0.048 0.309-0.073 0.464-0.061 0.375-0.138 0.747-0.195 1.123-0.103 0.673-0.201 1.35-0.293 2.026-0.284 2.085-0.526 4.181-0.708 6.297-0.028 0.325-0.048 0.651-0.073 0.976-0.007 0.09-0.018 0.178-0.024 0.268-0.246 3.227-0.366 6.497-0.366 9.787s0.121 6.56 0.366 9.787 0.616 6.412 1.098 9.567c0.161 1.052 0.326 2.105 0.512 3.148 0.373 2.086 0.796 4.15 1.269 6.199 0.473 2.05 0.991 4.067 1.562 6.077s1.189 4.01 1.855 5.98c0.666 1.968 1.389 3.909 2.148 5.833 0.379 0.962 0.77 1.93 1.172 2.88 0.804 1.9 1.646 3.762 2.538 5.614s1.829 3.691 2.807 5.492c1.467 2.701 3.033 5.33 4.686 7.908 2.203 3.438 4.563 6.782 7.078 9.982 0.972 1.237 1.961 2.437 2.978 3.637 0.299 0.353 0.601 0.7 0.903 1.05 5.328 6.154 11.241 11.782 17.646 16.816 1.6 1.258 3.221 2.48 4.881 3.661 2.491 1.772 5.04 3.46 7.664 5.05 0.873 0.531 1.749 1.052 2.636 1.562 0.007 0.003 0.018-0.003 0.024 0 1.768 1.016 3.574 1.996 5.394 2.929 1.826 0.936 3.664 1.836 5.54 2.685 0.007 0.003 0.018-0.003 0.024 0 0.931 0.421 1.863 0.846 2.807 1.245 0.007 0.003 0.018-0.003 0.024 0 5.694 2.408 11.612 4.414 17.695 5.98 2.03 0.522 4.083 0.992 6.151 1.416 2.068 0.423 4.145 0.801 6.248 1.123 3.155 0.482 6.341 0.853 9.567 1.098 0.008 0.001 0.016-0.001 0.024 0 3.219 0.244 6.481 0.366 9.763 0.366 5.483 0 10.881-0.351 16.182-1.025 1.06-0.135 2.121-0.279 3.173-0.439 1.937-0.296 3.852-0.642 5.76-1.025 0.351-0.07 0.7-0.146 1.049-0.22 1.679-0.352 3.349-0.73 5-1.147 5.28-1.332 10.431-2.985 15.425-4.955 2.875-1.134 5.725-2.377 8.494-3.71 0.01-0.005 0.014-0.02 0.024-0.024 0.46-0.221 0.91-0.457 1.367-0.683 0.775-0.385 1.553-0.771 2.319-1.172 1.502-0.785 3-1.598 4.466-2.441 1.764-1.015 3.513-2.077 5.223-3.173 0.009-0.007 0.015-0.018 0.024-0.024 1.709-1.096 3.4-2.242 5.05-3.417 0.821-0.584 1.658-1.179 2.465-1.782 0.009-0.007 0.015-0.018 0.024-0.024 0.815-0.61 1.616-1.226 2.416-1.855 4-3.144 7.805-6.511 11.398-10.1 2.875-2.875 5.611-5.892 8.201-9.03 1.295-1.569 2.563-3.177 3.783-4.808 8.539-11.417 15.193-24.318 19.526-38.25 0.619-1.99 1.186-3.998 1.708-6.03 2.612-10.151 4-20.787 4-31.753 0-1.833-0.045-3.653-0.122-5.467-0.015-0.358-0.031-0.717-0.049-1.074-0.026-0.513-0.065-1.026-0.098-1.538-0.04-0.636-0.073-1.27-0.122-1.904-0.059-0.759-0.123-1.515-0.195-2.27-0.023-0.244-0.048-0.489-0.073-0.732-0.074-0.725-0.158-1.45-0.244-2.172-0.041-0.342-0.079-0.684-0.122-1.025-0.09-0.709-0.191-1.418-0.293-2.123-0.105-0.723-0.201-1.453-0.317-2.172-0.025-0.156-0.072-0.308-0.098-0.464-0.135-0.816-0.264-1.63-0.415-2.441-0.139-0.746-0.288-1.48-0.439-2.221-0.17-0.831-0.351-1.665-0.537-2.49-0.177-0.785-0.37-1.563-0.561-2.343-0.034-0.138-0.063-0.277-0.098-0.415-0.075-0.3-0.143-0.604-0.22-0.903-0.189-0.737-0.383-1.465-0.586-2.197-0.214-0.775-0.43-1.549-0.659-2.319-0.148-0.497-0.31-0.994-0.464-1.489-0.008-0.025-0.017-0.049-0.025-0.073-0.305-0.979-0.624-1.96-0.952-2.929-0.313-0.925-0.618-1.842-0.952-2.758-0.022-0.058-0.051-0.113-0.073-0.171-0.117-0.32-0.247-0.633-0.366-0.952-0.249-0.662-0.497-1.32-0.757-1.977-0.376-0.952-0.749-1.915-1.147-2.856-0.4-0.946-0.822-1.898-1.245-2.831-0.066-0.147-0.128-0.293-0.195-0.439-0.36-0.788-0.723-1.564-1.098-2.343-0.581-1.205-1.189-2.404-1.806-3.588-0.128-0.245-0.261-0.488-0.391-0.732-0.368-0.694-0.743-1.388-1.123-2.075-0.017-0.032-0.031-0.066-0.049-0.098-0.313-0.564-0.63-1.125-0.952-1.684-0.226-0.393-0.454-0.782-0.683-1.172-0.29-0.491-0.583-0.978-0.879-1.464-0.275-0.452-0.55-0.894-0.83-1.342-0.052-0.084-0.118-0.16-0.171-0.244-0.53-0.844-1.061-1.683-1.611-2.514-0.477-0.721-0.973-1.437-1.464-2.148-0.127-0.183-0.239-0.379-0.366-0.561-0.2-0.286-0.408-0.57-0.61-0.854-0.434-0.61-0.873-1.204-1.318-1.806-1.239-1.679-2.513-3.34-3.832-4.955-0.058-0.072-0.112-0.148-0.171-0.22-0.08-0.098-0.164-0.195-0.244-0.293-0.614-0.745-1.248-1.491-1.879-2.221-0.034-0.039-0.064-0.083-0.098-0.122-0.681-0.786-1.375-1.55-2.075-2.319-0.179-0.196-0.357-0.391-0.537-0.586-0.559-0.607-1.113-1.21-1.684-1.806-0.243-0.254-0.487-0.505-0.732-0.757-0.513-0.527-1.04-1.044-1.562-1.562-0.774-0.768-1.55-1.522-2.343-2.27-0.563-0.531-1.135-1.066-1.708-1.586-0.235-0.214-0.471-0.423-0.708-0.635 0.872-4.933 1.342-10.01 1.342-15.205v-33.73c0-47.686-38.4-86.06-86.08-86.06m0 40.833c28.769 0 51.938 23.14 51.938 51.913v20.355c0 0.188-0.022 0.374-0.024 0.561-15.849-7.102-33.422-11.06-51.913-11.06-18.492 0-36.04 3.955-51.889 11.06-0.002-0.188-0.024-0.373-0.024-0.561v-20.355c0-28.769 23.14-51.913 51.913-51.913m0 100.41c48.851 0 88.45 39.599 88.45 88.45s-39.599 88.45-88.45 88.45-88.45-39.599-88.45-88.45 39.599-88.45 88.45-88.45m0 25.749c-34.625 0-62.68 28.08-62.68 62.701 0 34.625 28.05 62.701 62.68 62.701 34.625 0 62.701-28.08 62.701-62.701 0-34.625-28.08-62.701-62.701-62.701m0 27.824c9.8 0 17.768 7.943 17.768 17.744 0 5.557-2.566 10.536-6.565 13.79 0.005 0.131 0.024 0.258 0.024 0.391v30.07c0 6.219-5.01 11.227-11.227 11.227-6.219 0-11.203-5.01-11.203-11.227v-30.07c0-0.132 0.017-0.259 0.024-0.391-3.999-3.254-6.565-8.232-6.565-13.79 0-9.8 7.943-17.744 17.744-17.744"/>
</svg>
