<?xml version="1.0" encoding="UTF-8" standalone="no"?>
<svg xmlns="http://www.w3.org/2000/svg" xmlns:sodipodi="http://sodipodi.sourceforge.net/DTD/sodipodi-0.dtd" xmlns:inkscape="http://www.inkscape.org/namespaces/inkscape" height="512" viewBox="0 0 512 512" width="512" version="1.1">
 <metadata id="metadata72"/>
 <path fill="#767676" fill-rule="evenodd" d="m471.95 253.05c0 120.9-98.01 218.9-218.9 218.9-120.9 0-218.9-98.01-218.9-218.9 0-120.9 98.01-218.9 218.9-218.9 120.9 0 218.9 98.01 218.9 218.9" id="path4"/>
 <path d="m224.47 175.47v42.44c-13.172-17.357-41.15-18.775-57.03-4.406-9.857-13.959-29.11-12.755-41.23-2.367-9.802-3.984-27.338-9.318-36.987-3.45v95.91c58.833 54.818 121.46 119.17 171.24 168.59 2.217 2.217 4.38-0.332 7.842-0.793 18.493-0.338 38.705 4.682 55.772-4.54 5.182-9.969 11.936-2.184 21.465-9.591 69.19-32.516 117.55-104.07 124.68-179.85-24.842-24.842-22.844-24.394-48.538-50.09-13.423 0.053-23.313-2.077-32.07-11.228-7.53-8.36-12.548-2.793-13.157-1.926-11.721-16.453-34.618-10.803-50.2-3.883-12.374-11.06-23.328-23.502-35.589-34.658-12.837-1.918-30.541-0.67-28.786 9.783-8.92-13.806-23.457-9.27-37.41-9.938" fill-opacity="0.235" id="path6"/>
 <g fill-rule="evenodd" id="g8">
  <path d="m256 1c-140.83 0-255 114.17-255 255s114.17 255 255 255 255-114.17 255-255-114.17-255-255-255m8.827 44.931c120.9 0 218.9 98 218.9 218.9s-98 218.9-218.9 218.9-218.93-98-218.93-218.9 98.03-218.9 218.93-218.9" fill-opacity="0.067" id="path10"/>
  <g fill-opacity="0.129" id="g12">
   <path d="m256 4.433c-138.94 0-251.57 112.63-251.57 251.57s112.63 251.57 251.57 251.57 251.57-112.63 251.57-251.57-112.63-251.57-251.57-251.57m5.885 38.556c120.9 0 218.9 98 218.9 218.9s-98 218.9-218.9 218.9-218.93-98-218.93-218.9 98.03-218.9 218.93-218.9" id="path14"/>
   <path d="m256 8.356c-136.77 0-247.64 110.87-247.64 247.64s110.87 247.64 247.64 247.64 247.64-110.87 247.64-247.64-110.87-247.64-247.64-247.64m2.942 31.691c120.9 0 218.9 98 218.9 218.9s-98 218.9-218.9 218.9-218.93-98-218.93-218.9 98.03-218.9 218.93-218.9" id="path16"/>
  </g>
  <path fill="#ffffff" stroke-width="4.904" stroke="#000000" stroke-opacity="0.31" d="m253.04 7.859c-135.42 0-245.19 109.78-245.19 245.19 0 135.42 109.78 245.19 245.19 245.19 135.42 0 245.19-109.78 245.19-245.19 0-135.42-109.78-245.19-245.19-245.19zm0 26.297c120.9 0 218.9 98 218.9 218.9s-98 218.9-218.9 218.9-218.93-98-218.93-218.9 98.03-218.9 218.93-218.9z" id="path18"/>
 </g>
 <text font-family="Gentium Book Basic" x="729.64" y="231.36" line-height="125%" font-size="129.23" id="text20" word-spacing="0" letter-spacing="0"><tspan x="729.64" y="231.36" id="tspan22"/>
 </text>
 <text font-family="Arial" x="378.91" y="579.25" transform="scale(4.0128 .2492)" font-size="46.954" id="text24" text-anchor="middle"/>
 <text font-family="Gentium Book Basic" x="1310.91" y="151.36" line-height="125%" font-size="129.23" id="text26" word-spacing="0" letter-spacing="0"><tspan x="1310.91" y="151.36" id="tspan28"/>
 </text>
 <text font-family="Arial" x="523.76" y="258.22" transform="scale(4.0128 .2492)" font-size="46.954" id="text30" text-anchor="middle"/>
 <text font-family="Gentium Book Basic" x="239.33" y="-29.901" line-height="125%" font-size="129.23" id="text32" word-spacing="0" letter-spacing="0"><tspan x="239.33" y="-29.901" id="tspan34"/>
 </text>
 <text font-family="Arial" x="256.72" y="-469.14" transform="scale(4.0128 .2492)" font-size="46.954" id="text36" text-anchor="middle"/>
 <text font-family="Gentium Book Basic" x="1337.38" y="-246.37" line-height="125%" font-size="129.23" id="text38" word-spacing="0" letter-spacing="0"><tspan x="1337.38" y="-246.37" id="tspan40"/>
 </text>
 <text font-family="Arial" x="530.36" y="-1337.81" transform="scale(4.0128 .2492)" font-size="46.954" id="text42" text-anchor="middle"/>
 <text font-family="Gentium Book Basic" x="1918.65" y="-326.38" line-height="125%" font-size="129.23" id="text44" word-spacing="0" letter-spacing="0"><tspan x="1918.65" y="-326.38" id="tspan46"/>
 </text>
 <text font-family="Arial" x="675.21" y="-1658.85" transform="scale(4.0128 .2492)" font-size="46.954" id="text48" text-anchor="middle"/>
 <text font-family="Gentium Book Basic" x="1529.53" y="-798.78" line-height="125%" font-size="129.23" id="text50" word-spacing="0" letter-spacing="0"><tspan x="1529.53" y="-798.78" id="tspan52"/>
 </text>
 <text font-family="Arial" x="578.24" y="-3554.51" transform="scale(4.0128 .2492)" font-size="46.954" id="text54" text-anchor="middle"/>
 <text font-family="Gentium Book Basic" x="2110.79" y="-878.78" line-height="125%" font-size="129.23" id="text56" word-spacing="0" letter-spacing="0"><tspan x="2110.79" y="-878.78" id="tspan58"/>
 </text>
 <text font-family="Arial" x="723.09" y="-3875.54" transform="scale(4.0128 .2492)" font-size="46.954" id="text60" text-anchor="middle"/>
 <text font-family="Gentium Book Basic" x="277.99" y="535.94" line-height="125%" font-size="208.33" id="text62" word-spacing="0" letter-spacing="0"><tspan x="277.99" y="535.94" id="tspan64"/>
 </text>
 <path d="m224.47 175.47v42.79c-6.466-7.849-15.421-14.593-29.969-14.593-22.809 0-43.832 17.929-43.832 50.608v0.365c0 32.679 21.382 50.556 43.832 50.556 14.187 0 23.324-6.769 29.969-15.896v14.229h27.467v-128.06h-27.47m38.881 0v21.265h28.09v-21.265h-28.09m90.22 28.2c-29.995 0-52.28 22.858-52.28 50.973v0.365c0 28.11 22.1 50.556 51.911 50.556 29.992 0 52.28-22.805 52.28-50.921v-0.365c0-2.191-0.156-4.348-0.417-6.463 15.621-4.139 22.08-20.57 14.646-21.16-14.05 0.416-31-10.792-37.578-15.01-0.61-0.391-0.725-0.768-1.355-1.095-0.688-0.391-1.426-0.735-2.137-1.095v41.23c0.025 3.689-1.588 7.579-3.857 11.31l-0.156 0.313c-6.567 10.793-20.397 17.06-33.36 12.613-12.585-4.322-15.942-16.666-9.277-27.623l0.208-0.365c6.56-10.788 20.345-17.06 33.3-12.613 0.999 0.343 1.939 0.754 2.814 1.199v-29.812c-4.638-1.276-9.566-2.033-14.75-2.033m-209.31 0.208c-14.326 0.412-22.507 8.911-27.727 21.577v-19.701h-27.31v97.83h27.31v-36.12c0-22.24 10.07-33.374 26.685-34.399 3.255-11.554 9.199-20.759 16.73-27.363-3.659-1.37-7.859-1.99-12.717-1.772-1.01-0.046-2.02-0.08-2.971-0.052m119.72 1.616v98.04h27.363v-98.04h-27.363m-60.2 27.21c3.22-0.133 6.506 0.295 9.746 1.407 12.584 4.322 15.942 16.719 9.277 27.675l-0.156 0.313c-6.567 10.791-20.396 17.11-33.36 12.665-12.585-4.322-15.942-16.72-9.277-27.675l0.208-0.313c4.92-8.092 13.897-13.673 23.558-14.07" fill="#ffffff" id="path66"/>
</svg>
