<?xml version="1.0" encoding="UTF-8" standalone="no"?>
<svg xmlns="http://www.w3.org/2000/svg" xmlns:sodipodi="http://sodipodi.sourceforge.net/DTD/sodipodi-0.dtd" xmlns:inkscape="http://www.inkscape.org/namespaces/inkscape" viewBox="0 0 512 512" version="1.1" width="512" height="512">
 <metadata id="metadata264"/>
 <text id="text4" line-height="125%" font-family="Gentium Book Basic" x="729.64" y="231.36" font-size="129.23" word-spacing="0" letter-spacing="0"><tspan id="tspan6" x="729.64" y="231.36"/>
 </text>
 <text id="text8" font-family="Arial" x="378.91" y="579.26" font-size="46.954" transform="scale(4.0128.2492)" text-anchor="middle"/>
 <text id="text10" line-height="125%" font-family="Gentium Book Basic" x="1310.91" y="151.36" font-size="129.23" word-spacing="0" letter-spacing="0"><tspan id="tspan12" x="1310.91" y="151.36"/>
 </text>
 <text id="text14" font-family="Arial" x="523.76" y="258.22" font-size="46.954" transform="scale(4.0128.2492)" text-anchor="middle"/>
 <text id="text16" line-height="125%" font-family="Gentium Book Basic" x="239.33" y="-29.9" font-size="129.23" word-spacing="0" letter-spacing="0"><tspan id="tspan18" x="239.33" y="-29.9"/>
 </text>
 <text id="text20" font-family="Arial" x="256.72" y="-469.13" font-size="46.954" transform="scale(4.0128.2492)" text-anchor="middle"/>
 <text id="text22" line-height="125%" font-family="Gentium Book Basic" x="1337.38" y="-246.37" font-size="129.23" word-spacing="0" letter-spacing="0"><tspan id="tspan24" x="1337.38" y="-246.37"/>
 </text>
 <text id="text26" font-family="Arial" x="530.36" y="-1337.8" font-size="46.954" transform="scale(4.0128.2492)" text-anchor="middle"/>
 <text id="text28" line-height="125%" font-family="Gentium Book Basic" x="1918.65" y="-326.37" font-size="129.23" word-spacing="0" letter-spacing="0"><tspan id="tspan30" x="1918.65" y="-326.37"/>
 </text>
 <text id="text32" font-family="Arial" x="675.21" y="-1658.83" font-size="46.954" transform="scale(4.0128.2492)" text-anchor="middle"/>
 <text id="text34" line-height="125%" font-family="Gentium Book Basic" x="1529.53" y="-798.77" font-size="129.23" word-spacing="0" letter-spacing="0"><tspan id="tspan36" x="1529.53" y="-798.77"/>
 </text>
 <text id="text38" font-family="Arial" x="578.24" y="-3554.48" font-size="46.954" transform="scale(4.0128.2492)" text-anchor="middle"/>
 <text id="text40" line-height="125%" font-family="Gentium Book Basic" x="2110.79" y="-878.78" font-size="129.23" word-spacing="0" letter-spacing="0"><tspan id="tspan42" x="2110.79" y="-878.78"/>
 </text>
 <text id="text44" font-family="Arial" x="723.09" y="-3875.52" font-size="46.954" transform="scale(4.0128.2492)" text-anchor="middle"/>
 <g id="g46" line-height="125%" word-spacing="0" letter-spacing="0">
  <text id="text48" font-family="Gentium Book Basic" font-size="208.33" x="277.99" y="535.94"><tspan id="tspan50" x="277.99" y="535.94"/>
  </text>
  <text id="text52" font-family="&apos;Gentium Book Basic&apos;" font-size="129.23" x="729.64" y="231.36"><tspan id="tspan54" x="729.64" y="231.36"/>
  </text>
 </g>
 <text id="text56" font-family="Arial" x="378.91" y="579.26" font-size="46.954" transform="scale(4.0128.2492)" text-anchor="middle"/>
 <text id="text58" line-height="125%" font-family="&apos;Gentium Book Basic&apos;" x="1310.91" y="151.36" font-size="129.23" word-spacing="0" letter-spacing="0"><tspan id="tspan60" x="1310.91" y="151.36"/>
 </text>
 <text id="text62" font-family="Arial" x="523.76" y="258.22" font-size="46.954" transform="scale(4.0128.2492)" text-anchor="middle"/>
 <text id="text64" line-height="125%" font-family="&apos;Gentium Book Basic&apos;" x="239.33" y="-29.9" font-size="129.23" word-spacing="0" letter-spacing="0"><tspan id="tspan66" x="239.33" y="-29.9"/>
 </text>
 <text id="text68" font-family="Arial" x="256.72" y="-469.13" font-size="46.954" transform="scale(4.0128.2492)" text-anchor="middle"/>
 <text id="text70" line-height="125%" font-family="&apos;Gentium Book Basic&apos;" x="1337.38" y="-246.37" font-size="129.23" word-spacing="0" letter-spacing="0"><tspan id="tspan72" x="1337.38" y="-246.37"/>
 </text>
 <text id="text74" font-family="Arial" x="530.36" y="-1337.8" font-size="46.954" transform="scale(4.0128.2492)" text-anchor="middle"/>
 <text id="text76" line-height="125%" font-family="&apos;Gentium Book Basic&apos;" x="1918.65" y="-326.37" font-size="129.23" word-spacing="0" letter-spacing="0"><tspan id="tspan78" x="1918.65" y="-326.37"/>
 </text>
 <text id="text80" font-family="Arial" x="675.21" y="-1658.83" font-size="46.954" transform="scale(4.0128.2492)" text-anchor="middle"/>
 <text id="text82" line-height="125%" font-family="&apos;Gentium Book Basic&apos;" x="1529.53" y="-798.77" font-size="129.23" word-spacing="0" letter-spacing="0"><tspan id="tspan84" x="1529.53" y="-798.77"/>
 </text>
 <text id="text86" font-family="Arial" x="578.24" y="-3554.48" font-size="46.954" transform="scale(4.0128.2492)" text-anchor="middle"/>
 <text id="text88" line-height="125%" font-family="&apos;Gentium Book Basic&apos;" x="2110.79" y="-878.78" font-size="129.23" word-spacing="0" letter-spacing="0"><tspan id="tspan90" x="2110.79" y="-878.78"/>
 </text>
 <text id="text92" font-family="Arial" x="723.09" y="-3875.52" font-size="46.954" transform="scale(4.0128.2492)" text-anchor="middle"/>
 <text id="text94" line-height="125%" font-family="&apos;Gentium Book Basic&apos;" x="277.99" y="535.94" font-size="208.33" word-spacing="0" letter-spacing="0"><tspan id="tspan96" x="277.99" y="535.94"/>
 </text>
 <g id="g98" fill-rule="evenodd">
  <path id="path100" fill="#656565" d="m471.95 253.05c0 120.9-98.01 218.91-218.91 218.91s-218.91-98.01-218.91-218.91 98.01-218.91 218.91-218.91 218.91 98.01 218.91 218.91"/>
  <path id="path102" fill="#585858" d="m167.22 51.625c-78.23 33.381-133.09 111.01-133.09 201.44s54.86 168.03 133.09 201.41v-402.84"/>
  <path id="path104" fill-opacity="0.067" d="m256 1c-140.83 0-255 114.17-255 255s114.17 255 255 255 255-114.17 255-255-114.17-255-255-255m8.827 44.931c120.9 0 218.9 98 218.9 218.9s-98 218.9-218.9 218.9-218.93-98-218.93-218.9 98.03-218.9 218.93-218.9"/>
  <g id="g106" fill-opacity="0.129">
   <path id="path108" d="m256 4.43c-138.94 0-251.57 112.63-251.57 251.57s112.63 251.57 251.57 251.57 251.57-112.63 251.57-251.57-112.63-251.57-251.57-251.57m5.885 38.556c120.9 0 218.9 98 218.9 218.9s-98 218.9-218.9 218.9-218.93-98-218.93-218.9 98.03-218.9 218.93-218.9"/>
   <path id="path110" d="m256 8.36c-136.77 0-247.64 110.87-247.64 247.64s110.87 247.64 247.64 247.64 247.64-110.87 247.64-247.64-110.87-247.64-247.64-247.64m2.942 31.691c120.9 0 218.9 98 218.9 218.9s-98 218.9-218.9 218.9-218.93-98-218.93-218.9 98.03-218.9 218.93-218.9"/>
  </g>
  <path id="path112" fill="#ffffff" stroke-opacity="0.31" d="m253.04 7.86c-135.42 0-245.19 109.78-245.19 245.19 0 135.42 109.78 245.19 245.19 245.19 135.42 0 245.19-109.78 245.19-245.19 0-135.42-109.78-245.19-245.19-245.19m0 26.297c120.9 0 218.9 98 218.9 218.9s-98 218.9-218.9 218.9-218.93-98-218.93-218.9 98.03-218.9 218.93-218.9z" stroke-width="4.904" stroke="#000000"/>
 </g>
 <text id="text114" line-height="125%" font-family="&apos;Gentium Book Basic&apos;" x="729.64" y="231.36" font-size="129.23" word-spacing="0" letter-spacing="0"><tspan id="tspan116" x="729.64" y="231.36"/>
 </text>
 <text id="text118" font-family="Arial" x="378.91" y="579.26" font-size="46.954" transform="scale(4.0128.2492)" text-anchor="middle"/>
 <text id="text120" line-height="125%" font-family="&apos;Gentium Book Basic&apos;" x="1310.91" y="151.36" font-size="129.23" word-spacing="0" letter-spacing="0"><tspan id="tspan122" x="1310.91" y="151.36"/>
 </text>
 <text id="text124" font-family="Arial" x="523.76" y="258.22" font-size="46.954" transform="scale(4.0128.2492)" text-anchor="middle"/>
 <text id="text126" line-height="125%" font-family="&apos;Gentium Book Basic&apos;" x="239.33" y="-29.9" font-size="129.23" word-spacing="0" letter-spacing="0"><tspan id="tspan128" x="239.33" y="-29.9"/>
 </text>
 <text id="text130" font-family="Arial" x="256.72" y="-469.13" font-size="46.954" transform="scale(4.0128.2492)" text-anchor="middle"/>
 <text id="text132" line-height="125%" font-family="&apos;Gentium Book Basic&apos;" x="1337.38" y="-246.37" font-size="129.23" word-spacing="0" letter-spacing="0"><tspan id="tspan134" x="1337.38" y="-246.37"/>
 </text>
 <text id="text136" font-family="Arial" x="530.36" y="-1337.8" font-size="46.954" transform="scale(4.0128.2492)" text-anchor="middle"/>
 <text id="text138" line-height="125%" font-family="&apos;Gentium Book Basic&apos;" x="1918.65" y="-326.37" font-size="129.23" word-spacing="0" letter-spacing="0"><tspan id="tspan140" x="1918.65" y="-326.37"/>
 </text>
 <text id="text142" font-family="Arial" x="675.21" y="-1658.83" font-size="46.954" transform="scale(4.0128.2492)" text-anchor="middle"/>
 <text id="text144" line-height="125%" font-family="&apos;Gentium Book Basic&apos;" x="1529.53" y="-798.77" font-size="129.23" word-spacing="0" letter-spacing="0"><tspan id="tspan146" x="1529.53" y="-798.77"/>
 </text>
 <text id="text148" font-family="Arial" x="578.24" y="-3554.48" font-size="46.954" transform="scale(4.0128.2492)" text-anchor="middle"/>
 <text id="text150" line-height="125%" font-family="&apos;Gentium Book Basic&apos;" x="2110.79" y="-878.78" font-size="129.23" word-spacing="0" letter-spacing="0"><tspan id="tspan152" x="2110.79" y="-878.78"/>
 </text>
 <text id="text154" font-family="Arial" x="723.09" y="-3875.52" font-size="46.954" transform="scale(4.0128.2492)" text-anchor="middle"/>
 <g id="g156" line-height="125%" font-family="&apos;Gentium Book Basic&apos;" word-spacing="0" letter-spacing="0">
  <text id="text158" font-size="208.33" x="277.99" y="535.94"><tspan id="tspan160" x="277.99" y="535.94"/>
  </text>
  <text id="text162" font-size="129.23" x="13.421" y="260.32"><tspan id="tspan164" x="13.421" y="260.32"/>
  </text>
 </g>
 <text id="text166" font-family="Arial" x="200.43" y="695.45" font-size="46.954" transform="scale(4.0128.2492)" text-anchor="middle"/>
 <text id="text168" line-height="125%" font-family="&apos;Gentium Book Basic&apos;" x="594.69" y="180.32" font-size="129.23" word-spacing="0" letter-spacing="0"><tspan id="tspan170" x="594.69" y="180.32"/>
 </text>
 <text id="text172" font-family="Arial" x="345.27" y="374.43" font-size="46.954" transform="scale(4.0128.2492)" text-anchor="middle"/>
 <text id="text174" line-height="125%" font-family="&apos;Gentium Book Basic&apos;" x="-476.89" y="-0.942" font-size="129.23" word-spacing="0" letter-spacing="0"><tspan id="tspan176" x="-476.89" y="-0.942"/>
 </text>
 <text id="text178" font-family="Arial" x="78.24" y="-352.93" font-size="46.954" transform="scale(4.0128.2492)" text-anchor="middle"/>
 <text id="text180" line-height="125%" font-family="&apos;Gentium Book Basic&apos;" x="621.16" y="-217.41" font-size="129.23" word-spacing="0" letter-spacing="0"><tspan id="tspan182" x="621.16" y="-217.41"/>
 </text>
 <text id="text184" font-family="Arial" x="351.87" y="-1221.6" font-size="46.954" transform="scale(4.0128.2492)" text-anchor="middle"/>
 <text id="text186" line-height="125%" font-family="&apos;Gentium Book Basic&apos;" x="1202.43" y="-297.42" font-size="129.23" word-spacing="0" letter-spacing="0"><tspan id="tspan188" x="1202.43" y="-297.42"/>
 </text>
 <text id="text190" font-family="Arial" x="496.72" y="-1542.63" font-size="46.954" transform="scale(4.0128.2492)" text-anchor="middle"/>
 <text id="text192" line-height="125%" font-family="&apos;Gentium Book Basic&apos;" x="813.31" y="-769.82" font-size="129.23" word-spacing="0" letter-spacing="0"><tspan id="tspan194" x="813.31" y="-769.82"/>
 </text>
 <text id="text196" font-family="Arial" x="399.75" y="-3438.29" font-size="46.954" transform="scale(4.0128.2492)" text-anchor="middle"/>
 <text id="text198" line-height="125%" font-family="&apos;Gentium Book Basic&apos;" x="1394.57" y="-849.82" font-size="129.23" word-spacing="0" letter-spacing="0"><tspan id="tspan200" x="1394.57" y="-849.82"/>
 </text>
 <text id="text202" font-family="Arial" x="544.6" y="-3759.31" font-size="46.954" transform="scale(4.0128.2492)" text-anchor="middle"/>
 <g id="g204" line-height="125%" font-family="&apos;Gentium Book Basic&apos;" word-spacing="0" letter-spacing="0">
  <text id="text206" font-size="208.33" x="-438.23" y="564.9"><tspan id="tspan208" x="-438.23" y="564.9"/>
  </text>
  <text id="text210" font-size="129.23" x="13.421" y="260.32"><tspan id="tspan212" x="13.421" y="260.32"/>
  </text>
 </g>
 <text id="text214" font-family="Arial" x="200.43" y="695.45" font-size="46.954" transform="scale(4.0128.2492)" text-anchor="middle"/>
 <text id="text216" line-height="125%" font-family="&apos;Gentium Book Basic&apos;" x="594.69" y="180.32" font-size="129.23" word-spacing="0" letter-spacing="0"><tspan id="tspan218" x="594.69" y="180.32"/>
 </text>
 <text id="text220" font-family="Arial" x="345.27" y="374.43" font-size="46.954" transform="scale(4.0128.2492)" text-anchor="middle"/>
 <text id="text222" line-height="125%" font-family="&apos;Gentium Book Basic&apos;" x="-476.89" y="-0.942" font-size="129.23" word-spacing="0" letter-spacing="0"><tspan id="tspan224" x="-476.89" y="-0.942"/>
 </text>
 <text id="text226" font-family="Arial" x="78.24" y="-352.93" font-size="46.954" transform="scale(4.0128.2492)" text-anchor="middle"/>
 <text id="text228" line-height="125%" font-family="&apos;Gentium Book Basic&apos;" x="621.16" y="-217.41" font-size="129.23" word-spacing="0" letter-spacing="0"><tspan id="tspan230" x="621.16" y="-217.41"/>
 </text>
 <text id="text232" font-family="Arial" x="351.87" y="-1221.59" font-size="46.954" transform="scale(4.0128.2492)" text-anchor="middle"/>
 <text id="text234" line-height="125%" font-family="&apos;Gentium Book Basic&apos;" x="1202.43" y="-297.42" font-size="129.23" word-spacing="0" letter-spacing="0"><tspan id="tspan236" x="1202.43" y="-297.42"/>
 </text>
 <text id="text238" font-family="Arial" x="496.72" y="-1542.62" font-size="46.954" transform="scale(4.0128.2492)" text-anchor="middle"/>
 <text id="text240" line-height="125%" font-family="&apos;Gentium Book Basic&apos;" x="813.31" y="-769.82" font-size="129.23" word-spacing="0" letter-spacing="0"><tspan id="tspan242" x="813.31" y="-769.82"/>
 </text>
 <text id="text244" font-family="Arial" x="399.75" y="-3438.27" font-size="46.954" transform="scale(4.0128.2492)" text-anchor="middle"/>
 <text id="text246" line-height="125%" font-family="&apos;Gentium Book Basic&apos;" x="1394.57" y="-849.82" font-size="129.23" word-spacing="0" letter-spacing="0"><tspan id="tspan248" x="1394.57" y="-849.82"/>
 </text>
 <text id="text250" font-family="Arial" x="544.6" y="-3759.29" font-size="46.954" transform="scale(4.0128.2492)" text-anchor="middle"/>
 <text id="text252" line-height="125%" font-family="&apos;Gentium Book Basic&apos;" x="-438.23" y="564.9" font-size="208.33" word-spacing="0" letter-spacing="0"><tspan id="tspan254" x="-438.23" y="564.9"/>
 </text>
 <path id="path256" d="m320.93 132.72l58.38 58.38v0.014l-58.39-58.39c-3.082 0.159-5.772 1.15-7.748 3.064l-0.113 0.113-14.602 14.658-0.309 0.307 0.309 0.309 0.004 0.004 164.4 164.4c4.485-15.07 7.393-30.818 8.527-47.06l-121-121-0.002-0.004c-9.251-9.251-19.925-14.613-28.09-14.797-0.444-0.01-0.912-0.023-1.365 0m-30.24 25.58l-0.309 0.334-15.439 15.467-0.307 0.309 0.307 0.334 174.68 174.68c3.596-7.322 6.794-14.873 9.568-22.627l-105.44-105.44-0.002 0.002-63.06-63.06m-24.996 24.992l-0.336 0.307-94.19 94.28-11.645 11.592-2.928 2.955-0.082 0.057-0.029 0.111-23.549 73.72-0.027 0.027c-0.827 3.88 0.392 8.171 3.068 10.848l93.51 93.51c7.737 0.828 15.592 1.264 23.549 1.264 81.62 0 152.79-44.673 190.43-110.89l-114.73-114.73-0.002 0.002-63.04-63.04" opacity="0.25"/>
 <path id="path258" fill="#ffffff" d="m320.92 132.72c-3.082 0.159-5.772 1.152-7.748 3.066l-0.112 0.112-14.603 14.659-0.307 0.307 0.307 0.307 62.46 62.43 0.335 0.307 0.307-0.307 14.412-14.436 0.195-0.195c0.072-0.072 0.102-0.15 0.112-0.168 3.512-3.663 3.884-9.625 1.756-16.275-2.137-6.676-6.793-14.12-13.484-20.818l-14.157-14.185c-9.251-9.252-19.926-14.618-28.09-14.801-0.444-0.01-0.912-0.023-1.365 0m-30.24 25.58l-0.307 0.335-15.44 15.468-0.307 0.307 0.307 0.335 62.43 62.39 0.307 0.335 0.335-0.335 15.44-15.468 0.307-0.307-0.307-0.307-62.43-62.43-0.335-0.335m-24.997 24.997l-0.335 0.307-94.19 94.28-11.645 11.593-2.926 2.955-0.083 0.056-0.027 0.112-23.549 73.72-0.028 0.027c-0.847 3.972 0.45 8.375 3.26 11.04l0.028 0.027c2.606 1.949 6.07 2.436 9.03 1.254h0.028l74.72-23.605 0.083-0.027 0.083-0.083 2.425-2.452 11.259-11.231 94.61-94.58 0.307-0.335-0.307-0.307-62.43-62.43-0.307-0.307m-92.38 119.77h0.055c0.089-0.003 0.163-0.003 0.25 0 0.01 0 0.018-0.001 0.028 0h0.027c0.818 0.011 1.599 0.364 2.174 0.948l5.378 5.35 20.228-1.056c0.008-0.001 0.019 0 0.028 0 0.8-0.036 1.599 0.252 2.202 0.78 0.709 0.627 1.11 1.562 1.056 2.508l-1 22.1 3.929 3.929c0.778 0.782 1.097 1.945 0.808 3.01-0.289 1.066-1.163 1.919-2.23 2.202l-35.23 9.448h-0.027c-1.056 0.29-2.225-0.015-3.01-0.78h-0.027l-6.827-6.827c-0.801-0.791-1.116-1.983-0.808-3.066l10.311-36.23c0.324-1.227 1.415-2.172 2.675-2.313"/>
</svg>
