<?xml version="1.0" encoding="UTF-8" standalone="no"?>
<svg xmlns:dc="http://purl.org/dc/elements/1.1/" xmlns:cc="http://creativecommons.org/ns#" xmlns:rdf="http://www.w3.org/1999/02/22-rdf-syntax-ns#" xmlns:svg="http://www.w3.org/2000/svg" xmlns="http://www.w3.org/2000/svg" xmlns:xlink="http://www.w3.org/1999/xlink" xmlns:sodipodi="http://sodipodi.sourceforge.net/DTD/sodipodi-0.dtd" xmlns:inkscape="http://www.inkscape.org/namespaces/inkscape" height="512" viewBox="0 0 512 512" width="512" version="1.1" id="svg2" inkscape:version="0.91 r" sodipodi:docname="screenshot.svg">
<sodipodi:namedview pagecolor="#ffffff" bordercolor="#666666" borderopacity="1" objecttolerance="10" gridtolerance="10" guidetolerance="10" inkscape:pageopacity="0" inkscape:pageshadow="2" inkscape:window-width="1680" inkscape:window-height="994" id="namedview15" showgrid="false" inkscape:zoom="0.92187498" inkscape:cx="-46.489867" inkscape:cy="139.29124" inkscape:window-x="0" inkscape:window-y="0" inkscape:window-maximized="1" inkscape:current-layer="svg2" />
<defs id="defs17">
<linearGradient gradientTransform="matrix(0,-1,1,0,-1.5e-6,47.999998)" gradientUnits="userSpaceOnUse" x2="47" x1="1" id="linearGradient3764">
<stop id="stop7" style="stop-color:#999999;stop-opacity:1" />
<stop id="stop9" style="stop-color:#a6a6a6;stop-opacity:1" offset="1" />
</linearGradient>
<clipPath id="clipPath-301376108">
<g id="g12" transform="translate(0,-1004.3622)">
<path id="path14-6" style="fill:#737373" transform="matrix(15.333333,0,0,11.5,414.99999,878.8622)" d="m -24,13 c 0,1.105 -0.672,2 -1.5,2 -0.828,0 -1.5,-0.895 -1.5,-2 0,-1.105 0.672,-2 1.5,-2 0.828,0 1.5,0.895 1.5,2 z" inkscape:connector-curvature="0" />
</g>
</clipPath>
<clipPath id="clipPath-307844360">
<g id="g17" transform="translate(0,-1004.3622)">
<path id="path19" style="fill:#737373" transform="matrix(15.333333,0,0,11.5,414.99999,878.8622)" d="m -24,13 c 0,1.105 -0.672,2 -1.5,2 -0.828,0 -1.5,-0.895 -1.5,-2 0,-1.105 0.672,-2 1.5,-2 0.828,0 1.5,0.895 1.5,2 z" inkscape:connector-curvature="0" />
</g>
</clipPath>
<radialGradient r="0.56400001" cy="5.927" cx="6.7729998" gradientTransform="matrix(3.543307,0,0,3.543307,1.47638e-7,3.77575e-4)" gradientUnits="userSpaceOnUse" id="radialGradient3427" xlink:href="#radial0" />
<radialGradient gradientTransform="matrix(3.543307,0,0,3.543307,1.47638e-7,3.77575e-4)" r="0.56400001" cy="5.927" cx="6.7729998" gradientUnits="userSpaceOnUse" id="radial0">
<stop id="stop22" style="stop-color:#a8a8a8;stop-opacity:1" />
<stop id="stop24" style="stop-color:#a8a8a8;stop-opacity:0" offset="1" />
</radialGradient>
<radialGradient xlink:href="#radial0" gradientTransform="translate(18,8.707971)" r="1" cy="17.292" cx="6" gradientUnits="userSpaceOnUse" id="radial1" />
<radialGradient gradientTransform="matrix(3.543307,0,0,3.543307,1.47638e-7,3.77575e-4)" r="0.56400001" cy="5.927" cx="6.7729998" gradientUnits="userSpaceOnUse" id="radialGradient4257">
<stop id="stop4259" style="stop-color:#a8a8a8;stop-opacity:1" />
<stop id="stop4261" style="stop-color:#a8a8a8;stop-opacity:0" offset="1" />
</radialGradient>
</defs>
<metadata id="metadata28">
<rdf:RDF>
<cc:Work rdf:about="">
<dc:format>image/svg+xml</dc:format>
<dc:type rdf:resource="http://purl.org/dc/dcmitype/StillImage" />
<dc:title />
</cc:Work>
</rdf:RDF>
</metadata>
<path id="path6" d="m 471.95,253.05 c 0,120.9 -98.01,218.9 -218.9,218.9 -120.9,0 -218.9,-98.01 -218.9,-218.9 0,-120.9 98.01,-218.9 218.9,-218.9 120.9,0 218.9,98.01 218.9,218.9" inkscape:connector-curvature="0" style="fill:#515151;fill-rule:evenodd;fill-opacity:1" />
<path sodipodi:nodetypes="cccccccccc" inkscape:connector-curvature="0" id="path4184" d="m 395.93221,129.08474 67.25424,26.03389 8.67797,146.44069 -30.37288,73.76271 -64.00001,60.74577 -248.40678,-61.83051 17.45699,-251.55103 107.40652,18.08062 75.84514,5.05309 z" style="opacity:0.25;fill:#000000;fill-rule:evenodd;stroke:#000000;stroke-width:1px;stroke-linecap:butt;stroke-linejoin:miter;stroke-opacity:1" />
<path id="path8" d="M 256,1 C 115.17,1 1,115.17 1,256 1,396.83 115.17,511 256,511 396.83,511 511,396.83 511,256 511,115.17 396.83,1 256,1 m 8.827,44.931 c 120.9,0 218.9,98 218.9,218.9 0,120.9 -98,218.9 -218.9,218.9 -120.9,0 -218.93,-98 -218.93,-218.9 0,-120.9 98.03,-218.9 218.93,-218.9" inkscape:connector-curvature="0" style="fill-opacity:0.06700003;fill-rule:evenodd" />
<g id="g10" style="fill-opacity:0.12900002;fill-rule:evenodd">
<path id="path12" d="m 256,4.433 c -138.94,0 -251.57,112.63 -251.57,251.57 0,138.94 112.63,251.57 251.57,251.57 138.94,0 251.57,-112.63 251.57,-251.57 C 507.57,117.063 394.94,4.433 256,4.433 m 5.885,38.556 c 120.9,0 218.9,98 218.9,218.9 0,120.9 -98,218.9 -218.9,218.9 -120.9,0 -218.93,-98 -218.93,-218.9 0,-120.9 98.03,-218.9 218.93,-218.9" inkscape:connector-curvature="0" />
<path id="path14" d="m 256,8.356 c -136.77,0 -247.64,110.87 -247.64,247.64 0,136.77 110.87,247.64 247.64,247.64 136.77,0 247.64,-110.87 247.64,-247.64 C 503.64,119.226 392.77,8.356 256,8.356 m 2.942,31.691 c 120.9,0 218.9,98 218.9,218.9 0,120.9 -98,218.9 -218.9,218.9 -120.9,0 -218.93,-98 -218.93,-218.9 0,-120.9 98.03,-218.9 218.93,-218.9" inkscape:connector-curvature="0" />
</g>
<path id="path16" d="m 253.04,7.859 c -135.42,0 -245.19,109.78 -245.19,245.19 0,135.42 109.78,245.19 245.19,245.19 135.42,0 245.19,-109.78 245.19,-245.19 0,-135.42 -109.78,-245.19 -245.19,-245.19 z m 0,26.297 c 120.9,0 218.9,98 218.9,218.9 0,120.9 -98,218.9 -218.9,218.9 -120.9,0 -218.93,-98 -218.93,-218.9 0,-120.9 98.03,-218.9 218.93,-218.9 z" inkscape:connector-curvature="0" style="fill:#ffffff;fill-rule:evenodd;stroke:#000000;stroke-width:4.90399981;stroke-opacity:0.31000001" />
<ellipse ry="35.526756" rx="40.982025" style="color:#000000;display:inline;overflow:visible;visibility:visible;fill:#c5c5c5;fill-opacity:1;fill-rule:nonzero;stroke:none;stroke-width:16;marker:none;enable-background:accumulate" id="path6689" cx="228.88496" cy="211.58107" />
<rect ry="11.020495" rx="12.712735" y="148.39687" x="142.63612" height="202.18935" width="233.23628" id="rect7283" style="color:#000000;display:inline;overflow:visible;visibility:visible;fill:none;stroke:#ffffff;stroke-width:17.91467857;marker:none;enable-background:accumulate" />
<path sodipodi:nodetypes="ccccccc" inkscape:connector-curvature="0" id="path7395" d="m 354.70771,272.75198 c -8.65602,-0.12593 -16.8474,2.88866 -23.9761,10.03392 l -50.95862,51.0818 61.08213,0 c 3.48573,-6.77167 8.29387,-10.33053 15.80676,-13.20031 l 0,-47.7851 c -0.65167,-0.0442 -1.30709,-0.12093 -1.95417,-0.13031 z" style="fill:#c5c5c5;fill-opacity:1;stroke:none" />
<path sodipodi:nodetypes="sccccs" inkscape:connector-curvature="0" id="path7393" d="m 192.88779,285.26181 c -10.05639,0.093 -20.60818,2.35272 -31.04119,6.25491 l 0,28.08196 c 5.9455,2.50751 12.42686,6.74528 16.46009,14.26902 l 101.4663,0 c -11.70436,-35.61953 -62.08406,-48.83514 -86.8852,-48.60589 z" style="fill:#c5c5c5;fill-opacity:1;stroke:none" />
<ellipse ry="26.062141" rx="30.064083" id="path7287" style="color:#000000;display:inline;overflow:visible;visibility:visible;fill:#ffffff;fill-opacity:1;stroke:none;stroke-width:8;marker:none;enable-background:accumulate" cx="375.87241" cy="148.39687" />
<ellipse ry="26.062141" rx="30.064083" style="color:#000000;display:inline;overflow:visible;visibility:visible;fill:#ffffff;fill-opacity:1;stroke:none;stroke-width:8;marker:none;enable-background:accumulate" id="path7289" cx="142.63608" cy="148.39687" />
<ellipse ry="26.062141" rx="30.064083" style="color:#000000;display:inline;overflow:visible;visibility:visible;fill:#ffffff;fill-opacity:1;stroke:none;stroke-width:8;marker:none;enable-background:accumulate" id="path7291" cx="375.87241" cy="350.58621" />
<ellipse ry="26.062141" rx="30.064083" id="path7293" style="color:#000000;display:inline;overflow:visible;visibility:visible;fill:#ffffff;fill-opacity:1;stroke:none;stroke-width:8;marker:none;enable-background:accumulate" cx="142.63608" cy="350.58621" />
</svg>
