<?xml version="1.0" encoding="UTF-8" standalone="no"?>
<svg xmlns="http://www.w3.org/2000/svg" xmlns:sodipodi="http://sodipodi.sourceforge.net/DTD/sodipodi-0.dtd" xmlns:inkscape="http://www.inkscape.org/namespaces/inkscape" height="512" viewBox="0 0 512 512" width="512" version="1.1">
 <metadata id="metadata70"/>
 <defs id="defs68">
  <filter color-interpolation-filters="sRGB" id="filter3174">
   <feGaussianBlur stdDeviation="1.71" id="feGaussianBlur3176"/>
  </filter>
  <linearGradient y2="7.02" x2="0" gradientTransform="matrix(1.0059 0 0 .99417 627.81 52.174)" y1="92.54" gradientUnits="userSpaceOnUse" id="linearGradient3393">
   <stop id="stop3750"/>
   <stop offset="1" stop-opacity="0.588" id="stop3752"/>
  </linearGradient>
  <linearGradient y2="6.28" x2="0" gradientTransform="matrix(4.4499 0 0 4.4499 42.186 77.475)" y1="81.5" gradientUnits="userSpaceOnUse" id="linearGradient3406">
   <stop stop-color="#ffffff" id="stop8206"/>
   <stop offset="1" stop-opacity="0" stop-color="#acacac" id="stop8208"/>
  </linearGradient>
 </defs>
 <path d="m471.95 253.05c0 120.9-98.006 218.91-218.91 218.91s-218.91-98.006-218.91-218.91 98.006-218.91 218.91-218.91 218.91 98.006 218.91 218.91" fill="#757575" fill-rule="evenodd" id="path8"/>
 <path fill="url(#linearGradient3406)" d="m146.31 96.308c71.33 94.082-78.243 157.44-58.129 232.51 19.579 73.08 108.02 69.4 139.9 109.16-22.01-42.73-52.11-40.57-63.97-80.66-30.17-101.91 283.47-152.82 181.61-261.01h-199.41z" id="path8185"/>
 <path fill-opacity="0.067" fill-rule="evenodd" d="m256 1c-140.83 0-255 114.17-255 255s114.17 255 255 255 255-114.17 255-255-114.17-255-255-255m8.827 44.931c120.9 0 218.9 98 218.9 218.9s-98 218.9-218.9 218.9-218.93-98-218.93-218.9 98.03-218.9 218.93-218.9" id="path10"/>
 <g fill-opacity="0.129" transform="translate(0,-540.36)" fill-rule="evenodd" id="g12">
  <path d="m256 544.79c-138.94 0-251.57 112.63-251.57 251.57s112.63 251.54 251.57 251.54 251.57-112.6 251.57-251.54-112.63-251.57-251.57-251.57m5.885 38.556c120.9 0 218.9 98 218.9 218.9s-98 218.9-218.9 218.9-218.93-98-218.93-218.9 98.03-218.9 218.93-218.9" id="path14"/>
  <path d="m256 548.72c-136.77 0-247.64 110.87-247.64 247.64s110.87 247.64 247.64 247.64 247.64-110.87 247.64-247.64-110.87-247.64-247.64-247.64m2.942 31.691c120.9 0 218.9 98 218.9 218.9s-98 218.9-218.9 218.9-218.93-98-218.93-218.9 98.03-218.9 218.93-218.9" id="path16"/>
 </g>
 <path fill="#ffffff" stroke-width="4.904" stroke="#000000" fill-rule="evenodd" stroke-opacity="0.31" d="m253.04 7.86c-135.42 0-245.19 109.78-245.19 245.19 0 135.42 109.78 245.19 245.19 245.19 135.42 0 245.19-109.78 245.19-245.19 0-135.42-109.78-245.19-245.19-245.19zm0 26.297c120.9 0 218.9 98 218.9 218.9s-98 218.9-218.9 218.9-218.93-98-218.93-218.9 98.03-218.9 218.93-218.9z" id="path18"/>
 <text font-family="Gentium Book Basic" x="729.64" y="231.36" line-height="125%" font-size="129.23" id="text20" word-spacing="0" letter-spacing="0"><tspan x="729.64" y="231.36" id="tspan22"/>
 </text>
 <text font-family="Arial" x="378.91" y="579.26" transform="scale(4.0128 .24920)" font-size="46.954" id="text24" text-anchor="middle"/>
 <text font-family="Gentium Book Basic" x="1310.91" y="151.36" line-height="125%" font-size="129.23" id="text26" word-spacing="0" letter-spacing="0"><tspan x="1310.91" y="151.36" id="tspan28"/>
 </text>
 <text font-family="Arial" x="523.76" y="258.22" transform="scale(4.0128 .24920)" font-size="46.954" id="text30" text-anchor="middle"/>
 <text font-family="Gentium Book Basic" x="239.33" y="-29.9" line-height="125%" font-size="129.23" id="text32" word-spacing="0" letter-spacing="0"><tspan x="239.33" y="-29.9" id="tspan34"/>
 </text>
 <text font-family="Arial" x="256.72" y="-469.13" transform="scale(4.0128 .24920)" font-size="46.954" id="text36" text-anchor="middle"/>
 <text font-family="Gentium Book Basic" x="1337.38" y="-246.37" line-height="125%" font-size="129.23" id="text38" word-spacing="0" letter-spacing="0"><tspan x="1337.38" y="-246.37" id="tspan40"/>
 </text>
 <text font-family="Arial" x="530.36" y="-1337.8" transform="scale(4.0128 .24920)" font-size="46.954" id="text42" text-anchor="middle"/>
 <text font-family="Gentium Book Basic" x="1918.65" y="-326.37" line-height="125%" font-size="129.23" id="text44" word-spacing="0" letter-spacing="0"><tspan x="1918.65" y="-326.37" id="tspan46"/>
 </text>
 <text font-family="Arial" x="675.21" y="-1658.83" transform="scale(4.0128 .24920)" font-size="46.954" id="text48" text-anchor="middle"/>
 <text font-family="Gentium Book Basic" x="1529.53" y="-798.77" line-height="125%" font-size="129.23" id="text50" word-spacing="0" letter-spacing="0"><tspan x="1529.53" y="-798.77" id="tspan52"/>
 </text>
 <text font-family="Arial" x="578.24" y="-3554.48" transform="scale(4.0128 .24920)" font-size="46.954" id="text54" text-anchor="middle"/>
 <text font-family="Gentium Book Basic" x="2110.79" y="-878.78" line-height="125%" font-size="129.23" id="text56" word-spacing="0" letter-spacing="0"><tspan x="2110.79" y="-878.78" id="tspan58"/>
 </text>
 <text font-family="Arial" x="723.09" y="-3875.52" transform="scale(4.0128 .24920)" font-size="46.954" id="text60" text-anchor="middle"/>
 <text font-family="Gentium Book Basic" x="277.99" y="535.94" line-height="125%" font-size="208.33" id="text62" word-spacing="0" letter-spacing="0"><tspan x="277.99" y="535.94" id="tspan64"/>
 </text>
 <path d="m392.72 84.5-0.15625 0.28125c-1.912 3.0361-3.521 6.2005-4.7812 9-23.081 51.27-58.43 91.284-81.312 137.91-12.072 24.595-19.335 47.679-21.812 65.344-2.5118 3.1711-3.6407 7.0733-3.0938 10.906-5.5587 9.7112-21.607 37.761-30.312 55.719-10.54 21.72-23.54 72.84-23.54 72.84l35.219 35.219c116.31-5.1747 209-101.08 209-218.66 0-67.8-30.823-128.41-79.219-168.56z" opacity="0.25" id="path3568" color="#000000"/>
 <path d="m393.91 82.625-1.3438 2.1562c-1.912 3.0361-3.521 6.2005-4.7812 9-23.081 51.27-58.43 91.284-81.312 137.91-12.072 24.595-19.335 47.679-21.812 65.344-2.5118 3.1711-3.6407 7.0733-3.0938 10.906-5.5587 9.7112-21.607 37.761-30.312 55.719-10.55 21.72-23.55 72.84-23.55 72.84l3.9375 1.9062c20.31-27.06 67.15-62.41 67.15-62.41l1.5625-1.1875-0.96875-1.6875s-0.46106-0.7376-0.96875-3.0938-0.95659-6.1515-0.5625-11.656c0.85075-11.883 7.8776-26.699 12.938-35.781 1.9911-1.5817 3.8906-3.3454 5.9375-5.3125l0.375-0.15625 0.28125-0.28125c0.62141-0.60233 0.82946-0.98555 0.8125-0.96875 13.106-12.982 28.226-34.024 40.5-59.031 22.27-45.35 35.1-95.05 60.73-147.34l0.65625-1.3125-1-1.125c-7.18-8.153-14.94-15.757-23.22-22.779l-1.97-1.656z" fill="#ffffff" id="path3415" color="#000000"/>
</svg>
