<?xml version="1.0" encoding="UTF-8" standalone="no"?>
<svg xmlns="http://www.w3.org/2000/svg" xmlns:sodipodi="http://sodipodi.sourceforge.net/DTD/sodipodi-0.dtd" xmlns:inkscape="http://www.inkscape.org/namespaces/inkscape" viewBox="0 0 512 512" version="1.1" width="512" height="512">
 <metadata id="metadata502"/>
 <text id="text4" line-height="125%" font-family="&apos;Gentium Book Basic&apos;" x="729.64" y="231.36" font-size="129.23" word-spacing="0" letter-spacing="0"><tspan id="tspan6" x="729.64" y="231.36"/>
 </text>
 <text id="text8" font-family="Arial" x="378.91" y="579.26" font-size="46.954" transform="scale(4.0128.2492)" text-anchor="middle"/>
 <text id="text10" line-height="125%" font-family="&apos;Gentium Book Basic&apos;" x="1310.91" y="151.36" font-size="129.23" word-spacing="0" letter-spacing="0"><tspan id="tspan12" x="1310.91" y="151.36"/>
 </text>
 <text id="text14" font-family="Arial" x="523.76" y="258.22" font-size="46.954" transform="scale(4.0128.2492)" text-anchor="middle"/>
 <text id="text16" line-height="125%" font-family="&apos;Gentium Book Basic&apos;" x="239.33" y="-29.9" font-size="129.23" word-spacing="0" letter-spacing="0"><tspan id="tspan18" x="239.33" y="-29.9"/>
 </text>
 <text id="text20" font-family="Arial" x="256.72" y="-469.13" font-size="46.954" transform="scale(4.0128.2492)" text-anchor="middle"/>
 <text id="text22" line-height="125%" font-family="&apos;Gentium Book Basic&apos;" x="1337.38" y="-246.37" font-size="129.23" word-spacing="0" letter-spacing="0"><tspan id="tspan24" x="1337.38" y="-246.37"/>
 </text>
 <text id="text26" font-family="Arial" x="530.36" y="-1337.8" font-size="46.954" transform="scale(4.0128.2492)" text-anchor="middle"/>
 <text id="text28" line-height="125%" font-family="&apos;Gentium Book Basic&apos;" x="1918.65" y="-326.37" font-size="129.23" word-spacing="0" letter-spacing="0"><tspan id="tspan30" x="1918.65" y="-326.37"/>
 </text>
 <text id="text32" font-family="Arial" x="675.21" y="-1658.83" font-size="46.954" transform="scale(4.0128.2492)" text-anchor="middle"/>
 <text id="text34" line-height="125%" font-family="&apos;Gentium Book Basic&apos;" x="1529.53" y="-798.77" font-size="129.23" word-spacing="0" letter-spacing="0"><tspan id="tspan36" x="1529.53" y="-798.77"/>
 </text>
 <text id="text38" font-family="Arial" x="578.24" y="-3554.48" font-size="46.954" transform="scale(4.0128.2492)" text-anchor="middle"/>
 <text id="text40" line-height="125%" font-family="&apos;Gentium Book Basic&apos;" x="2110.79" y="-878.78" font-size="129.23" word-spacing="0" letter-spacing="0"><tspan id="tspan42" x="2110.79" y="-878.78"/>
 </text>
 <text id="text44" font-family="Arial" x="723.09" y="-3875.52" font-size="46.954" transform="scale(4.0128.2492)" text-anchor="middle"/>
 <g id="g46" line-height="125%" font-family="&apos;Gentium Book Basic&apos;" word-spacing="0" letter-spacing="0">
  <text id="text48" font-size="208.33" x="277.99" y="535.94"><tspan id="tspan50" x="277.99" y="535.94"/>
  </text>
  <text id="text52" font-size="129.23" x="729.64" y="231.36"><tspan id="tspan54" x="729.64" y="231.36"/>
  </text>
 </g>
 <text id="text56" font-family="Arial" x="378.91" y="579.26" font-size="46.954" transform="scale(4.0128.2492)" text-anchor="middle"/>
 <text id="text58" line-height="125%" font-family="&apos;Gentium Book Basic&apos;" x="1310.91" y="151.36" font-size="129.23" word-spacing="0" letter-spacing="0"><tspan id="tspan60" x="1310.91" y="151.36"/>
 </text>
 <text id="text62" font-family="Arial" x="523.76" y="258.22" font-size="46.954" transform="scale(4.0128.2492)" text-anchor="middle"/>
 <text id="text64" line-height="125%" font-family="&apos;Gentium Book Basic&apos;" x="239.33" y="-29.9" font-size="129.23" word-spacing="0" letter-spacing="0"><tspan id="tspan66" x="239.33" y="-29.9"/>
 </text>
 <text id="text68" font-family="Arial" x="256.72" y="-469.13" font-size="46.954" transform="scale(4.0128.2492)" text-anchor="middle"/>
 <text id="text70" line-height="125%" font-family="&apos;Gentium Book Basic&apos;" x="1337.38" y="-246.37" font-size="129.23" word-spacing="0" letter-spacing="0"><tspan id="tspan72" x="1337.38" y="-246.37"/>
 </text>
 <text id="text74" font-family="Arial" x="530.36" y="-1337.8" font-size="46.954" transform="scale(4.0128.2492)" text-anchor="middle"/>
 <text id="text76" line-height="125%" font-family="&apos;Gentium Book Basic&apos;" x="1918.65" y="-326.37" font-size="129.23" word-spacing="0" letter-spacing="0"><tspan id="tspan78" x="1918.65" y="-326.37"/>
 </text>
 <text id="text80" font-family="Arial" x="675.21" y="-1658.83" font-size="46.954" transform="scale(4.0128.2492)" text-anchor="middle"/>
 <text id="text82" line-height="125%" font-family="&apos;Gentium Book Basic&apos;" x="1529.53" y="-798.77" font-size="129.23" word-spacing="0" letter-spacing="0"><tspan id="tspan84" x="1529.53" y="-798.77"/>
 </text>
 <text id="text86" font-family="Arial" x="578.24" y="-3554.48" font-size="46.954" transform="scale(4.0128.2492)" text-anchor="middle"/>
 <text id="text88" line-height="125%" font-family="&apos;Gentium Book Basic&apos;" x="2110.79" y="-878.78" font-size="129.23" word-spacing="0" letter-spacing="0"><tspan id="tspan90" x="2110.79" y="-878.78"/>
 </text>
 <text id="text92" font-family="Arial" x="723.09" y="-3875.52" font-size="46.954" transform="scale(4.0128.2492)" text-anchor="middle"/>
 <g id="g94" line-height="125%" font-family="&apos;Gentium Book Basic&apos;" word-spacing="0" letter-spacing="0">
  <text id="text96" font-size="208.33" x="277.99" y="535.94"><tspan id="tspan98" x="277.99" y="535.94"/>
  </text>
  <text id="text100" font-size="129.23" x="729.64" y="231.36"><tspan id="tspan102" x="729.64" y="231.36"/>
  </text>
 </g>
 <text id="text104" font-family="Arial" x="378.91" y="579.25" font-size="46.954" transform="scale(4.0128.2492)" text-anchor="middle"/>
 <text id="text106" line-height="125%" font-family="&apos;Gentium Book Basic&apos;" x="1310.91" y="151.36" font-size="129.23" word-spacing="0" letter-spacing="0"><tspan id="tspan108" x="1310.91" y="151.36"/>
 </text>
 <text id="text110" font-family="Arial" x="523.76" y="258.22" font-size="46.954" transform="scale(4.0128.2492)" text-anchor="middle"/>
 <text id="text112" line-height="125%" font-family="&apos;Gentium Book Basic&apos;" x="239.33" y="-29.901" font-size="129.23" word-spacing="0" letter-spacing="0"><tspan id="tspan114" x="239.33" y="-29.901"/>
 </text>
 <text id="text116" font-family="Arial" x="256.72" y="-469.14" font-size="46.954" transform="scale(4.0128.2492)" text-anchor="middle"/>
 <text id="text118" line-height="125%" font-family="&apos;Gentium Book Basic&apos;" x="1337.38" y="-246.37" font-size="129.23" word-spacing="0" letter-spacing="0"><tspan id="tspan120" x="1337.38" y="-246.37"/>
 </text>
 <text id="text122" font-family="Arial" x="530.36" y="-1337.8" font-size="46.954" transform="scale(4.0128.2492)" text-anchor="middle"/>
 <text id="text124" line-height="125%" font-family="&apos;Gentium Book Basic&apos;" x="1918.65" y="-326.38" font-size="129.23" word-spacing="0" letter-spacing="0"><tspan id="tspan126" x="1918.65" y="-326.38"/>
 </text>
 <text id="text128" font-family="Arial" x="675.21" y="-1658.84" font-size="46.954" transform="scale(4.0128.2492)" text-anchor="middle"/>
 <text id="text130" line-height="125%" font-family="&apos;Gentium Book Basic&apos;" x="1529.53" y="-798.78" font-size="129.23" word-spacing="0" letter-spacing="0"><tspan id="tspan132" x="1529.53" y="-798.78"/>
 </text>
 <text id="text134" font-family="Arial" x="578.24" y="-3554.49" font-size="46.954" transform="scale(4.0128.2492)" text-anchor="middle"/>
 <text id="text136" line-height="125%" font-family="&apos;Gentium Book Basic&apos;" x="2110.79" y="-878.78" font-size="129.23" word-spacing="0" letter-spacing="0"><tspan id="tspan138" x="2110.79" y="-878.78"/>
 </text>
 <text id="text140" font-family="Arial" x="723.09" y="-3875.52" font-size="46.954" transform="scale(4.0128.2492)" text-anchor="middle"/>
 <g id="g142" line-height="125%" font-family="&apos;Gentium Book Basic&apos;" word-spacing="0" letter-spacing="0">
  <text id="text144" font-size="208.33" x="277.99" y="535.94"><tspan id="tspan146" x="277.99" y="535.94"/>
  </text>
  <text id="text148" font-size="129.23" x="729.64" y="231.36"><tspan id="tspan150" x="729.64" y="231.36"/>
  </text>
 </g>
 <text id="text152" font-family="Arial" x="378.91" y="579.26" font-size="46.954" transform="scale(4.0128.2492)" text-anchor="middle"/>
 <text id="text154" line-height="125%" font-family="&apos;Gentium Book Basic&apos;" x="1310.91" y="151.36" font-size="129.23" word-spacing="0" letter-spacing="0"><tspan id="tspan156" x="1310.91" y="151.36"/>
 </text>
 <text id="text158" font-family="Arial" x="523.76" y="258.22" font-size="46.954" transform="scale(4.0128.2492)" text-anchor="middle"/>
 <text id="text160" line-height="125%" font-family="&apos;Gentium Book Basic&apos;" x="239.33" y="-29.9" font-size="129.23" word-spacing="0" letter-spacing="0"><tspan id="tspan162" x="239.33" y="-29.9"/>
 </text>
 <text id="text164" font-family="Arial" x="256.72" y="-469.13" font-size="46.954" transform="scale(4.0128.2492)" text-anchor="middle"/>
 <text id="text166" line-height="125%" font-family="&apos;Gentium Book Basic&apos;" x="1337.38" y="-246.37" font-size="129.23" word-spacing="0" letter-spacing="0"><tspan id="tspan168" x="1337.38" y="-246.37"/>
 </text>
 <text id="text170" font-family="Arial" x="530.36" y="-1337.8" font-size="46.954" transform="scale(4.0128.2492)" text-anchor="middle"/>
 <text id="text172" line-height="125%" font-family="&apos;Gentium Book Basic&apos;" x="1918.65" y="-326.37" font-size="129.23" word-spacing="0" letter-spacing="0"><tspan id="tspan174" x="1918.65" y="-326.37"/>
 </text>
 <text id="text176" font-family="Arial" x="675.21" y="-1658.83" font-size="46.954" transform="scale(4.0128.2492)" text-anchor="middle"/>
 <text id="text178" line-height="125%" font-family="&apos;Gentium Book Basic&apos;" x="1529.53" y="-798.77" font-size="129.23" word-spacing="0" letter-spacing="0"><tspan id="tspan180" x="1529.53" y="-798.77"/>
 </text>
 <text id="text182" font-family="Arial" x="578.24" y="-3554.48" font-size="46.954" transform="scale(4.0128.2492)" text-anchor="middle"/>
 <text id="text184" line-height="125%" font-family="&apos;Gentium Book Basic&apos;" x="2110.79" y="-878.78" font-size="129.23" word-spacing="0" letter-spacing="0"><tspan id="tspan186" x="2110.79" y="-878.78"/>
 </text>
 <text id="text188" font-family="Arial" x="723.09" y="-3875.52" font-size="46.954" transform="scale(4.0128.2492)" text-anchor="middle"/>
 <g id="g190" line-height="125%" font-family="&apos;Gentium Book Basic&apos;" word-spacing="0" letter-spacing="0">
  <text id="text192" font-size="208.33" x="277.99" y="535.94"><tspan id="tspan194" x="277.99" y="535.94"/>
  </text>
  <text id="text196" font-size="129.23" x="13.421" y="260.32"><tspan id="tspan198" x="13.421" y="260.32"/>
  </text>
 </g>
 <text id="text200" font-family="Arial" x="200.43" y="695.45" font-size="46.954" transform="scale(4.0128.2492)" text-anchor="middle"/>
 <text id="text202" line-height="125%" font-family="&apos;Gentium Book Basic&apos;" x="594.69" y="180.32" font-size="129.23" word-spacing="0" letter-spacing="0"><tspan id="tspan204" x="594.69" y="180.32"/>
 </text>
 <text id="text206" font-family="Arial" x="345.27" y="374.43" font-size="46.954" transform="scale(4.0128.2492)" text-anchor="middle"/>
 <text id="text208" line-height="125%" font-family="&apos;Gentium Book Basic&apos;" x="-476.89" y="-0.942" font-size="129.23" word-spacing="0" letter-spacing="0"><tspan id="tspan210" x="-476.89" y="-0.942"/>
 </text>
 <text id="text212" font-family="Arial" x="78.24" y="-352.93" font-size="46.954" transform="scale(4.0128.2492)" text-anchor="middle"/>
 <text id="text214" line-height="125%" font-family="&apos;Gentium Book Basic&apos;" x="621.16" y="-217.41" font-size="129.23" word-spacing="0" letter-spacing="0"><tspan id="tspan216" x="621.16" y="-217.41"/>
 </text>
 <text id="text218" font-family="Arial" x="351.87" y="-1221.6" font-size="46.954" transform="scale(4.0128.2492)" text-anchor="middle"/>
 <text id="text220" line-height="125%" font-family="&apos;Gentium Book Basic&apos;" x="1202.43" y="-297.42" font-size="129.23" word-spacing="0" letter-spacing="0"><tspan id="tspan222" x="1202.43" y="-297.42"/>
 </text>
 <text id="text224" font-family="Arial" x="496.72" y="-1542.63" font-size="46.954" transform="scale(4.0128.2492)" text-anchor="middle"/>
 <text id="text226" line-height="125%" font-family="&apos;Gentium Book Basic&apos;" x="813.31" y="-769.82" font-size="129.23" word-spacing="0" letter-spacing="0"><tspan id="tspan228" x="813.31" y="-769.82"/>
 </text>
 <text id="text230" font-family="Arial" x="399.75" y="-3438.29" font-size="46.954" transform="scale(4.0128.2492)" text-anchor="middle"/>
 <text id="text232" line-height="125%" font-family="&apos;Gentium Book Basic&apos;" x="1394.57" y="-849.82" font-size="129.23" word-spacing="0" letter-spacing="0"><tspan id="tspan234" x="1394.57" y="-849.82"/>
 </text>
 <text id="text236" font-family="Arial" x="544.6" y="-3759.31" font-size="46.954" transform="scale(4.0128.2492)" text-anchor="middle"/>
 <g id="g238" line-height="125%" font-family="&apos;Gentium Book Basic&apos;" word-spacing="0" letter-spacing="0">
  <text id="text240" font-size="208.33" x="-438.23" y="564.9"><tspan id="tspan242" x="-438.23" y="564.9"/>
  </text>
  <text id="text244" font-size="129.23" x="13.421" y="260.32"><tspan id="tspan246" x="13.421" y="260.32"/>
  </text>
 </g>
 <text id="text248" font-family="Arial" x="200.43" y="695.45" font-size="46.954" transform="scale(4.0128.2492)" text-anchor="middle"/>
 <text id="text250" line-height="125%" font-family="&apos;Gentium Book Basic&apos;" x="594.69" y="180.32" font-size="129.23" word-spacing="0" letter-spacing="0"><tspan id="tspan252" x="594.69" y="180.32"/>
 </text>
 <text id="text254" font-family="Arial" x="345.27" y="374.43" font-size="46.954" transform="scale(4.0128.2492)" text-anchor="middle"/>
 <text id="text256" line-height="125%" font-family="&apos;Gentium Book Basic&apos;" x="-476.89" y="-0.942" font-size="129.23" word-spacing="0" letter-spacing="0"><tspan id="tspan258" x="-476.89" y="-0.942"/>
 </text>
 <text id="text260" font-family="Arial" x="78.24" y="-352.93" font-size="46.954" transform="scale(4.0128.2492)" text-anchor="middle"/>
 <text id="text262" line-height="125%" font-family="&apos;Gentium Book Basic&apos;" x="621.16" y="-217.41" font-size="129.23" word-spacing="0" letter-spacing="0"><tspan id="tspan264" x="621.16" y="-217.41"/>
 </text>
 <text id="text266" font-family="Arial" x="351.87" y="-1221.59" font-size="46.954" transform="scale(4.0128.2492)" text-anchor="middle"/>
 <text id="text268" line-height="125%" font-family="&apos;Gentium Book Basic&apos;" x="1202.43" y="-297.42" font-size="129.23" word-spacing="0" letter-spacing="0"><tspan id="tspan270" x="1202.43" y="-297.42"/>
 </text>
 <text id="text272" font-family="Arial" x="496.72" y="-1542.62" font-size="46.954" transform="scale(4.0128.2492)" text-anchor="middle"/>
 <text id="text274" line-height="125%" font-family="&apos;Gentium Book Basic&apos;" x="813.31" y="-769.82" font-size="129.23" word-spacing="0" letter-spacing="0"><tspan id="tspan276" x="813.31" y="-769.82"/>
 </text>
 <text id="text278" font-family="Arial" x="399.75" y="-3438.27" font-size="46.954" transform="scale(4.0128.2492)" text-anchor="middle"/>
 <text id="text280" line-height="125%" font-family="&apos;Gentium Book Basic&apos;" x="1394.57" y="-849.82" font-size="129.23" word-spacing="0" letter-spacing="0"><tspan id="tspan282" x="1394.57" y="-849.82"/>
 </text>
 <text id="text284" font-family="Arial" x="544.6" y="-3759.29" font-size="46.954" transform="scale(4.0128.2492)" text-anchor="middle"/>
 <g id="g286" line-height="125%" font-family="&apos;Gentium Book Basic&apos;" word-spacing="0" letter-spacing="0">
  <text id="text288" font-size="208.33" x="-438.23" y="564.9"><tspan id="tspan290" x="-438.23" y="564.9"/>
  </text>
  <text id="text292" font-size="129.23" x="729.64" y="231.36"><tspan id="tspan294" x="729.64" y="231.36"/>
  </text>
 </g>
 <text id="text296" font-family="Arial" x="378.91" y="579.26" font-size="46.954" transform="scale(4.0128.2492)" text-anchor="middle"/>
 <text id="text298" line-height="125%" font-family="&apos;Gentium Book Basic&apos;" x="1310.91" y="151.36" font-size="129.23" word-spacing="0" letter-spacing="0"><tspan id="tspan300" x="1310.91" y="151.36"/>
 </text>
 <text id="text302" font-family="Arial" x="523.76" y="258.22" font-size="46.954" transform="scale(4.0128.2492)" text-anchor="middle"/>
 <text id="text304" line-height="125%" font-family="&apos;Gentium Book Basic&apos;" x="239.33" y="-29.9" font-size="129.23" word-spacing="0" letter-spacing="0"><tspan id="tspan306" x="239.33" y="-29.9"/>
 </text>
 <text id="text308" font-family="Arial" x="256.72" y="-469.13" font-size="46.954" transform="scale(4.0128.2492)" text-anchor="middle"/>
 <text id="text310" line-height="125%" font-family="&apos;Gentium Book Basic&apos;" x="1337.38" y="-246.37" font-size="129.23" word-spacing="0" letter-spacing="0"><tspan id="tspan312" x="1337.38" y="-246.37"/>
 </text>
 <text id="text314" font-family="Arial" x="530.36" y="-1337.8" font-size="46.954" transform="scale(4.0128.2492)" text-anchor="middle"/>
 <text id="text316" line-height="125%" font-family="&apos;Gentium Book Basic&apos;" x="1918.65" y="-326.37" font-size="129.23" word-spacing="0" letter-spacing="0"><tspan id="tspan318" x="1918.65" y="-326.37"/>
 </text>
 <text id="text320" font-family="Arial" x="675.21" y="-1658.83" font-size="46.954" transform="scale(4.0128.2492)" text-anchor="middle"/>
 <text id="text322" line-height="125%" font-family="&apos;Gentium Book Basic&apos;" x="1529.53" y="-798.77" font-size="129.23" word-spacing="0" letter-spacing="0"><tspan id="tspan324" x="1529.53" y="-798.77"/>
 </text>
 <text id="text326" font-family="Arial" x="578.24" y="-3554.48" font-size="46.954" transform="scale(4.0128.2492)" text-anchor="middle"/>
 <text id="text328" line-height="125%" font-family="&apos;Gentium Book Basic&apos;" x="2110.79" y="-878.78" font-size="129.23" word-spacing="0" letter-spacing="0"><tspan id="tspan330" x="2110.79" y="-878.78"/>
 </text>
 <text id="text332" font-family="Arial" x="723.09" y="-3875.52" font-size="46.954" transform="scale(4.0128.2492)" text-anchor="middle"/>
 <g id="g334" line-height="125%" font-family="&apos;Gentium Book Basic&apos;" word-spacing="0" letter-spacing="0">
  <text id="text336" font-size="208.33" x="277.99" y="535.94"><tspan id="tspan338" x="277.99" y="535.94"/>
  </text>
  <text id="text340" font-size="129.23" x="13.421" y="260.32"><tspan id="tspan342" x="13.421" y="260.32"/>
  </text>
 </g>
 <text id="text344" font-family="Arial" x="200.43" y="695.45" font-size="46.954" transform="scale(4.0128.2492)" text-anchor="middle"/>
 <text id="text346" line-height="125%" font-family="&apos;Gentium Book Basic&apos;" x="594.69" y="180.32" font-size="129.23" word-spacing="0" letter-spacing="0"><tspan id="tspan348" x="594.69" y="180.32"/>
 </text>
 <text id="text350" font-family="Arial" x="345.27" y="374.43" font-size="46.954" transform="scale(4.0128.2492)" text-anchor="middle"/>
 <text id="text352" line-height="125%" font-family="&apos;Gentium Book Basic&apos;" x="-476.89" y="-0.942" font-size="129.23" word-spacing="0" letter-spacing="0"><tspan id="tspan354" x="-476.89" y="-0.942"/>
 </text>
 <text id="text356" font-family="Arial" x="78.24" y="-352.93" font-size="46.954" transform="scale(4.0128.2492)" text-anchor="middle"/>
 <text id="text358" line-height="125%" font-family="&apos;Gentium Book Basic&apos;" x="621.16" y="-217.41" font-size="129.23" word-spacing="0" letter-spacing="0"><tspan id="tspan360" x="621.16" y="-217.41"/>
 </text>
 <text id="text362" font-family="Arial" x="351.87" y="-1221.6" font-size="46.954" transform="scale(4.0128.2492)" text-anchor="middle"/>
 <text id="text364" line-height="125%" font-family="&apos;Gentium Book Basic&apos;" x="1202.43" y="-297.42" font-size="129.23" word-spacing="0" letter-spacing="0"><tspan id="tspan366" x="1202.43" y="-297.42"/>
 </text>
 <text id="text368" font-family="Arial" x="496.72" y="-1542.63" font-size="46.954" transform="scale(4.0128.2492)" text-anchor="middle"/>
 <text id="text370" line-height="125%" font-family="&apos;Gentium Book Basic&apos;" x="813.31" y="-769.82" font-size="129.23" word-spacing="0" letter-spacing="0"><tspan id="tspan372" x="813.31" y="-769.82"/>
 </text>
 <text id="text374" font-family="Arial" x="399.75" y="-3438.29" font-size="46.954" transform="scale(4.0128.2492)" text-anchor="middle"/>
 <text id="text376" line-height="125%" font-family="&apos;Gentium Book Basic&apos;" x="1394.57" y="-849.82" font-size="129.23" word-spacing="0" letter-spacing="0"><tspan id="tspan378" x="1394.57" y="-849.82"/>
 </text>
 <text id="text380" font-family="Arial" x="544.6" y="-3759.31" font-size="46.954" transform="scale(4.0128.2492)" text-anchor="middle"/>
 <g id="g382" line-height="125%" font-family="&apos;Gentium Book Basic&apos;" word-spacing="0" letter-spacing="0">
  <text id="text384" font-size="208.33" x="-438.23" y="564.9"><tspan id="tspan386" x="-438.23" y="564.9"/>
  </text>
  <text id="text388" font-size="129.23" x="13.421" y="260.32"><tspan id="tspan390" x="13.421" y="260.32"/>
  </text>
 </g>
 <text id="text392" font-family="Arial" x="200.43" y="695.45" font-size="46.954" transform="scale(4.0128.2492)" text-anchor="middle"/>
 <text id="text394" line-height="125%" font-family="&apos;Gentium Book Basic&apos;" x="594.69" y="180.32" font-size="129.23" word-spacing="0" letter-spacing="0"><tspan id="tspan396" x="594.69" y="180.32"/>
 </text>
 <text id="text398" font-family="Arial" x="345.27" y="374.43" font-size="46.954" transform="scale(4.0128.2492)" text-anchor="middle"/>
 <text id="text400" line-height="125%" font-family="&apos;Gentium Book Basic&apos;" x="-476.89" y="-0.942" font-size="129.23" word-spacing="0" letter-spacing="0"><tspan id="tspan402" x="-476.89" y="-0.942"/>
 </text>
 <text id="text404" font-family="Arial" x="78.24" y="-352.93" font-size="46.954" transform="scale(4.0128.2492)" text-anchor="middle"/>
 <text id="text406" line-height="125%" font-family="&apos;Gentium Book Basic&apos;" x="621.16" y="-217.41" font-size="129.23" word-spacing="0" letter-spacing="0"><tspan id="tspan408" x="621.16" y="-217.41"/>
 </text>
 <text id="text410" font-family="Arial" x="351.87" y="-1221.59" font-size="46.954" transform="scale(4.0128.2492)" text-anchor="middle"/>
 <text id="text412" line-height="125%" font-family="&apos;Gentium Book Basic&apos;" x="1202.43" y="-297.42" font-size="129.23" word-spacing="0" letter-spacing="0"><tspan id="tspan414" x="1202.43" y="-297.42"/>
 </text>
 <text id="text416" font-family="Arial" x="496.72" y="-1542.62" font-size="46.954" transform="scale(4.0128.2492)" text-anchor="middle"/>
 <text id="text418" line-height="125%" font-family="&apos;Gentium Book Basic&apos;" x="813.31" y="-769.82" font-size="129.23" word-spacing="0" letter-spacing="0"><tspan id="tspan420" x="813.31" y="-769.82"/>
 </text>
 <text id="text422" font-family="Arial" x="399.75" y="-3438.27" font-size="46.954" transform="scale(4.0128.2492)" text-anchor="middle"/>
 <text id="text424" line-height="125%" font-family="&apos;Gentium Book Basic&apos;" x="1394.57" y="-849.82" font-size="129.23" word-spacing="0" letter-spacing="0"><tspan id="tspan426" x="1394.57" y="-849.82"/>
 </text>
 <text id="text428" font-family="Arial" x="544.6" y="-3759.29" font-size="46.954" transform="scale(4.0128.2492)" text-anchor="middle"/>
 <text id="text430" line-height="125%" font-family="&apos;Gentium Book Basic&apos;" x="-438.23" y="564.9" font-size="208.33" word-spacing="0" letter-spacing="0"><tspan id="tspan432" x="-438.23" y="564.9"/>
 </text>
 <g id="g434" fill-rule="evenodd">
  <path id="path436" fill="#8e8e8e" d="m471.95 253.05c0 120.9-98.01 218.91-218.91 218.91s-218.91-98.01-218.91-218.91 98.01-218.91 218.91-218.91 218.91 98.01 218.91 218.91"/>
  <path id="path438" fill-opacity="0.067" d="m256 1c-140.83 0-255 114.17-255 255s114.17 255 255 255 255-114.17 255-255-114.17-255-255-255m8.827 44.931c120.9 0 218.9 98 218.9 218.9s-98 218.9-218.9 218.9-218.93-98-218.93-218.9 98.03-218.9 218.93-218.9"/>
  <g id="g440" fill-opacity="0.129" transform="translate(0-540.36)">
   <path id="path442" d="m256 544.79c-138.94 0-251.57 112.63-251.57 251.57s112.63 251.57 251.57 251.57 251.57-112.63 251.57-251.57-112.63-251.57-251.57-251.57m5.885 38.556c120.9 0 218.9 98 218.9 218.9s-98 218.9-218.9 218.9-218.93-98-218.93-218.9 98.03-218.9 218.93-218.9"/>
   <path id="path444" d="m256 548.72c-136.77 0-247.64 110.87-247.64 247.64s110.87 247.64 247.64 247.64 247.64-110.87 247.64-247.64-110.87-247.64-247.64-247.64m2.942 31.691c120.9 0 218.9 98 218.9 218.9s-98 218.9-218.9 218.9-218.93-98-218.93-218.9 98.03-218.9 218.93-218.9"/>
  </g>
  <path id="path446" fill="#ffffff" stroke-opacity="0.31" d="m253.04 7.86c-135.42 0-245.19 109.78-245.19 245.19 0 135.42 109.78 245.19 245.19 245.19 135.42 0 245.19-109.78 245.19-245.19 0-135.42-109.78-245.19-245.19-245.19m0 26.297c120.9 0 218.9 98 218.9 218.9s-98 218.9-218.9 218.9-218.93-98-218.93-218.9 98.03-218.9 218.93-218.9z" stroke-width="4.904" stroke="#000000"/>
 </g>
 <text id="text448" line-height="125%" font-family="&apos;Gentium Book Basic&apos;" x="729.64" y="231.36" font-size="129.23" word-spacing="0" letter-spacing="0"><tspan id="tspan450" x="729.64" y="231.36"/>
 </text>
 <text id="text452" font-family="Arial" x="378.91" y="579.26" font-size="46.954" transform="scale(4.0128.2492)" text-anchor="middle"/>
 <text id="text454" line-height="125%" font-family="&apos;Gentium Book Basic&apos;" x="1310.91" y="151.36" font-size="129.23" word-spacing="0" letter-spacing="0"><tspan id="tspan456" x="1310.91" y="151.36"/>
 </text>
 <text id="text458" font-family="Arial" x="523.76" y="258.22" font-size="46.954" transform="scale(4.0128.2492)" text-anchor="middle"/>
 <text id="text460" line-height="125%" font-family="&apos;Gentium Book Basic&apos;" x="239.33" y="-29.9" font-size="129.23" word-spacing="0" letter-spacing="0"><tspan id="tspan462" x="239.33" y="-29.9"/>
 </text>
 <text id="text464" font-family="Arial" x="256.72" y="-469.13" font-size="46.954" transform="scale(4.0128.2492)" text-anchor="middle"/>
 <text id="text466" line-height="125%" font-family="&apos;Gentium Book Basic&apos;" x="1337.38" y="-246.37" font-size="129.23" word-spacing="0" letter-spacing="0"><tspan id="tspan468" x="1337.38" y="-246.37"/>
 </text>
 <text id="text470" font-family="Arial" x="530.36" y="-1337.79" font-size="46.954" transform="scale(4.0128.2492)" text-anchor="middle"/>
 <text id="text472" line-height="125%" font-family="&apos;Gentium Book Basic&apos;" x="1918.65" y="-326.37" font-size="129.23" word-spacing="0" letter-spacing="0"><tspan id="tspan474" x="1918.65" y="-326.37"/>
 </text>
 <text id="text476" font-family="Arial" x="675.21" y="-1658.82" font-size="46.954" transform="scale(4.0128.2492)" text-anchor="middle"/>
 <text id="text478" line-height="125%" font-family="&apos;Gentium Book Basic&apos;" x="1529.53" y="-798.77" font-size="129.23" word-spacing="0" letter-spacing="0"><tspan id="tspan480" x="1529.53" y="-798.77"/>
 </text>
 <text id="text482" font-family="Arial" x="578.24" y="-3554.46" font-size="46.954" transform="scale(4.0128.2492)" text-anchor="middle"/>
 <text id="text484" line-height="125%" font-family="&apos;Gentium Book Basic&apos;" x="2110.79" y="-878.78" font-size="129.23" word-spacing="0" letter-spacing="0"><tspan id="tspan486" x="2110.79" y="-878.78"/>
 </text>
 <text id="text488" font-family="Arial" x="723.09" y="-3875.5" font-size="46.954" transform="scale(4.0128.2492)" text-anchor="middle"/>
 <text id="text490" line-height="125%" font-family="&apos;Gentium Book Basic&apos;" x="277.99" y="535.94" font-size="208.33" word-spacing="0" letter-spacing="0"><tspan id="tspan492" x="277.99" y="535.94"/>
 </text>
 <path id="path494" d="m333.46 112.8l0.002 0.002c-2.799 0-5.547 0.157-8.258 0.484l0.002 0.004c-0.462 0.056-0.918 0.179-1.377 0.244l-0.004-0.004c-0.242 0.034-0.488 0.045-0.729 0.082l-0.002-0.002c-0.644 0.098-1.299 0.206-1.938 0.322l-0.002-0.002c-0.9 0.164-1.786 0.367-2.674 0.566l10.404 10.404c-0.003 0-0.005 0.002-0.008 0.002l-10.402-10.402c-1.774 0.398-3.545 0.844-5.264 1.377l0.004 0.004c-1.067 0.332-2.112 0.67-3.156 1.053l-0.004-0.004c-0.379 0.138-0.759 0.261-1.135 0.406l0.004 0.004c-2.248 0.868-4.429 1.903-6.555 2.996l-0.006-0.006c-0.107 0.055-0.215 0.107-0.322 0.162l8.926 8.926c-0.001 0.001-0.003 0.001-0.004 0.002l-8.93-8.93c-0.481 0.25-0.983 0.468-1.457 0.729l8.887 8.887-0.002 0.002-8.887-8.887c-0.738 0.407-1.466 0.862-2.188 1.295l0.006 0.006c-0.822 0.495-1.628 1.01-2.428 1.537v0.002c-0.162 0.107-0.325 0.216-0.486 0.324l-0.004-0.004c-0.958 0.644-1.912 1.252-2.836 1.943l0.006 0.006c-0.091 0.068-0.153 0.174-0.244 0.242l8.529 8.529-0.002 0.002-8.533-8.533c-1.042 0.787-2.084 1.585-3.078 2.43l0.004 0.004c-0.19 0.162-0.371 0.318-0.561 0.482l-0.006-0.006c-0.506 0.439-0.964 0.923-1.457 1.377l8.43 8.43-0.002 0.002-8.43-8.43c-0.271 0.25-0.544 0.476-0.811 0.73-0.416 0.396-0.809 0.809-1.215 1.215-0.742 0.743-1.475 1.487-2.182 2.264l8.455 8.455c-0.001 0.001-0.001 0.003-0.002 0.004l-8.457-8.457c-0.026 0.028-0.054 0.052-0.08 0.08-0.63 0.694-1.262 1.385-1.863 2.105l0.004 0.004c-0.798 0.953-1.601 1.915-2.348 2.912l-0.002-0.002c-0.036 0.047-0.047 0.115-0.082 0.162l8.576 8.576c-0.001 0.001-0.001 0.003-0.002 0.004l-8.572-8.572c-2.515 3.381-4.717 7.01-6.58 10.832l-3.711-3.711c-2.878-1.033-5.834-1.943-8.908-2.594l6.842 6.842v0.004l-6.844-6.844c-4.562-0.966-9.117-1.427-13.607-1.457l-0.002-0.002c-31.425-0.211-59.733 21.666-66.49 53.615l80.05 80.05h-0.004l-80.05-80.05c-1.637 7.734-1.872 15.262-0.891 22.678l58.21 58.21h-0.004l-58.2-58.2-87.79 57.1c-3.496 2.274-11.139 30.957-5.43 39.76l0.002 0.002v0.002l0.002 0.002 0.002 0.002c0.331 0.506 0.739 1 1.219 1.479l0.113 0.113c-0.038-0.037-0.082-0.072-0.119-0.109l141.42 141.42c1.798 1.798 4.596 3.384 7.84 4.752l7.5 7.5c3.234 0.142 6.481 0.229 9.75 0.229 120.9 0 218.91-98.01 218.91-218.91 0-10.914-0.809-21.638-2.352-32.12l-84.9-84.9c-2.024-2.304-4.186-4.487-6.5-6.5h-0.002c-11.976-10.42-27.62-16.73-44.734-16.73" opacity="0.25"/>
 <path id="path496" fill="#ffffff" d="m333.47 112.8c-2.8 0-5.549 0.158-8.261 0.486-0.463 0.056-0.917 0.178-1.377 0.243-0.242 0.034-0.488 0.044-0.729 0.081-0.646 0.098-1.304 0.207-1.944 0.324-0.9 0.164-1.785 0.368-2.673 0.567-1.774 0.398-3.545 0.844-5.264 1.377-1.068 0.332-2.114 0.67-3.159 1.053-0.379 0.138-0.758 0.26-1.134 0.405-2.25 0.869-4.433 1.903-6.56 2.997-0.107 0.055-0.217 0.107-0.324 0.162-0.481 0.25-0.984 0.468-1.458 0.729-0.738 0.407-1.465 0.863-2.187 1.296-0.823 0.495-1.629 1.01-2.429 1.539-0.162 0.107-0.325 0.216-0.486 0.324-0.958 0.644-1.911 1.253-2.835 1.944-0.091 0.068-0.152 0.175-0.243 0.243-1.042 0.787-2.084 1.585-3.078 2.43-0.192 0.164-0.376 0.32-0.567 0.486-0.506 0.439-0.965 0.923-1.458 1.377-0.271 0.25-0.543 0.475-0.81 0.729-0.416 0.396-0.809 0.809-1.215 1.215-0.743 0.744-1.479 1.49-2.187 2.268-0.026 0.028-0.055 0.053-0.081 0.081-0.63 0.694-1.262 1.386-1.863 2.106-0.799 0.954-1.602 1.918-2.349 2.916-0.036 0.047-0.046 0.115-0.081 0.162-8.445 11.353-13.445 25.426-13.445 40.658 0 4.946 0.528 9.775 1.539 14.416 0.004 0.026-0.004 0.055 0 0.081 0.282 1.288 0.617 2.547 0.972 3.807 0.431 1.548 1 3.036 1.539 4.536 0.087 0.243 0.153 0.487 0.243 0.729 0.228 0.617 0.403 1.255 0.648 1.863 0.026 0.004 0.055-0.004 0.081 0 1.401 3.439 3.104 6.748 5.02 9.881-1.868 0.349-3.786 0.473-5.75 0.324-0.136-0.01-0.269-0.069-0.405-0.081-0.86-0.076-1.724-0.14-2.592-0.324-12.16-2.573-19.908-14.397-17.332-26.565 1.385-6.542 5.472-11.755 10.853-14.821 0.874-9.592 3.844-18.875 8.342-27.375-2.878-1.033-5.835-1.941-8.909-2.592-4.562-0.966-9.117-1.428-13.607-1.458-31.425-0.211-59.733 21.667-66.49 53.616-1.637 7.734-1.872 15.262-0.891 22.678l-87.79 57.1c-3.497 2.274-11.142 30.971-5.426 39.767 5.719 8.778 35.05 13.458 38.552 11.177l5.75-3.726 18.79 3.969c3.731 0.789 7.473-1.379 8.261-5.102l3.968-18.79 18.547 3.888c3.732 0.789 7.473-1.46 8.261-5.183l3.968-18.709 18.547 3.888c3.731 0.789 7.473-1.46 8.261-5.183l1.944-9.233c3.6 1.448 7.492 2.651 11.42 3.483 36.513 7.727 72.37-15.573 80.1-52.08 5.444-25.724-4.583-51.11-23.73-66.57-2.537 5.278-4.249 10.974-5.02 16.765 7.859 4.839 12.226 14.261 10.205 23.811-0.652 3.082-1.95 5.851-3.644 8.261-0.435 0.448-0.727 0.875-0.972 1.296-0.018 0.032-0.063 0.049-0.081 0.081-0.737 0.889-1.572 1.67-2.43 2.43-1.959-3.079-3.684-6.354-5.02-9.8-1.739-4.497-2.869-9.285-3.402-14.254-0.043-0.402-0.128-0.811-0.162-1.215-0.027-0.324-0.059-0.646-0.081-0.972-0.086-1.27-0.162-2.514-0.162-3.807 0-13.983 5.152-26.759 13.607-36.608 0.911-1.064 1.848-2.085 2.835-3.078 0.108-0.108 0.215-0.216 0.324-0.324 0.989-0.979 2.02-1.93 3.078-2.835 0.219-0.187 0.426-0.384 0.648-0.567 1.904-1.577 3.891-2.973 5.993-4.293 0.616-0.386 1.231-0.771 1.863-1.134 0.053-0.03 0.11-0.051 0.162-0.081 0.62-0.353 1.228-0.723 1.863-1.053 0.313-0.164 0.655-0.328 0.972-0.486 0.924-0.458 1.882-0.888 2.835-1.296 0.079-0.034 0.164-0.047 0.243-0.081 0.135-0.057 0.27-0.106 0.405-0.162 2.38-0.987 4.839-1.855 7.37-2.511 0.343-0.088 0.707-0.161 1.053-0.243 2.371-0.565 4.812-0.962 7.289-1.215 0.811-0.082 1.608-0.195 2.429-0.243 1.106-0.065 2.199-0.081 3.321-0.081 31.06 0 56.21 25.22 56.21 56.29 0 1.025-0.027 2.067-0.081 3.078-0.021 0.401-0.051 0.816-0.081 1.215-0.013 0.164-0.067 0.322-0.081 0.486-0.103 1.238-0.223 2.431-0.405 3.645-0.029 0.191-0.05 0.376-0.081 0.567-0.057 0.353-0.18 0.702-0.243 1.053-0.289 1.592-0.551 3.236-0.972 4.778-0.051 0.19-0.109 0.378-0.162 0.567-0.213 0.747-0.486 1.453-0.729 2.187-0.305 0.932-0.62 1.844-0.972 2.754-0.7 1.8-1.473 3.56-2.349 5.264-0.346 0.678-0.68 1.363-1.053 2.025-2.921 5.157-6.678 9.786-11.01 13.769v0.081c-4.452 4.087-9.546 7.476-15.15 9.962 0.888 3.989 1.493 8.07 1.701 12.149 4.769-1.834 9.264-4.242 13.445-7.05 0.018-0.013 0.063 0.013 0.081 0 2.264-1.522 4.419-3.165 6.479-4.94 0.496-0.427 0.974-0.855 1.458-1.296 0.528-0.481 1.026-0.96 1.539-1.458 0.204-0.198 0.365-0.447 0.567-0.648 0.777-0.773 1.529-1.539 2.268-2.349 0.856-0.936 1.707-1.852 2.511-2.835 0.061-0.075 0.101-0.168 0.162-0.243 0.401-0.495 0.747-1.033 1.134-1.539 0.439-0.575 0.956-1.112 1.377-1.701 0.136-0.189 0.271-0.376 0.405-0.567 0.651-0.93 1.259-1.871 1.863-2.835 0.032-0.051 0.049-0.111 0.081-0.162 0.699-1.121 1.39-2.238 2.025-3.402 0.086-0.157 0.158-0.328 0.243-0.486 1.211-2.264 2.287-4.638 3.24-7.05 0.278-0.701 0.555-1.393 0.81-2.106 0.215-0.603 0.449-1.171 0.648-1.782 0.034-0.106 0.047-0.218 0.081-0.324 0.39-1.218 0.731-2.479 1.053-3.726 0.111-0.429 0.222-0.864 0.324-1.296 0.051-0.216 0.113-0.431 0.162-0.648 0.248-1.091 0.453-2.21 0.648-3.321 0.183-1.049 0.351-2.094 0.486-3.159 0.137-1.076 0.238-2.149 0.324-3.24 0.027-0.345 0.059-0.706 0.081-1.053 0.092-1.451 0.162-2.899 0.162-4.374 0-37.652-30.542-68.19-68.19-68.19m-10.853 85.04c0.452 2.621 0.735 5.255 0.891 7.937 5.3 49.773-46.3 93.48-94.44 81.48-0.855 1.333-1.924 2.562-3.077 3.726 0.103 0.138 0.218 0.268 0.324 0.405l-47.46 93.38c-1.891 3.718 5.88 32.33 15.226 37.09 9.342 4.742 37.06-5.828 38.957-9.557l3.159-6.155 18.223-5.912c3.626-1.182 5.795-5.05 4.617-8.666l-5.994-18.223 17.98-5.831c3.625-1.182 5.796-5.05 4.616-8.666l-5.912-18.223 17.98-5.831c3.627-1.182 5.715-4.967 4.536-8.585l-2.916-8.99c3.843-0.546 7.846-1.429 11.663-2.673 35.486-11.565 54.892-49.726 43.33-85.2-4.195-12.872-11.912-23.579-21.706-31.506m-139.3 39.443c1.984 4.688 4.485 9.08 7.451 13.202l-74.35 48.676c-3.495 2.275-8.335 1.228-10.61-2.268-2.281-3.507-1.229-8.326 2.268-10.61l75.24-49m56.05 66.899c4.062 3.068 8.412 5.611 13.04 7.694l-40.09 79.29c-1.89 3.717-6.568 5.292-10.286 3.402-3.729-1.897-5.287-6.559-3.402-10.286l40.739-80.1"/>
</svg>
