<?xml version="1.0" encoding="UTF-8" standalone="no"?>
<svg xmlns="http://www.w3.org/2000/svg" xmlns:sodipodi="http://sodipodi.sourceforge.net/DTD/sodipodi-0.dtd" xmlns:inkscape="http://www.inkscape.org/namespaces/inkscape" height="512" viewBox="0 0 512 512" width="512" version="1.1">
 <metadata id="metadata78"/>
 <path fill="#333333" fill-rule="evenodd" d="m471.95 253.05c0 120.9-98.01 218.9-218.9 218.9-120.9 0-218.9-98.01-218.9-218.9 0-120.9 98.01-218.9 218.9-218.9 120.9 0 218.9 98.01 218.9 218.9" id="path4"/>
 <g fill="#ffffff" transform="translate(-580.83)" id="g6">
  <path d="m1003.7 78.53v4h4.156c-1.37-1.351-2.755-2.681-4.156-4m0 29.03v28.594h40.781v-7.531c-4.477-7.285-9.335-14.312-14.531-21.06h-26.25m0 53.625v28.656h40.781v-28.656h-40.781m0 53.688v28.594h40.781v-28.594h-40.781m0 53.625v28.625h40.781v-28.625h-40.781m0 53.656v28.625h40.781v-28.625h-40.781m0 53.656v28.625h26.25c5.196-6.751 10.05-13.778 14.531-21.06v-7.563h-40.781m0 53.656v4c1.402-1.319 2.786-2.649 4.156-4h-4.156" id="path8"/>
  <path d="m669.93 78.53c-1.402 1.319-2.786 2.649-4.156 4h4.156v-4m-26.25 29.03c-5.196 6.751-10.05 13.778-14.531 21.06v7.531h40.781v-28.594h-26.25m-14.531 53.625v28.656h40.781v-28.656h-40.781m0 53.688v28.594h40.78v-28.59h-40.781m0 53.625v28.625h40.781v-28.625h-40.781m0 53.656v28.625h40.781v-28.625h-40.781m0 53.656v7.563c4.477 7.285 9.335 14.312 14.531 21.06h26.25v-28.625h-40.781m36.625 53.656c1.37 1.351 2.755 2.681 4.156 4v-4h-4.156" id="path10"/>
 </g>
 <path d="m175.56 166.41c-19.331 0-34.875 13.13-34.875 29.438v120.31c0 7.491 3.264 14.315 8.688 19.5 0.081 0.085 0.168 0.166 0.25 0.25 0.027 0.025 0.066 0.037 0.094 0.063 0.186 0.189 0.371 0.378 0.563 0.563 0.116 0.123 0.225 0.254 0.344 0.375 0.027 0.025 0.067 0.037 0.094 0.063 0.186 0.189 0.371 0.378 0.563 0.563 0.116 0.123 0.225 0.254 0.344 0.375 0.027 0.025 0.067 0.037 0.094 0.063 0.062 0.063 0.125 0.125 0.188 0.188 0.467 0.51 0.964 1.018 1.469 1.5 0.072 0.075 0.146 0.144 0.219 0.219 0.037 0.035 0.087 0.059 0.125 0.094 0.255 0.258 0.516 0.531 0.781 0.781 0.057 0.059 0.099 0.129 0.156 0.188 0.022 0.02 0.041 0.043 0.063 0.063 0.212 0.215 0.437 0.415 0.656 0.625 0.076 0.08 0.141 0.171 0.219 0.25 0.027 0.025 0.066 0.037 0.094 0.063 0.186 0.189 0.371 0.378 0.563 0.563 0.116 0.123 0.225 0.254 0.344 0.375 0.027 0.025 0.067 0.037 0.094 0.063 0.186 0.189 0.371 0.378 0.563 0.563 0.116 0.123 0.225 0.254 0.344 0.375 0.027 0.025 0.067 0.037 0.094 0.063 0.124 0.126 0.249 0.251 0.375 0.375 0.172 0.185 0.354 0.381 0.531 0.563 0.027 0.025 0.067 0.037 0.094 0.063 0.124 0.126 0.249 0.251 0.375 0.375 0.168 0.18 0.328 0.355 0.5 0.531 0.038 0.035 0.087 0.058 0.125 0.094 0.255 0.258 0.516 0.531 0.781 0.781 0.057 0.059 0.099 0.129 0.156 0.188 0.022 0.02 0.041 0.043 0.063 0.063 0.186 0.189 0.371 0.378 0.563 0.563 0.103 0.108 0.208 0.206 0.313 0.313 0.027 0.025 0.066 0.037 0.094 0.063 0.186 0.189 0.371 0.378 0.563 0.563 0.116 0.123 0.225 0.254 0.344 0.375 0.027 0.025 0.067 0.037 0.094 0.063 0.186 0.189 0.371 0.378 0.563 0.563 0.116 0.123 0.225 0.254 0.344 0.375 0.027 0.025 0.067 0.037 0.094 0.063 0.124 0.126 0.249 0.251 0.375 0.375 0.172 0.185 0.354 0.381 0.531 0.563 0.027 0.025 0.067 0.037 0.094 0.063 0.114 0.115 0.228 0.23 0.344 0.344 0.177 0.191 0.348 0.376 0.531 0.563 0.038 0.035 0.087 0.058 0.125 0.094 0.255 0.258 0.516 0.531 0.781 0.781 0.057 0.059 0.099 0.129 0.156 0.188 0.022 0.02 0.041 0.043 0.063 0.063 0.186 0.189 0.371 0.378 0.563 0.563 0.103 0.108 0.208 0.206 0.313 0.313 0.027 0.025 0.066 0.037 0.094 0.063 0.186 0.189 0.371 0.378 0.563 0.563 0.116 0.123 0.225 0.254 0.344 0.375 0.027 0.025 0.067 0.037 0.094 0.063 0.186 0.189 0.371 0.378 0.563 0.563 0.116 0.123 0.225 0.254 0.344 0.375 0.027 0.025 0.067 0.037 0.094 0.063 0.186 0.189 0.371 0.378 0.563 0.563 0.116 0.123 0.225 0.254 0.344 0.375 0.027 0.025 0.067 0.037 0.094 0.063 0.062 0.063 0.125 0.125 0.188 0.188 0.467 0.51 0.964 1.018 1.469 1.5 0.072 0.075 0.146 0.144 0.219 0.219 0.037 0.035 0.087 0.059 0.125 0.094 0.255 0.258 0.516 0.531 0.781 0.781 0.057 0.059 0.099 0.129 0.156 0.188 0.022 0.02 0.041 0.043 0.063 0.063 0.212 0.215 0.437 0.415 0.656 0.625 0.076 0.08 0.141 0.171 0.219 0.25 0.027 0.025 0.066 0.037 0.094 0.063 0.186 0.189 0.371 0.378 0.563 0.563 0.116 0.123 0.225 0.254 0.344 0.375 0.027 0.025 0.067 0.037 0.094 0.063 0.186 0.189 0.371 0.378 0.563 0.563 0.116 0.123 0.225 0.254 0.344 0.375 0.027 0.025 0.067 0.037 0.094 0.063 0.062 0.063 0.125 0.125 0.188 0.188 0.467 0.51 0.964 1.018 1.469 1.5 0.072 0.075 0.146 0.144 0.219 0.219 0.037 0.035 0.087 0.059 0.125 0.094 0.255 0.258 0.516 0.531 0.781 0.781 0.057 0.059 0.099 0.129 0.156 0.188 0.022 0.02 0.041 0.043 0.063 0.063 0.186 0.189 0.371 0.378 0.563 0.563 0.103 0.108 0.208 0.206 0.313 0.313 0.027 0.025 0.066 0.037 0.094 0.063 0.186 0.189 0.371 0.378 0.563 0.563 0.116 0.123 0.225 0.254 0.344 0.375 0.027 0.025 0.067 0.037 0.094 0.063 0.186 0.189 0.371 0.378 0.563 0.563 0.116 0.123 0.225 0.254 0.344 0.375 0.027 0.025 0.067 0.037 0.094 0.063 0.124 0.126 0.249 0.251 0.375 0.375 0.172 0.185 0.354 0.381 0.531 0.563 0.027 0.025 0.067 0.037 0.094 0.063 0.124 0.126 0.249 0.251 0.375 0.375 0.168 0.18 0.328 0.355 0.5 0.531 0.038 0.035 0.087 0.058 0.125 0.094 0.255 0.258 0.516 0.531 0.781 0.781 0.057 0.059 0.099 0.129 0.156 0.188 0.022 0.02 0.041 0.043 0.063 0.063 0.186 0.189 0.371 0.378 0.563 0.563 0.103 0.108 0.208 0.206 0.313 0.313 0.027 0.025 0.066 0.037 0.094 0.063 0.186 0.189 0.371 0.378 0.563 0.563 0.116 0.123 0.225 0.254 0.344 0.375 0.027 0.025 0.067 0.037 0.094 0.063 0.186 0.189 0.371 0.378 0.563 0.563 0.116 0.123 0.225 0.254 0.344 0.375 0.027 0.025 0.067 0.037 0.094 0.063 0.124 0.126 0.249 0.251 0.375 0.375 0.172 0.185 0.354 0.381 0.531 0.563 0.027 0.025 0.067 0.037 0.094 0.063 0.114 0.115 0.228 0.23 0.344 0.344 0.177 0.191 0.348 0.376 0.531 0.563 0.038 0.035 0.087 0.058 0.125 0.094 0.255 0.258 0.516 0.531 0.781 0.781 0.057 0.059 0.099 0.129 0.156 0.188 0.022 0.02 0.041 0.043 0.063 0.063 0.186 0.189 0.371 0.378 0.563 0.563 0.103 0.108 0.208 0.206 0.313 0.313 0.027 0.025 0.066 0.037 0.094 0.063 0.186 0.189 0.371 0.378 0.563 0.563 0.116 0.123 0.225 0.254 0.344 0.375 0.027 0.025 0.067 0.037 0.094 0.063 0.186 0.189 0.371 0.378 0.563 0.563 0.116 0.123 0.225 0.254 0.344 0.375 0.027 0.025 0.067 0.037 0.094 0.063 0.186 0.189 0.371 0.378 0.563 0.563 0.116 0.123 0.225 0.254 0.344 0.375 0.027 0.025 0.067 0.037 0.094 0.063 0.062 0.063 0.125 0.125 0.188 0.188 0.467 0.51 0.964 1.018 1.469 1.5 0.072 0.075 0.146 0.144 0.219 0.219 0.037 0.035 0.087 0.059 0.125 0.094 0.255 0.258 0.516 0.531 0.781 0.781 0.057 0.059 0.099 0.129 0.156 0.188 0.022 0.02 0.041 0.043 0.063 0.063 0.212 0.215 0.437 0.415 0.656 0.625 0.076 0.08 0.141 0.171 0.219 0.25 0.027 0.025 0.066 0.037 0.094 0.063 0.186 0.189 0.371 0.378 0.563 0.563 0.116 0.123 0.225 0.254 0.344 0.375 0.027 0.025 0.067 0.037 0.094 0.063 0.186 0.189 0.371 0.378 0.563 0.563 0.116 0.123 0.225 0.254 0.344 0.375 0.027 0.025 0.067 0.037 0.094 0.063 0.124 0.126 0.249 0.251 0.375 0.375 0.172 0.185 0.354 0.381 0.531 0.563 0.027 0.025 0.067 0.037 0.094 0.063 0.114 0.115 0.228 0.23 0.344 0.344 0.177 0.191 0.348 0.376 0.531 0.563 0.038 0.035 0.087 0.058 0.125 0.094 0.255 0.258 0.516 0.531 0.781 0.781 0.057 0.059 0.099 0.129 0.156 0.188 0.022 0.02 0.041 0.043 0.063 0.063 0.186 0.189 0.371 0.378 0.563 0.563 0.103 0.108 0.208 0.206 0.313 0.313 0.027 0.025 0.066 0.037 0.094 0.063 0.186 0.189 0.371 0.378 0.563 0.563 0.116 0.123 0.225 0.254 0.344 0.375 0.027 0.025 0.067 0.037 0.094 0.063 0.186 0.189 0.371 0.378 0.563 0.563 0.116 0.123 0.225 0.254 0.344 0.375 0.027 0.025 0.067 0.037 0.094 0.063 0.124 0.126 0.249 0.251 0.375 0.375 0.172 0.185 0.354 0.381 0.531 0.563 0.027 0.025 0.067 0.037 0.094 0.063 0.124 0.126 0.249 0.251 0.375 0.375 0.168 0.18 0.328 0.355 0.5 0.531 0.038 0.035 0.087 0.058 0.125 0.094 0.255 0.258 0.516 0.531 0.781 0.781 0.057 0.059 0.099 0.129 0.156 0.188 0.022 0.02 0.041 0.043 0.063 0.063 0.186 0.189 0.371 0.378 0.563 0.563 0.103 0.108 0.208 0.206 0.313 0.313 0.027 0.025 0.066 0.037 0.094 0.063 0.186 0.189 0.371 0.378 0.563 0.563 0.116 0.123 0.225 0.254 0.344 0.375 0.027 0.025 0.067 0.037 0.094 0.063 0.186 0.189 0.371 0.378 0.563 0.563 0.116 0.123 0.225 0.254 0.344 0.375 0.027 0.025 0.067 0.037 0.094 0.063 0.186 0.189 0.371 0.378 0.563 0.563 0.116 0.123 0.225 0.254 0.344 0.375 0.027 0.025 0.067 0.037 0.094 0.063 0.062 0.063 0.125 0.125 0.188 0.188 0.467 0.51 0.964 1.018 1.469 1.5 0.072 0.075 0.146 0.144 0.219 0.219 0.037 0.035 0.087 0.059 0.125 0.094 0.255 0.258 0.516 0.531 0.781 0.781 0.057 0.059 0.099 0.129 0.156 0.188 0.022 0.02 0.041 0.043 0.063 0.063 0.212 0.215 0.437 0.415 0.656 0.625 0.076 0.08 0.141 0.171 0.219 0.25 0.027 0.025 0.066 0.037 0.094 0.063 0.186 0.189 0.371 0.378 0.563 0.563 0.116 0.123 0.225 0.254 0.344 0.375 0.027 0.025 0.067 0.037 0.094 0.063 0.186 0.189 0.371 0.378 0.563 0.563 0.116 0.123 0.225 0.254 0.344 0.375 0.027 0.025 0.067 0.037 0.094 0.063 0.062 0.063 0.125 0.125 0.188 0.188 0.467 0.51 0.964 1.018 1.469 1.5 0.072 0.075 0.146 0.144 0.219 0.219 0.037 0.035 0.087 0.059 0.125 0.094 0.255 0.258 0.516 0.531 0.781 0.781 0.057 0.059 0.099 0.129 0.156 0.188 0.022 0.02 0.041 0.043 0.063 0.063 0.186 0.189 0.371 0.378 0.563 0.563 0.103 0.108 0.208 0.206 0.313 0.313 0.027 0.025 0.066 0.037 0.094 0.063 0.186 0.189 0.371 0.378 0.563 0.563 0.116 0.123 0.225 0.254 0.344 0.375 0.027 0.025 0.067 0.037 0.094 0.063 0.186 0.189 0.371 0.378 0.563 0.563 0.116 0.123 0.225 0.254 0.344 0.375 0.027 0.025 0.067 0.037 0.094 0.063 0.124 0.126 0.249 0.251 0.375 0.375 0.172 0.185 0.354 0.381 0.531 0.563 0.027 0.025 0.067 0.037 0.094 0.063 0.114 0.115 0.228 0.23 0.344 0.344 0.177 0.191 0.348 0.376 0.531 0.563 0.038 0.035 0.087 0.058 0.125 0.094 0.255 0.258 0.516 0.531 0.781 0.781 0.057 0.059 0.099 0.129 0.156 0.188 0.022 0.02 0.041 0.043 0.063 0.063 0.186 0.189 0.371 0.378 0.563 0.563 0.103 0.108 0.208 0.206 0.313 0.313 0.027 0.025 0.066 0.037 0.094 0.063 0.186 0.189 0.371 0.378 0.563 0.563 0.116 0.123 0.225 0.254 0.344 0.375 0.027 0.025 0.067 0.037 0.094 0.063 0.186 0.189 0.371 0.378 0.563 0.563 0.116 0.123 0.225 0.254 0.344 0.375 0.027 0.025 0.067 0.037 0.094 0.063 0.124 0.126 0.249 0.251 0.375 0.375 0.172 0.185 0.354 0.381 0.531 0.563 0.027 0.025 0.067 0.037 0.094 0.063 0.124 0.126 0.249 0.251 0.375 0.375 0.168 0.18 0.328 0.355 0.5 0.531 0.038 0.035 0.087 0.058 0.125 0.094 0.255 0.258 0.516 0.531 0.781 0.781 0.057 0.059 0.099 0.129 0.156 0.188 0.022 0.02 0.041 0.043 0.063 0.063 0.186 0.189 0.371 0.378 0.563 0.563 0.103 0.108 0.208 0.206 0.313 0.313 0.027 0.025 0.066 0.037 0.094 0.063 0.186 0.189 0.371 0.378 0.563 0.563 0.116 0.123 0.225 0.254 0.344 0.375 0.027 0.025 0.067 0.037 0.094 0.063 0.186 0.189 0.371 0.378 0.563 0.563 0.116 0.123 0.225 0.254 0.344 0.375 0.027 0.025 0.067 0.037 0.094 0.063 0.186 0.189 0.371 0.378 0.563 0.563 0.116 0.123 0.225 0.254 0.344 0.375 0.027 0.025 0.067 0.037 0.094 0.063 0.062 0.063 0.125 0.125 0.188 0.188 0.467 0.51 0.964 1.018 1.469 1.5 0.072 0.075 0.146 0.144 0.219 0.219 0.037 0.035 0.087 0.059 0.125 0.094 0.255 0.258 0.516 0.531 0.781 0.781 0.057 0.059 0.099 0.129 0.156 0.188 0.022 0.02 0.041 0.043 0.063 0.063 0.212 0.215 0.437 0.415 0.656 0.625 0.076 0.08 0.141 0.171 0.219 0.25 0.027 0.025 0.066 0.037 0.094 0.063 0.186 0.189 0.371 0.378 0.563 0.563 0.116 0.123 0.225 0.254 0.344 0.375 0.027 0.025 0.067 0.037 0.094 0.063 0.186 0.189 0.371 0.378 0.563 0.563 0.116 0.123 0.225 0.254 0.344 0.375 0.027 0.025 0.067 0.037 0.094 0.063 0.124 0.126 0.249 0.251 0.375 0.375 0.172 0.185 0.354 0.381 0.531 0.563 0.027 0.025 0.067 0.037 0.094 0.063 0.124 0.126 0.249 0.251 0.375 0.375 0.168 0.18 0.328 0.355 0.5 0.531 0.038 0.035 0.087 0.058 0.125 0.094 0.255 0.258 0.516 0.531 0.781 0.781 0.057 0.059 0.099 0.129 0.156 0.188 0.022 0.02 0.041 0.043 0.063 0.063 0.186 0.189 0.371 0.378 0.563 0.563 0.103 0.108 0.208 0.206 0.313 0.313 0.027 0.025 0.066 0.037 0.094 0.063 0.186 0.189 0.371 0.378 0.563 0.563 0.116 0.123 0.225 0.254 0.344 0.375 0.027 0.025 0.067 0.037 0.094 0.063 0.186 0.189 0.371 0.378 0.563 0.563 0.116 0.123 0.225 0.254 0.344 0.375 0.027 0.025 0.067 0.037 0.094 0.063 0.124 0.126 0.249 0.251 0.375 0.375 0.172 0.185 0.354 0.381 0.531 0.563 0.027 0.025 0.067 0.037 0.094 0.063 0.114 0.115 0.228 0.23 0.344 0.344 0.177 0.191 0.348 0.376 0.531 0.563 0.038 0.035 0.087 0.058 0.125 0.094 0.255 0.258 0.516 0.531 0.781 0.781 0.057 0.059 0.099 0.129 0.156 0.188 0.022 0.02 0.041 0.043 0.063 0.063 0.186 0.189 0.371 0.378 0.563 0.563 0.103 0.108 0.208 0.206 0.313 0.313 0.027 0.025 0.066 0.037 0.094 0.063 0.186 0.189 0.371 0.378 0.563 0.563 0.116 0.123 0.225 0.254 0.344 0.375 0.027 0.025 0.067 0.037 0.094 0.063 0.186 0.189 0.371 0.378 0.563 0.563 0.116 0.123 0.225 0.254 0.344 0.375 0.027 0.025 0.067 0.037 0.094 0.063 0.186 0.189 0.371 0.378 0.563 0.563 0.116 0.123 0.225 0.254 0.344 0.375 0.027 0.025 0.067 0.037 0.094 0.063 0.062 0.063 0.125 0.125 0.188 0.188 0.467 0.51 0.964 1.018 1.469 1.5 0.072 0.075 0.146 0.144 0.219 0.219 0.037 0.035 0.087 0.059 0.125 0.094 0.255 0.258 0.516 0.531 0.781 0.781 0.057 0.059 0.099 0.129 0.156 0.188 0.022 0.02 0.041 0.043 0.063 0.063 0.212 0.215 0.437 0.415 0.656 0.625 0.076 0.08 0.141 0.171 0.219 0.25 0.027 0.025 0.066 0.037 0.094 0.063 0.186 0.189 0.371 0.378 0.563 0.563 0.116 0.123 0.225 0.254 0.344 0.375 0.027 0.025 0.067 0.037 0.094 0.063 0.186 0.189 0.371 0.378 0.563 0.563 0.116 0.123 0.225 0.254 0.344 0.375 0.027 0.025 0.067 0.037 0.094 0.063 0.062 0.063 0.125 0.125 0.188 0.188 0.467 0.51 0.964 1.018 1.469 1.5 0.072 0.075 0.146 0.144 0.219 0.219 0.037 0.035 0.087 0.059 0.125 0.094 0.255 0.258 0.516 0.531 0.781 0.781 0.057 0.059 0.099 0.129 0.156 0.188 0.022 0.02 0.041 0.043 0.063 0.063 0.186 0.189 0.371 0.378 0.563 0.563 0.103 0.108 0.208 0.206 0.313 0.313 0.027 0.025 0.066 0.037 0.094 0.063 0.186 0.189 0.371 0.378 0.563 0.563 0.116 0.123 0.225 0.254 0.344 0.375 0.027 0.025 0.067 0.037 0.094 0.063 0.186 0.189 0.371 0.378 0.563 0.563 0.116 0.123 0.225 0.254 0.344 0.375 0.027 0.025 0.067 0.037 0.094 0.063 0.124 0.126 0.249 0.251 0.375 0.375 0.172 0.185 0.354 0.381 0.531 0.563 0.027 0.025 0.067 0.037 0.094 0.063 0.124 0.126 0.249 0.251 0.375 0.375 0.168 0.18 0.328 0.355 0.5 0.531 0.038 0.035 0.087 0.058 0.125 0.094 0.255 0.258 0.516 0.531 0.781 0.781 0.057 0.059 0.099 0.129 0.156 0.188 0.022 0.02 0.041 0.043 0.063 0.063 0.186 0.189 0.371 0.378 0.563 0.563 0.103 0.108 0.208 0.206 0.313 0.313 0.027 0.025 0.066 0.037 0.094 0.063 0.186 0.189 0.371 0.378 0.563 0.563 0.116 0.123 0.225 0.254 0.344 0.375 0.027 0.025 0.067 0.037 0.094 0.063 0.186 0.189 0.371 0.378 0.563 0.563 0.116 0.123 0.225 0.254 0.344 0.375 0.027 0.025 0.067 0.037 0.094 0.063 0.124 0.126 0.249 0.251 0.375 0.375 0.172 0.185 0.354 0.381 0.531 0.563 0.027 0.025 0.067 0.037 0.094 0.063 0.114 0.115 0.228 0.23 0.344 0.344 0.177 0.191 0.348 0.376 0.531 0.563 0.038 0.035 0.087 0.058 0.125 0.094 0.255 0.258 0.516 0.531 0.781 0.781 0.057 0.059 0.099 0.129 0.156 0.188 0.022 0.02 0.041 0.043 0.063 0.063 0.186 0.189 0.371 0.378 0.563 0.563 0.103 0.108 0.208 0.206 0.313 0.313 0.027 0.025 0.066 0.037 0.094 0.063 0.186 0.189 0.371 0.378 0.563 0.563 0.116 0.123 0.225 0.254 0.344 0.375 0.027 0.025 0.067 0.037 0.094 0.063 0.186 0.189 0.371 0.378 0.563 0.563 0.116 0.123 0.225 0.254 0.344 0.375 0.027 0.025 0.067 0.037 0.094 0.063 0.186 0.189 0.371 0.378 0.563 0.563 0.116 0.123 0.225 0.254 0.344 0.375 0.027 0.025 0.067 0.037 0.094 0.063 0.062 0.063 0.125 0.125 0.188 0.188 0.098 0.107 0.212 0.206 0.313 0.313 96.48-13.46 172.8-89.79 186.25-186.28-0.319-0.326-0.633-0.655-0.969-0.969-0.329-0.337-0.654-0.676-1-1-0.329-0.337-0.654-0.676-1-1-0.329-0.337-0.654-0.676-1-1-0.319-0.326-0.634-0.655-0.969-0.969-0.325-0.332-0.659-0.68-1-1-0.329-0.337-0.654-0.676-1-1-0.329-0.337-0.654-0.676-1-1-0.329-0.337-0.654-0.676-1-1-0.329-0.337-0.654-0.676-1-1-0.319-0.326-0.634-0.655-0.969-0.969-0.325-0.332-0.659-0.68-1-1-0.329-0.337-0.654-0.676-1-1-0.329-0.337-0.654-0.676-1-1-0.329-0.337-0.654-0.676-1-1-0.329-0.337-0.654-0.676-1-1-0.154-0.158-0.311-0.314-0.469-0.469-0.476-0.51-0.986-1.018-1.5-1.5-0.325-0.332-0.659-0.68-1-1-0.329-0.337-0.654-0.676-1-1-0.329-0.337-0.654-0.676-1-1-0.329-0.337-0.654-0.676-1-1-0.154-0.158-0.311-0.314-0.469-0.469-0.476-0.51-0.986-1.018-1.5-1.5-0.325-0.332-0.659-0.68-1-1-0.329-0.337-0.654-0.676-1-1-0.329-0.337-0.654-0.676-1-1-0.329-0.337-0.654-0.676-1-1-0.329-0.337-0.654-0.676-1-1-0.319-0.326-0.634-0.655-0.969-0.969-0.325-0.332-0.659-0.68-1-1-0.329-0.337-0.654-0.676-1-1-0.329-0.337-0.654-0.676-1-1-0.329-0.337-0.654-0.676-1-1-0.329-0.337-0.654-0.676-1-1-0.319-0.326-0.634-0.655-0.969-0.969-0.325-0.332-0.659-0.68-1-1-0.329-0.337-0.654-0.676-1-1-0.329-0.337-0.654-0.676-1-1-0.329-0.337-0.654-0.676-1-1-0.329-0.337-0.654-0.676-1-1-0.154-0.158-0.311-0.314-0.469-0.469-0.476-0.51-0.986-1.018-1.5-1.5-0.325-0.332-0.659-0.68-1-1-0.329-0.337-0.654-0.676-1-1-0.329-0.337-0.654-0.676-1-1-0.329-0.337-0.654-0.676-1-1-0.329-0.337-0.654-0.676-1-1-0.319-0.326-0.634-0.655-0.969-0.969-0.325-0.332-0.659-0.68-1-1-0.329-0.337-0.654-0.676-1-1-0.329-0.337-0.654-0.676-1-1-0.329-0.337-0.654-0.676-1-1-0.329-0.337-0.654-0.676-1-1-0.319-0.326-0.634-0.655-0.969-0.969-0.325-0.332-0.659-0.68-1-1-0.329-0.337-0.654-0.676-1-1-0.329-0.337-0.654-0.676-1-1-0.329-0.337-0.654-0.676-1-1-0.329-0.337-0.654-0.676-1-1-0.154-0.158-0.311-0.314-0.469-0.469-0.48-0.515-0.981-1.014-1.5-1.5-0.329-0.337-0.654-0.676-1-1-0.329-0.337-0.654-0.676-1-1-0.329-0.337-0.654-0.676-1-1-0.329-0.337-0.654-0.676-1-1-0.154-0.158-0.311-0.314-0.469-0.469-0.476-0.51-0.986-1.018-1.5-1.5-0.325-0.332-0.659-0.68-1-1-0.329-0.337-0.654-0.676-1-1-0.329-0.337-0.654-0.676-1-1-0.329-0.337-0.654-0.676-1-1-0.329-0.337-0.654-0.676-1-1-0.319-0.326-0.634-0.655-0.969-0.969-0.325-0.332-0.659-0.68-1-1-0.329-0.337-0.654-0.676-1-1-0.329-0.337-0.654-0.676-1-1-0.329-0.337-0.654-0.676-1-1-0.329-0.337-0.654-0.676-1-1-0.319-0.326-0.634-0.655-0.969-0.969-0.325-0.332-0.659-0.68-1-1-0.329-0.337-0.654-0.676-1-1-0.329-0.337-0.654-0.676-1-1-0.329-0.337-0.654-0.676-1-1-0.329-0.337-0.654-0.676-1-1-0.154-0.158-0.311-0.314-0.469-0.469-0.476-0.51-0.986-1.018-1.5-1.5-0.325-0.332-0.659-0.68-1-1-0.329-0.337-0.654-0.676-1-1-0.329-0.337-0.654-0.676-1-1-0.329-0.337-0.654-0.676-1-1-0.329-0.337-0.654-0.676-1-1-0.319-0.326-0.634-0.655-0.969-0.969-0.325-0.332-0.659-0.68-1-1-0.329-0.337-0.654-0.676-1-1-0.329-0.337-0.654-0.676-1-1-0.329-0.337-0.654-0.676-1-1-0.329-0.337-0.654-0.676-1-1-0.319-0.326-0.634-0.655-0.969-0.969-0.325-0.332-0.659-0.68-1-1-0.329-0.337-0.654-0.676-1-1-0.329-0.337-0.654-0.676-1-1-0.329-0.337-0.654-0.676-1-1-0.329-0.337-0.654-0.676-1-1-0.319-0.326-0.634-0.655-0.969-0.969-0.325-0.332-0.659-0.68-1-1-0.329-0.337-0.654-0.676-1-1-6.392-6.538-16.06-10.688-26.938-10.688h-160.87" fill-opacity="0.235" id="path12"/>
 <g fill-rule="evenodd" id="g14">
  <path d="m256 1c-140.83 0-255 114.17-255 255s114.17 255 255 255 255-114.17 255-255-114.17-255-255-255m8.827 44.931c120.9 0 218.9 98 218.9 218.9s-98 218.9-218.9 218.9-218.93-98-218.93-218.9 98.03-218.9 218.93-218.9" fill-opacity="0.067" id="path16"/>
  <g fill-opacity="0.129" id="g18">
   <path d="m256 4.433c-138.94 0-251.57 112.63-251.57 251.57s112.63 251.57 251.57 251.57 251.57-112.63 251.57-251.57-112.63-251.57-251.57-251.57m5.885 38.556c120.9 0 218.9 98 218.9 218.9s-98 218.9-218.9 218.9-218.93-98-218.93-218.9 98.03-218.9 218.93-218.9" id="path20"/>
   <path d="m256 8.356c-136.77 0-247.64 110.87-247.64 247.64s110.87 247.64 247.64 247.64 247.64-110.87 247.64-247.64-110.87-247.64-247.64-247.64m2.942 31.691c120.9 0 218.9 98 218.9 218.9s-98 218.9-218.9 218.9-218.93-98-218.93-218.9 98.03-218.9 218.93-218.9" id="path22"/>
  </g>
  <path fill="#ffffff" stroke-width="4.904" stroke="#000000" stroke-opacity="0.31" d="m253.04 7.859c-135.42 0-245.19 109.78-245.19 245.19 0 135.42 109.78 245.19 245.19 245.19 135.42 0 245.19-109.78 245.19-245.19 0-135.42-109.78-245.19-245.19-245.19zm0 26.297c120.9 0 218.9 98 218.9 218.9s-98 218.9-218.9 218.9-218.93-98-218.93-218.9 98.03-218.9 218.93-218.9z" id="path24"/>
 </g>
 <text font-family="Gentium Book Basic" x="729.64" y="231.36" line-height="125%" font-size="129.23" id="text26" word-spacing="0" letter-spacing="0"><tspan x="729.64" y="231.36" id="tspan28"/>
 </text>
 <text font-family="Arial" x="378.91" y="579.25" transform="scale(4.0128 .2492)" font-size="46.954" id="text30" text-anchor="middle"/>
 <text font-family="Gentium Book Basic" x="1310.91" y="151.36" line-height="125%" font-size="129.23" id="text32" word-spacing="0" letter-spacing="0"><tspan x="1310.91" y="151.36" id="tspan34"/>
 </text>
 <text font-family="Arial" x="523.76" y="258.22" transform="scale(4.0128 .2492)" font-size="46.954" id="text36" text-anchor="middle"/>
 <text font-family="Gentium Book Basic" x="239.33" y="-29.901" line-height="125%" font-size="129.23" id="text38" word-spacing="0" letter-spacing="0"><tspan x="239.33" y="-29.901" id="tspan40"/>
 </text>
 <text font-family="Arial" x="256.72" y="-469.14" transform="scale(4.0128 .2492)" font-size="46.954" id="text42" text-anchor="middle"/>
 <text font-family="Gentium Book Basic" x="1337.38" y="-246.37" line-height="125%" font-size="129.23" id="text44" word-spacing="0" letter-spacing="0"><tspan x="1337.38" y="-246.37" id="tspan46"/>
 </text>
 <text font-family="Arial" x="530.36" y="-1337.81" transform="scale(4.0128 .2492)" font-size="46.954" id="text48" text-anchor="middle"/>
 <text font-family="Gentium Book Basic" x="1918.65" y="-326.38" line-height="125%" font-size="129.23" id="text50" word-spacing="0" letter-spacing="0"><tspan x="1918.65" y="-326.38" id="tspan52"/>
 </text>
 <text font-family="Arial" x="675.21" y="-1658.85" transform="scale(4.0128 .2492)" font-size="46.954" id="text54" text-anchor="middle"/>
 <text font-family="Gentium Book Basic" x="1529.53" y="-798.78" line-height="125%" font-size="129.23" id="text56" word-spacing="0" letter-spacing="0"><tspan x="1529.53" y="-798.78" id="tspan58"/>
 </text>
 <text font-family="Arial" x="578.24" y="-3554.51" transform="scale(4.0128 .2492)" font-size="46.954" id="text60" text-anchor="middle"/>
 <text font-family="Gentium Book Basic" x="2110.79" y="-878.78" line-height="125%" font-size="129.23" id="text62" word-spacing="0" letter-spacing="0"><tspan x="2110.79" y="-878.78" id="tspan64"/>
 </text>
 <text font-family="Arial" x="723.09" y="-3875.54" transform="scale(4.0128 .2492)" font-size="46.954" id="text66" text-anchor="middle"/>
 <text font-family="Gentium Book Basic" x="277.99" y="535.94" line-height="125%" font-size="208.33" id="text68" word-spacing="0" letter-spacing="0"><tspan x="277.99" y="535.94" id="tspan70"/>
 </text>
 <path d="m175.58 166.4c-19.331 0-34.901 13.13-34.901 29.441v120.33c0 16.311 15.57 29.441 34.901 29.441h160.84c19.331 0 34.901-13.13 34.901-29.441v-120.33c0-16.311-15.57-29.441-34.901-29.441h-160.84m49.374 30.565a13.01 13.01 0 0 1 7.4714 1.8287l76.83 46.06a13.01 13.01 0 0 1 0 22.31l-76.83 46.06a13.01 13.01 0 0 1 -19.697 -11.155v-92.11a13.01 13.01 0 0 1 12.226 -12.984" fill="#ffffff" id="path72"/>
</svg>
