<?xml version="1.0" encoding="UTF-8" standalone="no"?>
<svg xmlns="http://www.w3.org/2000/svg" xmlns:xlink="http://www.w3.org/1999/xlink" xmlns:sodipodi="http://sodipodi.sourceforge.net/DTD/sodipodi-0.dtd" xmlns:inkscape="http://www.inkscape.org/namespaces/inkscape" height="512" viewBox="0 0 512 512" width="512" version="1.1">
 <metadata id="metadata260"/>
 <defs id="defs4">
  <linearGradient id="1">
   <stop stop-color="#ffffff" id="stop7"/>
   <stop offset="1" stop-color="#8f8f8f" id="stop9"/>
  </linearGradient>
  <linearGradient y2="287.13" x2="0" y1="249.39" gradientUnits="userSpaceOnUse" xlink:href="#1" id="2"/>
  <linearGradient y2="286.11" x2="0" y1="249.43" gradientUnits="userSpaceOnUse" xlink:href="#1" id="3"/>
 </defs>
 <text line-height="125%" font-family="Gentium Book Basic" x="-1420.66" y="-302.92" font-size="57.14" transform="scale(-1)" id="text13" word-spacing="0" letter-spacing="0"><tspan x="-1420.66" y="-302.92" id="tspan15"/>
 </text>
 <text font-family="Arial" x="-266.88" y="-1369.96" transform="scale(-4.0128 -.2492)" font-size="20.763" id="text17" text-anchor="middle"/>
 <text line-height="125%" font-family="Gentium Book Basic" x="-1422.25" y="-292.17" font-size="57.14" transform="scale(-1)" id="text19" word-spacing="0" letter-spacing="0"><tspan x="-1422.25" y="-292.17" id="tspan21"/>
 </text>
 <text font-family="Arial" x="-267.28" y="-1326.83" transform="scale(-4.0128 -.2492)" font-size="20.763" id="text23" text-anchor="middle"/>
 <g fill="#565656" id="g25">
  <text line-height="125%" font-family="Gentium Book Basic" x="-1198.54" y="-391.44" font-size="35.08" transform="scale(-1.0508 -.95163)" id="text27" word-spacing="0" letter-spacing="0"><tspan x="-1198.54" y="-391.44" id="tspan29"/>
  </text>
  <text font-family="Arial" x="-245.18" y="-1665.56" transform="scale(-4.2168 -.23715)" font-size="12.745" id="text31" text-anchor="middle"/>
  <text line-height="125%" font-family="Gentium Book Basic" x="-1087.72" y="-401.16" font-size="18.777" transform="scale(-1.0508 -.95163)" id="text33" word-spacing="0" letter-spacing="0"><tspan x="-1087.72" y="-401.16" id="tspan35"/>
  </text>
  <text font-family="Arial" x="-242.42" y="-1660.54" transform="scale(-4.2168 -.23715)" font-size="6.823" id="text37" text-anchor="middle"/>
  <text line-height="125%" font-family="Gentium Book Basic" x="-1566.03" y="-339.62" font-size="54.857" transform="scale(-1)" id="text39" word-spacing="0" letter-spacing="0"><tspan x="-1566.03" y="-339.62" id="tspan41"/>
  </text>
  <text font-family="Arial" x="-306.59" y="-1511.04" transform="scale(-4.0128 -.2492)" font-size="19.932" id="text43" text-anchor="middle"/>
 </g>
 <g id="g45">
  <text line-height="125%" stroke-width="0.274" x="-1398.88" y="-483.72" font-size="57.14" stroke="#545454" transform="scale(-1)" font-family="Gentium Book Basic" id="text47" word-spacing="0" letter-spacing="0"><tspan x="-1398.88" y="-483.72" id="tspan49"/>
  </text>
  <text font-family="Arial" x="-261.45" y="-2095.47" transform="scale(-4.0128 -.2492)" font-size="20.763" id="text51" text-anchor="middle"/>
  <text line-height="125%" stroke-width="0.274" x="-1400.47" y="-472.97" font-size="57.14" stroke="#545454" transform="scale(-1)" font-family="Gentium Book Basic" id="text53" word-spacing="0" letter-spacing="0"><tspan x="-1400.47" y="-472.97" id="tspan55"/>
  </text>
  <text font-family="Arial" x="-261.85" y="-2052.33" transform="scale(-4.0128 -.2492)" font-size="20.763" id="text57" text-anchor="middle"/>
 </g>
 <g fill="#565656" id="g59">
  <g stroke-width="0.274" stroke="#545454" id="g61">
   <text line-height="125%" font-family="Gentium Book Basic" x="-1177.8" y="-581.43" font-size="35.08" transform="scale(-1.0508 -.95163)" id="text63" word-spacing="0" letter-spacing="0"><tspan x="-1177.8" y="-581.43" id="tspan65"/>
   </text>
   <text font-family="Arial" x="-240.02" y="-2427.94" transform="scale(-4.2168 -.23715)" font-size="12.745" id="text67" text-anchor="middle"/>
   <text line-height="125%" font-family="Gentium Book Basic" x="-1066.99" y="-591.15" font-size="18.777" transform="scale(-1.0508 -.95163)" id="text69" word-spacing="0" letter-spacing="0"><tspan x="-1066.99" y="-591.15" id="tspan71"/>
   </text>
   <text font-family="Arial" x="-237.26" y="-2422.92" transform="scale(-4.2168 -.23715)" font-size="6.823" id="text73" text-anchor="middle"/>
   <text line-height="125%" font-family="Gentium Book Basic" x="-1544.25" y="-520.41" font-size="54.857" transform="scale(-1)" id="text75" word-spacing="0" letter-spacing="0"><tspan x="-1544.25" y="-520.41" id="tspan77"/>
   </text>
  </g>
  <text font-family="Arial" x="-301.17" y="-2236.54" transform="scale(-4.0128 -.2492)" font-size="19.932" id="text79" text-anchor="middle"/>
 </g>
 <g id="g81">
  <text line-height="125%" stroke-width="0.274" x="-1198.8" y="-562.56" font-size="54.857" stroke="#545454" transform="scale(-1)" font-family="Gentium Book Basic" id="text83" word-spacing="0" letter-spacing="0"><tspan x="-1198.8" y="-562.56" id="tspan85"/>
  </text>
  <text font-family="Arial" x="-215.08" y="-2405.66" transform="scale(-4.0128 -.2492)" font-size="19.932" id="text87" text-anchor="middle"/>
  <text line-height="125%" stroke-width="0.274" x="-952.05" y="-596.52" font-size="54.857" stroke="#545454" transform="scale(-1)" font-family="Gentium Book Basic" id="text89" word-spacing="0" letter-spacing="0"><tspan x="-952.05" y="-596.52" id="tspan91"/>
  </text>
  <g id="g93">
   <text font-family="Arial" x="-153.59" y="-2541.94" transform="scale(-4.0128 -.2492)" font-size="19.932" id="text95" text-anchor="middle"/>
   <text font-family="Gentium Book Basic" x="916.28" y="391.52" line-height="125%" font-size="208.33" id="text97" word-spacing="0" letter-spacing="0"><tspan x="916.28" y="391.52" id="tspan99"/>
   </text>
   <text font-family="Arial" x="546.06" y="1008.23" transform="scale(4.0128 .2492)" font-size="75.7" id="text101" text-anchor="middle"/>
   <text font-family="Gentium Book Basic" x="910.49" y="430.71" line-height="125%" font-size="208.33" id="text103" word-spacing="0" letter-spacing="0"><tspan x="910.49" y="430.71" id="tspan105"/>
   </text>
   <text font-family="Arial" x="544.62" y="1165.5" transform="scale(4.0128 .2492)" font-size="75.7" id="text107" text-anchor="middle"/>
  </g>
 </g>
 <g fill="#565656" id="g109">
  <text line-height="125%" font-family="Gentium Book Basic" x="1431.29" y="144.82" font-size="127.88" transform="scale(1.0508 .95163)" id="text111" word-spacing="0" letter-spacing="0"><tspan x="1431.29" y="144.82" id="tspan113"/>
  </text>
  <text font-family="Arial" x="551.71" y="235.63" transform="scale(4.2168 .23715)" font-size="46.47" id="text115" text-anchor="middle"/>
  <text line-height="125%" font-family="Gentium Book Basic" x="1835.32" y="109.37" font-size="68.46" transform="scale(1.0508 .95163)" id="text117" word-spacing="0" letter-spacing="0"><tspan x="1835.32" y="109.37" id="tspan119"/>
  </text>
  <text font-family="Arial" x="561.77" y="253.93" transform="scale(4.2168 .23715)" font-size="24.874" id="text121" text-anchor="middle"/>
  <text font-family="Gentium Book Basic" x="386.29" y="257.74" line-height="125%" font-size="200" id="text123" word-spacing="0" letter-spacing="0"><tspan x="386.29" y="257.74" id="tspan125"/>
  </text>
  <text font-family="Arial" x="401.28" y="493.89" transform="scale(4.0128 .2492)" font-size="72.67" id="text127" text-anchor="middle"/>
 </g>
 <g id="g129">
  <text font-family="Gentium Book Basic" x="995.71" y="-267.63" stroke="#545454" line-height="125%" font-size="208.33" id="text131" word-spacing="0" letter-spacing="0"><tspan x="995.71" y="-267.63" id="tspan133"/>
  </text>
  <text font-family="Arial" x="565.86" y="-1636.83" transform="scale(4.0128 .2492)" font-size="75.7" id="text135" text-anchor="middle"/>
  <text font-family="Gentium Book Basic" x="989.92" y="-228.44" stroke="#545454" line-height="125%" font-size="208.33" id="text137" word-spacing="0" letter-spacing="0"><tspan x="989.92" y="-228.44" id="tspan139"/>
  </text>
  <text font-family="Arial" x="564.41" y="-1479.57" transform="scale(4.0128 .2492)" font-size="75.7" id="text141" text-anchor="middle"/>
 </g>
 <g fill="#565656" id="g143">
  <g stroke="#545454" id="g145">
   <text line-height="125%" font-family="Gentium Book Basic" x="1506.88" y="-547.83" font-size="127.88" transform="scale(1.0508 .95163)" id="text147" word-spacing="0" letter-spacing="0"><tspan x="1506.88" y="-547.83" id="tspan149"/>
   </text>
   <text font-family="Arial" x="570.55" y="-2543.87" transform="scale(4.2168 .23715)" font-size="46.47" id="text151" text-anchor="middle"/>
   <text line-height="125%" font-family="Gentium Book Basic" x="1910.9" y="-583.28" font-size="68.46" transform="scale(1.0508 .95163)" id="text153" word-spacing="0" letter-spacing="0"><tspan x="1910.9" y="-583.28" id="tspan155"/>
   </text>
   <text font-family="Arial" x="580.6" y="-2525.57" transform="scale(4.2168 .23715)" font-size="24.874" id="text157" text-anchor="middle"/>
   <text font-family="Gentium Book Basic" x="465.72" y="-401.41" line-height="125%" font-size="200" id="text159" word-spacing="0" letter-spacing="0"><tspan x="465.72" y="-401.41" id="tspan161"/>
   </text>
  </g>
  <text font-family="Arial" x="421.07" y="-2151.18" transform="scale(4.0128 .2492)" font-size="72.67" id="text163" text-anchor="middle"/>
 </g>
 <g id="g165">
  <text font-family="Gentium Book Basic" x="1725.15" y="-555.06" stroke="#545454" line-height="125%" font-size="200" id="text167" word-spacing="0" letter-spacing="0"><tspan x="1725.15" y="-555.06" id="tspan169"/>
  </text>
  <text font-family="Arial" x="734.92" y="-2767.75" transform="scale(4.0128 .2492)" font-size="72.67" id="text171" text-anchor="middle"/>
  <text font-family="Gentium Book Basic" x="2624.76" y="-678.88" stroke="#545454" line-height="125%" font-size="200" id="text173" word-spacing="0" letter-spacing="0"><tspan x="2624.76" y="-678.88" id="tspan175"/>
  </text>
  <text font-family="Arial" x="959.11" y="-3264.61" transform="scale(4.0128 .2492)" font-size="72.67" id="text177" text-anchor="middle"/>
 </g>
 <path fill="#868686" fill-rule="evenodd" d="m471.95 253.05c0 120.9-98.01 218.9-218.9 218.9-120.9 0-218.9-98.01-218.9-218.9 0-120.9 98.01-218.9 218.9-218.9 120.9 0 218.9 98.01 218.9 218.9" id="path179"/>
 <path d="m50.16 351.72c33.479 80.912 113.02 137.83 205.84 137.83 92.81 0 172.36-56.916 205.84-137.83h-411.67" fill="#969696" id="path181"/>
 <path d="m134.03 137.09c0 138.72 0.805 0.168 0.813 136.53 0 0.009-0.001 0.022 0 0.031h-0.188l0.25 0.219 0.188 0.219 0.563 0.563 0.25 0.219 0.75 0.781 0.25 0.219 0.75 0.781 0.25 0.219 0.719 0.75 0.25 0.219 0.75 0.781 0.25 0.219 0.75 0.781 0.25 0.219 0.75 0.781 0.25 0.219 0.75 0.781 0.25 0.219 0.75 0.781 0.25 0.219 0.719 0.75 0.25 0.219 0.75 0.781 0.25 0.219 0.75 0.781 0.25 0.219 0.75 0.781 0.25 0.219 0.75 0.781c0.001 0.001 0.25 0.219 0.25 0.219l0.75 0.781c0.001 0.001 0.25 0.219 0.25 0.219l0.719 0.75c0.001 0.001 0.25 0.219 0.25 0.219l0.75 0.781c0.001 0.001 0.25 0.219 0.25 0.219l0.75 0.781c0.001 0.001 0.25 0.219 0.25 0.219l0.75 0.781c0.001 0.001 0.25 0.219 0.25 0.219l0.75 0.781c0.001 0.001 0.25 0.219 0.25 0.219l0.75 0.781c0.002 0.001 0.25 0.219 0.25 0.219l0.75 0.75c0.002 0.001 0.219 0.219 0.219 0.219l0.75 0.781c0.002 0.001 0.25 0.219 0.25 0.219l0.75 0.781c0.002 0.002 0.25 0.219 0.25 0.219l0.75 0.781c0.002 0.002 0.25 0.219 0.25 0.219l0.75 0.781c0.002 0.002 0.25 0.219 0.25 0.219l0.75 0.781c0.002 0.002 0.25 0.219 0.25 0.219l0.75 0.781c0.002 0.002 0.25 0.219 0.25 0.219l0.719 0.75c0.002 0.002 0.25 0.219 0.25 0.219l0.75 0.781c0.002 0.002 0.25 0.219 0.25 0.219l0.75 0.781c0.002 0.002 0.25 0.219 0.25 0.219l0.75 0.781c0.002 0.002 0.25 0.219 0.25 0.219l0.75 0.781c0.002 0.002 0.25 0.219 0.25 0.219l0.75 0.781c0.002 0.002 0.25 0.219 0.25 0.219l0.719 0.75c0.003 0.002 0.25 0.219 0.25 0.219l0.188 0.188c0.002 0.003 0 0.031 0 0.031l0.563 0.563c0.003 0.002 0.25 0.219 0.25 0.219l0.188 0.188c0.002 0.003 0 0.031 0 0.031l0.563 0.563c0.003 0.002 0.25 0.219 0.25 0.219l0.156 0.188c0.007 0.009 0.031 0.031 0.031 0.031l0.563 0.563c0.003 0.002 0.25 0.219 0.25 0.219l0.156 0.188c0.007 0.009 0.031 0.031 0.031 0.031l0.563 0.563c0.003 0.002 0.25 0.219 0.25 0.219l0.156 0.188c0.007 0.009 0.031 0.031 0.031 0.031l0.563 0.563c0.003 0.003 0.25 0.219 0.25 0.219l0.156 0.188c0.007 0.009 0.031 0.031 0.031 0.031l0.531 0.531c0.003 0.003 0.25 0.219 0.25 0.219l0.156 0.188c0.007 0.009 0.031 0.031 0.031 0.031l0.563 0.563c0.003 0.003 0.25 0.219 0.25 0.219l0.156 0.188c0.007 0.009 0.031 0.031 0.031 0.031l0.563 0.563c0.003 0.003 0.25 0.219 0.25 0.219l0.156 0.188c0.007 0.009 0.031 0.031 0.031 0.031l0.563 0.563c0.003 0.003 0.25 0.219 0.25 0.219l0.156 0.156c0.016 0.018 0.031 0.063 0.031 0.063l0.563 0.563c0.003 0.003 0.25 0.219 0.25 0.219l0.125 0.156c0.024 0.028 0.063 0.063 0.063 0.063l0.563 0.563c0.003 0.003 0.25 0.219 0.25 0.219l0.094 0.125c0.042 0.049 0.094 0.094 0.094 0.094l0.563 0.563c0.003 0.003 0.25 0.219 0.25 0.219l0.063 0.063c0.055 0.065 0.125 0.156 0.125 0.156l0.188 0.156 0.344 0.375c0.004 0.003 0.25 0.219 0.25 0.219 0.003 0.003 0.188 0.219 0.188 0.219l0.219 0.188 0.344 0.375c0.004 0.003 0.25 0.219 0.25 0.219 0.003 0.003 0.188 0.219 0.188 0.219l0.219 0.188 0.344 0.375c0.004 0.003 0.25 0.219 0.25 0.219 0.003 0.003 0.188 0.219 0.188 0.219l0.219 0.188 0.344 0.375c0.004 0.003 0.25 0.219 0.25 0.219 0.003 0.003 0.188 0.219 0.188 0.219l0.188 0.156 0.375 0.406c0.004 0.003 0.25 0.219 0.25 0.219 0.003 0.003 0.188 0.219 0.188 0.219l0.188 0.156 0.375 0.406c0.004 0.003 0.25 0.219 0.25 0.219 0.003 0.003 0.188 0.219 0.188 0.219l0.188 0.156 0.344 0.375c0.004 0.003 0.25 0.219 0.25 0.219 0.003 0.003 0.188 0.219 0.188 0.219l0.219 0.188 0.344 0.375c0.004 0.004 0.25 0.219 0.25 0.219 0.003 0.004 0.188 0.219 0.188 0.219l0.219 0.188 0.344 0.375c0.004 0.004 0.25 0.219 0.25 0.219 0.003 0.004 0.188 0.219 0.188 0.219l0.219 0.188 0.344 0.375c0.004 0.004 0.25 0.219 0.25 0.219 0.003 0.004 0.188 0.219 0.188 0.219l0.188 0.156 0.375 0.406c0.004 0.004 0.25 0.219 0.25 0.219 0.003 0.004 0.188 0.219 0.188 0.219l0.188 0.156 0.375 0.406c0.004 0.004 0.25 0.219 0.25 0.219 0.003 0.004 0.188 0.219 0.188 0.219l0.188 0.156 0.344 0.375c0.004 0.004 0.25 0.219 0.25 0.219 0.003 0.004 0.188 0.219 0.188 0.219l0.219 0.188 0.344 0.375c0.004 0.004 0.25 0.219 0.25 0.219 0.003 0.004 0.188 0.219 0.188 0.219l0.219 0.188 0.344 0.375c0.005 0.004 0.25 0.219 0.25 0.219 0.003 0.004 0.188 0.219 0.188 0.219l0.219 0.188 0.344 0.375c0.005 0.004 0.25 0.219 0.25 0.219 0.003 0.004 0.188 0.219 0.188 0.219l0.188 0.156c0.016 0.016 0.365 0.396 0.375 0.406 0.005 0.004 0.25 0.219 0.25 0.219 0.004 0.004 0.188 0.219 0.188 0.219 0.001 0.001 0.188 0.156 0.188 0.156l0.375 0.406c0.005 0.004 0.25 0.219 0.25 0.219 0.004 0.004 0.188 0.219 0.188 0.219l0.188 0.156 0.375 0.375c0.005 0.004 0.219 0.219 0.219 0.219 0.004 0.004 0.188 0.219 0.188 0.219l0.219 0.188 0.344 0.375c0.005 0.004 0.25 0.219 0.25 0.219 0.004 0.004 0.188 0.219 0.188 0.219l0.219 0.188 0.344 0.375c0.005 0.004 0.25 0.219 0.25 0.219 0.004 0.004 0.188 0.219 0.188 0.219l0.219 0.188 0.344 0.375c0.005 0.004 0.25 0.219 0.25 0.219 0.004 0.004 0.188 0.219 0.188 0.219l0.188 0.156 0.375 0.406c0.005 0.004 0.25 0.219 0.25 0.219 0.004 0.004 0.188 0.219 0.188 0.219l0.188 0.156c0.016 0.016 0.365 0.396 0.375 0.406 0.005 0.005 0.25 0.219 0.25 0.219 0.004 0.005 0.188 0.219 0.188 0.219 0.001 0.001 0.188 0.156 0.188 0.156 0.016 0.016 0.365 0.396 0.375 0.406 0.005 0.005 0.25 0.219 0.25 0.219 0.004 0.005 0.188 0.219 0.188 0.219 0.001 0.001 0.188 0.156 0.188 0.156 0.015 0.015 0.334 0.365 0.344 0.375 0.005 0.005 0.25 0.219 0.25 0.219 0.004 0.005 0.188 0.219 0.188 0.219 0.002 0.002 0.219 0.188 0.219 0.188 0.015 0.015 0.334 0.365 0.344 0.375 0.005 0.005 0.25 0.219 0.25 0.219 0.004 0.005 0.188 0.219 0.188 0.219 0.002 0.002 0.219 0.188 0.219 0.188 0.015 0.015 0.334 0.365 0.344 0.375 0.005 0.005 0.25 0.219 0.25 0.219 0.004 0.005 0.188 0.219 0.188 0.219 0.002 0.002 0.219 0.188 0.219 0.188 0.015 0.015 0.335 0.366 0.344 0.375 0.006 0.005 0.25 0.219 0.25 0.219 0.004 0.005 0.188 0.219 0.188 0.219 0.001 0.001 0.188 0.156 0.188 0.156 0.016 0.016 0.365 0.396 0.375 0.406 0.006 0.005 0.25 0.219 0.25 0.219 0.004 0.005 0.188 0.219 0.188 0.219 0.001 0.001 0.188 0.156 0.188 0.156 0.016 0.016 0.365 0.396 0.375 0.406 0.006 0.005 0.25 0.219 0.25 0.219 0.004 0.005 0.188 0.219 0.188 0.219 0.001 0.001 0.188 0.156 0.188 0.156 0.015 0.015 0.334 0.365 0.344 0.375 0.006 0.005 0.25 0.219 0.25 0.219 0.004 0.005 0.188 0.219 0.188 0.219 0.002 0.002 0.219 0.188 0.219 0.188 0.015 0.015 0.334 0.365 0.344 0.375 0.006 0.005 0.25 0.219 0.25 0.219 0.004 0.005 0.188 0.219 0.188 0.219 0.002 0.002 0.219 0.188 0.219 0.188 0.015 0.015 0.334 0.365 0.344 0.375 0.006 0.005 0.25 0.219 0.25 0.219 0.004 0.005 0.188 0.219 0.188 0.219 0.002 0.002 0.219 0.188 0.219 0.188 0.015 0.015 0.335 0.366 0.344 0.375 0.006 0.005 0.25 0.219 0.25 0.219 0.004 0.005 0.188 0.219 0.188 0.219 0.001 0.001 0.188 0.156 0.188 0.156 0.016 0.016 0.365 0.396 0.375 0.406 0.006 0.005 0.25 0.219 0.25 0.219 0.005 0.005 0.188 0.219 0.188 0.219 0.001 0.001 0.188 0.156 0.188 0.156 0.016 0.016 0.365 0.396 0.375 0.406 0.006 0.005 0.25 0.219 0.25 0.219 0.005 0.005 0.188 0.219 0.188 0.219 0.001 0.001 0.188 0.156 0.188 0.156 0.015 0.015 0.334 0.365 0.344 0.375 0.006 0.005 0.25 0.219 0.25 0.219 0.005 0.005 0.188 0.219 0.188 0.219 0.002 0.002 0.219 0.188 0.219 0.188 0.015 0.015 0.334 0.365 0.344 0.375 0.006 0.005 0.25 0.219 0.25 0.219 0.005 0.005 0.188 0.219 0.188 0.219 0.002 0.002 0.219 0.188 0.219 0.188 0.015 0.015 0.334 0.365 0.344 0.375 0.006 0.006 0.25 0.219 0.25 0.219 0.005 0.006 0.188 0.219 0.188 0.219 0.002 0.002 0.219 0.188 0.219 0.188 0.015 0.015 0.335 0.366 0.344 0.375 0.006 0.006 0.25 0.219 0.25 0.219 0.005 0.006 0.188 0.219 0.188 0.219 0.001 0.001 0.188 0.156 0.188 0.156 0.016 0.016 0.365 0.396 0.375 0.406 0.006 0.006 0.25 0.219 0.25 0.219 0.005 0.006 0.188 0.219 0.188 0.219 0.001 0.001 0.188 0.156 0.188 0.156 0.016 0.016 0.365 0.396 0.375 0.406 0.007 0.006 0.25 0.219 0.25 0.219 0.005 0.006 0.188 0.219 0.188 0.219 0.001 0.001 0.188 0.156 0.188 0.156 0.016 0.016 0.365 0.396 0.375 0.406 0.007 0.006 0.25 0.219 0.25 0.219 0.005 0.006 0.188 0.219 0.188 0.219 0.001 0.001 0.188 0.156 0.188 0.156 0.015 0.015 0.334 0.365 0.344 0.375 0.007 0.006 0.25 0.219 0.25 0.219 0.005 0.006 0.188 0.219 0.188 0.219 0.002 0.002 0.219 0.188 0.219 0.188 0.015 0.015 0.334 0.365 0.344 0.375 0.007 0.006 0.25 0.219 0.25 0.219 0.005 0.006 0.188 0.219 0.188 0.219 0.002 0.002 0.219 0.188 0.219 0.188 0.015 0.015 0.334 0.365 0.344 0.375 0.007 0.006 0.25 0.219 0.25 0.219 0.005 0.006 0.188 0.219 0.188 0.219 0.002 0.002 0.219 0.188 0.219 0.188 0.015 0.015 0.335 0.366 0.344 0.375 0.007 0.006 0.25 0.219 0.25 0.219 0.005 0.006 0.188 0.219 0.188 0.219 0.001 0.001 0.188 0.156 0.188 0.156 0.016 0.016 0.365 0.396 0.375 0.406 0.007 0.006 0.25 0.219 0.25 0.219 0.005 0.006 0.188 0.219 0.188 0.219 0.001 0.001 0.188 0.156 0.188 0.156 0.016 0.016 0.365 0.396 0.375 0.406 0.007 0.006 0.25 0.219 0.25 0.219 0.005 0.006 0.188 0.219 0.188 0.219 0.001 0.001 0.188 0.156 0.188 0.156 0.015 0.015 0.334 0.365 0.344 0.375 0.007 0.006 0.25 0.219 0.25 0.219 0.005 0.006 0.188 0.219 0.188 0.219 0.002 0.002 0.219 0.188 0.219 0.188 0.015 0.015 0.334 0.365 0.344 0.375 0.007 0.006 0.25 0.219 0.25 0.219 0.005 0.006 0.188 0.219 0.188 0.219 0.002 0.002 0.219 0.188 0.219 0.188 0.015 0.015 0.334 0.365 0.344 0.375 0.007 0.006 0.25 0.219 0.25 0.219 0.005 0.006 0.188 0.219 0.188 0.219 0.002 0.002 0.219 0.188 0.219 0.188 0.015 0.014 0.335 0.366 0.344 0.375 0.007 0.006 0.25 0.219 0.25 0.219 0.006 0.006 0.188 0.219 0.188 0.219 0.001 0.001 0.188 0.156 0.188 0.156 0.016 0.016 0.365 0.396 0.375 0.406 0.007 0.007 0.25 0.219 0.25 0.219l0.188 0.219c0.001 0.001 0.188 0.156 0.188 0.156 0.016 0.016 0.365 0.396 0.375 0.406l0.25 0.219 0.188 0.219c0.001 0.001 0.188 0.156 0.188 0.156 0.015 0.015 0.334 0.365 0.344 0.375l0.25 0.219 0.188 0.219c0.002 0.002 0.219 0.188 0.219 0.188 0.015 0.015 0.334 0.365 0.344 0.375l0.25 0.219 0.188 0.219c0.002 0.002 0.219 0.188 0.219 0.188 0.015 0.015 0.334 0.365 0.344 0.375l0.25 0.219 0.188 0.219c0.002 0.002 0.219 0.188 0.219 0.188 0.015 0.014 0.335 0.366 0.344 0.375l0.25 0.219 0.188 0.219c0.001 0.001 0.188 0.156 0.188 0.156 0.016 0.016 0.365 0.396 0.375 0.406l0.25 0.219 0.188 0.219c0.001 0.001 0.188 0.156 0.188 0.156 0.016 0.016 0.365 0.396 0.375 0.406l0.25 0.219 0.188 0.219c0.001 0.001 0.188 0.156 0.188 0.156l0.375 0.375 0.219 0.219 0.188 0.219c0.002 0.002 0.219 0.188 0.219 0.188 0.015 0.015 0.334 0.365 0.344 0.375l0.25 0.219 0.188 0.219c0.002 0.002 0.219 0.188 0.219 0.188 0.015 0.015 0.334 0.365 0.344 0.375l0.25 0.219 0.188 0.219c0.002 0.002 0.219 0.188 0.219 0.188 0.015 0.014 0.335 0.366 0.344 0.375l0.25 0.219 0.188 0.219c0.001 0.001 0.188 0.156 0.188 0.156 0.016 0.016 0.365 0.396 0.375 0.406l0.25 0.219 0.188 0.219c0.001 0.001 0.188 0.156 0.188 0.156 0.016 0.016 0.365 0.396 0.375 0.406l0.25 0.219 0.188 0.219c0.001 0.001 0.188 0.156 0.188 0.156 0.016 0.016 0.365 0.396 0.375 0.406l0.25 0.219 0.188 0.219c0.001 0.001 0.188 0.156 0.188 0.156 0.015 0.015 0.334 0.365 0.344 0.375 0.009 0.007 0.25 0.219 0.25 0.219l0.188 0.219c0.002 0.002 0.219 0.188 0.219 0.188 0.015 0.015 0.334 0.365 0.344 0.375 0.009 0.008 0.25 0.219 0.25 0.219 0.006 0.008 0.188 0.219 0.188 0.219 0.002 0.002 0.219 0.188 0.219 0.188 0.015 0.015 0.334 0.365 0.344 0.375 0.009 0.008 0.25 0.219 0.25 0.219 0.007 0.008 0.188 0.219 0.188 0.219 0.002 0.002 0.219 0.188 0.219 0.188 0.015 0.014 0.335 0.366 0.344 0.375 0.009 0.008 0.25 0.219 0.25 0.219 0.007 0.008 0.188 0.219 0.188 0.219 0.001 0.001 0.188 0.156 0.188 0.156 0.016 0.016 0.365 0.396 0.375 0.406 0.009 0.008 0.25 0.219 0.25 0.219 0.007 0.008 0.188 0.219 0.188 0.219 0.001 0.001 0.188 0.156 0.188 0.156 0.016 0.016 0.365 0.396 0.375 0.406 0.009 0.008 0.25 0.219 0.25 0.219 0.007 0.008 0.188 0.219 0.188 0.219 0.001 0.001 0.188 0.156 0.188 0.156 0.015 0.015 0.334 0.365 0.344 0.375 0.009 0.008 0.25 0.219 0.25 0.219 0.007 0.008 0.188 0.219 0.188 0.219 0.002 0.002 0.219 0.188 0.219 0.188 0.015 0.015 0.334 0.365 0.344 0.375 0.009 0.008 0.25 0.219 0.25 0.219 0.007 0.008 0.188 0.219 0.188 0.219 0.002 0.002 0.219 0.188 0.219 0.188 0.015 0.015 0.334 0.365 0.344 0.375 0.009 0.008 0.25 0.219 0.25 0.219 0.007 0.008 0.188 0.219 0.188 0.219 0.002 0.002 0.219 0.188 0.219 0.188 0.015 0.014 0.335 0.366 0.344 0.375 0.009 0.008 0.25 0.219 0.25 0.219 0.007 0.008 0.188 0.219 0.188 0.219 0.001 0.001 0.188 0.156 0.188 0.156 0.016 0.016 0.365 0.396 0.375 0.406 0.009 0.008 0.25 0.219 0.25 0.219 0.007 0.008 0.188 0.219 0.188 0.219 0.001 0.001 0.188 0.156 0.188 0.156 0.016 0.016 0.365 0.396 0.375 0.406 0.009 0.008 0.25 0.219 0.25 0.219 0.007 0.008 0.188 0.219 0.188 0.219 0.001 0.001 0.188 0.156 0.188 0.156 0.015 0.015 0.334 0.365 0.344 0.375 0.009 0.008 0.25 0.219 0.25 0.219 0.007 0.008 0.188 0.219 0.188 0.219 0.002 0.002 0.219 0.188 0.219 0.188 0.015 0.015 0.334 0.365 0.344 0.375 0.009 0.008 0.25 0.219 0.25 0.219 0.007 0.008 0.188 0.219 0.188 0.219 0.002 0.002 0.219 0.188 0.219 0.188 0.015 0.015 0.334 0.365 0.344 0.375 0.01 0.008 0.25 0.219 0.25 0.219 0.007 0.008 0.188 0.219 0.188 0.219 0.002 0.002 0.219 0.188 0.219 0.188 0.014 0.014 0.335 0.366 0.344 0.375 0.01 0.008 0.25 0.219 0.25 0.219 0.007 0.008 0.188 0.219 0.188 0.219 0.001 0.001 0.188 0.156 0.188 0.156 0.016 0.016 0.365 0.396 0.375 0.406 0.01 0.008 0.25 0.219 0.25 0.219 0.007 0.008 0.188 0.219 0.188 0.219 0.001 0.001 0.188 0.156 0.188 0.156 0.016 0.016 0.365 0.396 0.375 0.406 0.01 0.009 0.25 0.219 0.25 0.219 0.007 0.009 0.188 0.219 0.188 0.219 0.001 0.001 0.188 0.156 0.188 0.156 0.016 0.016 0.365 0.396 0.375 0.406 0.01 0.009 0.25 0.219 0.25 0.219 0.007 0.009 0.188 0.219 0.188 0.219 0.001 0.001 0.188 0.156 0.188 0.156 0.015 0.015 0.334 0.365 0.344 0.375 0.01 0.009 0.25 0.219 0.25 0.219 0.007 0.009 0.188 0.219 0.188 0.219 0.002 0.002 0.219 0.188 0.219 0.188 0.015 0.015 0.334 0.365 0.344 0.375 0.01 0.009 0.25 0.219 0.25 0.219 0.008 0.009 0.188 0.219 0.188 0.219 0.002 0.002 0.219 0.188 0.219 0.188 0.015 0.015 0.334 0.365 0.344 0.375 0.01 0.009 0.25 0.219 0.25 0.219 0.008 0.009 0.188 0.219 0.188 0.219 0.002 0.002 0.219 0.188 0.219 0.188 0.014 0.014 0.335 0.366 0.344 0.375 0.01 0.009 0.25 0.219 0.25 0.219 0.008 0.009 0.188 0.219 0.188 0.219 0.001 0.001 0.188 0.156 0.188 0.156 0.016 0.016 0.365 0.396 0.375 0.406 0.01 0.009 0.25 0.219 0.25 0.219 0.008 0.009 0.188 0.219 0.188 0.219 0.001 0.001 0.188 0.156 0.188 0.156 0.016 0.016 0.365 0.396 0.375 0.406l0.25 0.219c0.008 0.009 0.188 0.219 0.188 0.219 0.001 0.001 0.188 0.156 0.188 0.156 0.015 0.015 0.334 0.365 0.344 0.375 0.01 0.009 0.25 0.219 0.25 0.219 0.008 0.009 0.188 0.219 0.188 0.219 0.002 0.002 0.219 0.188 0.219 0.188 0.015 0.015 0.334 0.365 0.344 0.375 0.01 0.009 0.25 0.219 0.25 0.219 0.008 0.009 0.188 0.219 0.188 0.219 0.002 0.002 0.219 0.188 0.219 0.188 0.015 0.015 0.334 0.365 0.344 0.375 0.01 0.009 0.25 0.219 0.25 0.219 0.008 0.009 0.188 0.219 0.188 0.219 0.002 0.002 0.219 0.188 0.219 0.188 0.014 0.014 0.335 0.366 0.344 0.375 0.011 0.009 0.25 0.219 0.25 0.219 0.008 0.009 0.188 0.219 0.188 0.219 0.001 0.001 0.188 0.156 0.188 0.156 0.016 0.016 0.365 0.396 0.375 0.406 0.011 0.009 0.25 0.219 0.25 0.219 0.008 0.009 0.188 0.219 0.188 0.219 0.001 0.001 0.188 0.156 0.188 0.156 0.016 0.016 0.365 0.396 0.375 0.406 0.011 0.009 0.25 0.219 0.25 0.219 0.008 0.009 0.188 0.219 0.188 0.219 0.001 0.001 0.188 0.156 0.188 0.156 0.015 0.015 0.334 0.365 0.344 0.375 0.011 0.009 0.25 0.219 0.25 0.219 0.008 0.009 0.188 0.219 0.188 0.219 0.002 0.002 0.219 0.188 0.219 0.188 0.015 0.015 0.334 0.365 0.344 0.375 0.011 0.01 0.25 0.219 0.25 0.219 0.008 0.01 0.188 0.219 0.188 0.219 0.002 0.002 0.219 0.188 0.219 0.188 0.015 0.015 0.334 0.365 0.344 0.375 0.011 0.01 0.25 0.219 0.25 0.219 0.008 0.01 0.188 0.219 0.188 0.219 0.002 0.002 0.219 0.188 0.219 0.188 0.014 0.014 0.335 0.366 0.344 0.375 0.011 0.01 0.25 0.219 0.25 0.219 0.008 0.01 0.188 0.219 0.188 0.219 0.001 0.001 0.188 0.156 0.188 0.156 0.016 0.016 0.365 0.396 0.375 0.406 0.011 0.01 0.25 0.219 0.25 0.219 0.008 0.01 0.188 0.219 0.188 0.219 0.001 0.001 0.188 0.156 0.188 0.156 0.016 0.016 0.365 0.396 0.375 0.406 0.011 0.01 0.25 0.219 0.25 0.219 0.008 0.01 0.188 0.219 0.188 0.219 0.001 0.001 0.188 0.156 0.188 0.156l0.375 0.375c0.011 0.01 0.219 0.219 0.219 0.219 0.008 0.01 0.188 0.219 0.188 0.219 0.002 0.002 0.219 0.188 0.219 0.188 0.015 0.015 0.334 0.365 0.344 0.375 0.011 0.01 0.25 0.219 0.25 0.219 0.008 0.01 0.188 0.219 0.188 0.219 0.002 0.002 0.219 0.188 0.219 0.188 0.015 0.015 0.334 0.365 0.344 0.375 0.011 0.01 0.25 0.219 0.25 0.219 0.009 0.01 0.188 0.219 0.188 0.219 0.002 0.002 0.219 0.188 0.219 0.188 0.014 0.014 0.335 0.366 0.344 0.375 0.012 0.01 0.25 0.219 0.25 0.219 0.009 0.01 0.188 0.219 0.188 0.219 0.001 0.001 0.188 0.156 0.188 0.156l0.375 0.406c0.012 0.01 0.25 0.219 0.25 0.219 0.009 0.01 0.188 0.219 0.188 0.219l0.188 0.156 0.375 0.406c0.012 0.01 0.25 0.219 0.25 0.219 0.009 0.01 0.188 0.219 0.188 0.219l0.188 0.156 0.375 0.406c0.012 0.01 0.25 0.219 0.25 0.219 0.009 0.01 0.188 0.219 0.188 0.219l0.188 0.156 0.344 0.375c0.012 0.01 0.25 0.219 0.25 0.219 0.009 0.01 0.188 0.219 0.188 0.219l0.219 0.188 0.344 0.375c0.012 0.01 0.25 0.219 0.25 0.219 0.009 0.01 0.188 0.219 0.188 0.219l0.219 0.188 0.344 0.375 0.25 0.219c0.009 0.01 0.188 0.219 0.188 0.219l0.219 0.188 0.344 0.375 0.25 0.219 0.188 0.219 0.188 0.156 0.375 0.406 0.25 0.219 0.188 0.219 0.188 0.156 0.375 0.406 0.25 0.219c0.009 0.011 0.188 0.219 0.188 0.219l0.188 0.156 0.344 0.375c0.012 0.011 0.25 0.219 0.25 0.219 0.009 0.011 0.188 0.219 0.188 0.219l0.219 0.188 0.344 0.375c0.012 0.011 0.25 0.219 0.25 0.219 0.009 0.011 0.188 0.219 0.188 0.219l0.219 0.188 0.344 0.375c0.012 0.011 0.25 0.219 0.25 0.219 0.009 0.011 0.188 0.219 0.188 0.219l0.219 0.188 0.344 0.375c0.012 0.011 0.25 0.219 0.25 0.219 0.009 0.011 0.188 0.219 0.188 0.219l0.188 0.156 0.375 0.406c0.012 0.011 0.25 0.219 0.25 0.219 0.009 0.011 0.188 0.219 0.188 0.219l0.188 0.156 0.375 0.406c0.013 0.011 0.25 0.219 0.25 0.219 0.009 0.011 0.188 0.219 0.188 0.219l0.188 0.156 0.344 0.375c0.013 0.011 0.25 0.219 0.25 0.219 0.009 0.011 0.188 0.219 0.188 0.219l0.219 0.188 0.344 0.375 0.25 0.219c0.01 0.011 0.188 0.219 0.188 0.219l0.219 0.188 0.344 0.375 0.25 0.219c0.01 0.011 0.188 0.219 0.188 0.219l0.219 0.188 0.344 0.375 0.25 0.219c0.01 0.011 0.188 0.219 0.188 0.219l0.188 0.156 0.375 0.406 0.25 0.219c0.01 0.011 0.188 0.219 0.188 0.219l0.188 0.156 0.375 0.406c0.013 0.011 0.25 0.219 0.25 0.219 0.01 0.011 0.188 0.219 0.188 0.219l0.188 0.156 0.375 0.406c0.013 0.011 0.25 0.219 0.25 0.219 0.01 0.011 0.188 0.219 0.188 0.219l0.188 0.156 0.344 0.375c0.013 0.012 0.25 0.219 0.25 0.219 0.01 0.012 0.188 0.219 0.188 0.219l0.219 0.188 0.344 0.375c0.013 0.012 0.25 0.219 0.25 0.219 0.01 0.012 0.188 0.219 0.188 0.219l0.219 0.188 0.344 0.375c0.013 0.012 0.25 0.219 0.25 0.219 0.01 0.012 0.188 0.219 0.188 0.219l0.219 0.188 0.344 0.375c0.013 0.012 0.25 0.219 0.25 0.219 0.01 0.012 0.188 0.219 0.188 0.219l0.188 0.156 0.375 0.406c0.013 0.012 0.25 0.219 0.25 0.219 0.01 0.012 0.188 0.219 0.188 0.219l0.188 0.156 0.375 0.406 0.25 0.219c0.01 0.012 0.188 0.219 0.188 0.219l0.188 0.156 0.344 0.375 0.25 0.219 0.188 0.219 0.219 0.188 0.344 0.375 0.25 0.219 0.188 0.219 0.219 0.188 0.344 0.375 0.188 0.156c87.15-28.865 150.03-110.98 150.03-207.81 0-7.567-0.376-15.07-1.125-22.438h-0.313v-1h-1v-1h-0.969v-0.969h-1v-1h-1v-1h-1v-1h-1v-1h-1v-1h-1v-1h-0.969v-0.969h-1v-1h-1v-1h-1v-1h-1v-1h-1v-1h-0.969v-0.969h-1v-1h-1v-1h-1v-1h-1v-1h-1v-1h-0.969v-0.969h-1v-1h-1v-1h-1v-1h-1v-1h-1v-1h-1v-1h-0.969v-0.969h-1v-1h-1v-1h-1v-1h-1v-1h-1v-1h-0.969v-0.969h-1v-1h-1v-1h-1v-1h-1v-1h-1v-1h-0.969v-0.969h-1v-1h-1v-1h-1v-1h-1v-1h-1v-1h-0.969v-0.969h-1v-1h-1v-1h-1v-1h-1v-1h-1v-1h-1v-1h-0.969v-0.969h-1v-1h-1v-1h-1v-1h-1v-1h-1v-1h-0.969v-0.969h-1v-1h-1v-1h-1v-1h-1v-1h-1v-1h-0.969v-0.969h-1v-1h-1v-1h-1v-1h-1v-1h-1v-1h-1v-1h-0.969v-0.969h-1v-1h-1v-1h-1v-1h-1v-1h-1v-1h-0.969v-0.969h-1v-1h-1v-1h-1v-1h-1v-1h-1v-1h-0.969v-0.969h-1v-1h-1v-1h-1v-1h-1v-1h-1v-1h-0.969v-0.969h-1v-1h-1v-1h-1v-1h-51.41v136.56h-4.844v-0.25h-1.031c0-0.015 0.031-1 0.031-1h-0.969v-0.969h-1.031c0-0.015 0.031-1 0.031-1h-1v-1h-1.031c0-0.015 0.031-1 0.031-1h-1v-1h-1.031c0-0.015 0.031-1 0.031-1h-1v-1h-1c0-0.014 0.031-0.969 0.031-0.969h-1v-1h-1.031c0-0.015 0.031-1 0.031-1h-1v-1h-1.031c0-0.015 0.031-1 0.031-1h-1v-1h-1c0-0.014 0.031-0.969 0.031-0.969h-1v-1h-1.031c0-0.015 0.031-1 0.031-1h-1v-1h-1.031c0-0.015 0.031-1 0.031-1h-1v-1h-1c0-0.014 0.031-0.969 0.031-0.969h-1v-1h-1.031c0-0.015 0.031-1 0.031-1h-1v-1h-1.031c0-0.015 0.031-1 0.031-1h-1v-1h-1.031c0-0.015 0.031-1 0.031-1h-0.969v-0.969h-1v-1h-1v-1h-1v-1h-1v-1h-1v-1h-0.969v-0.969h-1v-1h-1v-1h-1v-1h-1v-1h-1v-1h-0.969v-0.969h-1v-1h-1v-1h-1v-1h-1v-1h-1v-1h-0.969v-0.969h-1v-1h-1.031c0-0.015 0.031-1 0.031-1h-1v-1h-1.031c0-0.015 0.031-1 0.031-1h-1v-1h-1.031c0-0.015 0.031-1 0.031-1h-0.969v-0.969h-1.031c0-0.015 0.031-1 0.031-1h-1v-1h-1.031c0-0.015 0.031-1 0.031-1h-1v-1h-1.031c0-0.015 0.031-1 0.031-1h-0.969v-0.969h-1.031c0-0.015 0.031-1 0.031-1h-1v-1h-1.031c0-0.015 0.031-1 0.031-1h-1v-1h-1.031c0-0.015 0.031-1 0.031-1h-0.969v-0.969h-1.031c0-0.015 0.031-1 0.031-1h-1v-1h-1.031c0-0.015 0.031-1 0.031-1h-1v-1h-1.031c0-0.015 0.031-1 0.031-1h-1v-1h-0.969v-0.969h-1v-1h-1.031c0-0.015 0.031-1 0.031-1h-1v-1h-1.031c0-0.015 0.031-1 0.031-1h-1v-1h-0.969v-0.969h-1v-1h-1.031c0-0.015 0.031-1 0.031-1h-1v-1h-1.031c0-0.015 0.031-1 0.031-1h-1v-1h-0.969v-0.969h-1v-1h-1.031c0-0.015 0.031-1 0.031-1h-1v-1h-1.031l0.031-1h-1v-1h-0.969v-0.969h-1v-1h-1.031l0.031-1h-1v-1h-1.031l0.031-1h-1v-1h-1.031l0.031-1h-0.969v-0.969h-1.031l0.031-1h-1v-1h-1.031l0.031-1h-1v-1h-1.031l0.031-1h-0.969v-0.969h-1.031l0.031-1h-1v-1h-1.031l0.031-1h-1v-1h-1.031l0.031-1h-0.969v-0.969h-1.031l0.031-1h-1v-1h-1.031l0.031-1h-1v-1h-1.031l0.031-1h-1v-1h-0.969v-0.969h-1v-1h-1.031l0.031-1h-1v-1h-1.031l0.031-1h-1v-1h-0.969v-0.969h-1v-1h-1.031l0.031-1h-1v-1h-1.031l0.031-1h-1v-1h-0.969v-0.969h-1v-1h-1.031l0.031-1h-1v-1h-1.031l0.031-1h-1v-1h-0.969v-0.969h-1v-1h-1.031c0-0.015 0.031-1 0.031-1h-1v-1h-51.37" fill-opacity="0.235" id="path183"/>
 <g fill-rule="evenodd" id="g185">
  <path d="m256 1c-140.83 0-255 114.17-255 255s114.17 255 255 255 255-114.17 255-255-114.17-255-255-255m8.827 44.931c120.9 0 218.9 98 218.9 218.9s-98 218.9-218.9 218.9-218.93-98-218.93-218.9 98.03-218.9 218.93-218.9" fill-opacity="0.067" id="path187"/>
  <g fill-opacity="0.129" id="g189">
   <path d="m256 4.433c-138.94 0-251.57 112.63-251.57 251.57s112.63 251.57 251.57 251.57 251.57-112.63 251.57-251.57-112.63-251.57-251.57-251.57m5.885 38.556c120.9 0 218.9 98 218.9 218.9s-98 218.9-218.9 218.9-218.93-98-218.93-218.9 98.03-218.9 218.93-218.9" id="path191"/>
   <path d="m256 8.356c-136.77 0-247.64 110.87-247.64 247.64s110.87 247.64 247.64 247.64 247.64-110.87 247.64-247.64-110.87-247.64-247.64-247.64m2.942 31.691c120.9 0 218.9 98 218.9 218.9s-98 218.9-218.9 218.9-218.93-98-218.93-218.9 98.03-218.9 218.93-218.9" id="path193"/>
  </g>
  <path fill="#ffffff" stroke-width="4.904" stroke="#000000" stroke-opacity="0.31" d="m253.04 7.859c-135.42 0-245.19 109.78-245.19 245.19 0 135.42 109.78 245.19 245.19 245.19 135.42 0 245.19-109.78 245.19-245.19 0-135.42-109.78-245.19-245.19-245.19zm0 26.297c120.9 0 218.9 98 218.9 218.9s-98 218.9-218.9 218.9-218.93-98-218.93-218.9 98.03-218.9 218.93-218.9z" id="path195"/>
 </g>
 <text font-family="Gentium Book Basic" x="729.64" y="231.36" line-height="125%" font-size="129.23" id="text197" word-spacing="0" letter-spacing="0"><tspan x="729.64" y="231.36" id="tspan199"/>
 </text>
 <text font-family="Arial" x="378.91" y="579.25" transform="scale(4.0128 .2492)" font-size="46.954" id="text201" text-anchor="middle"/>
 <text font-family="Gentium Book Basic" x="1310.91" y="151.36" line-height="125%" font-size="129.23" id="text203" word-spacing="0" letter-spacing="0"><tspan x="1310.91" y="151.36" id="tspan205"/>
 </text>
 <text font-family="Arial" x="523.76" y="258.22" transform="scale(4.0128 .2492)" font-size="46.954" id="text207" text-anchor="middle"/>
 <text font-family="Gentium Book Basic" x="239.33" y="-29.901" line-height="125%" font-size="129.23" id="text209" word-spacing="0" letter-spacing="0"><tspan x="239.33" y="-29.901" id="tspan211"/>
 </text>
 <text font-family="Arial" x="256.72" y="-469.14" transform="scale(4.0128 .2492)" font-size="46.954" id="text213" text-anchor="middle"/>
 <text font-family="Gentium Book Basic" x="1337.38" y="-246.37" line-height="125%" font-size="129.23" id="text215" word-spacing="0" letter-spacing="0"><tspan x="1337.38" y="-246.37" id="tspan217"/>
 </text>
 <text font-family="Arial" x="530.36" y="-1337.81" transform="scale(4.0128 .2492)" font-size="46.954" id="text219" text-anchor="middle"/>
 <text font-family="Gentium Book Basic" x="1918.65" y="-326.38" line-height="125%" font-size="129.23" id="text221" word-spacing="0" letter-spacing="0"><tspan x="1918.65" y="-326.38" id="tspan223"/>
 </text>
 <text font-family="Arial" x="675.21" y="-1658.85" transform="scale(4.0128 .2492)" font-size="46.954" id="text225" text-anchor="middle"/>
 <text font-family="Gentium Book Basic" x="1529.53" y="-798.78" line-height="125%" font-size="129.23" id="text227" word-spacing="0" letter-spacing="0"><tspan x="1529.53" y="-798.78" id="tspan229"/>
 </text>
 <text font-family="Arial" x="578.24" y="-3554.51" transform="scale(4.0128 .2492)" font-size="46.954" id="text231" text-anchor="middle"/>
 <text font-family="Gentium Book Basic" x="2110.79" y="-878.78" line-height="125%" font-size="129.23" id="text233" word-spacing="0" letter-spacing="0"><tspan x="2110.79" y="-878.78" id="tspan235"/>
 </text>
 <text font-family="Arial" x="723.09" y="-3875.54" transform="scale(4.0128 .2492)" font-size="46.954" id="text237" text-anchor="middle"/>
 <text font-family="Gentium Book Basic" x="277.99" y="535.94" line-height="125%" font-size="208.33" id="text239" word-spacing="0" letter-spacing="0"><tspan x="277.99" y="535.94" id="tspan241"/>
 </text>
 <path d="m202.08 141.17a42.355 3.5947 0 1 1 -84.711 0 42.355 3.5947 0 1 1 84.711 0" fill="#272727" id="0"/>
 <use width="512" height="512" transform="translate(192.55)" xlink:href="#0" id="use244"/>
 <path d="m377.97 137.08h-51.39v139.15h46.666l2.596-2.586z" fill="url(#3)" id="path246"/>
 <path d="m134.04 137.08c0 138.72 0.799 0.198 0.806 136.56 0 0.641 1.658 1.095 1.658 1.748l46.757 0.193 2.15-138.5z" fill="url(#2)" id="path248"/>
 <g fill="#868686" id="g250">
  <path d="m322.68 130.27v8.286c7.637-0.634 18.08-0.985 29.604-0.985 10.36 0 19.691 0.327 27.05 0.851v-8.151h-56.655" id="path252"/>
  <path d="m132.52 133.32v5.106c7.378-0.53 16.764-0.851 27.19-0.851 10.464 0 19.929 0.317 27.32 0.851v-5.106h-54.51" id="path254"/>
 </g>
 <path d="m375.83 273.67h-241.16l47.39 47.38h146.76z" fill="#ffffff" id="path256"/>
</svg>
