<?xml version="1.0" encoding="UTF-8" standalone="no"?>
<svg xmlns="http://www.w3.org/2000/svg" xmlns:sodipodi="http://sodipodi.sourceforge.net/DTD/sodipodi-0.dtd" xmlns:inkscape="http://www.inkscape.org/namespaces/inkscape" viewBox="0 0 512 512" version="1.1" width="512" height="512">
 <metadata id="metadata600"/>
 <text id="text4" line-height="125%" font-family="&apos;Gentium Book Basic&apos;" x="729.64" y="231.36" font-size="129.23" word-spacing="0" letter-spacing="0"><tspan id="tspan6" x="729.64" y="231.36"/>
 </text>
 <text id="text8" font-family="Arial" x="378.91" y="579.26" font-size="46.954" transform="scale(4.0128.2492)" text-anchor="middle"/>
 <text id="text10" line-height="125%" font-family="&apos;Gentium Book Basic&apos;" x="1310.91" y="151.36" font-size="129.23" word-spacing="0" letter-spacing="0"><tspan id="tspan12" x="1310.91" y="151.36"/>
 </text>
 <text id="text14" font-family="Arial" x="523.76" y="258.22" font-size="46.954" transform="scale(4.0128.2492)" text-anchor="middle"/>
 <text id="text16" line-height="125%" font-family="&apos;Gentium Book Basic&apos;" x="239.33" y="-29.9" font-size="129.23" word-spacing="0" letter-spacing="0"><tspan id="tspan18" x="239.33" y="-29.9"/>
 </text>
 <text id="text20" font-family="Arial" x="256.72" y="-469.13" font-size="46.954" transform="scale(4.0128.2492)" text-anchor="middle"/>
 <text id="text22" line-height="125%" font-family="&apos;Gentium Book Basic&apos;" x="1337.38" y="-246.37" font-size="129.23" word-spacing="0" letter-spacing="0"><tspan id="tspan24" x="1337.38" y="-246.37"/>
 </text>
 <text id="text26" font-family="Arial" x="530.36" y="-1337.8" font-size="46.954" transform="scale(4.0128.2492)" text-anchor="middle"/>
 <text id="text28" line-height="125%" font-family="&apos;Gentium Book Basic&apos;" x="1918.65" y="-326.37" font-size="129.23" word-spacing="0" letter-spacing="0"><tspan id="tspan30" x="1918.65" y="-326.37"/>
 </text>
 <text id="text32" font-family="Arial" x="675.21" y="-1658.83" font-size="46.954" transform="scale(4.0128.2492)" text-anchor="middle"/>
 <text id="text34" line-height="125%" font-family="&apos;Gentium Book Basic&apos;" x="1529.53" y="-798.77" font-size="129.23" word-spacing="0" letter-spacing="0"><tspan id="tspan36" x="1529.53" y="-798.77"/>
 </text>
 <text id="text38" font-family="Arial" x="578.24" y="-3554.48" font-size="46.954" transform="scale(4.0128.2492)" text-anchor="middle"/>
 <text id="text40" line-height="125%" font-family="&apos;Gentium Book Basic&apos;" x="2110.79" y="-878.78" font-size="129.23" word-spacing="0" letter-spacing="0"><tspan id="tspan42" x="2110.79" y="-878.78"/>
 </text>
 <text id="text44" font-family="Arial" x="723.09" y="-3875.52" font-size="46.954" transform="scale(4.0128.2492)" text-anchor="middle"/>
 <g id="g46" line-height="125%" font-family="&apos;Gentium Book Basic&apos;" word-spacing="0" letter-spacing="0">
  <text id="text48" font-size="208.33" x="277.99" y="535.94"><tspan id="tspan50" x="277.99" y="535.94"/>
  </text>
  <text id="text52" font-size="129.23" x="729.64" y="231.36"><tspan id="tspan54" x="729.64" y="231.36"/>
  </text>
 </g>
 <text id="text56" font-family="Arial" x="378.91" y="579.26" font-size="46.954" transform="scale(4.0128.2492)" text-anchor="middle"/>
 <text id="text58" line-height="125%" font-family="&apos;Gentium Book Basic&apos;" x="1310.91" y="151.36" font-size="129.23" word-spacing="0" letter-spacing="0"><tspan id="tspan60" x="1310.91" y="151.36"/>
 </text>
 <text id="text62" font-family="Arial" x="523.76" y="258.22" font-size="46.954" transform="scale(4.0128.2492)" text-anchor="middle"/>
 <text id="text64" line-height="125%" font-family="&apos;Gentium Book Basic&apos;" x="239.33" y="-29.9" font-size="129.23" word-spacing="0" letter-spacing="0"><tspan id="tspan66" x="239.33" y="-29.9"/>
 </text>
 <text id="text68" font-family="Arial" x="256.72" y="-469.13" font-size="46.954" transform="scale(4.0128.2492)" text-anchor="middle"/>
 <text id="text70" line-height="125%" font-family="&apos;Gentium Book Basic&apos;" x="1337.38" y="-246.37" font-size="129.23" word-spacing="0" letter-spacing="0"><tspan id="tspan72" x="1337.38" y="-246.37"/>
 </text>
 <text id="text74" font-family="Arial" x="530.36" y="-1337.8" font-size="46.954" transform="scale(4.0128.2492)" text-anchor="middle"/>
 <text id="text76" line-height="125%" font-family="&apos;Gentium Book Basic&apos;" x="1918.65" y="-326.37" font-size="129.23" word-spacing="0" letter-spacing="0"><tspan id="tspan78" x="1918.65" y="-326.37"/>
 </text>
 <text id="text80" font-family="Arial" x="675.21" y="-1658.83" font-size="46.954" transform="scale(4.0128.2492)" text-anchor="middle"/>
 <text id="text82" line-height="125%" font-family="&apos;Gentium Book Basic&apos;" x="1529.53" y="-798.77" font-size="129.23" word-spacing="0" letter-spacing="0"><tspan id="tspan84" x="1529.53" y="-798.77"/>
 </text>
 <text id="text86" font-family="Arial" x="578.24" y="-3554.48" font-size="46.954" transform="scale(4.0128.2492)" text-anchor="middle"/>
 <text id="text88" line-height="125%" font-family="&apos;Gentium Book Basic&apos;" x="2110.79" y="-878.78" font-size="129.23" word-spacing="0" letter-spacing="0"><tspan id="tspan90" x="2110.79" y="-878.78"/>
 </text>
 <text id="text92" font-family="Arial" x="723.09" y="-3875.52" font-size="46.954" transform="scale(4.0128.2492)" text-anchor="middle"/>
 <g id="g94" line-height="125%" font-family="&apos;Gentium Book Basic&apos;" word-spacing="0" letter-spacing="0">
  <text id="text96" font-size="208.33" x="277.99" y="535.94"><tspan id="tspan98" x="277.99" y="535.94"/>
  </text>
  <text id="text100" font-size="129.23" x="729.64" y="231.36"><tspan id="tspan102" x="729.64" y="231.36"/>
  </text>
 </g>
 <text id="text104" font-family="Arial" x="378.91" y="579.26" font-size="46.954" transform="scale(4.0128.2492)" text-anchor="middle"/>
 <text id="text106" line-height="125%" font-family="&apos;Gentium Book Basic&apos;" x="1310.91" y="151.36" font-size="129.23" word-spacing="0" letter-spacing="0"><tspan id="tspan108" x="1310.91" y="151.36"/>
 </text>
 <text id="text110" font-family="Arial" x="523.76" y="258.22" font-size="46.954" transform="scale(4.0128.2492)" text-anchor="middle"/>
 <text id="text112" line-height="125%" font-family="&apos;Gentium Book Basic&apos;" x="239.33" y="-29.9" font-size="129.23" word-spacing="0" letter-spacing="0"><tspan id="tspan114" x="239.33" y="-29.9"/>
 </text>
 <text id="text116" font-family="Arial" x="256.72" y="-469.13" font-size="46.954" transform="scale(4.0128.2492)" text-anchor="middle"/>
 <text id="text118" line-height="125%" font-family="&apos;Gentium Book Basic&apos;" x="1337.38" y="-246.37" font-size="129.23" word-spacing="0" letter-spacing="0"><tspan id="tspan120" x="1337.38" y="-246.37"/>
 </text>
 <text id="text122" font-family="Arial" x="530.36" y="-1337.8" font-size="46.954" transform="scale(4.0128.2492)" text-anchor="middle"/>
 <text id="text124" line-height="125%" font-family="&apos;Gentium Book Basic&apos;" x="1918.65" y="-326.37" font-size="129.23" word-spacing="0" letter-spacing="0"><tspan id="tspan126" x="1918.65" y="-326.37"/>
 </text>
 <text id="text128" font-family="Arial" x="675.21" y="-1658.83" font-size="46.954" transform="scale(4.0128.2492)" text-anchor="middle"/>
 <text id="text130" line-height="125%" font-family="&apos;Gentium Book Basic&apos;" x="1529.53" y="-798.77" font-size="129.23" word-spacing="0" letter-spacing="0"><tspan id="tspan132" x="1529.53" y="-798.77"/>
 </text>
 <text id="text134" font-family="Arial" x="578.24" y="-3554.48" font-size="46.954" transform="scale(4.0128.2492)" text-anchor="middle"/>
 <text id="text136" line-height="125%" font-family="&apos;Gentium Book Basic&apos;" x="2110.79" y="-878.78" font-size="129.23" word-spacing="0" letter-spacing="0"><tspan id="tspan138" x="2110.79" y="-878.78"/>
 </text>
 <text id="text140" font-family="Arial" x="723.09" y="-3875.52" font-size="46.954" transform="scale(4.0128.2492)" text-anchor="middle"/>
 <g id="g142" line-height="125%" font-family="&apos;Gentium Book Basic&apos;" word-spacing="0" letter-spacing="0">
  <text id="text144" font-size="208.33" x="277.99" y="535.94"><tspan id="tspan146" x="277.99" y="535.94"/>
  </text>
  <text id="text148" font-size="129.23" x="729.64" y="231.36"><tspan id="tspan150" x="729.64" y="231.36"/>
  </text>
 </g>
 <text id="text152" font-family="Arial" x="378.91" y="579.26" font-size="46.954" transform="scale(4.0128.2492)" text-anchor="middle"/>
 <text id="text154" line-height="125%" font-family="&apos;Gentium Book Basic&apos;" x="1310.91" y="151.36" font-size="129.23" word-spacing="0" letter-spacing="0"><tspan id="tspan156" x="1310.91" y="151.36"/>
 </text>
 <text id="text158" font-family="Arial" x="523.76" y="258.22" font-size="46.954" transform="scale(4.0128.2492)" text-anchor="middle"/>
 <text id="text160" line-height="125%" font-family="&apos;Gentium Book Basic&apos;" x="239.33" y="-29.9" font-size="129.23" word-spacing="0" letter-spacing="0"><tspan id="tspan162" x="239.33" y="-29.9"/>
 </text>
 <text id="text164" font-family="Arial" x="256.72" y="-469.13" font-size="46.954" transform="scale(4.0128.2492)" text-anchor="middle"/>
 <text id="text166" line-height="125%" font-family="&apos;Gentium Book Basic&apos;" x="1337.38" y="-246.37" font-size="129.23" word-spacing="0" letter-spacing="0"><tspan id="tspan168" x="1337.38" y="-246.37"/>
 </text>
 <text id="text170" font-family="Arial" x="530.36" y="-1337.8" font-size="46.954" transform="scale(4.0128.2492)" text-anchor="middle"/>
 <text id="text172" line-height="125%" font-family="&apos;Gentium Book Basic&apos;" x="1918.65" y="-326.37" font-size="129.23" word-spacing="0" letter-spacing="0"><tspan id="tspan174" x="1918.65" y="-326.37"/>
 </text>
 <text id="text176" font-family="Arial" x="675.21" y="-1658.83" font-size="46.954" transform="scale(4.0128.2492)" text-anchor="middle"/>
 <text id="text178" line-height="125%" font-family="&apos;Gentium Book Basic&apos;" x="1529.53" y="-798.77" font-size="129.23" word-spacing="0" letter-spacing="0"><tspan id="tspan180" x="1529.53" y="-798.77"/>
 </text>
 <text id="text182" font-family="Arial" x="578.24" y="-3554.48" font-size="46.954" transform="scale(4.0128.2492)" text-anchor="middle"/>
 <text id="text184" line-height="125%" font-family="&apos;Gentium Book Basic&apos;" x="2110.79" y="-878.78" font-size="129.23" word-spacing="0" letter-spacing="0"><tspan id="tspan186" x="2110.79" y="-878.78"/>
 </text>
 <text id="text188" font-family="Arial" x="723.09" y="-3875.52" font-size="46.954" transform="scale(4.0128.2492)" text-anchor="middle"/>
 <g id="g190" line-height="125%" font-family="&apos;Gentium Book Basic&apos;" word-spacing="0" letter-spacing="0">
  <text id="text192" font-size="208.33" x="277.99" y="535.94"><tspan id="tspan194" x="277.99" y="535.94"/>
  </text>
  <text id="text196" font-size="129.23" x="729.64" y="231.36"><tspan id="tspan198" x="729.64" y="231.36"/>
  </text>
 </g>
 <text id="text200" font-family="Arial" x="378.91" y="579.26" font-size="46.954" transform="scale(4.0128.2492)" text-anchor="middle"/>
 <text id="text202" line-height="125%" font-family="&apos;Gentium Book Basic&apos;" x="1310.91" y="151.36" font-size="129.23" word-spacing="0" letter-spacing="0"><tspan id="tspan204" x="1310.91" y="151.36"/>
 </text>
 <text id="text206" font-family="Arial" x="523.76" y="258.22" font-size="46.954" transform="scale(4.0128.2492)" text-anchor="middle"/>
 <text id="text208" line-height="125%" font-family="&apos;Gentium Book Basic&apos;" x="239.33" y="-29.9" font-size="129.23" word-spacing="0" letter-spacing="0"><tspan id="tspan210" x="239.33" y="-29.9"/>
 </text>
 <text id="text212" font-family="Arial" x="256.72" y="-469.13" font-size="46.954" transform="scale(4.0128.2492)" text-anchor="middle"/>
 <text id="text214" line-height="125%" font-family="&apos;Gentium Book Basic&apos;" x="1337.38" y="-246.37" font-size="129.23" word-spacing="0" letter-spacing="0"><tspan id="tspan216" x="1337.38" y="-246.37"/>
 </text>
 <text id="text218" font-family="Arial" x="530.36" y="-1337.8" font-size="46.954" transform="scale(4.0128.2492)" text-anchor="middle"/>
 <text id="text220" line-height="125%" font-family="&apos;Gentium Book Basic&apos;" x="1918.65" y="-326.37" font-size="129.23" word-spacing="0" letter-spacing="0"><tspan id="tspan222" x="1918.65" y="-326.37"/>
 </text>
 <text id="text224" font-family="Arial" x="675.21" y="-1658.83" font-size="46.954" transform="scale(4.0128.2492)" text-anchor="middle"/>
 <text id="text226" line-height="125%" font-family="&apos;Gentium Book Basic&apos;" x="1529.53" y="-798.77" font-size="129.23" word-spacing="0" letter-spacing="0"><tspan id="tspan228" x="1529.53" y="-798.77"/>
 </text>
 <text id="text230" font-family="Arial" x="578.24" y="-3554.48" font-size="46.954" transform="scale(4.0128.2492)" text-anchor="middle"/>
 <text id="text232" line-height="125%" font-family="&apos;Gentium Book Basic&apos;" x="2110.79" y="-878.78" font-size="129.23" word-spacing="0" letter-spacing="0"><tspan id="tspan234" x="2110.79" y="-878.78"/>
 </text>
 <text id="text236" font-family="Arial" x="723.09" y="-3875.52" font-size="46.954" transform="scale(4.0128.2492)" text-anchor="middle"/>
 <g id="g238" line-height="125%" font-family="&apos;Gentium Book Basic&apos;" word-spacing="0" letter-spacing="0">
  <text id="text240" font-size="208.33" x="277.99" y="535.94"><tspan id="tspan242" x="277.99" y="535.94"/>
  </text>
  <text id="text244" font-size="129.23" x="729.64" y="231.36"><tspan id="tspan246" x="729.64" y="231.36"/>
  </text>
 </g>
 <text id="text248" font-family="Arial" x="378.91" y="579.26" font-size="46.954" transform="scale(4.0128.2492)" text-anchor="middle"/>
 <text id="text250" line-height="125%" font-family="&apos;Gentium Book Basic&apos;" x="1310.91" y="151.36" font-size="129.23" word-spacing="0" letter-spacing="0"><tspan id="tspan252" x="1310.91" y="151.36"/>
 </text>
 <text id="text254" font-family="Arial" x="523.76" y="258.22" font-size="46.954" transform="scale(4.0128.2492)" text-anchor="middle"/>
 <text id="text256" line-height="125%" font-family="&apos;Gentium Book Basic&apos;" x="239.33" y="-29.9" font-size="129.23" word-spacing="0" letter-spacing="0"><tspan id="tspan258" x="239.33" y="-29.9"/>
 </text>
 <text id="text260" font-family="Arial" x="256.72" y="-469.13" font-size="46.954" transform="scale(4.0128.2492)" text-anchor="middle"/>
 <text id="text262" line-height="125%" font-family="&apos;Gentium Book Basic&apos;" x="1337.38" y="-246.37" font-size="129.23" word-spacing="0" letter-spacing="0"><tspan id="tspan264" x="1337.38" y="-246.37"/>
 </text>
 <text id="text266" font-family="Arial" x="530.36" y="-1337.8" font-size="46.954" transform="scale(4.0128.2492)" text-anchor="middle"/>
 <text id="text268" line-height="125%" font-family="&apos;Gentium Book Basic&apos;" x="1918.65" y="-326.37" font-size="129.23" word-spacing="0" letter-spacing="0"><tspan id="tspan270" x="1918.65" y="-326.37"/>
 </text>
 <text id="text272" font-family="Arial" x="675.21" y="-1658.83" font-size="46.954" transform="scale(4.0128.2492)" text-anchor="middle"/>
 <text id="text274" line-height="125%" font-family="&apos;Gentium Book Basic&apos;" x="1529.53" y="-798.77" font-size="129.23" word-spacing="0" letter-spacing="0"><tspan id="tspan276" x="1529.53" y="-798.77"/>
 </text>
 <text id="text278" font-family="Arial" x="578.24" y="-3554.48" font-size="46.954" transform="scale(4.0128.2492)" text-anchor="middle"/>
 <text id="text280" line-height="125%" font-family="&apos;Gentium Book Basic&apos;" x="2110.79" y="-878.78" font-size="129.23" word-spacing="0" letter-spacing="0"><tspan id="tspan282" x="2110.79" y="-878.78"/>
 </text>
 <text id="text284" font-family="Arial" x="723.09" y="-3875.52" font-size="46.954" transform="scale(4.0128.2492)" text-anchor="middle"/>
 <g id="g286" line-height="125%" font-family="&apos;Gentium Book Basic&apos;" word-spacing="0" letter-spacing="0">
  <text id="text288" font-size="208.33" x="277.99" y="535.94"><tspan id="tspan290" x="277.99" y="535.94"/>
  </text>
  <text id="text292" font-size="129.23" x="13.421" y="260.32"><tspan id="tspan294" x="13.421" y="260.32"/>
  </text>
 </g>
 <text id="text296" font-family="Arial" x="200.43" y="695.45" font-size="46.954" transform="scale(4.0128.2492)" text-anchor="middle"/>
 <text id="text298" line-height="125%" font-family="&apos;Gentium Book Basic&apos;" x="594.69" y="180.32" font-size="129.23" word-spacing="0" letter-spacing="0"><tspan id="tspan300" x="594.69" y="180.32"/>
 </text>
 <text id="text302" font-family="Arial" x="345.27" y="374.43" font-size="46.954" transform="scale(4.0128.2492)" text-anchor="middle"/>
 <text id="text304" line-height="125%" font-family="&apos;Gentium Book Basic&apos;" x="-476.89" y="-0.942" font-size="129.23" word-spacing="0" letter-spacing="0"><tspan id="tspan306" x="-476.89" y="-0.942"/>
 </text>
 <text id="text308" font-family="Arial" x="78.24" y="-352.93" font-size="46.954" transform="scale(4.0128.2492)" text-anchor="middle"/>
 <text id="text310" line-height="125%" font-family="&apos;Gentium Book Basic&apos;" x="621.16" y="-217.41" font-size="129.23" word-spacing="0" letter-spacing="0"><tspan id="tspan312" x="621.16" y="-217.41"/>
 </text>
 <text id="text314" font-family="Arial" x="351.87" y="-1221.6" font-size="46.954" transform="scale(4.0128.2492)" text-anchor="middle"/>
 <text id="text316" line-height="125%" font-family="&apos;Gentium Book Basic&apos;" x="1202.43" y="-297.42" font-size="129.23" word-spacing="0" letter-spacing="0"><tspan id="tspan318" x="1202.43" y="-297.42"/>
 </text>
 <text id="text320" font-family="Arial" x="496.72" y="-1542.63" font-size="46.954" transform="scale(4.0128.2492)" text-anchor="middle"/>
 <text id="text322" line-height="125%" font-family="&apos;Gentium Book Basic&apos;" x="813.31" y="-769.82" font-size="129.23" word-spacing="0" letter-spacing="0"><tspan id="tspan324" x="813.31" y="-769.82"/>
 </text>
 <text id="text326" font-family="Arial" x="399.75" y="-3438.29" font-size="46.954" transform="scale(4.0128.2492)" text-anchor="middle"/>
 <text id="text328" line-height="125%" font-family="&apos;Gentium Book Basic&apos;" x="1394.57" y="-849.82" font-size="129.23" word-spacing="0" letter-spacing="0"><tspan id="tspan330" x="1394.57" y="-849.82"/>
 </text>
 <text id="text332" font-family="Arial" x="544.6" y="-3759.31" font-size="46.954" transform="scale(4.0128.2492)" text-anchor="middle"/>
 <g id="g334" line-height="125%" font-family="&apos;Gentium Book Basic&apos;" word-spacing="0" letter-spacing="0">
  <text id="text336" font-size="208.33" x="-438.23" y="564.9"><tspan id="tspan338" x="-438.23" y="564.9"/>
  </text>
  <text id="text340" font-size="129.23" x="13.421" y="260.32"><tspan id="tspan342" x="13.421" y="260.32"/>
  </text>
 </g>
 <text id="text344" font-family="Arial" x="200.43" y="695.45" font-size="46.954" transform="scale(4.0128.2492)" text-anchor="middle"/>
 <text id="text346" line-height="125%" font-family="&apos;Gentium Book Basic&apos;" x="594.69" y="180.32" font-size="129.23" word-spacing="0" letter-spacing="0"><tspan id="tspan348" x="594.69" y="180.32"/>
 </text>
 <text id="text350" font-family="Arial" x="345.27" y="374.43" font-size="46.954" transform="scale(4.0128.2492)" text-anchor="middle"/>
 <text id="text352" line-height="125%" font-family="&apos;Gentium Book Basic&apos;" x="-476.89" y="-0.942" font-size="129.23" word-spacing="0" letter-spacing="0"><tspan id="tspan354" x="-476.89" y="-0.942"/>
 </text>
 <text id="text356" font-family="Arial" x="78.24" y="-352.93" font-size="46.954" transform="scale(4.0128.2492)" text-anchor="middle"/>
 <text id="text358" line-height="125%" font-family="&apos;Gentium Book Basic&apos;" x="621.16" y="-217.41" font-size="129.23" word-spacing="0" letter-spacing="0"><tspan id="tspan360" x="621.16" y="-217.41"/>
 </text>
 <text id="text362" font-family="Arial" x="351.87" y="-1221.59" font-size="46.954" transform="scale(4.0128.2492)" text-anchor="middle"/>
 <text id="text364" line-height="125%" font-family="&apos;Gentium Book Basic&apos;" x="1202.43" y="-297.42" font-size="129.23" word-spacing="0" letter-spacing="0"><tspan id="tspan366" x="1202.43" y="-297.42"/>
 </text>
 <text id="text368" font-family="Arial" x="496.72" y="-1542.62" font-size="46.954" transform="scale(4.0128.2492)" text-anchor="middle"/>
 <text id="text370" line-height="125%" font-family="&apos;Gentium Book Basic&apos;" x="813.31" y="-769.82" font-size="129.23" word-spacing="0" letter-spacing="0"><tspan id="tspan372" x="813.31" y="-769.82"/>
 </text>
 <text id="text374" font-family="Arial" x="399.75" y="-3438.27" font-size="46.954" transform="scale(4.0128.2492)" text-anchor="middle"/>
 <text id="text376" line-height="125%" font-family="&apos;Gentium Book Basic&apos;" x="1394.57" y="-849.82" font-size="129.23" word-spacing="0" letter-spacing="0"><tspan id="tspan378" x="1394.57" y="-849.82"/>
 </text>
 <text id="text380" font-family="Arial" x="544.6" y="-3759.29" font-size="46.954" transform="scale(4.0128.2492)" text-anchor="middle"/>
 <g id="g382" line-height="125%" font-family="&apos;Gentium Book Basic&apos;" word-spacing="0" letter-spacing="0">
  <text id="text384" font-size="208.33" x="-438.23" y="564.9"><tspan id="tspan386" x="-438.23" y="564.9"/>
  </text>
  <text id="text388" font-size="129.23" x="1357.26" y="2.596"><tspan id="tspan390" x="1357.26" y="2.596"/>
  </text>
 </g>
 <text id="text392" font-family="Arial" x="535.31" y="-338.73" font-size="46.954" transform="scale(4.0128.2492)" text-anchor="middle"/>
 <text id="text394" line-height="125%" font-family="&apos;Gentium Book Basic&apos;" x="1938.53" y="-77.4" font-size="129.23" word-spacing="0" letter-spacing="0"><tspan id="tspan396" x="1938.53" y="-77.4"/>
 </text>
 <text id="text398" font-family="Arial" x="680.16" y="-659.77" font-size="46.954" transform="scale(4.0128.2492)" text-anchor="middle"/>
 <text id="text400" line-height="125%" font-family="&apos;Gentium Book Basic&apos;" x="866.95" y="-258.66" font-size="129.23" word-spacing="0" letter-spacing="0"><tspan id="tspan402" x="866.95" y="-258.66"/>
 </text>
 <text id="text404" font-family="Arial" x="413.12" y="-1387.11" font-size="46.954" transform="scale(4.0128.2492)" text-anchor="middle"/>
 <text id="text406" line-height="125%" font-family="&apos;Gentium Book Basic&apos;" x="1965" y="-475.13" font-size="129.23" word-spacing="0" letter-spacing="0"><tspan id="tspan408" x="1965" y="-475.13"/>
 </text>
 <text id="text410" font-family="Arial" x="686.76" y="-2255.79" font-size="46.954" transform="scale(4.0128.2492)" text-anchor="middle"/>
 <text id="text412" line-height="125%" font-family="&apos;Gentium Book Basic&apos;" x="2546.27" y="-555.13" font-size="129.23" word-spacing="0" letter-spacing="0"><tspan id="tspan414" x="2546.27" y="-555.13"/>
 </text>
 <text id="text416" font-family="Arial" x="831.61" y="-2576.82" font-size="46.954" transform="scale(4.0128.2492)" text-anchor="middle"/>
 <text id="text418" line-height="125%" font-family="&apos;Gentium Book Basic&apos;" x="2157.15" y="-1027.53" font-size="129.23" word-spacing="0" letter-spacing="0"><tspan id="tspan420" x="2157.15" y="-1027.53"/>
 </text>
 <text id="text422" font-family="Arial" x="734.64" y="-4472.47" font-size="46.954" transform="scale(4.0128.2492)" text-anchor="middle"/>
 <text id="text424" line-height="125%" font-family="&apos;Gentium Book Basic&apos;" x="2738.41" y="-1107.54" font-size="129.23" word-spacing="0" letter-spacing="0"><tspan id="tspan426" x="2738.41" y="-1107.54"/>
 </text>
 <text id="text428" font-family="Arial" x="879.49" y="-4793.51" font-size="46.954" transform="scale(4.0128.2492)" text-anchor="middle"/>
 <g id="g430" line-height="125%" font-family="&apos;Gentium Book Basic&apos;" word-spacing="0" letter-spacing="0">
  <text id="text432" font-size="208.33" x="905.61" y="307.18"><tspan id="tspan434" x="905.61" y="307.18"/>
  </text>
  <text id="text436" font-size="129.23" x="729.64" y="231.36"><tspan id="tspan438" x="729.64" y="231.36"/>
  </text>
 </g>
 <text id="text440" font-family="Arial" x="378.91" y="579.26" font-size="46.954" transform="scale(4.0128.2492)" text-anchor="middle"/>
 <text id="text442" line-height="125%" font-family="&apos;Gentium Book Basic&apos;" x="1310.91" y="151.36" font-size="129.23" word-spacing="0" letter-spacing="0"><tspan id="tspan444" x="1310.91" y="151.36"/>
 </text>
 <text id="text446" font-family="Arial" x="523.76" y="258.22" font-size="46.954" transform="scale(4.0128.2492)" text-anchor="middle"/>
 <text id="text448" line-height="125%" font-family="&apos;Gentium Book Basic&apos;" x="239.33" y="-29.9" font-size="129.23" word-spacing="0" letter-spacing="0"><tspan id="tspan450" x="239.33" y="-29.9"/>
 </text>
 <text id="text452" font-family="Arial" x="256.72" y="-469.13" font-size="46.954" transform="scale(4.0128.2492)" text-anchor="middle"/>
 <text id="text454" line-height="125%" font-family="&apos;Gentium Book Basic&apos;" x="1337.38" y="-246.37" font-size="129.23" word-spacing="0" letter-spacing="0"><tspan id="tspan456" x="1337.38" y="-246.37"/>
 </text>
 <text id="text458" font-family="Arial" x="530.36" y="-1337.8" font-size="46.954" transform="scale(4.0128.2492)" text-anchor="middle"/>
 <text id="text460" line-height="125%" font-family="&apos;Gentium Book Basic&apos;" x="1918.65" y="-326.37" font-size="129.23" word-spacing="0" letter-spacing="0"><tspan id="tspan462" x="1918.65" y="-326.37"/>
 </text>
 <text id="text464" font-family="Arial" x="675.21" y="-1658.83" font-size="46.954" transform="scale(4.0128.2492)" text-anchor="middle"/>
 <text id="text466" line-height="125%" font-family="&apos;Gentium Book Basic&apos;" x="1529.53" y="-798.77" font-size="129.23" word-spacing="0" letter-spacing="0"><tspan id="tspan468" x="1529.53" y="-798.77"/>
 </text>
 <text id="text470" font-family="Arial" x="578.24" y="-3554.48" font-size="46.954" transform="scale(4.0128.2492)" text-anchor="middle"/>
 <text id="text472" line-height="125%" font-family="&apos;Gentium Book Basic&apos;" x="2110.79" y="-878.78" font-size="129.23" word-spacing="0" letter-spacing="0"><tspan id="tspan474" x="2110.79" y="-878.78"/>
 </text>
 <text id="text476" font-family="Arial" x="723.09" y="-3875.52" font-size="46.954" transform="scale(4.0128.2492)" text-anchor="middle"/>
 <g id="g478" line-height="125%" font-family="&apos;Gentium Book Basic&apos;" word-spacing="0" letter-spacing="0">
  <text id="text480" font-size="208.33" x="277.99" y="535.94"><tspan id="tspan482" x="277.99" y="535.94"/>
  </text>
  <text id="text484" font-size="129.23" x="729.64" y="231.36"><tspan id="tspan486" x="729.64" y="231.36"/>
  </text>
 </g>
 <text id="text488" font-family="Arial" x="378.91" y="579.26" font-size="46.954" transform="scale(4.0128.2492)" text-anchor="middle"/>
 <text id="text490" line-height="125%" font-family="&apos;Gentium Book Basic&apos;" x="1310.91" y="151.36" font-size="129.23" word-spacing="0" letter-spacing="0"><tspan id="tspan492" x="1310.91" y="151.36"/>
 </text>
 <text id="text494" font-family="Arial" x="523.76" y="258.22" font-size="46.954" transform="scale(4.0128.2492)" text-anchor="middle"/>
 <text id="text496" line-height="125%" font-family="&apos;Gentium Book Basic&apos;" x="239.33" y="-29.9" font-size="129.23" word-spacing="0" letter-spacing="0"><tspan id="tspan498" x="239.33" y="-29.9"/>
 </text>
 <text id="text500" font-family="Arial" x="256.72" y="-469.13" font-size="46.954" transform="scale(4.0128.2492)" text-anchor="middle"/>
 <text id="text502" line-height="125%" font-family="&apos;Gentium Book Basic&apos;" x="1337.38" y="-246.37" font-size="129.23" word-spacing="0" letter-spacing="0"><tspan id="tspan504" x="1337.38" y="-246.37"/>
 </text>
 <text id="text506" font-family="Arial" x="530.36" y="-1337.8" font-size="46.954" transform="scale(4.0128.2492)" text-anchor="middle"/>
 <text id="text508" line-height="125%" font-family="&apos;Gentium Book Basic&apos;" x="1918.65" y="-326.37" font-size="129.23" word-spacing="0" letter-spacing="0"><tspan id="tspan510" x="1918.65" y="-326.37"/>
 </text>
 <text id="text512" font-family="Arial" x="675.21" y="-1658.83" font-size="46.954" transform="scale(4.0128.2492)" text-anchor="middle"/>
 <text id="text514" line-height="125%" font-family="&apos;Gentium Book Basic&apos;" x="1529.53" y="-798.77" font-size="129.23" word-spacing="0" letter-spacing="0"><tspan id="tspan516" x="1529.53" y="-798.77"/>
 </text>
 <text id="text518" font-family="Arial" x="578.24" y="-3554.48" font-size="46.954" transform="scale(4.0128.2492)" text-anchor="middle"/>
 <text id="text520" line-height="125%" font-family="&apos;Gentium Book Basic&apos;" x="2110.79" y="-878.78" font-size="129.23" word-spacing="0" letter-spacing="0"><tspan id="tspan522" x="2110.79" y="-878.78"/>
 </text>
 <text id="text524" font-family="Arial" x="723.09" y="-3875.52" font-size="46.954" transform="scale(4.0128.2492)" text-anchor="middle"/>
 <text id="text526" line-height="125%" font-family="&apos;Gentium Book Basic&apos;" x="277.99" y="535.94" font-size="208.33" word-spacing="0" letter-spacing="0"><tspan id="tspan528" x="277.99" y="535.94"/>
 </text>
 <g id="g530" fill-rule="evenodd">
  <path id="path532" fill="#696969" d="m471.95 253.05c0 120.9-98.01 218.91-218.91 218.91s-218.91-98.01-218.91-218.91 98.01-218.91 218.91-218.91 218.91 98.01 218.91 218.91"/>
  <path id="path534" fill-opacity="0.067" d="m256 1c-140.83 0-255 114.17-255 255s114.17 255 255 255 255-114.17 255-255-114.17-255-255-255m8.827 44.931c120.9 0 218.9 98 218.9 218.9s-98 218.9-218.9 218.9-218.93-98-218.93-218.9 98.03-218.9 218.93-218.9"/>
  <g id="g536" fill-opacity="0.129">
   <path id="path538" d="m256 4.43c-138.94 0-251.57 112.63-251.57 251.57s112.63 251.57 251.57 251.57 251.57-112.63 251.57-251.57-112.63-251.57-251.57-251.57m5.885 38.556c120.9 0 218.9 98 218.9 218.9s-98 218.9-218.9 218.9-218.93-98-218.93-218.9 98.03-218.9 218.93-218.9"/>
   <path id="path540" d="m256 8.36c-136.77 0-247.64 110.87-247.64 247.64s110.87 247.64 247.64 247.64 247.64-110.87 247.64-247.64-110.87-247.64-247.64-247.64m2.942 31.691c120.9 0 218.9 98 218.9 218.9s-98 218.9-218.9 218.9-218.93-98-218.93-218.9 98.03-218.9 218.93-218.9"/>
  </g>
  <path id="path542" fill="#ffffff" stroke-opacity="0.31" d="m253.04 7.86c-135.42 0-245.19 109.78-245.19 245.19 0 135.42 109.78 245.19 245.19 245.19 135.42 0 245.19-109.78 245.19-245.19 0-135.42-109.78-245.19-245.19-245.19m0 26.297c120.9 0 218.9 98 218.9 218.9s-98 218.9-218.9 218.9-218.93-98-218.93-218.9 98.03-218.9 218.93-218.9z" stroke-width="4.904" stroke="#000000"/>
 </g>
 <text id="text544" line-height="125%" font-family="&apos;Gentium Book Basic&apos;" x="729.64" y="231.36" font-size="129.23" word-spacing="0" letter-spacing="0"><tspan id="tspan546" x="729.64" y="231.36"/>
 </text>
 <text id="text548" font-family="Arial" x="378.91" y="579.26" font-size="46.954" transform="scale(4.0128.2492)" text-anchor="middle"/>
 <text id="text550" line-height="125%" font-family="&apos;Gentium Book Basic&apos;" x="1310.91" y="151.36" font-size="129.23" word-spacing="0" letter-spacing="0"><tspan id="tspan552" x="1310.91" y="151.36"/>
 </text>
 <text id="text554" font-family="Arial" x="523.76" y="258.22" font-size="46.954" transform="scale(4.0128.2492)" text-anchor="middle"/>
 <text id="text556" line-height="125%" font-family="&apos;Gentium Book Basic&apos;" x="239.33" y="-29.9" font-size="129.23" word-spacing="0" letter-spacing="0"><tspan id="tspan558" x="239.33" y="-29.9"/>
 </text>
 <text id="text560" font-family="Arial" x="256.72" y="-469.13" font-size="46.954" transform="scale(4.0128.2492)" text-anchor="middle"/>
 <text id="text562" line-height="125%" font-family="&apos;Gentium Book Basic&apos;" x="1337.38" y="-246.37" font-size="129.23" word-spacing="0" letter-spacing="0"><tspan id="tspan564" x="1337.38" y="-246.37"/>
 </text>
 <text id="text566" font-family="Arial" x="530.36" y="-1337.8" font-size="46.954" transform="scale(4.0128.2492)" text-anchor="middle"/>
 <text id="text568" line-height="125%" font-family="&apos;Gentium Book Basic&apos;" x="1918.65" y="-326.37" font-size="129.23" word-spacing="0" letter-spacing="0"><tspan id="tspan570" x="1918.65" y="-326.37"/>
 </text>
 <text id="text572" font-family="Arial" x="675.21" y="-1658.83" font-size="46.954" transform="scale(4.0128.2492)" text-anchor="middle"/>
 <text id="text574" line-height="125%" font-family="&apos;Gentium Book Basic&apos;" x="1529.53" y="-798.77" font-size="129.23" word-spacing="0" letter-spacing="0"><tspan id="tspan576" x="1529.53" y="-798.77"/>
 </text>
 <text id="text578" font-family="Arial" x="578.24" y="-3554.48" font-size="46.954" transform="scale(4.0128.2492)" text-anchor="middle"/>
 <text id="text580" line-height="125%" font-family="&apos;Gentium Book Basic&apos;" x="2110.79" y="-878.78" font-size="129.23" word-spacing="0" letter-spacing="0"><tspan id="tspan582" x="2110.79" y="-878.78"/>
 </text>
 <text id="text584" font-family="Arial" x="723.09" y="-3875.52" font-size="46.954" transform="scale(4.0128.2492)" text-anchor="middle"/>
 <text id="text586" line-height="125%" font-family="&apos;Gentium Book Basic&apos;" x="277.99" y="535.94" font-size="208.33" word-spacing="0" letter-spacing="0"><tspan id="tspan588" x="277.99" y="535.94"/>
 </text>
 <g id="g590" fill-rule="evenodd">
  <path id="path592" d="m316.68 104.28l-27.02 105.34c-14.916 57.881-27.16 107.48-27.16 110.28 0 6.564-2.568 6.297-26.336-2.057-24.577-8.638-55.31-5.559-78.871 7.682-30.917 17.376-30.21 42.45-12.336 60.33l84.88 84.88c7.627 0.804 15.369 1.225 23.21 1.225 118.76 0 215.42-94.57 218.81-212.51l-155.17-155.17" opacity="0.25"/>
  <path id="path594" fill="#ffffff" d="m316.68 104.28l-27.02 105.34c-14.916 57.881-27.16 107.48-27.16 110.28 0 6.564-2.568 6.296-26.336-2.058-24.577-8.638-55.31-5.56-78.871 7.681-61.15 34.37 1.417 98.86 75.853 78.19 9.182-2.55 22.718-10.07 30.18-16.734 13.409-11.981 13.783-13.361 30.451-123.72 9.271-61.39 17.01-112.64 17.15-113.85 0.138-1.207 3.4 3.731 7.27 10.973s14.341 22.06 23.318 32.92c29.331 35.493 35.95 55.915 26.336 81.2-2.758 7.255-2.819 10.574-0.137 8.916 2.34-1.446 6.48-10.156 9.19-19.2 6.835-22.815 0.51-43.42-26.61-86.28-12.222-19.313-24.741-43.732-27.845-54.32l-5.761-19.341"/>
 </g>
</svg>
