<?xml version="1.0" encoding="UTF-8" standalone="no"?>
<svg xmlns="http://www.w3.org/2000/svg" xmlns:sodipodi="http://sodipodi.sourceforge.net/DTD/sodipodi-0.dtd" xmlns:inkscape="http://www.inkscape.org/namespaces/inkscape" viewBox="0 0 512 512" version="1.1" width="512" height="512">
 <metadata id="metadata214"/>
 <text id="text4" line-height="125%" font-family="&apos;Gentium Book Basic&apos;" x="729.64" y="231.36" font-size="129.23" word-spacing="0" letter-spacing="0"><tspan id="tspan6" x="729.64" y="231.36"/>
 </text>
 <text id="text8" font-family="Arial" x="378.91" y="579.26" font-size="46.954" transform="scale(4.0128.2492)" text-anchor="middle"/>
 <text id="text10" line-height="125%" font-family="&apos;Gentium Book Basic&apos;" x="1310.91" y="151.36" font-size="129.23" word-spacing="0" letter-spacing="0"><tspan id="tspan12" x="1310.91" y="151.36"/>
 </text>
 <text id="text14" font-family="Arial" x="523.76" y="258.22" font-size="46.954" transform="scale(4.0128.2492)" text-anchor="middle"/>
 <text id="text16" line-height="125%" font-family="&apos;Gentium Book Basic&apos;" x="239.33" y="-29.9" font-size="129.23" word-spacing="0" letter-spacing="0"><tspan id="tspan18" x="239.33" y="-29.9"/>
 </text>
 <text id="text20" font-family="Arial" x="256.72" y="-469.13" font-size="46.954" transform="scale(4.0128.2492)" text-anchor="middle"/>
 <text id="text22" line-height="125%" font-family="&apos;Gentium Book Basic&apos;" x="1337.38" y="-246.37" font-size="129.23" word-spacing="0" letter-spacing="0"><tspan id="tspan24" x="1337.38" y="-246.37"/>
 </text>
 <text id="text26" font-family="Arial" x="530.36" y="-1337.8" font-size="46.954" transform="scale(4.0128.2492)" text-anchor="middle"/>
 <text id="text28" line-height="125%" font-family="&apos;Gentium Book Basic&apos;" x="1918.65" y="-326.37" font-size="129.23" word-spacing="0" letter-spacing="0"><tspan id="tspan30" x="1918.65" y="-326.37"/>
 </text>
 <text id="text32" font-family="Arial" x="675.21" y="-1658.83" font-size="46.954" transform="scale(4.0128.2492)" text-anchor="middle"/>
 <text id="text34" line-height="125%" font-family="&apos;Gentium Book Basic&apos;" x="1529.53" y="-798.77" font-size="129.23" word-spacing="0" letter-spacing="0"><tspan id="tspan36" x="1529.53" y="-798.77"/>
 </text>
 <text id="text38" font-family="Arial" x="578.24" y="-3554.48" font-size="46.954" transform="scale(4.0128.2492)" text-anchor="middle"/>
 <text id="text40" line-height="125%" font-family="&apos;Gentium Book Basic&apos;" x="2110.79" y="-878.78" font-size="129.23" word-spacing="0" letter-spacing="0"><tspan id="tspan42" x="2110.79" y="-878.78"/>
 </text>
 <text id="text44" font-family="Arial" x="723.09" y="-3875.52" font-size="46.954" transform="scale(4.0128.2492)" text-anchor="middle"/>
 <g id="g46" line-height="125%" font-family="&apos;Gentium Book Basic&apos;" word-spacing="0" letter-spacing="0">
  <text id="text48" font-size="208.33" x="277.99" y="535.94"><tspan id="tspan50" x="277.99" y="535.94"/>
  </text>
  <text id="text52" font-size="129.23" x="968.53" y="-503.34"><tspan id="tspan54" x="968.53" y="-503.34"/>
  </text>
 </g>
 <text id="text56" font-family="Arial" x="438.44" y="-2368.97" font-size="46.954" transform="scale(4.0128.2492)" text-anchor="middle"/>
 <text id="text58" line-height="125%" font-family="&apos;Gentium Book Basic&apos;" x="1549.8" y="-583.34" font-size="129.23" word-spacing="0" letter-spacing="0"><tspan id="tspan60" x="1549.8" y="-583.34"/>
 </text>
 <text id="text62" font-family="Arial" x="583.29" y="-2690.01" font-size="46.954" transform="scale(4.0128.2492)" text-anchor="middle"/>
 <text id="text64" line-height="125%" font-family="&apos;Gentium Book Basic&apos;" x="478.22" y="-764.6" font-size="129.23" word-spacing="0" letter-spacing="0"><tspan id="tspan66" x="478.22" y="-764.6"/>
 </text>
 <text id="text68" font-family="Arial" x="316.25" y="-3417.36" font-size="46.954" transform="scale(4.0128.2492)" text-anchor="middle"/>
 <text id="text70" line-height="125%" font-family="&apos;Gentium Book Basic&apos;" x="1576.27" y="-981.07" font-size="129.23" word-spacing="0" letter-spacing="0"><tspan id="tspan72" x="1576.27" y="-981.07"/>
 </text>
 <text id="text74" font-family="Arial" x="589.89" y="-4286.02" font-size="46.954" transform="scale(4.0128.2492)" text-anchor="middle"/>
 <text id="text76" line-height="125%" font-family="&apos;Gentium Book Basic&apos;" x="2157.54" y="-1061.07" font-size="129.23" word-spacing="0" letter-spacing="0"><tspan id="tspan78" x="2157.54" y="-1061.07"/>
 </text>
 <text id="text80" font-family="Arial" x="734.74" y="-4607.05" font-size="46.954" transform="scale(4.0128.2492)" text-anchor="middle"/>
 <text id="text82" line-height="125%" font-family="&apos;Gentium Book Basic&apos;" x="1768.42" y="-1533.47" font-size="129.23" word-spacing="0" letter-spacing="0"><tspan id="tspan84" x="1768.42" y="-1533.47"/>
 </text>
 <text id="text86" font-family="Arial" x="637.77" y="-6502.69" font-size="46.954" transform="scale(4.0128.2492)" text-anchor="middle"/>
 <text id="text88" line-height="125%" font-family="&apos;Gentium Book Basic&apos;" x="2349.68" y="-1613.48" font-size="129.23" word-spacing="0" letter-spacing="0"><tspan id="tspan90" x="2349.68" y="-1613.48"/>
 </text>
 <text id="text92" font-family="Arial" x="782.62" y="-6823.73" font-size="46.954" transform="scale(4.0128.2492)" text-anchor="middle"/>
 <text id="text94" line-height="125%" font-family="&apos;Gentium Book Basic&apos;" x="516.88" y="-198.76" font-size="208.33" word-spacing="0" letter-spacing="0"><tspan id="tspan96" x="516.88" y="-198.76"/>
 </text>
 <g id="g98" fill-rule="evenodd">
  <path id="path100" fill="#6b6b6b" d="m471.95 253.05c0 120.9-98.01 218.91-218.91 218.91s-218.91-98.01-218.91-218.91 98.01-218.91 218.91-218.91 218.91 98.01 218.91 218.91"/>
  <path id="path102" fill-opacity="0.067" d="m256 1c-140.83 0-255 114.17-255 255s114.17 255 255 255 255-114.17 255-255-114.17-255-255-255m8.827 44.931c120.9 0 218.9 98 218.9 218.9s-98 218.9-218.9 218.9-218.93-98-218.93-218.9 98.03-218.9 218.93-218.9"/>
  <g id="g104" fill-opacity="0.129">
   <path id="path106" d="m256 4.43c-138.94 0-251.57 112.63-251.57 251.57s112.63 251.57 251.57 251.57 251.57-112.63 251.57-251.57-112.63-251.57-251.57-251.57m5.885 38.556c120.9 0 218.9 98 218.9 218.9s-98 218.9-218.9 218.9-218.93-98-218.93-218.9 98.03-218.9 218.93-218.9"/>
   <path id="path108" d="m256 8.36c-136.77 0-247.64 110.87-247.64 247.64s110.87 247.64 247.64 247.64 247.64-110.87 247.64-247.64-110.87-247.64-247.64-247.64m2.942 31.691c120.9 0 218.9 98 218.9 218.9s-98 218.9-218.9 218.9-218.93-98-218.93-218.9 98.03-218.9 218.93-218.9"/>
  </g>
  <path id="path110" fill="#ffffff" stroke-opacity="0.31" d="m253.04 7.86c-135.42 0-245.19 109.78-245.19 245.19 0 135.42 109.78 245.19 245.19 245.19 135.42 0 245.19-109.78 245.19-245.19 0-135.42-109.78-245.19-245.19-245.19m0 26.297c120.9 0 218.9 98 218.9 218.9s-98 218.9-218.9 218.9-218.93-98-218.93-218.9 98.03-218.9 218.93-218.9z" stroke-width="4.904" stroke="#000000"/>
 </g>
 <text id="text112" line-height="125%" font-family="&apos;Gentium Book Basic&apos;" x="729.64" y="231.36" font-size="129.23" word-spacing="0" letter-spacing="0"><tspan id="tspan114" x="729.64" y="231.36"/>
 </text>
 <text id="text116" font-family="Arial" x="378.91" y="579.26" font-size="46.954" transform="scale(4.0128.2492)" text-anchor="middle"/>
 <text id="text118" line-height="125%" font-family="&apos;Gentium Book Basic&apos;" x="1310.91" y="151.36" font-size="129.23" word-spacing="0" letter-spacing="0"><tspan id="tspan120" x="1310.91" y="151.36"/>
 </text>
 <text id="text122" font-family="Arial" x="523.76" y="258.22" font-size="46.954" transform="scale(4.0128.2492)" text-anchor="middle"/>
 <text id="text124" line-height="125%" font-family="&apos;Gentium Book Basic&apos;" x="239.33" y="-29.9" font-size="129.23" word-spacing="0" letter-spacing="0"><tspan id="tspan126" x="239.33" y="-29.9"/>
 </text>
 <text id="text128" font-family="Arial" x="256.72" y="-469.13" font-size="46.954" transform="scale(4.0128.2492)" text-anchor="middle"/>
 <text id="text130" line-height="125%" font-family="&apos;Gentium Book Basic&apos;" x="1337.38" y="-246.37" font-size="129.23" word-spacing="0" letter-spacing="0"><tspan id="tspan132" x="1337.38" y="-246.37"/>
 </text>
 <text id="text134" font-family="Arial" x="530.36" y="-1337.8" font-size="46.954" transform="scale(4.0128.2492)" text-anchor="middle"/>
 <text id="text136" line-height="125%" font-family="&apos;Gentium Book Basic&apos;" x="1918.65" y="-326.37" font-size="129.23" word-spacing="0" letter-spacing="0"><tspan id="tspan138" x="1918.65" y="-326.37"/>
 </text>
 <text id="text140" font-family="Arial" x="675.21" y="-1658.83" font-size="46.954" transform="scale(4.0128.2492)" text-anchor="middle"/>
 <text id="text142" line-height="125%" font-family="&apos;Gentium Book Basic&apos;" x="1529.53" y="-798.77" font-size="129.23" word-spacing="0" letter-spacing="0"><tspan id="tspan144" x="1529.53" y="-798.77"/>
 </text>
 <text id="text146" font-family="Arial" x="578.24" y="-3554.48" font-size="46.954" transform="scale(4.0128.2492)" text-anchor="middle"/>
 <text id="text148" line-height="125%" font-family="&apos;Gentium Book Basic&apos;" x="2110.79" y="-878.78" font-size="129.23" word-spacing="0" letter-spacing="0"><tspan id="tspan150" x="2110.79" y="-878.78"/>
 </text>
 <text id="text152" font-family="Arial" x="723.09" y="-3875.52" font-size="46.954" transform="scale(4.0128.2492)" text-anchor="middle"/>
 <g id="g154" line-height="125%" font-family="&apos;Gentium Book Basic&apos;" word-spacing="0" letter-spacing="0">
  <text id="text156" font-size="208.33" x="277.99" y="535.94"><tspan id="tspan158" x="277.99" y="535.94"/>
  </text>
  <text id="text160" font-size="129.23" x="968.53" y="-503.34"><tspan id="tspan162" x="968.53" y="-503.34"/>
  </text>
 </g>
 <text id="text164" font-family="Arial" x="438.44" y="-2368.97" font-size="46.954" transform="scale(4.0128.2492)" text-anchor="middle"/>
 <text id="text166" line-height="125%" font-family="&apos;Gentium Book Basic&apos;" x="1549.8" y="-583.34" font-size="129.23" word-spacing="0" letter-spacing="0"><tspan id="tspan168" x="1549.8" y="-583.34"/>
 </text>
 <text id="text170" font-family="Arial" x="583.29" y="-2690.01" font-size="46.954" transform="scale(4.0128.2492)" text-anchor="middle"/>
 <text id="text172" line-height="125%" font-family="&apos;Gentium Book Basic&apos;" x="478.22" y="-764.6" font-size="129.23" word-spacing="0" letter-spacing="0"><tspan id="tspan174" x="478.22" y="-764.6"/>
 </text>
 <text id="text176" font-family="Arial" x="316.25" y="-3417.36" font-size="46.954" transform="scale(4.0128.2492)" text-anchor="middle"/>
 <text id="text178" line-height="125%" font-family="&apos;Gentium Book Basic&apos;" x="1576.27" y="-981.07" font-size="129.23" word-spacing="0" letter-spacing="0"><tspan id="tspan180" x="1576.27" y="-981.07"/>
 </text>
 <text id="text182" font-family="Arial" x="589.89" y="-4286.02" font-size="46.954" transform="scale(4.0128.2492)" text-anchor="middle"/>
 <text id="text184" line-height="125%" font-family="&apos;Gentium Book Basic&apos;" x="2157.54" y="-1061.07" font-size="129.23" word-spacing="0" letter-spacing="0"><tspan id="tspan186" x="2157.54" y="-1061.07"/>
 </text>
 <text id="text188" font-family="Arial" x="734.74" y="-4607.05" font-size="46.954" transform="scale(4.0128.2492)" text-anchor="middle"/>
 <text id="text190" line-height="125%" font-family="&apos;Gentium Book Basic&apos;" x="1768.42" y="-1533.47" font-size="129.23" word-spacing="0" letter-spacing="0"><tspan id="tspan192" x="1768.42" y="-1533.47"/>
 </text>
 <text id="text194" font-family="Arial" x="637.77" y="-6502.69" font-size="46.954" transform="scale(4.0128.2492)" text-anchor="middle"/>
 <text id="text196" line-height="125%" font-family="&apos;Gentium Book Basic&apos;" x="2349.68" y="-1613.48" font-size="129.23" word-spacing="0" letter-spacing="0"><tspan id="tspan198" x="2349.68" y="-1613.48"/>
 </text>
 <text id="text200" font-family="Arial" x="782.62" y="-6823.73" font-size="46.954" transform="scale(4.0128.2492)" text-anchor="middle"/>
 <text id="text202" line-height="125%" font-family="&apos;Gentium Book Basic&apos;" x="516.88" y="-198.76" font-size="208.33" word-spacing="0" letter-spacing="0"><tspan id="tspan204" x="516.88" y="-198.76"/>
 </text>
 <path id="path206" d="m277.76 90.21v102.62l-24.11-24.11c-9.968 0.013-19.898 1.252-29.613 3.855-61.14 16.381-97.51 79.22-81.13 140.36l-21.21 5.785 152.24 152.24c101.37-9.604 182.6-88.33 196.04-188.53l-192.21-192.21" opacity="0.25"/>
 <path id="path208" fill="#ffffff" d="m277.76 90.21v171.62c-11.914-5.659-28.309-5.721-43.39 1.102-22.63 10.239-33.609 32.06-24.656 48.622 8.954 16.562 34.533 21.672 57.16 11.432 18.1-8.191 28.708-23.784 27.686-38.15 0.031 0.095 0.11 0.181 0.138 0.275v-145.59c15.913 11.35 53.44 54.39 38.43 105.78 8.868-26.02 9.636-52.968 5.923-67.906-4.778-19.225-20.916-39.04-37.603-56.887-17.53-18.749-23.691-30.3-23.691-30.3m-24.1 78.51c-9.968 0.013-19.899 1.253-29.614 3.857-61.14 16.381-97.51 79.22-81.13 140.36l-21.21 5.785 49.724 32.23 26.859-52.755-21.21 5.647c-11.341-42.32 13.736-85.77 56.06-97.11 6.726-1.802 13.621-2.749 20.523-2.755v-35.26m96.97 70.52l-39.669 44.08h22.04c0 43.817-35.521 79.34-79.34 79.34-13.927 0-27.608-3.643-39.669-10.606l-17.631 30.578c17.421 10.06 37.18 15.289 57.3 15.289 63.29 0 114.6-51.31 114.6-114.6h22.04l-39.669-44.08"/>
</svg>
