<?xml version="1.0" encoding="UTF-8" standalone="no"?>
<svg xmlns="http://www.w3.org/2000/svg" xmlns:sodipodi="http://sodipodi.sourceforge.net/DTD/sodipodi-0.dtd" xmlns:inkscape="http://www.inkscape.org/namespaces/inkscape" height="512" viewBox="0 0 512 512" width="512" version="1.1">
 <metadata id="metadata86"/>
 <text font-family="Gentium Book Basic" x="-164.02" y="549.52" line-height="125%" font-size="208.33" id="text4" word-spacing="0" letter-spacing="0"><tspan x="-164.02" y="549.52" id="tspan6"/>
 </text>
 <text font-family="Arial" x="276.85" y="1642.24" transform="scale(4.0128 .2492)" font-size="75.7" id="text8" text-anchor="middle"/>
 <g fill-rule="evenodd" id="g10">
  <path d="m471.95 253.05c0 120.9-98.01 218.9-218.9 218.9-120.9 0-218.9-98.01-218.9-218.9 0-120.9 98.01-218.9 218.9-218.9 120.9 0 218.9 98.01 218.9 218.9" fill="#555555" id="path12"/>
  <path d="m304.03 97.41c-0.996-0.008-2 0.001-3 0.031-8.948 0.268-17.987 2.104-26.781 5.625-39.953 15.999-59.5 61.17-43.938 101.19l-24.313 89.34c-0.722 0.256-1.439 0.525-2.156 0.813-10.614 4.25-19.213 11.384-25.281 20.13l-135.91-0.781c26.317 91.37 110.54 158.22 210.38 158.22 120.9 0 218.91-98.01 218.91-218.91 0-6.93-0.339-13.797-0.969-20.563-0.246-0.244-0.505-0.474-0.75-0.719-0.058-0.056-0.098-0.132-0.156-0.188-0.273-0.28-0.567-0.537-0.844-0.813-0.058-0.056-0.098-0.132-0.156-0.188-0.324-0.333-0.67-0.642-1-0.969-0.218-0.224-0.436-0.436-0.656-0.656-0.111-0.107-0.201-0.237-0.313-0.344-0.329-0.338-0.665-0.668-1-1-0.283-0.291-0.588-0.558-0.875-0.844-0.048-0.046-0.077-0.111-0.125-0.156-0.273-0.28-0.567-0.537-0.844-0.813-0.058-0.056-0.098-0.132-0.156-0.188-0.273-0.28-0.567-0.537-0.844-0.813-0.058-0.056-0.098-0.132-0.156-0.188-0.324-0.333-0.67-0.642-1-0.969-0.041-0.042-0.084-0.083-0.125-0.125-0.054-0.051-0.103-0.105-0.156-0.156-0.142-0.139-0.263-0.3-0.406-0.438-0.094-0.094-0.187-0.188-0.281-0.281-0.329-0.338-0.665-0.668-1-1-0.041-0.042-0.084-0.083-0.125-0.125-0.176-0.167-0.354-0.335-0.531-0.5l-0.219-0.219c-0.048-0.046-0.077-0.111-0.125-0.156-0.273-0.28-0.567-0.537-0.844-0.813-0.058-0.056-0.098-0.132-0.156-0.188-0.273-0.28-0.567-0.537-0.844-0.813-0.058-0.056-0.098-0.132-0.156-0.188-0.324-0.333-0.67-0.642-1-0.969-0.041-0.042-0.084-0.083-0.125-0.125-0.054-0.051-0.103-0.105-0.156-0.156-0.142-0.139-0.263-0.3-0.406-0.438-0.094-0.094-0.187-0.188-0.281-0.281-0.329-0.338-0.665-0.668-1-1-0.041-0.042-0.084-0.083-0.125-0.125-0.176-0.167-0.354-0.335-0.531-0.5l-0.219-0.219c-0.048-0.046-0.077-0.111-0.125-0.156-0.283-0.291-0.588-0.558-0.875-0.844-0.048-0.046-0.077-0.111-0.125-0.156-0.273-0.28-0.567-0.537-0.844-0.813-0.058-0.056-0.098-0.132-0.156-0.188-0.273-0.28-0.567-0.537-0.844-0.813-0.058-0.056-0.098-0.132-0.156-0.188-0.319-0.328-0.645-0.647-0.969-0.969-0.283-0.291-0.588-0.558-0.875-0.844-0.048-0.046-0.077-0.111-0.125-0.156-0.283-0.291-0.588-0.558-0.875-0.844-0.048-0.046-0.077-0.111-0.125-0.156-0.283-0.291-0.588-0.558-0.875-0.844-0.048-0.046-0.077-0.111-0.125-0.156-0.273-0.28-0.567-0.537-0.844-0.813-0.058-0.056-0.098-0.132-0.156-0.188-0.273-0.28-0.567-0.537-0.844-0.813-0.058-0.056-0.098-0.132-0.156-0.188-0.324-0.333-0.67-0.642-1-0.969-0.218-0.224-0.436-0.436-0.656-0.656-0.111-0.107-0.201-0.237-0.313-0.344-0.329-0.338-0.665-0.668-1-1-0.283-0.291-0.588-0.558-0.875-0.844-0.048-0.046-0.077-0.111-0.125-0.156-0.273-0.28-0.567-0.537-0.844-0.813-0.058-0.056-0.098-0.132-0.156-0.188-0.273-0.28-0.567-0.537-0.844-0.813-0.058-0.056-0.098-0.132-0.156-0.188-0.324-0.333-0.67-0.642-1-0.969-0.041-0.042-0.084-0.083-0.125-0.125-0.054-0.051-0.103-0.105-0.156-0.156-0.142-0.139-0.263-0.3-0.406-0.438-0.094-0.094-0.187-0.188-0.281-0.281-0.329-0.338-0.665-0.668-1-1-0.041-0.042-0.084-0.083-0.125-0.125-0.176-0.167-0.354-0.335-0.531-0.5l-0.219-0.219c-0.048-0.046-0.077-0.111-0.125-0.156-0.273-0.28-0.567-0.537-0.844-0.813-0.058-0.056-0.098-0.132-0.156-0.188-0.273-0.28-0.567-0.537-0.844-0.813-0.058-0.056-0.098-0.132-0.156-0.188-0.324-0.333-0.67-0.642-1-0.969-0.041-0.042-0.084-0.083-0.125-0.125-0.054-0.051-0.103-0.105-0.156-0.156-0.142-0.139-0.263-0.3-0.406-0.438-0.094-0.094-0.187-0.188-0.281-0.281-0.329-0.338-0.665-0.668-1-1-0.041-0.042-0.084-0.083-0.125-0.125-0.176-0.167-0.354-0.335-0.531-0.5l-0.219-0.219c-0.048-0.046-0.077-0.111-0.125-0.156-0.283-0.291-0.588-0.558-0.875-0.844-0.048-0.046-0.077-0.111-0.125-0.156-0.273-0.28-0.567-0.537-0.844-0.813-0.058-0.056-0.098-0.132-0.156-0.188-0.273-0.28-0.567-0.537-0.844-0.813-0.058-0.056-0.098-0.132-0.156-0.188-0.324-0.333-0.67-0.642-1-0.969-0.218-0.224-0.436-0.436-0.656-0.656-0.111-0.107-0.201-0.237-0.313-0.344-0.329-0.338-0.665-0.668-1-1-0.283-0.291-0.588-0.558-0.875-0.844-0.048-0.046-0.077-0.111-0.125-0.156-0.273-0.28-0.567-0.537-0.844-0.813-0.058-0.056-0.098-0.132-0.156-0.188-0.273-0.28-0.567-0.537-0.844-0.813-0.058-0.056-0.098-0.132-0.156-0.188-0.324-0.333-0.67-0.642-1-0.969-0.041-0.042-0.084-0.083-0.125-0.125-0.054-0.051-0.103-0.105-0.156-0.156-0.142-0.139-0.263-0.3-0.406-0.438-0.094-0.094-0.187-0.188-0.281-0.281-0.329-0.338-0.665-0.668-1-1-0.041-0.042-0.084-0.083-0.125-0.125-0.176-0.167-0.354-0.335-0.531-0.5l-0.219-0.219c-0.048-0.046-0.077-0.111-0.125-0.156-0.273-0.28-0.567-0.537-0.844-0.813-0.058-0.056-0.098-0.132-0.156-0.188-0.273-0.28-0.567-0.537-0.844-0.813-0.058-0.056-0.098-0.132-0.156-0.188-0.324-0.333-0.67-0.642-1-0.969-0.041-0.042-0.084-0.083-0.125-0.125-0.054-0.051-0.103-0.105-0.156-0.156-0.142-0.139-0.263-0.3-0.406-0.438-0.094-0.094-0.187-0.188-0.281-0.281-0.329-0.338-0.665-0.668-1-1-0.041-0.042-0.084-0.083-0.125-0.125-0.176-0.167-0.354-0.335-0.531-0.5l-0.219-0.219c-0.048-0.046-0.077-0.111-0.125-0.156-0.283-0.291-0.588-0.558-0.875-0.844-0.048-0.046-0.077-0.111-0.125-0.156-0.273-0.28-0.567-0.537-0.844-0.813-0.058-0.056-0.098-0.132-0.156-0.188-0.273-0.28-0.567-0.537-0.844-0.813-0.058-0.056-0.098-0.132-0.156-0.188-0.321-0.33-0.642-0.645-0.969-0.969-0.329-0.338-0.665-0.668-1-1-0.041-0.042-0.084-0.083-0.125-0.125-0.176-0.167-0.354-0.335-0.531-0.5l-0.219-0.219c-0.048-0.046-0.077-0.111-0.125-0.156-0.283-0.291-0.588-0.558-0.875-0.844-0.048-0.046-0.077-0.111-0.125-0.156-0.273-0.28-0.567-0.537-0.844-0.813-0.058-0.056-0.098-0.132-0.156-0.188-0.273-0.28-0.567-0.537-0.844-0.813-0.058-0.056-0.098-0.132-0.156-0.188-0.324-0.333-0.67-0.642-1-0.969-0.218-0.224-0.436-0.436-0.656-0.656-0.111-0.107-0.201-0.237-0.313-0.344-0.329-0.338-0.665-0.668-1-1-0.283-0.291-0.588-0.558-0.875-0.844-0.048-0.046-0.077-0.111-0.125-0.156-0.273-0.28-0.567-0.537-0.844-0.813-0.058-0.056-0.098-0.132-0.156-0.188-0.273-0.28-0.567-0.537-0.844-0.813-0.058-0.056-0.098-0.132-0.156-0.188-0.324-0.333-0.67-0.642-1-0.969-0.041-0.042-0.084-0.083-0.125-0.125-0.054-0.051-0.103-0.105-0.156-0.156-0.142-0.139-0.263-0.3-0.406-0.438-0.094-0.094-0.187-0.188-0.281-0.281-0.329-0.338-0.665-0.668-1-1-0.041-0.042-0.084-0.083-0.125-0.125-0.176-0.167-0.354-0.335-0.531-0.5l-0.219-0.219c-0.048-0.046-0.077-0.111-0.125-0.156-0.273-0.28-0.567-0.537-0.844-0.813-0.058-0.056-0.098-0.132-0.156-0.188-0.273-0.28-0.567-0.537-0.844-0.813-0.058-0.056-0.098-0.132-0.156-0.188-0.324-0.333-0.67-0.642-1-0.969-0.041-0.042-0.084-0.083-0.125-0.125-0.054-0.051-0.103-0.105-0.156-0.156-0.142-0.139-0.263-0.3-0.406-0.438-0.094-0.094-0.187-0.188-0.281-0.281-0.329-0.338-0.665-0.668-1-1-0.041-0.042-0.084-0.083-0.125-0.125-0.176-0.167-0.354-0.335-0.531-0.5l-0.219-0.219c-0.048-0.046-0.077-0.111-0.125-0.156-0.283-0.291-0.588-0.558-0.875-0.844-0.048-0.046-0.077-0.111-0.125-0.156-0.273-0.28-0.567-0.537-0.844-0.813-0.058-0.056-0.098-0.132-0.156-0.188-0.273-0.28-0.567-0.537-0.844-0.813-0.058-0.056-0.098-0.132-0.156-0.188-0.324-0.333-0.67-0.642-1-0.969-0.218-0.224-0.436-0.436-0.656-0.656-0.111-0.107-0.201-0.237-0.313-0.344-0.329-0.338-0.665-0.668-1-1-0.283-0.291-0.588-0.558-0.875-0.844-0.048-0.046-0.077-0.111-0.125-0.156-0.273-0.28-0.567-0.537-0.844-0.813-0.058-0.056-0.098-0.132-0.156-0.188-0.273-0.28-0.567-0.537-0.844-0.813-0.058-0.056-0.098-0.132-0.156-0.188-0.324-0.333-0.67-0.642-1-0.969-0.041-0.042-0.084-0.083-0.125-0.125-0.054-0.051-0.103-0.105-0.156-0.156-0.142-0.139-0.263-0.3-0.406-0.438-0.094-0.094-0.187-0.188-0.281-0.281-0.329-0.338-0.665-0.668-1-1-0.041-0.042-0.084-0.083-0.125-0.125-0.176-0.167-0.354-0.335-0.531-0.5l-0.219-0.219c-0.048-0.046-0.077-0.111-0.125-0.156-0.273-0.28-0.567-0.537-0.844-0.813-0.058-0.056-0.098-0.132-0.156-0.188-0.273-0.28-0.567-0.537-0.844-0.813-0.058-0.056-0.098-0.132-0.156-0.188-0.324-0.333-0.67-0.642-1-0.969-0.041-0.042-0.084-0.083-0.125-0.125-0.054-0.051-0.103-0.105-0.156-0.156-0.142-0.139-0.263-0.3-0.406-0.438-0.094-0.094-0.187-0.188-0.281-0.281-0.329-0.338-0.665-0.668-1-1-0.041-0.042-0.084-0.083-0.125-0.125-0.176-0.167-0.354-0.335-0.531-0.5l-0.219-0.219c-0.048-0.046-0.077-0.111-0.125-0.156-0.283-0.291-0.588-0.558-0.875-0.844-0.048-0.046-0.077-0.111-0.125-0.156-0.273-0.28-0.567-0.537-0.844-0.813-0.058-0.056-0.098-0.132-0.156-0.188-0.273-0.28-0.567-0.537-0.844-0.813-0.058-0.056-0.098-0.132-0.156-0.188-0.321-0.33-0.642-0.645-0.969-0.969-0.329-0.338-0.665-0.668-1-1-0.041-0.042-0.084-0.083-0.125-0.125-0.176-0.167-0.354-0.335-0.531-0.5l-0.219-0.219c-0.048-0.046-0.077-0.111-0.125-0.156-14.584-14.981-34.687-23.572-55.59-23.75" fill-opacity="0.235" id="path14"/>
  <g fill="#ffffff" transform="matrix(.86336 0 0 .86336 -840.91 27.361)" id="g16">
   <path d="m1291.6 87.67c-46.563 18.646-69.19 71.51-50.55 118.07 18.645 46.563 71.51 69.19 118.07 50.55 46.562-18.645 69.19-71.51 50.55-118.07-18.645-46.563-71.51-69.19-118.07-50.55m14.818 37c26.11-10.457 55.745 2.266 66.2 28.379 10.457 26.11-2.222 55.727-28.335 66.18-26.11 10.457-55.772-2.204-66.23-28.317-10.457-26.11 2.249-55.79 28.362-66.25" id="path18"/>
   <path d="m1210.1 309.31c-33.43 13.387-49.687 51.36-36.3 84.79s51.34 49.642 84.77 36.26c33.429-13.386 49.705-51.32 36.32-84.75-13.387-33.43-51.36-49.687-84.79-36.3m5.302 13.242c26.11-10.457 55.789 2.249 66.25 28.362 10.457 26.11-2.266 55.745-28.379 66.2-26.11 10.457-55.727-2.222-66.18-28.335-10.457-26.11 2.204-55.772 28.317-66.23" id="path20"/>
   <path d="m1212.3 309.63 30.06-110.47 112.61 57.877-58.47 94.52-12.31-6.13c-13.265-17.429-30.16-30.425-58.672-29.22z" id="path22"/>
   <path d="m1014.1 331.66c8.937 28.18 22.733 54.19 40.41 77.06l172.56 1c21.285 0.122 38.534-16.903 38.656-38.19 0.122-21.285-16.934-38.534-38.22-38.656l-213.41-1.219" id="path24"/>
  </g>
  <path d="m256 1c-140.83 0-255 114.17-255 255s114.17 255 255 255 255-114.17 255-255-114.17-255-255-255m8.827 44.931c120.9 0 218.9 98 218.9 218.9s-98 218.9-218.9 218.9-218.93-98-218.93-218.9 98.03-218.9 218.93-218.9" fill-opacity="0.067" id="path26"/>
  <g fill-opacity="0.129" id="g28">
   <path d="m256 4.433c-138.94 0-251.57 112.63-251.57 251.57s112.63 251.57 251.57 251.57 251.57-112.63 251.57-251.57-112.63-251.57-251.57-251.57m5.885 38.556c120.9 0 218.9 98 218.9 218.9s-98 218.9-218.9 218.9-218.93-98-218.93-218.9 98.03-218.9 218.93-218.9" id="path30"/>
   <path d="m256 8.356c-136.77 0-247.64 110.87-247.64 247.64s110.87 247.64 247.64 247.64 247.64-110.87 247.64-247.64-110.87-247.64-247.64-247.64m2.942 31.691c120.9 0 218.9 98 218.9 218.9s-98 218.9-218.9 218.9-218.93-98-218.93-218.9 98.03-218.9 218.93-218.9" id="path32"/>
  </g>
  <path fill="#ffffff" stroke-width="4.904" stroke="#000000" stroke-opacity="0.31" d="m253.04 7.859c-135.42 0-245.19 109.78-245.19 245.19 0 135.42 109.78 245.19 245.19 245.19 135.42 0 245.19-109.78 245.19-245.19 0-135.42-109.78-245.19-245.19-245.19zm0 26.297c120.9 0 218.9 98 218.9 218.9s-98 218.9-218.9 218.9-218.93-98-218.93-218.9 98.03-218.9 218.93-218.9z" id="path34"/>
 </g>
 <text font-family="Gentium Book Basic" x="729.64" y="231.36" line-height="125%" font-size="129.23" id="text36" word-spacing="0" letter-spacing="0"><tspan x="729.64" y="231.36" id="tspan38"/>
 </text>
 <text font-family="Arial" x="378.91" y="579.25" transform="scale(4.0128 .2492)" font-size="46.954" id="text40" text-anchor="middle"/>
 <text font-family="Gentium Book Basic" x="1310.91" y="151.36" line-height="125%" font-size="129.23" id="text42" word-spacing="0" letter-spacing="0"><tspan x="1310.91" y="151.36" id="tspan44"/>
 </text>
 <text font-family="Arial" x="523.76" y="258.22" transform="scale(4.0128 .2492)" font-size="46.954" id="text46" text-anchor="middle"/>
 <text font-family="Gentium Book Basic" x="239.33" y="-29.901" line-height="125%" font-size="129.23" id="text48" word-spacing="0" letter-spacing="0"><tspan x="239.33" y="-29.901" id="tspan50"/>
 </text>
 <text font-family="Arial" x="256.72" y="-469.14" transform="scale(4.0128 .2492)" font-size="46.954" id="text52" text-anchor="middle"/>
 <text font-family="Gentium Book Basic" x="1337.38" y="-246.37" line-height="125%" font-size="129.23" id="text54" word-spacing="0" letter-spacing="0"><tspan x="1337.38" y="-246.37" id="tspan56"/>
 </text>
 <text font-family="Arial" x="530.36" y="-1337.81" transform="scale(4.0128 .2492)" font-size="46.954" id="text58" text-anchor="middle"/>
 <text font-family="Gentium Book Basic" x="1918.65" y="-326.38" line-height="125%" font-size="129.23" id="text60" word-spacing="0" letter-spacing="0"><tspan x="1918.65" y="-326.38" id="tspan62"/>
 </text>
 <text font-family="Arial" x="675.21" y="-1658.85" transform="scale(4.0128 .2492)" font-size="46.954" id="text64" text-anchor="middle"/>
 <text font-family="Gentium Book Basic" x="1529.53" y="-798.78" line-height="125%" font-size="129.23" id="text66" word-spacing="0" letter-spacing="0"><tspan x="1529.53" y="-798.78" id="tspan68"/>
 </text>
 <text font-family="Arial" x="578.24" y="-3554.51" transform="scale(4.0128 .2492)" font-size="46.954" id="text70" text-anchor="middle"/>
 <text font-family="Gentium Book Basic" x="2110.79" y="-878.78" line-height="125%" font-size="129.23" id="text72" word-spacing="0" letter-spacing="0"><tspan x="2110.79" y="-878.78" id="tspan74"/>
 </text>
 <text font-family="Arial" x="723.09" y="-3875.54" transform="scale(4.0128 .2492)" font-size="46.954" id="text76" text-anchor="middle"/>
 <text font-family="Gentium Book Basic" x="277.99" y="535.94" line-height="125%" font-size="208.33" id="text78" word-spacing="0" letter-spacing="0"><tspan x="277.99" y="535.94" id="tspan80"/>
 </text>
</svg>
