<?xml version="1.0" encoding="UTF-8" standalone="no"?>
<svg xmlns="http://www.w3.org/2000/svg" xmlns:sodipodi="http://sodipodi.sourceforge.net/DTD/sodipodi-0.dtd" xmlns:inkscape="http://www.inkscape.org/namespaces/inkscape" height="512" viewBox="0 0 512 512" width="512" version="1.1">
 <metadata id="metadata82"/>
 <g transform="translate(0,-540.36)" id="g4">
  <path d="m280 423.79c0 78.898-63.959 142.86-142.86 142.86-78.898 0-142.86-63.959-142.86-142.86 0-78.898 63.959-142.86 142.86-142.86 78.898 0 142.86 63.959 142.86 142.86" transform="matrix(1.5323 0 0 1.5323 42.896 144.03)" fill="#a7a7a7" fill-rule="evenodd" id="path6"/>
  <path transform="translate(0,540.36)" fill-opacity="0.235" d="m232.72 90.03-15.375 50.719-32.688 107.47c-0.038-0.104-0.281-0.779-0.281-0.781h-0.625c-0.061-0.167-0.374-0.998-0.375-1h-0.625c-0.061-0.166-0.374-0.998-0.375-1h-0.625c-0.061-0.166-0.374-0.998-0.375-1h-0.594c-0.061-0.166-0.374-0.998-0.375-1h-0.625c-0.061-0.166-0.374-0.998-0.375-1h-0.656c-0.057-0.155-0.343-0.967-0.344-0.969h-0.625c-0.061-0.167-0.374-0.998-0.375-1h-0.625c-0.061-0.167-0.374-0.998-0.375-1h-0.625l-0.375-1h-0.594c-0.061-0.166-0.374-0.998-0.375-1h-0.625c-0.061-0.166-0.374-0.998-0.375-1h-0.656c-0.057-0.155-0.343-0.967-0.344-0.969h-0.625c-0.061-0.167-0.374-0.998-0.375-1h-0.625c-0.061-0.167-0.374-0.998-0.375-1h-0.625c-0.061-0.166-0.374-0.998-0.375-1h-0.594c-0.061-0.166-0.374-0.998-0.375-1h-0.625c-0.061-0.166-0.374-0.998-0.375-1h-0.656c-0.057-0.155-0.343-0.967-0.344-0.969h-0.625c-0.061-0.167-0.374-0.998-0.375-1h-0.625c-0.061-0.167-0.374-0.998-0.375-1h-0.625c-0.061-0.166-0.374-0.998-0.375-1h-0.625c-0.061-0.165-0.374-0.999-0.375-1h-0.594c-0.061-0.166-0.374-0.999-0.375-1h-0.625c-0.061-0.166-0.374-0.999-0.375-1h-0.656c-0.057-0.155-0.343-0.967-0.344-0.969h-0.625c-0.061-0.166-0.375-0.999-0.375-1h-0.625c-0.061-0.166-0.375-0.999-0.375-1h-0.625c-0.061-0.165-0.375-0.999-0.375-1h-0.594c-0.061-0.166-0.375-0.999-0.375-1h-0.625c-0.061-0.165-0.375-0.999-0.375-1h-0.656c-0.057-0.155-0.343-0.968-0.344-0.969h-0.625c-0.061-0.166-0.375-0.999-0.375-1h-0.625c-0.061-0.166-0.375-0.999-0.375-1h-0.625c-0.061-0.165-0.375-0.999-0.375-1h-0.594c-0.061-0.165-0.375-0.999-0.375-1h-0.625c-0.061-0.165-0.375-0.999-0.375-1h-0.656c-0.057-0.154-0.343-0.968-0.344-0.969h-0.625c-0.061-0.166-0.375-0.999-0.375-1h-0.625c-0.061-0.166-0.375-0.999-0.375-1h-0.625c-0.061-0.165-0.375-0.999-0.375-1h-0.625c-0.061-0.165-0.375-0.999-0.375-1h-0.594c-0.061-0.165-0.375-0.999-0.375-1h-0.625c-0.061-0.165-0.375-0.999-0.375-1h-0.656c-0.057-0.154-0.343-0.968-0.344-0.969h-0.625c-0.061-0.166-0.375-0.999-0.375-1h-0.625c-0.061-0.165-0.375-0.999-0.375-1h-0.625c-0.06-0.165-0.375-0.999-0.375-1h-0.594c-0.061-0.165-0.375-1-0.375-1h-0.625c-0.061-0.165-0.375-1-0.375-1h-0.656c-0.057-0.154-0.344-0.968-0.344-0.969h-0.625c-0.061-0.166-0.375-1-0.375-1h-0.625c-0.061-0.166-0.375-1-0.375-1h-0.625c-0.06-0.165-0.375-1-0.375-1h-0.594c-0.061-0.165-0.375-1-0.375-1h-0.625c-0.061-0.165-0.375-1-0.375-1h-0.656c-0.057-0.154-0.344-0.969-0.344-0.969h-0.625c-0.061-0.166-0.375-1-0.375-1h-0.625l-0.375-1h-0.625l-0.375-1h-0.594l-0.375-1h-80.624c-1.965 6.291-3.633 12.698-5.03 19.219v11.875h1v1h1v0.969h0.969v1h1v1h1v1h1v1h1v1h1v0.969h0.969v1h1v1h1v1h1v1h1v1h1v0.969h1v1h0.969v1h1v1h1v1h1v1h1v1h1v0.969h0.969v1h1v1h1v1h1v1h1v1h1v0.969h0.969v1h1v1h1v1h1v1h1v1h1v0.969h1v1h0.969v1h1v1h1v1h1v1h1v0.969h1v1h0.969v1h1v1h1v1h1v1h1v1h1v0.969h0.969v1h1v1h1v1h1v1h1v1h1v0.969h0.969v1h1v1h1v1h1v1h1v1h1v0.969h1v1h0.969v1h1v1h1v1h1v1h1v1h1v0.969h0.969v1h1v1h1v1h1v1h1v1h1v0.969h0.969v1h1v1h1v1h1v1h1v1h1v0.969h0.969v1h1v1h1v1h1v1h1v1h1v0.969h1v1h0.969v1h1v1h1v1h1v1h1v1h0.875l0.125 0.344v0.625h0.219l21.844 60.781 18.563 52.844 0.313-1 0.688 1.969 0.313-1c0.051 0.145 0.687 2 0.688 2 0 0 0.301-0.963 0.313-1 0.051 0.145 0.687 2 0.688 2 0 0 0.271-0.905 0.281-0.938 0.048 0.137 0.687 1.937 0.688 1.938 0 0 0.301-0.963 0.313-1 0.051 0.145 0.687 2 0.688 2 0 0 0.301-0.963 0.313-1 0.051 0.145 0.687 2 0.688 2 0 0 0.301-0.963 0.313-1 0.05 0.141 0.687 1.968 0.688 1.969 0 0 0.301-0.963 0.313-1 0.051 0.145 0.687 2 0.688 2 0 0 0.301-0.963 0.313-1 0.051 0.145 0.687 2 0.688 2 0 0 0.271-0.905 0.281-0.938 0.048 0.138 0.687 1.937 0.688 1.938 0 0 0.301-0.963 0.313-1 0.051 0.145 0.687 2 0.688 2 0 0 0.301-0.963 0.313-1 0.051 0.145 0.687 2 0.688 2 0 0 0.301-0.963 0.313-1 0.051 0.145 0.687 2 0.688 2 0 0 0.301-0.963 0.313-1 0.05 0.142 0.687 1.968 0.688 1.969 0 0 0.301-0.963 0.313-1 0.051 0.146 0.687 1.999 0.688 2 0 0 0.271-0.905 0.281-0.938 0.048 0.138 0.687 1.937 0.688 1.938 0 0 0.301-0.963 0.313-1 0.051 0.146 0.687 1.999 0.688 2 0 0 0.301-0.963 0.313-1 0.051 0.146 0.687 1.999 0.688 2 0 0 0.301-0.963 0.313-1 0.051 0.146 0.687 1.999 0.688 2 0 0 0.301-0.963 0.313-1 0.05 0.142 0.687 1.968 0.688 1.969 0 0 0.301-0.963 0.313-1 0.051 0.146 0.687 1.999 0.688 2 0 0 0.271-0.905 0.281-0.938 0.048 0.138 0.687 1.937 0.688 1.938 0 0 0.301-0.963 0.313-1 0.051 0.146 0.687 1.999 0.688 2 0 0 0.301-0.963 0.313-1 0.051 0.146 0.687 1.999 0.688 2 0 0 0.301-0.963 0.313-1 0.051 0.146 0.687 1.999 0.688 2 0 0 0.301-0.963 0.313-1 0.05 0.142 0.687 1.968 0.688 1.969 0 0 0.301-0.963 0.313-1 0.051 0.146 0.687 1.999 0.688 2 0 0 0.301-0.963 0.313-1 0.051 0.146 0.687 1.999 0.688 2 0 0 0.271-0.905 0.281-0.938 0.049 0.138 0.687 1.936 0.688 1.938 0 0 0.301-0.963 0.313-1 0.051 0.146 0.687 1.999 0.688 2 0 0 0.301-0.963 0.313-1 0.051 0.146 0.687 1.999 0.688 2 0 0 0.301-0.963 0.313-1 0.05 0.142 0.687 1.968 0.688 1.969l0.313-1c0.051 0.146 0.687 1.999 0.688 2l0.313-1c0.051 0.146 0.687 1.999 0.688 2l0.281-0.938c0.049 0.138 0.687 1.936 0.688 1.938 0 0 0.301-0.963 0.313-1 0.051 0.146 0.687 1.999 0.688 2 0 0 0.301-0.963 0.313-1 0.051 0.146 0.687 1.999 0.688 2 0 0 0.301-0.963 0.313-1l0.688 2s0.301-0.963 0.313-1c0.05 0.142 0.687 1.967 0.688 1.969 0 0 0.301-0.963 0.313-1l0.688 2s0.271-0.905 0.281-0.938c0.049 0.139 0.687 1.936 0.688 1.938 0 0 0.301-0.963 0.313-1l0.688 2s0.301-0.963 0.313-1c0.051 0.146 0.687 1.998 0.688 2 0 0 0.301-0.963 0.313-1l0.688 2s0.301-0.963 0.313-1c0.05 0.143 0.687 1.967 0.688 1.969 0 0 0.301-0.963 0.313-1l0.688 2s0.301-0.963 0.313-1c0.051 0.147 0.687 1.998 0.688 2 0 0 0.271-0.905 0.281-0.938l0.406 1.156c0.166 0.028 0.333 0.066 0.5 0.094 0.042-0.134 0.09-0.301 0.094-0.313 0.009 0.025 0.087 0.235 0.125 0.344 11.599 1.899 23.488 2.906 35.625 2.906 120.9 0 218.91-98.01 218.91-218.91 0-9.847-0.647-19.56-1.906-29.06l-0.281-0.719s-0.301 0.754-0.313 0.781c-0.054-0.14-0.686-1.746-0.688-1.75 0 0-0.301 0.754-0.313 0.781-0.055-0.144-0.686-1.777-0.688-1.781l-0.313 0.75c-0.053-0.138-0.655-1.746-0.656-1.75 0 0-0.301 0.754-0.313 0.781-0.055-0.144-0.686-1.777-0.688-1.781 0 0-0.301 0.754-0.313 0.781-0.055-0.144-0.686-1.777-0.688-1.781 0 0-0.301 0.754-0.313 0.781-0.055-0.144-0.686-1.777-0.688-1.781 0 0-0.301 0.754-0.313 0.781-0.054-0.14-0.686-1.746-0.688-1.75l-0.313 0.781c-0.055-0.144-0.686-1.777-0.688-1.781 0 0-0.301 0.754-0.313 0.781l-0.688-1.781-0.313 0.75c-0.053-0.138-0.655-1.746-0.656-1.75 0 0-0.301 0.754-0.313 0.781-0.055-0.143-0.686-1.777-0.688-1.781 0 0-0.301 0.754-0.313 0.781-0.055-0.143-0.686-1.777-0.688-1.781l-0.313 0.781-0.688-1.75s-0.301 0.754-0.313 0.781c-0.055-0.144-0.686-1.777-0.688-1.781l-0.313 0.781c-0.055-0.143-0.686-1.777-0.688-1.781 0 0-0.302 0.724-0.313 0.75-0.053-0.137-0.655-1.746-0.656-1.75 0 0-0.301 0.754-0.313 0.781-0.055-0.143-0.686-1.777-0.688-1.781 0 0-0.301 0.754-0.313 0.781-0.055-0.143-0.686-1.777-0.688-1.781 0 0-0.301 0.754-0.313 0.781-0.053-0.139-0.686-1.746-0.688-1.75l-0.313 0.781c-0.055-0.143-0.686-1.777-0.688-1.781 0 0-0.301 0.754-0.313 0.781-0.055-0.143-0.686-1.777-0.688-1.781l-0.313 0.75c-0.053-0.137-0.655-1.746-0.656-1.75 0 0-0.301 0.754-0.313 0.781-0.055-0.143-0.686-1.778-0.688-1.781 0 0-0.301 0.754-0.313 0.781-0.055-0.143-0.686-1.778-0.688-1.781 0 0-0.301 0.754-0.313 0.781l-0.688-1.781s-0.301 0.754-0.313 0.781l-0.688-1.75-0.313 0.781c-0.055-0.143-0.686-1.778-0.688-1.781 0 0-0.301 0.754-0.313 0.781-0.055-0.143-0.686-1.778-0.688-1.781 0 0-0.302 0.724-0.313 0.75l-0.656-1.75s-0.301 0.754-0.313 0.781l-0.688-1.781s-0.301 0.754-0.313 0.781c-0.055-0.143-0.686-1.778-0.688-1.781 0 0-0.301 0.754-0.313 0.781-0.053-0.139-0.686-1.747-0.688-1.75 0 0-0.301 0.754-0.313 0.781-0.055-0.143-0.686-1.778-0.688-1.781 0 0-0.301 0.754-0.313 0.781l-0.688-1.781s-0.302 0.724-0.313 0.75c-0.053-0.137-0.655-1.747-0.656-1.75 0 0-0.301 0.754-0.313 0.781-0.055-0.143-0.686-1.778-0.688-1.781 0 0-0.301 0.754-0.313 0.781-0.055-0.143-0.686-1.778-0.688-1.781 0 0-0.301 0.754-0.313 0.781-0.053-0.139-0.686-1.747-0.688-1.75 0 0-0.301 0.754-0.313 0.781-0.055-0.143-0.686-1.778-0.688-1.781 0 0-0.301 0.754-0.313 0.781-0.055-0.143-0.686-1.778-0.688-1.781 0 0-0.302 0.724-0.313 0.75-0.053-0.137-0.655-1.747-0.656-1.75l-0.313 0.781c-0.055-0.143-0.686-1.778-0.688-1.781 0 0-0.301 0.754-0.313 0.781-0.055-0.143-0.686-1.778-0.688-1.781 0 0-0.301 0.754-0.313 0.781-0.055-0.142-0.686-1.778-0.688-1.781 0 0-0.301 0.754-0.313 0.781-0.053-0.138-0.686-1.747-0.688-1.75 0 0-0.301 0.754-0.313 0.781l-0.688-1.781-0.313 0.75-0.656-1.75s-0.301 0.754-0.313 0.781c-0.055-0.142-0.686-1.778-0.688-1.781l-0.313 0.781c-0.055-0.142-0.686-1.778-0.688-1.781 0 0-0.301 0.754-0.313 0.781l-0.688-1.781s-0.301 0.754-0.313 0.781l-0.688-1.75-0.313 0.781c-0.055-0.142-0.686-1.779-0.688-1.781 0 0-0.301 0.754-0.313 0.781-0.055-0.142-0.686-1.779-0.688-1.781l-0.313 0.75c-0.052-0.136-0.655-1.747-0.656-1.75 0 0-0.301 0.754-0.313 0.781l-0.688-1.781-0.313 0.781c-0.055-0.142-0.687-1.779-0.688-1.781 0 0-0.301 0.754-0.313 0.781-0.053-0.138-0.687-1.747-0.688-1.75 0 0-0.301 0.754-0.313 0.781-0.055-0.142-0.687-1.779-0.688-1.781l-0.313 0.781c-0.055-0.142-0.687-1.779-0.688-1.781 0 0-0.302 0.724-0.313 0.75-0.052-0.136-0.655-1.748-0.656-1.75l-0.313 0.781c-0.055-0.142-0.687-1.779-0.688-1.781 0 0-0.301 0.754-0.313 0.781-0.055-0.142-0.687-1.779-0.688-1.781 0 0-0.301 0.754-0.313 0.781-0.053-0.138-0.687-1.748-0.688-1.75 0 0-0.301 0.754-0.313 0.781l-0.688-1.781s-0.301 0.754-0.313 0.781c-0.055-0.142-0.687-1.779-0.688-1.781l-0.313 0.75c-0.052-0.136-0.655-1.748-0.656-1.75 0 0-0.301 0.754-0.313 0.781l-0.688-1.781s-0.301 0.754-0.313 0.781l-0.688-1.781s-0.301 0.754-0.313 0.781c-0.054-0.142-0.687-1.779-0.688-1.781 0 0-0.301 0.754-0.313 0.781-0.053-0.138-0.687-1.748-0.688-1.75 0 0-0.301 0.754-0.313 0.781-0.055-0.142-0.687-1.779-0.688-1.781 0 0-0.301 0.754-0.313 0.781l-0.688-1.781s-0.302 0.724-0.313 0.75c-0.052-0.136-0.656-1.748-0.656-1.75 0 0-0.301 0.754-0.313 0.781-0.054-0.142-0.687-1.779-0.688-1.781 0 0-0.301 0.754-0.313 0.781-0.054-0.142-0.687-1.779-0.688-1.781 0 0-0.301 0.754-0.313 0.781-0.053-0.138-0.687-1.748-0.688-1.75 0 0-0.301 0.754-0.313 0.781-0.054-0.142-0.687-1.779-0.688-1.781 0 0-0.301 0.754-0.313 0.781-0.054-0.141-0.687-1.779-0.688-1.781 0 0-0.302 0.724-0.313 0.75-0.052-0.136-0.656-1.748-0.656-1.75 0 0-0.301 0.754-0.313 0.781-0.054-0.141-0.687-1.779-0.688-1.781l-0.313 0.781c-0.054-0.141-0.687-1.78-0.688-1.781 0 0-0.301 0.754-0.313 0.781-0.053-0.137-0.687-1.748-0.688-1.75 0 0-0.301 0.754-0.313 0.781-0.054-0.142-0.687-1.78-0.688-1.781l-0.313 0.781c-0.054-0.141-0.687-1.78-0.688-1.781 0 0-0.302 0.724-0.313 0.75l-0.656-1.75-0.313 0.781c-0.054-0.141-0.687-1.78-0.688-1.781 0 0-0.301 0.754-0.313 0.781-0.054-0.141-0.687-1.78-0.688-1.781l-0.313 0.781-0.688-1.781s-0.301 0.754-0.313 0.781l-0.688-1.75s-0.301 0.754-0.313 0.781c-0.054-0.141-0.687-1.78-0.688-1.781l-0.313 0.75c-0.052-0.135-0.656-1.749-0.656-1.75 0 0-0.301 0.754-0.313 0.781-0.054-0.141-0.687-1.78-0.688-1.781l-0.313 0.781-0.688-1.781s-0.301 0.754-0.313 0.781c-0.054-0.141-0.687-1.78-0.688-1.781l-0.313 0.781c-0.053-0.137-0.687-1.749-0.688-1.75 0 0-0.301 0.754-0.313 0.781-0.054-0.141-0.687-1.78-0.688-1.781 0 0-0.301 0.754-0.313 0.781-0.054-0.141-0.687-1.78-0.688-1.781l-0.313 0.75c-0.052-0.135-0.656-1.749-0.656-1.75 0 0-0.301 0.754-0.313 0.781-0.054-0.141-0.687-1.78-0.688-1.781l-0.313 0.781c-0.054-0.141-0.687-1.78-0.688-1.781 0 0-0.301 0.754-0.313 0.781-0.053-0.137-0.687-1.749-0.688-1.75 0 0-0.301 0.754-0.313 0.781-0.054-0.141-0.687-1.78-0.688-1.781 0 0-0.301 0.754-0.313 0.781-0.054-0.141-0.687-1.78-0.688-1.781 0 0-0.302 0.724-0.313 0.75-0.052-0.135-0.656-1.749-0.656-1.75 0 0-0.301 0.754-0.313 0.781-0.054-0.141-0.687-1.78-0.688-1.781 0 0-0.301 0.754-0.313 0.781-0.054-0.141-0.687-1.78-0.688-1.781 0 0-0.301 0.754-0.313 0.781-0.053-0.137-0.687-1.749-0.688-1.75 0 0-0.301 0.754-0.313 0.781-0.054-0.141-0.687-1.78-0.688-1.781 0 0-0.301 0.754-0.313 0.781-0.054-0.141-0.687-1.78-0.688-1.781 0 0-0.302 0.724-0.313 0.75-0.052-0.135-0.656-1.749-0.656-1.75 0 0-0.301 0.754-0.313 0.781-0.054-0.141-0.687-1.781-0.688-1.781 0 0-0.301 0.754-0.313 0.781-0.054-0.141-0.687-1.781-0.688-1.781 0 0-0.301 0.754-0.313 0.781-0.054-0.14-0.687-1.781-0.688-1.781 0 0-0.301 0.754-0.313 0.781-0.052-0.136-0.687-1.749-0.688-1.75 0 0-0.301 0.754-0.313 0.781-0.054-0.141-0.687-1.781-0.688-1.781 0 0-0.302 0.724-0.313 0.75-0.052-0.135-0.656-1.749-0.656-1.75 0 0-0.301 0.754-0.313 0.781-0.054-0.14-0.687-1.781-0.688-1.781 0 0-0.301 0.754-0.313 0.781-0.054-0.14-0.687-1.781-0.688-1.781 0 0-0.301 0.754-0.313 0.781-0.054-0.14-0.687-1.781-0.688-1.781 0 0-0.301 0.754-0.313 0.781-0.052-0.136-0.687-1.75-0.688-1.75 0 0-0.301 0.754-0.313 0.781-0.054-0.14-0.687-1.781-0.688-1.781 0 0-0.301 0.754-0.313 0.781-0.054-0.14-0.687-1.781-0.688-1.781 0 0-0.302 0.724-0.313 0.75-0.052-0.134-0.656-1.75-0.656-1.75s-0.301 0.754-0.313 0.781c-0.054-0.14-0.687-1.781-0.688-1.781 0 0-0.301 0.754-0.313 0.781-0.054-0.14-0.687-1.781-0.688-1.781 0 0-0.301 0.754-0.313 0.781-0.052-0.136-0.687-1.75-0.688-1.75 0 0-0.301 0.754-0.313 0.781-0.054-0.14-0.687-1.781-0.688-1.781 0 0-0.301 0.754-0.313 0.781-0.054-0.14-0.687-1.781-0.688-1.781 0 0-0.302 0.724-0.313 0.75-0.052-0.134-0.656-1.75-0.656-1.75s-0.301 0.754-0.313 0.781l-0.688-1.781-0.313 0.781-0.688-1.781-17.625 43.31-12.375 30.563-0.063-0.156s-0.272 0.845-0.281 0.875l-0.719-1.875-0.281 0.875-0.719-1.875-0.281 0.906-0.719-1.875-0.25 0.844-0.719-1.844-0.281 0.875-0.719-1.875-0.281 0.875-0.719-1.875-0.281 0.875-0.719-1.875-0.281 0.875-0.719-1.875-0.281 0.906-0.719-1.875-0.25 0.844-0.719-1.844s-0.272 0.874-0.281 0.906l-0.719-1.906s-0.272 0.874-0.281 0.906l-0.719-1.906s-0.272 0.845-0.281 0.875l-0.719-1.875s-0.272 0.845-0.281 0.875l-0.719-1.875s-0.272 0.874-0.281 0.906l-0.719-1.875s-0.242 0.816-0.25 0.844l-0.719-1.844s-0.272 0.845-0.281 0.875l-0.719-1.875s-0.272 0.845-0.281 0.875l-0.719-1.875s-0.272 0.845-0.281 0.875l-0.719-1.875s-0.272 0.845-0.281 0.875l-0.719-1.875s-0.272 0.874-0.281 0.906l-0.719-1.875s-0.242 0.816-0.25 0.844l-0.719-1.844s-0.272 0.845-0.281 0.875l-0.719-1.875s-0.272 0.845-0.281 0.875l-0.719-1.875s-0.272 0.845-0.281 0.875l-0.719-1.875s-0.272 0.845-0.281 0.875l-0.719-1.875s-0.272 0.845-0.281 0.875l-0.719-1.875s-0.272 0.874-0.281 0.906l-0.719-1.875s-0.242 0.816-0.25 0.844l-0.719-1.844s-0.272 0.874-0.281 0.906l-0.719-1.906s-0.272 0.874-0.281 0.906l-0.719-1.906s-0.272 0.845-0.281 0.875l-0.719-1.875s-0.272 0.845-0.281 0.875l-0.719-1.875s-0.272 0.874-0.281 0.906l-0.719-1.875s-0.242 0.816-0.25 0.844l-0.719-1.844s-0.272 0.874-0.281 0.906l-0.719-1.906s-0.272 0.874-0.281 0.906l-0.719-1.906s-0.272 0.845-0.281 0.875l-0.719-1.875s-0.272 0.845-0.281 0.875l-0.719-1.875s-0.272 0.874-0.281 0.906l-0.719-1.875s-0.242 0.816-0.25 0.844l-0.719-1.844s-0.272 0.845-0.281 0.875l-0.719-1.875s-0.272 0.874-0.281 0.906l-0.719-1.906-0.281 0.875-0.719-1.875-0.281 0.875-0.719-1.875-0.281 0.875-0.719-1.875-0.281 0.906-0.719-1.875-0.25 0.844-0.719-1.844-0.281 0.906-0.719-1.906-0.281 0.875-0.719-1.875-0.281 0.875-0.719-1.875-0.281 0.875-0.719-1.875s-0.272 0.874-0.281 0.906l-0.719-1.875s-0.242 0.816-0.25 0.844l-0.719-1.844s-0.272 0.874-0.281 0.906l-0.719-1.906s-0.272 0.874-0.281 0.906l-0.719-1.906s-0.272 0.845-0.281 0.875l-0.719-1.875s-0.272 0.845-0.281 0.875l-0.719-1.875s-0.272 0.874-0.281 0.906l-0.719-1.875s-0.242 0.816-0.25 0.844l-0.719-1.844s-0.272 0.845-0.281 0.875l-0.719-1.875s-0.272 0.874-0.281 0.906l-0.719-1.906s-0.272 0.845-0.281 0.875l-0.719-1.875s-0.272 0.845-0.281 0.875l-0.719-1.875s-0.272 0.874-0.281 0.906l-0.719-1.875s-0.242 0.816-0.25 0.844l-0.719-1.844s-0.272 0.845-0.281 0.875l-0.719-1.875s-0.272 0.874-0.281 0.906l-0.719-1.906s-0.272 0.845-0.281 0.875l-0.719-1.875s-0.272 0.845-0.281 0.875l-0.719-1.875s-0.272 0.845-0.281 0.875l-0.719-1.875s-0.272 0.874-0.281 0.906l-0.719-1.875s-0.242 0.816-0.25 0.844l-0.719-1.844s-0.272 0.874-0.281 0.906l-0.719-1.906s-0.272 0.874-0.281 0.906l-0.719-1.906s-0.272 0.845-0.281 0.875l-0.719-1.875s-0.272 0.845-0.281 0.875l-0.719-1.875" id="path8"/>
  <path d="m232.73 630.41 19.2 49.714 33.444 85.86 36.409-89.35 17.618-43.31 16.722 43.522 57.648 150.71h59.2v31.08h-85.44l-4.068-10.695-44.96-117.89-36.409 89.33-17.618 42.929-16.722-43.11-30.755-79.43-51.51 169.17-16.274 53.39-18.549-52.825-52.89-150.33h-58.745v-31.08h85.643l4.068 11.08 37.995 108.38 50.614-166.44z" fill="#ffffff" id="path10"/>
  <g fill-rule="evenodd" id="g12">
   <path d="m256 541.36c-140.83 0-255 114.17-255 255s114.17 255 255 255 255-114.17 255-255-114.17-255-255-255m8.827 44.931c120.9 0 218.9 98 218.9 218.9s-98 218.9-218.9 218.9-218.93-98-218.93-218.9 98.03-218.9 218.93-218.9" fill-opacity="0.067" id="path14"/>
   <g fill-opacity="0.129" id="g16">
    <path d="m256 544.79c-138.94 0-251.57 112.63-251.57 251.57s112.63 251.54 251.57 251.54 251.57-112.6 251.57-251.54-112.63-251.57-251.57-251.57m5.885 38.556c120.9 0 218.9 98 218.9 218.9s-98 218.9-218.9 218.9-218.93-98-218.93-218.9 98.03-218.9 218.93-218.9" id="path18"/>
    <path d="m256 548.72c-136.77 0-247.64 110.87-247.64 247.64s110.87 247.64 247.64 247.64 247.64-110.87 247.64-247.64-110.87-247.64-247.64-247.64m2.942 31.691c120.9 0 218.9 98 218.9 218.9s-98 218.9-218.9 218.9-218.93-98-218.93-218.9 98.03-218.9 218.93-218.9" id="path20"/>
   </g>
   <path fill="#ffffff" stroke-width="4.904" stroke="#000000" stroke-opacity="0.31" d="m253.04 548.22c-135.42 0-245.19 109.78-245.19 245.19 0 135.42 109.78 245.19 245.19 245.19 135.42 0 245.19-109.78 245.19-245.19 0-135.42-109.78-245.19-245.19-245.19zm0 26.297c120.9 0 218.9 98 218.9 218.9s-98 218.9-218.9 218.9-218.93-98-218.93-218.9 98.03-218.9 218.93-218.9z" id="path22"/>
  </g>
  <text font-family="Gentium Book Basic" x="729.64" y="771.72" line-height="125%" font-size="129.23" id="text24" word-spacing="0" letter-spacing="0"><tspan x="729.64" y="771.72" id="tspan26"/>
  </text>
  <text font-family="Arial" x="378.91" y="2747.64" transform="scale(4.0128 .2492)" font-size="46.954" id="text28" text-anchor="middle"/>
  <text font-family="Gentium Book Basic" x="1310.91" y="691.72" line-height="125%" font-size="129.23" id="text30" word-spacing="0" letter-spacing="0"><tspan x="1310.91" y="691.72" id="tspan32"/>
  </text>
  <text font-family="Arial" x="523.76" y="2426.6" transform="scale(4.0128 .2492)" font-size="46.954" id="text34" text-anchor="middle"/>
  <text font-family="Gentium Book Basic" x="239.33" y="510.46" line-height="125%" font-size="129.23" id="text36" word-spacing="0" letter-spacing="0"><tspan x="239.33" y="510.46" id="tspan38"/>
  </text>
  <text font-family="Arial" x="256.72" y="1699.25" transform="scale(4.0128 .2492)" font-size="46.954" id="text40" text-anchor="middle"/>
  <text font-family="Gentium Book Basic" x="1337.38" y="293.99" line-height="125%" font-size="129.23" id="text42" word-spacing="0" letter-spacing="0"><tspan x="1337.38" y="293.99" id="tspan44"/>
  </text>
  <text font-family="Arial" x="530.36" y="830.57" transform="scale(4.0128 .2492)" font-size="46.954" id="text46" text-anchor="middle"/>
  <text font-family="Gentium Book Basic" x="1918.65" y="213.99" line-height="125%" font-size="129.23" id="text48" word-spacing="0" letter-spacing="0"><tspan x="1918.65" y="213.99" id="tspan50"/>
  </text>
  <text font-family="Arial" x="675.21" y="509.54" transform="scale(4.0128 .2492)" font-size="46.954" id="text52" text-anchor="middle"/>
  <text font-family="Gentium Book Basic" x="1529.53" y="-258.41" line-height="125%" font-size="129.23" id="text54" word-spacing="0" letter-spacing="0"><tspan x="1529.53" y="-258.41" id="tspan56"/>
  </text>
  <text font-family="Arial" x="578.24" y="-1386.12" transform="scale(4.0128 .2492)" font-size="46.954" id="text58" text-anchor="middle"/>
  <text font-family="Gentium Book Basic" x="2110.79" y="-338.42" line-height="125%" font-size="129.23" id="text60" word-spacing="0" letter-spacing="0"><tspan x="2110.79" y="-338.42" id="tspan62"/>
  </text>
  <text font-family="Arial" x="723.09" y="-1707.16" transform="scale(4.0128 .2492)" font-size="46.954" id="text64" text-anchor="middle"/>
  <g line-height="125%" font-size="208.33" font-family="Gentium Book Basic" id="g66" word-spacing="0" letter-spacing="0">
   <text x="277.99" y="1076.3" id="text68"><tspan x="277.99" y="1076.3" id="tspan70"/>
   </text>
   <text x="-1666.79" y="907.01" id="text72"><tspan x="-1666.79" y="907.01" id="tspan74"/>
   </text>
  </g>
  <text font-family="Arial" x="-97.64" y="3076.8" transform="scale(4.0128 .2492)" font-size="75.7" id="text76" text-anchor="middle"/>
 </g>
</svg>
