<?xml version="1.0" encoding="UTF-8" standalone="no"?>
<svg xmlns="http://www.w3.org/2000/svg" xmlns:sodipodi="http://sodipodi.sourceforge.net/DTD/sodipodi-0.dtd" xmlns:inkscape="http://www.inkscape.org/namespaces/inkscape" viewBox="0 0 512 512" version="1.1" width="512" height="512">
 <metadata id="metadata742"/>
 <text id="text4" line-height="125%" font-family="&apos;Gentium Book Basic&apos;" x="729.64" y="231.36" font-size="129.23" word-spacing="0" letter-spacing="0"><tspan id="tspan6" x="729.64" y="231.36"/>
 </text>
 <text id="text8" font-family="Arial" x="378.91" y="579.25" font-size="46.954" transform="scale(4.0128.2492)" text-anchor="middle"/>
 <text id="text10" line-height="125%" font-family="&apos;Gentium Book Basic&apos;" x="1310.91" y="151.36" font-size="129.23" word-spacing="0" letter-spacing="0"><tspan id="tspan12" x="1310.91" y="151.36"/>
 </text>
 <text id="text14" font-family="Arial" x="523.76" y="258.22" font-size="46.954" transform="scale(4.0128.2492)" text-anchor="middle"/>
 <text id="text16" line-height="125%" font-family="&apos;Gentium Book Basic&apos;" x="239.33" y="-29.901" font-size="129.23" word-spacing="0" letter-spacing="0"><tspan id="tspan18" x="239.33" y="-29.901"/>
 </text>
 <text id="text20" font-family="Arial" x="256.72" y="-469.14" font-size="46.954" transform="scale(4.0128.2492)" text-anchor="middle"/>
 <text id="text22" line-height="125%" font-family="&apos;Gentium Book Basic&apos;" x="1337.38" y="-246.37" font-size="129.23" word-spacing="0" letter-spacing="0"><tspan id="tspan24" x="1337.38" y="-246.37"/>
 </text>
 <text id="text26" font-family="Arial" x="530.36" y="-1337.8" font-size="46.954" transform="scale(4.0128.2492)" text-anchor="middle"/>
 <text id="text28" line-height="125%" font-family="&apos;Gentium Book Basic&apos;" x="1918.65" y="-326.38" font-size="129.23" word-spacing="0" letter-spacing="0"><tspan id="tspan30" x="1918.65" y="-326.38"/>
 </text>
 <text id="text32" font-family="Arial" x="675.21" y="-1658.84" font-size="46.954" transform="scale(4.0128.2492)" text-anchor="middle"/>
 <text id="text34" line-height="125%" font-family="&apos;Gentium Book Basic&apos;" x="1529.53" y="-798.78" font-size="129.23" word-spacing="0" letter-spacing="0"><tspan id="tspan36" x="1529.53" y="-798.78"/>
 </text>
 <text id="text38" font-family="Arial" x="578.24" y="-3554.49" font-size="46.954" transform="scale(4.0128.2492)" text-anchor="middle"/>
 <text id="text40" line-height="125%" font-family="&apos;Gentium Book Basic&apos;" x="2110.79" y="-878.78" font-size="129.23" word-spacing="0" letter-spacing="0"><tspan id="tspan42" x="2110.79" y="-878.78"/>
 </text>
 <text id="text44" font-family="Arial" x="723.09" y="-3875.52" font-size="46.954" transform="scale(4.0128.2492)" text-anchor="middle"/>
 <g id="g46" line-height="125%" font-family="&apos;Gentium Book Basic&apos;" word-spacing="0" letter-spacing="0">
  <text id="text48" font-size="208.33" x="277.99" y="535.94"><tspan id="tspan50" x="277.99" y="535.94"/>
  </text>
  <text id="text52" font-size="129.23" x="729.64" y="231.36"><tspan id="tspan54" x="729.64" y="231.36"/>
  </text>
 </g>
 <text id="text56" font-family="Arial" x="378.91" y="579.25" font-size="46.954" transform="scale(4.0128.2492)" text-anchor="middle"/>
 <text id="text58" line-height="125%" font-family="&apos;Gentium Book Basic&apos;" x="1310.91" y="151.36" font-size="129.23" word-spacing="0" letter-spacing="0"><tspan id="tspan60" x="1310.91" y="151.36"/>
 </text>
 <text id="text62" font-family="Arial" x="523.76" y="258.22" font-size="46.954" transform="scale(4.0128.2492)" text-anchor="middle"/>
 <text id="text64" line-height="125%" font-family="&apos;Gentium Book Basic&apos;" x="239.33" y="-29.901" font-size="129.23" word-spacing="0" letter-spacing="0"><tspan id="tspan66" x="239.33" y="-29.901"/>
 </text>
 <text id="text68" font-family="Arial" x="256.72" y="-469.14" font-size="46.954" transform="scale(4.0128.2492)" text-anchor="middle"/>
 <text id="text70" line-height="125%" font-family="&apos;Gentium Book Basic&apos;" x="1337.38" y="-246.37" font-size="129.23" word-spacing="0" letter-spacing="0"><tspan id="tspan72" x="1337.38" y="-246.37"/>
 </text>
 <text id="text74" font-family="Arial" x="530.36" y="-1337.8" font-size="46.954" transform="scale(4.0128.2492)" text-anchor="middle"/>
 <text id="text76" line-height="125%" font-family="&apos;Gentium Book Basic&apos;" x="1918.65" y="-326.38" font-size="129.23" word-spacing="0" letter-spacing="0"><tspan id="tspan78" x="1918.65" y="-326.38"/>
 </text>
 <text id="text80" font-family="Arial" x="675.21" y="-1658.84" font-size="46.954" transform="scale(4.0128.2492)" text-anchor="middle"/>
 <text id="text82" line-height="125%" font-family="&apos;Gentium Book Basic&apos;" x="1529.53" y="-798.78" font-size="129.23" word-spacing="0" letter-spacing="0"><tspan id="tspan84" x="1529.53" y="-798.78"/>
 </text>
 <text id="text86" font-family="Arial" x="578.24" y="-3554.49" font-size="46.954" transform="scale(4.0128.2492)" text-anchor="middle"/>
 <text id="text88" line-height="125%" font-family="&apos;Gentium Book Basic&apos;" x="2110.79" y="-878.78" font-size="129.23" word-spacing="0" letter-spacing="0"><tspan id="tspan90" x="2110.79" y="-878.78"/>
 </text>
 <text id="text92" font-family="Arial" x="723.09" y="-3875.52" font-size="46.954" transform="scale(4.0128.2492)" text-anchor="middle"/>
 <g id="g94" line-height="125%" font-family="&apos;Gentium Book Basic&apos;" word-spacing="0" letter-spacing="0">
  <text id="text96" font-size="208.33" x="277.99" y="535.94"><tspan id="tspan98" x="277.99" y="535.94"/>
  </text>
  <text id="text100" font-size="129.23" x="102.66" y="285.6"><tspan id="tspan102" x="102.66" y="285.6"/>
  </text>
 </g>
 <text id="text104" font-family="Arial" x="222.66" y="796.89" font-size="46.954" transform="scale(4.0128.2492)" text-anchor="middle"/>
 <text id="text106" line-height="125%" font-family="&apos;Gentium Book Basic&apos;" x="683.93" y="205.6" font-size="129.23" word-spacing="0" letter-spacing="0"><tspan id="tspan108" x="683.93" y="205.6"/>
 </text>
 <text id="text110" font-family="Arial" x="367.51" y="475.86" font-size="46.954" transform="scale(4.0128.2492)" text-anchor="middle"/>
 <text id="text112" line-height="125%" font-family="&apos;Gentium Book Basic&apos;" x="-387.65" y="24.336" font-size="129.23" word-spacing="0" letter-spacing="0"><tspan id="tspan114" x="-387.65" y="24.336"/>
 </text>
 <text id="text116" font-family="Arial" x="100.47" y="-251.49" font-size="46.954" transform="scale(4.0128.2492)" text-anchor="middle"/>
 <text id="text118" line-height="125%" font-family="&apos;Gentium Book Basic&apos;" x="710.4" y="-192.13" font-size="129.23" word-spacing="0" letter-spacing="0"><tspan id="tspan120" x="710.4" y="-192.13"/>
 </text>
 <text id="text122" font-family="Arial" x="374.11" y="-1120.16" font-size="46.954" transform="scale(4.0128.2492)" text-anchor="middle"/>
 <text id="text124" line-height="125%" font-family="&apos;Gentium Book Basic&apos;" x="1291.67" y="-272.14" font-size="129.23" word-spacing="0" letter-spacing="0"><tspan id="tspan126" x="1291.67" y="-272.14"/>
 </text>
 <text id="text128" font-family="Arial" x="518.96" y="-1441.2" font-size="46.954" transform="scale(4.0128.2492)" text-anchor="middle"/>
 <text id="text130" line-height="125%" font-family="&apos;Gentium Book Basic&apos;" x="902.55" y="-744.54" font-size="129.23" word-spacing="0" letter-spacing="0"><tspan id="tspan132" x="902.55" y="-744.54"/>
 </text>
 <text id="text134" font-family="Arial" x="421.99" y="-3336.85" font-size="46.954" transform="scale(4.0128.2492)" text-anchor="middle"/>
 <text id="text136" line-height="125%" font-family="&apos;Gentium Book Basic&apos;" x="1483.81" y="-824.54" font-size="129.23" word-spacing="0" letter-spacing="0"><tspan id="tspan138" x="1483.81" y="-824.54"/>
 </text>
 <text id="text140" font-family="Arial" x="566.84" y="-3657.88" font-size="46.954" transform="scale(4.0128.2492)" text-anchor="middle"/>
 <g id="g142" font-size="0" line-height="125%" font-family="&apos;Gentium Book Basic&apos;" word-spacing="0" letter-spacing="0">
  <text id="text144" x="-348.99" y="590.18"><tspan id="tspan146" x="-348.99" y="590.18"/>
  </text>
  <text id="text148" x="-2398.4" y="467.51"><tspan id="tspan150" x="-2398.4" y="467.51"/>
  </text>
 </g>
 <text id="text152" font-family="Arial" x="-279.95" y="1313.13" font-size="75.7" transform="scale(4.0128.2492)" text-anchor="middle"/>
 <text id="text154" line-height="125%" font-family="&apos;Gentium Book Basic&apos;" x="-1840.22" y="913.42" font-size="208.33" word-spacing="0" letter-spacing="0"><tspan id="tspan156" x="-1840.22" y="913.42"/>
 </text>
 <text id="text158" font-family="Arial" x="-140.86" y="3102.48" font-size="75.7" transform="scale(4.0128.2492)" text-anchor="middle"/>
 <g id="g160" line-height="125%" word-spacing="0" letter-spacing="0">
  <text id="text162" font-family="Sans" font-size="40" x="248.47" y="675.9"><tspan id="tspan164" font-style="italic" font-weight="bold" x="248.47" y="675.9"/>
  </text>
  <text id="text166" font-family="&apos;Gentium Book Basic&apos;" font-size="129.23" x="729.64" y="231.36"><tspan id="tspan168" x="729.64" y="231.36"/>
  </text>
 </g>
 <text id="text170" font-family="Arial" x="378.91" y="579.25" font-size="46.954" transform="scale(4.0128.2492)" text-anchor="middle"/>
 <text id="text172" line-height="125%" font-family="&apos;Gentium Book Basic&apos;" x="1310.91" y="151.36" font-size="129.23" word-spacing="0" letter-spacing="0"><tspan id="tspan174" x="1310.91" y="151.36"/>
 </text>
 <text id="text176" font-family="Arial" x="523.76" y="258.22" font-size="46.954" transform="scale(4.0128.2492)" text-anchor="middle"/>
 <text id="text178" line-height="125%" font-family="&apos;Gentium Book Basic&apos;" x="239.33" y="-29.901" font-size="129.23" word-spacing="0" letter-spacing="0"><tspan id="tspan180" x="239.33" y="-29.901"/>
 </text>
 <text id="text182" font-family="Arial" x="256.72" y="-469.14" font-size="46.954" transform="scale(4.0128.2492)" text-anchor="middle"/>
 <text id="text184" line-height="125%" font-family="&apos;Gentium Book Basic&apos;" x="1337.38" y="-246.37" font-size="129.23" word-spacing="0" letter-spacing="0"><tspan id="tspan186" x="1337.38" y="-246.37"/>
 </text>
 <text id="text188" font-family="Arial" x="530.36" y="-1337.8" font-size="46.954" transform="scale(4.0128.2492)" text-anchor="middle"/>
 <text id="text190" line-height="125%" font-family="&apos;Gentium Book Basic&apos;" x="1918.65" y="-326.38" font-size="129.23" word-spacing="0" letter-spacing="0"><tspan id="tspan192" x="1918.65" y="-326.38"/>
 </text>
 <text id="text194" font-family="Arial" x="675.21" y="-1658.84" font-size="46.954" transform="scale(4.0128.2492)" text-anchor="middle"/>
 <text id="text196" line-height="125%" font-family="&apos;Gentium Book Basic&apos;" x="1529.53" y="-798.78" font-size="129.23" word-spacing="0" letter-spacing="0"><tspan id="tspan198" x="1529.53" y="-798.78"/>
 </text>
 <text id="text200" font-family="Arial" x="578.24" y="-3554.49" font-size="46.954" transform="scale(4.0128.2492)" text-anchor="middle"/>
 <text id="text202" line-height="125%" font-family="&apos;Gentium Book Basic&apos;" x="2110.79" y="-878.78" font-size="129.23" word-spacing="0" letter-spacing="0"><tspan id="tspan204" x="2110.79" y="-878.78"/>
 </text>
 <text id="text206" font-family="Arial" x="723.09" y="-3875.52" font-size="46.954" transform="scale(4.0128.2492)" text-anchor="middle"/>
 <g id="g208" line-height="125%" font-family="&apos;Gentium Book Basic&apos;" word-spacing="0" letter-spacing="0">
  <text id="text210" font-size="208.33" x="277.99" y="535.94"><tspan id="tspan212" x="277.99" y="535.94"/>
  </text>
  <text id="text214" font-size="129.23" x="729.64" y="231.36"><tspan id="tspan216" x="729.64" y="231.36"/>
  </text>
 </g>
 <text id="text218" font-family="Arial" x="378.91" y="579.26" font-size="46.954" transform="scale(4.0128.2492)" text-anchor="middle"/>
 <text id="text220" line-height="125%" font-family="&apos;Gentium Book Basic&apos;" x="1310.91" y="151.36" font-size="129.23" word-spacing="0" letter-spacing="0"><tspan id="tspan222" x="1310.91" y="151.36"/>
 </text>
 <text id="text224" font-family="Arial" x="523.76" y="258.22" font-size="46.954" transform="scale(4.0128.2492)" text-anchor="middle"/>
 <text id="text226" line-height="125%" font-family="&apos;Gentium Book Basic&apos;" x="239.33" y="-29.9" font-size="129.23" word-spacing="0" letter-spacing="0"><tspan id="tspan228" x="239.33" y="-29.9"/>
 </text>
 <text id="text230" font-family="Arial" x="256.72" y="-469.13" font-size="46.954" transform="scale(4.0128.2492)" text-anchor="middle"/>
 <text id="text232" line-height="125%" font-family="&apos;Gentium Book Basic&apos;" x="1337.38" y="-246.37" font-size="129.23" word-spacing="0" letter-spacing="0"><tspan id="tspan234" x="1337.38" y="-246.37"/>
 </text>
 <text id="text236" font-family="Arial" x="530.36" y="-1337.8" font-size="46.954" transform="scale(4.0128.2492)" text-anchor="middle"/>
 <text id="text238" line-height="125%" font-family="&apos;Gentium Book Basic&apos;" x="1918.65" y="-326.37" font-size="129.23" word-spacing="0" letter-spacing="0"><tspan id="tspan240" x="1918.65" y="-326.37"/>
 </text>
 <text id="text242" font-family="Arial" x="675.21" y="-1658.83" font-size="46.954" transform="scale(4.0128.2492)" text-anchor="middle"/>
 <text id="text244" line-height="125%" font-family="&apos;Gentium Book Basic&apos;" x="1529.53" y="-798.77" font-size="129.23" word-spacing="0" letter-spacing="0"><tspan id="tspan246" x="1529.53" y="-798.77"/>
 </text>
 <text id="text248" font-family="Arial" x="578.24" y="-3554.48" font-size="46.954" transform="scale(4.0128.2492)" text-anchor="middle"/>
 <text id="text250" line-height="125%" font-family="&apos;Gentium Book Basic&apos;" x="2110.79" y="-878.78" font-size="129.23" word-spacing="0" letter-spacing="0"><tspan id="tspan252" x="2110.79" y="-878.78"/>
 </text>
 <text id="text254" font-family="Arial" x="723.09" y="-3875.52" font-size="46.954" transform="scale(4.0128.2492)" text-anchor="middle"/>
 <text id="text256" line-height="125%" font-family="&apos;Gentium Book Basic&apos;" x="277.99" y="535.94" font-size="208.33" word-spacing="0" letter-spacing="0"><tspan id="tspan258" x="277.99" y="535.94"/>
 </text>
 <path id="path260" fill="#b1b1b1" d="m471.95 253.05c0 120.9-98.01 218.91-218.91 218.91s-218.91-98.01-218.91-218.91 98.01-218.91 218.91-218.91 218.91 98.01 218.91 218.91" fill-rule="evenodd"/>
 <path id="path262" fill="#828282" d="m34.16 255.75c1.448 119.66 98.88 216.22 218.88 216.22 1.012 0 2.022-0.049 3.03-0.063v-216.16h-221.91"/>
 <path id="path264" fill="#7d7d7d" d="m253.03 34.16c-120.9 0-218.91 98.01-218.91 218.91 0 0.903 0.02 1.788 0.031 2.688h221.91v-221.56c-1.01-0.014-2.02-0.031-3.03-0.031"/>
 <path id="path266" fill="#b1b1b1" d="m256.06 34.19v221.56h215.84c0.011-0.9 0.031-1.785 0.031-2.688 0-119.89-96.38-217.25-215.87-218.87"/>
 <g id="g268" fill-rule="evenodd">
  <path id="path270" fill-opacity="0.067" d="m256 1c-140.83 0-255 114.17-255 255s114.17 255 255 255 255-114.17 255-255-114.17-255-255-255m8.827 44.931c120.9 0 218.9 98 218.9 218.9s-98 218.9-218.9 218.9-218.93-98-218.93-218.9 98.03-218.9 218.93-218.9"/>
  <g id="g272" fill-opacity="0.129">
   <path id="path274" d="m256 4.43c-138.94 0-251.57 112.63-251.57 251.57s112.63 251.57 251.57 251.57 251.57-112.63 251.57-251.57-112.63-251.57-251.57-251.57m5.885 38.556c120.9 0 218.9 98 218.9 218.9s-98 218.9-218.9 218.9-218.93-98-218.93-218.9 98.03-218.9 218.93-218.9"/>
   <path id="path276" d="m256 8.36c-136.77 0-247.64 110.87-247.64 247.64s110.87 247.64 247.64 247.64 247.64-110.87 247.64-247.64-110.87-247.64-247.64-247.64m2.942 31.691c120.9 0 218.9 98 218.9 218.9s-98 218.9-218.9 218.9-218.93-98-218.93-218.9 98.03-218.9 218.93-218.9"/>
  </g>
  <path id="path278" fill="#ffffff" stroke-opacity="0.31" d="m253.04 7.86c-135.42 0-245.19 109.78-245.19 245.19 0 135.42 109.78 245.19 245.19 245.19 135.42 0 245.19-109.78 245.19-245.19 0-135.42-109.78-245.19-245.19-245.19m0 26.297c120.9 0 218.9 98 218.9 218.9s-98 218.9-218.9 218.9-218.93-98-218.93-218.9 98.03-218.9 218.93-218.9z" stroke-width="4.904" stroke="#000000"/>
 </g>
 <text id="text280" line-height="125%" font-family="&apos;Gentium Book Basic&apos;" x="729.64" y="231.36" font-size="129.23" word-spacing="0" letter-spacing="0"><tspan id="tspan282" x="729.64" y="231.36"/>
 </text>
 <text id="text284" font-family="Arial" x="378.91" y="579.26" font-size="46.954" transform="scale(4.0128.2492)" text-anchor="middle"/>
 <text id="text286" line-height="125%" font-family="&apos;Gentium Book Basic&apos;" x="1310.91" y="151.36" font-size="129.23" word-spacing="0" letter-spacing="0"><tspan id="tspan288" x="1310.91" y="151.36"/>
 </text>
 <text id="text290" font-family="Arial" x="523.76" y="258.22" font-size="46.954" transform="scale(4.0128.2492)" text-anchor="middle"/>
 <text id="text292" line-height="125%" font-family="&apos;Gentium Book Basic&apos;" x="239.33" y="-29.9" font-size="129.23" word-spacing="0" letter-spacing="0"><tspan id="tspan294" x="239.33" y="-29.9"/>
 </text>
 <text id="text296" font-family="Arial" x="256.72" y="-469.13" font-size="46.954" transform="scale(4.0128.2492)" text-anchor="middle"/>
 <text id="text298" line-height="125%" font-family="&apos;Gentium Book Basic&apos;" x="1337.38" y="-246.37" font-size="129.23" word-spacing="0" letter-spacing="0"><tspan id="tspan300" x="1337.38" y="-246.37"/>
 </text>
 <text id="text302" font-family="Arial" x="530.36" y="-1337.8" font-size="46.954" transform="scale(4.0128.2492)" text-anchor="middle"/>
 <text id="text304" line-height="125%" font-family="&apos;Gentium Book Basic&apos;" x="1918.65" y="-326.37" font-size="129.23" word-spacing="0" letter-spacing="0"><tspan id="tspan306" x="1918.65" y="-326.37"/>
 </text>
 <text id="text308" font-family="Arial" x="675.21" y="-1658.83" font-size="46.954" transform="scale(4.0128.2492)" text-anchor="middle"/>
 <text id="text310" line-height="125%" font-family="&apos;Gentium Book Basic&apos;" x="1529.53" y="-798.77" font-size="129.23" word-spacing="0" letter-spacing="0"><tspan id="tspan312" x="1529.53" y="-798.77"/>
 </text>
 <text id="text314" font-family="Arial" x="578.24" y="-3554.48" font-size="46.954" transform="scale(4.0128.2492)" text-anchor="middle"/>
 <text id="text316" line-height="125%" font-family="&apos;Gentium Book Basic&apos;" x="2110.79" y="-878.78" font-size="129.23" word-spacing="0" letter-spacing="0"><tspan id="tspan318" x="2110.79" y="-878.78"/>
 </text>
 <text id="text320" font-family="Arial" x="723.09" y="-3875.52" font-size="46.954" transform="scale(4.0128.2492)" text-anchor="middle"/>
 <g id="g322" line-height="125%" font-family="&apos;Gentium Book Basic&apos;" word-spacing="0" letter-spacing="0">
  <text id="text324" font-size="208.33" x="277.99" y="535.94"><tspan id="tspan326" x="277.99" y="535.94"/>
  </text>
  <text id="text328" font-size="129.23" x="753.79" y="739.52"><tspan id="tspan330" x="753.79" y="739.52"/>
  </text>
 </g>
 <text id="text332" font-family="Arial" x="384.93" y="2618.42" font-size="46.954" transform="scale(4.0128.2492)" text-anchor="middle"/>
 <text id="text334" line-height="125%" font-family="&apos;Gentium Book Basic&apos;" x="1335.06" y="659.52" font-size="129.23" word-spacing="0" letter-spacing="0"><tspan id="tspan336" x="1335.06" y="659.52"/>
 </text>
 <text id="text338" font-family="Arial" x="529.78" y="2297.39" font-size="46.954" transform="scale(4.0128.2492)" text-anchor="middle"/>
 <text id="text340" line-height="125%" font-family="&apos;Gentium Book Basic&apos;" x="263.48" y="478.26" font-size="129.23" word-spacing="0" letter-spacing="0"><tspan id="tspan342" x="263.48" y="478.26"/>
 </text>
 <text id="text344" font-family="Arial" x="262.74" y="1570.04" font-size="46.954" transform="scale(4.0128.2492)" text-anchor="middle"/>
 <text id="text346" line-height="125%" font-family="&apos;Gentium Book Basic&apos;" x="1361.53" y="261.79" font-size="129.23" word-spacing="0" letter-spacing="0"><tspan id="tspan348" x="1361.53" y="261.79"/>
 </text>
 <text id="text350" font-family="Arial" x="536.38" y="701.37" font-size="46.954" transform="scale(4.0128.2492)" text-anchor="middle"/>
 <text id="text352" line-height="125%" font-family="&apos;Gentium Book Basic&apos;" x="1942.8" y="181.78" font-size="129.23" word-spacing="0" letter-spacing="0"><tspan id="tspan354" x="1942.8" y="181.78"/>
 </text>
 <text id="text356" font-family="Arial" x="681.23" y="380.33" font-size="46.954" transform="scale(4.0128.2492)" text-anchor="middle"/>
 <text id="text358" line-height="125%" font-family="&apos;Gentium Book Basic&apos;" x="1553.68" y="-290.62" font-size="129.23" word-spacing="0" letter-spacing="0"><tspan id="tspan360" x="1553.68" y="-290.62"/>
 </text>
 <text id="text362" font-family="Arial" x="584.26" y="-1515.32" font-size="46.954" transform="scale(4.0128.2492)" text-anchor="middle"/>
 <text id="text364" line-height="125%" font-family="&apos;Gentium Book Basic&apos;" x="2134.94" y="-370.62" font-size="129.23" word-spacing="0" letter-spacing="0"><tspan id="tspan366" x="2134.94" y="-370.62"/>
 </text>
 <text id="text368" font-family="Arial" x="729.11" y="-1836.35" font-size="46.954" transform="scale(4.0128.2492)" text-anchor="middle"/>
 <g id="g370" line-height="125%" font-family="&apos;Gentium Book Basic&apos;" word-spacing="0" letter-spacing="0">
  <text id="text372" font-size="208.33" x="302.14" y="1044.1"><tspan id="tspan374" x="302.14" y="1044.1"/>
  </text>
  <text id="text376" font-size="129.23" x="1056.16" y="909.78"><tspan id="tspan378" x="1056.16" y="909.78"/>
  </text>
 </g>
 <text id="text380" font-family="Arial" x="460.28" y="3301.61" font-size="46.954" transform="scale(4.0128.2492)" text-anchor="middle"/>
 <text id="text382" line-height="125%" font-family="&apos;Gentium Book Basic&apos;" x="1637.43" y="829.78" font-size="129.23" word-spacing="0" letter-spacing="0"><tspan id="tspan384" x="1637.43" y="829.78"/>
 </text>
 <text id="text386" font-family="Arial" x="605.13" y="2980.58" font-size="46.954" transform="scale(4.0128.2492)" text-anchor="middle"/>
 <text id="text388" line-height="125%" font-family="&apos;Gentium Book Basic&apos;" x="565.85" y="648.52" font-size="129.23" word-spacing="0" letter-spacing="0"><tspan id="tspan390" x="565.85" y="648.52"/>
 </text>
 <text id="text392" font-family="Arial" x="338.09" y="2253.22" font-size="46.954" transform="scale(4.0128.2492)" text-anchor="middle"/>
 <text id="text394" line-height="125%" font-family="&apos;Gentium Book Basic&apos;" x="1663.9" y="432.05" font-size="129.23" word-spacing="0" letter-spacing="0"><tspan id="tspan396" x="1663.9" y="432.05"/>
 </text>
 <text id="text398" font-family="Arial" x="611.73" y="1384.56" font-size="46.954" transform="scale(4.0128.2492)" text-anchor="middle"/>
 <text id="text400" line-height="125%" font-family="&apos;Gentium Book Basic&apos;" x="2245.17" y="352.04" font-size="129.23" word-spacing="0" letter-spacing="0"><tspan id="tspan402" x="2245.17" y="352.04"/>
 </text>
 <text id="text404" font-family="Arial" x="756.57" y="1063.52" font-size="46.954" transform="scale(4.0128.2492)" text-anchor="middle"/>
 <text id="text406" line-height="125%" font-family="&apos;Gentium Book Basic&apos;" x="1856.05" y="-120.36" font-size="129.23" word-spacing="0" letter-spacing="0"><tspan id="tspan408" x="1856.05" y="-120.36"/>
 </text>
 <text id="text410" font-family="Arial" x="659.61" y="-832.13" font-size="46.954" transform="scale(4.0128.2492)" text-anchor="middle"/>
 <text id="text412" line-height="125%" font-family="&apos;Gentium Book Basic&apos;" x="2437.31" y="-200.36" font-size="129.23" word-spacing="0" letter-spacing="0"><tspan id="tspan414" x="2437.31" y="-200.36"/>
 </text>
 <text id="text416" font-family="Arial" x="804.45" y="-1153.16" font-size="46.954" transform="scale(4.0128.2492)" text-anchor="middle"/>
 <g id="g418" line-height="125%" font-family="&apos;Gentium Book Basic&apos;" word-spacing="0" letter-spacing="0">
  <text id="text420" font-size="208.33" x="604.51" y="1214.36"><tspan id="tspan422" x="604.51" y="1214.36"/>
  </text>
  <text id="text424" font-size="129.23" x="1043.14" y="879.4"><tspan id="tspan426" x="1043.14" y="879.4"/>
  </text>
 </g>
 <text id="text428" font-family="Arial" x="457.03" y="3179.73" font-size="46.954" transform="scale(4.0128.2492)" text-anchor="middle"/>
 <text id="text430" line-height="125%" font-family="&apos;Gentium Book Basic&apos;" x="1624.41" y="799.4" font-size="129.23" word-spacing="0" letter-spacing="0"><tspan id="tspan432" x="1624.41" y="799.4"/>
 </text>
 <text id="text434" font-family="Arial" x="601.88" y="2858.7" font-size="46.954" transform="scale(4.0128.2492)" text-anchor="middle"/>
 <text id="text436" line-height="125%" font-family="&apos;Gentium Book Basic&apos;" x="552.83" y="618.14" font-size="129.23" word-spacing="0" letter-spacing="0"><tspan id="tspan438" x="552.83" y="618.14"/>
 </text>
 <text id="text440" font-family="Arial" x="334.84" y="2131.34" font-size="46.954" transform="scale(4.0128.2492)" text-anchor="middle"/>
 <text id="text442" line-height="125%" font-family="&apos;Gentium Book Basic&apos;" x="1650.88" y="401.67" font-size="129.23" word-spacing="0" letter-spacing="0"><tspan id="tspan444" x="1650.88" y="401.67"/>
 </text>
 <text id="text446" font-family="Arial" x="608.48" y="1262.68" font-size="46.954" transform="scale(4.0128.2492)" text-anchor="middle"/>
 <text id="text448" line-height="125%" font-family="&apos;Gentium Book Basic&apos;" x="2232.15" y="321.66" font-size="129.23" word-spacing="0" letter-spacing="0"><tspan id="tspan450" x="2232.15" y="321.66"/>
 </text>
 <text id="text452" font-family="Arial" x="753.33" y="941.64" font-size="46.954" transform="scale(4.0128.2492)" text-anchor="middle"/>
 <text id="text454" line-height="125%" font-family="&apos;Gentium Book Basic&apos;" x="1843.03" y="-150.74" font-size="129.23" word-spacing="0" letter-spacing="0"><tspan id="tspan456" x="1843.03" y="-150.74"/>
 </text>
 <text id="text458" font-family="Arial" x="656.36" y="-954.01" font-size="46.954" transform="scale(4.0128.2492)" text-anchor="middle"/>
 <text id="text460" line-height="125%" font-family="&apos;Gentium Book Basic&apos;" x="2424.29" y="-230.74" font-size="129.23" word-spacing="0" letter-spacing="0"><tspan id="tspan462" x="2424.29" y="-230.74"/>
 </text>
 <text id="text464" font-family="Arial" x="801.21" y="-1275.04" font-size="46.954" transform="scale(4.0128.2492)" text-anchor="middle"/>
 <g id="g466" line-height="125%" font-family="&apos;Gentium Book Basic&apos;" word-spacing="0" letter-spacing="0">
  <text id="text468" font-size="208.33" x="591.49" y="1183.98"><tspan id="tspan470" x="591.49" y="1183.98"/>
  </text>
  <text id="text472" font-size="129.23" x="1003.85" y="945.09"><tspan id="tspan474" x="1003.85" y="945.09"/>
  </text>
 </g>
 <text id="text476" font-family="Arial" x="447.24" y="3443.31" font-size="46.954" transform="scale(4.0128.2492)" text-anchor="middle"/>
 <text id="text478" line-height="125%" font-family="&apos;Gentium Book Basic&apos;" x="1585.12" y="865.09" font-size="129.23" word-spacing="0" letter-spacing="0"><tspan id="tspan480" x="1585.12" y="865.09"/>
 </text>
 <text id="text482" font-family="Arial" x="592.09" y="3122.29" font-size="46.954" transform="scale(4.0128.2492)" text-anchor="middle"/>
 <text id="text484" line-height="125%" font-family="&apos;Gentium Book Basic&apos;" x="513.54" y="683.83" font-size="129.23" word-spacing="0" letter-spacing="0"><tspan id="tspan486" x="513.54" y="683.83"/>
 </text>
 <text id="text488" font-family="Arial" x="325.05" y="2394.93" font-size="46.954" transform="scale(4.0128.2492)" text-anchor="middle"/>
 <text id="text490" line-height="125%" font-family="&apos;Gentium Book Basic&apos;" x="1611.59" y="467.36" font-size="129.23" word-spacing="0" letter-spacing="0"><tspan id="tspan492" x="1611.59" y="467.36"/>
 </text>
 <text id="text494" font-family="Arial" x="598.69" y="1526.26" font-size="46.954" transform="scale(4.0128.2492)" text-anchor="middle"/>
 <text id="text496" line-height="125%" font-family="&apos;Gentium Book Basic&apos;" x="2192.86" y="387.35" font-size="129.23" word-spacing="0" letter-spacing="0"><tspan id="tspan498" x="2192.86" y="387.35"/>
 </text>
 <text id="text500" font-family="Arial" x="743.54" y="1205.23" font-size="46.954" transform="scale(4.0128.2492)" text-anchor="middle"/>
 <text id="text502" line-height="125%" font-family="&apos;Gentium Book Basic&apos;" x="1803.74" y="-85.05" font-size="129.23" word-spacing="0" letter-spacing="0"><tspan id="tspan504" x="1803.74" y="-85.05"/>
 </text>
 <text id="text506" font-family="Arial" x="646.57" y="-690.42" font-size="46.954" transform="scale(4.0128.2492)" text-anchor="middle"/>
 <text id="text508" line-height="125%" font-family="&apos;Gentium Book Basic&apos;" x="2385" y="-165.05" font-size="129.23" word-spacing="0" letter-spacing="0"><tspan id="tspan510" x="2385" y="-165.05"/>
 </text>
 <text id="text512" font-family="Arial" x="791.42" y="-1011.45" font-size="46.954" transform="scale(4.0128.2492)" text-anchor="middle"/>
 <g id="g514" line-height="125%" transform="translate(274.21 713.73)" font-family="&apos;Gentium Book Basic&apos;" word-spacing="0" letter-spacing="0">
  <text id="text516" font-size="208.33" x="277.99" y="535.94"><tspan id="tspan518" x="277.99" y="535.94"/>
  </text>
  <text id="text520" font-size="129.23" x="148.44" y="135.65"><tspan id="tspan522" x="148.44" y="135.65"/>
  </text>
 </g>
 <text id="text524" font-family="Arial" x="302.4" y="3059.27" font-size="46.954" transform="scale(4.0128.2492)" text-anchor="middle"/>
 <text id="text526" line-height="125%" font-family="&apos;Gentium Book Basic&apos;" x="1003.92" y="769.38" font-size="129.23" word-spacing="0" letter-spacing="0"><tspan id="tspan528" x="1003.92" y="769.38"/>
 </text>
 <text id="text530" font-family="Arial" x="447.25" y="2738.24" font-size="46.954" transform="scale(4.0128.2492)" text-anchor="middle"/>
 <text id="text532" line-height="125%" font-family="&apos;Gentium Book Basic&apos;" x="-67.66" y="588.12" font-size="129.23" word-spacing="0" letter-spacing="0"><tspan id="tspan534" x="-67.66" y="588.12"/>
 </text>
 <text id="text536" font-family="Arial" x="180.21" y="2010.88" font-size="46.954" transform="scale(4.0128.2492)" text-anchor="middle"/>
 <text id="text538" line-height="125%" font-family="&apos;Gentium Book Basic&apos;" x="1030.39" y="371.65" font-size="129.23" word-spacing="0" letter-spacing="0"><tspan id="tspan540" x="1030.39" y="371.65"/>
 </text>
 <text id="text542" font-family="Arial" x="453.85" y="1142.23" font-size="46.954" transform="scale(4.0128.2492)" text-anchor="middle"/>
 <text id="text544" line-height="125%" font-family="&apos;Gentium Book Basic&apos;" x="1611.66" y="291.64" font-size="129.23" word-spacing="0" letter-spacing="0"><tspan id="tspan546" x="1611.66" y="291.64"/>
 </text>
 <text id="text548" font-family="Arial" x="598.7" y="821.19" font-size="46.954" transform="scale(4.0128.2492)" text-anchor="middle"/>
 <text id="text550" line-height="125%" font-family="&apos;Gentium Book Basic&apos;" x="1222.54" y="-180.76" font-size="129.23" word-spacing="0" letter-spacing="0"><tspan id="tspan552" x="1222.54" y="-180.76"/>
 </text>
 <text id="text554" font-family="Arial" x="501.73" y="-1074.45" font-size="46.954" transform="scale(4.0128.2492)" text-anchor="middle"/>
 <text id="text556" line-height="125%" font-family="&apos;Gentium Book Basic&apos;" x="1803.8" y="-260.76" font-size="129.23" word-spacing="0" letter-spacing="0"><tspan id="tspan558" x="1803.8" y="-260.76"/>
 </text>
 <text id="text560" font-family="Arial" x="646.58" y="-1395.48" font-size="46.954" transform="scale(4.0128.2492)" text-anchor="middle"/>
 <g id="g562" line-height="125%" font-family="&apos;Gentium Book Basic&apos;" word-spacing="0" letter-spacing="0">
  <text id="text564" font-size="208.33" x="-29" y="1153.96"><tspan id="tspan566" x="-29" y="1153.96"/>
  </text>
  <text id="text568" fill="#565656" stroke="#565656" font-size="200" x="388.61" y="816.4"><tspan id="tspan570" x="388.61" y="816.4"/>
  </text>
 </g>
 <g id="g572" fill="#565656">
  <text id="text574" font-family="Arial" x="401.86" y="2735.69" font-size="72.67" transform="scale(4.0128.2492)" text-anchor="middle"/>
  <text id="text576" line-height="125%" font-family="&apos;Gentium Book Basic&apos;" x="1133.98" y="869.54" stroke="#565656" font-size="200" word-spacing="0" letter-spacing="0"><tspan id="tspan578" x="1133.98" y="869.54"/>
  </text>
  <text id="text580" font-family="Arial" x="587.61" y="2948.94" font-size="72.67" transform="scale(4.0128.2492)" text-anchor="middle"/>
  <text id="text582" line-height="125%" font-family="&apos;Gentium Book Basic&apos;" x="2033.6" y="745.72" stroke="#565656" font-size="200" word-spacing="0" letter-spacing="0"><tspan id="tspan584" x="2033.6" y="745.72"/>
  </text>
  <text id="text586" font-family="Arial" x="811.79" y="2452.08" font-size="72.67" transform="scale(4.0128.2492)" text-anchor="middle"/>
  <text id="text588" line-height="125%" font-family="&apos;Gentium Book Basic&apos;" x="1161.45" y="693.08" stroke="#565656" font-size="200" word-spacing="0" letter-spacing="0"><tspan id="tspan590" x="1161.45" y="693.08"/>
  </text>
  <text id="text592" font-family="Arial" x="594.45" y="2240.86" font-size="72.67" transform="scale(4.0128.2492)" text-anchor="middle"/>
  <text id="text594" line-height="125%" font-family="&apos;Gentium Book Basic&apos;" x="2061.06" y="569.27" stroke="#565656" font-size="200" word-spacing="0" letter-spacing="0"><tspan id="tspan596" x="2061.06" y="569.27"/>
  </text>
  <text id="text598" font-family="Arial" x="818.63" y="1744" font-size="72.67" transform="scale(4.0128.2492)" text-anchor="middle"/>
  <text id="text600" line-height="125%" font-family="&apos;Gentium Book Basic&apos;" x="-1848.54" y="1144.97" stroke="#565656" font-size="200" word-spacing="0" letter-spacing="0"><tspan id="tspan602" x="-1848.54" y="1144.97"/>
  </text>
  <text id="text604" font-family="Arial" x="-155.64" y="4054.19" font-size="72.67" transform="scale(4.0128.2492)" text-anchor="middle"/>
 </g>
 <text id="text606" line-height="125%" font-family="&apos;Gentium Book Basic&apos;" x="7.02" y="1179.08" font-size="208.33" word-spacing="0" letter-spacing="0"><tspan id="tspan608" x="7.02" y="1179.08"/>
 </text>
 <text id="text610" font-family="Arial" x="319.47" y="4168.58" font-size="75.7" transform="scale(4.0128.2492)" text-anchor="middle"/>
 <g id="g612" fill="#4f4f4f" transform="translate(964.35 700.11)">
  <text id="text614" line-height="125%" font-family="&apos;Gentium Book Basic&apos;" x="681.22" y="221.3" font-size="84.77" transform="scale(1.05082.95163)" word-spacing="0" letter-spacing="0"><tspan id="tspan616" x="681.22" y="221.3"/>
  </text>
  <text id="text618" font-family="Arial" x="299.04" y="659.01" font-size="30.8" transform="scale(4.21679.23715)" text-anchor="middle"/>
  <text id="text620" line-height="125%" font-family="&apos;Gentium Book Basic&apos;" x="949.03" y="197.8" font-size="45.38" transform="scale(1.05082.95163)" word-spacing="0" letter-spacing="0"><tspan id="tspan622" x="949.03" y="197.8"/>
  </text>
  <text id="text624" font-family="Arial" x="305.7" y="671.14" font-size="16.488" transform="scale(4.21679.23715)" text-anchor="middle"/>
  <text id="text626" line-height="125%" font-family="&apos;Gentium Book Basic&apos;" x="-25.07" y="290.09" font-size="132.57" word-spacing="0" letter-spacing="0"><tspan id="tspan628" x="-25.07" y="290.09"/>
  </text>
  <text id="text630" font-family="Arial" x="195.94" y="805.88" font-size="48.17" transform="scale(4.0128.2492)" text-anchor="middle"/>
 </g>
 <g id="g632" transform="translate(964.35 700.11)">
  <g id="g634" fill="#4f4f4f">
   <text id="text636" line-height="125%" font-family="&apos;Gentium Book Basic&apos;" x="119.84" y="185.78" font-size="84.77" transform="scale(1.05082.95163)" word-spacing="0" letter-spacing="0"><tspan id="tspan638" x="119.84" y="185.78"/>
   </text>
   <text id="text640" font-family="Arial" x="159.14" y="516.46" font-size="30.8" transform="scale(4.21679.23715)" text-anchor="middle"/>
   <text id="text642" line-height="125%" font-family="&apos;Gentium Book Basic&apos;" x="387.65" y="162.28" font-size="45.38" transform="scale(1.05082.95163)" word-spacing="0" letter-spacing="0"><tspan id="tspan644" x="387.65" y="162.28"/>
   </text>
   <text id="text646" font-family="Arial" x="165.81" y="528.59" font-size="16.488" transform="scale(4.21679.23715)" text-anchor="middle"/>
   <text id="text648" line-height="125%" font-family="&apos;Gentium Book Basic&apos;" x="-614.98" y="256.28" font-size="132.57" word-spacing="0" letter-spacing="0"><tspan id="tspan650" x="-614.98" y="256.28"/>
   </text>
   <text id="text652" font-family="Arial" x="48.929" y="670.22" font-size="48.17" transform="scale(4.0128.2492)" text-anchor="middle"/>
  </g>
  <g id="g654" line-height="125%" font-family="&apos;Gentium Book Basic&apos;" word-spacing="0" letter-spacing="0">
   <g id="g656" font-size="208.33">
    <text id="text658" x="-352.73" y="236.4"><tspan id="tspan660" x="-352.73" y="236.4"/>
    </text>
    <text id="text662" x="-645.81" y="78.57"><tspan id="tspan664" x="-645.81" y="78.57"/>
    </text>
   </g>
   <text id="text666" fill="#4f4f4f" transform="scale(1.05082.95163)" font-size="84.77" x="89.53" y="181.15"><tspan id="tspan668" x="89.53" y="181.15"/>
   </text>
  </g>
  <g id="g670" fill="#4f4f4f">
   <text id="text672" font-family="Arial" x="151.59" y="497.89" font-size="30.8" transform="scale(4.21679.23715)" text-anchor="middle"/>
   <text id="text674" line-height="125%" font-family="&apos;Gentium Book Basic&apos;" x="357.34" y="157.65" font-size="45.38" transform="scale(1.05082.95163)" word-spacing="0" letter-spacing="0"><tspan id="tspan676" x="357.34" y="157.65"/>
   </text>
   <text id="text678" font-family="Arial" x="158.26" y="510.03" font-size="16.488" transform="scale(4.21679.23715)" text-anchor="middle"/>
   <text id="text680" line-height="125%" font-family="&apos;Gentium Book Basic&apos;" x="-646.83" y="251.88" font-size="132.57" word-spacing="0" letter-spacing="0"><tspan id="tspan682" x="-646.83" y="251.88"/>
   </text>
   <text id="text684" font-family="Arial" x="40.993" y="652.56" font-size="48.17" transform="scale(4.0128.2492)" text-anchor="middle"/>
  </g>
 </g>
 <text id="text686" line-height="125%" font-family="&apos;Gentium Book Basic&apos;" x="903.37" y="731.85" font-size="129.23" word-spacing="0" letter-spacing="0"><tspan id="tspan688" x="903.37" y="731.85"/>
 </text>
 <text id="text690" font-family="Arial" x="422.2" y="2587.64" font-size="46.954" transform="scale(4.0128.2492)" text-anchor="middle"/>
 <text id="text692" line-height="125%" font-family="&apos;Gentium Book Basic&apos;" x="1484.64" y="651.85" font-size="129.23" word-spacing="0" letter-spacing="0"><tspan id="tspan694" x="1484.64" y="651.85"/>
 </text>
 <text id="text696" font-family="Arial" x="567.05" y="2266.61" font-size="46.954" transform="scale(4.0128.2492)" text-anchor="middle"/>
 <text id="text698" line-height="125%" font-family="&apos;Gentium Book Basic&apos;" x="413.06" y="470.59" font-size="129.23" word-spacing="0" letter-spacing="0"><tspan id="tspan700" x="413.06" y="470.59"/>
 </text>
 <text id="text702" font-family="Arial" x="300.01" y="1539.26" font-size="46.954" transform="scale(4.0128.2492)" text-anchor="middle"/>
 <text id="text704" line-height="125%" font-family="&apos;Gentium Book Basic&apos;" x="1511.11" y="254.12" font-size="129.23" word-spacing="0" letter-spacing="0"><tspan id="tspan706" x="1511.11" y="254.12"/>
 </text>
 <text id="text708" font-family="Arial" x="573.65" y="670.59" font-size="46.954" transform="scale(4.0128.2492)" text-anchor="middle"/>
 <text id="text710" line-height="125%" font-family="&apos;Gentium Book Basic&apos;" x="2092.38" y="174.11" font-size="129.23" word-spacing="0" letter-spacing="0"><tspan id="tspan712" x="2092.38" y="174.11"/>
 </text>
 <text id="text714" font-family="Arial" x="718.5" y="349.55" font-size="46.954" transform="scale(4.0128.2492)" text-anchor="middle"/>
 <text id="text716" line-height="125%" font-family="&apos;Gentium Book Basic&apos;" x="1703.26" y="-298.29" font-size="129.23" word-spacing="0" letter-spacing="0"><tspan id="tspan718" x="1703.26" y="-298.29"/>
 </text>
 <text id="text720" font-family="Arial" x="621.53" y="-1546.1" font-size="46.954" transform="scale(4.0128.2492)" text-anchor="middle"/>
 <text id="text722" line-height="125%" font-family="&apos;Gentium Book Basic&apos;" x="2284.52" y="-378.29" font-size="129.23" word-spacing="0" letter-spacing="0"><tspan id="tspan724" x="2284.52" y="-378.29"/>
 </text>
 <text id="text726" font-family="Arial" x="766.38" y="-1867.13" font-size="46.954" transform="scale(4.0128.2492)" text-anchor="middle"/>
 <text id="text728" line-height="125%" font-family="&apos;Gentium Book Basic&apos;" x="451.72" y="1036.43" font-size="208.33" word-spacing="0" letter-spacing="0"><tspan id="tspan730" x="451.72" y="1036.43"/>
 </text>
 <g id="g732" fill-rule="evenodd">
  <path id="path734" d="m189.02 97.28c-18.13 0-32.758 14.63-32.758 32.76v141.83c0 9.03 3.63 17.17 9.518 23.05l24.766 24.766v57.19c0 10.48 4.219 19.94 11.06 26.779l67.68 67.68c113.31-8.313 202.66-102.85 202.66-218.29 0-7.239-0.362-14.393-1.049-21.451l-124.74-124.74c-5.924-5.924-14.11-9.58-23.18-9.58h-133.96" opacity="0.25"/>
  <path id="path736" fill="#ffffff" d="m189.02 97.28c-18.13 0-32.76 14.63-32.76 32.76v141.83c0 18.13 14.63 32.633 32.76 32.633h1.524v72.38c0 20.959 16.879 37.839 37.839 37.839h55.23c20.959 0 37.839-16.879 37.839-37.839v-72.38h1.524c18.13 0 32.76-14.503 32.76-32.633v-141.83c0-18.13-14.63-32.76-32.76-32.76h-133.96m66.916 27.554c45.34 0 82.15 36.816 82.15 82.15 0 45.34-36.816 82.03-82.15 82.03-45.34 0-82.03-36.689-82.03-82.03 0-45.34 36.689-82.15 82.03-82.15m43.17 29.712l-25.395 5.079c-13.974 2.773-26.544 5.186-27.935 5.46l-2.54 0.508-0.127 19.554v19.554h1.143c0.605 0 13.163-0.215 27.935-0.381 14.772-0.164 26.904-0.237 26.919-0.254 0.016 0 0.008-11.163 0-24.76v-24.76m-60.948 12.06c-0.129 0.032-7.911 1.55-17.396 3.428l-17.269 3.428v31.617h1.905c1.049-0.002 8.358-0.032 16.253-0.127 7.894-0.092 14.946-0.251 15.618-0.254h1.143v-38.1h-0.254m-34.664 42.28v31.617h0.127c0.151 0.037 34.462 6.824 34.664 6.857 0.028 0.008 0.097-8.574 0.127-19.05 0.029-10.472 0.008-19.04 0-19.05-0.02 0-33.23-0.385-34.28-0.381h-0.635m39.617 0.508v19.427c0 10.723-0.016 19.553 0 19.554 0.012 0 12.537 2.426 27.808 5.46 15.27 3.034 27.86 5.582 27.935 5.587 0.122 0.003 0.202-1.314 0.254-13.332 0.033-7.29 0-18.325 0-24.633v-11.555h-0.254c-0.153 0-12.205-0.09-26.792-0.254s-27.03-0.254-27.681-0.254h-1.27m-28.823 125.2h30.855v32.25h-30.855v-32.25m52.57 0h30.855v32.25h-30.855v-32.25"/>
 </g>
</svg>
