<?xml version="1.0" encoding="UTF-8" standalone="no"?>
<svg xmlns="http://www.w3.org/2000/svg" xmlns:sodipodi="http://sodipodi.sourceforge.net/DTD/sodipodi-0.dtd" xmlns:inkscape="http://www.inkscape.org/namespaces/inkscape" height="512" viewBox="0 0 512 512" width="512" version="1.1">
 <metadata id="metadata72"/>
 <path fill="#6a6a6a" fill-rule="evenodd" d="m471.95 253.05c0 120.9-98.01 218.9-218.9 218.9-120.9 0-218.9-98.01-218.9-218.9 0-120.9 98.01-218.9 218.9-218.9 120.9 0 218.9 98.01 218.9 218.9" id="path4"/>
 <path d="m171.91 114.91c-1.24 0.107-2.403 0.649-3.281 1.531-0.982 0.988-1.533 2.326-1.531 3.719v269.38c0.003 1.662 0.785 3.2 2.094 4.188 0.287 0.375 0.616 0.711 1 1 0.265 0.345 0.559 0.664 0.906 0.938 0.276 0.373 0.629 0.708 1 1 0.29 0.391 0.669 0.73 1.063 1.031 0.286 0.374 0.618 0.711 1 1 0.286 0.374 0.618 0.711 1 1 0.287 0.375 0.616 0.711 1 1 0.287 0.375 0.616 0.711 1 1 0.265 0.345 0.559 0.664 0.906 0.938 0.276 0.373 0.629 0.708 1 1 0.276 0.373 0.63 0.677 1 0.969 0.297 0.401 0.657 0.756 1.063 1.063 0.287 0.375 0.616 0.711 1 1 0.287 0.375 0.616 0.711 1 1 0.265 0.345 0.559 0.664 0.906 0.938 0.276 0.373 0.629 0.708 1 1 0.29 0.391 0.669 0.73 1.063 1.031 0.286 0.374 0.618 0.711 1 1 0.287 0.375 0.616 0.711 1 1 0.287 0.374 0.617 0.711 1 1 0.265 0.345 0.559 0.664 0.906 0.938 0.276 0.373 0.629 0.708 1 1 0.29 0.391 0.669 0.73 1.063 1.031 0.286 0.374 0.618 0.711 1 1 0.287 0.375 0.616 0.711 1 1 0.287 0.375 0.616 0.711 1 1 0.287 0.375 0.616 0.711 1 1 0.265 0.345 0.559 0.664 0.906 0.938 0.29 0.392 0.669 0.73 1.063 1.031 0.286 0.374 0.618 0.711 1 1 0.286 0.374 0.618 0.711 1 1 0.287 0.375 0.616 0.711 1 1 0.287 0.375 0.616 0.711 1 1 0.265 0.345 0.559 0.664 0.906 0.938 0.276 0.373 0.629 0.708 1 1 0.29 0.391 0.669 0.73 1.063 1.031 0.286 0.374 0.618 0.711 1 1 0.287 0.375 0.616 0.711 1 1 0.287 0.374 0.617 0.711 1 1 0.265 0.345 0.559 0.664 0.906 0.938 0.276 0.373 0.629 0.708 1 1 0.29 0.391 0.669 0.73 1.063 1.031 0.286 0.374 0.618 0.711 1 1 0.287 0.375 0.616 0.711 1 1 0.287 0.375 0.616 0.711 1 1 0.265 0.345 0.559 0.664 0.906 0.938 0.276 0.373 0.629 0.708 1 1 0.29 0.391 0.669 0.73 1.063 1.031 0.286 0.374 0.618 0.711 1 1 0.286 0.374 0.618 0.711 1 1 0.287 0.375 0.616 0.711 1 1 0.287 0.375 0.616 0.711 1 1 0.265 0.345 0.559 0.664 0.906 0.938 0.276 0.373 0.629 0.708 1 1 0.276 0.373 0.63 0.677 1 0.969 0.297 0.401 0.657 0.756 1.063 1.063 0.287 0.375 0.616 0.711 1 1 0.287 0.375 0.616 0.711 1 1 0.265 0.345 0.559 0.664 0.906 0.938 0.276 0.373 0.629 0.708 1 1 0.29 0.391 0.669 0.73 1.063 1.031 0.286 0.374 0.618 0.711 1 1 0.287 0.375 0.616 0.711 1 1 0.287 0.374 0.617 0.711 1 1 0.265 0.345 0.559 0.664 0.906 0.938 0.276 0.373 0.629 0.708 1 1 0.29 0.391 0.669 0.73 1.063 1.031 0.286 0.374 0.618 0.711 1 1 0.287 0.375 0.616 0.711 1 1 0.287 0.375 0.616 0.711 1 1 0.265 0.345 0.559 0.664 0.906 0.938 0.276 0.373 0.629 0.708 1 1 0.29 0.391 0.669 0.73 1.063 1.031 0.286 0.374 0.618 0.711 1 1 0.286 0.374 0.618 0.711 1 1 0.287 0.375 0.616 0.711 1 1 0.287 0.375 0.616 0.711 1 1 0.265 0.345 0.559 0.664 0.906 0.938 0.155 0.21 0.338 0.409 0.531 0.594 1.929 0.05 3.84 0.094 5.781 0.094 120.9 0 218.91-98.01 218.91-218.91 0-1.931-0.013-3.862-0.063-5.781-0.209-0.229-0.441-0.436-0.688-0.625-0.294-0.386-0.643-0.708-1.031-1-0.285-0.368-0.629-0.688-1-0.969-0.288-0.376-0.622-0.714-1-1-0.291-0.38-0.586-0.743-0.969-1.031-0.289-0.374-0.622-0.715-1-1-0.28-0.362-0.605-0.69-0.969-0.969-0.294-0.386-0.643-0.708-1.031-1-0.285-0.368-0.629-0.688-1-0.969-0.288-0.376-0.622-0.714-1-1-0.288-0.376-0.622-0.714-1-1-0.291-0.38-0.586-0.743-0.969-1.031-0.28-0.362-0.605-0.69-0.969-0.969-0.285-0.374-0.626-0.683-1-0.969-0.295-0.389-0.641-0.737-1.031-1.031-0.285-0.368-0.629-0.688-1-0.969-0.288-0.376-0.622-0.714-1-1-0.291-0.38-0.586-0.743-0.969-1.031-0.28-0.362-0.605-0.69-0.969-0.969-0.304-0.399-0.659-0.764-1.063-1.063-0.28-0.354-0.608-0.666-0.969-0.938-0.285-0.368-0.629-0.688-1-0.969-0.288-0.376-0.622-0.714-1-1-0.291-0.38-0.586-0.743-0.969-1.031-0.289-0.374-0.622-0.715-1-1-0.28-0.362-0.605-0.69-0.969-0.969-0.294-0.386-0.643-0.708-1.031-1-0.285-0.368-0.629-0.688-1-0.969-0.288-0.376-0.622-0.714-1-1-0.332-0.433-0.676-0.844-1.125-1.156-0.263-0.316-0.515-0.627-0.844-0.875-0.28-0.362-0.605-0.69-0.969-0.969-0.294-0.386-0.643-0.708-1.031-1-0.285-0.368-0.629-0.688-1-0.969-0.288-0.376-0.622-0.714-1-1-0.288-0.376-0.622-0.714-1-1-0.291-0.38-0.586-0.743-0.969-1.031-0.28-0.362-0.605-0.69-0.969-0.969-0.285-0.374-0.626-0.683-1-0.969-0.295-0.389-0.641-0.737-1.031-1.031-0.285-0.368-0.629-0.688-1-0.969-0.288-0.375-0.622-0.714-1-1-0.291-0.38-0.586-0.743-0.969-1.031-0.289-0.374-0.622-0.715-1-1-0.28-0.362-0.605-0.69-0.969-0.969-0.294-0.386-0.643-0.708-1.031-1-0.285-0.368-0.629-0.688-1-0.969-0.288-0.375-0.622-0.714-1-1-0.291-0.38-0.586-0.743-0.969-1.031-0.289-0.374-0.622-0.715-1-1-0.28-0.362-0.605-0.69-0.969-0.969-0.294-0.386-0.643-0.708-1.031-1-0.285-0.368-0.629-0.688-1-0.969-0.288-0.375-0.622-0.714-1-1-0.288-0.375-0.622-0.714-1-1-0.291-0.38-0.586-0.743-0.969-1.031-0.28-0.362-0.605-0.69-0.969-0.969-0.285-0.374-0.626-0.683-1-0.969-0.295-0.389-0.641-0.738-1.031-1.031-0.285-0.368-0.629-0.688-1-0.969-0.288-0.375-0.622-0.714-1-1-0.291-0.38-0.586-0.743-0.969-1.031-0.28-0.362-0.605-0.69-0.969-0.969-0.304-0.399-0.659-0.764-1.063-1.063-0.28-0.354-0.608-0.666-0.969-0.938-0.285-0.368-0.629-0.688-1-0.969-0.288-0.375-0.622-0.714-1-1-0.291-0.38-0.586-0.743-0.969-1.031-0.289-0.374-0.622-0.715-1-1-0.28-0.362-0.605-0.69-0.969-0.969-0.294-0.386-0.643-0.708-1.031-1-0.285-0.368-0.629-0.688-1-0.969-0.288-0.375-0.622-0.714-1-1-0.332-0.433-0.676-0.844-1.125-1.156-0.263-0.316-0.515-0.627-0.844-0.875-0.28-0.362-0.605-0.69-0.969-0.969-0.294-0.386-0.643-0.708-1.031-1-0.285-0.368-0.629-0.688-1-0.969-0.288-0.375-0.622-0.714-1-1-0.288-0.375-0.622-0.714-1-1-0.291-0.38-0.586-0.743-0.969-1.031-0.28-0.362-0.605-0.69-0.969-0.969-0.285-0.374-0.626-0.683-1-0.969-0.295-0.389-0.641-0.738-1.031-1.031-0.285-0.368-0.629-0.688-1-0.969-0.288-0.375-0.622-0.714-1-1-0.291-0.38-0.586-0.743-0.969-1.031-0.28-0.362-0.605-0.69-0.969-0.969-0.291-0.382-0.648-0.71-1.031-1-0.292-0.38-0.617-0.712-1-1-0.285-0.368-0.629-0.688-1-0.969-0.288-0.375-0.622-0.714-1-1-0.291-0.38-0.586-0.743-0.969-1.031-0.289-0.374-0.622-0.715-1-1-0.28-0.362-0.605-0.69-0.969-0.969-0.294-0.386-0.643-0.708-1.031-1-0.285-0.368-0.629-0.688-1-0.969-0.288-0.375-0.622-0.714-1-1-0.332-0.433-0.676-0.844-1.125-1.156-0.263-0.316-0.515-0.627-0.844-0.875-0.28-0.362-0.605-0.69-0.969-0.969-0.285-0.374-0.626-0.683-1-0.969-0.295-0.389-0.641-0.738-1.031-1.031-0.285-0.368-0.629-0.688-1-0.969-0.288-0.375-0.622-0.714-1-1-0.291-0.38-0.586-0.743-0.969-1.031-0.28-0.362-0.605-0.69-0.969-0.969-0.304-0.399-0.659-0.764-1.063-1.063-0.28-0.353-0.608-0.666-0.969-0.938-0.285-0.368-0.629-0.688-1-0.969-0.288-0.375-0.622-0.714-1-1-0.291-0.38-0.586-0.743-0.969-1.031-0.289-0.374-0.622-0.715-1-1-0.28-0.362-0.605-0.69-0.969-0.969-0.294-0.386-0.643-0.708-1.031-1-0.285-0.368-0.629-0.688-1-0.969-0.288-0.375-0.622-0.714-1-1-0.332-0.433-0.676-0.844-1.125-1.156-0.263-0.316-0.515-0.627-0.844-0.875-0.28-0.362-0.605-0.69-0.969-0.969-0.294-0.386-0.643-0.708-1.031-1-0.285-0.368-0.629-0.688-1-0.969-0.288-0.375-0.622-0.714-1-1-0.288-0.375-0.622-0.714-1-1-0.291-0.38-0.586-0.743-0.969-1.031-0.28-0.362-0.605-0.69-0.969-0.969-0.285-0.374-0.626-0.683-1-0.969-0.295-0.389-0.641-0.738-1.031-1.031-0.285-0.368-0.629-0.688-1-0.969-0.947-1.233-2.389-2.068-4.063-2.094-0.326-0.004-167.28-2.313-167.28-2.313-0.177-0.009-0.354-0.009-0.531 0" fill-opacity="0.235" id="path6"/>
 <g fill-rule="evenodd" id="g8">
  <path d="m256 1c-140.83 0-255 114.17-255 255s114.17 255 255 255 255-114.17 255-255-114.17-255-255-255m8.827 44.931c120.9 0 218.9 98 218.9 218.9s-98 218.9-218.9 218.9-218.93-98-218.93-218.9 98.03-218.9 218.93-218.9" fill-opacity="0.067" id="path10"/>
  <g fill-opacity="0.129" id="g12">
   <path d="m256 4.433c-138.94 0-251.57 112.63-251.57 251.57s112.63 251.57 251.57 251.57 251.57-112.63 251.57-251.57-112.63-251.57-251.57-251.57m5.885 38.556c120.9 0 218.9 98 218.9 218.9s-98 218.9-218.9 218.9-218.93-98-218.93-218.9 98.03-218.9 218.93-218.9" id="path14"/>
   <path d="m256 8.356c-136.77 0-247.64 110.87-247.64 247.64s110.87 247.64 247.64 247.64 247.64-110.87 247.64-247.64-110.87-247.64-247.64-247.64m2.942 31.691c120.9 0 218.9 98 218.9 218.9s-98 218.9-218.9 218.9-218.93-98-218.93-218.9 98.03-218.9 218.93-218.9" id="path16"/>
  </g>
  <path fill="#ffffff" stroke-width="4.904" stroke="#000000" stroke-opacity="0.31" d="m253.04 7.859c-135.42 0-245.19 109.78-245.19 245.19 0 135.42 109.78 245.19 245.19 245.19 135.42 0 245.19-109.78 245.19-245.19 0-135.42-109.78-245.19-245.19-245.19zm0 26.297c120.9 0 218.9 98 218.9 218.9s-98 218.9-218.9 218.9-218.93-98-218.93-218.9 98.03-218.9 218.93-218.9z" id="path18"/>
 </g>
 <text font-family="Gentium Book Basic" x="729.64" y="231.36" line-height="125%" font-size="129.23" id="text20" word-spacing="0" letter-spacing="0"><tspan x="729.64" y="231.36" id="tspan22"/>
 </text>
 <text font-family="Arial" x="378.91" y="579.25" transform="scale(4.0128 .2492)" font-size="46.954" id="text24" text-anchor="middle"/>
 <text font-family="Gentium Book Basic" x="1310.91" y="151.36" line-height="125%" font-size="129.23" id="text26" word-spacing="0" letter-spacing="0"><tspan x="1310.91" y="151.36" id="tspan28"/>
 </text>
 <text font-family="Arial" x="523.76" y="258.22" transform="scale(4.0128 .2492)" font-size="46.954" id="text30" text-anchor="middle"/>
 <text font-family="Gentium Book Basic" x="239.33" y="-29.901" line-height="125%" font-size="129.23" id="text32" word-spacing="0" letter-spacing="0"><tspan x="239.33" y="-29.901" id="tspan34"/>
 </text>
 <text font-family="Arial" x="256.72" y="-469.14" transform="scale(4.0128 .2492)" font-size="46.954" id="text36" text-anchor="middle"/>
 <text font-family="Gentium Book Basic" x="1337.38" y="-246.37" line-height="125%" font-size="129.23" id="text38" word-spacing="0" letter-spacing="0"><tspan x="1337.38" y="-246.37" id="tspan40"/>
 </text>
 <text font-family="Arial" x="530.36" y="-1337.81" transform="scale(4.0128 .2492)" font-size="46.954" id="text42" text-anchor="middle"/>
 <text font-family="Gentium Book Basic" x="1918.65" y="-326.38" line-height="125%" font-size="129.23" id="text44" word-spacing="0" letter-spacing="0"><tspan x="1918.65" y="-326.38" id="tspan46"/>
 </text>
 <text font-family="Arial" x="675.21" y="-1658.85" transform="scale(4.0128 .2492)" font-size="46.954" id="text48" text-anchor="middle"/>
 <text font-family="Gentium Book Basic" x="1529.53" y="-798.78" line-height="125%" font-size="129.23" id="text50" word-spacing="0" letter-spacing="0"><tspan x="1529.53" y="-798.78" id="tspan52"/>
 </text>
 <text font-family="Arial" x="578.24" y="-3554.51" transform="scale(4.0128 .2492)" font-size="46.954" id="text54" text-anchor="middle"/>
 <text font-family="Gentium Book Basic" x="2110.79" y="-878.78" line-height="125%" font-size="129.23" id="text56" word-spacing="0" letter-spacing="0"><tspan x="2110.79" y="-878.78" id="tspan58"/>
 </text>
 <text font-family="Arial" x="723.09" y="-3875.54" transform="scale(4.0128 .2492)" font-size="46.954" id="text60" text-anchor="middle"/>
 <text font-family="Gentium Book Basic" x="277.99" y="535.94" line-height="125%" font-size="208.33" id="text62" word-spacing="0" letter-spacing="0"><tspan x="277.99" y="535.94" id="tspan64"/>
 </text>
 <path fill="#ffffff" stroke-width="10.537" stroke="#ffffff" stroke-opacity="0.962" d="m172.36 120.17v269.36l83.64-45.771 81.33 48.08 2.305-269.36-167.28-2.305zm84.63 57.3 17.781 35.23 39.514 5.269-28.319 27.66 6.915 38.526-35.563-18.11-35.23 18.44 6.586-38.856-28.648-27 39.514-5.927 17.452-35.23z" stroke-linejoin="round" id="path66"/>
</svg>
