<?xml version="1.0" encoding="UTF-8" standalone="no"?>
<svg xmlns="http://www.w3.org/2000/svg" xmlns:sodipodi="http://sodipodi.sourceforge.net/DTD/sodipodi-0.dtd" xmlns:inkscape="http://www.inkscape.org/namespaces/inkscape" height="512" viewBox="0 0 512 512" width="512" version="1.1">
 <metadata id="metadata184"/>
 <g fill-rule="evenodd" id="g4">
  <path d="m471.95 253.05c0 120.9-98.01 218.9-218.9 218.9-120.9 0-218.9-98.01-218.9-218.9 0-120.9 98.01-218.9 218.9-218.9 120.9 0 218.9 98.01 218.9 218.9" fill="#8e8e8e" id="path6"/>
  <path d="m243.66 35.75 228.03 228.06c0.173-3.567 0.25-7.14 0.25-10.75 0-6.07-0.234-12.09-0.719-18.03l-199.31-199.28h-28.25m-26.906 1.406c-7.851 1.31-15.549 3.034-23.09 5.156l270.13 270.16c2.129-7.563 3.844-15.285 5.156-23.16l-252.19-252.16m88.03 3.156 161 161c-3.746-15.456-9.136-30.27-15.969-44.25l-100.81-100.78c-13.97-6.829-28.77-12.227-44.22-15.971m-132.28 9.156c-6.65 2.633-13.157 5.565-19.469 8.813l294.78 294.78c3.249-6.315 6.21-12.815 8.844-19.469l-284.15-284.12m-37.438 19.16c-5.696 3.652-11.212 7.57-16.531 11.719l291.63 291.63 15.594 15.594c4.149-5.319 8.07-10.835 11.719-16.531 0.005-0.007-0.005-0.024 0-0.031l-302.37-302.37h-0.031m-31.781 24.75c-4.871 4.57-9.501 9.38-13.938 14.375l264.25 264.22 44.781 44.781c4.983-4.427 9.752-9.08 14.313-13.938l-30.84-30.84-278.56-278.59m-26.594 30c-4.03 5.474-7.794 11.123-11.313 16.969l231.66 231.63 68.75 68.75c5.833-3.511 11.475-7.289 16.938-11.313l-57.44-57.44h-0.031l-248.56-248.59m-21.22 35.31c-3.101 6.481-5.881 13.12-8.344 19.938l193.34 193.34 86.969 87c6.815-2.462 13.456-5.243 19.938-8.344l-78.66-78.66h-0.031l-213.23-213.29m-14.903 41.66c-1.923 7.778-3.433 15.7-4.5 23.781l147.84 147.84 98.06 98.06c8.08-1.066 16.01-2.546 23.781-4.469l-93.59-93.59h-0.031l-171.56-171.62m-6.406 50.19c-0.01 0.843-0.031 1.686-0.031 2.531 0 9.294 0.594 18.448 1.719 27.438l91.47 91.47 98.25 98.28c8.999 1.127 18.16 1.719 27.469 1.719 0.845 0 1.688-0.022 2.531-0.031l-99.97-99.97h-0.031l-121.41-121.44m9.281 65.875c5.519 18.283 13.391 35.549 23.22 51.47l4.094 4.094 67.44 67.44c15.93 9.839 33.2 17.727 51.5 23.25l-90.66-90.69h-0.031l-55.56-55.56" fill="#ffffff" opacity="0.1" id="path8"/>
  <path d="m256 1c-140.83 0-255 114.17-255 255s114.17 255 255 255 255-114.17 255-255-114.17-255-255-255m8.827 44.931c120.9 0 218.9 98 218.9 218.9s-98 218.9-218.9 218.9-218.93-98-218.93-218.9 98.03-218.9 218.93-218.9" fill-opacity="0.067" id="path10"/>
  <g fill-opacity="0.129" id="g12">
   <path d="m256 4.433c-138.94 0-251.57 112.63-251.57 251.57s112.63 251.57 251.57 251.57 251.57-112.63 251.57-251.57-112.63-251.57-251.57-251.57m5.885 38.556c120.9 0 218.9 98 218.9 218.9s-98 218.9-218.9 218.9-218.93-98-218.93-218.9 98.03-218.9 218.93-218.9" id="path14"/>
   <path d="m256 8.356c-136.77 0-247.64 110.87-247.64 247.64s110.87 247.64 247.64 247.64 247.64-110.87 247.64-247.64-110.87-247.64-247.64-247.64m2.942 31.691c120.9 0 218.9 98 218.9 218.9s-98 218.9-218.9 218.9-218.93-98-218.93-218.9 98.03-218.9 218.93-218.9" id="path16"/>
  </g>
  <path fill="#ffffff" stroke-width="4.904" stroke="#000000" stroke-opacity="0.31" d="m253.04 7.859c-135.42 0-245.19 109.78-245.19 245.19 0 135.42 109.78 245.19 245.19 245.19 135.42 0 245.19-109.78 245.19-245.19 0-135.42-109.78-245.19-245.19-245.19zm0 26.297c120.9 0 218.9 98 218.9 218.9s-98 218.9-218.9 218.9-218.93-98-218.93-218.9 98.03-218.9 218.93-218.9z" id="path18"/>
 </g>
 <text font-family="Gentium Book Basic" x="729.64" y="231.36" line-height="125%" font-size="129.23" id="text20" word-spacing="0" letter-spacing="0"><tspan x="729.64" y="231.36" id="tspan22"/>
 </text>
 <text font-family="Arial" x="378.91" y="579.25" transform="scale(4.0128 .2492)" font-size="46.954" id="text24" text-anchor="middle"/>
 <text font-family="Gentium Book Basic" x="1310.91" y="151.36" line-height="125%" font-size="129.23" id="text26" word-spacing="0" letter-spacing="0"><tspan x="1310.91" y="151.36" id="tspan28"/>
 </text>
 <text font-family="Arial" x="523.76" y="258.22" transform="scale(4.0128 .2492)" font-size="46.954" id="text30" text-anchor="middle"/>
 <text font-family="Gentium Book Basic" x="239.33" y="-29.901" line-height="125%" font-size="129.23" id="text32" word-spacing="0" letter-spacing="0"><tspan x="239.33" y="-29.901" id="tspan34"/>
 </text>
 <text font-family="Arial" x="256.72" y="-469.14" transform="scale(4.0128 .2492)" font-size="46.954" id="text36" text-anchor="middle"/>
 <text font-family="Gentium Book Basic" x="1337.38" y="-246.37" line-height="125%" font-size="129.23" id="text38" word-spacing="0" letter-spacing="0"><tspan x="1337.38" y="-246.37" id="tspan40"/>
 </text>
 <text font-family="Arial" x="530.36" y="-1337.81" transform="scale(4.0128 .2492)" font-size="46.954" id="text42" text-anchor="middle"/>
 <text font-family="Gentium Book Basic" x="1918.65" y="-326.38" line-height="125%" font-size="129.23" id="text44" word-spacing="0" letter-spacing="0"><tspan x="1918.65" y="-326.38" id="tspan46"/>
 </text>
 <text font-family="Arial" x="675.21" y="-1658.85" transform="scale(4.0128 .2492)" font-size="46.954" id="text48" text-anchor="middle"/>
 <text font-family="Gentium Book Basic" x="1529.53" y="-798.78" line-height="125%" font-size="129.23" id="text50" word-spacing="0" letter-spacing="0"><tspan x="1529.53" y="-798.78" id="tspan52"/>
 </text>
 <text font-family="Arial" x="578.24" y="-3554.51" transform="scale(4.0128 .2492)" font-size="46.954" id="text54" text-anchor="middle"/>
 <text font-family="Gentium Book Basic" x="2110.79" y="-878.78" line-height="125%" font-size="129.23" id="text56" word-spacing="0" letter-spacing="0"><tspan x="2110.79" y="-878.78" id="tspan58"/>
 </text>
 <text font-family="Arial" x="723.09" y="-3875.54" transform="scale(4.0128 .2492)" font-size="46.954" id="text60" text-anchor="middle"/>
 <g line-height="125%" font-family="Gentium Book Basic" id="g62" word-spacing="0" letter-spacing="0">
  <text font-size="208.33" x="277.99" y="535.94" id="text64"><tspan x="277.99" y="535.94" id="tspan66"/>
  </text>
  <text font-size="129.23" x="679.2" y="-507.65" id="text68"><tspan x="679.2" y="-507.65" id="tspan70"/>
  </text>
 </g>
 <text font-family="Arial" x="366.34" y="-2386.28" transform="scale(4.0128 .2492)" font-size="46.954" id="text72" text-anchor="middle"/>
 <text font-family="Gentium Book Basic" x="1260.47" y="-587.66" line-height="125%" font-size="129.23" id="text74" word-spacing="0" letter-spacing="0"><tspan x="1260.47" y="-587.66" id="tspan76"/>
 </text>
 <text font-family="Arial" x="511.19" y="-2707.32" transform="scale(4.0128 .2492)" font-size="46.954" id="text78" text-anchor="middle"/>
 <text font-family="Gentium Book Basic" x="188.89" y="-768.91" line-height="125%" font-size="129.23" id="text80" word-spacing="0" letter-spacing="0"><tspan x="188.89" y="-768.91" id="tspan82"/>
 </text>
 <text font-family="Arial" x="244.15" y="-3434.67" transform="scale(4.0128 .2492)" font-size="46.954" id="text84" text-anchor="middle"/>
 <text font-family="Gentium Book Basic" x="1286.94" y="-985.39" line-height="125%" font-size="129.23" id="text86" word-spacing="0" letter-spacing="0"><tspan x="1286.94" y="-985.39" id="tspan88"/>
 </text>
 <text font-family="Arial" x="517.79" y="-4303.35" transform="scale(4.0128 .2492)" font-size="46.954" id="text90" text-anchor="middle"/>
 <text font-family="Gentium Book Basic" x="1868.2" y="-1065.39" line-height="125%" font-size="129.23" id="text92" word-spacing="0" letter-spacing="0"><tspan x="1868.2" y="-1065.39" id="tspan94"/>
 </text>
 <text font-family="Arial" x="662.64" y="-4624.38" transform="scale(4.0128 .2492)" font-size="46.954" id="text96" text-anchor="middle"/>
 <text font-family="Gentium Book Basic" x="1479.08" y="-1537.79" line-height="125%" font-size="129.23" id="text98" word-spacing="0" letter-spacing="0"><tspan x="1479.08" y="-1537.79" id="tspan100"/>
 </text>
 <text font-family="Arial" x="565.67" y="-6520.04" transform="scale(4.0128 .2492)" font-size="46.954" id="text102" text-anchor="middle"/>
 <text font-family="Gentium Book Basic" x="2060.35" y="-1617.79" line-height="125%" font-size="129.23" id="text104" word-spacing="0" letter-spacing="0"><tspan x="2060.35" y="-1617.79" id="tspan106"/>
 </text>
 <text font-family="Arial" x="710.52" y="-6841.08" transform="scale(4.0128 .2492)" font-size="46.954" id="text108" text-anchor="middle"/>
 <g line-height="125%" font-family="Gentium Book Basic" id="g110" word-spacing="0" letter-spacing="0">
  <text font-size="208.33" x="227.54" y="-203.08" id="text112"><tspan x="227.54" y="-203.08" id="tspan114"/>
  </text>
  <text font-size="129.23" x="3783.34" y="-1250.53" id="text116"><tspan x="3783.34" y="-1250.53" id="tspan118"/>
  </text>
 </g>
 <text font-family="Arial" x="1139.89" y="-5367.31" transform="scale(4.0128 .2492)" font-size="46.954" id="text120" text-anchor="middle"/>
 <text font-family="Gentium Book Basic" x="4364.6" y="-1330.53" line-height="125%" font-size="129.23" id="text122" word-spacing="0" letter-spacing="0"><tspan x="4364.6" y="-1330.53" id="tspan124"/>
 </text>
 <text font-family="Arial" x="1284.74" y="-5688.35" transform="scale(4.0128 .2492)" font-size="46.954" id="text126" text-anchor="middle"/>
 <text font-family="Gentium Book Basic" x="3293.02" y="-1511.79" line-height="125%" font-size="129.23" id="text128" word-spacing="0" letter-spacing="0"><tspan x="3293.02" y="-1511.79" id="tspan130"/>
 </text>
 <text font-family="Arial" x="1017.7" y="-6415.7" transform="scale(4.0128 .2492)" font-size="46.954" id="text132" text-anchor="middle"/>
 <text font-family="Gentium Book Basic" x="4391.07" y="-1728.26" line-height="125%" font-size="129.23" id="text134" word-spacing="0" letter-spacing="0"><tspan x="4391.07" y="-1728.26" id="tspan136"/>
 </text>
 <text font-family="Arial" x="1291.34" y="-7284.38" transform="scale(4.0128 .2492)" font-size="46.954" id="text138" text-anchor="middle"/>
 <text font-family="Gentium Book Basic" x="4972.34" y="-1808.26" line-height="125%" font-size="129.23" id="text140" word-spacing="0" letter-spacing="0"><tspan x="4972.34" y="-1808.26" id="tspan142"/>
 </text>
 <text font-family="Arial" x="1436.19" y="-7605.41" transform="scale(4.0128 .2492)" font-size="46.954" id="text144" text-anchor="middle"/>
 <text font-family="Gentium Book Basic" x="4583.22" y="-2280.66" line-height="125%" font-size="129.23" id="text146" word-spacing="0" letter-spacing="0"><tspan x="4583.22" y="-2280.66" id="tspan148"/>
 </text>
 <text font-family="Arial" x="1339.22" y="-9501.08" transform="scale(4.0128 .2492)" font-size="46.954" id="text150" text-anchor="middle"/>
 <text font-family="Gentium Book Basic" x="5164.49" y="-2360.66" line-height="125%" font-size="129.23" id="text152" word-spacing="0" letter-spacing="0"><tspan x="5164.49" y="-2360.66" id="tspan154"/>
 </text>
 <text font-family="Arial" x="1484.07" y="-9822.11" transform="scale(4.0128 .2492)" font-size="46.954" id="text156" text-anchor="middle"/>
 <g line-height="125%" font-size="208.33" font-family="Gentium Book Basic" id="g158" word-spacing="0" letter-spacing="0">
  <text x="3331.68" y="-945.95" id="text160"><tspan x="3331.68" y="-945.95" id="tspan162"/>
  </text>
  <text x="-1210.93" y="-191.87" id="text164"><tspan x="-1210.93" y="-191.87" id="tspan166"/>
  </text>
 </g>
 <text font-family="Arial" x="15.963" y="-1332.85" transform="scale(4.0128 .2492)" font-size="75.7" id="text168" text-anchor="middle"/>
 <text font-family="Gentium Book Basic" x="-1210.93" y="-191.87" line-height="125%" font-size="208.33" id="text170" word-spacing="0" letter-spacing="0"><tspan x="-1210.93" y="-191.87" id="tspan172"/>
 </text>
 <text font-family="Arial" x="15.963" y="-1332.85" transform="scale(4.0128 .2492)" font-size="75.7" id="text174" text-anchor="middle"/>
 <path d="m106.09 142.84v117.75l29.469 29.469c-16.747 4.925-29 20.383-29 38.719 0 11.143 4.508 21.23 11.813 28.531l113.63 113.63c6.927 0.661 13.963 1 21.06 1 26.02 0 50.971-4.541 74.13-12.875-0.289-1.012-0.603-2.02-0.969-3l2.469 2.469c83.62-30.79 143.25-111.16 143.25-205.47 0-17.17-1.981-33.876-5.719-49.906l-60.31-60.31h-299.81" opacity="0.25" id="path176"/>
 <path d="m106.09 142.84v117.75h299.81v-117.75h-299.81m40.875 145.56c-22.301 0-40.41 18.07-40.41 40.38 0 22.301 18.11 40.38 40.41 40.38 22.301 0 40.38-18.07 40.38-40.37 0-22.301-18.07-40.37-40.37-40.37m109.03 0c-22.301 0-40.37 18.04-40.37 40.34 0 22.301 18.07 40.38 40.38 40.38 22.301 0 40.38-18.07 40.38-40.37 0-22.301-18.07-40.34-40.37-40.34m109 0c-22.301 0-40.37 18.04-40.37 40.34 0 22.301 18.07 40.38 40.38 40.38 22.301 0 40.38-18.07 40.38-40.37 0-22.301-18.07-40.34-40.37-40.34" fill="#ffffff" id="path178"/>
</svg>
