<?xml version="1.0" encoding="UTF-8" standalone="no"?>
<svg
   xmlns:dc="http://purl.org/dc/elements/1.1/"
   xmlns:cc="http://creativecommons.org/ns#"
   xmlns:rdf="http://www.w3.org/1999/02/22-rdf-syntax-ns#"
   xmlns:svg="http://www.w3.org/2000/svg"
   xmlns="http://www.w3.org/2000/svg"
   xmlns:sodipodi="http://sodipodi.sourceforge.net/DTD/sodipodi-0.dtd"
   xmlns:inkscape="http://www.inkscape.org/namespaces/inkscape"
   height="512"
   viewBox="0 0 512 512"
   width="512"
   version="1.1"
   id="svg2"
   inkscape:version="0.91 r"
   sodipodi:docname="xmind.svg">
  <sodipodi:namedview
     pagecolor="#ffffff"
     bordercolor="#666666"
     borderopacity="1"
     objecttolerance="10"
     gridtolerance="10"
     guidetolerance="10"
     inkscape:pageopacity="0"
     inkscape:pageshadow="2"
     inkscape:window-width="640"
     inkscape:window-height="480"
     id="namedview12"
     showgrid="false"
     inkscape:zoom="0.4609375"
     inkscape:cx="256"
     inkscape:cy="256"
     inkscape:window-x="0"
     inkscape:window-y="0"
     inkscape:window-maximized="0"
     inkscape:current-layer="svg2" />
  <defs
     id="defs14" />
  <metadata
     id="metadata70">
    <rdf:RDF>
      <cc:Work
         rdf:about="">
        <dc:format>image/svg+xml</dc:format>
        <dc:type
           rdf:resource="http://purl.org/dc/dcmitype/StillImage" />
      </cc:Work>
    </rdf:RDF>
  </metadata>
  <path
     d="m471.95 253.05c0 120.9-98.006 218.91-218.91 218.91s-218.91-98.006-218.91-218.91 98.006-218.91 218.91-218.91 218.91 98.006 218.91 218.91"
     fill="#626262"
     fill-rule="evenodd"
     id="path8" />
  <path
     fill-opacity="0.067"
     fill-rule="evenodd"
     d="m256 1c-140.83 0-255 114.17-255 255s114.17 255 255 255 255-114.17 255-255-114.17-255-255-255m8.827 44.931c120.9 0 218.9 98 218.9 218.9s-98 218.9-218.9 218.9-218.93-98-218.93-218.9 98.03-218.9 218.93-218.9"
     id="path10" />
  <path
     fill-opacity="0.129"
     fill-rule="evenodd"
     d="m256 4.43c-138.94 0-251.57 112.63-251.57 251.57s112.63 251.57 251.57 251.57 251.57-112.63 251.57-251.57-112.63-251.57-251.57-251.57m5.885 38.556c120.9 0 218.9 98 218.9 218.9s-98 218.9-218.9 218.9-218.93-98-218.93-218.9 98.03-218.9 218.93-218.9"
     id="path14" />
  <path
     fill-opacity="0.129"
     fill-rule="evenodd"
     d="m256 8.36c-136.77 0-247.64 110.87-247.64 247.64s110.87 247.64 247.64 247.64 247.64-110.87 247.64-247.64-110.87-247.64-247.64-247.64m2.942 31.691c120.9 0 218.9 98 218.9 218.9s-98 218.9-218.9 218.9-218.93-98-218.93-218.9 98.03-218.9 218.93-218.9"
     id="path16" />
  <path
     fill="#ffffff"
     stroke-width="4.904"
     stroke="#000000"
     fill-rule="evenodd"
     stroke-opacity="0.31"
     d="m253.04 7.86c-135.42 0-245.19 109.78-245.19 245.19 0 135.42 109.78 245.19 245.19 245.19 135.42 0 245.19-109.78 245.19-245.19 0-135.42-109.78-245.19-245.19-245.19zm0 26.297c120.9 0 218.9 98 218.9 218.9s-98 218.9-218.9 218.9-218.93-98-218.93-218.9 98.03-218.9 218.93-218.9z"
     id="path18" />
  <path
     d="m368.91 163.16l-78.79 12.96c0.68 29.17-17.57 53.04-42.78 48.13l-57.37-57.37-92.689 12.96c3.939 13.64 10.659 24.03 19.059 32.44l62.13 62.13c-29.19 10.41-75.69 15.02-74.06 74.43l121.43 121.44c8.91 1.1 17.99 1.68 27.2 1.68 116.62 0 211.91-91.19 218.52-206.15l-102.65-102.65z"
     opacity="0.25"
     id="path7806" />
  <path
     fill="#ffffff"
     d="m368.91 163.17-78.802 12.97c1.1364 49.008-51.114 83.067-100.13-9.2656l-92.712 12.981c14.427 49.925 66.242 56.074 100.79 82.329-17.278 24.629-95.763 9.7918-93.662 86.652l78.802-12.981c-1.1365-49.008 89.802-90.276 138.82 2.0566l92.712-12.981c-14.461-50.043-69.514-54.81-104.07-81.224 17.124-35.774 73.777-3.6031 58.247-80.538z"
     id="path4206" />
</svg>
