<?xml version="1.0" encoding="UTF-8" standalone="no"?>
<svg xmlns="http://www.w3.org/2000/svg" xmlns:sodipodi="http://sodipodi.sourceforge.net/DTD/sodipodi-0.dtd" xmlns:inkscape="http://www.inkscape.org/namespaces/inkscape" viewBox="0 0 512 512" version="1.1" width="512" height="512">
 <metadata id="metadata358"/>
 <text id="text4" line-height="125%" font-family="&apos;Gentium Book Basic&apos;" x="729.64" y="231.36" font-size="129.23" word-spacing="0" letter-spacing="0"><tspan id="tspan6" x="729.64" y="231.36"/>
 </text>
 <text id="text8" font-family="Arial" x="378.91" y="579.26" font-size="46.954" transform="scale(4.0128.2492)" text-anchor="middle"/>
 <text id="text10" line-height="125%" font-family="&apos;Gentium Book Basic&apos;" x="1310.91" y="151.36" font-size="129.23" word-spacing="0" letter-spacing="0"><tspan id="tspan12" x="1310.91" y="151.36"/>
 </text>
 <text id="text14" font-family="Arial" x="523.76" y="258.22" font-size="46.954" transform="scale(4.0128.2492)" text-anchor="middle"/>
 <text id="text16" line-height="125%" font-family="&apos;Gentium Book Basic&apos;" x="239.33" y="-29.9" font-size="129.23" word-spacing="0" letter-spacing="0"><tspan id="tspan18" x="239.33" y="-29.9"/>
 </text>
 <text id="text20" font-family="Arial" x="256.72" y="-469.13" font-size="46.954" transform="scale(4.0128.2492)" text-anchor="middle"/>
 <text id="text22" line-height="125%" font-family="&apos;Gentium Book Basic&apos;" x="1337.38" y="-246.37" font-size="129.23" word-spacing="0" letter-spacing="0"><tspan id="tspan24" x="1337.38" y="-246.37"/>
 </text>
 <text id="text26" font-family="Arial" x="530.36" y="-1337.8" font-size="46.954" transform="scale(4.0128.2492)" text-anchor="middle"/>
 <text id="text28" line-height="125%" font-family="&apos;Gentium Book Basic&apos;" x="1918.65" y="-326.37" font-size="129.23" word-spacing="0" letter-spacing="0"><tspan id="tspan30" x="1918.65" y="-326.37"/>
 </text>
 <text id="text32" font-family="Arial" x="675.21" y="-1658.83" font-size="46.954" transform="scale(4.0128.2492)" text-anchor="middle"/>
 <text id="text34" line-height="125%" font-family="&apos;Gentium Book Basic&apos;" x="1529.53" y="-798.77" font-size="129.23" word-spacing="0" letter-spacing="0"><tspan id="tspan36" x="1529.53" y="-798.77"/>
 </text>
 <text id="text38" font-family="Arial" x="578.24" y="-3554.48" font-size="46.954" transform="scale(4.0128.2492)" text-anchor="middle"/>
 <text id="text40" line-height="125%" font-family="&apos;Gentium Book Basic&apos;" x="2110.79" y="-878.78" font-size="129.23" word-spacing="0" letter-spacing="0"><tspan id="tspan42" x="2110.79" y="-878.78"/>
 </text>
 <text id="text44" font-family="Arial" x="723.09" y="-3875.52" font-size="46.954" transform="scale(4.0128.2492)" text-anchor="middle"/>
 <g id="g46" line-height="125%" font-family="&apos;Gentium Book Basic&apos;" word-spacing="0" letter-spacing="0">
  <text id="text48" font-size="208.33" x="277.99" y="535.94"><tspan id="tspan50" x="277.99" y="535.94"/>
  </text>
  <text id="text52" font-size="129.23" x="729.64" y="231.36"><tspan id="tspan54" x="729.64" y="231.36"/>
  </text>
 </g>
 <text id="text56" font-family="Arial" x="378.91" y="579.26" font-size="46.954" transform="scale(4.0128.2492)" text-anchor="middle"/>
 <text id="text58" line-height="125%" font-family="&apos;Gentium Book Basic&apos;" x="1310.91" y="151.36" font-size="129.23" word-spacing="0" letter-spacing="0"><tspan id="tspan60" x="1310.91" y="151.36"/>
 </text>
 <text id="text62" font-family="Arial" x="523.76" y="258.22" font-size="46.954" transform="scale(4.0128.2492)" text-anchor="middle"/>
 <text id="text64" line-height="125%" font-family="&apos;Gentium Book Basic&apos;" x="239.33" y="-29.9" font-size="129.23" word-spacing="0" letter-spacing="0"><tspan id="tspan66" x="239.33" y="-29.9"/>
 </text>
 <text id="text68" font-family="Arial" x="256.72" y="-469.13" font-size="46.954" transform="scale(4.0128.2492)" text-anchor="middle"/>
 <text id="text70" line-height="125%" font-family="&apos;Gentium Book Basic&apos;" x="1337.38" y="-246.37" font-size="129.23" word-spacing="0" letter-spacing="0"><tspan id="tspan72" x="1337.38" y="-246.37"/>
 </text>
 <text id="text74" font-family="Arial" x="530.36" y="-1337.8" font-size="46.954" transform="scale(4.0128.2492)" text-anchor="middle"/>
 <text id="text76" line-height="125%" font-family="&apos;Gentium Book Basic&apos;" x="1918.65" y="-326.37" font-size="129.23" word-spacing="0" letter-spacing="0"><tspan id="tspan78" x="1918.65" y="-326.37"/>
 </text>
 <text id="text80" font-family="Arial" x="675.21" y="-1658.83" font-size="46.954" transform="scale(4.0128.2492)" text-anchor="middle"/>
 <text id="text82" line-height="125%" font-family="&apos;Gentium Book Basic&apos;" x="1529.53" y="-798.77" font-size="129.23" word-spacing="0" letter-spacing="0"><tspan id="tspan84" x="1529.53" y="-798.77"/>
 </text>
 <text id="text86" font-family="Arial" x="578.24" y="-3554.48" font-size="46.954" transform="scale(4.0128.2492)" text-anchor="middle"/>
 <text id="text88" line-height="125%" font-family="&apos;Gentium Book Basic&apos;" x="2110.79" y="-878.78" font-size="129.23" word-spacing="0" letter-spacing="0"><tspan id="tspan90" x="2110.79" y="-878.78"/>
 </text>
 <text id="text92" font-family="Arial" x="723.09" y="-3875.52" font-size="46.954" transform="scale(4.0128.2492)" text-anchor="middle"/>
 <g id="g94" line-height="125%" font-family="&apos;Gentium Book Basic&apos;" word-spacing="0" letter-spacing="0">
  <text id="text96" font-size="208.33" x="277.99" y="535.94"><tspan id="tspan98" x="277.99" y="535.94"/>
  </text>
  <text id="text100" font-size="129.23" x="729.64" y="231.36"><tspan id="tspan102" x="729.64" y="231.36"/>
  </text>
 </g>
 <text id="text104" font-family="Arial" x="378.91" y="579.26" font-size="46.954" transform="scale(4.0128.2492)" text-anchor="middle"/>
 <text id="text106" line-height="125%" font-family="&apos;Gentium Book Basic&apos;" x="1310.91" y="151.36" font-size="129.23" word-spacing="0" letter-spacing="0"><tspan id="tspan108" x="1310.91" y="151.36"/>
 </text>
 <text id="text110" font-family="Arial" x="523.76" y="258.22" font-size="46.954" transform="scale(4.0128.2492)" text-anchor="middle"/>
 <text id="text112" line-height="125%" font-family="&apos;Gentium Book Basic&apos;" x="239.33" y="-29.9" font-size="129.23" word-spacing="0" letter-spacing="0"><tspan id="tspan114" x="239.33" y="-29.9"/>
 </text>
 <text id="text116" font-family="Arial" x="256.72" y="-469.13" font-size="46.954" transform="scale(4.0128.2492)" text-anchor="middle"/>
 <text id="text118" line-height="125%" font-family="&apos;Gentium Book Basic&apos;" x="1337.38" y="-246.37" font-size="129.23" word-spacing="0" letter-spacing="0"><tspan id="tspan120" x="1337.38" y="-246.37"/>
 </text>
 <text id="text122" font-family="Arial" x="530.36" y="-1337.79" font-size="46.954" transform="scale(4.0128.2492)" text-anchor="middle"/>
 <text id="text124" line-height="125%" font-family="&apos;Gentium Book Basic&apos;" x="1918.65" y="-326.37" font-size="129.23" word-spacing="0" letter-spacing="0"><tspan id="tspan126" x="1918.65" y="-326.37"/>
 </text>
 <text id="text128" font-family="Arial" x="675.21" y="-1658.82" font-size="46.954" transform="scale(4.0128.2492)" text-anchor="middle"/>
 <text id="text130" line-height="125%" font-family="&apos;Gentium Book Basic&apos;" x="1529.53" y="-798.77" font-size="129.23" word-spacing="0" letter-spacing="0"><tspan id="tspan132" x="1529.53" y="-798.77"/>
 </text>
 <text id="text134" font-family="Arial" x="578.24" y="-3554.46" font-size="46.954" transform="scale(4.0128.2492)" text-anchor="middle"/>
 <text id="text136" line-height="125%" font-family="&apos;Gentium Book Basic&apos;" x="2110.79" y="-878.78" font-size="129.23" word-spacing="0" letter-spacing="0"><tspan id="tspan138" x="2110.79" y="-878.78"/>
 </text>
 <text id="text140" font-family="Arial" x="723.09" y="-3875.5" font-size="46.954" transform="scale(4.0128.2492)" text-anchor="middle"/>
 <g id="g142" line-height="125%" font-family="&apos;Gentium Book Basic&apos;" word-spacing="0" letter-spacing="0">
  <text id="text144" font-size="208.33" x="277.99" y="535.94"><tspan id="tspan146" x="277.99" y="535.94"/>
  </text>
  <text id="text148" font-size="129.23" x="729.64" y="231.36"><tspan id="tspan150" x="729.64" y="231.36"/>
  </text>
 </g>
 <text id="text152" font-family="Arial" x="378.91" y="579.26" font-size="46.954" transform="scale(4.0128.2492)" text-anchor="middle"/>
 <text id="text154" line-height="125%" font-family="&apos;Gentium Book Basic&apos;" x="1310.91" y="151.36" font-size="129.23" word-spacing="0" letter-spacing="0"><tspan id="tspan156" x="1310.91" y="151.36"/>
 </text>
 <text id="text158" font-family="Arial" x="523.76" y="258.22" font-size="46.954" transform="scale(4.0128.2492)" text-anchor="middle"/>
 <text id="text160" line-height="125%" font-family="&apos;Gentium Book Basic&apos;" x="239.33" y="-29.9" font-size="129.23" word-spacing="0" letter-spacing="0"><tspan id="tspan162" x="239.33" y="-29.9"/>
 </text>
 <text id="text164" font-family="Arial" x="256.72" y="-469.13" font-size="46.954" transform="scale(4.0128.2492)" text-anchor="middle"/>
 <text id="text166" line-height="125%" font-family="&apos;Gentium Book Basic&apos;" x="1337.38" y="-246.37" font-size="129.23" word-spacing="0" letter-spacing="0"><tspan id="tspan168" x="1337.38" y="-246.37"/>
 </text>
 <text id="text170" font-family="Arial" x="530.36" y="-1337.8" font-size="46.954" transform="scale(4.0128.2492)" text-anchor="middle"/>
 <text id="text172" line-height="125%" font-family="&apos;Gentium Book Basic&apos;" x="1918.65" y="-326.37" font-size="129.23" word-spacing="0" letter-spacing="0"><tspan id="tspan174" x="1918.65" y="-326.37"/>
 </text>
 <text id="text176" font-family="Arial" x="675.21" y="-1658.83" font-size="46.954" transform="scale(4.0128.2492)" text-anchor="middle"/>
 <text id="text178" line-height="125%" font-family="&apos;Gentium Book Basic&apos;" x="1529.53" y="-798.77" font-size="129.23" word-spacing="0" letter-spacing="0"><tspan id="tspan180" x="1529.53" y="-798.77"/>
 </text>
 <text id="text182" font-family="Arial" x="578.24" y="-3554.48" font-size="46.954" transform="scale(4.0128.2492)" text-anchor="middle"/>
 <text id="text184" line-height="125%" font-family="&apos;Gentium Book Basic&apos;" x="2110.79" y="-878.78" font-size="129.23" word-spacing="0" letter-spacing="0"><tspan id="tspan186" x="2110.79" y="-878.78"/>
 </text>
 <text id="text188" font-family="Arial" x="723.09" y="-3875.52" font-size="46.954" transform="scale(4.0128.2492)" text-anchor="middle"/>
 <g id="g190" line-height="125%" font-family="&apos;Gentium Book Basic&apos;" word-spacing="0" letter-spacing="0">
  <text id="text192" font-size="208.33" x="277.99" y="535.94"><tspan id="tspan194" x="277.99" y="535.94"/>
  </text>
  <text id="text196" font-size="129.23" x="1781.5" y="272.72"><tspan id="tspan198" x="1781.5" y="272.72"/>
  </text>
 </g>
 <text id="text200" font-family="Arial" x="641.03" y="745.22" font-size="46.954" transform="scale(4.0128.2492)" text-anchor="middle"/>
 <text id="text202" line-height="125%" font-family="&apos;Gentium Book Basic&apos;" x="2362.77" y="192.72" font-size="129.23" word-spacing="0" letter-spacing="0"><tspan id="tspan204" x="2362.77" y="192.72"/>
 </text>
 <text id="text206" font-family="Arial" x="785.88" y="424.18" font-size="46.954" transform="scale(4.0128.2492)" text-anchor="middle"/>
 <text id="text208" line-height="125%" font-family="&apos;Gentium Book Basic&apos;" x="1291.19" y="11.457" font-size="129.23" word-spacing="0" letter-spacing="0"><tspan id="tspan210" x="1291.19" y="11.457"/>
 </text>
 <text id="text212" font-family="Arial" x="518.84" y="-303.17" font-size="46.954" transform="scale(4.0128.2492)" text-anchor="middle"/>
 <text id="text214" line-height="125%" font-family="&apos;Gentium Book Basic&apos;" x="2389.24" y="-205.01" font-size="129.23" word-spacing="0" letter-spacing="0"><tspan id="tspan216" x="2389.24" y="-205.01"/>
 </text>
 <text id="text218" font-family="Arial" x="792.48" y="-1171.84" font-size="46.954" transform="scale(4.0128.2492)" text-anchor="middle"/>
 <text id="text220" line-height="125%" font-family="&apos;Gentium Book Basic&apos;" x="2970.51" y="-285.01" font-size="129.23" word-spacing="0" letter-spacing="0"><tspan id="tspan222" x="2970.51" y="-285.01"/>
 </text>
 <text id="text224" font-family="Arial" x="937.33" y="-1492.87" font-size="46.954" transform="scale(4.0128.2492)" text-anchor="middle"/>
 <text id="text226" line-height="125%" font-family="&apos;Gentium Book Basic&apos;" x="2581.39" y="-757.41" font-size="129.23" word-spacing="0" letter-spacing="0"><tspan id="tspan228" x="2581.39" y="-757.41"/>
 </text>
 <text id="text230" font-family="Arial" x="840.36" y="-3388.52" font-size="46.954" transform="scale(4.0128.2492)" text-anchor="middle"/>
 <text id="text232" line-height="125%" font-family="&apos;Gentium Book Basic&apos;" x="3162.65" y="-837.42" font-size="129.23" word-spacing="0" letter-spacing="0"><tspan id="tspan234" x="3162.65" y="-837.42"/>
 </text>
 <text id="text236" font-family="Arial" x="985.21" y="-3709.56" font-size="46.954" transform="scale(4.0128.2492)" text-anchor="middle"/>
 <g id="g238" line-height="125%" font-family="&apos;Gentium Book Basic&apos;" word-spacing="0" letter-spacing="0">
  <text id="text240" font-size="208.33" x="1329.85" y="577.3"><tspan id="tspan242" x="1329.85" y="577.3"/>
  </text>
  <text id="text244" font-size="129.23" x="729.64" y="231.36"><tspan id="tspan246" x="729.64" y="231.36"/>
  </text>
 </g>
 <text id="text248" font-family="Arial" x="378.91" y="579.26" font-size="46.954" transform="scale(4.0128.2492)" text-anchor="middle"/>
 <text id="text250" line-height="125%" font-family="&apos;Gentium Book Basic&apos;" x="1310.91" y="151.36" font-size="129.23" word-spacing="0" letter-spacing="0"><tspan id="tspan252" x="1310.91" y="151.36"/>
 </text>
 <text id="text254" font-family="Arial" x="523.76" y="258.22" font-size="46.954" transform="scale(4.0128.2492)" text-anchor="middle"/>
 <text id="text256" line-height="125%" font-family="&apos;Gentium Book Basic&apos;" x="239.33" y="-29.9" font-size="129.23" word-spacing="0" letter-spacing="0"><tspan id="tspan258" x="239.33" y="-29.9"/>
 </text>
 <text id="text260" font-family="Arial" x="256.72" y="-469.13" font-size="46.954" transform="scale(4.0128.2492)" text-anchor="middle"/>
 <text id="text262" line-height="125%" font-family="&apos;Gentium Book Basic&apos;" x="1337.38" y="-246.37" font-size="129.23" word-spacing="0" letter-spacing="0"><tspan id="tspan264" x="1337.38" y="-246.37"/>
 </text>
 <text id="text266" font-family="Arial" x="530.36" y="-1337.79" font-size="46.954" transform="scale(4.0128.2492)" text-anchor="middle"/>
 <text id="text268" line-height="125%" font-family="&apos;Gentium Book Basic&apos;" x="1918.65" y="-326.37" font-size="129.23" word-spacing="0" letter-spacing="0"><tspan id="tspan270" x="1918.65" y="-326.37"/>
 </text>
 <text id="text272" font-family="Arial" x="675.21" y="-1658.82" font-size="46.954" transform="scale(4.0128.2492)" text-anchor="middle"/>
 <text id="text274" line-height="125%" font-family="&apos;Gentium Book Basic&apos;" x="1529.53" y="-798.77" font-size="129.23" word-spacing="0" letter-spacing="0"><tspan id="tspan276" x="1529.53" y="-798.77"/>
 </text>
 <text id="text278" font-family="Arial" x="578.24" y="-3554.46" font-size="46.954" transform="scale(4.0128.2492)" text-anchor="middle"/>
 <text id="text280" line-height="125%" font-family="&apos;Gentium Book Basic&apos;" x="2110.79" y="-878.78" font-size="129.23" word-spacing="0" letter-spacing="0"><tspan id="tspan282" x="2110.79" y="-878.78"/>
 </text>
 <text id="text284" font-family="Arial" x="723.09" y="-3875.5" font-size="46.954" transform="scale(4.0128.2492)" text-anchor="middle"/>
 <text id="text286" line-height="125%" font-family="&apos;Gentium Book Basic&apos;" x="277.99" y="535.94" font-size="208.33" word-spacing="0" letter-spacing="0"><tspan id="tspan288" x="277.99" y="535.94"/>
 </text>
 <g id="g290" fill-rule="evenodd">
  <path id="path292" fill="#999999" d="m471.95 253.05c0 120.9-98.01 218.91-218.91 218.91s-218.91-98.01-218.91-218.91 98.01-218.91 218.91-218.91 218.91 98.01 218.91 218.91"/>
  <path id="path294" fill-opacity="0.067" d="m256 1c-140.83 0-255 114.17-255 255s114.17 255 255 255 255-114.17 255-255-114.17-255-255-255m8.827 44.931c120.9 0 218.9 98 218.9 218.9s-98 218.9-218.9 218.9-218.93-98-218.93-218.9 98.03-218.9 218.93-218.9"/>
  <g id="g296" fill-opacity="0.129">
   <path id="path298" d="m256 4.43c-138.94 0-251.57 112.63-251.57 251.57s112.63 251.57 251.57 251.57 251.57-112.63 251.57-251.57-112.63-251.57-251.57-251.57m5.885 38.556c120.9 0 218.9 98 218.9 218.9s-98 218.9-218.9 218.9-218.93-98-218.93-218.9 98.03-218.9 218.93-218.9"/>
   <path id="path300" d="m256 8.36c-136.77 0-247.64 110.87-247.64 247.64s110.87 247.64 247.64 247.64 247.64-110.87 247.64-247.64-110.87-247.64-247.64-247.64m2.942 31.691c120.9 0 218.9 98 218.9 218.9s-98 218.9-218.9 218.9-218.93-98-218.93-218.9 98.03-218.9 218.93-218.9"/>
  </g>
  <path id="path302" fill="#ffffff" stroke-opacity="0.31" d="m253.04 7.86c-135.42 0-245.19 109.78-245.19 245.19 0 135.42 109.78 245.19 245.19 245.19 135.42 0 245.19-109.78 245.19-245.19 0-135.42-109.78-245.19-245.19-245.19m0 26.297c120.9 0 218.9 98 218.9 218.9s-98 218.9-218.9 218.9-218.93-98-218.93-218.9 98.03-218.9 218.93-218.9z" stroke-width="4.904" stroke="#000000"/>
 </g>
 <text id="text304" line-height="125%" font-family="&apos;Gentium Book Basic&apos;" x="729.64" y="231.36" font-size="129.23" word-spacing="0" letter-spacing="0"><tspan id="tspan306" x="729.64" y="231.36"/>
 </text>
 <text id="text308" font-family="Arial" x="378.91" y="579.26" font-size="46.954" transform="scale(4.0128.2492)" text-anchor="middle"/>
 <text id="text310" line-height="125%" font-family="&apos;Gentium Book Basic&apos;" x="1310.91" y="151.36" font-size="129.23" word-spacing="0" letter-spacing="0"><tspan id="tspan312" x="1310.91" y="151.36"/>
 </text>
 <text id="text314" font-family="Arial" x="523.76" y="258.22" font-size="46.954" transform="scale(4.0128.2492)" text-anchor="middle"/>
 <text id="text316" line-height="125%" font-family="&apos;Gentium Book Basic&apos;" x="239.33" y="-29.9" font-size="129.23" word-spacing="0" letter-spacing="0"><tspan id="tspan318" x="239.33" y="-29.9"/>
 </text>
 <text id="text320" font-family="Arial" x="256.72" y="-469.13" font-size="46.954" transform="scale(4.0128.2492)" text-anchor="middle"/>
 <text id="text322" line-height="125%" font-family="&apos;Gentium Book Basic&apos;" x="1337.38" y="-246.37" font-size="129.23" word-spacing="0" letter-spacing="0"><tspan id="tspan324" x="1337.38" y="-246.37"/>
 </text>
 <text id="text326" font-family="Arial" x="530.36" y="-1337.8" font-size="46.954" transform="scale(4.0128.2492)" text-anchor="middle"/>
 <text id="text328" line-height="125%" font-family="&apos;Gentium Book Basic&apos;" x="1918.65" y="-326.37" font-size="129.23" word-spacing="0" letter-spacing="0"><tspan id="tspan330" x="1918.65" y="-326.37"/>
 </text>
 <text id="text332" font-family="Arial" x="675.21" y="-1658.83" font-size="46.954" transform="scale(4.0128.2492)" text-anchor="middle"/>
 <text id="text334" line-height="125%" font-family="&apos;Gentium Book Basic&apos;" x="1529.53" y="-798.77" font-size="129.23" word-spacing="0" letter-spacing="0"><tspan id="tspan336" x="1529.53" y="-798.77"/>
 </text>
 <text id="text338" font-family="Arial" x="578.24" y="-3554.48" font-size="46.954" transform="scale(4.0128.2492)" text-anchor="middle"/>
 <text id="text340" line-height="125%" font-family="&apos;Gentium Book Basic&apos;" x="2110.79" y="-878.78" font-size="129.23" word-spacing="0" letter-spacing="0"><tspan id="tspan342" x="2110.79" y="-878.78"/>
 </text>
 <text id="text344" font-family="Arial" x="723.09" y="-3875.52" font-size="46.954" transform="scale(4.0128.2492)" text-anchor="middle"/>
 <text id="text346" line-height="125%" font-family="&apos;Gentium Book Basic&apos;" x="277.99" y="535.94" font-size="208.33" word-spacing="0" letter-spacing="0"><tspan id="tspan348" x="277.99" y="535.94"/>
 </text>
 <path id="path350" d="m346.57 118.92c-0.478-0.006-0.959-0.002-1.443 0.014-6.782 0.216-13.878 2.376-21.313 6.469-8.497 4.678-14.713 10.988-18.656 18.875-3.985 8.524-11.194 19.643-21.594 33.375-5.705 7.426-10.664 13.518-14.93 18.379l-64.51-64.51c-6.529-6.529-11.77-9.892-15.721-10.09-19.504-0.985-31.11 4.494-34.781 16.438-1.463 4.317 1.672 10.317 9.361 18.01l9.566 9.566c8.03 8.741 17.907 21.33 29.666 37.803 15.285 21.414 23.07 33.83 23.375 37.25-54.42 77.48-84.78 126.23-91.09 146.34-3.289 10.05-3.997 17.477-2.188 22.25 0.517 1.363 1.278 2.55 2.287 3.559l47.574 47.574c22.23 7.601 46.06 11.732 70.865 11.732 120.9 0 218.91-98.01 218.91-218.91 0-43.42-12.643-83.89-34.447-117.93-10.434 8.175-22.299 17.969-35.799 29.725l-42.09-42.09c-2.254-2.254-6.127-3.52-11.613-3.797-0.478-0.024-0.953-0.039-1.432-0.045" opacity="0.25"/>
 <path id="path352" fill="#ffffff" d="m345.13 118.94c-6.782 0.216-13.878 2.376-21.313 6.469-8.497 4.678-14.713 10.988-18.656 18.875-3.985 8.524-11.194 19.643-21.594 33.375-10.387 13.52-18.389 22.776-24 27.813-3.222-3.355-10.01-12.635-20.406-27.844-24.334-36.979-41.26-55.708-50.75-56.19-19.504-0.985-31.11 4.494-34.781 16.438-1.631 4.812 2.453 11.715 12.188 20.719 8.985 8.328 21.12 23.24 36.406 44.656 15.285 21.414 23.07 33.83 23.375 37.25-54.42 77.48-84.78 126.23-91.09 146.34-3.289 10.05-3.997 17.477-2.188 22.25s6.624 7.382 14.531 7.781c15.02 0.759 24.388-4.837 28.06-16.781 2.639-8.166 7.41-14.548 14.313-19.09 2.231-1.803 7.579-4.94 16.06-9.406 11.782-6.427 18.15-10.769 19.09-13.06 0.288-0.957 0.481-1.899 0.594-2.813-2.13 1.145-4.266 2.243-6.438 3.313-5.04 4.02-11.382-2-8.969-7.313 1.379-2.28 2.818-4.496 4.281-6.719-4.329 0.891-9.385 3.02-15.188 6.469 4.715-11.679 13.155-27.533 25.281-47.563 12.403-20.228 21.703-33.568 27.938-40.06 1.497 1.351 6.531 7.25 15.09 17.656 0.174-0.191 0.357-0.403 0.531-0.594 7.253-6.06 11.55-15.222 19.406-20.406 4.02-3.553 8.02-7.117 12.03-10.688-3.534-3.558-7.154-7.232-10.938-11-4.25-3.832-6.889-6.261-7.875-7.375 0.886-1.445 6.429-7.449 16.625-18 39.09-40.585 60.48-66.868 64.16-78.81 3.275-9.836-1.046-15.06-12.906-15.656-0.955-0.048-1.906-0.062-2.875-0.031m92.38 16.187c-12.07 9.46-26.05 21.07-42.28 35.406-0.061-0.058-0.531-0.469-0.531-0.469l-2.906 2.594c0.411 0.365 0.813 0.727 1.219 1.094-46.95 39.497-97.34 85.73-104.44 92.25-0.021-0.033-0.156-0.249-0.156-0.25l-0.094-0.188-0.156 0.156-0.063 0.031c-0.005-0.006-0.094-0.156-0.094-0.156l-3.875 3.625c0.036 0.051 0.089 0.105 0.125 0.156l-0.031 0.031 0.063 0.156s0.15 0.226 0.188 0.281c-44.3 46.25-71.69 81.17-70.5 85.19 1.532 5.16 82.85-52.857 93.25-60.781 0.312 0.255 0.479 0.378 0.594 0.469 0.029 0.026 0.313 0.281 0.313 0.281h0.031l0.063 0.094 4.219-3.938-0.188-0.156c-0.001-0.001-0.357-0.269-0.5-0.375 8.683-6.822 56.746-44.816 107.03-89 0.848 1.093 1.688 2.156 1.688 2.156l2.906-2.469c-0.126-0.184-0.275-0.375-0.406-0.563 2.689-2.16 17.01-13.765 33.594-28.406-5.188-13.07-11.571-25.525-19.06-37.22m-107.25 146.88c-6.238 4.768-12.432 9.613-17.375 15.688-7.256 3.443-13.805 8.351-20.438 13.156 26.604 30.18 42.01 45.585 45.906 45.781 6.325 0.32 13.424-1.224 21.313-4.656 7.902-3.644 12.685-8.107 14.344-13.344 1.67-5.152-12.971-24.09-43.75-56.625"/>
</svg>
