<?xml version="1.0" encoding="UTF-8" standalone="no"?>
<svg xmlns="http://www.w3.org/2000/svg" xmlns:sodipodi="http://sodipodi.sourceforge.net/DTD/sodipodi-0.dtd" xmlns:inkscape="http://www.inkscape.org/namespaces/inkscape" height="512" viewBox="0 0 512 512" width="512" version="1.1">
 <metadata id="metadata80"/>
 <g transform="translate(0,-540.36)" id="g4">
  <g fill-rule="evenodd" id="g6">
   <path d="m471.95 793.41c0 120.9-98.01 218.9-218.9 218.9-120.9 0-218.9-98.01-218.9-218.9 0-120.9 98.01-218.9 218.9-218.9 120.9 0 218.9 98.01 218.9 218.9" fill="#a7a7a7" id="path8"/>
   <path transform="translate(0,540.36)" fill="#828282" d="m253.03 34.16c-120.9 0-218.91 98.01-218.91 218.91s98.01 218.91 218.91 218.91c0.971 0 1.939-0.05 2.906-0.063v-437.72c-0.97-0.016-1.94-0.034-2.91-0.034" id="path10"/>
   <path d="m256 541.36c-140.83 0-255 114.17-255 255s114.17 255 255 255 255-114.17 255-255-114.17-255-255-255m8.827 44.931c120.9 0 218.9 98 218.9 218.9s-98 218.9-218.9 218.9-218.93-98-218.93-218.9 98.03-218.9 218.93-218.9" fill-opacity="0.067" id="path12"/>
   <g fill-opacity="0.129" id="g14">
    <path d="m256 544.79c-138.94 0-251.57 112.63-251.57 251.57s112.63 251.54 251.57 251.54 251.57-112.6 251.57-251.54-112.63-251.57-251.57-251.57m5.885 38.556c120.9 0 218.9 98 218.9 218.9s-98 218.9-218.9 218.9-218.93-98-218.93-218.9 98.03-218.9 218.93-218.9" id="path16"/>
    <path d="m256 548.72c-136.77 0-247.64 110.87-247.64 247.64s110.87 247.64 247.64 247.64 247.64-110.87 247.64-247.64-110.87-247.64-247.64-247.64m2.942 31.691c120.9 0 218.9 98 218.9 218.9s-98 218.9-218.9 218.9-218.93-98-218.93-218.9 98.03-218.9 218.93-218.9" id="path18"/>
   </g>
   <path fill="#ffffff" stroke-width="4.904" stroke="#000000" stroke-opacity="0.31" d="m253.04 548.22c-135.42 0-245.19 109.78-245.19 245.19 0 135.42 109.78 245.19 245.19 245.19 135.42 0 245.19-109.78 245.19-245.19 0-135.42-109.78-245.19-245.19-245.19zm0 26.297c120.9 0 218.9 98 218.9 218.9s-98 218.9-218.9 218.9-218.93-98-218.93-218.9 98.03-218.9 218.93-218.9z" id="path20"/>
  </g>
  <text font-family="Gentium Book Basic" x="729.64" y="771.72" line-height="125%" font-size="129.23" id="text22" word-spacing="0" letter-spacing="0"><tspan x="729.64" y="771.72" id="tspan24"/>
  </text>
  <text font-family="Arial" x="378.91" y="2747.64" transform="scale(4.0128 .2492)" font-size="46.954" id="text26" text-anchor="middle"/>
  <text font-family="Gentium Book Basic" x="1310.91" y="691.72" line-height="125%" font-size="129.23" id="text28" word-spacing="0" letter-spacing="0"><tspan x="1310.91" y="691.72" id="tspan30"/>
  </text>
  <text font-family="Arial" x="523.76" y="2426.6" transform="scale(4.0128 .2492)" font-size="46.954" id="text32" text-anchor="middle"/>
  <text font-family="Gentium Book Basic" x="239.33" y="510.46" line-height="125%" font-size="129.23" id="text34" word-spacing="0" letter-spacing="0"><tspan x="239.33" y="510.46" id="tspan36"/>
  </text>
  <text font-family="Arial" x="256.72" y="1699.25" transform="scale(4.0128 .2492)" font-size="46.954" id="text38" text-anchor="middle"/>
  <text font-family="Gentium Book Basic" x="1337.38" y="293.99" line-height="125%" font-size="129.23" id="text40" word-spacing="0" letter-spacing="0"><tspan x="1337.38" y="293.99" id="tspan42"/>
  </text>
  <text font-family="Arial" x="530.36" y="830.57" transform="scale(4.0128 .2492)" font-size="46.954" id="text44" text-anchor="middle"/>
  <text font-family="Gentium Book Basic" x="1918.65" y="213.99" line-height="125%" font-size="129.23" id="text46" word-spacing="0" letter-spacing="0"><tspan x="1918.65" y="213.99" id="tspan48"/>
  </text>
  <text font-family="Arial" x="675.21" y="509.54" transform="scale(4.0128 .2492)" font-size="46.954" id="text50" text-anchor="middle"/>
  <text font-family="Gentium Book Basic" x="1529.53" y="-258.41" line-height="125%" font-size="129.23" id="text52" word-spacing="0" letter-spacing="0"><tspan x="1529.53" y="-258.41" id="tspan54"/>
  </text>
  <text font-family="Arial" x="578.24" y="-1386.12" transform="scale(4.0128 .2492)" font-size="46.954" id="text56" text-anchor="middle"/>
  <text font-family="Gentium Book Basic" x="2110.79" y="-338.42" line-height="125%" font-size="129.23" id="text58" word-spacing="0" letter-spacing="0"><tspan x="2110.79" y="-338.42" id="tspan60"/>
  </text>
  <text font-family="Arial" x="723.09" y="-1707.16" transform="scale(4.0128 .2492)" font-size="46.954" id="text62" text-anchor="middle"/>
  <text font-family="Gentium Book Basic" x="277.99" y="1076.3" line-height="125%" font-size="208.33" id="text64" word-spacing="0" letter-spacing="0"><tspan x="277.99" y="1076.3" id="tspan66"/>
  </text>
  <path d="m256 471.8v649.12" fill="none" stroke-width="0.1" stroke="#ffffff" id="path68"/>
  <g fill-rule="evenodd" transform="translate(0,540.36)" id="g70">
   <path d="m203.22 166.97c-29.23 0-53.03 23.838-53.03 53.06v18.906h-19.657c-29.22 0-53.06 23.803-53.06 53.03 0 14.868 6.155 28.351 16.06 38 0.428 0.439 0.87 0.857 1.313 1.281 0.227 0.229 0.456 0.462 0.688 0.688 0.327 0.336 0.664 0.673 1 1 0.215 0.221 0.437 0.439 0.656 0.656 0.434 0.454 0.863 0.906 1.313 1.344 0.33 0.338 0.662 0.67 1 1 0.428 0.439 0.87 0.857 1.313 1.281 0.263 0.266 0.544 0.521 0.813 0.781 0.293 0.299 0.575 0.614 0.875 0.906 0.266 0.274 0.54 0.545 0.813 0.813 0.285 0.296 0.583 0.586 0.875 0.875 0.424 0.442 0.842 0.885 1.281 1.313 0.356 0.365 0.728 0.708 1.094 1.063 0.402 0.411 0.804 0.821 1.219 1.219 0.227 0.229 0.456 0.462 0.688 0.688 0.266 0.274 0.54 0.545 0.813 0.813 0.285 0.296 0.583 0.586 0.875 0.875 0.424 0.442 0.842 0.885 1.281 1.313 0.33 0.338 0.662 0.67 1 1 0.428 0.439 0.87 0.857 1.313 1.281 0.227 0.229 0.456 0.462 0.688 0.688 0.327 0.336 0.664 0.673 1 1 0.215 0.221 0.438 0.439 0.656 0.656 0.434 0.454 0.863 0.906 1.313 1.344 0.33 0.338 0.662 0.67 1 1 0.428 0.439 0.87 0.857 1.313 1.281 0.263 0.266 0.544 0.521 0.813 0.781 0.293 0.299 0.575 0.614 0.875 0.906 0.215 0.221 0.438 0.439 0.656 0.656 0.407 0.426 0.829 0.838 1.25 1.25 0.355 0.366 0.697 0.738 1.063 1.094 0.428 0.439 0.87 0.857 1.313 1.281 0.263 0.266 0.544 0.521 0.813 0.781 0.293 0.299 0.575 0.614 0.875 0.906 0.266 0.274 0.54 0.545 0.813 0.813 0.285 0.296 0.583 0.586 0.875 0.875 0.424 0.442 0.842 0.885 1.281 1.313 0.33 0.338 0.662 0.67 1 1 0.428 0.439 0.87 0.857 1.313 1.281 0.227 0.229 0.456 0.462 0.688 0.688 0.327 0.336 0.664 0.673 1 1 0.215 0.221 0.438 0.439 0.656 0.656 0.434 0.454 0.863 0.906 1.313 1.344 0.33 0.338 0.662 0.67 1 1 0.428 0.439 0.87 0.857 1.313 1.281 0.227 0.229 0.456 0.462 0.688 0.688 0.327 0.336 0.664 0.673 1 1 0.215 0.221 0.438 0.439 0.656 0.656 0.434 0.454 0.863 0.906 1.313 1.344 0.33 0.338 0.662 0.67 1 1 0.428 0.439 0.87 0.857 1.313 1.281 0.263 0.266 0.544 0.521 0.813 0.781 0.293 0.299 0.575 0.614 0.875 0.906 0.266 0.274 0.54 0.545 0.813 0.813 0.285 0.296 0.583 0.586 0.875 0.875 0.424 0.442 0.842 0.885 1.281 1.313 0.356 0.365 0.728 0.708 1.094 1.063 0.402 0.411 0.804 0.821 1.219 1.219 0.227 0.229 0.456 0.462 0.688 0.688 0.266 0.274 0.54 0.545 0.813 0.813 0.285 0.296 0.583 0.586 0.875 0.875 0.424 0.442 0.842 0.885 1.281 1.313 0.33 0.338 0.662 0.67 1 1 0.428 0.439 0.87 0.857 1.313 1.281 0.227 0.229 0.456 0.462 0.688 0.688 0.327 0.336 0.664 0.673 1 1 0.215 0.221 0.438 0.439 0.656 0.656 0.434 0.454 0.863 0.906 1.313 1.344 0.33 0.338 0.662 0.67 1 1 0.428 0.439 0.87 0.857 1.313 1.281 0.263 0.266 0.544 0.521 0.813 0.781 0.293 0.299 0.575 0.614 0.875 0.906 0.215 0.221 0.438 0.439 0.656 0.656 0.407 0.426 0.829 0.838 1.25 1.25 0.355 0.366 0.697 0.738 1.063 1.094 0.428 0.439 0.87 0.857 1.313 1.281 0.263 0.266 0.544 0.521 0.813 0.781 0.293 0.299 0.575 0.614 0.875 0.906 0.266 0.274 0.54 0.545 0.813 0.813 0.285 0.296 0.583 0.586 0.875 0.875 0.424 0.442 0.842 0.885 1.281 1.313 0.33 0.338 0.662 0.67 1 1 0.428 0.439 0.87 0.857 1.313 1.281 0.227 0.229 0.456 0.462 0.688 0.688 0.266 0.274 0.54 0.545 0.813 0.813 0.285 0.296 0.583 0.586 0.875 0.875 0.424 0.442 0.842 0.885 1.281 1.313 0.33 0.338 0.662 0.67 1 1 0.428 0.439 0.87 0.857 1.313 1.281 0.227 0.229 0.456 0.462 0.688 0.688 0.327 0.336 0.664 0.673 1 1 0.215 0.221 0.438 0.439 0.656 0.656 0.434 0.454 0.863 0.906 1.313 1.344 0.33 0.338 0.662 0.67 1 1 0.428 0.439 0.87 0.857 1.313 1.281 0.263 0.266 0.544 0.521 0.813 0.781 0.293 0.299 0.575 0.614 0.875 0.906 0.215 0.221 0.438 0.439 0.656 0.656 0.407 0.426 0.829 0.838 1.25 1.25 0.355 0.366 0.697 0.738 1.063 1.094 0.356 0.365 0.728 0.708 1.094 1.063 0.402 0.411 0.804 0.821 1.219 1.219 0.227 0.229 0.456 0.462 0.688 0.688 0.266 0.274 0.54 0.545 0.813 0.813 0.285 0.296 0.583 0.586 0.875 0.875 0.424 0.442 0.842 0.885 1.281 1.313 0.33 0.338 0.662 0.67 1 1 0.428 0.439 0.87 0.857 1.313 1.281 0.227 0.229 0.456 0.462 0.688 0.688 0.327 0.336 0.664 0.673 1 1 0.215 0.221 0.438 0.439 0.656 0.656 0.434 0.453 0.863 0.906 1.313 1.344 0.33 0.338 0.662 0.67 1 1 0.428 0.439 0.87 0.857 1.313 1.281 0.263 0.266 0.544 0.521 0.813 0.781 0.293 0.299 0.575 0.614 0.875 0.906 0.215 0.221 0.438 0.439 0.656 0.656 0.434 0.453 0.863 0.906 1.313 1.344 0.33 0.338 0.662 0.67 1 1 0.428 0.439 0.87 0.857 1.313 1.281 0.263 0.266 0.544 0.521 0.813 0.781 0.293 0.299 0.575 0.614 0.875 0.906 0.266 0.274 0.54 0.545 0.813 0.813 0.285 0.296 0.583 0.586 0.875 0.875 0.424 0.442 0.842 0.885 1.281 1.313 0.33 0.338 0.662 0.67 1 1 0.428 0.439 0.87 0.857 1.313 1.281 0.227 0.229 0.456 0.462 0.688 0.688 0.266 0.274 0.54 0.545 0.813 0.813 0.285 0.296 0.583 0.586 0.875 0.875 0.424 0.442 0.842 0.885 1.281 1.313 0.33 0.338 0.662 0.67 1 1 0.428 0.439 0.87 0.857 1.313 1.281 0.227 0.229 0.456 0.462 0.688 0.688 0.327 0.336 0.664 0.673 1 1 0.215 0.221 0.438 0.439 0.656 0.656 0.434 0.453 0.863 0.906 1.313 1.344 0.33 0.338 0.662 0.67 1 1 0.428 0.439 0.87 0.857 1.313 1.281 0.263 0.266 0.544 0.521 0.813 0.781 0.293 0.299 0.575 0.614 0.875 0.906 0.215 0.221 0.438 0.439 0.656 0.656 0.092 0.096 0.188 0.187 0.281 0.281 6.02 0.497 12.1 0.781 18.25 0.781 104.07 0 191.18-72.63 213.41-169.97-0.117-0.112-0.227-0.231-0.344-0.344-0.259-0.264-0.517-0.523-0.781-0.781-0.358-0.369-0.725-0.735-1.094-1.094-0.327-0.335-0.664-0.673-1-1-0.325-0.333-0.635-0.676-0.969-1-0.33-0.338-0.661-0.671-1-1-0.366-0.375-0.748-0.729-1.125-1.094-0.259-0.264-0.517-0.523-0.781-0.781-0.523-0.539-1.049-1.077-1.594-1.594-0.517-0.544-1.054-1.072-1.594-1.594-0.295-0.301-0.573-0.613-0.875-0.906-0.366-0.375-0.748-0.729-1.125-1.094-0.259-0.264-0.517-0.523-0.781-0.781-0.523-0.539-1.049-1.077-1.594-1.594-0.517-0.544-1.054-1.072-1.594-1.594-0.295-0.301-0.573-0.613-0.875-0.906-0.366-0.375-0.748-0.729-1.125-1.094-0.259-0.264-0.517-0.523-0.781-0.781-0.327-0.338-0.664-0.671-1-1-0.358-0.369-0.725-0.735-1.094-1.094-0.359-0.368-0.724-0.736-1.094-1.094-0.295-0.301-0.573-0.613-0.875-0.906-0.33-0.338-0.661-0.671-1-1-0.366-0.375-0.748-0.729-1.125-1.094-0.259-0.264-0.517-0.523-0.781-0.781-0.358-0.369-0.725-0.735-1.094-1.094-0.327-0.335-0.664-0.673-1-1-0.359-0.368-0.724-0.736-1.094-1.094-0.295-0.301-0.573-0.613-0.875-0.906-0.366-0.375-0.748-0.729-1.125-1.094-0.259-0.264-0.517-0.523-0.781-0.781-0.523-0.539-1.049-1.077-1.594-1.594-0.517-0.544-1.054-1.072-1.594-1.594-0.295-0.301-0.573-0.613-0.875-0.906-0.366-0.375-0.748-0.729-1.125-1.094-0.259-0.264-0.517-0.523-0.781-0.781-0.327-0.338-0.664-0.671-1-1-0.358-0.369-0.725-0.735-1.094-1.094-0.359-0.368-0.724-0.736-1.094-1.094-0.295-0.301-0.573-0.613-0.875-0.906-0.33-0.338-0.661-0.671-1-1-0.366-0.375-0.748-0.729-1.125-1.094-0.259-0.264-0.517-0.523-0.781-0.781-0.358-0.369-0.725-0.735-1.094-1.094-0.359-0.368-0.724-0.736-1.094-1.094-1.913-1.951-3.964-3.767-6.156-5.406-0.289-0.293-0.58-0.589-0.875-0.875-0.294-0.301-0.574-0.612-0.875-0.906-0.329-0.339-0.662-0.67-1-1-0.366-0.376-0.749-0.729-1.125-1.094-0.258-0.264-0.517-0.523-0.781-0.781-0.358-0.37-0.725-0.734-1.094-1.094-0.359-0.369-0.724-0.736-1.094-1.094-0.329-0.336-0.662-0.673-1-1-0.294-0.301-0.574-0.612-0.875-0.906-0.366-0.376-0.749-0.729-1.125-1.094-0.258-0.264-0.517-0.523-0.781-0.781-0.522-0.539-1.049-1.077-1.594-1.594-0.517-0.545-1.055-1.071-1.594-1.594-0.294-0.301-0.574-0.612-0.875-0.906-0.366-0.376-0.749-0.729-1.125-1.094-0.258-0.264-0.517-0.523-0.781-0.781-0.522-0.539-1.049-1.077-1.594-1.594-0.517-0.545-1.055-1.071-1.594-1.594-0.294-0.301-0.574-0.612-0.875-0.906-0.329-0.339-0.662-0.67-1-1-0.366-0.376-0.749-0.729-1.125-1.094-0.258-0.264-0.517-0.523-0.781-0.781-0.358-0.37-0.725-0.734-1.094-1.094-0.359-0.369-0.724-0.736-1.094-1.094-0.329-0.336-0.662-0.673-1-1-0.294-0.301-0.574-0.612-0.875-0.906-0.366-0.376-0.749-0.729-1.125-1.094-0.258-0.264-0.517-0.523-0.781-0.781-0.358-0.37-0.725-0.734-1.094-1.094-0.359-0.369-0.724-0.736-1.094-1.094-0.329-0.336-0.662-0.673-1-1-0.294-0.301-0.574-0.612-0.875-0.906-0.366-0.376-0.749-0.729-1.125-1.094-0.258-0.264-0.517-0.523-0.781-0.781-0.522-0.539-1.049-1.077-1.594-1.594-0.517-0.545-1.055-1.071-1.594-1.594-0.294-0.301-0.574-0.612-0.875-0.906-0.329-0.339-0.662-0.67-1-1-0.329-0.339-0.662-0.67-1-1-0.324-0.333-0.667-0.644-1-0.969-0.327-0.336-0.665-0.673-1-1-0.359-0.369-0.724-0.736-1.094-1.094-0.294-0.301-0.574-0.612-0.875-0.906-0.329-0.339-0.662-0.67-1-1-0.366-0.376-0.749-0.729-1.125-1.094-0.258-0.264-0.517-0.523-0.781-0.781-0.358-0.37-0.725-0.734-1.094-1.094-0.359-0.369-0.724-0.736-1.094-1.094-0.329-0.336-0.662-0.673-1-1-0.294-0.301-0.574-0.612-0.875-0.906-0.366-0.376-0.749-0.729-1.125-1.094-0.258-0.264-0.517-0.523-0.781-0.781-0.522-0.539-1.049-1.077-1.594-1.594-0.517-0.545-1.055-1.071-1.594-1.594-0.294-0.301-0.574-0.612-0.875-0.906-0.366-0.376-0.749-0.729-1.125-1.094-0.258-0.264-0.517-0.523-0.781-0.781-0.522-0.539-1.049-1.077-1.594-1.594-0.517-0.545-1.055-1.071-1.594-1.594-0.294-0.301-0.574-0.612-0.875-0.906-0.329-0.339-0.662-0.67-1-1-0.329-0.339-0.662-0.67-1-1-9.641-9.908-23.1-16.06-37.969-16.06-22.571 0-41.896 14.22-49.53 34.16-0.094-0.093-0.186-0.189-0.281-0.281-0.288-0.294-0.581-0.588-0.875-0.875-0.484-0.498-0.966-0.99-1.469-1.469-0.223-0.223-0.461-0.437-0.688-0.656-0.011-0.01-0.02-0.021-0.031-0.031-0.1-0.097-0.18-0.216-0.281-0.313-0.167-0.168-0.33-0.335-0.5-0.5-0.248-0.255-0.497-0.5-0.75-0.75-0.401-0.418-0.804-0.845-1.219-1.25-0.327-0.337-0.664-0.672-1-1-0.36-0.37-0.724-0.734-1.094-1.094-0.459-0.47-0.93-0.922-1.406-1.375-0.167-0.168-0.33-0.335-0.5-0.5-0.248-0.255-0.497-0.5-0.75-0.75-0.401-0.418-0.804-0.845-1.219-1.25-0.327-0.337-0.664-0.672-1-1-0.327-0.337-0.664-0.672-1-1-0.489-0.503-0.992-0.985-1.5-1.469-0.099-0.099-0.213-0.183-0.313-0.281-0.13-0.142-0.275-0.265-0.406-0.406-0.1-0.097-0.18-0.216-0.281-0.313l-0.063-0.063c-0.463-0.487-0.926-0.968-1.406-1.438-9.639-9.92-23.12-16.09-38-16.09" fill-opacity="0.235" id="path72"/>
   <path d="m203.22 166.97c-29.23 0-53.03 23.838-53.03 53.06v18.906h-19.657c-29.22 0-53.06 23.803-53.06 53.03 0 29.23 23.834 53.06 53.06 53.06h72.687c27.529 0 50.23-21.12 52.781-48 2.549 26.877 25.25 48 52.781 48h72.687c29.23 0 53.06-23.834 53.06-53.06 0-29.23-23.838-53.03-53.06-53.03h-19.663v-18.91c0-29.22-23.803-53.06-53.03-53.06-27.529 0-50.23 21.15-52.781 48.03-2.549-26.88-25.25-48.03-52.781-48.03" fill="#ffffff" id="path74"/>
  </g>
 </g>
</svg>
