<?xml version="1.0" encoding="UTF-8" standalone="no"?>
<svg xmlns="http://www.w3.org/2000/svg" xmlns:xlink="http://www.w3.org/1999/xlink" xmlns:sodipodi="http://sodipodi.sourceforge.net/DTD/sodipodi-0.dtd" xmlns:inkscape="http://www.inkscape.org/namespaces/inkscape" width="22" height="22" version="1.0">
 <defs id="defs4">
  <linearGradient id="StandardGradient" gradientTransform="scale(0.9219544,1.0846523)" y1="0.922" x2="0" y2="19.387" gradientUnits="userSpaceOnUse">
   <stop id="stop3283" stop-opacity="0.235"/>
   <stop id="stop3850" offset="0.7" stop-opacity="0.392"/>
   <stop offset="1" id="stop2651" stop-opacity="0.55"/>
  </linearGradient>
  <radialGradient inkscape:collect="always" xlink:href="#StandardGradient" id="radialGradient3872" cx="12" cy="13.518" r="7.04" gradientTransform="matrix(2.2741188,0,0,0.99492699,-45.289426,-0.44926994)" gradientUnits="userSpaceOnUse"/>
  <radialGradient inkscape:collect="always" xlink:href="#StandardGradient" id="radialGradient3945" cx="12" cy="13.571" r="9" gradientTransform="matrix(1.7777778,-1.1111109e-8,0,0.77777776,-9.3333334,2.4444449)" gradientUnits="userSpaceOnUse"/>
 </defs>
 <metadata id="metadata7"/>
 <g inkscape:label="Calque 1" id="layer1" inkscape:groupmode="layer">
  <path inkscape:connector-curvature="0" d="m 16.90625,3.0625004 a 0.94446608,0.94446608 0 0 0 -0.46875,0.28125 L 8.96875,10.84375 5.5625,7.4062504 a 0.94446608,0.94446608 0 0 0 -1.3125,0 L 1.34375,10.34375 a 0.94446608,0.94446608 0 0 0 0,1.3125 l 6.96875,7 a 0.94446608,0.94446608 0 0 0 1.3125,0 L 20.65625,7.5937504 a 0.94446608,0.94446608 0 0 0 0,-1.3125 L 17.75,3.3437504 a 0.94446608,0.94446608 0 0 0 -0.84375,-0.28125 z m 0.1875,0.9375 L 20,6.9375004 8.96875,18 2,11 4.90625,8.0625004 l 4.0625,4.0937496 8.125,-8.1562496 z" id="path4707" opacity="0.05" fill="#ffffff"/>
  <path inkscape:connector-curvature="0" d="M 17.087743,4.0000004 8.9726192,12.14463 4.9122593,8.0723231 2,10.997189 8.9670195,18 8.9726195,17.9944 8.9782195,18 20,6.9248646 17.087743,4.0000004 z" id="Symbol" sodipodi:nodetypes="ccccccccc" fill="url(#radialGradient3945)"/>
  <path inkscape:connector-curvature="0" d="M 17.09375,4.0000004 8.96875,12.15625 4.90625,8.0625004 2,11 l 0.5,0.5 2.40625,-2.4374996 4.0625,4.0937496 8.125,-8.1562496 2.40625,2.4375 0.5,-0.5 -2.90625,-2.9375 z" id="BevelShadow-5" inkscape:label="#path3172" opacity="0.3"/>
  <path d="M 17.09375 4 L 8.96875 12.15625 L 4.90625 8.0625 L 2 11 L 8.96875 18 L 20 6.9375 L 17.09375 4 z M 17.09375 4.5625 L 19.4375 6.9375 L 8.96875 17.4375 L 2.5625 11 L 4.90625 8.625 L 8.6875 12.4375 A 0.4059194 0.4059194 0 0 0 9.25 12.4375 L 17.09375 4.5625 z " id="path3947" opacity="0.3" fill="url(#radialGradient3945)"/>
  <path inkscape:connector-curvature="0" d="M 20,6.9375004 8.96875,18 2,11 2,12 8.96875,19 20,7.9375004 l 0,-1 z" id="BevelHighlight-1" inkscape:label="#path3179" opacity="0.2" fill="#ffffff"/>
 </g>
</svg>
