<?xml version="1.0" encoding="UTF-8" standalone="no"?>
<svg xmlns="http://www.w3.org/2000/svg" xmlns:xlink="http://www.w3.org/1999/xlink" xmlns:sodipodi="http://sodipodi.sourceforge.net/DTD/sodipodi-0.dtd" xmlns:inkscape="http://www.inkscape.org/namespaces/inkscape" width="22" height="22" version="1.0">
 <defs id="defs4">
  <linearGradient gradientUnits="userSpaceOnUse" y2="18.974" x2="0" y1="1.996" gradientTransform="matrix(0.9984539,0,0,0.9984539,-0.0459776,0.05767558)" id="linearGradient4210">
   <stop id="stop4212" stop-opacity="0.235"/>
   <stop id="stop4214" offset="1" stop-opacity="0.549"/>
  </linearGradient>
  <linearGradient id="linearGradient4081">
   <stop id="stop4083" stop-color="#aaaaaa"/>
   <stop offset="1" id="stop4085" stop-color="#f0f0f0"/>
  </linearGradient>
  <linearGradient inkscape:collect="always" xlink:href="#linearGradient4081" id="linearGradient3527" gradientUnits="userSpaceOnUse" gradientTransform="translate(-39,0)" y1="16.3" x2="0" y2="6.05"/>
  <linearGradient inkscape:collect="always" xlink:href="#linearGradient4081" id="linearGradient3538" gradientUnits="userSpaceOnUse" gradientTransform="translate(-39,0)" y1="19.543" x2="0" y2="2.5"/>
  <linearGradient inkscape:collect="always" xlink:href="#linearGradient4081" id="linearGradient3540" gradientUnits="userSpaceOnUse" gradientTransform="translate(-39,0)" y1="17.419" x2="0" y2="4.625"/>
  <linearGradient inkscape:collect="always" xlink:href="#linearGradient4081" id="linearGradient3542" gradientUnits="userSpaceOnUse" gradientTransform="translate(-39,0)" y1="15.281" x2="0" y2="6.746"/>
  <linearGradient inkscape:collect="always" xlink:href="#linearGradient4081" id="linearGradient3266" x1="9" x2="14" gradientUnits="userSpaceOnUse" gradientTransform="matrix(0,-1,1,0,6,16)"/>
  <linearGradient inkscape:collect="always" xlink:href="#linearGradient4081" id="linearGradient3274" y1="20" x2="0" y2="7.969" gradientUnits="userSpaceOnUse"/>
  <linearGradient inkscape:collect="always" xlink:href="#linearGradient4081" id="linearGradient3180" y1="17.01" x2="0" y2="-0.7" gradientUnits="userSpaceOnUse"/>
  <linearGradient inkscape:collect="always" xlink:href="#linearGradient4081" id="linearGradient3611" gradientUnits="userSpaceOnUse" gradientTransform="matrix(0,1,-1,0,19.861161,-1.0000002)" x1="14" x2="1.958"/>
  <linearGradient inkscape:collect="always" xlink:href="#linearGradient4081" id="linearGradient3613" gradientUnits="userSpaceOnUse" gradientTransform="matrix(0,1,-1,0,19,2.9999999)" x1="14" x2="1.958"/>
  <linearGradient id="StandardGradient-1" gradientTransform="matrix(0.9984539,0,0,0.9984539,-0.0459776,0.05767558)" y1="1.996" x2="0" y2="18.974" gradientUnits="userSpaceOnUse">
   <stop id="stop3277-4" stop-opacity="0.863"/>
   <stop offset="1" id="stop3279-3" stop-opacity="0.471"/>
  </linearGradient>
  <linearGradient id="SpecificGradient-5" y1="4" x2="0" y2="18.01" gradientUnits="userSpaceOnUse">
   <stop id="stop3292-8" stop-color="#a50000"/>
   <stop offset="1" id="stop3294-0" stop-color="#e73800"/>
  </linearGradient>
  <linearGradient inkscape:collect="always" xlink:href="#StandardGradient-1" id="linearGradient3662" gradientUnits="userSpaceOnUse" gradientTransform="matrix(0,-1,-1,0,19,20)" x1="14" x2="1.958"/>
  <linearGradient inkscape:collect="always" xlink:href="#StandardGradient-1" id="linearGradient3666" gradientUnits="userSpaceOnUse" gradientTransform="matrix(0,-1,-1,0,19.861161,14)" x1="14" x2="1.958"/>
  <clipPath id="clipPath3676">
   <path d="m -29.138839,-5.0000001 0,22.0000001 21.9999997,0 0,-22.0000001 -21.9999997,0 z m 11,5 c 2.61165,0 4.832611,1.6692211 5.65625,4 l -2.21875,0 c -0.692339,-1.193787 -1.959054,-2 -3.4375,-2 -2.208,0 -4,1.792 -4,4 0,2.208 1.792,4 4,4 1.478446,0 2.745161,-0.806213 3.4375,-2 l 2.21875,0 C -13.306228,10.330778 -15.527189,12 -18.138839,12 c -3.312,0 -6,-2.6880001 -6,-6.0000001 0,-3.312 2.688,-6 6,-6 z m 1.5,5 5,0 c 0.277,0 0.5,0.223 0.5,0.5 l 0,1 c 0,0.277 -0.223,0.5 -0.5,0.5 l -5,0 c -0.277,0 -0.5,-0.223 -0.5,-0.5 l 0,-1 c 0,-0.277 0.223,-0.5 0.5,-0.5 z" id="path3678"/>
  </clipPath>
  <linearGradient inkscape:collect="always" xlink:href="#StandardGradient-1" id="linearGradient4388" gradientUnits="userSpaceOnUse" gradientTransform="matrix(-1,0,0,1,19.861161,18)" x1="14" x2="1.958"/>
  <linearGradient inkscape:collect="always" xlink:href="#StandardGradient-1" id="linearGradient4413" x1="7.551" x2="16.949" gradientUnits="userSpaceOnUse"/>
  <linearGradient inkscape:collect="always" xlink:href="#StandardGradient-1" id="linearGradient4427" gradientUnits="userSpaceOnUse" x1="7.551" x2="16.949" gradientTransform="matrix(0.5,0.8660254,0.96225044,-0.55555555,-4.7047195,2.8626093)"/>
  <linearGradient inkscape:collect="always" xlink:href="#StandardGradient-1" id="linearGradient4433" gradientUnits="userSpaceOnUse" x1="7.551" x2="16.949" gradientTransform="matrix(-0.5,0.8660254,-0.96225044,-0.55555555,28.427041,2.8626093)"/>
  <linearGradient inkscape:collect="always" xlink:href="#StandardGradient-1" id="linearGradient4442" gradientUnits="userSpaceOnUse" gradientTransform="matrix(0,-1,-1,0,16.861161,15)" x1="14" x2="1.958"/>
  <linearGradient inkscape:collect="always" xlink:href="#StandardGradient-1" id="linearGradient4444" gradientUnits="userSpaceOnUse" gradientTransform="matrix(0,-1,-1,0,16,19)" x1="14" x2="1.958"/>
  <linearGradient inkscape:collect="always" xlink:href="#StandardGradient-1" id="linearGradient13660" gradientUnits="userSpaceOnUse" gradientTransform="matrix(0,1,-1,0,16.861161,-2.0375775)" x1="14" x2="1.958"/>
  <linearGradient inkscape:collect="always" xlink:href="#StandardGradient-1" id="linearGradient3983" x1="2" x2="14" gradientUnits="userSpaceOnUse" gradientTransform="matrix(0,1,-1,0,19.861161,-2.0000001)"/>
  <linearGradient inkscape:collect="always" xlink:href="#StandardGradient-1" id="linearGradient4056" gradientUnits="userSpaceOnUse" gradientTransform="matrix(0,1,-1,0,19,3)" x1="2" x2="14"/>
  <linearGradient inkscape:collect="always" xlink:href="#StandardGradient-1" id="linearGradient4061" gradientUnits="userSpaceOnUse" gradientTransform="matrix(0.8660254,0.5,-0.5,0.8660254,8.9329575,-4.9282033)" x1="2" x2="14"/>
  <linearGradient inkscape:collect="always" xlink:href="#StandardGradient-1" id="linearGradient4065" gradientUnits="userSpaceOnUse" gradientTransform="matrix(0.8660254,-0.5,0.5,0.8660254,0.93295749,3.0717966)" x1="2" x2="14"/>
  <linearGradient inkscape:collect="always" xlink:href="#StandardGradient-1" id="linearGradient4083" gradientUnits="userSpaceOnUse" gradientTransform="matrix(1.010363,0.58333335,-0.5,0.8660254,7.7782572,-5.59487)" x1="2" x2="14"/>
  <linearGradient inkscape:collect="always" xlink:href="#StandardGradient-1" id="linearGradient4087" gradientUnits="userSpaceOnUse" gradientTransform="matrix(1.010363,-0.58333335,0.5,0.8660254,-0.22174263,3.7384633)" x1="2" x2="14"/>
  <linearGradient inkscape:collect="always" xlink:href="#StandardGradient-1" id="linearGradient4094" gradientUnits="userSpaceOnUse" gradientTransform="matrix(0,1.1666667,-1,0,19.861161,-2.3333334)" x1="2" x2="14"/>
  <linearGradient inkscape:collect="always" xlink:href="#StandardGradient-1" id="linearGradient4096" gradientUnits="userSpaceOnUse" gradientTransform="matrix(0,1.1666667,-1,0,19,1.6666667)" x1="2" x2="14"/>
  <linearGradient inkscape:collect="always" xlink:href="#StandardGradient-1" id="linearGradient4101" gradientUnits="userSpaceOnUse" gradientTransform="matrix(0,1.1666667,-1,0,19,2.6666667)" x1="2" x2="14"/>
  <linearGradient inkscape:collect="always" xlink:href="#StandardGradient-1" id="linearGradient4105" gradientUnits="userSpaceOnUse" gradientTransform="matrix(0,1.1666667,-1,0,19.861161,-3.3333334)" x1="2" x2="14"/>
  <radialGradient inkscape:collect="always" xlink:href="#linearGradient4210" id="radialGradient4208" cx="11" cy="12.758" r="6.563" gradientTransform="matrix(1.9809524,2.8555879e-7,-1.9769453e-7,1.3714285,-10.790475,-4.49643)" gradientUnits="userSpaceOnUse"/>
 </defs>
 <metadata id="metadata7"/>
 <g inkscape:label="Icon" inkscape:groupmode="layer" id="layer1" transform="translate(-0.8611607,5.0000001)">
  <path d="M 9.8125 3.03125 A 0.95950285 0.95950285 0 0 0 9.03125 4 L 9.03125 6.34375 L 9.03125 7.5 L 9.03125 7.59375 L 8.9375 7.53125 L 7.9375 6.96875 L 5.90625 5.78125 A 0.95950285 0.95950285 0 0 0 4.59375 6.15625 L 3.59375 7.90625 A 0.95950285 0.95950285 0 0 0 3.96875 9.21875 L 5.96875 10.34375 L 6 10.375 L 6.96875 10.9375 A 0.95950285 0.95950285 0 0 0 7 10.96875 L 7.0625 11 L 7 11.03125 A 0.95950285 0.95950285 0 0 0 6.96875 11.0625 L 6 11.625 L 5.96875 11.65625 L 3.96875 12.78125 A 0.95950285 0.95950285 0 0 0 3.59375 14.09375 L 4.59375 15.84375 A 0.95950285 0.95950285 0 0 0 5.90625 16.21875 L 7.9375 15.03125 L 8.9375 14.46875 L 9.03125 14.40625 L 9.03125 18 A 0.95950285 0.95950285 0 0 0 10 18.96875 L 12 18.96875 A 0.95950285 0.95950285 0 0 0 12.96875 18 L 12.96875 14.40625 L 16.09375 16.21875 A 0.95950285 0.95950285 0 0 0 17.40625 15.84375 L 18.40625 14.09375 A 0.95950285 0.95950285 0 0 0 18.03125 12.78125 L 14.96875 11 L 18.03125 9.21875 A 0.95950285 0.95950285 0 0 0 18.40625 7.90625 L 17.40625 6.15625 A 0.95950285 0.95950285 0 0 0 16.09375 5.78125 L 12.96875 7.59375 L 12.96875 7.5 L 12.96875 6.34375 L 12.96875 4 A 0.95950285 0.95950285 0 0 0 12 3.03125 L 10 3.03125 A 0.95950285 0.95950285 0 0 0 9.90625 3.03125 A 0.95950285 0.95950285 0 0 0 9.8125 3.03125 z M 10 4 L 12 4 L 12 6.34375 L 12 7.5 L 12 9.25 L 16.5625 6.625 L 17.5625 8.375 L 13.03125 11 L 17.5625 13.625 L 16.5625 15.375 L 12 12.75 L 12 18 L 10 18 L 10 12.75 L 8.46875 13.625 L 7.46875 14.1875 L 5.4375 15.375 L 4.4375 13.625 L 6.46875 12.46875 L 7.46875 11.875 L 8.96875 11 L 7.46875 10.125 L 6.46875 9.53125 L 4.4375 8.375 L 5.4375 6.625 L 7.46875 7.8125 L 8.46875 8.375 L 10 9.25 L 10 7.5 L 10 6.34375 L 10 4 z " transform="translate(0.8611607,-5.0000001)" id="path4112" opacity="0.05" fill="#ffffff" color="#000000" stroke-width="2"/>
  <path d="M 10 4 L 10 6.34375 L 10 7.5 L 10 9.25 L 8.46875 8.375 L 7.46875 7.8125 L 5.4375 6.625 L 4.4375 8.375 L 6.46875 9.53125 L 7.46875 10.125 L 8.96875 11 L 7.46875 11.875 L 6.46875 12.46875 L 4.4375 13.625 L 5.4375 15.375 L 7.46875 14.1875 L 8.46875 13.625 L 10 12.75 L 10 18 L 12 18 L 12 12.75 L 16.5625 15.375 L 17.5625 13.625 L 13.03125 11 L 17.5625 8.375 L 16.5625 6.625 L 12 9.25 L 12 7.5 L 12 6.34375 L 12 4 L 10 4 z " transform="translate(0.8611607,-5.0000001)" id="path4054" fill="url(#radialGradient4208)" color="#000000" stroke-width="2"/>
  <path d="M 10 4 L 10 5 L 12 5 L 12 4 L 10 4 z M 5.4375 6.625 L 4.4375 8.375 L 4.875 8.625 L 5.4375 7.625 L 7.46875 8.8125 L 8.46875 9.375 L 10 10.25 L 10 9.25 L 8.46875 8.375 L 7.46875 7.8125 L 5.4375 6.625 z M 16.5625 6.625 L 12 9.25 L 12 10.25 L 16.5625 7.625 L 17.125 8.625 L 17.5625 8.375 L 16.5625 6.625 z M 8.125 11.5 L 7.46875 11.875 L 6.46875 12.46875 L 4.4375 13.625 L 4.875 14.375 L 6.46875 13.46875 L 7.46875 12.875 L 8.96875 12 L 8.125 11.5 z M 13.90625 11.5 L 13.03125 12 L 17.125 14.375 L 17.5625 13.625 L 13.90625 11.5 z " transform="translate(0.8611607,-5.0000001)" id="path4090" opacity="0.3" color="#000000" stroke-width="2"/>
  <path d="M 4.875 8.625 L 4.4375 9.375 L 6.46875 10.53125 L 7.46875 11.125 L 8.125 11.5 L 8.96875 11 L 7.46875 10.125 L 6.46875 9.53125 L 4.875 8.625 z M 17.125 8.625 L 13.03125 11 L 13.90625 11.5 L 17.5625 9.375 L 17.125 8.625 z M 10 12.75 L 8.46875 13.625 L 7.46875 14.1875 L 5.4375 15.375 L 4.875 14.375 L 4.4375 14.625 L 5.4375 16.375 L 7.46875 15.1875 L 8.46875 14.625 L 10 13.75 L 10 12.75 z M 12 12.75 L 12 13.75 L 16.5625 16.375 L 17.5625 14.625 L 17.125 14.375 L 16.5625 15.375 L 12 12.75 z M 10 18 L 10 19 L 12 19 L 12 18 L 10 18 z " transform="translate(0.8611607,-5.0000001)" id="path4099" opacity="0.2" fill="#ffffff" color="#000000" stroke-width="2"/>
  <path d="m 10.861161,-1.0000001 0,2.34375 0,1.15625 0,1.75 -1.5312503,-0.875 -1,-0.5625 -2.03125,-1.1875 -1,1.75 2.03125,1.15625 1,0.59375 1.5,0.875 -1.5,0.875 -1,0.59375 -2.03125,1.15625 1,1.7500001 2.03125,-1.1875001 1,-0.5625 1.5312503,-0.875 0,5.2500001 2,0 0,-5.2500001 4.5625,2.6250001 1,-1.7500001 -4.53125,-2.625 4.53125,-2.625 -1,-1.75 -4.5625,2.625 0,-1.75 0,-1.15625 0,-2.34375 -2,0 z m 0.599609,0.5996094 0.800782,0 0,1.7441406 0,1.15625 0,2.787109 4.939453,-2.8417965 0.40625,0.7089844 -4.91211,2.8457031 4.91211,2.845703 -0.40625,0.708985 -4.939453,-2.841797 0,5.6875001 -0.800782,0 0,-5.6835941 -2.4277343,1.386719 -1.001953,0.564453 -1.511719,0.882812 -0.402344,-0.701172 1.513672,-0.861328 1.003907,-0.595703 2.3867183,-1.392578 -2.3867183,-1.392578 -1.003907,-0.595703 -1.513672,-0.8613284 0.402344,-0.7011718 1.511719,0.8828124 1.001953,0.5644532 2.4277343,1.3867186 0,-2.783203 0,-1.15625 0,-1.7441406 z" id="path4054-2" inkscape:connector-curvature="0" shape-rendering="auto" mix-blend-mode="normal" color-interpolation-filters="linearRGB" isolation="auto" white-space="normal" opacity="0.3" solid-opacity="1" image-rendering="auto" solid-color="#000000" color="#000000" stroke-width="1.2" color-rendering="auto" color-interpolation="sRGB"/>
 </g>
</svg>
