<?xml version="1.0" encoding="UTF-8" standalone="no"?>
<svg xmlns="http://www.w3.org/2000/svg" xmlns:xlink="http://www.w3.org/1999/xlink" xmlns:sodipodi="http://sodipodi.sourceforge.net/DTD/sodipodi-0.dtd" xmlns:inkscape="http://www.inkscape.org/namespaces/inkscape" width="22" height="22" version="1.0">
 <defs id="defs4">
  <linearGradient inkscape:collect="always" xlink:href="#StandardGradient" id="linearGradient2549" gradientUnits="userSpaceOnUse" gradientTransform="matrix(0.9247229,0,0,1.0872097,16.939944,2.9976422)" y1="0.922" x2="0" y2="17.478"/>
  <linearGradient id="StandardGradient" gradientTransform="scale(0.9219544,1.0846523)" y1="0.922" x2="0" y2="19.387" gradientUnits="userSpaceOnUse">
   <stop id="stop3283" stop-opacity="0.275"/>
   <stop offset="1" id="stop2651" stop-opacity="0.55"/>
  </linearGradient>
  <linearGradient inkscape:collect="always" xlink:href="#StandardGradient" id="linearGradient2406" gradientUnits="userSpaceOnUse" gradientTransform="matrix(0.9219544,0,0,1.0846523,0,-1)" y1="2.766" x2="0" y2="19.387"/>
  <linearGradient inkscape:collect="always" xlink:href="#StandardGradient" id="linearGradient4636" gradientUnits="userSpaceOnUse" gradientTransform="matrix(0.9219544,0,0,1.0846523,-0.01723507,0.96875)" y1="2.766" x2="0" y2="15.702"/>
  <linearGradient inkscape:collect="always" xlink:href="#StandardGradient" id="linearGradient2405" gradientUnits="userSpaceOnUse" gradientTransform="matrix(0.9219544,0,0,1.0846523,-0.01723507,-0.03125)" y1="2.766" x2="0" y2="15.702"/>
  <linearGradient inkscape:collect="always" xlink:href="#StandardGradient" id="linearGradient2407" gradientUnits="userSpaceOnUse" gradientTransform="matrix(0.9219544,0,0,1.0846523,-0.01723507,-1.03125)" y1="2.766" x2="0" y2="15.702"/>
  <linearGradient inkscape:collect="always" xlink:href="#StandardGradient" id="linearGradient2542" gradientUnits="userSpaceOnUse" gradientTransform="matrix(0.9247229,0,0,1.0872097,-2.060056,5.9976422)" y1="0.922" x2="0" y2="17.478"/>
  <linearGradient inkscape:collect="always" xlink:href="#StandardGradient" id="linearGradient3644" gradientUnits="userSpaceOnUse" gradientTransform="matrix(0.9219544,0,0,1.0846523,-30.017235,-0.03125)" y1="2.766" x2="0" y2="15.702"/>
  <clipPath id="clipPath3651">
   <path d="m -30,0 0,22 22,0 0,-22 -22,0 z m 4,2 3.96875,0 c 0.554,0 1,0.446 1,1 l 0,1 8.5,0 c 0.669688,0 1.243585,0.3963931 1.4375,1 C -11.04026,5.1544781 -11,5.326875 -11,5.5 l 0,0.5 -5,0 -1,0 -4.21875,0 L -27,6 l 0,-1 0,-2 c 0,-0.554 0.446,-1 1,-1 z m -0.5,5 5,0 8,0 2,0 c 0.831,0 1.5,0.669 1.5,1.5 l 0,8 c 0,0.831 -0.669,1.5 -1.5,1.5 l -0.5,0 0,0.25 0,1.25 c 0,0.831 -0.669,1.5 -1.5,1.5 l -8,0 c -0.831,0 -1.5,-0.669 -1.5,-1.5 l 0,-1.5 -3.5,0 c -0.831,0 -1.5,-0.669 -1.5,-1.5 l 0,-8 C -28,7.669 -27.331,7 -26.5,7 z m 6,2 C -20.777,9 -21,9.223 -21,9.5 l 0,9 c 0,0.277 0.223,0.5 0.5,0.5 l 6,0 c 0.277,0 0.5,-0.223 0.5,-0.5 l 0,-9 C -14,9.223 -14.223,9 -14.5,9 l -2.90625,0 -2.09375,0 -1,0 z" id="path3653"/>
  </clipPath>
  <radialGradient inkscape:collect="always" xlink:href="#StandardGradient" id="radialGradient3799" gradientUnits="userSpaceOnUse" gradientTransform="matrix(1.1111111,-7.219351e-8,7.2193516e-8,1.1111112,-1.6666678,-1.4619872)" cx="15" cy="14.816" r="9"/>
  <radialGradient inkscape:collect="always" xlink:href="#StandardGradient" id="radialGradient3790" gradientUnits="userSpaceOnUse" gradientTransform="matrix(1.2222222,-1.4352098e-8,1.4352098e-8,1.2222222,-23.133333,-2.9081851)" cx="13.2" cy="13.02" r="9"/>
  <linearGradient id="StandardGradient-9" gradientTransform="scale(1.0598527,0.9435274)" y1="3.213" x2="0" y2="20.14" gradientUnits="userSpaceOnUse">
   <stop id="stop3389" stop-opacity="0.863"/>
   <stop offset="1" id="stop3391" stop-opacity="0.471"/>
  </linearGradient>
  <linearGradient inkscape:collect="always" xlink:href="#StandardGradient-9" id="linearGradient3832" gradientUnits="userSpaceOnUse" gradientTransform="scale(1.0598527,0.9435274)" y1="3.213" x2="0" y2="20.14"/>
  <radialGradient inkscape:collect="always" xlink:href="#StandardGradient" id="radialGradient3846" cx="12.528" cy="15.04" r="8.969" gradientTransform="matrix(1.783972,5.4155153e-8,-3.7231666e-8,1.2264807,-40.34953,-3.4443056)" gradientUnits="userSpaceOnUse"/>
  <radialGradient inkscape:collect="always" xlink:href="#StandardGradient" id="radialGradient3824" cx="11.5" cy="15.55" r="7" gradientUnits="userSpaceOnUse" gradientTransform="matrix(2.2857143,-9.35065e-8,6.4285715e-8,1.5714285,-14.285715,-9.4357131)"/>
  <radialGradient inkscape:collect="always" xlink:href="#StandardGradient" id="radialGradient3839" gradientUnits="userSpaceOnUse" gradientTransform="matrix(2.2857143,-9.35065e-8,6.4285715e-8,1.5714285,-14.285715,-8.4357131)" cx="11.5" cy="15.55" r="7"/>
  <radialGradient inkscape:collect="always" xlink:href="#StandardGradient" id="radialGradient3091" gradientUnits="userSpaceOnUse" gradientTransform="matrix(2.2778694,0,0,1.2857142,8.863206,-6.1159154)" cx="10.181" cy="16.423" r="7"/>
  <radialGradient inkscape:collect="always" xlink:href="#StandardGradient" id="radialGradient3046" gradientUnits="userSpaceOnUse" gradientTransform="matrix(2.2778694,0,0,1.2857142,-11.136794,-6.1159154)" cx="10.181" cy="16.423" r="7"/>
  <radialGradient inkscape:collect="always" xlink:href="#StandardGradient" id="radialGradient3064" gradientUnits="userSpaceOnUse" gradientTransform="matrix(2.2778694,0,0,1.2857142,-11.136794,-5.1159154)" cx="10.181" cy="16.423" r="7"/>
  <radialGradient inkscape:collect="always" xlink:href="#StandardGradient" id="radialGradient3851" gradientUnits="userSpaceOnUse" gradientTransform="matrix(2.1333333,0,0,1.3333334,-13.6,-4.9484178)" cx="12" cy="14.961" r="7.5"/>
  <radialGradient inkscape:collect="always" xlink:href="#StandardGradient" id="radialGradient3867" gradientUnits="userSpaceOnUse" gradientTransform="matrix(2.1333333,0,0,1.3333334,-13.6,-3.9484178)" cx="12" cy="14.961" r="7.5"/>
  <radialGradient inkscape:collect="always" xlink:href="#StandardGradient" id="radialGradient3955" gradientUnits="userSpaceOnUse" gradientTransform="matrix(-2.1333333,0,0,1.3333334,38.6,-4.9484178)" cx="12.469" cy="14.961" r="7.5"/>
 </defs>
 <metadata id="metadata7"/>
 <g inkscape:label="Calque 1" id="layer1" inkscape:groupmode="layer">
  <path d="m 13.75,2.4375 c 0.267987,0 0.715999,0.1222494 1.03125,0.4375 L 16.90625,5 c 0.586594,0.5865937 0.586594,1.5071563 0,2.09375 L 16,8 20.5,8 C 21.309895,8 22,8.6901052 22,9.5 l 0,3 c 0,0.809895 -0.690105,1.5 -1.5,1.5 l -4.5,0 0.90625,0.90625 c 0.586592,0.586593 0.586592,1.507157 0,2.09375 l -2.125,2.125 c -0.549254,0.549254 -1.513246,0.549254 -2.0625,0 a 0.99300419,0.99300419 0 0 1 -0.03125,0 L 5.59375,12 C 5.152795,13.10692 4.255766,14 3,14 1.358825,14 0,12.641175 0,11 0,9.3588246 1.358825,8 3,8 4.255766,8 5.152795,8.8930799 5.59375,10 L 12.6875,2.875 a 0.99300419,0.99300419 0 0 1 0.03125,0 C 13.034001,2.5597479 13.482015,2.4375 13.75,2.4375 z m 0,1 c -0.12781,0 -0.245816,0.027066 -0.34375,0.125 L 6,11 l 7.40625,7.4375 c 0.195869,0.195869 0.491631,0.195869 0.6875,0 l 2.125,-2.125 c 0.195869,-0.195869 0.195869,-0.522881 0,-0.71875 L 13.625,13 20.5,13 c 0.277,0 0.5,-0.223 0.5,-0.5 l 0,-3 C 21,9.223 20.777,9 20.5,9 l -6.875,0 2.59375,-2.59375 c 0.195869,-0.1958686 0.195869,-0.5228814 0,-0.71875 l -2.125,-2.125 C 13.995816,3.464566 13.87781,3.4375 13.75,3.4375 z M 3,9 C 1.895431,9 1,9.8954305 1,11 1,12.104569 1.895431,13 3,13 4.104569,13 5,12.104569 5,11 5,9.8954305 4.104569,9 3,9 z" id="path3972" inkscape:connector-curvature="0" opacity="0.05" fill="#ffffff" color="#000000" stroke-width="0.8"/>
  <path d="m 13.75,3.4375 c 0.12781,0 0.245816,0.027066 0.34375,0.125 l 2.125,2.125 c 0.195869,0.1958686 0.195869,0.5228814 0,0.71875 L 13.625,9 20.5,9 C 20.777,9 21,9.223 21,9.5 l 0,3 c 0,0.277 -0.223,0.5 -0.5,0.5 l -6.875,0 2.59375,2.59375 c 0.195869,0.195869 0.195869,0.522881 0,0.71875 l -2.125,2.125 c -0.195869,0.195869 -0.491631,0.195869 -0.6875,0 L 6,11 13.40625,3.5625 c 0.09793,-0.097934 0.21594,-0.125 0.34375,-0.125 z M 3,9 C 4.104569,9 5,9.8954305 5,11 5,12.104569 4.104569,13 3,13 1.895431,13 1,12.104569 1,11 1,9.8954305 1.895431,9 3,9 z" id="rect3051" inkscape:connector-curvature="0" fill="url(#radialGradient3955)" color="#000000" stroke-width="0.8"/>
  <rect rx="0.5" y="-12" x="2" height="4" width="12" id="rect3059" opacity="0.2" fill="#ffffff" color="#000000" stroke-width="0.8"/>
  <rect inkscape:transform-center-y="-3.1819819" transform="matrix(0.70710678,0.70710678,-0.70710678,0.70710678,0,0)" inkscape:transform-center-x="3.1819821" id="rect3061" width="9" height="4" x="-6.03" y="-19.11" rx="0.5" opacity="0.2" fill="#ffffff" color="#000000" stroke-width="0.8"/>
  <rect rx="0.5" y="0.97" x="8.111" height="4" width="9" id="rect3063" inkscape:transform-center-x="3.1819818" transform="matrix(0.70710678,-0.70710678,0.70710678,0.70710678,0,0)" inkscape:transform-center-y="3.1819822" opacity="0.2" fill="#ffffff" color="#000000" stroke-width="0.8"/>
  <path inkscape:connector-curvature="0" id="path3065" d="m 14,-13 3,3 -3,3 z" fill="#ffffff"/>
  <path d="m 13.75,3.4375 c 0.12781,0 0.245816,0.027066 0.34375,0.125 l 2.125,2.125 c 0.195869,0.1958686 0.195869,0.5228814 0,0.71875 L 13.625,9 20.5,9 C 20.777,9 21,9.223 21,9.5 l 0,3 c 0,0.277 -0.223,0.5 -0.5,0.5 l -6.875,0 2.59375,2.59375 c 0.195869,0.195869 0.195869,0.522881 0,0.71875 l -2.125,2.125 c -0.195869,0.195869 -0.491631,0.195869 -0.6875,0 L 6,11 13.40625,3.5625 c 0.09793,-0.097934 0.21594,-0.125 0.34375,-0.125 z m 0,0.5 L 6.6875,11 l 7.0625,7.09375 2.125,-2.125 c -0.0037,0.0037 -0.0037,-0.03492 0,-0.03125 L 13.28125,13.34375 A 0.50711427,0.50711427 0 0 1 13.625,12.5 l 6.875,0 0,-3 -6.875,0 A 0.50711427,0.50711427 0 0 1 13.28125,8.65625 L 15.875,6.0625 c -0.0037,0.00367 -0.0037,-0.03492 0,-0.03125 L 13.75,3.9375 z M 3,9 C 4.104569,9 5,9.8954305 5,11 5,12.104569 4.104569,13 3,13 1.895431,13 1,12.104569 1,11 1,9.8954305 1.895431,9 3,9 z m 0,0.5 c -0.830531,0 -1.5,0.669468 -1.5,1.5 0,0.830531 0.669469,1.5 1.5,1.5 0.830531,0 1.5,-0.669469 1.5,-1.5 C 4.5,10.169468 3.830531,9.5 3,9.5 z" id="path3165" inkscape:connector-curvature="0" opacity="0.3" color="#000000" stroke-width="0.8"/>
  <path d="m 13.75,3.4375 c 0.12781,0 0.245816,0.027066 0.34375,0.125 l 2.125,2.125 c 0.195869,0.1958686 0.195869,0.5228814 0,0.71875 l -0.15625,0.15625 -1.96875,-2 C 13.995816,4.464566 13.87781,4.4375 13.75,4.4375 c -0.12781,0 -0.245816,0.027066 -0.34375,0.125 L 6.5,11.5 6,11 13.40625,3.5625 c 0.09793,-0.097934 0.21594,-0.125 0.34375,-0.125 z M 20.5,9 C 20.777,9 21,9.223 21,9.5 l 0,1 C 21,10.223 20.777,10 20.5,10 l -6.875,0 1,-1 5.875,0 z M 3,9 C 4.104569,9 5,9.8954305 5,11 5,11.172589 4.978604,11.340241 4.9375,11.5 4.715537,10.637301 3.93198,10 3,10 2.06802,10 1.284463,10.637301 1.0625,11.5 1.021396,11.340241 1,11.172589 1,11 1,9.8954305 1.895431,9 3,9 z m 11.625,5 1.59375,1.59375 c 0.195869,0.195869 0.195869,0.522881 0,0.71875 L 16.0625,16.4375 13.625,14 l 1,0 z" id="path3178" inkscape:connector-curvature="0" opacity="0.3" color="#000000" stroke-width="0.8"/>
  <path d="m 16.0625,6.5625 0.15625,0.125 c 0.195869,0.1958686 0.195869,0.5228814 0,0.71875 L 14.625,9 l -1,0 2.4375,-2.4375 z M 6.5,11.5 l 6.90625,6.9375 c 0.195869,0.195869 0.491631,0.195869 0.6875,0 l 1.96875,-2 0.15625,0.15625 c 0.195869,0.195869 0.195869,0.522881 0,0.71875 l -2.125,2.125 c -0.195869,0.195869 -0.491631,0.195869 -0.6875,0 L 6,12 6.5,11.5 z m -1.5625,0 C 4.978604,11.659759 5,11.827411 5,12 5,13.104569 4.104569,14 3,14 1.895431,14 1,13.104569 1,12 1,11.827411 1.021396,11.659759 1.0625,11.5 1.284463,12.362699 2.06802,13 3,13 3.93198,13 4.715537,12.362699 4.9375,11.5 z m 16.0625,1 0,1 c 0,0.277 -0.223,0.5 -0.5,0.5 l -5.875,0 -1,-1 6.875,0 c 0.277,0 0.5,-0.223 0.5,-0.5 z" id="path3957" inkscape:connector-curvature="0" opacity="0.2" fill="#ffffff" color="#000000" stroke-width="0.8"/>
 </g>
</svg>
