<?xml version="1.0" encoding="UTF-8" standalone="no"?>
<svg xmlns="http://www.w3.org/2000/svg" xmlns:xlink="http://www.w3.org/1999/xlink" xmlns:sodipodi="http://sodipodi.sourceforge.net/DTD/sodipodi-0.dtd" xmlns:inkscape="http://www.inkscape.org/namespaces/inkscape" width="22" height="22" version="1.0">
 <defs id="defs4">
  <linearGradient inkscape:collect="always" xlink:href="#StandardGradient" id="linearGradient2549" gradientUnits="userSpaceOnUse" gradientTransform="matrix(0.9247229,0,0,1.0872097,16.939944,2.9976422)" y1="0.922" x2="0" y2="17.478"/>
  <linearGradient id="StandardGradient" gradientTransform="scale(0.9219544,1.0846523)" y1="0.922" x2="0" y2="19.387" gradientUnits="userSpaceOnUse">
   <stop id="stop3283" stop-opacity="0.235"/>
   <stop id="stop3850" offset="0.7" stop-opacity="0.392"/>
   <stop offset="1" id="stop2651" stop-opacity="0.55"/>
  </linearGradient>
  <linearGradient inkscape:collect="always" xlink:href="#StandardGradient" id="linearGradient2406" gradientUnits="userSpaceOnUse" gradientTransform="matrix(0.9219544,0,0,1.0846523,0,-1)" y1="2.766" x2="0" y2="19.387"/>
  <linearGradient inkscape:collect="always" xlink:href="#StandardGradient" id="linearGradient4636" gradientUnits="userSpaceOnUse" gradientTransform="matrix(0.9219544,0,0,1.0846523,-0.01723507,0.96875)" y1="2.766" x2="0" y2="15.702"/>
  <linearGradient inkscape:collect="always" xlink:href="#StandardGradient" id="linearGradient2405" gradientUnits="userSpaceOnUse" gradientTransform="matrix(0.9219544,0,0,1.0846523,-0.01723507,-0.03125)" y1="2.766" x2="0" y2="15.702"/>
  <linearGradient inkscape:collect="always" xlink:href="#StandardGradient" id="linearGradient2407" gradientUnits="userSpaceOnUse" gradientTransform="matrix(0.9219544,0,0,1.0846523,-0.01723507,-1.03125)" y1="2.766" x2="0" y2="15.702"/>
  <linearGradient inkscape:collect="always" xlink:href="#StandardGradient" id="linearGradient2542" gradientUnits="userSpaceOnUse" gradientTransform="matrix(0.9247229,0,0,1.0872097,-2.060056,5.9976422)" y1="0.922" x2="0" y2="17.478"/>
  <linearGradient inkscape:collect="always" xlink:href="#StandardGradient" id="linearGradient3644" gradientUnits="userSpaceOnUse" gradientTransform="matrix(0.9219544,0,0,1.0846523,-30.017235,-0.03125)" y1="2.766" x2="0" y2="15.702"/>
  <clipPath id="clipPath3651">
   <path d="m -30,0 0,22 22,0 0,-22 -22,0 z m 4,2 3.96875,0 c 0.554,0 1,0.446 1,1 l 0,1 8.5,0 c 0.669688,0 1.243585,0.3963931 1.4375,1 C -11.04026,5.1544781 -11,5.326875 -11,5.5 l 0,0.5 -5,0 -1,0 -4.21875,0 L -27,6 l 0,-1 0,-2 c 0,-0.554 0.446,-1 1,-1 z m -0.5,5 5,0 8,0 2,0 c 0.831,0 1.5,0.669 1.5,1.5 l 0,8 c 0,0.831 -0.669,1.5 -1.5,1.5 l -0.5,0 0,0.25 0,1.25 c 0,0.831 -0.669,1.5 -1.5,1.5 l -8,0 c -0.831,0 -1.5,-0.669 -1.5,-1.5 l 0,-1.5 -3.5,0 c -0.831,0 -1.5,-0.669 -1.5,-1.5 l 0,-8 C -28,7.669 -27.331,7 -26.5,7 z m 6,2 C -20.777,9 -21,9.223 -21,9.5 l 0,9 c 0,0.277 0.223,0.5 0.5,0.5 l 6,0 c 0.277,0 0.5,-0.223 0.5,-0.5 l 0,-9 C -14,9.223 -14.223,9 -14.5,9 l -2.90625,0 -2.09375,0 -1,0 z" id="path3653"/>
  </clipPath>
  <radialGradient inkscape:collect="always" xlink:href="#StandardGradient" id="radialGradient3799" gradientUnits="userSpaceOnUse" gradientTransform="matrix(1.1111111,-7.219351e-8,7.2193516e-8,1.1111112,-1.6666678,-1.4619872)" cx="15" cy="14.816" r="9"/>
  <radialGradient inkscape:collect="always" xlink:href="#StandardGradient" id="radialGradient3790" gradientUnits="userSpaceOnUse" gradientTransform="matrix(1.2222222,-1.4352098e-8,1.4352098e-8,1.2222222,-23.133333,-2.9081851)" cx="13.2" cy="13.02" r="9"/>
  <radialGradient inkscape:collect="always" xlink:href="#StandardGradient" id="radialGradient3080" gradientUnits="userSpaceOnUse" gradientTransform="matrix(1.7777777,0,0,1.2222222,-9.7824554,-2.9081853)" cx="12.253" cy="13.02" r="9"/>
  <radialGradient inkscape:collect="always" xlink:href="#StandardGradient" id="radialGradient3869" gradientUnits="userSpaceOnUse" gradientTransform="matrix(1.7777777,0,0,1.2222222,-9.7824554,-1.9081853)" cx="12.253" cy="13.02" r="9"/>
  <linearGradient inkscape:collect="always" xlink:href="#StandardGradient-2" id="linearGradient3818" gradientUnits="userSpaceOnUse" gradientTransform="matrix(0.9984539,0,0,0.9984539,0.9540224,2.0576756)" y1="1.996" x2="0" y2="18.974"/>
  <linearGradient id="StandardGradient-2" gradientTransform="matrix(0.9984539,0,0,0.9984539,-0.0459776,0.05767558)" y1="1.996" x2="0" y2="18.974" gradientUnits="userSpaceOnUse">
   <stop id="stop3277-0" stop-opacity="0.863"/>
   <stop offset="1" id="stop3279-6" stop-opacity="0.471"/>
  </linearGradient>
  <radialGradient inkscape:collect="always" xlink:href="#StandardGradient" id="radialGradient3859" cx="12" cy="12.853" r="8" gradientTransform="matrix(2,-4.6844936e-8,2.6350281e-8,1.1250002,-12,-1.4595605)" gradientUnits="userSpaceOnUse"/>
 </defs>
 <metadata id="metadata7"/>
 <g inkscape:label="Calque 1" id="layer1" inkscape:groupmode="layer">
  <path d="M 6.875 0.96875 A 1.0152112 1.0152112 0 0 0 6.78125 1 A 1.0152112 1.0152112 0 0 0 6.28125 1.28125 L 3.28125 4.28125 A 1.0152112 1.0152112 0 0 0 3.28125 5.71875 L 14.28125 16.71875 A 1.0152112 1.0152112 0 0 0 14.625 16.9375 L 19.625 18.9375 A 1.0152112 1.0152112 0 0 0 20.9375 17.625 L 18.9375 12.625 A 1.0152112 1.0152112 0 0 0 18.71875 12.28125 L 7.71875 1.28125 A 1.0152112 1.0152112 0 0 0 6.875 0.96875 z M 7 2 L 18 13 L 20 18 L 15 16 L 4 5 L 7 2 z M 16.03125 12.96875 L 15 14.03125 L 15.96875 15.0625 L 18 16 L 17.03125 14 L 16.03125 12.96875 z M 5 16 C 3.8987607 16 3.0000002 16.898762 3 18 C 3 19.101238 3.8987597 20.000002 5 20 C 5.6364651 20 6.1289622 19.657769 6.5 19.1875 C 6.8710376 19.657769 7.363533 20.000001 8 20 C 8.6364651 20 9.1289623 19.657769 9.5 19.1875 C 9.8710376 19.657769 10.363533 20.000001 11 20 C 12.101237 20 13 19.101238 13 18 C 13 16.898762 12.101236 16.000002 11 16 C 10.363534 16 9.8710373 16.342231 9.5 16.8125 C 9.1289626 16.342232 8.6364645 16.000001 8 16 C 7.3635335 16 6.8710373 16.342231 6.5 16.8125 C 6.1289626 16.342232 5.6364645 16.000001 5 16 z M 5 17 C 5.5520002 17.000001 6 17.448 6 18 C 6.0000002 18.552001 5.552 19 5 19 C 4.4480001 19.000001 4 18.552 4 18 C 4.0000001 17.448001 4.448 17 5 17 z M 8 17 C 8.5520001 17.000001 9 17.448 9 18 C 9.0000001 18.552001 8.552 19 8 19 C 7.448 19.000001 7 18.552 7 18 C 7 17.448001 7.448 17 8 17 z M 11 17 C 11.552 17.000001 12 17.448 12 18 C 12 18.552001 11.552 19 11 19 C 10.448 19.000001 10 18.552 10 18 C 10 17.448001 10.448 17 11 17 z " id="path3881" opacity="0.05" fill="#ffffff"/>
  <path d="m 7,2 -3,3 11,11 5,2 -2,-5 z m 9.025708,10.971006 1.014315,1.034506 L 18,16 15.9673,15.052792 14.985148,14.033134 z M 5,17 c -0.552,0 -0.9999999,0.448001 -1,1 0,0.552 0.4480001,1.000001 1,1 0.552,0 1.0000002,-0.447999 1,-1 0,-0.552 -0.4479998,-0.999999 -1,-1 z m 3,0 c -0.552,0 -1,0.448001 -1,1 0,0.552 0.448,1.000001 1,1 0.552,0 1.0000001,-0.447999 1,-1 0,-0.552 -0.4479999,-0.999999 -1,-1 z m 3,0 c -0.552,0 -1,0.448001 -1,1 0,0.552 0.448,1.000001 1,1 0.552,0 1,-0.447999 1,-1 0,-0.552 -0.448,-0.999999 -1,-1 z" id="path3801" inkscape:connector-curvature="0" sodipodi:nodetypes="ccccccccccccsssssssssssssss" fill="url(#radialGradient3859)"/>
  <path inkscape:connector-curvature="0" d="M 7,2 4,5 4.5,5.5 7,3 18,14 19.53125,17.8125 20,18 18,13 7,2 z M 15.46875,14.53125 15,15.03125 15.96875,16.0625 18,17 17.375,15.71875 15.96875,15.0625 l -0.5,-0.53125 z M 5,17 c -0.552,0 -0.9999999,0.448001 -1,1 0,0.187223 0.066598,0.350127 0.15625,0.5 C 4.3309235,18.207994 4.6352229,18 5,18 c 0.3647772,1e-6 0.6690766,0.207994 0.84375,0.5 C 5.9334017,18.350127 6.0000001,18.187223 6,18 6,17.448 5.5520002,17.000001 5,17 z m 3,0 c -0.552,0 -1,0.448001 -1,1 0,0.187223 0.066598,0.350127 0.15625,0.5 C 7.3309235,18.207994 7.6352229,18 8,18 c 0.3647771,1e-6 0.6690766,0.207994 0.84375,0.5 C 8.9334017,18.350127 9,18.187223 9,18 9,17.448 8.5520001,17.000001 8,17 z m 3,0 c -0.552,0 -1,0.448001 -1,1 0,0.187223 0.0666,0.350127 0.15625,0.5 C 10.330923,18.207994 10.635223,18 11,18 c 0.364777,1e-6 0.669077,0.207994 0.84375,0.5 C 11.933402,18.350127 12,18.187223 12,18 12,17.448 11.552,17.000001 11,17 z" id="path3824" opacity="0.3"/>
  <path inkscape:connector-curvature="0" d="M 4.5,5.5 4,6 15,17 20,19 19.53125,17.8125 15,16 4.5,5.5 z M 16.03125,12.96875 15,14.03125 l 0.46875,0.5 0.5625,-0.5625 1,1.03125 L 17.375,15.71875 18,16 l -0.96875,-2 -1,-1.03125 z M 4.15625,18.5 C 4.0665983,18.649873 4,18.812777 4,19 4,19.552 4.4480001,20.000001 5,20 5.552,20 6.0000002,19.552001 6,19 6,18.812777 5.9334017,18.649873 5.84375,18.5 5.6690765,18.792006 5.3647771,19 5,19 c -0.364777,1e-6 -0.6690765,-0.207994 -0.84375,-0.5 z m 3,0 C 7.0665983,18.649873 7,18.812777 7,19 7,19.552 7.448,20.000001 8,20 8.552,20 9.0000001,19.552001 9,19 9,18.812777 8.9334017,18.649873 8.84375,18.5 8.6690765,18.792006 8.3647771,19 8,19 c -0.3647771,1e-6 -0.6690765,-0.207994 -0.84375,-0.5 z m 3,0 C 10.066598,18.649873 10,18.812777 10,19 c 0,0.552 0.448,1.000001 1,1 0.552,0 1,-0.447999 1,-1 0,-0.187223 -0.0666,-0.350127 -0.15625,-0.5 C 11.669077,18.792006 11.364777,19 11,19 c -0.364777,1e-6 -0.669077,-0.207994 -0.84375,-0.5 z" id="path3833" opacity="0.2" fill="#ffffff"/>
  <path d="M 7 2 L 4 5 L 15 16 L 20 18 L 18 13 L 7 2 z M 7 2.5625 L 17.6875 13.25 L 17.71875 13.28125 L 19.3125 17.3125 L 15.28125 15.71875 L 15.25 15.6875 L 4.5625 5 L 7 2.5625 z M 15.96875 12.5625 A 0.38524555 0.38524555 0 0 0 15.90625 12.59375 A 0.38524555 0.38524555 0 0 0 15.75 12.6875 L 14.71875 13.75 A 0.38524555 0.38524555 0 0 0 14.71875 14.28125 L 15.6875 15.3125 A 0.38524555 0.38524555 0 0 0 15.8125 15.40625 L 17.84375 16.34375 A 0.38524555 0.38524555 0 0 0 18.34375 15.84375 L 17.375 13.84375 A 0.38524555 0.38524555 0 0 0 17.3125 13.71875 L 16.3125 12.6875 A 0.38524555 0.38524555 0 0 0 15.96875 12.5625 z M 16.03125 12.96875 L 17.03125 14 L 18 16 L 15.96875 15.0625 L 15 14.03125 L 16.03125 12.96875 z M 5 17 C 4.448 17 4.0000001 17.448001 4 18 C 4 18.552 4.4480001 19.000001 5 19 C 5.552 19 6.0000002 18.552001 6 18 C 6 17.448 5.5520002 17.000001 5 17 z M 8 17 C 7.448 17 7 17.448001 7 18 C 7 18.552 7.448 19.000001 8 19 C 8.552 19 9.0000001 18.552001 9 18 C 9 17.448 8.5520001 17.000001 8 17 z M 11 17 C 10.448 17 10 17.448001 10 18 C 10 18.552 10.448 19.000001 11 19 C 11.552 19 12 18.552001 12 18 C 12 17.448 11.552 17.000001 11 17 z M 5 17.375 C 5.3435799 17.375001 5.625 17.656421 5.625 18 C 5.6250001 18.34358 5.3435793 18.625 5 18.625 C 4.6564222 18.625001 4.375 18.343579 4.375 18 C 4.3750001 17.656422 4.6564217 17.375 5 17.375 z M 8 17.375 C 8.3435798 17.375001 8.625 17.656421 8.625 18 C 8.6250001 18.34358 8.3435793 18.625 8 18.625 C 7.656422 18.625001 7.375 18.343579 7.375 18 C 7.375 17.656423 7.6564217 17.375 8 17.375 z M 11 17.375 C 11.34358 17.375001 11.625 17.656421 11.625 18 C 11.625 18.34358 11.343579 18.625 11 18.625 C 10.656422 18.625001 10.375 18.343579 10.375 18 C 10.375 17.656423 10.656422 17.375 11 17.375 z " id="path3861" opacity="0.3"/>
 </g>
</svg>
