<?xml version="1.0" encoding="UTF-8" standalone="no"?>
<svg xmlns="http://www.w3.org/2000/svg" xmlns:xlink="http://www.w3.org/1999/xlink" xmlns:sodipodi="http://sodipodi.sourceforge.net/DTD/sodipodi-0.dtd" xmlns:inkscape="http://www.inkscape.org/namespaces/inkscape" width="22" height="22" version="1.0">
 <defs id="defs4">
  <linearGradient id="StandardGradient" gradientTransform="scale(0.9219544,1.0846523)" y1="0.922" x2="0" y2="19.387" gradientUnits="userSpaceOnUse">
   <stop id="stop3283" stop-opacity="0.235"/>
   <stop id="stop3850" offset="0.7" stop-opacity="0.392"/>
   <stop offset="1" id="stop2651" stop-opacity="0.55"/>
  </linearGradient>
  <radialGradient inkscape:collect="always" xlink:href="#StandardGradient" id="radialGradient4093" cx="12.3" cy="12.06" r="5" gradientTransform="matrix(0,-1.6000003,-3.1999999,0,50.597838,32.679778)" gradientUnits="userSpaceOnUse"/>
  <radialGradient inkscape:collect="always" xlink:href="#StandardGradient" id="radialGradient3787" gradientUnits="userSpaceOnUse" gradientTransform="matrix(0,-1.6000003,-3.1999999,0,50.597838,33.679778)" cx="12.3" cy="12.06" r="5"/>
 </defs>
 <metadata id="metadata7"/>
 <g inkscape:label="Calque 1" id="layer1" inkscape:groupmode="layer">
  <path d="M 4.875 3 A 1.0050079 1.0050079 0 0 0 4 4 L 4 17 A 1.0050079 1.0050079 0 0 0 5.53125 17.84375 L 14 12.375 L 14 16 A 1.0050079 1.0050079 0 0 0 15 17 L 18 17 A 1.0050079 1.0050079 0 0 0 19 16 L 19 5 A 1.0050079 1.0050079 0 0 0 18 4 L 15 4 A 1.0050079 1.0050079 0 0 0 14 5 L 14 8.65625 L 5.5625 3.15625 A 1.0050079 1.0050079 0 0 0 4.875 3 z M 5 4 L 15 10.53125 L 15 5 L 18 5 L 18 16 L 15 16 L 15 10.53125 L 5 17 L 5 4 z " id="path3800" opacity="0.05" fill="#ffffff"/>
  <path inkscape:connector-curvature="0" d="m 18.000129,5.0000002 0,10.9999998 -3,0 0,-5.471665 L 5.0001287,17 l 0,-12.9999998 10.0000003,6.5283348 0,-5.5283348 z" id="Symbol" inkscape:label="#path2392" sodipodi:nodetypes="ccccccccc" fill="url(#radialGradient4093)"/>
  <path d="M 5 4 L 5 17 L 15 10.53125 L 5 4 z M 15 10.53125 L 15 16 L 18 16 L 18 5 L 15 5 L 15 10.53125 z M 5.46875 4.84375 L 14.1875 10.53125 L 5.46875 16.15625 L 5.46875 4.84375 z M 15.46875 5.46875 L 17.53125 5.46875 L 17.53125 15.53125 L 15.46875 15.53125 L 15.46875 10.53125 L 15.46875 5.46875 z " id="path3004" opacity="0.3"/>
  <path d="M 5 4 L 5 5 L 14.21875 11.03125 L 15 10.53125 L 5 4 z M 15 5 L 15 6 L 18 6 L 18 5 L 15 5 z " id="path2995" opacity="0.3"/>
  <path d="M 14.21875 11.03125 L 5 17 L 5 18 L 15 11.53125 L 14.21875 11.03125 z M 15 16 L 15 17 L 18 17 L 18 16 L 15 16 z " id="path3785" opacity="0.2" fill="#ffffff"/>
 </g>
</svg>
