<?xml version="1.0" encoding="UTF-8" standalone="no"?>
<svg xmlns="http://www.w3.org/2000/svg" xmlns:xlink="http://www.w3.org/1999/xlink" xmlns:sodipodi="http://sodipodi.sourceforge.net/DTD/sodipodi-0.dtd" xmlns:inkscape="http://www.inkscape.org/namespaces/inkscape" width="22" height="22" version="1.0">
 <defs id="defs4">
  <linearGradient id="StandardGradient" gradientTransform="scale(0.9219544,1.0846523)" y1="0.922" x2="0" y2="19.387" gradientUnits="userSpaceOnUse">
   <stop id="stop3283" stop-opacity="0.235"/>
   <stop id="stop3850" offset="0.7" stop-opacity="0.392"/>
   <stop offset="1" id="stop2651" stop-opacity="0.55"/>
  </linearGradient>
  <radialGradient inkscape:collect="always" xlink:href="#StandardGradient" id="radialGradient3806" gradientUnits="userSpaceOnUse" gradientTransform="matrix(2.9090908,0,0,1.4211702,-18.45344,-5.2494256)" cx="9.666" cy="12.915" r="3.191"/>
  <radialGradient inkscape:collect="always" xlink:href="#StandardGradient" id="radialGradient3812" gradientUnits="userSpaceOnUse" gradientTransform="matrix(5.0147297,0,0,2.5073655,-36.472819,-19.381757)" cx="9.666" cy="12.915" r="3.191"/>
  <radialGradient inkscape:collect="always" xlink:href="#StandardGradient" id="radialGradient2999" gradientUnits="userSpaceOnUse" gradientTransform="matrix(5.0147297,0,0,2.8207854,-36.472819,-24.554466)" cx="9.666" cy="13.313" r="3.191"/>
  <radialGradient inkscape:collect="always" xlink:href="#StandardGradient" id="radialGradient3796" gradientUnits="userSpaceOnUse" gradientTransform="matrix(5.0147297,0,0,2.8207854,-36.472819,-23.554466)" cx="9.666" cy="13.313" r="3.191"/>
 </defs>
 <metadata id="metadata7"/>
 <g inkscape:label="Calque 1" id="layer1" inkscape:groupmode="layer">
  <path d="M 18,10.5 6,17.999999 6,3 z" id="Symbol" inkscape:connector-curvature="0" sodipodi:nodetypes="cccc" fill="url(#radialGradient2999)"/>
  <path d="M 6 3 L 6 18 L 18 10.5 L 6 3 z M 6.4375 3.78125 L 17.1875 10.5 L 6.4375 17.21875 L 6.4375 3.78125 z " id="path3010" opacity="0.3"/>
  <path d="M 6 3 L 6 4 L 17.1875 11 L 18 10.5 L 6 3 z " id="path3001" opacity="0.3"/>
  <path d="M 17.1875 11 L 6 18 L 6 19 L 18 11.5 L 17.1875 11 z " id="path3794" opacity="0.2" fill="#ffffff"/>
  <path d="M 5.84375 1.96875 A 1.0152112 1.0152112 0 0 0 5.75 2 A 1.0152112 1.0152112 0 0 0 5 3 L 5 18 A 1.0152112 1.0152112 0 0 0 6.53125 18.875 L 18.53125 11.375 A 1.0152112 1.0152112 0 0 0 18.53125 9.625 L 6.53125 2.125 A 1.0152112 1.0152112 0 0 0 5.84375 1.96875 z M 6 3 L 18 10.5 L 6 18 L 6 3 z " id="path3809" opacity="0.05" fill="#ffffff"/>
 </g>
</svg>
