<?xml version="1.0" encoding="UTF-8" standalone="no"?>
<svg xmlns="http://www.w3.org/2000/svg" xmlns:xlink="http://www.w3.org/1999/xlink" xmlns:sodipodi="http://sodipodi.sourceforge.net/DTD/sodipodi-0.dtd" xmlns:inkscape="http://www.inkscape.org/namespaces/inkscape" width="22" height="22" version="1.0">
 <defs id="defs4">
  <linearGradient inkscape:collect="always" xlink:href="#StandardGradient" id="linearGradient2549" gradientUnits="userSpaceOnUse" gradientTransform="matrix(0.9247229,0,0,1.0872097,16.939944,2.9976422)" y1="0.922" x2="0" y2="17.478"/>
  <linearGradient id="StandardGradient" gradientTransform="scale(0.9219544,1.0846523)" y1="0.922" x2="0" y2="19.387" gradientUnits="userSpaceOnUse">
   <stop id="stop3283" stop-opacity="0.235"/>
   <stop id="stop3850" offset="0.7" stop-opacity="0.392"/>
   <stop offset="1" id="stop2651" stop-opacity="0.55"/>
  </linearGradient>
  <linearGradient inkscape:collect="always" xlink:href="#StandardGradient" id="linearGradient2406" gradientUnits="userSpaceOnUse" gradientTransform="matrix(0.9219544,0,0,1.0846523,0,-1)" y1="2.766" x2="0" y2="19.387"/>
  <linearGradient inkscape:collect="always" xlink:href="#StandardGradient" id="linearGradient4636" gradientUnits="userSpaceOnUse" gradientTransform="matrix(0.9219544,0,0,1.0846523,-0.01723507,0.96875)" y1="2.766" x2="0" y2="15.702"/>
  <linearGradient inkscape:collect="always" xlink:href="#StandardGradient" id="linearGradient2405" gradientUnits="userSpaceOnUse" gradientTransform="matrix(0.9219544,0,0,1.0846523,-0.01723507,-0.03125)" y1="2.766" x2="0" y2="15.702"/>
  <linearGradient inkscape:collect="always" xlink:href="#StandardGradient" id="linearGradient2407" gradientUnits="userSpaceOnUse" gradientTransform="matrix(0.9219544,0,0,1.0846523,-0.01723507,-1.03125)" y1="2.766" x2="0" y2="15.702"/>
  <linearGradient inkscape:collect="always" xlink:href="#StandardGradient" id="linearGradient2542" gradientUnits="userSpaceOnUse" gradientTransform="matrix(0.9247229,0,0,1.0872097,-2.060056,5.9976422)" y1="0.922" x2="0" y2="17.478"/>
  <linearGradient inkscape:collect="always" xlink:href="#StandardGradient" id="linearGradient3644" gradientUnits="userSpaceOnUse" gradientTransform="matrix(0.9219544,0,0,1.0846523,-30.017235,-0.03125)" y1="2.766" x2="0" y2="15.702"/>
  <clipPath id="clipPath3651">
   <path d="m -30,0 0,22 22,0 0,-22 -22,0 z m 4,2 3.96875,0 c 0.554,0 1,0.446 1,1 l 0,1 8.5,0 c 0.669688,0 1.243585,0.3963931 1.4375,1 C -11.04026,5.1544781 -11,5.326875 -11,5.5 l 0,0.5 -5,0 -1,0 -4.21875,0 L -27,6 l 0,-1 0,-2 c 0,-0.554 0.446,-1 1,-1 z m -0.5,5 5,0 8,0 2,0 c 0.831,0 1.5,0.669 1.5,1.5 l 0,8 c 0,0.831 -0.669,1.5 -1.5,1.5 l -0.5,0 0,0.25 0,1.25 c 0,0.831 -0.669,1.5 -1.5,1.5 l -8,0 c -0.831,0 -1.5,-0.669 -1.5,-1.5 l 0,-1.5 -3.5,0 c -0.831,0 -1.5,-0.669 -1.5,-1.5 l 0,-8 C -28,7.669 -27.331,7 -26.5,7 z m 6,2 C -20.777,9 -21,9.223 -21,9.5 l 0,9 c 0,0.277 0.223,0.5 0.5,0.5 l 6,0 c 0.277,0 0.5,-0.223 0.5,-0.5 l 0,-9 C -14,9.223 -14.223,9 -14.5,9 l -2.90625,0 -2.09375,0 -1,0 z" id="path3653"/>
  </clipPath>
  <radialGradient inkscape:collect="always" xlink:href="#StandardGradient" id="radialGradient3799" gradientUnits="userSpaceOnUse" gradientTransform="matrix(1.1111111,-7.219351e-8,7.2193516e-8,1.1111112,-1.6666678,-1.4619872)" cx="15" cy="14.816" r="9"/>
  <radialGradient inkscape:collect="always" xlink:href="#StandardGradient" id="radialGradient3790" gradientUnits="userSpaceOnUse" gradientTransform="matrix(1.2222222,-1.4352098e-8,1.4352098e-8,1.2222222,-23.133333,-2.9081851)" cx="13.2" cy="13.02" r="9"/>
  <radialGradient inkscape:collect="always" xlink:href="#StandardGradient" id="radialGradient3080" gradientUnits="userSpaceOnUse" gradientTransform="matrix(1.7777777,0,0,1.2222222,-9.7824554,-2.9081853)" cx="12.253" cy="13.02" r="9"/>
  <radialGradient inkscape:collect="always" xlink:href="#StandardGradient" id="radialGradient3869" gradientUnits="userSpaceOnUse" gradientTransform="matrix(1.7777777,0,0,1.2222222,-9.7824554,-1.9081853)" cx="12.253" cy="13.02" r="9"/>
  <linearGradient inkscape:collect="always" xlink:href="#StandardGradient-0" id="linearGradient2427" gradientUnits="userSpaceOnUse" gradientTransform="matrix(1.0765258,0,0,0.9227364,-21.008013,-0.8102835)" y1="1.962" x2="0" y2="23.64"/>
  <linearGradient id="StandardGradient-0" gradientTransform="matrix(1.0765258,0,0,0.9227364,-20.008013,0.1584665)" y1="4.163" x2="0" y2="17.17" gradientUnits="userSpaceOnUse">
   <stop id="stop3337" stop-opacity="0.863"/>
   <stop id="stop3339" offset="1" stop-opacity="0.471"/>
  </linearGradient>
  <linearGradient inkscape:collect="always" xlink:href="#StandardGradient-0" id="linearGradient3111" gradientUnits="userSpaceOnUse" gradientTransform="matrix(1.0765258,0,0,0.9227364,-23.008013,1.1897165)" y1="1.962" x2="0" y2="23.64"/>
  <radialGradient inkscape:collect="always" xlink:href="#StandardGradient" id="radialGradient3884" cx="12" cy="13.147" r="9" gradientTransform="matrix(1.7777778,0,0,0.99999986,-9.3333333,-0.1470569)" gradientUnits="userSpaceOnUse"/>
  <radialGradient inkscape:collect="always" xlink:href="#StandardGradient" id="radialGradient3917" gradientUnits="userSpaceOnUse" gradientTransform="matrix(1.7777778,0,0,0.99999986,-9.3333333,0.8529431)" cx="12" cy="13.147" r="9"/>
  <radialGradient inkscape:collect="always" xlink:href="#StandardGradient" id="radialGradient3103" gradientUnits="userSpaceOnUse" gradientTransform="matrix(-1.7777778,0,0,-0.99999986,44.333333,9.147057)" cx="12" cy="13.147" r="9"/>
  <radialGradient inkscape:collect="always" xlink:href="#StandardGradient" id="radialGradient3106" gradientUnits="userSpaceOnUse" gradientTransform="matrix(1.7777779,6.8876067e-8,-3.1305164e-8,0.99999999,-20.333336,16.852942)" cx="18.19" cy="-3.853" r="9"/>
  <radialGradient inkscape:collect="always" xlink:href="#StandardGradient" id="radialGradient3893" gradientUnits="userSpaceOnUse" gradientTransform="matrix(1.7777779,6.8876067e-8,-3.1305164e-8,0.99999999,-20.333336,17.852942)" cx="18.19" cy="-3.853" r="9"/>
 </defs>
 <metadata id="metadata7"/>
 <g inkscape:label="Calque 1" id="layer1" inkscape:groupmode="layer">
  <path d="M 18.90625 -0.03125 A 1.0029546 1.0029546 0 0 0 18.28125 0.28125 L 17 1.5625 L 15.71875 0.28125 A 1.0029546 1.0029546 0 0 0 14.875 0 A 1.0029546 1.0029546 0 0 0 14 1 L 14 7 A 1.0029546 1.0029546 0 0 0 14.125 7.46875 C 13.79324 7.224889 13.436024 7 13 7 L 3 7 C 1.9077653 7 1 7.9077653 1 9 L 1 19 A 1.0029546 1.0029546 0 0 0 2 20 L 14 20 A 1.0029546 1.0029546 0 0 0 15 19 L 15 9 C 15 8.5742757 14.764771 8.2336226 14.53125 7.90625 A 1.0029546 1.0029546 0 0 0 15 8 L 21 8 A 1.0029546 1.0029546 0 0 0 21.71875 6.28125 L 20.4375 5 L 21.71875 3.71875 A 1.0029546 1.0029546 0 0 0 21.71875 2.28125 L 19.71875 0.28125 A 1.0029546 1.0029546 0 0 0 18.90625 -0.03125 z M 15 1 L 17 3 L 19 1 L 21 3 L 19 5 L 21 7 L 15 7 L 15 1 z M 3 8 L 13 8 C 13.554 8 14 8.446 14 9 L 14 19 L 2 19 L 2 9 C 2 8.446 2.446 8 3 8 z M 4 12 L 4 17 L 12 17 L 12 12 L 4 12 z M 5 13 L 11 13 L 11 16 L 5 16 L 5 13 z " id="path3916" opacity="0.05" fill="#ffffff"/>
  <path d="M 15 1 L 15 7 L 21 7 L 19 5 L 21 3 L 19 1 L 17 3 L 15 1 z M 3 8 C 2.446 8 2 8.446 2 9 L 2 19 L 14 19 L 14 9 C 14 8.446 13.554 8 13 8 L 3 8 z M 8.5 9 C 8.776 9 9 9.224 9 9.5 C 9 9.776 8.776 10 8.5 10 C 8.224 10 8 9.776 8 9.5 C 8 9.224 8.224 9 8.5 9 z M 10.5 9 C 10.776 9 11 9.224 11 9.5 C 11 9.776 10.776 10 10.5 10 C 10.224 10 10 9.776 10 9.5 C 10 9.224 10.224 9 10.5 9 z M 12.5 9 C 12.776 9 13 9.224 13 9.5 C 13 9.776 12.776 10 12.5 10 C 12.224 10 12 9.776 12 9.5 C 12 9.224 12.224 9 12.5 9 z M 4 12 L 12 12 L 12 17 L 4 17 L 4 12 z " id="path3095" fill="url(#radialGradient3106)"/>
  <path d="M 15 1 L 15 7 L 21 7 L 19 5 L 21 3 L 19 1 L 17 3 L 15 1 z M 19 1.5 L 20.5 3 L 18.75 4.75 A 0.35314178 0.35314178 0 0 0 18.71875 4.78125 A 0.35314178 0.35314178 0 0 0 18.75 5.25 L 20.15625 6.65625 L 15.34375 6.65625 L 15.34375 1.84375 L 16.75 3.25 A 0.35314178 0.35314178 0 0 0 16.78125 3.28125 A 0.35314178 0.35314178 0 0 0 17.25 3.25 L 19 1.5 z M 3 8 C 2.446 8 2 8.446 2 9 L 2 19 L 14 19 L 14 9 C 14 8.446 13.554 8 13 8 L 3 8 z M 3 8.34375 L 13 8.34375 C 13.364487 8.34375 13.65625 8.6355132 13.65625 9 L 13.65625 18.65625 L 2.34375 18.65625 L 2.34375 9 C 2.34375 8.6355132 2.6355132 8.34375 3 8.34375 z M 8.5 8.65625 C 8.0329472 8.65625 7.65625 9.0329472 7.65625 9.5 C 7.65625 9.9670528 8.0329472 10.34375 8.5 10.34375 C 8.9670528 10.34375 9.34375 9.9670528 9.34375 9.5 C 9.34375 9.0329472 8.9670528 8.65625 8.5 8.65625 z M 10.5 8.65625 C 10.032947 8.65625 9.65625 9.0329472 9.65625 9.5 C 9.65625 9.9670528 10.032947 10.34375 10.5 10.34375 C 10.967053 10.34375 11.34375 9.9670528 11.34375 9.5 C 11.34375 9.0329472 10.967053 8.65625 10.5 8.65625 z M 12.5 8.65625 C 12.032947 8.65625 11.65625 9.0329472 11.65625 9.5 C 11.65625 9.9670528 12.032947 10.34375 12.5 10.34375 C 12.967053 10.34375 13.34375 9.9670528 13.34375 9.5 C 13.34375 9.0329472 12.967053 8.65625 12.5 8.65625 z M 8.5 9 C 8.776 9 9 9.224 9 9.5 C 9 9.776 8.776 10 8.5 10 C 8.224 10 8 9.776 8 9.5 C 8 9.224 8.224 9 8.5 9 z M 10.5 9 C 10.776 9 11 9.224 11 9.5 C 11 9.776 10.776 10 10.5 10 C 10.224 10 10 9.776 10 9.5 C 10 9.224 10.224 9 10.5 9 z M 12.5 9 C 12.776 9 13 9.224 13 9.5 C 13 9.776 12.776 10 12.5 10 C 12.224 10 12 9.776 12 9.5 C 12 9.224 12.224 9 12.5 9 z M 3.875 11.65625 A 0.35314178 0.35314178 0 0 0 3.65625 12 L 3.65625 17 A 0.35314178 0.35314178 0 0 0 3.71875 17.1875 A 0.35314178 0.35314178 0 0 0 4 17.34375 L 12 17.34375 A 0.35314178 0.35314178 0 0 0 12.1875 17.28125 A 0.35314178 0.35314178 0 0 0 12.34375 17 L 12.34375 12 A 0.35314178 0.35314178 0 0 0 12.28125 11.8125 A 0.35314178 0.35314178 0 0 0 12 11.65625 L 4 11.65625 A 0.35314178 0.35314178 0 0 0 3.875 11.65625 z M 4 12 L 12 12 L 12 17 L 4 17 L 4 12 z " id="path3108" opacity="0.3"/>
  <path d="M 15 1 L 15 2 L 17 4 L 19 2 L 20.5 3.5 L 21 3 L 19 1 L 17 3 L 15 1 z M 19.5 5.5 L 19 6 L 20 7 L 21 7 L 19.5 5.5 z M 3 8 C 2.446 8 2 8.446 2 9 L 2 10 C 2 9.446 2.446 9 3 9 L 8.5 9 L 10.5 9 L 12.5 9 L 13 9 C 13.554 9 14 9.446 14 10 L 14 9 C 14 8.446 13.554 8 13 8 L 3 8 z M 8.5 10 C 8.224 10 8 10.224 8 10.5 C 8 10.776 8.224 11 8.5 11 C 8.776 11 9 10.776 9 10.5 C 9 10.224 8.776 10 8.5 10 z M 10.5 10 C 10.224 10 10 10.224 10 10.5 C 10 10.776 10.224 11 10.5 11 C 10.776 11 11 10.776 11 10.5 C 11 10.224 10.776 10 10.5 10 z M 12.5 10 C 12.224 10 12 10.224 12 10.5 C 12 10.776 12.224 11 12.5 11 C 12.776 11 13 10.776 13 10.5 C 13 10.224 12.776 10 12.5 10 z M 4 17 L 4 18 L 12 18 L 12 17 L 4 17 z " id="path3889" opacity="0.3"/>
  <path d="M 20.5 3.5 L 19 5 L 19.5 5.5 L 21 4 L 20.5 3.5 z M 15 7 L 15 8 L 21 8 L 20 7 L 15 7 z M 8.5 9 C 8.224 9 8 9.224 8 9.5 C 8 9.776 8.224 10 8.5 10 C 8.776 10 9 9.776 9 9.5 C 9 9.224 8.776 9 8.5 9 z M 10.5 9 C 10.224 9 10 9.224 10 9.5 C 10 9.776 10.224 10 10.5 10 C 10.776 10 11 9.776 11 9.5 C 11 9.224 10.776 9 10.5 9 z M 12.5 9 C 12.224 9 12 9.224 12 9.5 C 12 9.776 12.224 10 12.5 10 C 12.776 10 13 9.776 13 9.5 C 13 9.224 12.776 9 12.5 9 z M 4 12 L 4 13 L 12 13 L 12 12 L 4 12 z M 2 19 L 2 20 L 14 20 L 14 19 L 2 19 z " id="path3901" opacity="0.2" fill="#ffffff"/>
 </g>
</svg>
