<?xml version="1.0" encoding="UTF-8" standalone="no"?>
<svg xmlns:dc="http://purl.org/dc/elements/1.1/" xmlns:cc="http://creativecommons.org/ns#" xmlns:rdf="http://www.w3.org/1999/02/22-rdf-syntax-ns#" xmlns:svg="http://www.w3.org/2000/svg" xmlns="http://www.w3.org/2000/svg" xmlns:sodipodi="http://sodipodi.sourceforge.net/DTD/sodipodi-0.dtd" xmlns:inkscape="http://www.inkscape.org/namespaces/inkscape" height="512" width="512" version="1.1" viewBox="0 0 512 512" id="svg244" inkscape:version="0.91 r" sodipodi:docname="drive-harddisk-scsi.svg">
<defs id="defs287" />
<sodipodi:namedview pagecolor="#ffffff" bordercolor="#666666" borderopacity="1" objecttolerance="10" gridtolerance="10" guidetolerance="10" inkscape:pageopacity="0" inkscape:pageshadow="2" inkscape:window-width="640" inkscape:window-height="480" id="namedview285" showgrid="false" inkscape:zoom="0.4609375" inkscape:cx="256" inkscape:cy="256" inkscape:window-x="0" inkscape:window-y="0" inkscape:window-maximized="0" inkscape:current-layer="svg244" />
<metadata id="metadata84">
<rdf:RDF>
<cc:Work rdf:about="">
<dc:format>image/svg+xml</dc:format>
<dc:type rdf:resource="http://purl.org/dc/dcmitype/StillImage" />
</cc:Work>
</rdf:RDF>
</metadata>
<path id="path4" fill="#68af4c" d="m471.95 253.05c0 120.9-98.01 218.9-218.9 218.9-120.9 0-218.9-98.01-218.9-218.9 0-120.9 98.01-218.9 218.9-218.9 120.9 0 218.9 98.01 218.9 218.9" fill-rule="evenodd" />
<text id="text20" font-size="129.23" line-height="125%" y="231.36" x="729.64" font-family="Gentium Book Basic" word-spacing="0" letter-spacing="0">
<tspan id="tspan22" y="231.36" x="729.64" />
</text>
<text id="text24" transform="scale(4.0128 .2492)" font-size="46.954" y="579.25" x="378.91" font-family="Arial" text-anchor="middle" />
<text id="text26" font-size="129.23" line-height="125%" y="151.36" x="1310.91" font-family="Gentium Book Basic" word-spacing="0" letter-spacing="0">
<tspan id="tspan28" y="151.36" x="1310.91" />
</text>
<text id="text30" transform="scale(4.0128 .2492)" font-size="46.954" y="258.22" x="523.76" font-family="Arial" text-anchor="middle" />
<text id="text32" font-size="129.23" line-height="125%" y="-29.901" x="239.33" font-family="Gentium Book Basic" word-spacing="0" letter-spacing="0">
<tspan id="tspan34" y="-29.901" x="239.33" />
</text>
<text id="text36" transform="scale(4.0128 .2492)" font-size="46.954" y="-469.14" x="256.72" font-family="Arial" text-anchor="middle" />
<text id="text38" font-size="129.23" line-height="125%" y="-246.37" x="1337.38" font-family="Gentium Book Basic" word-spacing="0" letter-spacing="0">
<tspan id="tspan40" y="-246.37" x="1337.38" />
</text>
<text id="text42" transform="scale(4.0128 .2492)" font-size="46.954" y="-1337.81" x="530.36" font-family="Arial" text-anchor="middle" />
<text id="text44" font-size="129.23" line-height="125%" y="-326.38" x="1918.65" font-family="Gentium Book Basic" word-spacing="0" letter-spacing="0">
<tspan id="tspan46" y="-326.38" x="1918.65" />
</text>
<text id="text48" transform="scale(4.0128 .2492)" font-size="46.954" y="-1658.85" x="675.21" font-family="Arial" text-anchor="middle" />
<text id="text50" font-size="129.23" line-height="125%" y="-798.78" x="1529.53" font-family="Gentium Book Basic" word-spacing="0" letter-spacing="0">
<tspan id="tspan52" y="-798.78" x="1529.53" />
</text>
<text id="text54" transform="scale(4.0128 .2492)" font-size="46.954" y="-3554.51" x="578.24" font-family="Arial" text-anchor="middle" />
<text id="text56" font-size="129.23" line-height="125%" y="-878.78" x="2110.79" font-family="Gentium Book Basic" word-spacing="0" letter-spacing="0">
<tspan id="tspan58" y="-878.78" x="2110.79" />
</text>
<text id="text60" transform="scale(4.0128 .2492)" font-size="46.954" y="-3875.54" x="723.09" font-family="Arial" text-anchor="middle" />
<text id="text62" font-size="208.33" line-height="125%" y="535.94" x="277.99" font-family="Gentium Book Basic" word-spacing="0" letter-spacing="0">
<tspan id="tspan64" y="535.94" x="277.99" />
</text>
<g id="g66" fill="#fff">
<path id="path68" d="m161.75 95.38c-16.628 0-29.969 13.403-29.969 30.03v261.19c0 16.628 13.341 30.03 29.969 30.03h188.47c16.628 0 30-13.403 30-30.03v-261.19c0-16.628-13.372-30.03-30-30.03h-188.47m7.906 22.22h172.69c8.935 0 16.13 7.159 16.13 16.09v244.56c0 8.935-7.19 16.13-16.12 16.13h-172.69c-8.935 0-16.16-7.19-16.16-16.12v-244.56c0-8.935 7.222-16.09 16.16-16.09" />
<path id="path70" d="m307.88 138.48c-6.163 0-11.124 5.441-11.124 12.21v35.588c0 6.769 4.961 12.21 11.124 12.21s11.124-5.441 11.124-12.21v-35.59c0-6.769-4.961-12.21-11.124-12.21" />
<path id="path72" d="m277.55 138.83c-6.163 0-11.124 5.441-11.124 12.21v35.588c0 6.769 4.961 12.21 11.124 12.21s11.124-5.441 11.124-12.21v-35.59c0-6.769-4.961-12.21-11.124-12.21" />
<path id="path74" d="m202.73 138.96c-6.769 0-12.21 4.961-12.21 11.124s5.441 11.124 12.21 11.124h35.588c6.769 0 12.21-4.961 12.21-11.124s-5.441-11.124-12.21-11.124h-35.59" />
<path id="path76" d="m202.73 169.77c-6.769 0-12.21 4.961-12.21 11.124s5.441 11.124 12.21 11.124h35.588c6.769 0 12.21-4.961 12.21-11.124s-5.441-11.124-12.21-11.124h-35.59" />
<path id="path78" d="m256.41 211.21-7.418 7.418-68.57 68.57-7.418 7.583 7.418 7.418 68.57 68.57 7.583 7.583 7.418-7.583 54.892-54.892h-29.836l-32.474 32.638-53.738-53.738 53.57-53.738 32.638 32.639h29.836l-55.06-55.06-7.418-7.418m0 73.02v21.1h84.4v-21.1h-84.4" color="#000000" />
</g>
</svg>
