<?xml version="1.0" encoding="UTF-8" standalone="no"?>
<svg xmlns:dc="http://purl.org/dc/elements/1.1/" xmlns:cc="http://creativecommons.org/ns#" xmlns:rdf="http://www.w3.org/1999/02/22-rdf-syntax-ns#" xmlns:svg="http://www.w3.org/2000/svg" xmlns="http://www.w3.org/2000/svg" xmlns:sodipodi="http://sodipodi.sourceforge.net/DTD/sodipodi-0.dtd" xmlns:inkscape="http://www.inkscape.org/namespaces/inkscape" height="512" width="512" version="1.1" viewBox="0 0 512 512" id="svg674" inkscape:version="0.91 r" sodipodi:docname="input-gaming.svg">
<defs id="defs711" />
<sodipodi:namedview pagecolor="#ffffff" bordercolor="#666666" borderopacity="1" objecttolerance="10" gridtolerance="10" guidetolerance="10" inkscape:pageopacity="0" inkscape:pageshadow="2" inkscape:window-width="640" inkscape:window-height="480" id="namedview709" showgrid="false" inkscape:zoom="0.4609375" inkscape:cx="256" inkscape:cy="256" inkscape:window-x="0" inkscape:window-y="0" inkscape:window-maximized="0" inkscape:current-layer="svg674" />
<metadata id="metadata72">
<rdf:RDF>
<cc:Work rdf:about="">
<dc:format>image/svg+xml</dc:format>
<dc:type rdf:resource="http://purl.org/dc/dcmitype/StillImage" />
</cc:Work>
</rdf:RDF>
</metadata>
<path style="fill:#e75177;fill-rule:evenodd" inkscape:connector-curvature="0" d="m 471.95,253.05 c 0,120.9 -98.01,218.9 -218.9,218.9 -120.9,0 -218.9,-98.01 -218.9,-218.9 0,-120.9 98.01,-218.9 218.9,-218.9 120.9,0 218.9,98.01 218.9,218.9" id="path6" />
<text id="text20" font-size="129.23" line-height="125%" y="231.36" x="729.64" font-family="Gentium Book Basic" word-spacing="0" letter-spacing="0">
<tspan id="tspan22" y="231.36" x="729.64" />
</text>
<text id="text24" transform="scale(4.0128 .2492)" font-size="46.954" y="579.25" x="378.91" font-family="Arial" text-anchor="middle" />
<text id="text26" font-size="129.23" line-height="125%" y="151.36" x="1310.91" font-family="Gentium Book Basic" word-spacing="0" letter-spacing="0">
<tspan id="tspan28" y="151.36" x="1310.91" />
</text>
<text id="text30" transform="scale(4.0128 .2492)" font-size="46.954" y="258.22" x="523.76" font-family="Arial" text-anchor="middle" />
<text id="text32" font-size="129.23" line-height="125%" y="-29.901" x="239.33" font-family="Gentium Book Basic" word-spacing="0" letter-spacing="0">
<tspan id="tspan34" y="-29.901" x="239.33" />
</text>
<text id="text36" transform="scale(4.0128 .2492)" font-size="46.954" y="-469.14" x="256.72" font-family="Arial" text-anchor="middle" />
<text id="text38" font-size="129.23" line-height="125%" y="-246.37" x="1337.38" font-family="Gentium Book Basic" word-spacing="0" letter-spacing="0">
<tspan id="tspan40" y="-246.37" x="1337.38" />
</text>
<text id="text42" transform="scale(4.0128 .2492)" font-size="46.954" y="-1337.81" x="530.36" font-family="Arial" text-anchor="middle" />
<text id="text44" font-size="129.23" line-height="125%" y="-326.38" x="1918.65" font-family="Gentium Book Basic" word-spacing="0" letter-spacing="0">
<tspan id="tspan46" y="-326.38" x="1918.65" />
</text>
<text id="text48" transform="scale(4.0128 .2492)" font-size="46.954" y="-1658.85" x="675.21" font-family="Arial" text-anchor="middle" />
<text id="text50" font-size="129.23" line-height="125%" y="-798.78" x="1529.53" font-family="Gentium Book Basic" word-spacing="0" letter-spacing="0">
<tspan id="tspan52" y="-798.78" x="1529.53" />
</text>
<text id="text54" transform="scale(4.0128 .2492)" font-size="46.954" y="-3554.51" x="578.24" font-family="Arial" text-anchor="middle" />
<text id="text56" font-size="129.23" line-height="125%" y="-878.78" x="2110.79" font-family="Gentium Book Basic" word-spacing="0" letter-spacing="0">
<tspan id="tspan58" y="-878.78" x="2110.79" />
</text>
<text id="text60" transform="scale(4.0128 .2492)" font-size="46.954" y="-3875.54" x="723.09" font-family="Arial" text-anchor="middle" />
<text id="text62" font-size="208.33" line-height="125%" y="535.94" x="277.99" font-family="Gentium Book Basic" word-spacing="0" letter-spacing="0">
<tspan id="tspan64" y="535.94" x="277.99" />
</text>
<path id="path66" fill="#fff" d="m173.75 153c-1.886 0.148-4.802 1.367-6.125 2.594-51.683 44.669-78.79 126.21-39.719 203.41 18.02-2.416 14.673-1.028 24.969-6.188 51.27-44.22 112.9-42.481 156.75-28.781 0.01 0.003 0.022-0.003 0.031 0v0.031c16.878 5.909 33.619 15.16 49.38 28.75 10.296 5.159 6.949 3.771 24.969 6.188 8.759-17.306 14.15-34.819 16.719-52.09 1.163-7.522 1.799-14.812 1.781-21.22-0.008-0.004-0.023 0.004-0.031 0-0.001-0.053 0.001-0.104 0-0.156-0.882-45.707-16.12-96.72-47.625-128.5-2.307-2.384-7.215-3.5-9.313-3.5-76.999 9.957-85.15 13.04-171.44-0.531-0.116 0-0.218-0.01-0.344 0m163.84 20.06c6.15 0 11.156 4.975 11.156 11.125s-5.01 11.125-11.156 11.125c-6.15 0-11.125-4.975-11.125-11.125s4.975-11.125 11.125-11.125m-156.03 10.125c17.732 0 32.09 14.362 32.09 32.09 0 17.732-14.362 32.13-32.09 32.13-17.732 0-32.12-14.393-32.12-32.12 0-17.732 14.393-32.09 32.13-32.09m130.88 9.25c5.671 0 10.281 4.579 10.281 10.25s-4.61 10.281-10.281 10.281-10.281-4.61-10.281-10.281 4.61-10.25 10.281-10.25m40.781 8.094c9.824 0 17.781 7.988 17.781 17.813s-7.957 17.781-17.781 17.781c-9.825 0-17.781-7.957-17.781-17.781 0-9.825 7.957-17.813 17.781-17.813m-42.22 20.531c8.387 0 15.187 6.801 15.188 15.188 0 8.387-6.801 15.188-15.188 15.188s-15.188-6.801-15.188-15.188 6.801-15.188 15.188-15.188" fill-rule="evenodd" />
</svg>
