<?xml version="1.0" encoding="UTF-8" standalone="no"?>
<svg xmlns="http://www.w3.org/2000/svg" xmlns:xlink="http://www.w3.org/1999/xlink" xmlns:sodipodi="http://sodipodi.sourceforge.net/DTD/sodipodi-0.dtd" xmlns:inkscape="http://www.inkscape.org/namespaces/inkscape" version="1.1" width="32" height="32">
 <metadata id="metadata8"/>
 <defs id="defs6">
  <linearGradient id="linearGradient3788-9">
   <stop id="stop3790-5" stop-opacity="0.51"/>
   <stop offset="1" id="stop3792-0" stop-opacity="0.392"/>
  </linearGradient>
  <linearGradient x2="20" x1="18" gradientTransform="matrix(-1,0,0,1,33,27)" gradientUnits="userSpaceOnUse" id="linearGradient3094-7" xlink:href="#linearGradient3930-68" inkscape:collect="always"/>
  <linearGradient x2="7" x1="5" gradientTransform="translate(-1,27)" gradientUnits="userSpaceOnUse" id="linearGradient3092-8" xlink:href="#linearGradient3930-68" inkscape:collect="always"/>
  <linearGradient id="linearGradient3930-68" inkscape:collect="always">
   <stop id="stop3932-4" stop-color="#ffffff"/>
   <stop id="stop3934-5" offset="1" stop-color="#ffffff" stop-opacity="0"/>
  </linearGradient>
  <linearGradient y2="13.1" x2="0" y1="11.03" gradientTransform="matrix(0.66666665,0,0,0.64516133,0.3333342,17.548387)" gradientUnits="userSpaceOnUse" id="linearGradient3975" xlink:href="#linearGradient3788-9" inkscape:collect="always"/>
  <linearGradient y2="52" x2="0" y1="27" gradientTransform="matrix(0.71794137,0,0,0.72,-3.0253029,5.5600007)" gradientUnits="userSpaceOnUse" id="linearGradient3972" xlink:href="#linearGradient3782" inkscape:collect="always"/>
  <linearGradient y2="39" x2="0" y1="16" gradientTransform="matrix(0.70270274,0,0,0.69565213,-0.513513,14.869565)" gradientUnits="userSpaceOnUse" id="linearGradient3969" xlink:href="#linearGradient3927-2" inkscape:collect="always"/>
  <linearGradient y2="9" x2="0" y1="11" gradientTransform="matrix(0.65,0,0,1,0.40000056,13.000001)" gradientUnits="userSpaceOnUse" id="linearGradient3966-3" xlink:href="#linearGradient3829-1" inkscape:collect="always"/>
  <linearGradient inkscape:collect="always" id="linearGradient3829-1">
   <stop id="stop3831-8"/>
   <stop offset="1" id="stop3833-0" stop-opacity="0"/>
  </linearGradient>
  <linearGradient id="linearGradient3782">
   <stop id="stop3784" stop-color="#ffffff"/>
   <stop id="stop3786" offset="1" stop-color="#e4e5e7"/>
  </linearGradient>
  <linearGradient id="linearGradient3927-2">
   <stop id="stop3929-8" stop-color="#f1f2f3"/>
   <stop offset="1" id="stop3931-8" stop-color="#e4e5e7"/>
  </linearGradient>
 </defs>
 <g transform="translate(0,-16)" inkscape:label="Ebene#1" id="layer4">
  <rect ry="1.474" rx="2.077" y="11.86" x="1.14" height="30" width="46" id="rect3915-0" transform="matrix(0.62131645,0,0,0.65055761,1.0014209,17.325535)" opacity="0.18" stroke="#000000" stroke-width="0"/>
  <path id="rect3967" transform="translate(0,16)" d="M 7,3 C 5.892,3 5,3.892 5,5 3.892,5 3,5.892 3,7 l 0,5 c 0,1.108 0.892,2 2,2 l 22,0 c 1.108,0 2,-0.892 2,-2 L 29,7 C 29,5.892 28.108,5 27,5 L 14,5 C 14,3.892 13.108,3 12,3 L 7,3 z" inkscape:connector-curvature="0" stroke="#000000" fill-opacity="0.659" stroke-width="0"/>
  <rect y="22" x="4" height="7" width="24" id="rect3969" fill="#8b8b8d" stroke="#000000" stroke-width="0" rx="1"/>
  <path d="m 7,20 5,0 c 0.526969,0 1,0.468145 1,1 l 0,1 0,0 -7,0 0,0 0,-1 c 0,-0.536986 0.4603177,-1 1,-1 z" id="rect3945" inkscape:connector-curvature="0" sodipodi:nodetypes="sssccccss" fill="#8b8b8d" stroke="#000000" stroke-width="0"/>
  <rect rx="2" y="24" x="1" height="20" width="30" id="rect3915" fill="url(#linearGradient3975)" stroke="#000000" stroke-width="0"/>
  <rect y="25" x="2" height="18" width="28" id="rect3957" rx="1" fill="url(#linearGradient3972)" stroke="#000000" stroke-width="0"/>
  <rect rx="0" y="26" x="3" height="16" width="26" id="rect3925" fill="url(#linearGradient3969)" stroke="#000000" stroke-width="0"/>
  <rect id="rect3827" width="26" height="2" x="3" y="22" opacity="0.173" fill="url(#linearGradient3966-3)" stroke="#102b68" stroke-width="0" rx="0"/>
  <path sodipodi:nodetypes="sscsscsss" inkscape:connector-curvature="0" id="rect3011" d="m 7,20 c -0.554,0 -1,0.446 -1,1 l 0,1 c 0,-0.554 0.446,-1 1,-1 l 5,0 c 0.554,0 1,0.446 1,1 l 0,-1 c 0,-0.554 -0.446,-1 -1,-1 z" opacity="0.15" fill="#ffffff" stroke="#767779" stroke-width="0"/>
  <path sodipodi:nodetypes="sscsccs" inkscape:connector-curvature="0" id="rect3891-8" d="m 5,22 c -0.554,0 -1,0.446 -1,1 l 0,1 c 0,-0.554 0.446,-1 1,-1 l 1,0 0,-1 z" opacity="0.15" fill="url(#linearGradient3092-8)" stroke="#767779" stroke-width="0"/>
  <path sodipodi:nodetypes="sscsccs" inkscape:connector-curvature="0" id="rect3891-8-0" d="m 27,22 c 0.554,0 1,0.446 1,1 l 0,1 c 0,-0.554 -0.446,-1 -1,-1 l -14,0 0,-1 z" opacity="0.15" fill="url(#linearGradient3094-7)" stroke="#767779" stroke-width="0"/>
 </g>
 <g id="layer1-0-71-1-3" transform="matrix(0.59999997,0,0,0.62698778,11.2,14.746024)" fill="#ffffff" color="#000000" stroke-width="1.7">
  <g id="layer1-6-9-8-7" transform="translate(-0.02867384,-0.7867384)" opacity="0.9">
   <path id="path4112-19-69-3-1-46-5-5" d="m 8.0286738,10.786738 c -0.8837844,0 -1.7582785,0.463138 -2.1184755,0.860829 l 2.1184755,2.303665 2.1390372,-2.283103 C 9.8075138,11.249876 8.9124582,10.786738 8.0286738,10.786738 z m 0,-3.9999996 c -1.847888,0 -3.5041267,0.736481 -4.8649357,1.861156 l 1.3245282,1.4137196 c 0.90637,-0.6491716 2.3168195,-1.2748756 3.4869315,-1.2748756 1.198417,0 2.6760272,0.639835 3.5952572,1.3180686 L 12.935091,8.6271534 C 11.574282,7.5024784 9.8765618,6.7867384 8.0286738,6.7867384 z m 0,-3.999999 c -2.853422,0 -5.468321,1.09634 -7.49999996,2.922777 l 1.29591676,1.459363 c 1.8117159,-1.588448 3.7176605,-2.382141 6.2040832,-2.382141 2.4864232,0 4.3343812,0.747499 6.2328602,2.414286 l 1.26714,-1.491508 C 13.496995,3.8830794 10.882095,2.7867394 8.0286738,2.7867394 z" inkscape:connector-curvature="0"/>
  </g>
 </g>
 <g id="layer1-0-71-1" transform="matrix(0.59999997,0,0,0.62698778,11.2,13.746024)" fill="#767779" color="#000000" stroke-width="1.7">
  <g id="layer1-6-9-8" transform="translate(-0.02867384,-0.7867384)" opacity="0.9">
   <path id="path4112-19-69-3-1-46-5" d="m 8.0286738,10.786738 c -0.8837844,0 -1.7582785,0.463138 -2.1184755,0.860829 l 2.1184755,2.303665 2.1390372,-2.283103 C 9.8075138,11.249876 8.9124582,10.786738 8.0286738,10.786738 z m 0,-3.9999996 c -1.847888,0 -3.5041267,0.736481 -4.8649357,1.861156 l 1.3245282,1.4137196 c 0.90637,-0.6491716 2.3168195,-1.2748756 3.4869315,-1.2748756 1.198417,0 2.6760272,0.639835 3.5952572,1.3180686 L 12.935091,8.6271534 C 11.574282,7.5024784 9.8765618,6.7867384 8.0286738,6.7867384 z m 0,-3.999999 c -2.853422,0 -5.468321,1.09634 -7.49999996,2.922777 l 1.29591676,1.459363 c 1.8117159,-1.588448 3.7176605,-2.382141 6.2040832,-2.382141 2.4864232,0 4.3343812,0.747499 6.2328602,2.414286 l 1.26714,-1.491508 C 13.496995,3.8830794 10.882095,2.7867394 8.0286738,2.7867394 z" inkscape:connector-curvature="0"/>
  </g>
 </g>
</svg>
