<?xml version="1.0" encoding="UTF-8" standalone="no"?>
<svg xmlns:dc="http://purl.org/dc/elements/1.1/" xmlns:cc="http://creativecommons.org/ns#" xmlns:rdf="http://www.w3.org/1999/02/22-rdf-syntax-ns#" xmlns:svg="http://www.w3.org/2000/svg" xmlns="http://www.w3.org/2000/svg" xmlns:sodipodi="http://sodipodi.sourceforge.net/DTD/sodipodi-0.dtd" xmlns:inkscape="http://www.inkscape.org/namespaces/inkscape" height="512" width="512" version="1.1" viewBox="0 0 512 512" id="svg103" inkscape:version="0.91 r" sodipodi:docname="appointment-soon.svg">
<defs id="defs140" />
<sodipodi:namedview pagecolor="#ffffff" bordercolor="#666666" borderopacity="1" objecttolerance="10" gridtolerance="10" guidetolerance="10" inkscape:pageopacity="0" inkscape:pageshadow="2" inkscape:window-width="640" inkscape:window-height="480" id="namedview138" showgrid="false" inkscape:zoom="0.4609375" inkscape:cx="256" inkscape:cy="256" inkscape:window-x="0" inkscape:window-y="0" inkscape:window-maximized="0" inkscape:current-layer="svg103" />
<metadata id="metadata72">
<rdf:RDF>
<cc:Work rdf:about="">
<dc:format>image/svg+xml</dc:format>
<dc:type rdf:resource="http://purl.org/dc/dcmitype/StillImage" />
</cc:Work>
</rdf:RDF>
</metadata>
<path id="path4" fill="#79c943" d="m471.95 253.05c0 120.9-98.01 218.91-218.91 218.91s-218.91-98.01-218.91-218.91 98.01-218.91 218.91-218.91 218.91 98.01 218.91 218.91" fill-rule="evenodd" />
<text id="text20" font-size="129.23" line-height="125%" y="231.36" x="729.64" font-family="Gentium Book Basic" word-spacing="0" letter-spacing="0">
<tspan id="tspan22" y="231.36" x="729.64" />
</text>
<text id="text24" transform="scale(4.0128 .2492)" font-size="46.954" y="579.26" x="378.91" font-family="Arial" text-anchor="middle" />
<text id="text26" font-size="129.23" line-height="125%" y="151.36" x="1310.91" font-family="Gentium Book Basic" word-spacing="0" letter-spacing="0">
<tspan id="tspan28" y="151.36" x="1310.91" />
</text>
<text id="text30" transform="scale(4.0128 .2492)" font-size="46.954" y="258.22" x="523.76" font-family="Arial" text-anchor="middle" />
<text id="text32" font-size="129.23" line-height="125%" y="-29.9" x="239.33" font-family="Gentium Book Basic" word-spacing="0" letter-spacing="0">
<tspan id="tspan34" y="-29.9" x="239.33" />
</text>
<text id="text36" transform="scale(4.0128 .2492)" font-size="46.954" y="-469.13" x="256.72" font-family="Arial" text-anchor="middle" />
<text id="text38" font-size="129.23" line-height="125%" y="-246.37" x="1337.38" font-family="Gentium Book Basic" word-spacing="0" letter-spacing="0">
<tspan id="tspan40" y="-246.37" x="1337.38" />
</text>
<text id="text42" transform="scale(4.0128 .2492)" font-size="46.954" y="-1337.8" x="530.36" font-family="Arial" text-anchor="middle" />
<text id="text44" font-size="129.23" line-height="125%" y="-326.37" x="1918.65" font-family="Gentium Book Basic" word-spacing="0" letter-spacing="0">
<tspan id="tspan46" y="-326.37" x="1918.65" />
</text>
<text id="text48" transform="scale(4.0128 .2492)" font-size="46.954" y="-1658.83" x="675.21" font-family="Arial" text-anchor="middle" />
<text id="text50" font-size="129.23" line-height="125%" y="-798.77" x="1529.53" font-family="Gentium Book Basic" word-spacing="0" letter-spacing="0">
<tspan id="tspan52" y="-798.77" x="1529.53" />
</text>
<text id="text54" transform="scale(4.0128 .2492)" font-size="46.954" y="-3554.48" x="578.24" font-family="Arial" text-anchor="middle" />
<text id="text56" font-size="129.23" line-height="125%" y="-878.78" x="2110.79" font-family="Gentium Book Basic" word-spacing="0" letter-spacing="0">
<tspan id="tspan58" y="-878.78" x="2110.79" />
</text>
<text id="text60" transform="scale(4.0128 .2492)" font-size="46.954" y="-3875.52" x="723.09" font-family="Arial" text-anchor="middle" />
<text id="text62" font-size="208.33" line-height="125%" y="535.94" x="277.99" font-family="Gentium Book Basic" word-spacing="0" letter-spacing="0">
<tspan id="tspan64" y="535.94" x="277.99" />
</text>
<path id="path66" d="m295.28 119.31c-10.428-0.104-19.985 6.808-22.813 17.344-0.116 0.434-0.191 0.877-0.281 1.313-27.307-3.655-49.22 2.456-57.16 32.06-30.03 112.09-80.8 75.45-98.87 142.91 0 0 42.35 23.466 121.44 44.656 79.08 21.19 127.31 22 127.31 22 17.967-67.05-44.4-60.44-14.188-173.19 7.979-29.776-7.808-45.958-33.406-56.41 0.127-0.407 0.264-0.804 0.375-1.219 3.346-12.488-4.072-25.309-16.563-28.656-1.952-0.523-3.913-0.793-5.844-0.813m-17.656 57.13c2.085-0.056 4.203 0.199 6.375 0.781 6.449 1.728 11.169 5.17 14.156 10.344 3.109 5.771 3.538 12.889 1.281 21.313-2.292 8.555-7.01 18.02-14.156 28.375l-8.688 12.688c-4.274 6.473-8.855 15.676-13.75 27.625l-10.656-2.844c0.23-1.913 0.43-3.781 0.625-5.563 0.327-1.746 0.559-3.444 0.719-5.094 0.4-4.125 0.631-7.848 0.688-11.219 0.188-3.335 0.161-6.321-0.125-8.938l-1.188-15.344c-1.012-12.544-0.386-23.1 1.906-31.656 2.151-8.03 6.408-13.87 12.75-17.531 3.233-1.867 6.588-2.844 10.06-2.938m-31.906 119.81c1.891-0.049 3.807 0.19 5.781 0.719 5.528 1.481 9.59 4.519 12.156 9.156 2.698 4.673 3.317 9.641 1.906 14.906s-4.452 9.271-9.125 11.969c-4.506 2.602-9.503 3.137-15.03 1.656-5.265-1.411-9.267-4.365-12-8.906-2.698-4.673-3.348-9.641-1.938-14.906 1.411-5.265 4.452-9.271 9.125-11.969 2.921-1.686 5.973-2.544 9.125-2.625m-43.09 63.38c0.863 14.691 10.788 27.858 25.781 31.875 14.993 4.02 30.19-2.409 38.28-14.688-10.06-2.276-20.727-4.852-32.12-7.906-11.458-3.07-22.04-6.188-31.938-9.281" fill="#fff" />
</svg>
