<?xml version="1.0" encoding="UTF-8" standalone="no"?>
<svg xmlns:dc="http://purl.org/dc/elements/1.1/" xmlns:cc="http://creativecommons.org/ns#" xmlns:rdf="http://www.w3.org/1999/02/22-rdf-syntax-ns#" xmlns:svg="http://www.w3.org/2000/svg" xmlns="http://www.w3.org/2000/svg" xmlns:sodipodi="http://sodipodi.sourceforge.net/DTD/sodipodi-0.dtd" xmlns:inkscape="http://www.inkscape.org/namespaces/inkscape" viewBox="0 0 512 512" id="svg406" version="1.1" inkscape:version="0.91 r" sodipodi:docname="audio-volume-high.svg">
<metadata id="metadata908">
<rdf:RDF>
<cc:Work rdf:about="">
<dc:format>image/svg+xml</dc:format>
<dc:type rdf:resource="http://purl.org/dc/dcmitype/StillImage" />
</cc:Work>
</rdf:RDF>
</metadata>
<defs id="defs906" />
<sodipodi:namedview pagecolor="#ffffff" bordercolor="#666666" borderopacity="1" objecttolerance="10" gridtolerance="10" guidetolerance="10" inkscape:pageopacity="0" inkscape:pageshadow="2" inkscape:window-width="640" inkscape:window-height="480" id="namedview904" showgrid="false" inkscape:zoom="0.4609375" inkscape:cx="256" inkscape:cy="256" inkscape:window-x="0" inkscape:window-y="0" inkscape:window-maximized="0" inkscape:current-layer="svg406" />
<text font-size="129.23" y="194.35" x="137.68" font-family="Gentium Book Basic" line-height="125%" word-spacing="0" letter-spacing="0" id="text408">
<tspan y="194.35" x="137.68" id="tspan410" />
</text>
<text transform="scale(4.0128.2492)" font-size="46.954" y="430.76" x="231.39" font-family="Arial" text-anchor="middle" id="text412" />
<text font-size="129.23" y="114.35" x="718.95" font-family="Gentium Book Basic" line-height="125%" word-spacing="0" letter-spacing="0" id="text414">
<tspan y="114.35" x="718.95" id="tspan416" />
</text>
<text transform="scale(4.0128.2492)" font-size="46.954" y="109.72" x="376.24" font-family="Arial" text-anchor="middle" id="text418" />
<text font-size="129.23" y="-66.906" x="-352.63" font-family="Gentium Book Basic" line-height="125%" word-spacing="0" letter-spacing="0" id="text420">
<tspan y="-66.906" x="-352.63" id="tspan422" />
</text>
<text transform="scale(4.0128.2492)" font-size="46.954" y="-617.63" x="109.2" font-family="Arial" text-anchor="middle" id="text424" />
<text font-size="129.23" y="-283.38" x="745.42" font-family="Gentium Book Basic" line-height="125%" word-spacing="0" letter-spacing="0" id="text426">
<tspan y="-283.38" x="745.42" id="tspan428" />
</text>
<text transform="scale(4.0128.2492)" font-size="46.954" y="-1486.29" x="382.84" font-family="Arial" text-anchor="middle" id="text430" />
<text font-size="129.23" y="-363.38" x="1326.69" font-family="Gentium Book Basic" line-height="125%" word-spacing="0" letter-spacing="0" id="text432">
<tspan y="-363.38" x="1326.69" id="tspan434" />
</text>
<text transform="scale(4.0128.2492)" font-size="46.954" y="-1807.32" x="527.69" font-family="Arial" text-anchor="middle" id="text436" />
<text font-size="129.23" y="-835.78" x="937.57" font-family="Gentium Book Basic" line-height="125%" word-spacing="0" letter-spacing="0" id="text438">
<tspan y="-835.78" x="937.57" id="tspan440" />
</text>
<text transform="scale(4.0128.2492)" font-size="46.954" y="-3702.96" x="430.72" font-family="Arial" text-anchor="middle" id="text442" />
<text font-size="129.23" y="-915.79" x="1518.83" font-family="Gentium Book Basic" line-height="125%" word-spacing="0" letter-spacing="0" id="text444">
<tspan y="-915.79" x="1518.83" id="tspan446" />
</text>
<text transform="scale(4.0128.2492)" font-size="46.954" y="-4024" x="575.57" font-family="Arial" text-anchor="middle" id="text448" />
<g font-family="Gentium Book Basic" line-height="125%" word-spacing="0" letter-spacing="0" id="g450">
<text y="498.93" x="-313.97" font-size="208.33" id="text452">
<tspan y="498.93" x="-313.97" id="tspan454" />
</text>
<text y="-421" x="154.74" font-size="129.23" id="text456">
<tspan y="-421" x="154.74" id="tspan458" />
</text>
</g>
<text transform="scale(4.0128.2492)" font-size="46.954" y="-2038.52" x="235.64" font-family="Arial" text-anchor="middle" id="text460" />
<text font-size="129.23" y="-501" x="736.01" font-family="Gentium Book Basic" line-height="125%" word-spacing="0" letter-spacing="0" id="text462">
<tspan y="-501" x="736.01" id="tspan464" />
</text>
<text transform="scale(4.0128.2492)" font-size="46.954" y="-2359.56" x="380.49" font-family="Arial" text-anchor="middle" id="text466" />
<text font-size="129.23" y="-682.25" x="-335.57" font-family="Gentium Book Basic" line-height="125%" word-spacing="0" letter-spacing="0" id="text468">
<tspan y="-682.25" x="-335.57" id="tspan470" />
</text>
<text transform="scale(4.0128.2492)" font-size="46.954" y="-3086.91" x="113.45" font-family="Arial" text-anchor="middle" id="text472" />
<text font-size="129.23" y="-898.73" x="762.48" font-family="Gentium Book Basic" line-height="125%" word-spacing="0" letter-spacing="0" id="text474">
<tspan y="-898.73" x="762.48" id="tspan476" />
</text>
<text transform="scale(4.0128.2492)" font-size="46.954" y="-3955.56" x="387.09" font-family="Arial" text-anchor="middle" id="text478" />
<text font-size="129.23" y="-978.73" x="1343.75" font-family="Gentium Book Basic" line-height="125%" word-spacing="0" letter-spacing="0" id="text480">
<tspan y="-978.73" x="1343.75" id="tspan482" />
</text>
<text transform="scale(4.0128.2492)" font-size="46.954" y="-4276.59" x="531.94" font-family="Arial" text-anchor="middle" id="text484" />
<text font-size="129.23" y="-1451.13" x="954.63" font-family="Gentium Book Basic" line-height="125%" word-spacing="0" letter-spacing="0" id="text486">
<tspan y="-1451.13" x="954.63" id="tspan488" />
</text>
<text transform="scale(4.0128.2492)" font-size="46.954" y="-6172.22" x="434.97" font-family="Arial" text-anchor="middle" id="text490" />
<text font-size="129.23" y="-1531.14" x="1535.89" font-family="Gentium Book Basic" line-height="125%" word-spacing="0" letter-spacing="0" id="text492">
<tspan y="-1531.14" x="1535.89" id="tspan494" />
</text>
<text transform="scale(4.0128.2492)" font-size="46.954" y="-6493.26" x="579.82" font-family="Arial" text-anchor="middle" id="text496" />
<g font-family="Gentium Book Basic" line-height="125%" word-spacing="0" letter-spacing="0" id="g498">
<text y="-116.42" x="-296.91" font-size="208.33" id="text500">
<tspan y="-116.42" x="-296.91" id="tspan502" />
</text>
<text y="-624.8" x="-58.18" font-size="129.23" id="text504">
<tspan y="-624.8" x="-58.18" id="tspan506" />
</text>
</g>
<text transform="scale(4.0128.2492)" font-size="46.954" y="-2856.36" x="182.58" font-family="Arial" text-anchor="middle" id="text508" />
<text font-size="129.23" y="-704.8" x="523.09" font-family="Gentium Book Basic" line-height="125%" word-spacing="0" letter-spacing="0" id="text510">
<tspan y="-704.8" x="523.09" id="tspan512" />
</text>
<text transform="scale(4.0128.2492)" font-size="46.954" y="-3177.39" x="327.43" font-family="Arial" text-anchor="middle" id="text514" />
<text font-size="129.23" y="-886.06" x="-548.49" font-family="Gentium Book Basic" line-height="125%" word-spacing="0" letter-spacing="0" id="text516">
<tspan y="-886.06" x="-548.49" id="tspan518" />
</text>
<text transform="scale(4.0128.2492)" font-size="46.954" y="-3904.74" x="60.39" font-family="Arial" text-anchor="middle" id="text520" />
<text font-size="129.23" y="-1102.53" x="549.56" font-family="Gentium Book Basic" line-height="125%" word-spacing="0" letter-spacing="0" id="text522">
<tspan y="-1102.53" x="549.56" id="tspan524" />
</text>
<text transform="scale(4.0128.2492)" font-size="46.954" y="-4773.4" x="334.03" font-family="Arial" text-anchor="middle" id="text526" />
<text font-size="129.23" y="-1182.53" x="1130.83" font-family="Gentium Book Basic" line-height="125%" word-spacing="0" letter-spacing="0" id="text528">
<tspan y="-1182.53" x="1130.83" id="tspan530" />
</text>
<text transform="scale(4.0128.2492)" font-size="46.954" y="-5094.42" x="478.88" font-family="Arial" text-anchor="middle" id="text532" />
<text font-size="129.23" y="-1654.93" x="741.71" font-family="Gentium Book Basic" line-height="125%" word-spacing="0" letter-spacing="0" id="text534">
<tspan y="-1654.93" x="741.71" id="tspan536" />
</text>
<text transform="scale(4.0128.2492)" font-size="46.954" y="-6990.06" x="381.91" font-family="Arial" text-anchor="middle" id="text538" />
<text font-size="129.23" y="-1734.94" x="1322.97" font-family="Gentium Book Basic" line-height="125%" word-spacing="0" letter-spacing="0" id="text540">
<tspan y="-1734.94" x="1322.97" id="tspan542" />
</text>
<text transform="scale(4.0128.2492)" font-size="46.954" y="-7311.09" x="526.76" font-family="Arial" text-anchor="middle" id="text544" />
<g font-family="Gentium Book Basic" line-height="125%" word-spacing="0" letter-spacing="0" id="g546">
<text y="-320.22" x="-509.83" font-size="208.33" id="text548">
<tspan y="-320.22" x="-509.83" id="tspan550" />
</text>
<text y="231.36" x="729.64" font-size="129.23" id="text552">
<tspan y="231.36" x="729.64" id="tspan554" />
</text>
</g>
<text transform="scale(4.0128.2492)" font-size="46.954" y="579.26" x="378.91" font-family="Arial" text-anchor="middle" id="text556" />
<text font-size="129.23" y="151.36" x="1310.91" font-family="Gentium Book Basic" line-height="125%" word-spacing="0" letter-spacing="0" id="text558">
<tspan y="151.36" x="1310.91" id="tspan560" />
</text>
<text transform="scale(4.0128.2492)" font-size="46.954" y="258.22" x="523.76" font-family="Arial" text-anchor="middle" id="text562" />
<text font-size="129.23" y="-29.9" x="239.33" font-family="Gentium Book Basic" line-height="125%" word-spacing="0" letter-spacing="0" id="text564">
<tspan y="-29.9" x="239.33" id="tspan566" />
</text>
<text transform="scale(4.0128.2492)" font-size="46.954" y="-469.13" x="256.72" font-family="Arial" text-anchor="middle" id="text568" />
<text font-size="129.23" y="-246.37" x="1337.38" font-family="Gentium Book Basic" line-height="125%" word-spacing="0" letter-spacing="0" id="text570">
<tspan y="-246.37" x="1337.38" id="tspan572" />
</text>
<text transform="scale(4.0128.2492)" font-size="46.954" y="-1337.8" x="530.36" font-family="Arial" text-anchor="middle" id="text574" />
<text font-size="129.23" y="-326.37" x="1918.65" font-family="Gentium Book Basic" line-height="125%" word-spacing="0" letter-spacing="0" id="text576">
<tspan y="-326.37" x="1918.65" id="tspan578" />
</text>
<text transform="scale(4.0128.2492)" font-size="46.954" y="-1658.83" x="675.21" font-family="Arial" text-anchor="middle" id="text580" />
<text font-size="129.23" y="-798.77" x="1529.53" font-family="Gentium Book Basic" line-height="125%" word-spacing="0" letter-spacing="0" id="text582">
<tspan y="-798.77" x="1529.53" id="tspan584" />
</text>
<text transform="scale(4.0128.2492)" font-size="46.954" y="-3554.48" x="578.24" font-family="Arial" text-anchor="middle" id="text586" />
<text font-size="129.23" y="-878.78" x="2110.79" font-family="Gentium Book Basic" line-height="125%" word-spacing="0" letter-spacing="0" id="text588">
<tspan y="-878.78" x="2110.79" id="tspan590" />
</text>
<text transform="scale(4.0128.2492)" font-size="46.954" y="-3875.52" x="723.09" font-family="Arial" text-anchor="middle" id="text592" />
<g font-family="Gentium Book Basic" line-height="125%" word-spacing="0" letter-spacing="0" id="g594">
<text y="535.94" x="277.99" font-size="208.33" id="text596">
<tspan y="535.94" x="277.99" id="tspan598" />
</text>
<text y="154.81" x="886.63" font-size="129.23" id="text600">
<tspan y="154.81" x="886.63" id="tspan602" />
</text>
</g>
<text transform="scale(4.0128.2492)" font-size="46.954" y="272.09" x="418.03" font-family="Arial" text-anchor="middle" id="text604" />
<text font-size="129.23" y="74.81" x="1467.9" font-family="Gentium Book Basic" line-height="125%" word-spacing="0" letter-spacing="0" id="text606">
<tspan y="74.81" x="1467.9" id="tspan608" />
</text>
<text transform="scale(4.0128.2492)" font-size="46.954" y="-48.947" x="562.88" font-family="Arial" text-anchor="middle" id="text610" />
<text font-size="129.23" y="-106.45" x="396.32" font-family="Gentium Book Basic" line-height="125%" word-spacing="0" letter-spacing="0" id="text612">
<tspan y="-106.45" x="396.32" id="tspan614" />
</text>
<text transform="scale(4.0128.2492)" font-size="46.954" y="-776.29" x="295.84" font-family="Arial" text-anchor="middle" id="text616" />
<text font-size="129.23" y="-322.92" x="1494.37" font-family="Gentium Book Basic" line-height="125%" word-spacing="0" letter-spacing="0" id="text618">
<tspan y="-322.92" x="1494.37" id="tspan620" />
</text>
<text transform="scale(4.0128.2492)" font-size="46.954" y="-1644.95" x="569.48" font-family="Arial" text-anchor="middle" id="text622" />
<text font-size="129.23" y="-402.92" x="2075.64" font-family="Gentium Book Basic" line-height="125%" word-spacing="0" letter-spacing="0" id="text624">
<tspan y="-402.92" x="2075.64" id="tspan626" />
</text>
<text transform="scale(4.0128.2492)" font-size="46.954" y="-1965.98" x="714.33" font-family="Arial" text-anchor="middle" id="text628" />
<text font-size="129.23" y="-875.32" x="1686.52" font-family="Gentium Book Basic" line-height="125%" word-spacing="0" letter-spacing="0" id="text630">
<tspan y="-875.32" x="1686.52" id="tspan632" />
</text>
<text transform="scale(4.0128.2492)" font-size="46.954" y="-3861.61" x="617.36" font-family="Arial" text-anchor="middle" id="text634" />
<text font-size="129.23" y="-955.33" x="2267.78" font-family="Gentium Book Basic" line-height="125%" word-spacing="0" letter-spacing="0" id="text636">
<tspan y="-955.33" x="2267.78" id="tspan638" />
</text>
<text transform="scale(4.0128.2492)" font-size="46.954" y="-4182.65" x="762.21" font-family="Arial" text-anchor="middle" id="text640" />
<g line-height="125%" word-spacing="0" letter-spacing="0" id="g642">
<text y="459.39" x="434.98" font-family="Gentium Book Basic" font-size="208.33" id="text644">
<tspan y="459.39" x="434.98" id="tspan646" />
</text>
<text y="194.35" x="137.68" font-family="'Gentium Book Basic'" font-size="129.23" id="text648">
<tspan y="194.35" x="137.68" id="tspan650" />
</text>
</g>
<text transform="scale(4.0128.2492)" font-size="46.954" y="430.76" x="231.39" font-family="Arial" text-anchor="middle" id="text652" />
<text font-size="129.23" y="114.35" x="718.95" font-family="'Gentium Book Basic'" line-height="125%" word-spacing="0" letter-spacing="0" id="text654">
<tspan y="114.35" x="718.95" id="tspan656" />
</text>
<text transform="scale(4.0128.2492)" font-size="46.954" y="109.72" x="376.24" font-family="Arial" text-anchor="middle" id="text658" />
<text font-size="129.23" y="-66.906" x="-352.63" font-family="'Gentium Book Basic'" line-height="125%" word-spacing="0" letter-spacing="0" id="text660">
<tspan y="-66.906" x="-352.63" id="tspan662" />
</text>
<text transform="scale(4.0128.2492)" font-size="46.954" y="-617.63" x="109.2" font-family="Arial" text-anchor="middle" id="text664" />
<text font-size="129.23" y="-283.38" x="745.42" font-family="'Gentium Book Basic'" line-height="125%" word-spacing="0" letter-spacing="0" id="text666">
<tspan y="-283.38" x="745.42" id="tspan668" />
</text>
<text transform="scale(4.0128.2492)" font-size="46.954" y="-1486.28" x="382.84" font-family="Arial" text-anchor="middle" id="text670" />
<text font-size="129.23" y="-363.38" x="1326.69" font-family="'Gentium Book Basic'" line-height="125%" word-spacing="0" letter-spacing="0" id="text672">
<tspan y="-363.38" x="1326.69" id="tspan674" />
</text>
<text transform="scale(4.0128.2492)" font-size="46.954" y="-1807.31" x="527.69" font-family="Arial" text-anchor="middle" id="text676" />
<text font-size="129.23" y="-835.78" x="937.57" font-family="'Gentium Book Basic'" line-height="125%" word-spacing="0" letter-spacing="0" id="text678">
<tspan y="-835.78" x="937.57" id="tspan680" />
</text>
<text transform="scale(4.0128.2492)" font-size="46.954" y="-3702.94" x="430.72" font-family="Arial" text-anchor="middle" id="text682" />
<text font-size="129.23" y="-915.79" x="1518.83" font-family="'Gentium Book Basic'" line-height="125%" word-spacing="0" letter-spacing="0" id="text684">
<tspan y="-915.79" x="1518.83" id="tspan686" />
</text>
<text transform="scale(4.0128.2492)" font-size="46.954" y="-4023.98" x="575.57" font-family="Arial" text-anchor="middle" id="text688" />
<g font-family="'Gentium Book Basic'" line-height="125%" word-spacing="0" letter-spacing="0" id="g690">
<text y="498.93" x="-313.97" font-size="208.33" id="text692">
<tspan y="498.93" x="-313.97" id="tspan694" />
</text>
<text y="-421" x="154.74" font-size="129.23" id="text696">
<tspan y="-421" x="154.74" id="tspan698" />
</text>
</g>
<text transform="scale(4.0128.2492)" font-size="46.954" y="-2038.52" x="235.64" font-family="Arial" text-anchor="middle" id="text700" />
<text font-size="129.23" y="-501" x="736.01" font-family="'Gentium Book Basic'" line-height="125%" word-spacing="0" letter-spacing="0" id="text702">
<tspan y="-501" x="736.01" id="tspan704" />
</text>
<text transform="scale(4.0128.2492)" font-size="46.954" y="-2359.56" x="380.49" font-family="Arial" text-anchor="middle" id="text706" />
<text font-size="129.23" y="-682.25" x="-335.57" font-family="'Gentium Book Basic'" line-height="125%" word-spacing="0" letter-spacing="0" id="text708">
<tspan y="-682.25" x="-335.57" id="tspan710" />
</text>
<text transform="scale(4.0128.2492)" font-size="46.954" y="-3086.91" x="113.45" font-family="Arial" text-anchor="middle" id="text712" />
<text font-size="129.23" y="-898.73" x="762.48" font-family="'Gentium Book Basic'" line-height="125%" word-spacing="0" letter-spacing="0" id="text714">
<tspan y="-898.73" x="762.48" id="tspan716" />
</text>
<text transform="scale(4.0128.2492)" font-size="46.954" y="-3955.56" x="387.09" font-family="Arial" text-anchor="middle" id="text718" />
<text font-size="129.23" y="-978.73" x="1343.75" font-family="'Gentium Book Basic'" line-height="125%" word-spacing="0" letter-spacing="0" id="text720">
<tspan y="-978.73" x="1343.75" id="tspan722" />
</text>
<text transform="scale(4.0128.2492)" font-size="46.954" y="-4276.59" x="531.94" font-family="Arial" text-anchor="middle" id="text724" />
<text font-size="129.23" y="-1451.13" x="954.63" font-family="'Gentium Book Basic'" line-height="125%" word-spacing="0" letter-spacing="0" id="text726">
<tspan y="-1451.13" x="954.63" id="tspan728" />
</text>
<text transform="scale(4.0128.2492)" font-size="46.954" y="-6172.22" x="434.97" font-family="Arial" text-anchor="middle" id="text730" />
<text font-size="129.23" y="-1531.14" x="1535.89" font-family="'Gentium Book Basic'" line-height="125%" word-spacing="0" letter-spacing="0" id="text732">
<tspan y="-1531.14" x="1535.89" id="tspan734" />
</text>
<text transform="scale(4.0128.2492)" font-size="46.954" y="-6493.26" x="579.82" font-family="Arial" text-anchor="middle" id="text736" />
<g font-family="'Gentium Book Basic'" line-height="125%" word-spacing="0" letter-spacing="0" id="g738">
<text y="-116.42" x="-296.91" font-size="208.33" id="text740">
<tspan y="-116.42" x="-296.91" id="tspan742" />
</text>
<text y="-624.8" x="-58.18" font-size="129.23" id="text744">
<tspan y="-624.8" x="-58.18" id="tspan746" />
</text>
</g>
<text transform="scale(4.0128.2492)" font-size="46.954" y="-2856.36" x="182.58" font-family="Arial" text-anchor="middle" id="text748" />
<text font-size="129.23" y="-704.8" x="523.09" font-family="'Gentium Book Basic'" line-height="125%" word-spacing="0" letter-spacing="0" id="text750">
<tspan y="-704.8" x="523.09" id="tspan752" />
</text>
<text transform="scale(4.0128.2492)" font-size="46.954" y="-3177.39" x="327.43" font-family="Arial" text-anchor="middle" id="text754" />
<text font-size="129.23" y="-886.06" x="-548.49" font-family="'Gentium Book Basic'" line-height="125%" word-spacing="0" letter-spacing="0" id="text756">
<tspan y="-886.06" x="-548.49" id="tspan758" />
</text>
<text transform="scale(4.0128.2492)" font-size="46.954" y="-3904.74" x="60.39" font-family="Arial" text-anchor="middle" id="text760" />
<text font-size="129.23" y="-1102.53" x="549.56" font-family="'Gentium Book Basic'" line-height="125%" word-spacing="0" letter-spacing="0" id="text762">
<tspan y="-1102.53" x="549.56" id="tspan764" />
</text>
<text transform="scale(4.0128.2492)" font-size="46.954" y="-4773.4" x="334.03" font-family="Arial" text-anchor="middle" id="text766" />
<text font-size="129.23" y="-1182.53" x="1130.83" font-family="'Gentium Book Basic'" line-height="125%" word-spacing="0" letter-spacing="0" id="text768">
<tspan y="-1182.53" x="1130.83" id="tspan770" />
</text>
<text transform="scale(4.0128.2492)" font-size="46.954" y="-5094.42" x="478.88" font-family="Arial" text-anchor="middle" id="text772" />
<text font-size="129.23" y="-1654.93" x="741.71" font-family="'Gentium Book Basic'" line-height="125%" word-spacing="0" letter-spacing="0" id="text774">
<tspan y="-1654.93" x="741.71" id="tspan776" />
</text>
<text transform="scale(4.0128.2492)" font-size="46.954" y="-6990.06" x="381.91" font-family="Arial" text-anchor="middle" id="text778" />
<text font-size="129.23" y="-1734.94" x="1322.97" font-family="'Gentium Book Basic'" line-height="125%" word-spacing="0" letter-spacing="0" id="text780">
<tspan y="-1734.94" x="1322.97" id="tspan782" />
</text>
<text transform="scale(4.0128.2492)" font-size="46.954" y="-7311.09" x="526.76" font-family="Arial" text-anchor="middle" id="text784" />
<text font-size="208.33" y="-320.22" x="-509.83" font-family="'Gentium Book Basic'" line-height="125%" word-spacing="0" letter-spacing="0" id="text786">
<tspan y="-320.22" x="-509.83" id="tspan788" />
</text>
<path style="fill:#ef6a47;fill-rule:evenodd" inkscape:connector-curvature="0" id="path792" d="m 471.95,253.05 c 0,120.9 -98.01,218.91 -218.91,218.91 -120.9,0 -218.91,-98.01 -218.91,-218.91 0,-120.9 98.01,-218.91 218.91,-218.91 120.9,0 218.91,98.01 218.91,218.91" />
<text font-size="129.23" y="231.36" x="729.64" font-family="'Gentium Book Basic'" line-height="125%" word-spacing="0" letter-spacing="0" id="text804">
<tspan y="231.36" x="729.64" id="tspan806" />
</text>
<text transform="scale(4.0128.2492)" font-size="46.954" y="579.26" x="378.91" font-family="Arial" text-anchor="middle" id="text808" />
<text font-size="129.23" y="151.36" x="1310.91" font-family="'Gentium Book Basic'" line-height="125%" word-spacing="0" letter-spacing="0" id="text810">
<tspan y="151.36" x="1310.91" id="tspan812" />
</text>
<text transform="scale(4.0128.2492)" font-size="46.954" y="258.22" x="523.76" font-family="Arial" text-anchor="middle" id="text814" />
<text font-size="129.23" y="-29.9" x="239.33" font-family="'Gentium Book Basic'" line-height="125%" word-spacing="0" letter-spacing="0" id="text816">
<tspan y="-29.9" x="239.33" id="tspan818" />
</text>
<text transform="scale(4.0128.2492)" font-size="46.954" y="-469.13" x="256.72" font-family="Arial" text-anchor="middle" id="text820" />
<text font-size="129.23" y="-246.37" x="1337.38" font-family="'Gentium Book Basic'" line-height="125%" word-spacing="0" letter-spacing="0" id="text822">
<tspan y="-246.37" x="1337.38" id="tspan824" />
</text>
<text transform="scale(4.0128.2492)" font-size="46.954" y="-1337.8" x="530.36" font-family="Arial" text-anchor="middle" id="text826" />
<text font-size="129.23" y="-326.37" x="1918.65" font-family="'Gentium Book Basic'" line-height="125%" word-spacing="0" letter-spacing="0" id="text828">
<tspan y="-326.37" x="1918.65" id="tspan830" />
</text>
<text transform="scale(4.0128.2492)" font-size="46.954" y="-1658.83" x="675.21" font-family="Arial" text-anchor="middle" id="text832" />
<text font-size="129.23" y="-798.77" x="1529.53" font-family="'Gentium Book Basic'" line-height="125%" word-spacing="0" letter-spacing="0" id="text834">
<tspan y="-798.77" x="1529.53" id="tspan836" />
</text>
<text transform="scale(4.0128.2492)" font-size="46.954" y="-3554.48" x="578.24" font-family="Arial" text-anchor="middle" id="text838" />
<text font-size="129.23" y="-878.78" x="2110.79" font-family="'Gentium Book Basic'" line-height="125%" word-spacing="0" letter-spacing="0" id="text840">
<tspan y="-878.78" x="2110.79" id="tspan842" />
</text>
<text transform="scale(4.0128.2492)" font-size="46.954" y="-3875.52" x="723.09" font-family="Arial" text-anchor="middle" id="text844" />
<g font-family="'Gentium Book Basic'" line-height="125%" word-spacing="0" letter-spacing="0" id="g846">
<text y="535.94" x="277.99" font-size="208.33" id="text848">
<tspan y="535.94" x="277.99" id="tspan850" />
</text>
<text y="154.81" x="886.63" font-size="129.23" id="text852">
<tspan y="154.81" x="886.63" id="tspan854" />
</text>
</g>
<text transform="scale(4.0128.2492)" font-size="46.954" y="272.09" x="418.03" font-family="Arial" text-anchor="middle" id="text856" />
<text font-size="129.23" y="74.81" x="1467.9" font-family="'Gentium Book Basic'" line-height="125%" word-spacing="0" letter-spacing="0" id="text858">
<tspan y="74.81" x="1467.9" id="tspan860" />
</text>
<text transform="scale(4.0128.2492)" font-size="46.954" y="-48.947" x="562.88" font-family="Arial" text-anchor="middle" id="text862" />
<text font-size="129.23" y="-106.45" x="396.32" font-family="'Gentium Book Basic'" line-height="125%" word-spacing="0" letter-spacing="0" id="text864">
<tspan y="-106.45" x="396.32" id="tspan866" />
</text>
<text transform="scale(4.0128.2492)" font-size="46.954" y="-776.29" x="295.84" font-family="Arial" text-anchor="middle" id="text868" />
<text font-size="129.23" y="-322.92" x="1494.37" font-family="'Gentium Book Basic'" line-height="125%" word-spacing="0" letter-spacing="0" id="text870">
<tspan y="-322.92" x="1494.37" id="tspan872" />
</text>
<text transform="scale(4.0128.2492)" font-size="46.954" y="-1644.95" x="569.48" font-family="Arial" text-anchor="middle" id="text874" />
<text font-size="129.23" y="-402.92" x="2075.64" font-family="'Gentium Book Basic'" line-height="125%" word-spacing="0" letter-spacing="0" id="text876">
<tspan y="-402.92" x="2075.64" id="tspan878" />
</text>
<text transform="scale(4.0128.2492)" font-size="46.954" y="-1965.98" x="714.33" font-family="Arial" text-anchor="middle" id="text880" />
<text font-size="129.23" y="-875.32" x="1686.52" font-family="'Gentium Book Basic'" line-height="125%" word-spacing="0" letter-spacing="0" id="text882">
<tspan y="-875.32" x="1686.52" id="tspan884" />
</text>
<text transform="scale(4.0128.2492)" font-size="46.954" y="-3861.61" x="617.36" font-family="Arial" text-anchor="middle" id="text886" />
<text font-size="129.23" y="-955.33" x="2267.78" font-family="'Gentium Book Basic'" line-height="125%" word-spacing="0" letter-spacing="0" id="text888">
<tspan y="-955.33" x="2267.78" id="tspan890" />
</text>
<text transform="scale(4.0128.2492)" font-size="46.954" y="-4182.65" x="762.21" font-family="Arial" text-anchor="middle" id="text892" />
<text font-size="208.33" y="459.39" x="434.98" font-family="'Gentium Book Basic'" line-height="125%" word-spacing="0" letter-spacing="0" id="text894">
<tspan y="459.39" x="434.98" id="tspan896" />
</text>
<path style="fill:#ffffff" inkscape:connector-curvature="0" id="path902" d="m 237.05,112.62 c -1.835,0.007 -3.834,0.356 -5.977,1.113 -4.02,1.424 -4.146,1.54 -55.18,51.692 l -25.22,24.806 0,131.34 21.974,21.587 c 51.664,50.782 54.1,53.1 57.4,54.718 l 0.024,0 c 5.891,2.86 11.817,1.595 15.464,-3.315 3.722,-5.02 3.509,3.685 3.703,-137.87 0.159,-115.89 0.054,-131.41 -0.847,-134.51 -1.829,-6.292 -5.843,-9.58 -11.35,-9.559 m 128.92,13.286 -23.11,24.66 c 28.12,26.368 45.666,63.841 45.666,105.42 0,41.571 -17.559,79.04 -45.666,105.39 l 23.11,24.709 c 34.694,-32.57 56.53,-78.78 56.53,-130.13 0,-51.33 -21.833,-97.5 -56.53,-130.05 m -40.609,43.22 -23.11,24.975 c 16.483,15.52 26.814,37.467 26.814,61.881 0,24.417 -10.323,46.38 -26.814,61.881 l 23.11,24.951 c 23.17,-21.695 37.704,-52.54 37.704,-86.81 0,-34.26 -14.526,-65.13 -37.704,-86.83 l 0,-0.048 m -224.65,24.1 c -6.214,0 -11.205,4.991 -11.205,11.205 l 0,103.12 c 0,6.214 4.991,11.205 11.205,11.205 l 41.988,0 0,-125.53 -41.988,0 m 182.96,18.683 -22.603,25.22 c 5.174,4.665 8.519,11.313 8.519,18.828 0,7.515 -3.345,14.211 -8.519,18.876 l 22.579,25.22 c 12.09,-10.876 19.917,-26.51 19.917,-44.07 0,-17.536 -7.818,-33.19 -19.893,-44.07" />
</svg>
