<?xml version="1.0" encoding="UTF-8" standalone="no"?>
<svg xmlns:dc="http://purl.org/dc/elements/1.1/" xmlns:cc="http://creativecommons.org/ns#" xmlns:rdf="http://www.w3.org/1999/02/22-rdf-syntax-ns#" xmlns:svg="http://www.w3.org/2000/svg" xmlns="http://www.w3.org/2000/svg" xmlns:sodipodi="http://sodipodi.sourceforge.net/DTD/sodipodi-0.dtd" xmlns:inkscape="http://www.inkscape.org/namespaces/inkscape" height="512" width="512" version="1.1" viewBox="0 0 512 512" id="svg167" inkscape:version="0.91 r" sodipodi:docname="dialog-warning.svg">
<defs id="defs221" />
<sodipodi:namedview pagecolor="#ffffff" bordercolor="#666666" borderopacity="1" objecttolerance="10" gridtolerance="10" guidetolerance="10" inkscape:pageopacity="0" inkscape:pageshadow="2" inkscape:window-width="640" inkscape:window-height="480" id="namedview219" showgrid="false" inkscape:zoom="0.4609375" inkscape:cx="256" inkscape:cy="256" inkscape:window-x="0" inkscape:window-y="0" inkscape:window-maximized="0" inkscape:current-layer="svg167" />
<metadata id="metadata106">
<rdf:RDF>
<cc:Work rdf:about="">
<dc:format>image/svg+xml</dc:format>
<dc:type rdf:resource="http://purl.org/dc/dcmitype/StillImage" />
</cc:Work>
</rdf:RDF>
</metadata>
<g id="g4" fill="#fff8eb">
<text id="text6" font-size="162.29" line-height="125%" y="229.53" x="859.16" font-family="Gentium Book Basic" word-spacing="0" letter-spacing="0">
<tspan id="tspan8" y="229.53" x="859.16" />
</text>
<text id="text10" transform="scale(4.0128 .2492)" font-size="58.966" y="482.59" x="461.6" font-family="Arial" text-anchor="middle" />
<text id="text12" font-size="162.29" line-height="125%" y="272.65" x="1463.98" font-family="Gentium Book Basic" word-spacing="0" letter-spacing="0">
<tspan id="tspan14" y="272.65" x="1463.98" />
</text>
<text id="text16" transform="scale(4.0128 .2492)" font-size="58.966" y="655.63" x="612.32" font-family="Arial" text-anchor="middle" />
<text id="text18" font-size="162.29" line-height="125%" y="172.18" x="2193.96" font-family="Gentium Book Basic" word-spacing="0" letter-spacing="0">
<tspan id="tspan20" y="172.18" x="2193.96" />
</text>
<text id="text22" transform="scale(4.0128 .2492)" font-size="58.966" y="252.47" x="794.23" font-family="Arial" text-anchor="middle" />
<text id="text24" font-size="162.29" line-height="125%" y="129.47" x="1486.27" font-family="Gentium Book Basic" word-spacing="0" letter-spacing="0">
<tspan id="tspan26" y="129.47" x="1486.27" />
</text>
<text id="text28" transform="scale(4.0128 .2492)" font-size="58.966" y="81.07" x="617.88" font-family="Arial" text-anchor="middle" />
<text id="text30" font-size="162.29" line-height="125%" y="29" x="2216.24" font-family="Gentium Book Basic" word-spacing="0" letter-spacing="0">
<tspan id="tspan32" y="29" x="2216.24" />
</text>
<text id="text34" transform="scale(4.0128 .2492)" font-size="58.966" y="-322.1" x="799.79" font-family="Arial" text-anchor="middle" />
<text id="text36" font-size="162.29" line-height="125%" y="496.14" x="-956.12" font-family="Gentium Book Basic" word-spacing="0" letter-spacing="0">
<tspan id="tspan38" y="496.14" x="-956.12" />
</text>
<text id="text40" transform="scale(4.0128 .2492)" font-size="58.966" y="1552.46" x="9.235" font-family="Arial" text-anchor="middle" />
</g>
<path id="path42" fill="#e4a146" d="m471.95 253.05c0 120.9-98.01 218.9-218.9 218.9-120.9 0-218.9-98.01-218.9-218.9 0-120.9 98.01-218.9 218.9-218.9 120.9 0 218.9 98.01 218.9 218.9" fill-rule="evenodd" />
<text id="text58" font-size="129.23" line-height="125%" y="231.36" x="729.64" font-family="Gentium Book Basic" word-spacing="0" letter-spacing="0">
<tspan id="tspan60" y="231.36" x="729.64" />
</text>
<text id="text62" transform="scale(4.0128 .2492)" font-size="46.954" y="579.25" x="378.91" font-family="Arial" text-anchor="middle" />
<text id="text64" font-size="129.23" line-height="125%" y="151.36" x="1310.91" font-family="Gentium Book Basic" word-spacing="0" letter-spacing="0">
<tspan id="tspan66" y="151.36" x="1310.91" />
</text>
<text id="text68" transform="scale(4.0128 .2492)" font-size="46.954" y="258.22" x="523.76" font-family="Arial" text-anchor="middle" />
<text id="text70" font-size="129.23" line-height="125%" y="-29.901" x="239.33" font-family="Gentium Book Basic" word-spacing="0" letter-spacing="0">
<tspan id="tspan72" y="-29.901" x="239.33" />
</text>
<text id="text74" transform="scale(4.0128 .2492)" font-size="46.954" y="-469.14" x="256.72" font-family="Arial" text-anchor="middle" />
<text id="text76" font-size="129.23" line-height="125%" y="-246.37" x="1337.38" font-family="Gentium Book Basic" word-spacing="0" letter-spacing="0">
<tspan id="tspan78" y="-246.37" x="1337.38" />
</text>
<text id="text80" transform="scale(4.0128 .2492)" font-size="46.954" y="-1337.81" x="530.36" font-family="Arial" text-anchor="middle" />
<text id="text82" font-size="129.23" line-height="125%" y="-326.38" x="1918.65" font-family="Gentium Book Basic" word-spacing="0" letter-spacing="0">
<tspan id="tspan84" y="-326.38" x="1918.65" />
</text>
<text id="text86" transform="scale(4.0128 .2492)" font-size="46.954" y="-1658.85" x="675.21" font-family="Arial" text-anchor="middle" />
<text id="text88" font-size="129.23" line-height="125%" y="-798.78" x="1529.53" font-family="Gentium Book Basic" word-spacing="0" letter-spacing="0">
<tspan id="tspan90" y="-798.78" x="1529.53" />
</text>
<text id="text92" transform="scale(4.0128 .2492)" font-size="46.954" y="-3554.51" x="578.24" font-family="Arial" text-anchor="middle" />
<text id="text94" font-size="129.23" line-height="125%" y="-878.78" x="2110.79" font-family="Gentium Book Basic" word-spacing="0" letter-spacing="0">
<tspan id="tspan96" y="-878.78" x="2110.79" />
</text>
<text id="text98" transform="scale(4.0128 .2492)" font-size="46.954" y="-3875.54" x="723.09" font-family="Arial" text-anchor="middle" />
<path id="path100" transform="matrix(1.1004 0 0 1.1004 -27.11 -35.591)" d="m257.28 326.8c-18.709 0-34.12 15.04-34.12 33.02 0 19.442 15.04 34.85 33.749 34.85s34.12-15.407 34.12-34.12c0-18.709-15.04-33.749-33.749-33.749m15.04-16.14c2.568-35.22 4.769-50.26 12.839-86.21 7.337-30.815 8.804-38.518 8.804-48.79 0-24.578-14.307-40.35-36.32-40.35-20.91 0-37.05 16.14-37.05 36.684 0 12.11 1.467 20.91 8.804 54.659 6.236 28.25 9.538 49.89 12.839 84.01h30.08" fill="#fff8eb" />
</svg>
