<?xml version="1.0" encoding="UTF-8" standalone="no"?>
<svg xmlns:dc="http://purl.org/dc/elements/1.1/" xmlns:cc="http://creativecommons.org/ns#" xmlns:rdf="http://www.w3.org/1999/02/22-rdf-syntax-ns#" xmlns:svg="http://www.w3.org/2000/svg" xmlns="http://www.w3.org/2000/svg" xmlns:sodipodi="http://sodipodi.sourceforge.net/DTD/sodipodi-0.dtd" xmlns:inkscape="http://www.inkscape.org/namespaces/inkscape" height="512" width="512" version="1.1" viewBox="0 0 512 512" id="svg2" inkscape:version="0.91 r" sodipodi:docname="nm-signal-00-secure.svg">
<defs id="defs294" />
<sodipodi:namedview pagecolor="#ffffff" bordercolor="#666666" borderopacity="1" objecttolerance="10" gridtolerance="10" guidetolerance="10" inkscape:pageopacity="0" inkscape:pageshadow="2" inkscape:window-width="640" inkscape:window-height="480" id="namedview292" showgrid="false" inkscape:zoom="0.4609375" inkscape:cx="256" inkscape:cy="256" inkscape:window-x="0" inkscape:window-y="0" inkscape:window-maximized="0" inkscape:current-layer="svg2" />
<metadata id="metadata70">
<rdf:RDF>
<cc:Work rdf:about="">
<dc:format>image/svg+xml</dc:format>
<dc:type rdf:resource="http://purl.org/dc/dcmitype/StillImage" />
</cc:Work>
</rdf:RDF>
</metadata>
<path id="path8" d="m471.95 253.05c0 120.9-98.006 218.91-218.91 218.91s-218.91-98.006-218.91-218.91 98.006-218.91 218.91-218.91 218.91 98.006 218.91 218.91" fill-rule="evenodd" fill="#cd1d31" />
<text id="text20" font-size="129.23" line-height="125%" y="231.36" x="729.64" font-family="Gentium Book Basic" word-spacing="0" letter-spacing="0">
<tspan id="tspan22" y="231.36" x="729.64" />
</text>
<text id="text24" transform="scale(4.0128 .24920)" font-size="46.954" y="579.26" x="378.91" font-family="Arial" text-anchor="middle" />
<text id="text26" font-size="129.23" line-height="125%" y="151.36" x="1310.91" font-family="Gentium Book Basic" word-spacing="0" letter-spacing="0">
<tspan id="tspan28" y="151.36" x="1310.91" />
</text>
<text id="text30" transform="scale(4.0128 .24920)" font-size="46.954" y="258.22" x="523.76" font-family="Arial" text-anchor="middle" />
<text id="text32" font-size="129.23" line-height="125%" y="-29.9" x="239.33" font-family="Gentium Book Basic" word-spacing="0" letter-spacing="0">
<tspan id="tspan34" y="-29.9" x="239.33" />
</text>
<text id="text36" transform="scale(4.0128 .24920)" font-size="46.954" y="-469.13" x="256.72" font-family="Arial" text-anchor="middle" />
<text id="text38" font-size="129.23" line-height="125%" y="-246.37" x="1337.38" font-family="Gentium Book Basic" word-spacing="0" letter-spacing="0">
<tspan id="tspan40" y="-246.37" x="1337.38" />
</text>
<text id="text42" transform="scale(4.0128 .24920)" font-size="46.954" y="-1337.8" x="530.36" font-family="Arial" text-anchor="middle" />
<text id="text44" font-size="129.23" line-height="125%" y="-326.37" x="1918.65" font-family="Gentium Book Basic" word-spacing="0" letter-spacing="0">
<tspan id="tspan46" y="-326.37" x="1918.65" />
</text>
<text id="text48" transform="scale(4.0128 .24920)" font-size="46.954" y="-1658.83" x="675.21" font-family="Arial" text-anchor="middle" />
<text id="text50" font-size="129.23" line-height="125%" y="-798.77" x="1529.53" font-family="Gentium Book Basic" word-spacing="0" letter-spacing="0">
<tspan id="tspan52" y="-798.77" x="1529.53" />
</text>
<text id="text54" transform="scale(4.0128 .24920)" font-size="46.954" y="-3554.48" x="578.24" font-family="Arial" text-anchor="middle" />
<text id="text56" font-size="129.23" line-height="125%" y="-878.78" x="2110.79" font-family="Gentium Book Basic" word-spacing="0" letter-spacing="0">
<tspan id="tspan58" y="-878.78" x="2110.79" />
</text>
<text id="text60" transform="scale(4.0128 .24920)" font-size="46.954" y="-3875.52" x="723.09" font-family="Arial" text-anchor="middle" />
<text id="text62" font-size="208.33" line-height="125%" y="535.94" x="277.99" font-family="Gentium Book Basic" word-spacing="0" letter-spacing="0">
<tspan id="tspan64" y="535.94" x="277.99" />
</text>
<text id="text20-88" font-size="129.23" line-height="125%" y="-27.777" x="-68.859" font-family="Gentium Book Basic" word-spacing="0" letter-spacing="0">
<tspan id="tspan22-5" y="-27.777" x="-68.859" />
</text>
<text id="text24-7" transform="scale(4.0128 .24920)" font-size="46.954" y="-460.61" x="179.92" font-family="Arial" text-anchor="middle" />
<text id="text26-94" font-size="129.23" line-height="125%" y="-107.78" x="512.41" font-family="Gentium Book Basic" word-spacing="0" letter-spacing="0">
<tspan id="tspan28-5" y="-107.78" x="512.41" />
</text>
<text id="text30-75" transform="scale(4.0128 .24920)" font-size="46.954" y="-781.65" x="324.77" font-family="Arial" text-anchor="middle" />
<text id="text32-4" font-size="129.23" line-height="125%" y="-289.04" x="-559.17" font-family="Gentium Book Basic" word-spacing="0" letter-spacing="0">
<tspan id="tspan34-0" y="-289.04" x="-559.17" />
</text>
<text id="text36-7" transform="scale(4.0128 .24920)" font-size="46.954" y="-1508.99" x="57.732" font-family="Arial" text-anchor="middle" />
<text id="text38-5" font-size="129.23" line-height="125%" y="-505.51" x="538.88" font-family="Gentium Book Basic" word-spacing="0" letter-spacing="0">
<tspan id="tspan40-3" y="-505.51" x="538.88" />
</text>
<text id="text42-00" transform="scale(4.0128 .24920)" font-size="46.954" y="-2377.67" x="331.37" font-family="Arial" text-anchor="middle" />
<text id="text44-4" font-size="129.23" line-height="125%" y="-585.51" x="1120.15" font-family="Gentium Book Basic" word-spacing="0" letter-spacing="0">
<tspan id="tspan46-61" y="-585.51" x="1120.15" />
</text>
<text id="text48-56" transform="scale(4.0128 .24920)" font-size="46.954" y="-2698.7" x="476.22" font-family="Arial" text-anchor="middle" />
<text id="text50-6" font-size="129.23" line-height="125%" y="-1057.91" x="731.03" font-family="Gentium Book Basic" word-spacing="0" letter-spacing="0">
<tspan id="tspan52-0" y="-1057.91" x="731.03" />
</text>
<text id="text54-1" transform="scale(4.0128 .24920)" font-size="46.954" y="-4594.35" x="379.25" font-family="Arial" text-anchor="middle" />
<text id="text56-5" font-size="129.23" line-height="125%" y="-1137.92" x="1312.29" font-family="Gentium Book Basic" word-spacing="0" letter-spacing="0">
<tspan id="tspan58-9" y="-1137.92" x="1312.29" />
</text>
<text id="text60-7" transform="scale(4.0128 .24920)" font-size="46.954" y="-4915.39" x="524.1" font-family="Arial" text-anchor="middle" />
<text id="text62-54" font-size="208.33" line-height="125%" y="276.8" x="-520.51" font-family="Gentium Book Basic" word-spacing="0" letter-spacing="0">
<tspan id="tspan64-2" y="276.8" x="-520.51" />
</text>
<text id="text20-8" font-size="129.23" line-height="125%" y="-27.777" x="-68.859" font-family="Gentium Book Basic" word-spacing="0" letter-spacing="0">
<tspan id="tspan22-7" y="-27.777" x="-68.859" />
</text>
<text id="text24-0" transform="scale(4.0128 .24920)" font-size="46.954" y="-460.61" x="179.92" font-family="Arial" text-anchor="middle" />
<text id="text26-0" font-size="129.23" line-height="125%" y="-107.78" x="512.41" font-family="Gentium Book Basic" word-spacing="0" letter-spacing="0">
<tspan id="tspan28-3" y="-107.78" x="512.41" />
</text>
<text id="text30-7" transform="scale(4.0128 .24920)" font-size="46.954" y="-781.65" x="324.77" font-family="Arial" text-anchor="middle" />
<text id="text32-2" font-size="129.23" line-height="125%" y="-289.04" x="-559.17" font-family="Gentium Book Basic" word-spacing="0" letter-spacing="0">
<tspan id="tspan34-8" y="-289.04" x="-559.17" />
</text>
<text id="text36-2" transform="scale(4.0128 .24920)" font-size="46.954" y="-1508.99" x="57.732" font-family="Arial" text-anchor="middle" />
<text id="text38-7" font-size="129.23" line-height="125%" y="-505.51" x="538.88" font-family="Gentium Book Basic" word-spacing="0" letter-spacing="0">
<tspan id="tspan40-2" y="-505.51" x="538.88" />
</text>
<text id="text42-3" transform="scale(4.0128 .24920)" font-size="46.954" y="-2377.67" x="331.37" font-family="Arial" text-anchor="middle" />
<text id="text44-6" font-size="129.23" line-height="125%" y="-585.51" x="1120.15" font-family="Gentium Book Basic" word-spacing="0" letter-spacing="0">
<tspan id="tspan46-7" y="-585.51" x="1120.15" />
</text>
<text id="text48-1" transform="scale(4.0128 .24920)" font-size="46.954" y="-2698.7" x="476.22" font-family="Arial" text-anchor="middle" />
<text id="text50-4" font-size="129.23" line-height="125%" y="-1057.91" x="731.03" font-family="Gentium Book Basic" word-spacing="0" letter-spacing="0">
<tspan id="tspan52-6" y="-1057.91" x="731.03" />
</text>
<text id="text54-2" transform="scale(4.0128 .24920)" font-size="46.954" y="-4594.35" x="379.25" font-family="Arial" text-anchor="middle" />
<text id="text56-1" font-size="129.23" line-height="125%" y="-1137.92" x="1312.29" font-family="Gentium Book Basic" word-spacing="0" letter-spacing="0">
<tspan id="tspan58-7" y="-1137.92" x="1312.29" />
</text>
<text id="text60-6" transform="scale(4.0128 .24920)" font-size="46.954" y="-4915.39" x="524.1" font-family="Arial" text-anchor="middle" />
<text id="text62-5" font-size="208.33" line-height="125%" y="276.8" x="-520.51" font-family="Gentium Book Basic" word-spacing="0" letter-spacing="0">
<tspan id="tspan64-9" y="276.8" x="-520.51" />
</text>
<text id="text20-3" font-size="129.23" line-height="125%" y="812.78" x="-31.851" font-family="Gentium Book Basic" word-spacing="0" letter-spacing="0">
<tspan id="tspan22-4" y="812.78" x="-31.851" />
</text>
<text id="text24-9" transform="scale(4.0128 .24920)" font-size="46.954" y="2912.4" x="189.14" font-family="Arial" text-anchor="middle" />
<text id="text26-7" font-size="129.23" line-height="125%" y="732.78" x="549.42" font-family="Gentium Book Basic" word-spacing="0" letter-spacing="0">
<tspan id="tspan28-1" y="732.78" x="549.42" />
</text>
<text id="text30-8" transform="scale(4.0128 .24920)" font-size="46.954" y="2591.37" x="333.99" font-family="Arial" text-anchor="middle" />
<text id="text32-1" font-size="129.23" line-height="125%" y="551.52" x="-522.16" font-family="Gentium Book Basic" word-spacing="0" letter-spacing="0">
<tspan id="tspan34-7" y="551.52" x="-522.16" />
</text>
<text id="text36-0" transform="scale(4.0128 .24920)" font-size="46.954" y="1864.01" x="66.954" font-family="Arial" text-anchor="middle" />
<text id="text38-9" font-size="129.23" line-height="125%" y="335.05" x="575.89" font-family="Gentium Book Basic" word-spacing="0" letter-spacing="0">
<tspan id="tspan40-0" y="335.05" x="575.89" />
</text>
<text id="text42-0" transform="scale(4.0128 .24920)" font-size="46.954" y="995.35" x="340.59" font-family="Arial" text-anchor="middle" />
<text id="text44-3" font-size="129.23" line-height="125%" y="255.04" x="1157.16" font-family="Gentium Book Basic" word-spacing="0" letter-spacing="0">
<tspan id="tspan46-4" y="255.04" x="1157.16" />
</text>
<text id="text48-5" transform="scale(4.0128 .24920)" font-size="46.954" y="674.31" x="485.44" font-family="Arial" text-anchor="middle" />
<text id="text50-0" font-size="129.23" line-height="125%" y="-217.36" x="768.04" font-family="Gentium Book Basic" word-spacing="0" letter-spacing="0">
<tspan id="tspan52-7" y="-217.36" x="768.04" />
</text>
<text id="text54-5" transform="scale(4.0128 .24920)" font-size="46.954" y="-1221.34" x="388.47" font-family="Arial" text-anchor="middle" />
<text id="text56-2" font-size="129.23" line-height="125%" y="-297.36" x="1349.3" font-family="Gentium Book Basic" word-spacing="0" letter-spacing="0">
<tspan id="tspan58-0" y="-297.36" x="1349.3" />
</text>
<text id="text60-1" transform="scale(4.0128 .24920)" font-size="46.954" y="-1542.37" x="533.32" font-family="Arial" text-anchor="middle" />
<text style="font-size:medium;line-height:125%;font-family:'Gentium Book Basic';letter-spacing:0;word-spacing:0" sodipodi:linespacing="125%" x="-483.5" y="1117.36" id="text64">
<tspan x="-483.5" y="1117.36" id="tspan66" />
</text>
<text style="font-size:medium;line-height:125%;font-family:'Gentium Book Basic';letter-spacing:0;word-spacing:0" sodipodi:linespacing="125%" x="-1622.3301" y="592.97302" id="text68">
<tspan x="-1622.3301" y="592.97302" id="tspan70" />
</text>
<text style="font-size:medium;line-height:125%;font-family:'Gentium Book Basic';letter-spacing:0;word-spacing:0" sodipodi:linespacing="125%" x="-3981.1599" y="871.09003" id="text72">
<tspan x="-3981.1599" y="871.09003" id="tspan74" />
</text>
<text style="font-size:medium;line-height:125%;font-family:'Gentium Book Basic';letter-spacing:0;word-spacing:0" sodipodi:linespacing="125%" x="-3692.95" y="643.79999" id="text76">
<tspan x="-3692.95" y="643.79999" id="tspan78" />
</text>
<text style="font-size:medium;line-height:125%;font-family:'Gentium Book Basic';letter-spacing:0;word-spacing:0" sodipodi:linespacing="125%" x="501.65002" y="386.89999" id="text80">
<tspan x="501.65002" y="386.89999" id="tspan82" />
</text>
<text style="font-size:medium;line-height:125%;font-family:'Gentium Book Basic';letter-spacing:0;word-spacing:0" sodipodi:linespacing="125%" x="-1626.28" y="531.94" id="text84">
<tspan x="-1626.28" y="531.94" id="tspan86" />
</text>
<text style="font-size:medium;line-height:125%;font-family:'Gentium Book Basic';letter-spacing:0;word-spacing:0" sodipodi:linespacing="125%" x="-3985.1101" y="810.06" id="text88">
<tspan x="-3985.1101" y="810.06" id="tspan90" />
</text>
<text style="font-size:medium;line-height:125%;font-family:'Gentium Book Basic';letter-spacing:0;word-spacing:0" sodipodi:linespacing="125%" x="-3696.8999" y="582.77002" id="text92">
<tspan x="-3696.8999" y="582.77002" id="tspan94" />
</text>
<text id="text20-0" font-size="129.23" line-height="125%" y="-27.777" x="-68.859" font-family="Gentium Book Basic" word-spacing="0" letter-spacing="0">
<tspan id="tspan22-1" y="-27.777" x="-68.859" />
</text>
<text id="text24-3" transform="scale(4.0128 .24920)" font-size="46.954" y="-460.61" x="179.92" font-family="Arial" text-anchor="middle" />
<text id="text26-9" font-size="129.23" line-height="125%" y="-107.78" x="512.41" font-family="Gentium Book Basic" word-spacing="0" letter-spacing="0">
<tspan id="tspan28-8" y="-107.78" x="512.41" />
</text>
<text id="text30-2" transform="scale(4.0128 .24920)" font-size="46.954" y="-781.65" x="324.77" font-family="Arial" text-anchor="middle" />
<text id="text32-7" font-size="129.23" line-height="125%" y="-289.04" x="-559.17" font-family="Gentium Book Basic" word-spacing="0" letter-spacing="0">
<tspan id="tspan34-77" y="-289.04" x="-559.17" />
</text>
<text id="text36-23" transform="scale(4.0128 .24920)" font-size="46.954" y="-1508.99" x="57.732" font-family="Arial" text-anchor="middle" />
<text id="text38-3" font-size="129.23" line-height="125%" y="-505.51" x="538.88" font-family="Gentium Book Basic" word-spacing="0" letter-spacing="0">
<tspan id="tspan40-5" y="-505.51" x="538.88" />
</text>
<text id="text42-1" transform="scale(4.0128 .24920)" font-size="46.954" y="-2377.67" x="331.37" font-family="Arial" text-anchor="middle" />
<text id="text44-9" font-size="129.23" line-height="125%" y="-585.51" x="1120.15" font-family="Gentium Book Basic" word-spacing="0" letter-spacing="0">
<tspan id="tspan46-6" y="-585.51" x="1120.15" />
</text>
<text id="text48-8" transform="scale(4.0128 .24920)" font-size="46.954" y="-2698.7" x="476.22" font-family="Arial" text-anchor="middle" />
<text id="text50-7" font-size="129.23" line-height="125%" y="-1057.91" x="731.03" font-family="Gentium Book Basic" word-spacing="0" letter-spacing="0">
<tspan id="tspan52-69" y="-1057.91" x="731.03" />
</text>
<text id="text54-58" transform="scale(4.0128 .24920)" font-size="46.954" y="-4594.35" x="379.25" font-family="Arial" text-anchor="middle" />
<text id="text56-7" font-size="129.23" line-height="125%" y="-1137.92" x="1312.29" font-family="Gentium Book Basic" word-spacing="0" letter-spacing="0">
<tspan id="tspan58-72" y="-1137.92" x="1312.29" />
</text>
<text id="text60-28" transform="scale(4.0128 .24920)" font-size="46.954" y="-4915.39" x="524.1" font-family="Arial" text-anchor="middle" />
<text id="text62-48" font-size="208.33" line-height="125%" y="276.8" x="-520.51" font-family="Gentium Book Basic" word-spacing="0" letter-spacing="0">
<tspan id="tspan64-3" y="276.8" x="-520.51" />
</text>
<text id="text20-8-3" font-size="129.23" line-height="125%" y="-27.777" x="-68.859" font-family="Gentium Book Basic" word-spacing="0" letter-spacing="0">
<tspan id="tspan22-7-1" y="-27.777" x="-68.859" />
</text>
<text id="text24-0-5" transform="scale(4.0128 .24920)" font-size="46.954" y="-460.61" x="179.92" font-family="Arial" text-anchor="middle" />
<text id="text26-0-7" font-size="129.23" line-height="125%" y="-107.78" x="512.41" font-family="Gentium Book Basic" word-spacing="0" letter-spacing="0">
<tspan id="tspan28-3-0" y="-107.78" x="512.41" />
</text>
<text id="text30-7-5" transform="scale(4.0128 .24920)" font-size="46.954" y="-781.65" x="324.77" font-family="Arial" text-anchor="middle" />
<text id="text32-2-9" font-size="129.23" line-height="125%" y="-289.04" x="-559.17" font-family="Gentium Book Basic" word-spacing="0" letter-spacing="0">
<tspan id="tspan34-8-9" y="-289.04" x="-559.17" />
</text>
<text id="text36-2-3" transform="scale(4.0128 .24920)" font-size="46.954" y="-1508.99" x="57.732" font-family="Arial" text-anchor="middle" />
<text id="text38-7-6" font-size="129.23" line-height="125%" y="-505.51" x="538.88" font-family="Gentium Book Basic" word-spacing="0" letter-spacing="0">
<tspan id="tspan40-2-2" y="-505.51" x="538.88" />
</text>
<text id="text42-3-8" transform="scale(4.0128 .24920)" font-size="46.954" y="-2377.67" x="331.37" font-family="Arial" text-anchor="middle" />
<text id="text44-6-27" font-size="129.23" line-height="125%" y="-585.51" x="1120.15" font-family="Gentium Book Basic" word-spacing="0" letter-spacing="0">
<tspan id="tspan46-7-9" y="-585.51" x="1120.15" />
</text>
<text id="text48-1-1" transform="scale(4.0128 .24920)" font-size="46.954" y="-2698.7" x="476.22" font-family="Arial" text-anchor="middle" />
<text id="text50-4-5" font-size="129.23" line-height="125%" y="-1057.91" x="731.03" font-family="Gentium Book Basic" word-spacing="0" letter-spacing="0">
<tspan id="tspan52-6-9" y="-1057.91" x="731.03" />
</text>
<text id="text54-2-0" transform="scale(4.0128 .24920)" font-size="46.954" y="-4594.35" x="379.25" font-family="Arial" text-anchor="middle" />
<text id="text56-1-2" font-size="129.23" line-height="125%" y="-1137.92" x="1312.29" font-family="Gentium Book Basic" word-spacing="0" letter-spacing="0">
<tspan id="tspan58-7-8" y="-1137.92" x="1312.29" />
</text>
<text id="text60-6-5" transform="scale(4.0128 .24920)" font-size="46.954" y="-4915.39" x="524.1" font-family="Arial" text-anchor="middle" />
<text id="text62-5-2" font-size="208.33" line-height="125%" y="276.8" x="-520.51" font-family="Gentium Book Basic" word-spacing="0" letter-spacing="0">
<tspan id="tspan64-9-6" y="276.8" x="-520.51" />
</text>
<text id="text20-3-4" font-size="129.23" line-height="125%" y="812.78" x="-31.851" font-family="Gentium Book Basic" word-spacing="0" letter-spacing="0">
<tspan id="tspan22-4-0" y="812.78" x="-31.851" />
</text>
<text id="text24-9-3" transform="scale(4.0128 .24920)" font-size="46.954" y="2912.4" x="189.14" font-family="Arial" text-anchor="middle" />
<text id="text26-7-89" font-size="129.23" line-height="125%" y="732.78" x="549.42" font-family="Gentium Book Basic" word-spacing="0" letter-spacing="0">
<tspan id="tspan28-1-9" y="732.78" x="549.42" />
</text>
<text id="text30-8-4" transform="scale(4.0128 .24920)" font-size="46.954" y="2591.37" x="333.99" font-family="Arial" text-anchor="middle" />
<text id="text32-1-0" font-size="129.23" line-height="125%" y="551.52" x="-522.16" font-family="Gentium Book Basic" word-spacing="0" letter-spacing="0">
<tspan id="tspan34-7-6" y="551.52" x="-522.16" />
</text>
<text id="text36-0-1" transform="scale(4.0128 .24920)" font-size="46.954" y="1864.01" x="66.954" font-family="Arial" text-anchor="middle" />
<text id="text38-9-2" font-size="129.23" line-height="125%" y="335.05" x="575.89" font-family="Gentium Book Basic" word-spacing="0" letter-spacing="0">
<tspan id="tspan40-0-12" y="335.05" x="575.89" />
</text>
<text id="text42-0-1" transform="scale(4.0128 .24920)" font-size="46.954" y="995.35" x="340.59" font-family="Arial" text-anchor="middle" />
<text id="text44-3-4" font-size="129.23" line-height="125%" y="255.04" x="1157.16" font-family="Gentium Book Basic" word-spacing="0" letter-spacing="0">
<tspan id="tspan46-4-1" y="255.04" x="1157.16" />
</text>
<text id="text48-5-5" transform="scale(4.0128 .24920)" font-size="46.954" y="674.31" x="485.44" font-family="Arial" text-anchor="middle" />
<text id="text50-0-4" font-size="129.23" line-height="125%" y="-217.36" x="768.04" font-family="Gentium Book Basic" word-spacing="0" letter-spacing="0">
<tspan id="tspan52-7-5" y="-217.36" x="768.04" />
</text>
<text id="text54-5-43" transform="scale(4.0128 .24920)" font-size="46.954" y="-1221.34" x="388.47" font-family="Arial" text-anchor="middle" />
<text id="text56-2-6" font-size="129.23" line-height="125%" y="-297.36" x="1349.3" font-family="Gentium Book Basic" word-spacing="0" letter-spacing="0">
<tspan id="tspan58-0-2" y="-297.36" x="1349.3" />
</text>
<text id="text60-1-5" transform="scale(4.0128 .24920)" font-size="46.954" y="-1542.37" x="533.32" font-family="Arial" text-anchor="middle" />
<text style="font-size:medium;line-height:125%;font-family:'Gentium Book Basic';letter-spacing:0;word-spacing:0" sodipodi:linespacing="125%" x="-483.5" y="1117.36" id="text64-4">
<tspan x="-483.5" y="1117.36" id="tspan66-3" />
</text>
<text style="font-size:medium;line-height:125%;font-family:'Gentium Book Basic';letter-spacing:0;word-spacing:0" sodipodi:linespacing="125%" x="-1622.3301" y="592.97302" id="text68-4">
<tspan x="-1622.3301" y="592.97302" id="tspan70-8" />
</text>
<text style="font-size:medium;line-height:125%;font-family:'Gentium Book Basic';letter-spacing:0;word-spacing:0" sodipodi:linespacing="125%" x="-3981.1599" y="871.09003" id="text72-1">
<tspan x="-3981.1599" y="871.09003" id="tspan74-9" />
</text>
<text style="font-size:medium;line-height:125%;font-family:'Gentium Book Basic';letter-spacing:0;word-spacing:0" sodipodi:linespacing="125%" x="-3692.95" y="643.79999" id="text76-5">
<tspan x="-3692.95" y="643.79999" id="tspan78-2" />
</text>
<text style="font-size:medium;line-height:125%;font-family:'Gentium Book Basic';letter-spacing:0;word-spacing:0" sodipodi:linespacing="125%" x="501.65002" y="386.89999" id="text80-4">
<tspan x="501.65002" y="386.89999" id="tspan82-3" />
</text>
<text style="font-size:medium;line-height:125%;font-family:'Gentium Book Basic';letter-spacing:0;word-spacing:0" sodipodi:linespacing="125%" x="-1626.28" y="531.94" id="text84-1">
<tspan x="-1626.28" y="531.94" id="tspan86-5" />
</text>
<text style="font-size:medium;line-height:125%;font-family:'Gentium Book Basic';letter-spacing:0;word-spacing:0" sodipodi:linespacing="125%" x="-3985.1101" y="810.06" id="text88-9">
<tspan x="-3985.1101" y="810.06" id="tspan90-31" />
</text>
<text style="font-size:medium;line-height:125%;font-family:'Gentium Book Basic';letter-spacing:0;word-spacing:0" sodipodi:linespacing="125%" x="-3696.8999" y="582.77002" id="text92-2">
<tspan x="-3696.8999" y="582.77002" id="tspan94-5" />
</text>
<path style="color:#000000;fill:#ffffff;fill-rule:evenodd" inkscape:connector-curvature="0" d="m 250.1232,125.97166 c -51.1478,0 -102.29694,22.18087 -144.1274,56.26868 122.39433,149.04784 47.81544,58.11149 107.67322,131.2833 7.92097,-11.66493 21.28862,-19.31441 36.45083,-19.31441 15.28018,0 28.74235,7.7688 36.63919,19.58725 61.71535,-74.658 -15.37672,18.26261 107.48552,-131.55815 -41.76342,-34.08848 -92.93871,-56.26935 -144.08717,-56.26935 z m 0.27233,14.78948 c 44.46565,0.12911 87.24062,17.98107 122.76306,43.8878 -29.17474,35.46003 -58.03109,71.34642 -87.14683,106.79505 -20.14164,-15.80843 -51.11294,-15.73536 -71.45367,-0.20949 -29.18078,-35.46874 -58.18725,-71.07827 -87.34121,-106.62746 34.43639,-25.38854 75.75738,-42.46127 118.86153,-43.804 1.43772,-0.0331 2.88108,-0.0461 4.31545,-0.0419 z" id="path3093" />
<path style="color:#000000;opacity:0.4;fill:#ffffff;fill-rule:evenodd" inkscape:connector-curvature="0" d="m 250.1232,311.66741 c -14.68156,0 -26.5838,11.90291 -26.5838,26.5838 0,14.68155 11.90291,26.5838 26.5838,26.5838 14.68155,0 26.58379,-11.90292 26.58379,-26.5838 0,-14.68156 -11.90291,-26.5838 -26.58379,-26.5838 z" id="path3189" />
<path style="opacity:0.4;fill:#ffffff" inkscape:connector-curvature="0" d="m 250.02935,311.66741 c -14.68156,0 -26.5838,11.90291 -26.5838,26.5838 0,14.68155 11.90291,26.5838 26.5838,26.5838 14.68155,0 26.58379,-11.90292 26.58379,-26.5838 0,-14.68156 -11.90291,-26.5838 -26.58379,-26.5838 z" id="path4413" />
<path style="color:#000000;opacity:0.4;fill:#ffffff;fill-rule:evenodd" inkscape:connector-curvature="0" d="m 246.08093,140.80337 c -43.10348,1.3426 -84.42514,18.41546 -118.86153,43.80401 29.15529,35.5512 58.16244,71.15871 87.3345,106.62746 20.34274,-15.52621 51.31471,-15.59861 71.45367,0.20949 29.11574,-35.45065 57.97206,-71.33971 87.1468,-106.79505 -36.66869,-26.74133 -81.07334,-44.90206 -127.08015,-43.84423 z" id="path3096" />
<path style="fill:#ffffff;fill-rule:evenodd" inkscape:connector-curvature="0" d="m 366.85969,279.87894 c -13.89187,0 -27.94597,9.28382 -27.94597,23.35803 l 0,25.5997 -10.30678,0 0,57.18976 77.42658,0 0,-57.18976 -10.62119,0 0,-26.31163 c 0,-10.57627 -10.93759,-22.64543 -28.55331,-22.64543 z m -0.20949,12.82064 c 7.47988,-0.0391 15.62743,5.17752 15.62743,13.13503 l 0,23.00139 -30.66897,0 0.0208,-0.0209 0,-22.87604 c 0,-8.63021 8.58597,-13.20609 15.02009,-13.23961 z" id="path3595" />
<text id="text20-9" font-size="129.23" line-height="125%" y="-27.777" x="-68.859" font-family="Gentium Book Basic" word-spacing="0" letter-spacing="0">
<tspan id="tspan22-8" y="-27.777" x="-68.859" />
</text>
<text id="text24-237" transform="scale(4.0128 .24920)" font-size="46.954" y="-460.61" x="179.92" font-family="Arial" text-anchor="middle" />
<text id="text26-4" font-size="129.23" line-height="125%" y="-107.78" x="512.41" font-family="Gentium Book Basic" word-spacing="0" letter-spacing="0">
<tspan id="tspan28-19" y="-107.78" x="512.41" />
</text>
<text id="text30-72" transform="scale(4.0128 .24920)" font-size="46.954" y="-781.65" x="324.77" font-family="Arial" text-anchor="middle" />
<text id="text32-03" font-size="129.23" line-height="125%" y="-289.04" x="-559.17" font-family="Gentium Book Basic" word-spacing="0" letter-spacing="0">
<tspan id="tspan34-5" y="-289.04" x="-559.17" />
</text>
<text id="text36-1" transform="scale(4.0128 .24920)" font-size="46.954" y="-1508.99" x="57.732" font-family="Arial" text-anchor="middle" />
<text id="text38-6" font-size="129.23" line-height="125%" y="-505.51" x="538.88" font-family="Gentium Book Basic" word-spacing="0" letter-spacing="0">
<tspan id="tspan40-07" y="-505.51" x="538.88" />
</text>
<text id="text42-7" transform="scale(4.0128 .24920)" font-size="46.954" y="-2377.67" x="331.37" font-family="Arial" text-anchor="middle" />
<text id="text44-7" font-size="129.23" line-height="125%" y="-585.51" x="1120.15" font-family="Gentium Book Basic" word-spacing="0" letter-spacing="0">
<tspan id="tspan46-8" y="-585.51" x="1120.15" />
</text>
<text id="text48-0" transform="scale(4.0128 .24920)" font-size="46.954" y="-2698.7" x="476.22" font-family="Arial" text-anchor="middle" />
<text id="text50-03" font-size="129.23" line-height="125%" y="-1057.91" x="731.03" font-family="Gentium Book Basic" word-spacing="0" letter-spacing="0">
<tspan id="tspan52-9" y="-1057.91" x="731.03" />
</text>
<text id="text54-3" transform="scale(4.0128 .24920)" font-size="46.954" y="-4594.35" x="379.25" font-family="Arial" text-anchor="middle" />
<text id="text56-76" font-size="129.23" line-height="125%" y="-1137.92" x="1312.29" font-family="Gentium Book Basic" word-spacing="0" letter-spacing="0">
<tspan id="tspan58-54" y="-1137.92" x="1312.29" />
</text>
<text id="text60-2" transform="scale(4.0128 .24920)" font-size="46.954" y="-4915.39" x="524.1" font-family="Arial" text-anchor="middle" />
<text id="text62-4" font-size="208.33" line-height="125%" y="276.8" x="-520.51" font-family="Gentium Book Basic" word-spacing="0" letter-spacing="0">
<tspan id="tspan64-5" y="276.8" x="-520.51" />
</text>
<text id="text20-8-2" font-size="129.23" line-height="125%" y="-27.777" x="-68.859" font-family="Gentium Book Basic" word-spacing="0" letter-spacing="0">
<tspan id="tspan22-7-8" y="-27.777" x="-68.859" />
</text>
<text id="text24-0-0" transform="scale(4.0128 .24920)" font-size="46.954" y="-460.61" x="179.92" font-family="Arial" text-anchor="middle" />
<text id="text26-0-9" font-size="129.23" line-height="125%" y="-107.78" x="512.41" font-family="Gentium Book Basic" word-spacing="0" letter-spacing="0">
<tspan id="tspan28-3-2" y="-107.78" x="512.41" />
</text>
<text id="text30-7-2" transform="scale(4.0128 .24920)" font-size="46.954" y="-781.65" x="324.77" font-family="Arial" text-anchor="middle" />
<text id="text32-2-1" font-size="129.23" line-height="125%" y="-289.04" x="-559.17" font-family="Gentium Book Basic" word-spacing="0" letter-spacing="0">
<tspan id="tspan34-8-0" y="-289.04" x="-559.17" />
</text>
<text id="text36-2-6" transform="scale(4.0128 .24920)" font-size="46.954" y="-1508.99" x="57.732" font-family="Arial" text-anchor="middle" />
<text id="text38-7-3" font-size="129.23" line-height="125%" y="-505.51" x="538.88" font-family="Gentium Book Basic" word-spacing="0" letter-spacing="0">
<tspan id="tspan40-2-51" y="-505.51" x="538.88" />
</text>
<text id="text42-3-4" transform="scale(4.0128 .24920)" font-size="46.954" y="-2377.67" x="331.37" font-family="Arial" text-anchor="middle" />
<text id="text44-6-2" font-size="129.23" line-height="125%" y="-585.51" x="1120.15" font-family="Gentium Book Basic" word-spacing="0" letter-spacing="0">
<tspan id="tspan46-7-1" y="-585.51" x="1120.15" />
</text>
<text id="text48-1-3" transform="scale(4.0128 .24920)" font-size="46.954" y="-2698.7" x="476.22" font-family="Arial" text-anchor="middle" />
<text id="text50-4-9" font-size="129.23" line-height="125%" y="-1057.91" x="731.03" font-family="Gentium Book Basic" word-spacing="0" letter-spacing="0">
<tspan id="tspan52-6-1" y="-1057.91" x="731.03" />
</text>
<text id="text54-2-11" transform="scale(4.0128 .24920)" font-size="46.954" y="-4594.35" x="379.25" font-family="Arial" text-anchor="middle" />
<text id="text56-1-1" font-size="129.23" line-height="125%" y="-1137.92" x="1312.29" font-family="Gentium Book Basic" word-spacing="0" letter-spacing="0">
<tspan id="tspan58-7-52" y="-1137.92" x="1312.29" />
</text>
<text id="text60-6-6" transform="scale(4.0128 .24920)" font-size="46.954" y="-4915.39" x="524.1" font-family="Arial" text-anchor="middle" />
<text id="text62-5-4" font-size="208.33" line-height="125%" y="276.8" x="-520.51" font-family="Gentium Book Basic" word-spacing="0" letter-spacing="0">
<tspan id="tspan64-9-14" y="276.8" x="-520.51" />
</text>
<text id="text20-3-3" font-size="129.23" line-height="125%" y="812.78" x="-31.851" font-family="Gentium Book Basic" word-spacing="0" letter-spacing="0">
<tspan id="tspan22-4-8" y="812.78" x="-31.851" />
</text>
<text id="text24-9-6" transform="scale(4.0128 .24920)" font-size="46.954" y="2912.4" x="189.14" font-family="Arial" text-anchor="middle" />
<text id="text26-7-8" font-size="129.23" line-height="125%" y="732.78" x="549.42" font-family="Gentium Book Basic" word-spacing="0" letter-spacing="0">
<tspan id="tspan28-1-6" y="732.78" x="549.42" />
</text>
<text id="text30-8-6" transform="scale(4.0128 .24920)" font-size="46.954" y="2591.37" x="333.99" font-family="Arial" text-anchor="middle" />
<text id="text32-1-9" font-size="129.23" line-height="125%" y="551.52" x="-522.16" font-family="Gentium Book Basic" word-spacing="0" letter-spacing="0">
<tspan id="tspan34-7-9" y="551.52" x="-522.16" />
</text>
<text id="text36-0-0" transform="scale(4.0128 .24920)" font-size="46.954" y="1864.01" x="66.954" font-family="Arial" text-anchor="middle" />
<text id="text38-9-0" font-size="129.23" line-height="125%" y="335.05" x="575.89" font-family="Gentium Book Basic" word-spacing="0" letter-spacing="0">
<tspan id="tspan40-0-1" y="335.05" x="575.89" />
</text>
<text id="text42-0-6" transform="scale(4.0128 .24920)" font-size="46.954" y="995.35" x="340.59" font-family="Arial" text-anchor="middle" />
<text id="text44-3-46" font-size="129.23" line-height="125%" y="255.04" x="1157.16" font-family="Gentium Book Basic" word-spacing="0" letter-spacing="0">
<tspan id="tspan46-4-9" y="255.04" x="1157.16" />
</text>
<text id="text48-5-0" transform="scale(4.0128 .24920)" font-size="46.954" y="674.31" x="485.44" font-family="Arial" text-anchor="middle" />
<text id="text50-0-0" font-size="129.23" line-height="125%" y="-217.36" x="768.04" font-family="Gentium Book Basic" word-spacing="0" letter-spacing="0">
<tspan id="tspan52-7-3" y="-217.36" x="768.04" />
</text>
<text id="text54-5-4" transform="scale(4.0128 .24920)" font-size="46.954" y="-1221.34" x="388.47" font-family="Arial" text-anchor="middle" />
<text id="text56-2-1" font-size="129.23" line-height="125%" y="-297.36" x="1349.3" font-family="Gentium Book Basic" word-spacing="0" letter-spacing="0">
<tspan id="tspan58-0-4" y="-297.36" x="1349.3" />
</text>
<text id="text60-1-54" transform="scale(4.0128 .24920)" font-size="46.954" y="-1542.37" x="533.32" font-family="Arial" text-anchor="middle" />
<text style="font-size:medium;line-height:125%;font-family:'Gentium Book Basic';letter-spacing:0;word-spacing:0" sodipodi:linespacing="125%" x="-483.5" y="1117.36" id="text64-2">
<tspan x="-483.5" y="1117.36" id="tspan66-7" />
</text>
<text style="font-size:medium;line-height:125%;font-family:'Gentium Book Basic';letter-spacing:0;word-spacing:0" sodipodi:linespacing="125%" x="-1622.3301" y="592.97302" id="text68-2">
<tspan x="-1622.3301" y="592.97302" id="tspan70-7" />
</text>
<text style="font-size:medium;line-height:125%;font-family:'Gentium Book Basic';letter-spacing:0;word-spacing:0" sodipodi:linespacing="125%" x="-3981.1599" y="871.09003" id="text72-8">
<tspan x="-3981.1599" y="871.09003" id="tspan74-6" />
</text>
<text style="font-size:medium;line-height:125%;font-family:'Gentium Book Basic';letter-spacing:0;word-spacing:0" sodipodi:linespacing="125%" x="-3692.95" y="643.79999" id="text76-7">
<tspan x="-3692.95" y="643.79999" id="tspan78-3" />
</text>
<text style="font-size:medium;line-height:125%;font-family:'Gentium Book Basic';letter-spacing:0;word-spacing:0" sodipodi:linespacing="125%" x="501.65002" y="386.89999" id="text80-6">
<tspan x="501.65002" y="386.89999" id="tspan82-5" />
</text>
<text style="font-size:medium;line-height:125%;font-family:'Gentium Book Basic';letter-spacing:0;word-spacing:0" sodipodi:linespacing="125%" x="-1626.28" y="531.94" id="text84-3">
<tspan x="-1626.28" y="531.94" id="tspan86-2" />
</text>
<text style="font-size:medium;line-height:125%;font-family:'Gentium Book Basic';letter-spacing:0;word-spacing:0" sodipodi:linespacing="125%" x="-3985.1101" y="810.06" id="text88-2">
<tspan x="-3985.1101" y="810.06" id="tspan90-3" />
</text>
<text style="font-size:medium;line-height:125%;font-family:'Gentium Book Basic';letter-spacing:0;word-spacing:0" sodipodi:linespacing="125%" x="-3696.8999" y="582.77002" id="text92-3">
<tspan x="-3696.8999" y="582.77002" id="tspan94-4" />
</text>
</svg>
