<?xml version="1.0" encoding="UTF-8" standalone="no"?>
<svg xmlns:dc="http://purl.org/dc/elements/1.1/" xmlns:cc="http://creativecommons.org/ns#" xmlns:rdf="http://www.w3.org/1999/02/22-rdf-syntax-ns#" xmlns:svg="http://www.w3.org/2000/svg" xmlns="http://www.w3.org/2000/svg" xmlns:sodipodi="http://sodipodi.sourceforge.net/DTD/sodipodi-0.dtd" xmlns:inkscape="http://www.inkscape.org/namespaces/inkscape" viewBox="0 0 512 512" height="512" width="512" version="1.1" id="svg2" inkscape:version="0.91 r" sodipodi:docname="user-trash-full.svg">
<sodipodi:namedview pagecolor="#ffffff" bordercolor="#666666" borderopacity="1" objecttolerance="10" gridtolerance="10" guidetolerance="10" inkscape:pageopacity="0" inkscape:pageshadow="2" inkscape:window-width="733" inkscape:window-height="480" id="namedview21" showgrid="false" inkscape:zoom="0.4609375" inkscape:cx="256" inkscape:cy="256" inkscape:window-x="0" inkscape:window-y="0" inkscape:window-maximized="0" inkscape:current-layer="svg2" />
<metadata id="metadata833">
<rdf:RDF>
<cc:Work rdf:about="">
<dc:format>image/svg+xml</dc:format>
<dc:type rdf:resource="http://purl.org/dc/dcmitype/StillImage" />
</cc:Work>
</rdf:RDF>
</metadata>
<defs id="defs4">
<linearGradient gradientUnits="userSpaceOnUse" id="0-4" y2="471.66" x2="0" y1="33.753">
<stop id="stop7-6" stop-color="#6a6a6a" />
<stop offset="0.47" id="stop9-5" />
<stop offset="0.494" id="stop11-9" stop-color="#ffffff" />
<stop offset="0.901" id="stop13-7" stop-color="#ffffff" />
<stop offset="0.955" id="stop15-5" />
<stop offset="1" id="stop17-0" />
</linearGradient>
</defs>
<path d="m 471.95,253.05 c 0,120.9 -98.01,218.91 -218.91,218.91 -120.9,0 -218.91,-98.01 -218.91,-218.91 0,-120.9 98.01,-218.91 218.91,-218.91 120.9,0 218.91,98.01 218.91,218.91" id="path21" fill="#d23638" fill-rule="evenodd" />
<path id="path829" d="m 229.02999,86.19 c -6.111,0 -11.219,6.642 -12.781,15.75 l 0,4.531 79.5,0 0,-4.531 c -1.56199,-9.108 -6.671,-15.75 -12.781,-15.75 l -53.938,0 m -55.938,32.16 c -18.793,0 -34.544,13.09 -39.34,31.06 l 0,8.938 244.50001,0 0,-8.938 c -4.804,-17.978 -20.555,-31.06 -39.34,-31.06 l -165.81001,0 m -21.06,55.41 0,61.53 0,4.813 0,149.38 c 0,19.09 15.375,34.469 34.469,34.469 l 138.97001,0 c 19.09,0 34.469,-15.375 34.469,-34.469 l 0,-149.37 0,-4.813 0,-61.53 -207.91001,0" fill="#ffffff" />
</svg>
