/* XPM */
static char * desktop_xpm[] = {
"48 48 88 1",
" 	c None",
".	c #A7A7A7",
"+	c #BCBCBC",
"@	c #C4C4C4",
"#	c #9A9A9A",
"$	c #B5B5B5",
"%	c #ADADAD",
"&	c #949494",
"*	c #878787",
"=	c #7F7F7F",
"-	c #A0A0A0",
";	c #4C4C4C",
">	c #444444",
",	c #474747",
"'	c #3F3F3F",
")	c #8F8F8F",
"!	c #585858",
"~	c #5F5F5F",
"{	c #848484",
"]	c #676767",
"^	c #8C8C8C",
"/	c #7A7A7A",
"(	c #7B7B7B",
"_	c #767676",
":	c #737373",
"<	c #5E5E5E",
"[	c #777777",
"}	c #636363",
"|	c #666666",
"1	c #898989",
"2	c #7E7E7E",
"3	c #686868",
"4	c #252525",
"5	c #2B2B2B",
"6	c #2F2F2F",
"7	c #333333",
"8	c #393939",
"9	c #353535",
"0	c #7C7C7C",
"a	c #6E6E6E",
"b	c #6A6A6A",
"c	c #232323",
"d	c #272727",
"e	c #373737",
"f	c #6F6F6F",
"g	c #575757",
"h	c #979797",
"i	c #545454",
"j	c #858585",
"k	c #5B5B5B",
"l	c #3B3B3B",
"m	c #1A1A1A",
"n	c #8E8E8E",
"o	c #868686",
"p	c #434343",
"q	c #424242",
"r	c #3D3D3D",
"s	c #535353",
"t	c #4F4F4F",
"u	c #727272",
"v	c #313131",
"w	c #404040",
"x	c #818181",
"y	c #919191",
"z	c #1B1B1B",
"A	c #6C6C6C",
"B	c #1F1F1F",
"C	c #484848",
"D	c #4B4B4B",
"E	c #525252",
"F	c #2D2D2D",
"G	c #0D0D0D",
"H	c #292929",
"I	c #060606",
"J	c #131313",
"K	c #0F0F0F",
"L	c #4E4E4E",
"M	c #191919",
"N	c #1E1E1E",
"O	c #171717",
"P	c #181818",
"Q	c #464646",
"R	c #565656",
"S	c #626262",
"T	c #5A5A5A",
"U	c #606060",
"V	c #8D8D8D",
"W	c #000000",
"                                                ",
"                                                ",
"                                                ",
"    .+@@@@@@@@@@@@@@@@@@@@@@@@@@@@@@@@@@@@+.    ",
"   #+$$$$$$$$$$$$$$$$$+++@+++@+++++++@+++++@#   ",
"   $$$$$$$$$$$$$$$$$$$$+++++++++++++++++@+++$   ",
"   +%$%&****=**********************=****-$+++   ",
"   $$$#=;>,,,,;,,;,,>,,,,,,,,,,,;';;>>>;=#++$   ",
"   $%%);!~{{~~~~]~~~~~~~^/(((((/((((_(/:;)$++   ",
"   $$%*,~~**<({(__(:[_}|1===(=(22=(2((((>*++$   ",
"   $%%)>~}}}~}3}~3~33~}}(=22(=(2===2(=((>*$#.   ",
"   $%%)4566676676877977780abbababbbbbbb]c*&.&$6d",
"   $%%)466777777ee6e67977fbbbbabbbbbbb]}3-%-.&0 ",
"   $%%)466556679e66e97799gfbbbbbb]bbb]:h)=%):if ",
"   $%%)466]j[k676eleeeeee8(bbbbbb]b|f))=.&0k8m  ",
"   $%.)465n))n68eeel8888el3bbbb]||]o#(h-*]pq)   ",
"   %.%&465*00*58l88lrrrr8rsf~a~f](#**.*ft8:%%   ",
"   %%%&465]uu]vrrrrrrrrrrrwxa<a<y*=%y:i8z*%%%   ",
"   %..h46766ve8rrwwwwpwwwww~A~~=*.h(~q7;By.%%   ",
"   ...#4v766vv8wwwwppppppppsfsC$-*],vDgEBh%%%   ",
"   %.-#476*::=8wppppp,p,,,ppFG7fft7'gggg4#%..   ",
"   %..#H9vh-y)8pp>p,,DD,,,7BBGId87sggkkiB&-..   ",
"   .-.-Hevh-))l,,,,DDD,,pF6JBIKrsggkggEDcy-..   ",
"   ..-#He9:(=3l,,,D,,tD9vvdGKCskkkktDttD4y-..   ",
"   .---Hll89l',,DDttL'd66BBHpg<<kDD;LttD4&---   ",
"   .---Hl'ww,,,DDt;,F86MBdppDD!LDDDDDLLD4&-..   ",
"   ----Hl'w,,,D;t;e76mBNlpr'e8DDDDDDDD;;H-.--   ",
"   ----5rww,,,D;p97dOPv8eee888QDDE;tiRRt5--.-   ",
"   -#-.5rw,,,D;rq6mMcvv99e88lpD}<<k!RREtH.---   ",
"   -##.Fl,,,,,C8dMMHvvv98pLsRssS<kk!ssED5.---   ",
"   ###.5'w,,Dp6MmcFv8pDg~k!!TRR!<kgssEtDH.-##   ",
"   -##.5',,p6Pmv8,L!~~~~~~~kk!RR<!gsgtt,6%-##   ",
"   ###.6r>DDw,ERRRkkkUUUUUkkk!RRT!sEttDpF%###   ",
"   #h#%6'>,DttEsR!kkk}}}}}}Uk!!RRsgE;;Dp5%###   ",
"   ###%6',DDttERR!kUU}}]]}}UUk!!REE;DD>w5%###   ",
"   &hh%6',,DttERRkkkU}]]]}}UkkkRREt;DD>w6%hhh   ",
"   &h&%6',,DDtER!!kkU}]]]]}UkkkRRtt;D>>w6$&hh   ",
"   #h&%D]Afa::____222====2=2///____:ffA3;%&&h   ",
"   &&&$D]Ax**1=_1^^V^2))))V22_/___::ffA]D$&&&   ",
"   &&&$g~3f:::[:[///(_22=2(__:::aAAAA]]~g$&&h   ",
"   &)&.hgLstsgsigggggg!gg!ggggggigsisLLgh.&)&   ",
"   &yyh.$$$$$$$$$$$$$$$$$$$$$$$$$$$$$$$$%y)y&   ",
"   0)y))yy)))yy)y)))yy))&)))yy)))y)))y))))))0   ",
"   ,&))y)))))))))))yy))))))))))))))))))))))yC   ",
"   I,=&&&####-#-------.....------#-#####h&=,I   ",
"     WWWWWWWWWWWWWWWWWWWWWWWWWWWWWWWWWWWWWW     ",
"                                                ",
"                                                "};
