<svg xmlns="http://www.w3.org/2000/svg" width="48" height="48">
<defs>
<defs
     id="defs5">
  </defs>
  <path
     id="path-main"
     d="m 22.375,4.375 0,5.90625 -4.75,-2.71875 -1.25,2.15625 6,3.4375 0,8.0625 -7,-4.03125 0,-6.90625 -2.46875,0 0,5.46875 -5.125,-2.9375 -1.65625,2.8125 5.125,2.96875 -4.75,2.75 1.25,2.15625 6,-3.46875 7,4.03125 -7,4.03125 -6,-3.46875 -1.25,2.15625 4.75,2.75 -5.125,2.96875 1.65625,2.8125 5.125,-2.9375 0,5.46875 2.46875,0 0,-6.90625 7,-4.03125 0,8.0625 -6,3.4375 1.25,2.15625 4.75,-2.71875 0,5.90625 3.25,0 0,-5.90625 4.75,2.71875 1.25,-2.15625 -6,-3.4375 0,-8.0625 7,4.03125 0,6.90625 2.46875,0 0,-5.46875 5.125,2.9375 L 41.875,32.5 36.75,29.53125 l 4.75,-2.75 -1.25,-2.15625 -6,3.46875 -7,-4.03125 7,-4.03125 6,3.46875 1.25,-2.15625 -4.75,-2.75 5.125,-2.96875 -1.65625,-2.8125 -5.125,2.9375 0,-5.46875 -2.46875,0 0,6.90625 -7,4.03125 0,-8.0625 6,-3.4375 -1.25,-2.15625 -4.75,2.71875 0,-5.90625 -3.25,0 z" />
</defs>
<acyl-settings>
<use id="1" style="fill:#FFF" xlink:href="#path-main" />


</acyl-settings>
</svg>
