<?xml version="1.0" encoding="UTF-8" standalone="no"?>
<svg xmlns:dc="http://purl.org/dc/elements/1.1/" xmlns:cc="http://creativecommons.org/ns#" xmlns:rdf="http://www.w3.org/1999/02/22-rdf-syntax-ns#" xmlns:svg="http://www.w3.org/2000/svg" xmlns="http://www.w3.org/2000/svg" xmlns:sodipodi="http://sodipodi.sourceforge.net/DTD/sodipodi-0.dtd" xmlns:inkscape="http://www.inkscape.org/namespaces/inkscape" height="512" width="512" version="1.1" viewBox="0 0 512 512" id="svg2" inkscape:version="0.91 r" sodipodi:docname="drive-harddisk-scsi.svg">
<defs id="defs45" />
<sodipodi:namedview pagecolor="#ffffff" bordercolor="#666666" borderopacity="1" objecttolerance="10" gridtolerance="10" guidetolerance="10" inkscape:pageopacity="0" inkscape:pageshadow="2" inkscape:window-width="1680" inkscape:window-height="994" id="namedview43" showgrid="false" inkscape:zoom="0.4609375" inkscape:cx="-116.0678" inkscape:cy="256" inkscape:window-x="0" inkscape:window-y="0" inkscape:window-maximized="1" inkscape:current-layer="svg2" />
<metadata id="metadata84">
<rdf:RDF>
<cc:Work rdf:about="">
<dc:format>image/svg+xml</dc:format>
<dc:type rdf:resource="http://purl.org/dc/dcmitype/StillImage" />
</cc:Work>
</rdf:RDF>
</metadata>
<text id="text20" font-size="129.23" line-height="125%" y="231.36" x="729.64" font-family="Gentium Book Basic" word-spacing="0" letter-spacing="0">
<tspan id="tspan22" y="231.36" x="729.64" />
</text>
<text id="text24" transform="scale(4.0128 .2492)" font-size="46.954" y="579.25" x="378.91" font-family="Arial" text-anchor="middle" />
<text id="text26" font-size="129.23" line-height="125%" y="151.36" x="1310.91" font-family="Gentium Book Basic" word-spacing="0" letter-spacing="0">
<tspan id="tspan28" y="151.36" x="1310.91" />
</text>
<text id="text30" transform="scale(4.0128 .2492)" font-size="46.954" y="258.22" x="523.76" font-family="Arial" text-anchor="middle" />
<text id="text32" font-size="129.23" line-height="125%" y="-29.901" x="239.33" font-family="Gentium Book Basic" word-spacing="0" letter-spacing="0">
<tspan id="tspan34" y="-29.901" x="239.33" />
</text>
<text id="text36" transform="scale(4.0128 .2492)" font-size="46.954" y="-469.14" x="256.72" font-family="Arial" text-anchor="middle" />
<text id="text38" font-size="129.23" line-height="125%" y="-246.37" x="1337.38" font-family="Gentium Book Basic" word-spacing="0" letter-spacing="0">
<tspan id="tspan40" y="-246.37" x="1337.38" />
</text>
<text id="text42" transform="scale(4.0128 .2492)" font-size="46.954" y="-1337.81" x="530.36" font-family="Arial" text-anchor="middle" />
<text id="text44" font-size="129.23" line-height="125%" y="-326.38" x="1918.65" font-family="Gentium Book Basic" word-spacing="0" letter-spacing="0">
<tspan id="tspan46" y="-326.38" x="1918.65" />
</text>
<text id="text48" transform="scale(4.0128 .2492)" font-size="46.954" y="-1658.85" x="675.21" font-family="Arial" text-anchor="middle" />
<text id="text50" font-size="129.23" line-height="125%" y="-798.78" x="1529.53" font-family="Gentium Book Basic" word-spacing="0" letter-spacing="0">
<tspan id="tspan52" y="-798.78" x="1529.53" />
</text>
<text id="text54" transform="scale(4.0128 .2492)" font-size="46.954" y="-3554.51" x="578.24" font-family="Arial" text-anchor="middle" />
<text id="text56" font-size="129.23" line-height="125%" y="-878.78" x="2110.79" font-family="Gentium Book Basic" word-spacing="0" letter-spacing="0">
<tspan id="tspan58" y="-878.78" x="2110.79" />
</text>
<text id="text60" transform="scale(4.0128 .2492)" font-size="46.954" y="-3875.54" x="723.09" font-family="Arial" text-anchor="middle" />
<text id="text62" font-size="208.33" line-height="125%" y="535.94" x="277.99" font-family="Gentium Book Basic" word-spacing="0" letter-spacing="0">
<tspan id="tspan64" y="535.94" x="277.99" />
</text>
<g id="g66" transform="matrix(1.2971444,0,0,1.2971444,-76.069106,-76.070443)" style="fill:#ffffff">
<path id="path68" d="m 161.75,95.38 c -16.628,0 -29.969,13.403 -29.969,30.03 l 0,261.19 c 0,16.628 13.341,30.03 29.969,30.03 l 188.47,0 c 16.628,0 30,-13.403 30,-30.03 l 0,-261.19 c 0,-16.628 -13.372,-30.03 -30,-30.03 l -188.47,0 m 7.906,22.22 172.69,0 c 8.935,0 16.13,7.159 16.13,16.09 l 0,244.56 c 0,8.935 -7.19,16.13 -16.12,16.13 l -172.69,0 c -8.935,0 -16.16,-7.19 -16.16,-16.12 l 0,-244.56 c 0,-8.935 7.222,-16.09 16.16,-16.09" inkscape:connector-curvature="0" />
<path id="path70" d="m 307.88,138.48 c -6.163,0 -11.124,5.441 -11.124,12.21 l 0,35.588 c 0,6.769 4.961,12.21 11.124,12.21 6.163,0 11.124,-5.441 11.124,-12.21 l 0,-35.59 c 0,-6.769 -4.961,-12.21 -11.124,-12.21" inkscape:connector-curvature="0" />
<path id="path72" d="m 277.55,138.83 c -6.163,0 -11.124,5.441 -11.124,12.21 l 0,35.588 c 0,6.769 4.961,12.21 11.124,12.21 6.163,0 11.124,-5.441 11.124,-12.21 l 0,-35.59 c 0,-6.769 -4.961,-12.21 -11.124,-12.21" inkscape:connector-curvature="0" />
<path id="path74" d="m 202.73,138.96 c -6.769,0 -12.21,4.961 -12.21,11.124 0,6.163 5.441,11.124 12.21,11.124 l 35.588,0 c 6.769,0 12.21,-4.961 12.21,-11.124 0,-6.163 -5.441,-11.124 -12.21,-11.124 l -35.59,0" inkscape:connector-curvature="0" />
<path id="path76" d="m 202.73,169.77 c -6.769,0 -12.21,4.961 -12.21,11.124 0,6.163 5.441,11.124 12.21,11.124 l 35.588,0 c 6.769,0 12.21,-4.961 12.21,-11.124 0,-6.163 -5.441,-11.124 -12.21,-11.124 l -35.59,0" inkscape:connector-curvature="0" />
<path id="path78" d="m 256.41,211.21 -7.418,7.418 -68.57,68.57 -7.418,7.583 7.418,7.418 68.57,68.57 7.583,7.583 7.418,-7.583 54.892,-54.892 -29.836,0 -32.474,32.638 -53.738,-53.738 53.57,-53.738 32.638,32.639 29.836,0 -55.06,-55.06 -7.418,-7.418 m 0,73.02 0,21.1 84.4,0 0,-21.1 -84.4,0" inkscape:connector-curvature="0" style="color:#000000" />
</g>
</svg>
