<?xml version="1.0" encoding="UTF-8" standalone="no"?>
<svg xmlns="http://www.w3.org/2000/svg" height="512" width="512" version="1.1" viewBox="0 0 512 512">
 <metadata id="metadata204"/>
 <text id="text4" font-size="129.23" line-height="125%" y="369.84" x="1296.56" font-family="Gentium Book Basic" word-spacing="0" letter-spacing="0"><tspan id="tspan6" y="369.84" x="1296.56"/>
 </text>
 <text id="text8" transform="scale(4.0128 .2492)" font-size="46.954" y="1134.95" x="520.18" font-family="Arial" text-anchor="middle"/>
 <text id="text10" font-size="129.23" line-height="125%" y="289.84" x="1877.82" font-family="Gentium Book Basic" word-spacing="0" letter-spacing="0"><tspan id="tspan12" y="289.84" x="1877.82"/>
 </text>
 <text id="text14" transform="scale(4.0128 .2492)" font-size="46.954" y="813.91" x="665.03" font-family="Arial" text-anchor="middle"/>
 <text id="text16" font-size="129.23" line-height="125%" y="108.58" x="806.25" font-family="Gentium Book Basic" word-spacing="0" letter-spacing="0"><tspan id="tspan18" y="108.58" x="806.25"/>
 </text>
 <text id="text20" transform="scale(4.0128 .2492)" font-size="46.954" y="86.56" x="398" font-family="Arial" text-anchor="middle"/>
 <text id="text22" font-size="129.23" line-height="125%" y="-107.89" x="1904.3" font-family="Gentium Book Basic" word-spacing="0" letter-spacing="0"><tspan id="tspan24" y="-107.89" x="1904.3"/>
 </text>
 <text id="text26" transform="scale(4.0128 .2492)" font-size="46.954" y="-782.11" x="671.63" font-family="Arial" text-anchor="middle"/>
 <text id="text28" font-size="129.23" line-height="125%" y="-187.9" x="2485.56" font-family="Gentium Book Basic" word-spacing="0" letter-spacing="0"><tspan id="tspan30" y="-187.9" x="2485.56"/>
 </text>
 <text id="text32" transform="scale(4.0128 .2492)" font-size="46.954" y="-1103.15" x="816.48" font-family="Arial" text-anchor="middle"/>
 <text id="text34" font-size="129.23" line-height="125%" y="-660.3" x="2096.44" font-family="Gentium Book Basic" word-spacing="0" letter-spacing="0"><tspan id="tspan36" y="-660.3" x="2096.44"/>
 </text>
 <text id="text38" transform="scale(4.0128 .2492)" font-size="46.954" y="-2998.81" x="719.51" font-family="Arial" text-anchor="middle"/>
 <text id="text40" font-size="129.23" line-height="125%" y="-740.3" x="2677.71" font-family="Gentium Book Basic" word-spacing="0" letter-spacing="0"><tspan id="tspan42" y="-740.3" x="2677.71"/>
 </text>
 <text id="text44" transform="scale(4.0128 .2492)" font-size="46.954" y="-3319.85" x="864.37" font-family="Arial" text-anchor="middle"/>
 <text id="text46" font-size="208.33" line-height="125%" y="674.42" x="844.9" font-family="Gentium Book Basic" word-spacing="0" letter-spacing="0"><tspan id="tspan48" y="674.42" x="844.9"/>
 </text>
 <path id="path50" fill="#68af4c" d="m471.95 253.05c0 120.9-98.01 218.9-218.9 218.9-120.9 0-218.9-98.01-218.9-218.9 0-120.9 98.01-218.9 218.9-218.9 120.9 0 218.9 98.01 218.9 218.9" fill-rule="evenodd"/>
 <path id="path52" d="m391.16 109.5c-16.262 7.468-27.04 24.413-40.656 36.22l-20.531 20.438c-27.919-20.637-68.896-11.972-89.66 14.75-8.889 15.238-16.255 5.187-26.813-3.219-32.634 9.475 11.253 37.31 22.375 51.44 58.51 58.46 116.81 116.95 175.25 175.38 37.678-39.32 60.813-92.68 60.813-151.44 0-29.722-5.925-58.07-16.656-83.91-19.287-19.247-38.581-38.451-57.938-57.62-1.763-1.284-4.03-2.028-6.188-2.031m-202.97 90.31c-31.568 8.938 21.2 31.22-8.281 41.5-26.14 20.756-33.877 61.2-13.688 88.63-18.651 19.489-39.24 37.448-56.19 58.31-0.562 13.439 14.533 19.844 21.906 29.563 12.671 12.561 25.308 25.17 37.938 37.781 25.645 10.543 53.741 16.344 83.19 16.344 58.77 0 112.11-23.15 151.44-60.844-69.59-69.7-139.2-139.37-209.66-209.06-1.169-3.17-4.988-0.527-6.656-2.219" fill-opacity="0.235"/>
 <g id="g54" fill-rule="evenodd">
  <path id="path56" d="m256 1c-140.83 0-255 114.17-255 255s114.17 255 255 255 255-114.17 255-255-114.17-255-255-255m8.827 44.931c120.9 0 218.9 98 218.9 218.9s-98 218.9-218.9 218.9-218.93-98-218.93-218.9 98.03-218.9 218.93-218.9" fill-opacity="0.067"/>
  <g id="g58" fill-opacity="0.129">
   <path id="path60" d="m256 4.433c-138.94 0-251.57 112.63-251.57 251.57s112.63 251.57 251.57 251.57 251.57-112.63 251.57-251.57-112.63-251.57-251.57-251.57m5.885 38.556c120.9 0 218.9 98 218.9 218.9s-98 218.9-218.9 218.9-218.93-98-218.93-218.9 98.03-218.9 218.93-218.9"/>
   <path id="path62" d="m256 8.356c-136.77 0-247.64 110.87-247.64 247.64s110.87 247.64 247.64 247.64 247.64-110.87 247.64-247.64-110.87-247.64-247.64-247.64m2.942 31.691c120.9 0 218.9 98 218.9 218.9s-98 218.9-218.9 218.9-218.93-98-218.93-218.9 98.03-218.9 218.93-218.9"/>
  </g>
  <path id="path64" d="m253.04 7.859c-135.42 0-245.19 109.78-245.19 245.19 0 135.42 109.78 245.19 245.19 245.19 135.42 0 245.19-109.78 245.19-245.19 0-135.42-109.78-245.19-245.19-245.19zm0 26.297c120.9 0 218.9 98 218.9 218.9s-98 218.9-218.9 218.9-218.93-98-218.93-218.9 98.03-218.9 218.93-218.9z" stroke-opacity="0.31" stroke="#000" stroke-width="4.904" fill="#fff"/>
 </g>
 <text id="text66" font-size="129.23" line-height="125%" y="231.36" x="729.64" font-family="Gentium Book Basic" word-spacing="0" letter-spacing="0"><tspan id="tspan68" y="231.36" x="729.64"/>
 </text>
 <text id="text70" transform="scale(4.0128 .2492)" font-size="46.954" y="579.25" x="378.91" font-family="Arial" text-anchor="middle"/>
 <text id="text72" font-size="129.23" line-height="125%" y="151.36" x="1310.91" font-family="Gentium Book Basic" word-spacing="0" letter-spacing="0"><tspan id="tspan74" y="151.36" x="1310.91"/>
 </text>
 <text id="text76" transform="scale(4.0128 .2492)" font-size="46.954" y="258.22" x="523.76" font-family="Arial" text-anchor="middle"/>
 <text id="text78" font-size="129.23" line-height="125%" y="-29.901" x="239.33" font-family="Gentium Book Basic" word-spacing="0" letter-spacing="0"><tspan id="tspan80" y="-29.901" x="239.33"/>
 </text>
 <text id="text82" transform="scale(4.0128 .2492)" font-size="46.954" y="-469.14" x="256.72" font-family="Arial" text-anchor="middle"/>
 <text id="text84" font-size="129.23" line-height="125%" y="-246.37" x="1337.38" font-family="Gentium Book Basic" word-spacing="0" letter-spacing="0"><tspan id="tspan86" y="-246.37" x="1337.38"/>
 </text>
 <text id="text88" transform="scale(4.0128 .2492)" font-size="46.954" y="-1337.8" x="530.36" font-family="Arial" text-anchor="middle"/>
 <text id="text90" font-size="129.23" line-height="125%" y="-326.38" x="1918.65" font-family="Gentium Book Basic" word-spacing="0" letter-spacing="0"><tspan id="tspan92" y="-326.38" x="1918.65"/>
 </text>
 <text id="text94" transform="scale(4.0128 .2492)" font-size="46.954" y="-1658.84" x="675.21" font-family="Arial" text-anchor="middle"/>
 <text id="text96" font-size="129.23" line-height="125%" y="-798.78" x="1529.53" font-family="Gentium Book Basic" word-spacing="0" letter-spacing="0"><tspan id="tspan98" y="-798.78" x="1529.53"/>
 </text>
 <text id="text100" transform="scale(4.0128 .2492)" font-size="46.954" y="-3554.49" x="578.24" font-family="Arial" text-anchor="middle"/>
 <text id="text102" font-size="129.23" line-height="125%" y="-878.78" x="2110.79" font-family="Gentium Book Basic" word-spacing="0" letter-spacing="0"><tspan id="tspan104" y="-878.78" x="2110.79"/>
 </text>
 <text id="text106" transform="scale(4.0128 .2492)" font-size="46.954" y="-3875.52" x="723.09" font-family="Arial" text-anchor="middle"/>
 <g id="g108" font-family="Gentium Book Basic" line-height="125%" word-spacing="0" letter-spacing="0">
  <text id="text110" y="535.94" x="277.99" font-size="208.33"><tspan id="tspan112" y="535.94" x="277.99"/>
  </text>
  <text id="text114" y="1125.07" x="-27646.87" font-size="4848.2"><tspan id="tspan116" y="1125.07" x="-27646.87"/>
  </text>
 </g>
 <text id="text118" transform="scale(4.0128 .2492)" font-size="1761.7" y="-8584.7" x="504.33" font-family="Arial" text-anchor="middle"/>
 <text id="text120" font-size="4848.2" line-height="125%" y="2037.09" x="-27781.61" font-family="Gentium Book Basic" word-spacing="0" letter-spacing="0"><tspan id="tspan122" y="2037.09" x="-27781.61"/>
 </text>
 <text id="text124" transform="scale(4.0128 .2492)" font-size="1761.7" y="-4925.02" x="470.79" font-family="Arial" text-anchor="middle"/>
 <g id="g126" fill="#555753" transform="matrix(23.272 0 0 23.272 -520.02 -260.06)">
  <text id="text128" transform="scale(1.0508 .95163)" line-height="125%" font-size="127.88" y="-204.06" x="-549.96" font-family="Gentium Book Basic" word-spacing="0" letter-spacing="0"><tspan id="tspan130" y="-204.06" x="-549.96"/>
  </text>
  <text id="text132" transform="scale(4.2168 .23715)" font-size="46.47" y="-1164.37" x="57.981" font-family="Arial" text-anchor="middle"/>
  <text id="text134" transform="scale(1.0508 .95163)" line-height="125%" font-size="68.46" y="-239.51" x="-145.93" font-family="Gentium Book Basic" word-spacing="0" letter-spacing="0"><tspan id="tspan136" y="-239.51" x="-145.93"/>
  </text>
  <text id="text138" transform="scale(4.2168 .23715)" font-size="24.874" y="-1146.06" x="68.04" font-family="Arial" text-anchor="middle"/>
  <text id="text140" font-size="200" line-height="125%" y="-74.27" x="-1695.66" font-family="Gentium Book Basic" word-spacing="0" letter-spacing="0"><tspan id="tspan142" y="-74.27" x="-1695.66"/>
  </text>
  <text id="text144" transform="scale(4.0128 .2492)" font-size="72.67" y="-838.39" x="-117.54" font-family="Arial" text-anchor="middle"/>
 </g>
 <g id="g146" transform="matrix(23.272 0 0 23.272 -520.02 -260.06)">
  <g id="g148">
   <text id="text150" font-size="208.33" line-height="125%" stroke="#cd1d31" y="-599.63" x="-1086.23" font-family="Gentium Book Basic" word-spacing="0" letter-spacing="0"><tspan id="tspan152" y="-599.63" x="-1086.23"/>
   </text>
   <text id="text154" transform="scale(4.0128 .2492)" font-size="75.7" y="-2969.12" x="47.04" font-family="Arial" text-anchor="middle"/>
   <text id="text156" font-size="208.33" line-height="125%" stroke="#cd1d31" y="-560.44" x="-1092.03" font-family="Gentium Book Basic" word-spacing="0" letter-spacing="0"><tspan id="tspan158" y="-560.44" x="-1092.03"/>
   </text>
   <text id="text160" transform="scale(4.0128 .2492)" font-size="75.7" y="-2811.85" x="45.593" font-family="Arial" text-anchor="middle"/>
  </g>
  <g id="g162" fill="#555753">
   <g id="g164" stroke="#cd1d31">
    <text id="text166" transform="scale(1.0508 .95163)" line-height="125%" font-size="127.88" y="-896.71" x="-474.37" font-family="Gentium Book Basic" word-spacing="0" letter-spacing="0"><tspan id="tspan168" y="-896.71" x="-474.37"/>
    </text>
    <text id="text170" transform="scale(4.2168 .23715)" font-size="46.47" y="-3943.87" x="76.82" font-family="Arial" text-anchor="middle"/>
    <text id="text172" transform="scale(1.0508 .95163)" line-height="125%" font-size="68.46" y="-932.16" x="-70.35" font-family="Gentium Book Basic" word-spacing="0" letter-spacing="0"><tspan id="tspan174" y="-932.16" x="-70.35"/>
    </text>
    <text id="text176" transform="scale(4.2168 .23715)" font-size="24.874" y="-3925.56" x="86.87" font-family="Arial" text-anchor="middle"/>
    <text id="text178" font-size="200" line-height="125%" y="-733.42" x="-1616.23" font-family="Gentium Book Basic" word-spacing="0" letter-spacing="0"><tspan id="tspan180" y="-733.42" x="-1616.23"/>
    </text>
   </g>
   <text id="text182" transform="scale(4.0128 .2492)" font-size="72.67" y="-3483.46" x="-97.75" font-family="Arial" text-anchor="middle"/>
  </g>
  <g id="g184">
   <text id="text186" font-size="200" line-height="125%" stroke="#cd1d31" y="-887.07" x="-356.8" font-family="Gentium Book Basic" word-spacing="0" letter-spacing="0"><tspan id="tspan188" y="-887.07" x="-356.8"/>
   </text>
   <text id="text190" transform="scale(4.0128 .2492)" font-size="72.67" y="-4100.03" x="216.1" font-family="Arial" text-anchor="middle"/>
   <text id="text192" font-size="200" line-height="125%" stroke="#cd1d31" y="-1010.89" x="542.82" font-family="Gentium Book Basic" word-spacing="0" letter-spacing="0"><tspan id="tspan194" y="-1010.89" x="542.82"/>
   </text>
   <text id="text196" transform="scale(4.0128 .2492)" font-size="72.67" y="-4596.89" x="440.29" font-family="Arial" text-anchor="middle"/>
  </g>
 </g>
 <path id="path198" d="m119.39 402.2c-0.623-0.128-1.721-0.366-2.417-0.513-1.502-0.311-5.073-3.333-6.01-5.05-1.154-2.143-1.538-5.695-0.916-8.369 0.568-2.381 2.784-4.761 28.385-30.454l27.781-27.872-1.19-1.685c-0.659-0.916-2.234-3.754-3.498-6.281-9.101-18.24-9.175-39.13-0.183-57.15 3.772-7.582 7.234-11.94 18.569-23.495l11.262-11.464-5.988-6.116c-6.501-6.648-7.673-8.625-7.673-13.06 0-9.101 9.742-13.973 17.324-8.662 1.337 0.934 27.982 27.304 59.21 58.6 53.25 53.38 56.825 57.06 57.5 59.63 1.996 7.472-2.747 14.08-10.2 14.266-4.102 0.092-6.574-1.373-13.258-7.893l-6.01-5.842-11.464 11.262c-11.537 11.336-15.914 14.778-23.495 18.569-18.02 8.992-38.915 8.918-57.15-0.183-2.527-1.264-5.366-2.838-6.281-3.498l-1.685-1.19-27.872 27.762c-23.825 23.733-28.22 27.854-30.23 28.44-2.436 0.696-2.6 0.696-4.523 0.293m201.07-90.56c-0.623-0.165-2.179-1.01-3.443-1.886-1.264-0.879-27.835-27.21-59.06-58.51-53.25-53.38-56.825-57.06-57.5-59.63-1.996-7.472 2.747-14.08 10.2-14.266 4.102-0.092 6.574 1.373 13.258 7.893l6.01 5.842 11.464-11.262c11.537-11.336 15.914-14.778 23.495-18.569 18.02-8.992 38.915-8.918 57.15 0.183 2.527 1.264 5.366 2.838 6.281 3.498l1.685 1.19 27.872-27.762c24.12-24.03 28.2-27.854 30.29-28.44 1.319-0.385 3-0.568 3.717-0.421 0.714 0.147 2.01 0.421 2.875 0.604 1.74 0.366 5.292 3.26 6.3 5.128 1.154 2.143 1.538 5.695 0.916 8.369-0.568 2.381-2.784 4.761-28.385 30.454l-27.781 27.872 1.19 1.685c0.659 0.916 2.234 3.754 3.498 6.281 9.101 18.24 9.175 39.13 0.183 57.15-3.772 7.582-7.234 11.94-18.569 23.495l-11.262 11.464 5.988 6.116c3.296 3.37 6.355 7.03 6.831 8.131 1.758 4.194 0.623 10.31-2.417 13.06-2.491 2.252-7.124 3.241-10.786 2.326" fill="#fff"/>
</svg>
