<?xml version="1.0" encoding="UTF-8" standalone="no"?>
<!-- Created with Inkscape (http://www.inkscape.org/) -->

<svg
   xmlns:dc="http://purl.org/dc/elements/1.1/"
   xmlns:cc="http://creativecommons.org/ns#"
   xmlns:rdf="http://www.w3.org/1999/02/22-rdf-syntax-ns#"
   xmlns:svg="http://www.w3.org/2000/svg"
   xmlns="http://www.w3.org/2000/svg"
   xmlns:sodipodi="http://sodipodi.sourceforge.net/DTD/sodipodi-0.dtd"
   xmlns:inkscape="http://www.inkscape.org/namespaces/inkscape"
   id="svg2"
   height="100%"
   viewBox="0 0 512 512"
   width="100%"
   version="1.1"
   inkscape:version="0.91 r13725"
   sodipodi:docname="uTorrent.svg">
  <defs
     id="defs68" />
  <sodipodi:namedview
     pagecolor="#ffffff"
     bordercolor="#666666"
     borderopacity="1"
     objecttolerance="10"
     gridtolerance="10"
     guidetolerance="10"
     inkscape:pageopacity="0"
     inkscape:pageshadow="2"
     inkscape:window-width="1680"
     inkscape:window-height="1024"
     id="namedview66"
     showgrid="false"
     inkscape:zoom="1.84375"
     inkscape:cx="345.05079"
     inkscape:cy="230.50613"
     inkscape:window-x="0"
     inkscape:window-y="0"
     inkscape:window-maximized="0"
     inkscape:current-layer="svg2" />
  <metadata
     id="metadata132">
    <rdf:RDF>
      <cc:Work
         rdf:about="">
        <dc:format>image/svg+xml</dc:format>
        <dc:type
           rdf:resource="http://purl.org/dc/dcmitype/StillImage" />
        <dc:title />
      </cc:Work>
    </rdf:RDF>
  </metadata>
  <path
     style="fill:#00853f;fill-rule:evenodd"
     inkscape:connector-curvature="0"
     d="m 471.95,253.05 c 0,120.9 -98.01,218.9 -218.9,218.9 -120.9,0 -218.9,-98.01 -218.9,-218.9 0,-120.9 98.01,-218.9 218.9,-218.9 120.9,0 218.9,98.01 218.9,218.9"
     id="path6" />
  <path
     style="fill-opacity:0.06700003;fill-rule:evenodd"
     inkscape:connector-curvature="0"
     d="M 256,1 C 115.17,1 1,115.17 1,256 1,396.83 115.17,511 256,511 396.83,511 511,396.83 511,256 511,115.17 396.83,1 256,1 m 8.827,44.931 c 120.9,0 218.9,98 218.9,218.9 0,120.9 -98,218.9 -218.9,218.9 -120.9,0 -218.93,-98 -218.93,-218.9 0,-120.9 98.03,-218.9 218.93,-218.9"
     id="path10" />
  <g
     style="fill-opacity:0.12900002;fill-rule:evenodd"
     id="g12">
    <path
       inkscape:connector-curvature="0"
       d="m 256,4.433 c -138.94,0 -251.57,112.63 -251.57,251.57 0,138.94 112.63,251.57 251.57,251.57 138.94,0 251.57,-112.63 251.57,-251.57 C 507.57,117.063 394.94,4.433 256,4.433 m 5.885,38.556 c 120.9,0 218.9,98 218.9,218.9 0,120.9 -98,218.9 -218.9,218.9 -120.9,0 -218.93,-98 -218.93,-218.9 0,-120.9 98.03,-218.9 218.93,-218.9"
       id="path14" />
    <path
       inkscape:connector-curvature="0"
       d="m 256,8.356 c -136.77,0 -247.64,110.87 -247.64,247.64 0,136.77 110.87,247.64 247.64,247.64 136.77,0 247.64,-110.87 247.64,-247.64 C 503.64,119.226 392.77,8.356 256,8.356 m 2.942,31.691 c 120.9,0 218.9,98 218.9,218.9 0,120.9 -98,218.9 -218.9,218.9 -120.9,0 -218.93,-98 -218.93,-218.9 0,-120.9 98.03,-218.9 218.93,-218.9"
       id="path16" />
  </g>
  <path
     style="fill:#ffffff;fill-rule:evenodd;stroke:#000000;stroke-width:4.90399981;stroke-opacity:0.31000001"
     inkscape:connector-curvature="0"
     d="m 253.04,7.859 c -135.42,0 -245.19,109.78 -245.19,245.19 0,135.42 109.78,245.19 245.19,245.19 135.42,0 245.19,-109.78 245.19,-245.19 0,-135.42 -109.78,-245.19 -245.19,-245.19 z m 0,26.297 c 120.9,0 218.9,98 218.9,218.9 0,120.9 -98,218.9 -218.9,218.9 -120.9,0 -218.93,-98 -218.93,-218.9 0,-120.9 98.03,-218.9 218.93,-218.9 z"
     id="path18" />
  <text
     id="text20"
     style="word-spacing:0;letter-spacing:0"
     font-size="129.23px"
     line-height="125%"
     y="231.36"
     x="729.64001"
     font-family="Gentium Book Basic">
    <tspan
       id="tspan22"
       y="231.36"
       x="729.64001" />
  </text>
  <text
     id="text24"
     style="text-anchor:middle"
     font-size="46.954px"
     transform="scale(4.0128 .2492)"
     y="579.25"
     x="378.91"
     font-family="Arial" />
  <text
     id="text26"
     style="word-spacing:0;letter-spacing:0"
     font-size="129.23px"
     line-height="125%"
     y="151.36"
     x="1310.91"
     font-family="Gentium Book Basic">
    <tspan
       id="tspan28"
       y="151.36"
       x="1310.91" />
  </text>
  <text
     id="text30"
     style="text-anchor:middle"
     font-size="46.954px"
     transform="scale(4.0128 .2492)"
     y="258.22"
     x="523.76001"
     font-family="Arial" />
  <text
     id="text32"
     style="word-spacing:0;letter-spacing:0"
     font-size="129.23px"
     line-height="125%"
     y="-29.900999"
     x="239.33"
     font-family="Gentium Book Basic">
    <tspan
       id="tspan34"
       y="-29.900999"
       x="239.33" />
  </text>
  <text
     id="text36"
     style="text-anchor:middle"
     font-size="46.954px"
     transform="scale(4.0128 .2492)"
     y="-469.14001"
     x="256.72"
     font-family="Arial" />
  <text
     id="text38"
     style="word-spacing:0;letter-spacing:0"
     font-size="129.23px"
     line-height="125%"
     y="-246.37"
     x="1337.38"
     font-family="Gentium Book Basic">
    <tspan
       id="tspan40"
       y="-246.37"
       x="1337.38" />
  </text>
  <text
     id="text42"
     style="text-anchor:middle"
     font-size="46.954px"
     transform="scale(4.0128 .2492)"
     y="-1337.8101"
     x="530.35999"
     font-family="Arial" />
  <text
     id="text44"
     style="word-spacing:0;letter-spacing:0"
     font-size="129.23px"
     line-height="125%"
     y="-326.38"
     x="1918.65"
     font-family="Gentium Book Basic">
    <tspan
       id="tspan46"
       y="-326.38"
       x="1918.65" />
  </text>
  <text
     id="text48"
     style="text-anchor:middle"
     font-size="46.954px"
     transform="scale(4.0128 .2492)"
     y="-1658.85"
     x="675.21002"
     font-family="Arial" />
  <text
     id="text50"
     style="word-spacing:0;letter-spacing:0"
     font-size="129.23px"
     line-height="125%"
     y="-798.78003"
     x="1529.53"
     font-family="Gentium Book Basic">
    <tspan
       id="tspan52"
       y="-798.78003"
       x="1529.53" />
  </text>
  <text
     id="text54"
     style="text-anchor:middle"
     font-size="46.954px"
     transform="scale(4.0128 .2492)"
     y="-3554.51"
     x="578.23999"
     font-family="Arial" />
  <text
     id="text56"
     style="word-spacing:0;letter-spacing:0"
     font-size="129.23px"
     line-height="125%"
     y="-878.78003"
     x="2110.79"
     font-family="Gentium Book Basic">
    <tspan
       id="tspan58"
       y="-878.78003"
       x="2110.79" />
  </text>
  <text
     id="text60"
     style="text-anchor:middle"
     font-size="46.954px"
     transform="scale(4.0128 .2492)"
     y="-3875.54"
     x="723.09003"
     font-family="Arial" />
  <text
     id="text62"
     style="word-spacing:0;letter-spacing:0"
     font-size="208.33px"
     line-height="125%"
     y="535.94"
     x="277.98999"
     font-family="Gentium Book Basic">
    <tspan
       id="tspan64"
       y="535.94"
       x="277.98999" />
  </text>
  <text
     id="text78"
     style="word-spacing:0;letter-spacing:0"
     font-size="129.23px"
     line-height="125%"
     y="184.47"
     x="-183.02"
     font-family="Gentium Book Basic">
    <tspan
       id="tspan80"
       y="184.47"
       x="-183.02" />
  </text>
  <text
     id="text82"
     style="text-anchor:middle"
     font-size="46.954px"
     transform="scale(4.0128 .2492)"
     y="391.07999"
     x="151.47"
     font-family="Arial" />
  <text
     id="text84"
     style="word-spacing:0;letter-spacing:0"
     font-size="129.23px"
     line-height="125%"
     y="104.46"
     x="398.23999"
     font-family="Gentium Book Basic">
    <tspan
       id="tspan86"
       y="104.46"
       x="398.23999" />
  </text>
  <text
     id="text88"
     style="text-anchor:middle"
     font-size="46.954px"
     transform="scale(4.0128 .2492)"
     y="70.050003"
     x="296.32001"
     font-family="Arial" />
  <text
     id="text90"
     style="word-spacing:0;letter-spacing:0"
     font-size="129.23px"
     line-height="125%"
     y="-76.790001"
     x="-673.34003"
     font-family="Gentium Book Basic">
    <tspan
       id="tspan92"
       y="-76.790001"
       x="-673.34003" />
  </text>
  <text
     id="text94"
     style="text-anchor:middle"
     font-size="46.954px"
     transform="scale(4.0128 .2492)"
     y="-657.29999"
     x="29.280001"
     font-family="Arial" />
  <text
     id="text96"
     style="word-spacing:0;letter-spacing:0"
     font-size="129.23px"
     line-height="125%"
     y="-293.26999"
     x="424.70999"
     font-family="Gentium Book Basic">
    <tspan
       id="tspan98"
       y="-293.26999"
       x="424.70999" />
  </text>
  <text
     id="text100"
     style="text-anchor:middle"
     font-size="46.954px"
     transform="scale(4.0128 .2492)"
     y="-1525.98"
     x="302.92001"
     font-family="Arial" />
  <text
     id="text102"
     style="word-spacing:0;letter-spacing:0"
     font-size="129.23px"
     line-height="125%"
     y="-373.26999"
     x="1005.98"
     font-family="Gentium Book Basic">
    <tspan
       id="tspan104"
       y="-373.26999"
       x="1005.98" />
  </text>
  <text
     id="text106"
     style="text-anchor:middle"
     font-size="46.954px"
     transform="scale(4.0128 .2492)"
     y="-1847.01"
     x="447.76999"
     font-family="Arial" />
  <text
     id="text108"
     style="word-spacing:0;letter-spacing:0"
     font-size="129.23px"
     line-height="125%"
     y="-845.66998"
     x="616.85999"
     font-family="Gentium Book Basic">
    <tspan
       id="tspan110"
       y="-845.66998"
       x="616.85999" />
  </text>
  <text
     id="text112"
     style="text-anchor:middle"
     font-size="46.954px"
     transform="scale(4.0128 .2492)"
     y="-3742.6799"
     x="350.79999"
     font-family="Arial" />
  <text
     id="text114"
     style="word-spacing:0;letter-spacing:0"
     font-size="129.23px"
     line-height="125%"
     y="-925.66998"
     x="1198.13"
     font-family="Gentium Book Basic">
    <tspan
       id="tspan116"
       y="-925.66998"
       x="1198.13" />
  </text>
  <text
     id="text118"
     style="text-anchor:middle"
     font-size="46.954px"
     transform="scale(4.0128 .2492)"
     y="-4063.71"
     x="495.64999"
     font-family="Arial" />
  <text
     id="text120"
     style="word-spacing:0;letter-spacing:0"
     font-size="208.33px"
     line-height="125%"
     y="489.04001"
     x="-634.67999"
     font-family="Gentium Book Basic">
    <tspan
       id="tspan122"
       y="489.04001"
       x="-634.67999" />
  </text>
  <path
     style="fill:#000000;fill-rule:evenodd;stroke:#000000;stroke-width:0;stroke-linecap:butt;stroke-linejoin:miter;stroke-opacity:1;fill-opacity:0.09803922;stroke-miterlimit:4;stroke-dasharray:none"
     d="M 154.94028,137.68883 329.82337,245.07318 334.42555,90.132903 463.28678,197.51726 477.09333,260.4138 455.61646,358.59378 360.50461,455.2397 286.86963,475.18251 182.5534,432.22877 Z"
     id="path4242"
     inkscape:connector-curvature="0" />
  <path
     style="fill:#ffffff;fill-rule:evenodd;stroke:#000000;stroke-width:0;stroke-linecap:butt;stroke-linejoin:miter;stroke-miterlimit:4;stroke-dasharray:none;stroke-opacity:1"
     d="m 85.397002,148.84352 c 18.920858,-18.99225 42.951448,-21.51349 70.074648,-14.06592 30.27966,48.00792 37.67115,112.70152 70.07466,144.79629 40.58975,32.54934 102.2769,3.92831 99.33663,-38.06077 L 272.51945,105.81835 c 22.33058,-15.825478 25.81289,-24.636824 57.75382,-17.375555 34.90624,62.205645 27.93764,163.351235 109.34729,165.481455 4.50395,17.33388 0.85565,31.74793 -6.93044,44.67999 -21.80293,10.64024 -63.53598,-4.86358 -82.3955,-18.20296 -19.80071,47.95695 -77.6174,69.8873 -120.128,59.57333 l 39.27262,98.46147 c -30.85489,4.94421 -60.99662,6.44003 -87.78584,-8.27408 z"
     id="path4238"
     inkscape:connector-curvature="0"
     sodipodi:nodetypes="ccccccccccccc" />
</svg>
