<?xml version="1.0" encoding="UTF-8" standalone="no"?>
<svg xmlns="http://www.w3.org/2000/svg" xmlns:sodipodi="http://sodipodi.sourceforge.net/DTD/sodipodi-0.dtd" xmlns:inkscape="http://www.inkscape.org/namespaces/inkscape" viewBox="0 0 512 512" height="512" width="512" version="1.1">
 <metadata id="metadata833"/>
 <defs id="defs4">
  <linearGradient y1="33.753" x2="0" y2="471.66" id="0-9" gradientUnits="userSpaceOnUse">
   <stop id="stop7-3" stop-color="#6a6a6a"/>
   <stop id="stop9-7" offset="0.47"/>
   <stop id="stop11-8" offset="0.494" stop-color="#ffffff"/>
   <stop id="stop13-1" offset="0.901" stop-color="#ffffff"/>
   <stop id="stop15-6" offset="0.955"/>
   <stop id="stop17-2" offset="1"/>
  </linearGradient>
 </defs>
 <path id="path21" d="m 471.95,253.05 c 0,120.9 -98.01,218.91 -218.91,218.91 -120.9,0 -218.91,-98.01 -218.91,-218.91 0,-120.9 98.01,-218.91 218.91,-218.91 120.9,0 218.91,98.01 218.91,218.91" fill="#8f8f8f" fill-rule="evenodd"/>
 <path id="path23" d="m 471.95,253.05 c 0,120.9 -98.01,218.91 -218.91,218.91 -120.9,0 -218.91,-98.01 -218.91,-218.91 0,-120.9 98.01,-218.91 218.91,-218.91 120.9,0 218.91,98.01 218.91,218.91" opacity="0.05" fill="url(#0-9)" fill-rule="evenodd"/>
 <path id="path27" d="M 256,1 C 115.17,1 1,115.17 1,256 1,396.83 115.17,511 256,511 396.83,511 511,396.83 511,256 511,115.17 396.83,1 256,1 m 8.827,44.931 c 120.9,0 218.9,98 218.9,218.9 0,120.9 -98,218.9 -218.9,218.9 -120.9,0 -218.93,-98 -218.93,-218.9 0,-120.9 98.03,-218.9 218.93,-218.9" fill-rule="evenodd" fill-opacity="0.067"/>
 <path d="M 256,4.43 C 117.06,4.43 4.43,117.06 4.43,256 4.43,394.94 117.06,507.57 256,507.57 394.94,507.57 507.57,394.94 507.57,256 507.57,117.06 394.94,4.43 256,4.43 m 5.885,38.556 c 120.9,0 218.9,98 218.9,218.9 0,120.9 -98,218.9 -218.9,218.9 -120.9,0 -218.93,-98 -218.93,-218.9 0,-120.9 98.03,-218.9 218.93,-218.9" id="path31" fill-rule="evenodd" fill-opacity="0.129"/>
 <path d="M 256,8.36 C 119.23,8.36 8.36,119.23 8.36,256 8.36,392.77 119.23,503.64 256,503.64 392.77,503.64 503.64,392.77 503.64,256 503.64,119.23 392.77,8.36 256,8.36 m 2.942,31.691 c 120.9,0 218.9,98 218.9,218.9 0,120.9 -98,218.9 -218.9,218.9 -120.9,0 -218.93,-98 -218.93,-218.9 0,-120.9 98.03,-218.9 218.93,-218.9" id="path33" fill-rule="evenodd" fill-opacity="0.129"/>
 <path id="path35" d="M 253.04,7.86 C 117.62,7.86 7.85,117.64 7.85,253.05 c 0,135.42 109.78,245.19 245.19,245.19 135.42,0 245.19,-109.78 245.19,-245.19 C 498.23,117.63 388.45,7.86 253.04,7.86 Z m 0,26.297 c 120.9,0 218.9,98 218.9,218.9 0,120.9 -98,218.9 -218.9,218.9 -120.9,0 -218.93,-98 -218.93,-218.9 0,-120.9 98.03,-218.9 218.93,-218.9 z" stroke-opacity="0.31" fill="#ffffff" fill-rule="evenodd" stroke="#000000" stroke-width="4.904"/>
 <path d="m 229.03,86.19 c -6.111,0 -11.219,6.642 -12.781,15.75 l 0,4.531 11.875,11.875 -55.03,0 c -18.793,0 -34.544,13.09 -39.34,31.06 l 0,8.938 18.281,18.281 0,58.656 0,4.813 0,149.38 c 0,9.546 3.831,18.18 10.06,24.406 l 55.16,55.16 c 11.644,1.914 23.596,2.938 35.781,2.938 120.9,0 218.91,-98.01 218.91,-218.91 0,-6.399 -0.274,-12.74 -0.813,-19 l -103.91,-103.91 c -7.331,-7.331 -17.308,-11.813 -28.313,-11.813 l -20,0 -28.969,-28.969 c -2.02,-2.02 -4.412,-3.188 -6.969,-3.188 l -53.938,0" id="path827" opacity="0.25"/>
 <path d="m 229.03,86.19 c -6.111,0 -11.219,6.642 -12.781,15.75 l 0,4.531 79.5,0 0,-4.531 c -1.562,-9.108 -6.671,-15.75 -12.781,-15.75 l -53.938,0 m -55.938,32.16 c -18.793,0 -34.544,13.09 -39.34,31.06 l 0,8.938 244.5,0 0,-8.938 c -4.804,-17.978 -20.555,-31.06 -39.34,-31.06 l -165.81,0 m -21.06,55.41 0,61.53 0,4.813 0,149.38 c 0,19.09 15.375,34.469 34.469,34.469 l 138.97,0 c 19.09,0 34.469,-15.375 34.469,-34.469 l 0,-149.37 0,-4.813 0,-61.53 -207.91,0 m 43.625,37.19 c 5.54,0 10,4.46 10,10 l 0,170 c 0,5.54 -4.46,10 -10,10 -5.54,0 -10,-4.46 -10,-10 l 0,-170 c 0,-5.54 4.46,-10 10,-10 m 60.09,0 c 5.54,0 10,4.46 10,10 l 0,170 c 0,5.54 -4.46,10 -10,10 -5.54,0 -10,-4.46 -10,-10 l 0,-170 c 0,-5.54 4.46,-10 10,-10 m 59.41,0 c 5.54,0 10,4.46 10,10 l 0,170 c 0,5.54 -4.46,10 -10,10 -5.54,0 -10,-4.46 -10,-10 l 0,-170 c 0,-5.54 4.46,-10 10,-10" id="path829" fill="#ffffff"/>
</svg>
