<?xml version="1.0" encoding="UTF-8" standalone="no"?>
<svg xmlns="http://www.w3.org/2000/svg" xmlns:xlink="http://www.w3.org/1999/xlink" xmlns:sodipodi="http://sodipodi.sourceforge.net/DTD/sodipodi-0.dtd" xmlns:inkscape="http://www.inkscape.org/namespaces/inkscape" version="1.0" width="96" height="96">
 <defs id="defs2410">
  <linearGradient id="linearGradient3656">
   <stop id="stop3658" stop-color="#0a0a0a"/>
   <stop id="stop3675" offset="0.5" stop-color="#0a0a0a" stop-opacity="0.302"/>
   <stop id="stop3660" offset="1" stop-color="#0a0a0a" stop-opacity="0"/>
  </linearGradient>
  <linearGradient id="linearGradient3637">
   <stop id="stop3645" stop-color="#9e9e9e"/>
   <stop id="stop3641" offset="1" stop-color="#a1a1a1"/>
  </linearGradient>
  <linearGradient id="linearGradient3348">
   <stop id="stop3350" stop-color="#767676"/>
   <stop id="stop3356" offset="0.717" stop-color="#5c5c5c"/>
   <stop id="stop3352" offset="1" stop-color="#484848"/>
  </linearGradient>
  <linearGradient id="linearGradient3187">
   <stop id="stop3189" stop-color="#5c5c5c"/>
   <stop id="stop3191" offset="1" stop-color="#6e6e6e"/>
  </linearGradient>
  <linearGradient y1="80.47" x2="0" y2="7.02" id="ButtonShadow" gradientUnits="userSpaceOnUse" gradientTransform="matrix(1.0058652,0,0,0.994169,0,12)">
   <stop id="stop3750" stop-color="#0a0a0a"/>
   <stop id="stop3752" offset="1" stop-color="#0a0a0a" stop-opacity="0.588"/>
  </linearGradient>
  <linearGradient id="linearGradient3737">
   <stop id="stop3739" stop-color="#a7a7a7"/>
   <stop id="stop3741" offset="1" stop-color="#a7a7a7" stop-opacity="0"/>
  </linearGradient>
  <linearGradient y1="66" x2="0" y2="5.988" id="linearGradient3706" xlink:href="#linearGradient3187" gradientUnits="userSpaceOnUse" gradientTransform="translate(0,22)"/>
  <filter color-interpolation-filters="sRGB" id="filter3174">
   <feGaussianBlur id="feGaussianBlur3176" stdDeviation="1.71"/>
  </filter>
  <linearGradient y1="6" x2="0" y2="58.47" id="linearGradient4010" xlink:href="#linearGradient3737" gradientUnits="userSpaceOnUse"/>
  <linearGradient y1="80.47" x2="0" y2="5.297" id="linearGradient4018" xlink:href="#ButtonShadow" gradientUnits="userSpaceOnUse" gradientTransform="matrix(1.0058652,0,0,0.994169,0,12)"/>
  <linearGradient y1="17.736" x2="0" y2="32.28" id="linearGradient4023" xlink:href="#linearGradient3348" gradientUnits="userSpaceOnUse" gradientTransform="matrix(0.72,0,0,0.72,1.92,-5.52)"/>
  <radialGradient cx="48" cy="90.17" r="42" id="radialGradient2862" xlink:href="#linearGradient3737" gradientUnits="userSpaceOnUse" gradientTransform="matrix(1.1573129,0,0,0.99590774,-7.551021,0.1971319)"/>
  <linearGradient y1="18" x2="0" y2="73.995" id="linearGradient2865" xlink:href="#linearGradient3737" gradientUnits="userSpaceOnUse"/>
  <linearGradient y1="28.25" x2="0" y2="18.05" id="linearGradient3643" xlink:href="#linearGradient3637" gradientUnits="userSpaceOnUse"/>
  <linearGradient y1="19" x2="0" y2="16" id="linearGradient3666" xlink:href="#linearGradient3656" gradientUnits="userSpaceOnUse" gradientTransform="matrix(1.1111112,0,0,1.780582,-5.3333338,-5.6116384)"/>
  <linearGradient y1="92.54" x2="0" y2="7.02" id="ButtonShadow-0" gradientUnits="userSpaceOnUse" gradientTransform="matrix(1.0058652,0,0,0.994169,100,0)">
   <stop id="stop3750-8" stop-color="#0a0a0a"/>
   <stop id="stop3752-5" offset="1" stop-color="#0a0a0a" stop-opacity="0.588"/>
  </linearGradient>
  <linearGradient y1="90.96" x2="0" y2="6.867" id="linearGradient3692" xlink:href="#ButtonShadow-0" gradientUnits="userSpaceOnUse"/>
  <linearGradient y1="90.31" x2="0" y2="6.917" id="linearGradient3718" xlink:href="#ButtonShadow-0" gradientUnits="userSpaceOnUse" gradientTransform="matrix(1.0277778,0,0,1.0127315,-1.333333,0.0308796)"/>
  <filter x="-0.166" y="-0.197" width="1.331" height="1.394" color-interpolation-filters="sRGB" id="filter3870">
   <feGaussianBlur id="feGaussianBlur3872" stdDeviation="5.17031"/>
  </filter>
  <clipPath id="clipPath3998">
   <path d="m 12,28 72,0 c 3.324,0 6,2.676 6,6 l 0,50 c 0,3.324 -2.676,6 -6,6 L 12,90 C 8.676,90 6,87.324 6,84 L 6,34 c 0,-3.324 2.676,-6 6,-6 z" id="path4000"/>
  </clipPath>
  <linearGradient y1="29.727" x2="0" y2="88.35" id="linearGradient4002" xlink:href="#linearGradient3737" gradientUnits="userSpaceOnUse"/>
  <linearGradient y1="80.47" x2="0" y2="5.297" id="linearGradient4018-536" xlink:href="#ButtonShadow" gradientUnits="userSpaceOnUse" gradientTransform="matrix(1.0058652,0,0,0.994169,0,12)"/>
  <linearGradient y1="90.31" x2="0" y2="6.917" id="linearGradient3750-258" xlink:href="#ButtonShadow-0" gradientUnits="userSpaceOnUse" gradientTransform="matrix(1.0277778,0,0,1.0127315,-1.333333,0.0308796)"/>
  <linearGradient y1="90.31" x2="0" y2="6.917" id="linearGradient3738-395" xlink:href="#ButtonShadow-0" gradientUnits="userSpaceOnUse" gradientTransform="matrix(1.0277778,0,0,1.0127315,-1.333333,0.0308796)"/>
  <linearGradient y1="90.31" x2="0" y2="6.917" id="linearGradient3730-606" xlink:href="#ButtonShadow-0" gradientUnits="userSpaceOnUse" gradientTransform="matrix(1.0277778,0,0,1.0127315,-1.333333,0.0308796)"/>
  <linearGradient y1="90.96" x2="0" y2="6.867" id="linearGradient3692-815" xlink:href="#ButtonShadow-0" gradientUnits="userSpaceOnUse"/>
  <linearGradient y1="90.31" x2="0" y2="6.917" id="linearGradient3718-164" xlink:href="#ButtonShadow-0" gradientUnits="userSpaceOnUse" gradientTransform="matrix(1.0277778,0,0,1.0127315,-1.333333,0.0308796)"/>
  <linearGradient y1="17.736" x2="0" y2="32.28" id="linearGradient4023-18" xlink:href="#linearGradient3348" gradientUnits="userSpaceOnUse" gradientTransform="matrix(0.72,0,0,0.72,1.92,-5.52)"/>
  <linearGradient y1="6" x2="0" y2="58.47" id="linearGradient4010-898" xlink:href="#linearGradient3737" gradientUnits="userSpaceOnUse"/>
  <linearGradient y1="28.25" x2="0" y2="18.05" id="linearGradient3643-144" xlink:href="#linearGradient3637" gradientUnits="userSpaceOnUse"/>
  <linearGradient y1="19" x2="0" y2="16" id="linearGradient3666-473" xlink:href="#linearGradient3656" gradientUnits="userSpaceOnUse" gradientTransform="matrix(1.1111112,0,0,1.780582,-5.3333338,-5.6116384)"/>
  <linearGradient y1="66" x2="0" y2="5.988" id="linearGradient3706-155" xlink:href="#linearGradient3187" gradientUnits="userSpaceOnUse" gradientTransform="translate(0,22)"/>
  <linearGradient y1="18" x2="0" y2="73.995" id="linearGradient2865-248" xlink:href="#linearGradient3737" gradientUnits="userSpaceOnUse"/>
  <radialGradient cx="48" cy="90.17" r="42" id="radialGradient2862-971" xlink:href="#linearGradient3737" gradientUnits="userSpaceOnUse" gradientTransform="matrix(1.1573129,0,0,0.99590774,-7.551021,0.1971319)"/>
  <linearGradient y1="29.727" x2="0" y2="88.35" id="linearGradient4002-25" xlink:href="#linearGradient3737" gradientUnits="userSpaceOnUse"/>
  <linearGradient y1="80.47" x2="0" y2="5.297" id="linearGradient4018-536-514" xlink:href="#ButtonShadow" gradientUnits="userSpaceOnUse" gradientTransform="matrix(1.0058652,0,0,0.994169,0,12)"/>
  <linearGradient y1="90.31" x2="0" y2="6.917" id="linearGradient3750-258-451" xlink:href="#ButtonShadow-0" gradientUnits="userSpaceOnUse" gradientTransform="matrix(1.0277778,0,0,1.0127315,-1.333333,0.0308796)"/>
  <linearGradient y1="90.31" x2="0" y2="6.917" id="linearGradient3738-395-938" xlink:href="#ButtonShadow-0" gradientUnits="userSpaceOnUse" gradientTransform="matrix(1.0277778,0,0,1.0127315,-1.333333,0.0308796)"/>
  <linearGradient y1="90.31" x2="0" y2="6.917" id="linearGradient3730-606-724" xlink:href="#ButtonShadow-0" gradientUnits="userSpaceOnUse" gradientTransform="matrix(1.0277778,0,0,1.0127315,-1.333333,0.0308796)"/>
  <linearGradient y1="90.96" x2="0" y2="6.867" id="linearGradient3692-815-112" xlink:href="#ButtonShadow-0" gradientUnits="userSpaceOnUse"/>
  <linearGradient y1="90.31" x2="0" y2="6.917" id="linearGradient3718-164-412" xlink:href="#ButtonShadow-0" gradientUnits="userSpaceOnUse" gradientTransform="matrix(1.0277778,0,0,1.0127315,-1.333333,0.0308796)"/>
  <linearGradient y1="17.736" x2="0" y2="32.28" id="linearGradient4023-18-304" xlink:href="#linearGradient3348-816-246" gradientUnits="userSpaceOnUse" gradientTransform="matrix(0.72,0,0,0.72,1.92,-5.52)"/>
  <linearGradient id="linearGradient3348-816-246">
   <stop id="stop3492" stop-color="#6a6a6a"/>
   <stop id="stop3494" offset="0.717" stop-color="#535353"/>
   <stop id="stop3496" offset="1" stop-color="#424242"/>
  </linearGradient>
  <linearGradient y1="6" x2="0" y2="58.47" id="linearGradient4010-898-862" xlink:href="#linearGradient3737-954-40" gradientUnits="userSpaceOnUse"/>
  <linearGradient id="linearGradient3737-954-40">
   <stop id="stop3500" stop-color="#969696"/>
   <stop id="stop3502" offset="1" stop-color="#969696" stop-opacity="0"/>
  </linearGradient>
  <linearGradient y1="28.25" x2="0" y2="18.05" id="linearGradient3643-144-743" xlink:href="#linearGradient3637-951-162" gradientUnits="userSpaceOnUse"/>
  <linearGradient id="linearGradient3637-951-162">
   <stop id="stop3506" stop-color="#8e8e8e"/>
   <stop id="stop3508" offset="1" stop-color="#929292"/>
  </linearGradient>
  <linearGradient y1="19" x2="0" y2="16" id="linearGradient3666-473-73" xlink:href="#linearGradient3656" gradientUnits="userSpaceOnUse" gradientTransform="matrix(1.1111112,0,0,1.780582,-5.3333338,-5.6116384)"/>
  <linearGradient y1="66" x2="0" y2="5.988" id="linearGradient3706-155-233" xlink:href="#linearGradient3187-676-594" gradientUnits="userSpaceOnUse" gradientTransform="translate(0,22)"/>
  <linearGradient id="linearGradient3187-676-594">
   <stop id="stop3520" stop-color="#535353"/>
   <stop id="stop3522" offset="1" stop-color="#636363"/>
  </linearGradient>
  <linearGradient y1="18" x2="0" y2="73.995" id="linearGradient2865-248-815" xlink:href="#linearGradient3737-954-40" gradientUnits="userSpaceOnUse"/>
  <radialGradient cx="48" cy="90.17" r="42" id="radialGradient2862-971-21" xlink:href="#linearGradient3737-954-40" gradientUnits="userSpaceOnUse" gradientTransform="matrix(1.1573129,0,0,0.99590774,-7.551021,0.1971319)"/>
  <linearGradient y1="29.727" x2="0" y2="88.35" id="linearGradient4002-25-109" xlink:href="#linearGradient3737-954-40" gradientUnits="userSpaceOnUse"/>
  <linearGradient y1="80.47" x2="0" y2="5.297" id="linearGradient4018-536-514-917" xlink:href="#ButtonShadow" gradientUnits="userSpaceOnUse" gradientTransform="matrix(1.0058652,0,0,0.994169,0,12)"/>
  <linearGradient y1="90.31" x2="0" y2="6.917" id="linearGradient3750-258-451-689" xlink:href="#ButtonShadow-0" gradientUnits="userSpaceOnUse" gradientTransform="matrix(1.0277778,0,0,1.0127315,-1.333333,0.0308796)"/>
  <linearGradient y1="90.31" x2="0" y2="6.917" id="linearGradient3738-395-938-276" xlink:href="#ButtonShadow-0" gradientUnits="userSpaceOnUse" gradientTransform="matrix(1.0277778,0,0,1.0127315,-1.333333,0.0308796)"/>
  <linearGradient y1="90.31" x2="0" y2="6.917" id="linearGradient3730-606-724-474" xlink:href="#ButtonShadow-0" gradientUnits="userSpaceOnUse" gradientTransform="matrix(1.0277778,0,0,1.0127315,-1.333333,0.0308796)"/>
  <linearGradient y1="90.96" x2="0" y2="6.867" id="linearGradient3692-815-112-968" xlink:href="#ButtonShadow-0" gradientUnits="userSpaceOnUse"/>
  <linearGradient y1="90.31" x2="0" y2="6.917" id="linearGradient3718-164-412-273" xlink:href="#ButtonShadow-0" gradientUnits="userSpaceOnUse" gradientTransform="matrix(1.0277778,0,0,1.0127315,-1.333333,0.0308796)"/>
  <linearGradient y1="17.736" x2="0" y2="32.28" id="linearGradient4023-18-304-165" xlink:href="#linearGradient3348-816-246-274" gradientUnits="userSpaceOnUse" gradientTransform="matrix(0.72,0,0,0.72,1.92,-5.52)"/>
  <linearGradient id="linearGradient3348-816-246-274">
   <stop id="stop3958" stop-color="#606060"/>
   <stop id="stop3960" offset="0.717" stop-color="#4c4c4c"/>
   <stop id="stop3962" offset="1" stop-color="#3b3b3b"/>
  </linearGradient>
  <linearGradient y1="6" x2="0" y2="58.47" id="linearGradient4010-898-862-595" xlink:href="#linearGradient3737-954-40-503" gradientUnits="userSpaceOnUse"/>
  <linearGradient id="linearGradient3737-954-40-503">
   <stop id="stop3966" stop-color="#888888"/>
   <stop id="stop3968" offset="1" stop-color="#888888" stop-opacity="0"/>
  </linearGradient>
  <linearGradient y1="28.25" x2="0" y2="18.05" id="linearGradient3643-144-743-76" xlink:href="#linearGradient3637-951-162-733" gradientUnits="userSpaceOnUse"/>
  <linearGradient id="linearGradient3637-951-162-733">
   <stop id="stop3972" stop-color="#808080"/>
   <stop id="stop3974" offset="1" stop-color="#838383"/>
  </linearGradient>
  <linearGradient y1="19" x2="0" y2="16" id="linearGradient3666-473-73-748" xlink:href="#linearGradient3656" gradientUnits="userSpaceOnUse" gradientTransform="matrix(1.1111112,0,0,1.780582,-5.3333338,-5.6116384)"/>
  <linearGradient y1="66" x2="0" y2="5.988" id="linearGradient3706-155-233-740" xlink:href="#linearGradient3187-676-594-473" gradientUnits="userSpaceOnUse" gradientTransform="translate(0,22)"/>
  <linearGradient id="linearGradient3187-676-594-473">
   <stop id="stop3986" stop-color="#4c4c4c"/>
   <stop id="stop3988" offset="1" stop-color="#595959"/>
  </linearGradient>
  <linearGradient y1="18" x2="0" y2="73.995" id="linearGradient2865-248-815-762" xlink:href="#linearGradient3737-954-40-503" gradientUnits="userSpaceOnUse"/>
  <radialGradient cx="48" cy="90.17" r="42" id="radialGradient2862-971-21-303" xlink:href="#linearGradient3737-954-40-503" gradientUnits="userSpaceOnUse" gradientTransform="matrix(1.1573129,0,0,0.99590774,-7.551021,0.1971319)"/>
  <linearGradient y1="29.727" x2="0" y2="88.35" id="linearGradient4002-25-109-101" xlink:href="#linearGradient3737-954-40-503" gradientUnits="userSpaceOnUse"/>
  <linearGradient y1="80.47" x2="0" y2="5.297" id="linearGradient4018-536-514-917-714" xlink:href="#ButtonShadow" gradientUnits="userSpaceOnUse" gradientTransform="matrix(1.0058652,0,0,0.994169,0,12)"/>
  <linearGradient y1="90.31" x2="0" y2="6.917" id="linearGradient3750-258-451-689-259" xlink:href="#ButtonShadow-0" gradientUnits="userSpaceOnUse" gradientTransform="matrix(1.0277778,0,0,1.0127315,-1.333333,0.0308796)"/>
  <linearGradient y1="90.31" x2="0" y2="6.917" id="linearGradient3738-395-938-276-51" xlink:href="#ButtonShadow-0" gradientUnits="userSpaceOnUse" gradientTransform="matrix(1.0277778,0,0,1.0127315,-1.333333,0.0308796)"/>
  <linearGradient y1="90.31" x2="0" y2="6.917" id="linearGradient3730-606-724-474-290" xlink:href="#ButtonShadow-0" gradientUnits="userSpaceOnUse" gradientTransform="matrix(1.0277778,0,0,1.0127315,-1.333333,0.0308796)"/>
  <linearGradient y1="90.96" x2="0" y2="6.867" id="linearGradient3692-815-112-968-582" xlink:href="#ButtonShadow-0" gradientUnits="userSpaceOnUse"/>
  <linearGradient y1="90.31" x2="0" y2="6.917" id="linearGradient3718-164-412-273-835" xlink:href="#ButtonShadow-0" gradientUnits="userSpaceOnUse" gradientTransform="matrix(1.0277778,0,0,1.0127315,-1.333333,0.0308796)"/>
  <linearGradient y1="17.736" x2="0" y2="32.28" id="linearGradient4023-18-304-165-921" xlink:href="#linearGradient3348-816-246-274-150" gradientUnits="userSpaceOnUse" gradientTransform="matrix(0.72,0,0,0.72,1.92,-5.52)"/>
  <linearGradient id="linearGradient3348-816-246-274-150">
   <stop id="stop4540" stop-color="#565656"/>
   <stop id="stop4542" offset="0.717" stop-color="#444444"/>
   <stop id="stop4544" offset="1" stop-color="#353535"/>
  </linearGradient>
  <linearGradient y1="6" x2="0" y2="58.47" id="linearGradient4010-898-862-595-502" xlink:href="#linearGradient3737-954-40-503-980" gradientUnits="userSpaceOnUse"/>
  <linearGradient id="linearGradient3737-954-40-503-980">
   <stop id="stop4548" stop-color="#7a7a7a"/>
   <stop id="stop4550" offset="1" stop-color="#7a7a7a" stop-opacity="0"/>
  </linearGradient>
  <linearGradient y1="28.25" x2="0" y2="18.05" id="linearGradient3643-144-743-76-453" xlink:href="#linearGradient3637-951-162-733-49" gradientUnits="userSpaceOnUse"/>
  <linearGradient id="linearGradient3637-951-162-733-49">
   <stop id="stop4554" stop-color="#747474"/>
   <stop id="stop4556" offset="1" stop-color="#767676"/>
  </linearGradient>
  <linearGradient y1="19" x2="0" y2="16" id="linearGradient3666-473-73-748-111" xlink:href="#linearGradient3656" gradientUnits="userSpaceOnUse" gradientTransform="matrix(1.1111112,0,0,1.780582,-5.3333338,-5.6116384)"/>
  <linearGradient y1="66" x2="0" y2="5.988" id="linearGradient3706-155-233-740-645" xlink:href="#linearGradient3187-676-594-473-602" gradientUnits="userSpaceOnUse" gradientTransform="translate(0,22)"/>
  <linearGradient id="linearGradient3187-676-594-473-602">
   <stop id="stop4568" stop-color="#444444"/>
   <stop id="stop4570" offset="1" stop-color="#505050"/>
  </linearGradient>
  <linearGradient y1="18" x2="0" y2="73.995" id="linearGradient2865-248-815-762-963" xlink:href="#linearGradient3737-954-40-503-980" gradientUnits="userSpaceOnUse"/>
  <radialGradient cx="48" cy="90.17" r="42" id="radialGradient2862-971-21-303-244" xlink:href="#linearGradient3737-954-40-503-980" gradientUnits="userSpaceOnUse" gradientTransform="matrix(1.1573129,0,0,0.99590774,-7.551021,0.1971319)"/>
  <linearGradient y1="29.727" x2="0" y2="88.35" id="linearGradient4002-25-109-101-291" xlink:href="#linearGradient3737-954-40-503-980" gradientUnits="userSpaceOnUse"/>
  <linearGradient y1="80.47" x2="0" y2="5.297" id="linearGradient4018-536-514-917-714-689" xlink:href="#ButtonShadow" gradientUnits="userSpaceOnUse" gradientTransform="matrix(1.0058652,0,0,0.994169,0,12)"/>
  <linearGradient y1="90.31" x2="0" y2="6.917" id="linearGradient3750-258-451-689-259-572" xlink:href="#ButtonShadow-0" gradientUnits="userSpaceOnUse" gradientTransform="matrix(1.0277778,0,0,1.0127315,-1.333333,0.0308796)"/>
  <linearGradient y1="90.31" x2="0" y2="6.917" id="linearGradient3738-395-938-276-51-278" xlink:href="#ButtonShadow-0" gradientUnits="userSpaceOnUse" gradientTransform="matrix(1.0277778,0,0,1.0127315,-1.333333,0.0308796)"/>
  <linearGradient y1="90.31" x2="0" y2="6.917" id="linearGradient3730-606-724-474-290-802" xlink:href="#ButtonShadow-0" gradientUnits="userSpaceOnUse" gradientTransform="matrix(1.0277778,0,0,1.0127315,-1.333333,0.0308796)"/>
  <linearGradient y1="90.96" x2="0" y2="6.867" id="linearGradient3692-815-112-968-582-521" xlink:href="#ButtonShadow-0" gradientUnits="userSpaceOnUse"/>
  <linearGradient y1="90.31" x2="0" y2="6.917" id="linearGradient3718-164-412-273-835-409" xlink:href="#ButtonShadow-0" gradientUnits="userSpaceOnUse" gradientTransform="matrix(1.0277778,0,0,1.0127315,-1.333333,0.0308796)"/>
  <linearGradient y1="17.736" x2="0" y2="32.28" id="linearGradient4023-18-304-165-921-812" xlink:href="#linearGradient3348-816-246-274-150-469" gradientUnits="userSpaceOnUse" gradientTransform="matrix(0.72,0,0,0.72,1.92,-5.52)"/>
  <linearGradient id="linearGradient3348-816-246-274-150-469">
   <stop id="stop5238" stop-color="#4d4d4d"/>
   <stop id="stop5240" offset="0.717" stop-color="#3d3d3d"/>
   <stop id="stop5242" offset="1" stop-color="#303030"/>
  </linearGradient>
  <linearGradient y1="6" x2="0" y2="58.47" id="linearGradient4010-898-862-595-502-392" xlink:href="#linearGradient3737-954-40-503-980-738" gradientUnits="userSpaceOnUse"/>
  <linearGradient id="linearGradient3737-954-40-503-980-738">
   <stop id="stop5246" stop-color="#6e6e6e"/>
   <stop id="stop5248" offset="1" stop-color="#6e6e6e" stop-opacity="0"/>
  </linearGradient>
  <linearGradient y1="28.25" x2="0" y2="18.05" id="linearGradient3643-144-743-76-453-589" xlink:href="#linearGradient3637-951-162-733-49-44" gradientUnits="userSpaceOnUse"/>
  <linearGradient id="linearGradient3637-951-162-733-49-44">
   <stop id="stop5252" stop-color="#686868"/>
   <stop id="stop5254" offset="1" stop-color="#6a6a6a"/>
  </linearGradient>
  <linearGradient y1="19" x2="0" y2="16" id="linearGradient3666-473-73-748-111-386" xlink:href="#linearGradient3656" gradientUnits="userSpaceOnUse" gradientTransform="matrix(1.1111112,0,0,1.780582,-5.3333338,-5.6116384)"/>
  <linearGradient y1="66" x2="0" y2="5.988" id="linearGradient3706-155-233-740-645-27" xlink:href="#linearGradient3187-676-594-473-602-355" gradientUnits="userSpaceOnUse" gradientTransform="translate(0,22)"/>
  <linearGradient id="linearGradient3187-676-594-473-602-355">
   <stop id="stop5266" stop-color="#3d3d3d"/>
   <stop id="stop5268" offset="1" stop-color="#484848"/>
  </linearGradient>
  <linearGradient y1="18" x2="0" y2="73.995" id="linearGradient2865-248-815-762-963-277" xlink:href="#linearGradient3737-954-40-503-980-738" gradientUnits="userSpaceOnUse"/>
  <radialGradient cx="48" cy="90.17" r="42" id="radialGradient2862-971-21-303-244-847" xlink:href="#linearGradient3737-954-40-503-980-738" gradientUnits="userSpaceOnUse" gradientTransform="matrix(1.1573129,0,0,0.99590774,-7.551021,0.1971319)"/>
  <linearGradient y1="29.727" x2="0" y2="88.35" id="linearGradient4002-25-109-101-291-850" xlink:href="#linearGradient3737-954-40-503-980-738" gradientUnits="userSpaceOnUse"/>
  <linearGradient y1="80.47" x2="0" y2="5.297" id="linearGradient4018-536-514-917-714-689-228" xlink:href="#ButtonShadow" gradientUnits="userSpaceOnUse" gradientTransform="matrix(1.0058652,0,0,0.994169,0,12)"/>
  <linearGradient y1="90.31" x2="0" y2="6.917" id="linearGradient3750-258-451-689-259-572-349" xlink:href="#ButtonShadow-0" gradientUnits="userSpaceOnUse" gradientTransform="matrix(1.0277778,0,0,1.0127315,-1.333333,0.0308796)"/>
  <linearGradient y1="90.31" x2="0" y2="6.917" id="linearGradient3738-395-938-276-51-278-763" xlink:href="#ButtonShadow-0" gradientUnits="userSpaceOnUse" gradientTransform="matrix(1.0277778,0,0,1.0127315,-1.333333,0.0308796)"/>
  <linearGradient y1="90.31" x2="0" y2="6.917" id="linearGradient3730-606-724-474-290-802-515" xlink:href="#ButtonShadow-0" gradientUnits="userSpaceOnUse" gradientTransform="matrix(1.0277778,0,0,1.0127315,-1.333333,0.0308796)"/>
  <linearGradient y1="90.96" x2="0" y2="6.867" id="linearGradient3692-815-112-968-582-521-996" xlink:href="#ButtonShadow-0" gradientUnits="userSpaceOnUse"/>
  <linearGradient y1="90.31" x2="0" y2="6.917" id="linearGradient3718-164-412-273-835-409-177" xlink:href="#ButtonShadow-0" gradientUnits="userSpaceOnUse" gradientTransform="matrix(1.0277778,0,0,1.0127315,-1.333333,0.0308796)"/>
  <linearGradient y1="17.736" x2="0" y2="32.28" id="linearGradient4023-18-304-165-921-812-500" xlink:href="#linearGradient3348-816-246-274-150-469-753" gradientUnits="userSpaceOnUse" gradientTransform="matrix(0.72,0,0,0.72,1.92,-5.52)"/>
  <linearGradient id="linearGradient3348-816-246-274-150-469-753">
   <stop id="stop6052" stop-color="#454545"/>
   <stop id="stop6054" offset="0.717" stop-color="#383838"/>
   <stop id="stop6056" offset="1" stop-color="#2b2b2b"/>
  </linearGradient>
  <linearGradient y1="6" x2="0" y2="58.47" id="linearGradient4010-898-862-595-502-392-567" xlink:href="#linearGradient3737-954-40-503-980-738-308" gradientUnits="userSpaceOnUse"/>
  <linearGradient id="linearGradient3737-954-40-503-980-738-308">
   <stop id="stop6060" stop-color="#636363"/>
   <stop id="stop6062" offset="1" stop-color="#636363" stop-opacity="0"/>
  </linearGradient>
  <linearGradient y1="28.25" x2="0" y2="18.05" id="linearGradient3643-144-743-76-453-589-688" xlink:href="#linearGradient3637-951-162-733-49-44-709" gradientUnits="userSpaceOnUse"/>
  <linearGradient id="linearGradient3637-951-162-733-49-44-709">
   <stop id="stop6066" stop-color="#5e5e5e"/>
   <stop id="stop6068" offset="1" stop-color="#606060"/>
  </linearGradient>
  <linearGradient y1="19" x2="0" y2="16" id="linearGradient3666-473-73-748-111-386-593" xlink:href="#linearGradient3656" gradientUnits="userSpaceOnUse" gradientTransform="matrix(1.1111112,0,0,1.780582,-5.3333338,-5.6116384)"/>
  <linearGradient y1="66" x2="0" y2="5.988" id="linearGradient3706-155-233-740-645-27-730" xlink:href="#linearGradient3187-676-594-473-602-355-436" gradientUnits="userSpaceOnUse" gradientTransform="translate(0,22)"/>
  <linearGradient id="linearGradient3187-676-594-473-602-355-436">
   <stop id="stop6080" stop-color="#383838"/>
   <stop id="stop6082" offset="1" stop-color="#424242"/>
  </linearGradient>
  <linearGradient y1="18" x2="0" y2="73.995" id="linearGradient2865-248-815-762-963-277-293" xlink:href="#linearGradient3737-954-40-503-980-738-308" gradientUnits="userSpaceOnUse"/>
  <radialGradient cx="48" cy="90.17" r="42" id="radialGradient2862-971-21-303-244-847-622" xlink:href="#linearGradient3737-954-40-503-980-738-308" gradientUnits="userSpaceOnUse" gradientTransform="matrix(1.1573129,0,0,0.99590774,-7.551021,0.1971319)"/>
  <linearGradient y1="29.727" x2="0" y2="88.35" id="linearGradient4002-25-109-101-291-850-437" xlink:href="#linearGradient3737-954-40-503-980-738-308" gradientUnits="userSpaceOnUse"/>
  <linearGradient y1="28.25" x2="0" y2="18.05" id="linearGradient3643-144-743-76-453-589-688-214" xlink:href="#linearGradient3637-951-162-733-49-44-709-29" gradientUnits="userSpaceOnUse"/>
  <linearGradient id="linearGradient3637-951-162-733-49-44-709-29">
   <stop id="stop6794" stop-color="#686868"/>
   <stop id="stop6796" offset="1" stop-color="#6b6b6b"/>
  </linearGradient>
  <linearGradient y1="19" x2="0" y2="16" id="linearGradient3666-473-73-748-111-386-593-232" xlink:href="#linearGradient3656-139-3-555-185-857-888-149" gradientUnits="userSpaceOnUse" gradientTransform="matrix(1.1111112,0,0,1.780582,-5.3333338,-5.6116384)"/>
  <linearGradient id="linearGradient3656-139-3-555-185-857-888-149">
   <stop id="stop6800" stop-color="#0b0b0b"/>
   <stop id="stop6802" offset="0.5" stop-color="#0b0b0b" stop-opacity="0.302"/>
   <stop id="stop6804" offset="1" stop-color="#0b0b0b" stop-opacity="0"/>
  </linearGradient>
  <linearGradient y1="28.25" x2="0" y2="18.05" id="linearGradient3643-144-743-76-453-589-688-214-614" xlink:href="#linearGradient3637-951-162-733-49-44-709-29-397" gradientUnits="userSpaceOnUse"/>
  <linearGradient id="linearGradient3637-951-162-733-49-44-709-29-397">
   <stop id="stop7668" stop-color="#747474"/>
   <stop id="stop7670" offset="1" stop-color="#777777"/>
  </linearGradient>
  <linearGradient y1="19" x2="0" y2="16" id="linearGradient3666-473-73-748-111-386-593-232-524" xlink:href="#linearGradient3656-139-3-555-185-857-888-149-348" gradientUnits="userSpaceOnUse" gradientTransform="matrix(1.1111112,0,0,1.780582,-5.3333338,-5.6116384)"/>
  <linearGradient id="linearGradient3656-139-3-555-185-857-888-149-348">
   <stop id="stop7674" stop-color="#0c0c0c"/>
   <stop id="stop7676" offset="0.5" stop-color="#0c0c0c" stop-opacity="0.302"/>
   <stop id="stop7678" offset="1" stop-color="#0c0c0c" stop-opacity="0"/>
  </linearGradient>
  <linearGradient y1="28.25" x2="0" y2="18.05" id="linearGradient3643-144-743-76-453-589-688-214-614-793" xlink:href="#linearGradient3637-951-162-733-49-44-709-29-397-755" gradientUnits="userSpaceOnUse"/>
  <linearGradient id="linearGradient3637-951-162-733-49-44-709-29-397-755">
   <stop id="stop8560" stop-color="#818181"/>
   <stop id="stop8562" offset="1" stop-color="#848484"/>
  </linearGradient>
  <linearGradient y1="19" x2="0" y2="16" id="linearGradient3666-473-73-748-111-386-593-232-524-27" xlink:href="#linearGradient3656-139-3-555-185-857-888-149-348-30" gradientUnits="userSpaceOnUse" gradientTransform="matrix(1.1111112,0,0,1.780582,-5.3333338,-5.6116384)"/>
  <linearGradient id="linearGradient3656-139-3-555-185-857-888-149-348-30">
   <stop id="stop8566" stop-color="#0d0d0d"/>
   <stop id="stop8568" offset="0.5" stop-color="#0d0d0d" stop-opacity="0.302"/>
   <stop id="stop8570" offset="1" stop-color="#0d0d0d" stop-opacity="0"/>
  </linearGradient>
  <linearGradient y1="28.25" x2="0" y2="18.05" id="linearGradient3643-144-743-76-453-589-688-214-614-793-295" xlink:href="#linearGradient3637-951-162-733-49-44-709-29-397-755-127" gradientUnits="userSpaceOnUse"/>
  <linearGradient id="linearGradient3637-951-162-733-49-44-709-29-397-755-127">
   <stop id="stop9470" stop-color="#8f8f8f"/>
   <stop id="stop9472" offset="1" stop-color="#939393"/>
  </linearGradient>
  <linearGradient y1="19" x2="0" y2="16" id="linearGradient3666-473-73-748-111-386-593-232-524-27-494" xlink:href="#linearGradient3656-139-3-555-185-857-888-149-348-30-509" gradientUnits="userSpaceOnUse" gradientTransform="matrix(1.1111112,0,0,1.780582,-5.3333338,-5.6116384)"/>
  <linearGradient id="linearGradient3656-139-3-555-185-857-888-149-348-30-509">
   <stop id="stop9476" stop-color="#0e0e0e"/>
   <stop id="stop9478" offset="0.5" stop-color="#0e0e0e" stop-opacity="0.302"/>
   <stop id="stop9480" offset="1" stop-color="#0e0e0e" stop-opacity="0"/>
  </linearGradient>
  <linearGradient y1="28.25" x2="0" y2="18.05" id="linearGradient3643-144-743-76-453-589-688-214-614-793-295-686" xlink:href="#linearGradient3637-951-162-733-49-44-709-29-397-755-127-708" gradientUnits="userSpaceOnUse"/>
  <linearGradient id="linearGradient3637-951-162-733-49-44-709-29-397-755-127-708">
   <stop id="stop10398" stop-color="#9f9f9f"/>
   <stop id="stop10400" offset="1" stop-color="#a3a3a3"/>
  </linearGradient>
  <linearGradient y1="19" x2="0" y2="16" id="linearGradient3666-473-73-748-111-386-593-232-524-27-494-709" xlink:href="#linearGradient3656-139-3-555-185-857-888-149-348-30-509-201" gradientUnits="userSpaceOnUse" gradientTransform="matrix(1.1111112,0,0,1.780582,-5.3333338,-5.6116384)"/>
  <linearGradient id="linearGradient3656-139-3-555-185-857-888-149-348-30-509-201">
   <stop id="stop10404" stop-color="#101010"/>
   <stop id="stop10406" offset="0.5" stop-color="#101010" stop-opacity="0.302"/>
   <stop id="stop10408" offset="1" stop-color="#101010" stop-opacity="0"/>
  </linearGradient>
  <linearGradient y1="28.25" x2="0" y2="18.05" id="linearGradient3643-144-743-76-453-589-688-214-614-793-295-686-479" xlink:href="#linearGradient3637-951-162-733-49-44-709-29-397-755-127-708-34" gradientUnits="userSpaceOnUse"/>
  <linearGradient id="linearGradient3637-951-162-733-49-44-709-29-397-755-127-708-34">
   <stop id="stop11344" stop-color="#b1b1b1"/>
   <stop id="stop11346" offset="1" stop-color="#b5b5b5"/>
  </linearGradient>
  <linearGradient y1="19" x2="0" y2="16" id="linearGradient3666-473-73-748-111-386-593-232-524-27-494-709-87" xlink:href="#linearGradient3656-139-3-555-185-857-888-149-348-30-509-201-761" gradientUnits="userSpaceOnUse" gradientTransform="matrix(1.1111112,0,0,1.780582,-5.3333338,-5.6116384)"/>
  <linearGradient id="linearGradient3656-139-3-555-185-857-888-149-348-30-509-201-761">
   <stop id="stop11350" stop-color="#121212"/>
   <stop id="stop11352" offset="0.5" stop-color="#121212" stop-opacity="0.302"/>
   <stop id="stop11354" offset="1" stop-color="#121212" stop-opacity="0"/>
  </linearGradient>
  <linearGradient y1="28.25" x2="0" y2="18.05" id="linearGradient3643-144-743-76-453-589-688-214-614-793-295-686-479-787" xlink:href="#linearGradient3637-951-162-733-49-44-709-29-397-755-127-708-34-208" gradientUnits="userSpaceOnUse"/>
  <linearGradient id="linearGradient3637-951-162-733-49-44-709-29-397-755-127-708-34-208">
   <stop id="stop12308" stop-color="#c5c5c5"/>
   <stop id="stop12310" offset="1" stop-color="#c9c9c9"/>
  </linearGradient>
  <linearGradient y1="19" x2="0" y2="16" id="linearGradient3666-473-73-748-111-386-593-232-524-27-494-709-87-315" xlink:href="#linearGradient3656-139-3-555-185-857-888-149-348-30-509-201-761-305" gradientUnits="userSpaceOnUse" gradientTransform="matrix(1.1111112,0,0,1.780582,-5.3333338,-5.6116384)"/>
  <linearGradient id="linearGradient3656-139-3-555-185-857-888-149-348-30-509-201-761-305">
   <stop id="stop12314" stop-color="#141414"/>
   <stop id="stop12316" offset="0.5" stop-color="#141414" stop-opacity="0.302"/>
   <stop id="stop12318" offset="1" stop-color="#141414" stop-opacity="0"/>
  </linearGradient>
  <linearGradient y1="28.25" x2="0" y2="18.05" id="linearGradient3643-144-743-76-453-589-688-214-614-793-295-686-479-787-269" xlink:href="#linearGradient3637-951-162-733-49-44-709-29-397-755-127-708-34-208-711" gradientUnits="userSpaceOnUse"/>
  <linearGradient id="linearGradient3637-951-162-733-49-44-709-29-397-755-127-708-34-208-711">
   <stop id="stop13290" stop-color="#dbdbdb"/>
   <stop id="stop13292" offset="1" stop-color="#dfdfdf"/>
  </linearGradient>
  <linearGradient y1="19" x2="0" y2="16" id="linearGradient3666-473-73-748-111-386-593-232-524-27-494-709-87-315-901" xlink:href="#linearGradient3656-139-3-555-185-857-888-149-348-30-509-201-761-305-923" gradientUnits="userSpaceOnUse" gradientTransform="matrix(1.1111112,0,0,1.780582,-5.3333338,-5.6116384)"/>
  <linearGradient id="linearGradient3656-139-3-555-185-857-888-149-348-30-509-201-761-305-923">
   <stop id="stop13296" stop-color="#161616"/>
   <stop id="stop13298" offset="0.5" stop-color="#161616" stop-opacity="0.302"/>
   <stop id="stop13300" offset="1" stop-color="#161616" stop-opacity="0"/>
  </linearGradient>
  <linearGradient y1="28.25" x2="0" y2="18.05" id="linearGradient3643-144-743-76-453-589-688-214-614-793-295-686-479-787-269-251" xlink:href="#linearGradient3637-951-162-733-49-44-709-29-397-755-127-708-34-208-711-28" gradientUnits="userSpaceOnUse"/>
  <linearGradient id="linearGradient3637-951-162-733-49-44-709-29-397-755-127-708-34-208-711-28">
   <stop id="stop14290" stop-color="#f3f3f3"/>
   <stop id="stop14292" offset="1" stop-color="#f8f8f8"/>
  </linearGradient>
  <linearGradient y1="19" x2="0" y2="16" id="linearGradient3666-473-73-748-111-386-593-232-524-27-494-709-87-315-901-929" xlink:href="#linearGradient3656-139-3-555-185-857-888-149-348-30-509-201-761-305-923-449" gradientUnits="userSpaceOnUse" gradientTransform="matrix(1.1111112,0,0,1.780582,-5.3333338,-5.6116384)"/>
  <linearGradient id="linearGradient3656-139-3-555-185-857-888-149-348-30-509-201-761-305-923-449">
   <stop id="stop14296" stop-color="#181818"/>
   <stop id="stop14298" offset="0.5" stop-color="#181818" stop-opacity="0.302"/>
   <stop id="stop14300" offset="1" stop-color="#181818" stop-opacity="0"/>
  </linearGradient>
  <linearGradient y1="80.47" x2="0" y2="5.297" id="linearGradient4018-536-514-917-714-689-228-40" xlink:href="#ButtonShadow-910-692-884-869-646-58-379" gradientUnits="userSpaceOnUse" gradientTransform="matrix(1.0058652,0,0,0.994169,0,12)"/>
  <linearGradient y1="80.47" x2="0" y2="7.02" id="ButtonShadow-910-692-884-869-646-58-379" gradientUnits="userSpaceOnUse" gradientTransform="matrix(1.0058652,0,0,0.994169,0,12)">
   <stop id="stop16335" stop-color="#0b0b0b"/>
   <stop id="stop16337" offset="1" stop-color="#0b0b0b" stop-opacity="0.588"/>
  </linearGradient>
  <linearGradient y1="90.31" x2="0" y2="6.917" id="linearGradient3750-258-451-689-259-572-349-741" xlink:href="#ButtonShadow-0-27-455-663-808-808-612-792" gradientUnits="userSpaceOnUse" gradientTransform="matrix(1.0277778,0,0,1.0127315,-1.333333,0.0308796)"/>
  <linearGradient y1="92.54" x2="0" y2="7.02" id="ButtonShadow-0-27-455-663-808-808-612-792" gradientUnits="userSpaceOnUse" gradientTransform="matrix(1.0058652,0,0,0.994169,100,0)">
   <stop id="stop16341" stop-color="#0b0b0b"/>
   <stop id="stop16343" offset="1" stop-color="#0b0b0b" stop-opacity="0.588"/>
  </linearGradient>
  <linearGradient y1="90.31" x2="0" y2="6.917" id="linearGradient3738-395-938-276-51-278-763-611" xlink:href="#ButtonShadow-0-27-455-663-808-808-612-792" gradientUnits="userSpaceOnUse" gradientTransform="matrix(1.0277778,0,0,1.0127315,-1.333333,0.0308796)"/>
  <linearGradient y1="90.31" x2="0" y2="6.917" id="linearGradient3730-606-724-474-290-802-515-357" xlink:href="#ButtonShadow-0-27-455-663-808-808-612-792" gradientUnits="userSpaceOnUse" gradientTransform="matrix(1.0277778,0,0,1.0127315,-1.333333,0.0308796)"/>
  <linearGradient y1="90.96" x2="0" y2="6.867" id="linearGradient3692-815-112-968-582-521-996-700" xlink:href="#ButtonShadow-0-27-455-663-808-808-612-792" gradientUnits="userSpaceOnUse"/>
  <linearGradient y1="90.31" x2="0" y2="6.917" id="linearGradient3718-164-412-273-835-409-177-201" xlink:href="#ButtonShadow-0-27-455-663-808-808-612-792" gradientUnits="userSpaceOnUse" gradientTransform="matrix(1.0277778,0,0,1.0127315,-1.333333,0.0308796)"/>
  <linearGradient y1="17.736" x2="0" y2="32.28" id="linearGradient4023-18-304-165-921-812-500-163" xlink:href="#linearGradient3348-816-246-274-150-469-753-537" gradientUnits="userSpaceOnUse" gradientTransform="matrix(0.72,0,0,0.72,1.92,-5.52)"/>
  <linearGradient id="linearGradient3348-816-246-274-150-469-753-537">
   <stop id="stop16371" stop-color="#4d4d4d"/>
   <stop id="stop16373" offset="0.717" stop-color="#3e3e3e"/>
   <stop id="stop16375" offset="1" stop-color="#303030"/>
  </linearGradient>
  <linearGradient y1="6" x2="0" y2="58.47" id="linearGradient4010-898-862-595-502-392-567-502" xlink:href="#linearGradient3737-954-40-503-980-738" gradientUnits="userSpaceOnUse"/>
  <linearGradient y1="28.25" x2="0" y2="18.05" id="linearGradient3643-144-743-76-453-589-688-214-614-793-295-686-479-787-269-251-227" xlink:href="#linearGradient3637-951-162-733-49-44-709-29-397-755-127-708-34-208-711-28-943" gradientUnits="userSpaceOnUse"/>
  <linearGradient id="linearGradient3637-951-162-733-49-44-709-29-397-755-127-708-34-208-711-28-943">
   <stop id="stop16385" stop-color="#ffffff"/>
   <stop id="stop16387" offset="1" stop-color="#ffffff"/>
  </linearGradient>
  <linearGradient y1="19" x2="0" y2="16" id="linearGradient3666-473-73-748-111-386-593-232-524-27-494-709-87-315-901-929-910" xlink:href="#linearGradient3656-139-3-555-185-857-888-149-348-30-509-201-761-305-923-449-836" gradientUnits="userSpaceOnUse" gradientTransform="matrix(1.1111112,0,0,1.780582,-5.3333338,-5.6116384)"/>
  <linearGradient id="linearGradient3656-139-3-555-185-857-888-149-348-30-509-201-761-305-923-449-836">
   <stop id="stop16391" stop-color="#1b1b1b"/>
   <stop id="stop16393" offset="0.5" stop-color="#1b1b1b" stop-opacity="0.302"/>
   <stop id="stop16395" offset="1" stop-color="#1b1b1b" stop-opacity="0"/>
  </linearGradient>
  <linearGradient y1="66" x2="0" y2="5.988" id="linearGradient3706-155-233-740-645-27-730-250" xlink:href="#linearGradient3187-676-594-473-602-355-436-372" gradientUnits="userSpaceOnUse" gradientTransform="translate(0,22)"/>
  <linearGradient id="linearGradient3187-676-594-473-602-355-436-372">
   <stop id="stop16399" stop-color="#3e3e3e"/>
   <stop id="stop16401" offset="1" stop-color="#494949"/>
  </linearGradient>
  <linearGradient y1="18" x2="0" y2="73.995" id="linearGradient2865-248-815-762-963-277-293-340" xlink:href="#linearGradient3737-954-40-503-980-738" gradientUnits="userSpaceOnUse"/>
  <radialGradient cx="48" cy="90.17" r="42" id="radialGradient2862-971-21-303-244-847-622-432" xlink:href="#linearGradient3737-954-40-503-980-738" gradientUnits="userSpaceOnUse" gradientTransform="matrix(1.1573129,0,0,0.99590774,-7.551021,0.1971319)"/>
  <linearGradient y1="29.727" x2="0" y2="88.35" id="linearGradient4002-25-109-101-291-850-437-708" xlink:href="#linearGradient3737-954-40-503-980-738" gradientUnits="userSpaceOnUse"/>
 </defs>
 <metadata id="metadata2413"/>
 <g id="layer5" fill="#666666">
  <path d="m 13.96875,4.09375 c -3.244117,0 -6,2.6582434 -6,5.9375 l 0,7.96875 c -2.3330986,1.694577 -4,4.352257 -4,7.5 l 0,4.84375 c -1.1417997,1.557866 -2,3.460255 -2,5.65625 l 0,49 c 0,5.500726 4.5305236,10.03125 10.03125,10.03125 l 72,0 c 5.500726,0 10.03125,-4.530524 10.03125,-10.03125 l 0,-49 c 0,-2.195995 -0.8582,-4.098384 -2,-5.65625 l 0,-4.84375 c 0,-3.147743 -1.666901,-5.805423 -4,-7.5 l 0,-0.65625 c 0,-4.071769 -3.40082,-7.40625 -7.46875,-7.40625 l -42.59375,0 L 37.5,9.0625 C 37.499626,9.0612378 37.477745,9.0273999 37.46875,9 l 0,-0.0625 c -3.38e-4,-9.355e-4 -0.02354,-0.011687 -0.03125,-0.03125 a 0.8919204,0.8919204 0 0 0 0,-0.0625 c -6.03e-4,-0.00141 -0.01781,-0.033542 -0.03125,-0.0625 A 0.8919204,0.8919204 0 0 0 37.375,8.75 c -6.67e-4,-0.00133 0.01492,-0.034714 0,-0.0625 A 0.8919204,0.8919204 0 0 0 37.34375,8.65625 C 37.024891,8.0278701 36.613957,7.0687172 35.84375,6.125 34.966262,5.0498343 33.530934,4.09375 31.71875,4.09375 l -17.75,0 z" id="path3748" opacity="0.08"/>
  <path d="M 13.96875,5 C 11.209799,5 8.875,7.2513513 8.875,10.03125 l 0,8.375 c -2.3438735,1.521602 -4,4.077864 -4,7.09375 l 0,5.09375 c -1.1626438,1.493545 -2,3.312591 -2,5.40625 l 0,49 c 0,5.013042 4.1119578,9.125 9.125,9.125 l 72,0 c 5.013042,0 9.125,-4.111958 9.125,-9.125 l 0,-49 c 0,-2.093659 -0.837356,-3.912705 -2,-5.40625 l 0,-5.09375 c 0,-3.015886 -1.656126,-5.572148 -4,-7.09375 l 0,-1.0625 c 0,-3.576407 -2.979736,-6.5 -6.5625,-6.5 l -43.125,0 -0.78125,-1.53125 a 1.0193377,1.0193377 0 0 0 -0.09375,-0.21875 1.0193377,1.0193377 0 0 0 0,-0.03125 C 36.225341,8.3980555 35.838159,7.5230278 35.15625,6.6875 34.4179,5.7828164 33.221144,5 31.71875,5 l -17.75,0 z" id="path3736" opacity="0.1"/>
  <path d="m 13.96875,6.03125 c -2.207961,0 -4.0625,1.7904059 -4.0625,4 l 0,8.875 c -2.3522189,1.287028 -4,3.727103 -4,6.59375 l 0,5.34375 c -1.1978966,1.400516 -2,3.16038 -2,5.15625 l 0,49 c 0,4.459216 3.6345342,8.09375 8.09375,8.09375 l 72,0 c 4.459216,0 8.09375,-3.634534 8.09375,-8.09375 l 0,-49 c 0,-1.995869 -0.802103,-3.755734 -2,-5.15625 l 0,-5.34375 c 0,-2.866647 -1.647781,-5.306722 -4,-6.59375 l 0,-1.5625 c 0,-3.012856 -2.498783,-5.46875 -5.53125,-5.46875 l -43.75,0 -1.15625,-2.3125 a 1.0830462,1.0830462 0 0 0 0,-0.03125 C 35.302675,8.8344532 34.951407,8.0500081 34.375,7.34375 33.798593,6.6374919 32.860282,6.03125 31.71875,6.03125 l -17.75,0 z" id="path3728" opacity="0.15"/>
  <path d="M 14.875,7 C 13.27948,7 12,8.27948 12,9.875 l 0,7.21875 0,2.25 C 9.666493,20.164656 8,22.378888 8,25 l 0,5.53125 C 6.774567,31.628291 6,33.218238 6,35 l 0,50 c 0,3.324 2.676,6 6,6 l 72,0 c 3.324,0 6,-2.676 6,-6 l 0,-50 c 0,-1.781762 -0.774568,-3.371709 -2,-4.46875 L 88,25 c 0,-2.621112 -1.666493,-4.835344 -4,-5.65625 l 0,-2.25 C 84,14.70047 82.08078,12.75 79.6875,12.75 l -43.21875,0 -1.4375,-2.875 C 34.317712,8.4479235 33.75177,7 32.15625,7 L 14.875,7 z" inkscape:connector-curvature="0" id="path2878" opacity="0.45"/>
  <path d="M 13.96875,7.125 C 12.32891,7.125 11,8.4154163 11,10.03125 L 11,19.5 c -2.3489742,0.977679 -4,3.28882 -4,6 l 0,5.625 C 5.7660954,32.379515 5,34.090054 5,36 l 0,49 c 0,3.878 3.122,7 7,7 l 72,0 c 3.878,0 7,-3.122 7,-7 l 0,-49 c 0,-1.909946 -0.766095,-3.620485 -2,-4.875 L 89,25.5 c 0,-2.71118 -1.651026,-5.022321 -4,-6 l 0,-2.15625 c 0,-2.42375 -1.97774,-4.375 -4.4375,-4.375 l -44.40625,0 -1.46875,-2.9375 C 33.954141,8.5860044 33.35859,7.125 31.71875,7.125 l -17.75,0 z" inkscape:connector-curvature="0" id="path3679" opacity="0.3"/>
 </g>
 <g id="layer3">
  <path d="M 14.88,6 C 13.28448,6 12,7.28448 12,8.88 l 0,7.2 0,50.4 0,4.32 c 0,2.39328 1.92672,4.32 4.32,4.32 l 63.36,0 c 2.39328,0 4.32,-1.92672 4.32,-4.32 l 0,-54.72 c 0,-2.39328 -1.92672,-4.32 -4.32,-4.32 l -43.2,0 -1.44,-2.88 C 34.326462,7.4529235 33.75552,6 32.16,6 L 14.88,6 z" inkscape:connector-curvature="0" id="rect3325" fill="url(#linearGradient4023-18-304-165-921-812-500-163)"/>
  <path d="M 14.875,6 C 13.27948,6 12,7.27948 12,8.875 l 0,7.21875 0,50.375 0,4.34375 c 0,2.393277 1.91922,4.3125 4.3125,4.3125 l 63.375,0 C 82.08078,75.124997 84,73.20578 84,70.8125 L 84,16.09375 C 84,13.70047 82.08078,11.75 79.6875,11.75 l -43.21875,0 -1.4375,-2.875 C 34.317711,7.4479234 33.75177,6 32.15625,6 L 14.875,6 z m 0,1.9375 17.28125,0 c 0.48716,0 0.660447,0.1126732 0.96875,0.5 0.308303,0.3873268 0.629671,1.0718434 1,1.8125 l 1.4375,2.875 c 0.173379,0.341986 0.522842,0.558894 0.90625,0.5625 l 43.21875,0 c 1.835408,0 3.28125,1.468154 3.28125,3.3125 l 0,54.71875 c 0,1.844346 -1.436902,3.281248 -3.28125,3.28125 l -63.375,0 c -1.844346,0 -3.28125,-1.436907 -3.28125,-3.28125 l 0,-4.34375 0,-50.375 0,-7.21875 c 0,-1.0465864 0.797164,-1.84375 1.84375,-1.84375 z" inkscape:connector-curvature="0" id="path3997" opacity="0.3" fill="url(#linearGradient4010-898-862-595-502-392-567-502)"/>
 </g>
 <g id="layer4">
  <rect width="80" height="32" rx="6" x="8" y="18" id="rect2863" fill="url(#linearGradient3643-144-743-76-453-589-688-214-614-793-295-686-479-787-269-251-227)"/>
  <path d="m 14,18 c -3.324,0 -6,2.676 -6,6 l 0,20 c 0,2.974194 2.136686,5.422392 4.96875,5.90625 C 10.674877,49.44576 9,47.44451 9,45 L 9,25 c 0,-2.793726 2.206274,-5 5,-5 l 68,0 c 2.793726,0 5,2.206274 5,5 l 0,20 c 0,2.44451 -1.674877,4.44576 -3.96875,4.90625 C 85.863314,49.422392 88,46.974194 88,44 l 0,-20 c 0,-3.324 -2.676,-6 -6,-6 l -68,0 z" inkscape:connector-curvature="0" id="rect3647" opacity="0.8" fill="#ffffff"/>
  <rect width="80" height="7.122" x="8" y="22.878" id="rect3664" opacity="0.2" fill="url(#linearGradient3666-473-73-748-111-386-593-232-524-27-494-709-87-315-901-929-910)"/>
 </g>
 <g id="layer1">
  <rect width="84" height="62" rx="6" x="6" y="28" id="rect2419" fill="url(#linearGradient3706-155-233-740-645-27-730-250)"/>
  <path d="M 12,28 C 8.1664778,27.865356 5.437668,31.719831 6,35.324934 6.0182267,55.046578 5.9635941,64.770241 6.027225,84.490627 5.4042181,86.817486 10.106592,90.112109 9.4375,89.28125 6.2443569,87.50699 7.1210795,83.590903 7,80.570955 7.0171381,61.875988 6.965773,53.179319 7.02559,34.485413 7.2333142,31.245774 10.611618,29.546599 13.545756,30 c 23.656065,0.01707 47.313826,-0.03414 70.968831,0.02559 3.239639,0.207724 4.938814,3.586028 4.485413,6.520166 -0.02354,19.664295 0.04703,29.331652 -0.03517,48.994038 0.412935,2.431244 -5.152855,5.528097 -1.087717,2.991175 C 90.899219,86.11209 89.784847,82.026839 90,78.687666 89.979342,60.25365 90.041266,51.817564 89.969136,33.384839 89.719134,29.67006 85.894704,27.489808 82.454244,28 58.969496,28 35.484748,28 12,28 z" inkscape:connector-curvature="0" id="rect3728" opacity="0.5" fill="url(#linearGradient2865-248-815-762-963-277-293-340)"/>
  <path d="M 12,90 C 8.1664778,90.134644 5.437668,86.280169 6,82.675066 6.0182267,62.953422 5.9635941,53.229759 6.027225,33.509373 5.4042181,31.182514 10.106592,27.887891 9.4375,28.71875 6.2443569,30.49301 7.1210795,34.409097 7,37.429045 7.0171381,56.124012 6.965773,64.820681 7.02559,83.514587 7.2333142,86.754226 10.611618,88.453401 13.545756,88 37.201821,87.982926 60.859582,88.034139 84.514587,87.97441 87.754226,87.766686 89.453401,84.388382 89,81.454244 88.976458,61.789949 89.047025,52.122592 88.96483,32.460206 89.377765,30.028962 83.811975,26.932109 87.877113,29.469031 90.899219,31.88791 89.784847,35.973161 90,39.312334 89.979342,57.74635 90.041266,66.182436 89.969136,84.615161 89.719134,88.32994 85.894704,90.510192 82.454244,90 58.969496,90 35.484748,90 12,90 z" inkscape:connector-curvature="0" id="path3615" opacity="0.2" fill="url(#radialGradient2862-971-21-303-244-847-622-432)"/>
 </g>
 <g id="layer6">
  <path d="m 15.96875,34.53125 c -2.845903,0.0043 -5.433244,2.591597 -5.4375,5.4375 l 0,40.0625 c 0.0043,2.845903 2.591597,5.433244 5.4375,5.4375 l 64.0625,0 c 2.845903,-0.0043 5.433244,-2.591597 5.4375,-5.4375 l 0,-40.0625 c -0.0043,-2.845903 -2.591597,-5.433244 -5.4375,-5.4375 z" inkscape:connector-curvature="0" clip-path="url(#clipPath3998)" id="path3850" opacity="0.15" fill="url(#linearGradient4002-25-109-101-291-850-437-708)" filter="url(#filter3870)"/>
 </g>
</svg>
