<?xml version="1.0" encoding="UTF-8" standalone="no"?>
<svg xmlns="http://www.w3.org/2000/svg" xmlns:xlink="http://www.w3.org/1999/xlink" xmlns:sodipodi="http://sodipodi.sourceforge.net/DTD/sodipodi-0.dtd" xmlns:inkscape="http://www.inkscape.org/namespaces/inkscape" version="1.0" width="96" height="96">
 <defs id="defs2410">
  <linearGradient id="linearGradient3874">
   <stop id="stop3876" stop-color="#a7a7a7"/>
   <stop offset="1" id="stop3878" stop-color="#a7a7a7" stop-opacity="0"/>
  </linearGradient>
  <linearGradient gradientTransform="scale(1.0598527,0.9435274)" gradientUnits="userSpaceOnUse" id="linearGradient3317" y2="20.14" x2="0" y1="3.213">
   <stop id="stop3319" stop-color="#545454"/>
   <stop offset="1" id="stop3321" stop-color="#424242"/>
  </linearGradient>
  <linearGradient gradientUnits="userSpaceOnUse" xlink:href="#linearGradient3317" id="linearGradient3361" y2="85.82" x2="0" y1="25.911"/>
  <linearGradient id="linearGradient3348">
   <stop id="stop3350" stop-color="#767676"/>
   <stop offset="0.717" id="stop3356" stop-color="#5c5c5c"/>
   <stop offset="1" id="stop3352" stop-color="#484848"/>
  </linearGradient>
  <linearGradient id="linearGradient3187">
   <stop id="stop3189" stop-color="#5c5c5c"/>
   <stop offset="1" id="stop3191" stop-color="#6e6e6e"/>
  </linearGradient>
  <linearGradient gradientTransform="matrix(1.0058652,0,0,0.994169,0,12)" gradientUnits="userSpaceOnUse" id="ButtonShadow" y2="7.02" x2="0" y1="80.47">
   <stop id="stop3750" stop-color="#0a0a0a"/>
   <stop offset="1" id="stop3752" stop-color="#0a0a0a" stop-opacity="0.588"/>
  </linearGradient>
  <linearGradient gradientTransform="translate(0,12)" gradientUnits="userSpaceOnUse" xlink:href="#linearGradient3187" id="linearGradient3706" y2="5.988" x2="0" y1="78"/>
  <filter id="filter3174" color-interpolation-filters="sRGB">
   <feGaussianBlur stdDeviation="1.71" id="feGaussianBlur3176"/>
  </filter>
  <linearGradient gradientUnits="userSpaceOnUse" xlink:href="#linearGradient3874" id="linearGradient3188" y2="73.995" x2="0" y1="18"/>
  <linearGradient gradientUnits="userSpaceOnUse" xlink:href="#linearGradient3874" id="linearGradient4010" y2="58.47" x2="0" y1="6"/>
  <linearGradient gradientTransform="matrix(0.72,0,0,0.72,1.92,-5.52)" gradientUnits="userSpaceOnUse" xlink:href="#linearGradient3348" id="linearGradient4023" y2="32.01" x2="0" y1="17.736"/>
  <radialGradient gradientTransform="matrix(1.1573129,0,0,0.99590774,-7.551021,0.1971319)" gradientUnits="userSpaceOnUse" xlink:href="#linearGradient3874" id="radialGradient2874" r="42" cy="90.17" cx="48"/>
  <linearGradient gradientTransform="matrix(1.0058652,0,0,0.994169,0,12)" gradientUnits="userSpaceOnUse" xlink:href="#ButtonShadow" id="linearGradient3664" y2="5.297" x2="0" y1="80.47"/>
  <linearGradient gradientUnits="userSpaceOnUse" xlink:href="#ButtonShadow" id="linearGradient3671" y2="6.917" x2="0" y1="90.31"/>
  <linearGradient gradientTransform="matrix(1.0277778,0,0,1.0127315,-1.333333,0.03087963)" gradientUnits="userSpaceOnUse" xlink:href="#ButtonShadow" id="linearGradient3692" y2="6.917" x2="0" y1="90.31"/>
  <clipPath id="clipPath3860">
   <rect id="rect3862" y="18" x="6" rx="6" height="72" width="84" fill="#545454"/>
  </clipPath>
  <filter id="filter3870" color-interpolation-filters="sRGB" height="1.394" width="1.331" y="-0.197" x="-0.166">
   <feGaussianBlur stdDeviation="5.17031" id="feGaussianBlur3872"/>
  </filter>
  <linearGradient gradientUnits="userSpaceOnUse" xlink:href="#linearGradient3874" id="linearGradient3880" y2="88.35" x2="0" y1="22.933"/>
  <clipPath id="clipPath3724">
   <path id="path3726" d="m 98.84375,25.28125 c -3.324,0 -6,2.676 -6,6 l 0,47.28125 c 0,3.324 2.676,6 6,6 l 60.6875,0 c 3.324,0 6,-2.676 6,-6 l 0,-47.28125 c 0,-3.324 -2.676,-6 -6,-6 l -60.6875,0 z M 128,34 c 10.74874,0 21.48649,4.11149 29.6875,12.3125 L 152.75,51.25 c -13.66835,-13.66835 -35.83165,-13.66835 -49.5,0 L 98.3125,46.3125 C 106.51351,38.11149 117.25126,34 128,34 z m 0,14 c 7.16582,0 14.34516,2.72016 19.8125,8.1875 l -4.96875,4.96875 c -8.20101,-8.20101 -21.48649,-8.20101 -29.6875,0 L 108.1875,56.1875 C 113.65484,50.72016 120.83418,48 128,48 z m 0,14 c 3.58291,0 7.17258,1.36008 9.90625,4.09375 L 128,76 118.09375,66.09375 C 120.82742,63.36008 124.41709,62 128,62 z"/>
  </clipPath>
  <filter id="filter3728" color-interpolation-filters="sRGB">
   <feGaussianBlur stdDeviation="0.76031" id="feGaussianBlur3730"/>
  </filter>
  <linearGradient gradientUnits="userSpaceOnUse" xlink:href="#linearGradient3671-4" id="linearGradient2917" y2="33.928" x2="0" y1="76.61"/>
  <linearGradient id="linearGradient3671-4">
   <stop id="stop3673" stop-color="#474747" stop-opacity="0.784"/>
   <stop offset="1" id="stop3675" stop-color="#474747" stop-opacity="0.392"/>
  </linearGradient>
  <clipPath id="clipPath3699">
   <path id="path3701" d="M 48,34 C 37.251263,34 26.51351,38.11149 18.3125,46.3125 L 23.25,51.25 c 13.66835,-13.66835 35.83165,-13.66835 49.5,0 l 4.9375,-4.9375 C 69.48649,38.11149 58.748737,34 48,34 z m 0,14 c -7.165825,0 -14.34516,2.72016 -19.8125,8.1875 l 4.96875,4.96875 c 8.20101,-8.20101 21.48649,-8.20101 29.6875,0 L 67.8125,56.1875 C 62.34516,50.72016 55.165825,48 48,48 z m 0,14 c -3.582912,0 -7.17258,1.36008 -9.90625,4.09375 L 48,76 57.90625,66.09375 C 55.17258,63.36008 51.582912,62 48,62 z"/>
  </clipPath>
  <filter id="filter3709" color-interpolation-filters="sRGB">
   <feGaussianBlur stdDeviation="0.50688" id="feGaussianBlur3711"/>
  </filter>
  <clipPath id="clipPath3737">
   <path id="path3739" d="m 96.53125,25.65625 c -3.324,0 -6,2.676 -6,6 l 0,45.65625 c 0,3.324 2.676,6 6,6 l 63.1875,0 c 3.324,0 6,-2.676 6,-6 l 0,-45.65625 c 0,-3.324 -2.676,-6 -6,-6 l -63.1875,0 z M 128,34 c 10.74874,0 21.48649,4.11149 29.6875,12.3125 L 152.75,51.25 c -13.66835,-13.66835 -35.83165,-13.66835 -49.5,0 L 98.3125,46.3125 C 106.51351,38.11149 117.25126,34 128,34 z m 0,14 c 7.16582,0 14.34516,2.72016 19.8125,8.1875 l -4.96875,4.96875 c -8.20101,-8.20101 -21.48649,-8.20101 -29.6875,0 L 108.1875,56.1875 C 113.65484,50.72016 120.83418,48 128,48 z m 0,14 c 3.58291,0 7.17258,1.36008 9.90625,4.09375 L 128,76 118.09375,66.09375 C 120.82742,63.36008 124.41709,62 128,62 z"/>
  </clipPath>
  <linearGradient gradientTransform="translate(-100,0)" gradientUnits="userSpaceOnUse" xlink:href="#linearGradient3671-4" id="linearGradient2909" y2="33.928" x2="0" y1="76.61"/>
  <clipPath id="clipPath3749">
   <path id="path3751" d="M 28,34 C 17.251263,34 6.51351,38.11149 -1.6875,46.3125 L 3.25,51.25 c 13.66835,-13.66835 35.83165,-13.66835 49.5,0 l 4.9375,-4.9375 C 49.48649,38.11149 38.748737,34 28,34 z m 0,14 c -7.165825,0 -14.34516,2.72016 -19.8125,8.1875 l 4.96875,4.96875 c 8.20101,-8.20101 21.48649,-8.20101 29.6875,0 L 47.8125,56.1875 C 42.34516,50.72016 35.165825,48 28,48 z m 0,14 c -3.582912,0 -7.17258,1.36008 -9.90625,4.09375 L 28,76 37.90625,66.09375 C 35.17258,63.36008 31.582912,62 28,62 z"/>
  </clipPath>
  <linearGradient gradientTransform="matrix(1.0058652,0,0,0.994169,0,12)" gradientUnits="userSpaceOnUse" xlink:href="#ButtonShadow" id="linearGradient3664-247" y2="5.297" x2="0" y1="80.47"/>
  <linearGradient gradientTransform="matrix(1.0277778,0,0,1.0127315,-1.333333,0.03087963)" gradientUnits="userSpaceOnUse" xlink:href="#ButtonShadow" id="linearGradient3717-181" y2="6.917" x2="0" y1="90.31"/>
  <linearGradient gradientTransform="matrix(1.0277778,0,0,1.0127315,-1.333333,0.03087963)" gradientUnits="userSpaceOnUse" xlink:href="#ButtonShadow" id="linearGradient3709-328" y2="6.917" x2="0" y1="90.31"/>
  <linearGradient gradientTransform="matrix(1.0277778,0,0,1.0127315,-1.333333,0.03087963)" gradientUnits="userSpaceOnUse" xlink:href="#ButtonShadow" id="linearGradient3701-747" y2="6.917" x2="0" y1="90.31"/>
  <linearGradient gradientTransform="matrix(1.0277778,0,0,1.0127315,-1.333333,0.03087963)" gradientUnits="userSpaceOnUse" xlink:href="#ButtonShadow" id="linearGradient3692-482" y2="6.917" x2="0" y1="90.31"/>
  <linearGradient gradientUnits="userSpaceOnUse" xlink:href="#ButtonShadow" id="linearGradient3671-673" y2="6.917" x2="0" y1="90.31"/>
  <linearGradient gradientTransform="matrix(0.72,0,0,0.72,1.92,-5.52)" gradientUnits="userSpaceOnUse" xlink:href="#linearGradient3348" id="linearGradient4023-317" y2="32.01" x2="0" y1="17.736"/>
  <linearGradient gradientUnits="userSpaceOnUse" xlink:href="#linearGradient3874" id="linearGradient4010-413" y2="58.47" x2="0" y1="6"/>
  <linearGradient gradientUnits="userSpaceOnUse" xlink:href="#linearGradient3317" id="linearGradient3361-822" y2="85.82" x2="0" y1="25.911"/>
  <linearGradient gradientTransform="translate(0,12)" gradientUnits="userSpaceOnUse" xlink:href="#linearGradient3187" id="linearGradient3706-153" y2="5.988" x2="0" y1="78"/>
  <linearGradient gradientUnits="userSpaceOnUse" xlink:href="#linearGradient3874" id="linearGradient3188-875" y2="73.995" x2="0" y1="18"/>
  <radialGradient gradientTransform="matrix(1.1573129,0,0,0.99590774,-7.551021,0.1971319)" gradientUnits="userSpaceOnUse" xlink:href="#linearGradient3874" id="radialGradient2874-730" r="42" cy="90.17" cx="48"/>
  <linearGradient gradientUnits="userSpaceOnUse" xlink:href="#linearGradient3874" id="linearGradient3880-885" y2="88.35" x2="0" y1="22.933"/>
  <linearGradient gradientUnits="userSpaceOnUse" xlink:href="#linearGradient3671-4" id="linearGradient2917-955" y2="33.928" x2="0" y1="76.61"/>
  <linearGradient gradientTransform="translate(-100,0)" gradientUnits="userSpaceOnUse" xlink:href="#linearGradient3671-4" id="linearGradient2909-497" y2="33.928" x2="0" y1="76.61"/>
  <linearGradient gradientTransform="matrix(1.0058652,0,0,0.994169,0,12)" gradientUnits="userSpaceOnUse" xlink:href="#ButtonShadow" id="linearGradient3664-247-328" y2="5.297" x2="0" y1="80.47"/>
  <linearGradient gradientTransform="matrix(1.0277778,0,0,1.0127315,-1.333333,0.03087963)" gradientUnits="userSpaceOnUse" xlink:href="#ButtonShadow" id="linearGradient3717-181-274" y2="6.917" x2="0" y1="90.31"/>
  <linearGradient gradientTransform="matrix(1.0277778,0,0,1.0127315,-1.333333,0.03087963)" gradientUnits="userSpaceOnUse" xlink:href="#ButtonShadow" id="linearGradient3709-328-791" y2="6.917" x2="0" y1="90.31"/>
  <linearGradient gradientTransform="matrix(1.0277778,0,0,1.0127315,-1.333333,0.03087963)" gradientUnits="userSpaceOnUse" xlink:href="#ButtonShadow" id="linearGradient3701-747-213" y2="6.917" x2="0" y1="90.31"/>
  <linearGradient gradientTransform="matrix(1.0277778,0,0,1.0127315,-1.333333,0.03087963)" gradientUnits="userSpaceOnUse" xlink:href="#ButtonShadow" id="linearGradient3692-482-862" y2="6.917" x2="0" y1="90.31"/>
  <linearGradient gradientUnits="userSpaceOnUse" xlink:href="#ButtonShadow" id="linearGradient3671-673-315" y2="6.917" x2="0" y1="90.31"/>
  <linearGradient gradientTransform="matrix(0.72,0,0,0.72,1.92,-5.52)" gradientUnits="userSpaceOnUse" xlink:href="#linearGradient3348-56-816" id="linearGradient4023-317-918" y2="32.01" x2="0" y1="17.736"/>
  <linearGradient id="linearGradient3348-56-816">
   <stop id="stop3566" stop-color="#6a6a6a"/>
   <stop offset="0.717" id="stop3568" stop-color="#535353"/>
   <stop offset="1" id="stop3570" stop-color="#424242"/>
  </linearGradient>
  <linearGradient gradientUnits="userSpaceOnUse" xlink:href="#linearGradient3737-177-390" id="linearGradient4010-413-343" y2="58.47" x2="0" y1="6"/>
  <linearGradient id="linearGradient3737-177-390">
   <stop id="stop3574" stop-color="#969696"/>
   <stop offset="1" id="stop3576" stop-color="#969696" stop-opacity="0"/>
  </linearGradient>
  <linearGradient gradientUnits="userSpaceOnUse" xlink:href="#linearGradient3317-45-93" id="linearGradient3361-822-84" y2="85.82" x2="0" y1="25.911"/>
  <linearGradient gradientTransform="scale(1.0598527,0.9435274)" gradientUnits="userSpaceOnUse" id="linearGradient3317-45-93" y2="20.14" x2="0" y1="3.213">
   <stop id="stop3580" stop-color="#4c4c4c"/>
   <stop offset="1" id="stop3582" stop-color="#3b3b3b"/>
  </linearGradient>
  <linearGradient gradientTransform="translate(0,12)" gradientUnits="userSpaceOnUse" xlink:href="#linearGradient3187-415-991" id="linearGradient3706-153-131" y2="5.988" x2="0" y1="78"/>
  <linearGradient id="linearGradient3187-415-991">
   <stop id="stop3586" stop-color="#535353"/>
   <stop offset="1" id="stop3588" stop-color="#636363"/>
  </linearGradient>
  <linearGradient gradientUnits="userSpaceOnUse" xlink:href="#linearGradient3737-177-390" id="linearGradient3188-875-368" y2="73.995" x2="0" y1="18"/>
  <radialGradient gradientTransform="matrix(1.1573129,0,0,0.99590774,-7.551021,0.1971319)" gradientUnits="userSpaceOnUse" xlink:href="#linearGradient3737-177-390" id="radialGradient2874-730-974" r="42" cy="90.17" cx="48"/>
  <linearGradient gradientUnits="userSpaceOnUse" xlink:href="#linearGradient3737-177-390" id="linearGradient3880-885-210" y2="88.35" x2="0" y1="22.933"/>
  <linearGradient gradientUnits="userSpaceOnUse" xlink:href="#linearGradient3671-4-240-212" id="linearGradient2917-955-722" y2="33.928" x2="0" y1="76.61"/>
  <linearGradient id="linearGradient3671-4-240-212">
   <stop id="stop3610" stop-color="#404040" stop-opacity="0.784"/>
   <stop offset="1" id="stop3612" stop-color="#404040" stop-opacity="0.392"/>
  </linearGradient>
  <linearGradient gradientTransform="translate(-100,0)" gradientUnits="userSpaceOnUse" xlink:href="#linearGradient3671-4-240-212" id="linearGradient2909-497-624" y2="33.928" x2="0" y1="76.61"/>
  <linearGradient gradientTransform="matrix(1.0058652,0,0,0.994169,0,12)" gradientUnits="userSpaceOnUse" xlink:href="#ButtonShadow" id="linearGradient3664-247-328-920" y2="5.297" x2="0" y1="80.47"/>
  <linearGradient gradientTransform="matrix(1.0277778,0,0,1.0127315,-1.333333,0.03087963)" gradientUnits="userSpaceOnUse" xlink:href="#ButtonShadow" id="linearGradient3717-181-274-21" y2="6.917" x2="0" y1="90.31"/>
  <linearGradient gradientTransform="matrix(1.0277778,0,0,1.0127315,-1.333333,0.03087963)" gradientUnits="userSpaceOnUse" xlink:href="#ButtonShadow" id="linearGradient3709-328-791-842" y2="6.917" x2="0" y1="90.31"/>
  <linearGradient gradientTransform="matrix(1.0277778,0,0,1.0127315,-1.333333,0.03087963)" gradientUnits="userSpaceOnUse" xlink:href="#ButtonShadow" id="linearGradient3701-747-213-209" y2="6.917" x2="0" y1="90.31"/>
  <linearGradient gradientTransform="matrix(1.0277778,0,0,1.0127315,-1.333333,0.03087963)" gradientUnits="userSpaceOnUse" xlink:href="#ButtonShadow" id="linearGradient3692-482-862-687" y2="6.917" x2="0" y1="90.31"/>
  <linearGradient gradientUnits="userSpaceOnUse" xlink:href="#ButtonShadow" id="linearGradient3671-673-315-557" y2="6.917" x2="0" y1="90.31"/>
  <linearGradient gradientTransform="matrix(0.72,0,0,0.72,1.92,-5.52)" gradientUnits="userSpaceOnUse" xlink:href="#linearGradient3348-56-816-872" id="linearGradient4023-317-918-75" y2="32.01" x2="0" y1="17.736"/>
  <linearGradient id="linearGradient3348-56-816-872">
   <stop id="stop4082" stop-color="#606060"/>
   <stop offset="0.717" id="stop4084" stop-color="#4c4c4c"/>
   <stop offset="1" id="stop4086" stop-color="#3b3b3b"/>
  </linearGradient>
  <linearGradient gradientUnits="userSpaceOnUse" xlink:href="#linearGradient3737-177-390-355" id="linearGradient4010-413-343-407" y2="58.47" x2="0" y1="6"/>
  <linearGradient id="linearGradient3737-177-390-355">
   <stop id="stop4090" stop-color="#888888"/>
   <stop offset="1" id="stop4092" stop-color="#888888" stop-opacity="0"/>
  </linearGradient>
  <linearGradient gradientUnits="userSpaceOnUse" xlink:href="#linearGradient3317-45-93-44" id="linearGradient3361-822-84-579" y2="85.82" x2="0" y1="25.911"/>
  <linearGradient gradientTransform="scale(1.0598527,0.9435274)" gradientUnits="userSpaceOnUse" id="linearGradient3317-45-93-44" y2="20.14" x2="0" y1="3.213">
   <stop id="stop4096" stop-color="#444444"/>
   <stop offset="1" id="stop4098" stop-color="#353535"/>
  </linearGradient>
  <linearGradient gradientTransform="translate(0,12)" gradientUnits="userSpaceOnUse" xlink:href="#linearGradient3187-415-991-619" id="linearGradient3706-153-131-267" y2="5.988" x2="0" y1="78"/>
  <linearGradient id="linearGradient3187-415-991-619">
   <stop id="stop4102" stop-color="#4c4c4c"/>
   <stop offset="1" id="stop4104" stop-color="#595959"/>
  </linearGradient>
  <linearGradient gradientUnits="userSpaceOnUse" xlink:href="#linearGradient3737-177-390-355" id="linearGradient3188-875-368-149" y2="73.995" x2="0" y1="18"/>
  <radialGradient gradientTransform="matrix(1.1573129,0,0,0.99590774,-7.551021,0.1971319)" gradientUnits="userSpaceOnUse" xlink:href="#linearGradient3737-177-390-355" id="radialGradient2874-730-974-233" r="42" cy="90.17" cx="48"/>
  <linearGradient gradientUnits="userSpaceOnUse" xlink:href="#linearGradient3737-177-390-355" id="linearGradient3880-885-210-835" y2="88.35" x2="0" y1="22.933"/>
  <linearGradient gradientUnits="userSpaceOnUse" xlink:href="#linearGradient3671-4-240-212-798" id="linearGradient2917-955-722-838" y2="33.928" x2="0" y1="76.61"/>
  <linearGradient id="linearGradient3671-4-240-212-798">
   <stop id="stop4126" stop-color="#3a3a3a" stop-opacity="0.784"/>
   <stop offset="1" id="stop4128" stop-color="#3a3a3a" stop-opacity="0.392"/>
  </linearGradient>
  <linearGradient gradientTransform="translate(-100,0)" gradientUnits="userSpaceOnUse" xlink:href="#linearGradient3671-4-240-212-798" id="linearGradient2909-497-624-869" y2="33.928" x2="0" y1="76.61"/>
  <linearGradient gradientTransform="matrix(1.0058652,0,0,0.994169,0,12)" gradientUnits="userSpaceOnUse" xlink:href="#ButtonShadow" id="linearGradient3664-247-328-920-711" y2="5.297" x2="0" y1="80.47"/>
  <linearGradient gradientTransform="matrix(1.0277778,0,0,1.0127315,-1.333333,0.03087963)" gradientUnits="userSpaceOnUse" xlink:href="#ButtonShadow" id="linearGradient3717-181-274-21-129" y2="6.917" x2="0" y1="90.31"/>
  <linearGradient gradientTransform="matrix(1.0277778,0,0,1.0127315,-1.333333,0.03087963)" gradientUnits="userSpaceOnUse" xlink:href="#ButtonShadow" id="linearGradient3709-328-791-842-212" y2="6.917" x2="0" y1="90.31"/>
  <linearGradient gradientTransform="matrix(1.0277778,0,0,1.0127315,-1.333333,0.03087963)" gradientUnits="userSpaceOnUse" xlink:href="#ButtonShadow" id="linearGradient3701-747-213-209-389" y2="6.917" x2="0" y1="90.31"/>
  <linearGradient gradientTransform="matrix(1.0277778,0,0,1.0127315,-1.333333,0.03087963)" gradientUnits="userSpaceOnUse" xlink:href="#ButtonShadow" id="linearGradient3692-482-862-687-593" y2="6.917" x2="0" y1="90.31"/>
  <linearGradient gradientUnits="userSpaceOnUse" xlink:href="#ButtonShadow" id="linearGradient3671-673-315-557-678" y2="6.917" x2="0" y1="90.31"/>
  <linearGradient gradientTransform="matrix(0.72,0,0,0.72,1.92,-5.52)" gradientUnits="userSpaceOnUse" xlink:href="#linearGradient3348-56-816-872-869" id="linearGradient4023-317-918-75-828" y2="32.01" x2="0" y1="17.736"/>
  <linearGradient id="linearGradient3348-56-816-872-869">
   <stop id="stop4720" stop-color="#565656"/>
   <stop offset="0.717" id="stop4722" stop-color="#444444"/>
   <stop offset="1" id="stop4724" stop-color="#353535"/>
  </linearGradient>
  <linearGradient gradientUnits="userSpaceOnUse" xlink:href="#linearGradient3737-177-390-355-134" id="linearGradient4010-413-343-407-709" y2="58.47" x2="0" y1="6"/>
  <linearGradient id="linearGradient3737-177-390-355-134">
   <stop id="stop4728" stop-color="#7a7a7a"/>
   <stop offset="1" id="stop4730" stop-color="#7a7a7a" stop-opacity="0"/>
  </linearGradient>
  <linearGradient gradientUnits="userSpaceOnUse" xlink:href="#linearGradient3317-45-93-44-284" id="linearGradient3361-822-84-579-782" y2="85.82" x2="0" y1="25.911"/>
  <linearGradient gradientTransform="scale(1.0598527,0.9435274)" gradientUnits="userSpaceOnUse" id="linearGradient3317-45-93-44-284" y2="20.14" x2="0" y1="3.213">
   <stop id="stop4734" stop-color="#3d3d3d"/>
   <stop offset="1" id="stop4736" stop-color="#303030"/>
  </linearGradient>
  <linearGradient gradientTransform="translate(0,12)" gradientUnits="userSpaceOnUse" xlink:href="#linearGradient3187-415-991-619-111" id="linearGradient3706-153-131-267-682" y2="5.988" x2="0" y1="78"/>
  <linearGradient id="linearGradient3187-415-991-619-111">
   <stop id="stop4740" stop-color="#444444"/>
   <stop offset="1" id="stop4742" stop-color="#505050"/>
  </linearGradient>
  <linearGradient gradientUnits="userSpaceOnUse" xlink:href="#linearGradient3737-177-390-355-134" id="linearGradient3188-875-368-149-654" y2="73.995" x2="0" y1="18"/>
  <radialGradient gradientTransform="matrix(1.1573129,0,0,0.99590774,-7.551021,0.1971319)" gradientUnits="userSpaceOnUse" xlink:href="#linearGradient3737-177-390-355-134" id="radialGradient2874-730-974-233-121" r="42" cy="90.17" cx="48"/>
  <linearGradient gradientUnits="userSpaceOnUse" xlink:href="#linearGradient3737-177-390-355-134" id="linearGradient3880-885-210-835-829" y2="88.35" x2="0" y1="22.933"/>
  <linearGradient gradientUnits="userSpaceOnUse" xlink:href="#linearGradient3671-4-240-212-798-362" id="linearGradient2917-955-722-838-920" y2="33.928" x2="0" y1="76.61"/>
  <linearGradient id="linearGradient3671-4-240-212-798-362">
   <stop id="stop4764" stop-color="#343434" stop-opacity="0.784"/>
   <stop offset="1" id="stop4766" stop-color="#343434" stop-opacity="0.392"/>
  </linearGradient>
  <linearGradient gradientTransform="translate(-100,0)" gradientUnits="userSpaceOnUse" xlink:href="#linearGradient3671-4-240-212-798-362" id="linearGradient2909-497-624-869-41" y2="33.928" x2="0" y1="76.61"/>
  <linearGradient gradientTransform="matrix(1.0058652,0,0,0.994169,0,12)" gradientUnits="userSpaceOnUse" xlink:href="#ButtonShadow" id="linearGradient3664-247-328-920-711-696" y2="5.297" x2="0" y1="80.47"/>
  <linearGradient gradientTransform="matrix(1.0277778,0,0,1.0127315,-1.333333,0.03087963)" gradientUnits="userSpaceOnUse" xlink:href="#ButtonShadow" id="linearGradient3717-181-274-21-129-431" y2="6.917" x2="0" y1="90.31"/>
  <linearGradient gradientTransform="matrix(1.0277778,0,0,1.0127315,-1.333333,0.03087963)" gradientUnits="userSpaceOnUse" xlink:href="#ButtonShadow" id="linearGradient3709-328-791-842-212-301" y2="6.917" x2="0" y1="90.31"/>
  <linearGradient gradientTransform="matrix(1.0277778,0,0,1.0127315,-1.333333,0.03087963)" gradientUnits="userSpaceOnUse" xlink:href="#ButtonShadow" id="linearGradient3701-747-213-209-389-170" y2="6.917" x2="0" y1="90.31"/>
  <linearGradient gradientTransform="matrix(1.0277778,0,0,1.0127315,-1.333333,0.03087963)" gradientUnits="userSpaceOnUse" xlink:href="#ButtonShadow" id="linearGradient3692-482-862-687-593-460" y2="6.917" x2="0" y1="90.31"/>
  <linearGradient gradientUnits="userSpaceOnUse" xlink:href="#ButtonShadow" id="linearGradient3671-673-315-557-678-498" y2="6.917" x2="0" y1="90.31"/>
  <linearGradient gradientTransform="matrix(0.72,0,0,0.72,1.92,-5.52)" gradientUnits="userSpaceOnUse" xlink:href="#linearGradient3348-56-816-872-869-566" id="linearGradient4023-317-918-75-828-125" y2="32.01" x2="0" y1="17.736"/>
  <linearGradient id="linearGradient3348-56-816-872-869-566">
   <stop id="stop5480" stop-color="#4d4d4d"/>
   <stop offset="0.717" id="stop5482" stop-color="#3d3d3d"/>
   <stop offset="1" id="stop5484" stop-color="#303030"/>
  </linearGradient>
  <linearGradient gradientUnits="userSpaceOnUse" xlink:href="#linearGradient3737-177-390-355-134-597" id="linearGradient4010-413-343-407-709-219" y2="58.47" x2="0" y1="6"/>
  <linearGradient id="linearGradient3737-177-390-355-134-597">
   <stop id="stop5488" stop-color="#6e6e6e"/>
   <stop offset="1" id="stop5490" stop-color="#6e6e6e" stop-opacity="0"/>
  </linearGradient>
  <linearGradient gradientUnits="userSpaceOnUse" xlink:href="#linearGradient3317-45-93-44-284-138" id="linearGradient3361-822-84-579-782-803" y2="85.82" x2="0" y1="25.911"/>
  <linearGradient gradientTransform="scale(1.0598527,0.9435274)" gradientUnits="userSpaceOnUse" id="linearGradient3317-45-93-44-284-138" y2="20.14" x2="0" y1="3.213">
   <stop id="stop5494" stop-color="#383838"/>
   <stop offset="1" id="stop5496" stop-color="#2b2b2b"/>
  </linearGradient>
  <linearGradient gradientTransform="translate(0,12)" gradientUnits="userSpaceOnUse" xlink:href="#linearGradient3187-415-991-619-111-535" id="linearGradient3706-153-131-267-682-223" y2="5.988" x2="0" y1="78"/>
  <linearGradient id="linearGradient3187-415-991-619-111-535">
   <stop id="stop5500" stop-color="#3d3d3d"/>
   <stop offset="1" id="stop5502" stop-color="#484848"/>
  </linearGradient>
  <linearGradient gradientUnits="userSpaceOnUse" xlink:href="#linearGradient3737-177-390-355-134-597" id="linearGradient3188-875-368-149-654-619" y2="73.995" x2="0" y1="18"/>
  <radialGradient gradientTransform="matrix(1.1573129,0,0,0.99590774,-7.551021,0.1971319)" gradientUnits="userSpaceOnUse" xlink:href="#linearGradient3737-177-390-355-134-597" id="radialGradient2874-730-974-233-121-447" r="42" cy="90.17" cx="48"/>
  <linearGradient gradientUnits="userSpaceOnUse" xlink:href="#linearGradient3737-177-390-355-134-597" id="linearGradient3880-885-210-835-829-671" y2="88.35" x2="0" y1="22.933"/>
  <linearGradient gradientUnits="userSpaceOnUse" xlink:href="#linearGradient3671-4-240-212-798-362-454" id="linearGradient2917-955-722-838-920-646" y2="33.928" x2="0" y1="76.61"/>
  <linearGradient id="linearGradient3671-4-240-212-798-362-454">
   <stop id="stop5524" stop-color="#2f2f2f" stop-opacity="0.784"/>
   <stop offset="1" id="stop5526" stop-color="#2f2f2f" stop-opacity="0.392"/>
  </linearGradient>
  <linearGradient gradientTransform="translate(-100,0)" gradientUnits="userSpaceOnUse" xlink:href="#linearGradient3671-4-240-212-798-362-454" id="linearGradient2909-497-624-869-41-718" y2="33.928" x2="0" y1="76.61"/>
  <linearGradient gradientTransform="matrix(1.0058652,0,0,0.994169,0,12)" gradientUnits="userSpaceOnUse" xlink:href="#ButtonShadow" id="linearGradient3664-247-328-920-711-696-729" y2="5.297" x2="0" y1="80.47"/>
  <linearGradient gradientTransform="matrix(1.0277778,0,0,1.0127315,-1.333333,0.03087963)" gradientUnits="userSpaceOnUse" xlink:href="#ButtonShadow" id="linearGradient3717-181-274-21-129-431-754" y2="6.917" x2="0" y1="90.31"/>
  <linearGradient gradientTransform="matrix(1.0277778,0,0,1.0127315,-1.333333,0.03087963)" gradientUnits="userSpaceOnUse" xlink:href="#ButtonShadow" id="linearGradient3709-328-791-842-212-301-699" y2="6.917" x2="0" y1="90.31"/>
  <linearGradient gradientTransform="matrix(1.0277778,0,0,1.0127315,-1.333333,0.03087963)" gradientUnits="userSpaceOnUse" xlink:href="#ButtonShadow" id="linearGradient3701-747-213-209-389-170-566" y2="6.917" x2="0" y1="90.31"/>
  <linearGradient gradientTransform="matrix(1.0277778,0,0,1.0127315,-1.333333,0.03087963)" gradientUnits="userSpaceOnUse" xlink:href="#ButtonShadow" id="linearGradient3692-482-862-687-593-460-239" y2="6.917" x2="0" y1="90.31"/>
  <linearGradient gradientUnits="userSpaceOnUse" xlink:href="#ButtonShadow" id="linearGradient3671-673-315-557-678-498-729" y2="6.917" x2="0" y1="90.31"/>
  <linearGradient gradientTransform="matrix(0.72,0,0,0.72,1.92,-5.52)" gradientUnits="userSpaceOnUse" xlink:href="#linearGradient3348-56-816-872-869-566-104" id="linearGradient4023-317-918-75-828-125-428" y2="32.01" x2="0" y1="17.736"/>
  <linearGradient id="linearGradient3348-56-816-872-869-566-104">
   <stop id="stop6362" stop-color="#454545"/>
   <stop offset="0.717" id="stop6364" stop-color="#383838"/>
   <stop offset="1" id="stop6366" stop-color="#2b2b2b"/>
  </linearGradient>
  <linearGradient gradientUnits="userSpaceOnUse" xlink:href="#linearGradient3737-177-390-355-134-597-692" id="linearGradient4010-413-343-407-709-219-111" y2="58.47" x2="0" y1="6"/>
  <linearGradient id="linearGradient3737-177-390-355-134-597-692">
   <stop id="stop6370" stop-color="#636363"/>
   <stop offset="1" id="stop6372" stop-color="#636363" stop-opacity="0"/>
  </linearGradient>
  <linearGradient gradientUnits="userSpaceOnUse" xlink:href="#linearGradient3317-45-93-44-284-138-541" id="linearGradient3361-822-84-579-782-803-781" y2="85.82" x2="0" y1="25.911"/>
  <linearGradient gradientTransform="scale(1.0598527,0.9435274)" gradientUnits="userSpaceOnUse" id="linearGradient3317-45-93-44-284-138-541" y2="20.14" x2="0" y1="3.213">
   <stop id="stop6376" stop-color="#323232"/>
   <stop offset="1" id="stop6378" stop-color="#272727"/>
  </linearGradient>
  <linearGradient gradientTransform="translate(0,12)" gradientUnits="userSpaceOnUse" xlink:href="#linearGradient3187-415-991-619-111-535-46" id="linearGradient3706-153-131-267-682-223-850" y2="5.988" x2="0" y1="78"/>
  <linearGradient id="linearGradient3187-415-991-619-111-535-46">
   <stop id="stop6382" stop-color="#383838"/>
   <stop offset="1" id="stop6384" stop-color="#424242"/>
  </linearGradient>
  <linearGradient gradientUnits="userSpaceOnUse" xlink:href="#linearGradient3737-177-390-355-134-597-692" id="linearGradient3188-875-368-149-654-619-442" y2="73.995" x2="0" y1="18"/>
  <radialGradient gradientTransform="matrix(1.1573129,0,0,0.99590774,-7.551021,0.1971319)" gradientUnits="userSpaceOnUse" xlink:href="#linearGradient3737-177-390-355-134-597-692" id="radialGradient2874-730-974-233-121-447-117" r="42" cy="90.17" cx="48"/>
  <linearGradient gradientUnits="userSpaceOnUse" xlink:href="#linearGradient3737-177-390-355-134-597-692" id="linearGradient3880-885-210-835-829-671-98" y2="88.35" x2="0" y1="22.933"/>
  <linearGradient gradientUnits="userSpaceOnUse" xlink:href="#linearGradient3671-4-240-212-798-362-454-64" id="linearGradient2917-955-722-838-920-646-563" y2="33.928" x2="0" y1="76.61"/>
  <linearGradient id="linearGradient3671-4-240-212-798-362-454-64">
   <stop id="stop6406" stop-color="#2a2a2a" stop-opacity="0.784"/>
   <stop offset="1" id="stop6408" stop-color="#2a2a2a" stop-opacity="0.392"/>
  </linearGradient>
  <linearGradient gradientTransform="translate(-100,0)" gradientUnits="userSpaceOnUse" xlink:href="#linearGradient3671-4-240-212-798-362-454-64" id="linearGradient2909-497-624-869-41-718-735" y2="33.928" x2="0" y1="76.61"/>
  <linearGradient gradientTransform="matrix(1.0058652,0,0,0.994169,0,12)" gradientUnits="userSpaceOnUse" xlink:href="#ButtonShadow-614-754-285-313-582-516-512" id="linearGradient3664-247-328-920-711-696-729-486" y2="5.297" x2="0" y1="80.47"/>
  <linearGradient gradientTransform="matrix(1.0058652,0,0,0.994169,0,12)" gradientUnits="userSpaceOnUse" id="ButtonShadow-614-754-285-313-582-516-512" y2="7.02" x2="0" y1="80.47">
   <stop id="stop3867" stop-color="#0b0b0b"/>
   <stop offset="1" id="stop3869" stop-color="#0b0b0b" stop-opacity="0.588"/>
  </linearGradient>
  <linearGradient gradientTransform="matrix(1.0277778,0,0,1.0127315,-1.333333,0.03087963)" gradientUnits="userSpaceOnUse" xlink:href="#ButtonShadow-614-754-285-313-582-516-512" id="linearGradient3717-181-274-21-129-431-754-16" y2="6.917" x2="0" y1="90.31"/>
  <linearGradient gradientTransform="matrix(1.0277778,0,0,1.0127315,-1.333333,0.03087963)" gradientUnits="userSpaceOnUse" xlink:href="#ButtonShadow-614-754-285-313-582-516-512" id="linearGradient3709-328-791-842-212-301-699-895" y2="6.917" x2="0" y1="90.31"/>
  <linearGradient gradientTransform="matrix(1.0277778,0,0,1.0127315,-1.333333,0.03087963)" gradientUnits="userSpaceOnUse" xlink:href="#ButtonShadow-614-754-285-313-582-516-512" id="linearGradient3701-747-213-209-389-170-566-920" y2="6.917" x2="0" y1="90.31"/>
  <linearGradient gradientTransform="matrix(1.0277778,0,0,1.0127315,-1.333333,0.03087963)" gradientUnits="userSpaceOnUse" xlink:href="#ButtonShadow-614-754-285-313-582-516-512" id="linearGradient3692-482-862-687-593-460-239-800" y2="6.917" x2="0" y1="90.31"/>
  <linearGradient gradientUnits="userSpaceOnUse" xlink:href="#ButtonShadow-614-754-285-313-582-516-512" id="linearGradient3671-673-315-557-678-498-729-39" y2="6.917" x2="0" y1="90.31"/>
  <linearGradient gradientTransform="matrix(0.72,0,0,0.72,1.92,-5.52)" gradientUnits="userSpaceOnUse" xlink:href="#linearGradient3348-56-816-872-869-566-104-633" id="linearGradient4023-317-918-75-828-125-428-741" y2="32.01" x2="0" y1="17.736"/>
  <linearGradient id="linearGradient3348-56-816-872-869-566-104-633">
   <stop id="stop3903" stop-color="#4d4d4d"/>
   <stop offset="0.717" id="stop3905" stop-color="#3e3e3e"/>
   <stop offset="1" id="stop3907" stop-color="#303030"/>
  </linearGradient>
  <linearGradient gradientUnits="userSpaceOnUse" xlink:href="#linearGradient3737-177-390-355-134-597" id="linearGradient4010-413-343-407-709-219-111-204" y2="58.47" x2="0" y1="6"/>
  <linearGradient gradientUnits="userSpaceOnUse" xlink:href="#linearGradient3317-45-93-44-284-138" id="linearGradient3361-822-84-579-782-803-781-730" y2="85.82" x2="0" y1="25.911"/>
  <linearGradient gradientTransform="translate(0,12)" gradientUnits="userSpaceOnUse" xlink:href="#linearGradient3187-415-991-619-111-535-46-836" id="linearGradient3706-153-131-267-682-223-850-657" y2="5.988" x2="0" y1="78"/>
  <linearGradient id="linearGradient3187-415-991-619-111-535-46-836">
   <stop id="stop3923" stop-color="#3e3e3e"/>
   <stop offset="1" id="stop3925" stop-color="#494949"/>
  </linearGradient>
  <linearGradient gradientUnits="userSpaceOnUse" xlink:href="#linearGradient3737-177-390-355-134-597" id="linearGradient3188-875-368-149-654-619-442-748" y2="73.995" x2="0" y1="18"/>
  <radialGradient gradientTransform="matrix(1.1573129,0,0,0.99590774,-7.551021,0.1971319)" gradientUnits="userSpaceOnUse" xlink:href="#linearGradient3737-177-390-355-134-597" id="radialGradient2874-730-974-233-121-447-117-698" r="42" cy="90.17" cx="48"/>
  <linearGradient gradientUnits="userSpaceOnUse" xlink:href="#linearGradient3737-177-390-355-134-597" id="linearGradient3880-885-210-835-829-671-98-771" y2="88.35" x2="0" y1="22.933"/>
  <linearGradient gradientUnits="userSpaceOnUse" xlink:href="#linearGradient3671-4-240-212-798-362-454" id="linearGradient2917-955-722-838-920-646-563-69" y2="33.928" x2="0" y1="76.61"/>
  <linearGradient gradientTransform="translate(-100,0)" gradientUnits="userSpaceOnUse" xlink:href="#linearGradient3671-4-240-212-798-362-454" id="linearGradient2909-497-624-869-41-718-735-570" y2="33.928" x2="0" y1="76.61"/>
 </defs>
 <metadata id="metadata2413"/>
 <g id="layer4" fill="#666666">
  <path id="path3715" transform="matrix(0.99728997,0,0,0.99862826,0.1300813,0.00548697)" d="M 13.96875,4 C 10.667823,4 7.875,6.6931198 7.875,10.03125 l 0,7.0625 c -3.4360632,1.560695 -6,4.840711 -6,8.90625 l 0,59 c 0,5.561299 4.5637001,10.125 10.125,10.125 l 72,0 c 5.561299,0 10.125,-4.563701 10.125,-10.125 l 0,-59 c 0,-4.090756 -2.593768,-7.389362 -6.0625,-8.9375 -0.160383,-3.993445 -3.473555,-7.21875 -7.5,-7.21875 l -42.5,0 L 37.4375,8.625 C 37.135051,8.028958 36.735432,7.0401877 35.9375,6.0625 35.034313,4.9558457 33.554045,4 31.71875,4 l -17.75,0 z" opacity="0.08"/>
  <path id="path3707" transform="matrix(0.99653979,0,0,0.99789769,0.16608997,0.04169587)" d="m 13.96875,4.96875 c -2.783187,0 -5.125,2.2572798 -5.125,5.0625 l 0,7.3125 0,0.3125 c -3.4368535,1.290325 -6,4.439736 -6,8.34375 l 0,59 c 0,5.039918 4.1163315,9.15625 9.15625,9.15625 l 72,0 c 5.039918,0 9.15625,-4.116332 9.15625,-9.15625 l 0,-59 c 0,-3.904014 -2.563147,-7.053425 -6,-8.34375 l 0,-0.3125 c 0,-3.602656 -2.985437,-6.53125 -6.59375,-6.53125 l -43.09375,0 -0.875,-1.75 C 36.26366,8.4119848 35.884179,7.5098749 35.1875,6.65625 34.437476,5.737263 33.22926,4.96875 31.71875,4.96875 l -17.75,0 z" opacity="0.1"/>
  <path id="path3698" transform="matrix(0.99716714,0,0,0.99856528,0.13597734,0.00860832)" d="M 13.96875,6 C 11.736726,6 9.875,7.7965069 9.875,10.03125 l 0,7.3125 0,0.96875 c -3.4279042,0.950944 -6,3.959493 -6,7.6875 l 0,59 c 0,4.483833 3.6411665,8.125 8.125,8.125 l 72,0 c 4.483833,0 8.125,-3.641167 8.125,-8.125 l 0,-59 c 0,-3.728007 -2.572096,-6.736556 -6,-7.6875 l 0,-0.96875 c 0,-3.037808 -2.505776,-5.5 -5.5625,-5.5 l -43.71875,0 -1.15625,-2.3125 C 35.33448,8.8355471 34.9882,8.0255499 34.40625,7.3125 33.8243,6.5994501 32.873904,6 31.71875,6 l -17.75,0 z" opacity="0.2"/>
  <path id="path3679" inkscape:connector-curvature="0" d="M 13.96875,7.125 C 12.32891,7.125 11,8.4154163 11,10.03125 l 0,7.3125 0,1.75 C 7.602692,19.579354 5,22.464233 5,26 l 0,59 c 0,3.878 3.122,7 7,7 l 72,0 c 3.878,0 7,-3.122 7,-7 l 0,-59 c 0,-3.535767 -2.602692,-6.420646 -6,-6.90625 l 0,-1.75 c 0,-2.42375 -1.97774,-4.375 -4.4375,-4.375 l -44.40625,0 -1.46875,-2.9375 C 33.954141,8.5860044 33.35859,7.125 31.71875,7.125 l -17.75,0 z" opacity="0.3"/>
  <path id="path2885" inkscape:connector-curvature="0" d="M 14.875,7 C 13.27948,7 12,8.27948 12,9.875 L 12,17.09375 12,19 c -3.324,0 -6,2.676 -6,6 l 0,60 c 0,3.324 2.676,6 6,6 l 72,0 c 3.324,0 6,-2.676 6,-6 l 0,-60 c 0,-3.324 -2.676,-6 -6,-6 l 0,-1.90625 C 84,14.70047 82.08078,12.75 79.6875,12.75 l -43.21875,0 -1.4375,-2.875 C 34.317712,8.4479235 33.75177,7 32.15625,7 L 14.875,7 z" opacity="0.45"/>
 </g>
 <g id="layer3">
  <path id="rect3325" inkscape:connector-curvature="0" d="M 14.88,6 C 13.28448,6 12,7.28448 12,8.88 l 0,7.2 0,50.4 0,4.32 c 0,2.39328 1.92672,4.32 4.32,4.32 l 63.36,0 c 2.39328,0 4.32,-1.92672 4.32,-4.32 l 0,-54.72 c 0,-2.39328 -1.92672,-4.32 -4.32,-4.32 l -43.2,0 -1.44,-2.88 C 34.326462,7.4529235 33.75552,6 32.16,6 L 14.88,6 z" fill="url(#linearGradient4023-317-918-75-828-125-428-741)"/>
  <path id="path3997" inkscape:connector-curvature="0" d="M 14.875,6 C 13.27948,6 12,7.27948 12,8.875 l 0,7.21875 0,50.375 0,4.34375 c 0,2.393277 1.91922,4.3125 4.3125,4.3125 l 63.375,0 C 82.08078,75.124997 84,73.20578 84,70.8125 L 84,16.09375 C 84,13.70047 82.08078,11.75 79.6875,11.75 l -43.21875,0 -1.4375,-2.875 C 34.317711,7.4479234 33.75177,6 32.15625,6 L 14.875,6 z m 0,1.9375 17.28125,0 c 0.48716,0 0.660447,0.1126732 0.96875,0.5 0.308303,0.3873268 0.629671,1.0718434 1,1.8125 l 1.4375,2.875 c 0.173379,0.341986 0.522842,0.558894 0.90625,0.5625 l 43.21875,0 c 1.835408,0 3.28125,1.468154 3.28125,3.3125 l 0,54.71875 c 0,1.844346 -1.436902,3.281248 -3.28125,3.28125 l -63.375,0 c -1.844346,0 -3.28125,-1.436907 -3.28125,-3.28125 l 0,-4.34375 0,-50.375 0,-7.21875 c 0,-1.0465864 0.797164,-1.84375 1.84375,-1.84375 z" opacity="0.3" fill="url(#linearGradient4010-413-343-407-709-219-111-204)"/>
  <rect id="rect3352" y="23.14" x="10.536" rx="6" height="62.68" width="75" fill="url(#linearGradient3361-822-84-579-782-803-781-730)"/>
 </g>
 <g id="layer1">
  <rect id="rect2419" y="18" x="6" rx="6" height="72" width="84" fill="url(#linearGradient3706-153-131-267-682-223-850-657)"/>
  <path id="rect3728" inkscape:connector-curvature="0" d="m 12,18 c -3.324,0 -6,2.676 -6,6 l 0,2 0,56 0,2 c 0,0.334721 0.04135,0.6507 0.09375,0.96875 0.0487,0.295596 0.09704,0.596915 0.1875,0.875 0.00988,0.03038 0.020892,0.0636 0.03125,0.09375 0.098865,0.287771 0.2348802,0.547452 0.375,0.8125 0.1445918,0.273507 0.3156161,0.535615 0.5,0.78125 0.1843839,0.245635 0.3737765,0.473472 0.59375,0.6875 0.439947,0.428056 0.94291,0.814526 1.5,1.09375 0.278545,0.139612 0.5734731,0.246947 0.875,0.34375 -0.2562018,-0.100222 -0.4867109,-0.236272 -0.71875,-0.375 -0.00741,-0.0044 -0.023866,0.0045 -0.03125,0 -0.031933,-0.0193 -0.062293,-0.04251 -0.09375,-0.0625 -0.120395,-0.0767 -0.2310226,-0.163513 -0.34375,-0.25 -0.1061728,-0.0808 -0.2132809,-0.161112 -0.3125,-0.25 C 8.4783201,88.557317 8.3087904,88.373362 8.15625,88.1875 8.0486711,88.057245 7.9378561,87.922215 7.84375,87.78125 7.818661,87.74287 7.805304,87.69538 7.78125,87.65625 7.716487,87.553218 7.6510225,87.451733 7.59375,87.34375 7.4927417,87.149044 7.3880752,86.928049 7.3125,86.71875 7.30454,86.69694 7.288911,86.6782 7.28125,86.65625 7.2494249,86.5643 7.2454455,86.469419 7.21875,86.375 7.1884177,86.268382 7.1483606,86.171969 7.125,86.0625 7.0521214,85.720988 7,85.364295 7,85 L 7,83 7,27 7,25 c 0,-2.781848 2.2181517,-5 5,-5 l 2,0 68,0 2,0 c 2.781848,0 5,2.218152 5,5 l 0,2 0,56 0,2 c 0,0.364295 -0.05212,0.720988 -0.125,1.0625 -0.04415,0.206893 -0.08838,0.397658 -0.15625,0.59375 -0.0077,0.02195 -0.0233,0.04069 -0.03125,0.0625 -0.06274,0.173739 -0.138383,0.367449 -0.21875,0.53125 -0.04158,0.0828 -0.07904,0.169954 -0.125,0.25 -0.0546,0.09721 -0.126774,0.18835 -0.1875,0.28125 -0.09411,0.140965 -0.204921,0.275995 -0.3125,0.40625 -0.143174,0.17445 -0.303141,0.346998 -0.46875,0.5 -0.01117,0.0102 -0.01998,0.02115 -0.03125,0.03125 -0.138386,0.125556 -0.285091,0.234436 -0.4375,0.34375 -0.102571,0.07315 -0.204318,0.153364 -0.3125,0.21875 -0.0074,0.0045 -0.02384,-0.0044 -0.03125,0 -0.232039,0.138728 -0.462548,0.274778 -0.71875,0.375 0.301527,-0.0968 0.596455,-0.204138 0.875,-0.34375 0.55709,-0.279224 1.060053,-0.665694 1.5,-1.09375 0.219973,-0.214028 0.409366,-0.441865 0.59375,-0.6875 0.184384,-0.245635 0.355408,-0.507743 0.5,-0.78125 0.14012,-0.265048 0.276135,-0.524729 0.375,-0.8125 0.01041,-0.03078 0.02133,-0.06274 0.03125,-0.09375 0.09046,-0.278085 0.1388,-0.579404 0.1875,-0.875 C 89.95865,84.6507 90,84.334721 90,84 l 0,-2 0,-56 0,-2 c 0,-3.324 -2.676,-6 -6,-6 l -72,0 z" opacity="0.5" fill="url(#linearGradient3188-875-368-149-654-619-442-748)"/>
  <path id="path3615" inkscape:connector-curvature="0" d="M 12,90 C 8.676,90 6,87.324 6,84 L 6,82 6,26 6,24 c 0,-0.334721 0.04135,-0.6507 0.09375,-0.96875 0.0487,-0.295596 0.09704,-0.596915 0.1875,-0.875 0.00988,-0.03038 0.020892,-0.0636 0.03125,-0.09375 0.098865,-0.287771 0.2348802,-0.547452 0.375,-0.8125 0.1445918,-0.273507 0.3156161,-0.535615 0.5,-0.78125 0.1843839,-0.245635 0.3737765,-0.473472 0.59375,-0.6875 0.439947,-0.428056 0.94291,-0.814526 1.5,-1.09375 0.278545,-0.139612 0.5734731,-0.246947 0.875,-0.34375 -0.2562018,0.100222 -0.4867109,0.236272 -0.71875,0.375 -0.00741,0.0044 -0.023866,-0.0045 -0.03125,0 -0.031933,0.0193 -0.062293,0.04251 -0.09375,0.0625 -0.120395,0.0767 -0.2310226,0.163513 -0.34375,0.25 -0.1061728,0.0808 -0.2132809,0.161112 -0.3125,0.25 -0.1779299,0.161433 -0.3474596,0.345388 -0.5,0.53125 -0.1075789,0.130255 -0.2183939,0.265285 -0.3125,0.40625 -0.025089,0.03838 -0.038446,0.08587 -0.0625,0.125 -0.064763,0.103032 -0.1302275,0.204517 -0.1875,0.3125 -0.1010083,0.194706 -0.2056748,0.415701 -0.28125,0.625 C 7.30454,21.30306 7.288911,21.3218 7.28125,21.34375 7.2494249,21.4357 7.2454455,21.530581 7.21875,21.625 7.1884177,21.731618 7.1483606,21.828031 7.125,21.9375 7.0521214,22.279012 7,22.635705 7,23 l 0,2 0,56 0,2 c 0,2.781848 2.2181517,5 5,5 l 2,0 68,0 2,0 c 2.781848,0 5,-2.218152 5,-5 l 0,-2 0,-56 0,-2 c 0,-0.364295 -0.05212,-0.720988 -0.125,-1.0625 -0.04415,-0.206893 -0.08838,-0.397658 -0.15625,-0.59375 -0.0077,-0.02195 -0.0233,-0.04069 -0.03125,-0.0625 -0.06274,-0.173739 -0.138383,-0.367449 -0.21875,-0.53125 -0.04158,-0.0828 -0.07904,-0.169954 -0.125,-0.25 -0.0546,-0.09721 -0.126774,-0.18835 -0.1875,-0.28125 -0.09411,-0.140965 -0.204921,-0.275995 -0.3125,-0.40625 -0.143174,-0.17445 -0.303141,-0.346998 -0.46875,-0.5 -0.01117,-0.0102 -0.01998,-0.02115 -0.03125,-0.03125 -0.138386,-0.125556 -0.285091,-0.234436 -0.4375,-0.34375 -0.102571,-0.07315 -0.204318,-0.153364 -0.3125,-0.21875 -0.0074,-0.0045 -0.02384,0.0044 -0.03125,0 -0.232039,-0.138728 -0.462548,-0.274778 -0.71875,-0.375 0.301527,0.0968 0.596455,0.204138 0.875,0.34375 0.55709,0.279224 1.060053,0.665694 1.5,1.09375 0.219973,0.214028 0.409366,0.441865 0.59375,0.6875 0.184384,0.245635 0.355408,0.507743 0.5,0.78125 0.14012,0.265048 0.276135,0.524729 0.375,0.8125 0.01041,0.03078 0.02133,0.06274 0.03125,0.09375 0.09046,0.278085 0.1388,0.579404 0.1875,0.875 C 89.95865,23.3493 90,23.665279 90,24 l 0,2 0,56 0,2 c 0,3.324 -2.676,6 -6,6 l -72,0 z" opacity="0.2" fill="url(#radialGradient2874-730-974-233-121-447-117-698)"/>
 </g>
 <g id="layer5">
  <path id="path3850" clip-path="url(#clipPath3860)" d="m 15.96875,22.53125 a 5.4456496,5.4456496 0 0 0 -5.4375,5.4375 l 0,52.0625 a 5.4456496,5.4456496 0 0 0 5.4375,5.4375 l 64.0625,0 a 5.4456496,5.4456496 0 0 0 5.4375,-5.4375 l 0,-52.0625 a 5.4456496,5.4456496 0 0 0 -5.4375,-5.4375 l -64.0625,0 z" opacity="0.15" fill="url(#linearGradient3880-885-210-835-829-671-98-771)" filter="url(#filter3870)"/>
 </g>
 <g id="layer6">
  <path id="path3713" clip-path="url(#clipPath3724)" transform="translate(-80,0)" inkscape:connector-curvature="0" d="m 128,34.5 c -10.74874,0 -21.48649,4.11149 -29.6875,12.3125 L 103.25,51.75 c 13.66835,-13.66835 35.83165,-13.66835 49.5,0 l 4.9375,-4.9375 C 149.48649,38.61149 138.74874,34.5 128,34.5 z m 0,14 c -7.16582,0 -14.34516,2.72016 -19.8125,8.1875 l 4.96875,4.96875 c 8.20101,-8.20101 21.48649,-8.20101 29.6875,0 L 147.8125,56.6875 C 142.34516,51.22016 135.16582,48.5 128,48.5 z m 0,14 c -3.58291,0 -7.17258,1.36008 -9.90625,4.09375 L 128,76.5 137.90625,66.59375 C 135.17258,63.86008 131.58291,62.5 128,62.5 z" opacity="0.3" fill="none" filter="url(#filter3728)" stroke="#a7a7a7" stroke-width="1.5"/>
  <path id="path3717" inkscape:connector-curvature="0" d="M 48,34 C 37.25126,34 26.51351,38.11149 18.3125,46.3125 L 23.25,51.25 c 13.66835,-13.66835 35.83165,-13.66835 49.5,0 l 4.9375,-4.9375 C 69.48649,38.11149 58.74874,34 48,34 z m 0,14 c -7.16583,0 -14.34516,2.72016 -19.8125,8.1875 l 4.96875,4.96875 c 8.20101,-8.20101 21.48649,-8.20101 29.6875,0 L 67.8125,56.1875 C 62.34516,50.72016 55.16582,48 48,48 z m 0,14 c -3.58291,0 -7.17258,1.36008 -9.90625,4.09375 L 48,76 57.90625,66.09375 C 55.17258,63.36008 51.58291,62 48,62 z" opacity="0.9" fill="url(#linearGradient2917-955-722-838-920-646-563-69)"/>
  <path id="path2919" clip-path="url(#clipPath3699)" inkscape:connector-curvature="0" d="m 48,34.5 c -10.748737,0 -21.48649,4.11149 -29.6875,12.3125 L 23.25,51.75 c 13.66835,-13.66835 35.83165,-13.66835 49.5,0 l 4.9375,-4.9375 C 69.48649,38.61149 58.748737,34.5 48,34.5 z m 0,14 c -7.165825,0 -14.34516,2.72016 -19.8125,8.1875 l 4.96875,4.96875 c 8.20101,-8.20101 21.48649,-8.20101 29.6875,0 L 67.8125,56.6875 C 62.34516,51.22016 55.165825,48.5 48,48.5 z m 0,14 c -3.582912,0 -7.17258,1.36008 -9.90625,4.09375 L 48,76.5 57.90625,66.59375 C 55.17258,63.86008 51.582912,62.5 48,62.5 z" opacity="0.35" fill="none" filter="url(#filter3709)" stroke="#1c1c1c"/>
  <path id="path2903" clip-path="url(#clipPath3737)" transform="translate(-180,0)" inkscape:connector-curvature="0" d="m 128,34 c -10.74874,0 -21.48649,4.11149 -29.6875,12.3125 L 103.25,51.25 c 13.66835,-13.66835 35.83165,-13.66835 49.5,0 l 4.9375,-4.9375 C 149.48649,38.11149 138.74874,34 128,34 z m 0,14 c -7.16582,0 -14.34516,2.72016 -19.8125,8.1875 l 4.96875,4.96875 c 8.20101,-8.20101 21.48649,-8.20101 29.6875,0 L 147.8125,56.1875 C 142.34516,50.72016 135.16582,48 128,48 z m 0,14 c -3.58291,0 -7.17258,1.36008 -9.90625,4.09375 L 128,76 137.90625,66.09375 C 135.17258,63.36008 131.58291,62 128,62 z" opacity="0.2" fill="none" filter="url(#filter3728)" stroke="#a7a7a7" stroke-width="2"/>
  <path id="path2905" inkscape:connector-curvature="0" d="m -52,34 c -10.748737,0 -21.48649,4.11149 -29.6875,12.3125 L -76.75,51.25 c 13.66835,-13.66835 35.83165,-13.66835 49.5,0 l 4.9375,-4.9375 C -30.51351,38.11149 -41.251263,34 -52,34 z m 0,14 c -7.165825,0 -14.34516,2.72016 -19.8125,8.1875 l 4.96875,4.96875 c 8.20101,-8.20101 21.48649,-8.20101 29.6875,0 L -32.1875,56.1875 C -37.65484,50.72016 -44.834175,48 -52,48 z m 0,14 c -3.582912,0 -7.17258,1.36008 -9.90625,4.09375 L -52,76 -42.09375,66.09375 C -44.82742,63.36008 -48.417088,62 -52,62 z" opacity="0.9" fill="url(#linearGradient2909-497-624-869-41-718-735-570)"/>
  <path id="path2907" clip-path="url(#clipPath3749)" transform="translate(-80,0)" inkscape:connector-curvature="0" d="M 28,34 C 17.251263,34 6.51351,38.11149 -1.6875,46.3125 L 3.25,51.25 c 13.66835,-13.66835 35.83165,-13.66835 49.5,0 l 4.9375,-4.9375 C 49.48649,38.11149 38.748737,34 28,34 z m 0,14 c -7.165825,0 -14.34516,2.72016 -19.8125,8.1875 l 4.96875,4.96875 c 8.20101,-8.20101 21.48649,-8.20101 29.6875,0 L 47.8125,56.1875 C 42.34516,50.72016 35.165825,48 28,48 z m 0,14 c -3.582912,0 -7.17258,1.36008 -9.90625,4.09375 L 28,76 37.90625,66.09375 C 35.17258,63.36008 31.582912,62 28,62 z" opacity="0.3" fill="none" filter="url(#filter3709)" stroke="#1c1c1c" stroke-width="2"/>
 </g>
</svg>
