<?xml version='1.0' encoding='UTF-8' standalone='no'?>
<svg height="16" xmlns:inkscape="http://www.inkscape.org/namespaces/inkscape" xmlns:sodipodi="http://sodipodi.sourceforge.net/DTD/sodipodi-0.dtd" version="1.1" width="16" xmlns="http://www.w3.org/2000/svg">
 <metadata id="metadata90"/>
 <g inkscape:groupmode="layer" id="layer13" inkscape:label="places" transform="translate(-561,-195.00012)">
  <rect height="1" id="rect12037" width="1" x="564" y="204" fill="#bebebe" fill-rule="evenodd" color="#000000"/>
  <rect height="1" id="rect12039" width="1" x="563" y="205" fill="#bebebe" fill-rule="evenodd" color="#000000"/>
  <rect height="1" id="rect12041" width="1" x="564" y="206" fill="#bebebe" fill-rule="evenodd" color="#000000"/>
  <rect height="1" id="rect12043" width="1" x="563" y="207" fill="#bebebe" fill-rule="evenodd" color="#000000"/>
  <rect height="1" id="rect12045" width="1" x="564" y="208" fill="#bebebe" fill-rule="evenodd" color="#000000"/>
  <rect height="1" id="rect12047" width="1" x="563" y="209" fill="#bebebe" fill-rule="evenodd" color="#000000"/>
  <rect height="1" id="rect12051" width="1" x="565" y="209" fill="#bebebe" fill-rule="evenodd" color="#000000"/>
  <rect height="1" id="rect12055" width="1" x="567" y="209" fill="#bebebe" fill-rule="evenodd" color="#000000"/>
  <rect height="1" id="rect12059" width="1" x="569" y="209" fill="#bebebe" fill-rule="evenodd" color="#000000"/>
  <rect height="1" id="rect12063" width="1" x="571" y="209" fill="#bebebe" fill-rule="evenodd" color="#000000"/>
  <path inkscape:connector-curvature="0" d="m 563.8127,196 c -0.4584,0.0875 -0.82072,0.5334 -0.8125,1 l 0,8 2,0 0,-7 5,0 0,3 3,0 0,7.99746 2,0 0,-8.43496 c 0.006,-0.26406 -0.0976,-0.52897 -0.28125,-0.71875 l -3.5625,-3.5625 C 570.96667,196.09754 570.70176,195.99388 570.4377,196 l -6.4375,0 c -0.0312,-0.001 -0.0625,-0.001 -0.0937,0 -0.0312,-0.001 -0.0625,-0.001 -0.0937,0 z" id="path1234-5" sodipodi:nodetypes="cccccccccccccccccc" color="#000000" stroke-width="2" fill="#bebebe"/>
  <rect height="1" id="rect12326" width="1" x="564" y="210" fill="#bebebe" fill-rule="evenodd" color="#000000"/>
  <rect height="1" id="rect12328" width="1" x="566" y="210" fill="#bebebe" fill-rule="evenodd" color="#000000"/>
  <rect height="1" id="rect12330" width="1" x="568" y="210" fill="#bebebe" fill-rule="evenodd" color="#000000"/>
  <rect height="1" id="rect12332" width="1" x="570" y="210" fill="#bebebe" fill-rule="evenodd" color="#000000"/>
  <rect height="1" id="rect12334" width="1" x="572" y="210" fill="#bebebe" fill-rule="evenodd" color="#000000"/>
  <rect height="1.188" id="rect12336" width="1" x="573" y="208.81" fill="#bebebe" fill-rule="evenodd" color="#000000"/>
 </g>
</svg>
