<?xml version="1.0" encoding="UTF-8" standalone="no"?>
<svg xmlns="http://www.w3.org/2000/svg" xmlns:xlink="http://www.w3.org/1999/xlink" xmlns:sodipodi="http://sodipodi.sourceforge.net/DTD/sodipodi-0.dtd" xmlns:inkscape="http://www.inkscape.org/namespaces/inkscape" version="1.1" height="16" width="16">
 <metadata id="metadata90"/>
 <defs id="defs7386">
  <radialGradient inkscape:collect="always" xlink:href="#StandardGradient" id="radialGradient3831" cx="9" cy="10.333" r="7" gradientTransform="matrix(1.5714286,0,0,0.99999996,-5.1428571,-0.33333287)" gradientUnits="userSpaceOnUse"/>
  <linearGradient id="StandardGradient" gradientTransform="scale(0.9219544,1.0846523)" y1="0.922" x2="0" y2="19.387" gradientUnits="userSpaceOnUse">
   <stop id="stop3283" stop-opacity="0.235"/>
   <stop id="stop3846" offset="0.7" stop-opacity="0.392"/>
   <stop offset="1" id="stop2651" stop-opacity="0.549"/>
  </linearGradient>
 </defs>
 <g transform="translate(-482,-176)" inkscape:groupmode="layer" id="layer13" inkscape:label="places">
  <path d="M 4 1 C 1.79086 1 0 2.79086 0 5 C 0 6.4792092 0.8062088 7.7454151 2 8.4375 L 2 9 L 1.5 9 C 1.223 9 1 9.223 1 9.5 L 1 10.5 C 1 10.777 1.223 11 1.5 11 L 2 11 L 2 14 C 2 14.554 2.446 15 3 15 L 12 15 C 12.554 15 13 14.554 13 14 L 13 11.84375 L 15.5625 13.75 A 0.26892414 0.26892414 0 0 0 15.625 13.78125 A 0.26892414 0.26892414 0 0 0 15.78125 13.78125 A 0.26892414 0.26892414 0 0 0 16 13.53125 L 16 7.46875 A 0.26892414 0.26892414 0 0 0 16 7.40625 A 0.26892414 0.26892414 0 0 0 15.9375 7.3125 A 0.26892414 0.26892414 0 0 0 15.875 7.25 A 0.26892414 0.26892414 0 0 0 15.6875 7.1875 A 0.26892414 0.26892414 0 0 0 15.5625 7.25 L 13 9.15625 L 13 8 C 13 7.8968039 12.966266 7.8122666 12.9375 7.71875 C 13.59652 7.0056546 14 6.0475508 14 5 C 14 2.79086 12.20914 1 10 1 C 8.806367 1 7.7328956 1.5146101 7 2.34375 C 6.2671044 1.5146101 5.193633 1 4 1 z M 4 3.4375 C 4.86927 3.4375 5.5625 4.13073 5.5625 5 C 5.5625 5.86927 4.86927 6.5625 4 6.5625 C 3.13073 6.5625 2.4375 5.86927 2.4375 5 C 2.4375 4.13073 3.13073 3.4375 4 3.4375 z M 10 3.4375 C 10.86927 3.4375 11.5625 4.13073 11.5625 5 C 11.5625 5.86927 10.86927 6.5625 10 6.5625 C 9.13073 6.5625 8.4375 5.86927 8.4375 5 C 8.4375 4.13073 9.13073 3.4375 10 3.4375 z " transform="translate(482,176)" id="rect3057" fill="#bebebe" color="#000000"/>
 </g>
</svg>
