<?xml version='1.0' encoding='UTF-8' standalone='no'?>
<svg height="16" xmlns:inkscape="http://www.inkscape.org/namespaces/inkscape" xmlns:sodipodi="http://sodipodi.sourceforge.net/DTD/sodipodi-0.dtd" version="1.1" width="16" xmlns="http://www.w3.org/2000/svg">
 <metadata id="metadata90"/>
 <g inkscape:groupmode="layer" id="layer13" inkscape:label="places" transform="translate(-581.0002,-196)">
  <path sodipodi:cx="289.03125" sodipodi:cy="178.03125" d="m 291,178.03125 a 1.96875,1.96875 0 1 1 -3.9375,0 1.96875,1.96875 0 1 1 3.9375,0 z" id="path8192" sodipodi:rx="1.96875" sodipodi:ry="1.96875" transform="matrix(1.5079365,0,0,1.5079365,148.15963,-64.49107)" sodipodi:type="arc" fill="#bebebe" color="#000000"/>
  <path sodipodi:cx="289.03125" sodipodi:cy="178.03125" d="m 291,178.03125 a 1.96875,1.96875 0 1 1 -3.9375,0 1.96875,1.96875 0 1 1 3.9375,0 z" id="path8194" sodipodi:rx="1.96875" sodipodi:ry="1.96875" transform="matrix(1.5079365,0,0,1.5079365,158.12818,-59.49107)" sodipodi:type="arc" fill="#bebebe" color="#000000"/>
  <path sodipodi:cx="289.03125" sodipodi:cy="178.03125" d="m 291,178.03125 a 1.96875,1.96875 0 1 1 -3.9375,0 1.96875,1.96875 0 1 1 3.9375,0 z" id="path8196" sodipodi:rx="1.96875" sodipodi:ry="1.96875" transform="matrix(1.5079365,0,0,1.5079365,158.12818,-69.49107)" sodipodi:type="arc" fill="#bebebe" color="#000000"/>
  <path inkscape:connector-curvature="0" d="m 593.625,198.15625 -10.0625,4.875 -1.8125,0.90625 1.8125,0.90625 10.03125,5.0625 0.90625,-1.8125 -8.21875,-4.15625 8.21875,-4 -0.875,-1.78125 z" id="path8198" color="#000000" stroke-width="2" fill="#bebebe"/>
 </g>
</svg>
