<?xml version="1.0" encoding="UTF-8" standalone="no"?>
<svg xmlns="http://www.w3.org/2000/svg" xmlns:xlink="http://www.w3.org/1999/xlink" xmlns:sodipodi="http://sodipodi.sourceforge.net/DTD/sodipodi-0.dtd" xmlns:inkscape="http://www.inkscape.org/namespaces/inkscape" width="16" height="16" version="1.0">
 <defs id="defs4">
  <linearGradient id="linearGradient3722">
   <stop id="stop3724" stop-color="#aaaaaa"/>
   <stop id="stop3726" offset="1" stop-color="#f0f0f0"/>
  </linearGradient>
  <linearGradient id="linearGradient3295">
   <stop id="stop3297" stop-color="#559829"/>
   <stop offset="1" id="stop3299" stop-color="#86c837"/>
  </linearGradient>
  <linearGradient id="linearGradient3287">
   <stop id="stop3289" stop-color="#cd0000"/>
   <stop offset="1" id="stop3291" stop-color="#e55300"/>
  </linearGradient>
  <linearGradient id="linearGradient3279">
   <stop id="stop3281" stop-color="#f08e00"/>
   <stop offset="1" id="stop3283" stop-color="#ffd200"/>
  </linearGradient>
  <linearGradient id="linearGradient3271">
   <stop id="stop3273" stop-color="#395d93"/>
   <stop offset="1" id="stop3275" stop-color="#6e92c7"/>
  </linearGradient>
  <linearGradient inkscape:collect="always" id="linearGradient3327">
   <stop id="stop3330"/>
   <stop offset="1" id="stop3333" stop-opacity="0"/>
  </linearGradient>
  <linearGradient inkscape:collect="always" xlink:href="#linearGradient3327" id="linearGradient3335" y1="22" x2="0" y2="-9.817" gradientUnits="userSpaceOnUse"/>
  <linearGradient id="linearGradient4057">
   <stop id="stop4059" stop-color="#816647"/>
   <stop offset="1" id="stop4061" stop-color="#a6845d"/>
  </linearGradient>
  <linearGradient inkscape:collect="always" xlink:href="#linearGradient3327" id="linearGradient4051" y1="15.517" x2="0" y2="-4.179" gradientUnits="userSpaceOnUse"/>
  <linearGradient inkscape:collect="always" xlink:href="#linearGradient4057" id="linearGradient4063" y1="21" x2="0" y2="0.972" gradientUnits="userSpaceOnUse"/>
  <linearGradient inkscape:collect="always" xlink:href="#linearGradient3722" id="linearGradient4089" y1="154.58" x2="0" y2="36.995" gradientUnits="userSpaceOnUse"/>
  <linearGradient inkscape:collect="always" xlink:href="#linearGradient3722" id="linearGradient4132" gradientUnits="userSpaceOnUse" y1="154.58" x2="0" y2="36.995" gradientTransform="matrix(0.1317916,0,0,0.1317916,11.619896,-1.9882468)"/>
  <linearGradient inkscape:collect="always" xlink:href="#linearGradient3722" id="linearGradient2480" gradientUnits="userSpaceOnUse" gradientTransform="matrix(0.1256322,0,0,0.1256322,11.921746,-1.0005124)" y1="154.58" x2="0" y2="36.995"/>
  <clipPath id="clipPath4974">
   <path id="path4976" d="M 16.625,2 C 15.93281,2.046173 15.13978,2.350316 14.5,2.875 13.716105,3.517873 13.079371,5.1522168 13.25,6.0625 13.337976,6.531842 13.692147,7.1029241 14.03125,7.28125 14.662734,7.613335 15.813682,7.0624791 16.875,5.9375 18.021489,4.722239 18.547995,3.383178 18.15625,2.625 17.915497,2.159052 17.31719,1.953827 16.625,2 z M 10.96875,2.71875 C 10.005789,2.719616 9.496306,3.3967078 9.5,4.6875 c 0.00253,0.88392 0.31322,1.6791318 0.71875,1.875 0.301512,0.145631 0.309051,0.1320361 0.6875,0 C 11.533114,6.343793 12.122053,4.8839409 12,3.90625 11.900109,3.106091 11.556193,2.7182209 10.96875,2.71875 z m -3.8125,1.3125 C 6.976067,4.0573035 6.795347,4.173262 6.625,4.34375 6.281636,4.687396 6.277056,4.8747068 6.28125,5.53125 6.286196,6.305553 6.475145,6.7277249 7,7.28125 7.392601,7.695296 7.675716,7.7200481 8.03125,7.34375 8.416388,6.936117 8.535971,6.296057 8.40625,5.59375 8.208416,4.5226825 7.696799,3.9530895 7.15625,4.03125 z M 4.46875,6.375 C 4.281799,6.4054104 4.1133,6.5115553 3.9375,6.6875 3.476154,7.14923 3.798831,8.4188978 4.53125,9.0625 5.405425,9.830669 6.111327,9.1273309 5.8125,7.78125 5.599846,6.8233425 5.029603,6.2837687 4.46875,6.375 z M 12.5,8.0625 C 11.88094,8.0518483 11.187196,8.1034691 10.46875,8.25 8.61799,8.627471 7.13709,9.3254488 6.1875,10.28125 5.640611,10.831715 5.327697,11.341306 5.0625,12.125 c -0.641919,1.896963 0.546896,4.595678 2.8125,6.4375 0.844088,0.686203 1.359152,0.993313 2.21875,1.28125 0.445736,0.149308 0.799163,0.183992 1.625,0.15625 0.946716,-0.03181 1.139252,-0.07408 1.75,-0.375 0.895036,-0.440989 1.909553,-1.461035 2.34375,-2.34375 0.264885,-0.5385 0.307321,-0.768628 0.28125,-1.21875 -0.04452,-0.768578 -0.342658,-0.977756 -1.3125,-0.96875 -1.38452,0.01285 -1.965756,0.333932 -2.25,1.3125 -0.21469,0.739118 -0.452038,1 -0.9375,1 -0.769368,0 -1.5625,-0.611791 -1.5625,-1.25 0,-0.443994 0.715313,-1.10577 2.5,-2.3125 2.514116,-1.69994 3.378489,-2.734111 3.25,-3.875 C 15.64852,8.7901993 14.35718,8.0944552 12.5,8.0625 z"/>
  </clipPath>
  <clipPath id="clipPath4995">
   <path d="M 30,0 30,22 52,22 52,0 30,0 z M 46.625,2 C 47.31719,1.953827 47.915497,2.159052 48.15625,2.625 48.547995,3.383178 48.021489,4.722239 46.875,5.9375 45.813682,7.0624791 44.662734,7.613335 44.03125,7.28125 43.692147,7.1029241 43.337976,6.531842 43.25,6.0625 43.079371,5.1522168 43.716105,3.517873 44.5,2.875 45.13978,2.350316 45.93281,2.046173 46.625,2 z m -5.65625,0.71875 c 0.587443,-5.291e-4 0.931359,0.387341 1.03125,1.1875 0.122053,0.9776909 -0.466886,2.437543 -1.09375,2.65625 -0.378449,0.1320361 -0.385988,0.145631 -0.6875,0 C 39.81322,6.3666318 39.502528,5.57142 39.5,4.6875 39.496306,3.3967078 40.005789,2.719616 40.96875,2.71875 z m -3.8125,1.3125 c 0.540549,-0.078161 1.052166,0.4914325 1.25,1.5625 0.129721,0.702307 0.01014,1.342367 -0.375,1.75 C 37.675716,7.7200481 37.392601,7.695296 37,7.28125 36.475145,6.7277249 36.286196,6.305553 36.28125,5.53125 36.277056,4.8747068 36.281636,4.687396 36.625,4.34375 36.795347,4.173262 36.976067,4.0573035 37.15625,4.03125 z M 34.46875,6.375 C 35.029603,6.2837687 35.599846,6.8233425 35.8125,7.78125 36.111327,9.1273309 35.405425,9.830669 34.53125,9.0625 33.798831,8.4188978 33.476154,7.14923 33.9375,6.6875 34.1133,6.5115553 34.281799,6.4054104 34.46875,6.375 z M 42.5,8.0625 c 1.85718,0.031955 3.14852,0.7276993 3.28125,1.90625 0.128489,1.140889 -0.735884,2.17506 -3.25,3.875 -1.784687,1.20673 -2.5,1.868506 -2.5,2.3125 0,0.638209 0.793132,1.25 1.5625,1.25 0.485462,0 0.72281,-0.260882 0.9375,-1 0.284244,-0.978568 0.86548,-1.299646 2.25,-1.3125 0.969842,-0.009 1.267977,0.200172 1.3125,0.96875 0.02607,0.450122 -0.01637,0.68025 -0.28125,1.21875 -0.434197,0.882715 -1.448714,1.902761 -2.34375,2.34375 -0.610748,0.300916 -0.803284,0.343192 -1.75,0.375 -0.825837,0.02774 -1.179264,-0.0069 -1.625,-0.15625 C 39.234152,19.555813 38.719088,19.248703 37.875,18.5625 35.609396,16.720678 34.420581,14.021963 35.0625,12.125 35.327697,11.341306 35.640611,10.831715 36.1875,10.28125 37.13709,9.3254488 38.61799,8.627471 40.46875,8.25 41.187196,8.1034691 41.88094,8.0518483 42.5,8.0625 z" id="path4997"/>
  </clipPath>
  <linearGradient id="StandardGradient-1" gradientTransform="matrix(0.9984539,0,0,0.9984539,-0.0459776,0.05767558)" y1="1.996" x2="0" y2="18.974" gradientUnits="userSpaceOnUse">
   <stop id="stop3277-4" stop-opacity="0.863"/>
   <stop offset="1" id="stop3279-3" stop-opacity="0.471"/>
  </linearGradient>
  <linearGradient id="SpecificGradient-5" y1="4" x2="0" y2="18.01" gradientUnits="userSpaceOnUse">
   <stop id="stop3292-8" stop-color="#a50000"/>
   <stop offset="1" id="stop3294-0" stop-color="#e73800"/>
  </linearGradient>
  <linearGradient inkscape:collect="always" xlink:href="#StandardGradient-1" id="linearGradient3738" gradientUnits="userSpaceOnUse" y1="8" x2="0" y2="20.04"/>
  <linearGradient inkscape:collect="always" xlink:href="#StandardGradient-1" id="linearGradient3741" gradientUnits="userSpaceOnUse" y1="8" x2="0" y2="20.04" gradientTransform="translate(-30,0)"/>
  <linearGradient inkscape:collect="always" xlink:href="#StandardGradient-1" id="linearGradient3747" gradientUnits="userSpaceOnUse" y1="8" x2="0" y2="20.04" gradientTransform="translate(0,1)"/>
  <clipPath id="clipPath3758">
   <path d="m -30,0 0,22 22,0 0,-22 -22,0 z m 16.625,2 c 0.69219,-0.046173 1.290497,0.159052 1.53125,0.625 0.391745,0.758178 -0.134761,2.097239 -1.28125,3.3125 -1.061318,1.124979 -2.212266,1.675835 -2.84375,1.34375 C -16.307853,7.102924 -16.66202,6.531842 -16.75,6.0625 -16.920629,5.152217 -16.283895,3.517873 -15.5,2.875 -14.86022,2.350316 -14.06719,2.046173 -13.375,2 z m -5.65625,0.71875 c 0.587443,-5.29e-4 0.93136,0.387341 1.03125,1.1875 0.122053,0.977691 -0.466886,2.437543 -1.09375,2.65625 -0.378449,0.132036 -0.385988,0.145631 -0.6875,0 -0.40553,-0.195868 -0.71625,-0.99108 -0.71875,-1.875 -0.0037,-1.290792 0.505789,-1.967884 1.46875,-1.96875 z m -3.8125,1.3125 c 0.540549,-0.078161 1.052166,0.4914325 1.25,1.5625 0.129721,0.702307 0.01014,1.342367 -0.375,1.75 -0.355534,0.376298 -0.638649,0.351546 -1.03125,-0.0625 -0.524855,-0.553525 -0.71385,-0.975697 -0.71875,-1.75 -0.0042,-0.656543 3.86e-4,-0.843854 0.34375,-1.1875 0.170347,-0.170488 0.351067,-0.286447 0.53125,-0.3125 z m -2.6875,2.34375 c 0.560853,-0.091231 1.131096,0.4483425 1.34375,1.40625 0.298827,1.346081 -0.407075,2.049419 -1.28125,1.28125 -0.732419,-0.643602 -1.055096,-1.91327 -0.59375,-2.375 0.1758,-0.1759448 0.344299,-0.282089 0.53125,-0.3125 z M -17.5,8.0625 c 1.85718,0.031955 3.14852,0.7276993 3.28125,1.90625 0.128489,1.140889 -0.735884,2.17506 -3.25,3.875 -1.784687,1.20673 -2.5,1.868506 -2.5,2.3125 0,0.638209 0.793132,1.25 1.5625,1.25 0.485462,0 0.72281,-0.260882 0.9375,-1 0.284244,-0.978569 0.86548,-1.29965 2.25,-1.3125 0.969842,-0.009 1.26798,0.200172 1.3125,0.96875 0.02607,0.450123 -0.01637,0.68025 -0.28125,1.21875 -0.434197,0.882715 -1.448714,1.902761 -2.34375,2.34375 -0.610748,0.30092 -0.803284,0.34319 -1.75,0.375 -0.825837,0.02774 -1.179264,-0.0069 -1.625,-0.15625 -0.859598,-0.287937 -1.374662,-0.595047 -2.21875,-1.28125 -2.265604,-1.841822 -3.454419,-4.540537 -2.8125,-6.4375 0.265198,-0.783694 0.578111,-1.293285 1.125,-1.84375 0.94959,-0.9558013 2.43049,-1.653779 4.28125,-2.03125 0.718447,-0.146531 1.41219,-0.198152 2.03125,-0.1875 z" id="path3760"/>
  </clipPath>
  <linearGradient inkscape:collect="always" xlink:href="#StandardGradient-1" id="linearGradient3745" y1="2" x2="0" y2="18.03" gradientUnits="userSpaceOnUse" gradientTransform="matrix(1.1252108,0,0,1.1249999,-2.5078172,-0.2808096)"/>
  <linearGradient inkscape:collect="always" xlink:href="#StandardGradient-1" id="linearGradient4006" gradientUnits="userSpaceOnUse" y1="2" x2="0" y2="19.12"/>
  <radialGradient r="154.62" cy="126.15" cx="126.16" gradientTransform="matrix(0.07134324,0,0,0.07134521,1.9994442,-28.000554)" gradientUnits="userSpaceOnUse" id="radialGradient3007" xlink:href="#radial-gradient" inkscape:collect="always"/>
  <radialGradient gradientUnits="userSpaceOnUse" id="radial-gradient" r="154.62" cy="133.1" cx="115.9">
   <stop id="translucent-stop-color" stop-color="#003364" stop-opacity="0"/>
   <stop id="opaque-blue-stop-color" offset="1" stop-color="#0067c8"/>
  </radialGradient>
  <linearGradient inkscape:collect="always" xlink:href="#StandardGradient-1" id="linearGradient4019" y1="2.14" x2="0" y2="18.821" gradientUnits="userSpaceOnUse"/>
  <linearGradient inkscape:collect="always" xlink:href="#StandardGradient-1" id="linearGradient3000" gradientUnits="userSpaceOnUse" gradientTransform="matrix(0.25834462,0,0,0.25834462,-0.3758467,-0.375846)" y1="20.809" x2="0" y2="71.28"/>
  <linearGradient inkscape:collect="always" xlink:href="#StandardGradient-1" id="linearGradient3870" gradientUnits="userSpaceOnUse" gradientTransform="matrix(0.01681827,0,0,-0.01672714,-0.89306121,21.472134)" y1="1054.56" x2="0" y2="190.79"/>
  <linearGradient inkscape:collect="always" xlink:href="#StandardGradient-1" id="linearGradient4134" y1="4" x2="0" y2="22.11" gradientUnits="userSpaceOnUse"/>
  <linearGradient inkscape:collect="always" xlink:href="#StandardGradient-1" id="linearGradient4074" gradientUnits="userSpaceOnUse" y1="2.192" x2="0" y2="20.06"/>
  <linearGradient id="linearGradient3785">
   <stop id="stop3787" stop-color="#384880"/>
   <stop id="stop3789" offset="1"/>
  </linearGradient>
  <linearGradient inkscape:collect="always" xlink:href="#linearGradient3785" id="linearGradient3189" gradientUnits="userSpaceOnUse" gradientTransform="matrix(0.08112299,0,0,0.07855526,-21.185695,-23.153302)" x1="365.51" y1="408.4" x2="365.98" y2="520.17"/>
  <linearGradient inkscape:collect="always" xlink:href="#StandardGradient-1" id="linearGradient3748" y1="4.01" x2="0" y2="22.01" gradientUnits="userSpaceOnUse"/>
 </defs>
 <metadata id="metadata7"/>
 <g inkscape:label="Button" inkscape:groupmode="layer" id="layer1" transform="translate(0,-6)">
  <path inkscape:connector-curvature="0" d="m 8,6.0000004 c -4.418278,0 -8,3.5817218 -8,7.9999996 0,4.418278 3.581722,8 8,8 4.418278,0 8,-3.581722 8,-8 C 16,9.5817222 12.418278,6.0000004 8,6.0000004 z m 3.027778,2.3055556 c 0.589001,0 1.055555,0.4943319 1.055555,1.0833333 0,0.5890018 -0.466554,1.0555557 -1.055555,1.0555557 -0.589002,0 -1.0833336,-0.4665539 -1.0833336,-1.0555557 0,-0.5890014 0.4943316,-1.0833333 1.0833336,-1.0833333 z M 8.166667,9.3888893 c 0.375075,0 0.762186,0.026459 1.111111,0.1111111 0.07024,0.9175166 0.814583,1.6666666 1.75,1.6666666 0.245417,0 0.481705,-0.04885 0.694444,-0.138889 0.604318,0.719654 0.97864,1.617934 1.055556,2.611111 l -2.138889,0 C 10.468001,12.430736 9.421749,11.5 8.166667,11.5 7.8549876,11.5 7.552832,11.5897 7.2777778,11.694445 L 6.2222222,9.8333337 C 6.8183039,9.5531043 7.4647742,9.3888893 8.166667,9.3888893 z M 5.5833333,10.166667 6.6666667,12.027778 C 6.070556,12.482795 5.6944444,13.192729 5.6944444,14 c 0,0.784467 0.3491288,1.48798 0.9166667,1.944444 L 5.5555556,17.777778 C 4.7729702,17.233464 4.1371255,16.46226 3.8055556,15.555556 4.2829131,15.198735 4.6111111,14.641385 4.6111111,14 c 0,-0.635334 -0.3080793,-1.198136 -0.7777778,-1.555556 0.3367287,-0.928959 0.9428099,-1.732301 1.75,-2.277777 z M 2.6666667,12.75 c 0.6871682,0 1.25,0.562831 1.25,1.25 0,0.687169 -0.5628318,1.25 -1.25,1.25 -0.6871684,0 -1.25,-0.562831 -1.25,-1.25 0,-0.687169 0.5628316,-1.25 1.25,-1.25 z m 7.9722223,1.611111 2.138889,0 c -0.07691,0.993177 -0.451238,1.891456 -1.055556,2.611111 -0.212739,-0.09003 -0.449027,-0.138889 -0.694444,-0.138889 -0.935417,0 -1.679751,0.749151 -1.75,1.666667 -0.348925,0.08465 -0.736036,0.111111 -1.111111,0.111111 -0.726707,0 -1.4157496,-0.145305 -2.0277781,-0.444444 L 7.25,16.305556 C 7.5357191,16.419918 7.8402631,16.5 8.166667,16.5 c 1.255082,0 2.301334,-0.930736 2.472222,-2.138889 z m 0.388889,3.194445 c 0.589001,0 1.055555,0.466554 1.055555,1.055555 0,0.589002 -0.466554,1.083333 -1.055555,1.083333 -0.589002,0 -1.0833336,-0.494331 -1.0833336,-1.083333 0,-0.589001 0.4943316,-1.055555 1.0833336,-1.055555 z" id="path2963" fill="#bebebe" color="#000000"/>
 </g>
</svg>
