<?xml version="1.0" encoding="UTF-8" standalone="no"?>
<svg xmlns="http://www.w3.org/2000/svg" xmlns:xlink="http://www.w3.org/1999/xlink" xmlns:sodipodi="http://sodipodi.sourceforge.net/DTD/sodipodi-0.dtd" xmlns:inkscape="http://www.inkscape.org/namespaces/inkscape" version="1.1" width="128" height="128">
 <metadata id="metadata8"/>
 <defs id="defs6">
  <linearGradient id="linearGradient4391">
   <stop id="stop4393"/>
   <stop id="stop4395" offset="1" stop-opacity="0"/>
  </linearGradient>
  <linearGradient id="linearGradient3937-5-2">
   <stop id="stop3939-6-1" stop-color="#9c9d9e"/>
   <stop id="stop3941-3-2" offset="1" stop-color="#bbbcbd"/>
  </linearGradient>
  <linearGradient gradientTransform="matrix(1.5656303,0.24828924,-0.24779424,1.5687579,111.71427,76.07046)" inkscape:collect="always" xlink:href="#linearGradient3937-5-2" id="linearGradient3994-1-2" x1="-31.576" y1="-10.984" x2="-27.54" y2="14.513" gradientUnits="userSpaceOnUse"/>
  <radialGradient inkscape:collect="always" xlink:href="#linearGradient4303" id="radialGradient4309-7" cx="31" cy="52.6" r="31" gradientTransform="matrix(4.2258064,0,0,0.12903193,-66.999996,104.41293)" gradientUnits="userSpaceOnUse"/>
  <linearGradient inkscape:collect="always" id="linearGradient4303">
   <stop id="stop4305" stop-opacity="0.19"/>
   <stop id="stop4311" offset="0.727" stop-opacity="0.059"/>
   <stop offset="1" id="stop4307" stop-opacity="0"/>
  </linearGradient>
  <linearGradient gradientTransform="matrix(2.7555557,0,0,2.5806451,-1.7555551,-66.80645)" gradientUnits="userSpaceOnUse" y2="13.1" x2="0" y1="10.775" id="linearGradient3794" xlink:href="#linearGradient3788-5" inkscape:collect="always"/>
  <linearGradient id="linearGradient3788-5">
   <stop id="stop3790-2" stop-opacity="0.51"/>
   <stop offset="1" id="stop3792-5" stop-opacity="0.471"/>
  </linearGradient>
  <linearGradient gradientTransform="matrix(3.128205,0,0,3.12,-19.897436,-124.24)" gradientUnits="userSpaceOnUse" y2="52" x2="0" y1="27" id="linearGradient3965" xlink:href="#linearGradient3782" inkscape:collect="always"/>
  <linearGradient id="linearGradient3782">
   <stop id="stop3784" stop-color="#ffffff"/>
   <stop offset="1" id="stop3786" stop-color="#e4e5e7"/>
  </linearGradient>
  <linearGradient gradientTransform="matrix(3.2432441,0,0,3.3043477,-13.21622,-91.869567)" gradientUnits="userSpaceOnUse" y2="39" x2="0" y1="16" id="linearGradient3933" xlink:href="#linearGradient3927" inkscape:collect="always"/>
  <linearGradient id="linearGradient3927">
   <stop id="stop3929" stop-color="#f1f2f3"/>
   <stop id="stop3931" offset="1" stop-color="#e4e5e7"/>
  </linearGradient>
  <linearGradient gradientTransform="matrix(2.75,0,0,2,-3,-63)" gradientUnits="userSpaceOnUse" y2="9" x2="0" y1="11" id="linearGradient3835" xlink:href="#linearGradient4391" inkscape:collect="always"/>
  <linearGradient gradientUnits="userSpaceOnUse" x2="13" x1="9" id="linearGradient3936" xlink:href="#linearGradient3930" inkscape:collect="always" gradientTransform="translate(3,-45)"/>
  <linearGradient id="linearGradient3930" inkscape:collect="always">
   <stop id="stop3932" stop-color="#ffffff"/>
   <stop id="stop3934" offset="1" stop-color="#ffffff" stop-opacity="0"/>
  </linearGradient>
  <linearGradient inkscape:collect="always" xlink:href="#linearGradient3930" id="linearGradient3953" gradientUnits="userSpaceOnUse" x1="65" x2="69" gradientTransform="matrix(-1,0,0,1,123,-45)"/>
 </defs>
 <g inkscape:groupmode="layer" id="layer2" inkscape:label="folder">
  <g transform="translate(4.9999999e-6,4.9999999e-6)" id="g4225">
   <ellipse cx="64" cy="111.2" rx="62" ry="4" id="path4293-4" fill="url(#radialGradient4309-7)" stroke-width="1.2"/>
   <g id="layer4" inkscape:label="Ebene#1" transform="translate(1,72)">
    <g id="g4075" transform="translate(0,1)">
     <path sodipodi:nodetypes="sscsssssssscsss" inkscape:connector-curvature="0" d="m 17,-59 c -1.108,0 -2,0.892 -2,2 l 0,6 -6,0 c -1.108,0 -2,0.892 -2,2 l 0,10 c 0,1.108 0.892,2 2,2 l 108,0 c 1.108,0 2,-0.892 2,-2 l 0,-10 c 0,-1.108 -0.892,-2 -2,-2 l -62,0 0,-6 c 0,-1.108 -0.892,-2 -2,-2 z" id="rect3967" stroke="#000000" fill-opacity="0.659" stroke-width="0"/>
     <path inkscape:connector-curvature="0" d="m 18,15 c -0.520436,0 -1,0.45973 -1,1 l 0,7 -7,0 c -0.554,0 -1,0.446 -1,1 l 0,10 c 0,0.554 0.446,1 1,1 l 108,0 c 0.554,0 1,-0.446 1,-1 l 0,-10 c 0,-0.554 -0.446,-1 -1,-1 l -63,0 0,-7 c 0.01074,-0.54906 -0.487307,-1 -1,-1 l -36,0 z" transform="translate(-1,-73)" id="rect3969" fill="#8b8b8d" stroke="#000000" stroke-width="0"/>
     <rect rx="2" y="-41" x="1" height="80" width="124" id="rect3915" fill="url(#linearGradient3794)" stroke="#000000" stroke-width="0"/>
     <rect y="-40" x="2" height="78" width="122" id="rect3957" rx="1" fill="url(#linearGradient3965)" stroke="#000000" stroke-width="0"/>
     <rect rx="0" y="-39" x="3" height="76" width="120" id="rect3925" fill="url(#linearGradient3933)" stroke="#000000" stroke-width="0"/>
     <rect id="rect3827" width="110" height="4" x="8" y="-45" opacity="0.173" fill="url(#linearGradient3835)" stroke="#102b68" stroke-width="0" rx="0"/>
     <path sodipodi:nodetypes="sscsscsss" d="m 17,-58 c -0.554,0 -1,0.446 -1,1 l 0,1 c 0,-0.554 0.446,-1 1,-1 l 36,0 c 0.554,0 1,0.446 1,1 l 0,-1 c 0,-0.554 -0.446,-1 -1,-1 z" id="rect3891" inkscape:connector-curvature="0" opacity="0.15" fill="#ffffff" stroke="#767779" stroke-width="0"/>
     <path d="m 9,-50 c -0.554,0 -1,0.446 -1,1 l 0,1 c 0,-0.554 0.446,-1 1,-1 l 7,0 0,-1 z" id="rect3891-8" inkscape:connector-curvature="0" sodipodi:nodetypes="sscsccs" opacity="0.15" fill="url(#linearGradient3936)" stroke="#767779" stroke-width="0"/>
     <path d="m 117,-50 c 0.554,0 1,0.446 1,1 l 0,1 c 0,-0.554 -0.446,-1 -1,-1 l -63,0 0,-1 z" id="rect3891-8-7" inkscape:connector-curvature="0" sodipodi:nodetypes="sscsccs" opacity="0.15" fill="url(#linearGradient3953)" stroke="#767779" stroke-width="0"/>
    </g>
   </g>
  </g>
 </g>
 <g inkscape:groupmode="layer" id="layer1" inkscape:label="icon">
  <path inkscape:transform-center-x="0.00029759694" inkscape:transform-center-y="-0.84427813" d="m 79.32615,94.097702 -15.32331,-8.068319 -15.32286,8.070674 5.1026,-15.357948 -13.28266,-11.261624 16.34789,0 7.15221,-16.380545 7.15217,16.380545 16.34789,0 -13.28266,11.261624 z" id="path3092-8-72-4" inkscape:connector-curvature="0" sodipodi:nodetypes="ccccccccccc" fill="#ffffff" stroke="#ffffff" stroke-linejoin="round" stroke-linecap="round"/>
  <path inkscape:transform-center-x="0.00029759694" inkscape:transform-center-y="-0.84427813" d="m 79.32615,93.097692 -15.32331,-8.068319 -15.32286,8.070674 5.1026,-15.357948 -13.28266,-11.261624 16.34789,0 7.15221,-16.380545 7.15217,16.380545 16.34789,0 -13.28266,11.261624 z" id="path3092-8-72" inkscape:connector-curvature="0" sodipodi:nodetypes="ccccccccccc" fill="url(#linearGradient3994-1-2)" stroke="#767779" stroke-linejoin="round" stroke-linecap="round"/>
 </g>
</svg>
