<?xml version="1.0" encoding="UTF-8" standalone="no"?>
<svg xmlns="http://www.w3.org/2000/svg" xmlns:xlink="http://www.w3.org/1999/xlink" xmlns:sodipodi="http://sodipodi.sourceforge.net/DTD/sodipodi-0.dtd" xmlns:inkscape="http://www.inkscape.org/namespaces/inkscape" width="16" height="16" version="1.0">
 <defs id="defs4">
  <linearGradient id="StandardGradient" gradientTransform="scale(0.9219544,1.0846523)" y1="0.922" x2="0" y2="19.387" gradientUnits="userSpaceOnUse">
   <stop id="stop3283" stop-opacity="0.235"/>
   <stop offset="1" id="stop2651" stop-opacity="0.549"/>
  </linearGradient>
  <radialGradient inkscape:collect="always" xlink:href="#StandardGradient" id="radialGradient3935" cx="9" cy="10.624" r="6.516" gradientTransform="matrix(1.6882493,-5.6274978e-8,3.0695442e-8,0.92086324,-6.1942438,0.2170967)" gradientUnits="userSpaceOnUse"/>
  <radialGradient inkscape:collect="always" xlink:href="#StandardGradient" id="radialGradient3988" cx="9" cy="10.491" r="6.01" gradientTransform="matrix(1.8309892,0,0,0.83226782,-7.4789032,1.2683858)" gradientUnits="userSpaceOnUse"/>
 </defs>
 <metadata id="metadata7"/>
 <g inkscape:label="Calque 1" id="layer1" inkscape:groupmode="layer">
  <path inkscape:connector-curvature="0" d="m 11.96875,2.6875002 a 1.0185309,1.0185309 0 0 0 -0.625,0.3125 l -4.6875,4.65625 -2,-1.96875 a 1.0185309,1.0185309 0 0 0 -1.4375,0 l -1.9375,1.9375 a 1.0185309,1.0185309 0 0 0 0,1.4375 L 5.9375,13.6875 a 1.0185309,1.0185309 0 0 0 1.4375,0 l 7.34375,-7.3124998 a 1.0185309,1.0185309 0 0 0 0,-1.4375 l -1.9375,-1.9375 a 1.0185309,1.0185309 0 0 0 -0.71875,-0.3125 1.0185309,1.0185309 0 0 0 -0.09375,0 z M 12.0625,3.7187502 14,5.6562502 6.65625,12.96875 2,8.3437502 l 1.9375,-1.9375 2.71875,2.6875 5.40625,-5.375 z" id="path4476" opacity="0.05" fill="#ffffff"/>
  <path inkscape:connector-curvature="0" d="M 12.07137,3.7158688 6.6543632,9.1042512 3.9439915,6.4100651 2,8.3451182 l 4.6506253,4.6329708 0.00374,-0.0037 0.00374,0.0037 7.3572577,-7.3271676 -1.94399,-1.9350526 z" id="Symbol" sodipodi:nodetypes="ccccccccc" inkscape:label="#rect2504" fill="url(#radialGradient3988)"/>
  <path inkscape:connector-curvature="0" d="m 12.0625,3.7187502 -5.40625,5.375 -2.71875,-2.6875 -1.9375,1.9375 0.53125,0.5 1.40625,-1.40625 2.71875,2.6874998 5.40625,-5.3749998 1.40625,1.40625 0.53125,-0.5 -1.9375,-1.9375 z" id="BevelShadow" inkscape:label="#path3165" opacity="0.3"/>
  <path inkscape:connector-curvature="0" d="M 14,5.6562502 6.65625,12.96875 2,8.3437502 2,9.3750002 6.65625,14 14,6.6875002 l 0,-1.03125 z" id="BevelHighlight" inkscape:label="#path3172" opacity="0.2" fill="#ffffff"/>
  <path d="M 12.0625 3.71875 L 6.65625 9.09375 L 3.9375 6.40625 L 2 8.34375 L 6.65625 12.96875 L 14 5.65625 L 12.0625 3.71875 z M 12.0625 4.21875 L 13.5 5.65625 L 6.65625 12.46875 L 2.5 8.34375 L 3.9375 6.90625 L 6.40625 9.34375 A 0.33429618 0.33429618 0 0 0 6.4375 9.375 A 0.33429618 0.33429618 0 0 0 6.90625 9.34375 L 12.0625 4.21875 z " id="path3990" opacity="0.3"/>
 </g>
</svg>
