<?xml version="1.0" encoding="UTF-8" standalone="no"?>
<svg xmlns="http://www.w3.org/2000/svg" xmlns:xlink="http://www.w3.org/1999/xlink" xmlns:sodipodi="http://sodipodi.sourceforge.net/DTD/sodipodi-0.dtd" xmlns:inkscape="http://www.inkscape.org/namespaces/inkscape" width="16" height="16" version="1.0">
 <defs id="defs4">
  <linearGradient inkscape:collect="always" id="linearGradient4179">
   <stop id="stop4181" stop-opacity="0.235"/>
   <stop offset="1" id="stop4183" stop-opacity="0.549"/>
  </linearGradient>
  <linearGradient inkscape:collect="always" xlink:href="#StandardGradient" id="linearGradient2428" gradientUnits="userSpaceOnUse" gradientTransform="matrix(0.9247229,0,0,1.0872097,10.939944,-2.0023588)" y1="3.681" x2="0" y2="16.53"/>
  <linearGradient id="StandardGradient" gradientTransform="scale(0.9219544,1.0846523)" y1="0.922" x2="0" y2="19.387" gradientUnits="userSpaceOnUse">
   <stop id="stop3283" stop-opacity="0.235"/>
   <stop offset="1" id="stop2651" stop-opacity="0.549"/>
  </linearGradient>
  <linearGradient inkscape:collect="always" xlink:href="#StandardGradient" id="linearGradient2549" gradientUnits="userSpaceOnUse" gradientTransform="matrix(0.9247229,0,0,1.0872097,-2.0600562,0.9976422)" y1="0.922" x2="0" y2="17.478"/>
  <linearGradient inkscape:collect="always" xlink:href="#StandardGradient" id="linearGradient2418" gradientUnits="userSpaceOnUse" gradientTransform="matrix(0.9247229,0,0,1.0872097,-4.0600562,-3.0023583)" y1="0.922" x2="0" y2="17.478"/>
  <linearGradient inkscape:collect="always" xlink:href="#StandardGradient" id="linearGradient2422" gradientUnits="userSpaceOnUse" gradientTransform="matrix(0.9247229,0,0,1.0872097,-5.0600562,-1.0023583)" y1="0.922" x2="0" y2="17.478"/>
  <linearGradient inkscape:collect="always" xlink:href="#StandardGradient" id="linearGradient2409" gradientUnits="userSpaceOnUse" gradientTransform="matrix(0.9247229,0,0,1.0872097,-6.0600562,-2.0023583)" y1="3.68" x2="0" y2="15.639"/>
  <linearGradient inkscape:collect="always" xlink:href="#StandardGradient" id="linearGradient2416" gradientUnits="userSpaceOnUse" gradientTransform="matrix(0.9247229,0,0,1.0872097,-6.0600562,-2.0023583)" y1="2.762" x2="0" y2="15.639"/>
  <linearGradient inkscape:collect="always" xlink:href="#StandardGradient" id="linearGradient2529" gradientUnits="userSpaceOnUse" gradientTransform="matrix(0.9247229,0,0,1.0872097,-4.0418814,0.9976412)" y1="3.681" x2="0" y2="16.53"/>
  <linearGradient inkscape:collect="always" xlink:href="#StandardGradient" id="linearGradient2942" gradientUnits="userSpaceOnUse" gradientTransform="matrix(0.9247229,0,0,1.0872097,-26.060056,-2.0023583)" y1="2.762" x2="0" y2="15.639"/>
  <clipPath id="clipPath2949">
   <path d="m -20,0 0,16 16,0 0,-16 -16,0 z m 3,1 3,0 c 0.554,0 1,0.446 1,1 l 6,0 c 0.554,0 1,0.446 1,1 l -12,0 0,-1 c 0,-0.554 0.446,-1 1,-1 z m -0.5,3 4,0 6,0 1,0 C -5.669,4 -5,4.669 -5,5.5 l 0,4.5 0,1.5 c 0,0.647488 -0.396277,1.195291 -0.96875,1.40625 l 0,0.15625 -0.03125,0 0,0.4375 c 0,0.831 -0.669,1.5 -1.5,1.5 l -6,0 c -0.831,0 -1.5,-0.669 -1.5,-1.5 l 0,-0.5 -2.5,0 c -0.831,0 -1.5,-0.669 -1.5,-1.5 l 0,-1.5 0,-4.5 C -19,4.669 -18.331,4 -17.5,4 z m 5,2 C -12.777,6 -13,6.223 -13,6.5 l 0,6 c 0,0.277 0.223,0.5 0.5,0.5 l 4,0 c 0.277,0 0.5,-0.223 0.5,-0.5 l 0,-6 C -8,6.223 -8.223,6 -8.5,6 l -4,0 z" id="path2951"/>
  </clipPath>
  <radialGradient inkscape:collect="always" xlink:href="#StandardGradient" id="radialGradient3798" cx="9" cy="9.875" r="7" gradientUnits="userSpaceOnUse" gradientTransform="matrix(2.1428571,5.7142857e-8,-3.047619e-8,1.1428571,-10.285714,-1.2857148)"/>
  <linearGradient id="StandardGradient-0" gradientTransform="scale(0.9219544,1.0846523)" y1="0.922" x2="0" y2="19.387" gradientUnits="userSpaceOnUse">
   <stop id="stop3283-4" stop-opacity="0.863"/>
   <stop offset="1" id="stop2651-8" stop-opacity="0.471"/>
  </linearGradient>
  <radialGradient inkscape:collect="always" xlink:href="#StandardGradient" id="radialGradient3837" gradientUnits="userSpaceOnUse" gradientTransform="matrix(1.5644444,6.5168604e-8,-4.7395346e-8,1.1377777,-5.0799995,-1.3879367)" cx="9" cy="10.01" r="7.03"/>
  <radialGradient inkscape:collect="always" xlink:href="#linearGradient4179" id="radialGradient4185" cx="9" cy="10.01" r="7.03" gradientTransform="matrix(1.8488889,-6.9403615e-8,4.8048654e-8,1.28,-7.6400006,-2.8114275)" gradientUnits="userSpaceOnUse"/>
 </defs>
 <metadata id="metadata7"/>
 <g inkscape:label="Calque 1" id="layer1" inkscape:groupmode="layer">
  <path inkscape:connector-curvature="0" d="M 4.5,0.03125 C 3.1407922,0.03125 2.03125,1.1407922 2.03125,2.5 l 0,1.0625 0,2.6875 C 0.90684566,6.4850881 0,7.3430094 0,8.53125 l 0,3.03125 c 0,1.26334 0.99024131,2.231619 2.21875,2.375 0.2350881,1.124404 1.0930094,2.03125 2.28125,2.03125 l 7,0 c 1.188241,0 2.046162,-0.906846 2.28125,-2.03125 C 15.009759,13.794119 16,12.82584 16,11.5625 L 16,8.5 C 16,7.3117594 15.093154,6.4538381 13.96875,6.21875 l 0,-0.53125 0,-3.1875 c 0,-1.3592078 -1.109542,-2.46875 -2.46875,-2.46875 l -7,0 z M 4.5,1 l 7,0 C 12.331,1 13,1.669 13,2.5 L 13,5.6875 13,7 13.53125,7 c 0.831,0 1.5,0.6689999 1.5,1.5 l 0,3.0625 c 0,0.831 -0.669,1.5 -1.5,1.5 l -0.53125,0 0,0.125 0,0.3125 c 0,0.831 -0.669,1.5 -1.5,1.5 l -7,0 C 3.669,15 3,14.331 3,13.5 l 0,-0.3125 0,-0.125 -0.53125,0 c -0.831,0 -1.5,-0.669 -1.5,-1.5 l 0,-3.03125 c 0,-0.831 0.669,-1.5 1.5,-1.5 L 3,7.03125 3,3.5625 3,2.5 C 3,1.669 3.669,1 4.5,1 z m 1,2 C 5.223,3 5,3.223 5,3.5 L 5,8 11,8 11,3.5 C 11,3.223 10.777,3 10.5,3 l -5,0 z M 6,4 10,4 10,5 6,5 6,4 z m 3.96875,1.96875 0.03125,0 a 0.98427028,0.98427028 0 0 0 0.03125,0 l 0,1.0625 -0.0625,0 A 0.98427028,0.98427028 0 0 0 9.96875,7 l 0,-1 a 0.98427028,0.98427028 0 0 0 0,-0.03125 z M 6,6 9,6 9,7 6,7 6,6 z m 7.5,3 c -0.138,0 -0.25325,0.06575 -0.34375,0.15625 0.08512,-0.085125 0.215501,-0.125 0.34375,-0.125 0.128249,10e-8 0.258625,0.039875 0.34375,0.125 C 13.75325,9.06575 13.638,8.9999999 13.5,9 z m 0.34375,0.15625 c 0.08512,0.085125 0.125,0.2155006 0.125,0.34375 0,0.1282491 -0.03988,0.2586248 -0.125,0.34375 C 13.93425,9.75325 14,9.6379999 14,9.5 14,9.362 13.93425,9.24675 13.84375,9.15625 z m 0,0.6875 c -0.08512,0.085125 -0.215501,0.125 -0.34375,0.125 -0.12825,10e-8 -0.258625,-0.039875 -0.34375,-0.125 C 13.24675,9.93425 13.362,9.9999999 13.5,10 c 0.138,0 0.25325,-0.06575 0.34375,-0.15625 z m -0.6875,0 C 13.07113,9.758625 13.03125,9.6282494 13.03125,9.5 c 0,-0.1282497 0.03988,-0.2586249 0.125,-0.34375 C 13.06575,9.24675 13,9.3619999 13,9.5 c 0,0.138 0.06575,0.25325 0.15625,0.34375 z M 5,12 5,12.5 C 5,12.777 5.223,13 5.5,13 l 5,0 C 10.777,13 11,12.777 11,12.5 L 11,12 5,12 z" id="path4495" opacity="0.05" fill="#ffffff"/>
  <path inkscape:connector-curvature="0" d="M 4.5,1 C 3.669,1 3,1.669 3,2.5 l 0,1.0625 0,3.46875 -0.53125,0 c -0.831,0 -1.5,0.669 -1.5,1.5 l 0,3.03125 c 0,0.831 0.669,1.5 1.5,1.5 L 3,13.0625 3,13.1875 3,13.5 C 3,14.331 3.669,15 4.5,15 l 7,0 c 0.831,0 1.5,-0.669 1.5,-1.5 l 0,-0.3125 0,-0.125 0.53125,0 c 0.831,0 1.5,-0.669 1.5,-1.5 l 0,-3.0625 c 0,-0.8310001 -0.669,-1.5 -1.5,-1.5 L 13,7 13,5.6875 13,2.5 C 13,1.669 12.331,1 11.5,1 l -7,0 z m 1,2 5,0 C 10.777,3 11,3.223 11,3.5 L 11,8 5,8 5,3.5 C 5,3.223 5.223,3 5.5,3 z m 0.5,1 0,1 4.010835,0 0,-1 L 6,4 z M 6,6 6,7 9,7 9,6 6,6 z m 7.5,3 c 0.276,-2e-7 0.5,0.224 0.5,0.5 C 14,9.7759998 13.776,10 13.5,10 13.224,9.9999998 13,9.776 13,9.5 13,9.2239998 13.224,9 13.5,9 z m -8.5,3 6,0 0,0.5 c 0,0.277 -0.223,0.5 -0.5,0.5 l -5,0 C 5.223,13 5,12.777 5,12.5 L 5,12 z" id="Symbol" sodipodi:nodetypes="cccccccccccccccccccccccccccccccccccccccccccssscccccccc" fill="url(#radialGradient4185)"/>
  <path inkscape:connector-curvature="0" d="M 5.5,3 C 5.223,3 5,3.223 5,3.5 l 0,1 C 5,4.223 5.223,4 5.5,4 L 6,4 10,4 10.5,4 C 10.777,4 11,4.223 11,4.5 l 0,-1 C 11,3.223 10.777,3 10.5,3 l -5,0 z M 6,5 6,6 9,6 10,6 10,5 6,5 z M 6,7 6,8 9,8 9,7 6,7 z m 7.5,2 C 13.224,9 13,9.2239998 13,9.5 13,9.776 13.224,9.9999998 13.5,10 13.776,10 14,9.7759998 14,9.5 14,9.224 13.776,8.9999998 13.5,9 z m -12.53125,2.5625 0,1 c 0,0.831 0.669,1.5 1.5,1.5 L 3,14.0625 3,14.1875 3,14.5 C 3,15.331 3.669,16 4.5,16 l 7,0 c 0.831,0 1.5,-0.669 1.5,-1.5 l 0,-0.3125 0,-0.125 0.53125,0 c 0.831,0 1.5,-0.669 1.5,-1.5 l 0,-1 c 0,0.831 -0.669,1.5 -1.5,1.5 l -0.53125,0 0,0.125 0,0.3125 c 0,0.831 -0.669,1.5 -1.5,1.5 l -7,0 C 3.669,15 3,14.331 3,13.5 l 0,-0.3125 0,-0.125 -0.53125,0 c -0.831,0 -1.5,-0.669 -1.5,-1.5 z M 5,12 5,12.5 C 5,12.777 5.223,13 5.5,13 l 5,0 C 10.777,13 11,12.777 11,12.5 L 11,12 5,12 z" id="BevelHighlight" sodipodi:nodetypes="cccccccccccccccccccccccsssccccccccccccccccccccccccccccccccc" opacity="0.2" fill="#ffffff"/>
  <path d="M 4.5 1 C 3.669 1 3 1.669 3 2.5 L 3 3.5625 L 3 7.03125 L 2.46875 7.03125 C 1.63775 7.03125 0.96875 7.70025 0.96875 8.53125 L 0.96875 11.5625 C 0.96875 12.3935 1.63775 13.0625 2.46875 13.0625 L 3 13.0625 L 3 13.1875 L 3 13.5 C 3 14.331 3.669 15 4.5 15 L 11.5 15 C 12.331 15 13 14.331 13 13.5 L 13 13.1875 L 13 13.0625 L 13.53125 13.0625 C 14.36225 13.0625 15.03125 12.3935 15.03125 11.5625 L 15.03125 8.5 C 15.03125 7.6689999 14.36225 7 13.53125 7 L 13 7 L 13 5.6875 L 13 2.5 C 13 1.669 12.331 1 11.5 1 L 4.5 1 z M 4.5 1.59375 L 11.5 1.59375 C 12.004184 1.59375 12.40625 1.9958158 12.40625 2.5 L 12.40625 5.6875 L 12.40625 7 A 0.60899351 0.60899351 0 0 0 13 7.59375 L 13.53125 7.59375 C 14.035434 7.59375 14.4375 7.9958157 14.4375 8.5 L 14.4375 9.125 C 14.270861 8.7207804 13.959323 8.4062497 13.5 8.40625 C 12.89453 8.40625 12.40625 8.8945293 12.40625 9.5 C 12.40625 10.105471 12.89453 10.59375 13.5 10.59375 C 13.959323 10.59375 14.270861 10.27922 14.4375 9.875 L 14.4375 11.5625 C 14.4375 12.066684 14.035434 12.46875 13.53125 12.46875 L 13 12.46875 A 0.60899351 0.60899351 0 0 0 12.40625 13.0625 L 12.40625 13.1875 L 12.40625 13.5 C 12.40625 14.004184 12.004184 14.40625 11.5 14.40625 L 4.5 14.40625 C 3.9958158 14.40625 3.59375 14.004184 3.59375 13.5 L 3.59375 13.1875 L 3.59375 13.0625 A 0.60899351 0.60899351 0 0 0 3 12.46875 L 2.46875 12.46875 C 1.9645658 12.46875 1.5625 12.066684 1.5625 11.5625 L 1.5625 8.53125 C 1.5625 8.0270658 1.9645658 7.625 2.46875 7.625 L 3 7.625 A 0.60899351 0.60899351 0 0 0 3.59375 7.03125 L 3.59375 3.5625 L 3.59375 2.5 C 3.59375 1.9958158 3.9958158 1.59375 4.5 1.59375 z M 5.5 2.40625 C 4.8961842 2.40625 4.40625 2.8961842 4.40625 3.5 L 4.40625 8 A 0.60899351 0.60899351 0 0 0 5 8.59375 L 11 8.59375 A 0.60899351 0.60899351 0 0 0 11.59375 8 L 11.59375 3.5 C 11.59375 2.8961842 11.103816 2.40625 10.5 2.40625 L 5.5 2.40625 z M 5.5 3 L 10.5 3 C 10.777 3 11 3.223 11 3.5 L 11 8 L 5 8 L 5 3.5 C 5 3.223 5.223 3 5.5 3 z M 6 4 L 6 5 L 10 5 L 10 4 L 6 4 z M 6 6 L 6 7 L 9 7 L 9 6 L 6 6 z M 13.5 9 C 13.776 8.9999998 14 9.224 14 9.5 C 14 9.7759998 13.776 10 13.5 10 C 13.224 9.9999998 13 9.776 13 9.5 C 13 9.2239998 13.224 9 13.5 9 z M 4.84375 11.40625 A 0.60899351 0.60899351 0 0 0 4.40625 12 L 4.40625 12.5 C 4.40625 13.103816 4.8961842 13.59375 5.5 13.59375 L 10.5 13.59375 C 11.103816 13.59375 11.59375 13.103816 11.59375 12.5 L 11.59375 12 A 0.60899351 0.60899351 0 0 0 11 11.40625 L 5 11.40625 A 0.60899351 0.60899351 0 0 0 4.84375 11.40625 z M 5 12 L 11 12 L 11 12.5 C 11 12.777 10.777 13 10.5 13 L 5.5 13 C 5.223 13 5 12.777 5 12.5 L 5 12 z " id="path3833" opacity="0.3"/>
 </g>
</svg>
