<?xml version="1.0" encoding="UTF-8" standalone="no"?>
<svg xmlns="http://www.w3.org/2000/svg" xmlns:xlink="http://www.w3.org/1999/xlink" xmlns:sodipodi="http://sodipodi.sourceforge.net/DTD/sodipodi-0.dtd" xmlns:inkscape="http://www.inkscape.org/namespaces/inkscape" width="16" height="16" version="1.0">
 <defs id="defs4">
  <linearGradient inkscape:collect="always" xlink:href="#StandardGradient" id="linearGradient2428" gradientUnits="userSpaceOnUse" gradientTransform="matrix(0.9247229,0,0,1.0872097,10.939944,-2.0023588)" y1="3.681" x2="0" y2="16.53"/>
  <linearGradient id="StandardGradient" gradientTransform="scale(0.9219544,1.0846523)" y1="0.922" x2="0" y2="19.387" gradientUnits="userSpaceOnUse">
   <stop id="stop3283" stop-opacity="0.235"/>
   <stop offset="1" id="stop2651" stop-opacity="0.549"/>
  </linearGradient>
  <linearGradient inkscape:collect="always" xlink:href="#StandardGradient" id="linearGradient2549" gradientUnits="userSpaceOnUse" gradientTransform="matrix(0.9247229,0,0,1.0872097,-2.0600562,0.9976422)" y1="0.922" x2="0" y2="17.478"/>
  <linearGradient inkscape:collect="always" xlink:href="#StandardGradient" id="linearGradient2418" gradientUnits="userSpaceOnUse" gradientTransform="matrix(0.9247229,0,0,1.0872097,-4.0600562,-3.0023583)" y1="0.922" x2="0" y2="17.478"/>
  <linearGradient inkscape:collect="always" xlink:href="#StandardGradient" id="linearGradient2422" gradientUnits="userSpaceOnUse" gradientTransform="matrix(0.9247229,0,0,1.0872097,-5.0600562,-1.0023583)" y1="0.922" x2="0" y2="17.478"/>
  <linearGradient inkscape:collect="always" xlink:href="#StandardGradient" id="linearGradient2409" gradientUnits="userSpaceOnUse" gradientTransform="matrix(0.9247229,0,0,1.0872097,-6.0600562,-2.0023583)" y1="3.68" x2="0" y2="15.639"/>
  <linearGradient inkscape:collect="always" xlink:href="#StandardGradient" id="linearGradient2416" gradientUnits="userSpaceOnUse" gradientTransform="matrix(0.9247229,0,0,1.0872097,-6.0600562,-2.0023583)" y1="2.762" x2="0" y2="15.639"/>
  <linearGradient inkscape:collect="always" xlink:href="#StandardGradient" id="linearGradient2529" gradientUnits="userSpaceOnUse" gradientTransform="matrix(0.9247229,0,0,1.0872097,-4.0418814,0.9976412)" y1="3.681" x2="0" y2="16.53"/>
  <linearGradient inkscape:collect="always" xlink:href="#StandardGradient" id="linearGradient2942" gradientUnits="userSpaceOnUse" gradientTransform="matrix(0.9247229,0,0,1.0872097,-26.060056,-2.0023583)" y1="2.762" x2="0" y2="15.639"/>
  <clipPath id="clipPath2949">
   <path d="m -20,0 0,16 16,0 0,-16 -16,0 z m 3,1 3,0 c 0.554,0 1,0.446 1,1 l 6,0 c 0.554,0 1,0.446 1,1 l -12,0 0,-1 c 0,-0.554 0.446,-1 1,-1 z m -0.5,3 4,0 6,0 1,0 C -5.669,4 -5,4.669 -5,5.5 l 0,4.5 0,1.5 c 0,0.647488 -0.396277,1.195291 -0.96875,1.40625 l 0,0.15625 -0.03125,0 0,0.4375 c 0,0.831 -0.669,1.5 -1.5,1.5 l -6,0 c -0.831,0 -1.5,-0.669 -1.5,-1.5 l 0,-0.5 -2.5,0 c -0.831,0 -1.5,-0.669 -1.5,-1.5 l 0,-1.5 0,-4.5 C -19,4.669 -18.331,4 -17.5,4 z m 5,2 C -12.777,6 -13,6.223 -13,6.5 l 0,6 c 0,0.277 0.223,0.5 0.5,0.5 l 4,0 c 0.277,0 0.5,-0.223 0.5,-0.5 l 0,-6 C -8,6.223 -8.223,6 -8.5,6 l -4,0 z" id="path2951"/>
  </clipPath>
  <radialGradient inkscape:collect="always" xlink:href="#StandardGradient" id="radialGradient3798" cx="9" cy="9.875" r="7" gradientUnits="userSpaceOnUse" gradientTransform="matrix(2.1428571,5.7142857e-8,-3.047619e-8,1.1428571,-10.285714,-1.2857148)"/>
  <linearGradient id="StandardGradient-4" y1="6" x2="0" y2="16.01" gradientUnits="userSpaceOnUse" gradientTransform="translate(-3,-2.9995677)">
   <stop id="stop3177" stop-opacity="0.863"/>
   <stop id="stop3179" offset="1" stop-opacity="0.471"/>
  </linearGradient>
  <radialGradient inkscape:collect="always" xlink:href="#StandardGradient" id="radialGradient3831" cx="9" cy="10.923" r="7.5" gradientTransform="matrix(1.4666667,0,0,0.93333329,-4.2,-0.19460792)" gradientUnits="userSpaceOnUse"/>
 </defs>
 <metadata id="metadata7"/>
 <g inkscape:label="Calque 1" id="layer1" inkscape:groupmode="layer">
  <path inkscape:connector-curvature="0" d="m 5.8125,1.0312503 a 0.97465509,0.97465509 0 0 0 -0.46875,0.25 l -6,5.5 a 0.97465509,0.97465509 0 0 0 0,1.4375 l 6,5.4687497 A 0.97465509,0.97465509 0 0 0 6,13.9375 l 9,0 a 0.97465509,0.97465509 0 0 0 0.96875,-0.96875 l 0,-10.9687497 A 0.97465509,0.97465509 0 0 0 15,1.0312503 l -9,0 a 0.97465509,0.97465509 0 0 0 -0.1875,0 z M 6,2.0000003 l 9,0 0,10.9687497 -9,0 -6,-5.4687497 6,-5.5 z m 1.40625,2 L 6,5.4062503 8.09375,7.5000003 6,9.5937503 7.40625,11 9.4999999,8.9062503 11.59375,11 13,9.5937503 10.90625,7.5000003 13,5.4062503 11.59375,4.0000003 9.4999999,6.0937503 7.40625,4.0000003 z m 0,1.375 1.40625,1.40625 a 0.97465509,0.97465509 0 0 0 1.375,0 l 1.40625,-1.40625 0.03125,0.03125 -1.40625,1.40625 a 0.97465509,0.97465509 0 0 0 0,1.375 l 1.40625,1.40625 -0.03125,0.03125 -1.40625,-1.40625 a 0.97465509,0.97465509 0 0 0 -1.375,0 l -1.40625,1.40625 -0.03125,-0.03125 1.40625,-1.40625 a 0.97465509,0.97465509 0 0 0 0,-1.375 L 7.375,5.4062503 7.40625,5.3750003 z" id="path3209" opacity="0.05" fill="#ffffff"/>
  <path inkscape:connector-curvature="0" d="m 6,2.0000003 -6,5.5000003 6,5.4722724 9,0 0,-10.9722727 -9,0 z m 1.40625,2 2.0937499,2.09375 L 11.59375,4.0000003 13,5.4062503 10.90625,7.5000006 13,9.5937506 11.59375,11.000001 9.4999999,8.9062506 7.40625,11.000001 6,9.5937506 8.09375,7.5000006 6,5.4062503 7.40625,4.0000003 z" id="Symbol" sodipodi:nodetypes="ccccccccccccccccccc" fill="url(#radialGradient3831)"/>
  <path inkscape:connector-curvature="0" d="m 6,2.0000003 -6,5.5 0.5625,0.5 5.4375,-4.96875 9,0 0,-1.03125 -9,0 z m 0.5,3.9375 -0.5,0.5 1.5625,1.5625 0.53125,-0.5 L 6.5,5.9375003 z m 6,0 -1.59375,1.5625 0.53125,0.5 1.5625,-1.5625 -0.5,-0.5 z M 9.4999999,8.9062503 7.40625,11 6.5,10.125 6,10.625 7.40625,12.03125 9.4999999,9.9375003 11.59375,12.03125 13,10.625 12.5,10.125 11.59375,11 9.4999999,8.9062503 z" id="BevelShadow" sodipodi:nodetypes="cccccccccccccccccccccccccccc" opacity="0.3"/>
  <path inkscape:connector-curvature="0" d="M 7.40625,4.0000003 6,5.4062503 l 0.5,0.53125 0.90625,-0.90625 2.0937499,2.09375 2.0937501,-2.09375 0.90625,0.90625 0.5,-0.53125 -1.40625,-1.40625 -2.0937501,2.09375 L 7.40625,4.0000003 z M 0,7.5000003 0,8.5312503 6,14 l 9,0 0,-1.03125 -9,0 -6,-5.4687497 z m 8.09375,0 L 6,9.5937503 6.5,10.125 8.09375,8.5312503 l 0,-1.03125 z m 2.8125,0 0,1.03125 L 12.5,10.125 13,9.5937503 10.90625,7.5000003 z" id="BevelHighlight" sodipodi:nodetypes="cccccccccccccccccccccccccccc" opacity="0.2" fill="#ffffff"/>
  <path d="M 6 2 L 0 7.5 L 6 12.96875 L 15 12.96875 L 15 2 L 6 2 z M 6.1875 2.53125 L 14.46875 2.53125 L 14.46875 12.4375 L 6.1875 12.4375 L 0.75 7.5 L 6.1875 2.53125 z M 7.3125 3.46875 A 0.52714332 0.52714332 0 0 0 7.03125 3.625 L 5.625 5.03125 A 0.52714332 0.52714332 0 0 0 5.625 5.78125 L 7.34375 7.5 L 5.625 9.21875 A 0.52714332 0.52714332 0 0 0 5.625 9.96875 L 7.03125 11.375 A 0.52714332 0.52714332 0 0 0 7.78125 11.375 L 9.5 9.65625 L 11.21875 11.375 A 0.52714332 0.52714332 0 0 0 11.96875 11.375 L 13.375 9.96875 A 0.52714332 0.52714332 0 0 0 13.375 9.21875 L 11.65625 7.5 L 13.375 5.78125 A 0.52714332 0.52714332 0 0 0 13.375 5.03125 L 11.96875 3.625 A 0.52714332 0.52714332 0 0 0 11.21875 3.625 L 9.5 5.34375 L 7.78125 3.625 A 0.52714332 0.52714332 0 0 0 7.3125 3.46875 z M 7.40625 4 L 9.5 6.09375 L 11.59375 4 L 13 5.40625 L 10.90625 7.5 L 13 9.59375 L 11.59375 11 L 9.5 8.90625 L 7.40625 11 L 6 9.59375 L 8.09375 7.5 L 6 5.40625 L 7.40625 4 z " id="path3833" opacity="0.3"/>
 </g>
</svg>
