<?xml version="1.0" encoding="UTF-8" standalone="no"?>
<svg xmlns="http://www.w3.org/2000/svg" xmlns:xlink="http://www.w3.org/1999/xlink" xmlns:sodipodi="http://sodipodi.sourceforge.net/DTD/sodipodi-0.dtd" xmlns:inkscape="http://www.inkscape.org/namespaces/inkscape" width="16" height="16" version="1.0">
 <defs id="defs4">
  <linearGradient gradientUnits="userSpaceOnUse" y2="19.387" x2="0" y1="0.922" gradientTransform="scale(0.9219544,1.0846523)" id="linearGradient4183">
   <stop id="stop4185" stop-opacity="0.235"/>
   <stop id="stop4187" offset="1" stop-opacity="0.549"/>
  </linearGradient>
  <linearGradient id="StandardGradient" gradientTransform="scale(0.9219544,1.0846523)" y1="0.922" x2="0" y2="19.387" gradientUnits="userSpaceOnUse">
   <stop id="stop3283" stop-opacity="0.863"/>
   <stop offset="1" id="stop2651" stop-opacity="0.471"/>
  </linearGradient>
  <linearGradient inkscape:collect="always" xlink:href="#StandardGradient" id="linearGradient2549" gradientUnits="userSpaceOnUse" gradientTransform="matrix(0.9247229,0,0,1.0872097,-2.0600562,0.9976422)" y1="0.922" x2="0" y2="17.478"/>
  <linearGradient inkscape:collect="always" xlink:href="#StandardGradient" id="linearGradient2418" gradientUnits="userSpaceOnUse" gradientTransform="matrix(0.9247229,0,0,1.0872097,-4.0600562,-3.0023583)" y1="0.922" x2="0" y2="17.478"/>
  <linearGradient inkscape:collect="always" xlink:href="#StandardGradient" id="linearGradient2422" gradientUnits="userSpaceOnUse" gradientTransform="matrix(0.9247229,0,0,1.0872097,-5.0600562,-1.0023583)" y1="0.922" x2="0" y2="17.478"/>
  <linearGradient inkscape:collect="always" xlink:href="#StandardGradient" id="linearGradient2409" gradientUnits="userSpaceOnUse" gradientTransform="matrix(0.9247229,0,0,1.0872097,-6.0600562,-2.0023583)" y1="3.68" x2="0" y2="15.639"/>
  <linearGradient inkscape:collect="always" xlink:href="#StandardGradient" id="linearGradient3634" gradientUnits="userSpaceOnUse" gradientTransform="matrix(0.9247229,0,0,1.0872097,-26.060056,-2.0023583)" y1="2.762" x2="0" y2="15.639"/>
  <clipPath id="clipPath3641">
   <path d="m -20,0 0,16 16,0 0,-16 -16,0 z m 3,1 3,0 c 0.554,0 1,0.446 1,1 l 6,0 c 0.554,0 1,0.446 1,1 l -12,0 0,-1 c 0,-0.554 0.446,-1 1,-1 z m -0.5,3 11,0 C -5.669,4 -5,4.669 -5,5.5 l 0,6 c 0,0.831 -0.669,1.5 -1.5,1.5 l -5.5,0 0,-3 -2,0 0,-2 -4,0 0,2 -1,0 0,-4.5 C -19,4.669 -18.331,4 -17.5,4 z m 0.5,5 2,0 0,2 2,0 0,2 -2,0 0,2 -2,0 0,-2 -2,0 0,-2 2,0 0,-2 z" id="path3643"/>
  </clipPath>
  <linearGradient inkscape:collect="always" xlink:href="#StandardGradient" id="linearGradient3204" gradientUnits="userSpaceOnUse" gradientTransform="matrix(0.9247229,0,0,1.0872097,-6.0600562,-2.0023583)" y1="2.762" x2="0" y2="15.639"/>
  <linearGradient inkscape:collect="always" xlink:href="#StandardGradient" id="linearGradient3126" gradientUnits="userSpaceOnUse" gradientTransform="matrix(0.9247229,0,0,1.0872097,-1.0600562,3.9976417)" y1="-2.757" x2="0" y2="10.12"/>
  <linearGradient inkscape:collect="always" xlink:href="#StandardGradient" id="linearGradient3954" gradientUnits="userSpaceOnUse" gradientTransform="matrix(0.9247229,0,0,1.0872097,-1.0600562,3.9976417)" y1="2.762" x2="0" y2="10.12"/>
  <radialGradient inkscape:collect="always" xlink:href="#linearGradient4183" id="radialGradient4182" cx="7.5" cy="8.125" r="7" gradientUnits="userSpaceOnUse" gradientTransform="matrix(2,1.2072911e-7,-6.0364546e-8,0.99999995,-7.9999995,-0.12500092)"/>
 </defs>
 <metadata id="metadata7"/>
 <g inkscape:label="Calque 1" id="layer1" inkscape:groupmode="layer">
  <path d="M 8 6.03125 C 7.1984592 6.03125 6.6107626 6.6101519 6.3125 7.3125 C 5.6101519 7.6107626 5.03125 8.1984592 5.03125 9 L 5.03125 14 C 5.03125 15.065783 5.9342175 15.96875 7 15.96875 L 14 15.96875 C 15.065783 15.96875 15.96875 15.065783 15.96875 14 L 15.96875 9 C 15.96875 7.9342175 15.065783 7.03125 14 7.03125 L 13 7.03125 L 11.5625 7.03125 C 11.214875 6.4769473 10.692039 6.03125 10 6.03125 L 8 6.03125 z M 8 7 L 10 7 C 10.554 7 11 7.446 11 8 L 13 8 L 14 8 C 14.554 8 15 8.446 15 9 L 15 14 C 15 14.554 14.554 15 14 15 L 7 15 C 6.446 15 6 14.554 6 14 L 6 9 C 6 8.446 6.446 8 7 8 C 7 7.446 7.446 7 8 7 z " id="path3956" opacity="0.05" fill="#ffffff"/>
  <path d="M 3,1 C 2.446,1 2,1.446 2,2 1.446,2 1,2.446 1,3 L 1,8 C 1,8.554 1.446,9 2,9 L 5.03125,9 C 5.03125,8.1984592 5.6101519,7.6107626 6.3125,7.3125 6.6107626,6.6101519 7.1984592,6.03125 8,6.03125 l 2,0 L 10,3 C 10,2.446 9.554,2 9,2 L 8,2 6,2 C 6,1.446 5.554,1 5,1 L 3,1 z" id="path3946" opacity="0.3"/>
  <path d="m 6,14 0,1 c 0,0.554 0.446,1 1,1 l 7,0 c 0.554,0 1,-0.446 1,-1 l 0,-1 c 0,0.554 -0.446,1 -1,1 L 7,15 C 6.446,15 6,14.554 6,14 z" id="path3905" inkscape:connector-curvature="0" sodipodi:nodetypes="csssscssc" opacity="0.2" fill="#ffffff"/>
  <path inkscape:connector-curvature="0" d="m 6.3125,7.3125002 c 7.791667,3.7916668 3.895833,1.895833 0,0 z M 8,7 C 7.446,7 7,7.4460002 7,8.0000002 c -0.554,0 -1,0.446 -1,1 L 6,14 c 0,0.554 0.446,1 1,1 l 7,0 c 0.554,0 1,-0.446 1,-1 l 0,-4.9999998 c 0,-0.554 -0.446,-1 -1,-1 l -1,0 -2,0 C 11,7.4460002 10.554,7 10,7 Z" id="path3093-2" sodipodi:nodetypes="ccscsssssssccss" fill="url(#radialGradient4182)"/>
  <path inkscape:connector-curvature="0" d="m 10,7 0,0.03125 -2,0 C 7.9218,7.03125 7.855308,7.0519 7.78125,7.0625 7.72824,7.07525 7.674296,7.07297 7.625,7.09375 7.265844,7.245156 7,7.5845 7,8 6.747701,8 6.519325,8.09692 6.34375,8.25 6.33415,8.27112 6.32157,8.29114 6.3125,8.3125 6.29114,8.3216 6.27112,8.33414 6.25,8.34375 6.096923,8.519325 6,8.747701 6,9 l 0,1 C 6,9.446 6.446,9 7,9 7,8.446 7.446,8 8,8 l 2,0 c 0.554,0 1,0.446 1,1 l 2,0 1,0 c 0.554,0 1,0.446 1,1 L 15,9 C 15,8.446 14.554,8 14,8 L 13,8 11,8 C 11,7.446 10.554,7 10,7 Z" id="path3128-6" sodipodi:nodetypes="ccsccccccsccssccscssccc" opacity="0.3"/>
 </g>
</svg>
