<?xml version="1.0" encoding="UTF-8" standalone="no"?>
<svg xmlns="http://www.w3.org/2000/svg" xmlns:xlink="http://www.w3.org/1999/xlink" xmlns:sodipodi="http://sodipodi.sourceforge.net/DTD/sodipodi-0.dtd" xmlns:inkscape="http://www.inkscape.org/namespaces/inkscape" width="16" height="16" version="1.0">
 <defs id="defs4">
  <linearGradient gradientUnits="userSpaceOnUse" y2="18.974" x2="0" y1="1.996" gradientTransform="matrix(0.9984539,0,0,0.9984539,-0.0459776,0.05767558)" id="linearGradient4203">
   <stop id="stop4205" stop-opacity="0.235"/>
   <stop id="stop4207" offset="1" stop-opacity="0.549"/>
  </linearGradient>
  <linearGradient id="StandardGradient" gradientTransform="scale(0.9219544,1.0846523)" y1="0.922" x2="0" y2="19.387" gradientUnits="userSpaceOnUse">
   <stop id="stop3283" stop-opacity="0.863"/>
   <stop offset="1" id="stop2651" stop-opacity="0.471"/>
  </linearGradient>
  <linearGradient inkscape:collect="always" xlink:href="#StandardGradient" id="linearGradient2549" gradientUnits="userSpaceOnUse" gradientTransform="matrix(0.9247229,0,0,1.0872097,-2.0600562,0.9976422)" y1="0.922" x2="0" y2="17.478"/>
  <linearGradient inkscape:collect="always" xlink:href="#StandardGradient" id="linearGradient2418" gradientUnits="userSpaceOnUse" gradientTransform="matrix(0.9247229,0,0,1.0872097,-3.0600562,-3.0023583)" y1="0.922" x2="0" y2="17.478"/>
  <linearGradient inkscape:collect="always" xlink:href="#StandardGradient" id="linearGradient2422" gradientUnits="userSpaceOnUse" gradientTransform="matrix(0.9247229,0,0,1.0872097,-5.0600562,-1.0023583)" y1="0.922" x2="0" y2="17.478"/>
  <linearGradient inkscape:collect="always" xlink:href="#StandardGradient" id="linearGradient2401" gradientUnits="userSpaceOnUse" gradientTransform="matrix(0.9247229,0,0,1.0872097,-4.0600562,-4.0023583)" y1="3.681" x2="0" y2="16.53"/>
  <linearGradient inkscape:collect="always" xlink:href="#StandardGradient" id="linearGradient2843" gradientUnits="userSpaceOnUse" gradientTransform="matrix(0.9247229,0,0,1.0872097,-3.0600562,-3.0336083)" y1="3.681" x2="0" y2="16.53"/>
  <linearGradient inkscape:collect="always" xlink:href="#StandardGradient" id="linearGradient2864" gradientUnits="userSpaceOnUse" gradientTransform="matrix(0.9247229,0,0,1.0872097,-5.0600562,-4.0023583)" y1="3.681" x2="0" y2="16.53"/>
  <linearGradient inkscape:collect="always" xlink:href="#StandardGradient" id="linearGradient2873" gradientUnits="userSpaceOnUse" gradientTransform="matrix(0.9247229,0,0,1.0872097,-3.0600562,-2.0336083)" y1="3.681" x2="0" y2="16.53"/>
  <linearGradient inkscape:collect="always" xlink:href="#StandardGradient" id="linearGradient3648" gradientUnits="userSpaceOnUse" gradientTransform="matrix(0.9247229,0,0,1.0872097,-23.060056,-3.0336083)" y1="3.681" x2="0" y2="16.53"/>
  <clipPath id="clipPath3655">
   <path d="m -20,0 0,16 16,0 0,-16 -16,0 z m 5,0.96875 9,9.03125 0,3 -3,0 -9,-9 3,-3.03125 z M -8,10 l 0,1 -1,0 0,1 1,0 1,0 0,-1 0,-1 -1,0 z m -9,3 c 0.552,0 1,0.448 1,1 0,0.552 -0.448,1 -1,1 -0.552,0 -1,-0.448 -1,-1 0,-0.552 0.448,-1 1,-1 z m 3,0 c 0.552,0 1,0.448 1,1 0,0.552 -0.448,1 -1,1 -0.552,0 -1,-0.448 -1,-1 0,-0.552 0.448,-1 1,-1 z m 3,0 c 0.552,0 1,0.448 1,1 0,0.552 -0.448,1 -1,1 -0.552,0 -1,-0.448 -1,-1 0,-0.552 0.448,-1 1,-1 z" id="path3657"/>
  </clipPath>
  <linearGradient inkscape:collect="always" xlink:href="#StandardGradient-2" id="linearGradient3818" gradientUnits="userSpaceOnUse" gradientTransform="matrix(0.9984539,0,0,0.9984539,0.9540224,2.0576756)" y1="1.996" x2="0" y2="18.974"/>
  <linearGradient id="StandardGradient-2" gradientTransform="matrix(0.9984539,0,0,0.9984539,-0.0459776,0.05767558)" y1="1.996" x2="0" y2="18.974" gradientUnits="userSpaceOnUse">
   <stop id="stop3277-0" stop-opacity="0.863"/>
   <stop offset="1" id="stop3279-6" stop-opacity="0.471"/>
  </linearGradient>
  <linearGradient y2="18.974" x2="0" y1="1.996" gradientTransform="matrix(0.9984539,0,0,0.9984539,-1.0459776,-3.9423244)" gradientUnits="userSpaceOnUse" id="linearGradient3868" xlink:href="#StandardGradient-2" inkscape:collect="always"/>
  <linearGradient inkscape:collect="always" xlink:href="#StandardGradient-2" id="linearGradient3055" gradientUnits="userSpaceOnUse" gradientTransform="matrix(0.9984539,0,0,0.9984539,-1.0459776,-2.9423244)" y1="1.996" x2="0" y2="18.974"/>
  <linearGradient inkscape:collect="always" xlink:href="#StandardGradient-2" id="linearGradient3848" gradientUnits="userSpaceOnUse" gradientTransform="matrix(-0.9984539,0,0,0.9984539,17.045978,-3.9423244)" y1="4.95" x2="0" y2="18.974"/>
  <linearGradient inkscape:collect="always" xlink:href="#StandardGradient-2" id="linearGradient2882" gradientUnits="userSpaceOnUse" gradientTransform="matrix(-1.2222222,0,0,1,24.222222,-3)" y1="4" x2="0" y2="18.04"/>
  <linearGradient y2="18.04" x2="0" y1="4" gradientTransform="matrix(1.2222222,0,0,1,-8.222222,-3)" gradientUnits="userSpaceOnUse" id="linearGradient3070" xlink:href="#StandardGradient-2" inkscape:collect="always"/>
  <linearGradient inkscape:collect="always" xlink:href="#StandardGradient-2" id="linearGradient3078" gradientUnits="userSpaceOnUse" gradientTransform="matrix(-0.9984539,0,0,0.9984539,17.045978,-2.9423244)" y1="4.95" x2="0" y2="18.974"/>
  <linearGradient inkscape:collect="always" xlink:href="#StandardGradient-2" id="linearGradient3082" gradientUnits="userSpaceOnUse" gradientTransform="matrix(-0.9984539,0,0,0.9984539,-2.954022,-3.9423244)" y1="4.95" x2="0" y2="18.974"/>
  <linearGradient inkscape:collect="always" xlink:href="#StandardGradient-2" id="linearGradient3093" gradientUnits="userSpaceOnUse" gradientTransform="matrix(0.9984539,0,0,0.9984539,-14.045978,-3.9423244)" y1="4.95" x2="0" y2="18.974"/>
  <radialGradient inkscape:collect="always" xlink:href="#linearGradient4203" id="radialGradient4201" cx="8" cy="8" r="7" gradientUnits="userSpaceOnUse" gradientTransform="matrix(1.8571428,0,0,1,-6.8571421,-4.5805734e-8)"/>
 </defs>
 <metadata id="metadata7"/>
 <g inkscape:label="Calque 1" id="layer1" inkscape:groupmode="layer">
  <path d="m 10.78125,0 c -0.190664,0.04263016 -0.364559,0.14044622 -0.5,0.28125 l -8,8 C 2.1854027,8.3795177 2.1109248,8.4965544 2.0625,8.625 l -2,5 c -0.36790793,0.831729 0.48077145,1.680408 1.3125,1.3125 l 5,-2 c 0.1284456,-0.04842 0.2454823,-0.122903 0.34375,-0.21875 L 7,12.4375 7,13 c -0.00277,0.553429 0.4465714,1.002771 1,1 l 2,0 0,1 c -0.00442,0.788753 0.866825,1.268827 1.53125,0.84375 l 4,-2.5 c 0.623482,-0.389731 0.623482,-1.297769 0,-1.6875 l -4,-2.5 C 10.866825,8.7311733 9.9955801,9.2112471 10,10 l 0,1 -1.5625,0 6.28125,-6.28125 c 0.409239,-0.3917878 0.409239,-1.0457122 0,-1.4375 l -3,-3 C 11.49738,0.06002714 11.18483,-0.04415636 10.875,0 10.843767,-0.00147298 10.812483,-0.00147298 10.78125,0 Z M 11,1 14,4 6,12 1,14 3,9 Z M 4.96875,8.96875 3.96875,10 3,12 5.03125,11.0625 6,10.03125 Z M 11,10 l 4,2.5 -4,2.5 0,-2 -3,0 0,-1 3,0 z" id="path3893" inkscape:connector-curvature="0" sodipodi:nodetypes="ccccccccccccccccccccccccccccccccccccccccccccc" opacity="0.05" fill="#ffffff"/>
  <path d="M 11,1 3,9 1,14 6,12 14,4 Z M 4.96875,8.96875 6,10.03125 5.03125,11.0625 3,12 3.96875,10 Z M 11,10 l 0,2 -3,0 0,1 3,0 0,2 4,-2.5 z" id="path3801" inkscape:connector-curvature="0" sodipodi:nodetypes="cccccccccccccccccccc" fill="url(#radialGradient4201)"/>
  <path d="M 11,1 3,9 1,14 1.46875,13.8125 3,10 11,2 13.5,4.5 14,4 Z m 0,9 0,1 3.1875,2 L 15,12.5 Z m -5.46875,0.53125 -0.5,0.53125 L 3.625,11.71875 3,13 5.03125,12.0625 6,11.03125 Z M 8,12 l 0,1 3,0 0,-1 z" id="path3101" inkscape:connector-curvature="0" sodipodi:nodetypes="cccccccccccccccccccccccccc" opacity="0.3"/>
  <path d="M 13.5,4.5 6,12 1.46875,13.8125 1,15 6,13 14,5 Z M 4.96875,8.96875 3.96875,10 3,12 3.625,11.71875 3.96875,11 l 1,-1.03125 0.5625,0.5625 L 6,10.03125 Z M 8,13 l 0,1 3,0 0,-1 z m 6.1875,0 -3.1875,2 0,1 4,-2.5 z" id="path3878" inkscape:connector-curvature="0" sodipodi:nodetypes="cccccccccccccccccccccccccc" opacity="0.2" fill="#ffffff"/>
  <path d="M 11,1 3,9 1,14 6,12 14,4 11,1 Z M 11,1.8476562 13.152344,4 5.662109,11.488281 4.75,11.853516 5.388672,11.558594 6.830078,10.025391 4.96875,8.1074219 4.537109,8.5507812 3.470703,9.6523438 2.982422,10.658203 3.511719,9.3378906 11,1.8476562 Z M 4.96875,8.96875 6,10.03125 5.03125,11.0625 3,12 l 0.96875,-2 1,-1.03125 z M 11,10 l 0,2 -3,0 0,1 3,0 0,2 4,-2.5 -4,-2.5 z m 0.599609,1.083984 2.265625,1.416016 -2.265625,1.416016 0,-1.316407 0,-0.199218 0,-1.316407 z" id="path3801-7" inkscape:connector-curvature="0" shape-rendering="auto" mix-blend-mode="normal" color-interpolation-filters="linearRGB" isolation="auto" white-space="normal" opacity="0.3" solid-opacity="1" image-rendering="auto" solid-color="#000000" color="#000000" stroke-width="1.2" color-rendering="auto" color-interpolation="sRGB"/>
 </g>
</svg>
