<?xml version="1.0" encoding="UTF-8" standalone="no"?>
<svg xmlns="http://www.w3.org/2000/svg" xmlns:xlink="http://www.w3.org/1999/xlink" xmlns:sodipodi="http://sodipodi.sourceforge.net/DTD/sodipodi-0.dtd" xmlns:inkscape="http://www.inkscape.org/namespaces/inkscape" width="16" height="16" version="1.0">
 <defs id="defs4">
  <linearGradient gradientUnits="userSpaceOnUse" y2="18.974" x2="0" y1="1.996" gradientTransform="matrix(0.9984539,0,0,0.9984539,-0.0459776,0.05767558)" id="linearGradient4198">
   <stop id="stop4200" stop-opacity="0.235"/>
   <stop id="stop4202" offset="1" stop-opacity="0.549"/>
  </linearGradient>
  <linearGradient id="linearGradient4081">
   <stop id="stop4083" stop-color="#aaaaaa"/>
   <stop offset="1" id="stop4085" stop-color="#f0f0f0"/>
  </linearGradient>
  <linearGradient inkscape:collect="always" xlink:href="#linearGradient4081" id="linearGradient3527" gradientUnits="userSpaceOnUse" gradientTransform="translate(-39,0)" y1="16.3" x2="0" y2="6.05"/>
  <linearGradient inkscape:collect="always" xlink:href="#linearGradient4081" id="linearGradient3538" gradientUnits="userSpaceOnUse" gradientTransform="translate(-39,0)" y1="19.543" x2="0" y2="2.5"/>
  <linearGradient inkscape:collect="always" xlink:href="#linearGradient4081" id="linearGradient3540" gradientUnits="userSpaceOnUse" gradientTransform="translate(-39,0)" y1="17.419" x2="0" y2="4.625"/>
  <linearGradient inkscape:collect="always" xlink:href="#linearGradient4081" id="linearGradient3542" gradientUnits="userSpaceOnUse" gradientTransform="translate(-39,0)" y1="15.281" x2="0" y2="6.746"/>
  <linearGradient inkscape:collect="always" xlink:href="#linearGradient4081" id="linearGradient3266" x1="9" x2="14" gradientUnits="userSpaceOnUse" gradientTransform="matrix(0,-1,1,0,6,16)"/>
  <linearGradient inkscape:collect="always" xlink:href="#linearGradient4081" id="linearGradient3274" y1="20" x2="0" y2="7.969" gradientUnits="userSpaceOnUse"/>
  <linearGradient inkscape:collect="always" xlink:href="#linearGradient4081" id="linearGradient3180" y1="17.01" x2="0" y2="-0.7" gradientUnits="userSpaceOnUse"/>
  <linearGradient inkscape:collect="always" xlink:href="#linearGradient4081" id="linearGradient3611" gradientUnits="userSpaceOnUse" gradientTransform="matrix(0,1,-1,0,19.861161,-1.0000002)" x1="14" x2="1.958"/>
  <linearGradient inkscape:collect="always" xlink:href="#linearGradient4081" id="linearGradient3613" gradientUnits="userSpaceOnUse" gradientTransform="matrix(0,1,-1,0,19,2.9999999)" x1="14" x2="1.958"/>
  <linearGradient id="StandardGradient-1" gradientTransform="matrix(0.9984539,0,0,0.9984539,-0.0459776,0.05767558)" y1="1.996" x2="0" y2="18.974" gradientUnits="userSpaceOnUse">
   <stop id="stop3277-4" stop-opacity="0.863"/>
   <stop offset="1" id="stop3279-3" stop-opacity="0.471"/>
  </linearGradient>
  <linearGradient id="SpecificGradient-5" y1="4" x2="0" y2="18.01" gradientUnits="userSpaceOnUse">
   <stop id="stop3292-8" stop-color="#a50000"/>
   <stop offset="1" id="stop3294-0" stop-color="#e73800"/>
  </linearGradient>
  <linearGradient inkscape:collect="always" xlink:href="#StandardGradient-1" id="linearGradient3662" gradientUnits="userSpaceOnUse" gradientTransform="matrix(0,-1,-1,0,19,20)" x1="14" x2="1.958"/>
  <linearGradient inkscape:collect="always" xlink:href="#StandardGradient-1" id="linearGradient3666" gradientUnits="userSpaceOnUse" gradientTransform="matrix(0,-1,-1,0,19.861161,14)" x1="14" x2="1.958"/>
  <clipPath id="clipPath3676">
   <path d="m -29.138839,-5.0000001 0,22.0000001 21.9999997,0 0,-22.0000001 -21.9999997,0 z m 11,5 c 2.61165,0 4.832611,1.6692211 5.65625,4 l -2.21875,0 c -0.692339,-1.193787 -1.959054,-2 -3.4375,-2 -2.208,0 -4,1.792 -4,4 0,2.208 1.792,4 4,4 1.478446,0 2.745161,-0.806213 3.4375,-2 l 2.21875,0 C -13.306228,10.330778 -15.527189,12 -18.138839,12 c -3.312,0 -6,-2.6880001 -6,-6.0000001 0,-3.312 2.688,-6 6,-6 z m 1.5,5 5,0 c 0.277,0 0.5,0.223 0.5,0.5 l 0,1 c 0,0.277 -0.223,0.5 -0.5,0.5 l -5,0 c -0.277,0 -0.5,-0.223 -0.5,-0.5 l 0,-1 c 0,-0.277 0.223,-0.5 0.5,-0.5 z" id="path3678"/>
  </clipPath>
  <linearGradient inkscape:collect="always" xlink:href="#StandardGradient-1" id="linearGradient4388" gradientUnits="userSpaceOnUse" gradientTransform="matrix(-1,0,0,1,19.861161,18)" x1="14" x2="1.958"/>
  <linearGradient inkscape:collect="always" xlink:href="#StandardGradient-1" id="linearGradient4413" x1="7.551" x2="16.949" gradientUnits="userSpaceOnUse"/>
  <linearGradient inkscape:collect="always" xlink:href="#StandardGradient-1" id="linearGradient4427" gradientUnits="userSpaceOnUse" x1="7.551" x2="16.949" gradientTransform="matrix(0.5,0.8660254,0.96225044,-0.55555555,-4.7047195,2.8626093)"/>
  <linearGradient inkscape:collect="always" xlink:href="#StandardGradient-1" id="linearGradient4433" gradientUnits="userSpaceOnUse" x1="7.551" x2="16.949" gradientTransform="matrix(-0.5,0.8660254,-0.96225044,-0.55555555,28.427041,2.8626093)"/>
  <linearGradient inkscape:collect="always" xlink:href="#StandardGradient-1" id="linearGradient4442" gradientUnits="userSpaceOnUse" gradientTransform="matrix(0,-1,-1,0,16.861161,15)" x1="14" x2="1.958"/>
  <linearGradient inkscape:collect="always" xlink:href="#StandardGradient-1" id="linearGradient4444" gradientUnits="userSpaceOnUse" gradientTransform="matrix(0,-1,-1,0,16,19)" x1="14" x2="1.958"/>
  <linearGradient inkscape:collect="always" xlink:href="#StandardGradient-1" id="linearGradient13660" gradientUnits="userSpaceOnUse" gradientTransform="matrix(0,1,-1,0,16.861161,-2.0375775)" x1="14" x2="1.958"/>
  <radialGradient inkscape:collect="always" xlink:href="#linearGradient4198" id="radialGradient4196" cx="8.861" cy="10.875" r="6.563" gradientTransform="matrix(1.6761905,1.4402563e-7,-1.1783914e-7,1.3714285,-5.9918315,-3.9142868)" gradientUnits="userSpaceOnUse"/>
 </defs>
 <metadata id="metadata7"/>
 <g inkscape:label="Icon" inkscape:groupmode="layer" id="layer1" transform="translate(-0.8611607,-0.9999999)">
  <path d="m 7.6736607,1.0312499 a 0.95950285,0.95950285 0 0 0 -0.78125,0.96875 l 0,2.34375 0,1.15625 0,0.09375 -0.09375,-0.0625 -1,-0.5625 -2.03125,-1.1875 a 0.95950285,0.95950285 0 0 0 -1.3125,0.375 l -1,1.75 a 0.95950285,0.95950285 0 0 0 0.375,1.3125 l 2,1.125 0.03125,0.03125 0.96875,0.5625 a 0.95950285,0.95950285 0 0 0 0.03125,0.03125 l 0.0625,0.03125 -0.0625,0.03125 a 0.95950285,0.95950285 0 0 0 -0.03125,0.03125 l -0.96875,0.5625 -0.03125,0.03125 -2,1.1250001 a 0.95950285,0.95950285 0 0 0 -0.375,1.3125 l 1,1.75 a 0.95950285,0.95950285 0 0 0 1.3125,0.375 l 2.03125,-1.1875 1,-0.5625 0.09375,-0.0625 0,3.59375 a 0.95950285,0.95950285 0 0 0 0.96875,0.96875 l 2.0000003,0 A 0.95950285,0.95950285 0 0 0 10.829911,16 l 0,-3.59375 3.125,1.8125 a 0.95950285,0.95950285 0 0 0 1.3125,-0.375 l 1,-1.75 a 0.95950285,0.95950285 0 0 0 -0.375,-1.3125 l -3.0625,-1.7812501 3.0625,-1.78125 a 0.95950285,0.95950285 0 0 0 0.375,-1.3125 l -1,-1.75 a 0.95950285,0.95950285 0 0 0 -1.3125,-0.375 l -3.125,1.8125 0,-0.09375 0,-1.15625 0,-2.34375 a 0.95950285,0.95950285 0 0 0 -0.96875,-0.96875 l -2.0000003,0 a 0.95950285,0.95950285 0 0 0 -0.09375,0 0.95950285,0.95950285 0 0 0 -0.09375,0 z m 0.1875,0.96875 2.0000003,0 0,2.34375 0,1.15625 0,1.75 4.5625,-2.625 1,1.75 -4.53125,2.625 4.53125,2.6250001 -1,1.75 -4.5625,-2.625 0,5.25 -2.0000003,0 0,-5.25 -1.53125,0.875 -1,0.5625 -2.03125,1.1875 -1,-1.75 2.03125,-1.15625 1,-0.5937501 1.5,-0.875 -1.5,-0.875 -1,-0.59375 -2.03125,-1.15625 1,-1.75 2.03125,1.1875 1,0.5625 1.53125,0.875 0,-1.75 0,-1.15625 0,-2.34375 z" id="path4112" inkscape:connector-curvature="0" opacity="0.05" fill="#ffffff" color="#000000" stroke-width="2"/>
  <path d="m 7.8611607,1.9999999 0,2.34375 0,1.15625 0,1.75 -1.53125,-0.875 -1,-0.5625 -2.03125,-1.1875 -1,1.75 2.03125,1.15625 1,0.59375 1.5,0.875 -1.5,0.875 -1,0.5937501 -2.03125,1.15625 1,1.75 2.03125,-1.1875 1,-0.5625 1.53125,-0.875 0,5.25 2.0000003,0 0,-5.25 4.5625,2.625 1,-1.75 -4.53125,-2.6250001 4.53125,-2.625 -1,-1.75 -4.5625,2.625 0,-1.75 0,-1.15625 0,-2.34375 -2.0000003,0 z" id="path4054" inkscape:connector-curvature="0" fill="url(#radialGradient4196)" color="#000000" stroke-width="2"/>
  <path d="m 7.8611607,1.9999999 0,1 2.0000003,0 0,-1 -2.0000003,0 z m -4.5625,2.625 -1,1.75 0.4375,0.25 0.5625,-1 2.03125,1.1875 1,0.5625 1.53125,0.875 0,-1 -1.53125,-0.875 -1,-0.5625 -2.03125,-1.1875 z m 11.1250003,0 -4.5625,2.625 0,1 4.5625,-2.625 0.5625,1 0.4375,-0.25 -1,-1.75 z m -8.4375003,4.875 -0.65625,0.375 -1,0.5937501 -2.03125,1.15625 0.4375,0.75 1.59375,-0.90625 1,-0.59375 1.5,-0.8750001 -0.84375,-0.5 z m 5.7812503,0 -0.875,0.5 4.09375,2.3750001 0.4375,-0.75 -3.65625,-2.1250001 z" id="path4090" inkscape:connector-curvature="0" opacity="0.3" color="#000000" stroke-width="2"/>
  <path d="m 2.7361607,6.6249999 -0.4375,0.75 2.03125,1.15625 1,0.59375 0.65625,0.375 0.84375,-0.5 -1.5,-0.875 -1,-0.59375 -1.59375,-0.90625 z m 12.2500003,0 -4.09375,2.375 0.875,0.5 3.65625,-2.125 -0.4375,-0.75 z M 7.8611607,10.75 l -1.53125,0.875 -1,0.5625 -2.03125,1.1875 -0.5625,-1 -0.4375,0.25 1,1.75 2.03125,-1.1875 1,-0.5625 1.53125,-0.875 0,-1 z m 2.0000003,0 0,1 4.5625,2.625 1,-1.75 -0.4375,-0.25 -0.5625,1 -4.5625,-2.625 z M 7.8611607,16 l 0,1 2.0000003,0 0,-1 -2.0000003,0 z" id="path4099" inkscape:connector-curvature="0" opacity="0.2" fill="#ffffff" color="#000000" stroke-width="2"/>
  <path d="m 7.8611607,1.9999999 0,2.34375 0,1.15625 0,1.75 -1.53125,-0.875 -1,-0.5625 -2.03125,-1.1875 -1,1.75 2.03125,1.15625 1,0.59375 1.5,0.875 -1.5,0.875 -1,0.5937501 -2.03125,1.15625 1,1.75 2.03125,-1.1875 1,-0.5625 1.53125,-0.875 0,5.25 2,0 0,-5.25 4.5625003,2.625 1,-1.75 -4.53125,-2.6250001 4.53125,-2.625 -1,-1.75 -4.5625003,2.625 0,-1.75 0,-1.15625 0,-2.34375 -2,0 z m 0.599609,0.5996094 0.800782,0 0,1.7441406 0,1.15625 0,2.7871094 4.9394533,-2.8417969 0.40625,0.7089844 -4.9121103,2.8457031 4.9121103,2.8457031 -0.40625,0.708985 -4.9394533,-2.8417975 0,5.6875005 -0.800782,0 0,-5.6835942 -2.427734,1.3867192 -1.001953,0.564453 -1.511719,0.882812 -0.402344,-0.701172 1.513672,-0.861328 1.003907,-0.595703 2.386718,-1.3925781 -2.386718,-1.3925781 -1.003907,-0.5957031 -1.513672,-0.8613282 0.402344,-0.7011718 1.511719,0.8828124 1.001953,0.5644532 2.427734,1.3867187 0,-2.7832031 0,-1.15625 0,-1.7441406 z" id="path4054-5" inkscape:connector-curvature="0" shape-rendering="auto" mix-blend-mode="normal" color-interpolation-filters="linearRGB" isolation="auto" white-space="normal" opacity="0.3" solid-opacity="1" image-rendering="auto" solid-color="#000000" color="#000000" stroke-width="1.2" color-rendering="auto" color-interpolation="sRGB"/>
 </g>
</svg>
