<?xml version="1.0" encoding="UTF-8" standalone="no"?>
<svg xmlns="http://www.w3.org/2000/svg" xmlns:xlink="http://www.w3.org/1999/xlink" xmlns:sodipodi="http://sodipodi.sourceforge.net/DTD/sodipodi-0.dtd" xmlns:inkscape="http://www.inkscape.org/namespaces/inkscape" width="16" height="16" version="1.0">
 <defs id="defs4">
  <linearGradient id="StandardGradient" gradientTransform="scale(0.9219544,1.0846523)" y1="0.922" x2="0" y2="19.387" gradientUnits="userSpaceOnUse">
   <stop id="stop3283" stop-opacity="0.863"/>
   <stop offset="1" id="stop2651" stop-opacity="0.471"/>
  </linearGradient>
  <linearGradient inkscape:collect="always" xlink:href="#StandardGradient" id="linearGradient2549" gradientUnits="userSpaceOnUse" gradientTransform="matrix(0.9247229,0,0,1.0872097,-2.0600562,0.9976422)" y1="0.922" x2="0" y2="17.478"/>
  <linearGradient inkscape:collect="always" xlink:href="#StandardGradient" id="linearGradient2418" gradientUnits="userSpaceOnUse" gradientTransform="matrix(0.9247229,0,0,1.0872097,-4.0600562,-3.0023583)" y1="0.922" x2="0" y2="17.478"/>
  <linearGradient inkscape:collect="always" xlink:href="#StandardGradient" id="linearGradient2422" gradientUnits="userSpaceOnUse" gradientTransform="matrix(0.9247229,0,0,1.0872097,-5.0600562,-1.0023583)" y1="0.922" x2="0" y2="17.478"/>
  <linearGradient inkscape:collect="always" xlink:href="#StandardGradient" id="linearGradient2409" gradientUnits="userSpaceOnUse" gradientTransform="matrix(0.9247229,0,0,1.0872097,-5.0600562,-3.0023583)" y1="3.68" x2="0" y2="15.639"/>
  <linearGradient inkscape:collect="always" xlink:href="#StandardGradient" id="linearGradient3634" gradientUnits="userSpaceOnUse" gradientTransform="matrix(0.9247229,0,0,1.0872097,-26.060056,-2.0023583)" y1="3.68" x2="0" y2="15.639"/>
  <clipPath id="clipPath3641">
   <path d="m -20,0 0,16 16,0 0,-16 -16,0 z m 4.5,1 7,0 C -7.669,1 -7,1.669 -7,2.5 l 0,9 c 0,0.831 -0.669,1.5 -1.5,1.5 l -3.5,0 0,-2 2.5,0 c 0.277,0 0.5,-0.223 0.5,-0.5 l 0,-7 C -9,3.223 -9.223,3 -9.5,3 l -5,0 C -14.777,3 -15,3.223 -15,3.5 l 0,4.5 -2,0 0,-5.5 C -17,1.669 -16.331,1 -15.5,1 z m -1.5,8 2,0 0,2 2,0 0,2 -2,0 0,2 -2,0 0,-2 -2,0 0,-2 2,0 0,-2 z" id="path3643"/>
  </clipPath>
  <linearGradient inkscape:collect="always" xlink:href="#linearGradient3651" id="linearGradient3658" x1="10.735" y1="5.314" x2="12.246" y2="14.828" gradientUnits="userSpaceOnUse"/>
  <linearGradient id="linearGradient3651">
   <stop id="stop3653" stop-color="#f3840c"/>
   <stop offset="1" id="stop3655" stop-color="#f9ba3f"/>
  </linearGradient>
  <linearGradient inkscape:collect="always" xlink:href="#linearGradient3651" id="linearGradient3669" gradientUnits="userSpaceOnUse" x1="10.735" y1="5.314" x2="12.246" y2="14.828" gradientTransform="matrix(1.2833546,0.20377352,-0.20377352,1.2833546,-3.8671985,-7.5339788)"/>
  <linearGradient inkscape:collect="always" xlink:href="#linearGradient3651" id="linearGradient3674" gradientUnits="userSpaceOnUse" x1="10.735" y1="5.314" x2="12.246" y2="14.828" gradientTransform="matrix(1.2833546,0.20377352,-0.20377352,1.2833546,-3.8671985,-6.5339788)"/>
  <clipPath id="clipPath3690">
   <path d="M 3.8484606,5.2594695 5.7793653,17.420203 17.940098,15.489298 16.009194,3.3285649 3.8484606,5.2594695 z m 6.2576174,0.150865 2.166831,3.0649809 3.768212,-0.038268 -2.249089,3.0112919 1.198317,3.559666 -3.553003,-1.213415 -3.0023924,2.254294 0.036757,-3.755775 -3.0474804,-2.170292 3.5709806,-1.1270625 1.1108669,-3.58542 z" id="path3692"/>
  </clipPath>
  <filter inkscape:collect="always" id="filter3694">
   <feGaussianBlur inkscape:collect="always" stdDeviation="0.31492" id="feGaussianBlur3696"/>
  </filter>
 </defs>
 <metadata id="metadata7"/>
 <g inkscape:label="Calque 1" id="layer1" inkscape:groupmode="layer">
  <path d="M 7.9375 0.4375 A 1.0094547 1.0094547 0 0 0 7.09375 1.03125 L 5.1875 4.90625 L 0.875 5.5625 A 1.0094547 1.0094547 0 0 0 0.3125 7.28125 L 3.40625 10.28125 L 2.6875 14.59375 A 1.0094547 1.0094547 0 0 0 4.15625 15.65625 L 8 13.625 L 11.84375 15.6875 A 1.0094547 1.0094547 0 0 0 13.34375 14.59375 L 12.59375 10.28125 L 15.6875 7.28125 A 1.0094547 1.0094547 0 0 0 15.15625 5.5625 L 10.8125 4.90625 L 8.90625 1.03125 A 1.0094547 1.0094547 0 0 0 8.03125 0.4375 A 1.0094547 1.0094547 0 0 0 7.9375 0.4375 z M 8 1.46875 L 10.15625 5.84375 L 15 6.5625 L 11.5 9.96875 L 12.3125 14.78125 L 8 12.5 L 3.6875 14.78125 L 4.5 9.96875 L 1.03125 6.5625 L 5.84375 5.84375 L 8 1.46875 z " id="path5514" opacity="0.15" fill="#ffffff" color="#000000"/>
  <path sodipodi:type="star" id="path3649" sodipodi:sides="5" sodipodi:cx="11" sodipodi:cy="11" sodipodi:r1="5.6568542" sodipodi:r2="2.8284271" sodipodi:arg1="0.78539816" sodipodi:arg2="1.4137167" inkscape:flatsided="false" inkscape:rounded="0" inkscape:randomized="0" d="M 15,15 11.442463,13.793604 8.431842,16.040294 8.479853,12.284079 5.4127911,10.115073 9,9 10.115073,5.4127911 12.284079,8.479853 16.040294,8.4318419 13.793604,11.442463 15,15 z" transform="matrix(1.2833546,0.20377352,-0.20377352,1.2833546,-3.8671985,-7.5339788)" fill="url(#linearGradient3658)" color="#000000"/>
  <path d="M 8 1.46875 L 5.84375 5.84375 L 1.03125 6.5625 L 1.90625 7.4375 L 5.84375 6.84375 L 8 2.46875 L 10.15625 6.84375 L 14.09375 7.4375 L 15 6.5625 L 10.15625 5.84375 L 8 1.46875 z M 4.34375 10.8125 L 3.6875 14.78125 L 3.875 14.6875 L 4.5 10.96875 L 4.34375 10.8125 z M 11.65625 10.8125 L 11.5 10.96875 L 12.125 14.6875 L 12.3125 14.78125 L 11.65625 10.8125 z " id="path3663" opacity="0.5" fill="#d45500" color="#000000"/>
  <path d="M 1.90625 7.4375 L 1.03125 7.5625 L 4.34375 10.8125 L 4.5 9.96875 L 1.90625 7.4375 z M 14.09375 7.4375 L 11.5 9.96875 L 11.65625 10.8125 L 15 7.5625 L 14.09375 7.4375 z M 8 12.5 L 3.875 14.6875 L 3.6875 15.78125 L 8 13.5 L 12.3125 15.78125 L 12.125 14.6875 L 8 12.5 z " id="path3672" opacity="0.3" fill="#ffffff" color="#000000"/>
 </g>
</svg>
