<?xml version="1.0" encoding="UTF-8" standalone="no"?>
<svg xmlns="http://www.w3.org/2000/svg" xmlns:xlink="http://www.w3.org/1999/xlink" xmlns:sodipodi="http://sodipodi.sourceforge.net/DTD/sodipodi-0.dtd" xmlns:inkscape="http://www.inkscape.org/namespaces/inkscape" width="16" height="16" version="1.0">
 <defs id="defs4">
  <linearGradient inkscape:collect="always" xlink:href="#StandardGradient" id="linearGradient2428" gradientUnits="userSpaceOnUse" gradientTransform="matrix(0.9247229,0,0,1.0872097,10.939944,-2.0023588)" y1="3.681" x2="0" y2="16.53"/>
  <linearGradient id="StandardGradient" gradientTransform="scale(0.9219544,1.0846523)" y1="0.922" x2="0" y2="19.387" gradientUnits="userSpaceOnUse">
   <stop id="stop3283" stop-opacity="0.235"/>
   <stop offset="1" id="stop2651" stop-opacity="0.549"/>
  </linearGradient>
  <linearGradient inkscape:collect="always" xlink:href="#StandardGradient" id="linearGradient2549" gradientUnits="userSpaceOnUse" gradientTransform="matrix(0.9247229,0,0,1.0872097,-2.0600562,0.9976422)" y1="0.922" x2="0" y2="17.478"/>
  <linearGradient inkscape:collect="always" xlink:href="#StandardGradient" id="linearGradient2418" gradientUnits="userSpaceOnUse" gradientTransform="matrix(0.9247229,0,0,1.0872097,-4.0600562,-3.0023583)" y1="0.922" x2="0" y2="17.478"/>
  <linearGradient inkscape:collect="always" xlink:href="#StandardGradient" id="linearGradient2422" gradientUnits="userSpaceOnUse" gradientTransform="matrix(0.9247229,0,0,1.0872097,-5.0600562,-1.0023583)" y1="0.922" x2="0" y2="17.478"/>
  <linearGradient inkscape:collect="always" xlink:href="#StandardGradient" id="linearGradient2409" gradientUnits="userSpaceOnUse" gradientTransform="matrix(0.9247229,0,0,1.0872097,-6.0600562,-2.0023583)" y1="3.68" x2="0" y2="15.639"/>
  <linearGradient inkscape:collect="always" xlink:href="#StandardGradient" id="linearGradient2416" gradientUnits="userSpaceOnUse" gradientTransform="matrix(0.9247229,0,0,1.0872097,-6.0600562,-2.0023583)" y1="2.762" x2="0" y2="15.639"/>
  <linearGradient inkscape:collect="always" xlink:href="#StandardGradient" id="linearGradient2529" gradientUnits="userSpaceOnUse" gradientTransform="matrix(0.9247229,0,0,1.0872097,-4.0418814,0.9976412)" y1="3.681" x2="0" y2="16.53"/>
  <linearGradient inkscape:collect="always" xlink:href="#StandardGradient" id="linearGradient2942" gradientUnits="userSpaceOnUse" gradientTransform="matrix(0.9247229,0,0,1.0872097,-26.060056,-2.0023583)" y1="2.762" x2="0" y2="15.639"/>
  <clipPath id="clipPath2949">
   <path d="m -20,0 0,16 16,0 0,-16 -16,0 z m 3,1 3,0 c 0.554,0 1,0.446 1,1 l 6,0 c 0.554,0 1,0.446 1,1 l -12,0 0,-1 c 0,-0.554 0.446,-1 1,-1 z m -0.5,3 4,0 6,0 1,0 C -5.669,4 -5,4.669 -5,5.5 l 0,4.5 0,1.5 c 0,0.647488 -0.396277,1.195291 -0.96875,1.40625 l 0,0.15625 -0.03125,0 0,0.4375 c 0,0.831 -0.669,1.5 -1.5,1.5 l -6,0 c -0.831,0 -1.5,-0.669 -1.5,-1.5 l 0,-0.5 -2.5,0 c -0.831,0 -1.5,-0.669 -1.5,-1.5 l 0,-1.5 0,-4.5 C -19,4.669 -18.331,4 -17.5,4 z m 5,2 C -12.777,6 -13,6.223 -13,6.5 l 0,6 c 0,0.277 0.223,0.5 0.5,0.5 l 4,0 c 0.277,0 0.5,-0.223 0.5,-0.5 l 0,-6 C -8,6.223 -8.223,6 -8.5,6 l -4,0 z" id="path2951"/>
  </clipPath>
  <radialGradient inkscape:collect="always" xlink:href="#StandardGradient" id="radialGradient3798" cx="9" cy="9.875" r="7" gradientUnits="userSpaceOnUse" gradientTransform="matrix(2.1428571,5.7142857e-8,-3.047619e-8,1.1428571,-10.285714,-1.2857148)"/>
  <linearGradient inkscape:collect="always" xlink:href="#StandardGradient-5" id="linearGradient3654" y1="0.483" x2="0" y2="15.01" gradientUnits="userSpaceOnUse"/>
  <linearGradient id="StandardGradient-5" gradientTransform="scale(0.9219544,1.0846523)" y1="0.922" x2="0" y2="19.387" gradientUnits="userSpaceOnUse">
   <stop id="stop3283-0" stop-opacity="0.863"/>
   <stop offset="1" id="stop2651-4" stop-opacity="0.471"/>
  </linearGradient>
  <linearGradient inkscape:collect="always" xlink:href="#StandardGradient-5" id="linearGradient3063" gradientUnits="userSpaceOnUse" y1="0.483" x2="0" y2="15.01" gradientTransform="translate(0,-6)"/>
  <linearGradient inkscape:collect="always" xlink:href="#StandardGradient-5" id="linearGradient3065" gradientUnits="userSpaceOnUse" y1="0.483" x2="0" y2="15.01" gradientTransform="translate(0,6)"/>
  <radialGradient inkscape:collect="always" xlink:href="#StandardGradient" id="radialGradient3838" cx="9" cy="10" r="7" gradientUnits="userSpaceOnUse" gradientTransform="matrix(1.5714286,5.7142858e-8,-4.155844e-8,1.1428571,-5.1428567,-1.4285719)"/>
  <radialGradient inkscape:collect="always" xlink:href="#StandardGradient" id="radialGradient3844" gradientUnits="userSpaceOnUse" gradientTransform="matrix(1.5714286,5.7142858e-8,-4.155844e-8,1.1428571,-5.1428567,-0.4285719)" cx="9" cy="10" r="7"/>
 </defs>
 <metadata id="metadata7"/>
 <g inkscape:label="Calque 1" id="layer1" inkscape:groupmode="layer">
  <path d="M 4.875 0.03125 A 0.966874 0.966874 0 0 0 4.3125 0.3125 L 0.3125 4.3125 A 0.966874 0.966874 0 0 0 1 5.96875 L 2.03125 5.96875 L 2.03125 9 A 0.966874 0.966874 0 0 0 3 9.96875 L 7 9.96875 A 0.966874 0.966874 0 0 0 7.96875 9 L 7.96875 5.96875 L 9 5.96875 A 0.966874 0.966874 0 0 0 9.6875 4.3125 L 5.6875 0.3125 A 0.966874 0.966874 0 0 0 4.875 0.03125 z M 5 1 L 9 5 L 7 5 L 7 9 L 3 9 L 3 5 L 1 5 L 5 1 z M 8.8125 6.03125 A 0.966874 0.966874 0 0 0 8.03125 7 L 8.03125 10.03125 L 7 10.03125 A 0.966874 0.966874 0 0 0 6.3125 11.6875 L 10.3125 15.6875 A 0.966874 0.966874 0 0 0 11.6875 15.6875 L 15.6875 11.6875 A 0.966874 0.966874 0 0 0 15 10.03125 L 13.96875 10.03125 L 13.96875 7 A 0.966874 0.966874 0 0 0 13 6.03125 L 9 6.03125 A 0.966874 0.966874 0 0 0 8.90625 6.03125 A 0.966874 0.966874 0 0 0 8.8125 6.03125 z M 9 7 L 13 7 L 13 11 L 15 11 L 11 15 L 7 11 L 9 11 L 9 7 z " id="path3877" opacity="0.05" fill="#ffffff"/>
  <path d="M 5 1 L 1 5 L 3 5 L 3 9 L 7 9 L 7 5 L 9 5 L 5 1 z M 9 7 L 9 11 L 7 11 L 11 15 L 15 11 L 13 11 L 13 7 L 9 7 z " id="path3061" fill="url(#radialGradient3838)"/>
  <path d="M 5 1 L 1 5 L 3 5 L 3 9 L 7 9 L 7 5 L 9 5 L 5 1 z M 5 1.5 L 8.15625 4.65625 L 7 4.65625 A 0.35232824 0.35232824 0 0 0 6.65625 5 L 6.65625 8.65625 L 3.34375 8.65625 L 3.34375 5 A 0.35232824 0.35232824 0 0 0 3 4.65625 L 1.84375 4.65625 L 5 1.5 z M 9 7 L 9 11 L 7 11 L 11 15 L 15 11 L 13 11 L 13 7 L 9 7 z M 9.34375 7.34375 L 12.65625 7.34375 L 12.65625 11 A 0.35232824 0.35232824 0 0 0 13 11.34375 L 14.15625 11.34375 L 11 14.5 L 7.84375 11.34375 L 9 11.34375 A 0.35232824 0.35232824 0 0 0 9.34375 11 L 9.34375 7.34375 z " id="path3849" opacity="0.3"/>
  <path d="M 5 1 L 1 5 L 2 5 L 5 2 L 8 5 L 9 5 L 5 1 z M 9 7 L 9 8 L 13 8 L 13 7 L 9 7 z M 7 11 L 8 12 L 9 12 L 9 11 L 7 11 z M 13 11 L 13 12 L 14 12 L 15 11 L 13 11 z " id="path3840" opacity="0.3"/>
  <path d="M 2 5 L 1 6 L 3 6 L 3 5 L 2 5 z M 7 5 L 7 6 L 9 6 L 8 5 L 7 5 z M 3 9 L 3 10 L 7 10 L 7 9 L 3 9 z M 7 12 L 11 16 L 15 12 L 14 12 L 11 15 L 8 12 L 7 12 z " id="path3862" opacity="0.2" fill="#ffffff"/>
 </g>
</svg>
