<?xml version="1.0" encoding="UTF-8" standalone="no"?>
<svg xmlns="http://www.w3.org/2000/svg" xmlns:xlink="http://www.w3.org/1999/xlink" xmlns:sodipodi="http://sodipodi.sourceforge.net/DTD/sodipodi-0.dtd" xmlns:inkscape="http://www.inkscape.org/namespaces/inkscape" width="16" height="16" version="1.0">
 <defs id="defs4">
  <linearGradient id="StandardGradient" gradientTransform="scale(0.9219544,1.0846523)" y1="0.922" x2="0" y2="19.387" gradientUnits="userSpaceOnUse">
   <stop id="stop3283" stop-opacity="0.235"/>
   <stop offset="1" id="stop2651" stop-opacity="0.549"/>
  </linearGradient>
  <radialGradient inkscape:collect="always" xlink:href="#StandardGradient" id="radialGradient3798" cx="9" cy="9.875" r="7" gradientUnits="userSpaceOnUse" gradientTransform="matrix(2.1428571,5.7142857e-8,-3.047619e-8,1.1428571,-10.285714,-1.2857148)"/>
  <linearGradient id="StandardGradient-0" gradientTransform="scale(1.0023447,0.9976608)" y1="3.02" x2="0" y2="13.05" gradientUnits="userSpaceOnUse">
   <stop id="stop3284" stop-opacity="0.863"/>
   <stop id="stop3286" offset="1" stop-opacity="0.471"/>
  </linearGradient>
  <linearGradient inkscape:collect="always" xlink:href="#StandardGradient-0" id="linearGradient3835" gradientUnits="userSpaceOnUse" gradientTransform="scale(1.0023447,0.9976608)" y1="3.02" x2="0" y2="13.05"/>
  <radialGradient inkscape:collect="always" xlink:href="#StandardGradient" id="radialGradient3844" cx="9" cy="10.01" r="5.02" gradientTransform="matrix(2.1931464,4.8508338e-8,-2.6459092e-8,1.1962616,-10.738318,-1.9738052)" gradientUnits="userSpaceOnUse"/>
 </defs>
 <metadata id="metadata7"/>
 <g inkscape:label="Calque 1" id="layer1" inkscape:groupmode="layer">
  <path inkscape:connector-curvature="0" d="m 7.875,1.9374998 a 1.0490583,1.0490583 0 0 0 -0.6875,0.40625 l -5,6.03125 a 1.0490583,1.0490583 0 0 0 0.4375,1.625 A 1.0490583,1.0490583 0 0 0 1.9375,11 l 0,2 A 1.0490583,1.0490583 0 0 0 3,14.0625 l 10,0 A 1.0490583,1.0490583 0 0 0 14.0625,13 l 0,-2 A 1.0490583,1.0490583 0 0 0 13.375,10.03125 1.0490583,1.0490583 0 0 0 13.8125,8.3749998 l -5,-6.03125 a 1.0490583,1.0490583 0 0 0 -0.84375,-0.40625 1.0490583,1.0490583 0 0 0 -0.09375,0 z m 0.125,1.0625 5,6.03125 -10,0 5,-6.03125 z M 3,11 l 10,0 0,2 -10,0 0,-2 z" id="path4543" opacity="0.05" fill="#ffffff"/>
  <path inkscape:connector-curvature="0" id="Symbol" d="m 2.984375,9.0281948 5.0027051,-6.01257 5.0285449,6.01257 -10.03125,0 z M 3,11 l 10,0 0,2 -10,0 0,-2 z" sodipodi:nodetypes="ccccccccc" fill="url(#radialGradient3844)"/>
  <path inkscape:connector-curvature="0" d="m 8,2.9999998 -5,6.03125 0.84375,0 L 8,3.9999998 l 4.15625,5.03125 0.84375,0 -5,-6.03125 z M 3,11 l 0,1 10,0 0,-1 -10,0 z" id="BevelShadow" inkscape:label="#path3285" opacity="0.3"/>
  <path inkscape:connector-curvature="0" d="m 3.84375,9.03125 -0.84375,1 10,0 -0.84375,-1 -8.3125,0 z M 3,13 l 0,1 10,0 0,-1 -10,0 z" id="path2824" opacity="0.2" fill="#ffffff"/>
  <path d="M 8 3 L 3 9.03125 L 13 9.03125 L 8 3 z M 8 3.6875 L 12.03125 8.5625 L 3.96875 8.5625 L 8 3.6875 z M 3 11 L 3 13 L 13 13 L 13 11 L 3 11 z M 3.46875 11.46875 L 12.53125 11.46875 L 12.53125 12.53125 L 3.46875 12.53125 L 3.46875 11.46875 z " id="path3831" opacity="0.3"/>
 </g>
</svg>
