<?xml version="1.0" encoding="UTF-8" standalone="no"?>
<svg xmlns="http://www.w3.org/2000/svg" xmlns:xlink="http://www.w3.org/1999/xlink" xmlns:sodipodi="http://sodipodi.sourceforge.net/DTD/sodipodi-0.dtd" xmlns:inkscape="http://www.inkscape.org/namespaces/inkscape" width="16" height="16" version="1.0">
 <defs id="defs4">
  <linearGradient gradientUnits="userSpaceOnUse" y2="19.387" x2="0" y1="0.922" gradientTransform="scale(0.9219544,1.0846523)" id="linearGradient4190">
   <stop id="stop4192" stop-opacity="0.235"/>
   <stop id="stop4194" offset="1" stop-opacity="0.549"/>
  </linearGradient>
  <linearGradient inkscape:collect="always" id="linearGradient3681">
   <stop id="stop3683"/>
   <stop offset="1" id="stop3685" stop-opacity="0"/>
  </linearGradient>
  <linearGradient inkscape:collect="always" xlink:href="#StandardGradient" id="linearGradient2428" gradientUnits="userSpaceOnUse" gradientTransform="matrix(0.9247229,0,0,1.0872097,10.939944,-2.0023588)" y1="3.681" x2="0" y2="16.53"/>
  <linearGradient id="StandardGradient" gradientTransform="scale(0.9219544,1.0846523)" y1="0.922" x2="0" y2="19.387" gradientUnits="userSpaceOnUse">
   <stop id="stop3283" stop-opacity="0.863"/>
   <stop offset="1" id="stop2651" stop-opacity="0.471"/>
  </linearGradient>
  <linearGradient inkscape:collect="always" xlink:href="#StandardGradient" id="linearGradient2549" gradientUnits="userSpaceOnUse" gradientTransform="matrix(0.9247229,0,0,1.0872097,-2.0600562,0.9976422)" y1="0.922" x2="0" y2="17.478"/>
  <linearGradient inkscape:collect="always" xlink:href="#StandardGradient" id="linearGradient2418" gradientUnits="userSpaceOnUse" gradientTransform="matrix(0.9247229,0,0,1.0872097,-4.0600562,-3.0023583)" y1="0.922" x2="0" y2="17.478"/>
  <linearGradient inkscape:collect="always" xlink:href="#StandardGradient" id="linearGradient2422" gradientUnits="userSpaceOnUse" gradientTransform="matrix(0.9247229,0,0,1.0872097,-5.0600562,-1.0023583)" y1="0.922" x2="0" y2="17.478"/>
  <linearGradient inkscape:collect="always" xlink:href="#StandardGradient" id="linearGradient2409" gradientUnits="userSpaceOnUse" gradientTransform="matrix(0.9247229,0,0,1.0872097,-6.0600562,-2.0023583)" y1="3.68" x2="0" y2="15.639"/>
  <linearGradient inkscape:collect="always" xlink:href="#StandardGradient" id="linearGradient2416" gradientUnits="userSpaceOnUse" gradientTransform="matrix(0.9247229,0,0,1.0872097,-6.0600562,-2.0023583)" y1="2.762" x2="0" y2="15.639"/>
  <linearGradient inkscape:collect="always" xlink:href="#StandardGradient" id="linearGradient2529" gradientUnits="userSpaceOnUse" gradientTransform="matrix(0.9247229,0,0,1.0872097,-4.0418814,0.9976412)" y1="3.681" x2="0" y2="16.53"/>
  <linearGradient inkscape:collect="always" xlink:href="#StandardGradient" id="linearGradient2942" gradientUnits="userSpaceOnUse" gradientTransform="matrix(0.9247229,0,0,1.0872097,-26.060056,-2.0023583)" y1="2.762" x2="0" y2="15.639"/>
  <clipPath id="clipPath2949">
   <path d="m -20,0 0,16 16,0 0,-16 -16,0 z m 3,1 3,0 c 0.554,0 1,0.446 1,1 l 6,0 c 0.554,0 1,0.446 1,1 l -12,0 0,-1 c 0,-0.554 0.446,-1 1,-1 z m -0.5,3 4,0 6,0 1,0 C -5.669,4 -5,4.669 -5,5.5 l 0,4.5 0,1.5 c 0,0.647488 -0.396277,1.195291 -0.96875,1.40625 l 0,0.15625 -0.03125,0 0,0.4375 c 0,0.831 -0.669,1.5 -1.5,1.5 l -6,0 c -0.831,0 -1.5,-0.669 -1.5,-1.5 l 0,-0.5 -2.5,0 c -0.831,0 -1.5,-0.669 -1.5,-1.5 l 0,-1.5 0,-4.5 C -19,4.669 -18.331,4 -17.5,4 z m 5,2 C -12.777,6 -13,6.223 -13,6.5 l 0,6 c 0,0.277 0.223,0.5 0.5,0.5 l 4,0 c 0.277,0 0.5,-0.223 0.5,-0.5 l 0,-6 C -8,6.223 -8.223,6 -8.5,6 l -4,0 z" id="path2951"/>
  </clipPath>
  <linearGradient inkscape:collect="always" xlink:href="#linearGradient3681" id="linearGradient3659" x1="0" x2="16" gradientUnits="userSpaceOnUse" gradientTransform="matrix(0,1,-1,0,16,0)"/>
  <linearGradient inkscape:collect="always" xlink:href="#linearGradient3681" id="linearGradient3672" x1="2" x2="14" gradientUnits="userSpaceOnUse" gradientTransform="matrix(0,1,-1,0,16,0)"/>
  <linearGradient inkscape:collect="always" xlink:href="#linearGradient3681" id="linearGradient3687" x1="4" x2="12" gradientUnits="userSpaceOnUse" gradientTransform="matrix(0,1,-1,0,16,0)"/>
  <linearGradient inkscape:collect="always" xlink:href="#StandardGradient" id="linearGradient3706" gradientUnits="userSpaceOnUse" y1="6" x2="0" y2="16.05" gradientTransform="translate(0,1)"/>
  <linearGradient inkscape:collect="always" xlink:href="#StandardGradient" id="linearGradient3708" gradientUnits="userSpaceOnUse" y1="6" x2="0" y2="16.05"/>
  <linearGradient inkscape:collect="always" xlink:href="#StandardGradient" id="linearGradient3745" gradientUnits="userSpaceOnUse" y1="6" x2="0" y2="16.05" gradientTransform="translate(-20,0)"/>
  <clipPath id="clipPath3757">
   <path d="m -20,0 0,16 7,0 c 0,0 -2,-2.822302 -2,-5 0,-1.03154 3,-1 3,-1 -1.10457,0 -2,-0.8954305 -2,-2 0,-1.1045695 0.89543,-2 2,-2 1.104569,0 2,0.8954305 2,2 0,1.1045695 -0.895431,2 -2,2 0,0 3,0.02577 3,1 0,1.894629 -2,5 -2,5 l 7,0 0,-16 -16,0 z" id="path3759"/>
  </clipPath>
  <linearGradient inkscape:collect="always" xlink:href="#StandardGradient" id="linearGradient3219" gradientUnits="userSpaceOnUse" x1="9" y1="7" x2="8" y2="16.05"/>
  <radialGradient inkscape:collect="always" xlink:href="#linearGradient4190" id="radialGradient4188" cx="8" cy="12.2" r="3" gradientTransform="matrix(4,-2.3301345e-8,0,2.3333334,-24,-15.466667)" gradientUnits="userSpaceOnUse"/>
 </defs>
 <metadata id="metadata7"/>
 <g inkscape:label="Calque 1" id="layer1" inkscape:groupmode="layer">
  <path d="M 8 5 C 6.3566105 5 5 6.3566105 5 8 C 5 8.5311843 5.3155888 8.9402885 5.5625 9.375 C 5.3836942 9.4303975 5.210082 9.440894 5.03125 9.53125 C 4.5874988 9.7554582 4 10.258856 4 11 C 4 12.394065 4.5908497 13.736679 5.125 14.78125 C 5.6591503 15.825821 6.1875 16.5625 6.1875 16.5625 A 0.99710194 0.99710194 0 0 0 7 17 L 9 17 A 0.99710194 0.99710194 0 0 0 9.84375 16.53125 C 9.84375 16.53125 10.378964 15.724712 10.90625 14.65625 C 11.433536 13.587788 12 12.298132 12 11 C 12 10.622378 11.829872 10.265869 11.625 10.03125 C 11.420128 9.7966312 11.186997 9.6394361 10.96875 9.53125 C 10.791682 9.4434763 10.61516 9.4300901 10.4375 9.375 C 10.684411 8.9402885 11 8.5311843 11 8 C 11 6.3566105 9.6433895 5 8 5 z M 8 6 C 9.1045695 6 10 6.8954305 10 8 C 10 9.1045695 9.1045695 10 8 10 C 8 10 11 10.025767 11 11 C 11 12.894629 9 16 9 16 L 7 16 C 7 16 5 13.177698 5 11 C 5 9.96846 8 10 8 10 C 6.8954305 10 6 9.1045695 6 8 C 6 6.8954305 6.8954305 6 8 6 z " id="path3217" opacity="0.05" fill="#ffffff" color="#000000"/>
  <path d="M 16,8 C 16,3.581722 12.418278,0 8,0 3.581722,0 0,3.581722 0,8 c 0,4.418278 3.581722,8 8,8 4.418278,0 8,-3.581722 8,-8 z m -1,0 c 0,3.865993 -3.134007,7 -7,7 C 4.134007,15 1,11.865993 1,8 1,4.1340068 4.134007,1 8,1 c 3.865993,0 7,3.1340068 7,7 z" id="path2876" opacity="0.3" fill="url(#linearGradient3659)" color="#000000"/>
  <path d="M 14,8 C 14,4.6862915 11.313709,2 8,2 4.686292,2 2,4.6862915 2,8 c 0,3.313708 2.686292,6 6,6 3.313709,0 6,-2.686292 6,-6 z m -1,0 c 0,2.761424 -2.238576,5 -5,5 C 5.238576,13 3,10.761424 3,8 3,5.2385763 5.238576,3 8,3 c 2.761424,0 5,2.2385763 5,5 z" id="path3661" opacity="0.3" fill="url(#linearGradient3672)" color="#000000"/>
  <path d="M 12,8 C 12,5.790861 10.209139,4 8,4 5.790861,4 4,5.790861 4,8 c 0,2.209139 1.790861,4 4,4 2.209139,0 4,-1.790861 4,-4 z M 11,8 C 11,9.6568542 9.6568542,11 8,11 6.3431458,11 5,9.6568542 5,8 5,6.3431458 6.3431458,5 8,5 c 1.6568542,0 3,1.3431458 3,3 z" id="path3676" opacity="0.3" fill="url(#linearGradient3687)" color="#000000"/>
  <path d="M 8 6 C 6.8954305 6 6 6.8954305 6 8 C 6 9.1045695 6.8954305 10 8 10 C 9.1045695 10 10 9.1045695 10 8 C 10 6.8954305 9.1045695 6 8 6 z M 8 10 C 8 10 5 9.96846 5 11 C 5 13.177698 7 16 7 16 L 9 16 C 9 16 11 12.894629 11 11 C 11 10.025767 8 10 8 10 z " id="path3689" fill="url(#radialGradient4188)" color="#000000"/>
  <path d="M 8 6 C 6.8954305 6 6 6.8954305 6 8 C 6 8.172589 6.0213958 8.3402409 6.0625 8.5 C 6.2844627 7.6373007 7.0680195 7 8 7 C 8.9319805 7 9.7155373 7.6373007 9.9375 8.5 C 9.9786042 8.3402409 10 8.172589 10 8 C 10 6.8954305 9.1045695 6 8 6 z M 6.375 10.15625 C 5.6694736 10.284604 5 10.513271 5 11 C 5 11.232376 5.0530643 11.475907 5.09375 11.71875 C 5.5839067 10.974672 8 11 8 11 C 7.3258317 11 6.7373116 10.667344 6.375 10.15625 z M 8 11 C 8 11 10.416093 11.038182 10.90625 11.75 C 10.960938 11.483766 11 11.236829 11 11 C 11 10.540105 10.330877 10.290496 9.625 10.15625 C 9.2626884 10.667344 8.6741683 11 8 11 z " id="path3702" opacity="0.3" color="#000000"/>
  <path d="M 8,6 C 6.89543,6 6,6.895431 6,8 6,9.10457 6.89543,10 8,10 9.104569,10 10,9.10457 10,8 10,6.895431 9.104569,6 8,6 Z m 0,4 c 0,0 -3,-0.03154 -3,1 0,2.177698 2,5 2,5 l 2,0 c 0,0 2,-3.105371 2,-5 0,-0.974233 -3,-1 -3,-1 z M 8,6.5996094 C 8.780305,6.5996094 9.400391,7.2196954 9.400391,8 9.400391,8.7803058 8.780305,9.400391 8,9.400391 7.219694,9.400391 6.599609,8.7803061 6.599609,8 6.599609,7.219695 7.219694,6.5996094 8,6.5996094 Z m -0.00586,3.9999996 0.00586,0 c 0.0059,7.2e-5 0.713486,0.0099 1.398438,0.126953 0.343897,0.05879 0.679363,0.151036 0.867187,0.244141 0.07243,0.0359 0.09738,0.05951 0.119141,0.07813 -0.01471,0.739853 -0.446317,1.93284 -0.921875,2.896484 -0.40657,0.823849 -0.693493,1.265274 -0.8125,1.455079 l -1.310547,0 C 7.223803,15.231117 6.939431,14.833559 6.535156,14.042969 6.055708,13.105372 5.599609,11.905169 5.599609,11 c 0,0.03294 -0.04283,0.03605 0.140625,-0.05664 0.183456,-0.09269 0.513553,-0.183092 0.855469,-0.238281 0.683833,-0.110377 1.398438,-0.105469 1.398438,-0.105469 z" id="path3689-2" inkscape:connector-curvature="0" shape-rendering="auto" mix-blend-mode="normal" color-interpolation-filters="linearRGB" isolation="auto" white-space="normal" opacity="0.3" solid-opacity="1" image-rendering="auto" solid-color="#000000" color="#000000" stroke-width="1.2" color-rendering="auto" color-interpolation="sRGB"/>
 </g>
</svg>
