<?xml version="1.0" encoding="UTF-8" standalone="no"?>
<svg xmlns="http://www.w3.org/2000/svg" xmlns:xlink="http://www.w3.org/1999/xlink" xmlns:sodipodi="http://sodipodi.sourceforge.net/DTD/sodipodi-0.dtd" xmlns:inkscape="http://www.inkscape.org/namespaces/inkscape" width="16" height="16" version="1.0">
 <defs id="defs4">
  <linearGradient gradientUnits="userSpaceOnUse" y2="18.1" x2="0" y1="5.655" gradientTransform="scale(1.1310246,0.8841541)" id="linearGradient4171">
   <stop id="stop4173" stop-opacity="0.236"/>
   <stop id="stop4175" offset="1" stop-opacity="0.549"/>
  </linearGradient>
  <linearGradient id="StandardGradient" gradientTransform="scale(1.1467263,0.8720476)" y1="6.955" x2="0" y2="18.319" gradientUnits="userSpaceOnUse">
   <stop id="stop3280" stop-opacity="0.863"/>
   <stop offset="1" id="stop3282" stop-opacity="0.471"/>
  </linearGradient>
  <linearGradient inkscape:collect="always" xlink:href="#StandardGradient" id="linearGradient3627" gradientUnits="userSpaceOnUse" gradientTransform="matrix(1.1467263,0,0,0.8720476,-20,0)" y1="6.955" x2="0" y2="18.319"/>
  <clipPath id="clipPath3634">
   <path d="m -19.535739,2.999982 0,16 16.0000003,0 0,-16 -16.0000003,0 z m 12.0000003,3.0625 2.03125,0 0,4.625 c 0,1.550514 -1.261986,2.34375 -2.8125,2.34375 l -4.2187503,0 0,2.9375 -6,-3.96875 6,-4.09375 0,3.0625 3.0312503,0 c 1.792454,0 1.96875,-0.332819 1.96875,-2.1875 l 0,-2.71875 z" id="path3636"/>
  </clipPath>
  <linearGradient inkscape:collect="always" xlink:href="#StandardGradient" id="linearGradient4993" gradientUnits="userSpaceOnUse" gradientTransform="scale(1.1467263,0.8720476)" y1="6.955" x2="0" y2="18.319"/>
  <linearGradient inkscape:collect="always" xlink:href="#StandardGradient" id="linearGradient4997" gradientUnits="userSpaceOnUse" gradientTransform="matrix(1.1467263,0,0,0.8720476,-0.4642613,-2.999982)" y1="6.955" x2="0" y2="18.319"/>
  <linearGradient inkscape:collect="always" xlink:href="#StandardGradient-0" id="linearGradient3842" gradientUnits="userSpaceOnUse" gradientTransform="matrix(0,-1.1310246,0.8841541,0,3,17)" x1="13.262" x2="-2.652"/>
  <linearGradient id="StandardGradient-0" gradientTransform="scale(1.1310246,0.8841541)" y1="5.655" x2="0" y2="18.1" gradientUnits="userSpaceOnUse">
   <stop id="stop3280-1" stop-opacity="0.863"/>
   <stop offset="1" id="stop3282-2" stop-opacity="0.471"/>
  </linearGradient>
  <linearGradient x2="-2.652" x1="13.262" gradientTransform="matrix(0,-1.1310246,0.8841541,0,3.4642613,13.999982)" gradientUnits="userSpaceOnUse" id="linearGradient3969" xlink:href="#StandardGradient-0" inkscape:collect="always"/>
  <linearGradient inkscape:collect="always" xlink:href="#StandardGradient-0" id="linearGradient3049" gradientUnits="userSpaceOnUse" gradientTransform="matrix(0,-1.1310246,0.8841541,0,0.4642613,14.999982)" x1="13.262" x2="-2.652"/>
  <linearGradient inkscape:collect="always" xlink:href="#StandardGradient-0" id="linearGradient3053" gradientUnits="userSpaceOnUse" gradientTransform="matrix(0,-1.1310246,0.8841541,0,-0.5357387,14.999982)" x1="13.262" x2="-2.652"/>
  <linearGradient inkscape:collect="always" xlink:href="#StandardGradient-0" id="linearGradient3055" gradientUnits="userSpaceOnUse" gradientTransform="matrix(0,-1.1310246,0.8841541,0,0,12)" x1="13.262" x2="-2.652"/>
  <linearGradient inkscape:collect="always" xlink:href="#StandardGradient-0" id="linearGradient3057" gradientUnits="userSpaceOnUse" gradientTransform="matrix(0,-1.1310246,0.8841541,0,0.4642613,17.999982)" x1="13.262" x2="-2.652"/>
  <linearGradient inkscape:collect="always" xlink:href="#StandardGradient-0" id="linearGradient3066" gradientUnits="userSpaceOnUse" gradientTransform="matrix(0,-1.1310246,0.8841541,0,0.4642613,15.999982)" x1="8.842" x2="-2.652"/>
  <linearGradient inkscape:collect="always" xlink:href="#StandardGradient-0" id="linearGradient3068" gradientUnits="userSpaceOnUse" gradientTransform="matrix(0,-1.1310246,0.8841541,0,0,12)" x1="8.842" x2="-2.652"/>
  <linearGradient inkscape:collect="always" xlink:href="#StandardGradient-0" id="linearGradient3841" gradientUnits="userSpaceOnUse" gradientTransform="matrix(0,-1.1310246,0.8841541,0,0,13)" x1="8.842" x2="-2.652"/>
  <linearGradient inkscape:collect="always" xlink:href="#StandardGradient-0" id="linearGradient3845" gradientUnits="userSpaceOnUse" gradientTransform="matrix(0,-1.1310246,0.8841541,0,0.4642613,14.999982)" x1="8.842" x2="-2.652"/>
  <radialGradient inkscape:collect="always" xlink:href="#linearGradient4171" id="radialGradient4169" cx="10" cy="12.269" r="7" gradientTransform="matrix(1.8571429,-2.1226807e-8,1.6328312e-8,1.4285714,-8.5714288,-5.5274725)" gradientUnits="userSpaceOnUse"/>
 </defs>
 <metadata id="metadata7"/>
 <g inkscape:groupmode="layer" id="layer3" inkscape:label="Cross" transform="translate(-0.4642613,-2.999982)">
  <path d="M 2.5 1 C 1.127888 1 0 2.1278879 0 3.5 C 0 4.8721121 1.1278879 6 2.5 6 C 3.8721121 6 5 4.8721121 5 3.5 C 5 2.1278879 3.872112 1 2.5 1 z M 2.5 6 C 1.1278879 6 0 7.1278879 0 8.5 C 0 9.8721121 1.1278879 11 2.5 11 C 3.8721121 11 5 9.8721121 5 8.5 C 5 7.1278879 3.8721121 6 2.5 6 z M 2.5 11 C 1.1278879 11 0 12.127888 0 13.5 C 0 14.872112 1.1278879 16 2.5 16 C 3.8721121 16 5 14.872112 5 13.5 C 5 12.127888 3.8721121 11 2.5 11 z M 2.5 2 C 3.328427 2 4 2.6715729 4 3.5 C 4 4.328427 3.328427 5 2.5 5 C 1.671573 5 1 4.328427 1 3.5 C 1 2.6715729 1.671573 2 2.5 2 z M 10.40625 3 A 1.0061046 1.0061046 0 0 0 9.75 3.40625 L 5.1875 9.46875 A 1.0061046 1.0061046 0 0 0 6 11.0625 L 7.96875 11.0625 L 7.96875 15 A 1.0061046 1.0061046 0 0 0 8.96875 16 L 12 16 A 1.0061046 1.0061046 0 0 0 13 15 L 13 11.0625 L 15 11.0625 A 1.0061046 1.0061046 0 0 0 15.8125 9.46875 L 11.375 3.40625 A 1.0061046 1.0061046 0 0 0 10.40625 3 z M 10.5625 4 L 15 10.0625 L 12 10.0625 L 12 15 L 8.96875 15 L 8.96875 10.0625 L 6 10.0625 L 10.5625 4 z M 2.5 7 C 3.328427 7 4 7.671573 4 8.5 C 4 9.328427 3.328427 10 2.5 10 C 1.671573 10 1 9.328427 1 8.5 C 1 7.671573 1.671573 7 2.5 7 z M 2.5 12 C 3.328427 12 4 12.671573 4 13.5 C 4 14.328427 3.328427 15 2.5 15 C 1.671573 15 1 14.328427 1 13.5 C 1 12.671573 1.671573 12 2.5 12 z " transform="translate(0.4642613,2.999982)" id="path3854" opacity="0.05" fill="#ffffff"/>
  <path d="M 2.5 2 C 1.671573 2 1 2.6715729 1 3.5 C 1 4.328427 1.671573 5 2.5 5 C 3.328427 5 4 4.328427 4 3.5 C 4 2.6715729 3.328427 2 2.5 2 z M 10.5625 4 L 6 10.0625 L 8.96875 10.0625 L 8.96875 15 L 12 15 L 12 10.0625 L 15 10.0625 L 10.5625 4 z M 2.5 7 C 1.671573 7 1 7.671573 1 8.5 C 1 9.328427 1.671573 10 2.5 10 C 3.328427 10 4 9.328427 4 8.5 C 4 7.671573 3.328427 7 2.5 7 z M 2.5 12 C 1.671573 12 1 12.671573 1 13.5 C 1 14.328427 1.671573 15 2.5 15 C 3.328427 15 4 14.328427 4 13.5 C 4 12.671573 3.328427 12 2.5 12 z " transform="translate(0.4642613,2.999982)" id="path3045" fill="url(#radialGradient4169)"/>
  <path d="M 2.5 2 C 1.671573 2 1 2.6715729 1 3.5 C 1 3.672589 1.0401079 3.8456811 1.09375 4 C 1.2975898 3.413588 1.844162 3 2.5 3 C 3.155838 3 3.7024102 3.413588 3.90625 4 C 3.9598921 3.8456811 4 3.672589 4 3.5 C 4 2.6715729 3.328427 2 2.5 2 z M 10.5625 4 L 6 10.0625 L 6.75 10.0625 L 10.5625 5 L 14.28125 10.0625 L 15 10.0625 L 10.5625 4 z M 2.5 7 C 1.671573 7 1 7.671573 1 8.5 C 1 8.672589 1.0401079 8.8456811 1.09375 9 C 1.2975898 8.413588 1.844162 8 2.5 8 C 3.155838 8 3.7024102 8.413588 3.90625 9 C 3.9598921 8.8456811 4 8.672589 4 8.5 C 4 7.671573 3.328427 7 2.5 7 z M 2.5 12 C 1.671573 12 1 12.671573 1 13.5 C 1 13.672589 1.0401079 13.845681 1.09375 14 C 1.2975898 13.413588 1.844162 13 2.5 13 C 3.155838 13 3.7024102 13.413588 3.90625 14 C 3.9598921 13.845681 4 13.672589 4 13.5 C 4 12.671573 3.328427 12 2.5 12 z " transform="translate(0.4642613,2.999982)" id="path3062" opacity="0.3"/>
  <path d="M 1.09375 4 C 1.0401079 4.154319 1 4.327411 1 4.5 C 1 5.328427 1.671573 6 2.5 6 C 3.328427 6 4 5.328427 4 4.5 C 4 4.327411 3.9598921 4.154319 3.90625 4 C 3.7024102 4.586412 3.155838 5 2.5 5 C 1.844162 5 1.2975898 4.586412 1.09375 4 z M 1.09375 9 C 1.0401079 9.1543189 1 9.327411 1 9.5 C 1 10.328427 1.671573 11 2.5 11 C 3.328427 11 4 10.328427 4 9.5 C 4 9.327411 3.9598921 9.1543189 3.90625 9 C 3.7024102 9.586412 3.155838 10 2.5 10 C 1.844162 10 1.2975898 9.586412 1.09375 9 z M 6.75 10.0625 L 6 11.0625 L 8.96875 11.0625 L 8.96875 10.0625 L 6.75 10.0625 z M 12 10.0625 L 12 11.0625 L 15 11.0625 L 14.28125 10.0625 L 12 10.0625 z M 1.09375 14 C 1.0401079 14.154319 1 14.327411 1 14.5 C 1 15.328427 1.671573 16 2.5 16 C 3.328427 16 4 15.328427 4 14.5 C 4 14.327411 3.9598921 14.154319 3.90625 14 C 3.7024102 14.586412 3.155838 15 2.5 15 C 1.844162 15 1.2975898 14.586412 1.09375 14 z M 8.96875 15 L 8.96875 16 L 12 16 L 12 15 L 8.96875 15 z " transform="translate(0.4642613,2.999982)" id="path3839" opacity="0.2" fill="#ffffff"/>
  <path d="m 2.9642613,4.999982 c -0.828427,0 -1.5,0.671573 -1.5,1.5 0,0.828427 0.671573,1.5 1.5,1.5 0.828427,0 1.5,-0.671573 1.5,-1.5 0,-0.828427 -0.671573,-1.5 -1.5,-1.5 z m 0,0.5996094 c 0.504163,0 0.900391,0.3962277 0.900391,0.9003906 0,0.5041628 -0.396228,0.9003906 -0.900391,0.9003906 -0.504163,0 -0.900391,-0.3962283 -0.900391,-0.9003906 0,-0.5041625 0.396228,-0.9003906 0.900391,-0.9003906 z m 8.0624997,1.4003906 -4.5624997,6.0625 2.96875,0 0,4.9375 3.0312497,0 0,-4.9375 3,0 -4.4375,-6.0625 z m -0.0059,1.0058594 3.261719,4.4570316 -2.417969,0 0,4.9375 -1.832032,0 0,-4.9375 -2.3671867,0 3.3554687,-4.4570316 z M 2.9642613,9.999982 c -0.828427,0 -1.5,0.671573 -1.5,1.5 0,0.828427 0.671573,1.5 1.5,1.5 0.828427,0 1.5,-0.671573 1.5,-1.5 0,-0.828427 -0.671573,-1.5 -1.5,-1.5 z m 0,0.599609 c 0.504163,0 0.900391,0.396228 0.900391,0.900391 0,0.504163 -0.396228,0.900391 -0.900391,0.900391 -0.504163,0 -0.900391,-0.396229 -0.900391,-0.900391 0,-0.504162 0.396228,-0.900391 0.900391,-0.900391 z m 0,4.400391 c -0.828427,0 -1.5,0.671573 -1.5,1.5 0,0.828427 0.671573,1.5 1.5,1.5 0.828427,0 1.5,-0.671573 1.5,-1.5 0,-0.828427 -0.671573,-1.5 -1.5,-1.5 z m 0,0.599609 c 0.504163,0 0.900391,0.396228 0.900391,0.900391 0,0.504163 -0.396228,0.900391 -0.900391,0.900391 -0.504163,0 -0.900391,-0.396229 -0.900391,-0.900391 0,-0.504162 0.396228,-0.900391 0.900391,-0.900391 z" id="path3045-6" inkscape:connector-curvature="0" shape-rendering="auto" mix-blend-mode="normal" color-interpolation-filters="linearRGB" isolation="auto" white-space="normal" opacity="0.3" solid-opacity="1" image-rendering="auto" solid-color="#000000" color="#000000" stroke-width="1.2" color-rendering="auto" color-interpolation="sRGB"/>
 </g>
</svg>
