<?xml version="1.0" encoding="UTF-8" standalone="no"?>
<svg xmlns:dc="http://purl.org/dc/elements/1.1/" xmlns:cc="http://creativecommons.org/ns#" xmlns:rdf="http://www.w3.org/1999/02/22-rdf-syntax-ns#" xmlns:svg="http://www.w3.org/2000/svg" xmlns="http://www.w3.org/2000/svg" xmlns:sodipodi="http://sodipodi.sourceforge.net/DTD/sodipodi-0.dtd" xmlns:inkscape="http://www.inkscape.org/namespaces/inkscape" height="512" viewBox="0 0 512 512" width="512" version="1.1" id="svg2" inkscape:version="0.91 r" sodipodi:docname="air.svg">
<defs id="defs39" />
<sodipodi:namedview pagecolor="#ffffff" bordercolor="#666666" borderopacity="1" objecttolerance="10" gridtolerance="10" guidetolerance="10" inkscape:pageopacity="0" inkscape:pageshadow="2" inkscape:window-width="640" inkscape:window-height="480" id="namedview37" showgrid="false" inkscape:zoom="0.4609375" inkscape:cx="256" inkscape:cy="256" inkscape:window-x="0" inkscape:window-y="0" inkscape:window-maximized="0" inkscape:current-layer="svg2" />
<metadata id="metadata72">
<rdf:RDF>
<cc:Work rdf:about="">
<dc:format>image/svg+xml</dc:format>
<dc:type rdf:resource="http://purl.org/dc/dcmitype/StillImage" />
</cc:Work>
</rdf:RDF>
</metadata>
<path id="path4" d="m471.95 253.05c0 120.9-98.01 218.9-218.9 218.9-120.9 0-218.9-98.01-218.9-218.9 0-120.9 98.01-218.9 218.9-218.9 120.9 0 218.9 98.01 218.9 218.9" fill-rule="evenodd" fill="#c50e0e" />
<text id="text20" font-size="129.23" line-height="125%" y="231.36" x="729.64" font-family="Gentium Book Basic" word-spacing="0" letter-spacing="0">
<tspan id="tspan22" y="231.36" x="729.64" />
</text>
<text id="text24" font-size="46.954" transform="scale(4.0128 .2492)" y="579.25" x="378.91" font-family="Arial" text-anchor="middle" />
<text id="text26" font-size="129.23" line-height="125%" y="151.36" x="1310.91" font-family="Gentium Book Basic" word-spacing="0" letter-spacing="0">
<tspan id="tspan28" y="151.36" x="1310.91" />
</text>
<text id="text30" font-size="46.954" transform="scale(4.0128 .2492)" y="258.22" x="523.76" font-family="Arial" text-anchor="middle" />
<text id="text32" font-size="129.23" line-height="125%" y="-29.901" x="239.33" font-family="Gentium Book Basic" word-spacing="0" letter-spacing="0">
<tspan id="tspan34" y="-29.901" x="239.33" />
</text>
<text id="text36" font-size="46.954" transform="scale(4.0128 .2492)" y="-469.14" x="256.72" font-family="Arial" text-anchor="middle" />
<text id="text38" font-size="129.23" line-height="125%" y="-246.37" x="1337.38" font-family="Gentium Book Basic" word-spacing="0" letter-spacing="0">
<tspan id="tspan40" y="-246.37" x="1337.38" />
</text>
<text id="text42" font-size="46.954" transform="scale(4.0128 .2492)" y="-1337.81" x="530.36" font-family="Arial" text-anchor="middle" />
<text id="text44" font-size="129.23" line-height="125%" y="-326.38" x="1918.65" font-family="Gentium Book Basic" word-spacing="0" letter-spacing="0">
<tspan id="tspan46" y="-326.38" x="1918.65" />
</text>
<text id="text48" font-size="46.954" transform="scale(4.0128 .2492)" y="-1658.85" x="675.21" font-family="Arial" text-anchor="middle" />
<text id="text50" font-size="129.23" line-height="125%" y="-798.78" x="1529.53" font-family="Gentium Book Basic" word-spacing="0" letter-spacing="0">
<tspan id="tspan52" y="-798.78" x="1529.53" />
</text>
<text id="text54" font-size="46.954" transform="scale(4.0128 .2492)" y="-3554.51" x="578.24" font-family="Arial" text-anchor="middle" />
<text id="text56" font-size="129.23" line-height="125%" y="-878.78" x="2110.79" font-family="Gentium Book Basic" word-spacing="0" letter-spacing="0">
<tspan id="tspan58" y="-878.78" x="2110.79" />
</text>
<text id="text60" font-size="46.954" transform="scale(4.0128 .2492)" y="-3875.54" x="723.09" font-family="Arial" text-anchor="middle" />
<text id="text62" font-size="208.33" line-height="125%" y="535.94" x="277.99" font-family="Gentium Book Basic" word-spacing="0" letter-spacing="0">
<tspan id="tspan64" y="535.94" x="277.99" />
</text>
<path id="path66" fill="#f9f9f9" d="m286.8 129.63c-20.959 1.597-36.14 15.05-44.807 40.28-12.518 36.458-33.692 58.13-70.893 72.27-21.982 8.352-29.674 13.949-36.521 27.06-5.52 10.573-6.664 26.08-3.069 39.05 2.393 8.632 14.849 22.891 24.552 27.984 9.188 4.823 26.411 5.415 51.865 1.538 14.918-2.272 18.515-2.399 32.22 0.308 19.299 3.81 37.517 12.999 53.09 26.446 14.41 12.441 20.19 15.466 31.3 17.221 10.786 1.703 19.1 0.618 30.08-3.998 9.766-4.108 20.497-15.07 24.859-25.22 1.621-3.77 3.05-12.03 3.069-18.758 0.041-14.525-4.4-24.467-15.959-37.824-11.278-13.03-19.319-26.06-23.938-38.747-5.492-15.09-6.661-45.33-2.455-64.27 4.72-21.258 0.75-35.931-13.196-49.2-9.804-9.33-17.801-13.08-30.996-14.15-3.237-0.26-6.213-0.228-9.207 0m-20.255 95.94c10.762-0.234 21.912 3.786 30.69 12.301 21.836 21.18 16.646 55.21-10.434 68.883-8.571 4.328-22.51 5.255-32.22 2.153-9.154-2.924-20.13-12.161-25.17-21.526-2.124-3.952-3.036-10.429-3.069-19.07-0.042-10.916 0.801-13.998 5.217-21.526 7.937-13.53 21.15-20.918 34.986-21.22" />
</svg>
