<?xml version="1.0" encoding="UTF-8" standalone="no"?>
<svg xmlns:dc="http://purl.org/dc/elements/1.1/" xmlns:cc="http://creativecommons.org/ns#" xmlns:rdf="http://www.w3.org/1999/02/22-rdf-syntax-ns#" xmlns:svg="http://www.w3.org/2000/svg" xmlns="http://www.w3.org/2000/svg" xmlns:sodipodi="http://sodipodi.sourceforge.net/DTD/sodipodi-0.dtd" xmlns:inkscape="http://www.inkscape.org/namespaces/inkscape" height="512" viewBox="0 0 512 512" width="512" version="1.1" id="svg2" inkscape:version="0.91 r" sodipodi:docname="alchemy.svg">
<defs id="defs17" />
<sodipodi:namedview pagecolor="#ffffff" bordercolor="#666666" borderopacity="1" objecttolerance="10" gridtolerance="10" guidetolerance="10" inkscape:pageopacity="0" inkscape:pageshadow="2" inkscape:window-width="733" inkscape:window-height="480" id="namedview15" showgrid="false" inkscape:zoom="0.4609375" inkscape:cx="356.88136" inkscape:cy="256" inkscape:window-x="0" inkscape:window-y="0" inkscape:window-maximized="0" inkscape:current-layer="svg2" />
<metadata id="metadata74">
<rdf:RDF>
<cc:Work rdf:about="">
<dc:format>image/svg+xml</dc:format>
<dc:type rdf:resource="http://purl.org/dc/dcmitype/StillImage" />
</cc:Work>
</rdf:RDF>
</metadata>
<path style="fill:#ef6a47;fill-rule:evenodd" inkscape:connector-curvature="0" d="m 471.95,253.05 c 0,120.9 -98.01,218.9 -218.9,218.9 -120.9,0 -218.9,-98.01 -218.9,-218.9 0,-120.9 98.01,-218.9 218.9,-218.9 120.9,0 218.9,98.01 218.9,218.9" id="path6" />
<path style="fill:#ffffff" inkscape:connector-curvature="0" d="m 360.5,375.35 c 0,11.816 -9.609,21.428 -21.424,21.428 l -166.14,0 c -11.826,0 -21.431,-9.616 -21.431,-21.428 0,-1.146 0.212,-2.284 0.62,-3.356 l 57.55,-150.81 c 0.02,-0.239 0.054,-0.478 0.084,-0.714 l 0,-86.42 -6.799,0 c -5.205,0 -9.417,-4.218 -9.417,-9.42 0,-5.202 4.211,-9.42 9.417,-9.42 l 16.216,0 c 5.205,0 9.424,4.218 9.424,9.42 l 0,96.56 c 0,0.542 -0.047,1.078 -0.138,1.614 0,1.149 -0.276,2.695 -0.691,3.763 l -34.662,90.84 124.98,0 -35.811,-90.73 c -0.387,-0.977 -0.606,-2.01 -0.65,-3.056 l -0.077,-0.569 c -0.04,-0.371 -0.061,-0.741 -0.061,-1.112 l 0,-97.31 c 0,-5.202 4.211,-9.42 9.417,-9.42 l 16.64,0 c 5.205,0 9.417,4.218 9.417,9.42 0,5.202 -4.211,9.42 -9.417,9.42 l -7.227,0 0,87.04 59.52,150.8 c 0.435,1.105 0.66,2.274 0.66,3.46 M 237.76,296.42 c 0,-3.895 3.164,-7.07 7.06,-7.07 3.898,0 7.07,3.167 7.07,7.07 0,3.891 -3.17,7.07 -7.07,7.07 -3.898,0 -7.06,-3.174 -7.06,-7.07 m 4.703,0 c 0,1.297 1.058,2.352 2.355,2.352 1.297,0 2.355,-1.055 2.355,-2.352 0,-1.301 -1.058,-2.355 -2.355,-2.355 -1.297,0 -2.355,1.055 -2.355,2.355 m 31.791,-7.07 c 0,-3.895 3.17,-7.07 7.07,-7.07 3.898,0 7.06,3.167 7.06,7.07 0,3.891 -3.164,7.07 -7.06,7.07 -3.898,0 -7.07,-3.17 -7.07,-7.07 m 4.71,0 c 0,1.297 1.058,2.352 2.355,2.352 1.297,0 2.355,-1.055 2.355,-2.352 0,-1.3 -1.058,-2.355 -2.355,-2.355 -1.297,0 -2.355,1.058 -2.355,2.355 m -24.339,-23.547 c 0,-5.411 4.403,-9.814 9.818,-9.814 5.407,0 9.811,4.403 9.811,9.814 0,5.407 -4.403,9.814 -9.811,9.814 -5.418,0 -9.818,-4.403 -9.818,-9.814 m 4.71,0 c 0,2.813 2.291,5.104 5.108,5.104 2.81,0 5.108,-2.291 5.108,-5.104 0,-2.817 -2.298,-5.108 -5.108,-5.108 -2.817,0 -5.108,2.291 -5.108,5.108" id="path68" />
</svg>
