<?xml version="1.0" encoding="UTF-8" standalone="no"?>
<svg xmlns:dc="http://purl.org/dc/elements/1.1/" xmlns:cc="http://creativecommons.org/ns#" xmlns:rdf="http://www.w3.org/1999/02/22-rdf-syntax-ns#" xmlns:svg="http://www.w3.org/2000/svg" xmlns="http://www.w3.org/2000/svg" xmlns:sodipodi="http://sodipodi.sourceforge.net/DTD/sodipodi-0.dtd" xmlns:inkscape="http://www.inkscape.org/namespaces/inkscape" height="512" viewBox="0 0 512 512" width="512" version="1.1" id="svg2" inkscape:version="0.91 r" sodipodi:docname="lpi-bug.svg">
<defs id="defs16" />
<sodipodi:namedview pagecolor="#ffffff" bordercolor="#666666" borderopacity="1" objecttolerance="10" gridtolerance="10" guidetolerance="10" inkscape:pageopacity="0" inkscape:pageshadow="2" inkscape:window-width="640" inkscape:window-height="480" id="namedview14" showgrid="false" inkscape:zoom="0.4609375" inkscape:cx="256" inkscape:cy="256" inkscape:window-x="0" inkscape:window-y="0" inkscape:window-maximized="0" inkscape:current-layer="svg2" />
<metadata id="metadata72">
<rdf:RDF>
<cc:Work rdf:about="">
<dc:format>image/svg+xml</dc:format>
<dc:type rdf:resource="http://purl.org/dc/dcmitype/StillImage" />
</cc:Work>
</rdf:RDF>
</metadata>
<path id="path4" d="m471.95 253.05c0 120.9-98.01 218.9-218.9 218.9-120.9 0-218.9-98.01-218.9-218.9 0-120.9 98.01-218.9 218.9-218.9 120.9 0 218.9 98.01 218.9 218.9" fill-rule="evenodd" fill="#cb2f1d" />
<path id="path66" stroke="#fff" stroke-width="1.406" fill="#fff" d="m221.41 109.35-20.827 69.775-83.62-13.533 54.48 55.978-68.28 28.868 72.28 11.292-58.22 73.33 82.6-24.869 16.04 52.51 41.698-41.43 70.785 42.665-16.785-79.57 74.04-5.8-61.734-44.42 43.41-26.891-45.17-5.492 47.674-79.09-104.93 47.937-43.46-61.25zm12.566 83.04h18.586c4.312 0 7.777 3.111 7.777 6.986v46.49c0 3.875-3.465 7.03-7.777 7.03h-18.586c-4.312 0-7.777-3.155-7.777-7.03v-46.49c0-3.875 3.465-6.986 7.777-6.986zm0 69.03h18.586c4.312 0 7.777 3.111 7.777 6.986v20.651c0 3.875-3.465 7.03-7.777 7.03h-18.586c-4.312 0-7.777-3.155-7.777-7.03v-20.651c0-3.875 3.465-6.986 7.777-6.986z" />
</svg>
