<?xml version="1.0" encoding="UTF-8" standalone="no"?>
<svg xmlns:dc="http://purl.org/dc/elements/1.1/" xmlns:cc="http://creativecommons.org/ns#" xmlns:rdf="http://www.w3.org/1999/02/22-rdf-syntax-ns#" xmlns:svg="http://www.w3.org/2000/svg" xmlns="http://www.w3.org/2000/svg" xmlns:sodipodi="http://sodipodi.sourceforge.net/DTD/sodipodi-0.dtd" xmlns:inkscape="http://www.inkscape.org/namespaces/inkscape" viewBox="0 0 512 512" id="svg2" version="1.1" inkscape:version="0.91 r" sodipodi:docname="arista.svg">
<metadata id="metadata218">
<rdf:RDF>
<cc:Work rdf:about="">
<dc:format>image/svg+xml</dc:format>
<dc:type rdf:resource="http://purl.org/dc/dcmitype/StillImage" />
</cc:Work>
</rdf:RDF>
</metadata>
<defs id="defs216" />
<sodipodi:namedview pagecolor="#ffffff" bordercolor="#666666" borderopacity="1" objecttolerance="10" gridtolerance="10" guidetolerance="10" inkscape:pageopacity="0" inkscape:pageshadow="2" inkscape:window-width="640" inkscape:window-height="480" id="namedview214" showgrid="false" inkscape:zoom="0.4609375" inkscape:cx="256" inkscape:cy="256" inkscape:window-x="0" inkscape:window-y="0" inkscape:window-maximized="0" inkscape:current-layer="svg2" />
<text font-size="129.23" y="231.36" x="729.64" font-family="Gentium Book Basic" line-height="125%" word-spacing="0" letter-spacing="0" id="text4">
<tspan y="231.36" x="729.64" id="tspan6" />
</text>
<text transform="scale(4.0128.2492)" font-size="46.954" y="579.26" x="378.91" font-family="Arial" text-anchor="middle" id="text8" />
<text font-size="129.23" y="151.36" x="1310.91" font-family="Gentium Book Basic" line-height="125%" word-spacing="0" letter-spacing="0" id="text10">
<tspan y="151.36" x="1310.91" id="tspan12" />
</text>
<text transform="scale(4.0128.2492)" font-size="46.954" y="258.22" x="523.76" font-family="Arial" text-anchor="middle" id="text14" />
<text font-size="129.23" y="-29.9" x="239.33" font-family="Gentium Book Basic" line-height="125%" word-spacing="0" letter-spacing="0" id="text16">
<tspan y="-29.9" x="239.33" id="tspan18" />
</text>
<text transform="scale(4.0128.2492)" font-size="46.954" y="-469.13" x="256.72" font-family="Arial" text-anchor="middle" id="text20" />
<text font-size="129.23" y="-246.37" x="1337.38" font-family="Gentium Book Basic" line-height="125%" word-spacing="0" letter-spacing="0" id="text22">
<tspan y="-246.37" x="1337.38" id="tspan24" />
</text>
<text transform="scale(4.0128.2492)" font-size="46.954" y="-1337.8" x="530.36" font-family="Arial" text-anchor="middle" id="text26" />
<text font-size="129.23" y="-326.37" x="1918.65" font-family="Gentium Book Basic" line-height="125%" word-spacing="0" letter-spacing="0" id="text28">
<tspan y="-326.37" x="1918.65" id="tspan30" />
</text>
<text transform="scale(4.0128.2492)" font-size="46.954" y="-1658.83" x="675.21" font-family="Arial" text-anchor="middle" id="text32" />
<text font-size="129.23" y="-798.77" x="1529.53" font-family="Gentium Book Basic" line-height="125%" word-spacing="0" letter-spacing="0" id="text34">
<tspan y="-798.77" x="1529.53" id="tspan36" />
</text>
<text transform="scale(4.0128.2492)" font-size="46.954" y="-3554.48" x="578.24" font-family="Arial" text-anchor="middle" id="text38" />
<text font-size="129.23" y="-878.78" x="2110.79" font-family="Gentium Book Basic" line-height="125%" word-spacing="0" letter-spacing="0" id="text40">
<tspan y="-878.78" x="2110.79" id="tspan42" />
</text>
<text transform="scale(4.0128.2492)" font-size="46.954" y="-3875.52" x="723.09" font-family="Arial" text-anchor="middle" id="text44" />
<g line-height="125%" word-spacing="0" letter-spacing="0" id="g46">
<text y="535.94" x="277.99" font-size="208.33" font-family="Gentium Book Basic" id="text48">
<tspan y="535.94" x="277.99" id="tspan50" />
</text>
<text y="231.36" x="729.64" font-size="129.23" font-family="'Gentium Book Basic'" id="text52">
<tspan y="231.36" x="729.64" id="tspan54" />
</text>
</g>
<text transform="scale(4.0128.2492)" font-size="46.954" y="579.26" x="378.91" font-family="Arial" text-anchor="middle" id="text56" />
<text font-size="129.23" y="151.36" x="1310.91" font-family="'Gentium Book Basic'" line-height="125%" word-spacing="0" letter-spacing="0" id="text58">
<tspan y="151.36" x="1310.91" id="tspan60" />
</text>
<text transform="scale(4.0128.2492)" font-size="46.954" y="258.22" x="523.76" font-family="Arial" text-anchor="middle" id="text62" />
<text font-size="129.23" y="-29.9" x="239.33" font-family="'Gentium Book Basic'" line-height="125%" word-spacing="0" letter-spacing="0" id="text64">
<tspan y="-29.9" x="239.33" id="tspan66" />
</text>
<text transform="scale(4.0128.2492)" font-size="46.954" y="-469.13" x="256.72" font-family="Arial" text-anchor="middle" id="text68" />
<text font-size="129.23" y="-246.37" x="1337.38" font-family="'Gentium Book Basic'" line-height="125%" word-spacing="0" letter-spacing="0" id="text70">
<tspan y="-246.37" x="1337.38" id="tspan72" />
</text>
<text transform="scale(4.0128.2492)" font-size="46.954" y="-1337.8" x="530.36" font-family="Arial" text-anchor="middle" id="text74" />
<text font-size="129.23" y="-326.37" x="1918.65" font-family="'Gentium Book Basic'" line-height="125%" word-spacing="0" letter-spacing="0" id="text76">
<tspan y="-326.37" x="1918.65" id="tspan78" />
</text>
<text transform="scale(4.0128.2492)" font-size="46.954" y="-1658.83" x="675.21" font-family="Arial" text-anchor="middle" id="text80" />
<text font-size="129.23" y="-798.77" x="1529.53" font-family="'Gentium Book Basic'" line-height="125%" word-spacing="0" letter-spacing="0" id="text82">
<tspan y="-798.77" x="1529.53" id="tspan84" />
</text>
<text transform="scale(4.0128.2492)" font-size="46.954" y="-3554.48" x="578.24" font-family="Arial" text-anchor="middle" id="text86" />
<text font-size="129.23" y="-878.78" x="2110.79" font-family="'Gentium Book Basic'" line-height="125%" word-spacing="0" letter-spacing="0" id="text88">
<tspan y="-878.78" x="2110.79" id="tspan90" />
</text>
<text transform="scale(4.0128.2492)" font-size="46.954" y="-3875.52" x="723.09" font-family="Arial" text-anchor="middle" id="text92" />
<text font-size="208.33" y="535.94" x="277.99" font-family="'Gentium Book Basic'" line-height="125%" word-spacing="0" letter-spacing="0" id="text94">
<tspan y="535.94" x="277.99" id="tspan96" />
</text>
<path style="fill:#ef6a47;fill-rule:evenodd" inkscape:connector-curvature="0" id="path100" d="m 471.95,253.05 c 0,120.9 -98.01,218.91 -218.91,218.91 -120.9,0 -218.91,-98.01 -218.91,-218.91 0,-120.9 98.01,-218.91 218.91,-218.91 120.9,0 218.91,98.01 218.91,218.91" />
<path style="fill:#282629;fill-rule:evenodd" inkscape:connector-curvature="0" id="path102" d="m 130.22,71.844 c -57.98,39.38 -96.09,105.85 -96.09,181.22 0,75.37 38.11,141.81 96.09,181.19 l 0,-362.41 M 381.78,76 l 0,354.09 C 436.417,390.287 471.94,325.83 471.94,253.06 471.94,180.29 436.421,115.8 381.78,76" />
<path style="fill:#b7b7b7;fill-rule:evenodd" inkscape:connector-curvature="0" id="path104" d="m 81.41,117.19 c -9.698,12.234 -18.1,25.534 -25.03,39.688 l 22.813,0 c 6.754,0 12.188,-5.538 12.188,-12.406 l 0,-15.09 c 0,-6.097 -4.282,-11.131 -9.969,-12.188 m 344.72,1.844 c -3.315,2.215 -5.531,6 -5.531,10.344 l 0,15.09 c 0,6.868 5.465,12.406 12.219,12.406 l 16.906,0 c -6.587,-13.444 -14.504,-26.12 -23.594,-37.844 m -369.69,72.844 c -6.754,0 -12.25,5.507 -12.25,12.375 l 0,15.09 c 0,6.868 5.496,12.406 12.25,12.406 l 22.75,0 c 6.754,0 12.188,-5.538 12.188,-12.406 l 0,-15.09 c 0,-6.868 -5.434,-12.375 -12.188,-12.375 l -22.75,0 z m 376.38,0 c -6.754,0 -12.219,5.507 -12.219,12.375 l 0,15.09 c 0,6.868 5.465,12.406 12.219,12.406 l 22.781,0 c 6.754,0 12.188,-5.538 12.188,-12.406 l 0,-8.938 c -0.99,-5.01 -2.143,-9.962 -3.469,-14.844 -2.207,-2.273 -5.31,-3.688 -8.719,-3.688 l -22.781,0 m -376.37,74.875 c -6.754,0 -12.25,5.538 -12.25,12.406 l 0,15.09 c 0,6.868 5.496,12.375 12.25,12.375 l 22.75,0 c 6.754,0 12.188,-5.507 12.188,-12.375 l 0,-15.09 c 0,-6.868 -5.434,-12.406 -12.188,-12.406 l -22.75,0 m 376.38,0 c -6.754,0 -12.219,5.538 -12.219,12.406 l 0,15.09 c 0,6.868 5.465,12.375 12.219,12.375 l 22.781,0 c 5.909,0 10.836,-4.22 11.969,-9.875 0.162,-0.808 0.219,-1.642 0.219,-2.5 l 0,-15.09 c 0,-6.868 -5.434,-12.406 -12.188,-12.406 l -22.781,0 m -376.37,74.875 c -1.178,0 -2.329,0.185 -3.406,0.5 6.232,13.973 13.891,27.16 22.781,39.41 l 3.375,0 c 6.754,0 12.188,-5.538 12.188,-12.406 l 0,-15.09 c 0,-6.868 -5.434,-12.406 -12.188,-12.406 l -22.75,0 m 376.38,0 c -6.754,0 -12.219,5.538 -12.219,12.406 l 0,15.09 c 0,6.04 4.259,11.04 9.875,12.156 8.912,-12.31 16.555,-25.604 22.781,-39.656 l -20.438,0" />
<path style="fill-opacity:0.06700003;fill-rule:evenodd" inkscape:connector-curvature="0" id="path106" d="M 256,1 C 115.17,1 1,115.17 1,256 1,396.83 115.17,511 256,511 396.83,511 511,396.83 511,256 511,115.17 396.83,1 256,1 m 8.827,44.931 c 120.9,0 218.9,98 218.9,218.9 0,120.9 -98,218.9 -218.9,218.9 -120.9,0 -218.93,-98 -218.93,-218.9 0,-120.9 98.03,-218.9 218.93,-218.9" />
<text font-size="129.23" y="231.36" x="729.64" font-family="'Gentium Book Basic'" line-height="125%" word-spacing="0" letter-spacing="0" id="text116">
<tspan y="231.36" x="729.64" id="tspan118" />
</text>
<text transform="scale(4.0128.2492)" font-size="46.954" y="579.26" x="378.91" font-family="Arial" text-anchor="middle" id="text120" />
<text font-size="129.23" y="151.36" x="1310.91" font-family="'Gentium Book Basic'" line-height="125%" word-spacing="0" letter-spacing="0" id="text122">
<tspan y="151.36" x="1310.91" id="tspan124" />
</text>
<text transform="scale(4.0128.2492)" font-size="46.954" y="258.22" x="523.76" font-family="Arial" text-anchor="middle" id="text126" />
<text font-size="129.23" y="-29.9" x="239.33" font-family="'Gentium Book Basic'" line-height="125%" word-spacing="0" letter-spacing="0" id="text128">
<tspan y="-29.9" x="239.33" id="tspan130" />
</text>
<text transform="scale(4.0128.2492)" font-size="46.954" y="-469.13" x="256.72" font-family="Arial" text-anchor="middle" id="text132" />
<text font-size="129.23" y="-246.37" x="1337.38" font-family="'Gentium Book Basic'" line-height="125%" word-spacing="0" letter-spacing="0" id="text134">
<tspan y="-246.37" x="1337.38" id="tspan136" />
</text>
<text transform="scale(4.0128.2492)" font-size="46.954" y="-1337.8" x="530.36" font-family="Arial" text-anchor="middle" id="text138" />
<text font-size="129.23" y="-326.37" x="1918.65" font-family="'Gentium Book Basic'" line-height="125%" word-spacing="0" letter-spacing="0" id="text140">
<tspan y="-326.37" x="1918.65" id="tspan142" />
</text>
<text transform="scale(4.0128.2492)" font-size="46.954" y="-1658.83" x="675.21" font-family="Arial" text-anchor="middle" id="text144" />
<text font-size="129.23" y="-798.77" x="1529.53" font-family="'Gentium Book Basic'" line-height="125%" word-spacing="0" letter-spacing="0" id="text146">
<tspan y="-798.77" x="1529.53" id="tspan148" />
</text>
<text transform="scale(4.0128.2492)" font-size="46.954" y="-3554.48" x="578.24" font-family="Arial" text-anchor="middle" id="text150" />
<text font-size="129.23" y="-878.78" x="2110.79" font-family="'Gentium Book Basic'" line-height="125%" word-spacing="0" letter-spacing="0" id="text152">
<tspan y="-878.78" x="2110.79" id="tspan154" />
</text>
<text transform="scale(4.0128.2492)" font-size="46.954" y="-3875.52" x="723.09" font-family="Arial" text-anchor="middle" id="text156" />
<text font-size="208.33" y="535.94" x="277.99" font-family="'Gentium Book Basic'" line-height="125%" word-spacing="0" letter-spacing="0" id="text158">
<tspan y="535.94" x="277.99" id="tspan160" />
</text>
<rect fill-rule="evenodd" rx="17.642" height="35.28" width="311.41" y="238.36" x="100.29" fill="#282629" ry="17.64" id="rect162" />
<text font-size="129.23" y="-503.34" x="968.53" font-family="'Gentium Book Basic'" line-height="125%" word-spacing="0" letter-spacing="0" id="text164">
<tspan y="-503.34" x="968.53" id="tspan166" />
</text>
<text transform="scale(4.0128.2492)" font-size="46.954" y="-2368.97" x="438.44" font-family="Arial" text-anchor="middle" id="text168" />
<text font-size="129.23" y="-583.34" x="1549.8" font-family="'Gentium Book Basic'" line-height="125%" word-spacing="0" letter-spacing="0" id="text170">
<tspan y="-583.34" x="1549.8" id="tspan172" />
</text>
<text transform="scale(4.0128.2492)" font-size="46.954" y="-2690.01" x="583.29" font-family="Arial" text-anchor="middle" id="text174" />
<text font-size="129.23" y="-764.6" x="478.22" font-family="'Gentium Book Basic'" line-height="125%" word-spacing="0" letter-spacing="0" id="text176">
<tspan y="-764.6" x="478.22" id="tspan178" />
</text>
<text transform="scale(4.0128.2492)" font-size="46.954" y="-3417.36" x="316.25" font-family="Arial" text-anchor="middle" id="text180" />
<text font-size="129.23" y="-981.07" x="1576.27" font-family="'Gentium Book Basic'" line-height="125%" word-spacing="0" letter-spacing="0" id="text182">
<tspan y="-981.07" x="1576.27" id="tspan184" />
</text>
<text transform="scale(4.0128.2492)" font-size="46.954" y="-4286.02" x="589.89" font-family="Arial" text-anchor="middle" id="text186" />
<text font-size="129.23" y="-1061.07" x="2157.54" font-family="'Gentium Book Basic'" line-height="125%" word-spacing="0" letter-spacing="0" id="text188">
<tspan y="-1061.07" x="2157.54" id="tspan190" />
</text>
<text transform="scale(4.0128.2492)" font-size="46.954" y="-4607.05" x="734.74" font-family="Arial" text-anchor="middle" id="text192" />
<text font-size="129.23" y="-1533.47" x="1768.42" font-family="'Gentium Book Basic'" line-height="125%" word-spacing="0" letter-spacing="0" id="text194">
<tspan y="-1533.47" x="1768.42" id="tspan196" />
</text>
<text transform="scale(4.0128.2492)" font-size="46.954" y="-6502.69" x="637.77" font-family="Arial" text-anchor="middle" id="text198" />
<text font-size="129.23" y="-1613.48" x="2349.68" font-family="'Gentium Book Basic'" line-height="125%" word-spacing="0" letter-spacing="0" id="text200">
<tspan y="-1613.48" x="2349.68" id="tspan202" />
</text>
<text transform="scale(4.0128.2492)" font-size="46.954" y="-6823.73" x="782.62" font-family="Arial" text-anchor="middle" id="text204" />
<text font-size="208.33" y="-198.76" x="516.88" font-family="'Gentium Book Basic'" line-height="125%" word-spacing="0" letter-spacing="0" id="text206">
<tspan y="-198.76" x="516.88" id="tspan208" />
</text>
<path d="m288.52 373.25l112.22-36.873-34.35-19.696c3.437-9.671 5.27-19.84 5.27-30.69 0-51.02-41.27-92.52-92.3-92.52-9.981 0-19.623 1.881-28.627 4.809 37.02 12.04 63.893 46.676 63.893 87.71 0 0.266 0.002 0.419 0 0.685l-50.15-28.855 24.05 115.43m-55.884-54.735c9.981 0 19.623-1.881 28.627-4.81-37.02-12.04-63.893-46.676-63.893-87.71 0-0.266-0.002-0.419 0-0.685l50.15 28.855-24.05-115.42-112.22 36.873 34.35 19.695c-3.437 9.67-5.27 19.84-5.27 30.69 0 51.02 41.27 92.52 92.3 92.52" fill="#fff" id="path212" />
</svg>
