<?xml version="1.0" encoding="UTF-8" standalone="no"?>
<svg xmlns:dc="http://purl.org/dc/elements/1.1/" xmlns:cc="http://creativecommons.org/ns#" xmlns:rdf="http://www.w3.org/1999/02/22-rdf-syntax-ns#" xmlns:svg="http://www.w3.org/2000/svg" xmlns="http://www.w3.org/2000/svg" xmlns:sodipodi="http://sodipodi.sourceforge.net/DTD/sodipodi-0.dtd" xmlns:inkscape="http://www.inkscape.org/namespaces/inkscape" height="512" viewBox="0 0 512 512" width="512" version="1.1" id="svg2" inkscape:version="0.91 r" sodipodi:docname="xarchiver.svg">
<defs id="defs17" />
<sodipodi:namedview pagecolor="#ffffff" bordercolor="#666666" borderopacity="1" objecttolerance="10" gridtolerance="10" guidetolerance="10" inkscape:pageopacity="0" inkscape:pageshadow="2" inkscape:window-width="640" inkscape:window-height="480" id="namedview15" showgrid="false" inkscape:zoom="0.4609375" inkscape:cx="256" inkscape:cy="256" inkscape:window-x="0" inkscape:window-y="0" inkscape:window-maximized="0" inkscape:current-layer="svg2" />
<metadata id="metadata70">
<rdf:RDF>
<cc:Work rdf:about="">
<dc:format>image/svg+xml</dc:format>
<dc:type rdf:resource="http://purl.org/dc/dcmitype/StillImage" />
</cc:Work>
</rdf:RDF>
</metadata>
<path id="path4" fill-rule="evenodd" fill="#b59a6e" d="m471.95 253.05c0 120.9-98.01 218.9-218.9 218.9-120.9 0-218.9-98.01-218.9-218.9 0-120.9 98.01-218.9 218.9-218.9 120.9 0 218.9 98.01 218.9 218.9" />
<path id="path3058" fill="#fff" d="m256.35 24.595v22.428h22.731v-22.428h-22.731zm-22.731 22.529v22.529h22.731v-22.529h-22.731zm22.731 22.529v22.529h22.731v-22.529h-22.731zm-22.731 22.63v22.428h22.731v-22.428h-22.731zm22.731 22.529v22.428h22.731v-22.428h-22.731zm-22.731 22.529v22.529h22.731v-22.529h-22.731zm22.731 22.529v22.529h22.731v-22.529h-22.731zm-22.731 22.63v22.529h22.731v-22.529h-22.731zm1.4144 26.065c-4.5993 0-8.2844 3.7861-8.2844 8.3854v36.876c-13.05 9.2253-21.62 24.438-21.62 41.624 0 28.075 22.742 50.818 50.818 50.818 28.075 0 50.919-22.742 50.919-50.818 0-17.18-8.5481-32.398-21.62-41.624v-36.876c0-4.5993-3.6851-8.3854-8.2844-8.3854h-41.927zm20.913 58.9c15.407 0 27.884 12.578 27.884 27.985s-12.477 27.884-27.884 27.884-27.884-12.477-27.884-27.884 12.477-27.985 27.884-27.985z" />
</svg>
