<?xml version="1.0" encoding="UTF-8" standalone="no"?>
<svg xmlns:dc="http://purl.org/dc/elements/1.1/" xmlns:cc="http://creativecommons.org/ns#" xmlns:rdf="http://www.w3.org/1999/02/22-rdf-syntax-ns#" xmlns:svg="http://www.w3.org/2000/svg" xmlns="http://www.w3.org/2000/svg" xmlns:sodipodi="http://sodipodi.sourceforge.net/DTD/sodipodi-0.dtd" xmlns:inkscape="http://www.inkscape.org/namespaces/inkscape" height="512" viewBox="0 0 512 512" width="512" version="1.1" id="svg2" inkscape:version="0.91 r" sodipodi:docname="ask.svg">
<defs id="defs14" />
<sodipodi:namedview pagecolor="#ffffff" bordercolor="#666666" borderopacity="1" objecttolerance="10" gridtolerance="10" guidetolerance="10" inkscape:pageopacity="0" inkscape:pageshadow="2" inkscape:window-width="640" inkscape:window-height="480" id="namedview12" showgrid="false" inkscape:zoom="0.4609375" inkscape:cx="256" inkscape:cy="256" inkscape:window-x="0" inkscape:window-y="0" inkscape:window-maximized="0" inkscape:current-layer="svg2" />
<metadata id="metadata70">
<rdf:RDF>
<cc:Work rdf:about="">
<dc:format>image/svg+xml</dc:format>
<dc:type rdf:resource="http://purl.org/dc/dcmitype/StillImage" />
</cc:Work>
</rdf:RDF>
</metadata>
<path id="path8" fill-rule="evenodd" fill="#d23638" d="m471.95 253.05c0 120.9-98.006 218.91-218.91 218.91s-218.91-98.006-218.91-218.91 98.006-218.91 218.91-218.91 218.91 98.006 218.91 218.91" />
<path id="use3094" fill="#fff" d="m343.12 139.25-41.25 190.44-1.6875 8.0312 7.9375-1.0625 17.688-2.8125 3.7812-0.28125 1.0938-3.875 6.1562-27.625 6.9688 24.531 1.4062 4.875 4.75-0.6875l18.41-2.79 6.5625-0.6875-17.312-56.469 47.406-51.281-16.188 2.7812-16.312 2.7812h-1.6875l-1.375 1.4062-20.09 21.85 22.87-107.72-29.13-1.41zm-139.56 40.56-19.03 3.1-77.56 189.84 10.03-2.06l16.281-2.7812 3.0938-0.6875 1.0625-2.7812 12.438-31.844 24.25-3.4688v24.938l-0.34375 6.5625 6.5625-1.0312 19.062-3.125 4.8438-0.6875-0.34375-4.8438-0.34375-171.09v-0.0312zm77.281 48.938c-1.182 0.0258-2.4597 0.10053-3.8438 0.1875-19.401 0.69573-37.065 12.457-40.156 26.312-2.4251 11.082 0.68686 18.692 12.812 32.219 12.811 13.487 15.917 19.383 14.188 27.344-1.0337 5.1782-9.7116 11.765-19.75 13.156-5.1981 0.67586-8.6604 0.67586-11.781 0l-3.4375-1.0312-2.0938 2.7812-8.3125 10.031-5.875 6.9375 9 2.0625c5.546 1.3815 13.829 1.3856 22.844-0.34375 20.077-3.1109 44.002-17.657 48.156-35.656 3.8166-16.638-3.1367-27.022-17.688-41.562-11.42-11.43-10.727-14.204-10.031-16.281 0.34728-2.4012 4.847-5.861 11.062-6.2188h0.0312c5.5223 0.001 8.2923 0.337 10.375 1.0312l3.0938 0.6875 2.4375-2.4375 7.63-7.97 6.2188-6.5625-9-2.4375c-3.9396-1.2088-7.6008-2.4309-15.875-2.25zm-103.59 18.97l-3.8125 56.094-15.938 2.0938 19.75-58.188z" />
</svg>
