<?xml version="1.0" encoding="UTF-8" standalone="no"?>
<svg xmlns:dc="http://purl.org/dc/elements/1.1/" xmlns:cc="http://creativecommons.org/ns#" xmlns:rdf="http://www.w3.org/1999/02/22-rdf-syntax-ns#" xmlns:svg="http://www.w3.org/2000/svg" xmlns="http://www.w3.org/2000/svg" xmlns:sodipodi="http://sodipodi.sourceforge.net/DTD/sodipodi-0.dtd" xmlns:inkscape="http://www.inkscape.org/namespaces/inkscape" height="512" viewBox="0 0 512 512" width="512" version="1.1" id="svg2" inkscape:version="0.91 r" sodipodi:docname="bittorrent.svg">
<defs id="defs17" />
<sodipodi:namedview pagecolor="#ffffff" bordercolor="#666666" borderopacity="1" objecttolerance="10" gridtolerance="10" guidetolerance="10" inkscape:pageopacity="0" inkscape:pageshadow="2" inkscape:window-width="1680" inkscape:window-height="1022" id="namedview15" showgrid="false" inkscape:zoom="1.3037281" inkscape:cx="53.590229" inkscape:cy="244.919" inkscape:window-x="1680" inkscape:window-y="0" inkscape:window-maximized="1" inkscape:current-layer="svg2" />
<metadata id="metadata28">
<rdf:RDF>
<cc:Work rdf:about="">
<dc:format>image/svg+xml</dc:format>
<dc:type rdf:resource="http://purl.org/dc/dcmitype/StillImage" />
<dc:title />
</cc:Work>
</rdf:RDF>
</metadata>
<path style="fill:#8255af;fill-rule:evenodd;fill-opacity:1" inkscape:connector-curvature="0" d="m 471.95,253.05 c 0,120.9 -98.01,218.9 -218.9,218.9 -120.9,0 -218.9,-98.01 -218.9,-218.9 0,-120.9 98.01,-218.9 218.9,-218.9 120.9,0 218.9,98.01 218.9,218.9" id="path6" />
<path inkscape:connector-curvature="0" style="fill:#ffffff" d="m 237.42245,108.15176 c -76.72,0 -138.880007,63.761 -138.880007,142.41 0,78.65 62.180007,142.41 138.910007,142.41 l 178.47,0 c 7.425,-8.355 14.222,-17.294 20.312,-26.719 l -198.78,0 c -62.33,0 -112.88,-51.792 -112.88,-115.69 0,-63.898 50.54,-115.72 112.88,-115.72 l 0,-26.688 -0.031,0 z m 0.031,35.594 c -57.54,0 -104.16,47.829 -104.16,106.81 0,58.984 46.615,106.78 104.16,106.78 l 204.22,0 c 4.962,-8.548 9.368,-17.457 13.156,-26.688 l -217.38,0 c -43.16,0 -78.16,-35.852 -78.16,-80.09 0,-44.238 34.994,-80.12 78.16,-80.12 10.486,0 20.461,2.162 29.594,6 l 9.875,-24.75 c -12.535,-5.265 -25.92,-7.938 -39.469,-7.938 z m 0,35.594 c -38.36,0 -69.44,31.897 -69.44,71.22 0,39.32 31.07,71.19 69.44,71.19 l 220.82,0 c 3.12,-8.667 5.701,-17.583 7.719,-26.719 l -228.53,0 c -23.974,0 -43.37,-19.894 -43.37,-44.47 0,-24.577 19.401,-44.5 43.38,-44.5 11.987,0 22.835,5.01 30.688,13.06 l 18.438,-18.906 c -13.03,-13.352 -30.701,-20.875 -49.12,-20.875 z" id="path3630" />
</svg>
