<?xml version="1.0" encoding="UTF-8" standalone="no"?>
<svg xmlns:dc="http://purl.org/dc/elements/1.1/" xmlns:cc="http://creativecommons.org/ns#" xmlns:rdf="http://www.w3.org/1999/02/22-rdf-syntax-ns#" xmlns:svg="http://www.w3.org/2000/svg" xmlns="http://www.w3.org/2000/svg" xmlns:xlink="http://www.w3.org/1999/xlink" xmlns:sodipodi="http://sodipodi.sourceforge.net/DTD/sodipodi-0.dtd" xmlns:inkscape="http://www.inkscape.org/namespaces/inkscape" width="1814.17" height="1814.17" viewBox="0 0 512 512" version="1.1" id="svg2" inkscape:version="0.91 r" sodipodi:docname="budgie.svg">
<defs id="defs20" />
<sodipodi:namedview pagecolor="#ffffff" bordercolor="#666666" borderopacity="1" objecttolerance="10" gridtolerance="10" guidetolerance="10" inkscape:pageopacity="0" inkscape:pageshadow="2" inkscape:window-width="640" inkscape:window-height="480" id="namedview18" showgrid="false" inkscape:zoom="0.13008703" inkscape:cx="907.08502" inkscape:cy="907.08502" inkscape:window-x="0" inkscape:window-y="0" inkscape:window-maximized="0" inkscape:current-layer="layer1" />
<metadata id="metadata7324">
<rdf:RDF>
<cc:Work rdf:about="">
<dc:format>image/svg+xml</dc:format>
<dc:type rdf:resource="http://purl.org/dc/dcmitype/StillImage" />
</cc:Work>
</rdf:RDF>
</metadata>
<g inkscape:label="Layer 1" inkscape:groupmode="layer" id="layer1" transform="translate(0,215.00001)">
<path d="m 471.94999,38.04999 c 0,120.9 -98.01,218.91 -218.91,218.91 -120.9,0 -218.909995,-98.01 -218.909995,-218.91 0,-120.9 98.009995,-218.91 218.909995,-218.91 120.9,0 218.91,98.01 218.91,218.91" id="path7870" inkscape:connector-curvature="0" style="fill:#26a6a6;fill-rule:evenodd" />
<path d="m 159.55999,-89.66001 c -31.53,0 -57.09,25.564 -57.09,57.09 0,31.53 25.564,57.09 57.09,57.09 31.53,0 57.09,-25.564 57.09,-57.09 0,-31.53 -25.564,-57.09 -57.09,-57.09 m 192.88,2.875 c -31.53,0 -57.09,25.564 -57.09,57.09 0,31.53 25.564,57.06 57.09,57.06 31.53,0 57.09,-25.533 57.09,-57.06 0,-31.53 -25.564,-57.09 -57.09,-57.09 m -100.66,104.84 c -19.533,0.213 -29.775,8.117 -42.938,13.594 -21.719,71.35 43.58,101.66 50,140 9.39,-36.28 62.58,-78.46 50,-140 -25.986,-10.28 -43.698,-13.74 -57.06,-13.594" id="path7874" inkscape:connector-curvature="0" style="fill:#ffffff;fill-rule:evenodd" />
<path style="fill:#282629;fill-rule:evenodd" inkscape:connector-curvature="0" id="0" d="m 349.773,-45.412539 a 21.624751,21.624751 0 0 1 -43.2495,0 21.624751,21.624751 0 1 1 43.2495,0" />
<use y="0" x="0" height="512" width="512" id="use7933" xlink:href="#0" transform="translate(-144.29,-2.8570132)" />
</g>
</svg>
