<?xml version="1.0" encoding="UTF-8" standalone="no"?>
<svg xmlns:dc="http://purl.org/dc/elements/1.1/" xmlns:cc="http://creativecommons.org/ns#" xmlns:rdf="http://www.w3.org/1999/02/22-rdf-syntax-ns#" xmlns:svg="http://www.w3.org/2000/svg" xmlns="http://www.w3.org/2000/svg" xmlns:sodipodi="http://sodipodi.sourceforge.net/DTD/sodipodi-0.dtd" xmlns:inkscape="http://www.inkscape.org/namespaces/inkscape" width="1814.17" height="1814.17" viewBox="0 0 512 512" version="1.1" id="svg2" inkscape:version="0.91 r" sodipodi:docname="cairo-dock-c.svg">
<defs id="defs20" />
<sodipodi:namedview pagecolor="#ffffff" bordercolor="#666666" borderopacity="1" objecttolerance="10" gridtolerance="10" guidetolerance="10" inkscape:pageopacity="0" inkscape:pageshadow="2" inkscape:window-width="640" inkscape:window-height="480" id="namedview18" showgrid="false" inkscape:zoom="0.13008703" inkscape:cx="907.08499" inkscape:cy="907.08499" inkscape:window-x="0" inkscape:window-y="0" inkscape:window-maximized="0" inkscape:current-layer="layer1" />
<metadata id="metadata7526">
<rdf:RDF>
<cc:Work rdf:about="">
<dc:format>image/svg+xml</dc:format>
<dc:type rdf:resource="http://purl.org/dc/dcmitype/StillImage" />
</cc:Work>
</rdf:RDF>
</metadata>
<g inkscape:label="Layer 1" inkscape:groupmode="layer" id="layer1" transform="translate(0,215.00001)">
<path style="fill:#fdaa24;fill-rule:evenodd" inkscape:connector-curvature="0" id="path8224" d="m 471.95,38.04997 c 0,120.90001 -98.01001,218.91 -218.91,218.91 -120.90001,0 -218.910004,-98.00999 -218.910004,-218.91 0,-120.900014 98.009994,-218.91 218.910004,-218.91 120.89999,0 218.91,98.009986 218.91,218.91" />
<path d="m 271.12,64.58999 c -4.895,-0.029 -10.185,0.941 -14.719,2.688 l -0.063,0.063 -0.031,0 c -33.08,12.172 -50.997,48.44 -143.09,51.875 l 315.38,0 0,-1.281 c -16.678,-1.131 -38.39,-0.819 -60.62,-3.938 l 0,-0.031 c -22.32,-3.28 -37.39,-12.8 -49.98,-22.54 -12.59,-9.73 -22.88,-19.4 -36.38,-24.71 l -0.156,-0.063 -0.188,-0.094 c -2.78,-1.318 -6.349,-1.947 -10.156,-1.969 z" id="path8336" inkscape:connector-curvature="0" style="opacity:0.2;fill:#ffffff;fill-rule:evenodd" />
<path style="fill:#ffffff" d="m 184.03,-46.53001 c -16.232,0 -30.385,3.543 -42.5,10.688 -12.04,7.07 -21.304,17.298 -27.75,30.656 -6.446,13.281 -9.656,28.762 -9.656,46.47 0,24.18 4.887,43.503 14.594,58.03 14.672,-0.732 29.23,-2.471 43.31,-6.06 -13.828,-8.03 -20.75,-25.27 -20.75,-51.719 0,-18.251 3.732,-32.482 11.188,-42.656 7.456,-10.251 17.971,-15.375 31.562,-15.375 6.213,0 12.554,1.123 19,3.375 6.446,2.252 12.85,4.909 19.219,7.938 l 11.656,-29.344 c -16.698,-7.999 -33.33,-12 -49.875,-12 m 79.56,2.437 0,89.38 c 1.276,-0.181 2.568,-0.333 3.875,-0.438 12.01,-0.634 22.502,3.068 32.25,8.688 l 0,-68.03 19.219,0 c 32.31,0 48.47,18.265 48.47,54.844 0,22.558 -6.345,38.31 -19.03,47.25 12.283,5.803 25.76,7.867 39.469,8.75 11.378,-14.305 17.06,-33.26 17.06,-56.906 0,-26.328 -7.685,-46.853 -23.06,-61.53 -15.375,-14.677 -36.947,-22 -64.75,-22 l -53.5,0 z m 7.688,96.81 c -0.719,-0.009 -1.437,0.003 -2.156,0.031 -5.842,0.228 -11.65,1.603 -16.844,3.594 -0.03,0.011 -0.064,-0.011 -0.094,0 l 0,0.063 c -42.22,15.597 -52.92,55.29 -168.780003,51.13 l 0,11.688 C 201.902,123.27199 219.932,80.73499 256.312,67.35099 l 0.031,0 0.063,-0.063 c 8.06,-3.105 18.521,-3.73 24.875,-0.719 l 0.188,0.094 0.156,0.063 c 13.496,5.309 23.785,14.987 36.38,24.719 12.59,9.731 27.662,19.26 49.969,22.531 l 0,0.031 c 22.23,3.118 43.947,2.806 60.63,3.938 l 0,-11.781 c -17.435,-1.191 -38.21,-0.879 -58.938,-3.781 -0.018,-0.003 -0.014,0.003 -0.031,0 -19.842,-2.921 -32.488,-10.989 -44.47,-20.25 -11.88,-9.2 -22.99,-19.8 -38.83,-26.13 -0.034,-0.016 -0.06,-0.046 -0.094,-0.063 -0.087,-0.035 -0.162,-0.059 -0.25,-0.094 l 0,0.031 c -4.637,-2.13 -9.654,-3.093 -14.688,-3.156 z m -1.344,20.19 c -2.114,0.03 -4.242,0.278 -6.344,0.688 l 0,52.625 48.25,0 c 16.606,0 31.03,-2.283 43.31,-6.813 -1.774,-0.459 -3.553,-0.957 -5.313,-1.5 -14.518,-3.982 -26.617,-12.464 -38.41,-21.5 l -11.719,0 0,-9.03 c -3.913,-2.973 -7.866,-5.865 -11.938,-8.531 -5.207,-4.276 -11.48,-6.03 -17.844,-5.938 z m -42.44,20.65 c -6.317,4.207 -12.74,8.235 -19.625,11.469 -18.03,9.657 -37.612,15.464 -57.719,18.75 8.934,3.173 19.09,4.75 30.5,4.75 17.241,0 32.864,-2.894 46.844,-8.719 l 0,-26.25" id="path8338" inkscape:connector-curvature="0" />
</g>
</svg>
