<?xml version="1.0" encoding="UTF-8" standalone="no"?>
<svg xmlns:dc="http://purl.org/dc/elements/1.1/" xmlns:cc="http://creativecommons.org/ns#" xmlns:rdf="http://www.w3.org/1999/02/22-rdf-syntax-ns#" xmlns:svg="http://www.w3.org/2000/svg" xmlns="http://www.w3.org/2000/svg" xmlns:sodipodi="http://sodipodi.sourceforge.net/DTD/sodipodi-0.dtd" xmlns:inkscape="http://www.inkscape.org/namespaces/inkscape" height="512" viewBox="0 0 512 512" width="512" version="1.1" id="svg2" inkscape:version="0.91 r" sodipodi:docname="calligraflow.svg">
<sodipodi:namedview pagecolor="#ffffff" bordercolor="#666666" borderopacity="1" objecttolerance="10" gridtolerance="10" guidetolerance="10" inkscape:pageopacity="0" inkscape:pageshadow="2" inkscape:window-width="640" inkscape:window-height="480" id="namedview21" showgrid="false" inkscape:zoom="0.4609375" inkscape:cx="256" inkscape:cy="256" inkscape:window-x="0" inkscape:window-y="0" inkscape:window-maximized="0" inkscape:current-layer="svg2" />
<metadata id="metadata70">
<rdf:RDF>
<cc:Work rdf:about="">
<dc:format>image/svg+xml</dc:format>
<dc:type rdf:resource="http://purl.org/dc/dcmitype/StillImage" />
</cc:Work>
</rdf:RDF>
</metadata>
<defs id="defs68">
<linearGradient id="ButtonShadow" y2="7.02" gradientUnits="userSpaceOnUse" x2="0" gradientTransform="scale(1.0059 .99417)" y1="92.54">
<stop id="stop3750-1" />
<stop id="stop3752-6" stop-opacity="0.588" offset="1" />
</linearGradient>
<filter id="filter3174" color-interpolation-filters="sRGB">
<feGaussianBlur id="feGaussianBlur3176" stdDeviation="1.71" />
</filter>
</defs>
<path id="path8" fill-rule="evenodd" fill="#6caae1" d="m471.95 253.05c0 120.9-98.006 218.91-218.91 218.91s-218.91-98.006-218.91-218.91 98.006-218.91 218.91-218.91 218.91 98.006 218.91 218.91" />
<path id="rect13772" fill="#b786c5" d="m253.03 34.156c-117.71 0-213.7 92.895-218.69 209.38h219.16v-209.38c-0.15645-0.000328-0.31222 0-0.46875 0z" color="#000000" />
<path id="rect13790" fill="#a1efbb" d="m253.5 274.44v197.53c113.47-0.24 206.67-86.82 217.41-197.53h-217.41z" color="#000000" />
<path id="rect13785" fill="#e8846e" d="m253.5 34.156v240.28h217.41c0.68204-7.0355 1.0312-14.161 1.0312-21.375 0-120.75-97.756-218.65-218.44-218.91z" color="#000000" />
<path id="path13780" fill="#fff" d="m126 127.12v85.938h125.22v-85.938h-125.22zm208.62 11.531c-27.535 0-49.875 22.34-49.875 49.875s22.34 49.844 49.875 49.844 49.844-22.308 49.844-49.844c0-27.535-22.308-49.875-49.844-49.875zm-206.34 104.88v141.34h125.22v-141.34h-125.22zm159.53 30.906v86.656h98.188v-86.656h-98.188z" color="#000000" />
</svg>
