<?xml version="1.0" encoding="UTF-8" standalone="no"?>
<svg xmlns:dc="http://purl.org/dc/elements/1.1/" xmlns:cc="http://creativecommons.org/ns#" xmlns:rdf="http://www.w3.org/1999/02/22-rdf-syntax-ns#" xmlns:svg="http://www.w3.org/2000/svg" xmlns="http://www.w3.org/2000/svg" xmlns:sodipodi="http://sodipodi.sourceforge.net/DTD/sodipodi-0.dtd" xmlns:inkscape="http://www.inkscape.org/namespaces/inkscape" version="1.1" viewBox="0 0 512 512" id="svg2" inkscape:version="0.91 r" sodipodi:docname="calligraplanwork.svg">
<defs id="defs19" />
<sodipodi:namedview pagecolor="#ffffff" bordercolor="#666666" borderopacity="1" objecttolerance="10" gridtolerance="10" guidetolerance="10" inkscape:pageopacity="0" inkscape:pageshadow="2" inkscape:window-width="640" inkscape:window-height="480" id="namedview17" showgrid="false" inkscape:zoom="0.4609375" inkscape:cx="256" inkscape:cy="256" inkscape:window-x="0" inkscape:window-y="0" inkscape:window-maximized="0" inkscape:current-layer="svg2" />
<metadata id="metadata6484">
<rdf:RDF>
<cc:Work rdf:about="">
<dc:format>image/svg+xml</dc:format>
<dc:type rdf:resource="http://purl.org/dc/dcmitype/StillImage" />
</cc:Work>
</rdf:RDF>
</metadata>
<path inkscape:connector-curvature="0" id="path2306" d="m 471.95,253.05 c 0,120.9 -98.01,218.91 -218.91,218.91 -120.9,0 -218.91,-98.01 -218.91,-218.91 0,-120.9 98.01,-218.91 218.91,-218.91 120.9,0 218.91,98.01 218.91,218.91" fill="#e24a4a" fill-rule="evenodd" />
<g id="g2308">
<path inkscape:connector-curvature="0" id="path2310" d="m 37.625,213.91 c -2.294,12.704 -3.5,25.791 -3.5,39.16 0,25.55 4.392,50.05 12.438,72.844 l 412.94,0 c 8.04,-22.796 12.438,-47.3 12.438,-72.844 0,-13.365 -1.175,-26.452 -3.469,-39.16 l -430.84,0 z" fill="#34e364" />
<path inkscape:connector-curvature="0" id="path2312" d="m 253.03,34.16 c -120.9,0 -218.91,98.01 -218.91,218.91 0,1.438 0.035,2.85 0.063,4.281 l 437.69,0 c 0.028,-1.431 0.063,-2.843 0.063,-4.281 0,-120.9 -98.01,-218.91 -218.91,-218.91 z" fill="#499de7" />
</g>
<path inkscape:connector-curvature="0" id="path6478" d="m 370.82,131.6 -153.1,153.1 -75.13,-75.13 -1.414,-1.414 -47.848,47.848 1.416,1.414 122.98,122.98 1.416,1.414 1.414,1.414 200.95,-200.95 -1.414,-1.414 -1.414,-1.414 -46.43,-46.43 -1.414,-1.414 z" fill="#ffffff" />
</svg>
