<?xml version="1.0" encoding="UTF-8" standalone="no"?>
<svg xmlns:dc="http://purl.org/dc/elements/1.1/" xmlns:cc="http://creativecommons.org/ns#" xmlns:rdf="http://www.w3.org/1999/02/22-rdf-syntax-ns#" xmlns:svg="http://www.w3.org/2000/svg" xmlns="http://www.w3.org/2000/svg" xmlns:xlink="http://www.w3.org/1999/xlink" xmlns:sodipodi="http://sodipodi.sourceforge.net/DTD/sodipodi-0.dtd" xmlns:inkscape="http://www.inkscape.org/namespaces/inkscape" height="512" viewBox="0 0 512 512" width="512" version="1.1" id="svg2" inkscape:version="0.91 r" sodipodi:docname="celestia.svg">
<sodipodi:namedview pagecolor="#ffffff" bordercolor="#666666" borderopacity="1" objecttolerance="10" gridtolerance="10" guidetolerance="10" inkscape:pageopacity="0" inkscape:pageshadow="2" inkscape:window-width="640" inkscape:window-height="480" id="namedview20" showgrid="false" inkscape:zoom="0.4609375" inkscape:cx="256" inkscape:cy="256" inkscape:window-x="0" inkscape:window-y="0" inkscape:window-maximized="0" inkscape:current-layer="svg2" />
<metadata id="metadata70">
<rdf:RDF>
<cc:Work rdf:about="">
<dc:format>image/svg+xml</dc:format>
<dc:type rdf:resource="http://purl.org/dc/dcmitype/StillImage" />
</cc:Work>
</rdf:RDF>
</metadata>
<defs id="defs68">
<path id="0" stroke="#fff" fill-rule="evenodd" fill="#fff" d="m261.63 150.37-21.929 5.586-7.83 21.23-12.09-19.13-22.612-0.886 14.457-17.409-6.145-21.779 21.02 8.37 18.814-12.574-1.464 22.582z" />
</defs>
<path id="path11" fill-rule="evenodd" fill="#55405f" d="m471.95 253.05c0 120.9-98.01 218.9-218.9 218.9-120.9 0-218.9-98.01-218.9-218.9 0-120.9 98.01-218.9 218.9-218.9 120.9 0 218.9 98.01 218.9 218.9" />
<path id="path8236" d="m34.188 257.06c2.144 119.04 99.322 214.88 218.87 214.88 72.18 0 136.19-34.93 176.06-88.82-30.37-17.85-54.07-32.73-57.24-37.5-9.79-14.67-61.16-41.58-95.41-51.37s-154.14-4.88-183.5-12.22c-8.696-2.17-31.265-12.17-58.782-24.97z" fill="#19171c" />
<path id="path73" d="m198.33 189.04c-47.881 8.2085-84.31 49.91-84.31 100.13 0 56.115 45.479 101.6 101.6 101.6 50.223 0 91.923-36.429 100.13-84.31-13.366 33.105-45.784 56.477-83.68 56.477-49.822 0-90.213-40.389-90.213-90.213 0-37.893 23.37-70.314 56.477-83.68z" fill-rule="evenodd" stroke="#fff" stroke-width="0.886" fill="#fff" />
<use id="use75" xlink:href="#0" transform="matrix(.88635 0 0 .88635 -9.5055 20.186)" height="1" width="1" />
<use id="use77" xlink:href="#0" transform="matrix(.88635 0 0 .88635 143.6 51.527)" height="1" width="1" />
<use id="use79" xlink:href="#0" transform="matrix(.88635 0 0 .88635 79.138 -4.88)" height="1" width="1" />
<use id="use81" xlink:href="#0" transform="matrix(.88635 0 0 .88635 171.35 135.69)" height="1" width="1" />
<use id="use83" xlink:href="#0" transform="matrix(.88635 0 0 .88635 54.959 85.545)" height="1" width="1" />
</svg>
