<?xml version="1.0" encoding="UTF-8" standalone="no"?>
<svg xmlns:dc="http://purl.org/dc/elements/1.1/" xmlns:cc="http://creativecommons.org/ns#" xmlns:rdf="http://www.w3.org/1999/02/22-rdf-syntax-ns#" xmlns:svg="http://www.w3.org/2000/svg" xmlns="http://www.w3.org/2000/svg" xmlns:sodipodi="http://sodipodi.sourceforge.net/DTD/sodipodi-0.dtd" xmlns:inkscape="http://www.inkscape.org/namespaces/inkscape" height="512" viewBox="0 0 512 512" width="512" version="1.1" id="svg2" inkscape:version="0.91 r" sodipodi:docname="application-x-clementine.svg">
<defs id="defs17" />
<sodipodi:namedview pagecolor="#ffffff" bordercolor="#666666" borderopacity="1" objecttolerance="10" gridtolerance="10" guidetolerance="10" inkscape:pageopacity="0" inkscape:pageshadow="2" inkscape:window-width="1680" inkscape:window-height="994" id="namedview15" showgrid="false" inkscape:zoom="0.4609375" inkscape:cx="256" inkscape:cy="256" inkscape:window-x="0" inkscape:window-y="0" inkscape:window-maximized="1" inkscape:current-layer="svg2" />
<metadata id="metadata102">
<rdf:RDF>
<cc:Work rdf:about="">
<dc:format>image/svg+xml</dc:format>
<dc:type rdf:resource="http://purl.org/dc/dcmitype/StillImage" />
</cc:Work>
</rdf:RDF>
</metadata>
<path style="fill:#f38725;fill-rule:evenodd" inkscape:connector-curvature="0" d="m 471.95,253.05 c 0,120.9 -98.01,218.9 -218.9,218.9 -120.9,0 -218.9,-98.01 -218.9,-218.9 0,-120.9 98.01,-218.9 218.9,-218.9 120.9,0 218.9,98.01 218.9,218.9" id="path36" />
<path id="path96" d="m235.19 91.44c-1.92 0.036-3.754 0.178-5.531 0.406-14.1 1.813-16.888 1.746-30.406 9.5-6.343 3.638-9.14 9.02-8.03 16.25 43.41 93.77-0.075-0.036 43.41 93.91 1.338 1.569 2.212 3.438 4.25 3.125l14.75-2.281c2.038-0.313 2.325-2.349 3.125-4.25 12.633-102.99 0.09-0.376 13.03-102.53-1.109-7.228-7.486-10.502-14.656-11.938-7.689-1.539-14.179-2.296-19.938-2.188m84.63 14.281c-4.806-0.011-8.88 2.141-12.12 6.563-35.613 97-0.006-0.11-35.688 97.06-0.163 2.056-0.881 3.998 0.781 5.219l12.03 8.813c1.663 1.22 3.309-0.002 5.219-0.781 81.76-63.892 0.333-0.197 81.72-63.28 4.327-5.895 2.149-12.727-1.906-18.813-5.798-8.7-11.08-14.902-16.75-19.281-11.25-8.686-13.209-10.705-28.25-14.781-1.765-0.478-3.429-0.715-5.03-0.719m-167.34 31.31c-3.974-0.058-8.07 1.747-11.875 4.281-8.7 5.798-14.87 11.08-19.25 16.75-8.686 11.25-10.705 13.177-14.781 28.22-1.913 7.06-0.083 12.829 5.813 17.16 97 35.613-0.079 0.037 97.09 35.719 2.056 0.163 3.967 0.85 5.188-0.813l8.844-12.03c1.22-1.663-0.034-3.278-0.813-5.188-63.892-81.76-0.197-0.365-63.28-81.75-2.211-1.623-4.553-2.309-6.938-2.344m245.03 54.875c-0.846 0.018-1.721 0.111-2.625 0.25-93.77 43.41 0.036-0.075-93.91 43.41-1.569 1.338-3.406 2.212-3.094 4.25l2.25 14.75c0.313 2.038 2.349 2.294 4.25 3.094 102.99 12.633 0.376 0.122 102.53 13.06 7.228-1.109 10.533-7.486 11.969-14.656 2.052-10.252 2.664-18.361 1.75-25.469-1.813-14.1-1.746-16.92-9.5-30.438-3.184-5.55-7.701-8.374-13.625-8.25m-141.16 37.25c-14.496 0-26.25 11.754-26.25 26.25s11.754 26.25 26.25 26.25 26.25-11.754 26.25-26.25-11.754-26.25-26.25-26.25m-151.25 10.656c-7.228 1.109-10.533 7.486-11.969 14.656-2.052 10.252-2.664 18.361-1.75 25.469 1.813 14.1 1.746 16.888 9.5 30.406 3.638 6.343 9.02 9.14 16.25 8.03 93.77-43.41-0.036 0.075 93.91-43.41 1.569-1.338 3.407-2.212 3.094-4.25l-2.25-14.75c-0.313-2.038-2.349-2.325-4.25-3.125-102.99-12.633-0.376-0.09-102.53-13.03m195.22 30.563c-0.894 0.013-1.671 0.262-2.281 1.094l-8.844 12.03c-1.22 1.663 0.034 3.309 0.813 5.219 63.892 81.76 0.197 0.333 63.28 81.72 5.895 4.327 12.727 2.149 18.813-1.906 8.7-5.798 14.87-11.08 19.25-16.75 8.686-11.25 10.706-13.209 14.781-28.25 1.913-7.06 0.083-12.829-5.813-17.16-97-35.613 0.079-0.006-97.09-35.688-1.028-0.082-2.01-0.325-2.906-0.313m-74.25 17.781c-1.054 0.134-2.15 0.794-3.344 1.281-81.76 63.892-0.365 0.197-81.75 63.28-4.327 5.895-2.118 12.727 1.938 18.813 5.798 8.7 11.08 14.902 16.75 19.281 11.25 8.686 13.177 10.705 28.22 14.781 7.06 1.913 12.861 0.051 17.188-5.844 35.613-97 0.006 0.11 35.688-97.06 0.163-2.056 0.85-3.998-0.813-5.219l-12-8.813c-0.623-0.458-1.242-0.58-1.875-0.5m46.656 9.219-14.719 2.281c-2.038 0.313-2.326 2.349-3.125 4.25-12.633 102.99-0.09 0.376-13.03 102.53 1.109 7.228 7.455 10.502 14.625 11.938 10.252 2.052 18.361 2.696 25.469 1.781 14.1-1.813 16.92-1.746 30.438-9.5 6.343-3.638 9.109-9.02 8-16.25-43.41-93.77 0.106 0.036-43.37-93.91-1.338-1.569-2.243-3.438-4.281-3.125" fill-rule="evenodd" fill="#fff" />
</svg>
