<?xml version="1.0" encoding="UTF-8" standalone="no"?>
<svg xmlns:dc="http://purl.org/dc/elements/1.1/" xmlns:cc="http://creativecommons.org/ns#" xmlns:rdf="http://www.w3.org/1999/02/22-rdf-syntax-ns#" xmlns:svg="http://www.w3.org/2000/svg" xmlns="http://www.w3.org/2000/svg" xmlns:sodipodi="http://sodipodi.sourceforge.net/DTD/sodipodi-0.dtd" xmlns:inkscape="http://www.inkscape.org/namespaces/inkscape" height="512" viewBox="0 0 512 512" width="512" version="1.1" id="svg2" inkscape:version="0.91 r" sodipodi:docname="codeblocks.svg">
<defs id="defs16" />
<sodipodi:namedview pagecolor="#ffffff" bordercolor="#666666" borderopacity="1" objecttolerance="10" gridtolerance="10" guidetolerance="10" inkscape:pageopacity="0" inkscape:pageshadow="2" inkscape:window-width="640" inkscape:window-height="480" id="namedview14" showgrid="false" inkscape:zoom="0.4609375" inkscape:cx="256" inkscape:cy="256" inkscape:window-x="0" inkscape:window-y="0" inkscape:window-maximized="0" inkscape:current-layer="svg2" />
<metadata id="metadata72">
<rdf:RDF>
<cc:Work rdf:about="">
<dc:format>image/svg+xml</dc:format>
<dc:type rdf:resource="http://purl.org/dc/dcmitype/StillImage" />
</cc:Work>
</rdf:RDF>
</metadata>
<path id="path4" d="m471.95 253.05c0 120.9-98.01 218.9-218.9 218.9-120.9 0-218.9-98.01-218.9-218.9 0-120.9 98.01-218.9 218.9-218.9 120.9 0 218.9 98.01 218.9 218.9" fill-rule="evenodd" fill="#ef6a47" />
<g style="fill-opacity:0.12900002;fill-rule:evenodd" id="g12" />
<path id="path66" fill="#fff" d="m143.9 142.27c-0.872 0-1.606 0.801-1.606 1.785v91.2c0 0.984 0.735 1.785 1.606 1.785h91.6c0.872 0 1.562-0.801 1.562-1.785v-91.2c0-0.984-0.69-1.785-1.562-1.785h-91.6m132.64 0c-0.872 0-1.562 0.801-1.562 1.785v91.2c0 0.984 0.69 1.785 1.562 1.785h91.6c0.872 0 1.562-0.801 1.562-1.785v-91.2c0-0.984-0.69-1.785-1.562-1.785h-91.6m-132.64 132.68c-0.872 0-1.606 0.801-1.606 1.785v91.2c0 0.984 0.735 1.785 1.606 1.785h91.6c0.872 0 1.562-0.801 1.562-1.785v-91.2c0-0.984-0.69-1.785-1.562-1.785h-91.6m132.64 0c-0.872 0-1.562 0.801-1.562 1.785v91.2c0 0.984 0.69 1.785 1.562 1.785h91.6c0.872 0 1.562-0.801 1.562-1.785v-91.2c0-0.984-0.69-1.785-1.562-1.785h-91.6" />
</svg>
