<?xml version="1.0" encoding="UTF-8" standalone="no"?>
<svg xmlns:dc="http://purl.org/dc/elements/1.1/" xmlns:cc="http://creativecommons.org/ns#" xmlns:rdf="http://www.w3.org/1999/02/22-rdf-syntax-ns#" xmlns:svg="http://www.w3.org/2000/svg" xmlns="http://www.w3.org/2000/svg" xmlns:sodipodi="http://sodipodi.sourceforge.net/DTD/sodipodi-0.dtd" xmlns:inkscape="http://www.inkscape.org/namespaces/inkscape" height="512" viewBox="0 0 512 512" width="512" version="1.1" id="svg2" inkscape:version="0.91 r" sodipodi:docname="cpuinfo.svg">
<defs id="defs14" />
<sodipodi:namedview pagecolor="#ffffff" bordercolor="#666666" borderopacity="1" objecttolerance="10" gridtolerance="10" guidetolerance="10" inkscape:pageopacity="0" inkscape:pageshadow="2" inkscape:window-width="737" inkscape:window-height="480" id="namedview12" showgrid="false" inkscape:zoom="0.49301579" inkscape:cx="256" inkscape:cy="256" inkscape:window-x="0" inkscape:window-y="0" inkscape:window-maximized="0" inkscape:current-layer="svg2" />
<metadata id="metadata72">
<rdf:RDF>
<cc:Work rdf:about="">
<dc:format>image/svg+xml</dc:format>
<dc:type rdf:resource="http://purl.org/dc/dcmitype/StillImage" />
</cc:Work>
</rdf:RDF>
</metadata>
<path id="path6" fill-rule="evenodd" fill="#decc3e" d="m471.95 253.05c0 120.9-98.01 218.9-218.9 218.9-120.9 0-218.9-98.01-218.9-218.9 0-120.9 98.01-218.9 218.9-218.9 120.9 0 218.9 98.01 218.9 218.9" style="fill:#f2cc3e;fill-opacity:1" />
<path id="path66" fill="#fff" d="m193.81 81.125c-5.928 0-10.719 4.7908-10.719 10.719v46.844c0 5.928 4.7908 10.656 10.719 10.656 5.928 0 10.719-4.7292 10.719-10.656v-46.844c0-5.928-4.7908-10.719-10.719-10.719zm59.5 0c-5.928 0-10.656 4.7908-10.656 10.719v46.844c0 5.928 4.7292 10.656 10.656 10.656 5.928 0 10.719-4.7292 10.719-10.656v-46.844c0-5.928-4.7908-10.719-10.719-10.719zm59.531 0c-5.928 0-10.719 4.7908-10.719 10.719v46.844c0 5.928 4.7908 10.656 10.719 10.656 5.928 0 10.656-4.7292 10.656-10.656v-46.844c0-5.928-4.7292-10.719-10.656-10.719zm-120.03 83.625c-16.301 0-29.406 13.168-29.406 29.469v121.69c0 16.301 13.11 29.438 29.406 29.438h121.03c16.301 0 29.406-13.14 29.406-29.438v-121.69c0-16.301-13.11-29.469-29.406-29.469h-121.03zm43.656 18.875h39.062v29.375h-39.062v-29.375zm-144.97 1.19c-5.928 0-10.719 4.7292-10.719 10.656 0 5.928 4.7908 10.719 10.719 10.719h46.844c5.928 0 10.656-4.7908 10.656-10.719 0-5.928-4.7292-10.656-10.656-10.656h-46.844zm282.22 0c-5.928 0-10.719 4.7292-10.719 10.656 0 5.928 4.7908 10.719 10.719 10.719h46.844c5.928 0 10.656-4.7908 10.656-10.719 0-5.928-4.7292-10.656-10.656-10.656h-46.844zm-137.25 45.594h39.062v96.344h-39.062v-96.344zm-144.97 13.91c-5.928 0-10.719 4.7908-10.719 10.719 0 5.928 4.7908 10.656 10.719 10.656h46.844c5.928 0 10.656-4.7292 10.656-10.656 0-5.928-4.7292-10.719-10.656-10.719h-46.844zm282.22 0c-5.928 0-10.719 4.7908-10.719 10.719 0 5.928 4.7908 10.656 10.719 10.656h46.844c5.928 0 10.656-4.7292 10.656-10.656 0-5.928-4.7292-10.719-10.656-10.719h-46.844zm-282.22 59.5c-5.928 0-10.719 4.7908-10.719 10.719 0 5.928 4.7908 10.719 10.719 10.719h46.844c5.928 0 10.656-4.7908 10.656-10.719 0-5.928-4.7292-10.719-10.656-10.719h-46.844zm282.22 0c-5.928 0-10.719 4.7908-10.719 10.719 0 5.928 4.7908 10.719 10.719 10.719h46.844c5.928 0 10.656-4.7908 10.656-10.719 0-5.928-4.7292-10.719-10.656-10.719h-46.844zm-179.91 58.85c-5.928 0-10.719 4.7908-10.719 10.719v46.844c0 5.928 4.7908 10.656 10.719 10.656 5.928 0 10.719-4.7292 10.719-10.656v-46.844c0-5.928-4.7908-10.719-10.719-10.719zm59.5 0c-5.928 0-10.656 4.7908-10.656 10.719v46.844c0 5.928 4.7292 10.656 10.656 10.656 5.928 0 10.719-4.7292 10.719-10.656v-46.844c0-5.928-4.7908-10.719-10.719-10.719zm59.531 0c-5.928 0-10.719 4.7908-10.719 10.719v46.844c0 5.928 4.7908 10.656 10.719 10.656 5.928 0 10.656-4.7292 10.656-10.656v-46.844c0-5.928-4.7292-10.719-10.656-10.719z" />
</svg>
