<?xml version="1.0" encoding="UTF-8" standalone="no"?>
<svg xmlns:dc="http://purl.org/dc/elements/1.1/" xmlns:cc="http://creativecommons.org/ns#" xmlns:rdf="http://www.w3.org/1999/02/22-rdf-syntax-ns#" xmlns:svg="http://www.w3.org/2000/svg" xmlns="http://www.w3.org/2000/svg" xmlns:sodipodi="http://sodipodi.sourceforge.net/DTD/sodipodi-0.dtd" xmlns:inkscape="http://www.inkscape.org/namespaces/inkscape" height="512" viewBox="0 0 512 512" width="512" version="1.1" id="svg2" inkscape:version="0.91 r" sodipodi:docname="duolingo.svg">
<defs id="defs21" />
<sodipodi:namedview pagecolor="#ffffff" bordercolor="#666666" borderopacity="1" objecttolerance="10" gridtolerance="10" guidetolerance="10" inkscape:pageopacity="0" inkscape:pageshadow="2" inkscape:window-width="640" inkscape:window-height="480" id="namedview19" showgrid="false" inkscape:zoom="0.4609375" inkscape:cx="256" inkscape:cy="256" inkscape:window-x="0" inkscape:window-y="0" inkscape:window-maximized="0" inkscape:current-layer="svg2" />
<metadata id="metadata70">
<rdf:RDF>
<cc:Work rdf:about="">
<dc:format>image/svg+xml</dc:format>
<dc:type rdf:resource="http://purl.org/dc/dcmitype/StillImage" />
</cc:Work>
</rdf:RDF>
</metadata>
<path id="path4" fill-rule="evenodd" fill="#71b613" d="m471.95 253.05c0 120.9-98.01 218.9-218.9 218.9-120.9 0-218.9-98.01-218.9-218.9 0-120.9 98.01-218.9 218.9-218.9 120.9 0 218.9 98.01 218.9 218.9" />
<path id="path4021" fill="#ffcc42" d="m169.28 414.06c-11.667 0-21.335 12.952-23.219 29.969 14.182 7.9625 29.338 14.392 45.25 19.062 1.0212-4.0327 1.5625-8.4184 1.5625-13 0-19.907-10.576-36.031-23.594-36.031zm23.594 36.031c0 5.1822 0.94975 10.029 2.5625 14.188 9.2437 2.5156 18.719 4.4273 28.406 5.7188 3.364-5.0594 5.4375-12.117 5.4375-19.906 0-15.383-8.128-27.844-18.188-27.844s-18.219 12.461-18.219 27.844zm149.85-36.03c-13.018 0-23.594 16.124-23.594 36.031 0 3.9509 0.41991 7.7543 1.1875 11.312 15.95-5.1445 31.102-12.06 45.219-20.531-2.6703-15.432-11.88-26.812-22.812-26.812zm-23.6 36.03c0-15.383-8.1592-27.844-18.219-27.844s-18.188 12.461-18.188 27.844c0 7.4058 1.8848 14.132 4.9688 19.125 10.095-1.6052 19.977-3.9081 29.562-6.8438 1.1955-3.7104 1.875-7.8677 1.875-12.281zm-191.62-27.84c-3.2324 0-6.2427 1.3071-8.875 3.5625 8.3931 6.5398 17.287 12.471 26.594 17.75-1.93-12.22-9.13-21.31-17.72-21.31zm256.97 0c-7.6208 0-14.103 7.1597-16.812 17.312 7.8554-4.8368 15.374-10.146 22.531-15.906-1.7948-0.90305-3.7262-1.4062-5.7188-1.4062z" color="#000000" style="fill:#e6e6e6" />
<path id="path10-4" d="m256 1c-140.83 0-255 114.17-255 255s114.17 255 255 255 255-114.17 255-255-114.17-255-255-255m8.827 44.931c120.9 0 218.9 98 218.9 218.9s-98 218.9-218.9 218.9-218.93-98-218.93-218.9 98.03-218.9 218.93-218.9" fill-rule="evenodd" fill-opacity="0.067" style="fill:#e6e6e6" />
<path id="path3539" opacity="0.25" fill="#fff" d="m110.91 115.95s-5.6494 82.501 0.83269 120.62c6.2935 37.009 32.234 70.47 71.984 70.47 35.482 0 65.575-26.124 72.269-59.409 6.6949 33.284 36.808 59.409 72.291 59.409 39.749 0 65.69-33.461 71.984-70.47 6.4821-38.119 0.81082-120.62 0.81082-120.62s-74.291 18.895-103.14 42.305c-17.648 13.959-36.717 33.203-41.941 60.413-5.2238-27.21-24.293-46.453-41.941-60.413-28.853-23.41-103.14-42.305-103.14-42.305z" style="fill:#f2f2f2;opacity:0.62400019" />
<path id="path3966" d="m255.41 228.09c0 24.747-19.547 44.934-43.752 46.082l43.752 25.547 45.215-25.276c-27.075-1.7553-45.427-23.359-45.215-46.352zm-37.683 51.798 37.683 42.397 37.683-42.397-37.683 20.589-37.683-20.589z" fill="#ffcc42" style="fill:#e6e6e6" />
<path id="path4343" transform="matrix(.72999 0 0 .72463 72.043 86.411)" fill="#fff" d="m195.84 209.46a48.029 50.356 0 1 1 -96.058 0 48.029 50.356 0 1 1 96.058 0z" color="#000000" />
<path id="path4353" transform="matrix(.40149 0 0 .39854 120.6 154.71)" d="m195.84 209.46a48.029 50.356 0 1 1 -96.058 0 48.029 50.356 0 1 1 96.058 0z" color="#000000" />
<g id="g4371" transform="matrix(5.333 0 0 5.5504 106.73 103.89)">
<path id="path4367" transform="matrix(.13688 0 0 .13056 21.684 -3.1497)" fill="#fff" d="m195.84 209.46a48.029 50.356 0 1 1 -96.058 0 48.029 50.356 0 1 1 96.058 0z" color="#000000" />
<path id="path4369" transform="matrix(.075284 0 0 .071805 30.789 9.1558)" d="m195.84 209.46a48.029 50.356 0 1 1 -96.058 0 48.029 50.356 0 1 1 96.058 0z" color="#000000" />
</g>
</svg>
