<?xml version="1.0" encoding="UTF-8" standalone="no"?>
<svg xmlns:dc="http://purl.org/dc/elements/1.1/" xmlns:cc="http://creativecommons.org/ns#" xmlns:rdf="http://www.w3.org/1999/02/22-rdf-syntax-ns#" xmlns:svg="http://www.w3.org/2000/svg" xmlns="http://www.w3.org/2000/svg" xmlns:sodipodi="http://sodipodi.sourceforge.net/DTD/sodipodi-0.dtd" xmlns:inkscape="http://www.inkscape.org/namespaces/inkscape" height="512" viewBox="0 0 512 512" width="512" version="1.1" id="svg2" inkscape:version="0.91 r" sodipodi:docname="ekiga.svg">
<defs id="defs18" />
<sodipodi:namedview pagecolor="#ffffff" bordercolor="#666666" borderopacity="1" objecttolerance="10" gridtolerance="10" guidetolerance="10" inkscape:pageopacity="0" inkscape:pageshadow="2" inkscape:window-width="640" inkscape:window-height="480" id="namedview16" showgrid="false" inkscape:zoom="0.4609375" inkscape:cx="256" inkscape:cy="256" inkscape:window-x="0" inkscape:window-y="0" inkscape:window-maximized="0" inkscape:current-layer="svg2" />
<metadata id="metadata86">
<rdf:RDF>
<cc:Work rdf:about="">
<dc:format>image/svg+xml</dc:format>
<dc:type rdf:resource="http://purl.org/dc/dcmitype/StillImage" />
</cc:Work>
</rdf:RDF>
</metadata>
<path style="fill:#e5700f;fill-rule:evenodd" inkscape:connector-curvature="0" d="m 471.95,253.05 c 0,120.9 -98.01,218.91 -218.91,218.91 -120.9,0 -218.91,-98.01 -218.91,-218.91 0,-120.9 98.01,-218.91 218.91,-218.91 120.9,0 218.91,98.01 218.91,218.91" id="path18" />
<path style="fill:#ffffff;fill-rule:evenodd" inkscape:connector-curvature="0" d="m 282.03,90.33 c 0,0 -36.18,37.612 -37.04,82.01 -18.896,-10.82 -32.812,-34.878 -18.954,-61.26 13.896,-26.455 33.07,-26.673 55.994,-20.752 m -79.77,238.99 c 0,0 -20.32,45.543 -3.658,90.5 -21.462,-3.662 -42.793,-20.73 -40.32,-49.53 2.469,-28.749 12.278,-40.12 43.977,-40.964 m 21.249,0.765 c 0,0 -19.12,27.382 -3.698,94.73 40.677,-2.22 55.05,-7.179 83.57,-45.883 28.527,-38.704 57.966,-177.99 48.812,-221.27 -9.153,-43.29 -44.37,-56.24 -44.37,-56.24 -39.2,19.981 -39.938,77.71 -39.938,77.71 0,0 36.768,9.653 11.09,94.73 -25.818,85.55 -55.47,56.24 -55.47,56.24" id="path82" />
</svg>
