<?xml version="1.0" encoding="UTF-8" standalone="no"?>
<svg
   xmlns:dc="http://purl.org/dc/elements/1.1/"
   xmlns:cc="http://creativecommons.org/ns#"
   xmlns:rdf="http://www.w3.org/1999/02/22-rdf-syntax-ns#"
   xmlns:svg="http://www.w3.org/2000/svg"
   xmlns="http://www.w3.org/2000/svg"
   xmlns:sodipodi="http://sodipodi.sourceforge.net/DTD/sodipodi-0.dtd"
   xmlns:inkscape="http://www.inkscape.org/namespaces/inkscape"
   height="512"
   viewBox="0 0 512 512"
   width="512"
   version="1.1"
   id="svg2"
   inkscape:version="0.91 r"
   sodipodi:docname="emacs.svg">
  <defs
     id="defs16" />
  <sodipodi:namedview
     pagecolor="#ffffff"
     bordercolor="#666666"
     borderopacity="1"
     objecttolerance="10"
     gridtolerance="10"
     guidetolerance="10"
     inkscape:pageopacity="0"
     inkscape:pageshadow="2"
     inkscape:window-width="640"
     inkscape:window-height="480"
     id="namedview14"
     showgrid="false"
     inkscape:zoom="0.4609375"
     inkscape:cx="256"
     inkscape:cy="256"
     inkscape:window-x="0"
     inkscape:window-y="0"
     inkscape:window-maximized="0"
     inkscape:current-layer="svg2" />
  <metadata
     id="metadata26">
    <rdf:RDF>
      <cc:Work
         rdf:about="">
        <dc:format>image/svg+xml</dc:format>
        <dc:type
           rdf:resource="http://purl.org/dc/dcmitype/StillImage" />
      </cc:Work>
    </rdf:RDF>
  </metadata>
  <path
     style="fill:#8238a7;fill-rule:evenodd"
     inkscape:connector-curvature="0"
     d="m 471.95,253.05 c 0,120.9 -98.01,218.9 -218.9,218.9 -120.9,0 -218.9,-98.01 -218.9,-218.9 0,-120.9 98.01,-218.9 218.9,-218.9 120.9,0 218.9,98.01 218.9,218.9"
     id="path6" />
  <path
     id="path20"
     fill="#fff"
     d="m171.11 388.09s17.08 4.958 39.804 7.792c9.205 1.148 44.23 5.16 71.08 5.05 0 0 32.703 0.035 50.755-2.527 18.889-2.683 29.59-6.107 35.545-12.941 0.155-1.629 2.875-6.941-4.468-12.06-18.771-13.09-43.04-16.679-90.17-27.873-52.12-13.1-67.7-25.653-75.48-34.735-7.378-9.102 1.385-28 43.38-37.28 21.265-5.175 100.46-6.126 100.46-6.126-22.722-18.04-65.38-50.34-74.1-57.21-7.647-6.02-19.971-15.268-21.295-23.529-1.787-8.04 10.871-11.914 17.572-12.36 21.593-1.489 51.08 1.042 77.29 6.255 13.175 2.62 15.488 2.234 15.488 2.234 18.764 0.894 33.36-8.935 32.613-29.635-0.149-20.998-21.14-37.835-44.38-38.57-21.881-0.693-75.8 3.127-75.8 3.127 62.844 12.956 73.12 16.262 76.4 23.827 1.936 4.468-3.234 8.91-20.551 8.04-18.853-0.945-57.48-5.51-57.48-5.51-36.783-5.659-62.4-11.02-73.57 3.574-7.297 9.534 1.042 21.15 4.319 27.997 14.594 25.465 39.83 42.936 55.845 55.25 6.03 4.633 24.423 14.892 24.423 14.892-57.19-15.637-102.75-6.85-131.64 8.339-33.21 19.657-27.528 52.829 25.17 83.84 31.12 18.317 46.621 27.12 97.58 33.373 29.787 4.75 34.23 6.693 33.999 9.172-0.319 3.491-35.26 4.813-44.859 5.476-24.43 1.685-87.61 2.106-87.93 2.106" />
</svg>
