<?xml version="1.0" encoding="UTF-8" standalone="no"?>
<svg xmlns:dc="http://purl.org/dc/elements/1.1/" xmlns:cc="http://creativecommons.org/ns#" xmlns:rdf="http://www.w3.org/1999/02/22-rdf-syntax-ns#" xmlns:svg="http://www.w3.org/2000/svg" xmlns="http://www.w3.org/2000/svg" xmlns:sodipodi="http://sodipodi.sourceforge.net/DTD/sodipodi-0.dtd" xmlns:inkscape="http://www.inkscape.org/namespaces/inkscape" height="512" viewBox="0 0 512 512" width="512" version="1.1" id="svg2" inkscape:version="0.91 r" sodipodi:docname="emerald-theme-manager-icon.svg">
<defs id="defs16">
<inkscape:perspective sodipodi:type="inkscape:persp3d" inkscape:vp_x="0 : 256 : 1" inkscape:vp_y="0 : 1000 : 0" inkscape:vp_z="512 : 256 : 1" inkscape:persp3d-origin="256 : 170.66667 : 1" id="perspective4150" />
</defs>
<sodipodi:namedview pagecolor="#ffffff" bordercolor="#666666" borderopacity="1" objecttolerance="10" gridtolerance="10" guidetolerance="10" inkscape:pageopacity="0" inkscape:pageshadow="2" inkscape:window-width="1680" inkscape:window-height="994" id="namedview14" showgrid="false" inkscape:zoom="0.4609375" inkscape:cx="20.610169" inkscape:cy="256" inkscape:window-x="0" inkscape:window-y="0" inkscape:window-maximized="1" inkscape:current-layer="svg2" />
<metadata id="metadata101">
<rdf:RDF>
<cc:Work rdf:about="">
<dc:format>image/svg+xml</dc:format>
<dc:type rdf:resource="http://purl.org/dc/dcmitype/StillImage" />
<dc:title></dc:title>
</cc:Work>
</rdf:RDF>
</metadata>
<path style="fill:#4ea92b;fill-rule:evenodd" inkscape:connector-curvature="0" d="m 471.95,253.05 c 0,120.9 -98.01,218.91 -218.91,218.91 -120.9,0 -218.91,-98.01 -218.91,-218.91 0,-120.9 98.01,-218.91 218.91,-218.91 120.9,0 218.91,98.01 218.91,218.91" id="path37" />
<path id="path97" fill="#fff" d="m139.57 113.6-46.51 75.36h93.18l-46.68-75.36m11.711 0 46.51 75.36 46.51-75.36h-93.01m104.72 0-46.51 75.36h93.01l-46.51-75.36m11.711 0 46.51 75.36 46.51-75.36h-93.01m104.72 0-46.675 75.36h93.18l-46.51-75.36m-279.37 86.9 153.94 197.9-54.99-197.9h-98.95m110.49 0l52.45 197.9 52.45-197.9h-104.89m116.43 0-54.992 197.9 153.94-197.9h-98.95" />
</svg>
