<?xml version="1.0" encoding="UTF-8" standalone="no"?>
<svg xmlns:dc="http://purl.org/dc/elements/1.1/" xmlns:cc="http://creativecommons.org/ns#" xmlns:rdf="http://www.w3.org/1999/02/22-rdf-syntax-ns#" xmlns:svg="http://www.w3.org/2000/svg" xmlns="http://www.w3.org/2000/svg" xmlns:sodipodi="http://sodipodi.sourceforge.net/DTD/sodipodi-0.dtd" xmlns:inkscape="http://www.inkscape.org/namespaces/inkscape" height="512" viewBox="0 0 512 512" width="512" version="1.1" id="svg2" inkscape:version="0.91 r" sodipodi:docname="telepathy.svg">
<defs id="defs16" />
<sodipodi:namedview pagecolor="#ffffff" bordercolor="#666666" borderopacity="1" objecttolerance="10" gridtolerance="10" guidetolerance="10" inkscape:pageopacity="0" inkscape:pageshadow="2" inkscape:window-width="640" inkscape:window-height="480" id="namedview14" showgrid="false" inkscape:zoom="0.4609375" inkscape:cx="256" inkscape:cy="256" inkscape:window-x="0" inkscape:window-y="0" inkscape:window-maximized="0" inkscape:current-layer="svg2" />
<metadata id="metadata72">
<rdf:RDF>
<cc:Work rdf:about="">
<dc:format>image/svg+xml</dc:format>
<dc:type rdf:resource="http://purl.org/dc/dcmitype/StillImage" />
</cc:Work>
</rdf:RDF>
</metadata>
<path style="fill:#2895c5;fill-rule:evenodd" inkscape:connector-curvature="0" d="m 471.95,253.05 c 0,120.9 -98.01,218.9 -218.9,218.9 -120.9,0 -218.9,-98.01 -218.9,-218.9 0,-120.9 98.01,-218.9 218.9,-218.9 120.9,0 218.9,98.01 218.9,218.9" id="path6" />
<path id="path66" d="m153.93 162.48v75.702h44.092v-75.702h-44.092m146.65 0v75.702h44.092v-75.702h-44.09m-169.47 106.9a3.7141 3.7141 0 0 0 -0.0673 0.0336 3.7141 3.7141 0 0 0 -0.0336 0 3.7141 3.7141 0 0 0 -3.2312 4.5439c5 22.22 20.718 40.31 41.804 53.15 21.09 12.833 47.665 20.525 75.16 22.11 54.99 3.178 114.31-18.428 139.28-74.59a3.7141 3.7141 0 0 0 -5.5536 -4.5102c-34.17 24.26-71.31 41.4-111.81 43.958-40.507 2.563-84.58-9.35-133.09-43.958a3.7141 3.7141 0 0 0 -2.0868 -0.70683 3.7141 3.7141 0 0 0 -0.37024 -0.0336" fill-rule="evenodd" fill="#fff" />
</svg>
