<?xml version="1.0" encoding="UTF-8" standalone="no"?>
<svg xmlns:dc="http://purl.org/dc/elements/1.1/" xmlns:cc="http://creativecommons.org/ns#" xmlns:rdf="http://www.w3.org/1999/02/22-rdf-syntax-ns#" xmlns:svg="http://www.w3.org/2000/svg" xmlns="http://www.w3.org/2000/svg" xmlns:sodipodi="http://sodipodi.sourceforge.net/DTD/sodipodi-0.dtd" xmlns:inkscape="http://www.inkscape.org/namespaces/inkscape" height="512" viewBox="0 0 512 512" width="512" version="1.1" id="svg2" inkscape:version="0.91 r" sodipodi:docname="Evernote-www.evernote.com.svg">
<defs id="defs16" />
<sodipodi:namedview pagecolor="#ffffff" bordercolor="#666666" borderopacity="1" objecttolerance="10" gridtolerance="10" guidetolerance="10" inkscape:pageopacity="0" inkscape:pageshadow="2" inkscape:window-width="640" inkscape:window-height="480" id="namedview14" showgrid="false" inkscape:zoom="0.4609375" inkscape:cx="256" inkscape:cy="256" inkscape:window-x="0" inkscape:window-y="0" inkscape:window-maximized="0" inkscape:current-layer="svg2" />
<metadata id="metadata72">
<rdf:RDF>
<cc:Work rdf:about="">
<dc:format>image/svg+xml</dc:format>
<dc:type rdf:resource="http://purl.org/dc/dcmitype/StillImage" />
</cc:Work>
</rdf:RDF>
</metadata>
<path id="path4" d="m471.95 253.05c0 120.9-98.01 218.9-218.9 218.9-120.9 0-218.9-98.01-218.9-218.9 0-120.9 98.01-218.9 218.9-218.9 120.9 0 218.9 98.01 218.9 218.9" fill-rule="evenodd" fill="#68af4c" />
<path id="path66" fill="#fff" d="m167.73 143.08l0.018 0.004 27.03 5.904c1.549 0.338 3.069-0.646 3.406-2.176 0.003-0.01 4.714-23.15 6.115-29.571l0.017-0.076c1.151-5.27 3.265-9.622 6.04-13.05l1.302-1.527c-0.107-0.006-0.222 0.022-0.347 0.103l-63.848 40.4c-0.121 0.061-0.209 0.157-0.263 0.263 1.203-0.298 2.848-0.706 3.078-0.752 5.02-1.056 10.814-0.972 17.453 0.478m211.56 40.29c0.353-11.916-5.248-19.05-10.941-22.618-6.141-3.855-19.11-9.293-35.661-14.996-13.312-4.587-29.398-7.966-39.16-9.786 0.57-8.196-3.438-16.673-9.147-20.552-15.214-10.326-41.33-14.338-48.35-13.937-5.575 0.315-12.05 2.043-16.295 5.956-2.846 2.612-5.114 6.259-6.332 11.781-0.683 3.126-2.204 10.51-3.553 17.07-1.354 6.581-2.55 12.471-2.559 12.511-1.279 5.843-7.07 9.561-12.968 8.281l-27.03-5.905c-5.767-1.26-10.383-1.257-14.08-0.469-3.704 0.788-6.54 2.322-8.885 4.357-4.665 4.04-6.593 9.86-7.906 15.943 0 0-1.032 4.98-1.93 14.858-0.626 7.659-3.877 61.41 0.365 78.894 1.64 6.802 3.068 9.798 8.337 13.789 11.843 8.421 40.32 21.13 53.914 25.96 13.567 4.827 21.51 10.478 29.11 0.717 0.023-0.024 1.638-2.484 3.912-6.114 7.519-12.688 10.801-24.687 12.719-33.469 0.195-0.893 1.52-0.647 1.316 0.287-1.354 6.2-7.336 27.882 8.02 37.4 6.06 3.755 19.239 8.801 32.732 13.441 12.207 4.168 20.222 11.06 13.234 43.05-4.251 19.465-8.939 21.237-30.398 16.55-17.395-3.799-24.12-4.799-21.12-18.563 2.43-11.125 13.222-7.546 21.409-5.758 3.657 0.799 1.594-2.49 3.094-9.353 1.491-6.827 6.64-9.838 2.607-10.823-28.14-6.959-44.961-9.854-52.664 25.41-6.992 32.01 4.01 40.645 44.19 49.42 31.503 6.881 42.833 8.279 64.62-29.08 4.308-7.373 15.823-30.23 28.472-70.07 7.998-25.19 20.32-103.8 20.928-124.19m-73.65 73.78c-3.862-0.985-7.659-1.558-11.272-1.762 2.709-7.688 8.101-16.67 19.614-13.73 12.747 3.245 11.905 15.728 10.163 23.927-4.89-3.588-11.259-6.584-18.505-8.435" />
</svg>
