<?xml version="1.0" encoding="UTF-8" standalone="no"?>
<svg xmlns:dc="http://purl.org/dc/elements/1.1/" xmlns:cc="http://creativecommons.org/ns#" xmlns:rdf="http://www.w3.org/1999/02/22-rdf-syntax-ns#" xmlns:svg="http://www.w3.org/2000/svg" xmlns="http://www.w3.org/2000/svg" xmlns:sodipodi="http://sodipodi.sourceforge.net/DTD/sodipodi-0.dtd" xmlns:inkscape="http://www.inkscape.org/namespaces/inkscape" height="512" viewBox="0 0 512 512" width="512" version="1.1" id="svg2" inkscape:version="0.91 r" sodipodi:docname="kflickr.svg">
<sodipodi:namedview pagecolor="#ffffff" bordercolor="#666666" borderopacity="1" objecttolerance="10" gridtolerance="10" guidetolerance="10" inkscape:pageopacity="0" inkscape:pageshadow="2" inkscape:window-width="640" inkscape:window-height="480" id="namedview28" showgrid="false" inkscape:zoom="0.4609375" inkscape:cx="256" inkscape:cy="256" inkscape:window-x="0" inkscape:window-y="0" inkscape:window-maximized="0" inkscape:current-layer="svg2" />
<metadata id="metadata70">
<rdf:RDF>
<cc:Work rdf:about="">
<dc:format>image/svg+xml</dc:format>
<dc:type rdf:resource="http://purl.org/dc/dcmitype/StillImage" />
</cc:Work>
</rdf:RDF>
</metadata>
<defs id="defs68">
<filter id="filter3174" color-interpolation-filters="sRGB">
<feGaussianBlur id="feGaussianBlur3176" stdDeviation="1.71" />
</filter>
<linearGradient id="linearGradient3288" gradientUnits="userSpaceOnUse" y1="92.54" gradientTransform="scale(1.0059 .99417)" x2="0" y2="7.02">
<stop id="stop3750" />
<stop id="stop3752" stop-opacity="0.588" offset="1" />
</linearGradient>
</defs>
<path id="path8" fill-rule="evenodd" fill="#076ce6" d="m471.95 253.05c0 120.9-98.006 218.91-218.91 218.91s-218.91-98.006-218.91-218.91 98.006-218.91 218.91-218.91 218.91 98.006 218.91 218.91" />
<path id="path3329" fill="#ff1b91" d="m255.5 34.188v437.75c119.76-1.3241 216.44-98.802 216.44-218.88s-96.679-217.55-216.44-218.88z" color="#000000" />
<path id="path4251" d="m169.66 296.06v86.656h17.688v-86.656h-17.688z" fill="#fff" />
<path id="path4249" d="m147.59 296.88c-14.036 0-21.156 6.0662-21.156 23.531v3.2188h-13.188v15.906h12.875v43.188h17.562v-43.188h13.75v-15.906h-13.75v-3.2188c0-5.7472 1.7664-9.3438 6.25-9.3438 2.6315 0 5.3507 0.34284 6.8125 0.90625l1.1-13.97c-2.2416-0.45139-6.4483-1.125-10.25-1.125z" fill="#fff" />
<path id="path4247" d="m291.5 296.94v85.781h17.531v-28.781h0.21875l19.062 28.781h23.062l-23.594-31.438 21.906-28.375h-20.719l-19.719 26.125h-0.21875v-52.094h-17.531z" fill="#fff" />
<path id="path4245" d="m203.94 296.97v16.438h17.656v-16.438h-17.656z" fill="#fff" />
<path id="path4243" d="m392.47 321.56c-8.0512 0-12.707 4.6684-15.906 12.031h-0.1875v-10.688h-16.938v59.812h18.562v-26.25c0-11.379 4.8616-18.188 13.531-18.188 2.1664 0 4.2482 0.0194 6.3125 0.6875l0.90625-16.75c-1.8598-0.33436-4.1154-0.65625-6.2812-0.65625z" fill="#fff" />
<path id="path4241" d="m264.53 323.28c-17.055 0-30.062 11.139-30.062 30.438 0 19.187 13.008 30.344 30.062 30.344 4.7594 0 10.1-0.888 14.562-2.5625l-0.40625-14.938c-2.9738 1.7854-7.0281 2.7812-11.094 2.7812-7.7338 0-14.688-6.0222-14.688-15.281 0-10.04 5.9538-16.062 13.688-16.062 4.2637 0 7.5406 0.98923 10.812 3.2188l1.29-14.72c-4.0657-2.2306-8.8017-3.2188-14.156-3.2188z" fill="#fff" />
<path id="path3742" d="m203.94 323.31v59.406h17.25v-59.406h-17.25z" fill="#fff" />
<path id="path4255" d="m329.22 127.94a64.797 64.797 0 1 0 0 129.59 64.797 64.797 0 0 0 0 -129.59z" fill="#fff" />
<path style="fill:#ffffff" inkscape:connector-curvature="0" d="m 182.34,127.94 a 64.797,64.797 0 1 0 0,129.59 64.797,64.797 0 0 0 0,-129.59 z" id="path4632" />
</svg>
