<?xml version="1.0" encoding="UTF-8" standalone="no"?>
<svg xmlns:dc="http://purl.org/dc/elements/1.1/" xmlns:cc="http://creativecommons.org/ns#" xmlns:rdf="http://www.w3.org/1999/02/22-rdf-syntax-ns#" xmlns:svg="http://www.w3.org/2000/svg" xmlns="http://www.w3.org/2000/svg" xmlns:sodipodi="http://sodipodi.sourceforge.net/DTD/sodipodi-0.dtd" xmlns:inkscape="http://www.inkscape.org/namespaces/inkscape" height="512" viewBox="0 0 512 512" width="512" version="1.1" id="svg2" inkscape:version="0.91 r" sodipodi:docname="git.svg">
<sodipodi:namedview pagecolor="#ffffff" bordercolor="#666666" borderopacity="1" objecttolerance="10" gridtolerance="10" guidetolerance="10" inkscape:pageopacity="0" inkscape:pageshadow="2" inkscape:window-width="640" inkscape:window-height="480" id="namedview23" showgrid="false" inkscape:zoom="0.4609375" inkscape:cx="256" inkscape:cy="256" inkscape:window-x="0" inkscape:window-y="0" inkscape:window-maximized="0" inkscape:current-layer="svg2" />
<metadata id="metadata70">
<rdf:RDF>
<cc:Work rdf:about="">
<dc:format>image/svg+xml</dc:format>
<dc:type rdf:resource="http://purl.org/dc/dcmitype/StillImage" />
</cc:Work>
</rdf:RDF>
</metadata>
<defs id="defs68">
<radialGradient id="radialGradient21305" gradientUnits="userSpaceOnUse" cy="64" cx="64" r="64">
<stop id="stop4218-0" stop-color="#fff" />
<stop id="stop4220-2" stop-color="#e8e8e8" offset="0.688" />
<stop id="stop4222-6" stop-color="#686868" offset="0.875" />
<stop id="stop4224-6" offset="1" />
</radialGradient>
<filter id="filter3174" color-interpolation-filters="sRGB">
<feGaussianBlur id="feGaussianBlur3176" stdDeviation="1.71" />
</filter>
<linearGradient id="linearGradient4544" gradientUnits="userSpaceOnUse" x2="0" gradientTransform="scale(1.0059 .99417)" y1="92.54" y2="7.02">
<stop id="stop3750" />
<stop id="stop3752" stop-opacity="0.588" offset="1" />
</linearGradient>
</defs>
<path id="path8" fill-rule="evenodd" fill="#ec513d" d="m471.95 253.05c0 120.9-98.006 218.91-218.91 218.91s-218.91-98.006-218.91-218.91 98.006-218.91 218.91-218.91 218.91 98.006 218.91 218.91" />
<path id="path14-9" fill="#fff" d="m404.01 242.3-134.32-134.31c-7.7289-7.7356-20.275-7.7356-28.014 0l-27.891 27.893 35.38 35.381c8.2248-2.7769 17.652-0.91489 24.205 5.6393 6.587 6.5952 8.4358 16.103 5.5889 24.355l34.099 34.098c8.2498-2.8428 17.768-1.0062 24.355 5.593 9.2097 9.207 9.2097 24.126 0 33.336-9.211 9.2126-24.13 9.2126-33.345 0-6.925-6.9303-8.6376-17.105-5.1303-25.637l-31.801-31.802-0.002 83.686c2.2453 1.1116 4.3643 2.5951 6.2354 4.4579 9.207 9.206 9.207 24.122 0 33.343-9.2098 9.2058-24.135 9.2058-33.336 0-9.2084-9.2205-9.2084-24.137 0-33.343 2.2757-2.2716 4.9088-3.991 7.7186-5.1435v-84.462c-2.8097-1.1486-5.4388-2.856-7.7186-5.1438-6.9749-6.9695-8.6548-17.206-5.0776-25.771l-34.876-34.883-92.098 92.093c-7.7383 7.7422-7.7383 20.288 0 28.025l134.32 134.31c7.733 7.7357 20.275 7.7357 28.018 0l133.68-133.69c7.7356-7.7397 7.7356-20.289 0-28.026" />
</svg>
