<?xml version="1.0" encoding="UTF-8" standalone="no"?>
<svg xmlns:dc="http://purl.org/dc/elements/1.1/" xmlns:cc="http://creativecommons.org/ns#" xmlns:rdf="http://www.w3.org/1999/02/22-rdf-syntax-ns#" xmlns:svg="http://www.w3.org/2000/svg" xmlns="http://www.w3.org/2000/svg" xmlns:sodipodi="http://sodipodi.sourceforge.net/DTD/sodipodi-0.dtd" xmlns:inkscape="http://www.inkscape.org/namespaces/inkscape" height="512" viewBox="0 0 512 512" width="512" version="1.1" id="svg41" inkscape:version="0.91 r" sodipodi:docname="gitg.svg">
<defs id="defs55" />
<sodipodi:namedview pagecolor="#ffffff" bordercolor="#666666" borderopacity="1" objecttolerance="10" gridtolerance="10" guidetolerance="10" inkscape:pageopacity="0" inkscape:pageshadow="2" inkscape:window-width="640" inkscape:window-height="480" id="namedview53" showgrid="false" inkscape:zoom="0.4609375" inkscape:cx="256" inkscape:cy="256" inkscape:window-x="0" inkscape:window-y="0" inkscape:window-maximized="0" inkscape:current-layer="svg41" />
<metadata id="metadata72">
<rdf:RDF>
<cc:Work rdf:about="">
<dc:format>image/svg+xml</dc:format>
<dc:type rdf:resource="http://purl.org/dc/dcmitype/StillImage" />
</cc:Work>
</rdf:RDF>
</metadata>
<path style="fill:#cd1d31;fill-rule:evenodd" inkscape:connector-curvature="0" d="m 471.95,253.05 c 0,120.9 -98.01,218.9 -218.9,218.9 -120.9,0 -218.9,-98.01 -218.9,-218.9 0,-120.9 98.01,-218.9 218.9,-218.9 120.9,0 218.9,98.01 218.9,218.9" id="path6" />
<path id="path66" fill="#f9f9f9" d="m153.19 285.37c0 19.18 12.238 35.476 29.345 41.531v61.33h29.395v-61.33c17.11-6.06 29.395-22.35 29.395-41.531 0-7.39-1.859-14.325-5.073-20.442l58.04-58.04c6.114 3.21 13.06 5.02 20.442 5.02 24.339 0 44.07-19.729 44.07-44.07 0-24.339-19.729-44.07-44.07-44.07-24.339 0-44.07 19.729-44.07 44.07 0 7.394 1.855 14.372 5.073 20.492l-57.995 57.995c-1.855-0.976-3.82-1.779-5.819-2.487v-34.419c17.11-6.06 29.395-22.399 29.395-41.581 0-24.339-19.729-44.07-44.07-44.07-24.339 0-44.07 19.729-44.07 44.07 0 19.18 12.238 35.526 29.345 41.581v34.419c-17.11 6.06-29.345 22.35-29.345 41.531" />
</svg>
