<?xml version="1.0" encoding="UTF-8" standalone="no"?>
<svg xmlns:dc="http://purl.org/dc/elements/1.1/" xmlns:cc="http://creativecommons.org/ns#" xmlns:rdf="http://www.w3.org/1999/02/22-rdf-syntax-ns#" xmlns:svg="http://www.w3.org/2000/svg" xmlns="http://www.w3.org/2000/svg" xmlns:sodipodi="http://sodipodi.sourceforge.net/DTD/sodipodi-0.dtd" xmlns:inkscape="http://www.inkscape.org/namespaces/inkscape" height="512" viewBox="0 0 144.49778 144.49778" width="512" version="1.1" id="svg2" inkscape:version="0.91 r" sodipodi:docname="gnome-clocks.svg">
<defs id="defs44" />
<sodipodi:namedview pagecolor="#ffffff" bordercolor="#666666" borderopacity="1" objecttolerance="10" gridtolerance="10" guidetolerance="10" inkscape:pageopacity="0" inkscape:pageshadow="2" inkscape:window-width="733" inkscape:window-height="480" id="namedview42" showgrid="false" inkscape:zoom="0.4609375" inkscape:cx="256" inkscape:cy="256" inkscape:window-x="0" inkscape:window-y="0" inkscape:window-maximized="0" inkscape:current-layer="svg2" />
<metadata id="metadata82">
<rdf:RDF>
<cc:Work rdf:about="">
<dc:format>image/svg+xml</dc:format>
<dc:type rdf:resource="http://purl.org/dc/dcmitype/StillImage" />
</cc:Work>
</rdf:RDF>
</metadata>
<path id="path4" d="m133.19 71.42c0 34.12-27.66 61.779-61.779 61.779-34.12 0-61.779-27.66-61.779-61.779 0-34.12 27.66-61.779 61.779-61.779 34.12 0 61.779 27.66 61.779 61.779" fill-rule="evenodd" fill="#555753" />
<path style="fill:#f9f9f9;fill-opacity:0.13300003" inkscape:connector-curvature="0" d="m 100.87,71.417 a 29.458,29.457 0 0 1 -58.915,0 29.458,29.457 0 1 1 58.915,0" id="path68" />
<rect style="fill:#f9f9f9" x="-99.129501" y="-8.9809551" width="44.30978" height="5.3859735" transform="matrix(-0.74940374,-0.66211331,0.66211331,-0.74940374,0,0)" rx="2.6929867" id="rect70" />
<rect style="fill:#f9f9f9" x="-2.2349999" y="96.82" width="54.02" height="5.8870001" transform="matrix(0.70710678,-0.70710678,0.70710678,0.70710678,0,0)" rx="2.9430001" id="rect72" />
<rect id="rect74" rx="1.409" transform="matrix(.4772 -.87879 .85224 .52315 0 0)" height="2.818" width="46.48" y="96.3" x="-74.2" style="fill:#f2f2f2" fill="#cd1d31" />
<path id="path76" fill="#dedede" d="m77.306 71.418a5.8915 5.8915 0 0 1 -11.783 0 5.8915 5.8915 0 1 1 11.783 0" />
</svg>
