<?xml version="1.0" encoding="UTF-8" standalone="no"?>
<svg xmlns:dc="http://purl.org/dc/elements/1.1/" xmlns:cc="http://creativecommons.org/ns#" xmlns:rdf="http://www.w3.org/1999/02/22-rdf-syntax-ns#" xmlns:svg="http://www.w3.org/2000/svg" xmlns="http://www.w3.org/2000/svg" xmlns:sodipodi="http://sodipodi.sourceforge.net/DTD/sodipodi-0.dtd" xmlns:inkscape="http://www.inkscape.org/namespaces/inkscape" version="1.1" viewBox="0 0 512 512" id="svg2" inkscape:version="0.91 r" sodipodi:docname="gnome-lightsoff.svg">
<defs id="defs19" />
<sodipodi:namedview pagecolor="#ffffff" bordercolor="#666666" borderopacity="1" objecttolerance="10" gridtolerance="10" guidetolerance="10" inkscape:pageopacity="0" inkscape:pageshadow="2" inkscape:window-width="640" inkscape:window-height="480" id="namedview17" showgrid="false" inkscape:zoom="0.4609375" inkscape:cx="256" inkscape:cy="256" inkscape:window-x="0" inkscape:window-y="0" inkscape:window-maximized="0" inkscape:current-layer="svg2" />
<metadata id="metadata5372">
<rdf:RDF>
<cc:Work rdf:about="">
<dc:format>image/svg+xml</dc:format>
<dc:type rdf:resource="http://purl.org/dc/dcmitype/StillImage" />
</cc:Work>
</rdf:RDF>
</metadata>
<path inkscape:connector-curvature="0" id="path5298" d="m 471.95,253.05 c 0,120.9 -98.01,218.91 -218.91,218.91 -120.9,0 -218.91,-98.01 -218.91,-218.91 0,-120.9 98.01,-218.91 218.91,-218.91 120.9,0 218.91,98.01 218.91,218.91" fill="#0078ad" fill-rule="evenodd" />
<g id="g5300" fill="#282629">
<path inkscape:connector-curvature="0" id="path5302" d="m 253.03,34.16 c -120.9,0 -218.91,98.01 -218.91,218.91 0,1.154 0.013,2.287 0.031,3.438 l 221.34,0 0,-222.31 c -0.822,-0.009 -1.644,-0.031 -2.469,-0.031" />
<path inkscape:connector-curvature="0" id="path5304" d="m 255.5,478.81 0,-222.31 216.41,0 c 0.018,1.15 0.031,2.283 0.031,3.438 0,120.08 -96.68,217.55 -216.44,218.88" />
</g>
<path inkscape:connector-curvature="0" id="path5366" d="m 145.7,123.74 c -12.164,0 -21.955,9.791 -21.955,21.955 l 0,72.57 c 0,12.164 9.791,21.955 21.955,21.955 l 72.57,0 c 12.164,0 21.955,-9.791 21.955,-21.955 l 0,-72.57 c 0,-12.164 -9.791,-21.955 -21.955,-21.955 l -72.57,0 m 148.03,0 c -12.164,0 -21.955,9.791 -21.955,21.955 l 0,72.57 c 0,12.164 9.791,21.955 21.955,21.955 l 72.57,0 c 12.164,0 21.955,-9.791 21.955,-21.955 l 0,-72.57 c 0,-12.164 -9.791,-21.955 -21.955,-21.955 l -72.57,0 M 145.7,271.77 c -12.164,0 -21.955,9.791 -21.955,21.955 l 0,72.57 c 0,12.164 9.791,21.955 21.955,21.955 l 72.57,0 c 12.164,0 21.955,-9.791 21.955,-21.955 l 0,-72.57 c 0,-12.164 -9.791,-21.955 -21.955,-21.955 l -72.57,0 m 148.03,0 c -12.164,0 -21.955,9.791 -21.955,21.955 l 0,72.57 c 0,12.164 9.791,21.955 21.955,21.955 l 72.57,0 c 12.164,0 21.955,-9.791 21.955,-21.955 l 0,-72.57 c 0,-12.164 -9.791,-21.955 -21.955,-21.955 l -72.57,0" fill="#ffffff" />
</svg>
