<?xml version="1.0" encoding="UTF-8" standalone="no"?>
<svg xmlns:dc="http://purl.org/dc/elements/1.1/" xmlns:cc="http://creativecommons.org/ns#" xmlns:rdf="http://www.w3.org/1999/02/22-rdf-syntax-ns#" xmlns:svg="http://www.w3.org/2000/svg" xmlns="http://www.w3.org/2000/svg" xmlns:sodipodi="http://sodipodi.sourceforge.net/DTD/sodipodi-0.dtd" xmlns:inkscape="http://www.inkscape.org/namespaces/inkscape" width="1814.17" height="1814.17" viewBox="0 0 512 512" version="1.1" id="svg35" inkscape:version="0.91 r" sodipodi:docname="google-calendar.svg">
<sodipodi:namedview pagecolor="#ffffff" bordercolor="#666666" borderopacity="1" objecttolerance="10" gridtolerance="10" guidetolerance="10" inkscape:pageopacity="0" inkscape:pageshadow="2" inkscape:window-width="640" inkscape:window-height="480" id="namedview60" showgrid="false" inkscape:zoom="0.13008703" inkscape:cx="907.08502" inkscape:cy="907.08502" inkscape:window-x="0" inkscape:window-y="0" inkscape:window-maximized="0" inkscape:current-layer="layer1" />
<defs id="defs6987">
<linearGradient id="1" gradientUnits="userSpaceOnUse" y1="265.27" y2="34.772" x2="0">
<stop id="stop12" stop-color="#fff" />
<stop id="stop14" stop-opacity="0" stop-color="#fff" offset="1" />
</linearGradient>
<linearGradient id="0" gradientUnits="userSpaceOnUse" x2="0" y2="473.45" y1="264.77">
<stop id="stop7" />
<stop id="stop9" stop-opacity="0" offset="1" />
</linearGradient>
</defs>
<metadata id="metadata6990">
<rdf:RDF>
<cc:Work rdf:about="">
<dc:format>image/svg+xml</dc:format>
<dc:type rdf:resource="http://purl.org/dc/dcmitype/StillImage" />
</cc:Work>
</rdf:RDF>
</metadata>
<g inkscape:label="Layer 1" inkscape:groupmode="layer" id="layer1" transform="translate(0,215.00001)">
<path style="fill:#32b49a" inkscape:connector-curvature="0" id="path6162" d="M 34.374997,48.159989 C 39.659997,164.36999 135.525,256.97 253.035,256.97 c 117.50999,0 213.36997,-92.61002 218.65999,-208.810011 l -437.309993,0" />
<path style="fill:#1a957a;fill-rule:evenodd" inkscape:connector-curvature="0" id="path6210" d="m 471.94999,38.049991 c 0,120.899999 -98.00999,218.909999 -218.90999,218.909999 -120.90001,0 -218.910003,-98.01 -218.910003,-218.909999 0,-120.900003 98.009993,-218.910001 218.910003,-218.910001 120.9,0 218.90999,98.009998 218.90999,218.910001" />
<g style="opacity:0.15" id="g6212" transform="matrix(0.99999998,0,0,-0.99999998,-3.1161949e-6,291.1)">
<path style="fill:url(#1);fill-rule:evenodd" inkscape:connector-curvature="0" id="path6214" d="m 253.04,34.15 c -120.9,0 -218.91,98.01 -218.91,218.91 0,3.39 0.097,6.741 0.25,10.09 l 437.31,0 c 0.152,-3.352 0.25,-6.704 0.25,-10.09 0,-120.9 -98.01,-218.91 -218.91,-218.91 m 218.66,229 c -0.165,3.631 -0.41,7.229 -0.75,10.813 0.339,-3.576 0.585,-7.188 0.75,-10.813 m -0.75,10.813 c -0.68,7.166 -1.709,14.239 -3.063,21.19 1.355,-6.955 2.383,-14.01 3.063,-21.19 m -3.063,21.19 c -0.677,3.474 -1.442,6.93 -2.281,10.344 0.84,-3.417 1.603,-6.866 2.281,-10.344 m -2.281,10.344 c -0.42,1.707 -0.853,3.403 -1.313,5.094 0.46,-1.693 0.892,-3.385 1.313,-5.094 m -1.313,5.094 c -0.459,1.691 -0.939,3.357 -1.438,5.03 0.496,-1.666 0.98,-3.349 1.438,-5.03 m -1.438,5.03 c -0.499,1.674 -1.025,3.343 -1.563,5 0.538,-1.658 1.064,-3.325 1.563,-5 m -1.563,5 c -0.53,1.635 -1.058,3.257 -1.625,4.875 0.567,-1.617 1.095,-3.241 1.625,-4.875 m -426.91,-57.47 c 0.074,1.615 0.173,3.238 0.281,4.844 -0.108,-1.608 -0.208,-3.226 -0.281,-4.844 m 0.75,10.844 c 0.333,3.509 0.753,6.979 1.25,10.438 -0.495,-3.449 -0.918,-6.939 -1.25,-10.438 m 1.313,10.844 c 0.248,1.701 0.526,3.406 0.813,5.094 -0.287,-1.689 -0.565,-3.392 -0.813,-5.094 m 0.813,5.094 c 0.209,1.232 0.427,2.462 0.656,3.688 -0.231,-1.23 -0.446,-2.45 -0.656,-3.688 m 2.063,10.563 c 0.298,1.349 0.615,2.692 0.938,4.03 -0.322,-1.337 -0.64,-2.685 -0.938,-4.03 m 2.75,11.09 c 0.344,1.242 0.697,2.486 1.063,3.719 -0.367,-1.238 -0.717,-2.471 -1.063,-3.719 m 1.219,4.188 c 0.485,1.623 0.979,3.237 1.5,4.844 -0.52,-1.604 -1.016,-3.224 -1.5,-4.844 m 1.5,4.844 c 0.469,1.446 0.94,2.88 1.438,4.313 -0.495,-1.425 -0.971,-2.874 -1.438,-4.313 m 414.81,5.03 c -0.503,1.431 -1.031,2.864 -1.563,4.281 0.533,-1.42 1.058,-2.847 1.563,-4.281 m -412.84,0.844 c 0.403,1.13 0.829,2.253 1.25,3.375 -0.422,-1.126 -0.846,-2.24 -1.25,-3.375 m 1.781,4.75 c 0.448,1.171 0.907,2.338 1.375,3.5 -0.467,-1.159 -0.928,-2.331 -1.375,-3.5 m 409,0 c -0.519,1.357 -1.049,2.719 -1.594,4.063 0.547,-1.348 1.073,-2.702 1.594,-4.063 m -1.594,4.063 c -0.633,1.56 -1.27,3.115 -1.938,4.656 0.668,-1.543 1.304,-3.096 1.938,-4.656 m -403.37,5.781 c 0.547,1.245 1.118,2.486 1.688,3.719 -0.57,-1.234 -1.139,-2.472 -1.688,-3.719 m 1.688,3.719 c 0.722,1.562 1.461,3.114 2.219,4.656 -0.758,-1.544 -1.496,-3.092 -2.219,-4.656 m 397.56,0 c -1.446,3.128 -2.944,6.204 -4.531,9.25 1.583,-3.038 3.089,-6.131 4.531,-9.25 m -4.531,9.25 c -0.793,1.523 -1.61,3.03 -2.438,4.531 0.828,-1.502 1.644,-3.01 2.438,-4.531 m -5,9.06 c -1.713,2.939 -3.5,5.837 -5.344,8.688 1.847,-2.853 3.628,-5.745 5.344,-8.688 m -5.344,8.688 c -0.928,1.435 -1.883,2.87 -2.844,4.281 0.963,-1.414 1.914,-2.844 2.844,-4.281 m -2.844,4.281 c -1.921,2.823 -3.89,5.586 -5.938,8.313 2.044,-2.721 4.02,-5.496 5.938,-8.313 M 64.596,364.49 c 0.595,1 1.202,2.01 1.813,3 -0.61,-0.993 -1.218,-1.997 -1.813,-3 m 10.313,15.781 c 0.995,1.39 2.01,2.759 3.03,4.125 -1.024,-1.363 -2.039,-2.737 -3.03,-4.125 m 3.03,4.125 c 1.022,1.361 2.041,2.727 3.094,4.063 -1.055,-1.338 -2.07,-2.699 -3.094,-4.063 m 346.53,4.781 c -0.871,1.095 -1.765,2.172 -2.656,3.25 0.893,-1.08 1.784,-2.153 2.656,-3.25 m -2.656,3.25 c -3.255,3.938 -6.638,7.769 -10.156,11.469 3.514,-3.694 6.905,-7.537 10.156,-11.469 m -337.56,0 c 2.172,2.627 4.398,5.197 6.688,7.719 -2.288,-2.52 -4.517,-5.093 -6.688,-7.719 m 323.84,15.13 c -1.201,1.206 -2.428,2.385 -3.656,3.563 1.228,-1.176 2.456,-2.358 3.656,-3.563 m -291.09,17 c 0.807,0.641 1.621,1.277 2.438,1.906 -0.815,-0.629 -1.631,-1.266 -2.438,-1.906 m 272.06,0 c -1.241,0.986 -2.488,1.947 -3.75,2.906 1.259,-0.956 2.513,-1.923 3.75,-2.906 m -17,12.219 c -1.3,0.844 -2.619,1.683 -3.938,2.5 1.322,-0.819 2.635,-1.654 3.938,-2.5 m -3.938,2.5 c -1.454,0.901 -2.899,1.789 -4.375,2.656 1.47,-0.864 2.927,-1.76 4.375,-2.656 m -4.375,2.656 c -1.051,0.617 -2.126,1.212 -3.188,1.813 1.064,-0.601 2.135,-1.194 3.188,-1.813 m -225.69,-2.563 c 1.253,0.775 2.511,1.531 3.781,2.281 -1.272,-0.751 -2.526,-1.505 -3.781,-2.281 m 4.594,2.75 c 0.944,0.552 1.891,1.087 2.844,1.625 -0.949,-0.536 -1.904,-1.075 -2.844,-1.625 m 18.875,9.844 c 0.934,0.43 1.872,0.864 2.813,1.281 -0.941,-0.418 -1.878,-0.851 -2.813,-1.281 m 173.13,4.25 c -1.09,0.438 -2.183,0.891 -3.281,1.313 1.1,-0.422 2.189,-0.873 3.281,-1.313 m -3.719,1.469 c -1.287,0.49 -2.577,0.971 -3.875,1.438 1.297,-0.466 2.589,-0.948 3.875,-1.438 m -91.03,13.875 c 0.728,0.043 1.458,0.089 2.188,0.125 -0.73,-0.036 -1.46,-0.082 -2.188,-0.125 m 26.406,0 c -0.779,0.047 -1.562,0.087 -2.344,0.125 0.785,-0.039 1.561,-0.078 2.344,-0.125" />
<path style="fill:url(#0)" inkscape:connector-curvature="0" id="path6216" d="m 34.382,263.15 c 5.285,116.21 101.15,208.81 218.66,208.81 117.51,0 213.37,-92.61 218.66,-208.81 l -437.31,0" />
</g>
<path style="fill:#ffffff" inkscape:connector-curvature="0" id="path7252" d="m 125.05999,-90.470011 0,49.130001 261.88002,0 0,-49.120001 -261.87001,0 m 66.19,11.905999 c 6.976,0 12.65599,5.618003 12.65599,12.594002 0,6.975998 -5.67999,12.656 -12.65599,12.656 -6.97601,0 -12.656,-5.680002 -12.656,-12.656 0,-6.975999 5.67999,-12.594002 12.656,-12.594002 m 129.46999,0 c 6.976,0 12.62501,5.618003 12.62501,12.594002 0,6.975998 -5.64901,12.656 -12.62501,12.656 -6.97599,0 -12.625,-5.680002 -12.625,-12.656 0,-6.975999 5.64901,-12.594002 12.625,-12.594002 M 135.36,-28.174011 l 0,200.660011 42.81299,0 c 29.329,-16.36301 58.64201,-32.75001 87.96901,-49.12001 l 0,-21.406 c 5.32,2.66 10.56,4.652 15.78099,6.03 2.991,0.755 5.97301,1.265 8.90601,1.594 9.95799,-5.555 19.946,-11.080001 29.906,-16.625002 -0.472,-4.083001 -2.532,-7.243997 -6.12501,-9.468998 -4.08899,-2.610999 -10.158,-3.906001 -18.18999,-3.906001 l -11.37501,0 0,-18.344001 11.96901,0 c 7.14299,0 12.47099,-1.095999 15.969,-3.312998 3.497,-2.266 5.21899,-5.669 5.21899,-10.250002 0,-4.236 -1.632,-7.496999 -5.03,-9.812999 -3.399,-2.314998 -8.23099,-3.500001 -14.43799,-3.500001 -4.581,0 -9.22701,0.497 -13.906,1.531 -4.68,1.035 -9.37,2.574001 -14.00001,4.594 l 0,-20.874999 c 5.616,-1.575998 11.20201,-2.712 16.71901,-3.500001 5.51699,-0.787997 10.99199,-1.186998 16.31299,-1.188 14.33401,0 25.00001,2.365002 32.09001,7.094003 7.142,4.68 10.74999,11.760997 10.74999,21.219998 0,6.452999 -1.69499,11.737001 -5.09399,15.875001 -3.39901,4.088999 -8.47501,6.949999 -15.12,8.624999 7.438,1.921002 13.12999,5.316 16.969,10.09 1.984,2.410999 3.43999,5.168001 4.406,8.249998 7.91399,14.177003 15.831,28.357003 23.74999,42.531003 l 5.06301,-1.375 0,-155.410001 -241.31,0 m 65.09,43.089999 c 13.201,0 23.428,2.875003 30.719,8.688003 7.33999,5.813 11.03,13.949997 11.03,24.343996 0,6.010001 -1.584,11.654003 -4.68801,16.875001 -3.10299,5.171999 -9.61199,12.059999 -19.563,20.781002 l -23.56299,20.719 48.563,0 0,20.906 -80.16,0 0,-20.906 40.25,-35.531002 c 3.59599,-3.250999 6.245,-6.458997 7.96899,-9.562998 1.72401,-3.103 2.594,-6.275002 2.594,-9.625001 0,-5.172 -1.75299,-9.379 -5.24999,-12.531001 -3.448,-3.151997 -8.05,-4.719001 -13.81301,-4.719001 -4.433,0 -9.29199,0.954002 -14.56299,2.875004 -5.271,1.872 -10.89701,4.693999 -16.906,8.437999 l 0,-24.220002 c 6.404,-2.117998 12.744,-3.759998 19,-4.843997 6.256,-1.133 12.365,-1.687003 18.37499,-1.688001 M 342.108,87.664989 190.138,172.475 l 17.594,0 158.08999,-42.34001 -23.71899,-42.469" />
</g>
</svg>
