<?xml version="1.0" encoding="UTF-8" standalone="no"?>
<svg xmlns:dc="http://purl.org/dc/elements/1.1/" xmlns:cc="http://creativecommons.org/ns#" xmlns:rdf="http://www.w3.org/1999/02/22-rdf-syntax-ns#" xmlns:svg="http://www.w3.org/2000/svg" xmlns="http://www.w3.org/2000/svg" xmlns:sodipodi="http://sodipodi.sourceforge.net/DTD/sodipodi-0.dtd" xmlns:inkscape="http://www.inkscape.org/namespaces/inkscape" width="1814.17" height="1814.17" viewBox="0 0 512 512" version="1.1" id="svg62" inkscape:version="0.91 r" sodipodi:docname="google-chrome-beta.svg">
<defs id="defs86" />
<sodipodi:namedview pagecolor="#ffffff" bordercolor="#666666" borderopacity="1" objecttolerance="10" gridtolerance="10" guidetolerance="10" inkscape:pageopacity="0" inkscape:pageshadow="2" inkscape:window-width="640" inkscape:window-height="480" id="namedview84" showgrid="false" inkscape:zoom="0.13008703" inkscape:cx="907.08502" inkscape:cy="907.08502" inkscape:window-x="0" inkscape:window-y="0" inkscape:window-maximized="0" inkscape:current-layer="layer1" />
<metadata id="metadata14841">
<rdf:RDF>
<cc:Work rdf:about="">
<dc:format>image/svg+xml</dc:format>
<dc:type rdf:resource="http://purl.org/dc/dcmitype/StillImage" />
</cc:Work>
</rdf:RDF>
</metadata>
<g inkscape:label="Layer 1" inkscape:groupmode="layer" id="layer1" transform="translate(0,215.00001)">
<path inkscape:connector-curvature="0" id="path18005" d="M 471.95,38.049988 C 471.95,158.95 373.93998,256.96 253.03998,256.96 132.13997,256.96 34.129987,158.95 34.129987,38.049988 c 0,-120.900008 98.009983,-218.910008 218.909993,-218.910008 120.9,0 218.91002,98.01 218.91002,218.910008" fill="#70b455" fill-rule="evenodd" />
<path inkscape:connector-curvature="0" id="path18007" d="m 316.15998,-72.83002 0,55.744003 26.557,159.710017 -56.26,111.80001 c 105.03999,-16.09002 185.49,-106.84003 185.49,-216.370023 0,-40.4600016 -10.98898,-78.350004 -30.12998,-110.870004 l -125.66002,0 -0.006,-0.01398" fill="#ffd459" />
<path inkscape:connector-curvature="0" id="path18009" d="m 253.03998,-180.86002 c -80.30001,0 -150.49001,43.25 -188.590018,107.710002 l 61.100008,104.660003 63.47001,-104.230002 252.86002,0 C 403.84,-137.42002 333.51998,-180.86002 253.03998,-180.86002" fill="#cd1d31" />
<path d="m 390,40.999991 c 0,74.001629 -59.99428,133.999989 -134.00001,133.999989 -74.00163,0 -134,-59.99428 -134,-133.999989 0,-74.001628 59.99428,-134.000003 134,-134.000003 74.00163,0 134.00001,59.994279 134.00001,134.000003" id="path15678" inkscape:connector-curvature="0" fill="#62c0dc" />
<path inkscape:connector-curvature="0" id="path18019" d="m 255.99998,-57.180017 c -54.22001,0 -98.18,43.960003 -98.18,98.180002 l 0.004,0.0042 c 0.001,27.109999 10.99,51.65 28.75601,69.420017 l 0.168,0.16819 c -0.055,-0.0548 -0.11301,-0.10885 -0.168,-0.16403 L 322.01998,245.86814 C 387.43999,224.16515 439.15999,172.43816 460.86,107.01812 L 325.42998,-28.412018 c -17.763,-17.767 -42.31,-28.755999 -69.42,-28.755999" opacity="0.25" />
<path inkscape:connector-curvature="0" id="path18021" d="m 354.17998,40.999985 c 0,54.220003 -43.957,98.179995 -98.18,98.179995 -54.22001,0 -98.18,-43.957006 -98.18,-98.179995 0,-54.219999 43.957,-98.180002 98.18,-98.180002 54.22,0 98.18,43.957002 98.18,98.180002" fill="#ffffff" />
<path inkscape:connector-curvature="0" id="path18023" d="M 190.97964,256.65 466.86079,95.559995 c 3.39885,-15.409006 5.19023,-31.430008 5.19023,-47.875008 0,-23.272003 -3.60645,-45.6790002 -10.25681,-66.720005 L 95.484971,194.90499 c 25.541699,28.414 58.367469,50.00999 95.489729,61.75" style="fill:#cd1d31" />
<g transform="rotate(-30)" id="text22961" fill="#ffffff">
<path d="m 96.152795,268.77781 0,22.06162 13.067575,0 q 6.57412,0 9.72002,-2.70225 3.18623,-2.74258 3.18623,-8.34873 0,-5.64648 -3.18623,-8.3084 -3.1459,-2.70224 -9.72002,-2.70224 l -13.067575,0 z m 0,-24.76387 0,18.14942 12.059275,0 q 5.96914,0 8.87305,-2.21827 2.94424,-2.25859 2.94424,-6.85644 0,-4.55752 -2.94424,-6.81611 -2.90391,-2.2586 -8.87305,-2.2586 l -12.059275,0 z m -8.14707,-6.69512 20.811325,0 q 9.3167,0 14.35821,3.87188 5.0415,3.87187 5.0415,11.01064 0,5.52549 -2.58125,8.79239 -2.58125,3.26689 -7.58242,4.07353 6.00947,1.29063 9.3167,5.40449 3.34756,4.07354 3.34756,10.20401 0,8.0664 -5.48516,12.46259 -5.48516,4.3962 -15.6085,4.3962 l -21.617965,0 0,-60.21573 z" id="path27755" />
<path d="m 144.6319,237.31882 38.07343,0 0,6.85645 -29.92636,0 0,17.82676 28.67607,0 0,6.85644 -28.67607,0 0,21.81963 30.65234,0 0,6.85645 -38.79941,0 0,-60.21573 z" id="path27757" />
<path d="m 188.55348,237.31882 50.93935,0 0,6.85645 -21.37597,0 0,53.35928 -8.1874,0 0,-53.35928 -21.37598,0 0,-6.85645 z" id="path27759" />
<path d="m 261.07046,245.3449 -11.05097,29.9667 22.14228,0 -11.09131,-29.9667 z m -4.59785,-8.02608 9.23604,0 22.94892,60.21573 -8.46972,0 -5.48516,-15.44717 -27.14346,0 -5.48515,15.44717 -8.59072,0 22.98925,-60.21573 z" id="path27761" />
</g>
</g>
</svg>
