<?xml version="1.0" encoding="UTF-8" standalone="no"?>
<svg xmlns:dc="http://purl.org/dc/elements/1.1/" xmlns:cc="http://creativecommons.org/ns#" xmlns:rdf="http://www.w3.org/1999/02/22-rdf-syntax-ns#" xmlns:svg="http://www.w3.org/2000/svg" xmlns="http://www.w3.org/2000/svg" xmlns:sodipodi="http://sodipodi.sourceforge.net/DTD/sodipodi-0.dtd" xmlns:inkscape="http://www.inkscape.org/namespaces/inkscape" viewBox="0 0 512 512" id="svg334" version="1.1" inkscape:version="0.91 r" sodipodi:docname="google-keep.svg">
<metadata id="metadata546">
<rdf:RDF>
<cc:Work rdf:about="">
<dc:format>image/svg+xml</dc:format>
<dc:type rdf:resource="http://purl.org/dc/dcmitype/StillImage" />
</cc:Work>
</rdf:RDF>
</metadata>
<defs id="defs544" />
<sodipodi:namedview pagecolor="#ffffff" bordercolor="#666666" borderopacity="1" objecttolerance="10" gridtolerance="10" guidetolerance="10" inkscape:pageopacity="0" inkscape:pageshadow="2" inkscape:window-width="640" inkscape:window-height="480" id="namedview542" showgrid="false" inkscape:zoom="0.4609375" inkscape:cx="256" inkscape:cy="256" inkscape:window-x="0" inkscape:window-y="0" inkscape:window-maximized="0" inkscape:current-layer="svg334" />
<text font-size="129.23" y="231.36" x="729.64" font-family="'Gentium Book Basic'" line-height="125%" word-spacing="0" letter-spacing="0" id="text336">
<tspan y="231.36" x="729.64" id="tspan338" />
</text>
<text transform="scale(4.0128.2492)" font-size="46.954" y="579.26" x="378.91" font-family="Arial" text-anchor="middle" id="text340" />
<text font-size="129.23" y="151.36" x="1310.91" font-family="'Gentium Book Basic'" line-height="125%" word-spacing="0" letter-spacing="0" id="text342">
<tspan y="151.36" x="1310.91" id="tspan344" />
</text>
<text transform="scale(4.0128.2492)" font-size="46.954" y="258.22" x="523.76" font-family="Arial" text-anchor="middle" id="text346" />
<text font-size="129.23" y="-29.9" x="239.33" font-family="'Gentium Book Basic'" line-height="125%" word-spacing="0" letter-spacing="0" id="text348">
<tspan y="-29.9" x="239.33" id="tspan350" />
</text>
<text transform="scale(4.0128.2492)" font-size="46.954" y="-469.13" x="256.72" font-family="Arial" text-anchor="middle" id="text352" />
<text font-size="129.23" y="-246.37" x="1337.38" font-family="'Gentium Book Basic'" line-height="125%" word-spacing="0" letter-spacing="0" id="text354">
<tspan y="-246.37" x="1337.38" id="tspan356" />
</text>
<text transform="scale(4.0128.2492)" font-size="46.954" y="-1337.8" x="530.36" font-family="Arial" text-anchor="middle" id="text358" />
<text font-size="129.23" y="-326.37" x="1918.65" font-family="'Gentium Book Basic'" line-height="125%" word-spacing="0" letter-spacing="0" id="text360">
<tspan y="-326.37" x="1918.65" id="tspan362" />
</text>
<text transform="scale(4.0128.2492)" font-size="46.954" y="-1658.83" x="675.21" font-family="Arial" text-anchor="middle" id="text364" />
<text font-size="129.23" y="-798.77" x="1529.53" font-family="'Gentium Book Basic'" line-height="125%" word-spacing="0" letter-spacing="0" id="text366">
<tspan y="-798.77" x="1529.53" id="tspan368" />
</text>
<text transform="scale(4.0128.2492)" font-size="46.954" y="-3554.48" x="578.24" font-family="Arial" text-anchor="middle" id="text370" />
<text font-size="129.23" y="-878.78" x="2110.79" font-family="'Gentium Book Basic'" line-height="125%" word-spacing="0" letter-spacing="0" id="text372">
<tspan y="-878.78" x="2110.79" id="tspan374" />
</text>
<text transform="scale(4.0128.2492)" font-size="46.954" y="-3875.52" x="723.09" font-family="Arial" text-anchor="middle" id="text376" />
<g font-family="'Gentium Book Basic'" line-height="125%" word-spacing="0" letter-spacing="0" id="g378">
<text y="535.94" x="277.99" font-size="208.33" id="text380">
<tspan y="535.94" x="277.99" id="tspan382" />
</text>
<text y="231.36" x="729.64" font-size="129.23" id="text384">
<tspan y="231.36" x="729.64" id="tspan386" />
</text>
</g>
<text transform="scale(4.0128.2492)" font-size="46.954" y="579.26" x="378.91" font-family="Arial" text-anchor="middle" id="text388" />
<text font-size="129.23" y="151.36" x="1310.91" font-family="'Gentium Book Basic'" line-height="125%" word-spacing="0" letter-spacing="0" id="text390">
<tspan y="151.36" x="1310.91" id="tspan392" />
</text>
<text transform="scale(4.0128.2492)" font-size="46.954" y="258.22" x="523.76" font-family="Arial" text-anchor="middle" id="text394" />
<text font-size="129.23" y="-29.9" x="239.33" font-family="'Gentium Book Basic'" line-height="125%" word-spacing="0" letter-spacing="0" id="text396">
<tspan y="-29.9" x="239.33" id="tspan398" />
</text>
<text transform="scale(4.0128.2492)" font-size="46.954" y="-469.13" x="256.72" font-family="Arial" text-anchor="middle" id="text400" />
<text font-size="129.23" y="-246.37" x="1337.38" font-family="'Gentium Book Basic'" line-height="125%" word-spacing="0" letter-spacing="0" id="text402">
<tspan y="-246.37" x="1337.38" id="tspan404" />
</text>
<text transform="scale(4.0128.2492)" font-size="46.954" y="-1337.8" x="530.36" font-family="Arial" text-anchor="middle" id="text406" />
<text font-size="129.23" y="-326.37" x="1918.65" font-family="'Gentium Book Basic'" line-height="125%" word-spacing="0" letter-spacing="0" id="text408">
<tspan y="-326.37" x="1918.65" id="tspan410" />
</text>
<text transform="scale(4.0128.2492)" font-size="46.954" y="-1658.83" x="675.21" font-family="Arial" text-anchor="middle" id="text412" />
<text font-size="129.23" y="-798.77" x="1529.53" font-family="'Gentium Book Basic'" line-height="125%" word-spacing="0" letter-spacing="0" id="text414">
<tspan y="-798.77" x="1529.53" id="tspan416" />
</text>
<text transform="scale(4.0128.2492)" font-size="46.954" y="-3554.48" x="578.24" font-family="Arial" text-anchor="middle" id="text418" />
<text font-size="129.23" y="-878.78" x="2110.79" font-family="'Gentium Book Basic'" line-height="125%" word-spacing="0" letter-spacing="0" id="text420">
<tspan y="-878.78" x="2110.79" id="tspan422" />
</text>
<text transform="scale(4.0128.2492)" font-size="46.954" y="-3875.52" x="723.09" font-family="Arial" text-anchor="middle" id="text424" />
<g font-family="'Gentium Book Basic'" line-height="125%" word-spacing="0" letter-spacing="0" id="g426">
<text y="535.94" x="277.99" font-size="208.33" id="text428">
<tspan y="535.94" x="277.99" id="tspan430" />
</text>
<text y="231.36" x="729.64" font-size="129.23" id="text432">
<tspan y="231.36" x="729.64" id="tspan434" />
</text>
</g>
<text transform="scale(4.0128.2492)" font-size="46.954" y="579.26" x="378.91" font-family="Arial" text-anchor="middle" id="text436" />
<text font-size="129.23" y="151.36" x="1310.91" font-family="'Gentium Book Basic'" line-height="125%" word-spacing="0" letter-spacing="0" id="text438">
<tspan y="151.36" x="1310.91" id="tspan440" />
</text>
<text transform="scale(4.0128.2492)" font-size="46.954" y="258.22" x="523.76" font-family="Arial" text-anchor="middle" id="text442" />
<text font-size="129.23" y="-29.9" x="239.33" font-family="'Gentium Book Basic'" line-height="125%" word-spacing="0" letter-spacing="0" id="text444">
<tspan y="-29.9" x="239.33" id="tspan446" />
</text>
<text transform="scale(4.0128.2492)" font-size="46.954" y="-469.13" x="256.72" font-family="Arial" text-anchor="middle" id="text448" />
<text font-size="129.23" y="-246.37" x="1337.38" font-family="'Gentium Book Basic'" line-height="125%" word-spacing="0" letter-spacing="0" id="text450">
<tspan y="-246.37" x="1337.38" id="tspan452" />
</text>
<text transform="scale(4.0128.2492)" font-size="46.954" y="-1337.8" x="530.36" font-family="Arial" text-anchor="middle" id="text454" />
<text font-size="129.23" y="-326.37" x="1918.65" font-family="'Gentium Book Basic'" line-height="125%" word-spacing="0" letter-spacing="0" id="text456">
<tspan y="-326.37" x="1918.65" id="tspan458" />
</text>
<text transform="scale(4.0128.2492)" font-size="46.954" y="-1658.83" x="675.21" font-family="Arial" text-anchor="middle" id="text460" />
<text font-size="129.23" y="-798.77" x="1529.53" font-family="'Gentium Book Basic'" line-height="125%" word-spacing="0" letter-spacing="0" id="text462">
<tspan y="-798.77" x="1529.53" id="tspan464" />
</text>
<text transform="scale(4.0128.2492)" font-size="46.954" y="-3554.48" x="578.24" font-family="Arial" text-anchor="middle" id="text466" />
<text font-size="129.23" y="-878.78" x="2110.79" font-family="'Gentium Book Basic'" line-height="125%" word-spacing="0" letter-spacing="0" id="text468">
<tspan y="-878.78" x="2110.79" id="tspan470" />
</text>
<text transform="scale(4.0128.2492)" font-size="46.954" y="-3875.52" x="723.09" font-family="Arial" text-anchor="middle" id="text472" />
<text font-size="208.33" y="535.94" x="277.99" font-family="'Gentium Book Basic'" line-height="125%" word-spacing="0" letter-spacing="0" id="text474">
<tspan y="535.94" x="277.99" id="tspan476" />
</text>
<path style="fill:#f6c640;fill-rule:evenodd" inkscape:connector-curvature="0" id="path480" d="m 471.95,253.05 c 0,120.9 -98.01,218.9 -218.9,218.9 -120.9,0 -218.9,-98.01 -218.9,-218.9 0,-120.9 98.01,-218.9 218.9,-218.9 120.9,0 218.9,98.01 218.9,218.9" />
<text font-size="129.23" y="231.36" x="729.64" font-family="'Gentium Book Basic'" line-height="125%" word-spacing="0" letter-spacing="0" id="text492">
<tspan y="231.36" x="729.64" id="tspan494" />
</text>
<text transform="scale(4.0128.2492)" font-size="46.954" y="579.25" x="378.91" font-family="Arial" text-anchor="middle" id="text496" />
<text font-size="129.23" y="151.36" x="1310.91" font-family="'Gentium Book Basic'" line-height="125%" word-spacing="0" letter-spacing="0" id="text498">
<tspan y="151.36" x="1310.91" id="tspan500" />
</text>
<text transform="scale(4.0128.2492)" font-size="46.954" y="258.22" x="523.76" font-family="Arial" text-anchor="middle" id="text502" />
<text font-size="129.23" y="-29.901" x="239.33" font-family="'Gentium Book Basic'" line-height="125%" word-spacing="0" letter-spacing="0" id="text504">
<tspan y="-29.901" x="239.33" id="tspan506" />
</text>
<text transform="scale(4.0128.2492)" font-size="46.954" y="-469.14" x="256.72" font-family="Arial" text-anchor="middle" id="text508" />
<text font-size="129.23" y="-246.37" x="1337.38" font-family="'Gentium Book Basic'" line-height="125%" word-spacing="0" letter-spacing="0" id="text510">
<tspan y="-246.37" x="1337.38" id="tspan512" />
</text>
<text transform="scale(4.0128.2492)" font-size="46.954" y="-1337.81" x="530.36" font-family="Arial" text-anchor="middle" id="text514" />
<text font-size="129.23" y="-326.38" x="1918.65" font-family="'Gentium Book Basic'" line-height="125%" word-spacing="0" letter-spacing="0" id="text516">
<tspan y="-326.38" x="1918.65" id="tspan518" />
</text>
<text transform="scale(4.0128.2492)" font-size="46.954" y="-1658.85" x="675.21" font-family="Arial" text-anchor="middle" id="text520" />
<text font-size="129.23" y="-798.78" x="1529.53" font-family="'Gentium Book Basic'" line-height="125%" word-spacing="0" letter-spacing="0" id="text522">
<tspan y="-798.78" x="1529.53" id="tspan524" />
</text>
<text transform="scale(4.0128.2492)" font-size="46.954" y="-3554.51" x="578.24" font-family="Arial" text-anchor="middle" id="text526" />
<text font-size="129.23" y="-878.78" x="2110.79" font-family="'Gentium Book Basic'" line-height="125%" word-spacing="0" letter-spacing="0" id="text528">
<tspan y="-878.78" x="2110.79" id="tspan530" />
</text>
<text transform="scale(4.0128.2492)" font-size="46.954" y="-3875.54" x="723.09" font-family="Arial" text-anchor="middle" id="text532" />
<text font-size="208.33" y="535.94" x="277.99" font-family="'Gentium Book Basic'" line-height="125%" word-spacing="0" letter-spacing="0" id="text534">
<tspan y="535.94" x="277.99" id="tspan536" />
</text>
<path d="m298.01 281.46c3.738-13.967 22.405-19.794 28.2-34.08 20.561-31.843 14.473-77.83-14.03-102.97-24.07-24.521-64.46-28.498-94.41-13.08-31.616 17.05-50.584 55.57-41.957 90.9 4.374 21.333 18.55 39.61 36.09 52.01 5.58 3.594-1.893 15.746 7.602 12.93h78.5v-5.708m-0.272 36.12c-1.045-3.707 2.198-11.867-4.084-10.136h-78.67c-0.255 6.757-0.509 13.515-0.764 20.272h83.9c-0.127-3.379-0.255-6.757-0.382-10.136m0.272 41.525c-1.127-3.348 2.752-11.703-2.961-10.463h-80.72v20.926h83.68v-10.463m-82.27 29.971h-21.03v-101.77c-34.558-25.758-50.685-74.07-36.2-115.07 13.596-42.04 56.669-73.3 101.2-70.1 52.31-0.304 99.54 47.23 98.91 99.59 2.081 31.545-13.611 62.08-37.11 82.43-4.753 2.507-4.04 7.329-3.89 11.915v93h-21.03v21.04h-80.85z" fill="#fff" id="path540" />
</svg>
