<?xml version="1.0" encoding="UTF-8" standalone="no"?>
<svg xmlns:dc="http://purl.org/dc/elements/1.1/" xmlns:cc="http://creativecommons.org/ns#" xmlns:rdf="http://www.w3.org/1999/02/22-rdf-syntax-ns#" xmlns:svg="http://www.w3.org/2000/svg" xmlns="http://www.w3.org/2000/svg" xmlns:sodipodi="http://sodipodi.sourceforge.net/DTD/sodipodi-0.dtd" xmlns:inkscape="http://www.inkscape.org/namespaces/inkscape" height="512" viewBox="0 0 512 512" width="512" version="1.1" id="svg15986" inkscape:version="0.91 r" sodipodi:docname="gufw.svg">
<defs id="defs16000" />
<sodipodi:namedview pagecolor="#ffffff" bordercolor="#666666" borderopacity="1" objecttolerance="10" gridtolerance="10" guidetolerance="10" inkscape:pageopacity="0" inkscape:pageshadow="2" inkscape:window-width="640" inkscape:window-height="480" id="namedview15998" showgrid="false" inkscape:zoom="0.4609375" inkscape:cx="256" inkscape:cy="256" inkscape:window-x="0" inkscape:window-y="0" inkscape:window-maximized="0" inkscape:current-layer="svg15986" />
<metadata id="metadata72">
<rdf:RDF>
<cc:Work rdf:about="">
<dc:format>image/svg+xml</dc:format>
<dc:type rdf:resource="http://purl.org/dc/dcmitype/StillImage" />
</cc:Work>
</rdf:RDF>
</metadata>
<path id="path4" d="m471.95 253.05c0 120.9-98.01 218.9-218.9 218.9-120.9 0-218.9-98.01-218.9-218.9 0-120.9 98.01-218.9 218.9-218.9 120.9 0 218.9 98.01 218.9 218.9" fill-rule="evenodd" fill="#215f8e" />
<path id="path66" fill="#fff" d="m163.08 115.58c-6.777 0.084-13.994 3.625-14.702 12.11-2.562 37.562-2.904 77.11 2.359 110.86 2.759 16.728 6.77 32.861 12.11 47.02 5.149 13.507 11.269 26.296 17.768 37.27 9.1 15.228 19.795 29.06 31.763 39.939 11.07 9.958 23.466 18.247 40.41 29.483 16.945-11.236 29.336-19.525 40.41-29.483 11.968-10.88 22.665-24.712 31.763-39.939 6.499-10.971 12.619-23.759 17.768-37.27 5.338-14.15 9.349-30.29 12.11-47.02 5.263-33.75 4.842-73.29 2.28-110.86-0.708-8.482-7.925-12.02-14.702-12.11h-179.34" />
</svg>
