<?xml version="1.0" encoding="UTF-8" standalone="no"?>
<svg xmlns:dc="http://purl.org/dc/elements/1.1/" xmlns:cc="http://creativecommons.org/ns#" xmlns:rdf="http://www.w3.org/1999/02/22-rdf-syntax-ns#" xmlns:svg="http://www.w3.org/2000/svg" xmlns="http://www.w3.org/2000/svg" xmlns:sodipodi="http://sodipodi.sourceforge.net/DTD/sodipodi-0.dtd" xmlns:inkscape="http://www.inkscape.org/namespaces/inkscape" height="512" viewBox="0 0 512 512" width="512" version="1.1" id="svg2" inkscape:version="0.91 r" sodipodi:docname="kapow.svg">
<defs id="defs292" />
<sodipodi:namedview pagecolor="#ffffff" bordercolor="#666666" borderopacity="1" objecttolerance="10" gridtolerance="10" guidetolerance="10" inkscape:pageopacity="0" inkscape:pageshadow="2" inkscape:window-width="733" inkscape:window-height="480" id="namedview290" showgrid="false" inkscape:zoom="0.4609375" inkscape:cx="256" inkscape:cy="256" inkscape:window-x="0" inkscape:window-y="0" inkscape:window-maximized="0" inkscape:current-layer="svg2" />
<metadata id="metadata70">
<rdf:RDF>
<cc:Work rdf:about="">
<dc:format>image/svg+xml</dc:format>
<dc:type rdf:resource="http://purl.org/dc/dcmitype/StillImage" />
</cc:Work>
</rdf:RDF>
</metadata>
<path id="path4" d="m471.93 253.06c0 120.9-98.008 218.9-218.9 218.9-120.9 0-218.9-98.008-218.9-218.9 0-120.9 98.008-218.9 218.9-218.9 120.9 0 218.9 98.008 218.9 218.9" fill-rule="evenodd" fill="#68af4c" />
<g id="g66" transform="matrix(3.5433 0 0 3.5433 -.0039308 -.00038744)" fill="#f9f9f9">
<path id="path68" fill-opacity="0.133" d="m100.87 71.417a29.458 29.457 0 0 1 -58.915 0 29.458 29.457 0 1 1 58.915 0" />
<rect id="rect70" rx="2.693" transform="matrix(-.7494 -.66211 .66211 -.7494 0 0)" height="5.386" width="44.31" y="-8.981" x="-99.13" />
<rect id="rect72" rx="2.943" transform="rotate(-45)" height="5.887" width="54.02" y="96.82" x="-2.235" />
</g>
<rect id="rect74" rx="4.993" transform="matrix(.47720 -.87879 .85224 .52315 0 0)" height="9.985" width="164.69" y="341.22" x="-262.91" fill="#d23638" style="fill:#ffffff" />
<path id="path76" fill="#dedede" d="m273.91 253.05a20.875 20.875 0 0 1 -41.751 0 20.875 20.875 0 1 1 41.751 0" />
</svg>
