<?xml version="1.0" encoding="UTF-8" standalone="no"?>
<svg xmlns:dc="http://purl.org/dc/elements/1.1/" xmlns:cc="http://creativecommons.org/ns#" xmlns:rdf="http://www.w3.org/1999/02/22-rdf-syntax-ns#" xmlns:svg="http://www.w3.org/2000/svg" xmlns="http://www.w3.org/2000/svg" xmlns:sodipodi="http://sodipodi.sourceforge.net/DTD/sodipodi-0.dtd" xmlns:inkscape="http://www.inkscape.org/namespaces/inkscape" height="512" viewBox="0 0 512 512" width="512" version="1.1" id="svg2" inkscape:version="0.91 r" sodipodi:docname="keepass.svg">
<defs id="defs17" />
<sodipodi:namedview pagecolor="#ffffff" bordercolor="#666666" borderopacity="1" objecttolerance="10" gridtolerance="10" guidetolerance="10" inkscape:pageopacity="0" inkscape:pageshadow="2" inkscape:window-width="640" inkscape:window-height="480" id="namedview15" showgrid="false" inkscape:zoom="0.4609375" inkscape:cx="256" inkscape:cy="256" inkscape:window-x="0" inkscape:window-y="0" inkscape:window-maximized="0" inkscape:current-layer="svg2" />
<metadata id="metadata74">
<rdf:RDF>
<cc:Work rdf:about="">
<dc:format>image/svg+xml</dc:format>
<dc:type rdf:resource="http://purl.org/dc/dcmitype/StillImage" />
</cc:Work>
</rdf:RDF>
</metadata>
<path id="path8" d="m 471.95,253.05 c 0,120.9 -98.01,218.9 -218.9,218.9 -120.9,0 -218.9,-98.01 -218.9,-218.9 0,-120.9 98.01,-218.9 218.9,-218.9 120.9,0 218.9,98.01 218.9,218.9" inkscape:connector-curvature="0" style="fill:#7c9947;fill-rule:evenodd" />
<path style="color:#000000;fill:#ffffff;fill-rule:evenodd" inkscape:connector-curvature="0" d="m 316.94,117.92 c -34.916,0.221 -65.04,26.39 -69.33,61.968 -0.88,7.297 -0.644,14.453 0.632,21.317 l -10.724,8.435 -0.371,-0.371 0.806,-0.632 -75.2,-73.74 -35.09,4.773 -2.79,31.932 -0.501,3.117 0.196,0.196 0,0.087 67.918,69.23 0.785,-0.61 0.392,0.371 -72.888,57.39 -1.308,45.555 43.615,8.02 5.994,-22.254 23.562,-0.196 6.081,-22.799 23.02,-0.305 5.188,-22.363 9.656,-0.131 0.392,0.392 -1.853,0.044 84.59,83.46 26.03,-4.926 7.694,-1.221 0.044,-0.24 0.981,-0.196 5.057,-33.02 -72.63,-72.19 5.907,-4.752 c 5.13,1.916 10.583,3.239 16.26,3.923 38.593,4.656 73.66,-22.852 78.32,-61.44 4.656,-38.593 -22.874,-73.64 -61.47,-78.29 -3.02,-0.364 -5.999,-0.542 -8.958,-0.523 m 20.598,33.719 c 0.332,-0.009 0.668,-0.006 1,0 0.715,0.014 1.433,0.087 2.158,0.174 11.605,1.4 19.905,11.913 18.505,23.519 -1.4,11.605 -11.957,19.884 -23.562,18.484 -11.605,-1.4 -19.862,-11.957 -18.462,-23.562 1.272,-10.54 10.06,-18.323 20.358,-18.614" id="path68" />
</svg>
