<?xml version="1.0" encoding="UTF-8" standalone="no"?>
<svg xmlns:dc="http://purl.org/dc/elements/1.1/" xmlns:cc="http://creativecommons.org/ns#" xmlns:rdf="http://www.w3.org/1999/02/22-rdf-syntax-ns#" xmlns:svg="http://www.w3.org/2000/svg" xmlns="http://www.w3.org/2000/svg" xmlns:sodipodi="http://sodipodi.sourceforge.net/DTD/sodipodi-0.dtd" xmlns:inkscape="http://www.inkscape.org/namespaces/inkscape" height="512" viewBox="0 0 512 512" width="512" version="1.1" id="svg2" inkscape:version="0.91 r" sodipodi:docname="kleopatra.svg">
<defs id="defs63" />
<sodipodi:namedview pagecolor="#ffffff" bordercolor="#666666" borderopacity="1" objecttolerance="10" gridtolerance="10" guidetolerance="10" inkscape:pageopacity="0" inkscape:pageshadow="2" inkscape:window-width="640" inkscape:window-height="480" id="namedview61" showgrid="false" inkscape:zoom="0.4609375" inkscape:cx="256" inkscape:cy="256" inkscape:window-x="0" inkscape:window-y="0" inkscape:window-maximized="0" inkscape:current-layer="svg2" />
<metadata id="metadata132">
<rdf:RDF>
<cc:Work rdf:about="">
<dc:format>image/svg+xml</dc:format>
<dc:type rdf:resource="http://purl.org/dc/dcmitype/StillImage" />
</cc:Work>
</rdf:RDF>
</metadata>
<path style="fill:#d23638;fill-rule:evenodd" inkscape:connector-curvature="0" d="m 471.95,253.05 c 0,120.9 -98.01,218.9 -218.9,218.9 -120.9,0 -218.9,-98.01 -218.9,-218.9 0,-120.9 98.01,-218.9 218.9,-218.9 120.9,0 218.9,98.01 218.9,218.9" id="path20" />
<text id="text34" font-size="129.23" line-height="125%" y="231.36" x="729.64" font-family="Gentium Book Basic" word-spacing="0" letter-spacing="0">
<tspan id="tspan36" y="231.36" x="729.64" />
</text>
<text id="text38" font-size="46.954" transform="scale(4.0128 .2492)" y="579.25" x="378.91" font-family="Arial" text-anchor="middle" />
<text id="text40" font-size="129.23" line-height="125%" y="151.36" x="1310.91" font-family="Gentium Book Basic" word-spacing="0" letter-spacing="0">
<tspan id="tspan42" y="151.36" x="1310.91" />
</text>
<text id="text44" font-size="46.954" transform="scale(4.0128 .2492)" y="258.22" x="523.76" font-family="Arial" text-anchor="middle" />
<text id="text46" font-size="129.23" line-height="125%" y="-29.901" x="239.33" font-family="Gentium Book Basic" word-spacing="0" letter-spacing="0">
<tspan id="tspan48" y="-29.901" x="239.33" />
</text>
<text id="text50" font-size="46.954" transform="scale(4.0128 .2492)" y="-469.14" x="256.72" font-family="Arial" text-anchor="middle" />
<text id="text52" font-size="129.23" line-height="125%" y="-246.37" x="1337.38" font-family="Gentium Book Basic" word-spacing="0" letter-spacing="0">
<tspan id="tspan54" y="-246.37" x="1337.38" />
</text>
<text id="text56" font-size="46.954" transform="scale(4.0128 .2492)" y="-1337.81" x="530.36" font-family="Arial" text-anchor="middle" />
<text id="text58" font-size="129.23" line-height="125%" y="-326.38" x="1918.65" font-family="Gentium Book Basic" word-spacing="0" letter-spacing="0">
<tspan id="tspan60" y="-326.38" x="1918.65" />
</text>
<text id="text62" font-size="46.954" transform="scale(4.0128 .2492)" y="-1658.85" x="675.21" font-family="Arial" text-anchor="middle" />
<text id="text64" font-size="129.23" line-height="125%" y="-798.78" x="1529.53" font-family="Gentium Book Basic" word-spacing="0" letter-spacing="0">
<tspan id="tspan66" y="-798.78" x="1529.53" />
</text>
<text id="text68" font-size="46.954" transform="scale(4.0128 .2492)" y="-3554.51" x="578.24" font-family="Arial" text-anchor="middle" />
<text id="text70" font-size="129.23" line-height="125%" y="-878.78" x="2110.79" font-family="Gentium Book Basic" word-spacing="0" letter-spacing="0">
<tspan id="tspan72" y="-878.78" x="2110.79" />
</text>
<text id="text74" font-size="46.954" transform="scale(4.0128 .2492)" y="-3875.54" x="723.09" font-family="Arial" text-anchor="middle" />
<text style="font-size:medium;line-height:125%;font-family:'Gentium Book Basic';letter-spacing:0;word-spacing:0" sodipodi:linespacing="125%" x="277.98999" y="535.94" id="text78">
<tspan x="277.98999" y="535.94" id="tspan80" />
</text>
<text style="font-size:medium;line-height:125%;font-family:'Gentium Book Basic';letter-spacing:0;word-spacing:0" sodipodi:linespacing="125%" x="-1771.42" y="413.26999" id="text82">
<tspan x="-1771.42" y="413.26999" id="tspan84" />
</text>
<text id="text86" font-size="75.7" transform="scale(4.0128 .2492)" y="1095.49" x="-123.71" font-family="Arial" text-anchor="middle" />
<text id="text88" font-size="208.33" line-height="125%" y="859.18" x="-1213.24" font-family="Gentium Book Basic" word-spacing="0" letter-spacing="0">
<tspan id="tspan90" y="859.18" x="-1213.24" />
</text>
<text id="text92" font-size="75.7" transform="scale(4.0128 .2492)" y="2884.85" x="15.386" font-family="Arial" text-anchor="middle" />
<text style="font-size:40px;line-height:125%;font-family:Sans;letter-spacing:0;word-spacing:0" sodipodi:linespacing="125%" font-size="40" x="875.45001" y="621.65997" id="text96">
<tspan style="font-style:italic;font-weight:bold" font-style="italic" font-weight="bold" x="875.45001" y="621.65997" id="tspan98" />
</text>
<text style="font-size:208.33000183px;line-height:125%;font-family:'Gentium Book Basic';letter-spacing:0;word-spacing:0" sodipodi:linespacing="125%" font-size="208.33" x="-1886.1899" y="424.14001" id="text100">
<tspan x="-1886.1899" y="424.14001" id="tspan102" />
</text>
<text id="text104" font-size="75.7" transform="scale(4.0128 .2492)" y="1139.13" x="-152.31" font-family="Arial" text-anchor="middle" />
<text id="text106" font-size="208.33" line-height="125%" y="268.51" x="-1179.85" font-family="Gentium Book Basic" word-spacing="0" letter-spacing="0">
<tspan id="tspan108" y="268.51" x="-1179.85" />
</text>
<text id="text110" font-size="75.7" transform="scale(4.0128 .2492)" y="514.61" x="23.707" font-family="Arial" text-anchor="middle" />
<text id="text112" font-size="208.33" line-height="125%" y="260.39" x="-1146.48" font-family="Gentium Book Basic" word-spacing="0" letter-spacing="0">
<tspan id="tspan114" y="260.39" x="-1146.48" />
</text>
<text id="text116" font-size="75.7" transform="scale(4.0128 .2492)" y="482.01" x="32.02" font-family="Arial" text-anchor="middle" />
<g style="color:#000000;fill:#ffffff;fill-rule:evenodd" id="g120">
<path inkscape:connector-curvature="0" d="m 301.42,251.98 50.795,165.67 -38.903,-33.477 -9.02,47.742 -50.675,-165.28 47.806,-14.657" id="path122" />
<path inkscape:connector-curvature="0" d="m 228.76,251.98 -50.795,165.67 38.903,-33.477 9.02,47.742 50.675,-165.28 -47.806,-14.657" id="path124" />
</g>
<path style="fill:#ffffff;fill-rule:evenodd" inkscape:connector-curvature="0" d="m 358.17,256 8.295,26.07 -27.16,3.308 -0.167,27.358 -26.851,-5.246 -8.613,25.967 -23.915,-13.287 -16.216,22.03 -18.639,-20.03 -22.23,15.946 -11.538,-24.806 -26.07,8.295 -3.308,-27.16 -27.358,-0.167 5.246,-26.851 -25.967,-8.613 13.287,-23.915 -22.03,-16.216 20.03,-18.639 -15.946,-22.23 24.806,-11.538 -8.295,-26.07 27.16,-3.308 0.167,-27.358 26.851,5.246 8.613,-25.967 23.915,13.287 16.216,-22.03 18.639,20.03 22.23,-15.946 11.538,24.806 26.07,-8.295 3.308,27.16 27.358,0.167 -5.246,26.851 25.967,8.613 -13.287,23.915 22.03,16.216 -20.03,18.639 15.946,22.23 z" id="path126" />
<path style="fill:#ffffff;fill-rule:evenodd;stroke:#d23638;stroke-width:7.84899998" inkscape:connector-curvature="0" d="m 338.16,211.14 a 82.162,82.162 0 0 1 -164.32,0 82.162,82.162 0 1 1 164.32,0 z" id="path128" />
</svg>
