<?xml version="1.0" encoding="UTF-8" standalone="no"?>
<svg xmlns:dc="http://purl.org/dc/elements/1.1/" xmlns:cc="http://creativecommons.org/ns#" xmlns:rdf="http://www.w3.org/1999/02/22-rdf-syntax-ns#" xmlns:svg="http://www.w3.org/2000/svg" xmlns="http://www.w3.org/2000/svg" xmlns:sodipodi="http://sodipodi.sourceforge.net/DTD/sodipodi-0.dtd" xmlns:inkscape="http://www.inkscape.org/namespaces/inkscape" height="512" viewBox="0 0 512 512" width="512" version="1.1" id="svg2" inkscape:version="0.91 r" sodipodi:docname="preferences-desktop-sound.svg">
<defs id="defs46" />
<sodipodi:namedview pagecolor="#ffffff" bordercolor="#666666" borderopacity="1" objecttolerance="10" gridtolerance="10" guidetolerance="10" inkscape:pageopacity="0" inkscape:pageshadow="2" inkscape:window-width="1680" inkscape:window-height="994" id="namedview44" showgrid="false" inkscape:zoom="0.62562377" inkscape:cx="157.45722" inkscape:cy="129.66499" inkscape:window-x="0" inkscape:window-y="0" inkscape:window-maximized="1" inkscape:current-layer="svg2" />
<metadata id="metadata86">
<rdf:RDF>
<cc:Work rdf:about="">
<dc:format>image/svg+xml</dc:format>
<dc:type rdf:resource="http://purl.org/dc/dcmitype/StillImage" />
</cc:Work>
</rdf:RDF>
</metadata>
<text style="font-size:208.33000183px;line-height:125%;font-family:'Gentium Book Basic';letter-spacing:0;word-spacing:0" sodipodi:linespacing="125%" letter-spacing="0" word-spacing="0" x="-1160.48" y="549.52002" line-height="125%" font-size="208.33" id="text6">
<tspan x="-1160.48" y="549.52002" id="tspan8" />
</text>
<text style="font-size:75.69999695px;font-family:Arial;text-anchor:middle" x="28.533854" y="1642.2427" transform="scale(4.0128205,0.24920128)" font-size="75.7" id="text10" />
<path id="path14" d="m 471.95,253.05 c 0,120.9 -98.01,218.9 -218.9,218.9 -120.9,0 -218.9,-98.01 -218.9,-218.9 0,-120.9 98.01,-218.9 218.9,-218.9 120.9,0 218.9,98.01 218.9,218.9" inkscape:connector-curvature="0" style="fill:#55405f;fill-rule:evenodd" />
<text style="font-size:129.22999573px;line-height:125%;font-family:'Gentium Book Basic';letter-spacing:0;word-spacing:0" sodipodi:linespacing="125%" letter-spacing="0" word-spacing="0" x="729.64001" y="231.35997" line-height="125%" font-size="129.23" id="text28">
<tspan x="729.64001" y="231.35997" id="tspan30" />
</text>
<text style="font-size:46.95399857px;font-family:Arial;text-anchor:middle" x="378.90805" y="579.25812" transform="scale(4.0128205,0.24920128)" font-size="46.954" id="text32" />
<text style="font-size:129.22999573px;line-height:125%;font-family:'Gentium Book Basic';letter-spacing:0;word-spacing:0" sodipodi:linespacing="125%" letter-spacing="0" word-spacing="0" x="1310.91" y="151.35997" line-height="125%" font-size="129.23" id="text34">
<tspan x="1310.91" y="151.35997" id="tspan36" />
</text>
<text style="font-size:46.95399857px;font-family:Arial;text-anchor:middle" x="523.75732" y="258.21997" transform="scale(4.0128205,0.24920128)" font-size="46.954" id="text38" />
<text style="font-size:129.22999573px;line-height:125%;font-family:'Gentium Book Basic';letter-spacing:0;word-spacing:0" sodipodi:linespacing="125%" letter-spacing="0" word-spacing="0" x="239.33" y="-29.900009" line-height="125%" font-size="129.23" id="text40">
<tspan x="239.33" y="-29.900009" id="tspan42" />
</text>
<text style="font-size:46.95399857px;font-family:Arial;text-anchor:middle" x="256.71869" y="-469.1264" transform="scale(4.0128205,0.24920128)" font-size="46.954" id="text44" />
<text style="font-size:129.22999573px;line-height:125%;font-family:'Gentium Book Basic';letter-spacing:0;word-spacing:0" sodipodi:linespacing="125%" letter-spacing="0" word-spacing="0" x="1337.38" y="-246.37001" line-height="125%" font-size="129.23" id="text46">
<tspan x="1337.38" y="-246.37001" id="tspan48" />
</text>
<text style="font-size:46.95399857px;font-family:Arial;text-anchor:middle" x="530.3573" y="-1337.802" transform="scale(4.0128205,0.24920128)" font-size="46.954" id="text50" />
<text style="font-size:129.22999573px;line-height:125%;font-family:'Gentium Book Basic';letter-spacing:0;word-spacing:0" sodipodi:linespacing="125%" letter-spacing="0" word-spacing="0" x="1918.65" y="-326.37" line-height="125%" font-size="129.23" id="text52">
<tspan x="1918.65" y="-326.37" id="tspan54" />
</text>
<text style="font-size:46.95399857px;font-family:Arial;text-anchor:middle" x="675.20654" y="-1658.8303" transform="scale(4.0128205,0.24920128)" font-size="46.954" id="text56" />
<text style="font-size:129.22999573px;line-height:125%;font-family:'Gentium Book Basic';letter-spacing:0;word-spacing:0" sodipodi:linespacing="125%" letter-spacing="0" word-spacing="0" x="1529.53" y="-798.77002" line-height="125%" font-size="129.23" id="text58">
<tspan x="1529.53" y="-798.77002" id="tspan60" />
</text>
<text style="font-size:46.95399857px;font-family:Arial;text-anchor:middle" x="578.237" y="-3554.4807" transform="scale(4.0128205,0.24920128)" font-size="46.954" id="text62" />
<text style="font-size:129.22999573px;line-height:125%;font-family:'Gentium Book Basic';letter-spacing:0;word-spacing:0" sodipodi:linespacing="125%" letter-spacing="0" word-spacing="0" x="2110.79" y="-878.78003" line-height="125%" font-size="129.23" id="text64">
<tspan x="2110.79" y="-878.78003" id="tspan66" />
</text>
<text style="font-size:46.95399857px;font-family:Arial;text-anchor:middle" x="723.0863" y="-3875.519" transform="scale(4.0128205,0.24920128)" font-size="46.954" id="text68" />
<text style="font-size:208.33000183px;line-height:125%;font-family:'Gentium Book Basic';letter-spacing:0;word-spacing:0" sodipodi:linespacing="125%" letter-spacing="0" word-spacing="0" x="277.98999" y="535.94006" line-height="125%" font-size="208.33" id="text70">
<tspan x="277.98999" y="535.94006" id="tspan72" />
</text>
<path style="fill:#ffffff;fill-rule:evenodd" id="path76" d="m 161.65979,124.95208 c -16.10897,0 -29.18496,13.07599 -29.18496,29.18496 0,15.88802 12.75461,28.83345 28.56229,29.18496 -15.81772,20.6484 -25.41883,46.32835 -25.41883,74.37845 0,26.86503 8.60685,51.68128 23.22946,71.86771 -14.713,1.49641 -26.36287,13.76896 -26.36287,28.87363 0,16.10897 13.07598,29.18496 29.18495,29.18496 15.5767,0 28.04006,-12.25247 28.87363,-27.61825 19.2223,12.67426 42.37142,20.086 67.16758,20.086 21.52215,0 41.73871,-5.61404 59.31396,-15.37584 2.83213,13.14629 14.57239,22.90809 28.56229,22.90809 16.10897,0 29.18496,-13.07599 29.18496,-29.18496 0,-12.68431 -8.14487,-23.27968 -19.46333,-27.30692 15.43609,-20.48772 24.79616,-45.82621 24.79616,-73.44446 0,-28.59242 -9.92248,-54.79461 -26.36287,-75.63383 12.13194,-3.54518 21.03004,-14.66278 21.03004,-27.92958 0,-16.10898 -13.07599,-29.18496 -29.18496,-29.18496 -14.84355,0 -27.03575,11.07743 -28.87362,25.41883 -17.48487,-9.63124 -37.63112,-15.0645 -59.00263,-15.0645 -24.69573,0 -47.67412,7.50212 -66.84621,20.086 0.0201,-0.41176 0,-0.83357 0,-1.25537 0,-16.10898 -13.07598,-29.18496 -29.18495,-29.18496 m 0,17.57525 c 6.307,0 11.6097,5.31274 11.6097,11.60971 0,6.307 -5.31274,11.29837 -11.6097,11.29837 -6.30701,0 -11.29838,-4.99137 -11.29838,-11.29837 0,-6.30701 4.99137,-11.60971 11.29838,-11.60971 m 183.91746,0 c 6.307,0 11.6097,5.31274 11.6097,11.60971 0,6.307 -5.31274,11.29837 -11.6097,11.29837 -6.30701,0 -11.29838,-4.99137 -11.29838,-11.29837 0,-6.30701 4.99137,-11.60971 11.29838,-11.60971 m -87.87625,11.93108 c 57.08441,0 103.57345,46.17771 103.57345,103.25208 0,57.08442 -46.48904,103.25209 -103.57345,103.25209 -57.08442,0 -103.25209,-46.17772 -103.25209,-103.25209 0,-57.08441 46.17772,-103.25208 103.25209,-103.25208 m -96.04121,192.42388 c 6.307,0 11.6097,5.31275 11.6097,11.60971 0,6.307 -5.31274,11.29837 -11.6097,11.29837 -6.30701,0 -11.29838,-4.99137 -11.29838,-11.29837 0,-6.307 4.99137,-11.60971 11.29838,-11.60971 m 183.91746,0 c 6.307,0 11.6097,5.31275 11.6097,11.60971 0,6.307 -5.31274,11.29837 -11.6097,11.29837 -6.30701,0 -11.29838,-4.99137 -11.29838,-11.29837 0,-6.307 4.99137,-11.60971 11.29838,-11.60971" inkscape:connector-curvature="0" />
<path style="fill:#ffffff;fill-rule:evenodd" id="path78" d="m 289.5777,257.79395 c 0,17.50955 -14.19475,31.7043 -31.7043,31.7043 -17.50955,0 -31.7043,-14.19475 -31.7043,-31.7043 0,-17.50955 14.19475,-31.7043 31.7043,-31.7043 17.50955,0 31.7043,14.19475 31.7043,31.7043" inkscape:connector-curvature="0" />
<path style="fill:#ffffff;fill-rule:evenodd" id="path80" d="m 257.67087,171.45117 c -47.62391,0 -85.99821,38.68564 -85.99821,86.30954 0,47.62391 38.36426,86.30954 85.99821,86.30954 47.62391,0 86.30954,-38.68563 86.30954,-86.30954 0,-47.6239 -38.68563,-86.30954 -86.30954,-86.30954 m 0,38.29396 c 26.61395,0 48.33696,21.40163 48.33696,48.01558 0,26.61395 -21.72301,48.33696 -48.33696,48.33696 -26.61395,0 -48.01558,-21.72301 -48.01558,-48.33696 0,-26.61395 21.40163,-48.01558 48.01558,-48.01558" inkscape:connector-curvature="0" />
</svg>
