<?xml version="1.0" encoding="UTF-8" standalone="no"?>
<svg xmlns:dc="http://purl.org/dc/elements/1.1/" xmlns:cc="http://creativecommons.org/ns#" xmlns:rdf="http://www.w3.org/1999/02/22-rdf-syntax-ns#" xmlns:svg="http://www.w3.org/2000/svg" xmlns="http://www.w3.org/2000/svg" xmlns:sodipodi="http://sodipodi.sourceforge.net/DTD/sodipodi-0.dtd" xmlns:inkscape="http://www.inkscape.org/namespaces/inkscape" version="1.1" viewBox="0 0 512 512" id="svg26471" inkscape:version="0.91 r" sodipodi:docname="ksquares.svg">
<defs id="defs26488" />
<sodipodi:namedview pagecolor="#ffffff" bordercolor="#666666" borderopacity="1" objecttolerance="10" gridtolerance="10" guidetolerance="10" inkscape:pageopacity="0" inkscape:pageshadow="2" inkscape:window-width="640" inkscape:window-height="480" id="namedview26486" showgrid="false" inkscape:zoom="0.4609375" inkscape:cx="256" inkscape:cy="256" inkscape:window-x="0" inkscape:window-y="0" inkscape:window-maximized="0" inkscape:current-layer="svg26471" />
<metadata id="metadata4752">
<rdf:RDF>
<cc:Work rdf:about="">
<dc:format>image/svg+xml</dc:format>
<dc:type rdf:resource="http://purl.org/dc/dcmitype/StillImage" />
</cc:Work>
</rdf:RDF>
</metadata>
<path inkscape:connector-curvature="0" id="path4678" d="m 471.95,253.05 c 0,120.9 -98.01,218.91 -218.91,218.91 -120.9,0 -218.91,-98.01 -218.91,-218.91 0,-120.9 98.01,-218.91 218.91,-218.91 120.9,0 218.91,98.01 218.91,218.91" fill="#68af4c" fill-rule="evenodd" />
<path inkscape:connector-curvature="0" id="path4680" d="m 253.03,478.84 c -120.9,0 -218.91,-98.01 -218.91,-218.91 0,-1.154 0.013,-2.287 0.031,-3.438 l 222.34,0 0,222.31 c -1.154,0.018 -2.31,0.031 -3.469,0.031" fill="#55405f" />
<path inkscape:connector-curvature="0" id="path4682" d="m 253.03,34.16 c -120.9,0 -218.91,98.01 -218.91,218.91 0,1.154 0.013,2.287 0.031,3.438 l 222.34,0 0,-222.31 c -1.154,-0.018 -2.31,-0.031 -3.469,-0.031" fill="#0078ad" />
<path inkscape:connector-curvature="0" id="path4684" d="m 255.5,478.81 0,-222.31 216.41,0 c 0.018,1.15 0.031,2.283 0.031,3.438 0,120.08 -96.68,217.55 -216.44,218.88" fill="#cd1d31" />
<path inkscape:connector-curvature="0" id="path4746" d="m 254.71,94.56 c -13.325,0.675 -23.928,11.724 -23.928,25.22 0,11.163 7.261,20.608 17.31,23.928 l 0,95.71 c -7.563,2.497 -13.559,8.493 -16.06,16.06 l -95.71,0 c -3.319,-10.05 -12.765,-17.31 -23.928,-17.31 -13.928,0 -25.22,11.288 -25.22,25.22 0,13.928 11.288,25.22 25.22,25.22 11.163,0 20.608,-7.261 23.928,-17.31 l 95.71,0 c 3.319,10.05 12.799,17.31 23.963,17.31 11.164,0 20.644,-7.258 23.963,-17.31 l 95.71,0 c 3.319,10.05 12.765,17.31 23.928,17.31 13.928,0 25.22,-11.288 25.22,-25.22 0,-13.928 -11.288,-25.22 -25.22,-25.22 -11.163,0 -20.608,7.261 -23.928,17.31 l -95.71,0 c -2.497,-7.563 -8.493,-13.559 -16.06,-16.06 l 0,-95.71 c 10.05,-3.319 17.31,-12.765 17.31,-23.928 0,-13.928 -11.288,-25.22 -25.22,-25.22 -0.435,0 -0.859,-0.022 -1.289,0" fill="#ffffff" />
</svg>
