<?xml version="1.0" encoding="UTF-8" standalone="no"?>
<svg xmlns:dc="http://purl.org/dc/elements/1.1/" xmlns:cc="http://creativecommons.org/ns#" xmlns:rdf="http://www.w3.org/1999/02/22-rdf-syntax-ns#" xmlns:svg="http://www.w3.org/2000/svg" xmlns="http://www.w3.org/2000/svg" xmlns:sodipodi="http://sodipodi.sourceforge.net/DTD/sodipodi-0.dtd" xmlns:inkscape="http://www.inkscape.org/namespaces/inkscape" height="512" viewBox="0 0 512 512" width="512" version="1.1" id="svg2" inkscape:version="0.91 r" sodipodi:docname="libreoffice-impress.svg">
<defs id="defs23" />
<sodipodi:namedview pagecolor="#ffffff" bordercolor="#666666" borderopacity="1" objecttolerance="10" gridtolerance="10" guidetolerance="10" inkscape:pageopacity="0" inkscape:pageshadow="2" inkscape:window-width="640" inkscape:window-height="480" id="namedview21" showgrid="false" inkscape:zoom="0.4609375" inkscape:cx="256" inkscape:cy="256" inkscape:window-x="0" inkscape:window-y="0" inkscape:window-maximized="0" inkscape:current-layer="svg2" />
<metadata id="metadata86">
<rdf:RDF>
<cc:Work rdf:about="">
<dc:format>image/svg+xml</dc:format>
<dc:type rdf:resource="http://purl.org/dc/dcmitype/StillImage" />
</cc:Work>
</rdf:RDF>
</metadata>
<path id="path4" d="m471.95 253.05c0 120.9-98.01 218.9-218.9 218.9-120.9 0-218.9-98.01-218.9-218.9 0-120.9 98.01-218.9 218.9-218.9 120.9 0 218.9 98.01 218.9 218.9" fill-rule="evenodd" fill="#f95" />
<g id="g66" transform="matrix(1.3984,0,0,1.3984,549.67,4.03)" fill="#f9f9f9">
<g id="g68" transform="matrix(27.369 0 0 27.369 -399.24 -5.194)">
<path id="path70" d="m3.246 3.951h2.258v1.693h-2.258z" />
<path id="path72" d="m3.246 6.491h2.258v1.693h-2.258z" />
<path id="path74" d="m3.246 9.03h7.338v0.564h-7.338z" />
</g>
<g id="g76" transform="matrix(27.369 0 0 27.369 -391.52 -5.194)">
<path id="path78" d="m8.326 3.951v1.976h1.976c0-1.091-0.884-1.976-1.976-1.976" />
<path id="path80" d="m8.04 4.233c-1.091 0-1.976 0.884-1.976 1.976 0 1.091 0.884 1.976 1.976 1.976 1.091 0 1.976-0.884 1.976-1.976h-1.976v-1.976" />
</g>
</g>
</svg>
