<?xml version="1.0" encoding="UTF-8" standalone="no"?>
<svg xmlns:dc="http://purl.org/dc/elements/1.1/" xmlns:cc="http://creativecommons.org/ns#" xmlns:rdf="http://www.w3.org/1999/02/22-rdf-syntax-ns#" xmlns:svg="http://www.w3.org/2000/svg" xmlns="http://www.w3.org/2000/svg" xmlns:sodipodi="http://sodipodi.sourceforge.net/DTD/sodipodi-0.dtd" xmlns:inkscape="http://www.inkscape.org/namespaces/inkscape" viewBox="0 0 512 512" id="svg2" version="1.1" inkscape:version="0.91 r" sodipodi:docname="streamtuner.svg">
<metadata id="metadata26">
<rdf:RDF>
<cc:Work rdf:about="">
<dc:format>image/svg+xml</dc:format>
<dc:type rdf:resource="http://purl.org/dc/dcmitype/StillImage" />
</cc:Work>
</rdf:RDF>
</metadata>
<defs id="defs24" />
<sodipodi:namedview pagecolor="#ffffff" bordercolor="#666666" borderopacity="1" objecttolerance="10" gridtolerance="10" guidetolerance="10" inkscape:pageopacity="0" inkscape:pageshadow="2" inkscape:window-width="640" inkscape:window-height="480" id="namedview22" showgrid="false" inkscape:zoom="0.4609375" inkscape:cx="256" inkscape:cy="256" inkscape:window-x="0" inkscape:window-y="0" inkscape:window-maximized="0" inkscape:current-layer="svg2" />
<path style="fill:#703f92;fill-rule:evenodd" inkscape:connector-curvature="0" id="path6" d="m 471.95,253.05 c 0,120.9 -98.01,218.91 -218.91,218.91 -120.9,0 -218.91,-98.01 -218.91,-218.91 0,-120.9 98.01,-218.91 218.91,-218.91 120.9,0 218.91,98.01 218.91,218.91" />
<path d="m160.77 365.62c-3.7-1.223-4.937-2.061-9.42-6.376-10.06-9.679-19.959-23.501-27.07-37.79-7.307-14.677-11.916-29.493-14.218-45.708-1.469-10.342-1.469-29.366 0-39.708 4.371-30.78 18.01-59.23 38.812-80.94 7.544-7.875 10.346-9.416 17.08-9.395 3.685 0.011 5.178 0.294 7.481 1.414 8.807 4.285 12.837 14.254 9.436 23.343-0.881 2.353-2.412 4.514-5.625 7.934-9.376 9.982-15.321 18.52-20.792 29.856-14.557 30.16-14.557 65.12 0 95.28 5.471 11.337 11.417 19.874 20.792 29.856 3.213 3.421 4.744 5.581 5.625 7.934 3.308 8.84-0.579 19.02-8.797 23.04-3.721 1.821-9.843 2.399-13.299 1.256m181.27 0.229c-5.166-1.25-9.941-5.152-12.372-10.111-1.161-2.368-1.411-3.743-1.411-7.769 0-6.212 1.225-8.877 6.849-14.906 20.646-22.13 31.391-48.545 31.391-77.17 0-28.538-10.639-54.779-31.23-77.02-5.714-6.174-7.02-8.976-7.03-15.05-0.009-5.761 1.332-9.141 5.141-12.947 3.659-3.657 7.219-5.1 12.691-5.144 6.574-0.053 9.655 1.507 16.01 8.105 10.833 11.245 18.97 22.911 26.03 37.32 7.208 14.709 11.08 27 13.592 43.16 1.663 10.689 1.803 31.01 0.286 41.43-3.676 25.26-13.551 49.13-28.497 68.889-5.218 6.898-13.957 16.414-16.939 18.446-4.143 2.822-9.815 3.904-14.513 2.767m-139.94-37.09c-3.32-1.086-6.05-2.862-8.411-5.48-1.103-1.221-2.269-2.316-2.591-2.433s-2.029-1.835-3.793-3.818c-18.647-20.961-26.697-49.37-21.891-77.25 1.972-11.442 7.4-24.962 13.937-34.716 3.456-5.158 10.914-14.199 11.712-14.199 0.258 0 1.538-1.16 2.845-2.578s3.837-3.295 5.623-4.172c2.77-1.36 3.923-1.587 7.85-1.543 5.726 0.063 8.992 1.405 12.878 5.291 5.04 5.04 6.602 12.581 4.03 19.464-0.948 2.533-2.317 4.384-6.083 8.222-8.297 8.456-13.461 17.462-16.13 28.12-1.341 5.361-1.341 19.08 0 24.443 2.667 10.664 7.829 19.673 16.13 28.15 3.762 3.841 5.154 5.722 6.09 8.222 4.399 11.757-3.574 24.2-15.93 24.854-2.276 0.121-4.849-0.117-6.265-0.581m98.51 0.292c-5.29-1.384-9.95-5.205-12.372-10.145-1.159-2.363-1.412-3.751-1.417-7.769-0.006-4.249 0.206-5.296 1.606-7.967 0.886-1.691 3.56-5.058 5.942-7.481 7.721-7.855 12.966-17.14 15.575-27.576 0.686-2.744 0.97-6.315 0.97-12.222 0-5.906-0.283-9.477-0.97-12.222-2.608-10.431-7.825-19.669-15.608-27.644-5.219-5.347-7.295-9.122-7.684-13.971-0.589-7.34 2.988-13.82 9.643-17.466 3.399-1.862 4.161-2.051 8.344-2.06 6.493-0.014 9.503 1.505 16.16 8.158 36.34 36.31 36.32 94.38-0.048 130.45-6.03 5.978-9.505 7.888-14.882 8.18-1.943 0.105-4.31-0.012-5.259-0.26m-51.22-36.876c-3.914-0.843-8.975-2.805-12.303-4.77-4.097-2.419-10.183-8.515-12.621-12.643-12.154-20.579-1.877-46.994 21.07-54.16 5.44-1.698 15.515-1.698 20.955 0 16.388 5.115 27.12 20.434 26.17 37.35-0.519 9.264-4.123 17.224-10.789 23.829-7.02 6.961-14.696 10.314-24.424 10.672-3.165 0.117-6.793-0.012-8.06-0.285" fill="#fff" id="path20" />
</svg>
