<?xml version="1.0" encoding="UTF-8" standalone="no"?>
<svg xmlns:dc="http://purl.org/dc/elements/1.1/" xmlns:cc="http://creativecommons.org/ns#" xmlns:rdf="http://www.w3.org/1999/02/22-rdf-syntax-ns#" xmlns:svg="http://www.w3.org/2000/svg" xmlns="http://www.w3.org/2000/svg" xmlns:sodipodi="http://sodipodi.sourceforge.net/DTD/sodipodi-0.dtd" xmlns:inkscape="http://www.inkscape.org/namespaces/inkscape" height="512" viewBox="0 0 512 512" width="512" version="1.1" id="svg2" inkscape:version="0.91 r" sodipodi:docname="mail-notification.svg">
<defs id="defs45" />
<sodipodi:namedview pagecolor="#ffffff" bordercolor="#666666" borderopacity="1" objecttolerance="10" gridtolerance="10" guidetolerance="10" inkscape:pageopacity="0" inkscape:pageshadow="2" inkscape:window-width="640" inkscape:window-height="480" id="namedview43" showgrid="false" inkscape:zoom="0.4609375" inkscape:cx="256" inkscape:cy="256" inkscape:window-x="0" inkscape:window-y="0" inkscape:window-maximized="0" inkscape:current-layer="svg2" />
<metadata id="metadata84">
<rdf:RDF>
<cc:Work rdf:about="">
<dc:format>image/svg+xml</dc:format>
<dc:type rdf:resource="http://purl.org/dc/dcmitype/StillImage" />
</cc:Work>
</rdf:RDF>
</metadata>
<path style="fill:#d23638;fill-rule:evenodd" inkscape:connector-curvature="0" d="m 471.95,253.05 c 0,120.9 -98.01,218.91 -218.91,218.91 -120.9,0 -218.91,-98.01 -218.91,-218.91 0,-120.9 98.01,-218.91 218.91,-218.91 120.9,0 218.91,98.01 218.91,218.91" id="path6" />
<text id="text18" font-size="129.23" line-height="125%" y="231.36" x="729.64" font-family="Gentium Book Basic" word-spacing="0" letter-spacing="0">
<tspan id="tspan20" y="231.36" x="729.64" />
</text>
<text id="text22" font-size="46.954" transform="scale(4.0128 .2492)" y="579.26" x="378.91" font-family="Arial" text-anchor="middle" />
<text id="text24" font-size="129.23" line-height="125%" y="151.36" x="1310.91" font-family="Gentium Book Basic" word-spacing="0" letter-spacing="0">
<tspan id="tspan26" y="151.36" x="1310.91" />
</text>
<text id="text28" font-size="46.954" transform="scale(4.0128 .2492)" y="258.22" x="523.76" font-family="Arial" text-anchor="middle" />
<text id="text30" font-size="129.23" line-height="125%" y="-29.9" x="239.33" font-family="Gentium Book Basic" word-spacing="0" letter-spacing="0">
<tspan id="tspan32" y="-29.9" x="239.33" />
</text>
<text id="text34" font-size="46.954" transform="scale(4.0128 .2492)" y="-469.13" x="256.72" font-family="Arial" text-anchor="middle" />
<text id="text36" font-size="129.23" line-height="125%" y="-246.37" x="1337.38" font-family="Gentium Book Basic" word-spacing="0" letter-spacing="0">
<tspan id="tspan38" y="-246.37" x="1337.38" />
</text>
<text id="text40" font-size="46.954" transform="scale(4.0128 .2492)" y="-1337.8" x="530.36" font-family="Arial" text-anchor="middle" />
<text id="text42" font-size="129.23" line-height="125%" y="-326.37" x="1918.65" font-family="Gentium Book Basic" word-spacing="0" letter-spacing="0">
<tspan id="tspan44" y="-326.37" x="1918.65" />
</text>
<text id="text46" font-size="46.954" transform="scale(4.0128 .2492)" y="-1658.83" x="675.21" font-family="Arial" text-anchor="middle" />
<text id="text48" font-size="129.23" line-height="125%" y="-798.77" x="1529.53" font-family="Gentium Book Basic" word-spacing="0" letter-spacing="0">
<tspan id="tspan50" y="-798.77" x="1529.53" />
</text>
<text id="text52" font-size="46.954" transform="scale(4.0128 .2492)" y="-3554.48" x="578.24" font-family="Arial" text-anchor="middle" />
<text id="text54" font-size="129.23" line-height="125%" y="-878.78" x="2110.79" font-family="Gentium Book Basic" word-spacing="0" letter-spacing="0">
<tspan id="tspan56" y="-878.78" x="2110.79" />
</text>
<text id="text58" font-size="46.954" transform="scale(4.0128 .2492)" y="-3875.52" x="723.09" font-family="Arial" text-anchor="middle" />
<text style="font-size:medium;line-height:125%;font-family:'Gentium Book Basic';letter-spacing:0;word-spacing:0" sodipodi:linespacing="125%" x="277.98999" y="535.94" id="text62">
<tspan x="277.98999" y="535.94" id="tspan64" />
</text>
<g style="font-size:medium;line-height:125%;font-family:'Gentium Book Basic';letter-spacing:0;word-spacing:0" transform="translate(-943.66,-409.96)" id="g66">
<text x="-937.41998" y="319.39999" id="text68">
<tspan x="-937.41998" y="319.39999" id="tspan70" />
</text>
<text x="2211.23" y="16.348" id="text72">
<tspan x="2211.23" y="16.348" id="tspan74" />
</text>
</g>
<path id="path78" fill="#fff" d="m126.22 126.22v21.281c9.04 0 16.219 7.185 16.219 16.25 0 9.05-7.182 16.719-16.219 16.719v4.063c9.04 0 16.219 7.653 16.219 16.719 0 9.05-7.182 15.719-16.219 15.719v4.063c9.04 0 16.219 7.668 16.219 16.719 0 9.07-7.182 15.719-16.219 15.719v5.063c9.04 0 16.219 6.668 16.219 15.719 0 9.05-7.182 16.719-16.219 16.719v3.563c9.04 0 16.219 7.182 16.219 16.219 0 9.05-7.182 16.719-16.219 16.719v4.063c9.04 0 16.219 7.682 16.219 16.719 0 9.07-7.182 16.25-16.219 16.25v21.281h19.281c0-9.05 7.168-16.75 16.219-16.75 9.05 0 16.719 7.7 16.719 16.75h4.063c0-9.05 7.714-16.75 16.75-16.75 9.05 0 16.188 7.7 16.188 16.75h3.563c0-9.05 7.182-16.75 16.219-16.75 9.05 0 16.719 7.7 16.719 16.75h4.063c0-9.05 7.157-16.75 16.219-16.75 9.04 0 16.75 7.7 16.75 16.75h3.531c0-9.05 7.172-16.75 16.219-16.75 9.02 0 16.719 7.7 16.719 16.75h4.094c0-9.05 7.672-16.75 16.719-16.75 9.05 0 16.188 7.7 16.188 16.75h23.344v-18.781c-9.02 0-16.219-7.122-16.219-16.188 0-9.02 7.197-16.219 16.219-16.219v-4.063c-9.02 0-16.219-7.653-16.219-16.719 0-9.05 7.197-16.75 16.219-16.75v-3.531c-9.02 0-16.219-7.2-16.219-16.25s7.197-16.219 16.219-16.219v-4.563c-9.02 0-16.219-6.668-16.219-15.719 0-9.04 7.197-16.719 16.219-16.719v-4.063c-9.02 0-16.219-7.182-16.219-16.219 0-9.07 7.197-16.219 16.219-16.219v-4.563c-9.02 0-16.219-7.197-16.219-16.219 0.011-9.07 7.182-16.719 16.219-16.719v-23.84h-21.313c0 9.05-7.126 16.219-16.188 16.219-9.05 0-16.75-7.168-16.75-16.219h-4.03c0 9.05-7.703 16.219-16.75 16.219-9.04 0-16.219-7.168-16.219-16.219h-3.563c0 9.05-7.172 16.219-16.219 16.219-9.04 0-16.719-7.168-16.719-16.219h-4.063c0 9.05-7.157 16.219-16.219 16.219-9.04 0-16.719-7.168-16.719-16.219h-3.563c0 9.05-7.182 16.219-16.219 16.219-9.06 0-16.719-7.168-16.719-16.219h-4.063c0 9.05-7.7 16.219-16.75 16.219s-16.188-7.168-16.188-16.219h-21.31m158.53 55.53c0.849-0.034 1.73 0.05 2.594 0.281 4.607 1.234 7.328 5.956 6.094 10.563-0.244 0.913-0.633 1.75-1.125 2.5 16.649 7.02 25.326 21.451 21.06 36.438-3.546 16.177-5.527 34.923-1.719 56.625 0.105 0.355 0.264 0.713 0.344 1.063 2.197 9.687 6.875 17.902 12.688 26.719-2.773 7.869-7.223 7.826-11.25 8.375l-39.469-10.469c-0.052 0.223-0.096 0.433-0.156 0.656-3.037 11.343-14.719 18.07-26.06 15.03-11.343-3.037-18.07-14.688-15.03-26.03 0.049-0.183 0.102-0.35 0.156-0.531l-39.22-10.406c-2.471-2.197-8.232-6.01-5.688-13.219 13.01-6.186 18.838-12.443 25.594-18.688 15.748-16.411 19.887-33.06 26.375-48.813 5.378-16.2 17.98-23.91 36.531-21.09-0.037-0.858 0.047-1.751 0.281-2.625 1-3.743 4.322-6.229 8-6.375" />
</svg>
