<?xml version="1.0" encoding="UTF-8" standalone="no"?>
<svg xmlns:dc="http://purl.org/dc/elements/1.1/" xmlns:cc="http://creativecommons.org/ns#" xmlns:rdf="http://www.w3.org/1999/02/22-rdf-syntax-ns#" xmlns:svg="http://www.w3.org/2000/svg" xmlns="http://www.w3.org/2000/svg" xmlns:sodipodi="http://sodipodi.sourceforge.net/DTD/sodipodi-0.dtd" xmlns:inkscape="http://www.inkscape.org/namespaces/inkscape" viewBox="0 0 512 512" id="svg1640" version="1.1" inkscape:version="0.91 r" sodipodi:docname="ms-excel.svg">
<metadata id="metadata2094">
<rdf:RDF>
<cc:Work rdf:about="">
<dc:format>image/svg+xml</dc:format>
<dc:type rdf:resource="http://purl.org/dc/dcmitype/StillImage" />
</cc:Work>
</rdf:RDF>
</metadata>
<defs id="defs2092" />
<sodipodi:namedview pagecolor="#ffffff" bordercolor="#666666" borderopacity="1" objecttolerance="10" gridtolerance="10" guidetolerance="10" inkscape:pageopacity="0" inkscape:pageshadow="2" inkscape:window-width="640" inkscape:window-height="480" id="namedview2090" showgrid="false" inkscape:zoom="0.4609375" inkscape:cx="256" inkscape:cy="256" inkscape:window-x="0" inkscape:window-y="0" inkscape:window-maximized="0" inkscape:current-layer="svg1640" />
<text font-size="129.23" y="231.36" x="729.64" font-family="Gentium Book Basic" line-height="125%" word-spacing="0" letter-spacing="0" id="text1642">
<tspan y="231.36" x="729.64" id="tspan1644" />
</text>
<text transform="scale(4.0128.2492)" font-size="46.954" y="579.26" x="378.91" font-family="Arial" text-anchor="middle" id="text1646" />
<text font-size="129.23" y="151.36" x="1310.91" font-family="Gentium Book Basic" line-height="125%" word-spacing="0" letter-spacing="0" id="text1648">
<tspan y="151.36" x="1310.91" id="tspan1650" />
</text>
<text transform="scale(4.0128.2492)" font-size="46.954" y="258.22" x="523.76" font-family="Arial" text-anchor="middle" id="text1652" />
<text font-size="129.23" y="-29.9" x="239.33" font-family="Gentium Book Basic" line-height="125%" word-spacing="0" letter-spacing="0" id="text1654">
<tspan y="-29.9" x="239.33" id="tspan1656" />
</text>
<text transform="scale(4.0128.2492)" font-size="46.954" y="-469.13" x="256.72" font-family="Arial" text-anchor="middle" id="text1658" />
<text font-size="129.23" y="-246.37" x="1337.38" font-family="Gentium Book Basic" line-height="125%" word-spacing="0" letter-spacing="0" id="text1660">
<tspan y="-246.37" x="1337.38" id="tspan1662" />
</text>
<text transform="scale(4.0128.2492)" font-size="46.954" y="-1337.8" x="530.36" font-family="Arial" text-anchor="middle" id="text1664" />
<text font-size="129.23" y="-326.37" x="1918.65" font-family="Gentium Book Basic" line-height="125%" word-spacing="0" letter-spacing="0" id="text1666">
<tspan y="-326.37" x="1918.65" id="tspan1668" />
</text>
<text transform="scale(4.0128.2492)" font-size="46.954" y="-1658.83" x="675.21" font-family="Arial" text-anchor="middle" id="text1670" />
<text font-size="129.23" y="-798.77" x="1529.53" font-family="Gentium Book Basic" line-height="125%" word-spacing="0" letter-spacing="0" id="text1672">
<tspan y="-798.77" x="1529.53" id="tspan1674" />
</text>
<text transform="scale(4.0128.2492)" font-size="46.954" y="-3554.48" x="578.24" font-family="Arial" text-anchor="middle" id="text1676" />
<text font-size="129.23" y="-878.78" x="2110.79" font-family="Gentium Book Basic" line-height="125%" word-spacing="0" letter-spacing="0" id="text1678">
<tspan y="-878.78" x="2110.79" id="tspan1680" />
</text>
<text transform="scale(4.0128.2492)" font-size="46.954" y="-3875.52" x="723.09" font-family="Arial" text-anchor="middle" id="text1682" />
<g line-height="125%" word-spacing="0" letter-spacing="0" id="g1684">
<text y="535.94" x="277.99" font-size="208.33" font-family="Gentium Book Basic" id="text1686">
<tspan y="535.94" x="277.99" id="tspan1688" />
</text>
<text y="231.36" x="729.64" font-size="129.23" font-family="'Gentium Book Basic'" id="text1690">
<tspan y="231.36" x="729.64" id="tspan1692" />
</text>
</g>
<text transform="scale(4.0128.2492)" font-size="46.954" y="579.26" x="378.91" font-family="Arial" text-anchor="middle" id="text1694" />
<text font-size="129.23" y="151.36" x="1310.91" font-family="'Gentium Book Basic'" line-height="125%" word-spacing="0" letter-spacing="0" id="text1696">
<tspan y="151.36" x="1310.91" id="tspan1698" />
</text>
<text transform="scale(4.0128.2492)" font-size="46.954" y="258.22" x="523.76" font-family="Arial" text-anchor="middle" id="text1700" />
<text font-size="129.23" y="-29.9" x="239.33" font-family="'Gentium Book Basic'" line-height="125%" word-spacing="0" letter-spacing="0" id="text1702">
<tspan y="-29.9" x="239.33" id="tspan1704" />
</text>
<text transform="scale(4.0128.2492)" font-size="46.954" y="-469.13" x="256.72" font-family="Arial" text-anchor="middle" id="text1706" />
<text font-size="129.23" y="-246.37" x="1337.38" font-family="'Gentium Book Basic'" line-height="125%" word-spacing="0" letter-spacing="0" id="text1708">
<tspan y="-246.37" x="1337.38" id="tspan1710" />
</text>
<text transform="scale(4.0128.2492)" font-size="46.954" y="-1337.8" x="530.36" font-family="Arial" text-anchor="middle" id="text1712" />
<text font-size="129.23" y="-326.37" x="1918.65" font-family="'Gentium Book Basic'" line-height="125%" word-spacing="0" letter-spacing="0" id="text1714">
<tspan y="-326.37" x="1918.65" id="tspan1716" />
</text>
<text transform="scale(4.0128.2492)" font-size="46.954" y="-1658.83" x="675.21" font-family="Arial" text-anchor="middle" id="text1718" />
<text font-size="129.23" y="-798.77" x="1529.53" font-family="'Gentium Book Basic'" line-height="125%" word-spacing="0" letter-spacing="0" id="text1720">
<tspan y="-798.77" x="1529.53" id="tspan1722" />
</text>
<text transform="scale(4.0128.2492)" font-size="46.954" y="-3554.48" x="578.24" font-family="Arial" text-anchor="middle" id="text1724" />
<text font-size="129.23" y="-878.78" x="2110.79" font-family="'Gentium Book Basic'" line-height="125%" word-spacing="0" letter-spacing="0" id="text1726">
<tspan y="-878.78" x="2110.79" id="tspan1728" />
</text>
<text transform="scale(4.0128.2492)" font-size="46.954" y="-3875.52" x="723.09" font-family="Arial" text-anchor="middle" id="text1730" />
<g font-family="'Gentium Book Basic'" line-height="125%" word-spacing="0" letter-spacing="0" id="g1732">
<text y="535.94" x="277.99" font-size="208.33" id="text1734">
<tspan y="535.94" x="277.99" id="tspan1736" />
</text>
<text y="231.36" x="729.64" font-size="129.23" id="text1738">
<tspan y="231.36" x="729.64" id="tspan1740" />
</text>
</g>
<text transform="scale(4.0128.2492)" font-size="46.954" y="579.26" x="378.91" font-family="Arial" text-anchor="middle" id="text1742" />
<text font-size="129.23" y="151.36" x="1310.91" font-family="'Gentium Book Basic'" line-height="125%" word-spacing="0" letter-spacing="0" id="text1744">
<tspan y="151.36" x="1310.91" id="tspan1746" />
</text>
<text transform="scale(4.0128.2492)" font-size="46.954" y="258.22" x="523.76" font-family="Arial" text-anchor="middle" id="text1748" />
<text font-size="129.23" y="-29.9" x="239.33" font-family="'Gentium Book Basic'" line-height="125%" word-spacing="0" letter-spacing="0" id="text1750">
<tspan y="-29.9" x="239.33" id="tspan1752" />
</text>
<text transform="scale(4.0128.2492)" font-size="46.954" y="-469.13" x="256.72" font-family="Arial" text-anchor="middle" id="text1754" />
<text font-size="129.23" y="-246.37" x="1337.38" font-family="'Gentium Book Basic'" line-height="125%" word-spacing="0" letter-spacing="0" id="text1756">
<tspan y="-246.37" x="1337.38" id="tspan1758" />
</text>
<text transform="scale(4.0128.2492)" font-size="46.954" y="-1337.79" x="530.36" font-family="Arial" text-anchor="middle" id="text1760" />
<text font-size="129.23" y="-326.37" x="1918.65" font-family="'Gentium Book Basic'" line-height="125%" word-spacing="0" letter-spacing="0" id="text1762">
<tspan y="-326.37" x="1918.65" id="tspan1764" />
</text>
<text transform="scale(4.0128.2492)" font-size="46.954" y="-1658.82" x="675.21" font-family="Arial" text-anchor="middle" id="text1766" />
<text font-size="129.23" y="-798.77" x="1529.53" font-family="'Gentium Book Basic'" line-height="125%" word-spacing="0" letter-spacing="0" id="text1768">
<tspan y="-798.77" x="1529.53" id="tspan1770" />
</text>
<text transform="scale(4.0128.2492)" font-size="46.954" y="-3554.46" x="578.24" font-family="Arial" text-anchor="middle" id="text1772" />
<text font-size="129.23" y="-878.78" x="2110.79" font-family="'Gentium Book Basic'" line-height="125%" word-spacing="0" letter-spacing="0" id="text1774">
<tspan y="-878.78" x="2110.79" id="tspan1776" />
</text>
<text transform="scale(4.0128.2492)" font-size="46.954" y="-3875.5" x="723.09" font-family="Arial" text-anchor="middle" id="text1778" />
<g font-family="'Gentium Book Basic'" line-height="125%" word-spacing="0" letter-spacing="0" id="g1780">
<text y="535.94" x="277.99" font-size="208.33" id="text1782">
<tspan y="535.94" x="277.99" id="tspan1784" />
</text>
<text y="231.36" x="729.64" font-size="129.23" id="text1786">
<tspan y="231.36" x="729.64" id="tspan1788" />
</text>
</g>
<text transform="scale(4.0128.2492)" font-size="46.954" y="579.26" x="378.91" font-family="Arial" text-anchor="middle" id="text1790" />
<text font-size="129.23" y="151.36" x="1310.91" font-family="'Gentium Book Basic'" line-height="125%" word-spacing="0" letter-spacing="0" id="text1792">
<tspan y="151.36" x="1310.91" id="tspan1794" />
</text>
<text transform="scale(4.0128.2492)" font-size="46.954" y="258.22" x="523.76" font-family="Arial" text-anchor="middle" id="text1796" />
<text font-size="129.23" y="-29.9" x="239.33" font-family="'Gentium Book Basic'" line-height="125%" word-spacing="0" letter-spacing="0" id="text1798">
<tspan y="-29.9" x="239.33" id="tspan1800" />
</text>
<text transform="scale(4.0128.2492)" font-size="46.954" y="-469.13" x="256.72" font-family="Arial" text-anchor="middle" id="text1802" />
<text font-size="129.23" y="-246.37" x="1337.38" font-family="'Gentium Book Basic'" line-height="125%" word-spacing="0" letter-spacing="0" id="text1804">
<tspan y="-246.37" x="1337.38" id="tspan1806" />
</text>
<text transform="scale(4.0128.2492)" font-size="46.954" y="-1337.8" x="530.36" font-family="Arial" text-anchor="middle" id="text1808" />
<text font-size="129.23" y="-326.37" x="1918.65" font-family="'Gentium Book Basic'" line-height="125%" word-spacing="0" letter-spacing="0" id="text1810">
<tspan y="-326.37" x="1918.65" id="tspan1812" />
</text>
<text transform="scale(4.0128.2492)" font-size="46.954" y="-1658.83" x="675.21" font-family="Arial" text-anchor="middle" id="text1814" />
<text font-size="129.23" y="-798.77" x="1529.53" font-family="'Gentium Book Basic'" line-height="125%" word-spacing="0" letter-spacing="0" id="text1816">
<tspan y="-798.77" x="1529.53" id="tspan1818" />
</text>
<text transform="scale(4.0128.2492)" font-size="46.954" y="-3554.48" x="578.24" font-family="Arial" text-anchor="middle" id="text1820" />
<text font-size="129.23" y="-878.78" x="2110.79" font-family="'Gentium Book Basic'" line-height="125%" word-spacing="0" letter-spacing="0" id="text1822">
<tspan y="-878.78" x="2110.79" id="tspan1824" />
</text>
<text transform="scale(4.0128.2492)" font-size="46.954" y="-3875.52" x="723.09" font-family="Arial" text-anchor="middle" id="text1826" />
<g font-family="'Gentium Book Basic'" line-height="125%" word-spacing="0" letter-spacing="0" id="g1828">
<text y="535.94" x="277.99" font-size="208.33" id="text1830">
<tspan y="535.94" x="277.99" id="tspan1832" />
</text>
<text y="231.36" x="729.64" font-size="129.23" id="text1834">
<tspan y="231.36" x="729.64" id="tspan1836" />
</text>
</g>
<text transform="scale(4.0128.2492)" font-size="46.954" y="579.26" x="378.91" font-family="Arial" text-anchor="middle" id="text1838" />
<text font-size="129.23" y="151.36" x="1310.91" font-family="'Gentium Book Basic'" line-height="125%" word-spacing="0" letter-spacing="0" id="text1840">
<tspan y="151.36" x="1310.91" id="tspan1842" />
</text>
<text transform="scale(4.0128.2492)" font-size="46.954" y="258.22" x="523.76" font-family="Arial" text-anchor="middle" id="text1844" />
<text font-size="129.23" y="-29.9" x="239.33" font-family="'Gentium Book Basic'" line-height="125%" word-spacing="0" letter-spacing="0" id="text1846">
<tspan y="-29.9" x="239.33" id="tspan1848" />
</text>
<text transform="scale(4.0128.2492)" font-size="46.954" y="-469.13" x="256.72" font-family="Arial" text-anchor="middle" id="text1850" />
<text font-size="129.23" y="-246.37" x="1337.38" font-family="'Gentium Book Basic'" line-height="125%" word-spacing="0" letter-spacing="0" id="text1852">
<tspan y="-246.37" x="1337.38" id="tspan1854" />
</text>
<text transform="scale(4.0128.2492)" font-size="46.954" y="-1337.8" x="530.36" font-family="Arial" text-anchor="middle" id="text1856" />
<text font-size="129.23" y="-326.37" x="1918.65" font-family="'Gentium Book Basic'" line-height="125%" word-spacing="0" letter-spacing="0" id="text1858">
<tspan y="-326.37" x="1918.65" id="tspan1860" />
</text>
<text transform="scale(4.0128.2492)" font-size="46.954" y="-1658.83" x="675.21" font-family="Arial" text-anchor="middle" id="text1862" />
<text font-size="129.23" y="-798.77" x="1529.53" font-family="'Gentium Book Basic'" line-height="125%" word-spacing="0" letter-spacing="0" id="text1864">
<tspan y="-798.77" x="1529.53" id="tspan1866" />
</text>
<text transform="scale(4.0128.2492)" font-size="46.954" y="-3554.48" x="578.24" font-family="Arial" text-anchor="middle" id="text1868" />
<text font-size="129.23" y="-878.78" x="2110.79" font-family="'Gentium Book Basic'" line-height="125%" word-spacing="0" letter-spacing="0" id="text1870">
<tspan y="-878.78" x="2110.79" id="tspan1872" />
</text>
<text transform="scale(4.0128.2492)" font-size="46.954" y="-3875.52" x="723.09" font-family="Arial" text-anchor="middle" id="text1874" />
<g font-family="'Gentium Book Basic'" line-height="125%" word-spacing="0" letter-spacing="0" id="g1876">
<text y="535.94" x="277.99" font-size="208.33" id="text1878">
<tspan y="535.94" x="277.99" id="tspan1880" />
</text>
<text y="231.36" x="729.64" font-size="129.23" id="text1882">
<tspan y="231.36" x="729.64" id="tspan1884" />
</text>
</g>
<text transform="scale(4.0128.2492)" font-size="46.954" y="579.26" x="378.91" font-family="Arial" text-anchor="middle" id="text1886" />
<text font-size="129.23" y="151.36" x="1310.91" font-family="'Gentium Book Basic'" line-height="125%" word-spacing="0" letter-spacing="0" id="text1888">
<tspan y="151.36" x="1310.91" id="tspan1890" />
</text>
<text transform="scale(4.0128.2492)" font-size="46.954" y="258.22" x="523.76" font-family="Arial" text-anchor="middle" id="text1892" />
<text font-size="129.23" y="-29.9" x="239.33" font-family="'Gentium Book Basic'" line-height="125%" word-spacing="0" letter-spacing="0" id="text1894">
<tspan y="-29.9" x="239.33" id="tspan1896" />
</text>
<text transform="scale(4.0128.2492)" font-size="46.954" y="-469.13" x="256.72" font-family="Arial" text-anchor="middle" id="text1898" />
<text font-size="129.23" y="-246.37" x="1337.38" font-family="'Gentium Book Basic'" line-height="125%" word-spacing="0" letter-spacing="0" id="text1900">
<tspan y="-246.37" x="1337.38" id="tspan1902" />
</text>
<text transform="scale(4.0128.2492)" font-size="46.954" y="-1337.8" x="530.36" font-family="Arial" text-anchor="middle" id="text1904" />
<text font-size="129.23" y="-326.37" x="1918.65" font-family="'Gentium Book Basic'" line-height="125%" word-spacing="0" letter-spacing="0" id="text1906">
<tspan y="-326.37" x="1918.65" id="tspan1908" />
</text>
<text transform="scale(4.0128.2492)" font-size="46.954" y="-1658.83" x="675.21" font-family="Arial" text-anchor="middle" id="text1910" />
<text font-size="129.23" y="-798.77" x="1529.53" font-family="'Gentium Book Basic'" line-height="125%" word-spacing="0" letter-spacing="0" id="text1912">
<tspan y="-798.77" x="1529.53" id="tspan1914" />
</text>
<text transform="scale(4.0128.2492)" font-size="46.954" y="-3554.48" x="578.24" font-family="Arial" text-anchor="middle" id="text1916" />
<text font-size="129.23" y="-878.78" x="2110.79" font-family="'Gentium Book Basic'" line-height="125%" word-spacing="0" letter-spacing="0" id="text1918">
<tspan y="-878.78" x="2110.79" id="tspan1920" />
</text>
<text transform="scale(4.0128.2492)" font-size="46.954" y="-3875.52" x="723.09" font-family="Arial" text-anchor="middle" id="text1922" />
<g font-family="'Gentium Book Basic'" line-height="125%" word-spacing="0" letter-spacing="0" id="g1924">
<text y="535.94" x="277.99" font-size="208.33" id="text1926">
<tspan y="535.94" x="277.99" id="tspan1928" />
</text>
<text y="231.36" x="729.64" font-size="129.23" id="text1930">
<tspan y="231.36" x="729.64" id="tspan1932" />
</text>
</g>
<text transform="scale(4.0128.2492)" font-size="46.954" y="579.26" x="378.91" font-family="Arial" text-anchor="middle" id="text1934" />
<text font-size="129.23" y="151.36" x="1310.91" font-family="'Gentium Book Basic'" line-height="125%" word-spacing="0" letter-spacing="0" id="text1936">
<tspan y="151.36" x="1310.91" id="tspan1938" />
</text>
<text transform="scale(4.0128.2492)" font-size="46.954" y="258.22" x="523.76" font-family="Arial" text-anchor="middle" id="text1940" />
<text font-size="129.23" y="-29.9" x="239.33" font-family="'Gentium Book Basic'" line-height="125%" word-spacing="0" letter-spacing="0" id="text1942">
<tspan y="-29.9" x="239.33" id="tspan1944" />
</text>
<text transform="scale(4.0128.2492)" font-size="46.954" y="-469.13" x="256.72" font-family="Arial" text-anchor="middle" id="text1946" />
<text font-size="129.23" y="-246.37" x="1337.38" font-family="'Gentium Book Basic'" line-height="125%" word-spacing="0" letter-spacing="0" id="text1948">
<tspan y="-246.37" x="1337.38" id="tspan1950" />
</text>
<text transform="scale(4.0128.2492)" font-size="46.954" y="-1337.8" x="530.36" font-family="Arial" text-anchor="middle" id="text1952" />
<text font-size="129.23" y="-326.37" x="1918.65" font-family="'Gentium Book Basic'" line-height="125%" word-spacing="0" letter-spacing="0" id="text1954">
<tspan y="-326.37" x="1918.65" id="tspan1956" />
</text>
<text transform="scale(4.0128.2492)" font-size="46.954" y="-1658.83" x="675.21" font-family="Arial" text-anchor="middle" id="text1958" />
<text font-size="129.23" y="-798.77" x="1529.53" font-family="'Gentium Book Basic'" line-height="125%" word-spacing="0" letter-spacing="0" id="text1960">
<tspan y="-798.77" x="1529.53" id="tspan1962" />
</text>
<text transform="scale(4.0128.2492)" font-size="46.954" y="-3554.48" x="578.24" font-family="Arial" text-anchor="middle" id="text1964" />
<text font-size="129.23" y="-878.78" x="2110.79" font-family="'Gentium Book Basic'" line-height="125%" word-spacing="0" letter-spacing="0" id="text1966">
<tspan y="-878.78" x="2110.79" id="tspan1968" />
</text>
<text transform="scale(4.0128.2492)" font-size="46.954" y="-3875.52" x="723.09" font-family="Arial" text-anchor="middle" id="text1970" />
<g font-family="'Gentium Book Basic'" line-height="125%" word-spacing="0" letter-spacing="0" id="g1972">
<text y="535.94" x="277.99" font-size="208.33" id="text1974">
<tspan y="535.94" x="277.99" id="tspan1976" />
</text>
<text y="231.36" x="729.64" font-size="129.23" id="text1978">
<tspan y="231.36" x="729.64" id="tspan1980" />
</text>
</g>
<text transform="scale(4.0128.2492)" font-size="46.954" y="579.26" x="378.91" font-family="Arial" text-anchor="middle" id="text1982" />
<text font-size="129.23" y="151.36" x="1310.91" font-family="'Gentium Book Basic'" line-height="125%" word-spacing="0" letter-spacing="0" id="text1984">
<tspan y="151.36" x="1310.91" id="tspan1986" />
</text>
<text transform="scale(4.0128.2492)" font-size="46.954" y="258.22" x="523.76" font-family="Arial" text-anchor="middle" id="text1988" />
<text font-size="129.23" y="-29.9" x="239.33" font-family="'Gentium Book Basic'" line-height="125%" word-spacing="0" letter-spacing="0" id="text1990">
<tspan y="-29.9" x="239.33" id="tspan1992" />
</text>
<text transform="scale(4.0128.2492)" font-size="46.954" y="-469.13" x="256.72" font-family="Arial" text-anchor="middle" id="text1994" />
<text font-size="129.23" y="-246.37" x="1337.38" font-family="'Gentium Book Basic'" line-height="125%" word-spacing="0" letter-spacing="0" id="text1996">
<tspan y="-246.37" x="1337.38" id="tspan1998" />
</text>
<text transform="scale(4.0128.2492)" font-size="46.954" y="-1337.8" x="530.36" font-family="Arial" text-anchor="middle" id="text2000" />
<text font-size="129.23" y="-326.37" x="1918.65" font-family="'Gentium Book Basic'" line-height="125%" word-spacing="0" letter-spacing="0" id="text2002">
<tspan y="-326.37" x="1918.65" id="tspan2004" />
</text>
<text transform="scale(4.0128.2492)" font-size="46.954" y="-1658.83" x="675.21" font-family="Arial" text-anchor="middle" id="text2006" />
<text font-size="129.23" y="-798.77" x="1529.53" font-family="'Gentium Book Basic'" line-height="125%" word-spacing="0" letter-spacing="0" id="text2008">
<tspan y="-798.77" x="1529.53" id="tspan2010" />
</text>
<text transform="scale(4.0128.2492)" font-size="46.954" y="-3554.48" x="578.24" font-family="Arial" text-anchor="middle" id="text2012" />
<text font-size="129.23" y="-878.78" x="2110.79" font-family="'Gentium Book Basic'" line-height="125%" word-spacing="0" letter-spacing="0" id="text2014">
<tspan y="-878.78" x="2110.79" id="tspan2016" />
</text>
<text transform="scale(4.0128.2492)" font-size="46.954" y="-3875.52" x="723.09" font-family="Arial" text-anchor="middle" id="text2018" />
<text font-size="208.33" y="535.94" x="277.99" font-family="'Gentium Book Basic'" line-height="125%" word-spacing="0" letter-spacing="0" id="text2020">
<tspan y="535.94" x="277.99" id="tspan2022" />
</text>
<path style="fill:#49a026;fill-rule:evenodd" inkscape:connector-curvature="0" id="path2026" d="m 471.95,253.05 c 0,120.9 -98.01,218.91 -218.91,218.91 -120.9,0 -218.91,-98.01 -218.91,-218.91 0,-120.9 98.01,-218.91 218.91,-218.91 120.9,0 218.91,98.01 218.91,218.91" />
<text font-size="129.23" y="231.36" x="729.64" font-family="'Gentium Book Basic'" line-height="125%" word-spacing="0" letter-spacing="0" id="text2038">
<tspan y="231.36" x="729.64" id="tspan2040" />
</text>
<text transform="scale(4.0128.2492)" font-size="46.954" y="579.26" x="378.91" font-family="Arial" text-anchor="middle" id="text2042" />
<text font-size="129.23" y="151.36" x="1310.91" font-family="'Gentium Book Basic'" line-height="125%" word-spacing="0" letter-spacing="0" id="text2044">
<tspan y="151.36" x="1310.91" id="tspan2046" />
</text>
<text transform="scale(4.0128.2492)" font-size="46.954" y="258.22" x="523.76" font-family="Arial" text-anchor="middle" id="text2048" />
<text font-size="129.23" y="-29.9" x="239.33" font-family="'Gentium Book Basic'" line-height="125%" word-spacing="0" letter-spacing="0" id="text2050">
<tspan y="-29.9" x="239.33" id="tspan2052" />
</text>
<text transform="scale(4.0128.2492)" font-size="46.954" y="-469.13" x="256.72" font-family="Arial" text-anchor="middle" id="text2054" />
<text font-size="129.23" y="-246.37" x="1337.38" font-family="'Gentium Book Basic'" line-height="125%" word-spacing="0" letter-spacing="0" id="text2056">
<tspan y="-246.37" x="1337.38" id="tspan2058" />
</text>
<text transform="scale(4.0128.2492)" font-size="46.954" y="-1337.8" x="530.36" font-family="Arial" text-anchor="middle" id="text2060" />
<text font-size="129.23" y="-326.37" x="1918.65" font-family="'Gentium Book Basic'" line-height="125%" word-spacing="0" letter-spacing="0" id="text2062">
<tspan y="-326.37" x="1918.65" id="tspan2064" />
</text>
<text transform="scale(4.0128.2492)" font-size="46.954" y="-1658.83" x="675.21" font-family="Arial" text-anchor="middle" id="text2066" />
<text font-size="129.23" y="-798.77" x="1529.53" font-family="'Gentium Book Basic'" line-height="125%" word-spacing="0" letter-spacing="0" id="text2068">
<tspan y="-798.77" x="1529.53" id="tspan2070" />
</text>
<text transform="scale(4.0128.2492)" font-size="46.954" y="-3554.48" x="578.24" font-family="Arial" text-anchor="middle" id="text2072" />
<text font-size="129.23" y="-878.78" x="2110.79" font-family="'Gentium Book Basic'" line-height="125%" word-spacing="0" letter-spacing="0" id="text2074">
<tspan y="-878.78" x="2110.79" id="tspan2076" />
</text>
<text transform="scale(4.0128.2492)" font-size="46.954" y="-3875.52" x="723.09" font-family="Arial" text-anchor="middle" id="text2078" />
<text font-size="208.33" y="535.94" x="277.99" font-family="'Gentium Book Basic'" line-height="125%" word-spacing="0" letter-spacing="0" id="text2080">
<tspan y="535.94" x="277.99" id="tspan2082" />
</text>
<path style="fill:#ffffff;fill-rule:evenodd" inkscape:connector-curvature="0" id="path2088" d="m 276.89,123.09 -157.99,27.879 0,210.39 157.99,27.542 0,-265.81 m 6.607,30.576 c -0.332,0 -0.59,0.258 -0.59,0.59 l 0,15.659 c 0,-0.094 0.076,-0.169 0.169,-0.169 l 41.11,0 c 0.092,0 0.169,0.075 0.169,0.169 l 0,27.492 c 0,0.094 -0.079,0.169 -0.169,0.169 l -41.11,0 c -0.093,0 -0.169,-0.075 -0.169,-0.169 l 0,8.512 c 0,-0.093 0.076,-0.169 0.169,-0.169 l 41.11,0 c 0.092,0 0.169,0.075 0.169,0.169 l 0,27.492 c 0,0.094 -0.079,0.169 -0.169,0.169 l -41.11,0 c -0.093,0 -0.169,-0.075 -0.169,-0.169 l 0,8.512 c 0,-0.094 0.076,-0.169 0.169,-0.169 l 41.11,0 c 0.092,0 0.169,0.075 0.169,0.169 l 0,27.492 c 0,0.094 -0.079,0.169 -0.169,0.169 l -41.11,0 c -0.093,0 -0.169,-0.075 -0.169,-0.169 l 0,8.512 c 0,-0.094 0.076,-0.169 0.169,-0.169 l 41.11,0 c 0.092,0 0.169,0.075 0.169,0.169 l 0,27.475 c 0,0.094 -0.079,0.169 -0.169,0.169 l -41.11,0 c -0.093,0 -0.169,-0.076 -0.169,-0.169 l 0,8.529 c 0,-0.094 0.076,-0.169 0.169,-0.169 l 41.11,0 c 0.092,0 0.169,0.076 0.169,0.169 l 0,27.475 c 0,0.094 -0.079,0.169 -0.169,0.169 l -41.11,0 c -0.093,0 -0.169,-0.075 -0.169,-0.169 l 0,15.659 c 0,0.331 0.257,0.607 0.59,0.607 l 108.99,0 c 0.332,0 0.607,-0.274 0.607,-0.607 l 0,-202.81 c 0,-0.332 -0.274,-0.59 -0.607,-0.59 l -108.99,0 m 48.12,16.08 44.4,0 c 0.095,0 0.169,0.075 0.169,0.169 l 0,27.492 c 0,0.094 -0.073,0.169 -0.169,0.169 l -44.4,0 c -0.092,0 -0.169,-0.075 -0.169,-0.169 l 0,-27.492 c 0,-0.094 0.076,-0.169 0.169,-0.169 m 0,36 44.4,0 c 0.095,0 0.169,0.075 0.169,0.169 l 0,27.492 c 0,0.094 -0.073,0.169 -0.169,0.169 l -44.4,0 c -0.092,0 -0.169,-0.075 -0.169,-0.169 l 0,-27.492 c 0,-0.094 0.076,-0.169 0.169,-0.169 m -167.76,4.871 13.05,0 18.524,31.891 c 1.223,2.109 2.308,4.229 3.236,6.338 l 0.253,0 c 1.35,-2.784 2.527,-4.988 3.54,-6.591 l 19.3,-31.638 12.22,0 -28.537,44.988 28.907,45.763 -12.962,0 -20.884,-34.739 c -0.633,-1.055 -1.331,-2.56 -2.09,-4.5 l -0.253,0 c -0.422,0.97 -1.145,2.476 -2.158,4.5 l -21.508,34.739 -13.03,0 30.357,-45.628 -27.964,-45.12 m 167.76,31.13 44.4,0 c 0.095,0 0.169,0.075 0.169,0.169 l 0,27.492 c 0,0.094 -0.073,0.169 -0.169,0.169 l -44.4,0 c -0.092,0 -0.169,-0.075 -0.169,-0.169 l 0,-27.492 c 0,-0.094 0.076,-0.169 0.169,-0.169 m 0,36 44.4,0 c 0.095,0 0.169,0.075 0.169,0.169 l 0,27.475 c 0,0.094 -0.073,0.169 -0.169,0.169 l -44.4,0 c -0.092,0 -0.169,-0.076 -0.169,-0.169 l 0,-27.475 c 0,-0.094 0.076,-0.169 0.169,-0.169 m 0,36 44.4,0 c 0.095,0 0.169,0.075 0.169,0.169 l 0,27.475 c 0,0.094 -0.073,0.169 -0.169,0.169 l -44.4,0 c -0.092,0 -0.169,-0.076 -0.169,-0.169 l 0,-27.475 c 0,-0.094 0.076,-0.169 0.169,-0.169" />
</svg>
