<?xml version="1.0" encoding="UTF-8" standalone="no"?>
<svg xmlns:dc="http://purl.org/dc/elements/1.1/" xmlns:cc="http://creativecommons.org/ns#" xmlns:rdf="http://www.w3.org/1999/02/22-rdf-syntax-ns#" xmlns:svg="http://www.w3.org/2000/svg" xmlns="http://www.w3.org/2000/svg" xmlns:sodipodi="http://sodipodi.sourceforge.net/DTD/sodipodi-0.dtd" xmlns:inkscape="http://www.inkscape.org/namespaces/inkscape" height="512" viewBox="0 0 512 512" width="512" version="1.1" id="svg2" inkscape:version="0.91 r" sodipodi:docname="knotify.svg">
<defs id="defs25" />
<sodipodi:namedview pagecolor="#ffffff" bordercolor="#666666" borderopacity="1" objecttolerance="10" gridtolerance="10" guidetolerance="10" inkscape:pageopacity="0" inkscape:pageshadow="2" inkscape:window-width="640" inkscape:window-height="480" id="namedview23" showgrid="false" inkscape:zoom="0.4609375" inkscape:cx="256" inkscape:cy="256" inkscape:window-x="0" inkscape:window-y="0" inkscape:window-maximized="0" inkscape:current-layer="svg2" />
<metadata id="metadata90">
<rdf:RDF>
<cc:Work rdf:about="">
<dc:format>image/svg+xml</dc:format>
<dc:type rdf:resource="http://purl.org/dc/dcmitype/StillImage" />
</cc:Work>
</rdf:RDF>
</metadata>
<path id="path4" d="m471.95 253.05c0 120.9-98.01 218.9-218.9 218.9-120.9 0-218.9-98.01-218.9-218.9 0-120.9 98.01-218.9 218.9-218.9 120.9 0 218.9 98.01 218.9 218.9" fill-rule="evenodd" fill="#b93d48" />
<path style="fill:#ffffff" inkscape:connector-curvature="0" d="m 192.31328,192.48917 -42.45605,0 c -5.83749,0 -10.61316,4.76382 -10.61316,10.58437 l 0,21.16875 c 0,5.82226 4.77567,10.58438 10.61316,10.58438 l 42.45605,0 c 5.83749,0 10.61316,-4.76382 10.61316,-10.58438 l 0,-21.16875 c 0,-5.82225 -4.77567,-10.58437 -10.61316,-10.58437" id="path68" />
<path style="fill:#ffffff" inkscape:connector-curvature="0" d="m 160.47548,128.98292 21.22464,0 0,52.92187 -21.21956,0 z" id="path70" />
<path style="fill:#ffffff" inkscape:connector-curvature="0" d="m 160.47548,245.41104 21.22464,0 0,137.59688 -21.21956,0 z" id="path72" />
<path style="fill:#ffffff" inkscape:connector-curvature="0" d="m 277.22537,277.16417 -42.45605,0 c -5.83749,0 -10.61316,4.76382 -10.61316,10.58437 l 0,21.16875 c 0,5.82226 4.77567,10.58438 10.61316,10.58438 l 42.45605,0 c 5.83749,0 10.61316,-4.76382 10.61316,-10.58438 l 0,-21.16875 c 0,-5.82225 -4.77567,-10.58437 -10.61316,-10.58437" id="path74" />
<path style="fill:#ffffff" inkscape:connector-curvature="0" d="m 245.38757,128.98292 21.22464,0 0,137.59687 -21.21956,0 z" id="path76" />
<path style="fill:#ffffff" inkscape:connector-curvature="0" d="m 245.38757,330.08604 21.22464,0 0,52.92188 -21.21956,0 z" id="path78" />
<path style="fill:#ffffff" inkscape:connector-curvature="0" d="m 362.12052,213.65792 -42.45604,0 c -5.8358,0 -10.61316,4.76382 -10.61316,10.58437 l 0,21.16875 c 0,5.82226 4.77567,10.58438 10.61316,10.58438 l 42.45604,0 c 5.8375,0 10.61317,-4.76382 10.61317,-10.58438 l 0,-21.16875 c 0,-5.82225 -4.77567,-10.58437 -10.61317,-10.58437" id="path80" />
<path style="fill:#ffffff" inkscape:connector-curvature="0" d="m 330.28273,128.98292 21.22463,0 0,74.09062 -21.21955,0 z" id="path82" />
<path style="fill:#ffffff" inkscape:connector-curvature="0" d="m 330.28273,266.57979 21.22463,0 0,116.42813 -21.21955,0 z" id="path84" />
</svg>
