<?xml version="1.0" encoding="UTF-8" standalone="no"?>
<svg xmlns:dc="http://purl.org/dc/elements/1.1/" xmlns:cc="http://creativecommons.org/ns#" xmlns:rdf="http://www.w3.org/1999/02/22-rdf-syntax-ns#" xmlns:svg="http://www.w3.org/2000/svg" xmlns="http://www.w3.org/2000/svg" xmlns:sodipodi="http://sodipodi.sourceforge.net/DTD/sodipodi-0.dtd" xmlns:inkscape="http://www.inkscape.org/namespaces/inkscape" height="512" viewBox="0 0 512 512" width="512" version="1.1" id="svg2" inkscape:version="0.91 r" sodipodi:docname="netflix-desktop.svg">
<defs id="defs16" />
<sodipodi:namedview pagecolor="#ffffff" bordercolor="#666666" borderopacity="1" objecttolerance="10" gridtolerance="10" guidetolerance="10" inkscape:pageopacity="0" inkscape:pageshadow="2" inkscape:window-width="640" inkscape:window-height="480" id="namedview14" showgrid="false" inkscape:zoom="0.4609375" inkscape:cx="256" inkscape:cy="256" inkscape:window-x="0" inkscape:window-y="0" inkscape:window-maximized="0" inkscape:current-layer="svg2" />
<metadata id="metadata72">
<rdf:RDF>
<cc:Work rdf:about="">
<dc:format>image/svg+xml</dc:format>
<dc:type rdf:resource="http://purl.org/dc/dcmitype/StillImage" />
</cc:Work>
</rdf:RDF>
</metadata>
<path id="path4" d="m471.95 253.05c0 120.9-98.01 218.9-218.9 218.9-120.9 0-218.9-98.01-218.9-218.9 0-120.9 98.01-218.9 218.9-218.9 120.9 0 218.9 98.01 218.9 218.9" fill-rule="evenodd" fill="#ee3424" />
<path style="fill-opacity:0.06700003;fill-rule:evenodd" inkscape:connector-curvature="0" d="M 256,1 C 115.17,1 1,115.17 1,256 1,396.83 115.17,511 256,511 396.83,511 511,396.83 511,256 511,115.17 396.83,1 256,1 m 8.827,44.931 c 120.9,0 218.9,98 218.9,218.9 0,120.9 -98,218.9 -218.9,218.9 -120.9,0 -218.93,-98 -218.93,-218.9 0,-120.9 98.03,-218.9 218.93,-218.9" id="path10" />
<path id="path66" fill="#fff" d="m72.57 207.22v100.41l1.156-0.156s3.133-0.457 9.844-1.219l0.875-0.094v-0.906l-0.594-65.56 9.969 64.56 0.156 0.969 0.969-0.125s3.86-0.474 17.06-1.781l0.906-0.094v-95.966h-12.156v1l0.313 69.25-10.594-69.41-0.156-0.844h-0.844l-15.906-0.031h-1m94.72 0-22.688 0.031h-1v93.473l1.063-0.063s5.813-0.388 22.625-1.469l0.938-0.063v-11.001l-1.063 0.063-11.656 0.813v-29.406h12.719v-11.156h-12.75v-30.12h12.813v-11.09h-1m108.44 0-22.656 0.031h-1v89.19h11.906v-36.844h12.719v-11.156h-12.75v-30.12h12.781v-11.09h-1m30.16 0v89.909l0.969 0.031s6.687 0.187 22.781 0.906l1.031 0.031v-10.875l-0.906-0.094s-2.972-0.201-12.03-0.531v-79.37h-11.844m61.25 0-9.813 0.031h-1v92.248l0.938 0.063s3.628 0.205 9.813 0.656l1.063 0.063v-93.063h-1m31.344 0 0.25 1.188 8.406 43.16-8.156 50.656-0.156 1.063 1.063 0.094 10.531 1.031 0.969 0.094 0.125-0.969 4.75-36.531 4.625 37.688 0.094 0.781 0.781 0.094 11.563 1.313 1.313 0.156-0.188-1.313-8.25-52.906 8.344-44.41 0.25-1.188h-13.123l-0.156 0.844-4.875 30.938-5.094-30.938-0.156-0.844h-12.907m-207.31 0.031v11.06h10.688v79.254l1.094-0.094s2.243-0.207 9.719-0.375l0.969-0.031v-0.969l0.063-77.78h10.813v-11.06h-33.344" color="#000000" />
</svg>
