<?xml version="1.0" encoding="UTF-8" standalone="no"?>
<svg xmlns:dc="http://purl.org/dc/elements/1.1/" xmlns:cc="http://creativecommons.org/ns#" xmlns:rdf="http://www.w3.org/1999/02/22-rdf-syntax-ns#" xmlns:svg="http://www.w3.org/2000/svg" xmlns="http://www.w3.org/2000/svg" xmlns:sodipodi="http://sodipodi.sourceforge.net/DTD/sodipodi-0.dtd" xmlns:inkscape="http://www.inkscape.org/namespaces/inkscape" height="512" viewBox="0 0 512 512" width="512" version="1.1" id="svg2" inkscape:version="0.91 r" sodipodi:docname="cs-network.svg">
<defs id="defs17" />
<sodipodi:namedview pagecolor="#ffffff" bordercolor="#666666" borderopacity="1" objecttolerance="10" gridtolerance="10" guidetolerance="10" inkscape:pageopacity="0" inkscape:pageshadow="2" inkscape:window-width="1680" inkscape:window-height="994" id="namedview15" showgrid="false" inkscape:zoom="1.3037281" inkscape:cx="53.590229" inkscape:cy="244.919" inkscape:window-x="0" inkscape:window-y="0" inkscape:window-maximized="1" inkscape:current-layer="svg2" />
<metadata id="metadata28">
<rdf:RDF>
<cc:Work rdf:about="">
<dc:format>image/svg+xml</dc:format>
<dc:type rdf:resource="http://purl.org/dc/dcmitype/StillImage" />
<dc:title />
</cc:Work>
</rdf:RDF>
</metadata>
<path style="fill:#33678e;fill-rule:evenodd;fill-opacity:1" inkscape:connector-curvature="0" d="m 471.95,253.05 c 0,120.9 -98.01,218.9 -218.9,218.9 -120.9,0 -218.9,-98.01 -218.9,-218.9 0,-120.9 98.01,-218.9 218.9,-218.9 120.9,0 218.9,98.01 218.9,218.9" id="path6" />
<path inkscape:connector-curvature="0" style="fill:#ffffff;fill-rule:evenodd" id="path1529" d="m 204.02979,154.00448 c -5.302,0 -9.591,4.262 -9.591,9.565 l 0,54.5 c 0,5.302 4.288,9.591 9.591,9.591 l 102.76,0 c 5.302,0 9.565,-4.288 9.565,-9.591 l 0,-54.5 c 0,-5.302 -4.262,-9.565 -9.565,-9.565 l -102.76,0 m 39.484,86.84 0,16.237 -125.1,0 0,41.568 23.12,0 0,-19.546 102.01,0 0,20.954 23.09,0 0,-20.954 101.62,0 0,21.371 23.12,0 0,-43.393 -124.73,0 0,-16.237 -23.116,0 m -142.01,72.895 c -5.301997,0 -9.564997,4.262 -9.564997,9.565 l 0,29.632 c 0,5.302 4.262,9.565 9.564997,9.565 l 60.985,0 c 5.302,0 9.565,-4.262 9.565,-9.565 l 0,-29.632 c 0,-5.302 -4.262,-9.565 -9.565,-9.565 l -60.985,0 m 122.26,0 c -5.302,0 -9.565,4.262 -9.565,9.565 l 0,29.632 c 0,5.302 4.262,9.565 9.565,9.565 l 60.985,0 c 5.302,0 9.565,-4.262 9.565,-9.565 l 0,-29.632 c 0,-5.302 -4.262,-9.565 -9.565,-9.565 l -60.985,0 m 124.58,0 c -5.302,0 -9.565,4.262 -9.565,9.565 l 0,29.632 c 0,5.302 4.262,9.565 9.565,9.565 l 60.959,0 c 5.302,0 9.591,-4.262 9.591,-9.565 l 0,-29.632 c 0,-5.302 -4.288,-9.565 -9.591,-9.565 l -60.959,0" />
</svg>
