<?xml version="1.0" encoding="UTF-8" standalone="no"?>
<svg xmlns:dc="http://purl.org/dc/elements/1.1/" xmlns:cc="http://creativecommons.org/ns#" xmlns:rdf="http://www.w3.org/1999/02/22-rdf-syntax-ns#" xmlns:svg="http://www.w3.org/2000/svg" xmlns="http://www.w3.org/2000/svg" xmlns:sodipodi="http://sodipodi.sourceforge.net/DTD/sodipodi-0.dtd" xmlns:inkscape="http://www.inkscape.org/namespaces/inkscape" height="512" viewBox="0 0 512 512" width="512" version="1.1" id="svg5508" inkscape:version="0.91 r" sodipodi:docname="opera-widget.svg">
<defs id="defs5522" />
<sodipodi:namedview pagecolor="#ffffff" bordercolor="#666666" borderopacity="1" objecttolerance="10" gridtolerance="10" guidetolerance="10" inkscape:pageopacity="0" inkscape:pageshadow="2" inkscape:window-width="640" inkscape:window-height="480" id="namedview5520" showgrid="false" inkscape:zoom="0.4609375" inkscape:cx="256" inkscape:cy="256" inkscape:window-x="0" inkscape:window-y="0" inkscape:window-maximized="0" inkscape:current-layer="svg5508" />
<metadata id="metadata72">
<rdf:RDF>
<cc:Work rdf:about="">
<dc:format>image/svg+xml</dc:format>
<dc:type rdf:resource="http://purl.org/dc/dcmitype/StillImage" />
</cc:Work>
</rdf:RDF>
</metadata>
<path style="fill:#cd1d31;fill-rule:evenodd" inkscape:connector-curvature="0" d="m 471.95,253.05 c 0,120.9 -98.01,218.9 -218.9,218.9 -120.9,0 -218.9,-98.01 -218.9,-218.9 0,-120.9 98.01,-218.9 218.9,-218.9 120.9,0 218.9,98.01 218.9,218.9" id="path6" />
<path id="path66" d="m254.12 112.69-6.687 16.11c-12.179 29.384-19.858 31.32-48.27 12.196l-15.698-10.572-11.431 7.897c-18.51 12.827-18.843 13.759-11.845 33.976 11.145 32.2 9.373 35.555-22.13 41.841-9.852 1.966-19.569 5.706-21.621 8.343s-3.736 11.595-3.726 19.902c0.011 15.08 0.03 15.11 13.374 20.602 18.374 7.556 28.404 16.09 28.404 24.1 0 3.714-5.394 14.445-12 23.882l-12.04 17.16 10.795 14.679c5.929 8.08 11.677 14.669 12.769 14.616 1.092-0.054 9.374-2.714 18.405-5.891 24.762-8.711 32.33-7.955 37.1 3.726 2.177 5.337 4.867 16.08 5.986 23.85 1.216 8.444 4.084 15.308 7.101 17.07 2.777 1.62 11.838 2.975 20.16 3.03l15.13 0.096 6.687-16.08c12.179-29.384 19.858-31.32 48.27-12.196l15.698 10.572 11.431-7.929c18.51-12.827 18.842-13.759 11.845-33.976-11.145-32.2-9.405-35.524 22.1-41.809 9.852-1.966 19.6-5.738 21.653-8.375 2.052-2.637 3.726-11.726 3.726-20.22v-15.476l-13.247-5.063c-17.952-6.856-28.531-15.682-28.531-23.818 0-3.714 5.394-14.477 12-23.914l12.04-17.16-10.954-14.902c-8.947-12.188-12.12-14.555-17.259-12.896-3.459 1.117-14.14 4.234-23.723 6.942-17.333 4.895-17.44 4.894-22.927-1.879-3.034-3.746-7.06-14.491-8.948-23.882s-5.61-18.773-8.247-20.825c-2.637-2.053-11.677-3.726-20.09-3.726h-15.284m2.579 84.48c40.888 0.333 71.857 46.4 51.43 85.91-9 17.413-34.489 32.846-53.623 32.48-3.284-0.063-11.359-2.01-17.927-4.331-24.706-8.739-43.36-39.441-38.784-63.813 4.309-22.97 21.902-42.37 43.72-48.24 4.485-1.208 8.918-1.855 13.247-1.974 0.654-0.018 1.293-0.037 1.942-0.032" fill-rule="evenodd" fill="#fff" />
</svg>
