<?xml version="1.0" encoding="UTF-8" standalone="no"?>
<svg xmlns:dc="http://purl.org/dc/elements/1.1/" xmlns:cc="http://creativecommons.org/ns#" xmlns:rdf="http://www.w3.org/1999/02/22-rdf-syntax-ns#" xmlns:svg="http://www.w3.org/2000/svg" xmlns="http://www.w3.org/2000/svg" xmlns:sodipodi="http://sodipodi.sourceforge.net/DTD/sodipodi-0.dtd" xmlns:inkscape="http://www.inkscape.org/namespaces/inkscape" width="512" height="512" viewBox="0 0 135.46666 135.46667" version="1.1" id="svg2" inkscape:version="0.91 r" sodipodi:docname="color.svg">
<defs id="defs28" />
<sodipodi:namedview pagecolor="#ffffff" bordercolor="#666666" borderopacity="1" objecttolerance="10" gridtolerance="10" guidetolerance="10" inkscape:pageopacity="0" inkscape:pageshadow="2" inkscape:window-width="640" inkscape:window-height="480" id="namedview26" showgrid="false" inkscape:zoom="0.4609375" inkscape:cx="256" inkscape:cy="256" inkscape:window-x="0" inkscape:window-y="0" inkscape:window-maximized="0" inkscape:current-layer="layer1" />
<metadata id="metadata5754">
<rdf:RDF>
<cc:Work rdf:about="">
<dc:format>image/svg+xml</dc:format>
<dc:type rdf:resource="http://purl.org/dc/dcmitype/StillImage" />
</cc:Work>
</rdf:RDF>
</metadata>
<g inkscape:label="Layer 1" inkscape:groupmode="layer" id="layer1" transform="translate(0,-161.53332)">
<path style="color:#000000;fill:#924565;fill-rule:evenodd" inkscape:connector-curvature="0" id="path4839" d="m 66.95544,170.43814 c -32.05691,0 -58.05223,25.99267 -58.05223,58.05223 0,32.05692 25.99267,58.0443 58.05223,58.0443 32.056923,0 58.0443,-25.98209 58.0443,-58.04165 0,-32.05692 -25.982085,-58.05223 -58.04165,-58.05223" />
<path style="fill:#924565" inkscape:connector-curvature="0" id="path4841" d="m 100.98087,181.4591 0,94.05938 c 14.55208,-10.54603 24.01887,-27.68071 24.01887,-47.02969 0,-19.34634 -9.46838,-36.48075 -24.01887,-47.02969" />
<path style="fill:#d23638" inkscape:connector-curvature="0" d="m 77.962112,171.48827 0,113.99309 c 8.471959,-1.6256 16.290397,-5.08661 23.018758,-9.96315 l 0,-94.05938 c -6.730478,-4.87944 -14.544418,-8.34496 -23.018758,-9.97161" id="path4843" />
<path style="fill:#79c943" inkscape:connector-curvature="0" d="m 31.92461,182.20522 c -13.98402,10.59921 -23.01875,27.38702 -23.01875,46.28621 0,18.89919 9.03287,35.687 23.01875,46.28621 l 0,-92.56977" id="path4845" />
<path style="fill:#6ea6c1" inkscape:connector-curvature="0" d="m 54.94336,171.68804 c -8.509,1.79069 -16.32929,5.44644 -23.01875,10.51718 l 0,92.57242 c 6.68867,5.06942 14.5116,8.71908 23.01875,10.50899 l 0,-113.59621" id="path4847" />
<path style="fill:#f3f284" inkscape:connector-curvature="0" d="m 66.95544,170.43814 c -4.11903,0 -8.13726,0.4326 -12.01472,1.24857 l 0,113.59621 c 3.87614,0.81545 7.89516,1.24857 12.01472,1.24857 3.762645,0 7.442735,-0.36644 11.005085,-1.05013 l 0,-113.99309 c -3.563144,-0.68394 -7.242175,-1.05013 -11.005085,-1.05013" id="path4849" />
<path style="color:#000000;fill:#ffffff" inkscape:connector-curvature="0" id="path4855" d="m 89.363009,191.94454 c -17.389211,0.12752 -34.790069,-0.1651 -52.173189,0.14896 -7.81765,1.2184 -13.33765,8.85719 -13.75013,16.47825 -0.43286,8.13038 0.0648,16.27716 -0.14261,24.41575 0.0267,6.43387 -0.28258,12.91352 0.40719,19.31458 1.33085,6.70825 6.42673,13.07571 13.46888,14.1314 14.21262,0.35639 28.43213,-0.0206 42.648189,0.15637 6.458215,-0.0553 12.956118,0.16854 19.388668,-0.32174 7.942793,-1.82853 13.059833,-10.05416 12.891563,-17.97473 0.21034,-10.93258 -0.0611,-21.86781 0.10451,-32.8004 -0.0849,-4.74715 0.22701,-9.76286 -2.08174,-14.06525 -2.55985,-5.40491 -8.07588,-9.78059 -14.319256,-9.43372 -2.1463,-0.0765 -4.293923,-0.0627 -6.441017,-0.05" />
<path style="color:#000000;fill:#4ba077" inkscape:connector-curvature="0" d="m 38.87257,199.24174 57.803522,0 c 4.707468,0 8.469318,4.6617 8.469318,10.53333 l 0,39.04192 c 0,5.8711 -3.76873,10.58069 -8.469318,10.58069 l -57.803522,0 c -4.69927,0 -8.46931,-4.70906 -8.46931,-10.58069 l 0,-39.04192 c 0,-5.8711 3.76131,-10.53333 8.46931,-10.53333" id="path5010" />
<path style="fill:#d23638" inkscape:connector-curvature="0" d="m 77.962112,199.24439 0,60.15038 18.711334,0 c 1.574007,0 3.049059,-0.52388 4.307684,-1.44701 l 0,-57.26642 c -1.258625,-0.91599 -2.731296,-1.4388 -4.307684,-1.4388 l -18.711334,0" id="path5012" />
<path style="fill:#6ea6c1" inkscape:connector-curvature="0" d="m 38.86992,199.24439 c -2.89189,0 -5.42025,1.76292 -6.94531,4.48151 l 0,51.16513 c 1.52665,2.73209 4.05844,4.50585 6.94531,4.50585 l 16.07344,0 0,-60.15037 -16.07344,0" id="path5014" />
<path style="fill:#79c943" inkscape:connector-curvature="0" d="m 31.92461,203.72643 c -0.95753,1.70656 -1.52135,3.78778 -1.52135,6.05235 l 0,39.04191 c 0,2.26457 0.56303,4.35372 1.52135,6.06902 l 0,-51.16248" id="path5016" />
<path style="fill:#f3f284" inkscape:connector-curvature="0" d="m 54.94336,199.24439 0,60.15038 23.018752,0 0,-60.15038 -23.018752,0" id="path5018" />
<path style="fill:#924565" inkscape:connector-curvature="0" d="m 100.98087,200.68372 0,57.26642 c 2.49925,-1.8333 4.15898,-5.22287 4.15898,-9.12812 l 0,-39.04192 c 0,-3.90525 -1.65946,-7.27578 -4.15898,-9.09505" id="path5020" />
<path style="fill:#ffffff;fill-opacity:0.33000004" inkscape:connector-curvature="0" d="m 38.87257,199.24439 c -4.7072,0 -8.47196,4.66222 -8.47196,10.53386 l 0,39.04191 c 0,5.87111 3.77296,10.58175 8.47196,10.58175 l 13.65647,0 c 17.854082,-13.34294 12.8905,-34.54929 26.52977,-60.15831 l -40.18492,0" id="path5022" />
</g>
</svg>
