<?xml version="1.0" encoding="UTF-8" standalone="no"?>
<svg xmlns:dc="http://purl.org/dc/elements/1.1/" xmlns:cc="http://creativecommons.org/ns#" xmlns:rdf="http://www.w3.org/1999/02/22-rdf-syntax-ns#" xmlns:svg="http://www.w3.org/2000/svg" xmlns="http://www.w3.org/2000/svg" xmlns:xlink="http://www.w3.org/1999/xlink" xmlns:sodipodi="http://sodipodi.sourceforge.net/DTD/sodipodi-0.dtd" xmlns:inkscape="http://www.inkscape.org/namespaces/inkscape" viewBox="0 0 512 512" id="svg2" version="1.1" inkscape:version="0.91 r" sodipodi:docname="preferences-system-hotcorners.svg">
<metadata id="metadata59">
<rdf:RDF>
<cc:Work rdf:about="">
<dc:format>image/svg+xml</dc:format>
<dc:type rdf:resource="http://purl.org/dc/dcmitype/StillImage" />
</cc:Work>
</rdf:RDF>
</metadata>
<defs id="defs57" />
<sodipodi:namedview pagecolor="#ffffff" bordercolor="#666666" borderopacity="1" objecttolerance="10" gridtolerance="10" guidetolerance="10" inkscape:pageopacity="0" inkscape:pageshadow="2" inkscape:window-width="640" inkscape:window-height="480" id="namedview55" showgrid="false" inkscape:zoom="0.4609375" inkscape:cx="256" inkscape:cy="256" inkscape:window-x="0" inkscape:window-y="0" inkscape:window-maximized="0" inkscape:current-layer="svg2" />
<path fill-rule="evenodd" d="m253.06 33.656c-121.16 0-219.41 98.24-219.41 219.41 0 121.16 98.24 219.38 219.41 219.38 121.16 0 219.38-98.2 219.38-219.37 0-121.16-98.2-219.41-219.37-219.41" fill="#e75177" id="path4" />
<path d="m147.86 120.99c-29.551 0-53.819 29.05-53.819 64.42v141.17c0 35.37 24.268 64.42 53.819 64.42h216.28c29.551 0 53.819-29.05 53.819-64.42v-141.17c0-35.37-24.268-64.42-53.819-64.42h-216.28" fill="#fff" id="path8" />
<g font-family="'Gentium Book Basic'" line-height="125%" font-size="0" word-spacing="0" letter-spacing="0" id="g10" />
<flowRoot opacity="0.25" transform="matrix(10.294 0 0 10.294 -234.54 -10323)" id="flowRoot24">
<flowRegion id="flowRegion26">
<path id="0" d="m-53.03 6.634h57.629v49.32h-57.629z" />
</flowRegion>
<flowPara id="flowPara29" />
</flowRoot>
<flowRoot transform="matrix(10.294 0 0 10.294 -1650.2 -10493)" id="flowRoot31">
<flowRegion id="flowRegion33">
<use width="1" xlink:href="#0" height="1" id="use35" />
</flowRegion>
<flowPara id="flowPara37" />
</flowRoot>
<path d="m364.44 146.53c-73.71 0.175-147.47-0.357-221.16 0.281-16.773 3.211-25.47 21.951-24.344 37.656 0.264 50.993-0.699 102.04 0.531 153 1.943 14.877 14.405 30.14 30.5 28.403 73.27-0.293 146.62 0.603 219.84-0.465 16.655-3.796 24.76-22.708 23.59-38.563-0.344-50.701 0.712-101.46-0.559-152.12-2.071-13.9-12.969-28.838-28.406-28.19" fill="#ae3d5a" id="path39" />
<path d="m254.28 201.63c-29.654 42.91-70.61 78.04-117.66 100.56 0.087 8.281 0.206 16.567 0.406 24.844 1.693 12.966 12.566 26.26 26.594 24.75 63.861-0.256 127.77 0.525 191.59-0.406 14.516-3.309 21.582-19.776 20.563-33.594-0.028-4.131-0.053-8.274-0.063-12.406-48.714-23.04-91.32-59.06-121.44-103.75" fill="#fff" id="path41" />
<g fill="#fff" id="g43">
<path d="m285.53 160.63c21.339 37.672 52.641 68.973 90.31 90.31 0.052-21.925-0.013-43.848-0.563-65.75-1.805-12.11-11.296-25.13-24.75-24.563-21.665 0.051-43.33 0.026-65 0" id="path45" />
<path d="m205.97 160.63c-16.06 0.037-32.13 0.111-48.19 0.25-14.619 2.798-22.2 19.12-21.22 32.813 0.093 17.89 0.028 35.791-0.031 53.688 36-20.753 66.03-50.743 86.78-86.75-5.781 0.005-11.563-0.013-17.344 0" id="path47" />
<path d="m241.88 160.59c-23.842 44.47-61.03 81.49-105.41 105.44-0.006 6.07 0.01 12.12 0.031 18.19 52.835-26.778 96.95-70.66 123.47-123.59-6.03-0.009-12.06-0.029-18.09-0.031" id="path49" />
</g>
<path d="m272.84 170.94c-2.841 5.428-5.854 10.764-9.03 16 27.337 42.754 66.45 77.956 111.94 100.47 0.012-6.03 0.01-12.07 0.031-18.09-42.563-22.421-78.57-56.921-102.94-98.37" id="path51" />
<path d="m272.84 170.94c-2.841 5.428-5.854 10.764-9.03 16 27.337 42.754 66.45 77.956 111.94 100.47 0.012-6.03 0.01-12.07 0.031-18.09-42.563-22.421-78.57-56.921-102.94-98.37" fill="#fff" id="path53" />
</svg>
