<?xml version="1.0" encoding="UTF-8" standalone="no"?>
<svg xmlns:dc="http://purl.org/dc/elements/1.1/" xmlns:cc="http://creativecommons.org/ns#" xmlns:rdf="http://www.w3.org/1999/02/22-rdf-syntax-ns#" xmlns:svg="http://www.w3.org/2000/svg" xmlns="http://www.w3.org/2000/svg" xmlns:sodipodi="http://sodipodi.sourceforge.net/DTD/sodipodi-0.dtd" xmlns:inkscape="http://www.inkscape.org/namespaces/inkscape" width="512" height="512" viewBox="0 0 135.46666 135.46666" version="1.1" id="svg2" inkscape:version="0.91 r" sodipodi:docname="cs-display.svg">
<defs id="defs22" />
<sodipodi:namedview pagecolor="#ffffff" bordercolor="#666666" borderopacity="1" objecttolerance="10" gridtolerance="10" guidetolerance="10" inkscape:pageopacity="0" inkscape:pageshadow="2" inkscape:window-width="640" inkscape:window-height="480" id="namedview20" showgrid="false" showguides="false" inkscape:zoom="0.4609375" inkscape:cx="256" inkscape:cy="256" inkscape:window-x="0" inkscape:window-y="0" inkscape:window-maximized="0" inkscape:current-layer="layer1" />
<metadata id="metadata9615">
<rdf:RDF>
<cc:Work rdf:about="">
<dc:format>image/svg+xml</dc:format>
<dc:type rdf:resource="http://purl.org/dc/dcmitype/StillImage" />
</cc:Work>
</rdf:RDF>
</metadata>
<g inkscape:label="Layer 1" inkscape:groupmode="layer" id="layer1" transform="translate(0,-161.53335)">
<path style="fill:#b93d48;fill-rule:evenodd" inkscape:connector-curvature="0" id="path12484" d="m 124.88333,228.48775 c 0,31.98812 -25.931809,57.91994 -57.919935,57.91994 -31.988126,0 -57.9199391,-25.93182 -57.9199391,-57.91994 0,-31.98813 25.9318131,-57.91994 57.9199391,-57.91994 31.988126,0 57.919935,25.93181 57.919935,57.91994" />
<path style="fill:#ffffff" inkscape:connector-curvature="0" id="path12500" d="m 39.131873,193.54687 c -7.818702,0 -14.23961,7.68615 -14.23961,17.04446 l 0,37.35123 c 0,9.35831 6.420908,17.04446 14.23961,17.04446 l 57.224085,0 c 7.818702,0 14.239612,-7.68615 14.239612,-17.04446 l 0,-37.35123 c 0,-9.35831 -6.42091,-17.04446 -14.239612,-17.04446 l -57.224085,0" />
<path style="fill:#8b2e36" inkscape:connector-curvature="0" id="path12502" d="m 96.440625,200.30433 c -19.502438,0.0463 -39.018105,-0.0945 -58.515252,0.0744 -4.437856,0.84957 -6.738937,5.80787 -6.441017,9.96315 0.06985,13.4919 -0.184943,26.99808 0.140494,40.48125 0.514086,3.9362 3.811323,7.97454 8.069792,7.51496 19.386021,-0.0775 38.793209,0.15954 58.166002,-0.12303 4.406636,-1.00436 6.551086,-6.00816 6.241516,-10.20313 -0.091,-13.41464 0.18839,-26.84463 -0.1479,-40.24842 -0.54795,-3.67771 -3.43138,-7.63005 -7.515752,-7.4586" />
<path style="fill:#ffffff" inkscape:connector-curvature="0" id="path12504" d="m 43.867915,204.31806 c -4.659313,0.29607 -7.599892,5.26441 -7.329223,9.59114 0.237596,12.97517 -0.221985,25.32592 0.11086,36.57601 15.499292,-14.91986 33.686751,-32.37707 47.52446,-46.17774 -13.434219,0.002 -26.871084,-0.006 -40.306626,0.008" />
</g>
</svg>
