<?xml version="1.0" encoding="UTF-8" standalone="no"?>
<svg xmlns:dc="http://purl.org/dc/elements/1.1/" xmlns:cc="http://creativecommons.org/ns#" xmlns:rdf="http://www.w3.org/1999/02/22-rdf-syntax-ns#" xmlns:svg="http://www.w3.org/2000/svg" xmlns="http://www.w3.org/2000/svg" xmlns:sodipodi="http://sodipodi.sourceforge.net/DTD/sodipodi-0.dtd" xmlns:inkscape="http://www.inkscape.org/namespaces/inkscape" width="512" height="512" viewBox="0 0 135.46666 135.46667" version="1.1" id="svg2" inkscape:version="0.91 r" sodipodi:docname="preferences_desktop_wallpaper.svg">
<defs id="defs23" />
<sodipodi:namedview pagecolor="#ffffff" bordercolor="#666666" borderopacity="1" objecttolerance="10" gridtolerance="10" guidetolerance="10" inkscape:pageopacity="0" inkscape:pageshadow="2" inkscape:window-width="1680" inkscape:window-height="994" id="namedview21" showgrid="false" inkscape:zoom="0.4609375" inkscape:cx="20.610169" inkscape:cy="256" inkscape:window-x="0" inkscape:window-y="0" inkscape:window-maximized="1" inkscape:current-layer="layer1" />
<metadata id="metadata6962">
<rdf:RDF>
<cc:Work rdf:about="">
<dc:format>image/svg+xml</dc:format>
<dc:type rdf:resource="http://purl.org/dc/dcmitype/StillImage" />
</cc:Work>
</rdf:RDF>
</metadata>
<g inkscape:label="Layer 1" inkscape:groupmode="layer" id="layer1" transform="translate(0,-161.53332)">
<path d="m 124.8701,228.48613 c 0,31.98813 -25.931813,57.91994 -57.919939,57.91994 -31.988125,0 -57.9199386,-25.93181 -57.9199386,-57.91994 0,-31.98812 25.9318136,-57.91993 57.9199386,-57.91993 31.988126,0 57.919939,25.93181 57.919939,57.91993" id="path9" inkscape:connector-curvature="0" style="fill:#68af4c;fill-rule:evenodd" />
<rect x="24.889336" y="193.54526" width="85.703842" height="71.440147" rx="14.705543" id="rect7193" style="fill:#ffffff" />
<rect style="fill:#4e8439" id="rect7197" rx="8.7921047" height="58.041645" width="72.472023" y="200.24187" x="31.495989" />
<path style="fill:#ffffff" inkscape:connector-curvature="0" id="path7199" d="m 80.996885,203.57562 0,38.20054 c 0,3.94891 -3.169973,7.12735 -7.118879,7.12735 l -38.216418,0 0,0.13229 c 0,3.27766 2.634192,5.92005 5.91185,5.92005 l 52.321356,0 c 3.277658,0 5.91185,-2.64239 5.91185,-5.92005 l 0,-39.53934 c 0,-3.27765 -2.634192,-5.92005 -5.91185,-5.92005 l -12.898438,0" />
<path d="m 70.873926,244.69187 c 3.277659,0 5.91185,-2.64239 5.91185,-5.92005 l 0,-35.19752 -41.126834,41.11889 35.213397,0" id="path7201" inkscape:connector-curvature="0" style="fill:#ffffff" />
</g>
</svg>
