<?xml version="1.0" encoding="UTF-8" standalone="no"?>
<svg xmlns:dc="http://purl.org/dc/elements/1.1/" xmlns:cc="http://creativecommons.org/ns#" xmlns:rdf="http://www.w3.org/1999/02/22-rdf-syntax-ns#" xmlns:svg="http://www.w3.org/2000/svg" xmlns="http://www.w3.org/2000/svg" xmlns:sodipodi="http://sodipodi.sourceforge.net/DTD/sodipodi-0.dtd" xmlns:inkscape="http://www.inkscape.org/namespaces/inkscape" viewBox="0 0 512 512" id="svg2" version="1.1" inkscape:version="0.91 r" sodipodi:docname="cs-user.svg">
<metadata id="metadata790">
<rdf:RDF>
<cc:Work rdf:about="">
<dc:format>image/svg+xml</dc:format>
<dc:type rdf:resource="http://purl.org/dc/dcmitype/StillImage" />
</cc:Work>
</rdf:RDF>
</metadata>
<defs id="defs788" />
<sodipodi:namedview pagecolor="#ffffff" bordercolor="#666666" borderopacity="1" objecttolerance="10" gridtolerance="10" guidetolerance="10" inkscape:pageopacity="0" inkscape:pageshadow="2" inkscape:window-width="640" inkscape:window-height="480" id="namedview786" showgrid="false" inkscape:zoom="0.4609375" inkscape:cx="256" inkscape:cy="256" inkscape:window-x="0" inkscape:window-y="0" inkscape:window-maximized="0" inkscape:current-layer="svg2" />
<text font-size="208.33" y="549.52" x="-1160.48" font-family="Gentium Book Basic" line-height="125%" word-spacing="0" letter-spacing="0" id="text4">
<tspan y="549.52" x="-1160.48" id="tspan6" />
</text>
<text transform="scale(4.0128.2492)" font-size="75.7" y="1642.24" x="28.534" font-family="Arial" text-anchor="middle" id="text8" />
<path style="fill:#0078ad;fill-rule:evenodd" inkscape:connector-curvature="0" id="path12" d="m 471.95,253.05 c 0,120.9 -98.01,218.9 -218.9,218.9 -120.9,0 -218.9,-98.01 -218.9,-218.9 0,-120.9 98.01,-218.9 218.9,-218.9 120.9,0 218.9,98.01 218.9,218.9" />
<text font-size="129.23" y="231.36" x="729.64" font-family="Gentium Book Basic" line-height="125%" word-spacing="0" letter-spacing="0" id="text24">
<tspan y="231.36" x="729.64" id="tspan26" />
</text>
<text transform="scale(4.0128.2492)" font-size="46.954" y="579.26" x="378.91" font-family="Arial" text-anchor="middle" id="text28" />
<text font-size="129.23" y="151.36" x="1310.91" font-family="Gentium Book Basic" line-height="125%" word-spacing="0" letter-spacing="0" id="text30">
<tspan y="151.36" x="1310.91" id="tspan32" />
</text>
<text transform="scale(4.0128.2492)" font-size="46.954" y="258.22" x="523.76" font-family="Arial" text-anchor="middle" id="text34" />
<text font-size="129.23" y="-29.9" x="239.33" font-family="Gentium Book Basic" line-height="125%" word-spacing="0" letter-spacing="0" id="text36">
<tspan y="-29.9" x="239.33" id="tspan38" />
</text>
<text transform="scale(4.0128.2492)" font-size="46.954" y="-469.13" x="256.72" font-family="Arial" text-anchor="middle" id="text40" />
<text font-size="129.23" y="-246.37" x="1337.38" font-family="Gentium Book Basic" line-height="125%" word-spacing="0" letter-spacing="0" id="text42">
<tspan y="-246.37" x="1337.38" id="tspan44" />
</text>
<text transform="scale(4.0128.2492)" font-size="46.954" y="-1337.8" x="530.36" font-family="Arial" text-anchor="middle" id="text46" />
<text font-size="129.23" y="-326.37" x="1918.65" font-family="Gentium Book Basic" line-height="125%" word-spacing="0" letter-spacing="0" id="text48">
<tspan y="-326.37" x="1918.65" id="tspan50" />
</text>
<text transform="scale(4.0128.2492)" font-size="46.954" y="-1658.83" x="675.21" font-family="Arial" text-anchor="middle" id="text52" />
<text font-size="129.23" y="-798.77" x="1529.53" font-family="Gentium Book Basic" line-height="125%" word-spacing="0" letter-spacing="0" id="text54">
<tspan y="-798.77" x="1529.53" id="tspan56" />
</text>
<text transform="scale(4.0128.2492)" font-size="46.954" y="-3554.48" x="578.24" font-family="Arial" text-anchor="middle" id="text58" />
<text font-size="129.23" y="-878.78" x="2110.79" font-family="Gentium Book Basic" line-height="125%" word-spacing="0" letter-spacing="0" id="text60">
<tspan y="-878.78" x="2110.79" id="tspan62" />
</text>
<text transform="scale(4.0128.2492)" font-size="46.954" y="-3875.52" x="723.09" font-family="Arial" text-anchor="middle" id="text64" />
<g font-family="Gentium Book Basic" line-height="125%" word-spacing="0" letter-spacing="0" id="g66">
<text y="535.94" x="277.99" font-size="208.33" id="text68">
<tspan y="535.94" x="277.99" id="tspan70" />
</text>
<g fill="#fff" id="g72">
<g font-size="179.16" id="g74">
<text y="69.31" x="-924.62" id="text76">
<tspan y="69.31" x="-924.62" id="tspan78" />
</text>
<text y="308.49" x="-2953.21" id="text80">
<tspan y="308.49" x="-2953.21" id="tspan82" />
</text>
<text y="113.03" x="-2705.35" id="text84">
<tspan y="113.03" x="-2705.35" id="tspan86" />
</text>
<text y="-107.9" x="902" id="text88">
<tspan y="-107.9" x="902" id="tspan90" />
</text>
<text y="16.823" x="-928.02" id="text92">
<tspan y="16.823" x="-928.02" id="tspan94" />
</text>
<text y="256.01" x="-2956.61" id="text96">
<tspan y="256.01" x="-2956.61" id="tspan98" />
</text>
<text y="60.54" x="-2708.74" id="text100">
<tspan y="60.54" x="-2708.74" id="tspan102" />
</text>
</g>
<g font-size="185.33" id="g104">
<text y="63.49" x="-940.73" id="text106">
<tspan y="63.49" x="-940.73" id="tspan108" />
</text>
<text y="310.9" x="-3039.14" id="text110">
<tspan y="310.9" x="-3039.14" id="tspan112" />
</text>
<text y="108.71" x="-2782.75" id="text114">
<tspan y="108.71" x="-2782.75" id="tspan116" />
</text>
<text y="-119.83" x="948.77" id="text118">
<tspan y="-119.83" x="948.77" id="tspan120" />
</text>
<text y="9.193" x="-944.24" id="text122">
<tspan y="9.193" x="-944.24" id="tspan124" />
</text>
<text y="256.61" x="-3042.66" id="text126">
<tspan y="256.61" x="-3042.66" id="tspan128" />
</text>
<text y="54.41" x="-2786.26" id="text130">
<tspan y="54.41" x="-2786.26" id="tspan132" />
</text>
</g>
<g font-size="179.16" id="g134">
<text y="69.31" x="-924.62" opacity="0.408" id="text136">
<tspan y="69.31" x="-924.62" id="tspan138" />
</text>
<text y="308.49" x="-2953.21" opacity="0.408" id="text140">
<tspan y="308.49" x="-2953.21" id="tspan142" />
</text>
<text y="113.03" x="-2705.35" opacity="0.408" id="text144">
<tspan y="113.03" x="-2705.35" id="tspan146" />
</text>
<text y="-107.9" x="902" opacity="0.408" id="text148">
<tspan y="-107.9" x="902" id="tspan150" />
</text>
<text y="16.823" x="-928.02" opacity="0.408" id="text152">
<tspan y="16.823" x="-928.02" id="tspan154" />
</text>
<text y="256.01" x="-2956.61" opacity="0.408" id="text156">
<tspan y="256.01" x="-2956.61" id="tspan158" />
</text>
<text y="60.54" x="-2708.74" opacity="0.408" id="text160">
<tspan y="60.54" x="-2708.74" id="tspan162" />
</text>
</g>
<g font-size="185.33" id="g164">
<text y="63.49" x="-940.73" opacity="0.408" id="text166">
<tspan y="63.49" x="-940.73" id="tspan168" />
</text>
<text y="310.9" x="-3039.14" opacity="0.408" id="text170">
<tspan y="310.9" x="-3039.14" id="tspan172" />
</text>
<text y="108.71" x="-2782.75" opacity="0.408" id="text174">
<tspan y="108.71" x="-2782.75" id="tspan176" />
</text>
<text y="-119.83" x="948.77" opacity="0.408" id="text178">
<tspan y="-119.83" x="948.77" id="tspan180" />
</text>
<text y="9.193" x="-944.24" opacity="0.408" id="text182">
<tspan y="9.193" x="-944.24" id="tspan184" />
</text>
<text y="256.61" x="-3042.66" opacity="0.408" id="text186">
<tspan y="256.61" x="-3042.66" id="tspan188" />
</text>
<text y="54.41" x="-2786.26" opacity="0.408" id="text190">
<tspan y="54.41" x="-2786.26" id="tspan192" />
</text>
</g>
</g>
<text y="168.44" x="655.88" font-size="129.23" id="text194">
<tspan y="168.44" x="655.88" id="tspan196" />
</text>
</g>
<text transform="scale(4.0128.2492)" font-size="46.954" y="326.78" x="360.53" font-family="Arial" text-anchor="middle" id="text198" />
<text font-size="129.23" y="88.44" x="1237.15" font-family="Gentium Book Basic" line-height="125%" word-spacing="0" letter-spacing="0" id="text200">
<tspan y="88.44" x="1237.15" id="tspan202" />
</text>
<text transform="scale(4.0128.2492)" font-size="46.954" y="5.751" x="505.38" font-family="Arial" text-anchor="middle" id="text204" />
<text font-size="129.23" y="-92.82" x="165.57" font-family="Gentium Book Basic" line-height="125%" word-spacing="0" letter-spacing="0" id="text206">
<tspan y="-92.82" x="165.57" id="tspan208" />
</text>
<text transform="scale(4.0128.2492)" font-size="46.954" y="-721.61" x="238.34" font-family="Arial" text-anchor="middle" id="text210" />
<text font-size="129.23" y="-309.29" x="1263.62" font-family="Gentium Book Basic" line-height="125%" word-spacing="0" letter-spacing="0" id="text212">
<tspan y="-309.29" x="1263.62" id="tspan214" />
</text>
<text transform="scale(4.0128.2492)" font-size="46.954" y="-1590.27" x="511.98" font-family="Arial" text-anchor="middle" id="text216" />
<text font-size="129.23" y="-389.3" x="1844.89" font-family="Gentium Book Basic" line-height="125%" word-spacing="0" letter-spacing="0" id="text218">
<tspan y="-389.3" x="1844.89" id="tspan220" />
</text>
<text transform="scale(4.0128.2492)" font-size="46.954" y="-1911.31" x="656.82" font-family="Arial" text-anchor="middle" id="text222" />
<text font-size="129.23" y="-861.7" x="1455.77" font-family="Gentium Book Basic" line-height="125%" word-spacing="0" letter-spacing="0" id="text224">
<tspan y="-861.7" x="1455.77" id="tspan226" />
</text>
<text transform="scale(4.0128.2492)" font-size="46.954" y="-3806.96" x="559.86" font-family="Arial" text-anchor="middle" id="text228" />
<text font-size="129.23" y="-941.7" x="2037.03" font-family="Gentium Book Basic" line-height="125%" word-spacing="0" letter-spacing="0" id="text230">
<tspan y="-941.7" x="2037.03" id="tspan232" />
</text>
<text transform="scale(4.0128.2492)" font-size="46.954" y="-4127.99" x="704.7" font-family="Arial" text-anchor="middle" id="text234" />
<g font-family="Gentium Book Basic" line-height="125%" word-spacing="0" letter-spacing="0" id="g236">
<text y="473.02" x="204.23" font-size="208.33" id="text238">
<tspan y="473.02" x="204.23" id="tspan240" />
</text>
<text y="233.21" x="833.78" font-size="129.23" id="text242">
<tspan y="233.21" x="833.78" id="tspan244" />
</text>
</g>
<text transform="scale(4.0128.2492)" font-size="46.954" y="586.69" x="404.86" font-family="Arial" text-anchor="middle" id="text246" />
<text font-size="129.23" y="153.21" x="1415.05" font-family="Gentium Book Basic" line-height="125%" word-spacing="0" letter-spacing="0" id="text248">
<tspan y="153.21" x="1415.05" id="tspan250" />
</text>
<text transform="scale(4.0128.2492)" font-size="46.954" y="265.65" x="549.71" font-family="Arial" text-anchor="middle" id="text252" />
<text font-size="129.23" y="-28.05" x="343.47" font-family="Gentium Book Basic" line-height="125%" word-spacing="0" letter-spacing="0" id="text254">
<tspan y="-28.05" x="343.47" id="tspan256" />
</text>
<text transform="scale(4.0128.2492)" font-size="46.954" y="-461.69" x="282.67" font-family="Arial" text-anchor="middle" id="text258" />
<text font-size="129.23" y="-244.52" x="1441.52" font-family="Gentium Book Basic" line-height="125%" word-spacing="0" letter-spacing="0" id="text260">
<tspan y="-244.52" x="1441.52" id="tspan262" />
</text>
<text transform="scale(4.0128.2492)" font-size="46.954" y="-1330.36" x="556.31" font-family="Arial" text-anchor="middle" id="text264" />
<text font-size="129.23" y="-324.52" x="2022.79" font-family="Gentium Book Basic" line-height="125%" word-spacing="0" letter-spacing="0" id="text266">
<tspan y="-324.52" x="2022.79" id="tspan268" />
</text>
<text transform="scale(4.0128.2492)" font-size="46.954" y="-1651.39" x="701.16" font-family="Arial" text-anchor="middle" id="text270" />
<text font-size="129.23" y="-796.92" x="1633.67" font-family="Gentium Book Basic" line-height="125%" word-spacing="0" letter-spacing="0" id="text272">
<tspan y="-796.92" x="1633.67" id="tspan274" />
</text>
<text transform="scale(4.0128.2492)" font-size="46.954" y="-3547.03" x="604.19" font-family="Arial" text-anchor="middle" id="text276" />
<text font-size="129.23" y="-876.93" x="2214.93" font-family="Gentium Book Basic" line-height="125%" word-spacing="0" letter-spacing="0" id="text278">
<tspan y="-876.93" x="2214.93" id="tspan280" />
</text>
<text transform="scale(4.0128.2492)" font-size="46.954" y="-3868.06" x="749.04" font-family="Arial" text-anchor="middle" id="text282" />
<g font-family="Gentium Book Basic" line-height="125%" word-spacing="0" letter-spacing="0" id="g284">
<text y="537.79" x="382.13" font-size="208.33" id="text286">
<tspan y="537.79" x="382.13" id="tspan288" />
</text>
<text y="169.43" x="655.88" font-size="129.23" id="text290">
<tspan y="169.43" x="655.88" id="tspan292" />
</text>
</g>
<text transform="scale(4.0128.2492)" font-size="46.954" y="330.72" x="360.53" font-family="Arial" text-anchor="middle" id="text294" />
<text font-size="129.23" y="89.43" x="1237.15" font-family="Gentium Book Basic" line-height="125%" word-spacing="0" letter-spacing="0" id="text296">
<tspan y="89.43" x="1237.15" id="tspan298" />
</text>
<text transform="scale(4.0128.2492)" font-size="46.954" y="9.685" x="505.38" font-family="Arial" text-anchor="middle" id="text300" />
<text font-size="129.23" y="-91.83" x="165.57" font-family="Gentium Book Basic" line-height="125%" word-spacing="0" letter-spacing="0" id="text302">
<tspan y="-91.83" x="165.57" id="tspan304" />
</text>
<text transform="scale(4.0128.2492)" font-size="46.954" y="-717.66" x="238.34" font-family="Arial" text-anchor="middle" id="text306" />
<text font-size="129.23" y="-308.3" x="1263.62" font-family="Gentium Book Basic" line-height="125%" word-spacing="0" letter-spacing="0" id="text308">
<tspan y="-308.3" x="1263.62" id="tspan310" />
</text>
<text transform="scale(4.0128.2492)" font-size="46.954" y="-1586.33" x="511.98" font-family="Arial" text-anchor="middle" id="text312" />
<text font-size="129.23" y="-388.3" x="1844.89" font-family="Gentium Book Basic" line-height="125%" word-spacing="0" letter-spacing="0" id="text314">
<tspan y="-388.3" x="1844.89" id="tspan316" />
</text>
<text transform="scale(4.0128.2492)" font-size="46.954" y="-1907.36" x="656.82" font-family="Arial" text-anchor="middle" id="text318" />
<text font-size="129.23" y="-860.7" x="1455.77" font-family="Gentium Book Basic" line-height="125%" word-spacing="0" letter-spacing="0" id="text320">
<tspan y="-860.7" x="1455.77" id="tspan322" />
</text>
<text transform="scale(4.0128.2492)" font-size="46.954" y="-3803" x="559.86" font-family="Arial" text-anchor="middle" id="text324" />
<text font-size="129.23" y="-940.71" x="2037.03" font-family="Gentium Book Basic" line-height="125%" word-spacing="0" letter-spacing="0" id="text326">
<tspan y="-940.71" x="2037.03" id="tspan328" />
</text>
<text transform="scale(4.0128.2492)" font-size="46.954" y="-4124.03" x="704.7" font-family="Arial" text-anchor="middle" id="text330" />
<g font-family="Gentium Book Basic" line-height="125%" word-spacing="0" letter-spacing="0" id="g332">
<text y="474.01" x="204.23" font-size="208.33" id="text334">
<tspan y="474.01" x="204.23" id="tspan336" />
</text>
<text y="174.67" x="-632.8" font-size="129.23" id="text338">
<tspan y="174.67" x="-632.8" id="tspan340" />
</text>
</g>
<text transform="scale(4.0128.2492)" font-size="46.954" y="351.75" x="39.39" font-family="Arial" text-anchor="middle" id="text342" />
<text font-size="129.23" y="94.67" x="-51.53" font-family="Gentium Book Basic" line-height="125%" word-spacing="0" letter-spacing="0" id="text344">
<tspan y="94.67" x="-51.53" id="tspan346" />
</text>
<text transform="scale(4.0128.2492)" font-size="46.954" y="30.712" x="184.24" font-family="Arial" text-anchor="middle" id="text348" />
<text font-size="129.23" y="-86.59" x="-1123.11" font-family="Gentium Book Basic" line-height="125%" word-spacing="0" letter-spacing="0" id="text350">
<tspan y="-86.59" x="-1123.11" id="tspan352" />
</text>
<text transform="scale(4.0128.2492)" font-size="46.954" y="-696.63" x="-82.8" font-family="Arial" text-anchor="middle" id="text354" />
<text font-size="129.23" y="-303.06" x="-25.06" font-family="Gentium Book Basic" line-height="125%" word-spacing="0" letter-spacing="0" id="text356">
<tspan y="-303.06" x="-25.06" id="tspan358" />
</text>
<text transform="scale(4.0128.2492)" font-size="46.954" y="-1565.3" x="190.84" font-family="Arial" text-anchor="middle" id="text360" />
<text font-size="129.23" y="-383.06" x="556.21" font-family="Gentium Book Basic" line-height="125%" word-spacing="0" letter-spacing="0" id="text362">
<tspan y="-383.06" x="556.21" id="tspan364" />
</text>
<text transform="scale(4.0128.2492)" font-size="46.954" y="-1886.33" x="335.68" font-family="Arial" text-anchor="middle" id="text366" />
<text font-size="129.23" y="-855.46" x="167.09" font-family="Gentium Book Basic" line-height="125%" word-spacing="0" letter-spacing="0" id="text368">
<tspan y="-855.46" x="167.09" id="tspan370" />
</text>
<text transform="scale(4.0128.2492)" font-size="46.954" y="-3781.97" x="238.72" font-family="Arial" text-anchor="middle" id="text372" />
<text font-size="129.23" y="-935.47" x="748.35" font-family="Gentium Book Basic" line-height="125%" word-spacing="0" letter-spacing="0" id="text374">
<tspan y="-935.47" x="748.35" id="tspan376" />
</text>
<text transform="scale(4.0128.2492)" font-size="46.954" y="-4103.01" x="383.56" font-family="Arial" text-anchor="middle" id="text378" />
<g font-family="Gentium Book Basic" line-height="125%" word-spacing="0" letter-spacing="0" id="g380">
<text y="479.25" x="-1084.45" font-size="208.33" id="text382">
<tspan y="479.25" x="-1084.45" id="tspan384" />
</text>
<text y="158.11" x="718.78" font-size="129.23" id="text386">
<tspan y="158.11" x="718.78" id="tspan388" />
</text>
</g>
<text transform="scale(4.0128.2492)" font-size="46.954" y="285.3" x="376.2" font-family="Arial" text-anchor="middle" id="text390" />
<text font-size="129.23" y="78.11" x="1300.05" font-family="Gentium Book Basic" line-height="125%" word-spacing="0" letter-spacing="0" id="text392">
<tspan y="78.11" x="1300.05" id="tspan394" />
</text>
<text transform="scale(4.0128.2492)" font-size="46.954" y="-35.728" x="521.05" font-family="Arial" text-anchor="middle" id="text396" />
<text font-size="129.23" y="-103.15" x="228.47" font-family="Gentium Book Basic" line-height="125%" word-spacing="0" letter-spacing="0" id="text398">
<tspan y="-103.15" x="228.47" id="tspan400" />
</text>
<text transform="scale(4.0128.2492)" font-size="46.954" y="-763.08" x="254.01" font-family="Arial" text-anchor="middle" id="text402" />
<text font-size="129.23" y="-319.62" x="1326.52" font-family="Gentium Book Basic" line-height="125%" word-spacing="0" letter-spacing="0" id="text404">
<tspan y="-319.62" x="1326.52" id="tspan406" />
</text>
<text transform="scale(4.0128.2492)" font-size="46.954" y="-1631.75" x="527.65" font-family="Arial" text-anchor="middle" id="text408" />
<text font-size="129.23" y="-399.63" x="1907.79" font-family="Gentium Book Basic" line-height="125%" word-spacing="0" letter-spacing="0" id="text410">
<tspan y="-399.63" x="1907.79" id="tspan412" />
</text>
<text transform="scale(4.0128.2492)" font-size="46.954" y="-1952.79" x="672.5" font-family="Arial" text-anchor="middle" id="text414" />
<text font-size="129.23" y="-872.03" x="1518.67" font-family="Gentium Book Basic" line-height="125%" word-spacing="0" letter-spacing="0" id="text416">
<tspan y="-872.03" x="1518.67" id="tspan418" />
</text>
<text transform="scale(4.0128.2492)" font-size="46.954" y="-3848.44" x="575.53" font-family="Arial" text-anchor="middle" id="text420" />
<text font-size="129.23" y="-952.03" x="2099.93" font-family="Gentium Book Basic" line-height="125%" word-spacing="0" letter-spacing="0" id="text422">
<tspan y="-952.03" x="2099.93" id="tspan424" />
</text>
<text transform="scale(4.0128.2492)" font-size="46.954" y="-4169.47" x="720.38" font-family="Arial" text-anchor="middle" id="text426" />
<g font-family="Gentium Book Basic" line-height="125%" word-spacing="0" letter-spacing="0" id="g428">
<text y="462.69" x="267.13" font-size="208.33" id="text430">
<tspan y="462.69" x="267.13" id="tspan432" />
</text>
<text y="66.48" x="857.64" font-size="129.23" id="text434">
<tspan y="66.48" x="857.64" id="tspan436" />
</text>
</g>
<text transform="scale(4.0128.2492)" font-size="46.954" y="-82.38" x="410.81" font-family="Arial" text-anchor="middle" id="text438" />
<text font-size="129.23" y="-13.521" x="1438.91" font-family="Gentium Book Basic" line-height="125%" word-spacing="0" letter-spacing="0" id="text440">
<tspan y="-13.521" x="1438.91" id="tspan442" />
</text>
<text transform="scale(4.0128.2492)" font-size="46.954" y="-403.42" x="555.66" font-family="Arial" text-anchor="middle" id="text444" />
<text font-size="129.23" y="-194.78" x="367.33" font-family="Gentium Book Basic" line-height="125%" word-spacing="0" letter-spacing="0" id="text446">
<tspan y="-194.78" x="367.33" id="tspan448" />
</text>
<text transform="scale(4.0128.2492)" font-size="46.954" y="-1130.77" x="288.62" font-family="Arial" text-anchor="middle" id="text450" />
<text font-size="129.23" y="-411.25" x="1465.38" font-family="Gentium Book Basic" line-height="125%" word-spacing="0" letter-spacing="0" id="text452">
<tspan y="-411.25" x="1465.38" id="tspan454" />
</text>
<text transform="scale(4.0128.2492)" font-size="46.954" y="-1999.43" x="562.26" font-family="Arial" text-anchor="middle" id="text456" />
<text font-size="129.23" y="-491.25" x="2046.65" font-family="Gentium Book Basic" line-height="125%" word-spacing="0" letter-spacing="0" id="text458">
<tspan y="-491.25" x="2046.65" id="tspan460" />
</text>
<text transform="scale(4.0128.2492)" font-size="46.954" y="-2320.46" x="707.1" font-family="Arial" text-anchor="middle" id="text462" />
<text font-size="129.23" y="-963.65" x="1657.53" font-family="Gentium Book Basic" line-height="125%" word-spacing="0" letter-spacing="0" id="text464">
<tspan y="-963.65" x="1657.53" id="tspan466" />
</text>
<text transform="scale(4.0128.2492)" font-size="46.954" y="-4216.1" x="610.13" font-family="Arial" text-anchor="middle" id="text468" />
<text font-size="129.23" y="-1043.66" x="2238.79" font-family="Gentium Book Basic" line-height="125%" word-spacing="0" letter-spacing="0" id="text470">
<tspan y="-1043.66" x="2238.79" id="tspan472" />
</text>
<text transform="scale(4.0128.2492)" font-size="46.954" y="-4537.14" x="754.98" font-family="Arial" text-anchor="middle" id="text474" />
<g font-family="Gentium Book Basic" line-height="125%" word-spacing="0" letter-spacing="0" id="g476">
<text y="371.06" x="405.99" font-size="208.33" id="text478">
<tspan y="371.06" x="405.99" id="tspan480" />
</text>
<text y="108.55" x="777.37" font-size="129.23" id="text482">
<tspan y="108.55" x="777.37" id="tspan484" />
</text>
</g>
<text transform="scale(4.0128.2492)" font-size="46.954" y="86.45" x="390.8" font-family="Arial" text-anchor="middle" id="text486" />
<text font-size="129.23" y="28.553" x="1358.64" font-family="Gentium Book Basic" line-height="125%" word-spacing="0" letter-spacing="0" id="text488">
<tspan y="28.553" x="1358.64" id="tspan490" />
</text>
<text transform="scale(4.0128.2492)" font-size="46.954" y="-234.58" x="535.65" font-family="Arial" text-anchor="middle" id="text492" />
<text font-size="129.23" y="-152.71" x="287.06" font-family="Gentium Book Basic" line-height="125%" word-spacing="0" letter-spacing="0" id="text494">
<tspan y="-152.71" x="287.06" id="tspan496" />
</text>
<text transform="scale(4.0128.2492)" font-size="46.954" y="-961.94" x="268.61" font-family="Arial" text-anchor="middle" id="text498" />
<text font-size="129.23" y="-369.18" x="1385.11" font-family="Gentium Book Basic" line-height="125%" word-spacing="0" letter-spacing="0" id="text500">
<tspan y="-369.18" x="1385.11" id="tspan502" />
</text>
<text transform="scale(4.0128.2492)" font-size="46.954" y="-1830.61" x="542.25" font-family="Arial" text-anchor="middle" id="text504" />
<text font-size="129.23" y="-449.19" x="1966.38" font-family="Gentium Book Basic" line-height="125%" word-spacing="0" letter-spacing="0" id="text506">
<tspan y="-449.19" x="1966.38" id="tspan508" />
</text>
<text transform="scale(4.0128.2492)" font-size="46.954" y="-2151.64" x="687.1" font-family="Arial" text-anchor="middle" id="text510" />
<text font-size="129.23" y="-921.59" x="1577.26" font-family="Gentium Book Basic" line-height="125%" word-spacing="0" letter-spacing="0" id="text512">
<tspan y="-921.59" x="1577.26" id="tspan514" />
</text>
<text transform="scale(4.0128.2492)" font-size="46.954" y="-4047.29" x="590.13" font-family="Arial" text-anchor="middle" id="text516" />
<text font-size="129.23" y="-1001.59" x="2158.52" font-family="Gentium Book Basic" line-height="125%" word-spacing="0" letter-spacing="0" id="text518">
<tspan y="-1001.59" x="2158.52" id="tspan520" />
</text>
<text transform="scale(4.0128.2492)" font-size="46.954" y="-4368.32" x="734.98" font-family="Arial" text-anchor="middle" id="text522" />
<g font-family="Gentium Book Basic" line-height="125%" word-spacing="0" letter-spacing="0" id="g524">
<text y="413.13" x="325.72" font-size="208.33" id="text526">
<tspan y="413.13" x="325.72" id="tspan528" />
</text>
<text y="156.57" x="797.01" font-size="129.23" id="text530">
<tspan y="156.57" x="797.01" id="tspan532" />
</text>
</g>
<text transform="scale(4.0128.2492)" font-size="46.954" y="279.16" x="395.7" font-family="Arial" text-anchor="middle" id="text534" />
<text font-size="129.23" y="76.57" x="1378.28" font-family="Gentium Book Basic" line-height="125%" word-spacing="0" letter-spacing="0" id="text536">
<tspan y="76.57" x="1378.28" id="tspan538" />
</text>
<text transform="scale(4.0128.2492)" font-size="46.954" y="-41.882" x="540.55" font-family="Arial" text-anchor="middle" id="text540" />
<text font-size="129.23" y="-104.69" x="306.7" font-family="Gentium Book Basic" line-height="125%" word-spacing="0" letter-spacing="0" id="text542">
<tspan y="-104.69" x="306.7" id="tspan544" />
</text>
<text transform="scale(4.0128.2492)" font-size="46.954" y="-769.23" x="273.51" font-family="Arial" text-anchor="middle" id="text546" />
<text font-size="129.23" y="-321.16" x="1404.75" font-family="Gentium Book Basic" line-height="125%" word-spacing="0" letter-spacing="0" id="text548">
<tspan y="-321.16" x="1404.75" id="tspan550" />
</text>
<text transform="scale(4.0128.2492)" font-size="46.954" y="-1637.9" x="547.15" font-family="Arial" text-anchor="middle" id="text552" />
<text font-size="129.23" y="-401.16" x="1986.02" font-family="Gentium Book Basic" line-height="125%" word-spacing="0" letter-spacing="0" id="text554">
<tspan y="-401.16" x="1986.02" id="tspan556" />
</text>
<text transform="scale(4.0128.2492)" font-size="46.954" y="-1958.93" x="692" font-family="Arial" text-anchor="middle" id="text558" />
<text font-size="129.23" y="-873.56" x="1596.9" font-family="Gentium Book Basic" line-height="125%" word-spacing="0" letter-spacing="0" id="text560">
<tspan y="-873.56" x="1596.9" id="tspan562" />
</text>
<text transform="scale(4.0128.2492)" font-size="46.954" y="-3854.58" x="595.03" font-family="Arial" text-anchor="middle" id="text564" />
<text font-size="129.23" y="-953.57" x="2178.16" font-family="Gentium Book Basic" line-height="125%" word-spacing="0" letter-spacing="0" id="text566">
<tspan y="-953.57" x="2178.16" id="tspan568" />
</text>
<text transform="scale(4.0128.2492)" font-size="46.954" y="-4175.62" x="739.88" font-family="Arial" text-anchor="middle" id="text570" />
<g font-family="Gentium Book Basic" line-height="125%" word-spacing="0" letter-spacing="0" id="g572">
<text y="461.15" x="345.36" font-size="208.33" id="text574">
<tspan y="461.15" x="345.36" id="tspan576" />
</text>
<text y="132.64" x="746.39" font-size="129.23" id="text578">
<tspan y="132.64" x="746.39" id="tspan580" />
</text>
</g>
<text transform="scale(4.0128.2492)" font-size="46.954" y="183.12" x="383.08" font-family="Arial" text-anchor="middle" id="text582" />
<text font-size="129.23" y="52.643" x="1327.66" font-family="Gentium Book Basic" line-height="125%" word-spacing="0" letter-spacing="0" id="text584">
<tspan y="52.643" x="1327.66" id="tspan586" />
</text>
<text transform="scale(4.0128.2492)" font-size="46.954" y="-137.91" x="527.93" font-family="Arial" text-anchor="middle" id="text588" />
<text font-size="129.23" y="-128.62" x="256.08" font-family="Gentium Book Basic" line-height="125%" word-spacing="0" letter-spacing="0" id="text590">
<tspan y="-128.62" x="256.08" id="tspan592" />
</text>
<text transform="scale(4.0128.2492)" font-size="46.954" y="-865.26" x="260.89" font-family="Arial" text-anchor="middle" id="text594" />
<text font-size="129.23" y="-345.09" x="1354.13" font-family="Gentium Book Basic" line-height="125%" word-spacing="0" letter-spacing="0" id="text596">
<tspan y="-345.09" x="1354.13" id="tspan598" />
</text>
<text transform="scale(4.0128.2492)" font-size="46.954" y="-1733.94" x="534.53" font-family="Arial" text-anchor="middle" id="text600" />
<text font-size="129.23" y="-425.09" x="1935.4" font-family="Gentium Book Basic" line-height="125%" word-spacing="0" letter-spacing="0" id="text602">
<tspan y="-425.09" x="1935.4" id="tspan604" />
</text>
<text transform="scale(4.0128.2492)" font-size="46.954" y="-2054.96" x="679.38" font-family="Arial" text-anchor="middle" id="text606" />
<text font-size="129.23" y="-897.49" x="1546.28" font-family="Gentium Book Basic" line-height="125%" word-spacing="0" letter-spacing="0" id="text608">
<tspan y="-897.49" x="1546.28" id="tspan610" />
</text>
<text transform="scale(4.0128.2492)" font-size="46.954" y="-3950.61" x="582.41" font-family="Arial" text-anchor="middle" id="text612" />
<text font-size="129.23" y="-977.5" x="2127.54" font-family="Gentium Book Basic" line-height="125%" word-spacing="0" letter-spacing="0" id="text614">
<tspan y="-977.5" x="2127.54" id="tspan616" />
</text>
<text transform="scale(4.0128.2492)" font-size="46.954" y="-4271.65" x="727.26" font-family="Arial" text-anchor="middle" id="text618" />
<g font-family="Gentium Book Basic" line-height="125%" word-spacing="0" letter-spacing="0" id="g620">
<text y="437.22" x="294.74" font-size="208.33" id="text622">
<tspan y="437.22" x="294.74" id="tspan624" />
</text>
<text y="-86.991" x="750.46" font-size="129.23" id="text626">
<tspan y="-86.991" x="750.46" id="tspan628" />
</text>
</g>
<text transform="scale(4.0128.2492)" font-size="46.954" y="-698.23" x="384.1" font-family="Arial" text-anchor="middle" id="text630" />
<text font-size="129.23" y="-166.99" x="1331.73" font-family="Gentium Book Basic" line-height="125%" word-spacing="0" letter-spacing="0" id="text632">
<tspan y="-166.99" x="1331.73" id="tspan634" />
</text>
<text transform="scale(4.0128.2492)" font-size="46.954" y="-1019.27" x="528.94" font-family="Arial" text-anchor="middle" id="text636" />
<text font-size="129.23" y="-348.25" x="260.15" font-family="Gentium Book Basic" line-height="125%" word-spacing="0" letter-spacing="0" id="text638">
<tspan y="-348.25" x="260.15" id="tspan640" />
</text>
<text transform="scale(4.0128.2492)" font-size="46.954" y="-1746.61" x="261.91" font-family="Arial" text-anchor="middle" id="text642" />
<text font-size="129.23" y="-564.72" x="1358.2" font-family="Gentium Book Basic" line-height="125%" word-spacing="0" letter-spacing="0" id="text644">
<tspan y="-564.72" x="1358.2" id="tspan646" />
</text>
<text transform="scale(4.0128.2492)" font-size="46.954" y="-2615.29" x="535.54" font-family="Arial" text-anchor="middle" id="text648" />
<text font-size="129.23" y="-644.72" x="1939.47" font-family="Gentium Book Basic" line-height="125%" word-spacing="0" letter-spacing="0" id="text650">
<tspan y="-644.72" x="1939.47" id="tspan652" />
</text>
<text transform="scale(4.0128.2492)" font-size="46.954" y="-2936.32" x="680.39" font-family="Arial" text-anchor="middle" id="text654" />
<text font-size="129.23" y="-1117.12" x="1550.35" font-family="Gentium Book Basic" line-height="125%" word-spacing="0" letter-spacing="0" id="text656">
<tspan y="-1117.12" x="1550.35" id="tspan658" />
</text>
<text transform="scale(4.0128.2492)" font-size="46.954" y="-4831.97" x="583.42" font-family="Arial" text-anchor="middle" id="text660" />
<text font-size="129.23" y="-1197.13" x="2131.61" font-family="Gentium Book Basic" line-height="125%" word-spacing="0" letter-spacing="0" id="text662">
<tspan y="-1197.13" x="2131.61" id="tspan664" />
</text>
<text transform="scale(4.0128.2492)" font-size="46.954" y="-5153.01" x="728.27" font-family="Arial" text-anchor="middle" id="text666" />
<g font-family="Gentium Book Basic" transform="translate(20.816-858.71)" font-size="208.33" line-height="125%" word-spacing="0" letter-spacing="0" id="g668">
<text y="1076.3" x="277.99" id="text670">
<tspan y="1076.3" x="277.99" id="tspan672" />
</text>
<text y="907.01" x="-1666.79" id="text674">
<tspan y="907.01" x="-1666.79" id="tspan676" />
</text>
</g>
<text transform="scale(4.0128.2492)" font-size="75.7" y="-369.07" x="-92.45" font-family="Arial" text-anchor="middle" id="text678" />
<text font-size="129.23" y="183.93" x="692.76" font-family="Gentium Book Basic" line-height="125%" word-spacing="0" letter-spacing="0" id="text680">
<tspan y="183.93" x="692.76" id="tspan682" />
</text>
<text transform="scale(4.0128.2492)" font-size="46.954" y="388.95" x="369.72" font-family="Arial" text-anchor="middle" id="text684" />
<text font-size="129.23" y="103.93" x="1274.03" font-family="Gentium Book Basic" line-height="125%" word-spacing="0" letter-spacing="0" id="text686">
<tspan y="103.93" x="1274.03" id="tspan688" />
</text>
<text transform="scale(4.0128.2492)" font-size="46.954" y="67.907" x="514.57" font-family="Arial" text-anchor="middle" id="text690" />
<text font-size="129.23" y="-77.33" x="202.45" font-family="Gentium Book Basic" line-height="125%" word-spacing="0" letter-spacing="0" id="text692">
<tspan y="-77.33" x="202.45" id="tspan694" />
</text>
<text transform="scale(4.0128.2492)" font-size="46.954" y="-659.44" x="247.53" font-family="Arial" text-anchor="middle" id="text696" />
<text font-size="129.23" y="-293.8" x="1300.5" font-family="Gentium Book Basic" line-height="125%" word-spacing="0" letter-spacing="0" id="text698">
<tspan y="-293.8" x="1300.5" id="tspan700" />
</text>
<text transform="scale(4.0128.2492)" font-size="46.954" y="-1528.1" x="521.17" font-family="Arial" text-anchor="middle" id="text702" />
<text font-size="129.23" y="-373.8" x="1881.77" font-family="Gentium Book Basic" line-height="125%" word-spacing="0" letter-spacing="0" id="text704">
<tspan y="-373.8" x="1881.77" id="tspan706" />
</text>
<text transform="scale(4.0128.2492)" font-size="46.954" y="-1849.13" x="666.02" font-family="Arial" text-anchor="middle" id="text708" />
<text font-size="129.23" y="-846.2" x="1492.65" font-family="Gentium Book Basic" line-height="125%" word-spacing="0" letter-spacing="0" id="text710">
<tspan y="-846.2" x="1492.65" id="tspan712" />
</text>
<text transform="scale(4.0128.2492)" font-size="46.954" y="-3744.77" x="569.05" font-family="Arial" text-anchor="middle" id="text714" />
<text font-size="129.23" y="-926.21" x="2073.91" font-family="Gentium Book Basic" line-height="125%" word-spacing="0" letter-spacing="0" id="text716">
<tspan y="-926.21" x="2073.91" id="tspan718" />
</text>
<text transform="scale(4.0128.2492)" font-size="46.954" y="-4065.81" x="713.9" font-family="Arial" text-anchor="middle" id="text720" />
<g font-family="Gentium Book Basic" line-height="125%" font-size="208.33" word-spacing="0" letter-spacing="0" id="g722">
<text y="488.51" x="241.11" id="text724">
<tspan y="488.51" x="241.11" id="tspan726" />
</text>
<text y="513.83" x="-1162.65" id="text728">
<tspan y="513.83" x="-1162.65" id="tspan730" />
</text>
</g>
<text transform="scale(4.0128.2492)" font-size="75.7" y="1499.04" x="27.993" font-family="Arial" text-anchor="middle" id="text732" />
<text font-size="129.23" y="195.67" x="727.47" font-family="Gentium Book Basic" line-height="125%" word-spacing="0" letter-spacing="0" id="text734">
<tspan y="195.67" x="727.47" id="tspan736" />
</text>
<text transform="scale(4.0128.2492)" font-size="46.954" y="436.05" x="378.37" font-family="Arial" text-anchor="middle" id="text738" />
<text font-size="129.23" y="115.67" x="1308.74" font-family="Gentium Book Basic" line-height="125%" word-spacing="0" letter-spacing="0" id="text740">
<tspan y="115.67" x="1308.74" id="tspan742" />
</text>
<text transform="scale(4.0128.2492)" font-size="46.954" y="115.01" x="523.22" font-family="Arial" text-anchor="middle" id="text744" />
<text font-size="129.23" y="-65.59" x="237.16" font-family="Gentium Book Basic" line-height="125%" word-spacing="0" letter-spacing="0" id="text746">
<tspan y="-65.59" x="237.16" id="tspan748" />
</text>
<text transform="scale(4.0128.2492)" font-size="46.954" y="-612.33" x="256.18" font-family="Arial" text-anchor="middle" id="text750" />
<text font-size="129.23" y="-282.06" x="1335.21" font-family="Gentium Book Basic" line-height="125%" word-spacing="0" letter-spacing="0" id="text752">
<tspan y="-282.06" x="1335.21" id="tspan754" />
</text>
<text transform="scale(4.0128.2492)" font-size="46.954" y="-1481.01" x="529.82" font-family="Arial" text-anchor="middle" id="text756" />
<text font-size="129.23" y="-362.06" x="1916.48" font-family="Gentium Book Basic" line-height="125%" word-spacing="0" letter-spacing="0" id="text758">
<tspan y="-362.06" x="1916.48" id="tspan760" />
</text>
<text transform="scale(4.0128.2492)" font-size="46.954" y="-1802.04" x="674.67" font-family="Arial" text-anchor="middle" id="text762" />
<text font-size="129.23" y="-834.46" x="1527.36" font-family="Gentium Book Basic" line-height="125%" word-spacing="0" letter-spacing="0" id="text764">
<tspan y="-834.46" x="1527.36" id="tspan766" />
</text>
<text transform="scale(4.0128.2492)" font-size="46.954" y="-3697.69" x="577.7" font-family="Arial" text-anchor="middle" id="text768" />
<text font-size="129.23" y="-914.47" x="2108.62" font-family="Gentium Book Basic" line-height="125%" word-spacing="0" letter-spacing="0" id="text770">
<tspan y="-914.47" x="2108.62" id="tspan772" />
</text>
<text transform="scale(4.0128.2492)" font-size="46.954" y="-4018.72" x="722.55" font-family="Arial" text-anchor="middle" id="text774" />
<text font-size="208.33" y="500.25" x="275.82" font-family="Gentium Book Basic" line-height="125%" word-spacing="0" letter-spacing="0" id="text776">
<tspan y="500.25" x="275.82" id="tspan778" />
</text>
<path style="fill:#ffffff;fill-rule:evenodd" inkscape:connector-curvature="0" id="path784" d="m 255.82,101.07 c -43.743,0 -79.31,36.883 -79.31,82.79 0,45.902 35.572,83.24 79.31,83.24 43.743,0 79.31,-37.34 79.31,-83.24 0,-45.902 -35.572,-82.79 -79.31,-82.79 m -73.952,187.27 c -31.956,7.963 -58.45,48.733 -57.24,98.73 l 262.76,0 c 1.144,-50 -25.59,-90.79 -57.62,-98.73 -20.669,16.14 -46.26,25.69 -73.952,25.69 -27.687,0 -53.28,-9.555 -73.952,-25.69" />
</svg>
