<?xml version="1.0" encoding="UTF-8" standalone="no"?>
<svg xmlns:dc="http://purl.org/dc/elements/1.1/" xmlns:cc="http://creativecommons.org/ns#" xmlns:rdf="http://www.w3.org/1999/02/22-rdf-syntax-ns#" xmlns:svg="http://www.w3.org/2000/svg" xmlns="http://www.w3.org/2000/svg" xmlns:sodipodi="http://sodipodi.sourceforge.net/DTD/sodipodi-0.dtd" xmlns:inkscape="http://www.inkscape.org/namespaces/inkscape" viewBox="0 0 512 512" id="svg2" version="1.1" inkscape:version="0.91 r" sodipodi:docname="preferences-web-browser-shortcuts.svg">
<metadata id="metadata858">
<rdf:RDF>
<cc:Work rdf:about="">
<dc:format>image/svg+xml</dc:format>
<dc:type rdf:resource="http://purl.org/dc/dcmitype/StillImage" />
</cc:Work>
</rdf:RDF>
</metadata>
<defs id="defs856" />
<sodipodi:namedview pagecolor="#ffffff" bordercolor="#666666" borderopacity="1" objecttolerance="10" gridtolerance="10" guidetolerance="10" inkscape:pageopacity="0" inkscape:pageshadow="2" inkscape:window-width="640" inkscape:window-height="480" id="namedview854" showgrid="false" inkscape:zoom="0.4609375" inkscape:cx="256" inkscape:cy="256" inkscape:window-x="0" inkscape:window-y="0" inkscape:window-maximized="0" inkscape:current-layer="svg2" />
<g style="font-size:0px;line-height:125%;font-family:'Gentium Book Basic';letter-spacing:0;word-spacing:0" id="g6" font-size="0">
<text id="text8" x="-1672.58" y="383.17001">
<tspan id="tspan10" x="-1672.58" y="383.17001" />
</text>
<text id="text12" x="1476.0699" y="80.120003">
<tspan id="tspan14" x="1476.0699" y="80.120003" />
</text>
</g>
<text style="font-size:129.22999573px;line-height:125%;font-family:'Gentium Book Basic';letter-spacing:0;word-spacing:0" sodipodi:linespacing="125%" id="text16" font-size="129.23" x="729.64001" y="231.36">
<tspan id="tspan18" x="729.64001" y="231.36" />
</text>
<text transform="scale(4.0128.2492)" font-size="46.954" y="579.25" x="378.91" font-family="Arial" text-anchor="middle" id="text20" />
<text font-size="129.23" y="151.36" x="1310.91" font-family="Gentium Book Basic" line-height="125%" word-spacing="0" letter-spacing="0" id="text22">
<tspan y="151.36" x="1310.91" id="tspan24" />
</text>
<text transform="scale(4.0128.2492)" font-size="46.954" y="258.22" x="523.76" font-family="Arial" text-anchor="middle" id="text26" />
<text font-size="129.23" y="-29.901" x="239.33" font-family="Gentium Book Basic" line-height="125%" word-spacing="0" letter-spacing="0" id="text28">
<tspan y="-29.901" x="239.33" id="tspan30" />
</text>
<text transform="scale(4.0128.2492)" font-size="46.954" y="-469.14" x="256.72" font-family="Arial" text-anchor="middle" id="text32" />
<text font-size="129.23" y="-246.37" x="1337.38" font-family="Gentium Book Basic" line-height="125%" word-spacing="0" letter-spacing="0" id="text34">
<tspan y="-246.37" x="1337.38" id="tspan36" />
</text>
<text transform="scale(4.0128.2492)" font-size="46.954" y="-1337.81" x="530.36" font-family="Arial" text-anchor="middle" id="text38" />
<text font-size="129.23" y="-326.38" x="1918.65" font-family="Gentium Book Basic" line-height="125%" word-spacing="0" letter-spacing="0" id="text40">
<tspan y="-326.38" x="1918.65" id="tspan42" />
</text>
<text transform="scale(4.0128.2492)" font-size="46.954" y="-1658.85" x="675.21" font-family="Arial" text-anchor="middle" id="text44" />
<text font-size="129.23" y="-798.78" x="1529.53" font-family="Gentium Book Basic" line-height="125%" word-spacing="0" letter-spacing="0" id="text46">
<tspan y="-798.78" x="1529.53" id="tspan48" />
</text>
<text transform="scale(4.0128.2492)" font-size="46.954" y="-3554.51" x="578.24" font-family="Arial" text-anchor="middle" id="text50" />
<text font-size="129.23" y="-878.78" x="2110.79" font-family="Gentium Book Basic" line-height="125%" word-spacing="0" letter-spacing="0" id="text52">
<tspan y="-878.78" x="2110.79" id="tspan54" />
</text>
<text transform="scale(4.0128.2492)" font-size="46.954" y="-3875.54" x="723.09" font-family="Arial" text-anchor="middle" id="text56" />
<text style="font-size:148.94000244px;line-height:125%;font-family:'Gentium Book Basic';letter-spacing:0;word-spacing:0" sodipodi:linespacing="125%" id="text60" font-size="148.94" x="286.53" y="553.98999">
<tspan id="tspan62" x="286.53" y="553.98999" />
</text>
<text style="font-size:129.22999573px;line-height:125%;font-family:'Gentium Book Basic';letter-spacing:0;word-spacing:0" sodipodi:linespacing="125%" id="text64" font-size="129.23" x="729.64001" y="231.36">
<tspan id="tspan66" x="729.64001" y="231.36" />
</text>
<text transform="scale(4.0128.2492)" font-size="46.954" y="579.25" x="378.91" font-family="Arial" text-anchor="middle" id="text68" />
<text font-size="129.23" y="151.36" x="1310.91" font-family="'Gentium Book Basic'" line-height="125%" word-spacing="0" letter-spacing="0" id="text70">
<tspan y="151.36" x="1310.91" id="tspan72" />
</text>
<text transform="scale(4.0128.2492)" font-size="46.954" y="258.22" x="523.76" font-family="Arial" text-anchor="middle" id="text74" />
<text font-size="129.23" y="-29.901" x="239.33" font-family="'Gentium Book Basic'" line-height="125%" word-spacing="0" letter-spacing="0" id="text76">
<tspan y="-29.901" x="239.33" id="tspan78" />
</text>
<text transform="scale(4.0128.2492)" font-size="46.954" y="-469.14" x="256.72" font-family="Arial" text-anchor="middle" id="text80" />
<text font-size="129.23" y="-246.37" x="1337.38" font-family="'Gentium Book Basic'" line-height="125%" word-spacing="0" letter-spacing="0" id="text82">
<tspan y="-246.37" x="1337.38" id="tspan84" />
</text>
<text transform="scale(4.0128.2492)" font-size="46.954" y="-1337.8" x="530.36" font-family="Arial" text-anchor="middle" id="text86" />
<text font-size="129.23" y="-326.38" x="1918.65" font-family="'Gentium Book Basic'" line-height="125%" word-spacing="0" letter-spacing="0" id="text88">
<tspan y="-326.38" x="1918.65" id="tspan90" />
</text>
<text transform="scale(4.0128.2492)" font-size="46.954" y="-1658.84" x="675.21" font-family="Arial" text-anchor="middle" id="text92" />
<text font-size="129.23" y="-798.78" x="1529.53" font-family="'Gentium Book Basic'" line-height="125%" word-spacing="0" letter-spacing="0" id="text94">
<tspan y="-798.78" x="1529.53" id="tspan96" />
</text>
<text transform="scale(4.0128.2492)" font-size="46.954" y="-3554.49" x="578.24" font-family="Arial" text-anchor="middle" id="text98" />
<text font-size="129.23" y="-878.78" x="2110.79" font-family="'Gentium Book Basic'" line-height="125%" word-spacing="0" letter-spacing="0" id="text100">
<tspan y="-878.78" x="2110.79" id="tspan102" />
</text>
<text transform="scale(4.0128.2492)" font-size="46.954" y="-3875.52" x="723.09" font-family="Arial" text-anchor="middle" id="text104" />
<g style="font-size:0px;line-height:125%;font-family:'Gentium Book Basic';letter-spacing:0;word-spacing:0" id="g108" font-size="0">
<text id="text110" x="277.98999" y="535.94">
<tspan id="tspan112" x="277.98999" y="535.94" />
</text>
<text id="text114" x="-860.84003" y="11.553">
<tspan id="tspan116" x="-860.84003" y="11.553" />
</text>
<text id="text118" x="-3219.6699" y="289.67001">
<tspan id="tspan120" x="-3219.6699" y="289.67001" />
</text>
<text id="text122" x="-2931.46" y="62.380001">
<tspan id="tspan124" x="-2931.46" y="62.380001" />
</text>
<text id="text126" x="1263.14" y="-194.52">
<tspan id="tspan128" x="1263.14" y="-194.52" />
</text>
<text id="text130" x="-864.78998" y="-49.48">
<tspan id="tspan132" x="-864.78998" y="-49.48" />
</text>
<text id="text134" x="-3223.6201" y="228.64">
<tspan id="tspan136" x="-3223.6201" y="228.64" />
</text>
<text id="text138" x="-2935.4099" y="1.35">
<tspan id="tspan140" x="-2935.4099" y="1.35" />
</text>
</g>
<g style="line-height:125%;font-family:'Gentium Book Basic';letter-spacing:0;word-spacing:0;fill:#ffffff" id="g142">
<g style="font-size:179.16000366px" id="g144" font-size="179.16">
<text id="text146" x="409.62" y="86.660004">
<tspan id="tspan148" x="409.62" y="86.660004" />
</text>
<text id="text150" x="-1618.98" y="325.85001">
<tspan id="tspan152" x="-1618.98" y="325.85001" />
</text>
<text id="text154" x="-1371.12" y="130.39">
<tspan id="tspan156" x="-1371.12" y="130.39" />
</text>
<text id="text158" x="2236.24" y="-90.550003">
<tspan id="tspan160" x="2236.24" y="-90.550003" />
</text>
<text id="text162" x="406.22" y="34.18">
<tspan id="tspan164" x="406.22" y="34.18" />
</text>
<text id="text166" x="-1622.37" y="273.35999">
<tspan id="tspan168" x="-1622.37" y="273.35999" />
</text>
<text id="text170" x="-1374.5" y="77.892998">
<tspan id="tspan172" x="-1374.5" y="77.892998" />
</text>
</g>
<g style="font-size:185.33000183px" id="g174" font-size="185.33">
<text id="text176" x="393.51001" y="80.839996">
<tspan id="tspan178" x="393.51001" y="80.839996" />
</text>
<text id="text180" x="-1704.91" y="328.26001">
<tspan id="tspan182" x="-1704.91" y="328.26001" />
</text>
<text id="text184" x="-1448.51" y="126.07">
<tspan id="tspan186" x="-1448.51" y="126.07" />
</text>
<text id="text188" x="2283.01" y="-102.47">
<tspan id="tspan190" x="2283.01" y="-102.47" />
</text>
<text id="text192" x="390" y="26.549">
<tspan id="tspan194" x="390" y="26.549" />
</text>
<text id="text196" x="-1708.42" y="273.95999">
<tspan id="tspan198" x="-1708.42" y="273.95999" />
</text>
<text id="text200" x="-1452.02" y="71.769997">
<tspan id="tspan202" x="-1452.02" y="71.769997" />
</text>
</g>
<g style="font-size:179.16000366px" id="g204" font-size="179.16">
<text style="opacity:0.40800003" id="text206" x="409.62" y="86.660004">
<tspan id="tspan208" x="409.62" y="86.660004" />
</text>
<text style="opacity:0.40800003" id="text210" x="-1618.98" y="325.85001">
<tspan id="tspan212" x="-1618.98" y="325.85001" />
</text>
<text style="opacity:0.40800003" id="text214" x="-1371.12" y="130.39">
<tspan id="tspan216" x="-1371.12" y="130.39" />
</text>
<text style="opacity:0.40800003" id="text218" x="2236.24" y="-90.550003">
<tspan id="tspan220" x="2236.24" y="-90.550003" />
</text>
<text style="opacity:0.40800003" id="text222" x="406.22" y="34.18">
<tspan id="tspan224" x="406.22" y="34.18" />
</text>
<text style="opacity:0.40800003" id="text226" x="-1622.37" y="273.35999">
<tspan id="tspan228" x="-1622.37" y="273.35999" />
</text>
<text style="opacity:0.40800003" id="text230" x="-1374.5" y="77.892998">
<tspan id="tspan232" x="-1374.5" y="77.892998" />
</text>
</g>
<g style="font-size:185.33000183px" id="g234" font-size="185.33">
<text style="opacity:0.40800003" id="text236" x="393.51001" y="80.839996">
<tspan id="tspan238" x="393.51001" y="80.839996" />
</text>
<text style="opacity:0.40800003" id="text240" x="-1704.91" y="328.26001">
<tspan id="tspan242" x="-1704.91" y="328.26001" />
</text>
<text style="opacity:0.40800003" id="text244" x="-1448.51" y="126.07">
<tspan id="tspan246" x="-1448.51" y="126.07" />
</text>
<text style="opacity:0.40800003" id="text248" x="2283.01" y="-102.47">
<tspan id="tspan250" x="2283.01" y="-102.47" />
</text>
<text style="opacity:0.40800003" id="text252" x="390" y="26.549">
<tspan id="tspan254" x="390" y="26.549" />
</text>
<text style="opacity:0.40800003" id="text256" x="-1708.42" y="273.95999">
<tspan id="tspan258" x="-1708.42" y="273.95999" />
</text>
<text style="opacity:0.40800003" id="text260" x="-1452.02" y="71.769997">
<tspan id="tspan262" x="-1452.02" y="71.769997" />
</text>
</g>
</g>
<text style="font-size:129.22999573px;line-height:125%;font-family:'Gentium Book Basic';letter-spacing:0;word-spacing:0" sodipodi:linespacing="125%" id="text264" font-size="129.23" x="1990.11" y="185.8">
<tspan id="tspan266" x="1990.11" y="185.8" />
</text>
<text transform="scale(4.0128.2492)" font-size="46.954" y="396.43" x="693.02" font-family="Arial" text-anchor="middle" id="text268" />
<text font-size="129.23" y="105.8" x="2571.38" font-family="'Gentium Book Basic'" line-height="125%" word-spacing="0" letter-spacing="0" id="text270">
<tspan y="105.8" x="2571.38" id="tspan272" />
</text>
<text transform="scale(4.0128.2492)" font-size="46.954" y="75.4" x="837.87" font-family="Arial" text-anchor="middle" id="text274" />
<text font-size="129.23" y="-75.46" x="1499.8" font-family="'Gentium Book Basic'" line-height="125%" word-spacing="0" letter-spacing="0" id="text276">
<tspan y="-75.46" x="1499.8" id="tspan278" />
</text>
<text transform="scale(4.0128.2492)" font-size="46.954" y="-651.96" x="570.83" font-family="Arial" text-anchor="middle" id="text280" />
<text font-size="129.23" y="-291.93" x="2597.85" font-family="'Gentium Book Basic'" line-height="125%" word-spacing="0" letter-spacing="0" id="text282">
<tspan y="-291.93" x="2597.85" id="tspan284" />
</text>
<text transform="scale(4.0128.2492)" font-size="46.954" y="-1520.62" x="844.47" font-family="Arial" text-anchor="middle" id="text286" />
<text font-size="129.23" y="-371.94" x="3179.12" font-family="'Gentium Book Basic'" line-height="125%" word-spacing="0" letter-spacing="0" id="text288">
<tspan y="-371.94" x="3179.12" id="tspan290" />
</text>
<text transform="scale(4.0128.2492)" font-size="46.954" y="-1841.66" x="989.32" font-family="Arial" text-anchor="middle" id="text292" />
<text font-size="129.23" y="-844.34" x="2790" font-family="'Gentium Book Basic'" line-height="125%" word-spacing="0" letter-spacing="0" id="text294">
<tspan y="-844.34" x="2790" id="tspan296" />
</text>
<text transform="scale(4.0128.2492)" font-size="46.954" y="-3737.31" x="892.35" font-family="Arial" text-anchor="middle" id="text298" />
<text font-size="129.23" y="-924.34" x="3371.26" font-family="'Gentium Book Basic'" line-height="125%" word-spacing="0" letter-spacing="0" id="text300">
<tspan y="-924.34" x="3371.26" id="tspan302" />
</text>
<text transform="scale(4.0128.2492)" font-size="46.954" y="-4058.34" x="1037.2" font-family="Arial" text-anchor="middle" id="text304" />
<text style="font-size:208.33000183px;line-height:125%;font-family:'Gentium Book Basic';letter-spacing:0;word-spacing:0" sodipodi:linespacing="125%" id="text308" font-size="208.33" x="1538.46" y="490.38">
<tspan id="tspan310" x="1538.46" y="490.38" />
</text>
<text style="font-size:129.22999573px;line-height:125%;font-family:'Gentium Book Basic';letter-spacing:0;word-spacing:0" sodipodi:linespacing="125%" id="text312" font-size="129.23" x="2168.01" y="250.57001">
<tspan id="tspan314" x="2168.01" y="250.57001" />
</text>
<text transform="scale(4.0128.2492)" font-size="46.954" y="656.34" x="737.35" font-family="Arial" text-anchor="middle" id="text316" />
<text font-size="129.23" y="170.57" x="2749.28" font-family="'Gentium Book Basic'" line-height="125%" word-spacing="0" letter-spacing="0" id="text318">
<tspan y="170.57" x="2749.28" id="tspan320" />
</text>
<text transform="scale(4.0128.2492)" font-size="46.954" y="335.3" x="882.2" font-family="Arial" text-anchor="middle" id="text322" />
<text font-size="129.23" y="-10.691" x="1677.7" font-family="'Gentium Book Basic'" line-height="125%" word-spacing="0" letter-spacing="0" id="text324">
<tspan y="-10.691" x="1677.7" id="tspan326" />
</text>
<text transform="scale(4.0128.2492)" font-size="46.954" y="-392.05" x="615.16" font-family="Arial" text-anchor="middle" id="text328" />
<text font-size="129.23" y="-227.16" x="2775.75" font-family="'Gentium Book Basic'" line-height="125%" word-spacing="0" letter-spacing="0" id="text330">
<tspan y="-227.16" x="2775.75" id="tspan332" />
</text>
<text transform="scale(4.0128.2492)" font-size="46.954" y="-1260.71" x="888.8" font-family="Arial" text-anchor="middle" id="text334" />
<text font-size="129.23" y="-307.16" x="3357.02" font-family="'Gentium Book Basic'" line-height="125%" word-spacing="0" letter-spacing="0" id="text336">
<tspan y="-307.16" x="3357.02" id="tspan338" />
</text>
<text transform="scale(4.0128.2492)" font-size="46.954" y="-1581.74" x="1033.65" font-family="Arial" text-anchor="middle" id="text340" />
<text font-size="129.23" y="-779.56" x="2967.9" font-family="'Gentium Book Basic'" line-height="125%" word-spacing="0" letter-spacing="0" id="text342">
<tspan y="-779.56" x="2967.9" id="tspan344" />
</text>
<text transform="scale(4.0128.2492)" font-size="46.954" y="-3477.38" x="936.68" font-family="Arial" text-anchor="middle" id="text346" />
<text font-size="129.23" y="-859.57" x="3549.16" font-family="'Gentium Book Basic'" line-height="125%" word-spacing="0" letter-spacing="0" id="text348">
<tspan y="-859.57" x="3549.16" id="tspan350" />
</text>
<text transform="scale(4.0128.2492)" font-size="46.954" y="-3798.42" x="1081.53" font-family="Arial" text-anchor="middle" id="text352" />
<text style="font-size:208.33000183px;line-height:125%;font-family:'Gentium Book Basic';letter-spacing:0;word-spacing:0" sodipodi:linespacing="125%" id="text356" font-size="208.33" x="1716.36" y="555.15002">
<tspan id="tspan358" x="1716.36" y="555.15002" />
</text>
<text style="font-size:129.22999573px;line-height:125%;font-family:'Gentium Book Basic';letter-spacing:0;word-spacing:0" sodipodi:linespacing="125%" id="text360" font-size="129.23" x="1990.11" y="186.78">
<tspan id="tspan362" x="1990.11" y="186.78" />
</text>
<text transform="scale(4.0128.2492)" font-size="46.954" y="400.37" x="693.02" font-family="Arial" text-anchor="middle" id="text364" />
<text font-size="129.23" y="106.78" x="2571.38" font-family="'Gentium Book Basic'" line-height="125%" word-spacing="0" letter-spacing="0" id="text366">
<tspan y="106.78" x="2571.38" id="tspan368" />
</text>
<text transform="scale(4.0128.2492)" font-size="46.954" y="79.33" x="837.87" font-family="Arial" text-anchor="middle" id="text370" />
<text font-size="129.23" y="-74.48" x="1499.8" font-family="'Gentium Book Basic'" line-height="125%" word-spacing="0" letter-spacing="0" id="text372">
<tspan y="-74.48" x="1499.8" id="tspan374" />
</text>
<text transform="scale(4.0128.2492)" font-size="46.954" y="-648.02" x="570.83" font-family="Arial" text-anchor="middle" id="text376" />
<text font-size="129.23" y="-290.95" x="2597.85" font-family="'Gentium Book Basic'" line-height="125%" word-spacing="0" letter-spacing="0" id="text378">
<tspan y="-290.95" x="2597.85" id="tspan380" />
</text>
<text transform="scale(4.0128.2492)" font-size="46.954" y="-1516.68" x="844.47" font-family="Arial" text-anchor="middle" id="text382" />
<text font-size="129.23" y="-370.95" x="3179.12" font-family="'Gentium Book Basic'" line-height="125%" word-spacing="0" letter-spacing="0" id="text384">
<tspan y="-370.95" x="3179.12" id="tspan386" />
</text>
<text transform="scale(4.0128.2492)" font-size="46.954" y="-1837.71" x="989.32" font-family="Arial" text-anchor="middle" id="text388" />
<text font-size="129.23" y="-843.35" x="2790" font-family="'Gentium Book Basic'" line-height="125%" word-spacing="0" letter-spacing="0" id="text390">
<tspan y="-843.35" x="2790" id="tspan392" />
</text>
<text transform="scale(4.0128.2492)" font-size="46.954" y="-3733.35" x="892.35" font-family="Arial" text-anchor="middle" id="text394" />
<text font-size="129.23" y="-923.36" x="3371.26" font-family="'Gentium Book Basic'" line-height="125%" word-spacing="0" letter-spacing="0" id="text396">
<tspan y="-923.36" x="3371.26" id="tspan398" />
</text>
<text transform="scale(4.0128.2492)" font-size="46.954" y="-4054.39" x="1037.2" font-family="Arial" text-anchor="middle" id="text400" />
<text style="font-size:208.33000183px;line-height:125%;font-family:'Gentium Book Basic';letter-spacing:0;word-spacing:0" sodipodi:linespacing="125%" id="text404" font-size="208.33" x="1538.46" y="491.35999">
<tspan id="tspan406" x="1538.46" y="491.35999" />
</text>
<text style="font-size:129.22999573px;line-height:125%;font-family:'Gentium Book Basic';letter-spacing:0;word-spacing:0" sodipodi:linespacing="125%" id="text408" font-size="129.23" x="701.44" y="192.02">
<tspan id="tspan410" x="701.44" y="192.02" />
</text>
<text transform="scale(4.0128.2492)" font-size="46.954" y="421.4" x="371.88" font-family="Arial" text-anchor="middle" id="text412" />
<text font-size="129.23" y="112.02" x="1282.71" font-family="'Gentium Book Basic'" line-height="125%" word-spacing="0" letter-spacing="0" id="text414">
<tspan y="112.02" x="1282.71" id="tspan416" />
</text>
<text transform="scale(4.0128.2492)" font-size="46.954" y="100.36" x="516.73" font-family="Arial" text-anchor="middle" id="text418" />
<text font-size="129.23" y="-69.24" x="211.13" font-family="'Gentium Book Basic'" line-height="125%" word-spacing="0" letter-spacing="0" id="text420">
<tspan y="-69.24" x="211.13" id="tspan422" />
</text>
<text transform="scale(4.0128.2492)" font-size="46.954" y="-626.99" x="249.69" font-family="Arial" text-anchor="middle" id="text424" />
<text font-size="129.23" y="-285.71" x="1309.18" font-family="'Gentium Book Basic'" line-height="125%" word-spacing="0" letter-spacing="0" id="text426">
<tspan y="-285.71" x="1309.18" id="tspan428" />
</text>
<text transform="scale(4.0128.2492)" font-size="46.954" y="-1495.65" x="523.33" font-family="Arial" text-anchor="middle" id="text430" />
<text font-size="129.23" y="-365.71" x="1890.45" font-family="'Gentium Book Basic'" line-height="125%" word-spacing="0" letter-spacing="0" id="text432">
<tspan y="-365.71" x="1890.45" id="tspan434" />
</text>
<text transform="scale(4.0128.2492)" font-size="46.954" y="-1816.68" x="668.18" font-family="Arial" text-anchor="middle" id="text436" />
<text font-size="129.23" y="-838.11" x="1501.33" font-family="'Gentium Book Basic'" line-height="125%" word-spacing="0" letter-spacing="0" id="text438">
<tspan y="-838.11" x="1501.33" id="tspan440" />
</text>
<text transform="scale(4.0128.2492)" font-size="46.954" y="-3712.32" x="571.21" font-family="Arial" text-anchor="middle" id="text442" />
<text font-size="129.23" y="-918.12" x="2082.59" font-family="'Gentium Book Basic'" line-height="125%" word-spacing="0" letter-spacing="0" id="text444">
<tspan y="-918.12" x="2082.59" id="tspan446" />
</text>
<text transform="scale(4.0128.2492)" font-size="46.954" y="-4033.36" x="716.06" font-family="Arial" text-anchor="middle" id="text448" />
<text style="font-size:208.33000183px;line-height:125%;font-family:'Gentium Book Basic';letter-spacing:0;word-spacing:0" sodipodi:linespacing="125%" id="text452" font-size="208.33" x="249.78999" y="496.60001">
<tspan id="tspan454" x="249.78999" y="496.60001" />
</text>
<text style="font-size:129.22999573px;line-height:125%;font-family:'Gentium Book Basic';letter-spacing:0;word-spacing:0" sodipodi:linespacing="125%" id="text456" font-size="129.23" x="2053.01" y="175.46001">
<tspan id="tspan458" x="2053.01" y="175.46001" />
</text>
<text transform="scale(4.0128.2492)" font-size="46.954" y="354.95" x="708.69" font-family="Arial" text-anchor="middle" id="text460" />
<text font-size="129.23" y="95.46" x="2634.28" font-family="'Gentium Book Basic'" line-height="125%" word-spacing="0" letter-spacing="0" id="text462">
<tspan y="95.46" x="2634.28" id="tspan464" />
</text>
<text transform="scale(4.0128.2492)" font-size="46.954" y="33.919" x="853.54" font-family="Arial" text-anchor="middle" id="text466" />
<text font-size="129.23" y="-85.8" x="1562.7" font-family="'Gentium Book Basic'" line-height="125%" word-spacing="0" letter-spacing="0" id="text468">
<tspan y="-85.8" x="1562.7" id="tspan470" />
</text>
<text transform="scale(4.0128.2492)" font-size="46.954" y="-693.44" x="586.5" font-family="Arial" text-anchor="middle" id="text472" />
<text font-size="129.23" y="-302.27" x="2660.75" font-family="'Gentium Book Basic'" line-height="125%" word-spacing="0" letter-spacing="0" id="text474">
<tspan y="-302.27" x="2660.75" id="tspan476" />
</text>
<text transform="scale(4.0128.2492)" font-size="46.954" y="-1562.1" x="860.14" font-family="Arial" text-anchor="middle" id="text478" />
<text font-size="129.23" y="-382.28" x="3242.02" font-family="'Gentium Book Basic'" line-height="125%" word-spacing="0" letter-spacing="0" id="text480">
<tspan y="-382.28" x="3242.02" id="tspan482" />
</text>
<text transform="scale(4.0128.2492)" font-size="46.954" y="-1883.14" x="1004.99" font-family="Arial" text-anchor="middle" id="text484" />
<text font-size="129.23" y="-854.68" x="2852.9" font-family="'Gentium Book Basic'" line-height="125%" word-spacing="0" letter-spacing="0" id="text486">
<tspan y="-854.68" x="2852.9" id="tspan488" />
</text>
<text transform="scale(4.0128.2492)" font-size="46.954" y="-3778.79" x="908.02" font-family="Arial" text-anchor="middle" id="text490" />
<text font-size="129.23" y="-934.68" x="3434.16" font-family="'Gentium Book Basic'" line-height="125%" word-spacing="0" letter-spacing="0" id="text492">
<tspan y="-934.68" x="3434.16" id="tspan494" />
</text>
<text transform="scale(4.0128.2492)" font-size="46.954" y="-4099.82" x="1052.87" font-family="Arial" text-anchor="middle" id="text496" />
<text style="font-size:208.33000183px;line-height:125%;font-family:'Gentium Book Basic';letter-spacing:0;word-spacing:0" sodipodi:linespacing="125%" id="text500" font-size="208.33" x="1601.36" y="480.04001">
<tspan id="tspan502" x="1601.36" y="480.04001" />
</text>
<text style="font-size:129.22999573px;line-height:125%;font-family:'Gentium Book Basic';letter-spacing:0;word-spacing:0" sodipodi:linespacing="125%" id="text504" font-size="129.23" x="2191.8799" y="83.830002">
<tspan id="tspan506" x="2191.8799" y="83.830002" />
</text>
<text transform="scale(4.0128.2492)" font-size="46.954" y="-12.736" x="743.3" font-family="Arial" text-anchor="middle" id="text508" />
<text font-size="129.23" y="3.835" x="2773.15" font-family="'Gentium Book Basic'" line-height="125%" word-spacing="0" letter-spacing="0" id="text510">
<tspan y="3.835" x="2773.15" id="tspan512" />
</text>
<text transform="scale(4.0128.2492)" font-size="46.954" y="-333.77" x="888.15" font-family="Arial" text-anchor="middle" id="text514" />
<text font-size="129.23" y="-177.43" x="1701.57" font-family="'Gentium Book Basic'" line-height="125%" word-spacing="0" letter-spacing="0" id="text516">
<tspan y="-177.43" x="1701.57" id="tspan518" />
</text>
<text transform="scale(4.0128.2492)" font-size="46.954" y="-1061.12" x="621.11" font-family="Arial" text-anchor="middle" id="text520" />
<text font-size="129.23" y="-393.9" x="2799.62" font-family="'Gentium Book Basic'" line-height="125%" word-spacing="0" letter-spacing="0" id="text522">
<tspan y="-393.9" x="2799.62" id="tspan524" />
</text>
<text transform="scale(4.0128.2492)" font-size="46.954" y="-1929.79" x="894.75" font-family="Arial" text-anchor="middle" id="text526" />
<text font-size="129.23" y="-473.9" x="3380.89" font-family="'Gentium Book Basic'" line-height="125%" word-spacing="0" letter-spacing="0" id="text528">
<tspan y="-473.9" x="3380.89" id="tspan530" />
</text>
<text transform="scale(4.0128.2492)" font-size="46.954" y="-2250.81" x="1039.6" font-family="Arial" text-anchor="middle" id="text532" />
<text font-size="129.23" y="-946.3" x="2991.77" font-family="'Gentium Book Basic'" line-height="125%" word-spacing="0" letter-spacing="0" id="text534">
<tspan y="-946.3" x="2991.77" id="tspan536" />
</text>
<text transform="scale(4.0128.2492)" font-size="46.954" y="-4146.46" x="942.63" font-family="Arial" text-anchor="middle" id="text538" />
<text font-size="129.23" y="-1026.31" x="3573.03" font-family="'Gentium Book Basic'" line-height="125%" word-spacing="0" letter-spacing="0" id="text540">
<tspan y="-1026.31" x="3573.03" id="tspan542" />
</text>
<text transform="scale(4.0128.2492)" font-size="46.954" y="-4467.49" x="1087.48" font-family="Arial" text-anchor="middle" id="text544" />
<text style="font-size:208.33000183px;line-height:125%;font-family:'Gentium Book Basic';letter-spacing:0;word-spacing:0" sodipodi:linespacing="125%" id="text548" font-size="208.33" x="1740.23" y="388.41">
<tspan id="tspan550" x="1740.23" y="388.41" />
</text>
<text style="font-size:129.22999573px;line-height:125%;font-family:'Gentium Book Basic';letter-spacing:0;word-spacing:0" sodipodi:linespacing="125%" id="text552" font-size="129.23" x="2111.6101" y="125.91">
<tspan id="tspan554" x="2111.6101" y="125.91" />
</text>
<text transform="scale(4.0128.2492)" font-size="46.954" y="156.09" x="723.3" font-family="Arial" text-anchor="middle" id="text556" />
<text font-size="129.23" y="45.909" x="2692.88" font-family="'Gentium Book Basic'" line-height="125%" word-spacing="0" letter-spacing="0" id="text558">
<tspan y="45.909" x="2692.88" id="tspan560" />
</text>
<text transform="scale(4.0128.2492)" font-size="46.954" y="-164.94" x="868.15" font-family="Arial" text-anchor="middle" id="text562" />
<text font-size="129.23" y="-135.35" x="1621.3" font-family="'Gentium Book Basic'" line-height="125%" word-spacing="0" letter-spacing="0" id="text564">
<tspan y="-135.35" x="1621.3" id="tspan566" />
</text>
<text transform="scale(4.0128.2492)" font-size="46.954" y="-892.29" x="601.11" font-family="Arial" text-anchor="middle" id="text568" />
<text font-size="129.23" y="-351.82" x="2719.35" font-family="'Gentium Book Basic'" line-height="125%" word-spacing="0" letter-spacing="0" id="text570">
<tspan y="-351.82" x="2719.35" id="tspan572" />
</text>
<text transform="scale(4.0128.2492)" font-size="46.954" y="-1760.96" x="874.74" font-family="Arial" text-anchor="middle" id="text574" />
<text font-size="129.23" y="-431.83" x="3300.62" font-family="'Gentium Book Basic'" line-height="125%" word-spacing="0" letter-spacing="0" id="text576">
<tspan y="-431.83" x="3300.62" id="tspan578" />
</text>
<text transform="scale(4.0128.2492)" font-size="46.954" y="-2082" x="1019.59" font-family="Arial" text-anchor="middle" id="text580" />
<text font-size="129.23" y="-904.23" x="2911.5" font-family="'Gentium Book Basic'" line-height="125%" word-spacing="0" letter-spacing="0" id="text582">
<tspan y="-904.23" x="2911.5" id="tspan584" />
</text>
<text transform="scale(4.0128.2492)" font-size="46.954" y="-3977.65" x="922.62" font-family="Arial" text-anchor="middle" id="text586" />
<text font-size="129.23" y="-984.23" x="3492.76" font-family="'Gentium Book Basic'" line-height="125%" word-spacing="0" letter-spacing="0" id="text588">
<tspan y="-984.23" x="3492.76" id="tspan590" />
</text>
<text transform="scale(4.0128.2492)" font-size="46.954" y="-4298.68" x="1067.47" font-family="Arial" text-anchor="middle" id="text592" />
<text style="font-size:208.33000183px;line-height:125%;font-family:'Gentium Book Basic';letter-spacing:0;word-spacing:0" sodipodi:linespacing="125%" id="text596" font-size="208.33" x="1659.96" y="430.48999">
<tspan id="tspan598" x="1659.96" y="430.48999" />
</text>
<text style="font-size:129.22999573px;line-height:125%;font-family:'Gentium Book Basic';letter-spacing:0;word-spacing:0" sodipodi:linespacing="125%" id="text600" font-size="129.23" x="2131.25" y="173.92999">
<tspan id="tspan602" x="2131.25" y="173.92999" />
</text>
<text transform="scale(4.0128.2492)" font-size="46.954" y="348.8" x="728.19" font-family="Arial" text-anchor="middle" id="text604" />
<text font-size="129.23" y="93.93" x="2712.52" font-family="'Gentium Book Basic'" line-height="125%" word-spacing="0" letter-spacing="0" id="text606">
<tspan y="93.93" x="2712.52" id="tspan608" />
</text>
<text transform="scale(4.0128.2492)" font-size="46.954" y="27.764" x="873.04" font-family="Arial" text-anchor="middle" id="text610" />
<text font-size="129.23" y="-87.33" x="1640.94" font-family="'Gentium Book Basic'" line-height="125%" word-spacing="0" letter-spacing="0" id="text612">
<tspan y="-87.33" x="1640.94" id="tspan614" />
</text>
<text transform="scale(4.0128.2492)" font-size="46.954" y="-699.58" x="606" font-family="Arial" text-anchor="middle" id="text616" />
<text font-size="129.23" y="-303.8" x="2738.99" font-family="'Gentium Book Basic'" line-height="125%" word-spacing="0" letter-spacing="0" id="text618">
<tspan y="-303.8" x="2738.99" id="tspan620" />
</text>
<text transform="scale(4.0128.2492)" font-size="46.954" y="-1568.26" x="879.64" font-family="Arial" text-anchor="middle" id="text622" />
<text font-size="129.23" y="-383.8" x="3320.26" font-family="'Gentium Book Basic'" line-height="125%" word-spacing="0" letter-spacing="0" id="text624">
<tspan y="-383.8" x="3320.26" id="tspan626" />
</text>
<text transform="scale(4.0128.2492)" font-size="46.954" y="-1889.29" x="1024.49" font-family="Arial" text-anchor="middle" id="text628" />
<text font-size="129.23" y="-856.2" x="2931.14" font-family="'Gentium Book Basic'" line-height="125%" word-spacing="0" letter-spacing="0" id="text630">
<tspan y="-856.2" x="2931.14" id="tspan632" />
</text>
<text transform="scale(4.0128.2492)" font-size="46.954" y="-3784.94" x="927.52" font-family="Arial" text-anchor="middle" id="text634" />
<text font-size="129.23" y="-936.21" x="3512.4" font-family="'Gentium Book Basic'" line-height="125%" word-spacing="0" letter-spacing="0" id="text636">
<tspan y="-936.21" x="3512.4" id="tspan638" />
</text>
<text transform="scale(4.0128.2492)" font-size="46.954" y="-4105.98" x="1072.37" font-family="Arial" text-anchor="middle" id="text640" />
<text style="font-size:208.33000183px;line-height:125%;font-family:'Gentium Book Basic';letter-spacing:0;word-spacing:0" sodipodi:linespacing="125%" id="text644" font-size="208.33" x="1679.6" y="478.51001">
<tspan id="tspan646" x="1679.6" y="478.51001" />
</text>
<text style="font-size:129.22999573px;line-height:125%;font-family:'Gentium Book Basic';letter-spacing:0;word-spacing:0" sodipodi:linespacing="125%" id="text648" font-size="129.23" x="2080.6299" y="150">
<tspan id="tspan650" x="2080.6299" y="150" />
</text>
<text transform="scale(4.0128.2492)" font-size="46.954" y="252.77" x="715.58" font-family="Arial" text-anchor="middle" id="text652" />
<text font-size="129.23" y="69.999" x="2661.9" font-family="'Gentium Book Basic'" line-height="125%" word-spacing="0" letter-spacing="0" id="text654">
<tspan y="69.999" x="2661.9" id="tspan656" />
</text>
<text transform="scale(4.0128.2492)" font-size="46.954" y="-68.27" x="860.42" font-family="Arial" text-anchor="middle" id="text658" />
<text font-size="129.23" y="-111.26" x="1590.32" font-family="'Gentium Book Basic'" line-height="125%" word-spacing="0" letter-spacing="0" id="text660">
<tspan y="-111.26" x="1590.32" id="tspan662" />
</text>
<text transform="scale(4.0128.2492)" font-size="46.954" y="-795.61" x="593.39" font-family="Arial" text-anchor="middle" id="text664" />
<text font-size="129.23" y="-327.73" x="2688.37" font-family="'Gentium Book Basic'" line-height="125%" word-spacing="0" letter-spacing="0" id="text666">
<tspan y="-327.73" x="2688.37" id="tspan668" />
</text>
<text transform="scale(4.0128.2492)" font-size="46.954" y="-1664.29" x="867.02" font-family="Arial" text-anchor="middle" id="text670" />
<text font-size="129.23" y="-407.73" x="3269.64" font-family="'Gentium Book Basic'" line-height="125%" word-spacing="0" letter-spacing="0" id="text672">
<tspan y="-407.73" x="3269.64" id="tspan674" />
</text>
<text transform="scale(4.0128.2492)" font-size="46.954" y="-1985.32" x="1011.87" font-family="Arial" text-anchor="middle" id="text676" />
<text font-size="129.23" y="-880.13" x="2880.52" font-family="'Gentium Book Basic'" line-height="125%" word-spacing="0" letter-spacing="0" id="text678">
<tspan y="-880.13" x="2880.52" id="tspan680" />
</text>
<text transform="scale(4.0128.2492)" font-size="46.954" y="-3880.97" x="914.9" font-family="Arial" text-anchor="middle" id="text682" />
<text font-size="129.23" y="-960.14" x="3461.78" font-family="'Gentium Book Basic'" line-height="125%" word-spacing="0" letter-spacing="0" id="text684">
<tspan y="-960.14" x="3461.78" id="tspan686" />
</text>
<text transform="scale(4.0128.2492)" font-size="46.954" y="-4202.01" x="1059.75" font-family="Arial" text-anchor="middle" id="text688" />
<text font-size="208.33" y="454.58" x="1628.98" font-family="'Gentium Book Basic'" line-height="125%" word-spacing="0" letter-spacing="0" id="text690">
<tspan y="454.58" x="1628.98" id="tspan692" />
</text>
<path style="fill:#0078ad;fill-rule:evenodd" inkscape:connector-curvature="0" id="path696" d="m 471.95,253.05 c 0,120.9 -98.01,218.9 -218.9,218.9 -120.9,0 -218.9,-98.01 -218.9,-218.9 0,-120.9 98.01,-218.9 218.9,-218.9 120.9,0 218.9,98.01 218.9,218.9" />
<text font-size="129.23" y="231.36" x="729.64" font-family="'Gentium Book Basic'" line-height="125%" word-spacing="0" letter-spacing="0" id="text708">
<tspan y="231.36" x="729.64" id="tspan710" />
</text>
<text transform="scale(4.0128.2492)" font-size="46.954" y="579.25" x="378.91" font-family="Arial" text-anchor="middle" id="text712" />
<text font-size="129.23" y="151.36" x="1310.91" font-family="'Gentium Book Basic'" line-height="125%" word-spacing="0" letter-spacing="0" id="text714">
<tspan y="151.36" x="1310.91" id="tspan716" />
</text>
<text transform="scale(4.0128.2492)" font-size="46.954" y="258.22" x="523.76" font-family="Arial" text-anchor="middle" id="text718" />
<text font-size="129.23" y="-29.901" x="239.33" font-family="'Gentium Book Basic'" line-height="125%" word-spacing="0" letter-spacing="0" id="text720">
<tspan y="-29.901" x="239.33" id="tspan722" />
</text>
<text transform="scale(4.0128.2492)" font-size="46.954" y="-469.14" x="256.72" font-family="Arial" text-anchor="middle" id="text724" />
<text font-size="129.23" y="-246.37" x="1337.38" font-family="'Gentium Book Basic'" line-height="125%" word-spacing="0" letter-spacing="0" id="text726">
<tspan y="-246.37" x="1337.38" id="tspan728" />
</text>
<text transform="scale(4.0128.2492)" font-size="46.954" y="-1337.8" x="530.36" font-family="Arial" text-anchor="middle" id="text730" />
<text font-size="129.23" y="-326.38" x="1918.65" font-family="'Gentium Book Basic'" line-height="125%" word-spacing="0" letter-spacing="0" id="text732">
<tspan y="-326.38" x="1918.65" id="tspan734" />
</text>
<text transform="scale(4.0128.2492)" font-size="46.954" y="-1658.84" x="675.21" font-family="Arial" text-anchor="middle" id="text736" />
<text font-size="129.23" y="-798.78" x="1529.53" font-family="'Gentium Book Basic'" line-height="125%" word-spacing="0" letter-spacing="0" id="text738">
<tspan y="-798.78" x="1529.53" id="tspan740" />
</text>
<text transform="scale(4.0128.2492)" font-size="46.954" y="-3554.49" x="578.24" font-family="Arial" text-anchor="middle" id="text742" />
<text font-size="129.23" y="-878.78" x="2110.79" font-family="'Gentium Book Basic'" line-height="125%" word-spacing="0" letter-spacing="0" id="text744">
<tspan y="-878.78" x="2110.79" id="tspan746" />
</text>
<text transform="scale(4.0128.2492)" font-size="46.954" y="-3875.52" x="723.09" font-family="Arial" text-anchor="middle" id="text748" />
<text style="font-size:208.33000183px;line-height:125%;font-family:'Gentium Book Basic';letter-spacing:0;word-spacing:0" sodipodi:linespacing="125%" id="text752" font-size="208.33" x="277.98999" y="535.94">
<tspan id="tspan754" x="277.98999" y="535.94" />
</text>
<text style="font-size:129.22999573px;line-height:125%;font-family:'Gentium Book Basic';letter-spacing:0;word-spacing:0" sodipodi:linespacing="125%" id="text756" font-size="129.23" x="-1745.96" y="270.87">
<tspan id="tspan758" x="-1745.96" y="270.87" />
</text>
<text transform="scale(4.0128.2492)" font-size="46.954" y="737.79" x="-238.01" font-family="Arial" text-anchor="middle" id="text760" />
<text font-size="129.23" y="190.87" x="-1164.69" font-family="'Gentium Book Basic'" line-height="125%" word-spacing="0" letter-spacing="0" id="text762">
<tspan y="190.87" x="-1164.69" id="tspan764" />
</text>
<text transform="scale(4.0128.2492)" font-size="46.954" y="416.76" x="-93.17" font-family="Arial" text-anchor="middle" id="text766" />
<text font-size="129.23" y="9.608" x="-2236.27" font-family="'Gentium Book Basic'" line-height="125%" word-spacing="0" letter-spacing="0" id="text768">
<tspan y="9.608" x="-2236.27" id="tspan770" />
</text>
<text transform="scale(4.0128.2492)" font-size="46.954" y="-310.6" x="-360.2" font-family="Arial" text-anchor="middle" id="text772" />
<text font-size="129.23" y="-206.86" x="-1138.22" font-family="'Gentium Book Basic'" line-height="125%" word-spacing="0" letter-spacing="0" id="text774">
<tspan y="-206.86" x="-1138.22" id="tspan776" />
</text>
<text transform="scale(4.0128.2492)" font-size="46.954" y="-1179.26" x="-86.57" font-family="Arial" text-anchor="middle" id="text778" />
<text font-size="129.23" y="-286.87" x="-556.95" font-family="'Gentium Book Basic'" line-height="125%" word-spacing="0" letter-spacing="0" id="text780">
<tspan y="-286.87" x="-556.95" id="tspan782" />
</text>
<text transform="scale(4.0128.2492)" font-size="46.954" y="-1500.3" x="58.28" font-family="Arial" text-anchor="middle" id="text784" />
<text font-size="129.23" y="-759.27" x="-946.07" font-family="'Gentium Book Basic'" line-height="125%" word-spacing="0" letter-spacing="0" id="text786">
<tspan y="-759.27" x="-946.07" id="tspan788" />
</text>
<text transform="scale(4.0128.2492)" font-size="46.954" y="-3395.95" x="-38.686" font-family="Arial" text-anchor="middle" id="text790" />
<text font-size="129.23" y="-839.27" x="-364.81" font-family="'Gentium Book Basic'" line-height="125%" word-spacing="0" letter-spacing="0" id="text792">
<tspan y="-839.27" x="-364.81" id="tspan794" />
</text>
<text transform="scale(4.0128.2492)" font-size="46.954" y="-3716.98" x="106.16" font-family="Arial" text-anchor="middle" id="text796" />
<text style="font-size:208.33000183px;line-height:125%;font-family:'Gentium Book Basic';letter-spacing:0;word-spacing:0" sodipodi:linespacing="125%" id="text800" font-size="208.33" x="-2197.6101" y="575.45001">
<tspan id="tspan802" x="-2197.6101" y="575.45001" />
</text>
<text style="font-size:129.22999573px;line-height:125%;font-family:'Gentium Book Basic';letter-spacing:0;word-spacing:0" sodipodi:linespacing="125%" id="text804" font-size="129.23" x="-1144.61" y="525.09998">
<tspan id="tspan806" x="-1144.61" y="525.09998" />
</text>
<text transform="scale(4.0128.2492)" font-size="46.954" y="1757.96" x="-88.16" font-family="Arial" text-anchor="middle" id="text808" />
<text font-size="129.23" y="445.1" x="-563.34" font-family="'Gentium Book Basic'" line-height="125%" word-spacing="0" letter-spacing="0" id="text810">
<tspan y="445.1" x="-563.34" id="tspan812" />
</text>
<text transform="scale(4.0128.2492)" font-size="46.954" y="1436.93" x="56.693" font-family="Arial" text-anchor="middle" id="text814" />
<text font-size="129.23" y="263.84" x="-1634.92" font-family="'Gentium Book Basic'" line-height="125%" word-spacing="0" letter-spacing="0" id="text816">
<tspan y="263.84" x="-1634.92" id="tspan818" />
</text>
<text transform="scale(4.0128.2492)" font-size="46.954" y="709.58" x="-210.35" font-family="Arial" text-anchor="middle" id="text820" />
<text font-size="129.23" y="47.37" x="-536.87" font-family="'Gentium Book Basic'" line-height="125%" word-spacing="0" letter-spacing="0" id="text822">
<tspan y="47.37" x="-536.87" id="tspan824" />
</text>
<text transform="scale(4.0128.2492)" font-size="46.954" y="-159.09" x="63.29" font-family="Arial" text-anchor="middle" id="text826" />
<text font-size="129.23" y="-32.643" x="44.4" font-family="'Gentium Book Basic'" line-height="125%" word-spacing="0" letter-spacing="0" id="text828">
<tspan y="-32.643" x="44.4" id="tspan830" />
</text>
<text transform="scale(4.0128.2492)" font-size="46.954" y="-480.13" x="208.14" font-family="Arial" text-anchor="middle" id="text832" />
<text font-size="129.23" y="-505.04" x="-344.72" font-family="'Gentium Book Basic'" line-height="125%" word-spacing="0" letter-spacing="0" id="text834">
<tspan y="-505.04" x="-344.72" id="tspan836" />
</text>
<text transform="scale(4.0128.2492)" font-size="46.954" y="-2375.78" x="111.17" font-family="Arial" text-anchor="middle" id="text838" />
<text font-size="129.23" y="-585.04" x="236.54" font-family="'Gentium Book Basic'" line-height="125%" word-spacing="0" letter-spacing="0" id="text840">
<tspan y="-585.04" x="236.54" id="tspan842" />
</text>
<text transform="scale(4.0128.2492)" font-size="46.954" y="-2696.8" x="256.02" font-family="Arial" text-anchor="middle" id="text844" />
<text font-size="208.33" y="829.68" x="-1596.26" font-family="'Gentium Book Basic'" line-height="125%" word-spacing="0" letter-spacing="0" id="text846">
<tspan y="829.68" x="-1596.26" id="tspan848" />
</text>
<path d="m257.72 80.938c-1.23-0.005-2.488 0.006-3.719 0.031-54.42 0.357-107.23 31.393-133.56 79.03-15.09 26.22-22.13 56.976-20.344 87.16h311.84c2.593-46.587-15.482-94.51-50.53-125.37-27.887-25.757-65.57-40.681-103.69-40.844m-11.406 19.969v68.13h-58.938c3.666-19.492 8.684-38.702 15.188-57.47 13.842-5.927 28.811-9.641 43.75-10.656zm19.531 0.063l0.938 0.063 0.5 0.031c14.578 1.08 28.754 4.544 42.22 10.219 6.583 18.85 11.591 38.16 15.313 57.75h-58.969v-68.06m-88.09 24.09c-4.219 14.361-7.721 29.17-10.375 44-4.892-0.136-9.804 0.011-14.719 0.031s-9.844-0.101-14.688-0.719c9.953-17.08 24.2-31.93 39.781-43.31m156.91 0.063c16.11 11.552 29.914 26.695 40 43.906h-29.875c-2.605-14.798-6.449-29.398-10.125-43.906m-206.19 63.47h35.906c-1.822 12.9-2.766 26.01-3.406 39.06h-41.12c0.982-13.328 3.879-26.59 8.625-39.06m55.656 0h62.19v39.06h-65.66c0.524-13.06 1.678-26.21 3.469-39.06m81.72 0h62.19c1.719 12.908 2.935 25.996 3.438 39.06h-65.62v-39.06m81.906 0h36.03c4.642 12.556 7.538 25.705 8.5 39.06h-41.12c-0.641-13.05-1.584-26.16-3.406-39.06m-151.47 85.5l0.938 0.75 32.06 31.875c-57.684 43.04-39.34 81.13 10 133.03-13.437-53.31-3.521-77.62 30.344-92.47 48.886 48.23 40.766 39.582 48.906 48.13v-121.31h-122.25z" fill="#fff" id="path852" />
</svg>
