<?xml version="1.0" encoding="UTF-8" standalone="no"?>
<svg xmlns:dc="http://purl.org/dc/elements/1.1/" xmlns:cc="http://creativecommons.org/ns#" xmlns:rdf="http://www.w3.org/1999/02/22-rdf-syntax-ns#" xmlns:svg="http://www.w3.org/2000/svg" xmlns="http://www.w3.org/2000/svg" xmlns:sodipodi="http://sodipodi.sourceforge.net/DTD/sodipodi-0.dtd" xmlns:inkscape="http://www.inkscape.org/namespaces/inkscape" viewBox="0 0 512 512" id="svg45" version="1.1" inkscape:version="0.91 r" sodipodi:docname="preferences-desktop-icons.svg">
<metadata id="metadata75">
<rdf:RDF>
<cc:Work rdf:about="">
<dc:format>image/svg+xml</dc:format>
<dc:type rdf:resource="http://purl.org/dc/dcmitype/StillImage" />
</cc:Work>
</rdf:RDF>
</metadata>
<defs id="defs73" />
<sodipodi:namedview pagecolor="#ffffff" bordercolor="#666666" borderopacity="1" objecttolerance="10" gridtolerance="10" guidetolerance="10" inkscape:pageopacity="0" inkscape:pageshadow="2" inkscape:window-width="640" inkscape:window-height="480" id="namedview71" showgrid="false" inkscape:zoom="0.4609375" inkscape:cx="256" inkscape:cy="256" inkscape:window-x="0" inkscape:window-y="0" inkscape:window-maximized="0" inkscape:current-layer="svg45" />
<path d="m471.95 253.05c0 120.9-98.01 218.9-218.9 218.9-120.9 0-218.9-98.01-218.9-218.9 0-120.9 98.01-218.9 218.9-218.9 120.9 0 218.9 98.01 218.9 218.9" fill="#79c943" id="path47" />
<path style="white-space:normal;isolation:auto;mix-blend-mode:normal;solid-color:#000000;fill:#009587;color-rendering:auto;image-rendering:auto;shape-rendering:auto" inkscape:connector-curvature="0" id="path51" white-space="normal" mix-blend-mode="normal" isolation="auto" d="m 255.5,34.18 0,221.32 216.42,0 c 0.01,-0.82 0.03,-1.63 0.03,-2.45 C 471.95,132.98 375.27,35.5 255.5,34.18 M 471.92,255.5 c -0.02,1.86 -0.07,3.72 -0.13,5.58 0.06,-1.86 0.11,-3.72 0.13,-5.58 m -0.13,5.62 c -0.07,1.86 -0.16,3.7 -0.27,5.54 0.11,-1.84 0.2,-3.68 0.27,-5.54 m -0.27,5.54 c -0.12,1.85 -0.25,3.69 -0.41,5.52 0.16,-1.83 0.29,-3.67 0.41,-5.52 m -0.41,5.52 c -0.32,3.67 -0.73,7.32 -1.23,10.93 0.5,-3.61 0.91,-7.26 1.23,-10.93 m -1.23,10.93 c -0.74,5.43 -1.68,10.79 -2.82,16.08 1.14,-5.29 2.08,-10.65 2.82,-16.08 m -2.82,16.08 c -0.38,1.76 -0.77,3.51 -1.19,5.26 0.42,-1.75 0.81,-3.5 1.19,-5.26 m -1.2,5.27 c -0.42,1.74 -0.86,3.47 -1.32,5.2 0.46,-1.73 0.9,-3.46 1.32,-5.2 m -1.33,5.23 c -0.46,1.72 -0.94,3.44 -1.44,5.15 0.5,-1.71 0.98,-3.43 1.44,-5.15 m -1.44,5.15 c -0.49,1.68 -1.01,3.35 -1.54,5.01 0.53,-1.66 1.05,-3.33 1.54,-5.01 m -1.61,5.24 c -0.52,1.62 -1.06,3.24 -1.62,4.84 0.56,-1.61 1.1,-3.22 1.62,-4.84 m -1.69,5.04 c -0.57,1.62 -1.15,3.23 -1.75,4.83 0.6,-1.6 1.18,-3.21 1.75,-4.83 m -1.8,4.97 c -0.61,1.61 -1.23,3.21 -1.87,4.81 0.64,-1.6 1.26,-3.2 1.87,-4.81 m -1.93,4.96 c -0.63,1.55 -1.28,3.09 -1.94,4.63 0.66,-1.54 1.31,-3.08 1.94,-4.63 m -2.1,5.01 c -0.66,1.51 -1.33,3.02 -2.02,4.52 0.69,-1.5 1.36,-3.01 2.02,-4.52 m -2.13,4.74 c -0.68,1.47 -1.37,2.93 -2.08,4.38 0.71,-1.45 1.4,-2.91 2.08,-4.38 m -2.37,4.97 c -0.69,1.4 -1.4,2.79 -2.11,4.17 0.71,-1.38 1.42,-2.77 2.11,-4.17 m -2.36,4.63 c -0.72,1.38 -1.45,2.75 -2.21,4.11 0.76,-1.36 1.49,-2.73 2.21,-4.11 m -2.53,4.71 c -0.74,1.32 -1.48,2.64 -2.25,3.94 0.77,-1.3 1.51,-2.62 2.25,-3.94 m -2.65,4.62 c -0.72,1.23 -1.45,2.46 -2.2,3.68 0.75,-1.22 1.48,-2.45 2.2,-3.68 m -2.8,4.65 c -0.73,1.17 -1.47,2.34 -2.22,3.49 0.75,-1.15 1.49,-2.32 2.22,-3.49 m -2.81,4.4 c -0.74,1.13 -1.49,2.25 -2.24,3.36 0.75,-1.11 1.5,-2.23 2.24,-3.36 m -3,4.46 c -0.73,1.05 -1.46,2.1 -2.21,3.15 0.75,-1.05 1.48,-2.1 2.21,-3.15 m -3.08,4.35 c -0.7,0.97 -1.41,1.93 -2.13,2.89 0.72,-0.96 1.43,-1.92 2.13,-2.89 m -3.2,4.3 c -0.71,0.92 -1.42,1.84 -2.15,2.75 0.73,-0.91 1.44,-1.83 2.15,-2.75 m -3.2,4.07 c -0.72,0.91 -1.45,1.8 -2.19,2.69 0.74,-0.89 1.47,-1.78 2.19,-2.69 m -3.43,4.17 c -0.67,0.8 -1.36,1.6 -2.04,2.39 0.68,-0.79 1.37,-1.59 2.04,-2.39 m -3.45,3.99 c -0.69,0.78 -1.38,1.55 -2.08,2.32 0.7,-0.77 1.39,-1.54 2.08,-2.32 m -3.56,3.92 c -0.65,0.7 -1.3,1.4 -1.96,2.08 0.66,-0.68 1.31,-1.38 1.96,-2.08 m -3.74,3.93 c -0.6,0.62 -1.21,1.24 -1.83,1.85 0.62,-0.61 1.23,-1.23 1.83,-1.85 m -3.69,3.69 c -0.61,0.6 -1.23,1.2 -1.85,1.79 0.62,-0.59 1.24,-1.19 1.85,-1.79 m -3.82,3.64 c -0.6,0.56 -1.21,1.12 -1.82,1.68 0.61,-0.56 1.22,-1.12 1.82,-1.68 m -3.93,3.57 c -0.57,0.51 -1.14,1.01 -1.71,1.51 0.57,-0.5 1.14,-1 1.71,-1.51 m -4.04,3.5 c -0.52,0.44 -1.04,0.88 -1.57,1.31 0.53,-0.43 1.05,-0.87 1.57,-1.31 m -4.19,3.45 c -0.44,0.35 -0.89,0.71 -1.34,1.07 0.45,-0.36 0.9,-0.72 1.34,-1.07 m -4.14,3.24 c -0.44,0.34 -0.88,0.67 -1.31,1 0.43,-0.33 0.87,-0.66 1.31,-1 m -4.22,3.15 -1.29,0.93 1.29,-0.93 m -4.37,3.09 c -0.37,0.26 -0.74,0.52 -1.12,0.77 0.38,-0.25 0.75,-0.51 1.12,-0.77 m -4.39,2.96 c -0.36,0.23 -0.71,0.47 -1.07,0.7 0.36,-0.23 0.71,-0.47 1.07,-0.7 m -4.43,2.83 c -0.35,0.22 -0.7,0.43 -1.06,0.65 0.36,-0.21 0.71,-0.43 1.06,-0.65 m -4.57,2.76 c -0.3,0.18 -0.61,0.36 -0.91,0.53 0.3,-0.17 0.61,-0.35 0.91,-0.53 m -4.75,2.71 c -0.2,0.11 -0.4,0.23 -0.6,0.34 0.2,-0.11 0.4,-0.23 0.6,-0.34 m -4.72,2.55 c -0.15,0.08 -0.3,0.16 -0.46,0.24 0.16,-0.08 0.31,-0.16 0.46,-0.24 m -4.63,2.35 c -0.19,0.1 -0.39,0.19 -0.58,0.29 0.19,-0.1 0.39,-0.19 0.58,-0.29 m -4.88,2.33 c -0.12,0.06 -0.25,0.12 -0.37,0.18 0.12,-0.06 0.25,-0.12 0.37,-0.18 m -4.82,2.16 c -0.13,0.06 -0.26,0.12 -0.39,0.17 0.13,-0.05 0.26,-0.11 0.39,-0.17 m -4.91,2.06 c -0.11,0.05 -0.23,0.1 -0.34,0.14 0.11,-0.04 0.22,-0.09 0.34,-0.14 m -4.95,1.94 c -0.11,0.04 -0.23,0.08 -0.34,0.13 0.11,-0.05 0.23,-0.09 0.34,-0.13" />
<path style="white-space:normal;isolation:auto;mix-blend-mode:normal;solid-color:#000000;fill:#ff4081;color-rendering:auto;image-rendering:auto;shape-rendering:auto" inkscape:connector-curvature="0" id="path53" white-space="normal" mix-blend-mode="normal" isolation="auto" d="m 255.5,255.5 0,216.42 c 1.87,-0.02 3.72,-0.07 5.58,-0.13 l 0.04,0 c 1.85,-0.07 3.7,-0.16 5.54,-0.27 1.85,-0.12 3.69,-0.25 5.52,-0.41 3.67,-0.32 7.32,-0.73 10.93,-1.23 5.43,-0.74 10.79,-1.68 16.08,-2.82 1.76,-0.38 3.51,-0.77 5.25,-1.19 l 0.01,-0.01 0.01,0 c 1.74,-0.42 3.47,-0.86 5.19,-1.32 l 0.02,0 0.01,-0.01 c 1.71,-0.45 3.42,-0.93 5.11,-1.43 0.01,0 0.03,0 0.04,-0.01 0.02,0 0.04,-0.01 0.05,-0.01 1.69,-0.5 3.38,-1.02 5.05,-1.55 0.01,-0.01 0.01,-0.01 0.02,-0.01 l 0.02,0 c 1.68,-0.54 3.35,-1.1 5.02,-1.68 0,-0.01 0.01,-0.01 0.02,-0.01 0,0 0.01,-0.01 0.02,-0.01 1.62,-0.56 3.23,-1.14 4.83,-1.74 0.11,-0.05 0.23,-0.09 0.34,-0.13 1.54,-0.58 3.08,-1.18 4.61,-1.8 0.11,-0.04 0.23,-0.09 0.34,-0.14 1.51,-0.61 3.02,-1.24 4.52,-1.89 0.13,-0.05 0.26,-0.11 0.39,-0.17 1.49,-0.64 2.97,-1.3 4.45,-1.98 0.12,-0.06 0.25,-0.12 0.37,-0.18 1.44,-0.66 2.88,-1.34 4.3,-2.04 0.19,-0.1 0.39,-0.19 0.58,-0.29 1.4,-0.69 2.79,-1.39 4.17,-2.11 0.16,-0.08 0.31,-0.16 0.46,-0.24 1.38,-0.73 2.76,-1.46 4.12,-2.21 0.2,-0.11 0.4,-0.23 0.6,-0.34 1.29,-0.71 2.57,-1.44 3.84,-2.18 0.3,-0.17 0.61,-0.35 0.91,-0.53 1.18,-0.69 2.35,-1.39 3.51,-2.11 0.36,-0.22 0.71,-0.43 1.06,-0.65 1.13,-0.7 2.25,-1.41 3.36,-2.13 0.36,-0.23 0.71,-0.47 1.07,-0.7 1.09,-0.72 2.19,-1.45 3.27,-2.19 0.38,-0.25 0.75,-0.51 1.12,-0.77 1.04,-0.71 2.06,-1.43 3.08,-2.16 l 1.29,-0.93 c 0.97,-0.71 1.94,-1.43 2.91,-2.15 0.43,-0.33 0.87,-0.66 1.31,-1 0.94,-0.72 1.87,-1.44 2.8,-2.17 0.45,-0.36 0.9,-0.72 1.34,-1.07 0.88,-0.71 1.76,-1.42 2.62,-2.14 0.53,-0.43 1.05,-0.87 1.57,-1.31 0.78,-0.66 1.56,-1.32 2.33,-1.99 0.57,-0.5 1.14,-1 1.71,-1.51 0.71,-0.63 1.41,-1.26 2.11,-1.89 0.61,-0.56 1.22,-1.12 1.82,-1.68 0.66,-0.61 1.32,-1.23 1.97,-1.85 0.62,-0.59 1.24,-1.19 1.85,-1.79 0.63,-0.61 1.25,-1.22 1.86,-1.84 0.62,-0.61 1.23,-1.23 1.83,-1.85 0.6,-0.61 1.19,-1.23 1.78,-1.85 0.66,-0.68 1.31,-1.38 1.96,-2.08 0.49,-0.53 0.99,-1.06 1.48,-1.6 0.7,-0.77 1.39,-1.54 2.08,-2.32 0.47,-0.53 0.94,-1.06 1.41,-1.6 0.68,-0.79 1.37,-1.59 2.04,-2.39 0.42,-0.49 0.83,-0.98 1.24,-1.48 0.74,-0.89 1.47,-1.78 2.19,-2.69 0.35,-0.43 0.71,-0.87 1.05,-1.32 0.73,-0.91 1.44,-1.83 2.15,-2.75 0.36,-0.47 0.71,-0.94 1.07,-1.41 0.72,-0.96 1.43,-1.92 2.13,-2.89 0.29,-0.4 0.58,-0.8 0.87,-1.2 0.75,-1.05 1.48,-2.1 2.21,-3.15 0.25,-0.37 0.51,-0.73 0.76,-1.1 0.75,-1.11 1.5,-2.23 2.24,-3.36 0.2,-0.3 0.4,-0.6 0.59,-0.91 0.75,-1.15 1.49,-2.32 2.22,-3.49 0.2,-0.32 0.4,-0.65 0.6,-0.97 0.75,-1.22 1.48,-2.45 2.2,-3.68 0.14,-0.22 0.27,-0.45 0.4,-0.68 0.77,-1.3 1.51,-2.62 2.25,-3.94 0.11,-0.2 0.22,-0.4 0.32,-0.6 0.76,-1.36 1.49,-2.73 2.21,-4.11 0.08,-0.16 0.17,-0.31 0.25,-0.46 0.71,-1.38 1.42,-2.77 2.11,-4.17 0.09,-0.2 0.19,-0.39 0.29,-0.59 0.71,-1.45 1.4,-2.91 2.08,-4.38 0.04,-0.07 0.07,-0.15 0.11,-0.22 0.69,-1.5 1.36,-3.01 2.02,-4.52 0.05,-0.13 0.11,-0.25 0.16,-0.38 0.66,-1.54 1.31,-3.08 1.94,-4.63 l 0.03,-0.09 0.03,-0.06 c 0.64,-1.6 1.26,-3.2 1.87,-4.81 0.01,-0.02 0.02,-0.05 0.03,-0.08 0.01,-0.02 0.01,-0.04 0.02,-0.06 0.6,-1.6 1.18,-3.21 1.75,-4.83 0.02,-0.06 0.05,-0.13 0.07,-0.2 0.56,-1.6 1.1,-3.22 1.62,-4.84 0.02,-0.08 0.05,-0.15 0.07,-0.23 0.53,-1.66 1.05,-3.33 1.54,-5.01 0.5,-1.71 0.98,-3.43 1.44,-5.15 0,-0.01 0.01,-0.01 0.01,-0.02 l 0,-0.01 c 0.46,-1.73 0.9,-3.46 1.32,-5.2 l 0,-0.01 0.01,0 c 0.42,-1.75 0.81,-3.5 1.19,-5.26 1.14,-5.29 2.08,-10.65 2.82,-16.08 0.5,-3.61 0.91,-7.26 1.23,-10.93 0.16,-1.83 0.29,-3.67 0.41,-5.52 0.11,-1.84 0.2,-3.68 0.27,-5.54 l 0,-0.04 c 0.06,-1.86 0.11,-3.72 0.13,-5.58 l -216.42,0" />
<path style="white-space:normal;isolation:auto;mix-blend-mode:normal;solid-color:#000000;fill:#ef6a47;color-rendering:auto;image-rendering:auto;shape-rendering:auto" inkscape:connector-curvature="0" id="path55" white-space="normal" mix-blend-mode="normal" isolation="auto" d="m 34.18,255.5 c 1.315,119.76 98.79,216.45 218.87,216.45 0.82,0 1.63,-0.02 2.45,-0.03 l 0,-216.42 -221.32,0 M 255.5,471.92 c 1.87,-0.02 3.72,-0.07 5.58,-0.13 -1.86,0.06 -3.71,0.11 -5.58,0.13 M 461.55,319.85 c -0.02,0.08 -0.05,0.15 -0.07,0.23 0.02,-0.08 0.05,-0.15 0.07,-0.23 m -1.69,5.07 c -0.02,0.07 -0.05,0.14 -0.07,0.2 0.02,-0.06 0.05,-0.13 0.07,-0.2 m -5.74,14.76 c -0.05,0.13 -0.11,0.25 -0.16,0.38 0.05,-0.13 0.11,-0.25 0.16,-0.38 m -2.18,4.9 c -0.04,0.07 -0.07,0.15 -0.11,0.22 0.04,-0.07 0.07,-0.15 0.11,-0.22 m -2.19,4.6 c -0.1,0.2 -0.2,0.39 -0.29,0.59 0.09,-0.2 0.19,-0.39 0.29,-0.59 m -2.4,4.76 c -0.08,0.15 -0.17,0.3 -0.25,0.46 0.08,-0.16 0.17,-0.31 0.25,-0.46 m -2.46,4.57 c -0.1,0.2 -0.21,0.4 -0.32,0.6 0.11,-0.2 0.22,-0.4 0.32,-0.6 m -2.57,4.54 c -0.13,0.23 -0.26,0.46 -0.4,0.68 0.14,-0.22 0.27,-0.45 0.4,-0.68 m -2.6,4.36 c -0.2,0.32 -0.4,0.65 -0.6,0.97 0.2,-0.32 0.4,-0.65 0.6,-0.97 m -2.82,4.46 c -0.19,0.31 -0.39,0.61 -0.59,0.91 0.2,-0.3 0.4,-0.6 0.59,-0.91 m -2.83,4.27 c -0.25,0.37 -0.51,0.73 -0.76,1.1 0.25,-0.37 0.51,-0.73 0.76,-1.1 m -2.97,4.25 c -0.29,0.4 -0.58,0.8 -0.87,1.2 0.29,-0.4 0.58,-0.8 0.87,-1.2 m -3,4.09 c -0.36,0.47 -0.71,0.94 -1.07,1.41 0.36,-0.47 0.71,-0.94 1.07,-1.41 m -3.22,4.16 c -0.34,0.45 -0.7,0.89 -1.05,1.32 0.35,-0.43 0.71,-0.87 1.05,-1.32 m -3.24,4.01 c -0.41,0.5 -0.82,0.99 -1.24,1.48 0.42,-0.49 0.83,-0.98 1.24,-1.48 m -3.28,3.87 c -0.47,0.54 -0.94,1.07 -1.41,1.6 0.47,-0.53 0.94,-1.06 1.41,-1.6 m -3.49,3.92 c -0.49,0.54 -0.99,1.07 -1.48,1.6 0.49,-0.53 0.99,-1.06 1.48,-1.6 m -3.44,3.68 c -0.59,0.62 -1.18,1.24 -1.78,1.85 0.6,-0.61 1.19,-1.23 1.78,-1.85 m -3.61,3.7 c -0.61,0.62 -1.23,1.23 -1.86,1.84 0.63,-0.61 1.25,-1.22 1.86,-1.84 m -3.71,3.63 c -0.65,0.62 -1.31,1.24 -1.97,1.85 0.66,-0.61 1.32,-1.23 1.97,-1.85 m -3.79,3.53 c -0.7,0.63 -1.4,1.26 -2.11,1.89 0.71,-0.63 1.41,-1.26 2.11,-1.89 m -3.82,3.4 c -0.77,0.67 -1.55,1.33 -2.33,1.99 0.78,-0.66 1.56,-1.32 2.33,-1.99 m -3.9,3.3 c -0.86,0.72 -1.74,1.43 -2.62,2.14 0.88,-0.71 1.76,-1.42 2.62,-2.14 m -3.96,3.21 c -0.93,0.73 -1.86,1.45 -2.8,2.17 0.94,-0.72 1.87,-1.44 2.8,-2.17 m -4.11,3.17 c -0.97,0.72 -1.94,1.44 -2.91,2.15 0.97,-0.71 1.94,-1.42 2.91,-2.15 m -4.2,3.08 c -1.02,0.73 -2.04,1.45 -3.08,2.16 1.03,-0.71 2.06,-1.43 3.08,-2.16 m -4.2,2.93 c -1.08,0.74 -2.18,1.47 -3.27,2.19 1.09,-0.72 2.19,-1.45 3.27,-2.19 m -4.34,2.89 c -1.11,0.72 -2.23,1.43 -3.36,2.13 1.13,-0.7 2.25,-1.41 3.36,-2.13 m -4.42,2.78 c -1.16,0.72 -2.33,1.42 -3.51,2.11 1.18,-0.69 2.35,-1.39 3.51,-2.11 m -4.42,2.64 c -1.27,0.74 -2.55,1.47 -3.84,2.18 1.29,-0.71 2.57,-1.44 3.84,-2.18 m -4.44,2.52 c -1.36,0.75 -2.74,1.48 -4.12,2.21 1.39,-0.73 2.76,-1.46 4.12,-2.21 m -4.58,2.45 c -1.38,0.72 -2.77,1.42 -4.17,2.11 1.4,-0.69 2.79,-1.39 4.17,-2.11 m -4.75,2.4 c -1.42,0.7 -2.86,1.38 -4.3,2.04 1.44,-0.66 2.88,-1.34 4.3,-2.04 m -4.67,2.22 c -1.48,0.68 -2.96,1.34 -4.45,1.98 1.49,-0.64 2.97,-1.3 4.45,-1.98 m -4.84,2.15 c -1.5,0.65 -3.01,1.28 -4.52,1.89 1.51,-0.61 3.02,-1.24 4.52,-1.89 m -4.86,2.03 c -1.53,0.62 -3.07,1.22 -4.61,1.8 1.55,-0.59 3.08,-1.18 4.61,-1.8 m -4.95,1.93 c -1.6,0.6 -3.21,1.18 -4.83,1.74 1.62,-0.56 3.23,-1.14 4.83,-1.74 m -4.87,1.76 c -1.67,0.58 -3.34,1.14 -5.02,1.68 1.68,-0.54 3.35,-1.1 5.02,-1.68 m -5.06,1.69 c -1.67,0.53 -3.36,1.05 -5.05,1.55 1.69,-0.5 3.38,-1.02 5.05,-1.55 m -5.14,1.57 c -1.69,0.5 -3.4,0.98 -5.11,1.43 1.71,-0.45 3.42,-0.93 5.11,-1.43 m -5.14,1.44 c -1.72,0.46 -3.45,0.9 -5.19,1.32 1.74,-0.42 3.47,-0.86 5.19,-1.32 m -5.21,1.33 c -1.74,0.42 -3.49,0.81 -5.25,1.19 1.76,-0.38 3.51,-0.77 5.25,-1.19 m -5.25,1.19 c -5.29,1.14 -10.65,2.08 -16.08,2.82 5.43,-0.74 10.79,-1.68 16.08,-2.82 m -16.08,2.82 c -3.61,0.5 -7.26,0.91 -10.93,1.23 3.67,-0.32 7.32,-0.73 10.93,-1.23 m -10.93,1.23 c -1.83,0.16 -3.67,0.29 -5.52,0.41 1.85,-0.12 3.69,-0.25 5.52,-0.41 m -5.52,0.41 c -1.84,0.11 -3.69,0.2 -5.54,0.27 1.85,-0.07 3.7,-0.16 5.54,-0.27" />
<path d="m332.61 124.42l-18.781 36.719-40.75 6.281 29.09 29.19-6.594 40.688 36.75-18.656 36.656 18.844-6.375-40.719 29.25-29-40.688-6.531-18.563-36.812m-158.91 3c-29.575 0-53.56 23.956-53.56 53.53 0 29.575 23.987 53.56 53.56 53.56 29.575 0 53.56-23.987 53.56-53.56 0-29.575-23.987-53.53-53.56-53.53m109.88 153.06c-2.587 0-4.656 2.069-4.656 4.656v97.78c0 2.587 2.069 4.656 4.656 4.656h97.78c2.587 0 4.656-2.069 4.656-4.656v-97.78c0-2.587-2.069-4.656-4.656-4.656h-97.78m-109.87 6.906l-27.25 46.09-26.312 46.656 53.56 0.531 53.56-0.531-26.33-46.66-27.25-46.09" fill="#fff" id="path69" />
</svg>
