<?xml version="1.0" encoding="UTF-8" standalone="no"?>
<svg xmlns:dc="http://purl.org/dc/elements/1.1/" xmlns:cc="http://creativecommons.org/ns#" xmlns:rdf="http://www.w3.org/1999/02/22-rdf-syntax-ns#" xmlns:svg="http://www.w3.org/2000/svg" xmlns="http://www.w3.org/2000/svg" xmlns:sodipodi="http://sodipodi.sourceforge.net/DTD/sodipodi-0.dtd" xmlns:inkscape="http://www.inkscape.org/namespaces/inkscape" height="512" viewBox="0 0 512 512" width="512" version="1.1" id="svg2" inkscape:version="0.91 r" sodipodi:docname="gnome-cups-manager.svg">
<defs id="defs21" />
<sodipodi:namedview pagecolor="#ffffff" bordercolor="#666666" borderopacity="1" objecttolerance="10" gridtolerance="10" guidetolerance="10" inkscape:pageopacity="0" inkscape:pageshadow="2" inkscape:window-width="640" inkscape:window-height="480" id="namedview19" showgrid="false" inkscape:zoom="0.4609375" inkscape:cx="256" inkscape:cy="256" inkscape:window-x="0" inkscape:window-y="0" inkscape:window-maximized="0" inkscape:current-layer="svg2" />
<metadata id="metadata82">
<rdf:RDF>
<cc:Work rdf:about="">
<dc:format>image/svg+xml</dc:format>
<dc:type rdf:resource="http://purl.org/dc/dcmitype/StillImage" />
</cc:Work>
</rdf:RDF>
</metadata>
<path id="path4" d="m471.95 253.05c0 120.9-98.01 218.9-218.9 218.9-120.9 0-218.9-98.01-218.9-218.9 0-120.9 98.01-218.9 218.9-218.9 120.9 0 218.9 98.01 218.9 218.9" fill-rule="evenodd" fill="#e75177" />
<path style="fill:#ffffff" inkscape:connector-curvature="0" d="m 186.30112,134.02528 139.40224,0 0,34.85056 17.42528,0 0,-34.85056 c 0,-9.6144 -7.79237,-17.42528 -17.42528,-17.42528 l -139.40224,0 c -9.61658,0 -17.42528,7.81088 -17.42528,17.42528 l 0,34.85056 17.42528,0 0,-34.85056" id="path68" />
<path style="fill:#ffffff" inkscape:connector-curvature="0" d="m 377.9792,186.30112 -243.95392,0 c -9.6144,0 -17.42528,7.8087 -17.42528,17.42528 l 0,87.1264 c 0,9.63182 7.81088,17.42528 17.42528,17.42528 l 34.85056,0 0,69.70112 c 0,9.63182 7.81088,17.42528 17.42528,17.42528 l 139.40224,0 c 9.63182,0 17.42528,-7.794 17.42528,-17.42528 l 0,-69.70112 34.85056,0 c 9.63182,0 17.42528,-7.794 17.42528,-17.42528 l 0,-87.1264 c 0,-9.6144 -7.79346,-17.42528 -17.42528,-17.42528 m -52.27584,191.67808 -139.40224,0 0,-121.97696 139.40224,0 0,121.97696 m 34.85056,-139.40224 c -9.63182,0 -17.42528,-7.794 -17.42528,-17.42528 0,-9.6144 7.794,-17.42528 17.42528,-17.42528 9.63128,0 17.42528,7.81088 17.42528,17.42528 0,9.63182 -7.79346,17.42528 -17.42528,17.42528" id="path70" />
<path style="fill:#ffffff" inkscape:connector-curvature="0" d="m 203.7264,273.42752 69.70112,0 0,17.42528 -69.70112,0 z" id="path72" />
<path style="fill:#ffffff" inkscape:connector-curvature="0" d="m 203.7264,308.27808 104.55168,0 0,17.42528 -104.55168,0 z" id="path74" />
<path style="fill:#ffffff" inkscape:connector-curvature="0" d="m 203.7264,343.12864 104.55168,0 0,17.42528 -104.55168,0 z" id="path76" />
</svg>
