<?xml version="1.0" encoding="UTF-8" standalone="no"?>
<svg xmlns:dc="http://purl.org/dc/elements/1.1/" xmlns:cc="http://creativecommons.org/ns#" xmlns:rdf="http://www.w3.org/1999/02/22-rdf-syntax-ns#" xmlns:svg="http://www.w3.org/2000/svg" xmlns="http://www.w3.org/2000/svg" xmlns:sodipodi="http://sodipodi.sourceforge.net/DTD/sodipodi-0.dtd" xmlns:inkscape="http://www.inkscape.org/namespaces/inkscape" viewBox="0 0 512 512" id="svg37" version="1.1" inkscape:version="0.91 r" sodipodi:docname="q4wine.svg">
<metadata id="metadata941">
<rdf:RDF>
<cc:Work rdf:about="">
<dc:format>image/svg+xml</dc:format>
<dc:type rdf:resource="http://purl.org/dc/dcmitype/StillImage" />
</cc:Work>
</rdf:RDF>
</metadata>
<defs id="defs939" />
<sodipodi:namedview pagecolor="#ffffff" bordercolor="#666666" borderopacity="1" objecttolerance="10" gridtolerance="10" guidetolerance="10" inkscape:pageopacity="0" inkscape:pageshadow="2" inkscape:window-width="640" inkscape:window-height="480" id="namedview937" showgrid="false" inkscape:zoom="0.4609375" inkscape:cx="256" inkscape:cy="256" inkscape:window-x="0" inkscape:window-y="0" inkscape:window-maximized="0" inkscape:current-layer="svg37" />
<g line-height="125%" word-spacing="0" letter-spacing="0" id="g39">
<g font-size="0" font-family="'Gentium Book Basic'" id="g41">
<text y="383.17" x="-1672.58" id="text43">
<tspan y="383.17" x="-1672.58" id="tspan45" />
</text>
<text y="80.12" x="1476.07" id="text47">
<tspan y="80.12" x="1476.07" id="tspan49" />
</text>
</g>
<text y="231.36" x="729.64" font-size="129.23" font-family="Gentium Book Basic" id="text51">
<tspan y="231.36" x="729.64" id="tspan53" />
</text>
</g>
<text transform="scale(4.0128.2492)" font-size="46.954" y="579.25" x="378.91" font-family="Arial" text-anchor="middle" id="text55" />
<text font-size="129.23" y="151.36" x="1310.91" font-family="Gentium Book Basic" line-height="125%" word-spacing="0" letter-spacing="0" id="text57">
<tspan y="151.36" x="1310.91" id="tspan59" />
</text>
<text transform="scale(4.0128.2492)" font-size="46.954" y="258.22" x="523.76" font-family="Arial" text-anchor="middle" id="text61" />
<text font-size="129.23" y="-29.901" x="239.33" font-family="Gentium Book Basic" line-height="125%" word-spacing="0" letter-spacing="0" id="text63">
<tspan y="-29.901" x="239.33" id="tspan65" />
</text>
<text transform="scale(4.0128.2492)" font-size="46.954" y="-469.14" x="256.72" font-family="Arial" text-anchor="middle" id="text67" />
<text font-size="129.23" y="-246.37" x="1337.38" font-family="Gentium Book Basic" line-height="125%" word-spacing="0" letter-spacing="0" id="text69">
<tspan y="-246.37" x="1337.38" id="tspan71" />
</text>
<text transform="scale(4.0128.2492)" font-size="46.954" y="-1337.81" x="530.36" font-family="Arial" text-anchor="middle" id="text73" />
<text font-size="129.23" y="-326.38" x="1918.65" font-family="Gentium Book Basic" line-height="125%" word-spacing="0" letter-spacing="0" id="text75">
<tspan y="-326.38" x="1918.65" id="tspan77" />
</text>
<text transform="scale(4.0128.2492)" font-size="46.954" y="-1658.85" x="675.21" font-family="Arial" text-anchor="middle" id="text79" />
<text font-size="129.23" y="-798.78" x="1529.53" font-family="Gentium Book Basic" line-height="125%" word-spacing="0" letter-spacing="0" id="text81">
<tspan y="-798.78" x="1529.53" id="tspan83" />
</text>
<text transform="scale(4.0128.2492)" font-size="46.954" y="-3554.51" x="578.24" font-family="Arial" text-anchor="middle" id="text85" />
<text font-size="129.23" y="-878.78" x="2110.79" font-family="Gentium Book Basic" line-height="125%" word-spacing="0" letter-spacing="0" id="text87">
<tspan y="-878.78" x="2110.79" id="tspan89" />
</text>
<text transform="scale(4.0128.2492)" font-size="46.954" y="-3875.54" x="723.09" font-family="Arial" text-anchor="middle" id="text91" />
<g line-height="125%" word-spacing="0" letter-spacing="0" id="g93">
<text y="553.99" x="286.53" font-size="148.94" font-family="Gentium Book Basic" id="text95">
<tspan y="553.99" x="286.53" id="tspan97" />
</text>
<text y="231.36" x="729.64" font-size="129.23" font-family="'Gentium Book Basic'" id="text99">
<tspan y="231.36" x="729.64" id="tspan101" />
</text>
</g>
<text transform="scale(4.0128.2492)" font-size="46.954" y="579.25" x="378.91" font-family="Arial" text-anchor="middle" id="text103" />
<text font-size="129.23" y="151.36" x="1310.91" font-family="'Gentium Book Basic'" line-height="125%" word-spacing="0" letter-spacing="0" id="text105">
<tspan y="151.36" x="1310.91" id="tspan107" />
</text>
<text transform="scale(4.0128.2492)" font-size="46.954" y="258.22" x="523.76" font-family="Arial" text-anchor="middle" id="text109" />
<text font-size="129.23" y="-29.901" x="239.33" font-family="'Gentium Book Basic'" line-height="125%" word-spacing="0" letter-spacing="0" id="text111">
<tspan y="-29.901" x="239.33" id="tspan113" />
</text>
<text transform="scale(4.0128.2492)" font-size="46.954" y="-469.14" x="256.72" font-family="Arial" text-anchor="middle" id="text115" />
<text font-size="129.23" y="-246.37" x="1337.38" font-family="'Gentium Book Basic'" line-height="125%" word-spacing="0" letter-spacing="0" id="text117">
<tspan y="-246.37" x="1337.38" id="tspan119" />
</text>
<text transform="scale(4.0128.2492)" font-size="46.954" y="-1337.8" x="530.36" font-family="Arial" text-anchor="middle" id="text121" />
<text font-size="129.23" y="-326.38" x="1918.65" font-family="'Gentium Book Basic'" line-height="125%" word-spacing="0" letter-spacing="0" id="text123">
<tspan y="-326.38" x="1918.65" id="tspan125" />
</text>
<text transform="scale(4.0128.2492)" font-size="46.954" y="-1658.84" x="675.21" font-family="Arial" text-anchor="middle" id="text127" />
<text font-size="129.23" y="-798.78" x="1529.53" font-family="'Gentium Book Basic'" line-height="125%" word-spacing="0" letter-spacing="0" id="text129">
<tspan y="-798.78" x="1529.53" id="tspan131" />
</text>
<text transform="scale(4.0128.2492)" font-size="46.954" y="-3554.49" x="578.24" font-family="Arial" text-anchor="middle" id="text133" />
<text font-size="129.23" y="-878.78" x="2110.79" font-family="'Gentium Book Basic'" line-height="125%" word-spacing="0" letter-spacing="0" id="text135">
<tspan y="-878.78" x="2110.79" id="tspan137" />
</text>
<text transform="scale(4.0128.2492)" font-size="46.954" y="-3875.52" x="723.09" font-family="Arial" text-anchor="middle" id="text139" />
<g font-family="'Gentium Book Basic'" line-height="125%" word-spacing="0" letter-spacing="0" id="g141">
<g font-size="0" id="g143">
<text y="535.94" x="277.99" id="text145">
<tspan y="535.94" x="277.99" id="tspan147" />
</text>
<text y="11.553" x="-860.84" id="text149">
<tspan y="11.553" x="-860.84" id="tspan151" />
</text>
<text y="289.67" x="-3219.67" id="text153">
<tspan y="289.67" x="-3219.67" id="tspan155" />
</text>
<text y="62.38" x="-2931.46" id="text157">
<tspan y="62.38" x="-2931.46" id="tspan159" />
</text>
<text y="-194.52" x="1263.14" id="text161">
<tspan y="-194.52" x="1263.14" id="tspan163" />
</text>
<text y="-49.48" x="-864.79" id="text165">
<tspan y="-49.48" x="-864.79" id="tspan167" />
</text>
<text y="228.64" x="-3223.62" id="text169">
<tspan y="228.64" x="-3223.62" id="tspan171" />
</text>
<text y="1.35" x="-2935.41" id="text173">
<tspan y="1.35" x="-2935.41" id="tspan175" />
</text>
</g>
<g fill="#fff" id="g177">
<g font-size="179.16" id="g179">
<text y="86.66" x="409.62" id="text181">
<tspan y="86.66" x="409.62" id="tspan183" />
</text>
<text y="325.85" x="-1618.98" id="text185">
<tspan y="325.85" x="-1618.98" id="tspan187" />
</text>
<text y="130.39" x="-1371.12" id="text189">
<tspan y="130.39" x="-1371.12" id="tspan191" />
</text>
<text y="-90.55" x="2236.24" id="text193">
<tspan y="-90.55" x="2236.24" id="tspan195" />
</text>
<text y="34.18" x="406.22" id="text197">
<tspan y="34.18" x="406.22" id="tspan199" />
</text>
<text y="273.36" x="-1622.37" id="text201">
<tspan y="273.36" x="-1622.37" id="tspan203" />
</text>
<text y="77.893" x="-1374.5" id="text205">
<tspan y="77.893" x="-1374.5" id="tspan207" />
</text>
</g>
<g font-size="185.33" id="g209">
<text y="80.84" x="393.51" id="text211">
<tspan y="80.84" x="393.51" id="tspan213" />
</text>
<text y="328.26" x="-1704.91" id="text215">
<tspan y="328.26" x="-1704.91" id="tspan217" />
</text>
<text y="126.07" x="-1448.51" id="text219">
<tspan y="126.07" x="-1448.51" id="tspan221" />
</text>
<text y="-102.47" x="2283.01" id="text223">
<tspan y="-102.47" x="2283.01" id="tspan225" />
</text>
<text y="26.549" x="390" id="text227">
<tspan y="26.549" x="390" id="tspan229" />
</text>
<text y="273.96" x="-1708.42" id="text231">
<tspan y="273.96" x="-1708.42" id="tspan233" />
</text>
<text y="71.77" x="-1452.02" id="text235">
<tspan y="71.77" x="-1452.02" id="tspan237" />
</text>
</g>
<g font-size="179.16" id="g239">
<text y="86.66" x="409.62" opacity="0.408" id="text241">
<tspan y="86.66" x="409.62" id="tspan243" />
</text>
<text y="325.85" x="-1618.98" opacity="0.408" id="text245">
<tspan y="325.85" x="-1618.98" id="tspan247" />
</text>
<text y="130.39" x="-1371.12" opacity="0.408" id="text249">
<tspan y="130.39" x="-1371.12" id="tspan251" />
</text>
<text y="-90.55" x="2236.24" opacity="0.408" id="text253">
<tspan y="-90.55" x="2236.24" id="tspan255" />
</text>
<text y="34.18" x="406.22" opacity="0.408" id="text257">
<tspan y="34.18" x="406.22" id="tspan259" />
</text>
<text y="273.36" x="-1622.37" opacity="0.408" id="text261">
<tspan y="273.36" x="-1622.37" id="tspan263" />
</text>
<text y="77.893" x="-1374.5" opacity="0.408" id="text265">
<tspan y="77.893" x="-1374.5" id="tspan267" />
</text>
</g>
<g font-size="185.33" id="g269">
<text y="80.84" x="393.51" opacity="0.408" id="text271">
<tspan y="80.84" x="393.51" id="tspan273" />
</text>
<text y="328.26" x="-1704.91" opacity="0.408" id="text275">
<tspan y="328.26" x="-1704.91" id="tspan277" />
</text>
<text y="126.07" x="-1448.51" opacity="0.408" id="text279">
<tspan y="126.07" x="-1448.51" id="tspan281" />
</text>
<text y="-102.47" x="2283.01" opacity="0.408" id="text283">
<tspan y="-102.47" x="2283.01" id="tspan285" />
</text>
<text y="26.549" x="390" opacity="0.408" id="text287">
<tspan y="26.549" x="390" id="tspan289" />
</text>
<text y="273.96" x="-1708.42" opacity="0.408" id="text291">
<tspan y="273.96" x="-1708.42" id="tspan293" />
</text>
<text y="71.77" x="-1452.02" opacity="0.408" id="text295">
<tspan y="71.77" x="-1452.02" id="tspan297" />
</text>
</g>
</g>
<text y="185.8" x="1990.11" font-size="129.23" id="text299">
<tspan y="185.8" x="1990.11" id="tspan301" />
</text>
</g>
<text transform="scale(4.0128.2492)" font-size="46.954" y="396.43" x="693.02" font-family="Arial" text-anchor="middle" id="text303" />
<text font-size="129.23" y="105.8" x="2571.38" font-family="'Gentium Book Basic'" line-height="125%" word-spacing="0" letter-spacing="0" id="text305">
<tspan y="105.8" x="2571.38" id="tspan307" />
</text>
<text transform="scale(4.0128.2492)" font-size="46.954" y="75.4" x="837.87" font-family="Arial" text-anchor="middle" id="text309" />
<text font-size="129.23" y="-75.46" x="1499.8" font-family="'Gentium Book Basic'" line-height="125%" word-spacing="0" letter-spacing="0" id="text311">
<tspan y="-75.46" x="1499.8" id="tspan313" />
</text>
<text transform="scale(4.0128.2492)" font-size="46.954" y="-651.96" x="570.83" font-family="Arial" text-anchor="middle" id="text315" />
<text font-size="129.23" y="-291.93" x="2597.85" font-family="'Gentium Book Basic'" line-height="125%" word-spacing="0" letter-spacing="0" id="text317">
<tspan y="-291.93" x="2597.85" id="tspan319" />
</text>
<text transform="scale(4.0128.2492)" font-size="46.954" y="-1520.62" x="844.47" font-family="Arial" text-anchor="middle" id="text321" />
<text font-size="129.23" y="-371.94" x="3179.12" font-family="'Gentium Book Basic'" line-height="125%" word-spacing="0" letter-spacing="0" id="text323">
<tspan y="-371.94" x="3179.12" id="tspan325" />
</text>
<text transform="scale(4.0128.2492)" font-size="46.954" y="-1841.66" x="989.32" font-family="Arial" text-anchor="middle" id="text327" />
<text font-size="129.23" y="-844.34" x="2790" font-family="'Gentium Book Basic'" line-height="125%" word-spacing="0" letter-spacing="0" id="text329">
<tspan y="-844.34" x="2790" id="tspan331" />
</text>
<text transform="scale(4.0128.2492)" font-size="46.954" y="-3737.31" x="892.35" font-family="Arial" text-anchor="middle" id="text333" />
<text font-size="129.23" y="-924.34" x="3371.26" font-family="'Gentium Book Basic'" line-height="125%" word-spacing="0" letter-spacing="0" id="text335">
<tspan y="-924.34" x="3371.26" id="tspan337" />
</text>
<text transform="scale(4.0128.2492)" font-size="46.954" y="-4058.34" x="1037.2" font-family="Arial" text-anchor="middle" id="text339" />
<g font-family="'Gentium Book Basic'" line-height="125%" word-spacing="0" letter-spacing="0" id="g341">
<text y="490.38" x="1538.46" font-size="208.33" id="text343">
<tspan y="490.38" x="1538.46" id="tspan345" />
</text>
<text y="250.57" x="2168.01" font-size="129.23" id="text347">
<tspan y="250.57" x="2168.01" id="tspan349" />
</text>
</g>
<text transform="scale(4.0128.2492)" font-size="46.954" y="656.34" x="737.35" font-family="Arial" text-anchor="middle" id="text351" />
<text font-size="129.23" y="170.57" x="2749.28" font-family="'Gentium Book Basic'" line-height="125%" word-spacing="0" letter-spacing="0" id="text353">
<tspan y="170.57" x="2749.28" id="tspan355" />
</text>
<text transform="scale(4.0128.2492)" font-size="46.954" y="335.3" x="882.2" font-family="Arial" text-anchor="middle" id="text357" />
<text font-size="129.23" y="-10.691" x="1677.7" font-family="'Gentium Book Basic'" line-height="125%" word-spacing="0" letter-spacing="0" id="text359">
<tspan y="-10.691" x="1677.7" id="tspan361" />
</text>
<text transform="scale(4.0128.2492)" font-size="46.954" y="-392.05" x="615.16" font-family="Arial" text-anchor="middle" id="text363" />
<text font-size="129.23" y="-227.16" x="2775.75" font-family="'Gentium Book Basic'" line-height="125%" word-spacing="0" letter-spacing="0" id="text365">
<tspan y="-227.16" x="2775.75" id="tspan367" />
</text>
<text transform="scale(4.0128.2492)" font-size="46.954" y="-1260.71" x="888.8" font-family="Arial" text-anchor="middle" id="text369" />
<text font-size="129.23" y="-307.16" x="3357.02" font-family="'Gentium Book Basic'" line-height="125%" word-spacing="0" letter-spacing="0" id="text371">
<tspan y="-307.16" x="3357.02" id="tspan373" />
</text>
<text transform="scale(4.0128.2492)" font-size="46.954" y="-1581.74" x="1033.65" font-family="Arial" text-anchor="middle" id="text375" />
<text font-size="129.23" y="-779.56" x="2967.9" font-family="'Gentium Book Basic'" line-height="125%" word-spacing="0" letter-spacing="0" id="text377">
<tspan y="-779.56" x="2967.9" id="tspan379" />
</text>
<text transform="scale(4.0128.2492)" font-size="46.954" y="-3477.38" x="936.68" font-family="Arial" text-anchor="middle" id="text381" />
<text font-size="129.23" y="-859.57" x="3549.16" font-family="'Gentium Book Basic'" line-height="125%" word-spacing="0" letter-spacing="0" id="text383">
<tspan y="-859.57" x="3549.16" id="tspan385" />
</text>
<text transform="scale(4.0128.2492)" font-size="46.954" y="-3798.42" x="1081.53" font-family="Arial" text-anchor="middle" id="text387" />
<g font-family="'Gentium Book Basic'" line-height="125%" word-spacing="0" letter-spacing="0" id="g389">
<text y="555.15" x="1716.36" font-size="208.33" id="text391">
<tspan y="555.15" x="1716.36" id="tspan393" />
</text>
<text y="186.78" x="1990.11" font-size="129.23" id="text395">
<tspan y="186.78" x="1990.11" id="tspan397" />
</text>
</g>
<text transform="scale(4.0128.2492)" font-size="46.954" y="400.37" x="693.02" font-family="Arial" text-anchor="middle" id="text399" />
<text font-size="129.23" y="106.78" x="2571.38" font-family="'Gentium Book Basic'" line-height="125%" word-spacing="0" letter-spacing="0" id="text401">
<tspan y="106.78" x="2571.38" id="tspan403" />
</text>
<text transform="scale(4.0128.2492)" font-size="46.954" y="79.33" x="837.87" font-family="Arial" text-anchor="middle" id="text405" />
<text font-size="129.23" y="-74.48" x="1499.8" font-family="'Gentium Book Basic'" line-height="125%" word-spacing="0" letter-spacing="0" id="text407">
<tspan y="-74.48" x="1499.8" id="tspan409" />
</text>
<text transform="scale(4.0128.2492)" font-size="46.954" y="-648.02" x="570.83" font-family="Arial" text-anchor="middle" id="text411" />
<text font-size="129.23" y="-290.95" x="2597.85" font-family="'Gentium Book Basic'" line-height="125%" word-spacing="0" letter-spacing="0" id="text413">
<tspan y="-290.95" x="2597.85" id="tspan415" />
</text>
<text transform="scale(4.0128.2492)" font-size="46.954" y="-1516.68" x="844.47" font-family="Arial" text-anchor="middle" id="text417" />
<text font-size="129.23" y="-370.95" x="3179.12" font-family="'Gentium Book Basic'" line-height="125%" word-spacing="0" letter-spacing="0" id="text419">
<tspan y="-370.95" x="3179.12" id="tspan421" />
</text>
<text transform="scale(4.0128.2492)" font-size="46.954" y="-1837.71" x="989.32" font-family="Arial" text-anchor="middle" id="text423" />
<text font-size="129.23" y="-843.35" x="2790" font-family="'Gentium Book Basic'" line-height="125%" word-spacing="0" letter-spacing="0" id="text425">
<tspan y="-843.35" x="2790" id="tspan427" />
</text>
<text transform="scale(4.0128.2492)" font-size="46.954" y="-3733.35" x="892.35" font-family="Arial" text-anchor="middle" id="text429" />
<text font-size="129.23" y="-923.36" x="3371.26" font-family="'Gentium Book Basic'" line-height="125%" word-spacing="0" letter-spacing="0" id="text431">
<tspan y="-923.36" x="3371.26" id="tspan433" />
</text>
<text transform="scale(4.0128.2492)" font-size="46.954" y="-4054.39" x="1037.2" font-family="Arial" text-anchor="middle" id="text435" />
<g font-family="'Gentium Book Basic'" line-height="125%" word-spacing="0" letter-spacing="0" id="g437">
<text y="491.36" x="1538.46" font-size="208.33" id="text439">
<tspan y="491.36" x="1538.46" id="tspan441" />
</text>
<text y="192.02" x="701.44" font-size="129.23" id="text443">
<tspan y="192.02" x="701.44" id="tspan445" />
</text>
</g>
<text transform="scale(4.0128.2492)" font-size="46.954" y="421.4" x="371.88" font-family="Arial" text-anchor="middle" id="text447" />
<text font-size="129.23" y="112.02" x="1282.71" font-family="'Gentium Book Basic'" line-height="125%" word-spacing="0" letter-spacing="0" id="text449">
<tspan y="112.02" x="1282.71" id="tspan451" />
</text>
<text transform="scale(4.0128.2492)" font-size="46.954" y="100.36" x="516.73" font-family="Arial" text-anchor="middle" id="text453" />
<text font-size="129.23" y="-69.24" x="211.13" font-family="'Gentium Book Basic'" line-height="125%" word-spacing="0" letter-spacing="0" id="text455">
<tspan y="-69.24" x="211.13" id="tspan457" />
</text>
<text transform="scale(4.0128.2492)" font-size="46.954" y="-626.99" x="249.69" font-family="Arial" text-anchor="middle" id="text459" />
<text font-size="129.23" y="-285.71" x="1309.18" font-family="'Gentium Book Basic'" line-height="125%" word-spacing="0" letter-spacing="0" id="text461">
<tspan y="-285.71" x="1309.18" id="tspan463" />
</text>
<text transform="scale(4.0128.2492)" font-size="46.954" y="-1495.65" x="523.33" font-family="Arial" text-anchor="middle" id="text465" />
<text font-size="129.23" y="-365.71" x="1890.45" font-family="'Gentium Book Basic'" line-height="125%" word-spacing="0" letter-spacing="0" id="text467">
<tspan y="-365.71" x="1890.45" id="tspan469" />
</text>
<text transform="scale(4.0128.2492)" font-size="46.954" y="-1816.68" x="668.18" font-family="Arial" text-anchor="middle" id="text471" />
<text font-size="129.23" y="-838.11" x="1501.33" font-family="'Gentium Book Basic'" line-height="125%" word-spacing="0" letter-spacing="0" id="text473">
<tspan y="-838.11" x="1501.33" id="tspan475" />
</text>
<text transform="scale(4.0128.2492)" font-size="46.954" y="-3712.32" x="571.21" font-family="Arial" text-anchor="middle" id="text477" />
<text font-size="129.23" y="-918.12" x="2082.59" font-family="'Gentium Book Basic'" line-height="125%" word-spacing="0" letter-spacing="0" id="text479">
<tspan y="-918.12" x="2082.59" id="tspan481" />
</text>
<text transform="scale(4.0128.2492)" font-size="46.954" y="-4033.36" x="716.06" font-family="Arial" text-anchor="middle" id="text483" />
<g font-family="'Gentium Book Basic'" line-height="125%" word-spacing="0" letter-spacing="0" id="g485">
<text y="496.6" x="249.79" font-size="208.33" id="text487">
<tspan y="496.6" x="249.79" id="tspan489" />
</text>
<text y="175.46" x="2053.01" font-size="129.23" id="text491">
<tspan y="175.46" x="2053.01" id="tspan493" />
</text>
</g>
<text transform="scale(4.0128.2492)" font-size="46.954" y="354.95" x="708.69" font-family="Arial" text-anchor="middle" id="text495" />
<text font-size="129.23" y="95.46" x="2634.28" font-family="'Gentium Book Basic'" line-height="125%" word-spacing="0" letter-spacing="0" id="text497">
<tspan y="95.46" x="2634.28" id="tspan499" />
</text>
<text transform="scale(4.0128.2492)" font-size="46.954" y="33.919" x="853.54" font-family="Arial" text-anchor="middle" id="text501" />
<text font-size="129.23" y="-85.8" x="1562.7" font-family="'Gentium Book Basic'" line-height="125%" word-spacing="0" letter-spacing="0" id="text503">
<tspan y="-85.8" x="1562.7" id="tspan505" />
</text>
<text transform="scale(4.0128.2492)" font-size="46.954" y="-693.44" x="586.5" font-family="Arial" text-anchor="middle" id="text507" />
<text font-size="129.23" y="-302.27" x="2660.75" font-family="'Gentium Book Basic'" line-height="125%" word-spacing="0" letter-spacing="0" id="text509">
<tspan y="-302.27" x="2660.75" id="tspan511" />
</text>
<text transform="scale(4.0128.2492)" font-size="46.954" y="-1562.1" x="860.14" font-family="Arial" text-anchor="middle" id="text513" />
<text font-size="129.23" y="-382.28" x="3242.02" font-family="'Gentium Book Basic'" line-height="125%" word-spacing="0" letter-spacing="0" id="text515">
<tspan y="-382.28" x="3242.02" id="tspan517" />
</text>
<text transform="scale(4.0128.2492)" font-size="46.954" y="-1883.14" x="1004.99" font-family="Arial" text-anchor="middle" id="text519" />
<text font-size="129.23" y="-854.68" x="2852.9" font-family="'Gentium Book Basic'" line-height="125%" word-spacing="0" letter-spacing="0" id="text521">
<tspan y="-854.68" x="2852.9" id="tspan523" />
</text>
<text transform="scale(4.0128.2492)" font-size="46.954" y="-3778.79" x="908.02" font-family="Arial" text-anchor="middle" id="text525" />
<text font-size="129.23" y="-934.68" x="3434.16" font-family="'Gentium Book Basic'" line-height="125%" word-spacing="0" letter-spacing="0" id="text527">
<tspan y="-934.68" x="3434.16" id="tspan529" />
</text>
<text transform="scale(4.0128.2492)" font-size="46.954" y="-4099.82" x="1052.87" font-family="Arial" text-anchor="middle" id="text531" />
<g font-family="'Gentium Book Basic'" line-height="125%" word-spacing="0" letter-spacing="0" id="g533">
<text y="480.04" x="1601.36" font-size="208.33" id="text535">
<tspan y="480.04" x="1601.36" id="tspan537" />
</text>
<text y="83.83" x="2191.88" font-size="129.23" id="text539">
<tspan y="83.83" x="2191.88" id="tspan541" />
</text>
</g>
<text transform="scale(4.0128.2492)" font-size="46.954" y="-12.736" x="743.3" font-family="Arial" text-anchor="middle" id="text543" />
<text font-size="129.23" y="3.835" x="2773.15" font-family="'Gentium Book Basic'" line-height="125%" word-spacing="0" letter-spacing="0" id="text545">
<tspan y="3.835" x="2773.15" id="tspan547" />
</text>
<text transform="scale(4.0128.2492)" font-size="46.954" y="-333.77" x="888.15" font-family="Arial" text-anchor="middle" id="text549" />
<text font-size="129.23" y="-177.43" x="1701.57" font-family="'Gentium Book Basic'" line-height="125%" word-spacing="0" letter-spacing="0" id="text551">
<tspan y="-177.43" x="1701.57" id="tspan553" />
</text>
<text transform="scale(4.0128.2492)" font-size="46.954" y="-1061.12" x="621.11" font-family="Arial" text-anchor="middle" id="text555" />
<text font-size="129.23" y="-393.9" x="2799.62" font-family="'Gentium Book Basic'" line-height="125%" word-spacing="0" letter-spacing="0" id="text557">
<tspan y="-393.9" x="2799.62" id="tspan559" />
</text>
<text transform="scale(4.0128.2492)" font-size="46.954" y="-1929.79" x="894.75" font-family="Arial" text-anchor="middle" id="text561" />
<text font-size="129.23" y="-473.9" x="3380.89" font-family="'Gentium Book Basic'" line-height="125%" word-spacing="0" letter-spacing="0" id="text563">
<tspan y="-473.9" x="3380.89" id="tspan565" />
</text>
<text transform="scale(4.0128.2492)" font-size="46.954" y="-2250.81" x="1039.6" font-family="Arial" text-anchor="middle" id="text567" />
<text font-size="129.23" y="-946.3" x="2991.77" font-family="'Gentium Book Basic'" line-height="125%" word-spacing="0" letter-spacing="0" id="text569">
<tspan y="-946.3" x="2991.77" id="tspan571" />
</text>
<text transform="scale(4.0128.2492)" font-size="46.954" y="-4146.46" x="942.63" font-family="Arial" text-anchor="middle" id="text573" />
<text font-size="129.23" y="-1026.31" x="3573.03" font-family="'Gentium Book Basic'" line-height="125%" word-spacing="0" letter-spacing="0" id="text575">
<tspan y="-1026.31" x="3573.03" id="tspan577" />
</text>
<text transform="scale(4.0128.2492)" font-size="46.954" y="-4467.49" x="1087.48" font-family="Arial" text-anchor="middle" id="text579" />
<g font-family="'Gentium Book Basic'" line-height="125%" word-spacing="0" letter-spacing="0" id="g581">
<text y="388.41" x="1740.23" font-size="208.33" id="text583">
<tspan y="388.41" x="1740.23" id="tspan585" />
</text>
<text y="125.91" x="2111.61" font-size="129.23" id="text587">
<tspan y="125.91" x="2111.61" id="tspan589" />
</text>
</g>
<text transform="scale(4.0128.2492)" font-size="46.954" y="156.09" x="723.3" font-family="Arial" text-anchor="middle" id="text591" />
<text font-size="129.23" y="45.909" x="2692.88" font-family="'Gentium Book Basic'" line-height="125%" word-spacing="0" letter-spacing="0" id="text593">
<tspan y="45.909" x="2692.88" id="tspan595" />
</text>
<text transform="scale(4.0128.2492)" font-size="46.954" y="-164.94" x="868.15" font-family="Arial" text-anchor="middle" id="text597" />
<text font-size="129.23" y="-135.35" x="1621.3" font-family="'Gentium Book Basic'" line-height="125%" word-spacing="0" letter-spacing="0" id="text599">
<tspan y="-135.35" x="1621.3" id="tspan601" />
</text>
<text transform="scale(4.0128.2492)" font-size="46.954" y="-892.29" x="601.11" font-family="Arial" text-anchor="middle" id="text603" />
<text font-size="129.23" y="-351.82" x="2719.35" font-family="'Gentium Book Basic'" line-height="125%" word-spacing="0" letter-spacing="0" id="text605">
<tspan y="-351.82" x="2719.35" id="tspan607" />
</text>
<text transform="scale(4.0128.2492)" font-size="46.954" y="-1760.96" x="874.74" font-family="Arial" text-anchor="middle" id="text609" />
<text font-size="129.23" y="-431.83" x="3300.62" font-family="'Gentium Book Basic'" line-height="125%" word-spacing="0" letter-spacing="0" id="text611">
<tspan y="-431.83" x="3300.62" id="tspan613" />
</text>
<text transform="scale(4.0128.2492)" font-size="46.954" y="-2082" x="1019.59" font-family="Arial" text-anchor="middle" id="text615" />
<text font-size="129.23" y="-904.23" x="2911.5" font-family="'Gentium Book Basic'" line-height="125%" word-spacing="0" letter-spacing="0" id="text617">
<tspan y="-904.23" x="2911.5" id="tspan619" />
</text>
<text transform="scale(4.0128.2492)" font-size="46.954" y="-3977.65" x="922.62" font-family="Arial" text-anchor="middle" id="text621" />
<text font-size="129.23" y="-984.23" x="3492.76" font-family="'Gentium Book Basic'" line-height="125%" word-spacing="0" letter-spacing="0" id="text623">
<tspan y="-984.23" x="3492.76" id="tspan625" />
</text>
<text transform="scale(4.0128.2492)" font-size="46.954" y="-4298.68" x="1067.47" font-family="Arial" text-anchor="middle" id="text627" />
<g font-family="'Gentium Book Basic'" line-height="125%" word-spacing="0" letter-spacing="0" id="g629">
<text y="430.49" x="1659.96" font-size="208.33" id="text631">
<tspan y="430.49" x="1659.96" id="tspan633" />
</text>
<text y="173.93" x="2131.25" font-size="129.23" id="text635">
<tspan y="173.93" x="2131.25" id="tspan637" />
</text>
</g>
<text transform="scale(4.0128.2492)" font-size="46.954" y="348.8" x="728.19" font-family="Arial" text-anchor="middle" id="text639" />
<text font-size="129.23" y="93.93" x="2712.52" font-family="'Gentium Book Basic'" line-height="125%" word-spacing="0" letter-spacing="0" id="text641">
<tspan y="93.93" x="2712.52" id="tspan643" />
</text>
<text transform="scale(4.0128.2492)" font-size="46.954" y="27.764" x="873.04" font-family="Arial" text-anchor="middle" id="text645" />
<text font-size="129.23" y="-87.33" x="1640.94" font-family="'Gentium Book Basic'" line-height="125%" word-spacing="0" letter-spacing="0" id="text647">
<tspan y="-87.33" x="1640.94" id="tspan649" />
</text>
<text transform="scale(4.0128.2492)" font-size="46.954" y="-699.58" x="606" font-family="Arial" text-anchor="middle" id="text651" />
<text font-size="129.23" y="-303.8" x="2738.99" font-family="'Gentium Book Basic'" line-height="125%" word-spacing="0" letter-spacing="0" id="text653">
<tspan y="-303.8" x="2738.99" id="tspan655" />
</text>
<text transform="scale(4.0128.2492)" font-size="46.954" y="-1568.26" x="879.64" font-family="Arial" text-anchor="middle" id="text657" />
<text font-size="129.23" y="-383.8" x="3320.26" font-family="'Gentium Book Basic'" line-height="125%" word-spacing="0" letter-spacing="0" id="text659">
<tspan y="-383.8" x="3320.26" id="tspan661" />
</text>
<text transform="scale(4.0128.2492)" font-size="46.954" y="-1889.29" x="1024.49" font-family="Arial" text-anchor="middle" id="text663" />
<text font-size="129.23" y="-856.2" x="2931.14" font-family="'Gentium Book Basic'" line-height="125%" word-spacing="0" letter-spacing="0" id="text665">
<tspan y="-856.2" x="2931.14" id="tspan667" />
</text>
<text transform="scale(4.0128.2492)" font-size="46.954" y="-3784.94" x="927.52" font-family="Arial" text-anchor="middle" id="text669" />
<text font-size="129.23" y="-936.21" x="3512.4" font-family="'Gentium Book Basic'" line-height="125%" word-spacing="0" letter-spacing="0" id="text671">
<tspan y="-936.21" x="3512.4" id="tspan673" />
</text>
<text transform="scale(4.0128.2492)" font-size="46.954" y="-4105.98" x="1072.37" font-family="Arial" text-anchor="middle" id="text675" />
<g font-family="'Gentium Book Basic'" line-height="125%" word-spacing="0" letter-spacing="0" id="g677">
<text y="478.51" x="1679.6" font-size="208.33" id="text679">
<tspan y="478.51" x="1679.6" id="tspan681" />
</text>
<text y="150" x="2080.63" font-size="129.23" id="text683">
<tspan y="150" x="2080.63" id="tspan685" />
</text>
</g>
<text transform="scale(4.0128.2492)" font-size="46.954" y="252.77" x="715.58" font-family="Arial" text-anchor="middle" id="text687" />
<text font-size="129.23" y="69.999" x="2661.9" font-family="'Gentium Book Basic'" line-height="125%" word-spacing="0" letter-spacing="0" id="text689">
<tspan y="69.999" x="2661.9" id="tspan691" />
</text>
<text transform="scale(4.0128.2492)" font-size="46.954" y="-68.27" x="860.42" font-family="Arial" text-anchor="middle" id="text693" />
<text font-size="129.23" y="-111.26" x="1590.32" font-family="'Gentium Book Basic'" line-height="125%" word-spacing="0" letter-spacing="0" id="text695">
<tspan y="-111.26" x="1590.32" id="tspan697" />
</text>
<text transform="scale(4.0128.2492)" font-size="46.954" y="-795.61" x="593.39" font-family="Arial" text-anchor="middle" id="text699" />
<text font-size="129.23" y="-327.73" x="2688.37" font-family="'Gentium Book Basic'" line-height="125%" word-spacing="0" letter-spacing="0" id="text701">
<tspan y="-327.73" x="2688.37" id="tspan703" />
</text>
<text transform="scale(4.0128.2492)" font-size="46.954" y="-1664.29" x="867.02" font-family="Arial" text-anchor="middle" id="text705" />
<text font-size="129.23" y="-407.73" x="3269.64" font-family="'Gentium Book Basic'" line-height="125%" word-spacing="0" letter-spacing="0" id="text707">
<tspan y="-407.73" x="3269.64" id="tspan709" />
</text>
<text transform="scale(4.0128.2492)" font-size="46.954" y="-1985.32" x="1011.87" font-family="Arial" text-anchor="middle" id="text711" />
<text font-size="129.23" y="-880.13" x="2880.52" font-family="'Gentium Book Basic'" line-height="125%" word-spacing="0" letter-spacing="0" id="text713">
<tspan y="-880.13" x="2880.52" id="tspan715" />
</text>
<text transform="scale(4.0128.2492)" font-size="46.954" y="-3880.97" x="914.9" font-family="Arial" text-anchor="middle" id="text717" />
<text font-size="129.23" y="-960.14" x="3461.78" font-family="'Gentium Book Basic'" line-height="125%" word-spacing="0" letter-spacing="0" id="text719">
<tspan y="-960.14" x="3461.78" id="tspan721" />
</text>
<text transform="scale(4.0128.2492)" font-size="46.954" y="-4202.01" x="1059.75" font-family="Arial" text-anchor="middle" id="text723" />
<g font-family="'Gentium Book Basic'" line-height="125%" word-spacing="0" letter-spacing="0" id="g725">
<text y="454.58" x="1628.98" font-size="208.33" id="text727">
<tspan y="454.58" x="1628.98" id="tspan729" />
</text>
<text y="231.36" x="729.64" font-size="129.23" id="text731">
<tspan y="231.36" x="729.64" id="tspan733" />
</text>
</g>
<text transform="scale(4.0128.2492)" font-size="46.954" y="579.25" x="378.91" font-family="Arial" text-anchor="middle" id="text735" />
<text font-size="129.23" y="151.36" x="1310.91" font-family="'Gentium Book Basic'" line-height="125%" word-spacing="0" letter-spacing="0" id="text737">
<tspan y="151.36" x="1310.91" id="tspan739" />
</text>
<text transform="scale(4.0128.2492)" font-size="46.954" y="258.22" x="523.76" font-family="Arial" text-anchor="middle" id="text741" />
<text font-size="129.23" y="-29.901" x="239.33" font-family="'Gentium Book Basic'" line-height="125%" word-spacing="0" letter-spacing="0" id="text743">
<tspan y="-29.901" x="239.33" id="tspan745" />
</text>
<text transform="scale(4.0128.2492)" font-size="46.954" y="-469.14" x="256.72" font-family="Arial" text-anchor="middle" id="text747" />
<text font-size="129.23" y="-246.37" x="1337.38" font-family="'Gentium Book Basic'" line-height="125%" word-spacing="0" letter-spacing="0" id="text749">
<tspan y="-246.37" x="1337.38" id="tspan751" />
</text>
<text transform="scale(4.0128.2492)" font-size="46.954" y="-1337.8" x="530.36" font-family="Arial" text-anchor="middle" id="text753" />
<text font-size="129.23" y="-326.38" x="1918.65" font-family="'Gentium Book Basic'" line-height="125%" word-spacing="0" letter-spacing="0" id="text755">
<tspan y="-326.38" x="1918.65" id="tspan757" />
</text>
<text transform="scale(4.0128.2492)" font-size="46.954" y="-1658.84" x="675.21" font-family="Arial" text-anchor="middle" id="text759" />
<text font-size="129.23" y="-798.78" x="1529.53" font-family="'Gentium Book Basic'" line-height="125%" word-spacing="0" letter-spacing="0" id="text761">
<tspan y="-798.78" x="1529.53" id="tspan763" />
</text>
<text transform="scale(4.0128.2492)" font-size="46.954" y="-3554.49" x="578.24" font-family="Arial" text-anchor="middle" id="text765" />
<text font-size="129.23" y="-878.78" x="2110.79" font-family="'Gentium Book Basic'" line-height="125%" word-spacing="0" letter-spacing="0" id="text767">
<tspan y="-878.78" x="2110.79" id="tspan769" />
</text>
<text transform="scale(4.0128.2492)" font-size="46.954" y="-3875.52" x="723.09" font-family="Arial" text-anchor="middle" id="text771" />
<g font-family="'Gentium Book Basic'" line-height="125%" word-spacing="0" letter-spacing="0" id="g773">
<text y="535.94" x="277.99" font-size="208.33" id="text775">
<tspan y="535.94" x="277.99" id="tspan777" />
</text>
<text y="270.87" x="-1745.96" font-size="129.23" id="text779">
<tspan y="270.87" x="-1745.96" id="tspan781" />
</text>
</g>
<text transform="scale(4.0128.2492)" font-size="46.954" y="737.79" x="-238.01" font-family="Arial" text-anchor="middle" id="text783" />
<text font-size="129.23" y="190.87" x="-1164.69" font-family="'Gentium Book Basic'" line-height="125%" word-spacing="0" letter-spacing="0" id="text785">
<tspan y="190.87" x="-1164.69" id="tspan787" />
</text>
<text transform="scale(4.0128.2492)" font-size="46.954" y="416.76" x="-93.17" font-family="Arial" text-anchor="middle" id="text789" />
<text font-size="129.23" y="9.608" x="-2236.27" font-family="'Gentium Book Basic'" line-height="125%" word-spacing="0" letter-spacing="0" id="text791">
<tspan y="9.608" x="-2236.27" id="tspan793" />
</text>
<text transform="scale(4.0128.2492)" font-size="46.954" y="-310.6" x="-360.2" font-family="Arial" text-anchor="middle" id="text795" />
<text font-size="129.23" y="-206.86" x="-1138.22" font-family="'Gentium Book Basic'" line-height="125%" word-spacing="0" letter-spacing="0" id="text797">
<tspan y="-206.86" x="-1138.22" id="tspan799" />
</text>
<text transform="scale(4.0128.2492)" font-size="46.954" y="-1179.26" x="-86.57" font-family="Arial" text-anchor="middle" id="text801" />
<text font-size="129.23" y="-286.87" x="-556.95" font-family="'Gentium Book Basic'" line-height="125%" word-spacing="0" letter-spacing="0" id="text803">
<tspan y="-286.87" x="-556.95" id="tspan805" />
</text>
<text transform="scale(4.0128.2492)" font-size="46.954" y="-1500.3" x="58.28" font-family="Arial" text-anchor="middle" id="text807" />
<text font-size="129.23" y="-759.27" x="-946.07" font-family="'Gentium Book Basic'" line-height="125%" word-spacing="0" letter-spacing="0" id="text809">
<tspan y="-759.27" x="-946.07" id="tspan811" />
</text>
<text transform="scale(4.0128.2492)" font-size="46.954" y="-3395.95" x="-38.686" font-family="Arial" text-anchor="middle" id="text813" />
<text font-size="129.23" y="-839.27" x="-364.81" font-family="'Gentium Book Basic'" line-height="125%" word-spacing="0" letter-spacing="0" id="text815">
<tspan y="-839.27" x="-364.81" id="tspan817" />
</text>
<text transform="scale(4.0128.2492)" font-size="46.954" y="-3716.98" x="106.16" font-family="Arial" text-anchor="middle" id="text819" />
<g font-family="'Gentium Book Basic'" line-height="125%" word-spacing="0" letter-spacing="0" id="g821">
<text y="575.45" x="-2197.61" font-size="208.33" id="text823">
<tspan y="575.45" x="-2197.61" id="tspan825" />
</text>
<text y="525.1" x="-1144.61" font-size="129.23" id="text827">
<tspan y="525.1" x="-1144.61" id="tspan829" />
</text>
</g>
<text transform="scale(4.0128.2492)" font-size="46.954" y="1757.96" x="-88.16" font-family="Arial" text-anchor="middle" id="text831" />
<text font-size="129.23" y="445.1" x="-563.34" font-family="'Gentium Book Basic'" line-height="125%" word-spacing="0" letter-spacing="0" id="text833">
<tspan y="445.1" x="-563.34" id="tspan835" />
</text>
<text transform="scale(4.0128.2492)" font-size="46.954" y="1436.93" x="56.693" font-family="Arial" text-anchor="middle" id="text837" />
<text font-size="129.23" y="263.84" x="-1634.92" font-family="'Gentium Book Basic'" line-height="125%" word-spacing="0" letter-spacing="0" id="text839">
<tspan y="263.84" x="-1634.92" id="tspan841" />
</text>
<text transform="scale(4.0128.2492)" font-size="46.954" y="709.58" x="-210.35" font-family="Arial" text-anchor="middle" id="text843" />
<text font-size="129.23" y="47.37" x="-536.87" font-family="'Gentium Book Basic'" line-height="125%" word-spacing="0" letter-spacing="0" id="text845">
<tspan y="47.37" x="-536.87" id="tspan847" />
</text>
<text transform="scale(4.0128.2492)" font-size="46.954" y="-159.09" x="63.29" font-family="Arial" text-anchor="middle" id="text849" />
<text font-size="129.23" y="-32.643" x="44.4" font-family="'Gentium Book Basic'" line-height="125%" word-spacing="0" letter-spacing="0" id="text851">
<tspan y="-32.643" x="44.4" id="tspan853" />
</text>
<text transform="scale(4.0128.2492)" font-size="46.954" y="-480.13" x="208.14" font-family="Arial" text-anchor="middle" id="text855" />
<text font-size="129.23" y="-505.04" x="-344.72" font-family="'Gentium Book Basic'" line-height="125%" word-spacing="0" letter-spacing="0" id="text857">
<tspan y="-505.04" x="-344.72" id="tspan859" />
</text>
<text transform="scale(4.0128.2492)" font-size="46.954" y="-2375.78" x="111.17" font-family="Arial" text-anchor="middle" id="text861" />
<text font-size="129.23" y="-585.04" x="236.54" font-family="'Gentium Book Basic'" line-height="125%" word-spacing="0" letter-spacing="0" id="text863">
<tspan y="-585.04" x="236.54" id="tspan865" />
</text>
<text transform="scale(4.0128.2492)" font-size="46.954" y="-2696.8" x="256.02" font-family="Arial" text-anchor="middle" id="text867" />
<text font-size="208.33" y="829.68" x="-1596.26" font-family="'Gentium Book Basic'" line-height="125%" word-spacing="0" letter-spacing="0" id="text869">
<tspan y="829.68" x="-1596.26" id="tspan871" />
</text>
<path fill-rule="evenodd" d="m471.95 253.05c0 120.9-98.01 218.9-218.9 218.9-120.9 0-218.9-98.01-218.9-218.9 0-120.9 98.01-218.9 218.9-218.9 120.9 0 218.9 98.01 218.9 218.9" fill="#98d53b" id="path873" />
<text font-size="129.23" y="231.36" x="729.64" font-family="'Gentium Book Basic'" line-height="125%" word-spacing="0" letter-spacing="0" id="text889">
<tspan y="231.36" x="729.64" id="tspan891" />
</text>
<text transform="scale(4.0128.2492)" font-size="46.954" y="579.25" x="378.91" font-family="Arial" text-anchor="middle" id="text893" />
<text font-size="129.23" y="151.36" x="1310.91" font-family="'Gentium Book Basic'" line-height="125%" word-spacing="0" letter-spacing="0" id="text895">
<tspan y="151.36" x="1310.91" id="tspan897" />
</text>
<text transform="scale(4.0128.2492)" font-size="46.954" y="258.22" x="523.76" font-family="Arial" text-anchor="middle" id="text899" />
<text font-size="129.23" y="-29.901" x="239.33" font-family="'Gentium Book Basic'" line-height="125%" word-spacing="0" letter-spacing="0" id="text901">
<tspan y="-29.901" x="239.33" id="tspan903" />
</text>
<text transform="scale(4.0128.2492)" font-size="46.954" y="-469.14" x="256.72" font-family="Arial" text-anchor="middle" id="text905" />
<text font-size="129.23" y="-246.37" x="1337.38" font-family="'Gentium Book Basic'" line-height="125%" word-spacing="0" letter-spacing="0" id="text907">
<tspan y="-246.37" x="1337.38" id="tspan909" />
</text>
<text transform="scale(4.0128.2492)" font-size="46.954" y="-1337.8" x="530.36" font-family="Arial" text-anchor="middle" id="text911" />
<text font-size="129.23" y="-326.38" x="1918.65" font-family="'Gentium Book Basic'" line-height="125%" word-spacing="0" letter-spacing="0" id="text913">
<tspan y="-326.38" x="1918.65" id="tspan915" />
</text>
<text transform="scale(4.0128.2492)" font-size="46.954" y="-1658.84" x="675.21" font-family="Arial" text-anchor="middle" id="text917" />
<text font-size="129.23" y="-798.78" x="1529.53" font-family="'Gentium Book Basic'" line-height="125%" word-spacing="0" letter-spacing="0" id="text919">
<tspan y="-798.78" x="1529.53" id="tspan921" />
</text>
<text transform="scale(4.0128.2492)" font-size="46.954" y="-3554.49" x="578.24" font-family="Arial" text-anchor="middle" id="text923" />
<text font-size="129.23" y="-878.78" x="2110.79" font-family="'Gentium Book Basic'" line-height="125%" word-spacing="0" letter-spacing="0" id="text925">
<tspan y="-878.78" x="2110.79" id="tspan927" />
</text>
<text transform="scale(4.0128.2492)" font-size="46.954" y="-3875.52" x="723.09" font-family="Arial" text-anchor="middle" id="text929" />
<text font-size="208.33" y="535.94" x="277.99" font-family="'Gentium Book Basic'" line-height="125%" word-spacing="0" letter-spacing="0" id="text931">
<tspan y="535.94" x="277.99" id="tspan933" />
</text>
<path d="m268.8 95.76c-9.04-0.025-15.988 1.458-18.862 4.638-4.557 5.05-15.05 42.682-28.14 100.21-9.447 41.39-2.892 65.53 3.563 78.45 8.252 16.516 14.683 26.446 1.64 59.41-9.447 23.87-19.09 28.438-28.04 29.575-21.573-5.188-37.853-5.374-39.979 0.46-2.909 7.981 21.707 24.16 54.946 36.14 33.24 11.975 62.6 15.234 65.51 7.253 2.132-5.854-10.579-16.12-30.6-25.91-8.79-9.06-16.674-15.363-9.713-43.41 13.616-54.874 34.387-36.01 58.872-70.12 20.766-28.932 26.26-51.13 38.29-85.03 12.742-35.928 18.333-52.56 16.683-55.844-11.11-22.12-57.04-35.74-84.16-35.802m1.872 7.536c10.1 0.093 22.945 2.294 33.368 6.02 22.333 7.992 42.491 19.16 41.31 25.858-2.99 16.923-9.514 30.747-11.174 35.52-21.844-21.13-49.896 41.923-94.88-10.251 0 0 8.601-33.14 14.531-52.05 1.132-3.612 7.923-5.178 16.837-5.1" fill="#fff" id="path935" />
</svg>
