<?xml version="1.0" encoding="UTF-8" standalone="no"?>
<svg xmlns:dc="http://purl.org/dc/elements/1.1/" xmlns:cc="http://creativecommons.org/ns#" xmlns:rdf="http://www.w3.org/1999/02/22-rdf-syntax-ns#" xmlns:svg="http://www.w3.org/2000/svg" xmlns="http://www.w3.org/2000/svg" xmlns:sodipodi="http://sodipodi.sourceforge.net/DTD/sodipodi-0.dtd" xmlns:inkscape="http://www.inkscape.org/namespaces/inkscape" viewBox="0 0 512 512" id="svg44" version="1.1" inkscape:version="0.91 r" sodipodi:docname="rednotebook.svg">
<metadata id="metadata306">
<rdf:RDF>
<cc:Work rdf:about="">
<dc:format>image/svg+xml</dc:format>
<dc:type rdf:resource="http://purl.org/dc/dcmitype/StillImage" />
</cc:Work>
</rdf:RDF>
</metadata>
<defs id="defs304" />
<sodipodi:namedview pagecolor="#ffffff" bordercolor="#666666" borderopacity="1" objecttolerance="10" gridtolerance="10" guidetolerance="10" inkscape:pageopacity="0" inkscape:pageshadow="2" inkscape:window-width="640" inkscape:window-height="480" id="namedview302" showgrid="false" inkscape:zoom="0.4609375" inkscape:cx="256" inkscape:cy="256" inkscape:window-x="0" inkscape:window-y="0" inkscape:window-maximized="0" inkscape:current-layer="svg44" />
<text font-size="129.23" y="231.36" x="729.64" font-family="Gentium Book Basic" line-height="125%" word-spacing="0" letter-spacing="0" id="text46">
<tspan y="231.36" x="729.64" id="tspan48" />
</text>
<text transform="scale(4.0128.2492)" font-size="46.954" y="579.26" x="378.91" font-family="Arial" text-anchor="middle" id="text50" />
<text font-size="129.23" y="151.36" x="1310.91" font-family="Gentium Book Basic" line-height="125%" word-spacing="0" letter-spacing="0" id="text52">
<tspan y="151.36" x="1310.91" id="tspan54" />
</text>
<text transform="scale(4.0128.2492)" font-size="46.954" y="258.22" x="523.76" font-family="Arial" text-anchor="middle" id="text56" />
<text font-size="129.23" y="-29.9" x="239.33" font-family="Gentium Book Basic" line-height="125%" word-spacing="0" letter-spacing="0" id="text58">
<tspan y="-29.9" x="239.33" id="tspan60" />
</text>
<text transform="scale(4.0128.2492)" font-size="46.954" y="-469.13" x="256.72" font-family="Arial" text-anchor="middle" id="text62" />
<text font-size="129.23" y="-246.37" x="1337.38" font-family="Gentium Book Basic" line-height="125%" word-spacing="0" letter-spacing="0" id="text64">
<tspan y="-246.37" x="1337.38" id="tspan66" />
</text>
<text transform="scale(4.0128.2492)" font-size="46.954" y="-1337.8" x="530.36" font-family="Arial" text-anchor="middle" id="text68" />
<text font-size="129.23" y="-326.37" x="1918.65" font-family="Gentium Book Basic" line-height="125%" word-spacing="0" letter-spacing="0" id="text70">
<tspan y="-326.37" x="1918.65" id="tspan72" />
</text>
<text transform="scale(4.0128.2492)" font-size="46.954" y="-1658.83" x="675.21" font-family="Arial" text-anchor="middle" id="text74" />
<text font-size="129.23" y="-798.77" x="1529.53" font-family="Gentium Book Basic" line-height="125%" word-spacing="0" letter-spacing="0" id="text76">
<tspan y="-798.77" x="1529.53" id="tspan78" />
</text>
<text transform="scale(4.0128.2492)" font-size="46.954" y="-3554.48" x="578.24" font-family="Arial" text-anchor="middle" id="text80" />
<text font-size="129.23" y="-878.78" x="2110.79" font-family="Gentium Book Basic" line-height="125%" word-spacing="0" letter-spacing="0" id="text82">
<tspan y="-878.78" x="2110.79" id="tspan84" />
</text>
<text transform="scale(4.0128.2492)" font-size="46.954" y="-3875.52" x="723.09" font-family="Arial" text-anchor="middle" id="text86" />
<g line-height="125%" word-spacing="0" letter-spacing="0" id="g88">
<text y="535.94" x="277.99" font-size="208.33" font-family="Gentium Book Basic" id="text90">
<tspan y="535.94" x="277.99" id="tspan92" />
</text>
<text y="231.36" x="729.64" font-size="129.23" font-family="'Gentium Book Basic'" id="text94">
<tspan y="231.36" x="729.64" id="tspan96" />
</text>
</g>
<text transform="scale(4.0128.2492)" font-size="46.954" y="579.26" x="378.91" font-family="Arial" text-anchor="middle" id="text98" />
<text font-size="129.23" y="151.36" x="1310.91" font-family="'Gentium Book Basic'" line-height="125%" word-spacing="0" letter-spacing="0" id="text100">
<tspan y="151.36" x="1310.91" id="tspan102" />
</text>
<text transform="scale(4.0128.2492)" font-size="46.954" y="258.22" x="523.76" font-family="Arial" text-anchor="middle" id="text104" />
<text font-size="129.23" y="-29.9" x="239.33" font-family="'Gentium Book Basic'" line-height="125%" word-spacing="0" letter-spacing="0" id="text106">
<tspan y="-29.9" x="239.33" id="tspan108" />
</text>
<text transform="scale(4.0128.2492)" font-size="46.954" y="-469.13" x="256.72" font-family="Arial" text-anchor="middle" id="text110" />
<text font-size="129.23" y="-246.37" x="1337.38" font-family="'Gentium Book Basic'" line-height="125%" word-spacing="0" letter-spacing="0" id="text112">
<tspan y="-246.37" x="1337.38" id="tspan114" />
</text>
<text transform="scale(4.0128.2492)" font-size="46.954" y="-1337.8" x="530.36" font-family="Arial" text-anchor="middle" id="text116" />
<text font-size="129.23" y="-326.37" x="1918.65" font-family="'Gentium Book Basic'" line-height="125%" word-spacing="0" letter-spacing="0" id="text118">
<tspan y="-326.37" x="1918.65" id="tspan120" />
</text>
<text transform="scale(4.0128.2492)" font-size="46.954" y="-1658.83" x="675.21" font-family="Arial" text-anchor="middle" id="text122" />
<text font-size="129.23" y="-798.77" x="1529.53" font-family="'Gentium Book Basic'" line-height="125%" word-spacing="0" letter-spacing="0" id="text124">
<tspan y="-798.77" x="1529.53" id="tspan126" />
</text>
<text transform="scale(4.0128.2492)" font-size="46.954" y="-3554.48" x="578.24" font-family="Arial" text-anchor="middle" id="text128" />
<text font-size="129.23" y="-878.78" x="2110.79" font-family="'Gentium Book Basic'" line-height="125%" word-spacing="0" letter-spacing="0" id="text130">
<tspan y="-878.78" x="2110.79" id="tspan132" />
</text>
<text transform="scale(4.0128.2492)" font-size="46.954" y="-3875.52" x="723.09" font-family="Arial" text-anchor="middle" id="text134" />
<text font-size="208.33" y="535.94" x="277.99" font-family="'Gentium Book Basic'" line-height="125%" word-spacing="0" letter-spacing="0" id="text136">
<tspan y="535.94" x="277.99" id="tspan138" />
</text>
<path style="fill:#d23638;fill-rule:evenodd" inkscape:connector-curvature="0" id="path142" d="m 471.95,255.21949 c 0,120.9 -98.01,218.91 -218.91,218.91 -120.9,0 -218.91,-98.01 -218.91,-218.91 0,-120.9 98.01,-218.909998 218.91,-218.909998 120.9,0 218.91,98.009998 218.91,218.909998" />
<text font-size="129.23" y="231.36" x="729.64" font-family="'Gentium Book Basic'" line-height="125%" word-spacing="0" letter-spacing="0" id="text156">
<tspan y="231.36" x="729.64" id="tspan158" />
</text>
<text transform="scale(4.0128.2492)" font-size="46.954" y="579.26" x="378.91" font-family="Arial" text-anchor="middle" id="text160" />
<text font-size="129.23" y="151.36" x="1310.91" font-family="'Gentium Book Basic'" line-height="125%" word-spacing="0" letter-spacing="0" id="text162">
<tspan y="151.36" x="1310.91" id="tspan164" />
</text>
<text transform="scale(4.0128.2492)" font-size="46.954" y="258.22" x="523.76" font-family="Arial" text-anchor="middle" id="text166" />
<text font-size="129.23" y="-29.9" x="239.33" font-family="'Gentium Book Basic'" line-height="125%" word-spacing="0" letter-spacing="0" id="text168">
<tspan y="-29.9" x="239.33" id="tspan170" />
</text>
<text transform="scale(4.0128.2492)" font-size="46.954" y="-469.13" x="256.72" font-family="Arial" text-anchor="middle" id="text172" />
<text font-size="129.23" y="-246.37" x="1337.38" font-family="'Gentium Book Basic'" line-height="125%" word-spacing="0" letter-spacing="0" id="text174">
<tspan y="-246.37" x="1337.38" id="tspan176" />
</text>
<text transform="scale(4.0128.2492)" font-size="46.954" y="-1337.8" x="530.36" font-family="Arial" text-anchor="middle" id="text178" />
<text font-size="129.23" y="-326.37" x="1918.65" font-family="'Gentium Book Basic'" line-height="125%" word-spacing="0" letter-spacing="0" id="text180">
<tspan y="-326.37" x="1918.65" id="tspan182" />
</text>
<text transform="scale(4.0128.2492)" font-size="46.954" y="-1658.83" x="675.21" font-family="Arial" text-anchor="middle" id="text184" />
<text font-size="129.23" y="-798.77" x="1529.53" font-family="'Gentium Book Basic'" line-height="125%" word-spacing="0" letter-spacing="0" id="text186">
<tspan y="-798.77" x="1529.53" id="tspan188" />
</text>
<text transform="scale(4.0128.2492)" font-size="46.954" y="-3554.48" x="578.24" font-family="Arial" text-anchor="middle" id="text190" />
<text font-size="129.23" y="-878.78" x="2110.79" font-family="'Gentium Book Basic'" line-height="125%" word-spacing="0" letter-spacing="0" id="text192">
<tspan y="-878.78" x="2110.79" id="tspan194" />
</text>
<text transform="scale(4.0128.2492)" font-size="46.954" y="-3875.52" x="723.09" font-family="Arial" text-anchor="middle" id="text196" />
<g font-family="'Gentium Book Basic'" line-height="125%" word-spacing="0" letter-spacing="0" id="g198">
<text y="535.94" x="277.99" font-size="208.33" id="text200">
<tspan y="535.94" x="277.99" id="tspan202" />
</text>
<text y="260.32" x="13.421" font-size="129.23" id="text204">
<tspan y="260.32" x="13.421" id="tspan206" />
</text>
</g>
<text transform="scale(4.0128.2492)" font-size="46.954" y="695.45" x="200.43" font-family="Arial" text-anchor="middle" id="text208" />
<text font-size="129.23" y="180.32" x="594.69" font-family="'Gentium Book Basic'" line-height="125%" word-spacing="0" letter-spacing="0" id="text210">
<tspan y="180.32" x="594.69" id="tspan212" />
</text>
<text transform="scale(4.0128.2492)" font-size="46.954" y="374.43" x="345.27" font-family="Arial" text-anchor="middle" id="text214" />
<text font-size="129.23" y="-0.942" x="-476.89" font-family="'Gentium Book Basic'" line-height="125%" word-spacing="0" letter-spacing="0" id="text216">
<tspan y="-0.942" x="-476.89" id="tspan218" />
</text>
<text transform="scale(4.0128.2492)" font-size="46.954" y="-352.93" x="78.24" font-family="Arial" text-anchor="middle" id="text220" />
<text font-size="129.23" y="-217.41" x="621.16" font-family="'Gentium Book Basic'" line-height="125%" word-spacing="0" letter-spacing="0" id="text222">
<tspan y="-217.41" x="621.16" id="tspan224" />
</text>
<text transform="scale(4.0128.2492)" font-size="46.954" y="-1221.6" x="351.87" font-family="Arial" text-anchor="middle" id="text226" />
<text font-size="129.23" y="-297.42" x="1202.43" font-family="'Gentium Book Basic'" line-height="125%" word-spacing="0" letter-spacing="0" id="text228">
<tspan y="-297.42" x="1202.43" id="tspan230" />
</text>
<text transform="scale(4.0128.2492)" font-size="46.954" y="-1542.63" x="496.72" font-family="Arial" text-anchor="middle" id="text232" />
<text font-size="129.23" y="-769.82" x="813.31" font-family="'Gentium Book Basic'" line-height="125%" word-spacing="0" letter-spacing="0" id="text234">
<tspan y="-769.82" x="813.31" id="tspan236" />
</text>
<text transform="scale(4.0128.2492)" font-size="46.954" y="-3438.29" x="399.75" font-family="Arial" text-anchor="middle" id="text238" />
<text font-size="129.23" y="-849.82" x="1394.57" font-family="'Gentium Book Basic'" line-height="125%" word-spacing="0" letter-spacing="0" id="text240">
<tspan y="-849.82" x="1394.57" id="tspan242" />
</text>
<text transform="scale(4.0128.2492)" font-size="46.954" y="-3759.31" x="544.6" font-family="Arial" text-anchor="middle" id="text244" />
<g font-family="'Gentium Book Basic'" line-height="125%" word-spacing="0" letter-spacing="0" id="g246">
<text y="564.9" x="-438.23" font-size="208.33" id="text248">
<tspan y="564.9" x="-438.23" id="tspan250" />
</text>
<text y="260.32" x="13.421" font-size="129.23" id="text252">
<tspan y="260.32" x="13.421" id="tspan254" />
</text>
</g>
<text transform="scale(4.0128.2492)" font-size="46.954" y="695.45" x="200.43" font-family="Arial" text-anchor="middle" id="text256" />
<text font-size="129.23" y="180.32" x="594.69" font-family="'Gentium Book Basic'" line-height="125%" word-spacing="0" letter-spacing="0" id="text258">
<tspan y="180.32" x="594.69" id="tspan260" />
</text>
<text transform="scale(4.0128.2492)" font-size="46.954" y="374.43" x="345.27" font-family="Arial" text-anchor="middle" id="text262" />
<text font-size="129.23" y="-0.942" x="-476.89" font-family="'Gentium Book Basic'" line-height="125%" word-spacing="0" letter-spacing="0" id="text264">
<tspan y="-0.942" x="-476.89" id="tspan266" />
</text>
<text transform="scale(4.0128.2492)" font-size="46.954" y="-352.93" x="78.24" font-family="Arial" text-anchor="middle" id="text268" />
<text font-size="129.23" y="-217.41" x="621.16" font-family="'Gentium Book Basic'" line-height="125%" word-spacing="0" letter-spacing="0" id="text270">
<tspan y="-217.41" x="621.16" id="tspan272" />
</text>
<text transform="scale(4.0128.2492)" font-size="46.954" y="-1221.59" x="351.87" font-family="Arial" text-anchor="middle" id="text274" />
<text font-size="129.23" y="-297.42" x="1202.43" font-family="'Gentium Book Basic'" line-height="125%" word-spacing="0" letter-spacing="0" id="text276">
<tspan y="-297.42" x="1202.43" id="tspan278" />
</text>
<text transform="scale(4.0128.2492)" font-size="46.954" y="-1542.62" x="496.72" font-family="Arial" text-anchor="middle" id="text280" />
<text font-size="129.23" y="-769.82" x="813.31" font-family="'Gentium Book Basic'" line-height="125%" word-spacing="0" letter-spacing="0" id="text282">
<tspan y="-769.82" x="813.31" id="tspan284" />
</text>
<text transform="scale(4.0128.2492)" font-size="46.954" y="-3438.27" x="399.75" font-family="Arial" text-anchor="middle" id="text286" />
<text font-size="129.23" y="-849.82" x="1394.57" font-family="'Gentium Book Basic'" line-height="125%" word-spacing="0" letter-spacing="0" id="text288">
<tspan y="-849.82" x="1394.57" id="tspan290" />
</text>
<text transform="scale(4.0128.2492)" font-size="46.954" y="-3759.29" x="544.6" font-family="Arial" text-anchor="middle" id="text292" />
<text font-size="208.33" y="564.9" x="-438.23" font-family="'Gentium Book Basic'" line-height="125%" word-spacing="0" letter-spacing="0" id="text294">
<tspan y="564.9" x="-438.23" id="tspan296" />
</text>
<path d="m320.92 132.72c-3.082 0.159-5.772 1.152-7.748 3.066l-0.112 0.112-14.603 14.659-0.307 0.307 0.307 0.307 62.46 62.43 0.335 0.307 0.307-0.307 14.412-14.436 0.195-0.195c0.072-0.072 0.102-0.15 0.112-0.168 3.512-3.663 3.884-9.625 1.756-16.275-2.137-6.676-6.793-14.12-13.484-20.818l-14.157-14.185c-9.251-9.252-19.926-14.618-28.09-14.801-0.444-0.01-0.912-0.023-1.365 0m-30.24 25.58l-0.307 0.335-15.44 15.468-0.307 0.307 0.307 0.335 62.43 62.39 0.307 0.335 0.335-0.335 15.44-15.468 0.307-0.307-0.307-0.307-62.43-62.43-0.335-0.335m-24.997 24.997l-0.335 0.307-94.19 94.28-11.645 11.593-2.926 2.955-0.083 0.056-0.027 0.112-23.549 73.72-0.028 0.027c-0.847 3.972 0.45 8.375 3.26 11.04l0.028 0.027c2.606 1.949 6.07 2.436 9.03 1.254h0.028l74.72-23.605 0.083-0.027 0.083-0.083 2.425-2.452 11.259-11.231 94.61-94.58 0.307-0.335-0.307-0.307-62.43-62.43-0.307-0.307m-92.38 119.77h0.055c0.089-0.003 0.163-0.003 0.25 0 0.01 0 0.018-0.001 0.028 0h0.027c0.818 0.011 1.599 0.364 2.174 0.948l5.378 5.35 20.228-1.056c0.008-0.001 0.019 0 0.028 0 0.8-0.036 1.599 0.252 2.202 0.78 0.709 0.627 1.11 1.562 1.056 2.508l-1 22.1 3.929 3.929c0.778 0.782 1.097 1.945 0.808 3.01-0.289 1.066-1.163 1.919-2.23 2.202l-35.23 9.448h-0.027c-1.056 0.29-2.225-0.015-3.01-0.78h-0.027l-6.827-6.827c-0.801-0.791-1.116-1.983-0.808-3.066l10.311-36.23c0.324-1.227 1.415-2.172 2.675-2.313" fill="#fff" id="path300" />
</svg>
