<?xml version="1.0" encoding="UTF-8" standalone="no"?>
<svg xmlns:dc="http://purl.org/dc/elements/1.1/" xmlns:cc="http://creativecommons.org/ns#" xmlns:rdf="http://www.w3.org/1999/02/22-rdf-syntax-ns#" xmlns:svg="http://www.w3.org/2000/svg" xmlns="http://www.w3.org/2000/svg" xmlns:sodipodi="http://sodipodi.sourceforge.net/DTD/sodipodi-0.dtd" xmlns:inkscape="http://www.inkscape.org/namespaces/inkscape" viewBox="0 0 512 512" id="svg338" version="1.1" inkscape:version="0.91 r" sodipodi:docname="rhythmbox.svg">
<metadata id="metadata650">
<rdf:RDF>
<cc:Work rdf:about="">
<dc:format>image/svg+xml</dc:format>
<dc:type rdf:resource="http://purl.org/dc/dcmitype/StillImage" />
</cc:Work>
</rdf:RDF>
</metadata>
<defs id="defs648" />
<sodipodi:namedview pagecolor="#ffffff" bordercolor="#666666" borderopacity="1" objecttolerance="10" gridtolerance="10" guidetolerance="10" inkscape:pageopacity="0" inkscape:pageshadow="2" inkscape:window-width="640" inkscape:window-height="480" id="namedview646" showgrid="false" inkscape:zoom="0.4609375" inkscape:cx="256" inkscape:cy="256" inkscape:window-x="0" inkscape:window-y="0" inkscape:window-maximized="0" inkscape:current-layer="svg338" />
<text font-size="129.23" y="231.36" x="729.64" font-family="Gentium Book Basic" line-height="125%" word-spacing="0" letter-spacing="0" id="text340">
<tspan y="231.36" x="729.64" id="tspan342" />
</text>
<text transform="scale(4.0128.2492)" font-size="46.954" y="579.26" x="378.91" font-family="Arial" text-anchor="middle" id="text344" />
<text font-size="129.23" y="151.36" x="1310.91" font-family="Gentium Book Basic" line-height="125%" word-spacing="0" letter-spacing="0" id="text346">
<tspan y="151.36" x="1310.91" id="tspan348" />
</text>
<text transform="scale(4.0128.2492)" font-size="46.954" y="258.22" x="523.76" font-family="Arial" text-anchor="middle" id="text350" />
<text font-size="129.23" y="-29.9" x="239.33" font-family="Gentium Book Basic" line-height="125%" word-spacing="0" letter-spacing="0" id="text352">
<tspan y="-29.9" x="239.33" id="tspan354" />
</text>
<text transform="scale(4.0128.2492)" font-size="46.954" y="-469.13" x="256.72" font-family="Arial" text-anchor="middle" id="text356" />
<text font-size="129.23" y="-246.37" x="1337.38" font-family="Gentium Book Basic" line-height="125%" word-spacing="0" letter-spacing="0" id="text358">
<tspan y="-246.37" x="1337.38" id="tspan360" />
</text>
<text transform="scale(4.0128.2492)" font-size="46.954" y="-1337.8" x="530.36" font-family="Arial" text-anchor="middle" id="text362" />
<text font-size="129.23" y="-326.37" x="1918.65" font-family="Gentium Book Basic" line-height="125%" word-spacing="0" letter-spacing="0" id="text364">
<tspan y="-326.37" x="1918.65" id="tspan366" />
</text>
<text transform="scale(4.0128.2492)" font-size="46.954" y="-1658.83" x="675.21" font-family="Arial" text-anchor="middle" id="text368" />
<text font-size="129.23" y="-798.77" x="1529.53" font-family="Gentium Book Basic" line-height="125%" word-spacing="0" letter-spacing="0" id="text370">
<tspan y="-798.77" x="1529.53" id="tspan372" />
</text>
<text transform="scale(4.0128.2492)" font-size="46.954" y="-3554.48" x="578.24" font-family="Arial" text-anchor="middle" id="text374" />
<text font-size="129.23" y="-878.78" x="2110.79" font-family="Gentium Book Basic" line-height="125%" word-spacing="0" letter-spacing="0" id="text376">
<tspan y="-878.78" x="2110.79" id="tspan378" />
</text>
<text transform="scale(4.0128.2492)" font-size="46.954" y="-3875.52" x="723.09" font-family="Arial" text-anchor="middle" id="text380" />
<g line-height="125%" word-spacing="0" letter-spacing="0" id="g382">
<text y="535.94" x="277.99" font-size="208.33" font-family="Gentium Book Basic" id="text384">
<tspan y="535.94" x="277.99" id="tspan386" />
</text>
<text y="231.36" x="729.64" font-size="129.23" font-family="'Gentium Book Basic'" id="text388">
<tspan y="231.36" x="729.64" id="tspan390" />
</text>
</g>
<text transform="scale(4.0128.2492)" font-size="46.954" y="579.26" x="378.91" font-family="Arial" text-anchor="middle" id="text392" />
<text font-size="129.23" y="151.36" x="1310.91" font-family="'Gentium Book Basic'" line-height="125%" word-spacing="0" letter-spacing="0" id="text394">
<tspan y="151.36" x="1310.91" id="tspan396" />
</text>
<text transform="scale(4.0128.2492)" font-size="46.954" y="258.22" x="523.76" font-family="Arial" text-anchor="middle" id="text398" />
<text font-size="129.23" y="-29.9" x="239.33" font-family="'Gentium Book Basic'" line-height="125%" word-spacing="0" letter-spacing="0" id="text400">
<tspan y="-29.9" x="239.33" id="tspan402" />
</text>
<text transform="scale(4.0128.2492)" font-size="46.954" y="-469.13" x="256.72" font-family="Arial" text-anchor="middle" id="text404" />
<text font-size="129.23" y="-246.37" x="1337.38" font-family="'Gentium Book Basic'" line-height="125%" word-spacing="0" letter-spacing="0" id="text406">
<tspan y="-246.37" x="1337.38" id="tspan408" />
</text>
<text transform="scale(4.0128.2492)" font-size="46.954" y="-1337.8" x="530.36" font-family="Arial" text-anchor="middle" id="text410" />
<text font-size="129.23" y="-326.37" x="1918.65" font-family="'Gentium Book Basic'" line-height="125%" word-spacing="0" letter-spacing="0" id="text412">
<tspan y="-326.37" x="1918.65" id="tspan414" />
</text>
<text transform="scale(4.0128.2492)" font-size="46.954" y="-1658.83" x="675.21" font-family="Arial" text-anchor="middle" id="text416" />
<text font-size="129.23" y="-798.77" x="1529.53" font-family="'Gentium Book Basic'" line-height="125%" word-spacing="0" letter-spacing="0" id="text418">
<tspan y="-798.77" x="1529.53" id="tspan420" />
</text>
<text transform="scale(4.0128.2492)" font-size="46.954" y="-3554.48" x="578.24" font-family="Arial" text-anchor="middle" id="text422" />
<text font-size="129.23" y="-878.78" x="2110.79" font-family="'Gentium Book Basic'" line-height="125%" word-spacing="0" letter-spacing="0" id="text424">
<tspan y="-878.78" x="2110.79" id="tspan426" />
</text>
<text transform="scale(4.0128.2492)" font-size="46.954" y="-3875.52" x="723.09" font-family="Arial" text-anchor="middle" id="text428" />
<g font-family="'Gentium Book Basic'" line-height="125%" word-spacing="0" letter-spacing="0" id="g430">
<text y="535.94" x="277.99" font-size="208.33" id="text432">
<tspan y="535.94" x="277.99" id="tspan434" />
</text>
<text y="231.36" x="729.64" font-size="129.23" id="text436">
<tspan y="231.36" x="729.64" id="tspan438" />
</text>
</g>
<text transform="scale(4.0128.2492)" font-size="46.954" y="579.26" x="378.91" font-family="Arial" text-anchor="middle" id="text440" />
<text font-size="129.23" y="151.36" x="1310.91" font-family="'Gentium Book Basic'" line-height="125%" word-spacing="0" letter-spacing="0" id="text442">
<tspan y="151.36" x="1310.91" id="tspan444" />
</text>
<text transform="scale(4.0128.2492)" font-size="46.954" y="258.22" x="523.76" font-family="Arial" text-anchor="middle" id="text446" />
<text font-size="129.23" y="-29.9" x="239.33" font-family="'Gentium Book Basic'" line-height="125%" word-spacing="0" letter-spacing="0" id="text448">
<tspan y="-29.9" x="239.33" id="tspan450" />
</text>
<text transform="scale(4.0128.2492)" font-size="46.954" y="-469.13" x="256.72" font-family="Arial" text-anchor="middle" id="text452" />
<text font-size="129.23" y="-246.37" x="1337.38" font-family="'Gentium Book Basic'" line-height="125%" word-spacing="0" letter-spacing="0" id="text454">
<tspan y="-246.37" x="1337.38" id="tspan456" />
</text>
<text transform="scale(4.0128.2492)" font-size="46.954" y="-1337.8" x="530.36" font-family="Arial" text-anchor="middle" id="text458" />
<text font-size="129.23" y="-326.37" x="1918.65" font-family="'Gentium Book Basic'" line-height="125%" word-spacing="0" letter-spacing="0" id="text460">
<tspan y="-326.37" x="1918.65" id="tspan462" />
</text>
<text transform="scale(4.0128.2492)" font-size="46.954" y="-1658.83" x="675.21" font-family="Arial" text-anchor="middle" id="text464" />
<text font-size="129.23" y="-798.77" x="1529.53" font-family="'Gentium Book Basic'" line-height="125%" word-spacing="0" letter-spacing="0" id="text466">
<tspan y="-798.77" x="1529.53" id="tspan468" />
</text>
<text transform="scale(4.0128.2492)" font-size="46.954" y="-3554.48" x="578.24" font-family="Arial" text-anchor="middle" id="text470" />
<text font-size="129.23" y="-878.78" x="2110.79" font-family="'Gentium Book Basic'" line-height="125%" word-spacing="0" letter-spacing="0" id="text472">
<tspan y="-878.78" x="2110.79" id="tspan474" />
</text>
<text transform="scale(4.0128.2492)" font-size="46.954" y="-3875.52" x="723.09" font-family="Arial" text-anchor="middle" id="text476" />
<g font-family="'Gentium Book Basic'" line-height="125%" word-spacing="0" letter-spacing="0" id="g478">
<text y="535.94" x="277.99" font-size="208.33" id="text480">
<tspan y="535.94" x="277.99" id="tspan482" />
</text>
<text y="260.32" x="13.421" font-size="129.23" id="text484">
<tspan y="260.32" x="13.421" id="tspan486" />
</text>
</g>
<text transform="scale(4.0128.2492)" font-size="46.954" y="695.45" x="200.43" font-family="Arial" text-anchor="middle" id="text488" />
<text font-size="129.23" y="180.32" x="594.69" font-family="'Gentium Book Basic'" line-height="125%" word-spacing="0" letter-spacing="0" id="text490">
<tspan y="180.32" x="594.69" id="tspan492" />
</text>
<text transform="scale(4.0128.2492)" font-size="46.954" y="374.43" x="345.27" font-family="Arial" text-anchor="middle" id="text494" />
<text font-size="129.23" y="-0.942" x="-476.89" font-family="'Gentium Book Basic'" line-height="125%" word-spacing="0" letter-spacing="0" id="text496">
<tspan y="-0.942" x="-476.89" id="tspan498" />
</text>
<text transform="scale(4.0128.2492)" font-size="46.954" y="-352.93" x="78.24" font-family="Arial" text-anchor="middle" id="text500" />
<text font-size="129.23" y="-217.41" x="621.16" font-family="'Gentium Book Basic'" line-height="125%" word-spacing="0" letter-spacing="0" id="text502">
<tspan y="-217.41" x="621.16" id="tspan504" />
</text>
<text transform="scale(4.0128.2492)" font-size="46.954" y="-1221.6" x="351.87" font-family="Arial" text-anchor="middle" id="text506" />
<text font-size="129.23" y="-297.42" x="1202.43" font-family="'Gentium Book Basic'" line-height="125%" word-spacing="0" letter-spacing="0" id="text508">
<tspan y="-297.42" x="1202.43" id="tspan510" />
</text>
<text transform="scale(4.0128.2492)" font-size="46.954" y="-1542.63" x="496.72" font-family="Arial" text-anchor="middle" id="text512" />
<text font-size="129.23" y="-769.82" x="813.31" font-family="'Gentium Book Basic'" line-height="125%" word-spacing="0" letter-spacing="0" id="text514">
<tspan y="-769.82" x="813.31" id="tspan516" />
</text>
<text transform="scale(4.0128.2492)" font-size="46.954" y="-3438.29" x="399.75" font-family="Arial" text-anchor="middle" id="text518" />
<text font-size="129.23" y="-849.82" x="1394.57" font-family="'Gentium Book Basic'" line-height="125%" word-spacing="0" letter-spacing="0" id="text520">
<tspan y="-849.82" x="1394.57" id="tspan522" />
</text>
<text transform="scale(4.0128.2492)" font-size="46.954" y="-3759.31" x="544.6" font-family="Arial" text-anchor="middle" id="text524" />
<g font-family="'Gentium Book Basic'" line-height="125%" word-spacing="0" letter-spacing="0" id="g526">
<text y="564.9" x="-438.23" font-size="208.33" id="text528">
<tspan y="564.9" x="-438.23" id="tspan530" />
</text>
<text y="260.32" x="13.421" font-size="129.23" id="text532">
<tspan y="260.32" x="13.421" id="tspan534" />
</text>
</g>
<text transform="scale(4.0128.2492)" font-size="46.954" y="695.45" x="200.43" font-family="Arial" text-anchor="middle" id="text536" />
<text font-size="129.23" y="180.32" x="594.69" font-family="'Gentium Book Basic'" line-height="125%" word-spacing="0" letter-spacing="0" id="text538">
<tspan y="180.32" x="594.69" id="tspan540" />
</text>
<text transform="scale(4.0128.2492)" font-size="46.954" y="374.43" x="345.27" font-family="Arial" text-anchor="middle" id="text542" />
<text font-size="129.23" y="-0.942" x="-476.89" font-family="'Gentium Book Basic'" line-height="125%" word-spacing="0" letter-spacing="0" id="text544">
<tspan y="-0.942" x="-476.89" id="tspan546" />
</text>
<text transform="scale(4.0128.2492)" font-size="46.954" y="-352.93" x="78.24" font-family="Arial" text-anchor="middle" id="text548" />
<text font-size="129.23" y="-217.41" x="621.16" font-family="'Gentium Book Basic'" line-height="125%" word-spacing="0" letter-spacing="0" id="text550">
<tspan y="-217.41" x="621.16" id="tspan552" />
</text>
<text transform="scale(4.0128.2492)" font-size="46.954" y="-1221.59" x="351.87" font-family="Arial" text-anchor="middle" id="text554" />
<text font-size="129.23" y="-297.42" x="1202.43" font-family="'Gentium Book Basic'" line-height="125%" word-spacing="0" letter-spacing="0" id="text556">
<tspan y="-297.42" x="1202.43" id="tspan558" />
</text>
<text transform="scale(4.0128.2492)" font-size="46.954" y="-1542.62" x="496.72" font-family="Arial" text-anchor="middle" id="text560" />
<text font-size="129.23" y="-769.82" x="813.31" font-family="'Gentium Book Basic'" line-height="125%" word-spacing="0" letter-spacing="0" id="text562">
<tspan y="-769.82" x="813.31" id="tspan564" />
</text>
<text transform="scale(4.0128.2492)" font-size="46.954" y="-3438.27" x="399.75" font-family="Arial" text-anchor="middle" id="text566" />
<text font-size="129.23" y="-849.82" x="1394.57" font-family="'Gentium Book Basic'" line-height="125%" word-spacing="0" letter-spacing="0" id="text568">
<tspan y="-849.82" x="1394.57" id="tspan570" />
</text>
<text transform="scale(4.0128.2492)" font-size="46.954" y="-3759.29" x="544.6" font-family="Arial" text-anchor="middle" id="text572" />
<text font-size="208.33" y="564.9" x="-438.23" font-family="'Gentium Book Basic'" line-height="125%" word-spacing="0" letter-spacing="0" id="text574">
<tspan y="564.9" x="-438.23" id="tspan576" />
</text>
<path style="fill:#e4a146;fill-rule:evenodd" inkscape:connector-curvature="0" id="path580" d="m 471.95,253.05 c 0,120.9 -98.01,218.91 -218.91,218.91 -120.9,0 -218.91,-98.01 -218.91,-218.91 0,-120.9 98.01,-218.91 218.91,-218.91 120.9,0 218.91,98.01 218.91,218.91" />
<text font-size="129.23" y="231.36" x="729.64" font-family="'Gentium Book Basic'" line-height="125%" word-spacing="0" letter-spacing="0" id="text594">
<tspan y="231.36" x="729.64" id="tspan596" />
</text>
<text transform="scale(4.0128.2492)" font-size="46.954" y="579.26" x="378.91" font-family="Arial" text-anchor="middle" id="text598" />
<text font-size="129.23" y="151.36" x="1310.91" font-family="'Gentium Book Basic'" line-height="125%" word-spacing="0" letter-spacing="0" id="text600">
<tspan y="151.36" x="1310.91" id="tspan602" />
</text>
<text transform="scale(4.0128.2492)" font-size="46.954" y="258.22" x="523.76" font-family="Arial" text-anchor="middle" id="text604" />
<text font-size="129.23" y="-29.9" x="239.33" font-family="'Gentium Book Basic'" line-height="125%" word-spacing="0" letter-spacing="0" id="text606">
<tspan y="-29.9" x="239.33" id="tspan608" />
</text>
<text transform="scale(4.0128.2492)" font-size="46.954" y="-469.13" x="256.72" font-family="Arial" text-anchor="middle" id="text610" />
<text font-size="129.23" y="-246.37" x="1337.38" font-family="'Gentium Book Basic'" line-height="125%" word-spacing="0" letter-spacing="0" id="text612">
<tspan y="-246.37" x="1337.38" id="tspan614" />
</text>
<text transform="scale(4.0128.2492)" font-size="46.954" y="-1337.79" x="530.36" font-family="Arial" text-anchor="middle" id="text616" />
<text font-size="129.23" y="-326.37" x="1918.65" font-family="'Gentium Book Basic'" line-height="125%" word-spacing="0" letter-spacing="0" id="text618">
<tspan y="-326.37" x="1918.65" id="tspan620" />
</text>
<text transform="scale(4.0128.2492)" font-size="46.954" y="-1658.82" x="675.21" font-family="Arial" text-anchor="middle" id="text622" />
<text font-size="129.23" y="-798.77" x="1529.53" font-family="'Gentium Book Basic'" line-height="125%" word-spacing="0" letter-spacing="0" id="text624">
<tspan y="-798.77" x="1529.53" id="tspan626" />
</text>
<text transform="scale(4.0128.2492)" font-size="46.954" y="-3554.46" x="578.24" font-family="Arial" text-anchor="middle" id="text628" />
<text font-size="129.23" y="-878.78" x="2110.79" font-family="'Gentium Book Basic'" line-height="125%" word-spacing="0" letter-spacing="0" id="text630">
<tspan y="-878.78" x="2110.79" id="tspan632" />
</text>
<text transform="scale(4.0128.2492)" font-size="46.954" y="-3875.5" x="723.09" font-family="Arial" text-anchor="middle" id="text634" />
<text font-size="208.33" y="535.94" x="277.99" font-family="'Gentium Book Basic'" line-height="125%" word-spacing="0" letter-spacing="0" id="text636">
<tspan y="535.94" x="277.99" id="tspan638" />
</text>
<g fill="#fff" id="g640">
<path d="m289.75 202.31a33.749 33.749 0 1 1 -67.499 0 33.749 33.749 0 1 1 67.499 0" id="path642" />
<path d="m180.94 103.5c-21.96 0-39.625 17.696-39.625 39.656v225.69c0 21.96 17.665 39.656 39.625 39.656h150.13c21.96 0 39.625-17.696 39.625-39.656v-225.69c0-21.96-17.665-39.656-39.625-39.656h-150.12m75.06 26.719c39.82 0 72.09 32.27 72.09 72.09s-32.27 72.09-72.09 72.09-72.09-32.27-72.09-72.09 32.27-72.09 72.09-72.09m-59.44 200.19c12.285 0 22.22 9.965 22.22 22.25s-9.934 22.22-22.22 22.22c-12.285 0-22.25-9.934-22.25-22.22 0-12.285 9.965-22.25 22.25-22.25m118.88 0c12.285 0 22.25 9.965 22.25 22.25s-9.965 22.22-22.25 22.22-22.25-9.934-22.25-22.22c0-12.285 9.965-22.25 22.25-22.25" fill-rule="evenodd" id="path644" />
</g>
</svg>
