<?xml version="1.0" encoding="UTF-8" standalone="no"?>
<svg xmlns:dc="http://purl.org/dc/elements/1.1/" xmlns:cc="http://creativecommons.org/ns#" xmlns:rdf="http://www.w3.org/1999/02/22-rdf-syntax-ns#" xmlns:svg="http://www.w3.org/2000/svg" xmlns="http://www.w3.org/2000/svg" xmlns:sodipodi="http://sodipodi.sourceforge.net/DTD/sodipodi-0.dtd" xmlns:inkscape="http://www.inkscape.org/namespaces/inkscape" viewBox="0 0 512 512" id="svg1680" version="1.1" inkscape:version="0.91 r" sodipodi:docname="rubymine.svg">
<metadata id="metadata2372">
<rdf:RDF>
<cc:Work rdf:about="">
<dc:format>image/svg+xml</dc:format>
<dc:type rdf:resource="http://purl.org/dc/dcmitype/StillImage" />
</cc:Work>
</rdf:RDF>
</metadata>
<defs id="defs2370" />
<sodipodi:namedview pagecolor="#ffffff" bordercolor="#666666" borderopacity="1" objecttolerance="10" gridtolerance="10" guidetolerance="10" inkscape:pageopacity="0" inkscape:pageshadow="2" inkscape:window-width="640" inkscape:window-height="480" id="namedview2368" showgrid="false" inkscape:zoom="0.4609375" inkscape:cx="256" inkscape:cy="256" inkscape:window-x="0" inkscape:window-y="0" inkscape:window-maximized="0" inkscape:current-layer="svg1680" />
<text font-size="129.23" y="231.36" x="729.64" font-family="Gentium Book Basic" line-height="125%" word-spacing="0" letter-spacing="0" id="text1682">
<tspan y="231.36" x="729.64" id="tspan1684" />
</text>
<text transform="scale(4.0128.2492)" font-size="46.954" y="579.26" x="378.91" font-family="Arial" text-anchor="middle" id="text1686" />
<text font-size="129.23" y="151.36" x="1310.91" font-family="Gentium Book Basic" line-height="125%" word-spacing="0" letter-spacing="0" id="text1688">
<tspan y="151.36" x="1310.91" id="tspan1690" />
</text>
<text transform="scale(4.0128.2492)" font-size="46.954" y="258.22" x="523.76" font-family="Arial" text-anchor="middle" id="text1692" />
<text font-size="129.23" y="-29.9" x="239.33" font-family="Gentium Book Basic" line-height="125%" word-spacing="0" letter-spacing="0" id="text1694">
<tspan y="-29.9" x="239.33" id="tspan1696" />
</text>
<text transform="scale(4.0128.2492)" font-size="46.954" y="-469.13" x="256.72" font-family="Arial" text-anchor="middle" id="text1698" />
<text font-size="129.23" y="-246.37" x="1337.38" font-family="Gentium Book Basic" line-height="125%" word-spacing="0" letter-spacing="0" id="text1700">
<tspan y="-246.37" x="1337.38" id="tspan1702" />
</text>
<text transform="scale(4.0128.2492)" font-size="46.954" y="-1337.8" x="530.36" font-family="Arial" text-anchor="middle" id="text1704" />
<text font-size="129.23" y="-326.37" x="1918.65" font-family="Gentium Book Basic" line-height="125%" word-spacing="0" letter-spacing="0" id="text1706">
<tspan y="-326.37" x="1918.65" id="tspan1708" />
</text>
<text transform="scale(4.0128.2492)" font-size="46.954" y="-1658.83" x="675.21" font-family="Arial" text-anchor="middle" id="text1710" />
<text font-size="129.23" y="-798.77" x="1529.53" font-family="Gentium Book Basic" line-height="125%" word-spacing="0" letter-spacing="0" id="text1712">
<tspan y="-798.77" x="1529.53" id="tspan1714" />
</text>
<text transform="scale(4.0128.2492)" font-size="46.954" y="-3554.48" x="578.24" font-family="Arial" text-anchor="middle" id="text1716" />
<text font-size="129.23" y="-878.78" x="2110.79" font-family="Gentium Book Basic" line-height="125%" word-spacing="0" letter-spacing="0" id="text1718">
<tspan y="-878.78" x="2110.79" id="tspan1720" />
</text>
<text transform="scale(4.0128.2492)" font-size="46.954" y="-3875.52" x="723.09" font-family="Arial" text-anchor="middle" id="text1722" />
<g line-height="125%" word-spacing="0" letter-spacing="0" id="g1724">
<text y="535.94" x="277.99" font-size="208.33" font-family="Gentium Book Basic" id="text1726">
<tspan y="535.94" x="277.99" id="tspan1728" />
</text>
<text y="231.36" x="729.64" font-size="129.23" font-family="'Gentium Book Basic'" id="text1730">
<tspan y="231.36" x="729.64" id="tspan1732" />
</text>
</g>
<text transform="scale(4.0128.2492)" font-size="46.954" y="579.26" x="378.91" font-family="Arial" text-anchor="middle" id="text1734" />
<text font-size="129.23" y="151.36" x="1310.91" font-family="'Gentium Book Basic'" line-height="125%" word-spacing="0" letter-spacing="0" id="text1736">
<tspan y="151.36" x="1310.91" id="tspan1738" />
</text>
<text transform="scale(4.0128.2492)" font-size="46.954" y="258.22" x="523.76" font-family="Arial" text-anchor="middle" id="text1740" />
<text font-size="129.23" y="-29.9" x="239.33" font-family="'Gentium Book Basic'" line-height="125%" word-spacing="0" letter-spacing="0" id="text1742">
<tspan y="-29.9" x="239.33" id="tspan1744" />
</text>
<text transform="scale(4.0128.2492)" font-size="46.954" y="-469.13" x="256.72" font-family="Arial" text-anchor="middle" id="text1746" />
<text font-size="129.23" y="-246.37" x="1337.38" font-family="'Gentium Book Basic'" line-height="125%" word-spacing="0" letter-spacing="0" id="text1748">
<tspan y="-246.37" x="1337.38" id="tspan1750" />
</text>
<text transform="scale(4.0128.2492)" font-size="46.954" y="-1337.8" x="530.36" font-family="Arial" text-anchor="middle" id="text1752" />
<text font-size="129.23" y="-326.37" x="1918.65" font-family="'Gentium Book Basic'" line-height="125%" word-spacing="0" letter-spacing="0" id="text1754">
<tspan y="-326.37" x="1918.65" id="tspan1756" />
</text>
<text transform="scale(4.0128.2492)" font-size="46.954" y="-1658.83" x="675.21" font-family="Arial" text-anchor="middle" id="text1758" />
<text font-size="129.23" y="-798.77" x="1529.53" font-family="'Gentium Book Basic'" line-height="125%" word-spacing="0" letter-spacing="0" id="text1760">
<tspan y="-798.77" x="1529.53" id="tspan1762" />
</text>
<text transform="scale(4.0128.2492)" font-size="46.954" y="-3554.48" x="578.24" font-family="Arial" text-anchor="middle" id="text1764" />
<text font-size="129.23" y="-878.78" x="2110.79" font-family="'Gentium Book Basic'" line-height="125%" word-spacing="0" letter-spacing="0" id="text1766">
<tspan y="-878.78" x="2110.79" id="tspan1768" />
</text>
<text transform="scale(4.0128.2492)" font-size="46.954" y="-3875.52" x="723.09" font-family="Arial" text-anchor="middle" id="text1770" />
<g font-family="'Gentium Book Basic'" line-height="125%" word-spacing="0" letter-spacing="0" id="g1772">
<text y="535.94" x="277.99" font-size="208.33" id="text1774">
<tspan y="535.94" x="277.99" id="tspan1776" />
</text>
<text y="231.36" x="729.64" font-size="129.23" id="text1778">
<tspan y="231.36" x="729.64" id="tspan1780" />
</text>
</g>
<text transform="scale(4.0128.2492)" font-size="46.954" y="579.26" x="378.91" font-family="Arial" text-anchor="middle" id="text1782" />
<text font-size="129.23" y="151.36" x="1310.91" font-family="'Gentium Book Basic'" line-height="125%" word-spacing="0" letter-spacing="0" id="text1784">
<tspan y="151.36" x="1310.91" id="tspan1786" />
</text>
<text transform="scale(4.0128.2492)" font-size="46.954" y="258.22" x="523.76" font-family="Arial" text-anchor="middle" id="text1788" />
<text font-size="129.23" y="-29.9" x="239.33" font-family="'Gentium Book Basic'" line-height="125%" word-spacing="0" letter-spacing="0" id="text1790">
<tspan y="-29.9" x="239.33" id="tspan1792" />
</text>
<text transform="scale(4.0128.2492)" font-size="46.954" y="-469.13" x="256.72" font-family="Arial" text-anchor="middle" id="text1794" />
<text font-size="129.23" y="-246.37" x="1337.38" font-family="'Gentium Book Basic'" line-height="125%" word-spacing="0" letter-spacing="0" id="text1796">
<tspan y="-246.37" x="1337.38" id="tspan1798" />
</text>
<text transform="scale(4.0128.2492)" font-size="46.954" y="-1337.8" x="530.36" font-family="Arial" text-anchor="middle" id="text1800" />
<text font-size="129.23" y="-326.37" x="1918.65" font-family="'Gentium Book Basic'" line-height="125%" word-spacing="0" letter-spacing="0" id="text1802">
<tspan y="-326.37" x="1918.65" id="tspan1804" />
</text>
<text transform="scale(4.0128.2492)" font-size="46.954" y="-1658.83" x="675.21" font-family="Arial" text-anchor="middle" id="text1806" />
<text font-size="129.23" y="-798.77" x="1529.53" font-family="'Gentium Book Basic'" line-height="125%" word-spacing="0" letter-spacing="0" id="text1808">
<tspan y="-798.77" x="1529.53" id="tspan1810" />
</text>
<text transform="scale(4.0128.2492)" font-size="46.954" y="-3554.48" x="578.24" font-family="Arial" text-anchor="middle" id="text1812" />
<text font-size="129.23" y="-878.78" x="2110.79" font-family="'Gentium Book Basic'" line-height="125%" word-spacing="0" letter-spacing="0" id="text1814">
<tspan y="-878.78" x="2110.79" id="tspan1816" />
</text>
<text transform="scale(4.0128.2492)" font-size="46.954" y="-3875.52" x="723.09" font-family="Arial" text-anchor="middle" id="text1818" />
<g font-family="'Gentium Book Basic'" line-height="125%" word-spacing="0" letter-spacing="0" id="g1820">
<text y="535.94" x="277.99" font-size="208.33" id="text1822">
<tspan y="535.94" x="277.99" id="tspan1824" />
</text>
<text y="260.32" x="13.421" font-size="129.23" id="text1826">
<tspan y="260.32" x="13.421" id="tspan1828" />
</text>
</g>
<text transform="scale(4.0128.2492)" font-size="46.954" y="695.45" x="200.43" font-family="Arial" text-anchor="middle" id="text1830" />
<text font-size="129.23" y="180.32" x="594.69" font-family="'Gentium Book Basic'" line-height="125%" word-spacing="0" letter-spacing="0" id="text1832">
<tspan y="180.32" x="594.69" id="tspan1834" />
</text>
<text transform="scale(4.0128.2492)" font-size="46.954" y="374.43" x="345.27" font-family="Arial" text-anchor="middle" id="text1836" />
<text font-size="129.23" y="-0.942" x="-476.89" font-family="'Gentium Book Basic'" line-height="125%" word-spacing="0" letter-spacing="0" id="text1838">
<tspan y="-0.942" x="-476.89" id="tspan1840" />
</text>
<text transform="scale(4.0128.2492)" font-size="46.954" y="-352.93" x="78.24" font-family="Arial" text-anchor="middle" id="text1842" />
<text font-size="129.23" y="-217.41" x="621.16" font-family="'Gentium Book Basic'" line-height="125%" word-spacing="0" letter-spacing="0" id="text1844">
<tspan y="-217.41" x="621.16" id="tspan1846" />
</text>
<text transform="scale(4.0128.2492)" font-size="46.954" y="-1221.6" x="351.87" font-family="Arial" text-anchor="middle" id="text1848" />
<text font-size="129.23" y="-297.42" x="1202.43" font-family="'Gentium Book Basic'" line-height="125%" word-spacing="0" letter-spacing="0" id="text1850">
<tspan y="-297.42" x="1202.43" id="tspan1852" />
</text>
<text transform="scale(4.0128.2492)" font-size="46.954" y="-1542.63" x="496.72" font-family="Arial" text-anchor="middle" id="text1854" />
<text font-size="129.23" y="-769.82" x="813.31" font-family="'Gentium Book Basic'" line-height="125%" word-spacing="0" letter-spacing="0" id="text1856">
<tspan y="-769.82" x="813.31" id="tspan1858" />
</text>
<text transform="scale(4.0128.2492)" font-size="46.954" y="-3438.29" x="399.75" font-family="Arial" text-anchor="middle" id="text1860" />
<text font-size="129.23" y="-849.82" x="1394.57" font-family="'Gentium Book Basic'" line-height="125%" word-spacing="0" letter-spacing="0" id="text1862">
<tspan y="-849.82" x="1394.57" id="tspan1864" />
</text>
<text transform="scale(4.0128.2492)" font-size="46.954" y="-3759.31" x="544.6" font-family="Arial" text-anchor="middle" id="text1866" />
<g font-family="'Gentium Book Basic'" line-height="125%" word-spacing="0" letter-spacing="0" id="g1868">
<text y="564.9" x="-438.23" font-size="208.33" id="text1870">
<tspan y="564.9" x="-438.23" id="tspan1872" />
</text>
<text y="260.32" x="13.421" font-size="129.23" id="text1874">
<tspan y="260.32" x="13.421" id="tspan1876" />
</text>
</g>
<text transform="scale(4.0128.2492)" font-size="46.954" y="695.45" x="200.43" font-family="Arial" text-anchor="middle" id="text1878" />
<text font-size="129.23" y="180.32" x="594.69" font-family="'Gentium Book Basic'" line-height="125%" word-spacing="0" letter-spacing="0" id="text1880">
<tspan y="180.32" x="594.69" id="tspan1882" />
</text>
<text transform="scale(4.0128.2492)" font-size="46.954" y="374.43" x="345.27" font-family="Arial" text-anchor="middle" id="text1884" />
<text font-size="129.23" y="-0.942" x="-476.89" font-family="'Gentium Book Basic'" line-height="125%" word-spacing="0" letter-spacing="0" id="text1886">
<tspan y="-0.942" x="-476.89" id="tspan1888" />
</text>
<text transform="scale(4.0128.2492)" font-size="46.954" y="-352.93" x="78.24" font-family="Arial" text-anchor="middle" id="text1890" />
<text font-size="129.23" y="-217.41" x="621.16" font-family="'Gentium Book Basic'" line-height="125%" word-spacing="0" letter-spacing="0" id="text1892">
<tspan y="-217.41" x="621.16" id="tspan1894" />
</text>
<text transform="scale(4.0128.2492)" font-size="46.954" y="-1221.59" x="351.87" font-family="Arial" text-anchor="middle" id="text1896" />
<text font-size="129.23" y="-297.42" x="1202.43" font-family="'Gentium Book Basic'" line-height="125%" word-spacing="0" letter-spacing="0" id="text1898">
<tspan y="-297.42" x="1202.43" id="tspan1900" />
</text>
<text transform="scale(4.0128.2492)" font-size="46.954" y="-1542.62" x="496.72" font-family="Arial" text-anchor="middle" id="text1902" />
<text font-size="129.23" y="-769.82" x="813.31" font-family="'Gentium Book Basic'" line-height="125%" word-spacing="0" letter-spacing="0" id="text1904">
<tspan y="-769.82" x="813.31" id="tspan1906" />
</text>
<text transform="scale(4.0128.2492)" font-size="46.954" y="-3438.27" x="399.75" font-family="Arial" text-anchor="middle" id="text1908" />
<text font-size="129.23" y="-849.82" x="1394.57" font-family="'Gentium Book Basic'" line-height="125%" word-spacing="0" letter-spacing="0" id="text1910">
<tspan y="-849.82" x="1394.57" id="tspan1912" />
</text>
<text transform="scale(4.0128.2492)" font-size="46.954" y="-3759.29" x="544.6" font-family="Arial" text-anchor="middle" id="text1914" />
<g font-family="'Gentium Book Basic'" line-height="125%" word-spacing="0" letter-spacing="0" id="g1916">
<text y="564.9" x="-438.23" font-size="208.33" id="text1918">
<tspan y="564.9" x="-438.23" id="tspan1920" />
</text>
<text y="231.36" x="729.64" font-size="129.23" id="text1922">
<tspan y="231.36" x="729.64" id="tspan1924" />
</text>
</g>
<text transform="scale(4.0128.2492)" font-size="46.954" y="579.26" x="378.91" font-family="Arial" text-anchor="middle" id="text1926" />
<text font-size="129.23" y="151.36" x="1310.91" font-family="'Gentium Book Basic'" line-height="125%" word-spacing="0" letter-spacing="0" id="text1928">
<tspan y="151.36" x="1310.91" id="tspan1930" />
</text>
<text transform="scale(4.0128.2492)" font-size="46.954" y="258.22" x="523.76" font-family="Arial" text-anchor="middle" id="text1932" />
<text font-size="129.23" y="-29.9" x="239.33" font-family="'Gentium Book Basic'" line-height="125%" word-spacing="0" letter-spacing="0" id="text1934">
<tspan y="-29.9" x="239.33" id="tspan1936" />
</text>
<text transform="scale(4.0128.2492)" font-size="46.954" y="-469.13" x="256.72" font-family="Arial" text-anchor="middle" id="text1938" />
<text font-size="129.23" y="-246.37" x="1337.38" font-family="'Gentium Book Basic'" line-height="125%" word-spacing="0" letter-spacing="0" id="text1940">
<tspan y="-246.37" x="1337.38" id="tspan1942" />
</text>
<text transform="scale(4.0128.2492)" font-size="46.954" y="-1337.79" x="530.36" font-family="Arial" text-anchor="middle" id="text1944" />
<text font-size="129.23" y="-326.37" x="1918.65" font-family="'Gentium Book Basic'" line-height="125%" word-spacing="0" letter-spacing="0" id="text1946">
<tspan y="-326.37" x="1918.65" id="tspan1948" />
</text>
<text transform="scale(4.0128.2492)" font-size="46.954" y="-1658.82" x="675.21" font-family="Arial" text-anchor="middle" id="text1950" />
<text font-size="129.23" y="-798.77" x="1529.53" font-family="'Gentium Book Basic'" line-height="125%" word-spacing="0" letter-spacing="0" id="text1952">
<tspan y="-798.77" x="1529.53" id="tspan1954" />
</text>
<text transform="scale(4.0128.2492)" font-size="46.954" y="-3554.46" x="578.24" font-family="Arial" text-anchor="middle" id="text1956" />
<text font-size="129.23" y="-878.78" x="2110.79" font-family="'Gentium Book Basic'" line-height="125%" word-spacing="0" letter-spacing="0" id="text1958">
<tspan y="-878.78" x="2110.79" id="tspan1960" />
</text>
<text transform="scale(4.0128.2492)" font-size="46.954" y="-3875.5" x="723.09" font-family="Arial" text-anchor="middle" id="text1962" />
<g font-family="'Gentium Book Basic'" line-height="125%" word-spacing="0" letter-spacing="0" id="g1964">
<text y="535.94" x="277.99" font-size="208.33" id="text1966">
<tspan y="535.94" x="277.99" id="tspan1968" />
</text>
<text y="231.36" x="729.64" font-size="129.23" id="text1970">
<tspan y="231.36" x="729.64" id="tspan1972" />
</text>
</g>
<text transform="scale(4.0128.2492)" font-size="46.954" y="579.26" x="378.91" font-family="Arial" text-anchor="middle" id="text1974" />
<text font-size="129.23" y="151.36" x="1310.91" font-family="'Gentium Book Basic'" line-height="125%" word-spacing="0" letter-spacing="0" id="text1976">
<tspan y="151.36" x="1310.91" id="tspan1978" />
</text>
<text transform="scale(4.0128.2492)" font-size="46.954" y="258.22" x="523.76" font-family="Arial" text-anchor="middle" id="text1980" />
<text font-size="129.23" y="-29.9" x="239.33" font-family="'Gentium Book Basic'" line-height="125%" word-spacing="0" letter-spacing="0" id="text1982">
<tspan y="-29.9" x="239.33" id="tspan1984" />
</text>
<text transform="scale(4.0128.2492)" font-size="46.954" y="-469.13" x="256.72" font-family="Arial" text-anchor="middle" id="text1986" />
<text font-size="129.23" y="-246.37" x="1337.38" font-family="'Gentium Book Basic'" line-height="125%" word-spacing="0" letter-spacing="0" id="text1988">
<tspan y="-246.37" x="1337.38" id="tspan1990" />
</text>
<text transform="scale(4.0128.2492)" font-size="46.954" y="-1337.8" x="530.36" font-family="Arial" text-anchor="middle" id="text1992" />
<text font-size="129.23" y="-326.37" x="1918.65" font-family="'Gentium Book Basic'" line-height="125%" word-spacing="0" letter-spacing="0" id="text1994">
<tspan y="-326.37" x="1918.65" id="tspan1996" />
</text>
<text transform="scale(4.0128.2492)" font-size="46.954" y="-1658.83" x="675.21" font-family="Arial" text-anchor="middle" id="text1998" />
<text font-size="129.23" y="-798.77" x="1529.53" font-family="'Gentium Book Basic'" line-height="125%" word-spacing="0" letter-spacing="0" id="text2000">
<tspan y="-798.77" x="1529.53" id="tspan2002" />
</text>
<text transform="scale(4.0128.2492)" font-size="46.954" y="-3554.48" x="578.24" font-family="Arial" text-anchor="middle" id="text2004" />
<text font-size="129.23" y="-878.78" x="2110.79" font-family="'Gentium Book Basic'" line-height="125%" word-spacing="0" letter-spacing="0" id="text2006">
<tspan y="-878.78" x="2110.79" id="tspan2008" />
</text>
<text transform="scale(4.0128.2492)" font-size="46.954" y="-3875.52" x="723.09" font-family="Arial" text-anchor="middle" id="text2010" />
<g font-family="'Gentium Book Basic'" line-height="125%" word-spacing="0" letter-spacing="0" id="g2012">
<text y="535.94" x="277.99" font-size="208.33" id="text2014">
<tspan y="535.94" x="277.99" id="tspan2016" />
</text>
<text y="231.36" x="729.64" font-size="129.23" id="text2018">
<tspan y="231.36" x="729.64" id="tspan2020" />
</text>
</g>
<text transform="scale(4.0128.2492)" font-size="46.954" y="579.26" x="378.91" font-family="Arial" text-anchor="middle" id="text2022" />
<text font-size="129.23" y="151.36" x="1310.91" font-family="'Gentium Book Basic'" line-height="125%" word-spacing="0" letter-spacing="0" id="text2024">
<tspan y="151.36" x="1310.91" id="tspan2026" />
</text>
<text transform="scale(4.0128.2492)" font-size="46.954" y="258.22" x="523.76" font-family="Arial" text-anchor="middle" id="text2028" />
<text font-size="129.23" y="-29.9" x="239.33" font-family="'Gentium Book Basic'" line-height="125%" word-spacing="0" letter-spacing="0" id="text2030">
<tspan y="-29.9" x="239.33" id="tspan2032" />
</text>
<text transform="scale(4.0128.2492)" font-size="46.954" y="-469.13" x="256.72" font-family="Arial" text-anchor="middle" id="text2034" />
<text font-size="129.23" y="-246.37" x="1337.38" font-family="'Gentium Book Basic'" line-height="125%" word-spacing="0" letter-spacing="0" id="text2036">
<tspan y="-246.37" x="1337.38" id="tspan2038" />
</text>
<text transform="scale(4.0128.2492)" font-size="46.954" y="-1337.8" x="530.36" font-family="Arial" text-anchor="middle" id="text2040" />
<text font-size="129.23" y="-326.37" x="1918.65" font-family="'Gentium Book Basic'" line-height="125%" word-spacing="0" letter-spacing="0" id="text2042">
<tspan y="-326.37" x="1918.65" id="tspan2044" />
</text>
<text transform="scale(4.0128.2492)" font-size="46.954" y="-1658.83" x="675.21" font-family="Arial" text-anchor="middle" id="text2046" />
<text font-size="129.23" y="-798.77" x="1529.53" font-family="'Gentium Book Basic'" line-height="125%" word-spacing="0" letter-spacing="0" id="text2048">
<tspan y="-798.77" x="1529.53" id="tspan2050" />
</text>
<text transform="scale(4.0128.2492)" font-size="46.954" y="-3554.48" x="578.24" font-family="Arial" text-anchor="middle" id="text2052" />
<text font-size="129.23" y="-878.78" x="2110.79" font-family="'Gentium Book Basic'" line-height="125%" word-spacing="0" letter-spacing="0" id="text2054">
<tspan y="-878.78" x="2110.79" id="tspan2056" />
</text>
<text transform="scale(4.0128.2492)" font-size="46.954" y="-3875.52" x="723.09" font-family="Arial" text-anchor="middle" id="text2058" />
<g font-family="'Gentium Book Basic'" line-height="125%" word-spacing="0" letter-spacing="0" id="g2060">
<text y="535.94" x="277.99" font-size="208.33" id="text2062">
<tspan y="535.94" x="277.99" id="tspan2064" />
</text>
<text y="260.32" x="13.421" font-size="129.23" id="text2066">
<tspan y="260.32" x="13.421" id="tspan2068" />
</text>
</g>
<text transform="scale(4.0128.2492)" font-size="46.954" y="695.45" x="200.43" font-family="Arial" text-anchor="middle" id="text2070" />
<text font-size="129.23" y="180.32" x="594.69" font-family="'Gentium Book Basic'" line-height="125%" word-spacing="0" letter-spacing="0" id="text2072">
<tspan y="180.32" x="594.69" id="tspan2074" />
</text>
<text transform="scale(4.0128.2492)" font-size="46.954" y="374.43" x="345.27" font-family="Arial" text-anchor="middle" id="text2076" />
<text font-size="129.23" y="-0.942" x="-476.89" font-family="'Gentium Book Basic'" line-height="125%" word-spacing="0" letter-spacing="0" id="text2078">
<tspan y="-0.942" x="-476.89" id="tspan2080" />
</text>
<text transform="scale(4.0128.2492)" font-size="46.954" y="-352.93" x="78.24" font-family="Arial" text-anchor="middle" id="text2082" />
<text font-size="129.23" y="-217.41" x="621.16" font-family="'Gentium Book Basic'" line-height="125%" word-spacing="0" letter-spacing="0" id="text2084">
<tspan y="-217.41" x="621.16" id="tspan2086" />
</text>
<text transform="scale(4.0128.2492)" font-size="46.954" y="-1221.6" x="351.87" font-family="Arial" text-anchor="middle" id="text2088" />
<text font-size="129.23" y="-297.42" x="1202.43" font-family="'Gentium Book Basic'" line-height="125%" word-spacing="0" letter-spacing="0" id="text2090">
<tspan y="-297.42" x="1202.43" id="tspan2092" />
</text>
<text transform="scale(4.0128.2492)" font-size="46.954" y="-1542.63" x="496.72" font-family="Arial" text-anchor="middle" id="text2094" />
<text font-size="129.23" y="-769.82" x="813.31" font-family="'Gentium Book Basic'" line-height="125%" word-spacing="0" letter-spacing="0" id="text2096">
<tspan y="-769.82" x="813.31" id="tspan2098" />
</text>
<text transform="scale(4.0128.2492)" font-size="46.954" y="-3438.29" x="399.75" font-family="Arial" text-anchor="middle" id="text2100" />
<text font-size="129.23" y="-849.82" x="1394.57" font-family="'Gentium Book Basic'" line-height="125%" word-spacing="0" letter-spacing="0" id="text2102">
<tspan y="-849.82" x="1394.57" id="tspan2104" />
</text>
<text transform="scale(4.0128.2492)" font-size="46.954" y="-3759.31" x="544.6" font-family="Arial" text-anchor="middle" id="text2106" />
<g font-family="'Gentium Book Basic'" line-height="125%" word-spacing="0" letter-spacing="0" id="g2108">
<text y="564.9" x="-438.23" font-size="208.33" id="text2110">
<tspan y="564.9" x="-438.23" id="tspan2112" />
</text>
<text y="260.32" x="13.421" font-size="129.23" id="text2114">
<tspan y="260.32" x="13.421" id="tspan2116" />
</text>
</g>
<text transform="scale(4.0128.2492)" font-size="46.954" y="695.45" x="200.43" font-family="Arial" text-anchor="middle" id="text2118" />
<text font-size="129.23" y="180.32" x="594.69" font-family="'Gentium Book Basic'" line-height="125%" word-spacing="0" letter-spacing="0" id="text2120">
<tspan y="180.32" x="594.69" id="tspan2122" />
</text>
<text transform="scale(4.0128.2492)" font-size="46.954" y="374.43" x="345.27" font-family="Arial" text-anchor="middle" id="text2124" />
<text font-size="129.23" y="-0.942" x="-476.89" font-family="'Gentium Book Basic'" line-height="125%" word-spacing="0" letter-spacing="0" id="text2126">
<tspan y="-0.942" x="-476.89" id="tspan2128" />
</text>
<text transform="scale(4.0128.2492)" font-size="46.954" y="-352.93" x="78.24" font-family="Arial" text-anchor="middle" id="text2130" />
<text font-size="129.23" y="-217.41" x="621.16" font-family="'Gentium Book Basic'" line-height="125%" word-spacing="0" letter-spacing="0" id="text2132">
<tspan y="-217.41" x="621.16" id="tspan2134" />
</text>
<text transform="scale(4.0128.2492)" font-size="46.954" y="-1221.59" x="351.87" font-family="Arial" text-anchor="middle" id="text2136" />
<text font-size="129.23" y="-297.42" x="1202.43" font-family="'Gentium Book Basic'" line-height="125%" word-spacing="0" letter-spacing="0" id="text2138">
<tspan y="-297.42" x="1202.43" id="tspan2140" />
</text>
<text transform="scale(4.0128.2492)" font-size="46.954" y="-1542.62" x="496.72" font-family="Arial" text-anchor="middle" id="text2142" />
<text font-size="129.23" y="-769.82" x="813.31" font-family="'Gentium Book Basic'" line-height="125%" word-spacing="0" letter-spacing="0" id="text2144">
<tspan y="-769.82" x="813.31" id="tspan2146" />
</text>
<text transform="scale(4.0128.2492)" font-size="46.954" y="-3438.27" x="399.75" font-family="Arial" text-anchor="middle" id="text2148" />
<text font-size="129.23" y="-849.82" x="1394.57" font-family="'Gentium Book Basic'" line-height="125%" word-spacing="0" letter-spacing="0" id="text2150">
<tspan y="-849.82" x="1394.57" id="tspan2152" />
</text>
<text transform="scale(4.0128.2492)" font-size="46.954" y="-3759.29" x="544.6" font-family="Arial" text-anchor="middle" id="text2154" />
<g font-family="'Gentium Book Basic'" line-height="125%" word-spacing="0" letter-spacing="0" id="g2156">
<text y="564.9" x="-438.23" font-size="208.33" id="text2158">
<tspan y="564.9" x="-438.23" id="tspan2160" />
</text>
<text y="231.36" x="729.64" font-size="129.23" id="text2162">
<tspan y="231.36" x="729.64" id="tspan2164" />
</text>
</g>
<text transform="scale(4.0128.2492)" font-size="46.954" y="579.26" x="378.91" font-family="Arial" text-anchor="middle" id="text2166" />
<text font-size="129.23" y="151.36" x="1310.91" font-family="'Gentium Book Basic'" line-height="125%" word-spacing="0" letter-spacing="0" id="text2168">
<tspan y="151.36" x="1310.91" id="tspan2170" />
</text>
<text transform="scale(4.0128.2492)" font-size="46.954" y="258.22" x="523.76" font-family="Arial" text-anchor="middle" id="text2172" />
<text font-size="129.23" y="-29.9" x="239.33" font-family="'Gentium Book Basic'" line-height="125%" word-spacing="0" letter-spacing="0" id="text2174">
<tspan y="-29.9" x="239.33" id="tspan2176" />
</text>
<text transform="scale(4.0128.2492)" font-size="46.954" y="-469.13" x="256.72" font-family="Arial" text-anchor="middle" id="text2178" />
<text font-size="129.23" y="-246.37" x="1337.38" font-family="'Gentium Book Basic'" line-height="125%" word-spacing="0" letter-spacing="0" id="text2180">
<tspan y="-246.37" x="1337.38" id="tspan2182" />
</text>
<text transform="scale(4.0128.2492)" font-size="46.954" y="-1337.8" x="530.36" font-family="Arial" text-anchor="middle" id="text2184" />
<text font-size="129.23" y="-326.37" x="1918.65" font-family="'Gentium Book Basic'" line-height="125%" word-spacing="0" letter-spacing="0" id="text2186">
<tspan y="-326.37" x="1918.65" id="tspan2188" />
</text>
<text transform="scale(4.0128.2492)" font-size="46.954" y="-1658.83" x="675.21" font-family="Arial" text-anchor="middle" id="text2190" />
<text font-size="129.23" y="-798.77" x="1529.53" font-family="'Gentium Book Basic'" line-height="125%" word-spacing="0" letter-spacing="0" id="text2192">
<tspan y="-798.77" x="1529.53" id="tspan2194" />
</text>
<text transform="scale(4.0128.2492)" font-size="46.954" y="-3554.48" x="578.24" font-family="Arial" text-anchor="middle" id="text2196" />
<text font-size="129.23" y="-878.78" x="2110.79" font-family="'Gentium Book Basic'" line-height="125%" word-spacing="0" letter-spacing="0" id="text2198">
<tspan y="-878.78" x="2110.79" id="tspan2200" />
</text>
<text transform="scale(4.0128.2492)" font-size="46.954" y="-3875.52" x="723.09" font-family="Arial" text-anchor="middle" id="text2202" />
<g font-family="'Gentium Book Basic'" line-height="125%" word-spacing="0" letter-spacing="0" id="g2204">
<text y="535.94" x="277.99" font-size="208.33" id="text2206">
<tspan y="535.94" x="277.99" id="tspan2208" />
</text>
<text y="260.32" x="13.421" font-size="129.23" id="text2210">
<tspan y="260.32" x="13.421" id="tspan2212" />
</text>
</g>
<text transform="scale(4.0128.2492)" font-size="46.954" y="695.45" x="200.43" font-family="Arial" text-anchor="middle" id="text2214" />
<text font-size="129.23" y="180.32" x="594.69" font-family="'Gentium Book Basic'" line-height="125%" word-spacing="0" letter-spacing="0" id="text2216">
<tspan y="180.32" x="594.69" id="tspan2218" />
</text>
<text transform="scale(4.0128.2492)" font-size="46.954" y="374.43" x="345.27" font-family="Arial" text-anchor="middle" id="text2220" />
<text font-size="129.23" y="-0.942" x="-476.89" font-family="'Gentium Book Basic'" line-height="125%" word-spacing="0" letter-spacing="0" id="text2222">
<tspan y="-0.942" x="-476.89" id="tspan2224" />
</text>
<text transform="scale(4.0128.2492)" font-size="46.954" y="-352.93" x="78.24" font-family="Arial" text-anchor="middle" id="text2226" />
<text font-size="129.23" y="-217.41" x="621.16" font-family="'Gentium Book Basic'" line-height="125%" word-spacing="0" letter-spacing="0" id="text2228">
<tspan y="-217.41" x="621.16" id="tspan2230" />
</text>
<text transform="scale(4.0128.2492)" font-size="46.954" y="-1221.6" x="351.87" font-family="Arial" text-anchor="middle" id="text2232" />
<text font-size="129.23" y="-297.42" x="1202.43" font-family="'Gentium Book Basic'" line-height="125%" word-spacing="0" letter-spacing="0" id="text2234">
<tspan y="-297.42" x="1202.43" id="tspan2236" />
</text>
<text transform="scale(4.0128.2492)" font-size="46.954" y="-1542.63" x="496.72" font-family="Arial" text-anchor="middle" id="text2238" />
<text font-size="129.23" y="-769.82" x="813.31" font-family="'Gentium Book Basic'" line-height="125%" word-spacing="0" letter-spacing="0" id="text2240">
<tspan y="-769.82" x="813.31" id="tspan2242" />
</text>
<text transform="scale(4.0128.2492)" font-size="46.954" y="-3438.29" x="399.75" font-family="Arial" text-anchor="middle" id="text2244" />
<text font-size="129.23" y="-849.82" x="1394.57" font-family="'Gentium Book Basic'" line-height="125%" word-spacing="0" letter-spacing="0" id="text2246">
<tspan y="-849.82" x="1394.57" id="tspan2248" />
</text>
<text transform="scale(4.0128.2492)" font-size="46.954" y="-3759.31" x="544.6" font-family="Arial" text-anchor="middle" id="text2250" />
<g font-family="'Gentium Book Basic'" line-height="125%" word-spacing="0" letter-spacing="0" id="g2252">
<text y="564.9" x="-438.23" font-size="208.33" id="text2254">
<tspan y="564.9" x="-438.23" id="tspan2256" />
</text>
<text y="260.32" x="13.421" font-size="129.23" id="text2258">
<tspan y="260.32" x="13.421" id="tspan2260" />
</text>
</g>
<text transform="scale(4.0128.2492)" font-size="46.954" y="695.45" x="200.43" font-family="Arial" text-anchor="middle" id="text2262" />
<text font-size="129.23" y="180.32" x="594.69" font-family="'Gentium Book Basic'" line-height="125%" word-spacing="0" letter-spacing="0" id="text2264">
<tspan y="180.32" x="594.69" id="tspan2266" />
</text>
<text transform="scale(4.0128.2492)" font-size="46.954" y="374.43" x="345.27" font-family="Arial" text-anchor="middle" id="text2268" />
<text font-size="129.23" y="-0.942" x="-476.89" font-family="'Gentium Book Basic'" line-height="125%" word-spacing="0" letter-spacing="0" id="text2270">
<tspan y="-0.942" x="-476.89" id="tspan2272" />
</text>
<text transform="scale(4.0128.2492)" font-size="46.954" y="-352.93" x="78.24" font-family="Arial" text-anchor="middle" id="text2274" />
<text font-size="129.23" y="-217.41" x="621.16" font-family="'Gentium Book Basic'" line-height="125%" word-spacing="0" letter-spacing="0" id="text2276">
<tspan y="-217.41" x="621.16" id="tspan2278" />
</text>
<text transform="scale(4.0128.2492)" font-size="46.954" y="-1221.59" x="351.87" font-family="Arial" text-anchor="middle" id="text2280" />
<text font-size="129.23" y="-297.42" x="1202.43" font-family="'Gentium Book Basic'" line-height="125%" word-spacing="0" letter-spacing="0" id="text2282">
<tspan y="-297.42" x="1202.43" id="tspan2284" />
</text>
<text transform="scale(4.0128.2492)" font-size="46.954" y="-1542.62" x="496.72" font-family="Arial" text-anchor="middle" id="text2286" />
<text font-size="129.23" y="-769.82" x="813.31" font-family="'Gentium Book Basic'" line-height="125%" word-spacing="0" letter-spacing="0" id="text2288">
<tspan y="-769.82" x="813.31" id="tspan2290" />
</text>
<text transform="scale(4.0128.2492)" font-size="46.954" y="-3438.27" x="399.75" font-family="Arial" text-anchor="middle" id="text2292" />
<text font-size="129.23" y="-849.82" x="1394.57" font-family="'Gentium Book Basic'" line-height="125%" word-spacing="0" letter-spacing="0" id="text2294">
<tspan y="-849.82" x="1394.57" id="tspan2296" />
</text>
<text transform="scale(4.0128.2492)" font-size="46.954" y="-3759.29" x="544.6" font-family="Arial" text-anchor="middle" id="text2298" />
<text font-size="208.33" y="564.9" x="-438.23" font-family="'Gentium Book Basic'" line-height="125%" word-spacing="0" letter-spacing="0" id="text2300">
<tspan y="564.9" x="-438.23" id="tspan2302" />
</text>
<path style="fill:#d23638;fill-rule:evenodd" inkscape:connector-curvature="0" id="path2306" d="m 471.95,253.05 c 0,120.9 -98.01,218.91 -218.91,218.91 -120.9,0 -218.91,-98.01 -218.91,-218.91 0,-120.9 98.01,-218.91 218.91,-218.91 120.9,0 218.91,98.01 218.91,218.91" />
<g style="fill-opacity:0.12900002;fill-rule:evenodd" id="g2310" />
<text font-size="129.23" y="231.36" x="729.64" font-family="'Gentium Book Basic'" line-height="125%" word-spacing="0" letter-spacing="0" id="text2318">
<tspan y="231.36" x="729.64" id="tspan2320" />
</text>
<text transform="scale(4.0128.2492)" font-size="46.954" y="579.26" x="378.91" font-family="Arial" text-anchor="middle" id="text2322" />
<text font-size="129.23" y="151.36" x="1310.91" font-family="'Gentium Book Basic'" line-height="125%" word-spacing="0" letter-spacing="0" id="text2324">
<tspan y="151.36" x="1310.91" id="tspan2326" />
</text>
<text transform="scale(4.0128.2492)" font-size="46.954" y="258.22" x="523.76" font-family="Arial" text-anchor="middle" id="text2328" />
<text font-size="129.23" y="-29.9" x="239.33" font-family="'Gentium Book Basic'" line-height="125%" word-spacing="0" letter-spacing="0" id="text2330">
<tspan y="-29.9" x="239.33" id="tspan2332" />
</text>
<text transform="scale(4.0128.2492)" font-size="46.954" y="-469.13" x="256.72" font-family="Arial" text-anchor="middle" id="text2334" />
<text font-size="129.23" y="-246.37" x="1337.38" font-family="'Gentium Book Basic'" line-height="125%" word-spacing="0" letter-spacing="0" id="text2336">
<tspan y="-246.37" x="1337.38" id="tspan2338" />
</text>
<text transform="scale(4.0128.2492)" font-size="46.954" y="-1337.8" x="530.36" font-family="Arial" text-anchor="middle" id="text2340" />
<text font-size="129.23" y="-326.37" x="1918.65" font-family="'Gentium Book Basic'" line-height="125%" word-spacing="0" letter-spacing="0" id="text2342">
<tspan y="-326.37" x="1918.65" id="tspan2344" />
</text>
<text transform="scale(4.0128.2492)" font-size="46.954" y="-1658.83" x="675.21" font-family="Arial" text-anchor="middle" id="text2346" />
<text font-size="129.23" y="-798.77" x="1529.53" font-family="'Gentium Book Basic'" line-height="125%" word-spacing="0" letter-spacing="0" id="text2348">
<tspan y="-798.77" x="1529.53" id="tspan2350" />
</text>
<text transform="scale(4.0128.2492)" font-size="46.954" y="-3554.48" x="578.24" font-family="Arial" text-anchor="middle" id="text2352" />
<text font-size="129.23" y="-878.78" x="2110.79" font-family="'Gentium Book Basic'" line-height="125%" word-spacing="0" letter-spacing="0" id="text2354">
<tspan y="-878.78" x="2110.79" id="tspan2356" />
</text>
<text transform="scale(4.0128.2492)" font-size="46.954" y="-3875.52" x="723.09" font-family="Arial" text-anchor="middle" id="text2358" />
<text font-size="208.33" y="535.94" x="277.99" font-family="'Gentium Book Basic'" line-height="125%" word-spacing="0" letter-spacing="0" id="text2360">
<tspan y="535.94" x="277.99" id="tspan2362" />
</text>
<path d="m202.63 145.59c-13.14 0.084-26.347 3.203-38.28 9.406-15.559 8.144-29.14 22.653-35.34 37.781-5.087 12.635-4.827 7.735-5.125 91.88l-0.313 81.63 54.34 0.125v-78.59c0-72.45-0.016-72.7 1.75-77.09 3.796-9.435 13.744-15.276 25-14.625 14.05 0.695 22.906 10.393 23.469 17.688v152.5h54.22l0.25-79.06 0.219-73.31 2.031-3.844c2.715-5.131 8.705-10.573 13.406-12.25l3.906-1.375v-50.813l-5.063 0.656c-12.282 1.556-26.716 7.07-36.625 13.969l-5.094 3.531-5.188-3.656c-13.891-9.745-30.667-14.64-47.563-14.531m111.03 0.656v50.28l3.969 1.656c5.562 2.372 9.782 6.44 12.75 12.344 2.196 4.359 2.531 5.894 2.531 11.5 0.044 5.606-0.264 7.149-2.25 10.813-3.101 5.904-8.508 10.752-19.16 17.219-10.307 6.213-14.412 10.218-16.906 16.375-3.321 8.144-1.931 20.823 3.156 29.19 1.203 1.854 10.11 14.09 19.938 27.16 9.832 13.07 19.249 25.806 20.938 28.344 5.297 7.669 10.01 11.747 16.09 13.469 3.619 0.993 12.04 0.716 16.344-0.531l-0.063-0.031c6.599-1.942 11.73-6.067 14.875-11.75 2.582-4.657 2.723-5.407 2.469-11.531-0.342-8.662-2.635-13.09-15.656-30.03-16.464-21.595-22-29.05-22-29.656 0-0.298 2.746-2.688 6.156-5.281 12.502-9.567 22.891-24.899 27.25-40.28 1.898-6.555 2.188-9.291 2.188-19.16 0.044-13.573-1.591-21.17-6.844-31.594-8.497-16.938-24.282-29.25-44.719-35.03-6.555-1.81-15.498-3.425-19.25-3.469h-1.813" fill="#fff" id="path2366" />
</svg>
