<?xml version="1.0" encoding="UTF-8" standalone="no"?>
<svg xmlns:dc="http://purl.org/dc/elements/1.1/" xmlns:cc="http://creativecommons.org/ns#" xmlns:rdf="http://www.w3.org/1999/02/22-rdf-syntax-ns#" xmlns:svg="http://www.w3.org/2000/svg" xmlns="http://www.w3.org/2000/svg" xmlns:sodipodi="http://sodipodi.sourceforge.net/DTD/sodipodi-0.dtd" xmlns:inkscape="http://www.inkscape.org/namespaces/inkscape" viewBox="0 0 512 512" id="svg2" version="1.1" inkscape:version="0.91 r" sodipodi:docname="vokoscreen.svg">
<metadata id="metadata173">
<rdf:RDF>
<cc:Work rdf:about="">
<dc:format>image/svg+xml</dc:format>
<dc:type rdf:resource="http://purl.org/dc/dcmitype/StillImage" />
</cc:Work>
</rdf:RDF>
</metadata>
<sodipodi:namedview pagecolor="#ffffff" bordercolor="#666666" borderopacity="1" objecttolerance="10" gridtolerance="10" guidetolerance="10" inkscape:pageopacity="0" inkscape:pageshadow="2" inkscape:window-width="640" inkscape:window-height="480" id="namedview171" showgrid="false" inkscape:zoom="0.4609375" inkscape:cx="256" inkscape:cy="256" inkscape:window-x="0" inkscape:window-y="0" inkscape:window-maximized="0" inkscape:current-layer="svg2" />
<defs id="defs4">
<linearGradient id="0" gradientUnits="userSpaceOnUse" x2="471.95" x1="34.13">
<stop stop-color="#b22b2d" id="stop7" />
<stop stop-color="#39962a" offset="0.5" id="stop9" />
<stop stop-color="#4f4ddd" offset="1" id="stop11" />
</linearGradient>
</defs>
<text font-size="129.23" y="231.36" x="729.64" font-family="'Gentium Book Basic'" line-height="125%" word-spacing="0" letter-spacing="0" id="text13">
<tspan y="231.36" x="729.64" id="tspan15" />
</text>
<text transform="scale(4.0128.2492)" font-size="46.954" y="579.26" x="378.91" font-family="Arial" text-anchor="middle" id="text17" />
<text font-size="129.23" y="151.36" x="1310.91" font-family="'Gentium Book Basic'" line-height="125%" word-spacing="0" letter-spacing="0" id="text19">
<tspan y="151.36" x="1310.91" id="tspan21" />
</text>
<text transform="scale(4.0128.2492)" font-size="46.954" y="258.22" x="523.76" font-family="Arial" text-anchor="middle" id="text23" />
<text font-size="129.23" y="-29.9" x="239.33" font-family="'Gentium Book Basic'" line-height="125%" word-spacing="0" letter-spacing="0" id="text25">
<tspan y="-29.9" x="239.33" id="tspan27" />
</text>
<text transform="scale(4.0128.2492)" font-size="46.954" y="-469.13" x="256.72" font-family="Arial" text-anchor="middle" id="text29" />
<text font-size="129.23" y="-246.37" x="1337.38" font-family="'Gentium Book Basic'" line-height="125%" word-spacing="0" letter-spacing="0" id="text31">
<tspan y="-246.37" x="1337.38" id="tspan33" />
</text>
<text transform="scale(4.0128.2492)" font-size="46.954" y="-1337.8" x="530.36" font-family="Arial" text-anchor="middle" id="text35" />
<text font-size="129.23" y="-326.37" x="1918.65" font-family="'Gentium Book Basic'" line-height="125%" word-spacing="0" letter-spacing="0" id="text37">
<tspan y="-326.37" x="1918.65" id="tspan39" />
</text>
<text transform="scale(4.0128.2492)" font-size="46.954" y="-1658.83" x="675.21" font-family="Arial" text-anchor="middle" id="text41" />
<text font-size="129.23" y="-798.77" x="1529.53" font-family="'Gentium Book Basic'" line-height="125%" word-spacing="0" letter-spacing="0" id="text43">
<tspan y="-798.77" x="1529.53" id="tspan45" />
</text>
<text transform="scale(4.0128.2492)" font-size="46.954" y="-3554.48" x="578.24" font-family="Arial" text-anchor="middle" id="text47" />
<text font-size="129.23" y="-878.78" x="2110.79" font-family="'Gentium Book Basic'" line-height="125%" word-spacing="0" letter-spacing="0" id="text49">
<tspan y="-878.78" x="2110.79" id="tspan51" />
</text>
<text transform="scale(4.0128.2492)" font-size="46.954" y="-3875.52" x="723.09" font-family="Arial" text-anchor="middle" id="text53" />
<text style="font-size:208.33000183px;line-height:125%;font-family:'Gentium Book Basic';letter-spacing:0;word-spacing:0" sodipodi:linespacing="125%" id="text57" font-size="208.33" x="277.98999" y="535.94">
<tspan id="tspan59" x="277.98999" y="535.94" />
</text>
<text style="font-size:129.22999573px;line-height:125%;font-family:'Gentium Book Basic';letter-spacing:0;word-spacing:0" sodipodi:linespacing="125%" id="text61" font-size="129.23" x="729.64001" y="231.36">
<tspan id="tspan63" x="729.64001" y="231.36" />
</text>
<text transform="scale(4.0128.2492)" font-size="46.954" y="579.26" x="378.91" font-family="Arial" text-anchor="middle" id="text65" />
<text font-size="129.23" y="151.36" x="1310.91" font-family="'Gentium Book Basic'" line-height="125%" word-spacing="0" letter-spacing="0" id="text67">
<tspan y="151.36" x="1310.91" id="tspan69" />
</text>
<text transform="scale(4.0128.2492)" font-size="46.954" y="258.22" x="523.76" font-family="Arial" text-anchor="middle" id="text71" />
<text font-size="129.23" y="-29.9" x="239.33" font-family="'Gentium Book Basic'" line-height="125%" word-spacing="0" letter-spacing="0" id="text73">
<tspan y="-29.9" x="239.33" id="tspan75" />
</text>
<text transform="scale(4.0128.2492)" font-size="46.954" y="-469.13" x="256.72" font-family="Arial" text-anchor="middle" id="text77" />
<text font-size="129.23" y="-246.37" x="1337.38" font-family="'Gentium Book Basic'" line-height="125%" word-spacing="0" letter-spacing="0" id="text79">
<tspan y="-246.37" x="1337.38" id="tspan81" />
</text>
<text transform="scale(4.0128.2492)" font-size="46.954" y="-1337.8" x="530.36" font-family="Arial" text-anchor="middle" id="text83" />
<text font-size="129.23" y="-326.37" x="1918.65" font-family="'Gentium Book Basic'" line-height="125%" word-spacing="0" letter-spacing="0" id="text85">
<tspan y="-326.37" x="1918.65" id="tspan87" />
</text>
<text transform="scale(4.0128.2492)" font-size="46.954" y="-1658.83" x="675.21" font-family="Arial" text-anchor="middle" id="text89" />
<text font-size="129.23" y="-798.77" x="1529.53" font-family="'Gentium Book Basic'" line-height="125%" word-spacing="0" letter-spacing="0" id="text91">
<tspan y="-798.77" x="1529.53" id="tspan93" />
</text>
<text transform="scale(4.0128.2492)" font-size="46.954" y="-3554.48" x="578.24" font-family="Arial" text-anchor="middle" id="text95" />
<text font-size="129.23" y="-878.78" x="2110.79" font-family="'Gentium Book Basic'" line-height="125%" word-spacing="0" letter-spacing="0" id="text97">
<tspan y="-878.78" x="2110.79" id="tspan99" />
</text>
<text transform="scale(4.0128.2492)" font-size="46.954" y="-3875.52" x="723.09" font-family="Arial" text-anchor="middle" id="text101" />
<text font-size="208.33" y="535.94" x="277.99" font-family="'Gentium Book Basic'" line-height="125%" word-spacing="0" letter-spacing="0" id="text103">
<tspan y="535.94" x="277.99" id="tspan105" />
</text>
<path inkscape:connector-curvature="0" style="fill:#808000;fill-rule:evenodd" id="path109" d="m 471.95,253.05 c 0,120.9 -98.01,218.91 -218.91,218.91 -120.9,0 -218.91,-98.01 -218.91,-218.91 0,-120.9 98.01,-218.91 218.91,-218.91 120.9,0 218.91,98.01 218.91,218.91" />
<text font-size="129.23" y="231.36" x="729.64" font-family="'Gentium Book Basic'" line-height="125%" word-spacing="0" letter-spacing="0" id="text121">
<tspan y="231.36" x="729.64" id="tspan123" />
</text>
<text transform="scale(4.0128.2492)" font-size="46.954" y="579.26" x="378.91" font-family="Arial" text-anchor="middle" id="text125" />
<text font-size="129.23" y="151.36" x="1310.91" font-family="'Gentium Book Basic'" line-height="125%" word-spacing="0" letter-spacing="0" id="text127">
<tspan y="151.36" x="1310.91" id="tspan129" />
</text>
<text transform="scale(4.0128.2492)" font-size="46.954" y="258.22" x="523.76" font-family="Arial" text-anchor="middle" id="text131" />
<text font-size="129.23" y="-29.9" x="239.33" font-family="'Gentium Book Basic'" line-height="125%" word-spacing="0" letter-spacing="0" id="text133">
<tspan y="-29.9" x="239.33" id="tspan135" />
</text>
<text transform="scale(4.0128.2492)" font-size="46.954" y="-469.13" x="256.72" font-family="Arial" text-anchor="middle" id="text137" />
<text font-size="129.23" y="-246.37" x="1337.38" font-family="'Gentium Book Basic'" line-height="125%" word-spacing="0" letter-spacing="0" id="text139">
<tspan y="-246.37" x="1337.38" id="tspan141" />
</text>
<text transform="scale(4.0128.2492)" font-size="46.954" y="-1337.8" x="530.36" font-family="Arial" text-anchor="middle" id="text143" />
<text font-size="129.23" y="-326.37" x="1918.65" font-family="'Gentium Book Basic'" line-height="125%" word-spacing="0" letter-spacing="0" id="text145">
<tspan y="-326.37" x="1918.65" id="tspan147" />
</text>
<text transform="scale(4.0128.2492)" font-size="46.954" y="-1658.83" x="675.21" font-family="Arial" text-anchor="middle" id="text149" />
<text font-size="129.23" y="-798.77" x="1529.53" font-family="'Gentium Book Basic'" line-height="125%" word-spacing="0" letter-spacing="0" id="text151">
<tspan y="-798.77" x="1529.53" id="tspan153" />
</text>
<text transform="scale(4.0128.2492)" font-size="46.954" y="-3554.48" x="578.24" font-family="Arial" text-anchor="middle" id="text155" />
<text font-size="129.23" y="-878.78" x="2110.79" font-family="'Gentium Book Basic'" line-height="125%" word-spacing="0" letter-spacing="0" id="text157">
<tspan y="-878.78" x="2110.79" id="tspan159" />
</text>
<text transform="scale(4.0128.2492)" font-size="46.954" y="-3875.52" x="723.09" font-family="Arial" text-anchor="middle" id="text161" />
<text font-size="208.33" y="535.94" x="277.99" font-family="'Gentium Book Basic'" line-height="125%" word-spacing="0" letter-spacing="0" id="text163">
<tspan y="535.94" x="277.99" id="tspan165" />
</text>
<path d="m125.59 125.59v68.938h26.625v-42.31h42.31v-26.625h-68.938m191.88 0v26.625h42.31v42.31h26.625v-68.938h-68.938m-61.47 64.75c-36.27 0-65.66 29.389-65.66 65.66 0 36.27 29.389 65.66 65.66 65.66 36.27 0 65.66-29.389 65.66-65.66 0-36.27-29.389-65.66-65.66-65.66m-130.41 127.13v68.938h68.938v-26.625h-42.31v-42.31h-26.625m234.19 0v42.31h-42.31v26.625h68.938v-68.938h-26.625" fill="#fff" id="path169" />
</svg>
