<?xml version="1.0" encoding="UTF-8" standalone="no"?>
<svg xmlns:dc="http://purl.org/dc/elements/1.1/" xmlns:cc="http://creativecommons.org/ns#" xmlns:rdf="http://www.w3.org/1999/02/22-rdf-syntax-ns#" xmlns:svg="http://www.w3.org/2000/svg" xmlns="http://www.w3.org/2000/svg" xmlns:sodipodi="http://sodipodi.sourceforge.net/DTD/sodipodi-0.dtd" xmlns:inkscape="http://www.inkscape.org/namespaces/inkscape" viewBox="0 0 512 512" id="svg19" version="1.1" inkscape:version="0.91 r" sodipodi:docname="skype-call-recorder.svg">
<metadata id="metadata471">
<rdf:RDF>
<cc:Work rdf:about="">
<dc:format>image/svg+xml</dc:format>
<dc:type rdf:resource="http://purl.org/dc/dcmitype/StillImage" />
</cc:Work>
</rdf:RDF>
</metadata>
<defs id="defs469" />
<sodipodi:namedview pagecolor="#ffffff" bordercolor="#666666" borderopacity="1" objecttolerance="10" gridtolerance="10" guidetolerance="10" inkscape:pageopacity="0" inkscape:pageshadow="2" inkscape:window-width="674" inkscape:window-height="480" id="namedview467" showgrid="false" inkscape:zoom="0.4609375" inkscape:cx="528.27119" inkscape:cy="256" inkscape:window-x="0" inkscape:window-y="0" inkscape:window-maximized="0" inkscape:current-layer="svg19" />
<text font-size="129.23" y="231.36" x="729.64" font-family="'Gentium Book Basic'" line-height="125%" word-spacing="0" letter-spacing="0" id="text21">
<tspan y="231.36" x="729.64" id="tspan23" />
</text>
<text transform="scale(4.0128.2492)" font-size="46.954" y="579.26" x="378.91" font-family="Arial" text-anchor="middle" id="text25" />
<text font-size="129.23" y="151.36" x="1310.91" font-family="'Gentium Book Basic'" line-height="125%" word-spacing="0" letter-spacing="0" id="text27">
<tspan y="151.36" x="1310.91" id="tspan29" />
</text>
<text transform="scale(4.0128.2492)" font-size="46.954" y="258.22" x="523.76" font-family="Arial" text-anchor="middle" id="text31" />
<text font-size="129.23" y="-29.9" x="239.33" font-family="'Gentium Book Basic'" line-height="125%" word-spacing="0" letter-spacing="0" id="text33">
<tspan y="-29.9" x="239.33" id="tspan35" />
</text>
<text transform="scale(4.0128.2492)" font-size="46.954" y="-469.13" x="256.72" font-family="Arial" text-anchor="middle" id="text37" />
<text font-size="129.23" y="-246.37" x="1337.38" font-family="'Gentium Book Basic'" line-height="125%" word-spacing="0" letter-spacing="0" id="text39">
<tspan y="-246.37" x="1337.38" id="tspan41" />
</text>
<text transform="scale(4.0128.2492)" font-size="46.954" y="-1337.8" x="530.36" font-family="Arial" text-anchor="middle" id="text43" />
<text font-size="129.23" y="-326.37" x="1918.65" font-family="'Gentium Book Basic'" line-height="125%" word-spacing="0" letter-spacing="0" id="text45">
<tspan y="-326.37" x="1918.65" id="tspan47" />
</text>
<text transform="scale(4.0128.2492)" font-size="46.954" y="-1658.83" x="675.21" font-family="Arial" text-anchor="middle" id="text49" />
<text font-size="129.23" y="-798.77" x="1529.53" font-family="'Gentium Book Basic'" line-height="125%" word-spacing="0" letter-spacing="0" id="text51">
<tspan y="-798.77" x="1529.53" id="tspan53" />
</text>
<text transform="scale(4.0128.2492)" font-size="46.954" y="-3554.48" x="578.24" font-family="Arial" text-anchor="middle" id="text55" />
<text font-size="129.23" y="-878.78" x="2110.79" font-family="'Gentium Book Basic'" line-height="125%" word-spacing="0" letter-spacing="0" id="text57">
<tspan y="-878.78" x="2110.79" id="tspan59" />
</text>
<text transform="scale(4.0128.2492)" font-size="46.954" y="-3875.52" x="723.09" font-family="Arial" text-anchor="middle" id="text61" />
<g font-family="'Gentium Book Basic'" line-height="125%" word-spacing="0" letter-spacing="0" id="g63">
<text y="535.94" x="277.99" font-size="208.33" id="text65">
<tspan y="535.94" x="277.99" id="tspan67" />
</text>
<text y="231.36" x="729.64" font-size="129.23" id="text69">
<tspan y="231.36" x="729.64" id="tspan71" />
</text>
</g>
<text transform="scale(4.0128.2492)" font-size="46.954" y="579.26" x="378.91" font-family="Arial" text-anchor="middle" id="text73" />
<text font-size="129.23" y="151.36" x="1310.91" font-family="'Gentium Book Basic'" line-height="125%" word-spacing="0" letter-spacing="0" id="text75">
<tspan y="151.36" x="1310.91" id="tspan77" />
</text>
<text transform="scale(4.0128.2492)" font-size="46.954" y="258.22" x="523.76" font-family="Arial" text-anchor="middle" id="text79" />
<text font-size="129.23" y="-29.9" x="239.33" font-family="'Gentium Book Basic'" line-height="125%" word-spacing="0" letter-spacing="0" id="text81">
<tspan y="-29.9" x="239.33" id="tspan83" />
</text>
<text transform="scale(4.0128.2492)" font-size="46.954" y="-469.13" x="256.72" font-family="Arial" text-anchor="middle" id="text85" />
<text font-size="129.23" y="-246.37" x="1337.38" font-family="'Gentium Book Basic'" line-height="125%" word-spacing="0" letter-spacing="0" id="text87">
<tspan y="-246.37" x="1337.38" id="tspan89" />
</text>
<text transform="scale(4.0128.2492)" font-size="46.954" y="-1337.8" x="530.36" font-family="Arial" text-anchor="middle" id="text91" />
<text font-size="129.23" y="-326.37" x="1918.65" font-family="'Gentium Book Basic'" line-height="125%" word-spacing="0" letter-spacing="0" id="text93">
<tspan y="-326.37" x="1918.65" id="tspan95" />
</text>
<text transform="scale(4.0128.2492)" font-size="46.954" y="-1658.83" x="675.21" font-family="Arial" text-anchor="middle" id="text97" />
<text font-size="129.23" y="-798.77" x="1529.53" font-family="'Gentium Book Basic'" line-height="125%" word-spacing="0" letter-spacing="0" id="text99">
<tspan y="-798.77" x="1529.53" id="tspan101" />
</text>
<text transform="scale(4.0128.2492)" font-size="46.954" y="-3554.48" x="578.24" font-family="Arial" text-anchor="middle" id="text103" />
<text font-size="129.23" y="-878.78" x="2110.79" font-family="'Gentium Book Basic'" line-height="125%" word-spacing="0" letter-spacing="0" id="text105">
<tspan y="-878.78" x="2110.79" id="tspan107" />
</text>
<text transform="scale(4.0128.2492)" font-size="46.954" y="-3875.52" x="723.09" font-family="Arial" text-anchor="middle" id="text109" />
<g font-family="'Gentium Book Basic'" line-height="125%" word-spacing="0" letter-spacing="0" id="g111">
<text y="535.94" x="277.99" font-size="208.33" id="text113">
<tspan y="535.94" x="277.99" id="tspan115" />
</text>
<text y="231.36" x="729.64" font-size="129.23" id="text117">
<tspan y="231.36" x="729.64" id="tspan119" />
</text>
</g>
<text transform="scale(4.0128.2492)" font-size="46.954" y="579.26" x="378.91" font-family="Arial" text-anchor="middle" id="text121" />
<text font-size="129.23" y="151.36" x="1310.91" font-family="'Gentium Book Basic'" line-height="125%" word-spacing="0" letter-spacing="0" id="text123">
<tspan y="151.36" x="1310.91" id="tspan125" />
</text>
<text transform="scale(4.0128.2492)" font-size="46.954" y="258.22" x="523.76" font-family="Arial" text-anchor="middle" id="text127" />
<text font-size="129.23" y="-29.9" x="239.33" font-family="'Gentium Book Basic'" line-height="125%" word-spacing="0" letter-spacing="0" id="text129">
<tspan y="-29.9" x="239.33" id="tspan131" />
</text>
<text transform="scale(4.0128.2492)" font-size="46.954" y="-469.13" x="256.72" font-family="Arial" text-anchor="middle" id="text133" />
<text font-size="129.23" y="-246.37" x="1337.38" font-family="'Gentium Book Basic'" line-height="125%" word-spacing="0" letter-spacing="0" id="text135">
<tspan y="-246.37" x="1337.38" id="tspan137" />
</text>
<text transform="scale(4.0128.2492)" font-size="46.954" y="-1337.8" x="530.36" font-family="Arial" text-anchor="middle" id="text139" />
<text font-size="129.23" y="-326.37" x="1918.65" font-family="'Gentium Book Basic'" line-height="125%" word-spacing="0" letter-spacing="0" id="text141">
<tspan y="-326.37" x="1918.65" id="tspan143" />
</text>
<text transform="scale(4.0128.2492)" font-size="46.954" y="-1658.83" x="675.21" font-family="Arial" text-anchor="middle" id="text145" />
<text font-size="129.23" y="-798.77" x="1529.53" font-family="'Gentium Book Basic'" line-height="125%" word-spacing="0" letter-spacing="0" id="text147">
<tspan y="-798.77" x="1529.53" id="tspan149" />
</text>
<text transform="scale(4.0128.2492)" font-size="46.954" y="-3554.48" x="578.24" font-family="Arial" text-anchor="middle" id="text151" />
<text font-size="129.23" y="-878.78" x="2110.79" font-family="'Gentium Book Basic'" line-height="125%" word-spacing="0" letter-spacing="0" id="text153">
<tspan y="-878.78" x="2110.79" id="tspan155" />
</text>
<text transform="scale(4.0128.2492)" font-size="46.954" y="-3875.52" x="723.09" font-family="Arial" text-anchor="middle" id="text157" />
<g font-family="'Gentium Book Basic'" line-height="125%" word-spacing="0" letter-spacing="0" id="g159">
<text y="535.94" x="277.99" font-size="208.33" id="text161">
<tspan y="535.94" x="277.99" id="tspan163" />
</text>
<text y="231.36" x="729.64" font-size="129.23" id="text165">
<tspan y="231.36" x="729.64" id="tspan167" />
</text>
</g>
<text transform="scale(4.0128.2492)" font-size="46.954" y="579.26" x="378.91" font-family="Arial" text-anchor="middle" id="text169" />
<text font-size="129.23" y="151.36" x="1310.91" font-family="'Gentium Book Basic'" line-height="125%" word-spacing="0" letter-spacing="0" id="text171">
<tspan y="151.36" x="1310.91" id="tspan173" />
</text>
<text transform="scale(4.0128.2492)" font-size="46.954" y="258.22" x="523.76" font-family="Arial" text-anchor="middle" id="text175" />
<text font-size="129.23" y="-29.9" x="239.33" font-family="'Gentium Book Basic'" line-height="125%" word-spacing="0" letter-spacing="0" id="text177">
<tspan y="-29.9" x="239.33" id="tspan179" />
</text>
<text transform="scale(4.0128.2492)" font-size="46.954" y="-469.13" x="256.72" font-family="Arial" text-anchor="middle" id="text181" />
<text font-size="129.23" y="-246.37" x="1337.38" font-family="'Gentium Book Basic'" line-height="125%" word-spacing="0" letter-spacing="0" id="text183">
<tspan y="-246.37" x="1337.38" id="tspan185" />
</text>
<text transform="scale(4.0128.2492)" font-size="46.954" y="-1337.8" x="530.36" font-family="Arial" text-anchor="middle" id="text187" />
<text font-size="129.23" y="-326.37" x="1918.65" font-family="'Gentium Book Basic'" line-height="125%" word-spacing="0" letter-spacing="0" id="text189">
<tspan y="-326.37" x="1918.65" id="tspan191" />
</text>
<text transform="scale(4.0128.2492)" font-size="46.954" y="-1658.83" x="675.21" font-family="Arial" text-anchor="middle" id="text193" />
<text font-size="129.23" y="-798.77" x="1529.53" font-family="'Gentium Book Basic'" line-height="125%" word-spacing="0" letter-spacing="0" id="text195">
<tspan y="-798.77" x="1529.53" id="tspan197" />
</text>
<text transform="scale(4.0128.2492)" font-size="46.954" y="-3554.48" x="578.24" font-family="Arial" text-anchor="middle" id="text199" />
<text font-size="129.23" y="-878.78" x="2110.79" font-family="'Gentium Book Basic'" line-height="125%" word-spacing="0" letter-spacing="0" id="text201">
<tspan y="-878.78" x="2110.79" id="tspan203" />
</text>
<text transform="scale(4.0128.2492)" font-size="46.954" y="-3875.52" x="723.09" font-family="Arial" text-anchor="middle" id="text205" />
<g font-family="'Gentium Book Basic'" line-height="125%" word-spacing="0" letter-spacing="0" id="g207">
<text y="535.94" x="277.99" font-size="208.33" id="text209">
<tspan y="535.94" x="277.99" id="tspan211" />
</text>
<text y="231.36" x="729.64" font-size="129.23" id="text213">
<tspan y="231.36" x="729.64" id="tspan215" />
</text>
</g>
<text transform="scale(4.0128.2492)" font-size="46.954" y="579.26" x="378.91" font-family="Arial" text-anchor="middle" id="text217" />
<text font-size="129.23" y="151.36" x="1310.91" font-family="'Gentium Book Basic'" line-height="125%" word-spacing="0" letter-spacing="0" id="text219">
<tspan y="151.36" x="1310.91" id="tspan221" />
</text>
<text transform="scale(4.0128.2492)" font-size="46.954" y="258.22" x="523.76" font-family="Arial" text-anchor="middle" id="text223" />
<text font-size="129.23" y="-29.9" x="239.33" font-family="'Gentium Book Basic'" line-height="125%" word-spacing="0" letter-spacing="0" id="text225">
<tspan y="-29.9" x="239.33" id="tspan227" />
</text>
<text transform="scale(4.0128.2492)" font-size="46.954" y="-469.13" x="256.72" font-family="Arial" text-anchor="middle" id="text229" />
<text font-size="129.23" y="-246.37" x="1337.38" font-family="'Gentium Book Basic'" line-height="125%" word-spacing="0" letter-spacing="0" id="text231">
<tspan y="-246.37" x="1337.38" id="tspan233" />
</text>
<text transform="scale(4.0128.2492)" font-size="46.954" y="-1337.8" x="530.36" font-family="Arial" text-anchor="middle" id="text235" />
<text font-size="129.23" y="-326.37" x="1918.65" font-family="'Gentium Book Basic'" line-height="125%" word-spacing="0" letter-spacing="0" id="text237">
<tspan y="-326.37" x="1918.65" id="tspan239" />
</text>
<text transform="scale(4.0128.2492)" font-size="46.954" y="-1658.83" x="675.21" font-family="Arial" text-anchor="middle" id="text241" />
<text font-size="129.23" y="-798.77" x="1529.53" font-family="'Gentium Book Basic'" line-height="125%" word-spacing="0" letter-spacing="0" id="text243">
<tspan y="-798.77" x="1529.53" id="tspan245" />
</text>
<text transform="scale(4.0128.2492)" font-size="46.954" y="-3554.48" x="578.24" font-family="Arial" text-anchor="middle" id="text247" />
<text font-size="129.23" y="-878.78" x="2110.79" font-family="'Gentium Book Basic'" line-height="125%" word-spacing="0" letter-spacing="0" id="text249">
<tspan y="-878.78" x="2110.79" id="tspan251" />
</text>
<text transform="scale(4.0128.2492)" font-size="46.954" y="-3875.52" x="723.09" font-family="Arial" text-anchor="middle" id="text253" />
<text font-size="208.33" y="535.94" x="277.99" font-family="'Gentium Book Basic'" line-height="125%" word-spacing="0" letter-spacing="0" id="text255">
<tspan y="535.94" x="277.99" id="tspan257" />
</text>
<path style="fill:#d23638;fill-rule:evenodd" inkscape:connector-curvature="0" id="path261" d="m 471.95,253.05 c 0,120.9 -98.01,218.91 -218.91,218.91 -120.9,0 -218.91,-98.01 -218.91,-218.91 0,-120.9 98.01,-218.91 218.91,-218.91 120.9,0 218.91,98.01 218.91,218.91" />
<text font-size="129.23" y="231.36" x="729.64" font-family="'Gentium Book Basic'" line-height="125%" word-spacing="0" letter-spacing="0" id="text273">
<tspan y="231.36" x="729.64" id="tspan275" />
</text>
<text transform="scale(4.0128.2492)" font-size="46.954" y="579.26" x="378.91" font-family="Arial" text-anchor="middle" id="text277" />
<text font-size="129.23" y="151.36" x="1310.91" font-family="'Gentium Book Basic'" line-height="125%" word-spacing="0" letter-spacing="0" id="text279">
<tspan y="151.36" x="1310.91" id="tspan281" />
</text>
<text transform="scale(4.0128.2492)" font-size="46.954" y="258.22" x="523.76" font-family="Arial" text-anchor="middle" id="text283" />
<text font-size="129.23" y="-29.9" x="239.33" font-family="'Gentium Book Basic'" line-height="125%" word-spacing="0" letter-spacing="0" id="text285">
<tspan y="-29.9" x="239.33" id="tspan287" />
</text>
<text transform="scale(4.0128.2492)" font-size="46.954" y="-469.13" x="256.72" font-family="Arial" text-anchor="middle" id="text289" />
<text font-size="129.23" y="-246.37" x="1337.38" font-family="'Gentium Book Basic'" line-height="125%" word-spacing="0" letter-spacing="0" id="text291">
<tspan y="-246.37" x="1337.38" id="tspan293" />
</text>
<text transform="scale(4.0128.2492)" font-size="46.954" y="-1337.8" x="530.36" font-family="Arial" text-anchor="middle" id="text295" />
<text font-size="129.23" y="-326.37" x="1918.65" font-family="'Gentium Book Basic'" line-height="125%" word-spacing="0" letter-spacing="0" id="text297">
<tspan y="-326.37" x="1918.65" id="tspan299" />
</text>
<text transform="scale(4.0128.2492)" font-size="46.954" y="-1658.83" x="675.21" font-family="Arial" text-anchor="middle" id="text301" />
<text font-size="129.23" y="-798.77" x="1529.53" font-family="'Gentium Book Basic'" line-height="125%" word-spacing="0" letter-spacing="0" id="text303">
<tspan y="-798.77" x="1529.53" id="tspan305" />
</text>
<text transform="scale(4.0128.2492)" font-size="46.954" y="-3554.48" x="578.24" font-family="Arial" text-anchor="middle" id="text307" />
<text font-size="129.23" y="-878.78" x="2110.79" font-family="'Gentium Book Basic'" line-height="125%" word-spacing="0" letter-spacing="0" id="text309">
<tspan y="-878.78" x="2110.79" id="tspan311" />
</text>
<text transform="scale(4.0128.2492)" font-size="46.954" y="-3875.52" x="723.09" font-family="Arial" text-anchor="middle" id="text313" />
<g font-family="'Gentium Book Basic'" line-height="125%" word-spacing="0" letter-spacing="0" id="g315">
<text y="535.94" x="277.99" font-size="208.33" id="text317">
<tspan y="535.94" x="277.99" id="tspan319" />
</text>
<text y="260.32" x="13.421" font-size="129.23" id="text321">
<tspan y="260.32" x="13.421" id="tspan323" />
</text>
</g>
<text transform="scale(4.0128.2492)" font-size="46.954" y="695.45" x="200.43" font-family="Arial" text-anchor="middle" id="text325" />
<text font-size="129.23" y="180.32" x="594.69" font-family="'Gentium Book Basic'" line-height="125%" word-spacing="0" letter-spacing="0" id="text327">
<tspan y="180.32" x="594.69" id="tspan329" />
</text>
<text transform="scale(4.0128.2492)" font-size="46.954" y="374.43" x="345.27" font-family="Arial" text-anchor="middle" id="text331" />
<text font-size="129.23" y="-0.942" x="-476.89" font-family="'Gentium Book Basic'" line-height="125%" word-spacing="0" letter-spacing="0" id="text333">
<tspan y="-0.942" x="-476.89" id="tspan335" />
</text>
<text transform="scale(4.0128.2492)" font-size="46.954" y="-352.93" x="78.24" font-family="Arial" text-anchor="middle" id="text337" />
<text font-size="129.23" y="-217.41" x="621.16" font-family="'Gentium Book Basic'" line-height="125%" word-spacing="0" letter-spacing="0" id="text339">
<tspan y="-217.41" x="621.16" id="tspan341" />
</text>
<text transform="scale(4.0128.2492)" font-size="46.954" y="-1221.6" x="351.87" font-family="Arial" text-anchor="middle" id="text343" />
<text font-size="129.23" y="-297.42" x="1202.43" font-family="'Gentium Book Basic'" line-height="125%" word-spacing="0" letter-spacing="0" id="text345">
<tspan y="-297.42" x="1202.43" id="tspan347" />
</text>
<text transform="scale(4.0128.2492)" font-size="46.954" y="-1542.63" x="496.72" font-family="Arial" text-anchor="middle" id="text349" />
<text font-size="129.23" y="-769.82" x="813.31" font-family="'Gentium Book Basic'" line-height="125%" word-spacing="0" letter-spacing="0" id="text351">
<tspan y="-769.82" x="813.31" id="tspan353" />
</text>
<text transform="scale(4.0128.2492)" font-size="46.954" y="-3438.29" x="399.75" font-family="Arial" text-anchor="middle" id="text355" />
<text font-size="129.23" y="-849.82" x="1394.57" font-family="'Gentium Book Basic'" line-height="125%" word-spacing="0" letter-spacing="0" id="text357">
<tspan y="-849.82" x="1394.57" id="tspan359" />
</text>
<text transform="scale(4.0128.2492)" font-size="46.954" y="-3759.31" x="544.6" font-family="Arial" text-anchor="middle" id="text361" />
<g font-family="'Gentium Book Basic'" line-height="125%" word-spacing="0" letter-spacing="0" id="g363">
<text y="564.9" x="-438.23" font-size="208.33" id="text365">
<tspan y="564.9" x="-438.23" id="tspan367" />
</text>
<text y="260.32" x="13.421" font-size="129.23" id="text369">
<tspan y="260.32" x="13.421" id="tspan371" />
</text>
</g>
<text transform="scale(4.0128.2492)" font-size="46.954" y="695.45" x="200.43" font-family="Arial" text-anchor="middle" id="text373" />
<text font-size="129.23" y="180.32" x="594.69" font-family="'Gentium Book Basic'" line-height="125%" word-spacing="0" letter-spacing="0" id="text375">
<tspan y="180.32" x="594.69" id="tspan377" />
</text>
<text transform="scale(4.0128.2492)" font-size="46.954" y="374.43" x="345.27" font-family="Arial" text-anchor="middle" id="text379" />
<text font-size="129.23" y="-0.942" x="-476.89" font-family="'Gentium Book Basic'" line-height="125%" word-spacing="0" letter-spacing="0" id="text381">
<tspan y="-0.942" x="-476.89" id="tspan383" />
</text>
<text transform="scale(4.0128.2492)" font-size="46.954" y="-352.93" x="78.24" font-family="Arial" text-anchor="middle" id="text385" />
<text font-size="129.23" y="-217.41" x="621.16" font-family="'Gentium Book Basic'" line-height="125%" word-spacing="0" letter-spacing="0" id="text387">
<tspan y="-217.41" x="621.16" id="tspan389" />
</text>
<text transform="scale(4.0128.2492)" font-size="46.954" y="-1221.59" x="351.87" font-family="Arial" text-anchor="middle" id="text391" />
<text font-size="129.23" y="-297.42" x="1202.43" font-family="'Gentium Book Basic'" line-height="125%" word-spacing="0" letter-spacing="0" id="text393">
<tspan y="-297.42" x="1202.43" id="tspan395" />
</text>
<text transform="scale(4.0128.2492)" font-size="46.954" y="-1542.62" x="496.72" font-family="Arial" text-anchor="middle" id="text397" />
<text font-size="129.23" y="-769.82" x="813.31" font-family="'Gentium Book Basic'" line-height="125%" word-spacing="0" letter-spacing="0" id="text399">
<tspan y="-769.82" x="813.31" id="tspan401" />
</text>
<text transform="scale(4.0128.2492)" font-size="46.954" y="-3438.27" x="399.75" font-family="Arial" text-anchor="middle" id="text403" />
<text font-size="129.23" y="-849.82" x="1394.57" font-family="'Gentium Book Basic'" line-height="125%" word-spacing="0" letter-spacing="0" id="text405">
<tspan y="-849.82" x="1394.57" id="tspan407" />
</text>
<text transform="scale(4.0128.2492)" font-size="46.954" y="-3759.29" x="544.6" font-family="Arial" text-anchor="middle" id="text409" />
<g font-family="'Gentium Book Basic'" line-height="125%" word-spacing="0" letter-spacing="0" id="g411">
<text y="564.9" x="-438.23" font-size="208.33" id="text413">
<tspan y="564.9" x="-438.23" id="tspan415" />
</text>
<text y="2.596" x="1357.26" font-size="129.23" id="text417">
<tspan y="2.596" x="1357.26" id="tspan419" />
</text>
</g>
<text transform="scale(4.0128.2492)" font-size="46.954" y="-338.73" x="535.31" font-family="Arial" text-anchor="middle" id="text421" />
<text font-size="129.23" y="-77.4" x="1938.53" font-family="'Gentium Book Basic'" line-height="125%" word-spacing="0" letter-spacing="0" id="text423">
<tspan y="-77.4" x="1938.53" id="tspan425" />
</text>
<text transform="scale(4.0128.2492)" font-size="46.954" y="-659.77" x="680.16" font-family="Arial" text-anchor="middle" id="text427" />
<text font-size="129.23" y="-258.66" x="866.95" font-family="'Gentium Book Basic'" line-height="125%" word-spacing="0" letter-spacing="0" id="text429">
<tspan y="-258.66" x="866.95" id="tspan431" />
</text>
<text transform="scale(4.0128.2492)" font-size="46.954" y="-1387.11" x="413.12" font-family="Arial" text-anchor="middle" id="text433" />
<text font-size="129.23" y="-475.13" x="1965" font-family="'Gentium Book Basic'" line-height="125%" word-spacing="0" letter-spacing="0" id="text435">
<tspan y="-475.13" x="1965" id="tspan437" />
</text>
<text transform="scale(4.0128.2492)" font-size="46.954" y="-2255.79" x="686.76" font-family="Arial" text-anchor="middle" id="text439" />
<text font-size="129.23" y="-555.13" x="2546.27" font-family="'Gentium Book Basic'" line-height="125%" word-spacing="0" letter-spacing="0" id="text441">
<tspan y="-555.13" x="2546.27" id="tspan443" />
</text>
<text transform="scale(4.0128.2492)" font-size="46.954" y="-2576.82" x="831.61" font-family="Arial" text-anchor="middle" id="text445" />
<text font-size="129.23" y="-1027.53" x="2157.15" font-family="'Gentium Book Basic'" line-height="125%" word-spacing="0" letter-spacing="0" id="text447">
<tspan y="-1027.53" x="2157.15" id="tspan449" />
</text>
<text transform="scale(4.0128.2492)" font-size="46.954" y="-4472.47" x="734.64" font-family="Arial" text-anchor="middle" id="text451" />
<text font-size="129.23" y="-1107.54" x="2738.41" font-family="'Gentium Book Basic'" line-height="125%" word-spacing="0" letter-spacing="0" id="text453">
<tspan y="-1107.54" x="2738.41" id="tspan455" />
</text>
<text transform="scale(4.0128.2492)" font-size="46.954" y="-4793.51" x="879.49" font-family="Arial" text-anchor="middle" id="text457" />
<text font-size="208.33" y="307.18" x="905.61" font-family="'Gentium Book Basic'" line-height="125%" word-spacing="0" letter-spacing="0" id="text459">
<tspan y="307.18" x="905.61" id="tspan461" />
</text>
<path d="m198.6 125.77c-39.24 0-71.03 31.799-71.03 71.03 0 13.12 3.561 25.383 9.758 35.927-1.625 7.958-2.469 16.202-2.469 24.641 0 67.66 54.842 122.5 122.5 122.5 7.663 0 15.16-0.7 22.431-2.046 10 5.376 21.426 8.418 33.576 8.418 39.24 0 71.06-31.795 71.06-71.03 0-11.336-2.66-22.05-7.383-31.554 1.852-8.47 2.822-17.262 2.822-26.287 0-67.66-54.842-122.5-122.5-122.5-7.143 0-14.14 0.613-20.95 1.787-10.949-6.896-23.913-10.886-37.808-10.886m57.935 45.4c10.94 0 20.563 1.265 28.591 3.762 8.08 2.514 14.895 5.908 20.244 10.09 5.387 4.208 9.381 8.724 11.897 13.402 2.542 4.725 3.833 9.418 3.833 13.967 0 4.377-1.674 8.36-5.01 11.827-3.355 3.489-7.609 5.243-12.603 5.243-4.537 0-8.07-1.109-10.534-3.292-2.292-2.027-4.673-5.165-7.312-9.711-3.055-5.804-6.763-10.39-11-13.614-4.116-3.132-11-4.726-20.456-4.726-8.782 0-15.907 1.766-21.21 5.243-5.11 3.35-7.595 7.182-7.595 11.733 0 2.791 0.801 5.141 2.445 7.148 1.741 2.127 4.185 3.996 7.289 5.549 3.22 1.618 6.529 2.891 9.852 3.809 3.405 0.945 9.12 2.351 16.953 4.162 9.913 2.128 19.03 4.502 27.09 7.08 8.157 2.611 15.201 5.83 20.95 9.57 5.868 3.822 10.528 8.743 13.825 14.601 3.306 5.88 4.985 13.13 4.985 21.561 0 10.09-2.895 19.294-8.582 27.345-5.667 8.02-14.03 14.37-24.876 18.881-10.744 4.465-23.643 6.725-38.3 6.725-17.594 0-32.34-3.085-43.851-9.193-8.231-4.446-15.02-10.461-20.17-17.893-5.204-7.506-7.83-14.966-7.83-22.15 0-4.489 1.712-8.383 5.102-11.568 3.356-3.157 7.662-4.75 12.791-4.75 4.21 0 7.841 1.267 10.792 3.762 2.82 2.39 5.228 5.92 7.171 10.487 2.171 4.972 4.53 9.178 7.03 12.485 2.402 3.181 5.859 5.86 10.275 7.947 4.44 2.103 10.434 3.151 17.799 3.151 10.128 0 18.443-2.155 24.688-6.419 6.101-4.165 9.05-9.162 9.05-15.283 0-4.836-1.542-8.633-4.726-11.615-3.333-3.117-7.733-5.553-13.07-7.218-5.569-1.735-13.13-3.615-22.478-5.572-12.713-2.723-23.504-5.94-32.09-9.593-8.785-3.738-15.864-8.917-21.04-15.401-5.26-6.582-7.924-14.838-7.924-24.547 0-9.254 2.78-17.61 8.3-24.806 5.478-7.145 13.494-12.697 23.795-16.506 10.166-3.76 22.243-5.667 35.927-5.667" fill="#fff" id="path465" />
</svg>
