<?xml version="1.0" encoding="UTF-8" standalone="no"?>
<svg xmlns:dc="http://purl.org/dc/elements/1.1/" xmlns:cc="http://creativecommons.org/ns#" xmlns:rdf="http://www.w3.org/1999/02/22-rdf-syntax-ns#" xmlns:svg="http://www.w3.org/2000/svg" xmlns="http://www.w3.org/2000/svg" xmlns:sodipodi="http://sodipodi.sourceforge.net/DTD/sodipodi-0.dtd" xmlns:inkscape="http://www.inkscape.org/namespaces/inkscape" height="512" viewBox="0 0 512 512" width="512" version="1.1" id="svg2" inkscape:version="0.91 r" sodipodi:docname="smtube.svg">
<defs id="defs19" />
<sodipodi:namedview pagecolor="#ffffff" bordercolor="#666666" borderopacity="1" objecttolerance="10" gridtolerance="10" guidetolerance="10" inkscape:pageopacity="0" inkscape:pageshadow="2" inkscape:window-width="733" inkscape:window-height="480" id="namedview17" showgrid="false" inkscape:zoom="0.4609375" inkscape:cx="256" inkscape:cy="256" inkscape:window-x="0" inkscape:window-y="0" inkscape:window-maximized="0" inkscape:current-layer="svg2" />
<metadata id="metadata78">
<rdf:RDF>
<cc:Work rdf:about="">
<dc:format>image/svg+xml</dc:format>
<dc:type rdf:resource="http://purl.org/dc/dcmitype/StillImage" />
</cc:Work>
</rdf:RDF>
</metadata>
<path id="path4" d="m471.95 253.05c0 120.9-98.01 218.9-218.9 218.9-120.9 0-218.9-98.01-218.9-218.9 0-120.9 98.01-218.9 218.9-218.9 120.9 0 218.9 98.01 218.9 218.9" fill-rule="evenodd" fill="#343334" />
<path style="fill:#ffffff" inkscape:connector-curvature="0" d="m 422.87,78.53 0,4 4.156,0 c -1.37,-1.351 -2.755,-2.681 -4.156,-4 m 0,29.03 0,28.594 40.781,0 0,-7.531 c -4.477,-7.285 -9.335,-14.312 -14.531,-21.06 l -26.25,0 m 0,53.625 0,28.656 40.781,0 0,-28.656 -40.781,0 m 0,53.688 0,28.594 40.781,0 0,-28.594 -40.781,0 m 0,53.625 0,28.625 40.781,0 0,-28.625 -40.781,0 m 0,53.656 0,28.625 40.781,0 0,-28.625 -40.781,0 m 0,53.656 0,28.625 26.25,0 c 5.196,-6.751 10.05,-13.778 14.531,-21.06 l 0,-7.563 -40.781,0 m 0,53.656 0,4 c 1.402,-1.319 2.786,-2.649 4.156,-4 l -4.156,0" id="path8" />
<path style="fill:#ffffff" inkscape:connector-curvature="0" d="m 89.1,78.53 c -1.402,1.319 -2.786,2.649 -4.156,4 l 4.156,0 0,-4 m -26.25,29.03 c -5.196,6.751 -10.05,13.778 -14.531,21.06 l 0,7.531 40.781,0 0,-28.594 -26.25,0 m -14.531,53.625 0,28.656 40.781,0 0,-28.656 -40.781,0 m 0,53.688 0,28.594 40.78,0 0,-28.59 -40.781,0 m 0,53.625 0,28.625 40.781,0 0,-28.625 -40.781,0 m 0,53.656 0,28.625 40.781,0 0,-28.625 -40.781,0 m 0,53.656 0,7.563 c 4.477,7.285 9.335,14.312 14.531,21.06 l 26.25,0 0,-28.625 -40.781,0 m 36.625,53.656 c 1.37,1.351 2.755,2.681 4.156,4 l 0,-4 -4.156,0" id="path10" />
<path id="path72" fill="#fff" d="m175.58 166.4c-19.331 0-34.901 13.13-34.901 29.441v120.33c0 16.311 15.57 29.441 34.901 29.441h160.84c19.331 0 34.901-13.13 34.901-29.441v-120.33c0-16.311-15.57-29.441-34.901-29.441h-160.84m49.374 30.565a13.01 13.01 0 0 1 7.4714 1.8287l76.83 46.06a13.01 13.01 0 0 1 0 22.31l-76.83 46.06a13.01 13.01 0 0 1 -19.697 -11.155v-92.11a13.01 13.01 0 0 1 12.226 -12.984" />
</svg>
