<?xml version="1.0" encoding="UTF-8" standalone="no"?>
<svg xmlns:dc="http://purl.org/dc/elements/1.1/" xmlns:cc="http://creativecommons.org/ns#" xmlns:rdf="http://www.w3.org/1999/02/22-rdf-syntax-ns#" xmlns:svg="http://www.w3.org/2000/svg" xmlns="http://www.w3.org/2000/svg" xmlns:sodipodi="http://sodipodi.sourceforge.net/DTD/sodipodi-0.dtd" xmlns:inkscape="http://www.inkscape.org/namespaces/inkscape" viewBox="0 0 512 512" id="svg1109" version="1.1" inkscape:version="0.91 r" sodipodi:docname="soundconverter.svg">
<metadata id="metadata1321">
<rdf:RDF>
<cc:Work rdf:about="">
<dc:format>image/svg+xml</dc:format>
<dc:type rdf:resource="http://purl.org/dc/dcmitype/StillImage" />
</cc:Work>
</rdf:RDF>
</metadata>
<defs id="defs1319" />
<sodipodi:namedview pagecolor="#ffffff" bordercolor="#666666" borderopacity="1" objecttolerance="10" gridtolerance="10" guidetolerance="10" inkscape:pageopacity="0" inkscape:pageshadow="2" inkscape:window-width="674" inkscape:window-height="480" id="namedview1317" showgrid="false" inkscape:zoom="0.4609375" inkscape:cx="528.27119" inkscape:cy="256" inkscape:window-x="0" inkscape:window-y="0" inkscape:window-maximized="0" inkscape:current-layer="svg1109" />
<text font-size="129.23" y="231.36" x="729.64" font-family="'Gentium Book Basic'" line-height="125%" word-spacing="0" letter-spacing="0" id="text1111">
<tspan y="231.36" x="729.64" id="tspan1113" />
</text>
<text transform="scale(4.0128.2492)" font-size="46.954" y="579.26" x="378.91" font-family="Arial" text-anchor="middle" id="text1115" />
<text font-size="129.23" y="151.36" x="1310.91" font-family="'Gentium Book Basic'" line-height="125%" word-spacing="0" letter-spacing="0" id="text1117">
<tspan y="151.36" x="1310.91" id="tspan1119" />
</text>
<text transform="scale(4.0128.2492)" font-size="46.954" y="258.22" x="523.76" font-family="Arial" text-anchor="middle" id="text1121" />
<text font-size="129.23" y="-29.9" x="239.33" font-family="'Gentium Book Basic'" line-height="125%" word-spacing="0" letter-spacing="0" id="text1123">
<tspan y="-29.9" x="239.33" id="tspan1125" />
</text>
<text transform="scale(4.0128.2492)" font-size="46.954" y="-469.13" x="256.72" font-family="Arial" text-anchor="middle" id="text1127" />
<text font-size="129.23" y="-246.37" x="1337.38" font-family="'Gentium Book Basic'" line-height="125%" word-spacing="0" letter-spacing="0" id="text1129">
<tspan y="-246.37" x="1337.38" id="tspan1131" />
</text>
<text transform="scale(4.0128.2492)" font-size="46.954" y="-1337.8" x="530.36" font-family="Arial" text-anchor="middle" id="text1133" />
<text font-size="129.23" y="-326.37" x="1918.65" font-family="'Gentium Book Basic'" line-height="125%" word-spacing="0" letter-spacing="0" id="text1135">
<tspan y="-326.37" x="1918.65" id="tspan1137" />
</text>
<text transform="scale(4.0128.2492)" font-size="46.954" y="-1658.83" x="675.21" font-family="Arial" text-anchor="middle" id="text1139" />
<text font-size="129.23" y="-798.77" x="1529.53" font-family="'Gentium Book Basic'" line-height="125%" word-spacing="0" letter-spacing="0" id="text1141">
<tspan y="-798.77" x="1529.53" id="tspan1143" />
</text>
<text transform="scale(4.0128.2492)" font-size="46.954" y="-3554.48" x="578.24" font-family="Arial" text-anchor="middle" id="text1145" />
<text font-size="129.23" y="-878.78" x="2110.79" font-family="'Gentium Book Basic'" line-height="125%" word-spacing="0" letter-spacing="0" id="text1147">
<tspan y="-878.78" x="2110.79" id="tspan1149" />
</text>
<text transform="scale(4.0128.2492)" font-size="46.954" y="-3875.52" x="723.09" font-family="Arial" text-anchor="middle" id="text1151" />
<g font-family="'Gentium Book Basic'" line-height="125%" word-spacing="0" letter-spacing="0" id="g1153">
<text y="535.94" x="277.99" font-size="208.33" id="text1155">
<tspan y="535.94" x="277.99" id="tspan1157" />
</text>
<text y="-503.34" x="968.53" font-size="129.23" id="text1159">
<tspan y="-503.34" x="968.53" id="tspan1161" />
</text>
</g>
<text transform="scale(4.0128.2492)" font-size="46.954" y="-2368.97" x="438.44" font-family="Arial" text-anchor="middle" id="text1163" />
<text font-size="129.23" y="-583.34" x="1549.8" font-family="'Gentium Book Basic'" line-height="125%" word-spacing="0" letter-spacing="0" id="text1165">
<tspan y="-583.34" x="1549.8" id="tspan1167" />
</text>
<text transform="scale(4.0128.2492)" font-size="46.954" y="-2690.01" x="583.29" font-family="Arial" text-anchor="middle" id="text1169" />
<text font-size="129.23" y="-764.6" x="478.22" font-family="'Gentium Book Basic'" line-height="125%" word-spacing="0" letter-spacing="0" id="text1171">
<tspan y="-764.6" x="478.22" id="tspan1173" />
</text>
<text transform="scale(4.0128.2492)" font-size="46.954" y="-3417.36" x="316.25" font-family="Arial" text-anchor="middle" id="text1175" />
<text font-size="129.23" y="-981.07" x="1576.27" font-family="'Gentium Book Basic'" line-height="125%" word-spacing="0" letter-spacing="0" id="text1177">
<tspan y="-981.07" x="1576.27" id="tspan1179" />
</text>
<text transform="scale(4.0128.2492)" font-size="46.954" y="-4286.02" x="589.89" font-family="Arial" text-anchor="middle" id="text1181" />
<text font-size="129.23" y="-1061.07" x="2157.54" font-family="'Gentium Book Basic'" line-height="125%" word-spacing="0" letter-spacing="0" id="text1183">
<tspan y="-1061.07" x="2157.54" id="tspan1185" />
</text>
<text transform="scale(4.0128.2492)" font-size="46.954" y="-4607.05" x="734.74" font-family="Arial" text-anchor="middle" id="text1187" />
<text font-size="129.23" y="-1533.47" x="1768.42" font-family="'Gentium Book Basic'" line-height="125%" word-spacing="0" letter-spacing="0" id="text1189">
<tspan y="-1533.47" x="1768.42" id="tspan1191" />
</text>
<text transform="scale(4.0128.2492)" font-size="46.954" y="-6502.69" x="637.77" font-family="Arial" text-anchor="middle" id="text1193" />
<text font-size="129.23" y="-1613.48" x="2349.68" font-family="'Gentium Book Basic'" line-height="125%" word-spacing="0" letter-spacing="0" id="text1195">
<tspan y="-1613.48" x="2349.68" id="tspan1197" />
</text>
<text transform="scale(4.0128.2492)" font-size="46.954" y="-6823.73" x="782.62" font-family="Arial" text-anchor="middle" id="text1199" />
<text font-size="208.33" y="-198.76" x="516.88" font-family="'Gentium Book Basic'" line-height="125%" word-spacing="0" letter-spacing="0" id="text1201">
<tspan y="-198.76" x="516.88" id="tspan1203" />
</text>
<path style="fill:#4071bc;fill-rule:evenodd" inkscape:connector-curvature="0" id="path1207" d="m 471.95,253.05 c 0,120.9 -98.01,218.91 -218.91,218.91 -120.9,0 -218.91,-98.01 -218.91,-218.91 0,-120.9 98.01,-218.91 218.91,-218.91 120.9,0 218.91,98.01 218.91,218.91" />
<text font-size="129.23" y="231.36" x="729.64" font-family="'Gentium Book Basic'" line-height="125%" word-spacing="0" letter-spacing="0" id="text1219">
<tspan y="231.36" x="729.64" id="tspan1221" />
</text>
<text transform="scale(4.0128.2492)" font-size="46.954" y="579.26" x="378.91" font-family="Arial" text-anchor="middle" id="text1223" />
<text font-size="129.23" y="151.36" x="1310.91" font-family="'Gentium Book Basic'" line-height="125%" word-spacing="0" letter-spacing="0" id="text1225">
<tspan y="151.36" x="1310.91" id="tspan1227" />
</text>
<text transform="scale(4.0128.2492)" font-size="46.954" y="258.22" x="523.76" font-family="Arial" text-anchor="middle" id="text1229" />
<text font-size="129.23" y="-29.9" x="239.33" font-family="'Gentium Book Basic'" line-height="125%" word-spacing="0" letter-spacing="0" id="text1231">
<tspan y="-29.9" x="239.33" id="tspan1233" />
</text>
<text transform="scale(4.0128.2492)" font-size="46.954" y="-469.13" x="256.72" font-family="Arial" text-anchor="middle" id="text1235" />
<text font-size="129.23" y="-246.37" x="1337.38" font-family="'Gentium Book Basic'" line-height="125%" word-spacing="0" letter-spacing="0" id="text1237">
<tspan y="-246.37" x="1337.38" id="tspan1239" />
</text>
<text transform="scale(4.0128.2492)" font-size="46.954" y="-1337.8" x="530.36" font-family="Arial" text-anchor="middle" id="text1241" />
<text font-size="129.23" y="-326.37" x="1918.65" font-family="'Gentium Book Basic'" line-height="125%" word-spacing="0" letter-spacing="0" id="text1243">
<tspan y="-326.37" x="1918.65" id="tspan1245" />
</text>
<text transform="scale(4.0128.2492)" font-size="46.954" y="-1658.83" x="675.21" font-family="Arial" text-anchor="middle" id="text1247" />
<text font-size="129.23" y="-798.77" x="1529.53" font-family="'Gentium Book Basic'" line-height="125%" word-spacing="0" letter-spacing="0" id="text1249">
<tspan y="-798.77" x="1529.53" id="tspan1251" />
</text>
<text transform="scale(4.0128.2492)" font-size="46.954" y="-3554.48" x="578.24" font-family="Arial" text-anchor="middle" id="text1253" />
<text font-size="129.23" y="-878.78" x="2110.79" font-family="'Gentium Book Basic'" line-height="125%" word-spacing="0" letter-spacing="0" id="text1255">
<tspan y="-878.78" x="2110.79" id="tspan1257" />
</text>
<text transform="scale(4.0128.2492)" font-size="46.954" y="-3875.52" x="723.09" font-family="Arial" text-anchor="middle" id="text1259" />
<g font-family="'Gentium Book Basic'" line-height="125%" word-spacing="0" letter-spacing="0" id="g1261">
<text y="535.94" x="277.99" font-size="208.33" id="text1263">
<tspan y="535.94" x="277.99" id="tspan1265" />
</text>
<text y="-503.34" x="968.53" font-size="129.23" id="text1267">
<tspan y="-503.34" x="968.53" id="tspan1269" />
</text>
</g>
<text transform="scale(4.0128.2492)" font-size="46.954" y="-2368.97" x="438.44" font-family="Arial" text-anchor="middle" id="text1271" />
<text font-size="129.23" y="-583.34" x="1549.8" font-family="'Gentium Book Basic'" line-height="125%" word-spacing="0" letter-spacing="0" id="text1273">
<tspan y="-583.34" x="1549.8" id="tspan1275" />
</text>
<text transform="scale(4.0128.2492)" font-size="46.954" y="-2690.01" x="583.29" font-family="Arial" text-anchor="middle" id="text1277" />
<text font-size="129.23" y="-764.6" x="478.22" font-family="'Gentium Book Basic'" line-height="125%" word-spacing="0" letter-spacing="0" id="text1279">
<tspan y="-764.6" x="478.22" id="tspan1281" />
</text>
<text transform="scale(4.0128.2492)" font-size="46.954" y="-3417.36" x="316.25" font-family="Arial" text-anchor="middle" id="text1283" />
<text font-size="129.23" y="-981.07" x="1576.27" font-family="'Gentium Book Basic'" line-height="125%" word-spacing="0" letter-spacing="0" id="text1285">
<tspan y="-981.07" x="1576.27" id="tspan1287" />
</text>
<text transform="scale(4.0128.2492)" font-size="46.954" y="-4286.02" x="589.89" font-family="Arial" text-anchor="middle" id="text1289" />
<text font-size="129.23" y="-1061.07" x="2157.54" font-family="'Gentium Book Basic'" line-height="125%" word-spacing="0" letter-spacing="0" id="text1291">
<tspan y="-1061.07" x="2157.54" id="tspan1293" />
</text>
<text transform="scale(4.0128.2492)" font-size="46.954" y="-4607.05" x="734.74" font-family="Arial" text-anchor="middle" id="text1295" />
<text font-size="129.23" y="-1533.47" x="1768.42" font-family="'Gentium Book Basic'" line-height="125%" word-spacing="0" letter-spacing="0" id="text1297">
<tspan y="-1533.47" x="1768.42" id="tspan1299" />
</text>
<text transform="scale(4.0128.2492)" font-size="46.954" y="-6502.69" x="637.77" font-family="Arial" text-anchor="middle" id="text1301" />
<text font-size="129.23" y="-1613.48" x="2349.68" font-family="'Gentium Book Basic'" line-height="125%" word-spacing="0" letter-spacing="0" id="text1303">
<tspan y="-1613.48" x="2349.68" id="tspan1305" />
</text>
<text transform="scale(4.0128.2492)" font-size="46.954" y="-6823.73" x="782.62" font-family="Arial" text-anchor="middle" id="text1307" />
<text font-size="208.33" y="-198.76" x="516.88" font-family="'Gentium Book Basic'" line-height="125%" word-spacing="0" letter-spacing="0" id="text1309">
<tspan y="-198.76" x="516.88" id="tspan1311" />
</text>
<path d="m277.76 90.21v171.62c-11.914-5.659-28.309-5.721-43.39 1.102-22.63 10.239-33.609 32.06-24.656 48.622 8.954 16.562 34.533 21.672 57.16 11.432 18.1-8.191 28.708-23.784 27.686-38.15 0.031 0.095 0.11 0.181 0.138 0.275v-145.59c15.913 11.35 53.44 54.39 38.43 105.78 8.868-26.02 9.636-52.968 5.923-67.906-4.778-19.225-20.916-39.04-37.603-56.887-17.53-18.749-23.691-30.3-23.691-30.3m-24.1 78.51c-9.968 0.013-19.899 1.253-29.614 3.857-61.14 16.381-97.51 79.22-81.13 140.36l-21.21 5.785 49.724 32.23 26.859-52.755-21.21 5.647c-11.341-42.32 13.736-85.77 56.06-97.11 6.726-1.802 13.621-2.749 20.523-2.755v-35.26m96.97 70.52l-39.669 44.08h22.04c0 43.817-35.521 79.34-79.34 79.34-13.927 0-27.608-3.643-39.669-10.606l-17.631 30.578c17.421 10.06 37.18 15.289 57.3 15.289 63.29 0 114.6-51.31 114.6-114.6h22.04l-39.669-44.08" fill="#fff" id="path1315" />
</svg>
