<?xml version="1.0" encoding="UTF-8" standalone="no"?>
<svg xmlns:dc="http://purl.org/dc/elements/1.1/" xmlns:cc="http://creativecommons.org/ns#" xmlns:rdf="http://www.w3.org/1999/02/22-rdf-syntax-ns#" xmlns:svg="http://www.w3.org/2000/svg" xmlns="http://www.w3.org/2000/svg" xmlns:sodipodi="http://sodipodi.sourceforge.net/DTD/sodipodi-0.dtd" xmlns:inkscape="http://www.inkscape.org/namespaces/inkscape" height="512" viewBox="0 0 512 512" width="512" version="1.1" id="svg2" inkscape:version="0.91 r" sodipodi:docname="sublime.svg">
<defs id="defs16" />
<sodipodi:namedview pagecolor="#ffffff" bordercolor="#666666" borderopacity="1" objecttolerance="10" gridtolerance="10" guidetolerance="10" inkscape:pageopacity="0" inkscape:pageshadow="2" inkscape:window-width="733" inkscape:window-height="480" id="namedview14" showgrid="false" inkscape:zoom="0.4609375" inkscape:cx="256" inkscape:cy="256" inkscape:window-x="0" inkscape:window-y="0" inkscape:window-maximized="0" inkscape:current-layer="svg2" />
<metadata id="metadata72">
<rdf:RDF>
<cc:Work rdf:about="">
<dc:format>image/svg+xml</dc:format>
<dc:type rdf:resource="http://purl.org/dc/dcmitype/StillImage" />
</cc:Work>
</rdf:RDF>
</metadata>
<path id="path4" d="m471.95 253.05c0 120.9-98.01 218.9-218.9 218.9-120.9 0-218.9-98.01-218.9-218.9 0-120.9 98.01-218.9 218.9-218.9 120.9 0 218.9 98.01 218.9 218.9" fill-rule="evenodd" fill="#ff8100" />
<path id="path66" fill="#fff" d="m185.22 319.46c20.855 17.751 47.49 30.18 71.45 30.18 27.07 0 40.38-10.654 40.38-27.959 0-18.2-16.417-23.964-41.716-34.615l-37.72-15.98c-29.737-11.982-58.14-36.834-58.14-78.997 0-47.929 42.607-86.09 102.97-86.09 33.28 0 68.35 13.314 93.2 38.17l-33.29 41.27c-19.08-14.645-36.838-23.08-59.911-23.08-22.633 0-36.838 9.763-36.838 26.18 0 17.751 19.08 23.964 43.942 34.17l37.28 15.09c35.06 14.201 57.25 37.725 57.25 78.55 0 47.932-39.944 89.64-109.18 89.64-37.719 0-77.66-14.198-106.95-41.716l37.28-44.819" />
</svg>
