<?xml version="1.0" encoding="UTF-8" standalone="no"?>
<svg xmlns:dc="http://purl.org/dc/elements/1.1/" xmlns:cc="http://creativecommons.org/ns#" xmlns:rdf="http://www.w3.org/1999/02/22-rdf-syntax-ns#" xmlns:svg="http://www.w3.org/2000/svg" xmlns="http://www.w3.org/2000/svg" xmlns:sodipodi="http://sodipodi.sourceforge.net/DTD/sodipodi-0.dtd" xmlns:inkscape="http://www.inkscape.org/namespaces/inkscape" height="512" width="512" version="1.1" id="svg2" inkscape:version="0.91 r" sodipodi:docname="ksudoku.svg">
<defs id="defs26" />
<sodipodi:namedview pagecolor="#ffffff" bordercolor="#666666" borderopacity="1" objecttolerance="10" gridtolerance="10" guidetolerance="10" inkscape:pageopacity="0" inkscape:pageshadow="2" inkscape:window-width="640" inkscape:window-height="480" id="namedview24" showgrid="false" inkscape:zoom="0.4609375" inkscape:cx="256" inkscape:cy="256" inkscape:window-x="0" inkscape:window-y="0" inkscape:window-maximized="0" inkscape:current-layer="svg2" />
<metadata id="metadata66">
<rdf:RDF>
<cc:Work rdf:about="">
<dc:format>image/svg+xml</dc:format>
<dc:type rdf:resource="http://purl.org/dc/dcmitype/StillImage" />
</cc:Work>
</rdf:RDF>
</metadata>
<path id="path6" d="m471.95 253.05c0 120.9-98.006 218.9-218.9 218.9-120.9 0-218.9-98.006-218.9-218.9 0-120.9 98.006-218.9 218.9-218.9 120.9 0 218.9 98.006 218.9 218.9z" fill-rule="evenodd" fill="#88687d" />
<rect style="fill:#ffffff" height="12.040729" x="87.428627" width="337.15384" y="195.79732" id="rect3870" />
<rect style="fill:#ffffff" height="12.040729" x="87.428627" width="337.15384" y="304.16098" id="rect3870-8" />
<rect style="fill:#ffffff" x="87.424019" y="-207.83592" width="337.15384" height="12.040729" transform="matrix(0,1,-1,0,0,0)" id="rect3870-9" />
<rect style="fill:#ffffff" x="87.424019" y="-316.2092" width="337.15384" height="12.040729" transform="matrix(0,1,-1,0,0,0)" id="rect3870-99" />
<g style="fill:#ffffff" transform="matrix(12.040728,0,0,12.040728,-32.978642,-12126.59)" id="text3915">
<path inkscape:connector-curvature="0" d="m 12.848,1016.5 3.7383,0 0,1.1054 -2.5391,0 0,0.9024 c 0.11458,-0.031 0.22916,-0.055 0.34375,-0.07 0.11718,-0.018 0.23828,-0.027 0.36328,-0.027 0.71093,0 1.2643,0.1784 1.6602,0.5352 0.39583,0.3541 0.59374,0.8489 0.59375,1.4843 -5e-6,0.6302 -0.21615,1.1237 -0.64844,1.4805 -0.42969,0.3568 -1.0273,0.5352 -1.793,0.5352 -0.33073,0 -0.65886,-0.033 -0.98438,-0.098 -0.32292,-0.063 -0.64453,-0.1588 -0.96484,-0.2891 l 0,-1.1835 c 0.31771,0.1822 0.61849,0.319 0.90234,0.4101 0.28646,0.091 0.55599,0.1367 0.80859,0.1367 0.36458,0 0.65104,-0.088 0.85938,-0.2656 0.21093,-0.1797 0.3164,-0.4219 0.31641,-0.7266 -3e-6,-0.3073 -0.10547,-0.5494 -0.31641,-0.7265 -0.20834,-0.1771 -0.49479,-0.2656 -0.85938,-0.2656 -0.21615,0 -0.44662,0.029 -0.69141,0.086 -0.24479,0.055 -0.50781,0.1406 -0.78906,0.2578 l 0,-3.2812" id="path3959" />
</g>
<g style="fill:#ffffff" transform="matrix(12.040728,0,0,12.040728,-36.172316,-12126.59)" id="text3915-3">
<path inkscape:connector-curvature="0" d="m 23.863,1021.3 2.5664,0 0,1.1055 -4.2383,0 0,-1.1055 2.1289,-1.8789 c 0.1901,-0.1719 0.33073,-0.3398 0.42188,-0.5039 0.09114,-0.1641 0.13672,-0.3346 0.13672,-0.5117 -3e-6,-0.2735 -0.09245,-0.4935 -0.27734,-0.6602 -0.1823,-0.1666 -0.42578,-0.25 -0.73047,-0.25 -0.23438,0 -0.49089,0.051 -0.76953,0.1524 -0.27865,0.099 -0.57682,0.2474 -0.89453,0.4453 l 0,-1.2813 c 0.33854,-0.1119 0.67318,-0.1966 1.0039,-0.2539 0.33073,-0.06 0.65494,-0.09 0.97266,-0.09 0.69791,0 1.2396,0.1536 1.625,0.4609 0.38802,0.3073 0.58203,0.7357 0.58203,1.2852 -5e-6,0.3177 -0.08204,0.6146 -0.24609,0.8906 -0.16407,0.2734 -0.50912,0.6406 -1.0352,1.1016 l -1.2461,1.0937" id="path3962" />
</g>
<g style="fill:#ffffff" transform="matrix(12.040728,0,0,12.040728,-32.978642,-12126.59)" id="text3915-8">
<path inkscape:connector-curvature="0" d="m 25.169,1028.2 c 0.39322,0.1015 0.6914,0.2786 0.89453,0.5312 0.20572,0.25 0.30859,0.569 0.30859,0.957 -5e-6,0.5782 -0.22136,1.0183 -0.66406,1.3203 -0.44271,0.2995 -1.0885,0.4493 -1.9375,0.4493 -0.29948,0 -0.60026,-0.025 -0.90234,-0.074 -0.29948,-0.047 -0.59636,-0.1184 -0.89062,-0.2148 l 0,-1.1602 c 0.28125,0.1407 0.5599,0.2474 0.83594,0.3204 0.27864,0.07 0.55208,0.1054 0.82031,0.1054 0.39844,0 0.70312,-0.069 0.91406,-0.207 0.21354,-0.138 0.32031,-0.3359 0.32031,-0.5938 -3e-6,-0.2656 -0.10938,-0.4661 -0.32812,-0.6015 -0.21615,-0.138 -0.53646,-0.207 -0.96094,-0.207 l -0.60156,0 0,-0.9688 0.63281,0 c 0.3776,0 0.65885,-0.059 0.84375,-0.1758 0.18489,-0.1198 0.27734,-0.3008 0.27734,-0.5429 -4e-6,-0.224 -0.08985,-0.3972 -0.26953,-0.5196 -0.17969,-0.1224 -0.4336,-0.1836 -0.76172,-0.1836 -0.24219,0 -0.48698,0.027 -0.73438,0.082 -0.2474,0.055 -0.49349,0.1354 -0.73828,0.2421 l 0,-1.1015 c 0.29687,-0.083 0.59114,-0.1458 0.88281,-0.1875 0.29166,-0.042 0.57812,-0.063 0.85938,-0.063 0.75781,0 1.3242,0.125 1.6992,0.375 0.3776,0.2474 0.5664,0.6211 0.56641,1.1211 -5e-6,0.3411 -0.08985,0.6211 -0.26953,0.8398 -0.17969,0.2162 -0.44532,0.3685 -0.79688,0.4571" id="path3965" />
</g>
<g style="fill:#ffffff" transform="matrix(12.040728,0,0,12.040728,-32.978642,-12126.59)" id="text3915-4">
<path inkscape:connector-curvature="0" d="m 31.154,1040.2 0,-1.0781 c 0.23958,0.1119 0.46875,0.1966 0.6875,0.2539 0.21875,0.055 0.43489,0.082 0.64844,0.082 0.44791,0 0.79687,-0.1237 1.0469,-0.3711 0.25,-0.25 0.39713,-0.6198 0.44141,-1.1094 -0.17709,0.1302 -0.36589,0.2279 -0.56641,0.293 -0.20052,0.065 -0.41797,0.098 -0.65234,0.098 -0.59636,0 -1.0781,-0.1731 -1.4453,-0.5195 -0.36458,-0.3489 -0.54688,-0.8073 -0.54688,-1.375 0,-0.6276 0.20312,-1.1302 0.60938,-1.5078 0.40885,-0.3776 0.95573,-0.5664 1.6406,-0.5664 0.76041,0 1.349,0.2565 1.7656,0.7695 0.41666,0.5131 0.625,1.2383 0.625,2.1758 -5e-6,0.9636 -0.24349,1.7214 -0.73047,2.2734 -0.48698,0.5495 -1.155,0.8243 -2.0039,0.8243 -0.27344,0 -0.53516,-0.021 -0.78516,-0.063 -0.25,-0.039 -0.49479,-0.099 -0.73438,-0.1797 m 1.8555,-2.8086 c 0.26302,0 0.46093,-0.085 0.59375,-0.2539 0.13281,-0.1719 0.19922,-0.4284 0.19922,-0.7696 -4e-6,-0.3385 -0.06641,-0.5937 -0.19922,-0.7656 -0.13282,-0.1718 -0.33073,-0.2578 -0.59375,-0.2578 -0.26302,0 -0.46094,0.086 -0.59375,0.2578 -0.13282,0.1719 -0.19922,0.4271 -0.19922,0.7656 -2e-6,0.3412 0.0664,0.5977 0.19922,0.7696 0.13281,0.1693 0.33073,0.2539 0.59375,0.2539" id="path3968" />
</g>
</svg>
