<?xml version="1.0" encoding="UTF-8" standalone="no"?>
<svg xmlns:dc="http://purl.org/dc/elements/1.1/" xmlns:cc="http://creativecommons.org/ns#" xmlns:rdf="http://www.w3.org/1999/02/22-rdf-syntax-ns#" xmlns:svg="http://www.w3.org/2000/svg" xmlns="http://www.w3.org/2000/svg" xmlns:sodipodi="http://sodipodi.sourceforge.net/DTD/sodipodi-0.dtd" xmlns:inkscape="http://www.inkscape.org/namespaces/inkscape" viewBox="0 0 512 512" id="svg912" version="1.1" inkscape:version="0.91 r" sodipodi:docname="ted.svg">
<metadata id="metadata1790">
<rdf:RDF>
<cc:Work rdf:about="">
<dc:format>image/svg+xml</dc:format>
<dc:type rdf:resource="http://purl.org/dc/dcmitype/StillImage" />
</cc:Work>
</rdf:RDF>
</metadata>
<defs id="defs1788" />
<sodipodi:namedview pagecolor="#ffffff" bordercolor="#666666" borderopacity="1" objecttolerance="10" gridtolerance="10" guidetolerance="10" inkscape:pageopacity="0" inkscape:pageshadow="2" inkscape:window-width="640" inkscape:window-height="480" id="namedview1786" showgrid="false" inkscape:zoom="0.4609375" inkscape:cx="256" inkscape:cy="256" inkscape:window-x="0" inkscape:window-y="0" inkscape:window-maximized="0" inkscape:current-layer="svg912" />
<text font-size="129.23" y="231.36" x="729.64" font-family="'Gentium Book Basic'" line-height="125%" word-spacing="0" letter-spacing="0" id="text914">
<tspan y="231.36" x="729.64" id="tspan916" />
</text>
<text transform="scale(4.0128.2492)" font-size="46.954" y="579.26" x="378.91" font-family="Arial" text-anchor="middle" id="text918" />
<text font-size="129.23" y="151.36" x="1310.91" font-family="'Gentium Book Basic'" line-height="125%" word-spacing="0" letter-spacing="0" id="text920">
<tspan y="151.36" x="1310.91" id="tspan922" />
</text>
<text transform="scale(4.0128.2492)" font-size="46.954" y="258.22" x="523.76" font-family="Arial" text-anchor="middle" id="text924" />
<text font-size="129.23" y="-29.9" x="239.33" font-family="'Gentium Book Basic'" line-height="125%" word-spacing="0" letter-spacing="0" id="text926">
<tspan y="-29.9" x="239.33" id="tspan928" />
</text>
<text transform="scale(4.0128.2492)" font-size="46.954" y="-469.13" x="256.72" font-family="Arial" text-anchor="middle" id="text930" />
<text font-size="129.23" y="-246.37" x="1337.38" font-family="'Gentium Book Basic'" line-height="125%" word-spacing="0" letter-spacing="0" id="text932">
<tspan y="-246.37" x="1337.38" id="tspan934" />
</text>
<text transform="scale(4.0128.2492)" font-size="46.954" y="-1337.8" x="530.36" font-family="Arial" text-anchor="middle" id="text936" />
<text font-size="129.23" y="-326.37" x="1918.65" font-family="'Gentium Book Basic'" line-height="125%" word-spacing="0" letter-spacing="0" id="text938">
<tspan y="-326.37" x="1918.65" id="tspan940" />
</text>
<text transform="scale(4.0128.2492)" font-size="46.954" y="-1658.83" x="675.21" font-family="Arial" text-anchor="middle" id="text942" />
<text font-size="129.23" y="-798.77" x="1529.53" font-family="'Gentium Book Basic'" line-height="125%" word-spacing="0" letter-spacing="0" id="text944">
<tspan y="-798.77" x="1529.53" id="tspan946" />
</text>
<text transform="scale(4.0128.2492)" font-size="46.954" y="-3554.48" x="578.24" font-family="Arial" text-anchor="middle" id="text948" />
<text font-size="129.23" y="-878.78" x="2110.79" font-family="'Gentium Book Basic'" line-height="125%" word-spacing="0" letter-spacing="0" id="text950">
<tspan y="-878.78" x="2110.79" id="tspan952" />
</text>
<text transform="scale(4.0128.2492)" font-size="46.954" y="-3875.52" x="723.09" font-family="Arial" text-anchor="middle" id="text954" />
<g font-family="'Gentium Book Basic'" line-height="125%" word-spacing="0" letter-spacing="0" id="g956">
<text y="535.94" x="277.99" font-size="208.33" id="text958">
<tspan y="535.94" x="277.99" id="tspan960" />
</text>
<text y="231.36" x="729.64" font-size="129.23" id="text962">
<tspan y="231.36" x="729.64" id="tspan964" />
</text>
</g>
<text transform="scale(4.0128.2492)" font-size="46.954" y="579.26" x="378.91" font-family="Arial" text-anchor="middle" id="text966" />
<text font-size="129.23" y="151.36" x="1310.91" font-family="'Gentium Book Basic'" line-height="125%" word-spacing="0" letter-spacing="0" id="text968">
<tspan y="151.36" x="1310.91" id="tspan970" />
</text>
<text transform="scale(4.0128.2492)" font-size="46.954" y="258.22" x="523.76" font-family="Arial" text-anchor="middle" id="text972" />
<text font-size="129.23" y="-29.9" x="239.33" font-family="'Gentium Book Basic'" line-height="125%" word-spacing="0" letter-spacing="0" id="text974">
<tspan y="-29.9" x="239.33" id="tspan976" />
</text>
<text transform="scale(4.0128.2492)" font-size="46.954" y="-469.13" x="256.72" font-family="Arial" text-anchor="middle" id="text978" />
<text font-size="129.23" y="-246.37" x="1337.38" font-family="'Gentium Book Basic'" line-height="125%" word-spacing="0" letter-spacing="0" id="text980">
<tspan y="-246.37" x="1337.38" id="tspan982" />
</text>
<text transform="scale(4.0128.2492)" font-size="46.954" y="-1337.79" x="530.36" font-family="Arial" text-anchor="middle" id="text984" />
<text font-size="129.23" y="-326.37" x="1918.65" font-family="'Gentium Book Basic'" line-height="125%" word-spacing="0" letter-spacing="0" id="text986">
<tspan y="-326.37" x="1918.65" id="tspan988" />
</text>
<text transform="scale(4.0128.2492)" font-size="46.954" y="-1658.82" x="675.21" font-family="Arial" text-anchor="middle" id="text990" />
<text font-size="129.23" y="-798.77" x="1529.53" font-family="'Gentium Book Basic'" line-height="125%" word-spacing="0" letter-spacing="0" id="text992">
<tspan y="-798.77" x="1529.53" id="tspan994" />
</text>
<text transform="scale(4.0128.2492)" font-size="46.954" y="-3554.46" x="578.24" font-family="Arial" text-anchor="middle" id="text996" />
<text font-size="129.23" y="-878.78" x="2110.79" font-family="'Gentium Book Basic'" line-height="125%" word-spacing="0" letter-spacing="0" id="text998">
<tspan y="-878.78" x="2110.79" id="tspan1000" />
</text>
<text transform="scale(4.0128.2492)" font-size="46.954" y="-3875.5" x="723.09" font-family="Arial" text-anchor="middle" id="text1002" />
<g font-family="'Gentium Book Basic'" line-height="125%" word-spacing="0" letter-spacing="0" id="g1004">
<text y="535.94" x="277.99" font-size="208.33" id="text1006">
<tspan y="535.94" x="277.99" id="tspan1008" />
</text>
<text y="231.36" x="729.64" font-size="129.23" id="text1010">
<tspan y="231.36" x="729.64" id="tspan1012" />
</text>
</g>
<text transform="scale(4.0128.2492)" font-size="46.954" y="579.26" x="378.91" font-family="Arial" text-anchor="middle" id="text1014" />
<text font-size="129.23" y="151.36" x="1310.91" font-family="'Gentium Book Basic'" line-height="125%" word-spacing="0" letter-spacing="0" id="text1016">
<tspan y="151.36" x="1310.91" id="tspan1018" />
</text>
<text transform="scale(4.0128.2492)" font-size="46.954" y="258.22" x="523.76" font-family="Arial" text-anchor="middle" id="text1020" />
<text font-size="129.23" y="-29.9" x="239.33" font-family="'Gentium Book Basic'" line-height="125%" word-spacing="0" letter-spacing="0" id="text1022">
<tspan y="-29.9" x="239.33" id="tspan1024" />
</text>
<text transform="scale(4.0128.2492)" font-size="46.954" y="-469.13" x="256.72" font-family="Arial" text-anchor="middle" id="text1026" />
<text font-size="129.23" y="-246.37" x="1337.38" font-family="'Gentium Book Basic'" line-height="125%" word-spacing="0" letter-spacing="0" id="text1028">
<tspan y="-246.37" x="1337.38" id="tspan1030" />
</text>
<text transform="scale(4.0128.2492)" font-size="46.954" y="-1337.8" x="530.36" font-family="Arial" text-anchor="middle" id="text1032" />
<text font-size="129.23" y="-326.37" x="1918.65" font-family="'Gentium Book Basic'" line-height="125%" word-spacing="0" letter-spacing="0" id="text1034">
<tspan y="-326.37" x="1918.65" id="tspan1036" />
</text>
<text transform="scale(4.0128.2492)" font-size="46.954" y="-1658.83" x="675.21" font-family="Arial" text-anchor="middle" id="text1038" />
<text font-size="129.23" y="-798.77" x="1529.53" font-family="'Gentium Book Basic'" line-height="125%" word-spacing="0" letter-spacing="0" id="text1040">
<tspan y="-798.77" x="1529.53" id="tspan1042" />
</text>
<text transform="scale(4.0128.2492)" font-size="46.954" y="-3554.48" x="578.24" font-family="Arial" text-anchor="middle" id="text1044" />
<text font-size="129.23" y="-878.78" x="2110.79" font-family="'Gentium Book Basic'" line-height="125%" word-spacing="0" letter-spacing="0" id="text1046">
<tspan y="-878.78" x="2110.79" id="tspan1048" />
</text>
<text transform="scale(4.0128.2492)" font-size="46.954" y="-3875.52" x="723.09" font-family="Arial" text-anchor="middle" id="text1050" />
<g font-family="'Gentium Book Basic'" line-height="125%" word-spacing="0" letter-spacing="0" id="g1052">
<text y="535.94" x="277.99" font-size="208.33" id="text1054">
<tspan y="535.94" x="277.99" id="tspan1056" />
</text>
<text y="231.36" x="729.64" font-size="129.23" id="text1058">
<tspan y="231.36" x="729.64" id="tspan1060" />
</text>
</g>
<text transform="scale(4.0128.2492)" font-size="46.954" y="579.26" x="378.91" font-family="Arial" text-anchor="middle" id="text1062" />
<text font-size="129.23" y="151.36" x="1310.91" font-family="'Gentium Book Basic'" line-height="125%" word-spacing="0" letter-spacing="0" id="text1064">
<tspan y="151.36" x="1310.91" id="tspan1066" />
</text>
<text transform="scale(4.0128.2492)" font-size="46.954" y="258.22" x="523.76" font-family="Arial" text-anchor="middle" id="text1068" />
<text font-size="129.23" y="-29.9" x="239.33" font-family="'Gentium Book Basic'" line-height="125%" word-spacing="0" letter-spacing="0" id="text1070">
<tspan y="-29.9" x="239.33" id="tspan1072" />
</text>
<text transform="scale(4.0128.2492)" font-size="46.954" y="-469.13" x="256.72" font-family="Arial" text-anchor="middle" id="text1074" />
<text font-size="129.23" y="-246.37" x="1337.38" font-family="'Gentium Book Basic'" line-height="125%" word-spacing="0" letter-spacing="0" id="text1076">
<tspan y="-246.37" x="1337.38" id="tspan1078" />
</text>
<text transform="scale(4.0128.2492)" font-size="46.954" y="-1337.8" x="530.36" font-family="Arial" text-anchor="middle" id="text1080" />
<text font-size="129.23" y="-326.37" x="1918.65" font-family="'Gentium Book Basic'" line-height="125%" word-spacing="0" letter-spacing="0" id="text1082">
<tspan y="-326.37" x="1918.65" id="tspan1084" />
</text>
<text transform="scale(4.0128.2492)" font-size="46.954" y="-1658.83" x="675.21" font-family="Arial" text-anchor="middle" id="text1086" />
<text font-size="129.23" y="-798.77" x="1529.53" font-family="'Gentium Book Basic'" line-height="125%" word-spacing="0" letter-spacing="0" id="text1088">
<tspan y="-798.77" x="1529.53" id="tspan1090" />
</text>
<text transform="scale(4.0128.2492)" font-size="46.954" y="-3554.48" x="578.24" font-family="Arial" text-anchor="middle" id="text1092" />
<text font-size="129.23" y="-878.78" x="2110.79" font-family="'Gentium Book Basic'" line-height="125%" word-spacing="0" letter-spacing="0" id="text1094">
<tspan y="-878.78" x="2110.79" id="tspan1096" />
</text>
<text transform="scale(4.0128.2492)" font-size="46.954" y="-3875.52" x="723.09" font-family="Arial" text-anchor="middle" id="text1098" />
<g font-family="'Gentium Book Basic'" line-height="125%" word-spacing="0" letter-spacing="0" id="g1100">
<text y="535.94" x="277.99" font-size="208.33" id="text1102">
<tspan y="535.94" x="277.99" id="tspan1104" />
</text>
<text y="231.36" x="729.64" font-size="129.23" id="text1106">
<tspan y="231.36" x="729.64" id="tspan1108" />
</text>
</g>
<text transform="scale(4.0128.2492)" font-size="46.954" y="579.26" x="378.91" font-family="Arial" text-anchor="middle" id="text1110" />
<text font-size="129.23" y="151.36" x="1310.91" font-family="'Gentium Book Basic'" line-height="125%" word-spacing="0" letter-spacing="0" id="text1112">
<tspan y="151.36" x="1310.91" id="tspan1114" />
</text>
<text transform="scale(4.0128.2492)" font-size="46.954" y="258.22" x="523.76" font-family="Arial" text-anchor="middle" id="text1116" />
<text font-size="129.23" y="-29.9" x="239.33" font-family="'Gentium Book Basic'" line-height="125%" word-spacing="0" letter-spacing="0" id="text1118">
<tspan y="-29.9" x="239.33" id="tspan1120" />
</text>
<text transform="scale(4.0128.2492)" font-size="46.954" y="-469.13" x="256.72" font-family="Arial" text-anchor="middle" id="text1122" />
<text font-size="129.23" y="-246.37" x="1337.38" font-family="'Gentium Book Basic'" line-height="125%" word-spacing="0" letter-spacing="0" id="text1124">
<tspan y="-246.37" x="1337.38" id="tspan1126" />
</text>
<text transform="scale(4.0128.2492)" font-size="46.954" y="-1337.8" x="530.36" font-family="Arial" text-anchor="middle" id="text1128" />
<text font-size="129.23" y="-326.37" x="1918.65" font-family="'Gentium Book Basic'" line-height="125%" word-spacing="0" letter-spacing="0" id="text1130">
<tspan y="-326.37" x="1918.65" id="tspan1132" />
</text>
<text transform="scale(4.0128.2492)" font-size="46.954" y="-1658.83" x="675.21" font-family="Arial" text-anchor="middle" id="text1134" />
<text font-size="129.23" y="-798.77" x="1529.53" font-family="'Gentium Book Basic'" line-height="125%" word-spacing="0" letter-spacing="0" id="text1136">
<tspan y="-798.77" x="1529.53" id="tspan1138" />
</text>
<text transform="scale(4.0128.2492)" font-size="46.954" y="-3554.48" x="578.24" font-family="Arial" text-anchor="middle" id="text1140" />
<text font-size="129.23" y="-878.78" x="2110.79" font-family="'Gentium Book Basic'" line-height="125%" word-spacing="0" letter-spacing="0" id="text1142">
<tspan y="-878.78" x="2110.79" id="tspan1144" />
</text>
<text transform="scale(4.0128.2492)" font-size="46.954" y="-3875.52" x="723.09" font-family="Arial" text-anchor="middle" id="text1146" />
<g font-family="'Gentium Book Basic'" line-height="125%" word-spacing="0" letter-spacing="0" id="g1148">
<text y="535.94" x="277.99" font-size="208.33" id="text1150">
<tspan y="535.94" x="277.99" id="tspan1152" />
</text>
<text y="231.36" x="729.64" font-size="129.23" id="text1154">
<tspan y="231.36" x="729.64" id="tspan1156" />
</text>
</g>
<text transform="scale(4.0128.2492)" font-size="46.954" y="579.26" x="378.91" font-family="Arial" text-anchor="middle" id="text1158" />
<text font-size="129.23" y="151.36" x="1310.91" font-family="'Gentium Book Basic'" line-height="125%" word-spacing="0" letter-spacing="0" id="text1160">
<tspan y="151.36" x="1310.91" id="tspan1162" />
</text>
<text transform="scale(4.0128.2492)" font-size="46.954" y="258.22" x="523.76" font-family="Arial" text-anchor="middle" id="text1164" />
<text font-size="129.23" y="-29.9" x="239.33" font-family="'Gentium Book Basic'" line-height="125%" word-spacing="0" letter-spacing="0" id="text1166">
<tspan y="-29.9" x="239.33" id="tspan1168" />
</text>
<text transform="scale(4.0128.2492)" font-size="46.954" y="-469.13" x="256.72" font-family="Arial" text-anchor="middle" id="text1170" />
<text font-size="129.23" y="-246.37" x="1337.38" font-family="'Gentium Book Basic'" line-height="125%" word-spacing="0" letter-spacing="0" id="text1172">
<tspan y="-246.37" x="1337.38" id="tspan1174" />
</text>
<text transform="scale(4.0128.2492)" font-size="46.954" y="-1337.8" x="530.36" font-family="Arial" text-anchor="middle" id="text1176" />
<text font-size="129.23" y="-326.37" x="1918.65" font-family="'Gentium Book Basic'" line-height="125%" word-spacing="0" letter-spacing="0" id="text1178">
<tspan y="-326.37" x="1918.65" id="tspan1180" />
</text>
<text transform="scale(4.0128.2492)" font-size="46.954" y="-1658.83" x="675.21" font-family="Arial" text-anchor="middle" id="text1182" />
<text font-size="129.23" y="-798.77" x="1529.53" font-family="'Gentium Book Basic'" line-height="125%" word-spacing="0" letter-spacing="0" id="text1184">
<tspan y="-798.77" x="1529.53" id="tspan1186" />
</text>
<text transform="scale(4.0128.2492)" font-size="46.954" y="-3554.48" x="578.24" font-family="Arial" text-anchor="middle" id="text1188" />
<text font-size="129.23" y="-878.78" x="2110.79" font-family="'Gentium Book Basic'" line-height="125%" word-spacing="0" letter-spacing="0" id="text1190">
<tspan y="-878.78" x="2110.79" id="tspan1192" />
</text>
<text transform="scale(4.0128.2492)" font-size="46.954" y="-3875.52" x="723.09" font-family="Arial" text-anchor="middle" id="text1194" />
<g font-family="'Gentium Book Basic'" line-height="125%" word-spacing="0" letter-spacing="0" id="g1196">
<text y="535.94" x="277.99" font-size="208.33" id="text1198">
<tspan y="535.94" x="277.99" id="tspan1200" />
</text>
<text y="282.62" x="1579.63" font-size="129.23" id="text1202">
<tspan y="282.62" x="1579.63" id="tspan1204" />
</text>
</g>
<text transform="scale(4.0128.2492)" font-size="46.954" y="784.96" x="590.73" font-family="Arial" text-anchor="middle" id="text1206" />
<text font-size="129.23" y="202.62" x="2160.9" font-family="'Gentium Book Basic'" line-height="125%" word-spacing="0" letter-spacing="0" id="text1208">
<tspan y="202.62" x="2160.9" id="tspan1210" />
</text>
<text transform="scale(4.0128.2492)" font-size="46.954" y="463.92" x="735.58" font-family="Arial" text-anchor="middle" id="text1212" />
<text font-size="129.23" y="21.362" x="1089.32" font-family="'Gentium Book Basic'" line-height="125%" word-spacing="0" letter-spacing="0" id="text1214">
<tspan y="21.362" x="1089.32" id="tspan1216" />
</text>
<text transform="scale(4.0128.2492)" font-size="46.954" y="-263.42" x="468.54" font-family="Arial" text-anchor="middle" id="text1218" />
<text font-size="129.23" y="-195.11" x="2187.37" font-family="'Gentium Book Basic'" line-height="125%" word-spacing="0" letter-spacing="0" id="text1220">
<tspan y="-195.11" x="2187.37" id="tspan1222" />
</text>
<text transform="scale(4.0128.2492)" font-size="46.954" y="-1132.09" x="742.18" font-family="Arial" text-anchor="middle" id="text1224" />
<text font-size="129.23" y="-275.12" x="2768.64" font-family="'Gentium Book Basic'" line-height="125%" word-spacing="0" letter-spacing="0" id="text1226">
<tspan y="-275.12" x="2768.64" id="tspan1228" />
</text>
<text transform="scale(4.0128.2492)" font-size="46.954" y="-1453.12" x="887.03" font-family="Arial" text-anchor="middle" id="text1230" />
<text font-size="129.23" y="-747.52" x="2379.52" font-family="'Gentium Book Basic'" line-height="125%" word-spacing="0" letter-spacing="0" id="text1232">
<tspan y="-747.52" x="2379.52" id="tspan1234" />
</text>
<text transform="scale(4.0128.2492)" font-size="46.954" y="-3348.76" x="790.06" font-family="Arial" text-anchor="middle" id="text1236" />
<text font-size="129.23" y="-827.52" x="2960.79" font-family="'Gentium Book Basic'" line-height="125%" word-spacing="0" letter-spacing="0" id="text1238">
<tspan y="-827.52" x="2960.79" id="tspan1240" />
</text>
<text transform="scale(4.0128.2492)" font-size="46.954" y="-3669.79" x="934.91" font-family="Arial" text-anchor="middle" id="text1242" />
<g font-family="'Gentium Book Basic'" line-height="125%" word-spacing="0" letter-spacing="0" id="g1244">
<text y="587.2" x="1127.98" font-size="208.33" id="text1246">
<tspan y="587.2" x="1127.98" id="tspan1248" />
</text>
<text y="-460.26" x="4683.77" font-size="129.23" id="text1250">
<tspan y="-460.26" x="4683.77" id="tspan1252" />
</text>
</g>
<text transform="scale(4.0128.2492)" font-size="46.954" y="-2196.05" x="1364.26" font-family="Arial" text-anchor="middle" id="text1254" />
<text font-size="129.23" y="-540.26" x="5265.04" font-family="'Gentium Book Basic'" line-height="125%" word-spacing="0" letter-spacing="0" id="text1256">
<tspan y="-540.26" x="5265.04" id="tspan1258" />
</text>
<text transform="scale(4.0128.2492)" font-size="46.954" y="-2517.07" x="1509.11" font-family="Arial" text-anchor="middle" id="text1260" />
<text font-size="129.23" y="-721.51" x="4193.46" font-family="'Gentium Book Basic'" line-height="125%" word-spacing="0" letter-spacing="0" id="text1262">
<tspan y="-721.51" x="4193.46" id="tspan1264" />
</text>
<text transform="scale(4.0128.2492)" font-size="46.954" y="-3244.43" x="1242.07" font-family="Arial" text-anchor="middle" id="text1266" />
<text font-size="129.23" y="-937.99" x="5291.51" font-family="'Gentium Book Basic'" line-height="125%" word-spacing="0" letter-spacing="0" id="text1268">
<tspan y="-937.99" x="5291.51" id="tspan1270" />
</text>
<text transform="scale(4.0128.2492)" font-size="46.954" y="-4113.09" x="1515.71" font-family="Arial" text-anchor="middle" id="text1272" />
<text font-size="129.23" y="-1017.99" x="5872.78" font-family="'Gentium Book Basic'" line-height="125%" word-spacing="0" letter-spacing="0" id="text1274">
<tspan y="-1017.99" x="5872.78" id="tspan1276" />
</text>
<text transform="scale(4.0128.2492)" font-size="46.954" y="-4434.11" x="1660.56" font-family="Arial" text-anchor="middle" id="text1278" />
<text font-size="129.23" y="-1490.39" x="5483.66" font-family="'Gentium Book Basic'" line-height="125%" word-spacing="0" letter-spacing="0" id="text1280">
<tspan y="-1490.39" x="5483.66" id="tspan1282" />
</text>
<text transform="scale(4.0128.2492)" font-size="46.954" y="-6329.77" x="1563.59" font-family="Arial" text-anchor="middle" id="text1284" />
<text font-size="129.23" y="-1570.39" x="6064.92" font-family="'Gentium Book Basic'" line-height="125%" word-spacing="0" letter-spacing="0" id="text1286">
<tspan y="-1570.39" x="6064.92" id="tspan1288" />
</text>
<text transform="scale(4.0128.2492)" font-size="46.954" y="-6650.79" x="1708.44" font-family="Arial" text-anchor="middle" id="text1290" />
<g font-family="'Gentium Book Basic'" line-height="125%" word-spacing="0" letter-spacing="0" id="g1292">
<text y="-155.68" x="4232.12" font-size="208.33" id="text1294">
<tspan y="-155.68" x="4232.12" id="tspan1296" />
</text>
<text y="189.54" x="940.11" font-size="129.23" id="text1298">
<tspan y="189.54" x="940.11" id="tspan1300" />
</text>
</g>
<text transform="scale(4.0128.2492)" font-size="46.954" y="411.44" x="431.36" font-family="Arial" text-anchor="middle" id="text1302" />
<text font-size="129.23" y="109.54" x="1521.38" font-family="'Gentium Book Basic'" line-height="125%" word-spacing="0" letter-spacing="0" id="text1304">
<tspan y="109.54" x="1521.38" id="tspan1306" />
</text>
<text transform="scale(4.0128.2492)" font-size="46.954" y="90.43" x="576.21" font-family="Arial" text-anchor="middle" id="text1308" />
<text font-size="129.23" y="-71.72" x="449.8" font-family="'Gentium Book Basic'" line-height="125%" word-spacing="0" letter-spacing="0" id="text1310">
<tspan y="-71.72" x="449.8" id="tspan1312" />
</text>
<text transform="scale(4.0128.2492)" font-size="46.954" y="-636.93" x="309.17" font-family="Arial" text-anchor="middle" id="text1314" />
<text font-size="129.23" y="-288.19" x="1547.85" font-family="'Gentium Book Basic'" line-height="125%" word-spacing="0" letter-spacing="0" id="text1316">
<tspan y="-288.19" x="1547.85" id="tspan1318" />
</text>
<text transform="scale(4.0128.2492)" font-size="46.954" y="-1505.6" x="582.81" font-family="Arial" text-anchor="middle" id="text1320" />
<text font-size="129.23" y="-368.2" x="2129.12" font-family="'Gentium Book Basic'" line-height="125%" word-spacing="0" letter-spacing="0" id="text1322">
<tspan y="-368.2" x="2129.12" id="tspan1324" />
</text>
<text transform="scale(4.0128.2492)" font-size="46.954" y="-1826.62" x="727.66" font-family="Arial" text-anchor="middle" id="text1326" />
<text font-size="129.23" y="-840.6" x="1740" font-family="'Gentium Book Basic'" line-height="125%" word-spacing="0" letter-spacing="0" id="text1328">
<tspan y="-840.6" x="1740" id="tspan1330" />
</text>
<text transform="scale(4.0128.2492)" font-size="46.954" y="-3722.27" x="630.69" font-family="Arial" text-anchor="middle" id="text1332" />
<text font-size="129.23" y="-920.6" x="2321.26" font-family="'Gentium Book Basic'" line-height="125%" word-spacing="0" letter-spacing="0" id="text1334">
<tspan y="-920.6" x="2321.26" id="tspan1336" />
</text>
<text transform="scale(4.0128.2492)" font-size="46.954" y="-4043.29" x="775.54" font-family="Arial" text-anchor="middle" id="text1338" />
<g font-family="'Gentium Book Basic'" line-height="125%" font-size="208.33" word-spacing="0" letter-spacing="0" id="g1340">
<text y="494.12" x="488.46" id="text1342">
<tspan y="494.12" x="488.46" id="tspan1344" />
</text>
<text y="475.16" x="-1735.37" id="text1346">
<tspan y="475.16" x="-1735.37" id="tspan1348" />
</text>
</g>
<text transform="scale(4.0128.2492)" font-size="75.7" y="1343.85" x="-114.73" font-family="Arial" text-anchor="middle" id="text1350" />
<text font-size="208.33" y="319.53" x="-1029.03" font-family="'Gentium Book Basic'" line-height="125%" word-spacing="0" letter-spacing="0" id="text1352">
<tspan y="319.53" x="-1029.03" id="tspan1354" />
</text>
<text transform="scale(4.0128.2492)" font-size="75.7" y="719.32" x="61.29" font-family="Arial" text-anchor="middle" id="text1356" />
<text font-size="208.33" y="311.41" x="-995.66" font-family="'Gentium Book Basic'" line-height="125%" word-spacing="0" letter-spacing="0" id="text1358">
<tspan y="311.41" x="-995.66" id="tspan1360" />
</text>
<text transform="scale(4.0128.2492)" font-size="75.7" y="686.72" x="69.61" font-family="Arial" text-anchor="middle" id="text1362" />
<text font-size="129.23" y="157" x="154.76" font-family="'Gentium Book Basic'" line-height="125%" word-spacing="0" letter-spacing="0" id="text1364">
<tspan y="157" x="154.76" id="tspan1366" />
</text>
<text transform="scale(4.0128.2492)" font-size="46.954" y="280.86" x="235.65" font-family="Arial" text-anchor="middle" id="text1368" />
<text font-size="129.23" y="77" x="736.02" font-family="'Gentium Book Basic'" line-height="125%" word-spacing="0" letter-spacing="0" id="text1370">
<tspan y="77" x="736.02" id="tspan1372" />
</text>
<text transform="scale(4.0128.2492)" font-size="46.954" y="-40.16" x="380.5" font-family="Arial" text-anchor="middle" id="text1374" />
<text font-size="129.23" y="-104.26" x="-335.56" font-family="'Gentium Book Basic'" line-height="125%" word-spacing="0" letter-spacing="0" id="text1376">
<tspan y="-104.26" x="-335.56" id="tspan1378" />
</text>
<text transform="scale(4.0128.2492)" font-size="46.954" y="-767.5" x="113.46" font-family="Arial" text-anchor="middle" id="text1380" />
<text font-size="129.23" y="-320.73" x="762.49" font-family="'Gentium Book Basic'" line-height="125%" word-spacing="0" letter-spacing="0" id="text1382">
<tspan y="-320.73" x="762.49" id="tspan1384" />
</text>
<text transform="scale(4.0128.2492)" font-size="46.954" y="-1636.18" x="387.1" font-family="Arial" text-anchor="middle" id="text1386" />
<text font-size="129.23" y="-400.73" x="1343.76" font-family="'Gentium Book Basic'" line-height="125%" word-spacing="0" letter-spacing="0" id="text1388">
<tspan y="-400.73" x="1343.76" id="tspan1390" />
</text>
<text transform="scale(4.0128.2492)" font-size="46.954" y="-1957.19" x="531.94" font-family="Arial" text-anchor="middle" id="text1392" />
<text font-size="129.23" y="-873.13" x="954.64" font-family="'Gentium Book Basic'" line-height="125%" word-spacing="0" letter-spacing="0" id="text1394">
<tspan y="-873.13" x="954.64" id="tspan1396" />
</text>
<text transform="scale(4.0128.2492)" font-size="46.954" y="-3852.82" x="434.98" font-family="Arial" text-anchor="middle" id="text1398" />
<text font-size="129.23" y="-953.14" x="1535.9" font-family="'Gentium Book Basic'" line-height="125%" word-spacing="0" letter-spacing="0" id="text1400">
<tspan y="-953.14" x="1535.9" id="tspan1402" />
</text>
<text transform="scale(4.0128.2492)" font-size="46.954" y="-4173.86" x="579.82" font-family="Arial" text-anchor="middle" id="text1404" />
<g font-family="'Gentium Book Basic'" line-height="125%" word-spacing="0" letter-spacing="0" id="g1406">
<text y="461.58" x="-296.9" font-size="208.33" id="text1408">
<tspan y="461.58" x="-296.9" id="tspan1410" />
</text>
<text y="-582.01" x="104.31" font-size="129.23" id="text1412">
<tspan y="-582.01" x="104.31" id="tspan1414" />
</text>
</g>
<text transform="scale(4.0128.2492)" font-size="46.954" y="-2684.62" x="223.08" font-family="Arial" text-anchor="middle" id="text1416" />
<text font-size="129.23" y="-662.01" x="685.58" font-family="'Gentium Book Basic'" line-height="125%" word-spacing="0" letter-spacing="0" id="text1418">
<tspan y="-662.01" x="685.58" id="tspan1420" />
</text>
<text transform="scale(4.0128.2492)" font-size="46.954" y="-3005.65" x="367.93" font-family="Arial" text-anchor="middle" id="text1422" />
<text font-size="129.23" y="-843.27" x="-386" font-family="'Gentium Book Basic'" line-height="125%" word-spacing="0" letter-spacing="0" id="text1424">
<tspan y="-843.27" x="-386" id="tspan1426" />
</text>
<text transform="scale(4.0128.2492)" font-size="46.954" y="-3733" x="100.89" font-family="Arial" text-anchor="middle" id="text1428" />
<text font-size="129.23" y="-1059.74" x="712.05" font-family="'Gentium Book Basic'" line-height="125%" word-spacing="0" letter-spacing="0" id="text1430">
<tspan y="-1059.74" x="712.05" id="tspan1432" />
</text>
<text transform="scale(4.0128.2492)" font-size="46.954" y="-4601.65" x="374.53" font-family="Arial" text-anchor="middle" id="text1434" />
<text font-size="129.23" y="-1139.75" x="1293.31" font-family="'Gentium Book Basic'" line-height="125%" word-spacing="0" letter-spacing="0" id="text1436">
<tspan y="-1139.75" x="1293.31" id="tspan1438" />
</text>
<text transform="scale(4.0128.2492)" font-size="46.954" y="-4922.69" x="519.37" font-family="Arial" text-anchor="middle" id="text1440" />
<text font-size="129.23" y="-1612.15" x="904.19" font-family="'Gentium Book Basic'" line-height="125%" word-spacing="0" letter-spacing="0" id="text1442">
<tspan y="-1612.15" x="904.19" id="tspan1444" />
</text>
<text transform="scale(4.0128.2492)" font-size="46.954" y="-6818.32" x="422.41" font-family="Arial" text-anchor="middle" id="text1446" />
<text font-size="129.23" y="-1692.15" x="1485.46" font-family="'Gentium Book Basic'" line-height="125%" word-spacing="0" letter-spacing="0" id="text1448">
<tspan y="-1692.15" x="1485.46" id="tspan1450" />
</text>
<text transform="scale(4.0128.2492)" font-size="46.954" y="-7139.35" x="567.25" font-family="Arial" text-anchor="middle" id="text1452" />
<g font-family="'Gentium Book Basic'" line-height="125%" word-spacing="0" letter-spacing="0" id="g1454">
<text y="-277.43" x="-347.35" font-size="208.33" id="text1456">
<tspan y="-277.43" x="-347.35" id="tspan1458" />
</text>
<text y="-1324.89" x="3208.45" font-size="129.23" id="text1460">
<tspan y="-1324.89" x="3208.45" id="tspan1462" />
</text>
</g>
<text transform="scale(4.0128.2492)" font-size="46.954" y="-5665.6" x="996.61" font-family="Arial" text-anchor="middle" id="text1464" />
<text font-size="129.23" y="-1404.89" x="3789.71" font-family="'Gentium Book Basic'" line-height="125%" word-spacing="0" letter-spacing="0" id="text1466">
<tspan y="-1404.89" x="3789.71" id="tspan1468" />
</text>
<text transform="scale(4.0128.2492)" font-size="46.954" y="-5986.64" x="1141.46" font-family="Arial" text-anchor="middle" id="text1470" />
<text font-size="129.23" y="-1586.14" x="2718.13" font-family="'Gentium Book Basic'" line-height="125%" word-spacing="0" letter-spacing="0" id="text1472">
<tspan y="-1586.14" x="2718.13" id="tspan1474" />
</text>
<text transform="scale(4.0128.2492)" font-size="46.954" y="-6713.98" x="874.43" font-family="Arial" text-anchor="middle" id="text1476" />
<text font-size="129.23" y="-1802.62" x="3816.18" font-family="'Gentium Book Basic'" line-height="125%" word-spacing="0" letter-spacing="0" id="text1478">
<tspan y="-1802.62" x="3816.18" id="tspan1480" />
</text>
<text transform="scale(4.0128.2492)" font-size="46.954" y="-7582.63" x="1148.06" font-family="Arial" text-anchor="middle" id="text1482" />
<text font-size="129.23" y="-1882.62" x="4397.45" font-family="'Gentium Book Basic'" line-height="125%" word-spacing="0" letter-spacing="0" id="text1484">
<tspan y="-1882.62" x="4397.45" id="tspan1486" />
</text>
<text transform="scale(4.0128.2492)" font-size="46.954" y="-7903.67" x="1292.91" font-family="Arial" text-anchor="middle" id="text1488" />
<text font-size="129.23" y="-2355.02" x="4008.33" font-family="'Gentium Book Basic'" line-height="125%" word-spacing="0" letter-spacing="0" id="text1490">
<tspan y="-2355.02" x="4008.33" id="tspan1492" />
</text>
<text transform="scale(4.0128.2492)" font-size="46.954" y="-9799.3" x="1195.94" font-family="Arial" text-anchor="middle" id="text1494" />
<text font-size="129.23" y="-2435.02" x="4589.6" font-family="'Gentium Book Basic'" line-height="125%" word-spacing="0" letter-spacing="0" id="text1496">
<tspan y="-2435.02" x="4589.6" id="tspan1498" />
</text>
<text transform="scale(4.0128.2492)" font-size="46.954" y="-10120.33" x="1340.79" font-family="Arial" text-anchor="middle" id="text1500" />
<g font-family="'Gentium Book Basic'" line-height="125%" font-size="208.33" word-spacing="0" letter-spacing="0" id="g1502">
<text y="-1020.31" x="2756.79" id="text1504">
<tspan y="-1020.31" x="2756.79" id="tspan1506" />
</text>
<text y="-266.23" x="-1785.82" id="text1508">
<tspan y="-266.23" x="-1785.82" id="tspan1510" />
</text>
</g>
<text transform="scale(4.0128.2492)" font-size="75.7" y="-1631.21" x="-127.3" font-family="Arial" text-anchor="middle" id="text1512" />
<text font-size="208.33" y="-266.23" x="-1785.82" font-family="'Gentium Book Basic'" line-height="125%" word-spacing="0" letter-spacing="0" id="text1514">
<tspan y="-266.23" x="-1785.82" id="tspan1516" />
</text>
<text transform="scale(4.0128.2492)" font-size="75.7" y="-1631.21" x="-127.3" font-family="Arial" text-anchor="middle" id="text1518" />
<text font-size="208.33" y="366.68" x="-2119.37" font-family="'Gentium Book Basic'" line-height="125%" word-spacing="0" letter-spacing="0" id="text1520">
<tspan y="366.68" x="-2119.37" id="tspan1522" />
</text>
<text transform="scale(4.0128.2492)" font-size="75.7" y="908.55" x="-210.42" font-family="Arial" text-anchor="middle" id="text1524" />
<text font-size="208.33" y="211.05" x="-1413.03" font-family="'Gentium Book Basic'" line-height="125%" word-spacing="0" letter-spacing="0" id="text1526">
<tspan y="211.05" x="-1413.03" id="tspan1528" />
</text>
<text transform="scale(4.0128.2492)" font-size="75.7" y="284.03" x="-34.4" font-family="Arial" text-anchor="middle" id="text1530" />
<text font-size="129.23" y="282.64" x="1579.63" font-family="'Gentium Book Basic'" line-height="125%" word-spacing="0" letter-spacing="0" id="text1532">
<tspan y="282.64" x="1579.63" id="tspan1534" />
</text>
<text transform="scale(4.0128.2492)" font-size="46.954" y="785.04" x="590.73" font-family="Arial" text-anchor="middle" id="text1536" />
<text font-size="129.23" y="202.64" x="2160.9" font-family="'Gentium Book Basic'" line-height="125%" word-spacing="0" letter-spacing="0" id="text1538">
<tspan y="202.64" x="2160.9" id="tspan1540" />
</text>
<text transform="scale(4.0128.2492)" font-size="46.954" y="464" x="735.58" font-family="Arial" text-anchor="middle" id="text1542" />
<text font-size="129.23" y="21.382" x="1089.32" font-family="'Gentium Book Basic'" line-height="125%" word-spacing="0" letter-spacing="0" id="text1544">
<tspan y="21.382" x="1089.32" id="tspan1546" />
</text>
<text transform="scale(4.0128.2492)" font-size="46.954" y="-263.34" x="468.54" font-family="Arial" text-anchor="middle" id="text1548" />
<text font-size="129.23" y="-195.09" x="2187.37" font-family="'Gentium Book Basic'" line-height="125%" word-spacing="0" letter-spacing="0" id="text1550">
<tspan y="-195.09" x="2187.37" id="tspan1552" />
</text>
<text transform="scale(4.0128.2492)" font-size="46.954" y="-1132.02" x="742.18" font-family="Arial" text-anchor="middle" id="text1554" />
<text font-size="129.23" y="-275.1" x="2768.64" font-family="'Gentium Book Basic'" line-height="125%" word-spacing="0" letter-spacing="0" id="text1556">
<tspan y="-275.1" x="2768.64" id="tspan1558" />
</text>
<text transform="scale(4.0128.2492)" font-size="46.954" y="-1453.05" x="887.03" font-family="Arial" text-anchor="middle" id="text1560" />
<text font-size="129.23" y="-747.5" x="2379.52" font-family="'Gentium Book Basic'" line-height="125%" word-spacing="0" letter-spacing="0" id="text1562">
<tspan y="-747.5" x="2379.52" id="tspan1564" />
</text>
<text transform="scale(4.0128.2492)" font-size="46.954" y="-3348.7" x="790.06" font-family="Arial" text-anchor="middle" id="text1566" />
<text font-size="129.23" y="-827.5" x="2960.79" font-family="'Gentium Book Basic'" line-height="125%" word-spacing="0" letter-spacing="0" id="text1568">
<tspan y="-827.5" x="2960.79" id="tspan1570" />
</text>
<text transform="scale(4.0128.2492)" font-size="46.954" y="-3669.73" x="934.91" font-family="Arial" text-anchor="middle" id="text1572" />
<g font-family="'Gentium Book Basic'" line-height="125%" word-spacing="0" letter-spacing="0" id="g1574">
<text y="587.22" x="1127.98" font-size="208.33" id="text1576">
<tspan y="587.22" x="1127.98" id="tspan1578" />
</text>
<text y="-460.24" x="4683.77" font-size="129.23" id="text1580">
<tspan y="-460.24" x="4683.77" id="tspan1582" />
</text>
</g>
<text transform="scale(4.0128.2492)" font-size="46.954" y="-2195.98" x="1364.27" font-family="Arial" text-anchor="middle" id="text1584" />
<text font-size="129.23" y="-540.24" x="5265.04" font-family="'Gentium Book Basic'" line-height="125%" word-spacing="0" letter-spacing="0" id="text1586">
<tspan y="-540.24" x="5265.04" id="tspan1588" />
</text>
<text transform="scale(4.0128.2492)" font-size="46.954" y="-2517.01" x="1509.12" font-family="Arial" text-anchor="middle" id="text1590" />
<text font-size="129.23" y="-721.49" x="4193.46" font-family="'Gentium Book Basic'" line-height="125%" word-spacing="0" letter-spacing="0" id="text1592">
<tspan y="-721.49" x="4193.46" id="tspan1594" />
</text>
<text transform="scale(4.0128.2492)" font-size="46.954" y="-3244.37" x="1242.08" font-family="Arial" text-anchor="middle" id="text1596" />
<text font-size="129.23" y="-937.97" x="5291.51" font-family="'Gentium Book Basic'" line-height="125%" word-spacing="0" letter-spacing="0" id="text1598">
<tspan y="-937.97" x="5291.51" id="tspan1600" />
</text>
<text transform="scale(4.0128.2492)" font-size="46.954" y="-4113.03" x="1515.72" font-family="Arial" text-anchor="middle" id="text1602" />
<text font-size="129.23" y="-1017.97" x="5872.78" font-family="'Gentium Book Basic'" line-height="125%" word-spacing="0" letter-spacing="0" id="text1604">
<tspan y="-1017.97" x="5872.78" id="tspan1606" />
</text>
<text transform="scale(4.0128.2492)" font-size="46.954" y="-4434.06" x="1660.57" font-family="Arial" text-anchor="middle" id="text1608" />
<text font-size="129.23" y="-1490.37" x="5483.66" font-family="'Gentium Book Basic'" line-height="125%" word-spacing="0" letter-spacing="0" id="text1610">
<tspan y="-1490.37" x="5483.66" id="tspan1612" />
</text>
<text transform="scale(4.0128.2492)" font-size="46.954" y="-6329.72" x="1563.6" font-family="Arial" text-anchor="middle" id="text1614" />
<text font-size="129.23" y="-1570.37" x="6064.92" font-family="'Gentium Book Basic'" line-height="125%" word-spacing="0" letter-spacing="0" id="text1616">
<tspan y="-1570.37" x="6064.92" id="tspan1618" />
</text>
<text transform="scale(4.0128.2492)" font-size="46.954" y="-6650.75" x="1708.45" font-family="Arial" text-anchor="middle" id="text1620" />
<g font-family="'Gentium Book Basic'" line-height="125%" word-spacing="0" letter-spacing="0" id="g1622">
<text y="-155.66" x="4232.12" font-size="208.33" id="text1624">
<tspan y="-155.66" x="4232.12" id="tspan1626" />
</text>
<text y="231.36" x="729.64" font-size="129.23" id="text1628">
<tspan y="231.36" x="729.64" id="tspan1630" />
</text>
</g>
<text transform="scale(4.0128.2492)" font-size="46.954" y="579.26" x="378.91" font-family="Arial" text-anchor="middle" id="text1632" />
<text font-size="129.23" y="151.36" x="1310.91" font-family="'Gentium Book Basic'" line-height="125%" word-spacing="0" letter-spacing="0" id="text1634">
<tspan y="151.36" x="1310.91" id="tspan1636" />
</text>
<text transform="scale(4.0128.2492)" font-size="46.954" y="258.22" x="523.76" font-family="Arial" text-anchor="middle" id="text1638" />
<text font-size="129.23" y="-29.9" x="239.33" font-family="'Gentium Book Basic'" line-height="125%" word-spacing="0" letter-spacing="0" id="text1640">
<tspan y="-29.9" x="239.33" id="tspan1642" />
</text>
<text transform="scale(4.0128.2492)" font-size="46.954" y="-469.13" x="256.72" font-family="Arial" text-anchor="middle" id="text1644" />
<text font-size="129.23" y="-246.37" x="1337.38" font-family="'Gentium Book Basic'" line-height="125%" word-spacing="0" letter-spacing="0" id="text1646">
<tspan y="-246.37" x="1337.38" id="tspan1648" />
</text>
<text transform="scale(4.0128.2492)" font-size="46.954" y="-1337.8" x="530.36" font-family="Arial" text-anchor="middle" id="text1650" />
<text font-size="129.23" y="-326.37" x="1918.65" font-family="'Gentium Book Basic'" line-height="125%" word-spacing="0" letter-spacing="0" id="text1652">
<tspan y="-326.37" x="1918.65" id="tspan1654" />
</text>
<text transform="scale(4.0128.2492)" font-size="46.954" y="-1658.83" x="675.21" font-family="Arial" text-anchor="middle" id="text1656" />
<text font-size="129.23" y="-798.77" x="1529.53" font-family="'Gentium Book Basic'" line-height="125%" word-spacing="0" letter-spacing="0" id="text1658">
<tspan y="-798.77" x="1529.53" id="tspan1660" />
</text>
<text transform="scale(4.0128.2492)" font-size="46.954" y="-3554.48" x="578.24" font-family="Arial" text-anchor="middle" id="text1662" />
<text font-size="129.23" y="-878.78" x="2110.79" font-family="'Gentium Book Basic'" line-height="125%" word-spacing="0" letter-spacing="0" id="text1664">
<tspan y="-878.78" x="2110.79" id="tspan1666" />
</text>
<text transform="scale(4.0128.2492)" font-size="46.954" y="-3875.52" x="723.09" font-family="Arial" text-anchor="middle" id="text1668" />
<g font-family="'Gentium Book Basic'" line-height="125%" word-spacing="0" letter-spacing="0" id="g1670">
<text y="535.94" x="277.99" font-size="208.33" id="text1672">
<tspan y="535.94" x="277.99" id="tspan1674" />
</text>
<text y="272.72" x="1781.5" font-size="129.23" id="text1676">
<tspan y="272.72" x="1781.5" id="tspan1678" />
</text>
</g>
<text transform="scale(4.0128.2492)" font-size="46.954" y="745.22" x="641.03" font-family="Arial" text-anchor="middle" id="text1680" />
<text font-size="129.23" y="192.72" x="2362.77" font-family="'Gentium Book Basic'" line-height="125%" word-spacing="0" letter-spacing="0" id="text1682">
<tspan y="192.72" x="2362.77" id="tspan1684" />
</text>
<text transform="scale(4.0128.2492)" font-size="46.954" y="424.18" x="785.88" font-family="Arial" text-anchor="middle" id="text1686" />
<text font-size="129.23" y="11.457" x="1291.19" font-family="'Gentium Book Basic'" line-height="125%" word-spacing="0" letter-spacing="0" id="text1688">
<tspan y="11.457" x="1291.19" id="tspan1690" />
</text>
<text transform="scale(4.0128.2492)" font-size="46.954" y="-303.17" x="518.84" font-family="Arial" text-anchor="middle" id="text1692" />
<text font-size="129.23" y="-205.01" x="2389.24" font-family="'Gentium Book Basic'" line-height="125%" word-spacing="0" letter-spacing="0" id="text1694">
<tspan y="-205.01" x="2389.24" id="tspan1696" />
</text>
<text transform="scale(4.0128.2492)" font-size="46.954" y="-1171.84" x="792.48" font-family="Arial" text-anchor="middle" id="text1698" />
<text font-size="129.23" y="-285.01" x="2970.51" font-family="'Gentium Book Basic'" line-height="125%" word-spacing="0" letter-spacing="0" id="text1700">
<tspan y="-285.01" x="2970.51" id="tspan1702" />
</text>
<text transform="scale(4.0128.2492)" font-size="46.954" y="-1492.87" x="937.33" font-family="Arial" text-anchor="middle" id="text1704" />
<text font-size="129.23" y="-757.41" x="2581.39" font-family="'Gentium Book Basic'" line-height="125%" word-spacing="0" letter-spacing="0" id="text1706">
<tspan y="-757.41" x="2581.39" id="tspan1708" />
</text>
<text transform="scale(4.0128.2492)" font-size="46.954" y="-3388.52" x="840.36" font-family="Arial" text-anchor="middle" id="text1710" />
<text font-size="129.23" y="-837.42" x="3162.65" font-family="'Gentium Book Basic'" line-height="125%" word-spacing="0" letter-spacing="0" id="text1712">
<tspan y="-837.42" x="3162.65" id="tspan1714" />
</text>
<text transform="scale(4.0128.2492)" font-size="46.954" y="-3709.56" x="985.21" font-family="Arial" text-anchor="middle" id="text1716" />
<text font-size="208.33" y="577.3" x="1329.85" font-family="'Gentium Book Basic'" line-height="125%" word-spacing="0" letter-spacing="0" id="text1718">
<tspan y="577.3" x="1329.85" id="tspan1720" />
</text>
<path style="fill:#c02929;fill-rule:evenodd" inkscape:connector-curvature="0" id="path1724" d="m 471.95,253.05 c 0,120.9 -98.01,218.91 -218.91,218.91 -120.9,0 -218.91,-98.01 -218.91,-218.91 0,-120.9 98.01,-218.91 218.91,-218.91 120.9,0 218.91,98.01 218.91,218.91" />
<text font-size="129.23" y="231.36" x="729.64" font-family="'Gentium Book Basic'" line-height="125%" word-spacing="0" letter-spacing="0" id="text1736">
<tspan y="231.36" x="729.64" id="tspan1738" />
</text>
<text transform="scale(4.0128.2492)" font-size="46.954" y="579.26" x="378.91" font-family="Arial" text-anchor="middle" id="text1740" />
<text font-size="129.23" y="151.36" x="1310.91" font-family="'Gentium Book Basic'" line-height="125%" word-spacing="0" letter-spacing="0" id="text1742">
<tspan y="151.36" x="1310.91" id="tspan1744" />
</text>
<text transform="scale(4.0128.2492)" font-size="46.954" y="258.22" x="523.76" font-family="Arial" text-anchor="middle" id="text1746" />
<text font-size="129.23" y="-29.9" x="239.33" font-family="'Gentium Book Basic'" line-height="125%" word-spacing="0" letter-spacing="0" id="text1748">
<tspan y="-29.9" x="239.33" id="tspan1750" />
</text>
<text transform="scale(4.0128.2492)" font-size="46.954" y="-469.13" x="256.72" font-family="Arial" text-anchor="middle" id="text1752" />
<text font-size="129.23" y="-246.37" x="1337.38" font-family="'Gentium Book Basic'" line-height="125%" word-spacing="0" letter-spacing="0" id="text1754">
<tspan y="-246.37" x="1337.38" id="tspan1756" />
</text>
<text transform="scale(4.0128.2492)" font-size="46.954" y="-1337.8" x="530.36" font-family="Arial" text-anchor="middle" id="text1758" />
<text font-size="129.23" y="-326.37" x="1918.65" font-family="'Gentium Book Basic'" line-height="125%" word-spacing="0" letter-spacing="0" id="text1760">
<tspan y="-326.37" x="1918.65" id="tspan1762" />
</text>
<text transform="scale(4.0128.2492)" font-size="46.954" y="-1658.83" x="675.21" font-family="Arial" text-anchor="middle" id="text1764" />
<text font-size="129.23" y="-798.77" x="1529.53" font-family="'Gentium Book Basic'" line-height="125%" word-spacing="0" letter-spacing="0" id="text1766">
<tspan y="-798.77" x="1529.53" id="tspan1768" />
</text>
<text transform="scale(4.0128.2492)" font-size="46.954" y="-3554.48" x="578.24" font-family="Arial" text-anchor="middle" id="text1770" />
<text font-size="129.23" y="-878.78" x="2110.79" font-family="'Gentium Book Basic'" line-height="125%" word-spacing="0" letter-spacing="0" id="text1772">
<tspan y="-878.78" x="2110.79" id="tspan1774" />
</text>
<text transform="scale(4.0128.2492)" font-size="46.954" y="-3875.52" x="723.09" font-family="Arial" text-anchor="middle" id="text1776" />
<text font-size="208.33" y="535.94" x="277.99" font-family="'Gentium Book Basic'" line-height="125%" word-spacing="0" letter-spacing="0" id="text1778">
<tspan y="535.94" x="277.99" id="tspan1780" />
</text>
<path d="m122.48 271.53v-45.03h-33.986v-31.07h105.1v31.07h-33.874v90.06h-37.238v-45.03m76.83-15.535v-60.57h102.06v30.958h-26.62c-14.641 0-29.2 0.034-32.359 0.074l-5.739 0.074v14.882h64.718v28.826h-64.718v15.254h64.718v31.07h-102.06v-60.57m108.35 0.001v-60.57l32.78 0.04c23.967 0.029 33.14 0.076 34.13 0.172 4.285 0.419 7.345 0.907 10.375 1.654 12.615 3.111 22.316 10.03 28.991 20.673 3.547 5.656 6.259 12.663 7.841 20.259 1.639 7.865 2.138 17.504 1.354 26.12-1.166 12.807-4.906 23.381-11.182 31.618-8.911 11.695-22.697 18.467-41.04 20.16-4.496 0.415-7.212 0.449-35.571 0.45h-27.677v-60.57m57.27 29.2c5.927-0.961 10.141-3.02 13.756-6.716 4.878-4.991 7.496-12.943 7.509-22.812 0.01-4.574-0.499-7.93-1.773-11.777-0.585-1.768-1.883-4.516-2.794-5.916-4.419-6.796-11.179-10.477-20.856-11.357-0.679-0.062-4.502-0.112-8.496-0.112h-7.263v59.01l9.226-0.041c8.753-0.038 9.301-0.053 10.691-0.278" fill="#fff" id="path1784" />
</svg>
