<?xml version="1.0" encoding="UTF-8" standalone="no"?>
<svg xmlns:dc="http://purl.org/dc/elements/1.1/" xmlns:cc="http://creativecommons.org/ns#" xmlns:rdf="http://www.w3.org/1999/02/22-rdf-syntax-ns#" xmlns:svg="http://www.w3.org/2000/svg" xmlns="http://www.w3.org/2000/svg" xmlns:sodipodi="http://sodipodi.sourceforge.net/DTD/sodipodi-0.dtd" xmlns:inkscape="http://www.inkscape.org/namespaces/inkscape" height="512" viewBox="0 0 512 512" width="512" version="1.1" id="svg2" inkscape:version="0.91 r" sodipodi:docname="thunderbird.svg">
<defs id="defs17" />
<sodipodi:namedview pagecolor="#ffffff" bordercolor="#666666" borderopacity="1" objecttolerance="10" gridtolerance="10" guidetolerance="10" inkscape:pageopacity="0" inkscape:pageshadow="2" inkscape:window-width="1680" inkscape:window-height="994" id="namedview15" showgrid="false" inkscape:zoom="0.4609375" inkscape:cx="256" inkscape:cy="256" inkscape:window-x="0" inkscape:window-y="0" inkscape:window-maximized="1" inkscape:current-layer="svg2" />
<metadata id="metadata74">
<rdf:RDF>
<cc:Work rdf:about="">
<dc:format>image/svg+xml</dc:format>
<dc:type rdf:resource="http://purl.org/dc/dcmitype/StillImage" />
</cc:Work>
</rdf:RDF>
</metadata>
<path style="fill:#0078ad;fill-rule:evenodd" inkscape:connector-curvature="0" d="m 471.95,253.05 c 0,120.9 -98.01,218.9 -218.9,218.9 -120.9,0 -218.9,-98.01 -218.9,-218.9 0,-120.9 98.01,-218.9 218.9,-218.9 120.9,0 218.9,98.01 218.9,218.9" id="path6" />
<path style="color:#000000;fill:#ffffff" inkscape:connector-curvature="0" d="m 233.15,106.08 c -16.345,3.65 -29.753,12.661 -41.966,29.06 -25.761,17.364 -56.646,22.738 -75.43,81.17 -14.1,35.2 4.879,83.33 13.766,102.2 17.46,28.453 24.433,35.37 54.43,53.13 l 7.708,0.603 0.444,-4.092 8.945,4.155 2.379,-0.793 c -14.588,-11.768 -21.259,-16.371 -25.12,-36.795 8.776,8.777 27.842,20.396 31.28,15.892 -2.331,-3.728 -5,-7.312 -7.581,-10.975 l 94.78,30.991 c -10.235,11.911 -23.25,23.378 -40.03,33.56 17.827,1.305 31.763,-2.655 50.24,-9.992 l -15.892,11.292 c 11.837,2.959 44.554,-9.781 54.02,-24.04 9.07,5.075 29.63,-25.609 36.29,-40.25 14.552,-27.704 28.12,-78.4 13.798,-133.99 -24.758,-77.69 -104.86,-94.2 -167.17,-80.63 3.884,-3.578 7.207,-7.143 8.691,-10.721 -5.979,1.774 -15.406,9.07 -23.568,14.338 l 19.984,-24.11 m -72.798,83.84 c 3.311,0.038 7.377,1.962 12.434,6.63 -0.621,8.75 -0.775,16.665 -0.825,24.647 l -18.97,-27.25 c 1.942,-2.496 4.326,-4.063 7.359,-4.03 m 39.745,0.381 c 1.058,-0.043 2.133,0.185 3.077,0.73 3.02,1.743 3.808,6.03 1.776,9.548 -2.032,3.519 -6.116,4.947 -9.135,3.204 -3.02,-1.743 -3.84,-5.997 -1.808,-9.516 1.397,-2.42 3.763,-3.87 6.09,-3.965 m -50.847,10.721 22.68,32.608 c -0.003,1.827 -0.02,3.597 -0.032,5.488 0.816,-0.716 1.615,-1.374 2.411,-2.062 l 34.385,49.45 1.618,2.316 2.633,-1.047 100.87,-40.35 c 0.979,6.56 1.41,13.652 0.856,21.16 -2.411,8.571 -3.087,17.759 -7.04,25.757 11.791,-0.129 22.394,-14.891 26.772,-19.857 -1.558,23.527 -5.319,43.593 -18.05,67.47 -4.068,7.595 -8.947,15.26 -14.813,22.807 l -129.86,-42.505 c -10.267,-3.751 -20.537,-7.797 -30.8,-12.149 -4.131,-11.976 -7.647,-30.582 -10.753,-53.829 8.924,7.227 11.49,11.461 19.984,12.307 -7.482,-11.6 -9.378,-33.644 -5.424,-50.625 1.206,-5.18 2.529,-11.566 4.568,-16.939 m 86.06,3.458 c 4.242,-0.043 8.369,0.411 12.72,1.047 l 56.4,10.277 c 2.689,6.306 5.927,14.65 8.089,24.488 l -99.6,39.841 -33.18,-47.707 c 26.79,-22.297 41.72,-27.805 55.57,-27.945" id="path68" />
</svg>
