<?xml version="1.0" encoding="UTF-8" standalone="no"?>
<svg xmlns:dc="http://purl.org/dc/elements/1.1/" xmlns:cc="http://creativecommons.org/ns#" xmlns:rdf="http://www.w3.org/1999/02/22-rdf-syntax-ns#" xmlns:svg="http://www.w3.org/2000/svg" xmlns="http://www.w3.org/2000/svg" xmlns:sodipodi="http://sodipodi.sourceforge.net/DTD/sodipodi-0.dtd" xmlns:inkscape="http://www.inkscape.org/namespaces/inkscape" height="512" viewBox="0 0 512 512" width="512" version="1.1" id="svg1222" inkscape:version="0.91 r" sodipodi:docname="trelby.svg">
<defs id="defs1236" />
<sodipodi:namedview pagecolor="#ffffff" bordercolor="#666666" borderopacity="1" objecttolerance="10" gridtolerance="10" guidetolerance="10" inkscape:pageopacity="0" inkscape:pageshadow="2" inkscape:window-width="640" inkscape:window-height="480" id="namedview1234" showgrid="false" inkscape:zoom="0.4609375" inkscape:cx="256" inkscape:cy="256" inkscape:window-x="0" inkscape:window-y="0" inkscape:window-maximized="0" inkscape:current-layer="svg1222" />
<metadata id="metadata72">
<rdf:RDF>
<cc:Work rdf:about="">
<dc:format>image/svg+xml</dc:format>
<dc:type rdf:resource="http://purl.org/dc/dcmitype/StillImage" />
</cc:Work>
</rdf:RDF>
</metadata>
<path id="path4" d="m471.95 253.05c0 120.9-98.01 218.9-218.9 218.9-120.9 0-218.9-98.01-218.9-218.9 0-120.9 98.01-218.9 218.9-218.9 120.9 0 218.9 98.01 218.9 218.9" fill-rule="evenodd" fill="#a7406a" />
<path id="path6" fill-opacity="0.235" d="m292.53 130.5c-6.196 0.069-7.966 0.636-11.844 2.031-42.09 17.368-82.57 34.552-133.31 49.03-12.145 2.853-17.249 9.394-15.375 19.688 0 0 9.219 88.08 9.219 93.31 0 0.82 0.155 2.237 0.344 3.875-0.415 0.182-0.835 0.381-1.25 0.563l1.719 12.781c0.254-0.105 0.516-0.23 0.781-0.344l0.188 1.344c0.15-0.062 0.312-0.12 0.469-0.188 0.511 3.746 0.997 7.521 1.344 11.03-0.411 0.18-0.84 0.351-1.25 0.531 0.299 4.658 0.562 9.296-0.125 13.813 0.371-0.154 0.776-0.311 1.156-0.469-0.053 0.494-0.113 0.978-0.188 1.469 0.012-0.005 0.019-0.026 0.031-0.031-1.982 11.557-7.07 31.33-7.844 34.438-0.924 3.695 0.014 6.152 0.938 8 0.059 0.119 0.234 0.144 0.531 0.094 0.138 0.32 0.293 0.618 0.438 0.906 0.061 0.122 0.281 0.15 0.594 0.094 0.136 0.314 0.265 0.623 0.406 0.906 0.061 0.122 0.281 0.15 0.594 0.094 0.133 0.307 0.268 0.629 0.406 0.906 0.061 0.122 0.281 0.15 0.594 0.094 0.133 0.307 0.268 0.598 0.406 0.875 0.063 0.126 0.265 0.156 0.594 0.094 0.136 0.315 0.264 0.622 0.406 0.906 0.063 0.126 0.262 0.158 0.594 0.094 0.136 0.315 0.264 0.622 0.406 0.906 0.059 0.119 0.233 0.144 0.531 0.094 0.138 0.32 0.293 0.618 0.438 0.906 0.061 0.122 0.281 0.15 0.594 0.094 0.136 0.314 0.265 0.623 0.406 0.906 0.061 0.122 0.281 0.15 0.594 0.094 0.136 0.314 0.265 0.623 0.406 0.906 0.061 0.122 0.281 0.15 0.594 0.094 0.133 0.307 0.268 0.598 0.406 0.875 0.063 0.126 0.265 0.157 0.594 0.094 0.136 0.315 0.264 0.622 0.406 0.906 0.063 0.126 0.262 0.158 0.594 0.094 0.136 0.315 0.264 0.622 0.406 0.906 0.06 0.119 0.233 0.144 0.531 0.094 0.138 0.32 0.293 0.618 0.438 0.906 0.059 0.119 0.265 0.144 0.563 0.094 0.138 0.32 0.293 0.618 0.438 0.906 0.061 0.122 0.281 0.15 0.594 0.094 0.136 0.314 0.265 0.623 0.406 0.906 0.061 0.122 0.281 0.15 0.594 0.094 0.133 0.307 0.268 0.629 0.406 0.906 0.061 0.122 0.281 0.15 0.594 0.094 0.133 0.307 0.268 0.598 0.406 0.875 0.063 0.126 0.262 0.158 0.594 0.094 0.136 0.315 0.264 0.622 0.406 0.906 0.063 0.126 0.262 0.158 0.594 0.094 0.136 0.315 0.264 0.622 0.406 0.906 0.059 0.119 0.234 0.144 0.531 0.094 0.138 0.32 0.293 0.618 0.438 0.906 0.061 0.122 0.281 0.15 0.594 0.094 0.136 0.314 0.265 0.623 0.406 0.906 0.061 0.122 0.281 0.15 0.594 0.094 0.133 0.307 0.268 0.629 0.406 0.906 0.061 0.122 0.281 0.15 0.594 0.094 0.133 0.307 0.268 0.598 0.406 0.875 0.063 0.126 0.265 0.157 0.594 0.094 0.136 0.315 0.264 0.622 0.406 0.906 0.063 0.126 0.262 0.158 0.594 0.094 0.136 0.315 0.264 0.622 0.406 0.906 0.059 0.119 0.234 0.144 0.531 0.094 0.138 0.32 0.293 0.618 0.438 0.906 0.061 0.122 0.281 0.15 0.594 0.094 0.136 0.314 0.265 0.623 0.406 0.906 0.061 0.122 0.281 0.15 0.594 0.094 0.133 0.307 0.268 0.629 0.406 0.906 0.061 0.122 0.281 0.15 0.594 0.094 0.133 0.307 0.268 0.598 0.406 0.875 0.063 0.126 0.265 0.157 0.594 0.094 0.136 0.315 0.264 0.622 0.406 0.906 0.063 0.126 0.262 0.158 0.594 0.094 0.136 0.315 0.264 0.622 0.406 0.906 0.06 0.119 0.233 0.144 0.531 0.094 0.138 0.32 0.293 0.618 0.438 0.906 0.061 0.122 0.281 0.15 0.594 0.094 0.136 0.314 0.265 0.623 0.406 0.906 0.061 0.122 0.281 0.15 0.594 0.094 0.136 0.314 0.265 0.623 0.406 0.906 0.061 0.122 0.281 0.15 0.594 0.094 0.133 0.307 0.268 0.598 0.406 0.875 0.061 0.122 0.281 0.181 0.594 0.125 0.133 0.306 0.268 0.599 0.406 0.875 0.063 0.126 0.262 0.158 0.594 0.094 0.136 0.315 0.264 0.622 0.406 0.906 0.061 0.122 0.249 0.15 0.563 0.094 0.137 0.32 0.262 0.619 0.406 0.906 0.06 0.119 0.265 0.144 0.563 0.094 0.138 0.32 0.293 0.618 0.438 0.906 0.061 0.122 0.281 0.15 0.594 0.094 0.136 0.314 0.265 0.623 0.406 0.906 0.061 0.122 0.281 0.15 0.594 0.094 0.133 0.307 0.268 0.629 0.406 0.906 0.061 0.122 0.281 0.15 0.594 0.094 0.133 0.307 0.268 0.598 0.406 0.875 0.063 0.126 0.262 0.158 0.594 0.094 0.136 0.315 0.264 0.622 0.406 0.906 0.063 0.126 0.262 0.158 0.594 0.094 0.136 0.315 0.264 0.622 0.406 0.906 0.06 0.119 0.234 0.144 0.531 0.094 0.138 0.32 0.293 0.618 0.438 0.906 0.061 0.122 0.281 0.15 0.594 0.094 0.136 0.314 0.265 0.623 0.406 0.906 0.061 0.122 0.281 0.15 0.594 0.094 0.133 0.307 0.268 0.629 0.406 0.906 0.061 0.122 0.281 0.15 0.594 0.094 0.133 0.307 0.268 0.598 0.406 0.875 0.063 0.126 0.264 0.157 0.594 0.094 0.136 0.315 0.264 0.622 0.406 0.906 0.063 0.126 0.262 0.158 0.594 0.094 0.136 0.315 0.264 0.622 0.406 0.906 0.06 0.119 0.233 0.144 0.531 0.094 0.138 0.32 0.293 0.618 0.438 0.906 0.061 0.122 0.281 0.15 0.594 0.094 0.136 0.314 0.265 0.623 0.406 0.906 0.061 0.122 0.281 0.15 0.594 0.094 0.133 0.307 0.268 0.629 0.406 0.906 0.061 0.122 0.281 0.15 0.594 0.094 0.133 0.307 0.268 0.598 0.406 0.875 0.063 0.126 0.264 0.157 0.594 0.094 0.136 0.315 0.264 0.622 0.406 0.906 0.063 0.126 0.262 0.158 0.594 0.094 0.136 0.315 0.264 0.622 0.406 0.906 0.06 0.119 0.233 0.144 0.531 0.094 0.138 0.32 0.293 0.618 0.438 0.906 0.06 0.119 0.265 0.144 0.563 0.094 0.138 0.32 0.293 0.618 0.438 0.906 0.061 0.122 0.281 0.15 0.594 0.094 0.136 0.314 0.265 0.623 0.406 0.906 0.061 0.122 0.281 0.15 0.594 0.094 0.133 0.307 0.268 0.629 0.406 0.906 0.061 0.122 0.281 0.15 0.594 0.094 0.133 0.307 0.268 0.598 0.406 0.875 0.063 0.126 0.262 0.158 0.594 0.094 0.136 0.315 0.264 0.622 0.406 0.906 0.061 0.122 0.249 0.15 0.563 0.094 0.137 0.32 0.294 0.619 0.438 0.906 0.06 0.119 0.234 0.144 0.531 0.094 0.138 0.32 0.293 0.618 0.438 0.906 0.061 0.122 0.281 0.15 0.594 0.094 0.136 0.314 0.265 0.623 0.406 0.906 0.061 0.122 0.281 0.15 0.594 0.094 0.133 0.307 0.268 0.629 0.406 0.906 0.061 0.122 0.281 0.15 0.594 0.094 0.133 0.307 0.268 0.598 0.406 0.875 0.063 0.126 0.264 0.157 0.594 0.094 0.136 0.315 0.264 0.622 0.406 0.906 0.063 0.126 0.262 0.158 0.594 0.094 0.136 0.315 0.264 0.622 0.406 0.906 0.06 0.119 0.234 0.144 0.531 0.094 0.138 0.32 0.293 0.618 0.438 0.906 0.061 0.122 0.281 0.15 0.594 0.094 0.136 0.314 0.265 0.623 0.406 0.906 0.061 0.122 0.281 0.15 0.594 0.094 0.133 0.307 0.268 0.629 0.406 0.906 0.061 0.122 0.281 0.15 0.594 0.094 0.133 0.307 0.268 0.598 0.406 0.875 0.063 0.126 0.264 0.157 0.594 0.094 0.136 0.315 0.264 0.622 0.406 0.906 0.063 0.126 0.262 0.158 0.594 0.094 0.136 0.315 0.264 0.622 0.406 0.906 0.06 0.119 0.233 0.144 0.531 0.094 0.138 0.32 0.293 0.618 0.438 0.906 0.061 0.122 0.281 0.15 0.594 0.094 0.136 0.314 0.265 0.623 0.406 0.906 0.061 0.122 0.281 0.15 0.594 0.094 0.136 0.314 0.265 0.623 0.406 0.906 0.061 0.122 0.281 0.15 0.594 0.094 0.133 0.307 0.268 0.598 0.406 0.875 0.061 0.122 0.281 0.181 0.594 0.125 0.133 0.306 0.268 0.599 0.406 0.875 0.063 0.126 0.262 0.158 0.594 0.094 0.136 0.315 0.264 0.622 0.406 0.906 0.06 0.119 0.233 0.144 0.531 0.094 0.138 0.32 0.293 0.618 0.438 0.906 0.06 0.119 0.265 0.144 0.563 0.094 0.138 0.32 0.293 0.618 0.438 0.906 0.061 0.122 0.281 0.15 0.594 0.094 0.136 0.314 0.265 0.623 0.406 0.906 0.061 0.122 0.281 0.15 0.594 0.094 0.133 0.307 0.268 0.629 0.406 0.906 0.061 0.122 0.281 0.15 0.594 0.094 0.133 0.307 0.268 0.598 0.406 0.875 0.063 0.126 0.262 0.158 0.594 0.094 0.136 0.315 0.264 0.622 0.406 0.906 0.063 0.126 0.262 0.158 0.594 0.094 0.136 0.315 0.264 0.622 0.406 0.906 0.06 0.119 0.233 0.144 0.531 0.094 0.138 0.32 0.293 0.618 0.438 0.906 0.061 0.122 0.281 0.15 0.594 0.094 0.052 0.119 0.106 0.227 0.156 0.344 8.6 1.027 17.343 1.594 26.22 1.594 107.73 0 197.3-77.82 215.53-180.31-0.22-0.277-0.453-0.519-0.719-0.688-0.31-0.465-0.656-0.83-1.063-1.063-0.295-0.422-0.619-0.782-1-1-0.293-0.419-0.623-0.751-1-0.969-0.296-0.429-0.617-0.778-1-1-0.296-0.429-0.617-0.778-1-1-0.271-0.389-0.564-0.72-0.906-0.938-0.304-0.456-0.665-0.798-1.063-1.031-0.299-0.432-0.613-0.81-1-1.031-0.295-0.422-0.619-0.782-1-1-0.293-0.419-0.623-0.751-1-0.969-0.29-0.419-0.596-0.779-0.969-1-0.275-0.4-0.588-0.716-0.938-0.938-0.299-0.448-0.643-0.798-1.031-1.031-0.304-0.446-0.636-0.805-1.031-1.031-0.295-0.422-0.619-0.782-1-1-0.293-0.419-0.623-0.751-1-0.969-0.29-0.419-0.596-0.779-0.969-1-0.291-0.423-0.626-0.746-1-0.969-0.278-0.407-0.584-0.744-0.938-0.969-0.31-0.465-0.656-0.83-1.063-1.063-0.295-0.422-0.619-0.782-1-1-0.293-0.419-0.623-0.751-1-0.969-0.296-0.429-0.617-0.778-1-1-0.296-0.429-0.617-0.778-1-1-0.271-0.389-0.564-0.72-0.906-0.938-0.304-0.456-0.665-0.798-1.063-1.031-0.299-0.432-0.613-0.81-1-1.031-0.295-0.422-0.619-0.782-1-1-0.293-0.419-0.623-0.751-1-0.969-0.29-0.419-0.596-0.779-0.969-1-0.275-0.4-0.588-0.716-0.938-0.938-0.304-0.456-0.665-0.798-1.063-1.031-0.299-0.432-0.613-0.81-1-1.031-0.295-0.422-0.619-0.782-1-1-0.293-0.419-0.623-0.751-1-0.969-0.29-0.419-0.596-0.779-0.969-1-0.275-0.4-0.588-0.716-0.938-0.938-0.299-0.448-0.643-0.798-1.031-1.031-0.304-0.446-0.636-0.805-1.031-1.031-0.295-0.422-0.619-0.782-1-1-0.293-0.419-0.623-0.751-1-0.969-0.296-0.429-0.617-0.778-1-1-0.289-0.418-0.597-0.747-0.969-0.969-0.278-0.407-0.584-0.744-0.938-0.969-0.31-0.465-0.656-0.83-1.063-1.063-0.295-0.422-0.619-0.782-1-1-0.293-0.419-0.623-0.751-1-0.969-0.296-0.429-0.617-0.778-1-1-0.296-0.429-0.617-0.778-1-1-0.271-0.389-0.564-0.72-0.906-0.938-0.304-0.456-0.665-0.798-1.063-1.031-0.299-0.432-0.613-0.81-1-1.031-0.295-0.422-0.619-0.782-1-1-0.293-0.419-0.623-0.751-1-0.969-0.29-0.419-0.596-0.779-0.969-1-0.275-0.4-0.588-0.716-0.938-0.938-0.299-0.448-0.643-0.798-1.031-1.031-0.304-0.446-0.636-0.805-1.031-1.031-0.295-0.422-0.619-0.782-1-1-0.293-0.419-0.623-0.751-1-0.969-0.29-0.419-0.596-0.779-0.969-1-0.291-0.423-0.626-0.746-1-0.969-0.278-0.407-0.584-0.744-0.938-0.969-0.31-0.465-0.656-0.83-1.063-1.063-0.295-0.422-0.619-0.782-1-1-0.293-0.419-0.623-0.751-1-0.969-0.296-0.429-0.617-0.778-1-1-0.296-0.429-0.617-0.778-1-1-0.271-0.389-0.564-0.72-0.906-0.938-0.304-0.456-0.665-0.798-1.063-1.031-0.299-0.432-0.613-0.81-1-1.031-0.295-0.422-0.619-0.782-1-1-0.293-0.419-0.623-0.751-1-0.969-0.296-0.429-0.617-0.778-1-1-0.271-0.389-0.564-0.72-0.906-0.938-0.304-0.456-0.665-0.798-1.063-1.031-0.299-0.432-0.613-0.81-1-1.031-0.295-0.422-0.619-0.782-1-1-0.293-0.419-0.623-0.751-1-0.969-0.29-0.419-0.596-0.779-0.969-1-0.275-0.4-0.588-0.716-0.938-0.938-0.299-0.448-0.643-0.798-1.031-1.031-0.304-0.446-0.636-0.805-1.031-1.031-0.295-0.422-0.619-0.782-1-1-0.293-0.419-0.623-0.751-1-0.969-0.296-0.429-0.617-0.778-1-1-0.289-0.418-0.597-0.747-0.969-0.969-0.278-0.407-0.584-0.744-0.938-0.969-0.31-0.465-0.656-0.83-1.063-1.063-0.295-0.422-0.619-0.782-1-1-0.293-0.419-0.623-0.751-1-0.969-0.296-0.429-0.617-0.778-1-1-0.296-0.429-0.617-0.778-1-1-0.271-0.389-0.564-0.72-0.906-0.938-0.304-0.456-0.665-0.798-1.063-1.031-0.299-0.432-0.613-0.81-1-1.031-0.295-0.422-0.619-0.782-1-1-0.293-0.419-0.623-0.751-1-0.969-0.29-0.419-0.596-0.779-0.969-1-0.275-0.4-0.588-0.716-0.938-0.938-0.436-0.653-0.952-1.098-1.594-1.281-0.831-0.238-1.955 0.045-3.25 0.688-0.401-0.433-0.823-0.859-1.25-1.25-0.325-0.339-0.659-0.688-1-1-0.221-0.231-0.459-0.438-0.688-0.656-0.431-0.469-0.851-0.922-1.313-1.344-0.334-0.348-0.649-0.68-1-1-0.323-0.337-0.629-0.657-0.969-0.969-0.325-0.339-0.659-0.688-1-1-0.325-0.339-0.659-0.688-1-1-0.221-0.231-0.459-0.438-0.688-0.656-0.321-0.349-0.662-0.678-1-1-0.431-0.469-0.851-0.922-1.313-1.344-0.323-0.337-0.629-0.657-0.969-0.969-0.325-0.339-0.659-0.688-1-1-0.325-0.339-0.659-0.688-1-1-0.325-0.339-0.659-0.688-1-1-0.221-0.231-0.459-0.438-0.688-0.656-0.431-0.469-0.851-0.922-1.313-1.344-0.323-0.337-0.629-0.657-0.969-0.969-0.325-0.339-0.659-0.688-1-1-0.325-0.339-0.659-0.688-1-1-0.325-0.339-0.659-0.688-1-1-0.221-0.231-0.459-0.438-0.688-0.656-0.431-0.469-0.851-0.922-1.313-1.344-0.329-0.343-0.655-0.653-1-0.969-0.041-0.043-0.084-0.083-0.125-0.125-0.011-0.01-0.02-0.021-0.031-0.031-0.275-0.281-0.526-0.581-0.813-0.844-0.325-0.339-0.659-0.688-1-1-0.325-0.339-0.659-0.688-1-1-0.221-0.231-0.459-0.438-0.688-0.656-0.431-0.469-0.851-0.922-1.313-1.344-0.334-0.348-0.649-0.68-1-1-0.323-0.337-0.629-0.657-0.969-0.969-0.325-0.339-0.659-0.688-1-1-0.325-0.339-0.659-0.688-1-1-0.221-0.231-0.459-0.438-0.688-0.656-0.321-0.349-0.662-0.678-1-1-0.431-0.469-0.851-0.922-1.313-1.344-0.323-0.337-0.629-0.657-0.969-0.969-0.325-0.339-0.659-0.688-1-1-0.325-0.339-0.659-0.688-1-1-0.325-0.339-0.659-0.688-1-1-0.221-0.231-0.459-0.438-0.688-0.656-0.431-0.469-0.851-0.922-1.313-1.344-0.329-0.343-0.655-0.653-1-0.969-0.021-0.021-0.042-0.041-0.063-0.063-0.022-0.02-0.04-0.043-0.063-0.063-0.285-0.292-0.547-0.603-0.844-0.875-0.325-0.339-0.659-0.688-1-1-0.325-0.339-0.659-0.688-1-1-0.221-0.231-0.459-0.438-0.688-0.656-0.431-0.469-0.851-0.922-1.313-1.344-0.334-0.348-0.649-0.68-1-1-0.323-0.337-0.629-0.657-0.969-0.969-0.325-0.339-0.659-0.688-1-1-0.325-0.339-0.659-0.688-1-1-0.221-0.231-0.459-0.438-0.688-0.656-5.2-5.659-12.75-7.775-18.281-7.719" />
<path id="path66" fill="#fff" d="m292.52 130.5c-6.196 0.069-7.966 0.636-11.844 2.031-42.09 17.368-82.57 34.552-133.31 49.03-12.145 2.853-17.249 9.394-15.375 19.688 0 0 9.219 88.08 9.219 93.31 0 0.82 0.155 2.237 0.344 3.875-0.415 0.182-0.835 0.381-1.25 0.563l1.719 12.781c0.404-0.167 0.843-0.362 1.25-0.531 0.576 4.184 1.143 8.443 1.531 12.375-0.411 0.18-0.84 0.351-1.25 0.531 0.299 4.658 0.562 9.296-0.125 13.813 0.412-0.171 0.866-0.359 1.281-0.531-1.775 11.269-7.316 32.701-8.125 35.938-0.924 3.695 0.014 6.152 0.938 8 0.924 1.847 32.18-17.678 45.03-27.438 4.572-3.472 13-8.943 23.594-15.5l144.16-81.53s30.06-19.16 30.06-20.906c0-1.741 0.776-12.05-5.438-24.625-5.061-10.239-4.425-20.11-8.188-21.19-3.2-0.915-10.444 5.886-17.12 11.25-0.139-0.257-0.297-0.522-0.438-0.781l-0.813-1.531c-0.013 0.007-0.019 0.024-0.031 0.031-8.818-15.981-21.08-34.7-35.75-58.75-5.117-7.317-13.867-9.969-20.06-9.906" />
</svg>
