<?xml version="1.0" encoding="UTF-8" standalone="no"?>
<svg xmlns:dc="http://purl.org/dc/elements/1.1/" xmlns:cc="http://creativecommons.org/ns#" xmlns:rdf="http://www.w3.org/1999/02/22-rdf-syntax-ns#" xmlns:svg="http://www.w3.org/2000/svg" xmlns="http://www.w3.org/2000/svg" xmlns:sodipodi="http://sodipodi.sourceforge.net/DTD/sodipodi-0.dtd" xmlns:inkscape="http://www.inkscape.org/namespaces/inkscape" height="512" viewBox="0 0 512 512" width="512" version="1.1" id="svg2" inkscape:version="0.91 r" sodipodi:docname="variety.svg">
<defs id="defs23" />
<sodipodi:namedview pagecolor="#ffffff" bordercolor="#666666" borderopacity="1" objecttolerance="10" gridtolerance="10" guidetolerance="10" inkscape:pageopacity="0" inkscape:pageshadow="2" inkscape:window-width="640" inkscape:window-height="480" id="namedview21" showgrid="false" inkscape:zoom="0.4609375" inkscape:cx="256" inkscape:cy="256" inkscape:window-x="0" inkscape:window-y="0" inkscape:window-maximized="0" inkscape:current-layer="svg2" />
<metadata id="metadata132">
<rdf:RDF>
<cc:Work rdf:about="">
<dc:format>image/svg+xml</dc:format>
<dc:type rdf:resource="http://purl.org/dc/dcmitype/StillImage" />
</cc:Work>
</rdf:RDF>
</metadata>
<path style="fill:#68af4c;fill-rule:evenodd" inkscape:connector-curvature="0" d="m 471.95,253.05 c 0,120.9 -98.01,218.9 -218.9,218.9 -120.9,0 -218.9,-98.01 -218.9,-218.9 0,-120.9 98.01,-218.9 218.9,-218.9 120.9,0 218.9,98.01 218.9,218.9" id="path6" />
<path id="path66" d="m159.54 138.93c-17.762 0-32.02 14.1-32.02 31.672v104.05c0 17.569 14.257 31.672 32.02 31.672h154.93c0.914-0.709 2.056-1.178 3.308-1.178s2.261 0.469 3.175 1.178h31.49c17.762 0 32.02-14.1 32.02-31.672v-104.05c0-17.569-14.257-31.672-32.02-31.672h-192.91" fill-rule="evenodd" fill="#68af4c" />
<g id="g68" fill="#fff">
<path id="path70" d="m156.72 120c-27.13 0-49.41 22.28-49.41 49.41v108.28c0 27.13 22.28 49.41 49.41 49.41h198.56c27.13 0 49.41-22.28 49.41-49.41v-108.28c0-27.13-22.28-49.41-49.41-49.41h-198.56m3.938 24.19h190.69c15.53 0 27.938 12.309 27.938 27.813v103.09c0 15.504-12.433 27.938-27.938 27.938h-190.69c-15.503 0-27.938-12.434-27.938-27.938v-103.09c0-15.504 12.409-27.813 27.938-27.813m157.5 161.81c5.155 0 9.313 4.157 9.313 9.313 0 5.155-4.157 9.344-9.313 9.344-5.155 0-9.344-4.189-9.344-9.344s4.189-9.313 9.344-9.313" color="#000000" />
<g id="g72" fill-rule="evenodd">
<rect id="rect74" rx="11.08" height="46.17" width="50.17" y="340.16" x="229.14" />
<rect id="rect76" rx="8" height="16" width="160.02" y="376" x="173.8" />
</g>
</g>
<path id="path124" stroke="#fff" stroke-width="2.13" fill="#fff" d="m224.83 163.97c-12.12 0.614-21.764 10.651-21.764 22.926 0 12.672 10.255 22.963 22.926 22.963 12.672 0 22.963-10.291 22.963-22.963s-10.291-22.926-22.963-22.926c-0.396 0-0.772-0.02-1.163 0zm65.65 47.31c-3.743 0.001-7.834 0.592-12.353 1.853-12.844 5.262-38.953 45.23-49.49 35.788-32.691-43.796-54.56-0.606-60.53 34.23h175.78c-16.16-32.882-22.928-71.878-53.41-71.867z" />
<path id="path126" d="m159.53 138.94c-17.762 0-32 14.09-32 31.656v104.06c0 17.569 14.251 32.34 32 31.656l43.44-1.667c63.747-36.02 43.63-94.69 93.87-165.71z" fill-opacity="0.079" fill="#fff" />
</svg>
