<?xml version="1.0" encoding="UTF-8" standalone="no"?>
<svg xmlns:dc="http://purl.org/dc/elements/1.1/" xmlns:cc="http://creativecommons.org/ns#" xmlns:rdf="http://www.w3.org/1999/02/22-rdf-syntax-ns#" xmlns:svg="http://www.w3.org/2000/svg" xmlns="http://www.w3.org/2000/svg" xmlns:sodipodi="http://sodipodi.sourceforge.net/DTD/sodipodi-0.dtd" xmlns:inkscape="http://www.inkscape.org/namespaces/inkscape" height="512" viewBox="0 0 512 512" width="512" version="1.1" id="svg2" inkscape:version="0.91 r" sodipodi:docname="vlc.svg">
<defs id="defs15" />
<sodipodi:namedview pagecolor="#ffffff" bordercolor="#666666" borderopacity="1" objecttolerance="10" gridtolerance="10" guidetolerance="10" inkscape:pageopacity="0" inkscape:pageshadow="2" inkscape:window-width="640" inkscape:window-height="480" id="namedview13" showgrid="false" inkscape:zoom="0.4609375" inkscape:cx="256" inkscape:cy="256" inkscape:window-x="0" inkscape:window-y="0" inkscape:window-maximized="0" inkscape:current-layer="svg2" />
<metadata id="metadata38">
<rdf:RDF>
<cc:Work rdf:about="">
<dc:format>image/svg+xml</dc:format>
<dc:type rdf:resource="http://purl.org/dc/dcmitype/StillImage" />
</cc:Work>
</rdf:RDF>
</metadata>
<path inkscape:connector-curvature="0" d="m 471.94,253.04342 c 0,120.8954 -98.00438,218.90438 -218.90438,218.90438 -120.8954,0 -218.90438,-98.00438 -218.90438,-218.90438 0,-120.89541 98.00438,-218.90438 218.90438,-218.90438 120.89541,0 218.90438,98.00437 218.90438,218.90438" id="path6" fill="#f38725" fill-rule="evenodd" />
<path id="path12" d="m 123.37398,380.9629 265.2055,0 -26.8642,-52.5867 -208.87402,0 c 0,0 -11.79719,22.2426 -29.46499,52.5867 z" inkscape:connector-curvature="0" style="fill:#ffffff;stroke:#ffffff;stroke-width:19.29500008" />
<path id="path14" d="m 255.25175,81.3694 c -4.89903,0.024 -9.5937,3.26527 -19.37579,9.6154 l -20.53576,79.57649 81.17487,-0.048 -20.53576,-79.53082 c -10.73083,-6.44604 -15.82967,-9.63937 -20.73327,-9.6154 m -49.18443,125.00473 -7.63455,29.57118 115.00344,0 -7.5866,-29.47413 z m 107.36546,29.57118 9.42245,36.43164 -9.42245,-36.43164 m 9.42245,36.43164 -133.79582,-0.097 -11.93533,46.24113 c 56.95485,32.55672 95.06936,34.55926 157.71444,0.19295 z" inkscape:connector-curvature="0" style="fill:#ffffff" />
</svg>
