<?xml version="1.0" encoding="UTF-8" standalone="no"?>
<svg
   xmlns:dc="http://purl.org/dc/elements/1.1/"
   xmlns:cc="http://creativecommons.org/ns#"
   xmlns:rdf="http://www.w3.org/1999/02/22-rdf-syntax-ns#"
   xmlns:svg="http://www.w3.org/2000/svg"
   xmlns="http://www.w3.org/2000/svg"
   xmlns:sodipodi="http://sodipodi.sourceforge.net/DTD/sodipodi-0.dtd"
   xmlns:inkscape="http://www.inkscape.org/namespaces/inkscape"
   height="512"
   viewBox="0 0 512 512"
   width="512"
   version="1.1"
   id="svg2"
   inkscape:version="0.91 r13725"
   sodipodi:docname="web-browser.svg">
  <defs
     id="defs20" />
  <sodipodi:namedview
     pagecolor="#ffffff"
     bordercolor="#666666"
     borderopacity="1"
     objecttolerance="10"
     gridtolerance="10"
     guidetolerance="10"
     inkscape:pageopacity="0"
     inkscape:pageshadow="2"
     inkscape:window-width="1680"
     inkscape:window-height="999"
     id="namedview18"
     showgrid="false"
     inkscape:zoom="0.921875"
     inkscape:cx="131.72847"
     inkscape:cy="110.47666"
     inkscape:window-x="0"
     inkscape:window-y="25"
     inkscape:window-maximized="0"
     inkscape:current-layer="svg2" />
  <metadata
     id="metadata80">
    <rdf:RDF>
      <cc:Work
         rdf:about="">
        <dc:format>image/svg+xml</dc:format>
        <dc:type
           rdf:resource="http://purl.org/dc/dcmitype/StillImage" />
      </cc:Work>
    </rdf:RDF>
  </metadata>
  <path
     id="path4"
     d="m 489.30593,253.05 c 0,130.4858 -105.78092,236.25593 -236.25593,236.25593 -130.4858,0 -236.255932,-105.78092 -236.255932,-236.25593 0,-130.4858 105.780922,-236.255932 236.255932,-236.255932 130.4858,0 236.25593,105.780922 236.25593,236.255932"
     inkscape:connector-curvature="0"
     style="fill:#1793d1;fill-rule:evenodd" />
  <path
     id="path66"
     d="m 253.36658,66.576642 c -0.79119,0.48759 -5.41867,17.921189 -10.49389,39.721618 -5.23775,22.50423 -10.22097,41.81305 -11.11642,42.88483 -0.19166,0.23152 -0.60259,0.51365 -1.10244,0.81418 -40.46987,9.09092 -72.387,40.68453 -81.93945,80.97807 -0.0153,0.0644 -0.0338,0.12726 -0.0475,0.19166 -1.70503,4.1767 -3.06353,4.87589 -6.94738,5.894 -3.09726,0.81112 -21.17944,5.04302 -40.15707,9.39145 -18.974568,4.34843 -35.020534,8.37488 -35.649185,8.9606 -0.628652,0.58571 16.275959,5.09668 37.565805,10.01397 21.28984,4.91881 40.12641,9.77324 41.82837,10.82508 0.94298,0.58112 2.08836,2.22328 3.21073,4.3607 9.39912,40.97893 41.90197,73.12606 83.08943,81.98545 5.14115,3.39013 5.8388,8.47607 9.87137,25.49109 3.09727,13.04683 7.49936,32.00606 9.82231,42.11816 3.13406,13.64022 4.57843,17.59613 5.51067,15.33299 0.68999,-1.67743 5.05682,-19.62622 9.72725,-39.86576 4.67042,-20.23953 9.06639,-38.09479 9.72725,-39.67409 0.55351,-1.3217 3.50817,-3.08193 8.3856,-5.17488 35.51118,-10.17189 63.59354,-37.897 74.22696,-73.21498 0.4186,-1.39224 0.78659,-2.80135 1.14997,-4.21658 -0.36491,1.42138 -0.72984,2.81974 -1.14997,4.21658 1.49344,-4.61524 3.55726,-8.69687 4.74403,-9.15226 1.22817,-0.47226 20.2794,-5.03842 42.30982,-10.15811 22.03043,-5.11967 40.29508,-9.52944 40.58488,-9.8223 0.71912,-0.71145 -5.28375,-2.26929 -44.9931,-11.4522 -18.55292,-4.29017 -35.02973,-8.31355 -36.6075,-8.9606 -1.09324,-0.44772 -2.49467,-2.52381 -4.12151,-5.94153 -0.0108,-0.0215 -0.0383,-0.0276 -0.0475,-0.0475 -9.56166,-42.28683 -43.69287,-75.22361 -86.63135,-82.98209 -0.38179,-0.43853 -0.66085,-0.90772 -0.86325,-1.38918 -0.75898,-1.81849 -5.31594,-20.55539 -10.11057,-41.64437 -4.79462,-21.082854 -9.16759,-38.841513 -9.72724,-39.482431 -0.0168,-0.01993 -0.023,-0.01534 -0.0475,0 m 1.24504,80.737341 c 1.87675,0 3.75351,0.046 5.60573,0.14414 -1.85528,-0.0936 -3.72744,-0.14414 -5.60573,-0.14414 -1.50877,0 -3.00986,0.0353 -4.50483,0.0966 1.4965,-0.0628 2.993,-0.0966 4.50483,-0.0966 m -6.56405,0.2392 c -1.5287,0.0905 -3.04053,0.18247 -4.55237,0.33579 -1.34776,0.13647 -2.69246,0.29287 -4.0249,0.47993 1.33704,-0.1886 2.67254,-0.33886 4.0249,-0.47993 1.5103,-0.1564 3.02367,-0.24225 4.55237,-0.33579 m 6.56405,28.89347 c 44.03479,0 79.7315,35.69672 79.7315,79.73151 0,44.03479 -35.69671,79.7315 -79.7315,79.7315 -44.03479,0 -79.73151,-35.69671 -79.73151,-79.7315 0,-44.03479 35.69672,-79.73151 79.73151,-79.73151 m -108.34297,69.04438 c -0.13647,1.40143 -0.253,2.7998 -0.3358,4.21656 0.0859,-1.41983 0.19473,-2.81207 0.3358,-4.21656 m 216.67035,0.14412 c 0.138,1.38764 0.25147,2.76608 0.3358,4.16904 -0.0813,-1.40143 -0.2024,-2.7814 -0.3358,-4.16904 m -217.05369,5.41409 c -0.0782,1.69889 -0.14412,3.40851 -0.14412,5.12734 0,1.60537 0.0751,3.20306 0.14412,4.79156 -0.0705,-1.58236 -0.14412,-3.19079 -0.14412,-4.79156 0,-1.71576 0.0629,-3.42998 0.14412,-5.12734 m 217.48302,0.52744 c 0.066,1.52104 0.0966,3.06354 0.0966,4.5999 0,-1.54863 -0.0322,-3.0666 -0.0966,-4.5999 m -217.43702,10.87722 c 0.0904,1.59464 0.2254,3.16779 0.38333,4.74403 -0.16253,-1.58237 -0.29133,-3.14173 -0.38333,-4.74403 m 217.34503,0.14414 c -0.092,1.57162 -0.2254,3.14326 -0.38334,4.69648 -0.13185,1.29411 -0.30359,2.60048 -0.47991,3.88078 0.17785,-1.28643 0.34653,-2.58054 0.47991,-3.88078 0.15794,-1.55936 0.29134,-3.11719 0.38334,-4.69648 m -1.34164,11.73893 c -0.16253,0.9675 -0.3404,1.91662 -0.52746,2.87493 0.18706,-0.95218 0.36493,-1.91356 0.52746,-2.87493 m -118.44729,90.1288 c 1.7357,0.17632 3.46526,0.33732 5.22241,0.43085 -1.75562,-0.0951 -3.48978,-0.25453 -5.22241,-0.43085 m 5.51068,0.43085 c 1.85528,0.0936 3.72745,0.14413 5.60573,0.14413 1.78323,0 3.55725,-0.0583 5.31902,-0.14413 -1.76483,0.0859 -3.53426,0.14413 -5.31902,0.14413 -1.87522,0 -3.75351,-0.0491 -5.60573,-0.14413"
     inkscape:connector-curvature="0"
     style="fill:#ffffff" />
  <g
     id="g70"
     transform="matrix(1.079287,0,0,1.079287,-20.063584,-20.063584)"
     style="fill:#ffffff">
    <path
       id="path72"
       d="m 237.27,238.95 c 37.435,-30.23 -0.097,-0.034 37.36,-30.13 99.78,-81.57 0.438,0.088 99.87,-81.85 -88.84,125.7 -61.965,88.4 -89.23,126.48 -7.272,10.175 -13.783,18.5 -14.468,18.5 -33.637,-32.76 -0.104,-0.121 -33.523,-33"
       inkscape:connector-curvature="0" />
    <path
       id="path74"
       d="m 271.95,271.25 c -37.03,30.721 0.097,0.033 -36.956,30.626 -98.69,82.88 -0.439,-0.082 -98.78,83.16 87.17,-126.86 60.792,-89.22 87.55,-127.65 7.137,-10.27 13.537,-18.68 14.223,-18.689 34.07,32.31 0.106,0.12 33.956,32.554"
       inkscape:connector-curvature="0" />
  </g>
</svg>
