<?xml version="1.0" encoding="UTF-8" standalone="no"?>
<svg xmlns:dc="http://purl.org/dc/elements/1.1/" xmlns:cc="http://creativecommons.org/ns#" xmlns:rdf="http://www.w3.org/1999/02/22-rdf-syntax-ns#" xmlns:svg="http://www.w3.org/2000/svg" xmlns="http://www.w3.org/2000/svg" xmlns:sodipodi="http://sodipodi.sourceforge.net/DTD/sodipodi-0.dtd" xmlns:inkscape="http://www.inkscape.org/namespaces/inkscape" version="1.1" viewBox="0 0 512 512" id="svg3501" inkscape:version="0.91 r" sodipodi:docname="wifi-radar.svg">
<defs id="defs3515" />
<sodipodi:namedview pagecolor="#ffffff" bordercolor="#666666" borderopacity="1" objecttolerance="10" gridtolerance="10" guidetolerance="10" inkscape:pageopacity="0" inkscape:pageshadow="2" inkscape:window-width="640" inkscape:window-height="480" id="namedview3513" showgrid="false" inkscape:zoom="0.4609375" inkscape:cx="256" inkscape:cy="256" inkscape:window-x="0" inkscape:window-y="0" inkscape:window-maximized="0" inkscape:current-layer="svg3501" />
<metadata id="metadata3712">
<rdf:RDF>
<cc:Work rdf:about="">
<dc:format>image/svg+xml</dc:format>
<dc:type rdf:resource="http://purl.org/dc/dcmitype/StillImage" />
</cc:Work>
</rdf:RDF>
</metadata>
<path id="path3472" fill-rule="evenodd" d="m471.95 253.05c0 120.9-98.01 218.91-218.91 218.91s-218.91-98.01-218.91-218.91 98.01-218.91 218.91-218.91 218.91 98.01 218.91 218.91" fill="#006400" />
<path id="path3708" d="m217.76 391.51c-5.115-3.238 8.695-26.446 20.312-34.13 6.783-4.489 17.02-6.347 25.852-4.691 8.259 1.549 21.828 14.704 27.909 27.06 2.746 5.578 4.711 10.425 4.365 10.771s-2.398 1.055-4.562 1.576c-3.558 0.858-4.459-0.053-9.444-9.54-3.03-5.769-8.08-12.571-11.23-15.12-6.723-5.441-16.463-7.256-23.436-4.368-6.309 2.613-16.317 14.11-19.931 22.9-2.839 6.905-5.403 8.351-9.835 5.545m-40.03-28.542c-5.03-3.953-5.146-6.04-0.98-16.999 11.27-29.653 31.367-54.833 52.05-65.22 36.09-18.12 75.52 1.867 99.32 50.35 9.514 19.382 11 26.986 6.216 31.772-1.833 1.833-4.299 3.332-5.482 3.332-4.631 0-10.05-6.562-14.239-17.231-5.519-14.07-17.226-32.03-26.26-40.31-20.842-19.08-45.41-18.952-65.05 0.334-12.212 11.994-21.261 26.2-27.771 43.602-1.768 4.724-4.073 9.276-5.123 10.115-4.295 3.432-8.532 3.515-12.684 0.249m-39.32-32.06c-8.487-7.865-7.427-14.311 7.554-45.959 11.244-23.752 22.341-39.819 38.496-55.738 15.2-14.976 25.945-21.968 42.734-27.807 26.342-9.161 52.05-5.706 79.74 10.715 11.68 6.927 31.25 26.462 41.02 40.957 16.877 25.02 33.35 63.36 30.47 70.896-2.395 6.263-7.76 9.879-14.658 9.879-7.786 0-12.05-4.643-17.215-18.767-9.455-25.832-23.1-47.942-39.884-64.62-12.534-12.453-22.602-18.461-37.22-22.2-39.34-10.08-80.36 24.01-104.38 86.76-4.747 12.398-6.567 15.222-11.502 17.851-5.375 2.863-10.693 2.172-15.16-1.971m-34.935-29.11c-5.599-2.459-10.473-9.138-11.329-15.526-1.601-11.934 18.475-58.37 37.723-87.25 39.997-60.01 94.92-88.62 148.85-77.54 37.19 7.643 75.35 35.933 101.89 75.53 19.714 29.416 41.656 79.887 39.15 90.06-3.386 13.75-16.994 20.14-28.651 13.447-5.784-3.32-8.406-7.629-13.773-22.641-14.1-39.43-40.32-78.85-64.748-97.33-35.811-27.09-70.916-28.637-106.71-4.694-27.902 18.662-50.918 51.3-70.854 100.46-5.407 13.334-9.217 20.498-11.996 22.554-4.653 3.442-14.892 4.98-19.546 2.935" fill="#fff" />
</svg>
