<?xml version="1.0" encoding="UTF-8" standalone="no"?>
<svg xmlns:dc="http://purl.org/dc/elements/1.1/" xmlns:cc="http://creativecommons.org/ns#" xmlns:rdf="http://www.w3.org/1999/02/22-rdf-syntax-ns#" xmlns:svg="http://www.w3.org/2000/svg" xmlns="http://www.w3.org/2000/svg" xmlns:sodipodi="http://sodipodi.sourceforge.net/DTD/sodipodi-0.dtd" xmlns:inkscape="http://www.inkscape.org/namespaces/inkscape" height="512" viewBox="0 0 512 512" width="512" version="1.1" id="svg2" inkscape:version="0.91 r" sodipodi:docname="workspace-switcher-right-top.svg">
<defs id="defs27" />
<sodipodi:namedview pagecolor="#ffffff" bordercolor="#666666" borderopacity="1" objecttolerance="10" gridtolerance="10" guidetolerance="10" inkscape:pageopacity="0" inkscape:pageshadow="2" inkscape:window-width="640" inkscape:window-height="480" id="namedview25" showgrid="false" inkscape:zoom="0.4609375" inkscape:cx="256" inkscape:cy="256" inkscape:window-x="0" inkscape:window-y="0" inkscape:window-maximized="0" inkscape:current-layer="svg2" />
<metadata id="metadata94">
<rdf:RDF>
<cc:Work rdf:about="">
<dc:format>image/svg+xml</dc:format>
<dc:type rdf:resource="http://purl.org/dc/dcmitype/StillImage" />
</cc:Work>
</rdf:RDF>
</metadata>
<path id="path4" d="m471.95 253.05c0 120.9-98.01 218.9-218.9 218.9-120.9 0-218.9-98.01-218.9-218.9 0-120.9 98.01-218.9 218.9-218.9 120.9 0 218.9 98.01 218.9 218.9" fill-rule="evenodd" fill="#0078ad" />
<g style="fill:none;stroke:#ffffff" id="g68">
<g style="stroke-width:1.45700002" id="g70">
<path inkscape:connector-curvature="0" d="m 118.09,149.81 129.29,0 0,96.53 -129.29,0 z" id="path72" />
<path inkscape:connector-curvature="0" d="m 264.62,149.81 0,96.53 129.29,0 0,-96.53 -129.29,0 z m 8.619,9.653 112.05,0 0,77.23 -112.05,0 0,-77.23 z" id="path74" />
<path inkscape:connector-curvature="0" d="m 118.09,265.65 129.29,0 0,96.53 -129.29,0 z" id="path76" />
<path inkscape:connector-curvature="0" d="m 264.62,265.65 129.29,0 0,96.53 -129.29,0 z" id="path78" />
</g>
<path style="stroke-width:9.19400024" inkscape:connector-curvature="0" d="m 269.06,154.61 120.25,0 0,86.994 -120.25,0 z" id="path80" />
</g>
<g style="fill:#ffffff;stroke:#ffffff;stroke-width:9.19400024" id="g82">
<path inkscape:connector-curvature="0" d="m 269.06,270.56 120.25,0 0,86.995 -120.25,0 z" id="path84" />
<path inkscape:connector-curvature="0" d="m 122.41,154.61 120.25,0 0,86.994 -120.25,0 z" id="path86" />
<path inkscape:connector-curvature="0" d="m 122.41,270.56 120.25,0 0,86.995 -120.25,0 z" id="path88" />
</g>
</svg>
