<?xml version="1.0" encoding="UTF-8" standalone="no"?>
<svg xmlns:dc="http://purl.org/dc/elements/1.1/" xmlns:cc="http://creativecommons.org/ns#" xmlns:rdf="http://www.w3.org/1999/02/22-rdf-syntax-ns#" xmlns:svg="http://www.w3.org/2000/svg" xmlns="http://www.w3.org/2000/svg" xmlns:sodipodi="http://sodipodi.sourceforge.net/DTD/sodipodi-0.dtd" xmlns:inkscape="http://www.inkscape.org/namespaces/inkscape" height="512" viewBox="0 0 512 512" width="512" version="1.1" id="svg943" inkscape:version="0.91 r" sodipodi:docname="xfce4-panel-menu.svg">
<defs id="defs959" />
<sodipodi:namedview pagecolor="#ffffff" bordercolor="#666666" borderopacity="1" objecttolerance="10" gridtolerance="10" guidetolerance="10" inkscape:pageopacity="0" inkscape:pageshadow="2" inkscape:window-width="640" inkscape:window-height="480" id="namedview957" showgrid="false" inkscape:zoom="0.4609375" inkscape:cx="256" inkscape:cy="256" inkscape:window-x="0" inkscape:window-y="0" inkscape:window-maximized="0" inkscape:current-layer="svg943" />
<metadata id="metadata76">
<rdf:RDF>
<cc:Work rdf:about="">
<dc:format>image/svg+xml</dc:format>
<dc:type rdf:resource="http://purl.org/dc/dcmitype/StillImage" />
</cc:Work>
</rdf:RDF>
</metadata>
<path style="fill:#248ab8;fill-rule:evenodd" inkscape:connector-curvature="0" d="m 471.95,253.05 c 0,120.9 -98.01,218.9 -218.9,218.9 -120.9,0 -218.9,-98.01 -218.9,-218.9 0,-120.9 98.01,-218.9 218.9,-218.9 120.9,0 218.9,98.01 218.9,218.9" id="path6" />
<path style="fill:#ffffff;fill-rule:evenodd;stroke:#ffffff;stroke-width:4.44899988" inkscape:connector-curvature="0" d="m 210.81,107.19 c -2.159,0.072 -4.569,0.619 -7.188,1.656 -20.636,7.681 -3.772,53.42 -2.438,59.34 1.231,5.449 -9.195,4.892 -11.156,2.5 -4.378,-5.346 -18.827,-53.08 -35.875,-44.563 -23.91,13.183 -1.387,54.35 -6.156,55.688 -8.859,4.951 -8.337,17.05 -15.438,26.906 -8.285,11.874 -54.41,3.03 -90.81,-3.781 -4.135,15.729 -9.35,31.973 -9.35,49 0,48.897 13.14,95.53 43.08,129.57 44.32,-0.311 87.44,-8.29 88.58,-8.722 -0.182,-0.402 71.69,33.773 77.938,29.688 15.756,-17.06 -29.887,-41.11 -22.281,-50.719 3.335,-5.03 55.58,18.871 58.16,12.344 3.744,-11.3 -24.26,-35 -28.469,-42.03 -3.662,-6.481 -4.424,-16.951 4.969,-23.5 9.396,-6.549 105.47,-43.31 101.44,-71.75 -6.965,-51.672 -121.86,-55.03 -123.72,-59.37 -0.804,-1.883 4.194,-63.1 -21.281,-62.25 z m 119.63,34.28 c -1.912,0.825 -9.606,40.561 -5.875,42.38 3.306,2.474 9.08,-40.11 6.06,-42.31 -0.049,-0.057 -0.126,-0.089 -0.188,-0.063 z m 28.406,5.438 c -4.337,-0.08 -27.515,36.868 -22.19,40.813 3.306,2.474 23.948,-39.29 22.531,-40.688 -0.099,-0.082 -0.204,-0.122 -0.344,-0.125 z" id="path14" />
</svg>
