<?xml version="1.0" encoding="UTF-8" standalone="no"?>
<svg xmlns:dc="http://purl.org/dc/elements/1.1/" xmlns:cc="http://creativecommons.org/ns#" xmlns:rdf="http://www.w3.org/1999/02/22-rdf-syntax-ns#" xmlns:svg="http://www.w3.org/2000/svg" xmlns="http://www.w3.org/2000/svg" xmlns:sodipodi="http://sodipodi.sourceforge.net/DTD/sodipodi-0.dtd" xmlns:inkscape="http://www.inkscape.org/namespaces/inkscape" viewBox="0 0 512 512" id="svg1045" version="1.1" inkscape:version="0.91 r" sodipodi:docname="xnconvert.svg">
<metadata id="metadata1209">
<rdf:RDF>
<cc:Work rdf:about="">
<dc:format>image/svg+xml</dc:format>
<dc:type rdf:resource="http://purl.org/dc/dcmitype/StillImage" />
</cc:Work>
</rdf:RDF>
</metadata>
<defs id="defs1207" />
<sodipodi:namedview pagecolor="#ffffff" bordercolor="#666666" borderopacity="1" objecttolerance="10" gridtolerance="10" guidetolerance="10" inkscape:pageopacity="0" inkscape:pageshadow="2" inkscape:window-width="640" inkscape:window-height="480" id="namedview1205" showgrid="false" inkscape:zoom="0.4609375" inkscape:cx="256" inkscape:cy="256" inkscape:window-x="0" inkscape:window-y="0" inkscape:window-maximized="0" inkscape:current-layer="svg1045" />
<text font-size="129.23" y="231.36" x="729.64" font-family="'Gentium Book Basic'" line-height="125%" word-spacing="0" letter-spacing="0" id="text1047">
<tspan y="231.36" x="729.64" id="tspan1049" />
</text>
<text transform="scale(4.0128.2492)" font-size="46.954" y="579.26" x="378.91" font-family="Arial" text-anchor="middle" id="text1051" />
<text font-size="129.23" y="151.36" x="1310.91" font-family="'Gentium Book Basic'" line-height="125%" word-spacing="0" letter-spacing="0" id="text1053">
<tspan y="151.36" x="1310.91" id="tspan1055" />
</text>
<text transform="scale(4.0128.2492)" font-size="46.954" y="258.22" x="523.76" font-family="Arial" text-anchor="middle" id="text1057" />
<text font-size="129.23" y="-29.9" x="239.33" font-family="'Gentium Book Basic'" line-height="125%" word-spacing="0" letter-spacing="0" id="text1059">
<tspan y="-29.9" x="239.33" id="tspan1061" />
</text>
<text transform="scale(4.0128.2492)" font-size="46.954" y="-469.13" x="256.72" font-family="Arial" text-anchor="middle" id="text1063" />
<text font-size="129.23" y="-246.37" x="1337.38" font-family="'Gentium Book Basic'" line-height="125%" word-spacing="0" letter-spacing="0" id="text1065">
<tspan y="-246.37" x="1337.38" id="tspan1067" />
</text>
<text transform="scale(4.0128.2492)" font-size="46.954" y="-1337.8" x="530.36" font-family="Arial" text-anchor="middle" id="text1069" />
<text font-size="129.23" y="-326.37" x="1918.65" font-family="'Gentium Book Basic'" line-height="125%" word-spacing="0" letter-spacing="0" id="text1071">
<tspan y="-326.37" x="1918.65" id="tspan1073" />
</text>
<text transform="scale(4.0128.2492)" font-size="46.954" y="-1658.83" x="675.21" font-family="Arial" text-anchor="middle" id="text1075" />
<text font-size="129.23" y="-798.77" x="1529.53" font-family="'Gentium Book Basic'" line-height="125%" word-spacing="0" letter-spacing="0" id="text1077">
<tspan y="-798.77" x="1529.53" id="tspan1079" />
</text>
<text transform="scale(4.0128.2492)" font-size="46.954" y="-3554.48" x="578.24" font-family="Arial" text-anchor="middle" id="text1081" />
<text font-size="129.23" y="-878.78" x="2110.79" font-family="'Gentium Book Basic'" line-height="125%" word-spacing="0" letter-spacing="0" id="text1083">
<tspan y="-878.78" x="2110.79" id="tspan1085" />
</text>
<text transform="scale(4.0128.2492)" font-size="46.954" y="-3875.52" x="723.09" font-family="Arial" text-anchor="middle" id="text1087" />
<g font-family="'Gentium Book Basic'" line-height="125%" word-spacing="0" letter-spacing="0" id="g1089">
<text y="535.94" x="277.99" font-size="208.33" id="text1091">
<tspan y="535.94" x="277.99" id="tspan1093" />
</text>
<text y="231.36" x="729.64" font-size="129.23" id="text1095">
<tspan y="231.36" x="729.64" id="tspan1097" />
</text>
</g>
<text transform="scale(4.0128.2492)" font-size="46.954" y="579.26" x="378.91" font-family="Arial" text-anchor="middle" id="text1099" />
<text font-size="129.23" y="151.36" x="1310.91" font-family="'Gentium Book Basic'" line-height="125%" word-spacing="0" letter-spacing="0" id="text1101">
<tspan y="151.36" x="1310.91" id="tspan1103" />
</text>
<text transform="scale(4.0128.2492)" font-size="46.954" y="258.22" x="523.76" font-family="Arial" text-anchor="middle" id="text1105" />
<text font-size="129.23" y="-29.9" x="239.33" font-family="'Gentium Book Basic'" line-height="125%" word-spacing="0" letter-spacing="0" id="text1107">
<tspan y="-29.9" x="239.33" id="tspan1109" />
</text>
<text transform="scale(4.0128.2492)" font-size="46.954" y="-469.13" x="256.72" font-family="Arial" text-anchor="middle" id="text1111" />
<text font-size="129.23" y="-246.37" x="1337.38" font-family="'Gentium Book Basic'" line-height="125%" word-spacing="0" letter-spacing="0" id="text1113">
<tspan y="-246.37" x="1337.38" id="tspan1115" />
</text>
<text transform="scale(4.0128.2492)" font-size="46.954" y="-1337.8" x="530.36" font-family="Arial" text-anchor="middle" id="text1117" />
<text font-size="129.23" y="-326.37" x="1918.65" font-family="'Gentium Book Basic'" line-height="125%" word-spacing="0" letter-spacing="0" id="text1119">
<tspan y="-326.37" x="1918.65" id="tspan1121" />
</text>
<text transform="scale(4.0128.2492)" font-size="46.954" y="-1658.83" x="675.21" font-family="Arial" text-anchor="middle" id="text1123" />
<text font-size="129.23" y="-798.77" x="1529.53" font-family="'Gentium Book Basic'" line-height="125%" word-spacing="0" letter-spacing="0" id="text1125">
<tspan y="-798.77" x="1529.53" id="tspan1127" />
</text>
<text transform="scale(4.0128.2492)" font-size="46.954" y="-3554.48" x="578.24" font-family="Arial" text-anchor="middle" id="text1129" />
<text font-size="129.23" y="-878.78" x="2110.79" font-family="'Gentium Book Basic'" line-height="125%" word-spacing="0" letter-spacing="0" id="text1131">
<tspan y="-878.78" x="2110.79" id="tspan1133" />
</text>
<text transform="scale(4.0128.2492)" font-size="46.954" y="-3875.52" x="723.09" font-family="Arial" text-anchor="middle" id="text1135" />
<text font-size="208.33" y="535.94" x="277.99" font-family="'Gentium Book Basic'" line-height="125%" word-spacing="0" letter-spacing="0" id="text1137">
<tspan y="535.94" x="277.99" id="tspan1139" />
</text>
<path style="fill:#f38725;fill-rule:evenodd" inkscape:connector-curvature="0" id="path1143" d="m 471.95,253.05 c 0,120.9 -98.01,218.91 -218.91,218.91 -120.9,0 -218.91,-98.01 -218.91,-218.91 0,-120.9 98.01,-218.91 218.91,-218.91 120.9,0 218.91,98.01 218.91,218.91" />
<text font-size="129.23" y="231.36" x="729.64" font-family="'Gentium Book Basic'" line-height="125%" word-spacing="0" letter-spacing="0" id="text1155">
<tspan y="231.36" x="729.64" id="tspan1157" />
</text>
<text transform="scale(4.0128.2492)" font-size="46.954" y="579.26" x="378.91" font-family="Arial" text-anchor="middle" id="text1159" />
<text font-size="129.23" y="151.36" x="1310.91" font-family="'Gentium Book Basic'" line-height="125%" word-spacing="0" letter-spacing="0" id="text1161">
<tspan y="151.36" x="1310.91" id="tspan1163" />
</text>
<text transform="scale(4.0128.2492)" font-size="46.954" y="258.22" x="523.76" font-family="Arial" text-anchor="middle" id="text1165" />
<text font-size="129.23" y="-29.9" x="239.33" font-family="'Gentium Book Basic'" line-height="125%" word-spacing="0" letter-spacing="0" id="text1167">
<tspan y="-29.9" x="239.33" id="tspan1169" />
</text>
<text transform="scale(4.0128.2492)" font-size="46.954" y="-469.13" x="256.72" font-family="Arial" text-anchor="middle" id="text1171" />
<text font-size="129.23" y="-246.37" x="1337.38" font-family="'Gentium Book Basic'" line-height="125%" word-spacing="0" letter-spacing="0" id="text1173">
<tspan y="-246.37" x="1337.38" id="tspan1175" />
</text>
<text transform="scale(4.0128.2492)" font-size="46.954" y="-1337.79" x="530.36" font-family="Arial" text-anchor="middle" id="text1177" />
<text font-size="129.23" y="-326.37" x="1918.65" font-family="'Gentium Book Basic'" line-height="125%" word-spacing="0" letter-spacing="0" id="text1179">
<tspan y="-326.37" x="1918.65" id="tspan1181" />
</text>
<text transform="scale(4.0128.2492)" font-size="46.954" y="-1658.82" x="675.21" font-family="Arial" text-anchor="middle" id="text1183" />
<text font-size="129.23" y="-798.77" x="1529.53" font-family="'Gentium Book Basic'" line-height="125%" word-spacing="0" letter-spacing="0" id="text1185">
<tspan y="-798.77" x="1529.53" id="tspan1187" />
</text>
<text transform="scale(4.0128.2492)" font-size="46.954" y="-3554.46" x="578.24" font-family="Arial" text-anchor="middle" id="text1189" />
<text font-size="129.23" y="-878.78" x="2110.79" font-family="'Gentium Book Basic'" line-height="125%" word-spacing="0" letter-spacing="0" id="text1191">
<tspan y="-878.78" x="2110.79" id="tspan1193" />
</text>
<text transform="scale(4.0128.2492)" font-size="46.954" y="-3875.5" x="723.09" font-family="Arial" text-anchor="middle" id="text1195" />
<text font-size="208.33" y="535.94" x="277.99" font-family="'Gentium Book Basic'" line-height="125%" word-spacing="0" letter-spacing="0" id="text1197">
<tspan y="535.94" x="277.99" id="tspan1199" />
</text>
<path d="m204.49 134.17c-1.999 0.028-4.03 0.352-6.02 1.016-10.645 3.539-16.665 15.293-13.349 26.01l11.535 37.36c-7.223 2.868-14.282 6.181-21.15 9.758-1.409 0.734-2.812 1.485-4.208 2.249l-18.427-43.09c-3.173-7.416-10.46-11.788-18.03-11.608-2.523 0.06-5.066 0.654-7.509 1.777-9.772 4.492-14.352 16.339-10.121 26.23l20.785 48.535c-11.49 8.806-22.359 18.489-32.466 28.729-3.802 3.846-7.599 7.787-11.06 11.971-4.737 5.737-4.737 12.69 0 18.427 10.542 12.735 23.04 24.05 35.767 34.388 27.408 22.277 58.775 40.975 93.44 48.5 10.725 2.321 21.474 3.418 32.25 3.41 10.905 0.012 21.598-1.085 32.32-3.41 34.669-7.524 66.11-26.22 93.52-48.5 12.723-10.339 25.23-21.654 35.767-34.388 4.736-5.736 4.736-12.689 0-18.427-3.465-4.184-7.263-8.122-11.06-11.971-10.154-10.289-21.06-20.04-32.611-28.874l20.93-48.898c4.231-9.888-0.312-21.735-10.08-26.23-2.443-1.123-5.02-1.681-7.545-1.741-7.569-0.18-14.855 4.156-18.03 11.572l-18.609 43.493c-1.334-0.729-2.68-1.438-4.03-2.14-5.688-2.963-11.538-5.704-17.484-8.198l12.01-38.814c3.316-10.716-2.704-22.47-13.349-26.01-1.996-0.663-4.03-0.986-6.02-1.016-8.652-0.128-16.749 5.404-19.443 14.11l-12.08 38.995c-0.133 0.431-0.223 0.873-0.326 1.306-7.889-1.24-15.719-1.873-23.869-1.886-6.568 0.012-13.13 0.484-19.697 1.342-0.076-0.288-0.129-0.584-0.218-0.871l-12.04-38.995c-2.695-8.707-10.817-14.233-19.479-14.11m50.748 76.72c34.598 0 63.45 24.609 70.01 57.28h-29.926c-5.832-16.516-21.565-28.33-40.08-28.33-23.486 0-42.514 18.998-42.514 42.477 0 23.492 19.03 42.514 42.514 42.514 18.51 0 34.24-11.822 40.08-28.33h29.926c-6.578 32.651-35.424 57.24-70.01 57.24-39.439 0-71.42-31.985-71.42-71.42 0-39.439 31.985-71.42 71.42-71.42" fill="#fff" id="path1203" />
</svg>
