<?xml version="1.0" encoding="UTF-8" standalone="no"?>
<svg xmlns="http://www.w3.org/2000/svg" xmlns:xlink="http://www.w3.org/1999/xlink" xmlns:sodipodi="http://sodipodi.sourceforge.net/DTD/sodipodi-0.dtd" xmlns:inkscape="http://www.inkscape.org/namespaces/inkscape" version="1.1" width="22" height="22">
 <defs id="defs10996">
  <linearGradient id="linearGradient3788-9-1">
   <stop id="stop3790-5" stop-opacity="0.51"/>
   <stop offset="1" id="stop3792-0" stop-opacity="0.392"/>
  </linearGradient>
  <linearGradient y2="13.1" x2="0" y1="11.03" gradientTransform="matrix(0.48888887,0,0,0.48387095,0.5111116,1.1612907)" gradientUnits="userSpaceOnUse" id="linearGradient3215" xlink:href="#linearGradient3788-9-1" inkscape:collect="always"/>
  <linearGradient y2="52" x2="0" y1="27" gradientTransform="matrix(0.5128205,0,0,0.52,-1.5897432,-7.0399993)" gradientUnits="userSpaceOnUse" id="linearGradient3212" xlink:href="#linearGradient3782" inkscape:collect="always"/>
  <linearGradient y2="39" x2="0" y1="16" gradientTransform="matrix(0.48648651,0,0,0.47826084,0.5675679,0.347826)" gradientUnits="userSpaceOnUse" id="linearGradient3209" xlink:href="#linearGradient3927-2" inkscape:collect="always"/>
  <linearGradient y2="9" x2="0" y1="11" gradientTransform="matrix(0.44999999,0,0,0.5,1.2000007,0.50000037)" gradientUnits="userSpaceOnUse" id="linearGradient3206" xlink:href="#linearGradient3829" inkscape:collect="always"/>
  <linearGradient id="linearGradient3927-2">
   <stop id="stop3929-8" stop-color="#f1f2f3"/>
   <stop id="stop3931-8" offset="1" stop-color="#e4e5e7"/>
  </linearGradient>
  <linearGradient id="linearGradient3782">
   <stop id="stop3784" stop-color="#ffffff"/>
   <stop offset="1" id="stop3786" stop-color="#e4e5e7"/>
  </linearGradient>
  <linearGradient id="linearGradient3829" inkscape:collect="always">
   <stop id="stop3831"/>
   <stop id="stop3833" offset="1" stop-opacity="0"/>
  </linearGradient>
 </defs>
 <metadata id="metadata10999"/>
 <g id="g3067" transform="translate(-1,-1)">
  <rect rx="2" y="5.7" x="1" height="16" width="22" id="rect3915-0-6" opacity="0.13" stroke="#000000" stroke-width="0"/>
  <path id="rect3967-9" d="M 6,2 C 4.892,2 4,2.892 4,4 2.892,4 3,4.892 3,6 l 0,5 c 0,1.108 0.892,2 2,2 l 14,0 c 1.108,0 2,-0.892 2,-2 L 21,6 C 21,4.892 20.108,4 19,4 L 11,4 C 11,2.892 10.108,2 9,2 Z" inkscape:connector-curvature="0" sodipodi:nodetypes="scssssssscss" stroke="#000000" fill-opacity="0.659" stroke-width="0"/>
  <rect y="5" x="4" height="7" width="16" id="rect3969-1" fill="#8b8b8d" stroke="#000000" stroke-width="0" rx="1"/>
  <path sodipodi:nodetypes="ccscssc" inkscape:connector-curvature="0" id="rect3011-5-3" d="m 10,5 0,1 9,0 c 0.554,0 1,0.446 1,1 L 20,6 C 20,5.446 19.554,5 19,5 Z" opacity="0.15" fill="#ffffff" stroke="#767779" stroke-width="0"/>
  <rect rx="1" y="3" x="5" height="3" width="5" id="rect3101-7" fill="#8b8b8d" stroke="#767779" stroke-width="0"/>
  <path sodipodi:nodetypes="ccscc" inkscape:connector-curvature="0" id="rect3011-5-0-2" d="M 5,6 C 4.446,6 4,6.446 4,7 L 4,6 C 4,5.446 4.446,5 5,5 Z" opacity="0.15" fill="#ffffff" stroke="#767779" stroke-width="0"/>
  <rect rx="2" y="6" x="1" height="15" width="22" id="rect3915-5" fill="url(#linearGradient3215)" stroke="#000000" stroke-width="0"/>
  <rect y="7" x="2" height="13" width="20" id="rect3957-8" rx="1" fill="url(#linearGradient3212)" stroke="#000000" stroke-width="0"/>
  <rect rx="0" y="8" x="3" height="11" width="18" id="rect3925-0" fill="url(#linearGradient3209)" stroke="#000000" stroke-width="0"/>
  <rect id="rect3827-0" width="18" height="1" x="3" y="5" opacity="0.173" fill="url(#linearGradient3206)" stroke="#102b68" stroke-width="0" rx="0"/>
  <path sodipodi:nodetypes="sscsscsss" inkscape:connector-curvature="0" id="rect3011-2" d="M 6,3 C 5.446,3 5,3.446 5,4 L 5,5 C 5,4.446 5.446,4 6,4 l 3,0 c 0.554,0 1,0.446 1,1 L 10,4 C 10,3.446 9.554,3 9,3 Z" opacity="0.15" fill="#ffffff" stroke="#767779" stroke-width="0"/>
 </g>
</svg>
