<?xml version="1.0" encoding="UTF-8" standalone="no"?>
<svg xmlns="http://www.w3.org/2000/svg" xmlns:inkscape="http://www.inkscape.org/namespaces/inkscape" version="1.1" width="16" height="16">
 <metadata id="metadata90"/>
 <path d="M 8,0 C 3.5817219,0 0,3.5817221 0,8 c 0,4.418278 3.5817219,8 8,8 4.418278,0 8,-3.581722 8,-8 C 16,3.5817221 12.418278,0 8,0 z m 0,2 c 3.313708,0 6,2.6862915 6,6 0,3.313708 -2.686292,6 -6,6 C 4.6862915,14 2,11.313708 2,8 2,4.6862915 4.6862915,2 8,2 z" inkscape:connector-curvature="0" id="path2991" fill="#bebebe" color="#bebebe"/>
 <path d="M 7,4 7,8 4,8 8,12 12,8 9,8 9,4 z" inkscape:connector-curvature="0" id="rect3005" fill="#bebebe" color="#bebebe"/>
</svg>
