<?xml version='1.0' encoding='UTF-8' standalone='no'?>
<svg height="16" xmlns:inkscape="http://www.inkscape.org/namespaces/inkscape" xmlns:sodipodi="http://sodipodi.sourceforge.net/DTD/sodipodi-0.dtd" version="1.1" width="16" xmlns="http://www.w3.org/2000/svg">
 <metadata id="metadata90"/>
 <g inkscape:groupmode="layer" id="layer12" inkscape:label="actions" transform="translate(-41.0002,-807)">
  <path inkscape:connector-curvature="0" d="m 43.0002,807 0,9 12,0 0,-9 z m 2,2 8,0 0,5 -8,0 z" id="path9159" sodipodi:nodetypes="cccccccccc" color="#000000" stroke-width="2" fill="#bebebe"/>
  <path inkscape:connector-curvature="0" d="m 46.0004,812 c 2.32075,1 3.04463,-1.65963 6,0 l 0,1 -6,0 z" id="path9161" sodipodi:nodetypes="ccccc" opacity="0.35" fill="#bebebe" color="#000000" stroke-width="2"/>
  <path inkscape:connector-curvature="0" d="m 52.003606,818.03877 -1.00114,0 c -0.2572,0 -0.52906,0.12998 -0.71957,0.31286 l -1.28269,1.28271 -1.2827,-1.28272 c -0.19026,-0.18312 -0.46238,-0.31285 -0.71959,-0.31281 l -1.00114,0 -10e-6,1.00114 c 0,0.3098 0.0903,0.55295 0.28162,0.75083 l 2.72184,2.65927 2.72182,-2.65927 c 0.19115,-0.19793 0.28158,-0.44106 0.28158,-0.75085 l 0,-1.00114 z" id="path9197" sodipodi:nodetypes="ccccccccccccc" color="#bebebe" stroke-width="2" fill="#bebebe"/>
 </g>
</svg>
