<?xml version="1.0" encoding="UTF-8" standalone="no"?>
<svg xmlns="http://www.w3.org/2000/svg" xmlns:sodipodi="http://sodipodi.sourceforge.net/DTD/sodipodi-0.dtd" xmlns:inkscape="http://www.inkscape.org/namespaces/inkscape" enable-background="new 0 0 32 32" height="16" version="1.1" viewBox="0 0 16 16" width="16">
 <metadata id="metadata26"/>
 <path d="M 8 2 C 4.6862915 2 2 4.6862915 2 8 C 2 11.313709 4.6862915 14 8 14 C 11.313708 14 14 11.313709 14 8 C 14 4.6862915 11.313708 2 8 2 z M 5.96875 5 C 6.2143621 5 6.4680493 5.0930493 6.65625 5.28125 L 8 6.625 L 9.34375 5.28125 C 9.5319507 5.0930493 9.7856379 5 10.03125 5 C 10.276862 5 10.530549 5.0930493 10.71875 5.28125 C 11.095151 5.6576513 11.095151 6.2798487 10.71875 6.65625 L 9.375 8 L 10.71875 9.34375 C 11.095151 9.7201513 11.095151 10.342349 10.71875 10.71875 C 10.342349 11.095151 9.7201513 11.095151 9.34375 10.71875 L 8 9.375 L 6.65625 10.71875 C 6.2798487 11.095151 5.6576513 11.095151 5.28125 10.71875 C 4.9048487 10.342349 4.9048487 9.7201513 5.28125 9.34375 L 6.625 8 L 5.28125 6.65625 C 4.9048487 6.2798487 4.9048487 5.6576513 5.28125 5.28125 C 5.4694507 5.0930493 5.7231379 5 5.96875 5 z " id="path2985" fill="#bebebe"/>
</svg>
