<?xml version='1.0' encoding='UTF-8'?>
<svg width="15.982" version="1.1" height="16" xmlns:inkscape="http://www.inkscape.org/namespaces/inkscape" xmlns="http://www.w3.org/2000/svg" xmlns:sodipodi="http://sodipodi.sourceforge.net/DTD/sodipodi-0.dtd">
 <metadata id="metadata90"/>
 <g inkscape:label="actions" id="layer12" inkscape:groupmode="layer" transform="translate(-161.0002,-667)">
  <path sodipodi:nodetypes="ssssssssscccccccccccccccccccccccccccc" d="m 164.1877,669 c -0.6627,0 -1.1875,0.54899 -1.1875,1.21875 l 0,9.5625 c 0,0.66976 0.5248,1.21875 1.1875,1.21875 l 9.625,0 c 0.6627,0 1.1875,-0.54899 1.1875,-1.21875 l 0,-9.5625 c 0,-0.66976 -0.5248,-1.21875 -1.1875,-1.21875 z m 0.8125,2 3,0 0,2 -1,0 0,1 -2,0 z m 5,0 3,0 0,3 -2,0 0,-1 -1,0 z m -5,5 2,0 0,1 1,0 0,2 -3,0 z m 6,0 2,0 0,3 -3,0 0,-2 1,0 z" id="rect11749-5-0-1" inkscape:connector-curvature="0" fill="#bebebe" color="#bebebe" stroke-width="2"/>
 </g>
</svg>
