/* XPM */
static char * desktop_xpm[] = {
"24 24 88 1",
" 	c None",
".	c #BCBCBC",
"+	c #BFBFBF",
"@	c #B6B6B6",
"#	c #9A9A9A",
"$	c #747474",
"%	c #7A7A7A",
"&	c #3B3B3B",
"*	c #353535",
"=	c #424242",
"-	c #B7B7B7",
";	c #7C7C7C",
">	c #575757",
",	c #787878",
"'	c #5B5B5B",
")	c #8E8E8E",
"!	c #777777",
"~	c #737373",
"{	c #727272",
"]	c #828282",
"^	c #676767",
"/	c #5E5E5E",
"(	c #8A8A8A",
"_	c #4E4E4E",
":	c #9E9E9E",
"<	c #8C8C8C",
"[	c #1A1A1A",
"}	c #878787",
"|	c #212121",
"1	c #292929",
"2	c #272727",
"3	c #2B2B2B",
"4	c #525252",
"5	c #6F6F6F",
"6	c #646464",
"7	c #606060",
"8	c #626262",
"9	c #818181",
"0	c #474747",
"a	c #B4B4B4",
"b	c #888888",
"c	c #232323",
"d	c #959595",
"e	c #2F2F2F",
"f	c #5F5F5F",
"g	c #4C4C4C",
"h	c #373737",
"i	c #AFAFAF",
"j	c #333333",
"k	c #6B6B6B",
"l	c #2D2D2D",
"m	c #171717",
"n	c #AEAEAE",
"o	c #ADADAD",
"p	c #929292",
"q	c #252525",
"r	c #393939",
"s	c #4B4B4B",
"t	c #313131",
"u	c #A9A9A9",
"v	c #969696",
"w	c #3D3D3D",
"x	c #3F3F3F",
"y	c #484848",
"z	c #4F4F4F",
"A	c #979797",
"B	c #999999",
"C	c #434343",
"D	c #545454",
"E	c #535353",
"F	c #A7A7A7",
"G	c #A2A2A2",
"H	c #9F9F9F",
"I	c #565656",
"J	c #A0A0A0",
"K	c #9C9C9C",
"L	c #5A5A5A",
"M	c #4A4A4A",
"N	c #5C5C5C",
"O	c #636363",
"P	c #666666",
"Q	c #6C6C6C",
"R	c #7E7E7E",
"S	c #7F7F7F",
"T	c #848484",
"U	c #898989",
"V	c #7B7B7B",
"W	c #000000",
"                        ",
"                        ",
"   .++++++++++++++++.   ",
"  @#$$$$$$$$$$$$$$$$#@  ",
"  .%&*==***********&%.  ",
"  -;*>,,'''')!!!!~{*!-  ",
"  -]*'^^////(;;;;;{_:<[ ",
"  @}|1223333456678,9$0  ",
"  abc1dd1333e!f'5]]gh]  ",
"  i)|1}}1jjjjk'5<'lm]n  ",
"  op|1qqerrr&s/5ht0|pn  ",
"  uv|1bb*wxwxyltyzs|Au  ",
"  uBc3kk&Ch4ee'DEz0|BF  ",
"  GHcj*rrIheyg'EzsCcHF  ",
"  HGchw=xesDDEDDs0xcGJ  ",
"  Kuch&*yEL//LDE0CrcuK  ",
"  #oc&CMz>N6Of>zMC&co#  ",
"  AihPQ5~!RSSS!~55PhiA  ",
"  varf!SR~TUS!S]VP6hav  ",
"  paCrrrwxxxxxxwrrrCap  ",
"  SJa@@@@@@@@@@@@@@aHS  ",
"  hS##K:HHGGGGHHKKKBSh  ",
"    WWWWWWWWWWWWWWWW    ",
"                        "};
