<?xml version="1.0" encoding="UTF-8" standalone="no"?>
<svg xmlns="http://www.w3.org/2000/svg" xmlns:xlink="http://www.w3.org/1999/xlink" xmlns:sodipodi="http://sodipodi.sourceforge.net/DTD/sodipodi-0.dtd" xmlns:inkscape="http://www.inkscape.org/namespaces/inkscape" version="1.1" width="96" height="96" viewBox="0 0 96 96">
 <metadata id="metadata8"/>
 <defs id="defs6">
  <linearGradient inkscape:collect="always" id="linearGradient4363">
   <stop id="stop4365"/>
   <stop offset="1" id="stop4367" stop-opacity="0"/>
  </linearGradient>
  <linearGradient id="linearGradient3782">
   <stop id="stop3784" stop-color="#ffffff"/>
   <stop offset="1" id="stop3786" stop-color="#e4e5e7"/>
  </linearGradient>
  <linearGradient id="linearGradient3927">
   <stop id="stop3929" stop-color="#f1f2f3"/>
   <stop id="stop3931" offset="1" stop-color="#e4e5e7"/>
  </linearGradient>
  <linearGradient inkscape:collect="always" xlink:href="#linearGradient4297" id="linearGradient3794" y1="10.775" x2="0" y2="13.1" gradientUnits="userSpaceOnUse" gradientTransform="matrix(2.0444442,0,0,1.9354836,-100.80915,-38.717933)"/>
  <linearGradient id="linearGradient4297" inkscape:collect="always">
   <stop id="stop4299" stop-opacity="0.51"/>
   <stop id="stop4301" offset="1" stop-opacity="0.471"/>
  </linearGradient>
  <linearGradient inkscape:collect="always" xlink:href="#linearGradient3782" id="linearGradient3965" y1="27" x2="0" y2="52" gradientUnits="userSpaceOnUse" gradientTransform="matrix(2.3076918,0,0,2.3199995,-113.91854,-81.00308)"/>
  <linearGradient inkscape:collect="always" xlink:href="#linearGradient3927" id="linearGradient3933" y1="16" x2="0" y2="39" gradientUnits="userSpaceOnUse" gradientTransform="matrix(2.3783781,0,0,2.434782,-108.65659,-56.319611)"/>
  <linearGradient inkscape:collect="always" xlink:href="#linearGradient4363" id="linearGradient3835" y1="11" x2="0" y2="9" gradientUnits="userSpaceOnUse" gradientTransform="matrix(2.0499995,0,0,1.4999982,-101.96469,-35.863089)"/>
  <linearGradient gradientTransform="translate(-98.764694,-20.363099)" inkscape:collect="always" xlink:href="#linearGradient3930-4" id="linearGradient3936" x1="5" x2="9" gradientUnits="userSpaceOnUse"/>
  <linearGradient inkscape:collect="always" id="linearGradient3930-4">
   <stop id="stop3932-3" stop-color="#ffffff"/>
   <stop offset="1" id="stop3934-8" stop-color="#ffffff" stop-opacity="0"/>
  </linearGradient>
  <linearGradient gradientTransform="matrix(-1,0,0,1,-6.7646976,-20.363097)" x2="53" x1="49" gradientUnits="userSpaceOnUse" id="linearGradient3953" xlink:href="#linearGradient3930-4" inkscape:collect="always"/>
  <radialGradient inkscape:collect="always" xlink:href="#linearGradient4303" id="radialGradient4309-7" cx="31" cy="52.6" r="31" gradientTransform="matrix(3.467742,0,0,0.09677397,-59.500002,78.709694)" gradientUnits="userSpaceOnUse"/>
  <linearGradient inkscape:collect="always" id="linearGradient4303">
   <stop id="stop4305" stop-opacity="0.19"/>
   <stop id="stop4311" offset="0.7" stop-opacity="0.059"/>
   <stop offset="1" id="stop4307" stop-opacity="0"/>
  </linearGradient>
 </defs>
 <g inkscape:groupmode="layer" id="layer2" inkscape:label="folder">
  <ellipse id="path4293-4" ry="3" rx="46" cy="83.8" cx="48" fill="url(#radialGradient4309-7)" stroke-width="1.2"/>
  <g id="g4266">
   <g transform="translate(100.7647,43.363102)" id="g4305">
    <path sodipodi:nodetypes="sscsssssssscsss" transform="translate(1.6621398e-6,-3.6441816e-7)" inkscape:connector-curvature="0" d="m -86.764702,-32.363102 c -1.108,0 -2,0.892 -2,2 l 0,4 -3.999982,3e-6 c -1.108,10e-7 -2,0.892 -2,2 l 0,10 c 0,1.108 0.892,2 2,2 l 79.999985,-2e-6 c 1.108,0 2,-0.892 2,-2 l 0,-10 c 0,-1.108 -0.892,-2 -2,-2 l -46,0 0,-4 c 0,-1.108 -0.892,-2 -2,-2 z" id="rect3967" stroke="#000000" fill-opacity="0.659" stroke-width="0"/>
    <path inkscape:connector-curvature="0" d="m 14,12 c -0.52044,0 -1.000001,0.45973 -1,1 l 0,5 -5,0 c -0.5539999,0 -1,0.446 -1,1 l 0,10 c 0,0.554 0.4460001,1 1,1 l 80,0 c 0.554,0 1,-0.446 1,-1 l 0,-10 c 0,-0.554 -0.446,-1 -1,-1 l -47,0 0,-5 c -2e-6,-0.549165 -0.48731,-1 -1,-1 l -26,0 z" transform="translate(-100.7647,-43.363102)" id="rect3969" fill="#8b8b8d" stroke="#000000" stroke-width="0"/>
    <rect rx="2" y="-19.363" x="-98.76" height="60" width="92" id="rect3915" fill="url(#linearGradient3794)" stroke="#000000" stroke-width="0"/>
    <rect y="-18.363" x="-97.76" height="58" width="90" id="rect3957" rx="1" fill="url(#linearGradient3965)" stroke="#000000" stroke-width="0"/>
    <rect rx="0" y="-17.363" x="-96.76" height="56" width="88" id="rect3925" fill="url(#linearGradient3933)" stroke="#000000" stroke-width="0"/>
    <rect id="rect3827" width="82" height="3" x="-93.76" y="-22.363" opacity="0.173" fill="url(#linearGradient3835)" stroke="#102b68" stroke-width="0" rx="0"/>
    <path sodipodi:nodetypes="sscsscsss" d="m -86.7647,-31.363102 c -0.554,0 -1,0.446 -1,1 l 0,1 c 0,-0.554 0.446,-1 1,-1 l 26.000002,0 c 0.554,0 1,0.446 1,1 l 0,-1 c 0,-0.554 -0.446,-1 -1,-1 z" id="rect3891" inkscape:connector-curvature="0" opacity="0.15" fill="#ffffff" stroke="#767779" stroke-width="0"/>
    <path d="m -92.764684,-25.363099 c -0.554,0 -1,0.446 -1,1 l 0,1 c 0,-0.554 0.446,-1 1,-1 l 3,0 0,-1 z" id="rect3891-8" inkscape:connector-curvature="0" sodipodi:nodetypes="sscsccs" opacity="0.15" fill="url(#linearGradient3936)" stroke="#767779" stroke-width="0"/>
    <path d="m -12.764698,-25.363097 c 0.554,0 1,0.446 1,1 l 0,1 c 0,-0.554 -0.446,-1 -1,-1 l -47,-5e-6 0,-1 z" id="rect3891-8-7" inkscape:connector-curvature="0" sodipodi:nodetypes="sscsccs" opacity="0.15" fill="url(#linearGradient3953)" stroke="#767779" stroke-width="0"/>
   </g>
  </g>
 </g>
 <g inkscape:groupmode="layer" id="layer1" inkscape:label="icon">
  <path inkscape:connector-curvature="0" d="m 48,60.623876 c -1.89497,0 -3.770018,1.000644 -4.542337,1.859885 L 48,67.461001 52.586422,62.528187 C 51.814105,61.62452 49.89497,60.623876 48,60.623876 Z m 0,-8.642299 c -3.962156,0 -7.513384,1.591221 -10.431167,4.021167 l 2.839991,3.054446 c 1.943397,-1.402582 4.967618,-2.754464 7.476515,-2.754464 2.56959,0 5.737811,1.382412 7.708782,2.847786 l 2.925986,-3.192581 C 55.602328,53.527986 51.962156,51.981577 48,51.981577 Z m 0,-8.642297 c -6.118173,0 -11.724917,2.368725 -16.081148,6.314878 l 2.778644,3.153063 C 38.582092,49.37526 42.66873,47.660428 48,47.660428 c 5.331273,0 9.293575,1.615025 13.364205,5.216245 l 2.716943,-3.222515 C 59.724917,45.708005 54.118171,43.33928 48,43.33928 Z" id="path4112-19-69-3-1-46-59-8" fill="#ffffff" color="#000000" stroke-width="1.7"/>
  <path inkscape:connector-curvature="0" d="m 48,59.223736 c -1.89497,0 -3.770018,1.000644 -4.542337,1.859885 L 48,66.060861 52.586422,61.128047 C 51.814105,60.22438 49.89497,59.223736 48,59.223736 Z m 0,-8.642299 c -3.962156,0 -7.513384,1.591221 -10.431167,4.021167 l 2.839991,3.054446 c 1.943397,-1.402582 4.967618,-2.754464 7.476515,-2.754464 2.56959,0 5.737811,1.382412 7.708782,2.847786 l 2.925986,-3.192581 C 55.602328,52.127846 51.962156,50.581437 48,50.581437 Z m 0,-8.642297 c -6.118173,0 -11.724917,2.368725 -16.081148,6.314878 l 2.778644,3.153063 C 38.582092,47.97512 42.66873,46.260288 48,46.260288 c 5.331273,0 9.293575,1.615025 13.364205,5.216245 l 2.716943,-3.222515 C 59.724917,44.307865 54.118171,41.93914 48,41.93914 Z" id="path4112-19-69-3-1-46-59" fill="#767779" color="#000000" stroke-width="1.7"/>
 </g>
</svg>
