<?xml version="1.0" encoding="UTF-8" standalone="no"?>
<svg xmlns="http://www.w3.org/2000/svg" xmlns:xlink="http://www.w3.org/1999/xlink" xmlns:sodipodi="http://sodipodi.sourceforge.net/DTD/sodipodi-0.dtd" xmlns:inkscape="http://www.inkscape.org/namespaces/inkscape" width="24" height="24" version="1.0">
 <defs id="defs4">
  <linearGradient inkscape:collect="always" xlink:href="#StandardGradient" id="linearGradient2549" gradientUnits="userSpaceOnUse" gradientTransform="matrix(0.9247229,0,0,1.0872097,16.939944,2.9976422)" y1="0.922" x2="0" y2="17.478"/>
  <linearGradient id="StandardGradient" gradientTransform="scale(0.9219544,1.0846523)" y1="0.922" x2="0" y2="19.387" gradientUnits="userSpaceOnUse">
   <stop id="stop3283" stop-opacity="0.275"/>
   <stop offset="1" id="stop2651" stop-opacity="0.55"/>
  </linearGradient>
  <linearGradient inkscape:collect="always" xlink:href="#StandardGradient" id="linearGradient2406" gradientUnits="userSpaceOnUse" gradientTransform="matrix(0.9219544,0,0,1.0846523,0,-1)" y1="2.766" x2="0" y2="19.387"/>
  <linearGradient inkscape:collect="always" xlink:href="#StandardGradient" id="linearGradient4636" gradientUnits="userSpaceOnUse" gradientTransform="matrix(0.9219544,0,0,1.0846523,-0.01723507,0.96875)" y1="2.766" x2="0" y2="15.702"/>
  <linearGradient inkscape:collect="always" xlink:href="#StandardGradient" id="linearGradient2405" gradientUnits="userSpaceOnUse" gradientTransform="matrix(0.9219544,0,0,1.0846523,-0.01723507,-0.03125)" y1="2.766" x2="0" y2="15.702"/>
  <linearGradient inkscape:collect="always" xlink:href="#StandardGradient" id="linearGradient2407" gradientUnits="userSpaceOnUse" gradientTransform="matrix(0.9219544,0,0,1.0846523,-0.01723507,-1.03125)" y1="2.766" x2="0" y2="15.702"/>
  <linearGradient inkscape:collect="always" xlink:href="#StandardGradient" id="linearGradient2542" gradientUnits="userSpaceOnUse" gradientTransform="matrix(0.9247229,0,0,1.0872097,-2.060056,5.9976422)" y1="0.922" x2="0" y2="17.478"/>
  <linearGradient inkscape:collect="always" xlink:href="#StandardGradient" id="linearGradient3644" gradientUnits="userSpaceOnUse" gradientTransform="matrix(0.9219544,0,0,1.0846523,-30.017235,-0.03125)" y1="2.766" x2="0" y2="15.702"/>
  <clipPath id="clipPath3651">
   <path d="m -30,0 0,22 22,0 0,-22 -22,0 z m 4,2 3.96875,0 c 0.554,0 1,0.446 1,1 l 0,1 8.5,0 c 0.669688,0 1.243585,0.3963931 1.4375,1 C -11.04026,5.1544781 -11,5.326875 -11,5.5 l 0,0.5 -5,0 -1,0 -4.21875,0 L -27,6 l 0,-1 0,-2 c 0,-0.554 0.446,-1 1,-1 z m -0.5,5 5,0 8,0 2,0 c 0.831,0 1.5,0.669 1.5,1.5 l 0,8 c 0,0.831 -0.669,1.5 -1.5,1.5 l -0.5,0 0,0.25 0,1.25 c 0,0.831 -0.669,1.5 -1.5,1.5 l -8,0 c -0.831,0 -1.5,-0.669 -1.5,-1.5 l 0,-1.5 -3.5,0 c -0.831,0 -1.5,-0.669 -1.5,-1.5 l 0,-8 C -28,7.669 -27.331,7 -26.5,7 Z m 6,2 C -20.777,9 -21,9.223 -21,9.5 l 0,9 c 0,0.277 0.223,0.5 0.5,0.5 l 6,0 c 0.277,0 0.5,-0.223 0.5,-0.5 l 0,-9 C -14,9.223 -14.223,9 -14.5,9 l -2.90625,0 -2.09375,0 -1,0 z" id="path3653"/>
  </clipPath>
  <radialGradient inkscape:collect="always" xlink:href="#StandardGradient" id="radialGradient3799" gradientUnits="userSpaceOnUse" gradientTransform="matrix(1.1111111,-7.219351e-8,7.2193516e-8,1.1111112,-1.6666678,-1.4619872)" cx="15" cy="14.816" r="9"/>
  <radialGradient inkscape:collect="always" xlink:href="#StandardGradient" id="radialGradient3790" gradientUnits="userSpaceOnUse" gradientTransform="matrix(1.2222222,-1.4352098e-8,1.4352098e-8,1.2222222,-23.133333,-2.9081851)" cx="13.2" cy="13.02" r="9"/>
  <linearGradient id="StandardGradient-9" gradientTransform="scale(1.0598527,0.9435274)" y1="3.213" x2="0" y2="20.14" gradientUnits="userSpaceOnUse">
   <stop id="stop3389" stop-opacity="0.863"/>
   <stop offset="1" id="stop3391" stop-opacity="0.471"/>
  </linearGradient>
  <linearGradient inkscape:collect="always" xlink:href="#StandardGradient-9" id="linearGradient3832" gradientUnits="userSpaceOnUse" gradientTransform="scale(1.0598527,0.9435274)" y1="3.213" x2="0" y2="20.14"/>
  <radialGradient inkscape:collect="always" xlink:href="#StandardGradient" id="radialGradient3846" cx="12.528" cy="15.04" r="8.969" gradientTransform="matrix(1.783972,5.4155153e-8,-3.7231666e-8,1.2264807,-40.34953,-3.4443056)" gradientUnits="userSpaceOnUse"/>
  <radialGradient inkscape:collect="always" xlink:href="#StandardGradient" id="radialGradient3824" cx="11.5" cy="15.55" r="7" gradientUnits="userSpaceOnUse" gradientTransform="matrix(2.2857143,-9.35065e-8,6.4285715e-8,1.5714285,-14.285715,-9.4357131)"/>
  <radialGradient inkscape:collect="always" xlink:href="#StandardGradient" id="radialGradient3839" gradientUnits="userSpaceOnUse" gradientTransform="matrix(2.2857143,-9.35065e-8,6.4285715e-8,1.5714285,-14.285715,-8.4357131)" cx="11.5" cy="15.55" r="7"/>
  <radialGradient inkscape:collect="always" xlink:href="#StandardGradient" id="radialGradient3091" gradientUnits="userSpaceOnUse" gradientTransform="matrix(2.2778694,0,0,1.2857142,8.863206,-6.1159154)" cx="10.181" cy="16.423" r="7"/>
  <radialGradient inkscape:collect="always" xlink:href="#StandardGradient" id="radialGradient3046" gradientUnits="userSpaceOnUse" gradientTransform="matrix(2.2778694,0,0,1.2857142,-11.136794,-6.1159154)" cx="10.181" cy="16.423" r="7"/>
  <radialGradient inkscape:collect="always" xlink:href="#StandardGradient" id="radialGradient3064" gradientUnits="userSpaceOnUse" gradientTransform="matrix(2.2778694,0,0,1.2857142,-11.136794,-5.1159154)" cx="10.181" cy="16.423" r="7"/>
  <radialGradient inkscape:collect="always" xlink:href="#StandardGradient" id="radialGradient3845" cx="10.128" cy="12.715" r="7.5" gradientTransform="matrix(2.1333333,0,0,1.1999999,-9.6054328,1.7415346)" gradientUnits="userSpaceOnUse"/>
  <radialGradient inkscape:collect="always" xlink:href="#StandardGradient" id="radialGradient3851" gradientUnits="userSpaceOnUse" gradientTransform="matrix(2.1333333,0,0,1.3333334,-13.6,-4.9484178)" cx="12" cy="14.961" r="7.5"/>
  <radialGradient inkscape:collect="always" xlink:href="#StandardGradient" id="radialGradient3867" gradientUnits="userSpaceOnUse" gradientTransform="matrix(2.1333333,0,0,1.3333334,-13.6,-3.9484178)" cx="12" cy="14.961" r="7.5"/>
  <radialGradient inkscape:collect="always" xlink:href="#StandardGradient" id="radialGradient3088" gradientUnits="userSpaceOnUse" gradientTransform="matrix(2.1333333,1.1011021e-7,-6.8818887e-8,1.3333334,-9.6054319,-0.9538539)" cx="10.128" cy="12.715" r="7.5"/>
  <radialGradient inkscape:collect="always" xlink:href="#StandardGradient" id="radialGradient3090" gradientUnits="userSpaceOnUse" gradientTransform="matrix(2.1333333,1.1011021e-7,-6.8818887e-8,1.3333334,-9.6054319,-1.9538539)" cx="10.128" cy="12.715" r="7.5"/>
  <radialGradient inkscape:collect="always" xlink:href="#StandardGradient" id="radialGradient3092" gradientUnits="userSpaceOnUse" gradientTransform="matrix(2.1333333,0,0,1.1999999,-8.6049328,0.7415346)" cx="10.128" cy="11.05" r="7.5"/>
  <radialGradient inkscape:collect="always" xlink:href="#StandardGradient" id="radialGradient3098" gradientUnits="userSpaceOnUse" gradientTransform="matrix(2.1333333,0,0,1.1999999,-9.6054328,1.7415346)" cx="10.128" cy="11.05" r="7.5"/>
  <radialGradient inkscape:collect="always" xlink:href="#StandardGradient" id="radialGradient3880" gradientUnits="userSpaceOnUse" gradientTransform="matrix(2.1333333,0,0,1.1999999,-9.6054328,2.7415346)" cx="10.128" cy="11.05" r="7.5"/>
 </defs>
 <metadata id="metadata7"/>
 <g inkscape:label="Calque 1" id="layer1" inkscape:groupmode="layer" transform="translate(0,2)">
  <path d="m 12.0005,-1 c -1.653175,0 -3,1.3468245 -3,3 0,1.2545548 0.8680207,2.1425683 1.96875,2.59375 l -7.125,7.09375 C 3.5241134,12.007624 3.438,12.478879 3.438,12.75 c 0,0.271121 0.086139,0.742389 0.40625,1.0625 l 2.125,2.125 c 0.5953313,0.595332 1.5609187,0.595332 2.15625,0 l 0.875,-0.875 0,4.4375 c 0,0.821812 0.6781878,1.5 1.5,1.5 l 3,0 c 0.821812,0 1.5,-0.678188 1.5,-1.5 l 0,-4.4375 0.875,0.875 c 0.59533,0.59533 1.56092,0.59533 2.15625,0 l 2.125,-2.125 c 0.557157,-0.557157 0.557157,-1.567843 0,-2.125 l -7.125,-7.09375 C 14.132479,4.1425683 15.0005,3.254555 15.0005,2 c 0,-1.6531758 -1.346825,-3 -3,-3 z m 0,1 c 1.104569,0 2,0.8954305 2,2 0,1.1045695 -0.895431,2 -2,2 -1.104569,0 -2,-0.8954305 -2,-2 0,-1.1045695 0.895431,-2 2,-2 z m 0,5 7.4375,7.40625 c 0.195869,0.195869 0.195869,0.491631 0,0.6875 l -2.125,2.125 c -0.195869,0.195869 -0.522881,0.195869 -0.71875,0 L 14.0005,12.625 l 0,6.875 c 0,0.277 -0.223,0.5 -0.5,0.5 l -3,0 c -0.277,0 -0.5,-0.223 -0.5,-0.5 l 0,-6.875 -2.59375,2.59375 c -0.1958686,0.195869 -0.5228814,0.195869 -0.71875,0 l -2.125,-2.125 C 4.465066,12.995816 4.438,12.87781 4.438,12.75 c 0,-0.12781 0.027066,-0.24582 0.125,-0.34375 L 12.0005,5 Z" id="path3900" inkscape:connector-curvature="0" opacity="0.05" fill="#ffffff" color="#000000" stroke-width="0.8"/>
  <path d="m 12.0005,0 c -1.104569,0 -2,0.8954305 -2,2 0,1.1045695 0.895431,2 2,2 1.104569,0 2,-0.8954305 2,-2 0,-1.1045695 -0.895431,-2 -2,-2 z m 0,5 -7.4375,7.40625 C 4.465066,12.50418 4.438,12.62219 4.438,12.75 c 0,0.12781 0.027066,0.245816 0.125,0.34375 l 2.125,2.125 c 0.1958686,0.195869 0.5228814,0.195869 0.71875,0 l 2.59375,-2.59375 0,6.875 c 0,0.277 0.223,0.5 0.5,0.5 l 3,0 c 0.277,0 0.5,-0.223 0.5,-0.5 l 0,-6.875 2.59375,2.59375 c 0.195869,0.195869 0.522881,0.195869 0.71875,0 l 2.125,-2.125 c 0.195869,-0.195869 0.195869,-0.491631 0,-0.6875 L 12.0005,5 Z" id="rect3051" inkscape:connector-curvature="0" fill="url(#radialGradient3092)" color="#000000" stroke-width="0.8"/>
  <path d="m 12.0005,0 c -1.104569,0 -2,0.8954305 -2,2 0,1.1045695 0.895431,2 2,2 1.104569,0 2,-0.8954305 2,-2 0,-1.1045695 -0.895431,-2 -2,-2 z m 0,0.5 c 0.829825,0 1.5,0.6701743 1.5,1.5 0,0.8298257 -0.670175,1.5 -1.5,1.5 -0.829826,0 -1.5,-0.6701741 -1.5,-1.5 0,-0.8298259 0.670174,-1.5 1.5,-1.5 z m 0,4.5 -7.4375,7.40625 C 4.465066,12.50418 4.438,12.62219 4.438,12.75 c 0,0.12781 0.027066,0.245816 0.125,0.34375 l 2.125,2.125 c 0.1958686,0.195869 0.5228814,0.195869 0.71875,0 l 2.59375,-2.59375 0,6.875 c 0,0.277 0.223,0.5 0.5,0.5 l 3,0 c 0.277,0 0.5,-0.223 0.5,-0.5 l 0,-6.875 2.59375,2.59375 c 0.195869,0.195869 0.522881,0.195869 0.71875,0 l 2.125,-2.125 c 0.195869,-0.195869 0.195869,-0.491631 0,-0.6875 L 12.0005,5 Z m 0,0.71875 L 19.03175,12.75 16.938,14.8125 14.3755,12.25 a 0.508421,0.508421 0 0 0 -0.875,0.375 l 0,6.875 -3,0 0,-6.875 A 0.508421,0.508421 0 0 0 9.6255,12.25 L 7.063,14.8125 4.96925,12.75 12.0005,5.71875 Z" id="path3094" inkscape:connector-curvature="0" opacity="0.3" color="#000000" stroke-width="0.8"/>
  <path d="m 12.0005,0 c -1.104569,0 -2,0.8954305 -2,2 0,0.172589 0.0214,0.3402409 0.0625,0.5 0.221963,-0.8626993 1.005519,-1.5 1.9375,-1.5 0.93198,0 1.715537,0.6373007 1.9375,1.5 0.0411,-0.1597591 0.0625,-0.327411 0.0625,-0.5 0,-1.1045695 -0.895431,-2 -2,-2 z m 0,5 -7.4375,7.40625 C 4.465066,12.50418 4.438,12.62219 4.438,12.75 c 0,0.12781 0.027066,0.245816 0.125,0.34375 L 4.71925,13.25 12.0005,6 19.28175,13.25 19.438,13.09375 c 0.195869,-0.195869 0.195869,-0.491631 0,-0.6875 L 12.0005,5 Z" id="path3875" inkscape:connector-curvature="0" opacity="0.3" color="#000000" stroke-width="0.8"/>
  <path d="m 10.063,2.5 c -0.0411,0.1597591 -0.0625,0.327411 -0.0625,0.5 0,1.1045695 0.895431,2 2,2 1.104569,0 2,-0.8954305 2,-2 0,-0.172589 -0.0214,-0.3402409 -0.0625,-0.5 C 13.716037,3.3626993 12.93248,4 12.0005,4 11.068519,4 10.284963,3.3626993 10.063,2.5 Z m -0.0625,10.125 -2.59375,2.59375 c -0.1958686,0.195869 -0.5228814,0.195869 -0.71875,0 L 4.71925,13.25 4.563,13.40625 C 4.465066,13.50418 4.438,13.62219 4.438,13.75 c 0,0.12781 0.027066,0.245816 0.125,0.34375 l 2.125,2.125 c 0.1958686,0.195869 0.5228814,0.195869 0.71875,0 l 2.59375,-2.59375 0,-1 z m 4,0 0,1 2.59375,2.59375 c 0.195869,0.195869 0.522881,0.195869 0.71875,0 l 2.125,-2.125 c 0.195869,-0.195869 0.195869,-0.491631 0,-0.6875 L 19.28175,13.25 17.313,15.21875 c -0.195869,0.195869 -0.522881,0.195869 -0.71875,0 L 14.0005,12.625 Z m -4,6.875 0,1 c 0,0.277 0.223,0.5 0.5,0.5 l 3,0 c 0.277,0 0.5,-0.223 0.5,-0.5 l 0,-1 c 0,0.277 -0.223,0.5 -0.5,0.5 l -3,0 c -0.277,0 -0.5,-0.223 -0.5,-0.5 z" id="path3885" inkscape:connector-curvature="0" opacity="0.2" fill="#ffffff" color="#000000" stroke-width="0.8"/>
 </g>
</svg>
