<?xml version="1.0" encoding="UTF-8" standalone="no"?>
<svg xmlns="http://www.w3.org/2000/svg" xmlns:sodipodi="http://sodipodi.sourceforge.net/DTD/sodipodi-0.dtd" xmlns:inkscape="http://www.inkscape.org/namespaces/inkscape" version="1.1" height="16" width="16">
 <metadata id="metadata90"/>
 <g transform="translate(-482,-176)" inkscape:groupmode="layer" id="layer13" inkscape:label="places">
  <path d="M 6 0 C 5.446 0 5 0.446 5 1 L 5 2 L 1 2 C 0.446 2 0 2.446 0 3 L 0 4 L 15 4 L 15 3 C 15 2.446 14.554 2 14 2 L 10 2 L 10 1 C 10 0.446 9.554 0 9 0 L 6 0 z M 6 1 L 9 1 L 9 2 L 6 2 L 6 1 z M 1 5 L 1 14 C 1 15.108 1.892 16 3 16 L 12 16 C 13.108 16 13.86257 15.09944 14 14 L 14 5 L 12 5 L 12 13 C 12 13.554 11.554 14 11 14 L 4 14 C 3.446 14 3 13.554 3 13 L 3 5 L 1 5 z M 4 5 L 4 11.5 C 4 11.777 4.223 12 4.5 12 C 4.777 12 5 11.777 5 11.5 L 5 5 L 4 5 z M 6 5 L 6 11.5 C 6 11.777 6.223 12 6.5 12 C 6.777 12 7 11.777 7 11.5 L 7 5 L 6 5 z M 8 5 L 8 11.5 C 8 11.777 8.223 12 8.5 12 C 8.777 12 9 11.777 9 11.5 L 9 5 L 8 5 z M 10 5 L 10 11.5 C 10 11.777 10.223 12 10.5 12 C 10.777 12 11 11.777 11 11.5 L 11 5 L 10 5 z " transform="translate(482,176)" id="rect2993" fill="#bebebe" color="#000000" stroke-width="1.5"/>
 </g>
</svg>
