<?xml version="1.0" encoding="UTF-8" standalone="no"?>
<svg xmlns="http://www.w3.org/2000/svg" viewBox="0 0 512 512">
 <text font-size="129.23" y="194.35" x="137.68" font-family="Gentium Book Basic" line-height="125%" word-spacing="0" letter-spacing="0"><tspan y="194.35" x="137.68"/>
 </text>
 <text transform="scale(4.0128.2492)" font-size="46.954" y="430.76" x="231.39" font-family="Arial" text-anchor="middle"/>
 <text font-size="129.23" y="114.35" x="718.95" font-family="Gentium Book Basic" line-height="125%" word-spacing="0" letter-spacing="0"><tspan y="114.35" x="718.95"/>
 </text>
 <text transform="scale(4.0128.2492)" font-size="46.954" y="109.72" x="376.24" font-family="Arial" text-anchor="middle"/>
 <text font-size="129.23" y="-66.906" x="-352.63" font-family="Gentium Book Basic" line-height="125%" word-spacing="0" letter-spacing="0"><tspan y="-66.906" x="-352.63"/>
 </text>
 <text transform="scale(4.0128.2492)" font-size="46.954" y="-617.63" x="109.2" font-family="Arial" text-anchor="middle"/>
 <text font-size="129.23" y="-283.38" x="745.42" font-family="Gentium Book Basic" line-height="125%" word-spacing="0" letter-spacing="0"><tspan y="-283.38" x="745.42"/>
 </text>
 <text transform="scale(4.0128.2492)" font-size="46.954" y="-1486.29" x="382.84" font-family="Arial" text-anchor="middle"/>
 <text font-size="129.23" y="-363.38" x="1326.69" font-family="Gentium Book Basic" line-height="125%" word-spacing="0" letter-spacing="0"><tspan y="-363.38" x="1326.69"/>
 </text>
 <text transform="scale(4.0128.2492)" font-size="46.954" y="-1807.32" x="527.69" font-family="Arial" text-anchor="middle"/>
 <text font-size="129.23" y="-835.78" x="937.57" font-family="Gentium Book Basic" line-height="125%" word-spacing="0" letter-spacing="0"><tspan y="-835.78" x="937.57"/>
 </text>
 <text transform="scale(4.0128.2492)" font-size="46.954" y="-3702.96" x="430.72" font-family="Arial" text-anchor="middle"/>
 <text font-size="129.23" y="-915.79" x="1518.83" font-family="Gentium Book Basic" line-height="125%" word-spacing="0" letter-spacing="0"><tspan y="-915.79" x="1518.83"/>
 </text>
 <text transform="scale(4.0128.2492)" font-size="46.954" y="-4024" x="575.57" font-family="Arial" text-anchor="middle"/>
 <g font-family="Gentium Book Basic" line-height="125%" word-spacing="0" letter-spacing="0">
  <text y="498.93" x="-313.97" font-size="208.33"><tspan y="498.93" x="-313.97"/>
  </text>
  <text y="-421" x="154.74" font-size="129.23"><tspan y="-421" x="154.74"/>
  </text>
 </g>
 <text transform="scale(4.0128.2492)" font-size="46.954" y="-2038.52" x="235.64" font-family="Arial" text-anchor="middle"/>
 <text font-size="129.23" y="-501" x="736.01" font-family="Gentium Book Basic" line-height="125%" word-spacing="0" letter-spacing="0"><tspan y="-501" x="736.01"/>
 </text>
 <text transform="scale(4.0128.2492)" font-size="46.954" y="-2359.56" x="380.49" font-family="Arial" text-anchor="middle"/>
 <text font-size="129.23" y="-682.25" x="-335.57" font-family="Gentium Book Basic" line-height="125%" word-spacing="0" letter-spacing="0"><tspan y="-682.25" x="-335.57"/>
 </text>
 <text transform="scale(4.0128.2492)" font-size="46.954" y="-3086.91" x="113.45" font-family="Arial" text-anchor="middle"/>
 <text font-size="129.23" y="-898.73" x="762.48" font-family="Gentium Book Basic" line-height="125%" word-spacing="0" letter-spacing="0"><tspan y="-898.73" x="762.48"/>
 </text>
 <text transform="scale(4.0128.2492)" font-size="46.954" y="-3955.56" x="387.09" font-family="Arial" text-anchor="middle"/>
 <text font-size="129.23" y="-978.73" x="1343.75" font-family="Gentium Book Basic" line-height="125%" word-spacing="0" letter-spacing="0"><tspan y="-978.73" x="1343.75"/>
 </text>
 <text transform="scale(4.0128.2492)" font-size="46.954" y="-4276.59" x="531.94" font-family="Arial" text-anchor="middle"/>
 <text font-size="129.23" y="-1451.13" x="954.63" font-family="Gentium Book Basic" line-height="125%" word-spacing="0" letter-spacing="0"><tspan y="-1451.13" x="954.63"/>
 </text>
 <text transform="scale(4.0128.2492)" font-size="46.954" y="-6172.22" x="434.97" font-family="Arial" text-anchor="middle"/>
 <text font-size="129.23" y="-1531.14" x="1535.89" font-family="Gentium Book Basic" line-height="125%" word-spacing="0" letter-spacing="0"><tspan y="-1531.14" x="1535.89"/>
 </text>
 <text transform="scale(4.0128.2492)" font-size="46.954" y="-6493.26" x="579.82" font-family="Arial" text-anchor="middle"/>
 <g font-family="Gentium Book Basic" line-height="125%" word-spacing="0" letter-spacing="0">
  <text y="-116.42" x="-296.91" font-size="208.33"><tspan y="-116.42" x="-296.91"/>
  </text>
  <text y="-624.8" x="-58.18" font-size="129.23"><tspan y="-624.8" x="-58.18"/>
  </text>
 </g>
 <text transform="scale(4.0128.2492)" font-size="46.954" y="-2856.36" x="182.58" font-family="Arial" text-anchor="middle"/>
 <text font-size="129.23" y="-704.8" x="523.09" font-family="Gentium Book Basic" line-height="125%" word-spacing="0" letter-spacing="0"><tspan y="-704.8" x="523.09"/>
 </text>
 <text transform="scale(4.0128.2492)" font-size="46.954" y="-3177.39" x="327.43" font-family="Arial" text-anchor="middle"/>
 <text font-size="129.23" y="-886.06" x="-548.49" font-family="Gentium Book Basic" line-height="125%" word-spacing="0" letter-spacing="0"><tspan y="-886.06" x="-548.49"/>
 </text>
 <text transform="scale(4.0128.2492)" font-size="46.954" y="-3904.74" x="60.39" font-family="Arial" text-anchor="middle"/>
 <text font-size="129.23" y="-1102.53" x="549.56" font-family="Gentium Book Basic" line-height="125%" word-spacing="0" letter-spacing="0"><tspan y="-1102.53" x="549.56"/>
 </text>
 <text transform="scale(4.0128.2492)" font-size="46.954" y="-4773.4" x="334.03" font-family="Arial" text-anchor="middle"/>
 <text font-size="129.23" y="-1182.53" x="1130.83" font-family="Gentium Book Basic" line-height="125%" word-spacing="0" letter-spacing="0"><tspan y="-1182.53" x="1130.83"/>
 </text>
 <text transform="scale(4.0128.2492)" font-size="46.954" y="-5094.42" x="478.88" font-family="Arial" text-anchor="middle"/>
 <text font-size="129.23" y="-1654.93" x="741.71" font-family="Gentium Book Basic" line-height="125%" word-spacing="0" letter-spacing="0"><tspan y="-1654.93" x="741.71"/>
 </text>
 <text transform="scale(4.0128.2492)" font-size="46.954" y="-6990.06" x="381.91" font-family="Arial" text-anchor="middle"/>
 <text font-size="129.23" y="-1734.94" x="1322.97" font-family="Gentium Book Basic" line-height="125%" word-spacing="0" letter-spacing="0"><tspan y="-1734.94" x="1322.97"/>
 </text>
 <text transform="scale(4.0128.2492)" font-size="46.954" y="-7311.09" x="526.76" font-family="Arial" text-anchor="middle"/>
 <g font-family="Gentium Book Basic" line-height="125%" word-spacing="0" letter-spacing="0">
  <text y="-320.22" x="-509.83" font-size="208.33"><tspan y="-320.22" x="-509.83"/>
  </text>
  <text y="231.36" x="729.64" font-size="129.23"><tspan y="231.36" x="729.64"/>
  </text>
 </g>
 <text transform="scale(4.0128.2492)" font-size="46.954" y="579.26" x="378.91" font-family="Arial" text-anchor="middle"/>
 <text font-size="129.23" y="151.36" x="1310.91" font-family="Gentium Book Basic" line-height="125%" word-spacing="0" letter-spacing="0"><tspan y="151.36" x="1310.91"/>
 </text>
 <text transform="scale(4.0128.2492)" font-size="46.954" y="258.22" x="523.76" font-family="Arial" text-anchor="middle"/>
 <text font-size="129.23" y="-29.9" x="239.33" font-family="Gentium Book Basic" line-height="125%" word-spacing="0" letter-spacing="0"><tspan y="-29.9" x="239.33"/>
 </text>
 <text transform="scale(4.0128.2492)" font-size="46.954" y="-469.13" x="256.72" font-family="Arial" text-anchor="middle"/>
 <text font-size="129.23" y="-246.37" x="1337.38" font-family="Gentium Book Basic" line-height="125%" word-spacing="0" letter-spacing="0"><tspan y="-246.37" x="1337.38"/>
 </text>
 <text transform="scale(4.0128.2492)" font-size="46.954" y="-1337.8" x="530.36" font-family="Arial" text-anchor="middle"/>
 <text font-size="129.23" y="-326.37" x="1918.65" font-family="Gentium Book Basic" line-height="125%" word-spacing="0" letter-spacing="0"><tspan y="-326.37" x="1918.65"/>
 </text>
 <text transform="scale(4.0128.2492)" font-size="46.954" y="-1658.83" x="675.21" font-family="Arial" text-anchor="middle"/>
 <text font-size="129.23" y="-798.77" x="1529.53" font-family="Gentium Book Basic" line-height="125%" word-spacing="0" letter-spacing="0"><tspan y="-798.77" x="1529.53"/>
 </text>
 <text transform="scale(4.0128.2492)" font-size="46.954" y="-3554.48" x="578.24" font-family="Arial" text-anchor="middle"/>
 <text font-size="129.23" y="-878.78" x="2110.79" font-family="Gentium Book Basic" line-height="125%" word-spacing="0" letter-spacing="0"><tspan y="-878.78" x="2110.79"/>
 </text>
 <text transform="scale(4.0128.2492)" font-size="46.954" y="-3875.52" x="723.09" font-family="Arial" text-anchor="middle"/>
 <g font-family="Gentium Book Basic" line-height="125%" word-spacing="0" letter-spacing="0">
  <text y="535.94" x="277.99" font-size="208.33"><tspan y="535.94" x="277.99"/>
  </text>
  <text y="154.81" x="886.63" font-size="129.23"><tspan y="154.81" x="886.63"/>
  </text>
 </g>
 <text transform="scale(4.0128.2492)" font-size="46.954" y="272.09" x="418.03" font-family="Arial" text-anchor="middle"/>
 <text font-size="129.23" y="74.81" x="1467.9" font-family="Gentium Book Basic" line-height="125%" word-spacing="0" letter-spacing="0"><tspan y="74.81" x="1467.9"/>
 </text>
 <text transform="scale(4.0128.2492)" font-size="46.954" y="-48.947" x="562.88" font-family="Arial" text-anchor="middle"/>
 <text font-size="129.23" y="-106.45" x="396.32" font-family="Gentium Book Basic" line-height="125%" word-spacing="0" letter-spacing="0"><tspan y="-106.45" x="396.32"/>
 </text>
 <text transform="scale(4.0128.2492)" font-size="46.954" y="-776.29" x="295.84" font-family="Arial" text-anchor="middle"/>
 <text font-size="129.23" y="-322.92" x="1494.37" font-family="Gentium Book Basic" line-height="125%" word-spacing="0" letter-spacing="0"><tspan y="-322.92" x="1494.37"/>
 </text>
 <text transform="scale(4.0128.2492)" font-size="46.954" y="-1644.95" x="569.48" font-family="Arial" text-anchor="middle"/>
 <text font-size="129.23" y="-402.92" x="2075.64" font-family="Gentium Book Basic" line-height="125%" word-spacing="0" letter-spacing="0"><tspan y="-402.92" x="2075.64"/>
 </text>
 <text transform="scale(4.0128.2492)" font-size="46.954" y="-1965.98" x="714.33" font-family="Arial" text-anchor="middle"/>
 <text font-size="129.23" y="-875.32" x="1686.52" font-family="Gentium Book Basic" line-height="125%" word-spacing="0" letter-spacing="0"><tspan y="-875.32" x="1686.52"/>
 </text>
 <text transform="scale(4.0128.2492)" font-size="46.954" y="-3861.61" x="617.36" font-family="Arial" text-anchor="middle"/>
 <text font-size="129.23" y="-955.33" x="2267.78" font-family="Gentium Book Basic" line-height="125%" word-spacing="0" letter-spacing="0"><tspan y="-955.33" x="2267.78"/>
 </text>
 <text transform="scale(4.0128.2492)" font-size="46.954" y="-4182.65" x="762.21" font-family="Arial" text-anchor="middle"/>
 <g line-height="125%" word-spacing="0" letter-spacing="0">
  <text y="459.39" x="434.98" font-family="Gentium Book Basic" font-size="208.33"><tspan y="459.39" x="434.98"/>
  </text>
  <text y="194.35" x="137.68" font-family="&apos;Gentium Book Basic&apos;" font-size="129.23"><tspan y="194.35" x="137.68"/>
  </text>
 </g>
 <text transform="scale(4.0128.2492)" font-size="46.954" y="430.76" x="231.39" font-family="Arial" text-anchor="middle"/>
 <text font-size="129.23" y="114.35" x="718.95" font-family="&apos;Gentium Book Basic&apos;" line-height="125%" word-spacing="0" letter-spacing="0"><tspan y="114.35" x="718.95"/>
 </text>
 <text transform="scale(4.0128.2492)" font-size="46.954" y="109.72" x="376.24" font-family="Arial" text-anchor="middle"/>
 <text font-size="129.23" y="-66.906" x="-352.63" font-family="&apos;Gentium Book Basic&apos;" line-height="125%" word-spacing="0" letter-spacing="0"><tspan y="-66.906" x="-352.63"/>
 </text>
 <text transform="scale(4.0128.2492)" font-size="46.954" y="-617.63" x="109.2" font-family="Arial" text-anchor="middle"/>
 <text font-size="129.23" y="-283.38" x="745.42" font-family="&apos;Gentium Book Basic&apos;" line-height="125%" word-spacing="0" letter-spacing="0"><tspan y="-283.38" x="745.42"/>
 </text>
 <text transform="scale(4.0128.2492)" font-size="46.954" y="-1486.28" x="382.84" font-family="Arial" text-anchor="middle"/>
 <text font-size="129.23" y="-363.38" x="1326.69" font-family="&apos;Gentium Book Basic&apos;" line-height="125%" word-spacing="0" letter-spacing="0"><tspan y="-363.38" x="1326.69"/>
 </text>
 <text transform="scale(4.0128.2492)" font-size="46.954" y="-1807.31" x="527.69" font-family="Arial" text-anchor="middle"/>
 <text font-size="129.23" y="-835.78" x="937.57" font-family="&apos;Gentium Book Basic&apos;" line-height="125%" word-spacing="0" letter-spacing="0"><tspan y="-835.78" x="937.57"/>
 </text>
 <text transform="scale(4.0128.2492)" font-size="46.954" y="-3702.94" x="430.72" font-family="Arial" text-anchor="middle"/>
 <text font-size="129.23" y="-915.79" x="1518.83" font-family="&apos;Gentium Book Basic&apos;" line-height="125%" word-spacing="0" letter-spacing="0"><tspan y="-915.79" x="1518.83"/>
 </text>
 <text transform="scale(4.0128.2492)" font-size="46.954" y="-4023.98" x="575.57" font-family="Arial" text-anchor="middle"/>
 <g font-family="&apos;Gentium Book Basic&apos;" line-height="125%" word-spacing="0" letter-spacing="0">
  <text y="498.93" x="-313.97" font-size="208.33"><tspan y="498.93" x="-313.97"/>
  </text>
  <text y="-421" x="154.74" font-size="129.23"><tspan y="-421" x="154.74"/>
  </text>
 </g>
 <text transform="scale(4.0128.2492)" font-size="46.954" y="-2038.52" x="235.64" font-family="Arial" text-anchor="middle"/>
 <text font-size="129.23" y="-501" x="736.01" font-family="&apos;Gentium Book Basic&apos;" line-height="125%" word-spacing="0" letter-spacing="0"><tspan y="-501" x="736.01"/>
 </text>
 <text transform="scale(4.0128.2492)" font-size="46.954" y="-2359.56" x="380.49" font-family="Arial" text-anchor="middle"/>
 <text font-size="129.23" y="-682.25" x="-335.57" font-family="&apos;Gentium Book Basic&apos;" line-height="125%" word-spacing="0" letter-spacing="0"><tspan y="-682.25" x="-335.57"/>
 </text>
 <text transform="scale(4.0128.2492)" font-size="46.954" y="-3086.91" x="113.45" font-family="Arial" text-anchor="middle"/>
 <text font-size="129.23" y="-898.73" x="762.48" font-family="&apos;Gentium Book Basic&apos;" line-height="125%" word-spacing="0" letter-spacing="0"><tspan y="-898.73" x="762.48"/>
 </text>
 <text transform="scale(4.0128.2492)" font-size="46.954" y="-3955.56" x="387.09" font-family="Arial" text-anchor="middle"/>
 <text font-size="129.23" y="-978.73" x="1343.75" font-family="&apos;Gentium Book Basic&apos;" line-height="125%" word-spacing="0" letter-spacing="0"><tspan y="-978.73" x="1343.75"/>
 </text>
 <text transform="scale(4.0128.2492)" font-size="46.954" y="-4276.59" x="531.94" font-family="Arial" text-anchor="middle"/>
 <text font-size="129.23" y="-1451.13" x="954.63" font-family="&apos;Gentium Book Basic&apos;" line-height="125%" word-spacing="0" letter-spacing="0"><tspan y="-1451.13" x="954.63"/>
 </text>
 <text transform="scale(4.0128.2492)" font-size="46.954" y="-6172.22" x="434.97" font-family="Arial" text-anchor="middle"/>
 <text font-size="129.23" y="-1531.14" x="1535.89" font-family="&apos;Gentium Book Basic&apos;" line-height="125%" word-spacing="0" letter-spacing="0"><tspan y="-1531.14" x="1535.89"/>
 </text>
 <text transform="scale(4.0128.2492)" font-size="46.954" y="-6493.26" x="579.82" font-family="Arial" text-anchor="middle"/>
 <g font-family="&apos;Gentium Book Basic&apos;" line-height="125%" word-spacing="0" letter-spacing="0">
  <text y="-116.42" x="-296.91" font-size="208.33"><tspan y="-116.42" x="-296.91"/>
  </text>
  <text y="-624.8" x="-58.18" font-size="129.23"><tspan y="-624.8" x="-58.18"/>
  </text>
 </g>
 <text transform="scale(4.0128.2492)" font-size="46.954" y="-2856.36" x="182.58" font-family="Arial" text-anchor="middle"/>
 <text font-size="129.23" y="-704.8" x="523.09" font-family="&apos;Gentium Book Basic&apos;" line-height="125%" word-spacing="0" letter-spacing="0"><tspan y="-704.8" x="523.09"/>
 </text>
 <text transform="scale(4.0128.2492)" font-size="46.954" y="-3177.39" x="327.43" font-family="Arial" text-anchor="middle"/>
 <text font-size="129.23" y="-886.06" x="-548.49" font-family="&apos;Gentium Book Basic&apos;" line-height="125%" word-spacing="0" letter-spacing="0"><tspan y="-886.06" x="-548.49"/>
 </text>
 <text transform="scale(4.0128.2492)" font-size="46.954" y="-3904.74" x="60.39" font-family="Arial" text-anchor="middle"/>
 <text font-size="129.23" y="-1102.53" x="549.56" font-family="&apos;Gentium Book Basic&apos;" line-height="125%" word-spacing="0" letter-spacing="0"><tspan y="-1102.53" x="549.56"/>
 </text>
 <text transform="scale(4.0128.2492)" font-size="46.954" y="-4773.4" x="334.03" font-family="Arial" text-anchor="middle"/>
 <text font-size="129.23" y="-1182.53" x="1130.83" font-family="&apos;Gentium Book Basic&apos;" line-height="125%" word-spacing="0" letter-spacing="0"><tspan y="-1182.53" x="1130.83"/>
 </text>
 <text transform="scale(4.0128.2492)" font-size="46.954" y="-5094.42" x="478.88" font-family="Arial" text-anchor="middle"/>
 <text font-size="129.23" y="-1654.93" x="741.71" font-family="&apos;Gentium Book Basic&apos;" line-height="125%" word-spacing="0" letter-spacing="0"><tspan y="-1654.93" x="741.71"/>
 </text>
 <text transform="scale(4.0128.2492)" font-size="46.954" y="-6990.06" x="381.91" font-family="Arial" text-anchor="middle"/>
 <text font-size="129.23" y="-1734.94" x="1322.97" font-family="&apos;Gentium Book Basic&apos;" line-height="125%" word-spacing="0" letter-spacing="0"><tspan y="-1734.94" x="1322.97"/>
 </text>
 <text transform="scale(4.0128.2492)" font-size="46.954" y="-7311.09" x="526.76" font-family="Arial" text-anchor="middle"/>
 <text font-size="208.33" y="-320.22" x="-509.83" font-family="&apos;Gentium Book Basic&apos;" line-height="125%" word-spacing="0" letter-spacing="0"><tspan y="-320.22" x="-509.83"/>
 </text>
 <g fill-rule="evenodd">
  <path d="m471.95 253.05c0 120.9-98.01 218.91-218.91 218.91s-218.91-98.01-218.91-218.91 98.01-218.91 218.91-218.91 218.91 98.01 218.91 218.91" fill="#ef6a47"/>
  <path d="m256 1c-140.83 0-255 114.17-255 255s114.17 255 255 255 255-114.17 255-255-114.17-255-255-255m8.827 44.931c120.9 0 218.9 98 218.9 218.9s-98 218.9-218.9 218.9-218.93-98-218.93-218.9 98.03-218.9 218.93-218.9" fill-opacity="0.067"/>
  <g fill-opacity="0.129">
   <path d="m256 4.43c-138.94 0-251.57 112.63-251.57 251.57s112.63 251.57 251.57 251.57 251.57-112.63 251.57-251.57-112.63-251.57-251.57-251.57m5.885 38.556c120.9 0 218.9 98 218.9 218.9s-98 218.9-218.9 218.9-218.93-98-218.93-218.9 98.03-218.9 218.93-218.9"/>
   <path d="m256 8.36c-136.77 0-247.64 110.87-247.64 247.64s110.87 247.64 247.64 247.64 247.64-110.87 247.64-247.64-110.87-247.64-247.64-247.64m2.942 31.691c120.9 0 218.9 98 218.9 218.9s-98 218.9-218.9 218.9-218.93-98-218.93-218.9 98.03-218.9 218.93-218.9"/>
  </g>
  <path d="m253.04 7.86c-135.42 0-245.19 109.78-245.19 245.19 0 135.42 109.78 245.19 245.19 245.19 135.42 0 245.19-109.78 245.19-245.19 0-135.42-109.78-245.19-245.19-245.19m0 26.297c120.9 0 218.9 98 218.9 218.9s-98 218.9-218.9 218.9-218.93-98-218.93-218.9 98.03-218.9 218.93-218.9z" stroke-opacity="0.31" stroke="#000" stroke-width="4.904" fill="#fff"/>
 </g>
 <text font-size="129.23" y="231.36" x="729.64" font-family="&apos;Gentium Book Basic&apos;" line-height="125%" word-spacing="0" letter-spacing="0"><tspan y="231.36" x="729.64"/>
 </text>
 <text transform="scale(4.0128.2492)" font-size="46.954" y="579.26" x="378.91" font-family="Arial" text-anchor="middle"/>
 <text font-size="129.23" y="151.36" x="1310.91" font-family="&apos;Gentium Book Basic&apos;" line-height="125%" word-spacing="0" letter-spacing="0"><tspan y="151.36" x="1310.91"/>
 </text>
 <text transform="scale(4.0128.2492)" font-size="46.954" y="258.22" x="523.76" font-family="Arial" text-anchor="middle"/>
 <text font-size="129.23" y="-29.9" x="239.33" font-family="&apos;Gentium Book Basic&apos;" line-height="125%" word-spacing="0" letter-spacing="0"><tspan y="-29.9" x="239.33"/>
 </text>
 <text transform="scale(4.0128.2492)" font-size="46.954" y="-469.13" x="256.72" font-family="Arial" text-anchor="middle"/>
 <text font-size="129.23" y="-246.37" x="1337.38" font-family="&apos;Gentium Book Basic&apos;" line-height="125%" word-spacing="0" letter-spacing="0"><tspan y="-246.37" x="1337.38"/>
 </text>
 <text transform="scale(4.0128.2492)" font-size="46.954" y="-1337.8" x="530.36" font-family="Arial" text-anchor="middle"/>
 <text font-size="129.23" y="-326.37" x="1918.65" font-family="&apos;Gentium Book Basic&apos;" line-height="125%" word-spacing="0" letter-spacing="0"><tspan y="-326.37" x="1918.65"/>
 </text>
 <text transform="scale(4.0128.2492)" font-size="46.954" y="-1658.83" x="675.21" font-family="Arial" text-anchor="middle"/>
 <text font-size="129.23" y="-798.77" x="1529.53" font-family="&apos;Gentium Book Basic&apos;" line-height="125%" word-spacing="0" letter-spacing="0"><tspan y="-798.77" x="1529.53"/>
 </text>
 <text transform="scale(4.0128.2492)" font-size="46.954" y="-3554.48" x="578.24" font-family="Arial" text-anchor="middle"/>
 <text font-size="129.23" y="-878.78" x="2110.79" font-family="&apos;Gentium Book Basic&apos;" line-height="125%" word-spacing="0" letter-spacing="0"><tspan y="-878.78" x="2110.79"/>
 </text>
 <text transform="scale(4.0128.2492)" font-size="46.954" y="-3875.52" x="723.09" font-family="Arial" text-anchor="middle"/>
 <g font-family="&apos;Gentium Book Basic&apos;" line-height="125%" word-spacing="0" letter-spacing="0">
  <text y="535.94" x="277.99" font-size="208.33"><tspan y="535.94" x="277.99"/>
  </text>
  <text y="154.81" x="886.63" font-size="129.23"><tspan y="154.81" x="886.63"/>
  </text>
 </g>
 <text transform="scale(4.0128.2492)" font-size="46.954" y="272.09" x="418.03" font-family="Arial" text-anchor="middle"/>
 <text font-size="129.23" y="74.81" x="1467.9" font-family="&apos;Gentium Book Basic&apos;" line-height="125%" word-spacing="0" letter-spacing="0"><tspan y="74.81" x="1467.9"/>
 </text>
 <text transform="scale(4.0128.2492)" font-size="46.954" y="-48.947" x="562.88" font-family="Arial" text-anchor="middle"/>
 <text font-size="129.23" y="-106.45" x="396.32" font-family="&apos;Gentium Book Basic&apos;" line-height="125%" word-spacing="0" letter-spacing="0"><tspan y="-106.45" x="396.32"/>
 </text>
 <text transform="scale(4.0128.2492)" font-size="46.954" y="-776.29" x="295.84" font-family="Arial" text-anchor="middle"/>
 <text font-size="129.23" y="-322.92" x="1494.37" font-family="&apos;Gentium Book Basic&apos;" line-height="125%" word-spacing="0" letter-spacing="0"><tspan y="-322.92" x="1494.37"/>
 </text>
 <text transform="scale(4.0128.2492)" font-size="46.954" y="-1644.95" x="569.48" font-family="Arial" text-anchor="middle"/>
 <text font-size="129.23" y="-402.92" x="2075.64" font-family="&apos;Gentium Book Basic&apos;" line-height="125%" word-spacing="0" letter-spacing="0"><tspan y="-402.92" x="2075.64"/>
 </text>
 <text transform="scale(4.0128.2492)" font-size="46.954" y="-1965.98" x="714.33" font-family="Arial" text-anchor="middle"/>
 <text font-size="129.23" y="-875.32" x="1686.52" font-family="&apos;Gentium Book Basic&apos;" line-height="125%" word-spacing="0" letter-spacing="0"><tspan y="-875.32" x="1686.52"/>
 </text>
 <text transform="scale(4.0128.2492)" font-size="46.954" y="-3861.61" x="617.36" font-family="Arial" text-anchor="middle"/>
 <text font-size="129.23" y="-955.33" x="2267.78" font-family="&apos;Gentium Book Basic&apos;" line-height="125%" word-spacing="0" letter-spacing="0"><tspan y="-955.33" x="2267.78"/>
 </text>
 <text transform="scale(4.0128.2492)" font-size="46.954" y="-4182.65" x="762.21" font-family="Arial" text-anchor="middle"/>
 <text font-size="208.33" y="459.39" x="434.98" font-family="&apos;Gentium Book Basic&apos;" line-height="125%" word-spacing="0" letter-spacing="0"><tspan y="459.39" x="434.98"/>
 </text>
 <g>
  <path opacity="0.25" d="m237.05 112.62c-1.835 0.007-3.833 0.356-5.977 1.113-4.02 1.424-4.146 1.541-55.18 51.693l-25.22 24.805v10.988l-7.986-7.986h-41.988c-6.214 0-11.205 4.991-11.205 11.205v103.12c0 3.107 1.247 5.907 3.271 7.932l156.42 156.42c1.28 0.022 2.56 0.049 3.846 0.049 120.9 0 218.91-98.01 218.91-218.91 0-7.574-0.386-15.06-1.137-22.436l-100.69-100.69c-1.362-1.362-2.746-2.702-4.15-4.02l-23.11 24.66 6.422 6.422c18.682 19.85 31.8 44.975 36.891 72.906l-57.98-57.98c-0.434-0.434-0.883-0.854-1.324-1.281l-1.504-1.504-13.03 14.07-67.53-67.53c-2.03-2.03-4.656-3.068-7.756-3.057"/>
  <path d="m237.05 112.62c-1.835 0.007-3.834 0.356-5.977 1.113-4.02 1.424-4.146 1.54-55.18 51.692l-25.22 24.806v131.34l21.974 21.587c51.664 50.782 54.1 53.1 57.4 54.718h0.024c5.891 2.86 11.817 1.595 15.464-3.315 3.722-5.02 3.509 3.685 3.703-137.87 0.159-115.89 0.054-131.41-0.847-134.51-1.829-6.292-5.843-9.58-11.35-9.559m128.92 13.286l-23.11 24.66c28.12 26.368 45.666 63.841 45.666 105.42 0 41.571-17.559 79.04-45.666 105.39l23.11 24.709c34.694-32.57 56.53-78.78 56.53-130.13 0-51.33-21.833-97.5-56.53-130.05m-40.609 43.22l-23.11 24.975c16.483 15.52 26.814 37.467 26.814 61.881 0 24.417-10.323 46.38-26.814 61.881l23.11 24.951c23.17-21.695 37.704-52.54 37.704-86.81 0-34.26-14.526-65.13-37.704-86.83v-0.048m-224.65 24.1c-6.214 0-11.205 4.991-11.205 11.205v103.12c0 6.214 4.991 11.205 11.205 11.205h41.988v-125.53h-41.988m182.96 18.683l-22.603 25.22c5.174 4.665 8.519 11.313 8.519 18.828s-3.345 14.211-8.519 18.876l22.579 25.22c12.09-10.876 19.917-26.51 19.917-44.07 0-17.536-7.818-33.19-19.893-44.07" fill="#fff"/>
 </g>
</svg>
