<?xml version="1.0" encoding="UTF-8" standalone="no"?>
<svg xmlns="http://www.w3.org/2000/svg" viewBox="0 0 512 512">
 <g fill-rule="evenodd">
  <path d="m471.95 253.05c0 120.9-98.01 218.91-218.91 218.91s-218.91-98.01-218.91-218.91 98.01-218.91 218.91-218.91 218.91 98.01 218.91 218.91" fill="#cd1c30"/>
  <path d="m256 1c-140.83 0-255 114.17-255 255s114.17 255 255 255 255-114.17 255-255-114.17-255-255-255m8.827 44.931c120.9 0 218.9 98 218.9 218.9s-98 218.9-218.9 218.9-218.93-98-218.93-218.9 98.03-218.9 218.93-218.9" fill-opacity="0.067"/>
  <g fill-opacity="0.129">
   <path d="m256 4.43c-138.94 0-251.57 112.63-251.57 251.57s112.63 251.57 251.57 251.57 251.57-112.63 251.57-251.57-112.63-251.57-251.57-251.57m5.885 38.556c120.9 0 218.9 98 218.9 218.9s-98 218.9-218.9 218.9-218.93-98-218.93-218.9 98.03-218.9 218.93-218.9"/>
   <path d="m256 8.36c-136.77 0-247.64 110.87-247.64 247.64s110.87 247.64 247.64 247.64 247.64-110.87 247.64-247.64-110.87-247.64-247.64-247.64m2.942 31.691c120.9 0 218.9 98 218.9 218.9s-98 218.9-218.9 218.9-218.93-98-218.93-218.9 98.03-218.9 218.93-218.9"/>
  </g>
  <path d="m253.04 7.86c-135.42 0-245.19 109.78-245.19 245.19 0 135.42 109.78 245.19 245.19 245.19 135.42 0 245.19-109.78 245.19-245.19 0-135.42-109.78-245.19-245.19-245.19m0 26.297c120.9 0 218.9 98 218.9 218.9s-98 218.9-218.9 218.9-218.93-98-218.93-218.9 98.03-218.9 218.93-218.9z" stroke-opacity="0.31" stroke="#000" stroke-width="4.904" fill="#fff"/>
 </g>
 <g>
  <path opacity="0.25" d="m237.06 112.63c-1.835 0.007-3.857 0.337-6 1.094-4.02 1.424-4.124 1.567-55.16 51.719l-25.22 24.781v11l-8-8h-41.969c-6.214 0-11.219 5-11.219 11.219v103.13c0 3.099 1.245 5.889 3.264 7.908l156.44 156.44c1.278 0.022 2.555 0.049 3.838 0.049 120.9 0 218.91-98.01 218.91-218.91 0-0.195-0.007-0.389-0.008-0.584l-77.09-77.09-40.02 40.02-40.02-40.02-5.184 5.121-64.818-64.818c-2.028-2.028-4.651-3.064-7.748-3.053"/>
  <path d="m237.06 112.63c-1.835 0.007-3.857 0.337-6 1.094-4.02 1.424-4.124 1.567-55.16 51.719l-25.22 24.781v131.34l21.969 21.594c51.664 50.782 54.1 53.1 57.41 54.719h0.031c5.891 2.86 11.79 1.598 15.438-3.313 3.722-5.02 3.525 3.681 3.719-137.87 0.159-115.89 0.057-131.4-0.844-134.5-1.829-6.292-5.837-9.583-11.344-9.563m77.75 62.75l-40.531 40.03 40.22 40.28-40.03 40.03 40.28 40.906 40.22-40.41 40.19 40.25 40.13-40.563-40.06-40.09 39.906-40.09-40.28-40.34-40.03 40.03-40-40.03m-214.09 17.844c-6.214 0-11.219 5-11.219 11.219v103.13c0 6.214 5 11.188 11.219 11.188h41.969v-125.53h-41.969" fill="#fff"/>
 </g>
</svg>
