<?xml version="1.0" encoding="UTF-8" standalone="no"?>
<svg xmlns="http://www.w3.org/2000/svg" xmlns:xlink="http://www.w3.org/1999/xlink" xmlns:sodipodi="http://sodipodi.sourceforge.net/DTD/sodipodi-0.dtd" xmlns:inkscape="http://www.inkscape.org/namespaces/inkscape" width="16" height="16" version="1.0">
 <defs id="defs4">
  <linearGradient id="StandardGradient" gradientTransform="scale(0.9219544,1.0846523)" y1="0.922" x2="0" y2="19.387" gradientUnits="userSpaceOnUse">
   <stop id="stop3283" stop-opacity="0.235"/>
   <stop offset="1" id="stop2651" stop-opacity="0.549"/>
  </linearGradient>
  <radialGradient r="10" cy="16.763" cx="14.02" gradientTransform="matrix(1.1,0,0,0.79164213,-6.4223406,-3.2704531)" gradientUnits="userSpaceOnUse" id="radialGradient3078" xlink:href="#StandardGradient" inkscape:collect="always"/>
  <radialGradient inkscape:collect="always" xlink:href="#StandardGradient" id="radialGradient3846" gradientUnits="userSpaceOnUse" gradientTransform="matrix(1.1,0,0,0.79164213,-6.4223406,-2.2704531)" cx="14.02" cy="16.763" r="10"/>
 </defs>
 <metadata id="metadata7"/>
 <g inkscape:label="Calque 1" id="layer1" inkscape:groupmode="layer">
  <path d="M 5.8125 0.03125 A 0.99807145 0.99807145 0 0 0 5 1.03125 L 5 2.03125 A 0.99807145 0.99807145 0 0 0 5.15625 2.53125 A 0.99807145 0.99807145 0 0 0 5 3.03125 L 5 5.03125 A 0.99807145 0.99807145 0 0 0 5.15625 5.53125 A 0.99807145 0.99807145 0 0 0 5 6.03125 L 5 7 L 3 7 A 0.99807145 0.99807145 0 0 0 2.21875 8.625 L 7.71875 15.625 A 0.99807145 0.99807145 0 0 0 9.28125 15.625 L 14.78125 8.625 A 0.99807145 0.99807145 0 0 0 14 7 L 12 7 L 12 6.03125 A 0.99807145 0.99807145 0 0 0 11.84375 5.5625 A 0.99807145 0.99807145 0 0 0 11.84375 5.53125 A 0.99807145 0.99807145 0 0 0 12 5.03125 L 12 3.03125 A 0.99807145 0.99807145 0 0 0 11.84375 2.5625 A 0.99807145 0.99807145 0 0 0 11.84375 2.53125 A 0.99807145 0.99807145 0 0 0 12 2.03125 L 12 1.03125 A 0.99807145 0.99807145 0 0 0 11 0.03125 L 6 0.03125 A 0.99807145 0.99807145 0 0 0 5.90625 0.03125 A 0.99807145 0.99807145 0 0 0 5.8125 0.03125 z M 6 1.03125 L 11 1.03125 L 11 2.03125 L 6 2.03125 L 6 1.03125 z M 6 3.03125 L 11 3.03125 L 11 5.03125 L 6 5.03125 L 6 3.03125 z M 6 6.03125 L 11 6.03125 L 11 8 L 14 8 L 8.5 15 L 3 8 L 6 8 L 6 6.03125 z " id="path3866" opacity="0.05" fill="#ffffff"/>
  <path d="m 6,1.03125 0,1 5,0 0,-1 z m 0,2 0,2 5,0 0,-2 z m 0,3 L 6,8 3,8 8.500632,15 14,8 11,8 11,6.03125 z" id="path3048" inkscape:connector-curvature="0" sodipodi:nodetypes="cccccccccccccccccc" fill="url(#radialGradient3078)"/>
  <path d="M 6 1.03125 L 6 2.03125 L 11 2.03125 L 11 1.03125 L 6 1.03125 z M 6 3.03125 L 6 5.03125 L 11 5.03125 L 11 3.03125 L 6 3.03125 z M 6.5 3.53125 L 10.5 3.53125 L 10.5 4.53125 L 6.5 4.53125 L 6.5 3.53125 z M 6 6.03125 L 6 8 L 3 8 L 8.5 15 L 14 8 L 11 8 L 11 6.03125 L 6 6.03125 z M 6.5 6.53125 L 10.5 6.53125 L 10.5 8 A 0.4982674 0.4982674 0 0 0 11 8.5 L 12.96875 8.5 L 8.5 14.15625 L 4.03125 8.5 L 6 8.5 A 0.4982674 0.4982674 0 0 0 6.5 8 L 6.5 6.53125 z " id="path3829" opacity="0.3"/>
  <path d="M 6 1.03125 L 6 2.03125 L 11 2.03125 L 11 1.03125 L 6 1.03125 z M 6 3.03125 L 6 4.03125 L 11 4.03125 L 11 3.03125 L 6 3.03125 z M 6 6.03125 L 6 7.03125 L 11 7.03125 L 11 6.03125 L 6 6.03125 z M 3 8 L 3.78125 9 L 6 9 L 6 8 L 3 8 z M 11 8 L 11 9 L 13.21875 9 L 14 8 L 11 8 z " id="path3842" opacity="0.3"/>
  <path d="M 6 2.03125 L 6 3.03125 L 11 3.03125 L 11 2.03125 L 6 2.03125 z M 6 5.03125 L 6 6.03125 L 11 6.03125 L 11 5.03125 L 6 5.03125 z M 3 9 L 8.5 16 L 14 9 L 13.21875 9 L 8.5 15 L 3.78125 9 L 3 9 z " id="path3851" opacity="0.2" fill="#ffffff"/>
 </g>
</svg>
