<?xml version="1.0" encoding="UTF-8" standalone="no"?>
<svg xmlns="http://www.w3.org/2000/svg" xmlns:xlink="http://www.w3.org/1999/xlink" xmlns:sodipodi="http://sodipodi.sourceforge.net/DTD/sodipodi-0.dtd" xmlns:inkscape="http://www.inkscape.org/namespaces/inkscape" width="16" height="16" version="1.0">
 <defs id="defs4">
  <linearGradient id="StandardGradient" gradientTransform="scale(0.9219544,1.0846523)" y1="0.922" x2="0" y2="19.387" gradientUnits="userSpaceOnUse">
   <stop id="stop3283" stop-opacity="0.235"/>
   <stop offset="1" id="stop2651" stop-opacity="0.549"/>
  </linearGradient>
  <linearGradient id="StandardGradient-4" gradientTransform="scale(0.9219544,1.0846523)" y1="0.922" x2="0" y2="19.387" gradientUnits="userSpaceOnUse">
   <stop id="stop3283-4" stop-opacity="0.863"/>
   <stop offset="1" id="stop2651-0" stop-opacity="0.471"/>
  </linearGradient>
  <radialGradient inkscape:collect="always" xlink:href="#StandardGradient" id="radialGradient4336" cx="9" cy="10.5" r="7.5" gradientTransform="matrix(1.4666667,0,0,0.93333333,-4.2,0.19999996)" gradientUnits="userSpaceOnUse"/>
  <radialGradient inkscape:collect="always" xlink:href="#StandardGradient" id="radialGradient4391" cx="9" cy="10.136" r="6" gradientTransform="matrix(1.8333333,7.9198615e-8,-4.3199245e-8,1,-7.4999996,-0.13636489)" gradientUnits="userSpaceOnUse"/>
 </defs>
 <metadata id="metadata7"/>
 <g inkscape:label="Calque 1" id="layer1" inkscape:groupmode="layer">
  <path inkscape:connector-curvature="0" d="m 1.8125,1.9687499 a 1.0331963,1.0331963 0 0 0 -0.84375,1.03125 l 0,2 a 1.0331963,1.0331963 0 0 0 0.71875,1 1.0331963,1.0331963 0 0 0 -0.71875,1 l 0,2 a 1.0331963,1.0331963 0 0 0 0.71875,1 A 1.0331963,1.0331963 0 0 0 0.96875,11 l 0,2 A 1.0331963,1.0331963 0 0 0 2,14.03125 l 5.96875,0 a 1.0331963,1.0331963 0 0 0 1.03125,1 l 3,0 A 1.0331963,1.0331963 0 0 0 13.03125,14 l 0,-1 a 1.0331963,1.0331963 0 0 0 -0.71875,-1 1.0331963,1.0331963 0 0 0 0.71875,-1 l 0,-0.96875 0.96875,0 a 1.0331963,1.0331963 0 0 0 1.03125,-1.0312501 l 0,-2 a 1.0331963,1.0331963 0 0 0 -0.71875,-1 1.0331963,1.0331963 0 0 0 0.71875,-1 l 0,-2 A 1.0331963,1.0331963 0 0 0 14,1.9687499 l -12,0 a 1.0331963,1.0331963 0 0 0 -0.09375,0 1.0331963,1.0331963 0 0 0 -0.09375,0 z M 2,2.9999999 l 12,0 0,2 -12,0 0,-2 z m 0,4 12,0 0,2 -12,0 0,-2 z m 7,3 3,0 L 12,11 l -1,0 0,2 1,0 0,1 -3,0 0,-1 1,0 0,-2 -1,0 0,-1.0000001 z M 2,11 l 6,0 0,2 -6,0 0,-2 z" id="path4567" opacity="0.05" fill="#ffffff"/>
  <path d="m 2,2.9999999 0,2 12,0 0,-2 -12,0 z m 0,4 0,2 12,0 0,-2 -12,0 z m 7,3 L 9,11 l 1,0 0,2 -1,0 0,1 3,0 0,-1 -1,0 0,-2 1,0 0,-1.0000001 -3,0 z M 2,11 l 0,2 6,0 0,-2 -6,0 z" id="path2883" sodipodi:nodetypes="cccccccccccccccccccccccccccc" inkscape:connector-curvature="0" fill="url(#radialGradient4391)"/>
  <path d="m 2,2.9999999 0,1 12,0 0,-1 -12,0 z m 0,4 0,1 12,0 0,-1 -12,0 z m 7,3 L 9,11 l 1,0 1,0 1,0 0,-1.0000001 -3,0 z M 2,11 l 0,1 6,0 0,-1 -6,0 z m 7,2 0,1 1,0 0,-1 -1,0 z m 2,0 0,1 1,0 0,-1 -1,0 z" id="path2910" inkscape:connector-curvature="0" opacity="0.3"/>
  <path d="M 2 3 L 2 5 L 14 5 L 14 3 L 2 3 z M 2.5 3.5 L 13.5 3.5 L 13.5 4.5 L 2.5 4.5 L 2.5 3.5 z M 2 7 L 2 9 L 14 9 L 14 7 L 2 7 z M 2.5 7.5 L 13.5 7.5 L 13.5 8.5 L 2.5 8.5 L 2.5 7.5 z M 9 10 L 9 11 L 10 11 L 10 13 L 9 13 L 9 14 L 12 14 L 12 13 L 11 13 L 11 11 L 12 11 L 12 10 L 9 10 z M 10.15625 10.5 L 10.84375 10.5 A 0.49826737 0.49826737 0 0 0 10.5 10.84375 A 0.49826737 0.49826737 0 0 0 10.15625 10.5 z M 2 11 L 2 13 L 8 13 L 8 11 L 2 11 z M 2.5 11.5 L 7.5 11.5 L 7.5 12.5 L 2.5 12.5 L 2.5 11.5 z M 10.5 13.15625 A 0.49826737 0.49826737 0 0 0 10.84375 13.5 L 10.15625 13.5 A 0.49826737 0.49826737 0 0 0 10.5 13.15625 z " id="path4397" opacity="0.3"/>
  <path d="m 2,4.9999999 0,1 12,0 0,-1 -12,0 z m 0,4 0,1 7,0 3,0 2,0 0,-1 -12,0 z M 9,11 l 0,1 1,0 0,-1 -1,0 z m 2,0 0,1 1,0 0,-1 -1,0 z m -9,2 0,1 6,0 0,-1 -6,0 z m 7,1 0,1 3,0 0,-1 -1,0 -1,0 -1,0 z" id="path3691" inkscape:connector-curvature="0" opacity="0.2" fill="#ffffff"/>
 </g>
</svg>
