<?xml version="1.0" encoding="UTF-8" standalone="no"?>
<svg xmlns="http://www.w3.org/2000/svg" xmlns:xlink="http://www.w3.org/1999/xlink" xmlns:sodipodi="http://sodipodi.sourceforge.net/DTD/sodipodi-0.dtd" xmlns:inkscape="http://www.inkscape.org/namespaces/inkscape" width="16" height="16" version="1.0">
 <defs id="defs4">
  <linearGradient inkscape:collect="always" xlink:href="#StandardGradient" id="linearGradient2428" gradientUnits="userSpaceOnUse" gradientTransform="matrix(0.9247229,0,0,1.0872097,10.939944,-2.0023588)" y1="3.681" x2="0" y2="16.53"/>
  <linearGradient id="StandardGradient" gradientTransform="scale(0.9219544,1.0846523)" y1="0.922" x2="0" y2="19.387" gradientUnits="userSpaceOnUse">
   <stop id="stop3283" stop-opacity="0.235"/>
   <stop offset="1" id="stop2651" stop-opacity="0.549"/>
  </linearGradient>
  <linearGradient inkscape:collect="always" xlink:href="#StandardGradient" id="linearGradient2549" gradientUnits="userSpaceOnUse" gradientTransform="matrix(0.9247229,0,0,1.0872097,-2.0600562,0.9976422)" y1="0.922" x2="0" y2="17.478"/>
  <linearGradient inkscape:collect="always" xlink:href="#StandardGradient" id="linearGradient2418" gradientUnits="userSpaceOnUse" gradientTransform="matrix(0.9247229,0,0,1.0872097,-4.0600562,-3.0023583)" y1="0.922" x2="0" y2="17.478"/>
  <linearGradient inkscape:collect="always" xlink:href="#StandardGradient" id="linearGradient2422" gradientUnits="userSpaceOnUse" gradientTransform="matrix(0.9247229,0,0,1.0872097,-5.0600562,-1.0023583)" y1="0.922" x2="0" y2="17.478"/>
  <linearGradient inkscape:collect="always" xlink:href="#StandardGradient" id="linearGradient2409" gradientUnits="userSpaceOnUse" gradientTransform="matrix(0.9247229,0,0,1.0872097,-6.0600562,-2.0023583)" y1="3.68" x2="0" y2="15.639"/>
  <linearGradient inkscape:collect="always" xlink:href="#StandardGradient" id="linearGradient2416" gradientUnits="userSpaceOnUse" gradientTransform="matrix(0.9247229,0,0,1.0872097,-6.0600562,-2.0023583)" y1="2.762" x2="0" y2="15.639"/>
  <linearGradient inkscape:collect="always" xlink:href="#StandardGradient" id="linearGradient2529" gradientUnits="userSpaceOnUse" gradientTransform="matrix(0.9247229,0,0,1.0872097,-4.0418814,0.9976412)" y1="3.681" x2="0" y2="16.53"/>
  <linearGradient inkscape:collect="always" xlink:href="#StandardGradient" id="linearGradient2942" gradientUnits="userSpaceOnUse" gradientTransform="matrix(0.9247229,0,0,1.0872097,-26.060056,-2.0023583)" y1="2.762" x2="0" y2="15.639"/>
  <clipPath id="clipPath2949">
   <path d="m -20,0 0,16 16,0 0,-16 -16,0 z m 3,1 3,0 c 0.554,0 1,0.446 1,1 l 6,0 c 0.554,0 1,0.446 1,1 l -12,0 0,-1 c 0,-0.554 0.446,-1 1,-1 z m -0.5,3 4,0 6,0 1,0 C -5.669,4 -5,4.669 -5,5.5 l 0,4.5 0,1.5 c 0,0.647488 -0.396277,1.195291 -0.96875,1.40625 l 0,0.15625 -0.03125,0 0,0.4375 c 0,0.831 -0.669,1.5 -1.5,1.5 l -6,0 c -0.831,0 -1.5,-0.669 -1.5,-1.5 l 0,-0.5 -2.5,0 c -0.831,0 -1.5,-0.669 -1.5,-1.5 l 0,-1.5 0,-4.5 C -19,4.669 -18.331,4 -17.5,4 z m 5,2 C -12.777,6 -13,6.223 -13,6.5 l 0,6 c 0,0.277 0.223,0.5 0.5,0.5 l 4,0 c 0.277,0 0.5,-0.223 0.5,-0.5 l 0,-6 C -8,6.223 -8.223,6 -8.5,6 l -4,0 z" id="path2951"/>
  </clipPath>
  <linearGradient id="StandardGradient-4" gradientTransform="scale(0.9219544,1.0846523)" y1="0.922" x2="0" y2="19.387" gradientUnits="userSpaceOnUse">
   <stop id="stop3283-8" stop-opacity="0.863"/>
   <stop offset="1" id="stop2651-7" stop-opacity="0.471"/>
  </linearGradient>
  <radialGradient inkscape:collect="always" xlink:href="#StandardGradient" id="radialGradient3831" cx="9" cy="9.714" r="6" gradientTransform="matrix(1.8333333,3.9072722e-8,-2.8416527e-8,1.3333334,-7.4999997,-2.9523819)" gradientUnits="userSpaceOnUse"/>
 </defs>
 <metadata id="metadata7"/>
 <g inkscape:label="Calque 1" id="layer1" inkscape:groupmode="layer">
  <path inkscape:connector-curvature="0" d="m 6.5,-0.03125 c -1.3914857,0 -2.53125,1.1397643 -2.53125,2.53125 l 0,0.46875 -0.46875,0 C 2.1085143,2.96875 0.96875,4.1085143 0.96875,5.5 l 0,8 c 0,1.391486 1.1397643,2.53125 2.53125,2.53125 l 6,0 c 1.391486,0 2.53125,-1.139764 2.53125,-2.53125 l 0,-0.46875 0.46875,0 c 1.391486,0 2.53125,-1.139764 2.53125,-2.53125 l 0,-8 c 0,-1.3914857 -1.139764,-2.53125 -2.53125,-2.53125 l -6,0 z M 6.5,1 l 6,0 C 13.331,1 14,1.669 14,2.5 l 0,8 c 0,0.831 -0.669,1.5 -1.5,1.5 l -6,0 C 5.669,12 5,11.331 5,10.5 l 0,-8 C 5,1.669 5.669,1 6.5,1 z m 1,2 C 7.223,3 7,3.223 7,3.5 l 0,6 C 7,9.777 7.223,10 7.5,10 l 4,0 C 11.777,10 12,9.777 12,9.5 l 0,-6 C 12,3.223 11.777,3 11.5,3 l -4,0 z m -4,1 0.5,0 0,2.5 0,6 C 4,12.777 4.223,13 4.5,13 l 4,0 2.5,0 0,0.5 C 11,14.331 10.331,15 9.5,15 l -6,0 C 2.669,15 2,14.331 2,13.5 l 0,-8 C 2,4.669 2.669,4 3.5,4 z m 4.53125,0.03125 2.9375,0 0,4.9375 -2.9375,0 0,-4.9375 z" id="path5500" opacity="0.05" fill="#ffffff"/>
  <path inkscape:connector-curvature="0" d="M 6.5,1 C 5.669,1 5,1.669 5,2.5 l 0,8 C 5,11.331 5.669,12 6.5,12 l 6,0 c 0.831,0 1.5,-0.669 1.5,-1.5 l 0,-8 C 14,1.669 13.331,1 12.5,1 l -6,0 z m 1,2 4,0 C 11.777,3 12,3.223 12,3.5 l 0,6 C 12,9.777 11.777,10 11.5,10 l -4,0 C 7.223,10 7,9.777 7,9.5 l 0,-6 C 7,3.223 7.223,3 7.5,3 z m -4,1 C 2.669,4 2,4.669 2,5.5 l 0,8 C 2,14.331 2.669,15 3.5,15 l 6,0 c 0.831,0 1.5,-0.669 1.5,-1.5 l 0,-0.5 -2.5,0 -4,0 C 4.223,13 4,12.777 4,12.5 L 4,6.5 4,4 3.5,4 z" id="Symbol" sodipodi:nodetypes="ccccccccccccccccccccccccccccccc" fill="url(#radialGradient3831)"/>
  <path inkscape:connector-curvature="0" d="M 6.5,1 C 5.669,1 5,1.669 5,2.5 l 0,1 C 5,2.669 5.669,2 6.5,2 l 6,0 C 13.331,2 14,2.669 14,3.5 l 0,-1 C 14,1.669 13.331,1 12.5,1 l -6,0 z m -3,3 C 2.669,4 2,4.669 2,5.5 l 0,1 C 2,5.669 2.669,5 3.5,5 L 4,5 4,4 3.5,4 z m 3.5,5.5 0,1 C 7,10.777 7.223,11 7.5,11 l 4,0 c 0.277,0 0.5,-0.223 0.5,-0.5 l 0,-1 C 12,9.777 11.777,10 11.5,10 l -4,0 C 7.223,10 7,9.777 7,9.5 z m -3,3 0,1 C 4,13.777 4.223,14 4.5,14 l 4,0 2.40625,0 C 10.959738,13.845522 11,13.673125 11,13.5 l 0,-0.5 -2.5,0 -2,0 -2,0 C 4.223,13 4,12.777 4,12.5 z" id="BevelShadow" sodipodi:nodetypes="cccccccccccccccccccccccccccccccccccc" opacity="0.3"/>
  <path inkscape:connector-curvature="0" d="M 7.5,3 C 7.223,3 7,3.223 7,3.5 l 0,1 C 7,4.223 7.223,4 7.5,4 l 4,0 C 11.777,4 12,4.223 12,4.5 l 0,-1 C 12,3.223 11.777,3 11.5,3 l -4,0 z m -2.5,7.5 0,1 C 5,12.331 5.669,13 6.5,13 l 2,0 2.5,0 1.5,0 c 0.831,0 1.5,-0.669 1.5,-1.5 l 0,-1 c 0,0.831 -0.669,1.5 -1.5,1.5 l -6,0 C 5.669,12 5,11.331 5,10.5 z m -3,3 0,1 C 2,15.331 2.669,16 3.5,16 l 6,0 C 10.331,16 11,15.331 11,14.5 L 11,14 10.90625,14 C 10.702994,14.587017 10.157875,15 9.5,15 l -6,0 C 2.669,15 2,14.331 2,13.5 z" id="BevelHighlight" sodipodi:nodetypes="cccccccccccccccccccccccccccccc" opacity="0.2" fill="#ffffff"/>
  <path d="M 6.5 1 C 5.669 1 5 1.669 5 2.5 L 5 10.5 C 5 11.331 5.669 12 6.5 12 L 12.5 12 C 13.331 12 14 11.331 14 10.5 L 14 2.5 C 14 1.669 13.331 1 12.5 1 L 6.5 1 z M 6.5 1.5 L 12.5 1.5 C 13.063605 1.5 13.5 1.9363948 13.5 2.5 L 13.5 10.5 C 13.5 11.063605 13.063605 11.5 12.5 11.5 L 6.5 11.5 C 5.9363948 11.5 5.5 11.063605 5.5 10.5 L 5.5 2.5 C 5.5 1.9363948 5.9363948 1.5 6.5 1.5 z M 7.5 2.5 C 6.9556052 2.5 6.5 2.9556052 6.5 3.5 L 6.5 9.5 C 6.5 10.044395 6.9556052 10.5 7.5 10.5 L 11.5 10.5 C 12.044395 10.5 12.5 10.044395 12.5 9.5 L 12.5 3.5 C 12.5 2.9556052 12.044395 2.5 11.5 2.5 L 7.5 2.5 z M 7.5 3 L 11.5 3 C 11.777 3 12 3.223 12 3.5 L 12 9.5 C 12 9.777 11.777 10 11.5 10 L 7.5 10 C 7.223 10 7 9.777 7 9.5 L 7 3.5 C 7 3.223 7.223 3 7.5 3 z M 3.5 4 C 2.669 4 2 4.669 2 5.5 L 2 13.5 C 2 14.331 2.669 15 3.5 15 L 9.5 15 C 10.331 15 11 14.331 11 13.5 L 11 13 L 8.5 13 L 4.5 13 C 4.223 13 4 12.777 4 12.5 L 4 6.5 L 4 4 L 3.5 4 z M 3.5 4.5 L 3.5 6.5 L 3.5 12.5 C 3.5 13.044395 3.9556052 13.5 4.5 13.5 L 8.5 13.5 L 10.5 13.5 C 10.5 14.063605 10.063605 14.5 9.5 14.5 L 3.5 14.5 C 2.9363948 14.5 2.5 14.063605 2.5 13.5 L 2.5 5.5 C 2.5 4.9363948 2.9363948 4.5 3.5 4.5 z " id="path3833" opacity="0.3"/>
 </g>
</svg>
