<?xml version="1.0" encoding="UTF-8" standalone="no"?>
<svg xmlns="http://www.w3.org/2000/svg" xmlns:xlink="http://www.w3.org/1999/xlink" xmlns:sodipodi="http://sodipodi.sourceforge.net/DTD/sodipodi-0.dtd" xmlns:inkscape="http://www.inkscape.org/namespaces/inkscape" width="16" height="16" version="1.0">
 <defs id="defs4">
  <linearGradient inkscape:collect="always" xlink:href="#StandardGradient" id="linearGradient2428" gradientUnits="userSpaceOnUse" gradientTransform="matrix(0.9247229,0,0,1.0872097,10.939944,-2.0023588)" y1="3.681" x2="0" y2="16.53"/>
  <linearGradient id="StandardGradient" gradientTransform="scale(0.9219544,1.0846523)" y1="0.922" x2="0" y2="19.387" gradientUnits="userSpaceOnUse">
   <stop id="stop3283" stop-opacity="0.235"/>
   <stop offset="1" id="stop2651" stop-opacity="0.549"/>
  </linearGradient>
  <linearGradient inkscape:collect="always" xlink:href="#StandardGradient" id="linearGradient2549" gradientUnits="userSpaceOnUse" gradientTransform="matrix(0.9247229,0,0,1.0872097,-2.0600562,0.9976422)" y1="0.922" x2="0" y2="17.478"/>
  <linearGradient inkscape:collect="always" xlink:href="#StandardGradient" id="linearGradient2418" gradientUnits="userSpaceOnUse" gradientTransform="matrix(0.9247229,0,0,1.0872097,-4.0600562,-3.0023583)" y1="0.922" x2="0" y2="17.478"/>
  <linearGradient inkscape:collect="always" xlink:href="#StandardGradient" id="linearGradient2422" gradientUnits="userSpaceOnUse" gradientTransform="matrix(0.9247229,0,0,1.0872097,-5.0600562,-1.0023583)" y1="0.922" x2="0" y2="17.478"/>
  <linearGradient inkscape:collect="always" xlink:href="#StandardGradient" id="linearGradient2409" gradientUnits="userSpaceOnUse" gradientTransform="matrix(0.9247229,0,0,1.0872097,-6.0600562,-2.0023583)" y1="3.68" x2="0" y2="15.639"/>
  <linearGradient inkscape:collect="always" xlink:href="#StandardGradient" id="linearGradient2416" gradientUnits="userSpaceOnUse" gradientTransform="matrix(0.9247229,0,0,1.0872097,-6.0600562,-2.0023583)" y1="2.762" x2="0" y2="15.639"/>
  <linearGradient inkscape:collect="always" xlink:href="#StandardGradient" id="linearGradient2529" gradientUnits="userSpaceOnUse" gradientTransform="matrix(0.9247229,0,0,1.0872097,-4.0418814,0.9976412)" y1="3.681" x2="0" y2="16.53"/>
  <linearGradient inkscape:collect="always" xlink:href="#StandardGradient" id="linearGradient2942" gradientUnits="userSpaceOnUse" gradientTransform="matrix(0.9247229,0,0,1.0872097,-26.060056,-2.0023583)" y1="2.762" x2="0" y2="15.639"/>
  <clipPath id="clipPath2949">
   <path d="m -20,0 0,16 16,0 0,-16 -16,0 z m 3,1 3,0 c 0.554,0 1,0.446 1,1 l 6,0 c 0.554,0 1,0.446 1,1 l -12,0 0,-1 c 0,-0.554 0.446,-1 1,-1 z m -0.5,3 4,0 6,0 1,0 C -5.669,4 -5,4.669 -5,5.5 l 0,4.5 0,1.5 c 0,0.647488 -0.396277,1.195291 -0.96875,1.40625 l 0,0.15625 -0.03125,0 0,0.4375 c 0,0.831 -0.669,1.5 -1.5,1.5 l -6,0 c -0.831,0 -1.5,-0.669 -1.5,-1.5 l 0,-0.5 -2.5,0 c -0.831,0 -1.5,-0.669 -1.5,-1.5 l 0,-1.5 0,-4.5 C -19,4.669 -18.331,4 -17.5,4 z m 5,2 C -12.777,6 -13,6.223 -13,6.5 l 0,6 c 0,0.277 0.223,0.5 0.5,0.5 l 4,0 c 0.277,0 0.5,-0.223 0.5,-0.5 l 0,-6 C -8,6.223 -8.223,6 -8.5,6 l -4,0 z" id="path2951"/>
  </clipPath>
  <radialGradient inkscape:collect="always" xlink:href="#StandardGradient" id="radialGradient3798" cx="9" cy="9.875" r="7" gradientUnits="userSpaceOnUse" gradientTransform="matrix(2.1428571,5.7142857e-8,-3.047619e-8,1.1428571,-10.285714,-1.2857148)"/>
  <radialGradient inkscape:collect="always" xlink:href="#StandardGradient" id="radialGradient3827" cx="7.616" cy="8.361" r="5.109" gradientTransform="matrix(2.1529051,7.3022659e-8,-3.9830542e-8,1.1743119,-7.3968038,0.1819704)" gradientUnits="userSpaceOnUse"/>
  <radialGradient inkscape:collect="always" xlink:href="#StandardGradient" id="radialGradient3833" gradientUnits="userSpaceOnUse" gradientTransform="matrix(2.1504841,5.8874232e-8,-3.7575548e-8,1.3725125,-10.368589,-3.4849146)" cx="9.01" cy="9.834" r="5.109"/>
  <radialGradient inkscape:collect="always" xlink:href="#StandardGradient" id="radialGradient3846" gradientUnits="userSpaceOnUse" gradientTransform="matrix(2.1504841,5.8874232e-8,-3.7575548e-8,1.3725125,-10.368589,-2.4849146)" cx="9.01" cy="9.834" r="5.109"/>
  <radialGradient inkscape:collect="always" xlink:href="#StandardGradient" id="radialGradient3056" gradientUnits="userSpaceOnUse" gradientTransform="matrix(2.1529051,7.3022659e-8,-3.9830542e-8,1.1743119,-7.3968038,1.1819704)" cx="7.616" cy="8.361" r="5.109"/>
 </defs>
 <metadata id="metadata7"/>
 <g inkscape:label="Calque 1" id="layer1" inkscape:groupmode="layer">
  <path d="m 2.0145943,8.4030001 a 1.001054,1.001054 0 0 0 0.28125,0.59375 l 2.125,2.1249999 a 1.001054,1.001054 0 0 0 1.4375,0 l 0.15625,-0.15625 0,2.0625 a 1.001054,1.001054 0 0 0 1,1 l 2.9999997,0 a 1.001054,1.001054 0 0 0 1,-1 l 0,-2.0625 0.15625,0.15625 a 1.001054,1.001054 0 0 0 1.4375,0 l 2.125,-2.1249999 a 1.001054,1.001054 0 0 0 0,-1.4375 l -5.4999997,-5.46875 a 1.001054,1.001054 0 0 0 -1.4375,0 l -5.5,5.46875 a 1.001054,1.001054 0 0 0 -0.28125,0.84375 z m 1,-0.125 5.5,-5.46875 5.4999997,5.46875 -2.125,2.1249999 -1.875,-1.8749999 0,4.4999999 -2.9999997,0 0,-4.4999999 -1.875,1.8749999 -2.125,-2.1249999 z" id="path3866" inkscape:connector-curvature="0" opacity="0.05" fill="#ffffff" color="#000000" stroke-width="0.8"/>
  <path d="m 3.0097971,8.259777 2.125,2.125 1.875,-1.875 0,4.5 2.9999999,0 0,-4.5 1.875,1.875 2.125,-2.125 -5.4999999,-5.46875 z" id="rect3042" inkscape:connector-curvature="0" sodipodi:nodetypes="cccccccccc" fill="url(#radialGradient3827)" color="#000000" stroke-width="0.8"/>
  <path d="m 3.0097971,8.259777 2.125,2.125 1.875,-1.875 0,4.5 2.9999999,0 0,-4.5 1.875,1.875 2.125,-2.125 -5.4999999,-5.46875 -5.5,5.46875 z m 0.6875,0 4.8125,-4.78125 4.8124999,4.78125 -1.4375,1.4375 -1.53125,-1.53125 a 0.47064552,0.47064552 0 0 0 -0.8124999,0.34375 l 0,4.03125 -2.0625,0 0,-4.03125 a 0.47064552,0.47064552 0 0 0 -0.8125,-0.34375 l -1.53125,1.53125 -1.4375,-1.4375 z" id="path3829" inkscape:connector-curvature="0" opacity="0.3" color="#000000" stroke-width="0.8"/>
  <path d="M 8.5 2.78125 L 3 8.25 L 3.5 8.75 L 8.5 3.78125 L 13.5 8.75 L 14 8.25 L 8.5 2.78125 z " id="path3052" opacity="0.3" color="#000000" stroke-width="0.8"/>
  <path d="M 7 8.5 L 5.125 10.375 L 3.5 8.75 L 3 9.25 L 5.125 11.375 L 7 9.5 L 7 8.5 z M 10 8.5 L 10 9.5 L 11.875 11.375 L 14 9.25 L 13.5 8.75 L 11.875 10.375 L 10 8.5 z M 7 13 L 7 14 L 10 14 L 10 13 L 7 13 z " id="path3830" opacity="0.2" fill="#ffffff" color="#000000" stroke-width="0.8"/>
 </g>
</svg>
