<?xml version="1.0" encoding="UTF-8" standalone="no"?>
<svg xmlns="http://www.w3.org/2000/svg" xmlns:xlink="http://www.w3.org/1999/xlink" xmlns:sodipodi="http://sodipodi.sourceforge.net/DTD/sodipodi-0.dtd" xmlns:inkscape="http://www.inkscape.org/namespaces/inkscape" version="1.0" width="16" height="16">
 <metadata id="metadata11"/>
 <defs id="defs3198">
  <linearGradient gradientUnits="userSpaceOnUse" y2="17.17" x2="0" y1="4.163" gradientTransform="matrix(1.0765258,0,0,0.9227364,-20.008013,0.1584665)" id="linearGradient4157">
   <stop id="stop4159" stop-opacity="0.235"/>
   <stop offset="1" id="stop4161" stop-opacity="0.549"/>
  </linearGradient>
  <linearGradient id="linearGradient3587-6-5">
   <stop id="stop3589-9-2"/>
   <stop id="stop3591-7-4" offset="1" stop-color="#363636"/>
  </linearGradient>
  <linearGradient y1="6.667" x2="0" y2="33.33" id="linearGradient2422" xlink:href="#linearGradient3587-6-5" gradientUnits="userSpaceOnUse" gradientTransform="matrix(0.4090909,0,0,0.375,7.4545459,0.5)"/>
  <linearGradient inkscape:collect="always" xlink:href="#linearGradient3587-6-5" id="linearGradient2999" gradientUnits="userSpaceOnUse" gradientTransform="matrix(0.4090909,0,0,0.75,7.4545459,-6)" y1="6.667" x2="0" y2="33.33"/>
  <linearGradient inkscape:collect="always" xlink:href="#linearGradient3587-6-5" id="linearGradient3011" gradientUnits="userSpaceOnUse" gradientTransform="matrix(0.4090909,0,0,0.75,7.4545459,-2)" y1="6.667" x2="0" y2="33.33"/>
  <linearGradient inkscape:collect="always" xlink:href="#linearGradient3587-6-5" id="linearGradient3017" gradientUnits="userSpaceOnUse" gradientTransform="matrix(0.4090909,0,0,0.75,7.4545459,-4)" y1="6.667" x2="0" y2="33.33"/>
  <linearGradient inkscape:collect="always" xlink:href="#StandardGradient" id="linearGradient3112" gradientUnits="userSpaceOnUse" gradientTransform="matrix(0.3,0,0,0.3,7.4,1.8)" y1="4" x2="0" y2="37.33"/>
  <linearGradient id="StandardGradient" gradientTransform="matrix(1.0765258,0,0,0.9227364,-20.008013,0.1584665)" y1="4.163" x2="0" y2="17.17" gradientUnits="userSpaceOnUse">
   <stop id="stop3337" stop-opacity="0.863"/>
   <stop id="stop3339" offset="1" stop-opacity="0.471"/>
  </linearGradient>
  <linearGradient y2="37.33" x2="0" y1="4" gradientTransform="matrix(0.3,0,0,0.3,16.4,3.8)" gradientUnits="userSpaceOnUse" id="linearGradient4465" xlink:href="#StandardGradient" inkscape:collect="always"/>
  <linearGradient inkscape:collect="always" xlink:href="#StandardGradient" id="linearGradient3813" gradientUnits="userSpaceOnUse" gradientTransform="matrix(0.4090909,0,0,0.75,7.4545459,-3)" y1="9.333" x2="0" y2="22.667"/>
  <linearGradient inkscape:collect="always" xlink:href="#StandardGradient" id="linearGradient3815" gradientUnits="userSpaceOnUse" gradientTransform="matrix(0.4090909,0,0,0.75,7.4545459,-4)" y1="9.333" x2="0" y2="22.667"/>
  <radialGradient inkscape:collect="always" xlink:href="#linearGradient4157" id="radialGradient4155" cx="8" cy="10.4" r="6" gradientTransform="matrix(2.6666667,-1.4473924e-7,6.3323411e-8,1.1666666,-13.333334,-2.1333314)" gradientUnits="userSpaceOnUse"/>
 </defs>
 <path d="M 1.8125 2.0625 A 0.93543549 0.93543549 0 0 0 1.0625 3 L 1.0625 5 A 0.93543549 0.93543549 0 0 0 2 5.9375 L 14 5.9375 A 0.93543549 0.93543549 0 0 0 14.9375 5 L 14.9375 3 A 0.93543549 0.93543549 0 0 0 14 2.0625 L 2 2.0625 A 0.93543549 0.93543549 0 0 0 1.90625 2.0625 A 0.93543549 0.93543549 0 0 0 1.8125 2.0625 z M 2 3 L 14 3 L 14 5 L 2 5 L 2 3 z M 1.8125 6.0625 A 0.93543549 0.93543549 0 0 0 1.0625 7 L 1.0625 9 A 0.93543549 0.93543549 0 0 0 2 9.9375 L 14 9.9375 A 0.93543549 0.93543549 0 0 0 14.9375 9 L 14.9375 7 A 0.93543549 0.93543549 0 0 0 14 6.0625 L 2 6.0625 A 0.93543549 0.93543549 0 0 0 1.90625 6.0625 A 0.93543549 0.93543549 0 0 0 1.8125 6.0625 z M 2 7 L 14 7 L 14 9 L 2 9 L 2 7 z M 1.8125 10.0625 A 0.93543549 0.93543549 0 0 0 1.0625 11 L 1.0625 13 A 0.93543549 0.93543549 0 0 0 2 13.9375 L 14 13.9375 A 0.93543549 0.93543549 0 0 0 14.9375 13 L 14.9375 11 A 0.93543549 0.93543549 0 0 0 14 10.0625 L 2 10.0625 A 0.93543549 0.93543549 0 0 0 1.90625 10.0625 A 0.93543549 0.93543549 0 0 0 1.8125 10.0625 z M 2 11 L 14 11 L 14 13 L 2 13 L 2 11 z " id="path3826" opacity="0.05" color="#000000" fill="#ffffff"/>
 <path d="M 2 3 L 2 5 L 14 5 L 14 3 L 2 3 z M 2 7 L 2 9 L 14 9 L 14 7 L 2 7 z M 2 11 L 2 13 L 14 13 L 14 11 L 2 11 z " id="path2993" color="#000000" fill="url(#radialGradient4155)"/>
 <path d="M 2 3 L 2 4 L 14 4 L 14 3 L 2 3 z M 2 7 L 2 8 L 14 8 L 14 7 L 2 7 z M 2 11 L 2 12 L 14 12 L 14 11 L 2 11 z " id="path3809" opacity="0.3" color="#000000"/>
 <path id="path3818" d="M 2,5 2,6 14,6 14,5 2,5 z m 0,4 0,1 12,0 0,-1 -12,0 z m 0,4 0,1 12,0 0,-1 -12,0 z" inkscape:connector-curvature="0" opacity="0.2" color="#000000" fill="#ffffff"/>
 <path d="M 2,3 2,5 14,5 14,3 2,3 Z m 0.599609,0.5996094 10.800782,0 0,0.8007812 -10.800782,0 0,-0.8007812 z M 2,7 2,9 14,9 14,7 2,7 Z m 0.599609,0.5996094 10.800782,0 0,0.8007812 -10.800782,0 0,-0.8007812 z M 2,11 l 0,2 12,0 0,-2 -12,0 z m 0.599609,0.599609 10.800782,0 0,0.800782 -10.800782,0 0,-0.800782 z" id="path2993-4" inkscape:connector-curvature="0" shape-rendering="auto" mix-blend-mode="normal" color-interpolation-filters="linearRGB" isolation="auto" white-space="normal" opacity="0.3" solid-opacity="1" image-rendering="auto" solid-color="#000000" color="#000000" stroke-width="1.2" color-rendering="auto" color-interpolation="sRGB"/>
</svg>
