<?xml version="1.0" encoding="UTF-8" standalone="no"?>
<svg
   xmlns:dc="http://purl.org/dc/elements/1.1/"
   xmlns:cc="http://creativecommons.org/ns#"
   xmlns:rdf="http://www.w3.org/1999/02/22-rdf-syntax-ns#"
   xmlns:svg="http://www.w3.org/2000/svg"
   xmlns="http://www.w3.org/2000/svg"
   xmlns:sodipodi="http://sodipodi.sourceforge.net/DTD/sodipodi-0.dtd"
   xmlns:inkscape="http://www.inkscape.org/namespaces/inkscape"
   width="48"
   height="48"
   viewBox="0 0 48 48"
   id="svg2"
   version="1.1"
   inkscape:version="0.91 r13725"
   sodipodi:docname="document-print-preview.svg">
  <sodipodi:namedview
     pagecolor="#ffffff"
     bordercolor="#666666"
     borderopacity="1"
     objecttolerance="10"
     gridtolerance="10"
     guidetolerance="10"
     inkscape:pageopacity="0"
     inkscape:pageshadow="2"
     inkscape:window-width="640"
     inkscape:window-height="480"
     id="namedview20"
     showgrid="false"
     inkscape:zoom="4.9166667"
     inkscape:cx="24"
     inkscape:cy="24"
     inkscape:window-x="0"
     inkscape:window-y="31"
     inkscape:window-maximized="0"
     inkscape:current-layer="svg2" />
  <metadata
     id="metadata24">
    <rdf:RDF>
      <cc:Work
         rdf:about="">
        <dc:format>image/svg+xml</dc:format>
        <dc:type
           rdf:resource="http://purl.org/dc/dcmitype/StillImage" />
      </cc:Work>
    </rdf:RDF>
  </metadata>
  <defs
     id="defs22" />
  <g
     id="g4"
     style="fill-rule:evenodd">
    <path
       id="path6"
       d="M 16 4 L 32 4 C 36 4 36 3.601562 36 8 L 36 24 C 36 28 36 28 32 28 L 16 28 C 12 28 12 28 12 24 L 12 8 C 12 4 12 4 16 4 Z "
       style="fill:#aaaaaa;fill-opacity:.941" />
    <path
       id="path8"
       d="M 8 16 L 40 16 C 44 16 44 16 44 20 L 44 32 C 44 36 44 36 40 36 L 8 36 C 4 36 4 36 4 32 L 4 20 C 4 16 4 16 8 16 Z "
       style="fill:#cccccc" />
  </g>
  <path
     id="path10"
     d="M 12 24 L 36 24 L 36 44 L 12 44 Z "
     style="fill:#858585" />
  <g
     id="g12"
     style="fill-rule:evenodd">
    <path
       id="path14"
       d="M 36 24 C 36 30.628906 30.628906 36 24 36 C 17.371094 36 11.996094 30.628906 11.996094 24 C 11.996094 17.371094 17.371094 12 24 12 C 30.628906 12 36 17.371094 36 24 Z "
       style="fill:#ffffff" />
    <path
       id="path16"
       d="M 32 24 C 32 28.417969 28.417969 32 24 32 C 19.582031 32 16 28.417969 16 24 C 16 19.582031 19.582031 16 24 16 C 28.417969 16 32 19.582031 32 24 Z "
       style="fill:#555555" />
    <path
       id="path18"
       d="M 30 21 C 30 22.65625 28.65625 24 27 24 C 25.34375 24 24 22.65625 24 21 C 24 19.34375 25.34375 18 27 18 C 28.65625 18 30 19.34375 30 21 Z "
       style="fill:#eeeeee" />
  </g>
</svg>
