<?xml version="1.0" encoding="UTF-8" standalone="no"?>
<svg xmlns="http://www.w3.org/2000/svg" xmlns:xlink="http://www.w3.org/1999/xlink" xmlns:sodipodi="http://sodipodi.sourceforge.net/DTD/sodipodi-0.dtd" xmlns:inkscape="http://www.inkscape.org/namespaces/inkscape" version="1.2" width="96" height="96">
 <defs id="defs2410">
  <linearGradient id="linearGradient3874">
   <stop id="stop3876" stop-color="#a7a7a7"/>
   <stop offset="1" id="stop3878" stop-color="#a7a7a7" stop-opacity="0"/>
  </linearGradient>
  <linearGradient gradientTransform="scale(1.0598527,0.9435274)" gradientUnits="userSpaceOnUse" id="linearGradient3317" y2="20.14" x2="0" y1="3.213">
   <stop id="stop3319" stop-color="#545454"/>
   <stop offset="1" id="stop3321" stop-color="#414141"/>
  </linearGradient>
  <linearGradient gradientUnits="userSpaceOnUse" xlink:href="#linearGradient3317" id="linearGradient3361" y2="85.82" x2="0" y1="25.911"/>
  <linearGradient id="linearGradient3348">
   <stop id="stop3350" stop-color="#767676"/>
   <stop offset="0.717" id="stop3356" stop-color="#5c5c5c"/>
   <stop offset="1" id="stop3352" stop-color="#484848"/>
  </linearGradient>
  <linearGradient id="linearGradient3187">
   <stop id="stop3189" stop-color="#5c5c5c"/>
   <stop offset="1" id="stop3191" stop-color="#6e6e6e"/>
  </linearGradient>
  <linearGradient gradientTransform="matrix(1.0058652,0,0,0.994169,0,12)" gradientUnits="userSpaceOnUse" id="ButtonShadow" y2="7.02" x2="0" y1="80.47">
   <stop id="stop3750"/>
   <stop offset="1" id="stop3752" stop-opacity="0.588"/>
  </linearGradient>
  <linearGradient gradientTransform="translate(0,12)" gradientUnits="userSpaceOnUse" xlink:href="#linearGradient3187" id="linearGradient3706" y2="5.988" x2="0" y1="78"/>
  <filter id="filter3174" color-interpolation-filters="sRGB">
   <feGaussianBlur stdDeviation="1.71" id="feGaussianBlur3176"/>
  </filter>
  <linearGradient gradientUnits="userSpaceOnUse" xlink:href="#linearGradient3874" id="linearGradient3188" y2="73.995" x2="0" y1="18"/>
  <linearGradient gradientUnits="userSpaceOnUse" xlink:href="#linearGradient3874" id="linearGradient4010" y2="58.47" x2="0" y1="6"/>
  <linearGradient gradientTransform="matrix(0.72,0,0,0.72,1.92,-5.52)" gradientUnits="userSpaceOnUse" xlink:href="#linearGradient3348" id="linearGradient4023" y2="32.01" x2="0" y1="17.736"/>
  <radialGradient gradientTransform="matrix(1.1573129,0,0,0.99590774,-7.551021,0.1971319)" gradientUnits="userSpaceOnUse" xlink:href="#linearGradient3874" id="radialGradient2874" r="42" cy="90.17" cx="48"/>
  <linearGradient gradientTransform="matrix(1.0058652,0,0,0.994169,0,12)" gradientUnits="userSpaceOnUse" xlink:href="#ButtonShadow" id="linearGradient3664" y2="5.297" x2="0" y1="80.47"/>
  <linearGradient gradientUnits="userSpaceOnUse" xlink:href="#ButtonShadow" id="linearGradient3671" y2="6.917" x2="0" y1="90.31"/>
  <linearGradient gradientTransform="matrix(1.0277778,0,0,1.0127315,-1.333333,0.03087963)" gradientUnits="userSpaceOnUse" xlink:href="#ButtonShadow" id="linearGradient3692" y2="6.917" x2="0" y1="90.31"/>
  <clipPath id="clipPath3860">
   <rect id="rect3862" y="18" x="6" rx="6" height="72" width="84" fill="#545454"/>
  </clipPath>
  <filter id="filter3870" color-interpolation-filters="sRGB" height="1.394" width="1.331" y="-0.197" x="-0.166">
   <feGaussianBlur stdDeviation="5.17031" id="feGaussianBlur3872"/>
  </filter>
  <linearGradient gradientUnits="userSpaceOnUse" xlink:href="#linearGradient3874" id="linearGradient3880" y2="88.35" x2="0" y1="22.933"/>
  <clipPath id="clipPath3821">
   <path id="path3823" d="m 18,24.09375 c -1.108,0 -2,0.892 -2,2 L 16,82.625 c 0,1.108 0.892,2 2,2 l 60.46875,0 c 1.108,0 2,-0.892 2,-2 l 0,-56.53125 c 0,-1.108 -0.892,-2 -2,-2 L 18,24.09375 z M 41.53125,32 c 3.97625,0 7.968383,1.510742 11,4.53125 5.285785,5.266415 5.961508,13.374852 2.03125,19.375 0.05134,1.019897 0.209565,2.665582 0.875,3.25 0.906046,0.79574 3.025354,-0.338596 4.40625,1.1875 L 69.375,70 c 0,0 1.877365,1.757721 -0.875,4.5 -2.752363,2.74228 -4.5,0.875 -4.5,0.875 L 54.46875,65.71875 C 52.937042,64.342917 54.04867,62.215227 53.25,61.3125 52.663431,60.649505 51.023644,60.51992 50,60.46875 c -6.022216,3.915858 -14.151715,3.203919 -19.4375,-2.0625 -6.063231,-6.041016 -6.063231,-15.833983 0,-21.875 C 33.594117,33.510742 37.555,32 41.53125,32 z m 0.0625,5.15625 c -2.858235,0 -5.438077,1.101196 -7.3125,2.96875 -1.874424,1.867554 -3.0625,4.495988 -3.0625,7.34375 0,5.695529 4.658533,10.312502 10.375,10.3125 5.716472,0 10.34375,-4.616971 10.34375,-10.3125 0,-5.695525 -4.627281,-10.3125 -10.34375,-10.3125 z"/>
  </clipPath>
  <filter id="filter3829" color-interpolation-filters="sRGB">
   <feGaussianBlur stdDeviation="0.66" id="feGaussianBlur3831"/>
  </filter>
  <linearGradient id="linearGradient3699-9">
   <stop id="stop3701-8" stop-color="#474747" stop-opacity="0.784"/>
   <stop offset="1" id="stop3703-2" stop-color="#474747" stop-opacity="0.392"/>
  </linearGradient>
  <linearGradient gradientTransform="matrix(2.5842336,0,0,2.5842336,18.116293,26.972805)" gradientUnits="userSpaceOnUse" xlink:href="#linearGradient3699-9" id="linearGradient3789" y2="1.833" x2="0" y1="18.869"/>
  <clipPath id="clipPath3840">
   <path id="path3842" d="m 30.547423,36.530762 c -6.063231,6.041017 -6.063231,15.846725 0,21.887741 5.285785,5.266419 13.428826,5.967834 19.451042,2.051976 1.023644,0.05117 2.674338,0.191995 3.260907,0.85499 0.79867,0.902727 -0.330319,3.013115 1.201389,4.388948 l 9.526129,9.652446 c 0,0 1.767144,1.887287 4.519507,-0.854993 2.752365,-2.742279 0.858137,-4.502947 0.858137,-4.502947 L 59.838402,60.35648 c -1.380896,-1.526096 -3.499043,-0.401246 -4.405089,-1.196986 -0.665435,-0.584418 -0.806789,-2.229066 -0.858134,-3.248963 3.930258,-6.000148 3.226264,-14.113354 -2.059521,-19.379769 -6.063234,-6.041016 -15.905001,-6.041016 -21.968235,0 z m 3.718583,3.590957 c 1.874423,-1.867554 4.464509,-2.963964 7.322744,-2.963964 5.716469,0 10.354817,4.621351 10.354817,10.316876 0,5.695529 -4.638345,10.31688 -10.354817,10.31688 -5.716467,2e-6 -10.354818,-4.621351 -10.354818,-10.31688 0,-2.847762 1.15765,-5.485358 3.032074,-7.352912 z"/>
  </clipPath>
  <filter id="filter3844" color-interpolation-filters="sRGB">
   <feGaussianBlur stdDeviation="0.44" id="feGaussianBlur3846"/>
  </filter>
  <linearGradient gradientTransform="matrix(1.0058652,0,0,0.994169,0,12)" gradientUnits="userSpaceOnUse" xlink:href="#ButtonShadow" id="linearGradient3664-458" y2="5.297" x2="0" y1="80.47"/>
  <linearGradient gradientTransform="matrix(1.0277778,0,0,1.0127315,-1.333333,0.03087963)" gradientUnits="userSpaceOnUse" xlink:href="#ButtonShadow" id="linearGradient3717-834" y2="6.917" x2="0" y1="90.31"/>
  <linearGradient gradientTransform="matrix(1.0277778,0,0,1.0127315,-1.333333,0.03087963)" gradientUnits="userSpaceOnUse" xlink:href="#ButtonShadow" id="linearGradient3709-945" y2="6.917" x2="0" y1="90.31"/>
  <linearGradient gradientTransform="matrix(1.0277778,0,0,1.0127315,-1.333333,0.03087963)" gradientUnits="userSpaceOnUse" xlink:href="#ButtonShadow" id="linearGradient3701-101" y2="6.917" x2="0" y1="90.31"/>
  <linearGradient gradientTransform="matrix(1.0277778,0,0,1.0127315,-1.333333,0.03087963)" gradientUnits="userSpaceOnUse" xlink:href="#ButtonShadow" id="linearGradient3692-26" y2="6.917" x2="0" y1="90.31"/>
  <linearGradient gradientUnits="userSpaceOnUse" xlink:href="#ButtonShadow" id="linearGradient3671-844" y2="6.917" x2="0" y1="90.31"/>
  <linearGradient gradientTransform="matrix(0.72,0,0,0.72,1.92,-5.52)" gradientUnits="userSpaceOnUse" xlink:href="#linearGradient3348" id="linearGradient4023-140" y2="32.01" x2="0" y1="17.736"/>
  <linearGradient gradientUnits="userSpaceOnUse" xlink:href="#linearGradient3874" id="linearGradient4010-369" y2="58.47" x2="0" y1="6"/>
  <linearGradient gradientUnits="userSpaceOnUse" xlink:href="#linearGradient3317" id="linearGradient3361-669" y2="85.82" x2="0" y1="25.911"/>
  <linearGradient gradientTransform="translate(0,12)" gradientUnits="userSpaceOnUse" xlink:href="#linearGradient3187" id="linearGradient3706-957" y2="5.988" x2="0" y1="78"/>
  <linearGradient gradientUnits="userSpaceOnUse" xlink:href="#linearGradient3874" id="linearGradient3188-922" y2="73.995" x2="0" y1="18"/>
  <radialGradient gradientTransform="matrix(1.1573129,0,0,0.99590774,-7.551021,0.1971319)" gradientUnits="userSpaceOnUse" xlink:href="#linearGradient3874" id="radialGradient2874-323" r="42" cy="90.17" cx="48"/>
  <linearGradient gradientUnits="userSpaceOnUse" xlink:href="#linearGradient3874" id="linearGradient3880-622" y2="88.35" x2="0" y1="22.933"/>
  <linearGradient gradientTransform="matrix(2.5842336,0,0,2.5842336,18.116293,26.972805)" gradientUnits="userSpaceOnUse" xlink:href="#linearGradient3699-9" id="linearGradient3789-471" y2="1.833" x2="0" y1="18.869"/>
  <linearGradient gradientTransform="matrix(1.0058652,0,0,0.994169,0,12)" gradientUnits="userSpaceOnUse" xlink:href="#ButtonShadow" id="linearGradient3664-458-153" y2="5.297" x2="0" y1="80.47"/>
  <linearGradient gradientTransform="matrix(1.0277778,0,0,1.0127315,-1.333333,0.03087963)" gradientUnits="userSpaceOnUse" xlink:href="#ButtonShadow" id="linearGradient3717-834-239" y2="6.917" x2="0" y1="90.31"/>
  <linearGradient gradientTransform="matrix(1.0277778,0,0,1.0127315,-1.333333,0.03087963)" gradientUnits="userSpaceOnUse" xlink:href="#ButtonShadow" id="linearGradient3709-945-772" y2="6.917" x2="0" y1="90.31"/>
  <linearGradient gradientTransform="matrix(1.0277778,0,0,1.0127315,-1.333333,0.03087963)" gradientUnits="userSpaceOnUse" xlink:href="#ButtonShadow" id="linearGradient3701-101-533" y2="6.917" x2="0" y1="90.31"/>
  <linearGradient gradientTransform="matrix(1.0277778,0,0,1.0127315,-1.333333,0.03087963)" gradientUnits="userSpaceOnUse" xlink:href="#ButtonShadow" id="linearGradient3692-26-990" y2="6.917" x2="0" y1="90.31"/>
  <linearGradient gradientUnits="userSpaceOnUse" xlink:href="#ButtonShadow" id="linearGradient3671-844-667" y2="6.917" x2="0" y1="90.31"/>
  <linearGradient gradientTransform="matrix(0.72,0,0,0.72,1.92,-5.52)" gradientUnits="userSpaceOnUse" xlink:href="#linearGradient3348-535-338" id="linearGradient4023-140-962" y2="32.01" x2="0" y1="17.736"/>
  <linearGradient id="linearGradient3348-535-338">
   <stop id="stop3550" stop-color="#6a6a6a"/>
   <stop offset="0.717" id="stop3552" stop-color="#535353"/>
   <stop offset="1" id="stop3554" stop-color="#414141"/>
  </linearGradient>
  <linearGradient gradientUnits="userSpaceOnUse" xlink:href="#linearGradient3737-170-403" id="linearGradient4010-369-594" y2="58.47" x2="0" y1="6"/>
  <linearGradient id="linearGradient3737-170-403">
   <stop id="stop3558" stop-color="#969696"/>
   <stop offset="1" id="stop3560" stop-color="#969696" stop-opacity="0"/>
  </linearGradient>
  <linearGradient gradientUnits="userSpaceOnUse" xlink:href="#linearGradient3317-329-134" id="linearGradient3361-669-407" y2="85.82" x2="0" y1="25.911"/>
  <linearGradient gradientTransform="scale(1.0598527,0.9435274)" gradientUnits="userSpaceOnUse" id="linearGradient3317-329-134" y2="20.14" x2="0" y1="3.213">
   <stop id="stop3564" stop-color="#4c4c4c"/>
   <stop offset="1" id="stop3566" stop-color="#3b3b3b"/>
  </linearGradient>
  <linearGradient gradientTransform="translate(0,12)" gradientUnits="userSpaceOnUse" xlink:href="#linearGradient3187-626-121" id="linearGradient3706-957-72" y2="5.988" x2="0" y1="78"/>
  <linearGradient id="linearGradient3187-626-121">
   <stop id="stop3570" stop-color="#535353"/>
   <stop offset="1" id="stop3572" stop-color="#636363"/>
  </linearGradient>
  <linearGradient gradientUnits="userSpaceOnUse" xlink:href="#linearGradient3737-170-403" id="linearGradient3188-922-58" y2="73.995" x2="0" y1="18"/>
  <radialGradient gradientTransform="matrix(1.1573129,0,0,0.99590774,-7.551021,0.1971319)" gradientUnits="userSpaceOnUse" xlink:href="#linearGradient3737-170-403" id="radialGradient2874-323-777" r="42" cy="90.17" cx="48"/>
  <linearGradient gradientUnits="userSpaceOnUse" xlink:href="#linearGradient3737-170-403" id="linearGradient3880-622-607" y2="88.35" x2="0" y1="22.933"/>
  <linearGradient gradientTransform="matrix(2.5842336,0,0,2.5842336,18.116293,26.972805)" gradientUnits="userSpaceOnUse" xlink:href="#linearGradient3699-9-379-345" id="linearGradient3789-471-102" y2="1.833" x2="0" y1="18.869"/>
  <linearGradient id="linearGradient3699-9-379-345">
   <stop id="stop3594" stop-color="#404040" stop-opacity="0.784"/>
   <stop offset="1" id="stop3596" stop-color="#404040" stop-opacity="0.392"/>
  </linearGradient>
  <linearGradient gradientTransform="matrix(1.0058652,0,0,0.994169,0,12)" gradientUnits="userSpaceOnUse" xlink:href="#ButtonShadow" id="linearGradient3664-458-153-562" y2="5.297" x2="0" y1="80.47"/>
  <linearGradient gradientTransform="matrix(1.0277778,0,0,1.0127315,-1.333333,0.03087963)" gradientUnits="userSpaceOnUse" xlink:href="#ButtonShadow" id="linearGradient3717-834-239-149" y2="6.917" x2="0" y1="90.31"/>
  <linearGradient gradientTransform="matrix(1.0277778,0,0,1.0127315,-1.333333,0.03087963)" gradientUnits="userSpaceOnUse" xlink:href="#ButtonShadow" id="linearGradient3709-945-772-900" y2="6.917" x2="0" y1="90.31"/>
  <linearGradient gradientTransform="matrix(1.0277778,0,0,1.0127315,-1.333333,0.03087963)" gradientUnits="userSpaceOnUse" xlink:href="#ButtonShadow" id="linearGradient3701-101-533-171" y2="6.917" x2="0" y1="90.31"/>
  <linearGradient gradientTransform="matrix(1.0277778,0,0,1.0127315,-1.333333,0.03087963)" gradientUnits="userSpaceOnUse" xlink:href="#ButtonShadow" id="linearGradient3692-26-990-404" y2="6.917" x2="0" y1="90.31"/>
  <linearGradient gradientUnits="userSpaceOnUse" xlink:href="#ButtonShadow" id="linearGradient3671-844-667-104" y2="6.917" x2="0" y1="90.31"/>
  <linearGradient gradientTransform="matrix(0.72,0,0,0.72,1.92,-5.52)" gradientUnits="userSpaceOnUse" xlink:href="#linearGradient3348-535-338-818" id="linearGradient4023-140-962-857" y2="32.01" x2="0" y1="17.736"/>
  <linearGradient id="linearGradient3348-535-338-818">
   <stop id="stop4048" stop-color="#5f5f5f"/>
   <stop offset="0.717" id="stop4050" stop-color="#4b4b4b"/>
   <stop offset="1" id="stop4052" stop-color="#3b3b3b"/>
  </linearGradient>
  <linearGradient gradientUnits="userSpaceOnUse" xlink:href="#linearGradient3737-170-403-557" id="linearGradient4010-369-594-391" y2="58.47" x2="0" y1="6"/>
  <linearGradient id="linearGradient3737-170-403-557">
   <stop id="stop4056" stop-color="#878787"/>
   <stop offset="1" id="stop4058" stop-color="#878787" stop-opacity="0"/>
  </linearGradient>
  <linearGradient gradientUnits="userSpaceOnUse" xlink:href="#linearGradient3317-329-134-77" id="linearGradient3361-669-407-479" y2="85.82" x2="0" y1="25.911"/>
  <linearGradient gradientTransform="scale(1.0598527,0.9435274)" gradientUnits="userSpaceOnUse" id="linearGradient3317-329-134-77" y2="20.14" x2="0" y1="3.213">
   <stop id="stop4062" stop-color="#444444"/>
   <stop offset="1" id="stop4064" stop-color="#353535"/>
  </linearGradient>
  <linearGradient gradientTransform="translate(0,12)" gradientUnits="userSpaceOnUse" xlink:href="#linearGradient3187-626-121-906" id="linearGradient3706-957-72-532" y2="5.988" x2="0" y1="78"/>
  <linearGradient id="linearGradient3187-626-121-906">
   <stop id="stop4068" stop-color="#4b4b4b"/>
   <stop offset="1" id="stop4070" stop-color="#595959"/>
  </linearGradient>
  <linearGradient gradientUnits="userSpaceOnUse" xlink:href="#linearGradient3737-170-403-557" id="linearGradient3188-922-58-289" y2="73.995" x2="0" y1="18"/>
  <radialGradient gradientTransform="matrix(1.1573129,0,0,0.99590774,-7.551021,0.1971319)" gradientUnits="userSpaceOnUse" xlink:href="#linearGradient3737-170-403-557" id="radialGradient2874-323-777-26" r="42" cy="90.17" cx="48"/>
  <linearGradient gradientUnits="userSpaceOnUse" xlink:href="#linearGradient3737-170-403-557" id="linearGradient3880-622-607-303" y2="88.35" x2="0" y1="22.933"/>
  <linearGradient gradientTransform="matrix(2.5842336,0,0,2.5842336,18.116293,26.972805)" gradientUnits="userSpaceOnUse" xlink:href="#linearGradient3699-9-379-345-184" id="linearGradient3789-471-102-81" y2="1.833" x2="0" y1="18.869"/>
  <linearGradient id="linearGradient3699-9-379-345-184">
   <stop id="stop4092" stop-color="#3a3a3a" stop-opacity="0.784"/>
   <stop offset="1" id="stop4094" stop-color="#3a3a3a" stop-opacity="0.392"/>
  </linearGradient>
  <linearGradient gradientTransform="matrix(1.0058652,0,0,0.994169,0,12)" gradientUnits="userSpaceOnUse" xlink:href="#ButtonShadow" id="linearGradient3664-458-153-562-895" y2="5.297" x2="0" y1="80.47"/>
  <linearGradient gradientTransform="matrix(1.0277778,0,0,1.0127315,-1.333333,0.03087963)" gradientUnits="userSpaceOnUse" xlink:href="#ButtonShadow" id="linearGradient3717-834-239-149-542" y2="6.917" x2="0" y1="90.31"/>
  <linearGradient gradientTransform="matrix(1.0277778,0,0,1.0127315,-1.333333,0.03087963)" gradientUnits="userSpaceOnUse" xlink:href="#ButtonShadow" id="linearGradient3709-945-772-900-295" y2="6.917" x2="0" y1="90.31"/>
  <linearGradient gradientTransform="matrix(1.0277778,0,0,1.0127315,-1.333333,0.03087963)" gradientUnits="userSpaceOnUse" xlink:href="#ButtonShadow" id="linearGradient3701-101-533-171-808" y2="6.917" x2="0" y1="90.31"/>
  <linearGradient gradientTransform="matrix(1.0277778,0,0,1.0127315,-1.333333,0.03087963)" gradientUnits="userSpaceOnUse" xlink:href="#ButtonShadow" id="linearGradient3692-26-990-404-813" y2="6.917" x2="0" y1="90.31"/>
  <linearGradient gradientUnits="userSpaceOnUse" xlink:href="#ButtonShadow" id="linearGradient3671-844-667-104-871" y2="6.917" x2="0" y1="90.31"/>
  <linearGradient gradientTransform="matrix(0.72,0,0,0.72,1.92,-5.52)" gradientUnits="userSpaceOnUse" xlink:href="#linearGradient3348-535-338-818-871" id="linearGradient4023-140-962-857-9" y2="32.01" x2="0" y1="17.736"/>
  <linearGradient id="linearGradient3348-535-338-818-871">
   <stop id="stop4660" stop-color="#565656"/>
   <stop offset="0.717" id="stop4662" stop-color="#444444"/>
   <stop offset="1" id="stop4664" stop-color="#353535"/>
  </linearGradient>
  <linearGradient gradientUnits="userSpaceOnUse" xlink:href="#linearGradient3737-170-403-557-455" id="linearGradient4010-369-594-391-480" y2="58.47" x2="0" y1="6"/>
  <linearGradient id="linearGradient3737-170-403-557-455">
   <stop id="stop4668" stop-color="#7a7a7a"/>
   <stop offset="1" id="stop4670" stop-color="#7a7a7a" stop-opacity="0"/>
  </linearGradient>
  <linearGradient gradientUnits="userSpaceOnUse" xlink:href="#linearGradient3317-329-134-77-89" id="linearGradient3361-669-407-479-803" y2="85.82" x2="0" y1="25.911"/>
  <linearGradient gradientTransform="scale(1.0598527,0.9435274)" gradientUnits="userSpaceOnUse" id="linearGradient3317-329-134-77-89" y2="20.14" x2="0" y1="3.213">
   <stop id="stop4674" stop-color="#3d3d3d"/>
   <stop offset="1" id="stop4676" stop-color="#303030"/>
  </linearGradient>
  <linearGradient gradientTransform="translate(0,12)" gradientUnits="userSpaceOnUse" xlink:href="#linearGradient3187-626-121-906-418" id="linearGradient3706-957-72-532-854" y2="5.988" x2="0" y1="78"/>
  <linearGradient id="linearGradient3187-626-121-906-418">
   <stop id="stop4680" stop-color="#444444"/>
   <stop offset="1" id="stop4682" stop-color="#505050"/>
  </linearGradient>
  <linearGradient gradientUnits="userSpaceOnUse" xlink:href="#linearGradient3737-170-403-557-455" id="linearGradient3188-922-58-289-461" y2="73.995" x2="0" y1="18"/>
  <radialGradient gradientTransform="matrix(1.1573129,0,0,0.99590774,-7.551021,0.1971319)" gradientUnits="userSpaceOnUse" xlink:href="#linearGradient3737-170-403-557-455" id="radialGradient2874-323-777-26-816" r="42" cy="90.17" cx="48"/>
  <linearGradient gradientUnits="userSpaceOnUse" xlink:href="#linearGradient3737-170-403-557-455" id="linearGradient3880-622-607-303-711" y2="88.35" x2="0" y1="22.933"/>
  <linearGradient gradientTransform="matrix(2.5842336,0,0,2.5842336,18.116293,26.972805)" gradientUnits="userSpaceOnUse" xlink:href="#linearGradient3699-9-379-345-184-347" id="linearGradient3789-471-102-81-506" y2="1.833" x2="0" y1="18.869"/>
  <linearGradient id="linearGradient3699-9-379-345-184-347">
   <stop id="stop4704" stop-color="#343434" stop-opacity="0.784"/>
   <stop offset="1" id="stop4706" stop-color="#343434" stop-opacity="0.392"/>
  </linearGradient>
  <linearGradient gradientTransform="matrix(1.0058652,0,0,0.994169,0,12)" gradientUnits="userSpaceOnUse" xlink:href="#ButtonShadow" id="linearGradient3664-458-153-562-895-699" y2="5.297" x2="0" y1="80.47"/>
  <linearGradient gradientTransform="matrix(1.0277778,0,0,1.0127315,-1.333333,0.03087963)" gradientUnits="userSpaceOnUse" xlink:href="#ButtonShadow" id="linearGradient3717-834-239-149-542-43" y2="6.917" x2="0" y1="90.31"/>
  <linearGradient gradientTransform="matrix(1.0277778,0,0,1.0127315,-1.333333,0.03087963)" gradientUnits="userSpaceOnUse" xlink:href="#ButtonShadow" id="linearGradient3709-945-772-900-295-302" y2="6.917" x2="0" y1="90.31"/>
  <linearGradient gradientTransform="matrix(1.0277778,0,0,1.0127315,-1.333333,0.03087963)" gradientUnits="userSpaceOnUse" xlink:href="#ButtonShadow" id="linearGradient3701-101-533-171-808-999" y2="6.917" x2="0" y1="90.31"/>
  <linearGradient gradientTransform="matrix(1.0277778,0,0,1.0127315,-1.333333,0.03087963)" gradientUnits="userSpaceOnUse" xlink:href="#ButtonShadow" id="linearGradient3692-26-990-404-813-98" y2="6.917" x2="0" y1="90.31"/>
  <linearGradient gradientUnits="userSpaceOnUse" xlink:href="#ButtonShadow" id="linearGradient3671-844-667-104-871-91" y2="6.917" x2="0" y1="90.31"/>
  <linearGradient gradientTransform="matrix(0.72,0,0,0.72,1.92,-5.52)" gradientUnits="userSpaceOnUse" xlink:href="#linearGradient3348-535-338-818-871-388" id="linearGradient4023-140-962-857-9-451" y2="32.01" x2="0" y1="17.736"/>
  <linearGradient id="linearGradient3348-535-338-818-871-388">
   <stop id="stop5386" stop-color="#4d4d4d"/>
   <stop offset="0.717" id="stop5388" stop-color="#3d3d3d"/>
   <stop offset="1" id="stop5390" stop-color="#303030"/>
  </linearGradient>
  <linearGradient gradientUnits="userSpaceOnUse" xlink:href="#linearGradient3737-170-403-557-455-830" id="linearGradient4010-369-594-391-480-388" y2="58.47" x2="0" y1="6"/>
  <linearGradient id="linearGradient3737-170-403-557-455-830">
   <stop id="stop5394" stop-color="#6e6e6e"/>
   <stop offset="1" id="stop5396" stop-color="#6e6e6e" stop-opacity="0"/>
  </linearGradient>
  <linearGradient gradientUnits="userSpaceOnUse" xlink:href="#linearGradient3317-329-134-77-89-93" id="linearGradient3361-669-407-479-803-230" y2="85.82" x2="0" y1="25.911"/>
  <linearGradient gradientTransform="scale(1.0598527,0.9435274)" gradientUnits="userSpaceOnUse" id="linearGradient3317-329-134-77-89-93" y2="20.14" x2="0" y1="3.213">
   <stop id="stop5400" stop-color="#373737"/>
   <stop offset="1" id="stop5402" stop-color="#2b2b2b"/>
  </linearGradient>
  <linearGradient gradientTransform="translate(0,12)" gradientUnits="userSpaceOnUse" xlink:href="#linearGradient3187-626-121-906-418-713" id="linearGradient3706-957-72-532-854-297" y2="5.988" x2="0" y1="78"/>
  <linearGradient id="linearGradient3187-626-121-906-418-713">
   <stop id="stop5406" stop-color="#3d3d3d"/>
   <stop offset="1" id="stop5408" stop-color="#484848"/>
  </linearGradient>
  <linearGradient gradientUnits="userSpaceOnUse" xlink:href="#linearGradient3737-170-403-557-455-830" id="linearGradient3188-922-58-289-461-906" y2="73.995" x2="0" y1="18"/>
  <radialGradient gradientTransform="matrix(1.1573129,0,0,0.99590774,-7.551021,0.1971319)" gradientUnits="userSpaceOnUse" xlink:href="#linearGradient3737-170-403-557-455-830" id="radialGradient2874-323-777-26-816-319" r="42" cy="90.17" cx="48"/>
  <linearGradient gradientUnits="userSpaceOnUse" xlink:href="#linearGradient3737-170-403-557-455-830" id="linearGradient3880-622-607-303-711-559" y2="88.35" x2="0" y1="22.933"/>
  <linearGradient gradientTransform="matrix(2.5842336,0,0,2.5842336,18.116293,26.972805)" gradientUnits="userSpaceOnUse" xlink:href="#linearGradient3699-9-379-345-184-347-699" id="linearGradient3789-471-102-81-506-433" y2="1.833" x2="0" y1="18.869"/>
  <linearGradient id="linearGradient3699-9-379-345-184-347-699">
   <stop id="stop5430" stop-color="#2f2f2f" stop-opacity="0.784"/>
   <stop offset="1" id="stop5432" stop-color="#2f2f2f" stop-opacity="0.392"/>
  </linearGradient>
 </defs>
 <metadata id="metadata2413"/>
 <g sodipodi:insensitive="true" id="layer4">
  <path inkscape:connector-curvature="0" id="path3715" transform="matrix(0.99728997,0,0,0.99862826,0.1300813,0.00548697)" d="M 13.96875,4 C 10.667823,4 7.875,6.6931198 7.875,10.03125 l 0,7.0625 c -3.4360632,1.560695 -6,4.840711 -6,8.90625 l 0,59 c 0,5.561299 4.5637001,10.125 10.125,10.125 l 72,0 c 5.561299,0 10.125,-4.563701 10.125,-10.125 l 0,-59 c 0,-4.090756 -2.593768,-7.389362 -6.0625,-8.9375 -0.160383,-3.993445 -3.473555,-7.21875 -7.5,-7.21875 l -42.5,0 L 37.4375,8.625 C 37.135051,8.028958 36.735432,7.0401877 35.9375,6.0625 35.034313,4.9558457 33.554045,4 31.71875,4 l -17.75,0 z" opacity="0.08" fill="url(#linearGradient3717-834-239-149-542-43)"/>
  <path inkscape:connector-curvature="0" id="path3707" transform="matrix(0.99653979,0,0,0.99789769,0.16608997,0.04169587)" d="m 13.96875,4.96875 c -2.783187,0 -5.125,2.2572798 -5.125,5.0625 l 0,7.3125 0,0.3125 c -3.4368535,1.290325 -6,4.439736 -6,8.34375 l 0,59 c 0,5.039918 4.1163315,9.15625 9.15625,9.15625 l 72,0 c 5.039918,0 9.15625,-4.116332 9.15625,-9.15625 l 0,-59 c 0,-3.904014 -2.563147,-7.053425 -6,-8.34375 l 0,-0.3125 c 0,-3.602656 -2.985437,-6.53125 -6.59375,-6.53125 l -43.09375,0 -0.875,-1.75 C 36.26366,8.4119848 35.884179,7.5098749 35.1875,6.65625 34.437476,5.737263 33.22926,4.96875 31.71875,4.96875 l -17.75,0 z" opacity="0.1" fill="url(#linearGradient3709-945-772-900-295-302)"/>
  <path inkscape:connector-curvature="0" id="path3698" transform="matrix(0.99716714,0,0,0.99856528,0.13597734,0.00860832)" d="M 13.96875,6 C 11.736726,6 9.875,7.7965069 9.875,10.03125 l 0,7.3125 0,0.96875 c -3.4279042,0.950944 -6,3.959493 -6,7.6875 l 0,59 c 0,4.483833 3.6411665,8.125 8.125,8.125 l 72,0 c 4.483833,0 8.125,-3.641167 8.125,-8.125 l 0,-59 c 0,-3.728007 -2.572096,-6.736556 -6,-7.6875 l 0,-0.96875 c 0,-3.037808 -2.505776,-5.5 -5.5625,-5.5 l -43.71875,0 -1.15625,-2.3125 C 35.33448,8.8355471 34.9882,8.0255499 34.40625,7.3125 33.8243,6.5994501 32.873904,6 31.71875,6 l -17.75,0 z" opacity="0.2" fill="url(#linearGradient3701-101-533-171-808-999)"/>
  <path id="path3679" inkscape:connector-curvature="0" d="M 13.96875,7.125 C 12.32891,7.125 11,8.4154163 11,10.03125 l 0,7.3125 0,1.75 C 7.602692,19.579354 5,22.464233 5,26 l 0,59 c 0,3.878 3.122,7 7,7 l 72,0 c 3.878,0 7,-3.122 7,-7 l 0,-59 c 0,-3.535767 -2.602692,-6.420646 -6,-6.90625 l 0,-1.75 c 0,-2.42375 -1.97774,-4.375 -4.4375,-4.375 l -44.40625,0 -1.46875,-2.9375 C 33.954141,8.5860044 33.35859,7.125 31.71875,7.125 l -17.75,0 z" opacity="0.3" fill="url(#linearGradient3692-26-990-404-813-98)"/>
  <path id="path2885" inkscape:connector-curvature="0" d="M 14.875,7 C 13.27948,7 12,8.27948 12,9.875 L 12,17.09375 12,19 c -3.324,0 -6,2.676 -6,6 l 0,60 c 0,3.324 2.676,6 6,6 l 72,0 c 3.324,0 6,-2.676 6,-6 l 0,-60 c 0,-3.324 -2.676,-6 -6,-6 l 0,-1.90625 C 84,14.70047 82.08078,12.75 79.6875,12.75 l -43.21875,0 -1.4375,-2.875 C 34.317712,8.4479235 33.75177,7 32.15625,7 L 14.875,7 z" opacity="0.45" fill="url(#linearGradient3671-844-667-104-871-91)"/>
 </g>
 <g id="layer3">
  <path id="rect3325" inkscape:connector-curvature="0" d="M 14.88,6 C 13.28448,6 12,7.28448 12,8.88 l 0,7.2 0,50.4 0,4.32 c 0,2.39328 1.92672,4.32 4.32,4.32 l 63.36,0 c 2.39328,0 4.32,-1.92672 4.32,-4.32 l 0,-54.72 c 0,-2.39328 -1.92672,-4.32 -4.32,-4.32 l -43.2,0 -1.44,-2.88 C 34.326462,7.4529235 33.75552,6 32.16,6 L 14.88,6 z" fill="url(#linearGradient4023-140-962-857-9-451)"/>
  <path id="path3997" inkscape:connector-curvature="0" d="M 14.875,6 C 13.27948,6 12,7.27948 12,8.875 l 0,7.21875 0,50.375 0,4.34375 c 0,2.393277 1.91922,4.3125 4.3125,4.3125 l 63.375,0 C 82.08078,75.124997 84,73.20578 84,70.8125 L 84,16.09375 C 84,13.70047 82.08078,11.75 79.6875,11.75 l -43.21875,0 -1.4375,-2.875 C 34.317711,7.4479234 33.75177,6 32.15625,6 L 14.875,6 z m 0,1.9375 17.28125,0 c 0.48716,0 0.660447,0.1126732 0.96875,0.5 0.308303,0.3873268 0.629671,1.0718434 1,1.8125 l 1.4375,2.875 c 0.173379,0.341986 0.522842,0.558894 0.90625,0.5625 l 43.21875,0 c 1.835408,0 3.28125,1.468154 3.28125,3.3125 l 0,54.71875 c 0,1.844346 -1.436902,3.281248 -3.28125,3.28125 l -63.375,0 c -1.844346,0 -3.28125,-1.436907 -3.28125,-3.28125 l 0,-4.34375 0,-50.375 0,-7.21875 c 0,-1.0465864 0.797164,-1.84375 1.84375,-1.84375 z" opacity="0.3" fill="url(#linearGradient4010-369-594-391-480-388)"/>
  <rect id="rect3352" y="23.14" x="10.536" rx="6" height="62.68" width="75" fill="url(#linearGradient3361-669-407-479-803-230)"/>
 </g>
 <g id="layer1">
  <rect id="rect2419" y="18" x="6" rx="6" height="72" width="84" fill="url(#linearGradient3706-957-72-532-854-297)"/>
  <path id="rect3728" inkscape:connector-curvature="0" d="m 12,18 c -3.324,0 -6,2.676 -6,6 l 0,2 0,56 0,2 c 0,0.334721 0.04135,0.6507 0.09375,0.96875 0.0487,0.295596 0.09704,0.596915 0.1875,0.875 0.00988,0.03038 0.020892,0.0636 0.03125,0.09375 0.098865,0.287771 0.2348802,0.547452 0.375,0.8125 0.1445918,0.273507 0.3156161,0.535615 0.5,0.78125 0.1843839,0.245635 0.3737765,0.473472 0.59375,0.6875 0.439947,0.428056 0.94291,0.814526 1.5,1.09375 0.278545,0.139612 0.5734731,0.246947 0.875,0.34375 -0.2562018,-0.100222 -0.4867109,-0.236272 -0.71875,-0.375 -0.00741,-0.0044 -0.023866,0.0045 -0.03125,0 -0.031933,-0.0193 -0.062293,-0.04251 -0.09375,-0.0625 -0.120395,-0.0767 -0.2310226,-0.163513 -0.34375,-0.25 -0.1061728,-0.0808 -0.2132809,-0.161112 -0.3125,-0.25 C 8.4783201,88.557317 8.3087904,88.373362 8.15625,88.1875 8.0486711,88.057245 7.9378561,87.922215 7.84375,87.78125 7.818661,87.74287 7.805304,87.69538 7.78125,87.65625 7.716487,87.553218 7.6510225,87.451733 7.59375,87.34375 7.4927417,87.149044 7.3880752,86.928049 7.3125,86.71875 7.30454,86.69694 7.288911,86.6782 7.28125,86.65625 7.2494249,86.5643 7.2454455,86.469419 7.21875,86.375 7.1884177,86.268382 7.1483606,86.171969 7.125,86.0625 7.0521214,85.720988 7,85.364295 7,85 L 7,83 7,27 7,25 c 0,-2.781848 2.2181517,-5 5,-5 l 2,0 68,0 2,0 c 2.781848,0 5,2.218152 5,5 l 0,2 0,56 0,2 c 0,0.364295 -0.05212,0.720988 -0.125,1.0625 -0.04415,0.206893 -0.08838,0.397658 -0.15625,0.59375 -0.0077,0.02195 -0.0233,0.04069 -0.03125,0.0625 -0.06274,0.173739 -0.138383,0.367449 -0.21875,0.53125 -0.04158,0.0828 -0.07904,0.169954 -0.125,0.25 -0.0546,0.09721 -0.126774,0.18835 -0.1875,0.28125 -0.09411,0.140965 -0.204921,0.275995 -0.3125,0.40625 -0.143174,0.17445 -0.303141,0.346998 -0.46875,0.5 -0.01117,0.0102 -0.01998,0.02115 -0.03125,0.03125 -0.138386,0.125556 -0.285091,0.234436 -0.4375,0.34375 -0.102571,0.07315 -0.204318,0.153364 -0.3125,0.21875 -0.0074,0.0045 -0.02384,-0.0044 -0.03125,0 -0.232039,0.138728 -0.462548,0.274778 -0.71875,0.375 0.301527,-0.0968 0.596455,-0.204138 0.875,-0.34375 0.55709,-0.279224 1.060053,-0.665694 1.5,-1.09375 0.219973,-0.214028 0.409366,-0.441865 0.59375,-0.6875 0.184384,-0.245635 0.355408,-0.507743 0.5,-0.78125 0.14012,-0.265048 0.276135,-0.524729 0.375,-0.8125 0.01041,-0.03078 0.02133,-0.06274 0.03125,-0.09375 0.09046,-0.278085 0.1388,-0.579404 0.1875,-0.875 C 89.95865,84.6507 90,84.334721 90,84 l 0,-2 0,-56 0,-2 c 0,-3.324 -2.676,-6 -6,-6 l -72,0 z" opacity="0.5" fill="url(#linearGradient3188-922-58-289-461-906)"/>
  <path id="path3615" inkscape:connector-curvature="0" d="M 12,90 C 8.676,90 6,87.324 6,84 L 6,82 6,26 6,24 c 0,-0.334721 0.04135,-0.6507 0.09375,-0.96875 0.0487,-0.295596 0.09704,-0.596915 0.1875,-0.875 0.00988,-0.03038 0.020892,-0.0636 0.03125,-0.09375 0.098865,-0.287771 0.2348802,-0.547452 0.375,-0.8125 0.1445918,-0.273507 0.3156161,-0.535615 0.5,-0.78125 0.1843839,-0.245635 0.3737765,-0.473472 0.59375,-0.6875 0.439947,-0.428056 0.94291,-0.814526 1.5,-1.09375 0.278545,-0.139612 0.5734731,-0.246947 0.875,-0.34375 -0.2562018,0.100222 -0.4867109,0.236272 -0.71875,0.375 -0.00741,0.0044 -0.023866,-0.0045 -0.03125,0 -0.031933,0.0193 -0.062293,0.04251 -0.09375,0.0625 -0.120395,0.0767 -0.2310226,0.163513 -0.34375,0.25 -0.1061728,0.0808 -0.2132809,0.161112 -0.3125,0.25 -0.1779299,0.161433 -0.3474596,0.345388 -0.5,0.53125 -0.1075789,0.130255 -0.2183939,0.265285 -0.3125,0.40625 -0.025089,0.03838 -0.038446,0.08587 -0.0625,0.125 -0.064763,0.103032 -0.1302275,0.204517 -0.1875,0.3125 -0.1010083,0.194706 -0.2056748,0.415701 -0.28125,0.625 C 7.30454,21.30306 7.288911,21.3218 7.28125,21.34375 7.2494249,21.4357 7.2454455,21.530581 7.21875,21.625 7.1884177,21.731618 7.1483606,21.828031 7.125,21.9375 7.0521214,22.279012 7,22.635705 7,23 l 0,2 0,56 0,2 c 0,2.781848 2.2181517,5 5,5 l 2,0 68,0 2,0 c 2.781848,0 5,-2.218152 5,-5 l 0,-2 0,-56 0,-2 c 0,-0.364295 -0.05212,-0.720988 -0.125,-1.0625 -0.04415,-0.206893 -0.08838,-0.397658 -0.15625,-0.59375 -0.0077,-0.02195 -0.0233,-0.04069 -0.03125,-0.0625 -0.06274,-0.173739 -0.138383,-0.367449 -0.21875,-0.53125 -0.04158,-0.0828 -0.07904,-0.169954 -0.125,-0.25 -0.0546,-0.09721 -0.126774,-0.18835 -0.1875,-0.28125 -0.09411,-0.140965 -0.204921,-0.275995 -0.3125,-0.40625 -0.143174,-0.17445 -0.303141,-0.346998 -0.46875,-0.5 -0.01117,-0.0102 -0.01998,-0.02115 -0.03125,-0.03125 -0.138386,-0.125556 -0.285091,-0.234436 -0.4375,-0.34375 -0.102571,-0.07315 -0.204318,-0.153364 -0.3125,-0.21875 -0.0074,-0.0045 -0.02384,0.0044 -0.03125,0 -0.232039,-0.138728 -0.462548,-0.274778 -0.71875,-0.375 0.301527,0.0968 0.596455,0.204138 0.875,0.34375 0.55709,0.279224 1.060053,0.665694 1.5,1.09375 0.219973,0.214028 0.409366,0.441865 0.59375,0.6875 0.184384,0.245635 0.355408,0.507743 0.5,0.78125 0.14012,0.265048 0.276135,0.524729 0.375,0.8125 0.01041,0.03078 0.02133,0.06274 0.03125,0.09375 0.09046,0.278085 0.1388,0.579404 0.1875,0.875 C 89.95865,23.3493 90,23.665279 90,24 l 0,2 0,56 0,2 c 0,3.324 -2.676,6 -6,6 l -72,0 z" opacity="0.2" fill="url(#radialGradient2874-323-777-26-816-319)"/>
 </g>
 <g id="layer5">
  <path id="path3850" clip-path="url(#clipPath3860)" d="m 15.96875,22.53125 a 5.4456496,5.4456496 0 0 0 -5.4375,5.4375 l 0,52.0625 a 5.4456496,5.4456496 0 0 0 5.4375,5.4375 l 64.0625,0 a 5.4456496,5.4456496 0 0 0 5.4375,-5.4375 l 0,-52.0625 a 5.4456496,5.4456496 0 0 0 -5.4375,-5.4375 l -64.0625,0 z" opacity="0.15" fill="url(#linearGradient3880-622-607-303-711-559)" filter="url(#filter3870)"/>
 </g>
 <g id="layer6">
  <path id="path3810" clip-path="url(#clipPath3821)" inkscape:connector-curvature="0" d="m 30.547423,36.530762 c -6.063231,6.041017 -6.063231,15.846725 0,21.887741 5.285785,5.266419 13.428826,5.967834 19.451042,2.051976 1.023644,0.05117 2.674338,0.191995 3.260907,0.85499 0.79867,0.902727 -0.330319,3.013115 1.201389,4.388948 l 9.526129,9.652446 c 0,0 1.767144,1.887287 4.519507,-0.854993 2.752365,-2.742279 0.858137,-4.502947 0.858137,-4.502947 L 59.838402,60.35648 c -1.380896,-1.526096 -3.499043,-0.401246 -4.405089,-1.196986 -0.665435,-0.584418 -0.806789,-2.229066 -0.858134,-3.248963 3.930258,-6.000148 3.226264,-14.113354 -2.059521,-19.379769 -6.063234,-6.041016 -15.905001,-6.041016 -21.968235,0 z m 3.718583,3.590957 c 1.874423,-1.867554 4.464509,-2.963964 7.322744,-2.963964 5.716469,0 10.354817,4.621351 10.354817,10.316876 0,5.695529 -4.638345,10.31688 -10.354817,10.31688 -5.716467,2e-6 -10.354818,-4.621351 -10.354818,-10.31688 0,-2.847762 1.15765,-5.485358 3.032074,-7.352912 z" opacity="0.3" fill="none" filter="url(#filter3829)" stroke="#a7a7a7" stroke-width="2"/>
  <rect id="rect2942" y="8" x="104" rx="2" height="16" width="16" fill="#1c1c1c" stroke="#000000" stroke-width="0.2"/>
  <flowRoot id="flowRoot3716" transform="translate(136.36243,0.2823802)" font-family="Liberation Sans" text-align="start" line-height="125%" font-size="4">
   <flowRegion id="flowRegion3718">
    <rect id="rect3720" y="8.05" x="-12.463" height="15.489" width="28.463"/>
   </flowRegion>
   <flowPara id="flowPara3722">Glow : 2</flowPara>
   <flowPara id="flowPara3724">Opacity : 35%</flowPara>
   <flowPara id="flowPara3774">Width : 1px</flowPara>
  </flowRoot>
  <rect id="rect3726" y="28" x="104" rx="2" height="16" width="16" fill="#a7a7a7" stroke="#000000" stroke-width="0.2"/>
  <flowRoot id="flowRoot3728" transform="translate(136.36243,20.28238)" font-family="Liberation Sans" text-align="start" line-height="125%" font-size="4">
   <flowRegion id="flowRegion3730">
    <rect id="rect3732" y="8.05" x="-12.463" height="15.489" width="28.463"/>
   </flowRegion>
   <flowPara id="flowPara3734">Glow : 3</flowPara>
   <flowPara id="flowPara3736">Opacity : 30%</flowPara>
   <flowPara id="flowPara3776">Width : 1.5px</flowPara>
  </flowRoot>
  <path id="Symbol" inkscape:connector-curvature="0" d="m 30.547424,36.530762 c -6.063231,6.041017 -6.063231,15.846725 0,21.887741 5.285784,5.266419 13.428825,5.967834 19.451041,2.051976 1.023644,0.05117 2.674338,0.191995 3.260907,0.85499 0.79867,0.902727 -0.330319,3.013115 1.201389,4.388948 l 9.526129,9.652446 c 0,0 1.767144,1.887287 4.519507,-0.854993 2.752365,-2.742279 0.858137,-4.502947 0.858137,-4.502947 L 59.838402,60.35648 c -1.380896,-1.526096 -3.499043,-0.401246 -4.405089,-1.196986 -0.665435,-0.584418 -0.806789,-2.229066 -0.858134,-3.248963 3.930258,-6.000148 3.226264,-14.113354 -2.059521,-19.379769 -6.063234,-6.041016 -15.905001,-6.041016 -21.968234,0 z m 3.718582,3.590957 c 1.874423,-1.867554 4.464509,-2.963964 7.322744,-2.963964 5.716469,0 10.354817,4.621351 10.354817,10.316876 0,5.695529 -4.638345,10.31688 -10.354817,10.31688 -5.716467,2e-6 -10.354817,-4.621351 -10.354817,-10.31688 0,-2.847762 1.15765,-5.485358 3.032073,-7.352912 z" opacity="0.9" fill="url(#linearGradient3789-471-102-81-506-433)"/>
  <path id="path3792" clip-path="url(#clipPath3840)" inkscape:connector-curvature="0" d="m 30.547423,37.030762 c -6.063231,6.041017 -6.063231,15.846725 0,21.887741 5.285785,5.266419 13.428826,5.967834 19.451042,2.051976 1.023644,0.05117 2.674338,0.191995 3.260907,0.85499 0.79867,0.902727 -0.330319,3.013115 1.201389,4.388948 l 9.526129,9.652446 c 0,0 1.767144,1.887287 4.519507,-0.854993 2.752365,-2.742279 0.858137,-4.502947 0.858137,-4.502947 L 59.838402,60.85648 c -1.380896,-1.526096 -3.499043,-0.401246 -4.405089,-1.196986 -0.665435,-0.584418 -0.806789,-2.229066 -0.858134,-3.248963 3.930258,-6.000148 3.226264,-14.113354 -2.059521,-19.379769 -6.063234,-6.041016 -15.905001,-6.041016 -21.968235,0 z m 3.718583,3.590957 c 1.874423,-1.867554 4.464509,-2.963964 7.322744,-2.963964 5.716469,0 10.354817,4.621351 10.354817,10.316876 0,5.695529 -4.638345,10.31688 -10.354817,10.31688 -5.716467,2e-6 -10.354818,-4.621351 -10.354818,-10.31688 0,-2.847762 1.15765,-5.485358 3.032074,-7.352912 z" opacity="0.35" fill="none" filter="url(#filter3844)" stroke="#1c1c1c"/>
 </g>
</svg>
