<?xml version="1.0" encoding="UTF-8" standalone="no"?>
<svg xmlns:dc="http://purl.org/dc/elements/1.1/" xmlns:cc="http://creativecommons.org/ns#" xmlns:rdf="http://www.w3.org/1999/02/22-rdf-syntax-ns#" xmlns:svg="http://www.w3.org/2000/svg" xmlns="http://www.w3.org/2000/svg" xmlns:sodipodi="http://sodipodi.sourceforge.net/DTD/sodipodi-0.dtd" xmlns:inkscape="http://www.inkscape.org/namespaces/inkscape" viewBox="0 0 512 512" height="512" width="512" version="1.1" id="svg2" inkscape:version="0.91 r" sodipodi:docname="folder-android.svg">
<sodipodi:namedview pagecolor="#ffffff" bordercolor="#666666" borderopacity="1" objecttolerance="10" gridtolerance="10" guidetolerance="10" inkscape:pageopacity="0" inkscape:pageshadow="2" inkscape:window-width="640" inkscape:window-height="480" id="namedview21" showgrid="false" inkscape:zoom="0.4609375" inkscape:cx="256" inkscape:cy="256" inkscape:window-x="0" inkscape:window-y="0" inkscape:window-maximized="0" inkscape:current-layer="svg2" />
<metadata id="metadata487">
<rdf:RDF>
<cc:Work rdf:about="">
<dc:format>image/svg+xml</dc:format>
<dc:type rdf:resource="http://purl.org/dc/dcmitype/StillImage" />
</cc:Work>
</rdf:RDF>
</metadata>
<defs id="defs4">
<linearGradient y1="121.74" x2="0" y2="453.24" id="0-8" gradientUnits="userSpaceOnUse" gradientTransform="translate(0.0012,14.341)">
<stop id="stop7-0" stop-color="#6a6a6a" />
<stop id="stop9-0" offset="0.47" />
<stop id="stop11-6" offset="0.494" stop-color="#ffffff" />
<stop id="stop13-8" offset="0.901" stop-color="#ffffff" />
<stop id="stop15-9" offset="0.955" />
<stop id="stop17-3" offset="1" />
</linearGradient>
</defs>
<path id="path115" d="m 108.6312,71.711 c -7.963,0 -15.228,2.293 -20.693,6.22 -4.545,3.266 -7.751,7.872 -8.752,13.13 l -11.909,0 c -16.447,0 -29.883,13.03 -29.883,29.2 l 0,66.736 c 0,16.17 13.436,29.19 29.883,29.19 l 377.47,0 c 16.447,0 29.883,-13.03 29.883,-29.19 l 0,-66.736 c 0,-16.17 -13.436,-29.2 -29.883,-29.2 l -262.91,0 c -1,-5.256 -4.208,-9.862 -8.753,-13.13 -5.465,-3.927 -12.73,-6.22 -20.693,-6.22 l -43.761,0" fill="#cccccc" fill-rule="evenodd" />
<path id="path117" d="m 37.3612,132.801 c -19.928,0 -38.06,15.818 -36.23,35.853 l 24.26,265.41 c 1.733,18.966 16.271,34.947 36.2,34.947 l 383.41,0 c 19.933,0 34.1,-16.05 36.2,-34.853 l 29.632,-265.41 c 1.123,-10.05 -3.137,-19.263 -9.971,-25.663 -6.833,-6.399 -16.258,-10.284 -26.22,-10.284 l -437.27,0" fill="#949494" fill-rule="evenodd" />
<path id="path125" d="m 108.5512,71.631 c -7.963,0 -15.11,2.403 -20.572,6.33 -4.545,3.266 -7.702,7.931 -8.703,13.187 l -12.13,0 c -17.677,0 -29.802,12.771 -29.802,30.661 l 0,3.956 c 0,-16.17 13.355,-29.27 29.802,-29.27 l 14.286,0 c 1,-5.256 2,-9.657 6.549,-12.923 5.465,-3.927 12.609,-6.33 20.572,-6.33 l 43.78,0 c 7.963,0 15.371,2.403 20.835,6.33 4.545,3.266 5.766,7.668 6.769,12.923 l 264.88,0 c 16.447,0 29.802,11.455 29.802,27.625 l 0,-3.956 c 0,-16.17 -13.355,-29.01 -29.802,-29.01 l -262.95,0 c -1,-5.256 -4.159,-9.921 -8.703,-13.187 -5.465,-3.927 -12.872,-6.33 -20.835,-6.33 z" opacity="0.764" fill="#ffffff" fill-rule="evenodd" />
<path id="path127" d="m 37.3512,132.791 c -19.928,0 -38.05,15.84 -36.22,35.875 l 0.406,4.375 c 3,-15.936 18.732,-27.563 35.813,-27.563 l 437.28,0 c 9.966,0 19.386,3.882 26.22,10.281 4.736,4.435 8.234,10.208 9.563,16.688 l 0.406,-3.688 c 1.123,-10.05 -3.134,-19.288 -9.969,-25.688 -6.833,-6.399 -16.252,-10.281 -26.22,-10.281 l -437.28,0" opacity="0.4" fill="#ffffff" fill-rule="evenodd" />
<path d="m 255.7012,42.95 c -78.54,0 -147.4,41.505 -186.06,103.81 39.37,-60.683 107.99,-100.87 186.06,-100.87 78.07,0 146.69,40.19 186.06,100.88 C 403.09719,84.46 334.2412,42.96 255.7012,42.96" id="path465" fill="#fff8eb" fill-opacity="0.271" />
<path d="m 237.5637,187.9035 c -0.45353,-0.0342 -0.91627,0.0344 -1.375,0.1875 -1.82104,0.61601 -2.80169,2.57829 -2.1875,4.40625 l 5.03125,14.875 2.21875,6.625 2.28125,6.71875 c -32.21124,5.66076 -58.34556,25.73958 -66.09375,54.65625 l 188.90625,50.625 c 7.74633,-28.9097 -4.87212,-59.36702 -29.9375,-80.375 l 5.34375,-4.6875 5.25,-4.625 11.78125,-10.34375 c 1.44584,-1.27598 1.60397,-3.48841 0.34375,-4.9375 -1.288,-1.45653 -3.48282,-1.59357 -4.9375,-0.3125 l -12.65625,11.125 -5.3125,4.65625 -5.375,4.75 c -10.92685,-7.99261 -23.83009,-14.3092 -38.1875,-18.15625 -14.34349,-3.84333 -28.63456,-4.83339 -42.09375,-3.375 l -2.28125,-6.78125 -2.28125,-6.6875 -5.40625,-15.96875 c -0.4606,-1.37096 -1.67067,-2.27232 -3.03125,-2.375 z m 3.375,54.375 c 1.03101,-0.0402 2.07456,0.0623 3.125,0.34375 5.58849,1.49743 8.90367,7.22403 7.40625,12.8125 -1.49743,5.58847 -7.22402,8.93493 -12.8125,7.4375 -5.60236,-1.50115 -8.93493,-7.25529 -7.4375,-12.84375 1.21665,-4.54063 5.25105,-7.57575 9.71875,-7.75 z m 174.75,10.40625 c -8.9265,0.35316 -16.96991,6.43868 -19.40625,15.53125 l -23.1875,86.59375 c -2.99299,11.16997 3.62864,22.65954 14.8125,25.65625 11.16999,2.99299 22.66326,-3.67377 25.65625,-14.84375 l 23.1875,-86.5625 c 2.99671,-11.1839 -3.64251,-22.66326 -14.8125,-25.65625 -2.09698,-0.56188 -4.19004,-0.80025 -6.25,-0.71875 z M 321.8762,263.966 c 1.02928,-0.0407 2.07716,0.063 3.125,0.34375 5.6024,1.50116 8.93492,7.25528 7.4375,12.84375 -1.49743,5.58847 -7.24135,8.90741 -12.84375,7.40625 -5.58849,-1.49743 -8.90368,-7.25528 -7.40625,-12.84375 1.21664,-4.54063 5.22726,-7.57375 9.6875,-7.75 z m -188.0625,15.15625 c -8.92449,0.3537 -16.93865,6.43868 -19.375,15.53125 l -23.21875,86.59375 c -2.99299,11.16998 3.63556,22.6614 14.8125,25.65625 11.16997,2.99298 22.69452,-3.64253 25.6875,-14.8125 l 23.1875,-86.59375 c 2.99672,-11.18389 -3.63556,-22.6614 -14.8125,-25.65625 -2.09567,-0.56153 -4.22175,-0.80037 -6.28125,-0.71875 z m 40,9.75 -4.5,16.84375 -3.6875,13.71875 -26.875,100.34375 202.46875,0 13.31249,-49.71875 3.6875,-13.75 4.5,-16.8125 -1.4375,-0.40625 -185.99999,-49.8125 -1.46875,-0.40625 z" id="path3554" fill="#ffffff" />
</svg>
