<?xml version="1.0" encoding="UTF-8" standalone="no"?>
<svg xmlns:dc="http://purl.org/dc/elements/1.1/" xmlns:cc="http://creativecommons.org/ns#" xmlns:rdf="http://www.w3.org/1999/02/22-rdf-syntax-ns#" xmlns:svg="http://www.w3.org/2000/svg" xmlns="http://www.w3.org/2000/svg" xmlns:sodipodi="http://sodipodi.sourceforge.net/DTD/sodipodi-0.dtd" xmlns:inkscape="http://www.inkscape.org/namespaces/inkscape" viewBox="0 0 512 512" height="512" width="512" version="1.1" id="svg2" inkscape:version="0.91 r" sodipodi:docname="folder-development.svg">
<sodipodi:namedview pagecolor="#ffffff" bordercolor="#666666" borderopacity="1" objecttolerance="10" gridtolerance="10" guidetolerance="10" inkscape:pageopacity="0" inkscape:pageshadow="2" inkscape:window-width="640" inkscape:window-height="480" id="namedview23" showgrid="false" inkscape:zoom="0.4609375" inkscape:cx="256" inkscape:cy="256" inkscape:window-x="0" inkscape:window-y="0" inkscape:window-maximized="0" inkscape:current-layer="svg2" />
<metadata id="metadata513">
<rdf:RDF>
<cc:Work rdf:about="">
<dc:format>image/svg+xml</dc:format>
<dc:type rdf:resource="http://purl.org/dc/dcmitype/StillImage" />
</cc:Work>
</rdf:RDF>
</metadata>
<defs id="defs4">
<linearGradient gradientUnits="userSpaceOnUse" id="0-0" y2="453.24" x2="0" y1="121.74" gradientTransform="translate(0.0012,5e-4)">
<stop id="stop7-8" stop-color="#6a6a6a" />
<stop offset="0.47" id="stop9-7" />
<stop offset="0.494" id="stop11-4" stop-color="#ffffff" />
<stop offset="0.901" id="stop13-5" stop-color="#ffffff" />
<stop offset="0.955" id="stop15-9" />
<stop offset="1" id="stop17-0" />
</linearGradient>
</defs>
<g id="g113" transform="translate(0.0012,5e-4)" fill-rule="evenodd">
<path id="path115" d="m 108.63,57.37 c -7.963,0 -15.228,2.293 -20.693,6.22 -4.545,3.266 -7.751,7.872 -8.752,13.13 l -11.909,0 c -16.447,0 -29.883,13.03 -29.883,29.2 l 0,66.736 c 0,16.17 13.436,29.19 29.883,29.19 l 377.47,0 c 16.447,0 29.883,-13.03 29.883,-29.19 l 0,-66.736 c 0,-16.17 -13.436,-29.2 -29.883,-29.2 l -262.91,0 c -1,-5.256 -4.208,-9.862 -8.753,-13.13 -5.465,-3.927 -12.73,-6.22 -20.693,-6.22 l -43.761,0" fill="#cccccc" />
<path id="path117" d="m 37.36,118.46 c -19.928,0 -38.06,15.818 -36.23,35.853 l 24.26,265.41 c 1.733,18.966 16.271,34.947 36.2,34.947 l 383.41,0 c 19.933,0 34.1,-16.05 36.2,-34.853 l 29.632,-265.41 c 1.123,-10.05 -3.137,-19.263 -9.971,-25.663 -6.833,-6.399 -16.258,-10.284 -26.22,-10.284 l -437.27,0" fill="#949494" />
</g>
<g id="g121" transform="translate(0.0012,5e-4)" fill="#ffffff" fill-rule="evenodd">
<path id="path125" d="m 108.55,57.29 c -7.963,0 -15.11,2.403 -20.572,6.33 -4.545,3.266 -7.702,7.931 -8.703,13.187 l -12.13,0 c -17.677,0 -29.802,12.771 -29.802,30.661 l 0,3.956 c 0,-16.17 13.355,-29.27 29.802,-29.27 l 14.286,0 c 1,-5.256 2,-9.657 6.549,-12.923 5.465,-3.927 12.609,-6.33 20.572,-6.33 l 43.78,0 c 7.963,0 15.371,2.403 20.835,6.33 4.545,3.266 5.766,7.668 6.769,12.923 l 264.88,0 c 16.447,0 29.802,11.455 29.802,27.625 l 0,-3.956 c 0,-16.17 -13.355,-29.01 -29.802,-29.01 l -262.95,0 c -1,-5.256 -4.159,-9.921 -8.703,-13.187 -5.465,-3.927 -12.872,-6.33 -20.835,-6.33 z" opacity="0.764" />
<path id="path127" d="m 37.35,118.45 c -19.928,0 -38.05,15.84 -36.22,35.875 l 0.406,4.375 c 3,-15.936 18.732,-27.563 35.813,-27.563 l 437.28,0 c 9.966,0 19.386,3.882 26.22,10.281 4.736,4.435 8.234,10.208 9.563,16.688 l 0.406,-3.688 c 1.123,-10.05 -3.134,-19.288 -9.969,-25.688 -6.833,-6.399 -16.252,-10.281 -26.22,-10.281 l -437.28,0" opacity="0.4" />
</g>
<path style="fill:#ffffff;fill-rule:evenodd" inkscape:connector-curvature="0" d="m 223.5712,161.5805 c -25.785,0 -46.705,20.92 -46.705,46.705 0,25.785 20.92,46.512 46.705,46.512 25.785,0 46.512,-20.726 46.512,-46.512 0,-25.785 -20.726,-46.705 -46.512,-46.705 m 159.11,16.473 -53.682,121.71 21.318,8.915 23.256,-49.22 0,60.853 -8.14,0 0,11.822 -6.977,0 0,-12.984 -24.22,0 0,-2.326 -32.558,-14.729 -58.14,-3.101 c -2.311,-5.071 -5.113,-10.1 -8.915,-14.922 -3.66,-4.762 -7.286,-9.244 -9.884,-13.76 -5.611,-6.159 -12.492,-10.652 -22.481,-12.403 -1.806,-0.195 -3.615,-0.246 -5.426,-0.193 -5.433,0.157 -10.781,1.511 -15.31,3.876 -6.992,5.068 -11.99,13.843 -15.31,23.45 -3.068,9.416 -4.716,19.558 -6.202,29.07 -1.586,14.264 -0.936,28.06 2.907,43.02 4.479,18.654 11.571,37.14 17.442,54.46 l 83.33,0 c -1.062,-11.821 -3.262,-34.673 -4.07,-39.922 -1.038,-6.744 -5.101,-30.15 -5.62,-34.3 -0.74,-3.674 -1.412,-7.168 -2.132,-10.659 l 79.65,0 0,5.426 -52.907,0 0,18.605 30.426,0 0,60.853 19.961,0 0,-60.853 103.88,0 0,-18.605 -24.03,0 0,-11.822 -20.736,0 0,-91.67 17.636,-37.4 -23.06,-13.178 m -296.71,20.15 c -0.792,0.232 -1.653,0.853 -2.326,1.55 -10.768,11.162 -1.662,78.76 20.349,151.16 7.01,23.05 14.41,43.43 21.705,60.66 l 40.12,0 c -3.542,-27.728 -11.347,-63.707 -22.674,-100.97 -20.635,-67.878 -45.3,-115.88 -57.17,-112.4" id="path509" />
</svg>
