<?xml version="1.0" encoding="UTF-8" standalone="no"?>
<svg xmlns:dc="http://purl.org/dc/elements/1.1/" xmlns:cc="http://creativecommons.org/ns#" xmlns:rdf="http://www.w3.org/1999/02/22-rdf-syntax-ns#" xmlns:svg="http://www.w3.org/2000/svg" xmlns="http://www.w3.org/2000/svg" xmlns:sodipodi="http://sodipodi.sourceforge.net/DTD/sodipodi-0.dtd" xmlns:inkscape="http://www.inkscape.org/namespaces/inkscape" viewBox="0 0 512 512" height="512" width="512" version="1.1" id="svg2" inkscape:version="0.91 r" sodipodi:docname="xfce-ui.svg">
<sodipodi:namedview pagecolor="#ffffff" bordercolor="#666666" borderopacity="1" objecttolerance="10" gridtolerance="10" guidetolerance="10" inkscape:pageopacity="0" inkscape:pageshadow="2" inkscape:window-width="733" inkscape:window-height="480" id="namedview23" showgrid="false" inkscape:zoom="0.4609375" inkscape:cx="20.610169" inkscape:cy="256" inkscape:window-x="0" inkscape:window-y="0" inkscape:window-maximized="0" inkscape:current-layer="svg2" />
<metadata id="metadata581">
<rdf:RDF>
<cc:Work rdf:about="">
<dc:format>image/svg+xml</dc:format>
<dc:type rdf:resource="http://purl.org/dc/dcmitype/StillImage" />
</cc:Work>
</rdf:RDF>
</metadata>
<defs id="defs4">
<linearGradient gradientUnits="userSpaceOnUse" id="0-4" y2="471.66" x2="0" y1="33.753">
<stop id="stop7-2" stop-color="#6a6a6a" />
<stop offset="0.47" id="stop9-2" />
<stop offset="0.494" id="stop11-2" stop-color="#ffffff" />
<stop offset="0.901" id="stop13-2" stop-color="#ffffff" />
<stop offset="0.955" id="stop15-7" />
<stop offset="1" id="stop17-3" />
</linearGradient>
</defs>
<path d="m 471.95,253.05 c 0,120.9 -98.01,218.91 -218.91,218.91 -120.9,0 -218.91,-98.01 -218.91,-218.91 0,-120.9 98.01,-218.91 218.91,-218.91 120.9,0 218.91,98.01 218.91,218.91" id="path21" fill="#949494" fill-rule="evenodd" />
<path d="m 124.651,326.16 0,52.64 262.7,0 0,-52.64 -262.7,0 m 49.38,11.753 c 8.532,0 15.449,6.917 15.449,15.449 0,8.532 -6.917,15.449 -15.449,15.449 -8.532,0 -15.449,-6.917 -15.449,-15.449 0,-8.532 6.917,-15.449 15.449,-15.449 m 54.671,0 c 8.532,0 15.449,6.917 15.449,15.449 0,8.532 -6.917,15.449 -15.449,15.449 -8.532,0 -15.449,-6.917 -15.449,-15.449 0,-8.532 6.917,-15.449 15.449,-15.449 m 54.638,0 c 8.532,0 15.449,6.917 15.449,15.449 0,8.532 -6.917,15.449 -15.449,15.449 -8.532,0 -15.449,-6.917 -15.449,-15.449 0,-8.532 6.917,-15.449 15.449,-15.449 m 54.638,0 c 8.532,0 15.449,6.917 15.449,15.449 0,8.532 -6.917,15.449 -15.449,15.449 -8.532,0 -15.449,-6.917 -15.449,-15.449 0,-8.532 6.917,-15.449 15.449,-15.449" id="path465" fill="#ffffff" color="#000000" />
<path d="m 157.481,163.63 0,125.2 207.5,0 0,-125.2 -207.5,0" id="path467" fill="#ffffff" color="#000000" />
<path d="m 157.471,133.2 207.51,0 0,17.293 -207.51,0 z" id="path469" fill="#ffffff" color="#000000" />
</svg>
