<?xml version="1.0" encoding="UTF-8" standalone="no"?>
<svg xmlns="http://www.w3.org/2000/svg" xmlns:xlink="http://www.w3.org/1999/xlink" xmlns:sodipodi="http://sodipodi.sourceforge.net/DTD/sodipodi-0.dtd" xmlns:inkscape="http://www.inkscape.org/namespaces/inkscape" version="1.0" width="96" height="96">
 <defs id="defs2410">
  <linearGradient id="linearGradient3974">
   <stop id="stop3976" stop-color="#8a8a8a"/>
   <stop id="stop3978" offset="0.717" stop-color="#707070"/>
   <stop id="stop3980" offset="1" stop-color="#555555"/>
  </linearGradient>
  <linearGradient id="linearGradient3968">
   <stop id="stop3970" stop-color="#737373"/>
   <stop id="stop3972" offset="1" stop-color="#8e8e8e"/>
  </linearGradient>
  <linearGradient id="linearGradient3948">
   <stop id="stop3950" stop-opacity="0.569"/>
   <stop id="stop3952" offset="0.07" stop-opacity="0"/>
   <stop id="stop3954" offset="0.203" stop-color="#282828" stop-opacity="0.09"/>
   <stop id="stop3956" offset="0.266" stop-color="#595959" stop-opacity="0.137"/>
   <stop id="stop3958" offset="0.35" stop-color="#7a7a7a" stop-opacity="0.184"/>
   <stop id="stop3960" offset="0.439" stop-color="#4d4d4d" stop-opacity="0.137"/>
   <stop id="stop3962" offset="0.498" stop-color="#252525" stop-opacity="0.09"/>
   <stop id="stop3964" offset="0.659" stop-color="#5b5b5b" stop-opacity="0.192"/>
   <stop id="stop3966" offset="1" stop-color="#1b1b1b" stop-opacity="0.61"/>
  </linearGradient>
  <linearGradient y1="80.47" x2="0" y2="7.02" id="ButtonShadow" gradientUnits="userSpaceOnUse" gradientTransform="matrix(1.0058652,0,0,0.994169,0,12)">
   <stop id="stop3750"/>
   <stop id="stop3752" offset="1" stop-opacity="0.588"/>
  </linearGradient>
  <linearGradient id="linearGradient3737">
   <stop id="stop3739" stop-color="#a7a7a7"/>
   <stop id="stop3741" offset="1" stop-color="#a7a7a7" stop-opacity="0"/>
  </linearGradient>
  <linearGradient y1="78" x2="0" y2="5.988" id="linearGradient3706" xlink:href="#linearGradient3968" gradientUnits="userSpaceOnUse" gradientTransform="translate(0,12)"/>
  <filter color-interpolation-filters="sRGB" id="filter3174">
   <feGaussianBlur id="feGaussianBlur3176" stdDeviation="1.71"/>
  </filter>
  <linearGradient y1="18" x2="0" y2="73.995" id="linearGradient3188" xlink:href="#linearGradient3737" gradientUnits="userSpaceOnUse"/>
  <linearGradient y1="6" x2="0" y2="58.47" id="linearGradient4010" xlink:href="#linearGradient3737" gradientUnits="userSpaceOnUse"/>
  <linearGradient y1="80.47" x2="0" y2="5.297" id="linearGradient4018" xlink:href="#ButtonShadow" gradientUnits="userSpaceOnUse" gradientTransform="matrix(1.0058652,0,0,0.994169,0,12)"/>
  <linearGradient y1="17.736" x2="0" y2="32.01" id="linearGradient4023" xlink:href="#linearGradient3974" gradientUnits="userSpaceOnUse" gradientTransform="matrix(0.72,0,0,0.72,1.92,-5.52)"/>
  <linearGradient y1="0.481" x2="0" y2="96.02" id="linearGradient2600" xlink:href="#linearGradient3948" gradientUnits="userSpaceOnUse" gradientTransform="matrix(0.7053571,0,0,0.7053571,34.928572,14.589286)"/>
  <radialGradient cx="48" cy="90.17" r="42" id="radialGradient3662" xlink:href="#linearGradient3737" gradientUnits="userSpaceOnUse" gradientTransform="matrix(1.1573129,0,0,0.99590774,-7.551021,0.197132)"/>
  <linearGradient y1="90.31" x2="0" y2="6.917" id="linearGradient3671" xlink:href="#ButtonShadow" gradientUnits="userSpaceOnUse"/>
  <linearGradient y1="90.31" x2="0" y2="6.917" id="linearGradient3692" xlink:href="#ButtonShadow" gradientUnits="userSpaceOnUse" gradientTransform="matrix(1.0277778,0,0,1.0127315,-1.333333,0.03087956)"/>
  <filter x="-0.295" y="-0.462" width="1.59" height="1.923" color-interpolation-filters="sRGB" id="filter3179-4">
   <feGaussianBlur id="feGaussianBlur3181-0" stdDeviation="6.69643"/>
  </filter>
  <linearGradient y1="80.47" x2="0" y2="5.297" id="linearGradient4018-567" xlink:href="#ButtonShadow" gradientUnits="userSpaceOnUse" gradientTransform="matrix(1.0058652,0,0,0.994169,0,12)"/>
  <linearGradient y1="17.736" x2="0" y2="32.01" id="linearGradient4023-207" xlink:href="#linearGradient3974-438" gradientUnits="userSpaceOnUse" gradientTransform="matrix(0.72,0,0,0.72,1.92,-5.52)"/>
  <linearGradient id="linearGradient3974-438">
   <stop id="stop3109" stop-color="#7c7c7c"/>
   <stop id="stop3111" offset="0.717" stop-color="#656565"/>
   <stop id="stop3113" offset="1" stop-color="#4d4d4d"/>
  </linearGradient>
  <linearGradient y1="6" x2="0" y2="58.47" id="linearGradient4010-446" xlink:href="#linearGradient3737-81" gradientUnits="userSpaceOnUse"/>
  <linearGradient id="linearGradient3737-81">
   <stop id="stop3117" stop-color="#969696"/>
   <stop id="stop3119" offset="1" stop-color="#969696" stop-opacity="0"/>
  </linearGradient>
  <linearGradient y1="78" x2="0" y2="5.988" id="linearGradient3706-404" xlink:href="#linearGradient3968-275" gradientUnits="userSpaceOnUse" gradientTransform="translate(0,12)"/>
  <linearGradient id="linearGradient3968-275">
   <stop id="stop3123" stop-color="#686868"/>
   <stop id="stop3125" offset="1" stop-color="#808080"/>
  </linearGradient>
  <linearGradient y1="18" x2="0" y2="73.995" id="linearGradient3188-317" xlink:href="#linearGradient3737-81" gradientUnits="userSpaceOnUse"/>
  <radialGradient cx="48" cy="90.17" r="42" id="radialGradient3662-441" xlink:href="#linearGradient3737-81" gradientUnits="userSpaceOnUse" gradientTransform="matrix(1.1573129,0,0,0.99590774,-7.551021,0.197132)"/>
  <linearGradient y1="0.481" x2="0" y2="96.02" id="linearGradient2600-985" xlink:href="#linearGradient3948-766" gradientUnits="userSpaceOnUse" gradientTransform="matrix(0.7053571,0,0,0.7053571,34.928572,14.589286)"/>
  <linearGradient id="linearGradient3948-766">
   <stop id="stop3141" stop-opacity="0.569"/>
   <stop id="stop3143" offset="0.07" stop-opacity="0"/>
   <stop id="stop3145" offset="0.203" stop-color="#242424" stop-opacity="0.09"/>
   <stop id="stop3147" offset="0.266" stop-color="#505050" stop-opacity="0.137"/>
   <stop id="stop3149" offset="0.35" stop-color="#6e6e6e" stop-opacity="0.184"/>
   <stop id="stop3151" offset="0.439" stop-color="#454545" stop-opacity="0.137"/>
   <stop id="stop3153" offset="0.498" stop-color="#212121" stop-opacity="0.09"/>
   <stop id="stop3155" offset="0.659" stop-color="#525252" stop-opacity="0.192"/>
   <stop id="stop3157" offset="1" stop-color="#181818" stop-opacity="0.61"/>
  </linearGradient>
  <linearGradient y1="80.47" x2="0" y2="5.297" id="linearGradient4018-567-951" xlink:href="#ButtonShadow" gradientUnits="userSpaceOnUse" gradientTransform="matrix(1.0058652,0,0,0.994169,0,12)"/>
  <linearGradient y1="17.736" x2="0" y2="32.01" id="linearGradient4023-207-294" xlink:href="#linearGradient3974-438-753" gradientUnits="userSpaceOnUse" gradientTransform="matrix(0.72,0,0,0.72,1.92,-5.52)"/>
  <linearGradient id="linearGradient3974-438-753">
   <stop id="stop3387" stop-color="#707070"/>
   <stop id="stop3389" offset="0.717" stop-color="#5b5b5b"/>
   <stop id="stop3391" offset="1" stop-color="#454545"/>
  </linearGradient>
  <linearGradient y1="6" x2="0" y2="58.47" id="linearGradient4010-446-906" xlink:href="#linearGradient3737-81-427" gradientUnits="userSpaceOnUse"/>
  <linearGradient id="linearGradient3737-81-427">
   <stop id="stop3395" stop-color="#878787"/>
   <stop id="stop3397" offset="1" stop-color="#878787" stop-opacity="0"/>
  </linearGradient>
  <linearGradient y1="78" x2="0" y2="5.988" id="linearGradient3706-404-41" xlink:href="#linearGradient3968-275-333" gradientUnits="userSpaceOnUse" gradientTransform="translate(0,12)"/>
  <linearGradient id="linearGradient3968-275-333">
   <stop id="stop3401" stop-color="#5e5e5e"/>
   <stop id="stop3403" offset="1" stop-color="#737373"/>
  </linearGradient>
  <linearGradient y1="18" x2="0" y2="73.995" id="linearGradient3188-317-509" xlink:href="#linearGradient3737-81-427" gradientUnits="userSpaceOnUse"/>
  <radialGradient cx="48" cy="90.17" r="42" id="radialGradient3662-441-916" xlink:href="#linearGradient3737-81-427" gradientUnits="userSpaceOnUse" gradientTransform="matrix(1.1573129,0,0,0.99590774,-7.551021,0.197132)"/>
  <linearGradient y1="0.481" x2="0" y2="96.02" id="linearGradient2600-985-982" xlink:href="#linearGradient3948-766-911" gradientUnits="userSpaceOnUse" gradientTransform="matrix(0.7053571,0,0,0.7053571,34.928572,14.589286)"/>
  <linearGradient id="linearGradient3948-766-911">
   <stop id="stop3419" stop-opacity="0.569"/>
   <stop id="stop3421" offset="0.07" stop-opacity="0"/>
   <stop id="stop3423" offset="0.203" stop-color="#202020" stop-opacity="0.09"/>
   <stop id="stop3425" offset="0.266" stop-color="#484848" stop-opacity="0.137"/>
   <stop id="stop3427" offset="0.35" stop-color="#636363" stop-opacity="0.184"/>
   <stop id="stop3429" offset="0.439" stop-color="#3e3e3e" stop-opacity="0.137"/>
   <stop id="stop3431" offset="0.498" stop-color="#1e1e1e" stop-opacity="0.09"/>
   <stop id="stop3433" offset="0.659" stop-color="#4a4a4a" stop-opacity="0.192"/>
   <stop id="stop3435" offset="1" stop-color="#161616" stop-opacity="0.61"/>
  </linearGradient>
  <linearGradient y1="80.47" x2="0" y2="5.297" id="linearGradient4018-567-951-546" xlink:href="#ButtonShadow" gradientUnits="userSpaceOnUse" gradientTransform="matrix(1.0058652,0,0,0.994169,0,12)"/>
  <linearGradient y1="17.736" x2="0" y2="32.01" id="linearGradient4023-207-294-283" xlink:href="#linearGradient3974-438-753-181" gradientUnits="userSpaceOnUse" gradientTransform="matrix(0.72,0,0,0.72,1.92,-5.52)"/>
  <linearGradient id="linearGradient3974-438-753-181">
   <stop id="stop3737" stop-color="#656565"/>
   <stop id="stop3740" offset="0.717" stop-color="#525252"/>
   <stop id="stop3742" offset="1" stop-color="#3e3e3e"/>
  </linearGradient>
  <linearGradient y1="6" x2="0" y2="58.47" id="linearGradient4010-446-906-258" xlink:href="#linearGradient3737-81-427-145" gradientUnits="userSpaceOnUse"/>
  <linearGradient id="linearGradient3737-81-427-145">
   <stop id="stop3746" stop-color="#7a7a7a"/>
   <stop id="stop3748" offset="1" stop-color="#7a7a7a" stop-opacity="0"/>
  </linearGradient>
  <linearGradient y1="78" x2="0" y2="5.988" id="linearGradient3706-404-41-725" xlink:href="#linearGradient3968-275-333-912" gradientUnits="userSpaceOnUse" gradientTransform="translate(0,12)"/>
  <linearGradient id="linearGradient3968-275-333-912">
   <stop id="stop3753" stop-color="#555555"/>
   <stop id="stop3755" offset="1" stop-color="#686868"/>
  </linearGradient>
  <linearGradient y1="18" x2="0" y2="73.995" id="linearGradient3188-317-509-909" xlink:href="#linearGradient3737-81-427-145" gradientUnits="userSpaceOnUse"/>
  <radialGradient cx="48" cy="90.17" r="42" id="radialGradient3662-441-916-652" xlink:href="#linearGradient3737-81-427-145" gradientUnits="userSpaceOnUse" gradientTransform="matrix(1.1573129,0,0,0.99590774,-7.551021,0.197132)"/>
  <linearGradient y1="0.481" x2="0" y2="96.02" id="linearGradient2600-985-982-471" xlink:href="#linearGradient3948-766-911-725" gradientUnits="userSpaceOnUse" gradientTransform="matrix(0.7053571,0,0,0.7053571,34.928572,14.589286)"/>
  <linearGradient id="linearGradient3948-766-911-725">
   <stop id="stop3771" stop-opacity="0.569"/>
   <stop id="stop3773" offset="0.07" stop-opacity="0"/>
   <stop id="stop3775" offset="0.203" stop-color="#1d1d1d" stop-opacity="0.09"/>
   <stop id="stop3777" offset="0.266" stop-color="#414141" stop-opacity="0.137"/>
   <stop id="stop3779" offset="0.35" stop-color="#595959" stop-opacity="0.184"/>
   <stop id="stop3781" offset="0.439" stop-color="#383838" stop-opacity="0.137"/>
   <stop id="stop3783" offset="0.498" stop-color="#1b1b1b" stop-opacity="0.09"/>
   <stop id="stop3785" offset="0.659" stop-color="#434343" stop-opacity="0.192"/>
   <stop id="stop3787" offset="1" stop-color="#141414" stop-opacity="0.61"/>
  </linearGradient>
  <linearGradient y1="80.47" x2="0" y2="5.297" id="linearGradient4018-567-951-546-763" xlink:href="#ButtonShadow" gradientUnits="userSpaceOnUse" gradientTransform="matrix(1.0058652,0,0,0.994169,0,12)"/>
  <linearGradient y1="17.736" x2="0" y2="32.01" id="linearGradient4023-207-294-283-901" xlink:href="#linearGradient3974-438-753-181-92" gradientUnits="userSpaceOnUse" gradientTransform="matrix(0.72,0,0,0.72,1.92,-5.52)"/>
  <linearGradient id="linearGradient3974-438-753-181-92">
   <stop id="stop4161" stop-color="#5b5b5b"/>
   <stop id="stop4163" offset="0.717" stop-color="#4a4a4a"/>
   <stop id="stop4165" offset="1" stop-color="#383838"/>
  </linearGradient>
  <linearGradient y1="6" x2="0" y2="58.47" id="linearGradient4010-446-906-258-703" xlink:href="#linearGradient3737-81-427-145-353" gradientUnits="userSpaceOnUse"/>
  <linearGradient id="linearGradient3737-81-427-145-353">
   <stop id="stop4169" stop-color="#6e6e6e"/>
   <stop id="stop4171" offset="1" stop-color="#6e6e6e" stop-opacity="0"/>
  </linearGradient>
  <linearGradient y1="78" x2="0" y2="5.988" id="linearGradient3706-404-41-725-637" xlink:href="#linearGradient3968-275-333-912-889" gradientUnits="userSpaceOnUse" gradientTransform="translate(0,12)"/>
  <linearGradient id="linearGradient3968-275-333-912-889">
   <stop id="stop4175" stop-color="#4d4d4d"/>
   <stop id="stop4177" offset="1" stop-color="#5e5e5e"/>
  </linearGradient>
  <linearGradient y1="18" x2="0" y2="73.995" id="linearGradient3188-317-509-909-654" xlink:href="#linearGradient3737-81-427-145-353" gradientUnits="userSpaceOnUse"/>
  <radialGradient cx="48" cy="90.17" r="42" id="radialGradient3662-441-916-652-448" xlink:href="#linearGradient3737-81-427-145-353" gradientUnits="userSpaceOnUse" gradientTransform="matrix(1.1573129,0,0,0.99590774,-7.551021,0.197132)"/>
  <linearGradient y1="0.481" x2="0" y2="96.02" id="linearGradient2600-985-982-471-519" xlink:href="#linearGradient3948-766-911-725-19" gradientUnits="userSpaceOnUse" gradientTransform="matrix(0.7053571,0,0,0.7053571,34.928572,14.589286)"/>
  <linearGradient id="linearGradient3948-766-911-725-19">
   <stop id="stop4193" stop-opacity="0.569"/>
   <stop id="stop4195" offset="0.07" stop-opacity="0"/>
   <stop id="stop4197" offset="0.203" stop-color="#1a1a1a" stop-opacity="0.09"/>
   <stop id="stop4199" offset="0.266" stop-color="#3b3b3b" stop-opacity="0.137"/>
   <stop id="stop4201" offset="0.35" stop-color="#505050" stop-opacity="0.184"/>
   <stop id="stop4203" offset="0.439" stop-color="#323232" stop-opacity="0.137"/>
   <stop id="stop4205" offset="0.498" stop-color="#181818" stop-opacity="0.09"/>
   <stop id="stop4207" offset="0.659" stop-color="#3c3c3c" stop-opacity="0.192"/>
   <stop id="stop4209" offset="1" stop-color="#121212" stop-opacity="0.61"/>
  </linearGradient>
 </defs>
 <metadata id="metadata2413"/>
 <g id="layer6" fill="#444444">
  <path d="M 13.96875,4 C 10.667823,4 7.875,6.6931198 7.875,10.03125 l 0,7.0625 c -3.4360632,1.560695 -6,4.840711 -6,8.90625 l 0,59 c 0,5.561299 4.5637001,10.125 10.125,10.125 l 72,0 c 5.561299,0 10.125,-4.563701 10.125,-10.125 l 0,-59 c 0,-4.090756 -2.593768,-7.389362 -6.0625,-8.9375 -0.160383,-3.993445 -3.473555,-7.21875 -7.5,-7.21875 l -42.5,0 L 37.4375,8.625 C 37.135051,8.028958 36.735432,7.0401877 35.9375,6.0625 35.034313,4.9558457 33.554045,4 31.71875,4 l -17.75,0 z" transform="matrix(0.99728997,0,0,0.99862826,0.13008131,0.00548696)" id="path3715" opacity="0.08"/>
  <path d="m 13.96875,4.96875 c -2.783187,0 -5.125,2.2572798 -5.125,5.0625 l 0,7.3125 0,0.3125 c -3.4368535,1.290325 -6,4.439736 -6,8.34375 l 0,59 c 0,5.039918 4.1163315,9.15625 9.15625,9.15625 l 72,0 c 5.039918,0 9.15625,-4.116332 9.15625,-9.15625 l 0,-59 c 0,-3.904014 -2.563147,-7.053425 -6,-8.34375 l 0,-0.3125 c 0,-3.602656 -2.985437,-6.53125 -6.59375,-6.53125 l -43.09375,0 -0.875,-1.75 C 36.26366,8.4119848 35.884179,7.5098749 35.1875,6.65625 34.437476,5.737263 33.22926,4.96875 31.71875,4.96875 l -17.75,0 z" transform="matrix(0.99653979,0,0,0.99789769,0.16609001,0.04169586)" id="path3707" opacity="0.1"/>
  <path d="M 13.96875,6 C 11.736726,6 9.875,7.7965069 9.875,10.03125 l 0,7.3125 0,0.96875 c -3.4279042,0.950944 -6,3.959493 -6,7.6875 l 0,59 c 0,4.483833 3.6411665,8.125 8.125,8.125 l 72,0 c 4.483833,0 8.125,-3.641167 8.125,-8.125 l 0,-59 c 0,-3.728007 -2.572096,-6.736556 -6,-7.6875 l 0,-0.96875 c 0,-3.037808 -2.505776,-5.5 -5.5625,-5.5 l -43.71875,0 -1.15625,-2.3125 C 35.33448,8.8355471 34.9882,8.0255499 34.40625,7.3125 33.8243,6.5994501 32.873904,6 31.71875,6 l -17.75,0 z" transform="matrix(0.99716714,0,0,0.99856528,0.13597731,0.00860826)" id="path3698" opacity="0.2"/>
  <path d="M 13.96875,7.125 C 12.32891,7.125 11,8.4154163 11,10.03125 l 0,7.3125 0,1.75 C 7.602692,19.579354 5,22.464233 5,26 l 0,59 c 0,3.878 3.122,7 7,7 l 72,0 c 3.878,0 7,-3.122 7,-7 l 0,-59 c 0,-3.535767 -2.602692,-6.420646 -6,-6.90625 l 0,-1.75 c 0,-2.42375 -1.97774,-4.375 -4.4375,-4.375 l -44.40625,0 -1.46875,-2.9375 C 33.954141,8.5860044 33.35859,7.125 31.71875,7.125 l -17.75,0 z" inkscape:connector-curvature="0" id="path3679" opacity="0.3"/>
  <path d="M 14.875,7 C 13.27948,7 12,8.27948 12,9.875 L 12,17.09375 12,19 c -3.324,0 -6,2.676 -6,6 l 0,60 c 0,3.324 2.676,6 6,6 l 72,0 c 3.324,0 6,-2.676 6,-6 l 0,-60 c 0,-3.324 -2.676,-6 -6,-6 l 0,-1.90625 C 84,14.70047 82.08078,12.75 79.6875,12.75 l -43.21875,0 -1.4375,-2.875 C 34.317712,8.4479235 33.75177,7 32.15625,7 L 14.875,7 z" inkscape:connector-curvature="0" id="path2885" opacity="0.45"/>
 </g>
 <g id="layer3">
  <path d="M 14.88,6 C 13.28448,6 12,7.28448 12,8.88 l 0,7.2 0,50.4 0,4.32 c 0,2.39328 1.92672,4.32 4.32,4.32 l 63.36,0 c 2.39328,0 4.32,-1.92672 4.32,-4.32 l 0,-54.72 c 0,-2.39328 -1.92672,-4.32 -4.32,-4.32 l -43.2,0 -1.44,-2.88 C 34.326462,7.4529235 33.75552,6 32.16,6 L 14.88,6 z" inkscape:connector-curvature="0" id="rect3325" fill="url(#linearGradient4023-207-294-283-901)"/>
  <path d="M 14.875,6 C 13.27948,6 12,7.27948 12,8.875 l 0,7.21875 0,50.375 0,4.34375 c 0,2.393277 1.91922,4.3125 4.3125,4.3125 l 63.375,0 C 82.08078,75.124997 84,73.20578 84,70.8125 L 84,16.09375 C 84,13.70047 82.08078,11.75 79.6875,11.75 l -43.21875,0 -1.4375,-2.875 C 34.317711,7.4479234 33.75177,6 32.15625,6 L 14.875,6 z m 0,1.9375 17.28125,0 c 0.48716,0 0.660447,0.1126732 0.96875,0.5 0.308303,0.3873268 0.629671,1.0718434 1,1.8125 l 1.4375,2.875 c 0.173379,0.341986 0.522842,0.558894 0.90625,0.5625 l 43.21875,0 c 1.835408,0 3.28125,1.468154 3.28125,3.3125 l 0,54.71875 c 0,1.844346 -1.436902,3.281248 -3.28125,3.28125 l -63.375,0 c -1.844346,0 -3.28125,-1.436907 -3.28125,-3.28125 l 0,-4.34375 0,-50.375 0,-7.21875 c 0,-1.0465864 0.797164,-1.84375 1.84375,-1.84375 z" inkscape:connector-curvature="0" id="path3997" opacity="0.3" fill="url(#linearGradient4010-446-906-258-703)"/>
 </g>
 <g id="layer1">
  <rect width="84" height="72" rx="6" x="6" y="18" id="rect2419" fill="url(#linearGradient3706-404-41-725-637)"/>
  <path d="m 12,18 c -3.324,0 -6,2.676 -6,6 l 0,2 0,56 0,2 c 0,0.334721 0.04135,0.6507 0.09375,0.96875 0.0487,0.295596 0.09704,0.596915 0.1875,0.875 0.00988,0.03038 0.020892,0.0636 0.03125,0.09375 0.098865,0.287771 0.2348802,0.547452 0.375,0.8125 0.1445918,0.273507 0.3156161,0.535615 0.5,0.78125 0.1843839,0.245635 0.3737765,0.473472 0.59375,0.6875 0.439947,0.428056 0.94291,0.814526 1.5,1.09375 0.278545,0.139612 0.5734731,0.246947 0.875,0.34375 -0.2562018,-0.100222 -0.4867109,-0.236272 -0.71875,-0.375 -0.00741,-0.0044 -0.023866,0.0045 -0.03125,0 -0.031933,-0.0193 -0.062293,-0.04251 -0.09375,-0.0625 -0.120395,-0.0767 -0.2310226,-0.163513 -0.34375,-0.25 -0.1061728,-0.0808 -0.2132809,-0.161112 -0.3125,-0.25 C 8.4783201,88.557317 8.3087904,88.373362 8.15625,88.1875 8.0486711,88.057245 7.9378561,87.922215 7.84375,87.78125 7.818661,87.74287 7.805304,87.69538 7.78125,87.65625 7.716487,87.553218 7.6510225,87.451733 7.59375,87.34375 7.4927417,87.149044 7.3880752,86.928049 7.3125,86.71875 7.30454,86.69694 7.288911,86.6782 7.28125,86.65625 7.2494249,86.5643 7.2454455,86.469419 7.21875,86.375 7.1884177,86.268382 7.1483606,86.171969 7.125,86.0625 7.0521214,85.720988 7,85.364295 7,85 L 7,83 7,27 7,25 c 0,-2.781848 2.2181517,-5 5,-5 l 2,0 68,0 2,0 c 2.781848,0 5,2.218152 5,5 l 0,2 0,56 0,2 c 0,0.364295 -0.05212,0.720988 -0.125,1.0625 -0.04415,0.206893 -0.08838,0.397658 -0.15625,0.59375 -0.0077,0.02195 -0.0233,0.04069 -0.03125,0.0625 -0.06274,0.173739 -0.138383,0.367449 -0.21875,0.53125 -0.04158,0.0828 -0.07904,0.169954 -0.125,0.25 -0.0546,0.09721 -0.126774,0.18835 -0.1875,0.28125 -0.09411,0.140965 -0.204921,0.275995 -0.3125,0.40625 -0.143174,0.17445 -0.303141,0.346998 -0.46875,0.5 -0.01117,0.0102 -0.01998,0.02115 -0.03125,0.03125 -0.138386,0.125556 -0.285091,0.234436 -0.4375,0.34375 -0.102571,0.07315 -0.204318,0.153364 -0.3125,0.21875 -0.0074,0.0045 -0.02384,-0.0044 -0.03125,0 -0.232039,0.138728 -0.462548,0.274778 -0.71875,0.375 0.301527,-0.0968 0.596455,-0.204138 0.875,-0.34375 0.55709,-0.279224 1.060053,-0.665694 1.5,-1.09375 0.219973,-0.214028 0.409366,-0.441865 0.59375,-0.6875 0.184384,-0.245635 0.355408,-0.507743 0.5,-0.78125 0.14012,-0.265048 0.276135,-0.524729 0.375,-0.8125 0.01041,-0.03078 0.02133,-0.06274 0.03125,-0.09375 0.09046,-0.278085 0.1388,-0.579404 0.1875,-0.875 C 89.95865,84.6507 90,84.334721 90,84 l 0,-2 0,-56 0,-2 c 0,-3.324 -2.676,-6 -6,-6 l -72,0 z" inkscape:connector-curvature="0" id="rect3728" opacity="0.5" fill="url(#linearGradient3188-317-509-909-654)"/>
  <path d="M 12,90 C 8.676,90 6,87.324 6,84 L 6,82 6,26 6,24 c 0,-0.334721 0.04135,-0.6507 0.09375,-0.96875 0.0487,-0.295596 0.09704,-0.596915 0.1875,-0.875 0.00988,-0.03038 0.020892,-0.0636 0.03125,-0.09375 0.098865,-0.287771 0.2348802,-0.547452 0.375,-0.8125 0.1445918,-0.273507 0.3156161,-0.535615 0.5,-0.78125 0.1843839,-0.245635 0.3737765,-0.473472 0.59375,-0.6875 0.439947,-0.428056 0.94291,-0.814526 1.5,-1.09375 0.278545,-0.139612 0.5734731,-0.246947 0.875,-0.34375 -0.2562018,0.100222 -0.4867109,0.236272 -0.71875,0.375 -0.00741,0.0044 -0.023866,-0.0045 -0.03125,0 -0.031933,0.0193 -0.062293,0.04251 -0.09375,0.0625 -0.120395,0.0767 -0.2310226,0.163513 -0.34375,0.25 -0.1061728,0.0808 -0.2132809,0.161112 -0.3125,0.25 -0.1779299,0.161433 -0.3474596,0.345388 -0.5,0.53125 -0.1075789,0.130255 -0.2183939,0.265285 -0.3125,0.40625 -0.025089,0.03838 -0.038446,0.08587 -0.0625,0.125 -0.064763,0.103032 -0.1302275,0.204517 -0.1875,0.3125 -0.1010083,0.194706 -0.2056748,0.415701 -0.28125,0.625 C 7.30454,21.30306 7.288911,21.3218 7.28125,21.34375 7.2494249,21.4357 7.2454455,21.530581 7.21875,21.625 7.1884177,21.731618 7.1483606,21.828031 7.125,21.9375 7.0521214,22.279012 7,22.635705 7,23 l 0,2 0,56 0,2 c 0,2.781848 2.2181517,5 5,5 l 2,0 68,0 2,0 c 2.781848,0 5,-2.218152 5,-5 l 0,-2 0,-56 0,-2 c 0,-0.364295 -0.05212,-0.720988 -0.125,-1.0625 -0.04415,-0.206893 -0.08838,-0.397658 -0.15625,-0.59375 -0.0077,-0.02195 -0.0233,-0.04069 -0.03125,-0.0625 -0.06274,-0.173739 -0.138383,-0.367449 -0.21875,-0.53125 -0.04158,-0.0828 -0.07904,-0.169954 -0.125,-0.25 -0.0546,-0.09721 -0.126774,-0.18835 -0.1875,-0.28125 -0.09411,-0.140965 -0.204921,-0.275995 -0.3125,-0.40625 -0.143174,-0.17445 -0.303141,-0.346998 -0.46875,-0.5 -0.01117,-0.0102 -0.01998,-0.02115 -0.03125,-0.03125 -0.138386,-0.125556 -0.285091,-0.234436 -0.4375,-0.34375 -0.102571,-0.07315 -0.204318,-0.153364 -0.3125,-0.21875 -0.0074,-0.0045 -0.02384,0.0044 -0.03125,0 -0.232039,-0.138728 -0.462548,-0.274778 -0.71875,-0.375 0.301527,0.0968 0.596455,0.204138 0.875,0.34375 0.55709,0.279224 1.060053,0.665694 1.5,1.09375 0.219973,0.214028 0.409366,0.441865 0.59375,0.6875 0.184384,0.245635 0.355408,0.507743 0.5,0.78125 0.14012,0.265048 0.276135,0.524729 0.375,0.8125 0.01041,0.03078 0.02133,0.06274 0.03125,0.09375 0.09046,0.278085 0.1388,0.579404 0.1875,0.875 C 89.95865,23.3493 90,23.665279 90,24 l 0,2 0,56 0,2 c 0,3.324 -2.676,6 -6,6 l -72,0 z" inkscape:connector-curvature="0" id="path3615" opacity="0.2" fill="url(#radialGradient3662-441-916-652-448)"/>
  <rect width="54.46" height="34.821" rx="9" x="13.306" y="13.888" transform="matrix(0.8917533,0,0,0.92600293,12.134153,19.139874)" id="rect2399" opacity="0.1" fill="#a7a490" filter="url(#filter3179-4)"/>
 </g>
 <g id="layer4">
  <path d="m 77.78125,13.96875 c -0.270091,-0.01036 -0.558698,-0.0048 -0.875,0.03125 -0.04514,0.0051 -0.07898,-0.0068 -0.125,0 l -22.875,0 A 0.94004249,0.94004249 0 0 0 53.75,14 c -0.08984,0.01423 -0.120369,0.04227 -0.1875,0.0625 l -0.5625,0 c -2.166473,0 -3.9375,1.771027 -3.9375,3.9375 l 0,0.03125 A 0.94004249,0.94004249 0 0 0 50,18.96875 l 2.8125,0 c 0.249076,0.17452 0.441516,0.298856 0.59375,0.34375 l 0,63.71875 c -0.0411,2.60924 3.725096,3.563855 5,1.34375 L 58.4375,84.40625 58.5,84.3125 68.09375,70.75 c 3.356911,4.701517 6.65743,9.468984 10.09375,14.125 A 0.94004249,0.94004249 0 0 0 78.28125,85 c 1.748203,1.702311 4.750796,0.02545 4.5,-2.3125 l 0.03125,0 c -3.3e-5,-0.05208 3.3e-5,-0.10417 0,-0.15625 -0.01346,-21.373809 0.01674,-42.748507 -0.03125,-64.125 a 0.94004249,0.94004249 0 0 0 0,-0.0625 c -0.20656,-2.660968 -2.628403,-4.284103 -5,-4.375 z M 53,15 53.96875,15 77,15 c 1.662,0 3,1.338 3,3 l 0,0.03125 0.0625,50.15625 0,12 0,2.125 -11.96875,-16.9375 -12,16.9375 0,-14.125 0,-45.1875 L 56,23 l 0,-4.96875 -6,0 L 50,18 c 0,-1.662 1.338,-3 3,-3 z" inkscape:connector-curvature="0" id="path3859" opacity="0.05"/>
  <path d="m 77.75,14.90625 c -0.283533,-0.01087 -0.563718,-0.01023 -0.84375,0.03125 l -23,0 C 53.818221,14.951447 53.760159,14.97401 53.6875,15 l 0.28125,0 22,0 L 77,15 c 1.662,0 3,1.338 3,3 l 0.0625,50.1875 0,12 0,2.125 -11.96875,-16.9375 -12,16.9375 0,-14.125 0,-45.1875 L 56,23 56,18 c 0,-1.475879 -1.068604,-2.682677 -2.46875,-2.9375 -0.01026,-0.0019 -0.02095,0.0018 -0.03125,0 -0.790565,0.463361 -0.423519,1.814633 -0.46875,2.625 0.05117,1.001443 1.631401,0.542638 1.3125,1.59375 l 0,63.75 c -0.02695,1.711107 2.531695,2.367536 3.3125,0.84375 l 10.4375,-14.75 c 3.626016,5.049757 7.162777,10.199994 10.84375,15.1875 1.150285,1.120089 3.208531,-0.07211 2.9375,-1.625 -0.01371,-21.427172 0.01685,-42.854971 -0.03125,-64.28125 -0.164674,-2.121381 -2.109022,-3.423931 -4.09375,-3.5 z" inkscape:connector-curvature="0" id="path3850" opacity="0.1"/>
  <path d="M 54,15.9375 54,17.5 c 0.764674,0 1.34375,0.56165 1.34375,1.3125 l 0,50.09375 0,14.09375 A 0.77798469,0.77798469 0 0 0 56.75,83.4375 L 68.09375,67.40625 79.46875,83.4375 A 0.77798469,0.77798469 0 0 0 80.875,83 l 0,-2.09375 0,-12 0,-50.09375 c 0,-1.020336 -0.538002,-1.896286 -1.34375,-2.40625 C 79.821776,16.868499 80,17.411473 80,18 l 0.0625,50.1875 0,12 0,2.125 -11.96875,-16.9375 -12,16.9375 0,-14.125 0,-45.1875 L 56,23 56,18 c 0,-0.799226 -0.306441,-1.525882 -0.8125,-2.0625 l -1.1875,0 z" inkscape:connector-curvature="0" id="path3846" opacity="0.15"/>
  <path d="m 54,16.71875 c 0.947348,0 1.728584,0.613562 2,1.46875 L 56,18 c 0,-0.464936 -0.125282,-0.889223 -0.3125,-1.28125 l -1.6875,0 z m 26,1.5 0.0625,49.96875 0,12 0,2.125 L 68.09375,65.375 56.125,82.28125 56.125,83 68.09375,66.09375 l 12,16.90625 0,-2.09375 0,-12 0,-50.09375 c 0,-0.214658 -0.03485,-0.398808 -0.09375,-0.59375 z" inkscape:connector-curvature="0" id="path3202" opacity="0.3"/>
  <path d="m 53,15 c 1.662,0 3,1.338 3,3 l 0,5 0.09375,0 0,45.1875 0,14.125 12,-16.9375 11.96875,16.9375 0,-2.125 0,-12 L 80,18 c 0,-1.662 -1.338,-3 -3,-3 l -1.03125,0 -22,0 L 53,15 z" inkscape:connector-curvature="0" id="rect3204" fill="#424242"/>
  <path d="M 54.875,15 C 56.047304,15 58,15.282513 58,17.125 L 58,75.59375 68.09375,62 l 9.875,13.59375 0,-58.46875 C 77.968726,15.952697 77.016054,15 75.84375,15 L 73.875,15 C 75.0473,15 76,15.952697 76,17.125 l 0,52.5625 -7.90625,-11.3125 -8.15625,11.3125 0,-52.5625 C 59.9375,15.148621 57.984804,15 56.8125,15 l -1.9375,0 z" inkscape:connector-curvature="0" id="path3173" fill="#565656"/>
  <path d="m 53,15 c -1.662,0 -3,1.338 -3,3 l 0,0.03125 6,0 L 56,18 c 0,-1.662 -1.338,-3 -3,-3 z" inkscape:connector-curvature="0" id="rect3196" fill="#212121"/>
  <path d="m 53,-25 c -1.662,0 -3,1.338 -3,3 l 0,0.03125 30,0 L 80,-22 c 0,-1.662 -1.338,-3 -3,-3 l -24,0 z" inkscape:connector-curvature="0" id="path3943" opacity="0.2" fill="#380000"/>
  <path d="m 53,15 c 1.662,0 3,1.338 3,3 l 0,5 0.0937,0 0,45.1875 0,14.125 12,-16.9375 11.96875,16.9375 0,-2.125 0,-12 L 80,18 C 80,16.404025 78.75722,15.131797 77.1875,15.03125 77.11988,15.012462 77.06373,15.00275 77,15 L 53.96875,15 53,15 z" inkscape:connector-curvature="0" id="path3177" fill="url(#linearGradient2600-985-982-471-519)"/>
 </g>
</svg>
