<?xml version="1.0" encoding="UTF-8" standalone="no"?>
<svg xmlns:dc="http://purl.org/dc/elements/1.1/" xmlns:cc="http://creativecommons.org/ns#" xmlns:rdf="http://www.w3.org/1999/02/22-rdf-syntax-ns#" xmlns:svg="http://www.w3.org/2000/svg" xmlns="http://www.w3.org/2000/svg" xmlns:sodipodi="http://sodipodi.sourceforge.net/DTD/sodipodi-0.dtd" xmlns:inkscape="http://www.inkscape.org/namespaces/inkscape" viewBox="0 0 512 512" height="512" width="512" version="1.1" id="svg2" inkscape:version="0.91 r" sodipodi:docname="folder-pictures.svg">
<sodipodi:namedview pagecolor="#ffffff" bordercolor="#666666" borderopacity="1" objecttolerance="10" gridtolerance="10" guidetolerance="10" inkscape:pageopacity="0" inkscape:pageshadow="2" inkscape:window-width="640" inkscape:window-height="480" id="namedview23" showgrid="false" inkscape:zoom="0.4609375" inkscape:cx="256" inkscape:cy="256" inkscape:window-x="0" inkscape:window-y="0" inkscape:window-maximized="0" inkscape:current-layer="svg2" />
<metadata id="metadata485">
<rdf:RDF>
<cc:Work rdf:about="">
<dc:format>image/svg+xml</dc:format>
<dc:type rdf:resource="http://purl.org/dc/dcmitype/StillImage" />
</cc:Work>
</rdf:RDF>
</metadata>
<defs id="defs4">
<linearGradient gradientUnits="userSpaceOnUse" id="0-4" y2="453.24" x2="0" y1="121.74" gradientTransform="translate(0.0012,5e-4)">
<stop id="stop7-8" stop-color="#6a6a6a" />
<stop offset="0.47" id="stop9-1" />
<stop offset="0.494" id="stop11-2" stop-color="#ffffff" />
<stop offset="0.901" id="stop13-5" stop-color="#ffffff" />
<stop offset="0.955" id="stop15-9" />
<stop offset="1" id="stop17-4" />
</linearGradient>
</defs>
<path d="m 108.6312,57.3705 c -7.963,0 -15.228,2.293 -20.693,6.22 -4.545,3.266 -7.751,7.872 -8.752,13.13 l -11.909,0 c -16.447,0 -29.883,13.03 -29.883,29.2 l 0,66.736 c 0,16.17 13.436,29.19 29.883,29.19 l 377.47,0 c 16.447,0 29.883,-13.03 29.883,-29.19 l 0,-66.736 c 0,-16.17 -13.436,-29.2 -29.883,-29.2 l -262.91,0 c -1,-5.256 -4.208,-9.862 -8.753,-13.13 -5.465,-3.927 -12.73,-6.22 -20.693,-6.22 l -43.761,0" id="path115" fill="#cccccc" fill-rule="evenodd" />
<path d="m 37.3612,118.4605 c -19.928,0 -38.06,15.818 -36.23,35.853 l 24.26,265.41 c 1.733,18.966 16.271,34.947 36.2,34.947 l 383.41,0 c 19.933,0 34.1,-16.05 36.2,-34.853 l 29.632,-265.41 c 1.123,-10.05 -3.137,-19.263 -9.971,-25.663 -6.833,-6.399 -16.258,-10.284 -26.22,-10.284 l -437.27,0" id="path117" fill="#949494" fill-rule="evenodd" />
<path d="m 108.5512,57.2905 c -7.963,0 -15.11,2.403 -20.572,6.33 -4.545,3.266 -7.702,7.931 -8.703,13.187 l -12.13,0 c -17.677,0 -29.802,12.771 -29.802,30.661 l 0,3.956 c 0,-16.17 13.355,-29.27 29.802,-29.27 l 14.286,0 c 1,-5.256 2,-9.657 6.549,-12.923 5.465,-3.927 12.609,-6.33 20.572,-6.33 l 43.78,0 c 7.963,0 15.371,2.403 20.835,6.33 4.545,3.266 5.766,7.668 6.769,12.923 l 264.88,0 c 16.447,0 29.802,11.455 29.802,27.625 l 0,-3.956 c 0,-16.17 -13.355,-29.01 -29.802,-29.01 l -262.95,0 c -1,-5.256 -4.159,-9.921 -8.703,-13.187 -5.465,-3.927 -12.872,-6.33 -20.835,-6.33 z" id="path125" opacity="0.764" fill="#ffffff" fill-rule="evenodd" />
<path d="m 37.3512,118.4505 c -19.928,0 -38.05,15.84 -36.22,35.875 l 0.406,4.375 c 3,-15.936 18.732,-27.563 35.813,-27.563 l 437.28,0 c 9.966,0 19.386,3.882 26.22,10.281 4.736,4.435 8.234,10.208 9.563,16.688 l 0.406,-3.688 c 1.123,-10.05 -3.134,-19.288 -9.969,-25.688 -6.833,-6.399 -16.252,-10.281 -26.22,-10.281 l -437.28,0" id="path127" opacity="0.4" fill="#ffffff" fill-rule="evenodd" />
<path d="m 169.54918,161.58234 c -27.62536,0 -49.85017,22.25861 -49.85017,49.88397 l 0,150.26251 c 0,27.62536 22.22372,49.85017 49.85017,49.85017 l 172.85477,0 c 27.62536,0 49.88397,-22.22372 49.88397,-49.85017 l 0,-150.26251 c 0,-27.62536 -22.25861,-49.88397 -49.88397,-49.88397 l -172.85477,0 m 19.0126,24.66939 134.83392,0 c 23.25193,0 41.97886,18.72148 41.97886,41.97886 l 0,116.70123 c 0,23.25193 -18.72148,41.97886 -41.97886,41.97886 l -134.83392,0 c -23.25192,0 -41.97886,-18.72148 -41.97886,-41.97886 l 0,-116.70123 c 0,-23.25193 18.72149,-41.97886 41.97886,-41.97886" id="path473" fill="#ffffff" fill-rule="evenodd" />
<path id="path477" d="m 152.56495,367.18607 206.57866,0 c -18.86357,-38.37624 -26.6948,-83.91487 -62.66713,-83.25095 -14.7937,-0.49609 -24.87829,10.324 -33.43761,19.17208 -7.6165,7.89046 -15.69208,16.53616 -22.74833,21.63029 -8.38161,4.67455 -14.0508,3.09745 -19.65336,-3.33438 -35.14058,-40.21497 -61.47011,7.1994 -68.08457,45.78296 z" fill="#ffffff" stroke="#fff8eb" stroke-width="2.468" />
<path id="path479" d="m 249.10906,255.68582 c 0,14.68551 -11.90499,26.58773 -26.58773,26.58773 -14.6855,0 -26.58773,-11.90499 -26.58773,-26.58773 0,-14.6855 11.905,-26.58773 26.58773,-26.58773 14.6855,0 26.58773,11.905 26.58773,26.58773 z" fill="#ffffff" fill-rule="evenodd" stroke="#fff8eb" stroke-width="2.767" />
<rect width="216.43" height="37.724" rx="38.49" ry="17.299" x="145.64" y="360.15" id="rect481" fill="#ffffff" fill-rule="evenodd" />
</svg>
